<?xml version="1.0"?>
<svg version="1.1" viewBox="0 0 1000 600" xmlns:xlink="http://www.w3.org/1999/xlink" xmlns="http://www.w3.org/2000/svg">
<g>
<g stroke-dasharray="3.6 7.2" stroke-width="0.72" stroke="#caa">
<line x1="813.75" x2="813.75" y1="510.00" y2="90.00" />
<line x1="760.60" x2="760.60" y1="510.00" y2="90.00" />
<line x1="707.45" x2="707.45" y1="510.00" y2="90.00" />
<line x1="656.01" x2="656.01" y1="510.00" y2="90.00" />
<line x1="602.86" x2="602.86" y1="510.00" y2="90.00" />
<line x1="551.42" x2="551.42" y1="510.00" y2="90.00" />
<line x1="498.27" x2="498.27" y1="510.00" y2="90.00" />
<line x1="445.11" x2="445.11" y1="510.00" y2="90.00" />
<line x1="393.68" x2="393.68" y1="510.00" y2="90.00" />
<line x1="340.52" x2="340.52" y1="510.00" y2="90.00" />
<line x1="289.09" x2="289.09" y1="510.00" y2="90.00" />
<line x1="235.93" x2="235.93" y1="510.00" y2="90.00" />
<line x1="187.92" x2="187.92" y1="510.00" y2="90.00" />
<line x1="150.00" x2="850.00" y1="510.00" y2="510.00" />
<line x1="150.00" x2="850.00" y1="319.09" y2="319.09" />
<line x1="150.00" x2="850.00" y1="128.18" y2="128.18" />
</g>
<g>
<text dominant-baseline="hanging" dx="-36.0" dy="18.0" fill="#0004" font-family="Arial, sans-serif" font-size="36" stroke="none" text-anchor="end" x="850.00" y="128.18">FR1</text>
</g>
<g>
<text dominant-baseline="text-bottom" dy="-12.0" fill="black" font-family="Arial, sans-serif" font-size="18.0" font-style="italic" stroke="none" text-anchor="middle" x="500.00" y="90.00">Years 2023 to 2024</text>
</g>
<g>
<text dominant-baseline="central" dx="12.0" dy="12.0" fill="black" font-family="Arial, sans-serif" font-size="18.0" font-style="italic" stroke="none" text-anchor="middle" text-orientation="sideways" writing-mode="vertical-lr" x="850.00" y="300.00">Drips per day</text>
</g>
<polyline fill="none" points="150.20,180.77 150.30,177.45 150.40,171.58 150.50,177.31 150.59,160.98 150.68,157.93 150.78,169.41 150.88,170.05 150.97,176.78 151.08,189.90 151.18,184.79 151.27,166.15 151.37,164.85 151.46,174.81 151.56,181.55 151.66,180.77 151.77,206.62 151.88,199.66 151.98,196.24 152.08,188.72 152.18,181.95 152.28,171.09 152.38,172.48 152.47,165.72 152.57,170.33 152.67,178.98 152.77,189.97 152.87,186.64 152.97,188.03 153.07,171.44 153.17,181.16 153.27,173.58 153.37,182.53 153.47,194.86 153.58,208.62 153.69,211.19 153.80,207.01 153.90,194.07 154.00,182.66 154.09,169.49 154.19,169.06 154.29,187.65 154.40,196.53 154.50,204.43 154.61,199.02 154.71,186.89 154.81,182.08 154.91,191.76 155.01,187.78 155.12,210.37 155.23,199.78 155.34,205.84 155.44,205.78 155.55,204.43 155.66,197.25 155.76,186.58 155.86,179.32 155.96,180.50 156.05,174.54 156.15,169.70 156.25,176.24 156.35,190.03 156.45,166.29 156.54,168.43 156.64,165.86 156.73,175.70 156.83,181.62 156.94,195.10 157.05,205.62 157.15,197.96 157.25,173.93 157.35,193.16 157.45,176.71 157.55,175.29 157.64,173.58 157.75,191.51 157.85,196.00 157.95,191.39 158.06,193.89 158.16,183.50 158.26,181.29 158.36,181.68 158.46,183.05 158.56,185.88 158.67,210.64 158.78,212.75 158.89,210.59 158.99,204.26 159.10,200.71 159.20,196.83 159.31,196.30 159.41,194.01 159.52,205.73 159.63,206.34 159.74,210.10 159.84,193.83 159.95,198.37 160.05,185.88 160.15,193.41 160.25,196.24 160.36,212.16 160.48,223.79 160.59,218.78 160.70,215.56 160.81,197.48 160.91,205.39 161.02,197.37 161.12,193.83 161.23,201.52 161.34,207.01 161.44,201.86 161.55,189.72 161.65,182.27 161.75,185.37 161.85,187.08 161.95,185.62 162.05,196.65 162.16,207.46 162.27,208.73 162.37,196.30 162.48,193.04 162.58,177.25 162.68,181.88 162.78,185.24 162.88,192.74 162.98,194.68 163.09,195.16 163.19,185.37 163.29,196.95 163.40,198.78 163.50,191.45 163.61,200.24 163.71,193.41 163.81,190.89 163.92,195.22 164.02,184.09 164.12,193.22 164.22,197.90 164.34,216.82 164.45,210.53 164.55,208.67 164.67,221.58 164.78,214.29 164.89,211.94 165.00,212.48 165.10,200.07 165.21,195.76 165.32,205.56 165.43,216.29 165.54,209.88 165.64,203.64 165.75,194.38 165.85,187.34 165.95,199.54 166.06,204.66 166.17,211.35 166.28,213.34 166.39,213.23 166.51,225.71 166.62,222.94 166.73,220.98 166.84,209.28 166.95,210.15 167.06,210.75 167.17,216.50 167.28,201.46 167.39,203.24 167.48,180.64 167.59,199.84 167.70,218.27 167.81,213.60 167.92,208.29 168.03,213.60 168.14,221.28 168.26,220.72 168.38,230.95 168.48,209.44 168.59,203.07 168.70,205.22 168.81,210.48 168.92,222.84 169.03,220.82 169.14,203.92 169.25,196.06 169.36,215.51 169.47,211.62 169.57,198.61 169.69,225.17 169.80,219.40 169.91,224.92 170.03,223.98 170.14,221.48 170.25,212.48 170.36,219.45 170.48,227.27 170.59,220.98 170.70,205.28 170.81,211.89 170.92,209.83 171.03,222.99 171.15,214.24 171.25,211.35 171.37,221.33 171.48,227.46 171.60,232.97 171.72,238.22 171.84,226.83 171.95,223.49 172.06,217.23 172.18,220.01 172.29,226.05 172.40,217.08 172.51,209.50 172.62,215.61 172.73,212.96 172.85,226.73 172.96,204.83 173.07,220.88 173.18,218.06 173.30,240.79 173.43,240.04 173.54,228.14 173.66,224.43 173.77,224.87 173.89,232.87 174.01,235.09 174.12,225.66 174.23,216.55 174.35,225.27 174.47,235.73 174.58,221.48 174.69,218.16 174.81,216.03 174.92,222.69 175.04,228.62 175.15,227.12 175.26,219.60 175.38,219.65 175.49,214.19 175.60,219.14 175.71,219.81 175.83,223.69 175.94,221.23 176.05,221.03 176.17,218.27 176.28,221.08 176.39,218.27 222.36,232.27 222.47,235.32 222.59,228.81 222.71,237.50 222.83,227.56 222.95,236.82 223.06,232.27 223.18,233.11 223.30,239.24 223.42,240.17 223.55,238.08 223.67,236.69 223.78,236.10 223.90,230.24 224.02,236.50 224.14,232.73 224.26,241.10 224.38,234.72 224.50,240.26 224.62,236.46 224.74,238.75 224.86,243.01 224.98,234.40 225.10,240.75 225.22,234.63 225.34,233.39 225.46,231.94 225.58,240.08 225.70,235.41 225.82,241.75 225.94,243.27 226.07,244.64 226.19,239.64 226.31,239.02 226.43,246.34 226.56,241.05 226.68,245.79 226.80,241.84 226.93,244.39 227.05,240.83 227.16,231.75 227.29,245.16 227.41,233.89 227.53,244.39 227.65,236.87 227.77,246.21 227.90,247.01 228.02,247.72 228.14,239.38 228.26,238.80 228.39,246.13 228.51,242.45 228.64,249.13 228.76,237.45 228.88,244.43 229.00,235.23 229.12,236.69 229.24,235.73 229.36,240.22 229.48,240.83 229.61,246.38 229.73,240.17 229.85,235.23 229.97,245.37 230.09,242.32 230.22,245.92 230.34,243.83 230.46,246.34 230.58,237.86 230.71,246.21 230.83,249.34 230.96,245.11 231.08,252.23 231.21,249.92 231.34,252.84 231.46,247.47 231.59,254.15 231.71,247.89 231.84,252.92 231.97,251.18 232.09,248.39 232.22,251.75 232.34,241.40 232.46,242.84 232.59,256.24 232.72,250.28 232.85,255.69 232.98,256.39 233.10,254.86 233.23,254.90 233.36,245.79 233.49,256.86 233.62,257.25 233.74,250.65 233.87,252.43 234.00,256.00 234.13,253.52 234.25,248.64 234.38,252.84 234.51,258.02 234.64,254.90 234.77,258.83 234.89,249.79 235.02,258.83 235.15,249.71 235.28,255.96 235.41,255.77 235.54,261.18 235.67,252.76 235.79,252.19 235.92,260.23 236.05,258.60 236.19,261.96 236.31,257.05 236.44,257.09 236.58,261.66 236.70,253.16 236.83,259.51 236.96,257.09 237.10,261.96 237.23,263.41 237.36,269.45 237.50,262.96 237.63,264.76 237.76,265.82 237.90,262.93 238.03,267.15 238.17,269.31 238.30,270.15 238.43,257.94 238.57,267.40 238.70,261.40 238.83,263.15 238.97,262.33 239.10,258.94 239.23,262.67 239.36,254.47 239.49,258.21 239.62,261.06 239.75,263.22 239.88,260.61 240.02,270.11 240.15,261.14 240.28,256.51 240.41,269.66 240.55,267.54 240.69,273.21 240.82,262.74 240.96,277.06 241.10,268.96 241.23,272.16 241.37,268.85 241.51,275.07 241.65,268.43 241.78,269.27 241.91,264.03 242.05,268.57 242.19,284.70 242.33,266.03 242.47,271.81 242.60,270.18 242.74,276.20 242.88,265.85 243.02,276.73 243.16,285.58 243.30,276.30 243.45,283.55 243.58,267.54 243.72,279.08 243.87,277.19 244.00,275.37 244.14,270.22 244.28,273.79 244.42,271.02 244.55,269.31 244.69,271.09 244.83,274.26 244.97,279.56 245.11,275.00 245.25,278.40 245.39,278.56 245.53,275.57 245.67,271.50 245.81,276.56 245.95,273.18 246.09,271.88 246.22,275.00 246.37,281.54 246.51,281.20 246.65,275.44 246.79,281.64 246.94,277.98 247.07,273.21 247.22,280.62 247.36,278.72 247.50,278.43 247.64,274.97 247.79,287.82 247.93,282.83 248.07,275.84 248.22,291.15 248.36,284.42 248.51,289.07 248.66,286.80 248.80,284.20 248.95,286.98 249.10,291.07 249.25,286.71 249.39,281.80 249.54,285.68 249.67,273.89 249.82,282.55 249.96,278.98 250.11,292.97 250.25,281.70 250.40,280.72 250.54,287.46 250.69,286.28 250.84,287.25 250.99,291.88 251.13,280.46 251.27,280.91 251.42,289.60 251.56,279.79 251.71,284.20 251.86,291.53 252.01,287.16 252.15,287.19 252.30,287.58 252.45,287.04 252.60,292.14 252.74,288.60 252.89,287.76 253.03,280.69 253.18,287.46 253.34,296.31 253.49,295.14 253.64,290.92 253.78,288.98 253.93,291.36 254.09,297.41 254.25,301.23 254.40,297.41 254.55,299.15 254.71,297.91 254.86,290.66 255.01,296.51 255.16,292.94 255.32,295.90 255.47,293.28 255.62,296.31 255.77,291.93 255.92,293.08 256.07,297.17 256.22,289.34 256.37,294.33 256.52,287.43 256.67,291.12 256.82,296.15 256.98,294.64 257.13,299.96 257.29,297.74 257.44,299.10 257.60,299.31 257.75,296.53 257.91,299.61 258.06,291.76 258.21,297.03 258.36,295.00 258.52,302.34 258.67,295.79 176.62,225.51 176.74,229.10 176.86,236.50 176.97,229.10 177.08,213.02 177.19,204.26 177.30,208.73 177.41,214.93 177.52,216.71 177.63,219.50 177.74,212.64 177.85,199.43 177.95,200.88 178.06,191.02 178.16,193.47 178.26,194.07 178.37,204.60 178.48,205.62 178.59,203.12 178.69,206.01 178.80,195.76 178.90,198.37 179.01,200.36 179.11,200.19 179.22,212.48 179.34,219.35 179.45,218.89 179.56,206.96 179.67,211.83 179.77,207.96 179.88,196.53 179.99,205.78 180.10,212.43 180.21,211.46 180.32,209.72 180.42,207.07 180.53,202.32 180.63,198.13 180.74,198.84 180.85,217.13 180.96,206.23 181.07,208.78 181.18,211.89 181.29,216.29 181.40,202.50 181.50,202.90 181.61,197.90 181.71,195.64 181.82,195.88 181.92,202.50 182.03,195.10 182.13,190.21 182.23,181.03 182.33,174.20 182.42,180.31 182.53,194.38 182.63,200.82 182.74,203.98 182.85,198.66 182.95,190.83 183.05,180.11 183.15,180.50 183.25,176.51 183.35,180.83 183.44,167.51 183.54,185.69 183.64,193.35 183.75,183.89 183.84,178.65 183.94,182.73 184.04,173.99 184.14,178.58 184.24,184.21 184.34,182.14 184.44,181.10 184.54,175.36 184.63,171.02 184.73,178.32 184.83,171.02 184.93,177.25 185.02,167.43 185.12,165.86 185.21,159.65 185.31,162.45 185.40,174.13 185.50,168.57 185.60,170.33 185.69,167.93 185.79,168.78 185.88,165.86 185.98,167.15 186.07,163.91 186.17,174.20 186.27,167.43 186.36,171.02 186.46,172.41 186.55,163.11 186.65,164.49 186.75,176.03 186.84,169.41 186.94,170.40 187.03,166.58 187.13,172.34 187.23,171.86 187.32,168.71 187.42,160.91 187.51,171.65 187.61,173.38 187.71,163.33 187.80,172.27 187.90,167.51 187.99,169.13 188.09,166.36 188.18,164.20 188.28,165.07 188.37,161.72 188.47,168.29 188.57,175.70 188.67,176.44 188.76,170.82 188.86,174.61 188.96,177.65 189.05,159.57 189.15,168.21 189.24,145.80 189.33,165.50 189.42,156.72 189.52,166.15 189.62,169.70 189.71,170.75 189.81,170.54 189.90,164.71 190.00,167.86 190.09,163.26 190.19,174.75 190.29,166.08 190.38,166.58 190.48,171.02 190.58,177.18 190.67,167.29 190.77,168.36 190.86,168.50 190.96,163.04 191.05,168.85 191.15,161.20 191.24,161.35 191.33,156.19 191.43,159.28 191.52,169.06 191.62,170.33 191.72,167.86 191.81,176.17 191.91,178.78 192.01,176.98 192.11,173.72 192.21,171.65 192.30,170.19 192.40,166.79 192.49,167.29 192.59,169.41 192.69,181.49 192.78,169.06 192.88,172.14 192.98,168.99 193.08,175.76 193.17,165.00 193.27,170.05 193.36,171.65 193.46,173.38 193.56,178.58 193.66,173.24 193.76,178.58 193.85,170.47 193.95,175.43 194.04,167.58 194.14,179.58 194.24,174.40 194.34,170.33 194.44,173.17 194.53,161.57 194.62,160.39 194.72,160.91 194.81,163.18 194.91,166.58 195.00,176.17 195.10,166.36 195.20,179.45 195.29,160.09 195.39,177.98 195.49,171.79 195.59,178.05 195.68,168.78 195.78,169.84 195.88,176.44 195.97,173.86 196.07,181.10 196.17,167.15 196.27,173.93 196.36,169.91 196.46,164.49 196.55,165.72 196.65,175.90 196.75,171.93 196.85,182.99 196.94,167.58 197.04,178.78 197.14,170.47 197.24,174.34 197.33,167.65 197.43,175.90 197.53,176.91 197.62,170.47 197.72,180.11 197.82,174.06 197.92,180.70 198.01,162.53 198.11,172.83 198.21,164.35 198.30,179.45 198.40,167.36 198.50,180.24 198.60,176.44 198.70,178.72 198.79,175.02 198.89,172.55 198.99,173.99 199.09,180.77 199.19,179.91 199.29,182.92 199.39,187.53 199.49,181.42 199.59,187.97 199.69,175.76 199.79,188.72 199.89,184.60 199.99,190.71 200.10,194.98 200.20,184.60 200.30,185.75 200.40,184.98 200.50,197.43 200.60,184.86 200.71,194.50 200.81,190.09 200.92,196.65 201.02,193.22 201.12,197.25 201.22,188.97 201.33,191.88 201.43,183.63 201.53,183.83 201.63,187.02 293.37,359.49 293.59,358.95 293.81,359.42 294.02,356.70 294.24,358.26 294.46,360.97 294.67,357.56 294.89,358.35 295.10,359.60 295.32,359.39 295.54,362.08 295.76,357.79 295.98,361.80 296.20,362.27 296.43,364.75 296.65,365.77 296.88,366.59 297.11,366.34 297.34,369.09 297.57,365.21 297.80,367.72 298.03,368.40 298.26,371.32 298.50,373.42 298.74,373.43 298.99,377.12 299.24,376.87 299.48,376.88 299.73,380.55 299.99,381.65 300.24,380.14 300.50,382.23 300.76,383.81 301.01,382.01 301.27,382.85 301.53,384.50 301.79,383.64 302.05,384.33 302.31,384.18 302.57,382.38 302.82,381.87 303.08,380.99 303.33,381.25 303.59,383.24 303.85,382.35 304.11,384.38 304.37,384.50 304.63,383.20 304.89,386.69 305.15,382.83 305.41,383.78 305.67,383.47 305.93,384.39 306.18,379.08 306.43,381.28 306.69,385.03 306.95,384.46 307.22,385.53 307.48,387.35 307.74,381.37 307.99,381.01 308.26,386.46 308.52,386.07 308.79,387.21 309.06,390.79 309.33,389.03 309.61,391.48 309.88,389.47 310.15,390.60 310.44,394.49 310.72,393.73 311.00,392.98 311.27,388.32 311.55,395.02 311.85,397.99 312.14,397.05 312.43,397.95 312.71,394.94 313.00,394.48 313.28,394.04 313.56,395.30 313.85,397.46 314.14,395.44 314.43,398.51 314.72,394.88 315.01,396.37 315.30,400.74 315.60,397.92 315.90,403.69 316.20,400.71 316.49,395.95 316.76,388.39 317.04,393.81 317.31,389.47 317.60,395.13 317.88,394.05 318.15,390.28 318.43,392.14 318.72,397.74 319.02,398.54 319.31,396.72 319.60,397.07 319.87,392.00 320.15,393.50 320.45,397.47 320.73,396.83 321.02,395.48 321.32,400.37 321.60,393.96 321.89,394.70 322.18,398.26 322.48,400.61 322.79,403.82 323.08,399.99 323.38,400.74 323.69,403.11 323.99,402.89 324.30,402.68 324.61,403.97 324.91,402.48 325.21,398.39 325.51,403.62 325.82,403.27 326.13,402.95 326.43,402.05 326.72,397.74 327.02,402.24 327.34,404.94 327.65,406.73 327.97,406.38 328.28,405.39 328.58,401.82 328.91,408.88 329.22,405.63 329.54,408.03 329.86,407.02 330.18,405.99 330.49,406.74 258.99,304.20 259.14,298.64 259.30,299.23 259.46,301.87 259.61,301.92 259.77,303.59 259.93,302.29 260.08,300.36 260.24,303.07 260.40,302.50 260.56,305.83 260.72,299.31 260.88,304.51 261.03,301.55 261.20,311.89 261.36,306.56 261.52,302.05 261.68,309.97 261.84,309.21 262.01,309.51 262.18,319.07 262.34,311.39 262.51,314.54 262.68,315.56 262.84,313.47 263.02,319.53 263.18,312.06 263.34,306.44 263.51,312.70 263.67,312.56 263.84,316.61 264.01,317.10 264.18,316.67 264.35,319.44 264.52,315.19 264.69,314.27 264.86,313.07 265.02,312.37 265.19,314.15 265.36,318.43 265.53,320.23 265.71,321.43 265.88,318.83 266.05,324.94 266.23,325.50 266.41,324.25 266.58,321.15 266.76,323.45 266.93,320.76 267.10,321.86 267.29,334.71 267.48,333.25 267.66,331.37 267.85,338.75 268.04,333.61 268.22,331.29 268.40,331.72 268.58,329.00 268.76,329.18 268.95,333.78 269.14,337.59 269.32,331.41 269.50,327.36 269.68,330.28 269.86,326.50 270.04,322.97 270.22,329.55 270.40,328.18 270.57,321.21 270.75,326.28 270.93,325.50 271.11,328.82 271.29,326.95 271.47,331.72 271.65,330.56 271.83,327.98 272.01,327.56 272.19,328.70 272.37,324.58 272.55,326.69 272.73,331.37 272.92,332.73 273.10,328.90 273.28,328.68 273.46,325.83 273.63,322.52 273.81,323.22 273.98,326.38 274.16,328.60 274.35,331.27 274.52,325.56 274.71,333.63 274.89,332.24 275.08,331.55 275.26,328.16 275.44,325.87 275.62,330.09 275.80,335.16 275.99,330.12 276.17,331.87 276.36,338.61 276.55,336.12 276.73,332.85 276.92,333.30 277.10,326.58 277.28,334.15 277.48,339.83 277.67,336.52 277.85,335.69 278.04,337.32 278.23,334.26 278.42,339.07 278.61,335.84 278.80,336.25 278.99,336.28 279.17,336.57 279.37,340.15 279.56,338.27 279.74,332.60 279.93,340.53 280.13,341.38 280.31,333.81 280.50,331.37 280.69,341.91 280.89,341.57 281.09,345.30 281.28,340.91 281.47,340.56 281.67,346.83 281.87,345.99 282.07,343.10 282.26,338.89 282.46,346.90 282.66,348.79 282.86,343.76 283.06,346.41 283.26,342.71 283.45,342.85 283.66,348.64 283.85,345.84 284.05,342.34 284.25,346.66 284.45,343.99 284.65,345.60 284.85,348.59 285.05,350.82 285.25,345.65 285.46,347.14 285.65,342.01 285.85,346.83 286.06,355.83 286.27,350.01 286.47,349.59 286.68,349.61 286.89,353.92 287.08,343.66 287.28,341.03 287.48,346.80 287.68,352.17 287.89,350.32 288.10,353.89 288.31,351.76 288.51,347.40 288.71,350.60 288.91,347.86 289.11,345.88 289.33,356.61 289.53,350.60 289.74,352.23 289.95,354.26 290.16,355.05 290.37,353.34 290.58,351.85 290.79,357.71 291.00,349.64 291.21,360.16 291.44,363.60 291.66,359.78 291.87,356.63 292.09,361.02 292.30,357.88 292.51,354.27 292.73,356.86 292.95,359.21 331.14,407.10 331.48,414.16 331.77,397.88 332.10,409.46 332.43,411.37 332.76,411.24 333.09,411.96 333.42,409.41 333.74,407.28 334.08,413.02 334.42,415.23 334.76,412.00 335.09,413.04 335.42,411.00 335.77,414.60 336.11,415.14 336.46,416.29 336.82,417.85 337.16,413.79 337.52,419.55 337.88,418.73 338.25,422.60 338.61,418.65 338.96,417.59 339.34,422.75 339.71,421.58 340.09,423.29 340.44,418.36 340.82,422.83 341.20,424.47 341.58,422.83 341.96,423.66 342.33,422.79 342.72,425.93 343.10,424.40 343.49,424.10 343.88,427.00 344.27,425.49 344.66,427.40 345.07,428.58 345.46,427.01 345.85,425.85 346.24,427.30 346.64,427.34 347.05,430.21 347.45,427.60 347.85,427.74 348.25,428.67 348.66,431.39 349.06,427.44 349.47,429.73 349.89,431.69 350.31,432.18 350.71,429.55 351.12,429.23 351.54,432.02 351.96,432.69 352.38,432.30 352.80,431.66 391.62,471.65 353.66,434.38 354.10,434.46 354.53,433.81 354.98,437.18 355.43,438.01 355.88,437.02 356.35,439.80 356.81,439.49 357.29,441.50 357.75,438.98 358.22,440.83 358.70,441.54 359.17,440.29 359.63,438.79 360.12,443.55 360.62,444.11 361.10,442.21 361.61,445.41 362.11,444.27 362.61,444.74 363.11,444.84 363.62,445.60 364.13,446.65 364.66,447.58 365.19,448.58 365.73,448.80 366.25,447.28 366.81,451.51 367.36,450.25 367.92,452.13 368.49,452.34 369.06,452.26 369.63,452.57 370.21,453.54 370.79,454.08 371.38,454.56 371.98,455.10 372.58,455.32 373.18,455.98 373.80,456.68 374.43,458.03 375.03,455.57 375.65,457.60 376.31,460.05 376.95,459.05 377.59,459.13 378.27,461.40 378.94,461.37 379.62,461.47 380.29,461.64 381.00,463.51 381.67,461.38 382.38,463.91 383.09,464.23 383.83,465.45 384.57,466.02 385.30,464.86 386.03,465.02 386.76,465.15 387.52,466.92 388.32,469.39 389.12,469.09 389.94,470.20" stroke-dasharray="3.6 3.6" stroke-width="3.6" stroke="#aaa" />
<g>
<circle cx="150.20" cy="180.77" r="1.6666666666666667" />
<circle cx="150.30" cy="177.45" r="1.6666666666666667" />
<circle cx="150.40" cy="171.58" r="1.6666666666666667" />
<circle cx="150.50" cy="177.31" r="1.6666666666666667" />
<circle cx="150.59" cy="160.98" r="1.6666666666666667" />
<circle cx="150.68" cy="157.93" r="1.6666666666666667" />
<circle cx="150.78" cy="169.41" r="1.6666666666666667" />
<circle cx="150.88" cy="170.05" r="1.6666666666666667" />
<circle cx="150.97" cy="176.78" r="1.6666666666666667" />
<circle cx="151.08" cy="189.90" r="1.6666666666666667" />
<circle cx="151.18" cy="184.79" r="1.6666666666666667" />
<circle cx="151.27" cy="166.15" r="1.6666666666666667" />
<circle cx="151.37" cy="164.85" r="1.6666666666666667" />
<circle cx="151.46" cy="174.81" r="1.6666666666666667" />
<circle cx="151.56" cy="181.55" r="1.6666666666666667" />
<circle cx="151.66" cy="180.77" r="1.6666666666666667" />
<circle cx="151.77" cy="206.62" r="1.6666666666666667" />
<circle cx="151.88" cy="199.66" r="1.6666666666666667" />
<circle cx="151.98" cy="196.24" r="1.6666666666666667" />
<circle cx="152.08" cy="188.72" r="1.6666666666666667" />
<circle cx="152.18" cy="181.95" r="1.6666666666666667" />
<circle cx="152.28" cy="171.09" r="1.6666666666666667" />
<circle cx="152.38" cy="172.48" r="1.6666666666666667" />
<circle cx="152.47" cy="165.72" r="1.6666666666666667" />
<circle cx="152.57" cy="170.33" r="1.6666666666666667" />
<circle cx="152.67" cy="178.98" r="1.6666666666666667" />
<circle cx="152.77" cy="189.97" r="1.6666666666666667" />
<circle cx="152.87" cy="186.64" r="1.6666666666666667" />
<circle cx="152.97" cy="188.03" r="1.6666666666666667" />
<circle cx="153.07" cy="171.44" r="1.6666666666666667" />
<circle cx="153.17" cy="181.16" r="1.6666666666666667" />
<circle cx="153.27" cy="173.58" r="1.6666666666666667" />
<circle cx="153.37" cy="182.53" r="1.6666666666666667" />
<circle cx="153.47" cy="194.86" r="1.6666666666666667" />
<circle cx="153.58" cy="208.62" r="1.6666666666666667" />
<circle cx="153.69" cy="211.19" r="1.6666666666666667" />
<circle cx="153.80" cy="207.01" r="1.6666666666666667" />
<circle cx="153.90" cy="194.07" r="1.6666666666666667" />
<circle cx="154.00" cy="182.66" r="1.6666666666666667" />
<circle cx="154.09" cy="169.49" r="1.6666666666666667" />
<circle cx="154.19" cy="169.06" r="1.6666666666666667" />
<circle cx="154.29" cy="187.65" r="1.6666666666666667" />
<circle cx="154.40" cy="196.53" r="1.6666666666666667" />
<circle cx="154.50" cy="204.43" r="1.6666666666666667" />
<circle cx="154.61" cy="199.02" r="1.6666666666666667" />
<circle cx="154.71" cy="186.89" r="1.6666666666666667" />
<circle cx="154.81" cy="182.08" r="1.6666666666666667" />
<circle cx="154.91" cy="191.76" r="1.6666666666666667" />
<circle cx="155.01" cy="187.78" r="1.6666666666666667" />
<circle cx="155.12" cy="210.37" r="1.6666666666666667" />
<circle cx="155.23" cy="199.78" r="1.6666666666666667" />
<circle cx="155.34" cy="205.84" r="1.6666666666666667" />
<circle cx="155.44" cy="205.78" r="1.6666666666666667" />
<circle cx="155.55" cy="204.43" r="1.6666666666666667" />
<circle cx="155.66" cy="197.25" r="1.6666666666666667" />
<circle cx="155.76" cy="186.58" r="1.6666666666666667" />
<circle cx="155.86" cy="179.32" r="1.6666666666666667" />
<circle cx="155.96" cy="180.50" r="1.6666666666666667" />
<circle cx="156.05" cy="174.54" r="1.6666666666666667" />
<circle cx="156.15" cy="169.70" r="1.6666666666666667" />
<circle cx="156.25" cy="176.24" r="1.6666666666666667" />
<circle cx="156.35" cy="190.03" r="1.6666666666666667" />
<circle cx="156.45" cy="166.29" r="1.6666666666666667" />
<circle cx="156.54" cy="168.43" r="1.6666666666666667" />
<circle cx="156.64" cy="165.86" r="1.6666666666666667" />
<circle cx="156.73" cy="175.70" r="1.6666666666666667" />
<circle cx="156.83" cy="181.62" r="1.6666666666666667" />
<circle cx="156.94" cy="195.10" r="1.6666666666666667" />
<circle cx="157.05" cy="205.62" r="1.6666666666666667" />
<circle cx="157.15" cy="197.96" r="1.6666666666666667" />
<circle cx="157.25" cy="173.93" r="1.6666666666666667" />
<circle cx="157.35" cy="193.16" r="1.6666666666666667" />
<circle cx="157.45" cy="176.71" r="1.6666666666666667" />
<circle cx="157.55" cy="175.29" r="1.6666666666666667" />
<circle cx="157.64" cy="173.58" r="1.6666666666666667" />
<circle cx="157.75" cy="191.51" r="1.6666666666666667" />
<circle cx="157.85" cy="196.00" r="1.6666666666666667" />
<circle cx="157.95" cy="191.39" r="1.6666666666666667" />
<circle cx="158.06" cy="193.89" r="1.6666666666666667" />
<circle cx="158.16" cy="183.50" r="1.6666666666666667" />
<circle cx="158.26" cy="181.29" r="1.6666666666666667" />
<circle cx="158.36" cy="181.68" r="1.6666666666666667" />
<circle cx="158.46" cy="183.05" r="1.6666666666666667" />
<circle cx="158.56" cy="185.88" r="1.6666666666666667" />
<circle cx="158.67" cy="210.64" r="1.6666666666666667" />
<circle cx="158.78" cy="212.75" r="1.6666666666666667" />
<circle cx="158.89" cy="210.59" r="1.6666666666666667" />
<circle cx="158.99" cy="204.26" r="1.6666666666666667" />
<circle cx="159.10" cy="200.71" r="1.6666666666666667" />
<circle cx="159.20" cy="196.83" r="1.6666666666666667" />
<circle cx="159.31" cy="196.30" r="1.6666666666666667" />
<circle cx="159.41" cy="194.01" r="1.6666666666666667" />
<circle cx="159.52" cy="205.73" r="1.6666666666666667" />
<circle cx="159.63" cy="206.34" r="1.6666666666666667" />
<circle cx="159.74" cy="210.10" r="1.6666666666666667" />
<circle cx="159.84" cy="193.83" r="1.6666666666666667" />
<circle cx="159.95" cy="198.37" r="1.6666666666666667" />
<circle cx="160.05" cy="185.88" r="1.6666666666666667" />
<circle cx="160.15" cy="193.41" r="1.6666666666666667" />
<circle cx="160.25" cy="196.24" r="1.6666666666666667" />
<circle cx="160.36" cy="212.16" r="1.6666666666666667" />
<circle cx="160.48" cy="223.79" r="1.6666666666666667" />
<circle cx="160.59" cy="218.78" r="1.6666666666666667" />
<circle cx="160.70" cy="215.56" r="1.6666666666666667" />
<circle cx="160.81" cy="197.48" r="1.6666666666666667" />
<circle cx="160.91" cy="205.39" r="1.6666666666666667" />
<circle cx="161.02" cy="197.37" r="1.6666666666666667" />
<circle cx="161.12" cy="193.83" r="1.6666666666666667" />
<circle cx="161.23" cy="201.52" r="1.6666666666666667" />
<circle cx="161.34" cy="207.01" r="1.6666666666666667" />
<circle cx="161.44" cy="201.86" r="1.6666666666666667" />
<circle cx="161.55" cy="189.72" r="1.6666666666666667" />
<circle cx="161.65" cy="182.27" r="1.6666666666666667" />
<circle cx="161.75" cy="185.37" r="1.6666666666666667" />
<circle cx="161.85" cy="187.08" r="1.6666666666666667" />
<circle cx="161.95" cy="185.62" r="1.6666666666666667" />
<circle cx="162.05" cy="196.65" r="1.6666666666666667" />
<circle cx="162.16" cy="207.46" r="1.6666666666666667" />
<circle cx="162.27" cy="208.73" r="1.6666666666666667" />
<circle cx="162.37" cy="196.30" r="1.6666666666666667" />
<circle cx="162.48" cy="193.04" r="1.6666666666666667" />
<circle cx="162.58" cy="177.25" r="1.6666666666666667" />
<circle cx="162.68" cy="181.88" r="1.6666666666666667" />
<circle cx="162.78" cy="185.24" r="1.6666666666666667" />
<circle cx="162.88" cy="192.74" r="1.6666666666666667" />
<circle cx="162.98" cy="194.68" r="1.6666666666666667" />
<circle cx="163.09" cy="195.16" r="1.6666666666666667" />
<circle cx="163.19" cy="185.37" r="1.6666666666666667" />
<circle cx="163.29" cy="196.95" r="1.6666666666666667" />
<circle cx="163.40" cy="198.78" r="1.6666666666666667" />
<circle cx="163.50" cy="191.45" r="1.6666666666666667" />
<circle cx="163.61" cy="200.24" r="1.6666666666666667" />
<circle cx="163.71" cy="193.41" r="1.6666666666666667" />
<circle cx="163.81" cy="190.89" r="1.6666666666666667" />
<circle cx="163.92" cy="195.22" r="1.6666666666666667" />
<circle cx="164.02" cy="184.09" r="1.6666666666666667" />
<circle cx="164.12" cy="193.22" r="1.6666666666666667" />
<circle cx="164.22" cy="197.90" r="1.6666666666666667" />
<circle cx="164.34" cy="216.82" r="1.6666666666666667" />
<circle cx="164.45" cy="210.53" r="1.6666666666666667" />
<circle cx="164.55" cy="208.67" r="1.6666666666666667" />
<circle cx="164.67" cy="221.58" r="1.6666666666666667" />
<circle cx="164.78" cy="214.29" r="1.6666666666666667" />
<circle cx="164.89" cy="211.94" r="1.6666666666666667" />
<circle cx="165.00" cy="212.48" r="1.6666666666666667" />
<circle cx="165.10" cy="200.07" r="1.6666666666666667" />
<circle cx="165.21" cy="195.76" r="1.6666666666666667" />
<circle cx="165.32" cy="205.56" r="1.6666666666666667" />
<circle cx="165.43" cy="216.29" r="1.6666666666666667" />
<circle cx="165.54" cy="209.88" r="1.6666666666666667" />
<circle cx="165.64" cy="203.64" r="1.6666666666666667" />
<circle cx="165.75" cy="194.38" r="1.6666666666666667" />
<circle cx="165.85" cy="187.34" r="1.6666666666666667" />
<circle cx="165.95" cy="199.54" r="1.6666666666666667" />
<circle cx="166.06" cy="204.66" r="1.6666666666666667" />
<circle cx="166.17" cy="211.35" r="1.6666666666666667" />
<circle cx="166.28" cy="213.34" r="1.6666666666666667" />
<circle cx="166.39" cy="213.23" r="1.6666666666666667" />
<circle cx="166.51" cy="225.71" r="1.6666666666666667" />
<circle cx="166.62" cy="222.94" r="1.6666666666666667" />
<circle cx="166.73" cy="220.98" r="1.6666666666666667" />
<circle cx="166.84" cy="209.28" r="1.6666666666666667" />
<circle cx="166.95" cy="210.15" r="1.6666666666666667" />
<circle cx="167.06" cy="210.75" r="1.6666666666666667" />
<circle cx="167.17" cy="216.50" r="1.6666666666666667" />
<circle cx="167.28" cy="201.46" r="1.6666666666666667" />
<circle cx="167.39" cy="203.24" r="1.6666666666666667" />
<circle cx="167.48" cy="180.64" r="1.6666666666666667" />
<circle cx="167.59" cy="199.84" r="1.6666666666666667" />
<circle cx="167.70" cy="218.27" r="1.6666666666666667" />
<circle cx="167.81" cy="213.60" r="1.6666666666666667" />
<circle cx="167.92" cy="208.29" r="1.6666666666666667" />
<circle cx="168.03" cy="213.60" r="1.6666666666666667" />
<circle cx="168.14" cy="221.28" r="1.6666666666666667" />
<circle cx="168.26" cy="220.72" r="1.6666666666666667" />
<circle cx="168.38" cy="230.95" r="1.6666666666666667" />
<circle cx="168.48" cy="209.44" r="1.6666666666666667" />
<circle cx="168.59" cy="203.07" r="1.6666666666666667" />
<circle cx="168.70" cy="205.22" r="1.6666666666666667" />
<circle cx="168.81" cy="210.48" r="1.6666666666666667" />
<circle cx="168.92" cy="222.84" r="1.6666666666666667" />
<circle cx="169.03" cy="220.82" r="1.6666666666666667" />
<circle cx="169.14" cy="203.92" r="1.6666666666666667" />
<circle cx="169.25" cy="196.06" r="1.6666666666666667" />
<circle cx="169.36" cy="215.51" r="1.6666666666666667" />
<circle cx="169.47" cy="211.62" r="1.6666666666666667" />
<circle cx="169.57" cy="198.61" r="1.6666666666666667" />
<circle cx="169.69" cy="225.17" r="1.6666666666666667" />
<circle cx="169.80" cy="219.40" r="1.6666666666666667" />
<circle cx="169.91" cy="224.92" r="1.6666666666666667" />
<circle cx="170.03" cy="223.98" r="1.6666666666666667" />
<circle cx="170.14" cy="221.48" r="1.6666666666666667" />
<circle cx="170.25" cy="212.48" r="1.6666666666666667" />
<circle cx="170.36" cy="219.45" r="1.6666666666666667" />
<circle cx="170.48" cy="227.27" r="1.6666666666666667" />
<circle cx="170.59" cy="220.98" r="1.6666666666666667" />
<circle cx="170.70" cy="205.28" r="1.6666666666666667" />
<circle cx="170.81" cy="211.89" r="1.6666666666666667" />
<circle cx="170.92" cy="209.83" r="1.6666666666666667" />
<circle cx="171.03" cy="222.99" r="1.6666666666666667" />
<circle cx="171.15" cy="214.24" r="1.6666666666666667" />
<circle cx="171.25" cy="211.35" r="1.6666666666666667" />
<circle cx="171.37" cy="221.33" r="1.6666666666666667" />
<circle cx="171.48" cy="227.46" r="1.6666666666666667" />
<circle cx="171.60" cy="232.97" r="1.6666666666666667" />
<circle cx="171.72" cy="238.22" r="1.6666666666666667" />
<circle cx="171.84" cy="226.83" r="1.6666666666666667" />
<circle cx="171.95" cy="223.49" r="1.6666666666666667" />
<circle cx="172.06" cy="217.23" r="1.6666666666666667" />
<circle cx="172.18" cy="220.01" r="1.6666666666666667" />
<circle cx="172.29" cy="226.05" r="1.6666666666666667" />
<circle cx="172.40" cy="217.08" r="1.6666666666666667" />
<circle cx="172.51" cy="209.50" r="1.6666666666666667" />
<circle cx="172.62" cy="215.61" r="1.6666666666666667" />
<circle cx="172.73" cy="212.96" r="1.6666666666666667" />
<circle cx="172.85" cy="226.73" r="1.6666666666666667" />
<circle cx="172.96" cy="204.83" r="1.6666666666666667" />
<circle cx="173.07" cy="220.88" r="1.6666666666666667" />
<circle cx="173.18" cy="218.06" r="1.6666666666666667" />
<circle cx="173.30" cy="240.79" r="1.6666666666666667" />
<circle cx="173.43" cy="240.04" r="1.6666666666666667" />
<circle cx="173.54" cy="228.14" r="1.6666666666666667" />
<circle cx="173.66" cy="224.43" r="1.6666666666666667" />
<circle cx="173.77" cy="224.87" r="1.6666666666666667" />
<circle cx="173.89" cy="232.87" r="1.6666666666666667" />
<circle cx="174.01" cy="235.09" r="1.6666666666666667" />
<circle cx="174.12" cy="225.66" r="1.6666666666666667" />
<circle cx="174.23" cy="216.55" r="1.6666666666666667" />
<circle cx="174.35" cy="225.27" r="1.6666666666666667" />
<circle cx="174.47" cy="235.73" r="1.6666666666666667" />
<circle cx="174.58" cy="221.48" r="1.6666666666666667" />
<circle cx="174.69" cy="218.16" r="1.6666666666666667" />
<circle cx="174.81" cy="216.03" r="1.6666666666666667" />
<circle cx="174.92" cy="222.69" r="1.6666666666666667" />
<circle cx="175.04" cy="228.62" r="1.6666666666666667" />
<circle cx="175.15" cy="227.12" r="1.6666666666666667" />
<circle cx="175.26" cy="219.60" r="1.6666666666666667" />
<circle cx="175.38" cy="219.65" r="1.6666666666666667" />
<circle cx="175.49" cy="214.19" r="1.6666666666666667" />
<circle cx="175.60" cy="219.14" r="1.6666666666666667" />
<circle cx="175.71" cy="219.81" r="1.6666666666666667" />
<circle cx="175.83" cy="223.69" r="1.6666666666666667" />
<circle cx="175.94" cy="221.23" r="1.6666666666666667" />
<circle cx="176.05" cy="221.03" r="1.6666666666666667" />
<circle cx="176.17" cy="218.27" r="1.6666666666666667" />
<circle cx="176.28" cy="221.08" r="1.6666666666666667" />
<circle cx="176.39" cy="218.27" r="1.6666666666666667" />
<circle cx="176.62" cy="225.51" r="1.6666666666666667" />
<circle cx="176.74" cy="229.10" r="1.6666666666666667" />
<circle cx="176.86" cy="236.50" r="1.6666666666666667" />
<circle cx="176.97" cy="229.10" r="1.6666666666666667" />
<circle cx="177.08" cy="213.02" r="1.6666666666666667" />
<circle cx="177.19" cy="204.26" r="1.6666666666666667" />
<circle cx="177.30" cy="208.73" r="1.6666666666666667" />
<circle cx="177.41" cy="214.93" r="1.6666666666666667" />
<circle cx="177.52" cy="216.71" r="1.6666666666666667" />
<circle cx="177.63" cy="219.50" r="1.6666666666666667" />
<circle cx="177.74" cy="212.64" r="1.6666666666666667" />
<circle cx="177.85" cy="199.43" r="1.6666666666666667" />
<circle cx="177.95" cy="200.88" r="1.6666666666666667" />
<circle cx="178.06" cy="191.02" r="1.6666666666666667" />
<circle cx="178.16" cy="193.47" r="1.6666666666666667" />
<circle cx="178.26" cy="194.07" r="1.6666666666666667" />
<circle cx="178.37" cy="204.60" r="1.6666666666666667" />
<circle cx="178.48" cy="205.62" r="1.6666666666666667" />
<circle cx="178.59" cy="203.12" r="1.6666666666666667" />
<circle cx="178.69" cy="206.01" r="1.6666666666666667" />
<circle cx="178.80" cy="195.76" r="1.6666666666666667" />
<circle cx="178.90" cy="198.37" r="1.6666666666666667" />
<circle cx="179.01" cy="200.36" r="1.6666666666666667" />
<circle cx="179.11" cy="200.19" r="1.6666666666666667" />
<circle cx="179.22" cy="212.48" r="1.6666666666666667" />
<circle cx="179.34" cy="219.35" r="1.6666666666666667" />
<circle cx="179.45" cy="218.89" r="1.6666666666666667" />
<circle cx="179.56" cy="206.96" r="1.6666666666666667" />
<circle cx="179.67" cy="211.83" r="1.6666666666666667" />
<circle cx="179.77" cy="207.96" r="1.6666666666666667" />
<circle cx="179.88" cy="196.53" r="1.6666666666666667" />
<circle cx="179.99" cy="205.78" r="1.6666666666666667" />
<circle cx="180.10" cy="212.43" r="1.6666666666666667" />
<circle cx="180.21" cy="211.46" r="1.6666666666666667" />
<circle cx="180.32" cy="209.72" r="1.6666666666666667" />
<circle cx="180.42" cy="207.07" r="1.6666666666666667" />
<circle cx="180.53" cy="202.32" r="1.6666666666666667" />
<circle cx="180.63" cy="198.13" r="1.6666666666666667" />
<circle cx="180.74" cy="198.84" r="1.6666666666666667" />
<circle cx="180.85" cy="217.13" r="1.6666666666666667" />
<circle cx="180.96" cy="206.23" r="1.6666666666666667" />
<circle cx="181.07" cy="208.78" r="1.6666666666666667" />
<circle cx="181.18" cy="211.89" r="1.6666666666666667" />
<circle cx="181.29" cy="216.29" r="1.6666666666666667" />
<circle cx="181.40" cy="202.50" r="1.6666666666666667" />
<circle cx="181.50" cy="202.90" r="1.6666666666666667" />
<circle cx="181.61" cy="197.90" r="1.6666666666666667" />
<circle cx="181.71" cy="195.64" r="1.6666666666666667" />
<circle cx="181.82" cy="195.88" r="1.6666666666666667" />
<circle cx="181.92" cy="202.50" r="1.6666666666666667" />
<circle cx="182.03" cy="195.10" r="1.6666666666666667" />
<circle cx="182.13" cy="190.21" r="1.6666666666666667" />
<circle cx="182.23" cy="181.03" r="1.6666666666666667" />
<circle cx="182.33" cy="174.20" r="1.6666666666666667" />
<circle cx="182.42" cy="180.31" r="1.6666666666666667" />
<circle cx="182.53" cy="194.38" r="1.6666666666666667" />
<circle cx="182.63" cy="200.82" r="1.6666666666666667" />
<circle cx="182.74" cy="203.98" r="1.6666666666666667" />
<circle cx="182.85" cy="198.66" r="1.6666666666666667" />
<circle cx="182.95" cy="190.83" r="1.6666666666666667" />
<circle cx="183.05" cy="180.11" r="1.6666666666666667" />
<circle cx="183.15" cy="180.50" r="1.6666666666666667" />
<circle cx="183.25" cy="176.51" r="1.6666666666666667" />
<circle cx="183.35" cy="180.83" r="1.6666666666666667" />
<circle cx="183.44" cy="167.51" r="1.6666666666666667" />
<circle cx="183.54" cy="185.69" r="1.6666666666666667" />
<circle cx="183.64" cy="193.35" r="1.6666666666666667" />
<circle cx="183.75" cy="183.89" r="1.6666666666666667" />
<circle cx="183.84" cy="178.65" r="1.6666666666666667" />
<circle cx="183.94" cy="182.73" r="1.6666666666666667" />
<circle cx="184.04" cy="173.99" r="1.6666666666666667" />
<circle cx="184.14" cy="178.58" r="1.6666666666666667" />
<circle cx="184.24" cy="184.21" r="1.6666666666666667" />
<circle cx="184.34" cy="182.14" r="1.6666666666666667" />
<circle cx="184.44" cy="181.10" r="1.6666666666666667" />
<circle cx="184.54" cy="175.36" r="1.6666666666666667" />
<circle cx="184.63" cy="171.02" r="1.6666666666666667" />
<circle cx="184.73" cy="178.32" r="1.6666666666666667" />
<circle cx="184.83" cy="171.02" r="1.6666666666666667" />
<circle cx="184.93" cy="177.25" r="1.6666666666666667" />
<circle cx="185.02" cy="167.43" r="1.6666666666666667" />
<circle cx="185.12" cy="165.86" r="1.6666666666666667" />
<circle cx="185.21" cy="159.65" r="1.6666666666666667" />
<circle cx="185.31" cy="162.45" r="1.6666666666666667" />
<circle cx="185.40" cy="174.13" r="1.6666666666666667" />
<circle cx="185.50" cy="168.57" r="1.6666666666666667" />
<circle cx="185.60" cy="170.33" r="1.6666666666666667" />
<circle cx="185.69" cy="167.93" r="1.6666666666666667" />
<circle cx="185.79" cy="168.78" r="1.6666666666666667" />
<circle cx="185.88" cy="165.86" r="1.6666666666666667" />
<circle cx="185.98" cy="167.15" r="1.6666666666666667" />
<circle cx="186.07" cy="163.91" r="1.6666666666666667" />
<circle cx="186.17" cy="174.20" r="1.6666666666666667" />
<circle cx="186.27" cy="167.43" r="1.6666666666666667" />
<circle cx="186.36" cy="171.02" r="1.6666666666666667" />
<circle cx="186.46" cy="172.41" r="1.6666666666666667" />
<circle cx="186.55" cy="163.11" r="1.6666666666666667" />
<circle cx="186.65" cy="164.49" r="1.6666666666666667" />
<circle cx="186.75" cy="176.03" r="1.6666666666666667" />
<circle cx="186.84" cy="169.41" r="1.6666666666666667" />
<circle cx="186.94" cy="170.40" r="1.6666666666666667" />
<circle cx="187.03" cy="166.58" r="1.6666666666666667" />
<circle cx="187.13" cy="172.34" r="1.6666666666666667" />
<circle cx="187.23" cy="171.86" r="1.6666666666666667" />
<circle cx="187.32" cy="168.71" r="1.6666666666666667" />
<circle cx="187.42" cy="160.91" r="1.6666666666666667" />
<circle cx="187.51" cy="171.65" r="1.6666666666666667" />
<circle cx="187.61" cy="173.38" r="1.6666666666666667" />
<circle cx="187.71" cy="163.33" r="1.6666666666666667" />
<circle cx="187.80" cy="172.27" r="1.6666666666666667" />
<circle cx="187.90" cy="167.51" r="1.6666666666666667" />
<circle cx="187.99" cy="169.13" r="1.6666666666666667" />
<circle cx="188.09" cy="166.36" r="1.6666666666666667" />
<circle cx="188.18" cy="164.20" r="1.6666666666666667" />
<circle cx="188.28" cy="165.07" r="1.6666666666666667" />
<circle cx="188.37" cy="161.72" r="1.6666666666666667" />
<circle cx="188.47" cy="168.29" r="1.6666666666666667" />
<circle cx="188.57" cy="175.70" r="1.6666666666666667" />
<circle cx="188.67" cy="176.44" r="1.6666666666666667" />
<circle cx="188.76" cy="170.82" r="1.6666666666666667" />
<circle cx="188.86" cy="174.61" r="1.6666666666666667" />
<circle cx="188.96" cy="177.65" r="1.6666666666666667" />
<circle cx="189.05" cy="159.57" r="1.6666666666666667" />
<circle cx="189.15" cy="168.21" r="1.6666666666666667" />
<circle cx="189.24" cy="145.80" r="1.6666666666666667" />
<circle cx="189.33" cy="165.50" r="1.6666666666666667" />
<circle cx="189.42" cy="156.72" r="1.6666666666666667" />
<circle cx="189.52" cy="166.15" r="1.6666666666666667" />
<circle cx="189.62" cy="169.70" r="1.6666666666666667" />
<circle cx="189.71" cy="170.75" r="1.6666666666666667" />
<circle cx="189.81" cy="170.54" r="1.6666666666666667" />
<circle cx="189.90" cy="164.71" r="1.6666666666666667" />
<circle cx="190.00" cy="167.86" r="1.6666666666666667" />
<circle cx="190.09" cy="163.26" r="1.6666666666666667" />
<circle cx="190.19" cy="174.75" r="1.6666666666666667" />
<circle cx="190.29" cy="166.08" r="1.6666666666666667" />
<circle cx="190.38" cy="166.58" r="1.6666666666666667" />
<circle cx="190.48" cy="171.02" r="1.6666666666666667" />
<circle cx="190.58" cy="177.18" r="1.6666666666666667" />
<circle cx="190.67" cy="167.29" r="1.6666666666666667" />
<circle cx="190.77" cy="168.36" r="1.6666666666666667" />
<circle cx="190.86" cy="168.50" r="1.6666666666666667" />
<circle cx="190.96" cy="163.04" r="1.6666666666666667" />
<circle cx="191.05" cy="168.85" r="1.6666666666666667" />
<circle cx="191.15" cy="161.20" r="1.6666666666666667" />
<circle cx="191.24" cy="161.35" r="1.6666666666666667" />
<circle cx="191.33" cy="156.19" r="1.6666666666666667" />
<circle cx="191.43" cy="159.28" r="1.6666666666666667" />
<circle cx="191.52" cy="169.06" r="1.6666666666666667" />
<circle cx="191.62" cy="170.33" r="1.6666666666666667" />
<circle cx="191.72" cy="167.86" r="1.6666666666666667" />
<circle cx="191.81" cy="176.17" r="1.6666666666666667" />
<circle cx="191.91" cy="178.78" r="1.6666666666666667" />
<circle cx="192.01" cy="176.98" r="1.6666666666666667" />
<circle cx="192.11" cy="173.72" r="1.6666666666666667" />
<circle cx="192.21" cy="171.65" r="1.6666666666666667" />
<circle cx="192.30" cy="170.19" r="1.6666666666666667" />
<circle cx="192.40" cy="166.79" r="1.6666666666666667" />
<circle cx="192.49" cy="167.29" r="1.6666666666666667" />
<circle cx="192.59" cy="169.41" r="1.6666666666666667" />
<circle cx="192.69" cy="181.49" r="1.6666666666666667" />
<circle cx="192.78" cy="169.06" r="1.6666666666666667" />
<circle cx="192.88" cy="172.14" r="1.6666666666666667" />
<circle cx="192.98" cy="168.99" r="1.6666666666666667" />
<circle cx="193.08" cy="175.76" r="1.6666666666666667" />
<circle cx="193.17" cy="165.00" r="1.6666666666666667" />
<circle cx="193.27" cy="170.05" r="1.6666666666666667" />
<circle cx="193.36" cy="171.65" r="1.6666666666666667" />
<circle cx="193.46" cy="173.38" r="1.6666666666666667" />
<circle cx="193.56" cy="178.58" r="1.6666666666666667" />
<circle cx="193.66" cy="173.24" r="1.6666666666666667" />
<circle cx="193.76" cy="178.58" r="1.6666666666666667" />
<circle cx="193.85" cy="170.47" r="1.6666666666666667" />
<circle cx="193.95" cy="175.43" r="1.6666666666666667" />
<circle cx="194.04" cy="167.58" r="1.6666666666666667" />
<circle cx="194.14" cy="179.58" r="1.6666666666666667" />
<circle cx="194.24" cy="174.40" r="1.6666666666666667" />
<circle cx="194.34" cy="170.33" r="1.6666666666666667" />
<circle cx="194.44" cy="173.17" r="1.6666666666666667" />
<circle cx="194.53" cy="161.57" r="1.6666666666666667" />
<circle cx="194.62" cy="160.39" r="1.6666666666666667" />
<circle cx="194.72" cy="160.91" r="1.6666666666666667" />
<circle cx="194.81" cy="163.18" r="1.6666666666666667" />
<circle cx="194.91" cy="166.58" r="1.6666666666666667" />
<circle cx="195.00" cy="176.17" r="1.6666666666666667" />
<circle cx="195.10" cy="166.36" r="1.6666666666666667" />
<circle cx="195.20" cy="179.45" r="1.6666666666666667" />
<circle cx="195.29" cy="160.09" r="1.6666666666666667" />
<circle cx="195.39" cy="177.98" r="1.6666666666666667" />
<circle cx="195.49" cy="171.79" r="1.6666666666666667" />
<circle cx="195.59" cy="178.05" r="1.6666666666666667" />
<circle cx="195.68" cy="168.78" r="1.6666666666666667" />
<circle cx="195.78" cy="169.84" r="1.6666666666666667" />
<circle cx="195.88" cy="176.44" r="1.6666666666666667" />
<circle cx="195.97" cy="173.86" r="1.6666666666666667" />
<circle cx="196.07" cy="181.10" r="1.6666666666666667" />
<circle cx="196.17" cy="167.15" r="1.6666666666666667" />
<circle cx="196.27" cy="173.93" r="1.6666666666666667" />
<circle cx="196.36" cy="169.91" r="1.6666666666666667" />
<circle cx="196.46" cy="164.49" r="1.6666666666666667" />
<circle cx="196.55" cy="165.72" r="1.6666666666666667" />
<circle cx="196.65" cy="175.90" r="1.6666666666666667" />
<circle cx="196.75" cy="171.93" r="1.6666666666666667" />
<circle cx="196.85" cy="182.99" r="1.6666666666666667" />
<circle cx="196.94" cy="167.58" r="1.6666666666666667" />
<circle cx="197.04" cy="178.78" r="1.6666666666666667" />
<circle cx="197.14" cy="170.47" r="1.6666666666666667" />
<circle cx="197.24" cy="174.34" r="1.6666666666666667" />
<circle cx="197.33" cy="167.65" r="1.6666666666666667" />
<circle cx="197.43" cy="175.90" r="1.6666666666666667" />
<circle cx="197.53" cy="176.91" r="1.6666666666666667" />
<circle cx="197.62" cy="170.47" r="1.6666666666666667" />
<circle cx="197.72" cy="180.11" r="1.6666666666666667" />
<circle cx="197.82" cy="174.06" r="1.6666666666666667" />
<circle cx="197.92" cy="180.70" r="1.6666666666666667" />
<circle cx="198.01" cy="162.53" r="1.6666666666666667" />
<circle cx="198.11" cy="172.83" r="1.6666666666666667" />
<circle cx="198.21" cy="164.35" r="1.6666666666666667" />
<circle cx="198.30" cy="179.45" r="1.6666666666666667" />
<circle cx="198.40" cy="167.36" r="1.6666666666666667" />
<circle cx="198.50" cy="180.24" r="1.6666666666666667" />
<circle cx="198.60" cy="176.44" r="1.6666666666666667" />
<circle cx="198.70" cy="178.72" r="1.6666666666666667" />
<circle cx="198.79" cy="175.02" r="1.6666666666666667" />
<circle cx="198.89" cy="172.55" r="1.6666666666666667" />
<circle cx="198.99" cy="173.99" r="1.6666666666666667" />
<circle cx="199.09" cy="180.77" r="1.6666666666666667" />
<circle cx="199.19" cy="179.91" r="1.6666666666666667" />
<circle cx="199.29" cy="182.92" r="1.6666666666666667" />
<circle cx="199.39" cy="187.53" r="1.6666666666666667" />
<circle cx="199.49" cy="181.42" r="1.6666666666666667" />
<circle cx="199.59" cy="187.97" r="1.6666666666666667" />
<circle cx="199.69" cy="175.76" r="1.6666666666666667" />
<circle cx="199.79" cy="188.72" r="1.6666666666666667" />
<circle cx="199.89" cy="184.60" r="1.6666666666666667" />
<circle cx="199.99" cy="190.71" r="1.6666666666666667" />
<circle cx="200.10" cy="194.98" r="1.6666666666666667" />
<circle cx="200.20" cy="184.60" r="1.6666666666666667" />
<circle cx="200.30" cy="185.75" r="1.6666666666666667" />
<circle cx="200.40" cy="184.98" r="1.6666666666666667" />
<circle cx="200.50" cy="197.43" r="1.6666666666666667" />
<circle cx="200.60" cy="184.86" r="1.6666666666666667" />
<circle cx="200.71" cy="194.50" r="1.6666666666666667" />
<circle cx="200.81" cy="190.09" r="1.6666666666666667" />
<circle cx="200.92" cy="196.65" r="1.6666666666666667" />
<circle cx="201.02" cy="193.22" r="1.6666666666666667" />
<circle cx="201.12" cy="197.25" r="1.6666666666666667" />
<circle cx="201.22" cy="188.97" r="1.6666666666666667" />
<circle cx="201.33" cy="191.88" r="1.6666666666666667" />
<circle cx="201.43" cy="183.63" r="1.6666666666666667" />
<circle cx="201.53" cy="183.83" r="1.6666666666666667" />
<circle cx="201.63" cy="187.02" r="1.6666666666666667" />
<circle cx="222.36" cy="232.27" r="1.6666666666666667" />
<circle cx="222.47" cy="235.32" r="1.6666666666666667" />
<circle cx="222.59" cy="228.81" r="1.6666666666666667" />
<circle cx="222.71" cy="237.50" r="1.6666666666666667" />
<circle cx="222.83" cy="227.56" r="1.6666666666666667" />
<circle cx="222.95" cy="236.82" r="1.6666666666666667" />
<circle cx="223.06" cy="232.27" r="1.6666666666666667" />
<circle cx="223.18" cy="233.11" r="1.6666666666666667" />
<circle cx="223.30" cy="239.24" r="1.6666666666666667" />
<circle cx="223.42" cy="240.17" r="1.6666666666666667" />
<circle cx="223.55" cy="238.08" r="1.6666666666666667" />
<circle cx="223.67" cy="236.69" r="1.6666666666666667" />
<circle cx="223.78" cy="236.10" r="1.6666666666666667" />
<circle cx="223.90" cy="230.24" r="1.6666666666666667" />
<circle cx="224.02" cy="236.50" r="1.6666666666666667" />
<circle cx="224.14" cy="232.73" r="1.6666666666666667" />
<circle cx="224.26" cy="241.10" r="1.6666666666666667" />
<circle cx="224.38" cy="234.72" r="1.6666666666666667" />
<circle cx="224.50" cy="240.26" r="1.6666666666666667" />
<circle cx="224.62" cy="236.46" r="1.6666666666666667" />
<circle cx="224.74" cy="238.75" r="1.6666666666666667" />
<circle cx="224.86" cy="243.01" r="1.6666666666666667" />
<circle cx="224.98" cy="234.40" r="1.6666666666666667" />
<circle cx="225.10" cy="240.75" r="1.6666666666666667" />
<circle cx="225.22" cy="234.63" r="1.6666666666666667" />
<circle cx="225.34" cy="233.39" r="1.6666666666666667" />
<circle cx="225.46" cy="231.94" r="1.6666666666666667" />
<circle cx="225.58" cy="240.08" r="1.6666666666666667" />
<circle cx="225.70" cy="235.41" r="1.6666666666666667" />
<circle cx="225.82" cy="241.75" r="1.6666666666666667" />
<circle cx="225.94" cy="243.27" r="1.6666666666666667" />
<circle cx="226.07" cy="244.64" r="1.6666666666666667" />
<circle cx="226.19" cy="239.64" r="1.6666666666666667" />
<circle cx="226.31" cy="239.02" r="1.6666666666666667" />
<circle cx="226.43" cy="246.34" r="1.6666666666666667" />
<circle cx="226.56" cy="241.05" r="1.6666666666666667" />
<circle cx="226.68" cy="245.79" r="1.6666666666666667" />
<circle cx="226.80" cy="241.84" r="1.6666666666666667" />
<circle cx="226.93" cy="244.39" r="1.6666666666666667" />
<circle cx="227.05" cy="240.83" r="1.6666666666666667" />
<circle cx="227.16" cy="231.75" r="1.6666666666666667" />
<circle cx="227.29" cy="245.16" r="1.6666666666666667" />
<circle cx="227.41" cy="233.89" r="1.6666666666666667" />
<circle cx="227.53" cy="244.39" r="1.6666666666666667" />
<circle cx="227.65" cy="236.87" r="1.6666666666666667" />
<circle cx="227.77" cy="246.21" r="1.6666666666666667" />
<circle cx="227.90" cy="247.01" r="1.6666666666666667" />
<circle cx="228.02" cy="247.72" r="1.6666666666666667" />
<circle cx="228.14" cy="239.38" r="1.6666666666666667" />
<circle cx="228.26" cy="238.80" r="1.6666666666666667" />
<circle cx="228.39" cy="246.13" r="1.6666666666666667" />
<circle cx="228.51" cy="242.45" r="1.6666666666666667" />
<circle cx="228.64" cy="249.13" r="1.6666666666666667" />
<circle cx="228.76" cy="237.45" r="1.6666666666666667" />
<circle cx="228.88" cy="244.43" r="1.6666666666666667" />
<circle cx="229.00" cy="235.23" r="1.6666666666666667" />
<circle cx="229.12" cy="236.69" r="1.6666666666666667" />
<circle cx="229.24" cy="235.73" r="1.6666666666666667" />
<circle cx="229.36" cy="240.22" r="1.6666666666666667" />
<circle cx="229.48" cy="240.83" r="1.6666666666666667" />
<circle cx="229.61" cy="246.38" r="1.6666666666666667" />
<circle cx="229.73" cy="240.17" r="1.6666666666666667" />
<circle cx="229.85" cy="235.23" r="1.6666666666666667" />
<circle cx="229.97" cy="245.37" r="1.6666666666666667" />
<circle cx="230.09" cy="242.32" r="1.6666666666666667" />
<circle cx="230.22" cy="245.92" r="1.6666666666666667" />
<circle cx="230.34" cy="243.83" r="1.6666666666666667" />
<circle cx="230.46" cy="246.34" r="1.6666666666666667" />
<circle cx="230.58" cy="237.86" r="1.6666666666666667" />
<circle cx="230.71" cy="246.21" r="1.6666666666666667" />
<circle cx="230.83" cy="249.34" r="1.6666666666666667" />
<circle cx="230.96" cy="245.11" r="1.6666666666666667" />
<circle cx="231.08" cy="252.23" r="1.6666666666666667" />
<circle cx="231.21" cy="249.92" r="1.6666666666666667" />
<circle cx="231.34" cy="252.84" r="1.6666666666666667" />
<circle cx="231.46" cy="247.47" r="1.6666666666666667" />
<circle cx="231.59" cy="254.15" r="1.6666666666666667" />
<circle cx="231.71" cy="247.89" r="1.6666666666666667" />
<circle cx="231.84" cy="252.92" r="1.6666666666666667" />
<circle cx="231.97" cy="251.18" r="1.6666666666666667" />
<circle cx="232.09" cy="248.39" r="1.6666666666666667" />
<circle cx="232.22" cy="251.75" r="1.6666666666666667" />
<circle cx="232.34" cy="241.40" r="1.6666666666666667" />
<circle cx="232.46" cy="242.84" r="1.6666666666666667" />
<circle cx="232.59" cy="256.24" r="1.6666666666666667" />
<circle cx="232.72" cy="250.28" r="1.6666666666666667" />
<circle cx="232.85" cy="255.69" r="1.6666666666666667" />
<circle cx="232.98" cy="256.39" r="1.6666666666666667" />
<circle cx="233.10" cy="254.86" r="1.6666666666666667" />
<circle cx="233.23" cy="254.90" r="1.6666666666666667" />
<circle cx="233.36" cy="245.79" r="1.6666666666666667" />
<circle cx="233.49" cy="256.86" r="1.6666666666666667" />
<circle cx="233.62" cy="257.25" r="1.6666666666666667" />
<circle cx="233.74" cy="250.65" r="1.6666666666666667" />
<circle cx="233.87" cy="252.43" r="1.6666666666666667" />
<circle cx="234.00" cy="256.00" r="1.6666666666666667" />
<circle cx="234.13" cy="253.52" r="1.6666666666666667" />
<circle cx="234.25" cy="248.64" r="1.6666666666666667" />
<circle cx="234.38" cy="252.84" r="1.6666666666666667" />
<circle cx="234.51" cy="258.02" r="1.6666666666666667" />
<circle cx="234.64" cy="254.90" r="1.6666666666666667" />
<circle cx="234.77" cy="258.83" r="1.6666666666666667" />
<circle cx="234.89" cy="249.79" r="1.6666666666666667" />
<circle cx="235.02" cy="258.83" r="1.6666666666666667" />
<circle cx="235.15" cy="249.71" r="1.6666666666666667" />
<circle cx="235.28" cy="255.96" r="1.6666666666666667" />
<circle cx="235.41" cy="255.77" r="1.6666666666666667" />
<circle cx="235.54" cy="261.18" r="1.6666666666666667" />
<circle cx="235.67" cy="252.76" r="1.6666666666666667" />
<circle cx="235.79" cy="252.19" r="1.6666666666666667" />
<circle cx="235.92" cy="260.23" r="1.6666666666666667" />
<circle cx="236.05" cy="258.60" r="1.6666666666666667" />
<circle cx="236.19" cy="261.96" r="1.6666666666666667" />
<circle cx="236.31" cy="257.05" r="1.6666666666666667" />
<circle cx="236.44" cy="257.09" r="1.6666666666666667" />
<circle cx="236.58" cy="261.66" r="1.6666666666666667" />
<circle cx="236.70" cy="253.16" r="1.6666666666666667" />
<circle cx="236.83" cy="259.51" r="1.6666666666666667" />
<circle cx="236.96" cy="257.09" r="1.6666666666666667" />
<circle cx="237.10" cy="261.96" r="1.6666666666666667" />
<circle cx="237.23" cy="263.41" r="1.6666666666666667" />
<circle cx="237.36" cy="269.45" r="1.6666666666666667" />
<circle cx="237.50" cy="262.96" r="1.6666666666666667" />
<circle cx="237.63" cy="264.76" r="1.6666666666666667" />
<circle cx="237.76" cy="265.82" r="1.6666666666666667" />
<circle cx="237.90" cy="262.93" r="1.6666666666666667" />
<circle cx="238.03" cy="267.15" r="1.6666666666666667" />
<circle cx="238.17" cy="269.31" r="1.6666666666666667" />
<circle cx="238.30" cy="270.15" r="1.6666666666666667" />
<circle cx="238.43" cy="257.94" r="1.6666666666666667" />
<circle cx="238.57" cy="267.40" r="1.6666666666666667" />
<circle cx="238.70" cy="261.40" r="1.6666666666666667" />
<circle cx="238.83" cy="263.15" r="1.6666666666666667" />
<circle cx="238.97" cy="262.33" r="1.6666666666666667" />
<circle cx="239.10" cy="258.94" r="1.6666666666666667" />
<circle cx="239.23" cy="262.67" r="1.6666666666666667" />
<circle cx="239.36" cy="254.47" r="1.6666666666666667" />
<circle cx="239.49" cy="258.21" r="1.6666666666666667" />
<circle cx="239.62" cy="261.06" r="1.6666666666666667" />
<circle cx="239.75" cy="263.22" r="1.6666666666666667" />
<circle cx="239.88" cy="260.61" r="1.6666666666666667" />
<circle cx="240.02" cy="270.11" r="1.6666666666666667" />
<circle cx="240.15" cy="261.14" r="1.6666666666666667" />
<circle cx="240.28" cy="256.51" r="1.6666666666666667" />
<circle cx="240.41" cy="269.66" r="1.6666666666666667" />
<circle cx="240.55" cy="267.54" r="1.6666666666666667" />
<circle cx="240.69" cy="273.21" r="1.6666666666666667" />
<circle cx="240.82" cy="262.74" r="1.6666666666666667" />
<circle cx="240.96" cy="277.06" r="1.6666666666666667" />
<circle cx="241.10" cy="268.96" r="1.6666666666666667" />
<circle cx="241.23" cy="272.16" r="1.6666666666666667" />
<circle cx="241.37" cy="268.85" r="1.6666666666666667" />
<circle cx="241.51" cy="275.07" r="1.6666666666666667" />
<circle cx="241.65" cy="268.43" r="1.6666666666666667" />
<circle cx="241.78" cy="269.27" r="1.6666666666666667" />
<circle cx="241.91" cy="264.03" r="1.6666666666666667" />
<circle cx="242.05" cy="268.57" r="1.6666666666666667" />
<circle cx="242.19" cy="284.70" r="1.6666666666666667" />
<circle cx="242.33" cy="266.03" r="1.6666666666666667" />
<circle cx="242.47" cy="271.81" r="1.6666666666666667" />
<circle cx="242.60" cy="270.18" r="1.6666666666666667" />
<circle cx="242.74" cy="276.20" r="1.6666666666666667" />
<circle cx="242.88" cy="265.85" r="1.6666666666666667" />
<circle cx="243.02" cy="276.73" r="1.6666666666666667" />
<circle cx="243.16" cy="285.58" r="1.6666666666666667" />
<circle cx="243.30" cy="276.30" r="1.6666666666666667" />
<circle cx="243.45" cy="283.55" r="1.6666666666666667" />
<circle cx="243.58" cy="267.54" r="1.6666666666666667" />
<circle cx="243.72" cy="279.08" r="1.6666666666666667" />
<circle cx="243.87" cy="277.19" r="1.6666666666666667" />
<circle cx="244.00" cy="275.37" r="1.6666666666666667" />
<circle cx="244.14" cy="270.22" r="1.6666666666666667" />
<circle cx="244.28" cy="273.79" r="1.6666666666666667" />
<circle cx="244.42" cy="271.02" r="1.6666666666666667" />
<circle cx="244.55" cy="269.31" r="1.6666666666666667" />
<circle cx="244.69" cy="271.09" r="1.6666666666666667" />
<circle cx="244.83" cy="274.26" r="1.6666666666666667" />
<circle cx="244.97" cy="279.56" r="1.6666666666666667" />
<circle cx="245.11" cy="275.00" r="1.6666666666666667" />
<circle cx="245.25" cy="278.40" r="1.6666666666666667" />
<circle cx="245.39" cy="278.56" r="1.6666666666666667" />
<circle cx="245.53" cy="275.57" r="1.6666666666666667" />
<circle cx="245.67" cy="271.50" r="1.6666666666666667" />
<circle cx="245.81" cy="276.56" r="1.6666666666666667" />
<circle cx="245.95" cy="273.18" r="1.6666666666666667" />
<circle cx="246.09" cy="271.88" r="1.6666666666666667" />
<circle cx="246.22" cy="275.00" r="1.6666666666666667" />
<circle cx="246.37" cy="281.54" r="1.6666666666666667" />
<circle cx="246.51" cy="281.20" r="1.6666666666666667" />
<circle cx="246.65" cy="275.44" r="1.6666666666666667" />
<circle cx="246.79" cy="281.64" r="1.6666666666666667" />
<circle cx="246.94" cy="277.98" r="1.6666666666666667" />
<circle cx="247.07" cy="273.21" r="1.6666666666666667" />
<circle cx="247.22" cy="280.62" r="1.6666666666666667" />
<circle cx="247.36" cy="278.72" r="1.6666666666666667" />
<circle cx="247.50" cy="278.43" r="1.6666666666666667" />
<circle cx="247.64" cy="274.97" r="1.6666666666666667" />
<circle cx="247.79" cy="287.82" r="1.6666666666666667" />
<circle cx="247.93" cy="282.83" r="1.6666666666666667" />
<circle cx="248.07" cy="275.84" r="1.6666666666666667" />
<circle cx="248.22" cy="291.15" r="1.6666666666666667" />
<circle cx="248.36" cy="284.42" r="1.6666666666666667" />
<circle cx="248.51" cy="289.07" r="1.6666666666666667" />
<circle cx="248.66" cy="286.80" r="1.6666666666666667" />
<circle cx="248.80" cy="284.20" r="1.6666666666666667" />
<circle cx="248.95" cy="286.98" r="1.6666666666666667" />
<circle cx="249.10" cy="291.07" r="1.6666666666666667" />
<circle cx="249.25" cy="286.71" r="1.6666666666666667" />
<circle cx="249.39" cy="281.80" r="1.6666666666666667" />
<circle cx="249.54" cy="285.68" r="1.6666666666666667" />
<circle cx="249.67" cy="273.89" r="1.6666666666666667" />
<circle cx="249.82" cy="282.55" r="1.6666666666666667" />
<circle cx="249.96" cy="278.98" r="1.6666666666666667" />
<circle cx="250.11" cy="292.97" r="1.6666666666666667" />
<circle cx="250.25" cy="281.70" r="1.6666666666666667" />
<circle cx="250.40" cy="280.72" r="1.6666666666666667" />
<circle cx="250.54" cy="287.46" r="1.6666666666666667" />
<circle cx="250.69" cy="286.28" r="1.6666666666666667" />
<circle cx="250.84" cy="287.25" r="1.6666666666666667" />
<circle cx="250.99" cy="291.88" r="1.6666666666666667" />
<circle cx="251.13" cy="280.46" r="1.6666666666666667" />
<circle cx="251.27" cy="280.91" r="1.6666666666666667" />
<circle cx="251.42" cy="289.60" r="1.6666666666666667" />
<circle cx="251.56" cy="279.79" r="1.6666666666666667" />
<circle cx="251.71" cy="284.20" r="1.6666666666666667" />
<circle cx="251.86" cy="291.53" r="1.6666666666666667" />
<circle cx="252.01" cy="287.16" r="1.6666666666666667" />
<circle cx="252.15" cy="287.19" r="1.6666666666666667" />
<circle cx="252.30" cy="287.58" r="1.6666666666666667" />
<circle cx="252.45" cy="287.04" r="1.6666666666666667" />
<circle cx="252.60" cy="292.14" r="1.6666666666666667" />
<circle cx="252.74" cy="288.60" r="1.6666666666666667" />
<circle cx="252.89" cy="287.76" r="1.6666666666666667" />
<circle cx="253.03" cy="280.69" r="1.6666666666666667" />
<circle cx="253.18" cy="287.46" r="1.6666666666666667" />
<circle cx="253.34" cy="296.31" r="1.6666666666666667" />
<circle cx="253.49" cy="295.14" r="1.6666666666666667" />
<circle cx="253.64" cy="290.92" r="1.6666666666666667" />
<circle cx="253.78" cy="288.98" r="1.6666666666666667" />
<circle cx="253.93" cy="291.36" r="1.6666666666666667" />
<circle cx="254.09" cy="297.41" r="1.6666666666666667" />
<circle cx="254.25" cy="301.23" r="1.6666666666666667" />
<circle cx="254.40" cy="297.41" r="1.6666666666666667" />
<circle cx="254.55" cy="299.15" r="1.6666666666666667" />
<circle cx="254.71" cy="297.91" r="1.6666666666666667" />
<circle cx="254.86" cy="290.66" r="1.6666666666666667" />
<circle cx="255.01" cy="296.51" r="1.6666666666666667" />
<circle cx="255.16" cy="292.94" r="1.6666666666666667" />
<circle cx="255.32" cy="295.90" r="1.6666666666666667" />
<circle cx="255.47" cy="293.28" r="1.6666666666666667" />
<circle cx="255.62" cy="296.31" r="1.6666666666666667" />
<circle cx="255.77" cy="291.93" r="1.6666666666666667" />
<circle cx="255.92" cy="293.08" r="1.6666666666666667" />
<circle cx="256.07" cy="297.17" r="1.6666666666666667" />
<circle cx="256.22" cy="289.34" r="1.6666666666666667" />
<circle cx="256.37" cy="294.33" r="1.6666666666666667" />
<circle cx="256.52" cy="287.43" r="1.6666666666666667" />
<circle cx="256.67" cy="291.12" r="1.6666666666666667" />
<circle cx="256.82" cy="296.15" r="1.6666666666666667" />
<circle cx="256.98" cy="294.64" r="1.6666666666666667" />
<circle cx="257.13" cy="299.96" r="1.6666666666666667" />
<circle cx="257.29" cy="297.74" r="1.6666666666666667" />
<circle cx="257.44" cy="299.10" r="1.6666666666666667" />
<circle cx="257.60" cy="299.31" r="1.6666666666666667" />
<circle cx="257.75" cy="296.53" r="1.6666666666666667" />
<circle cx="257.91" cy="299.61" r="1.6666666666666667" />
<circle cx="258.06" cy="291.76" r="1.6666666666666667" />
<circle cx="258.21" cy="297.03" r="1.6666666666666667" />
<circle cx="258.36" cy="295.00" r="1.6666666666666667" />
<circle cx="258.52" cy="302.34" r="1.6666666666666667" />
<circle cx="258.67" cy="295.79" r="1.6666666666666667" />
<circle cx="258.99" cy="304.20" r="1.6666666666666667" />
<circle cx="259.14" cy="298.64" r="1.6666666666666667" />
<circle cx="259.30" cy="299.23" r="1.6666666666666667" />
<circle cx="259.46" cy="301.87" r="1.6666666666666667" />
<circle cx="259.61" cy="301.92" r="1.6666666666666667" />
<circle cx="259.77" cy="303.59" r="1.6666666666666667" />
<circle cx="259.93" cy="302.29" r="1.6666666666666667" />
<circle cx="260.08" cy="300.36" r="1.6666666666666667" />
<circle cx="260.24" cy="303.07" r="1.6666666666666667" />
<circle cx="260.40" cy="302.50" r="1.6666666666666667" />
<circle cx="260.56" cy="305.83" r="1.6666666666666667" />
<circle cx="260.72" cy="299.31" r="1.6666666666666667" />
<circle cx="260.88" cy="304.51" r="1.6666666666666667" />
<circle cx="261.03" cy="301.55" r="1.6666666666666667" />
<circle cx="261.20" cy="311.89" r="1.6666666666666667" />
<circle cx="261.36" cy="306.56" r="1.6666666666666667" />
<circle cx="261.52" cy="302.05" r="1.6666666666666667" />
<circle cx="261.68" cy="309.97" r="1.6666666666666667" />
<circle cx="261.84" cy="309.21" r="1.6666666666666667" />
<circle cx="262.01" cy="309.51" r="1.6666666666666667" />
<circle cx="262.18" cy="319.07" r="1.6666666666666667" />
<circle cx="262.34" cy="311.39" r="1.6666666666666667" />
<circle cx="262.51" cy="314.54" r="1.6666666666666667" />
<circle cx="262.68" cy="315.56" r="1.6666666666666667" />
<circle cx="262.84" cy="313.47" r="1.6666666666666667" />
<circle cx="263.02" cy="319.53" r="1.6666666666666667" />
<circle cx="263.18" cy="312.06" r="1.6666666666666667" />
<circle cx="263.34" cy="306.44" r="1.6666666666666667" />
<circle cx="263.51" cy="312.70" r="1.6666666666666667" />
<circle cx="263.67" cy="312.56" r="1.6666666666666667" />
<circle cx="263.84" cy="316.61" r="1.6666666666666667" />
<circle cx="264.01" cy="317.10" r="1.6666666666666667" />
<circle cx="264.18" cy="316.67" r="1.6666666666666667" />
<circle cx="264.35" cy="319.44" r="1.6666666666666667" />
<circle cx="264.52" cy="315.19" r="1.6666666666666667" />
<circle cx="264.69" cy="314.27" r="1.6666666666666667" />
<circle cx="264.86" cy="313.07" r="1.6666666666666667" />
<circle cx="265.02" cy="312.37" r="1.6666666666666667" />
<circle cx="265.19" cy="314.15" r="1.6666666666666667" />
<circle cx="265.36" cy="318.43" r="1.6666666666666667" />
<circle cx="265.53" cy="320.23" r="1.6666666666666667" />
<circle cx="265.71" cy="321.43" r="1.6666666666666667" />
<circle cx="265.88" cy="318.83" r="1.6666666666666667" />
<circle cx="266.05" cy="324.94" r="1.6666666666666667" />
<circle cx="266.23" cy="325.50" r="1.6666666666666667" />
<circle cx="266.41" cy="324.25" r="1.6666666666666667" />
<circle cx="266.58" cy="321.15" r="1.6666666666666667" />
<circle cx="266.76" cy="323.45" r="1.6666666666666667" />
<circle cx="266.93" cy="320.76" r="1.6666666666666667" />
<circle cx="267.10" cy="321.86" r="1.6666666666666667" />
<circle cx="267.29" cy="334.71" r="1.6666666666666667" />
<circle cx="267.48" cy="333.25" r="1.6666666666666667" />
<circle cx="267.66" cy="331.37" r="1.6666666666666667" />
<circle cx="267.85" cy="338.75" r="1.6666666666666667" />
<circle cx="268.04" cy="333.61" r="1.6666666666666667" />
<circle cx="268.22" cy="331.29" r="1.6666666666666667" />
<circle cx="268.40" cy="331.72" r="1.6666666666666667" />
<circle cx="268.58" cy="329.00" r="1.6666666666666667" />
<circle cx="268.76" cy="329.18" r="1.6666666666666667" />
<circle cx="268.95" cy="333.78" r="1.6666666666666667" />
<circle cx="269.14" cy="337.59" r="1.6666666666666667" />
<circle cx="269.32" cy="331.41" r="1.6666666666666667" />
<circle cx="269.50" cy="327.36" r="1.6666666666666667" />
<circle cx="269.68" cy="330.28" r="1.6666666666666667" />
<circle cx="269.86" cy="326.50" r="1.6666666666666667" />
<circle cx="270.04" cy="322.97" r="1.6666666666666667" />
<circle cx="270.22" cy="329.55" r="1.6666666666666667" />
<circle cx="270.40" cy="328.18" r="1.6666666666666667" />
<circle cx="270.57" cy="321.21" r="1.6666666666666667" />
<circle cx="270.75" cy="326.28" r="1.6666666666666667" />
<circle cx="270.93" cy="325.50" r="1.6666666666666667" />
<circle cx="271.11" cy="328.82" r="1.6666666666666667" />
<circle cx="271.29" cy="326.95" r="1.6666666666666667" />
<circle cx="271.47" cy="331.72" r="1.6666666666666667" />
<circle cx="271.65" cy="330.56" r="1.6666666666666667" />
<circle cx="271.83" cy="327.98" r="1.6666666666666667" />
<circle cx="272.01" cy="327.56" r="1.6666666666666667" />
<circle cx="272.19" cy="328.70" r="1.6666666666666667" />
<circle cx="272.37" cy="324.58" r="1.6666666666666667" />
<circle cx="272.55" cy="326.69" r="1.6666666666666667" />
<circle cx="272.73" cy="331.37" r="1.6666666666666667" />
<circle cx="272.92" cy="332.73" r="1.6666666666666667" />
<circle cx="273.10" cy="328.90" r="1.6666666666666667" />
<circle cx="273.28" cy="328.68" r="1.6666666666666667" />
<circle cx="273.46" cy="325.83" r="1.6666666666666667" />
<circle cx="273.63" cy="322.52" r="1.6666666666666667" />
<circle cx="273.81" cy="323.22" r="1.6666666666666667" />
<circle cx="273.98" cy="326.38" r="1.6666666666666667" />
<circle cx="274.16" cy="328.60" r="1.6666666666666667" />
<circle cx="274.35" cy="331.27" r="1.6666666666666667" />
<circle cx="274.52" cy="325.56" r="1.6666666666666667" />
<circle cx="274.71" cy="333.63" r="1.6666666666666667" />
<circle cx="274.89" cy="332.24" r="1.6666666666666667" />
<circle cx="275.08" cy="331.55" r="1.6666666666666667" />
<circle cx="275.26" cy="328.16" r="1.6666666666666667" />
<circle cx="275.44" cy="325.87" r="1.6666666666666667" />
<circle cx="275.62" cy="330.09" r="1.6666666666666667" />
<circle cx="275.80" cy="335.16" r="1.6666666666666667" />
<circle cx="275.99" cy="330.12" r="1.6666666666666667" />
<circle cx="276.17" cy="331.87" r="1.6666666666666667" />
<circle cx="276.36" cy="338.61" r="1.6666666666666667" />
<circle cx="276.55" cy="336.12" r="1.6666666666666667" />
<circle cx="276.73" cy="332.85" r="1.6666666666666667" />
<circle cx="276.92" cy="333.30" r="1.6666666666666667" />
<circle cx="277.10" cy="326.58" r="1.6666666666666667" />
<circle cx="277.28" cy="334.15" r="1.6666666666666667" />
<circle cx="277.48" cy="339.83" r="1.6666666666666667" />
<circle cx="277.67" cy="336.52" r="1.6666666666666667" />
<circle cx="277.85" cy="335.69" r="1.6666666666666667" />
<circle cx="278.04" cy="337.32" r="1.6666666666666667" />
<circle cx="278.23" cy="334.26" r="1.6666666666666667" />
<circle cx="278.42" cy="339.07" r="1.6666666666666667" />
<circle cx="278.61" cy="335.84" r="1.6666666666666667" />
<circle cx="278.80" cy="336.25" r="1.6666666666666667" />
<circle cx="278.99" cy="336.28" r="1.6666666666666667" />
<circle cx="279.17" cy="336.57" r="1.6666666666666667" />
<circle cx="279.37" cy="340.15" r="1.6666666666666667" />
<circle cx="279.56" cy="338.27" r="1.6666666666666667" />
<circle cx="279.74" cy="332.60" r="1.6666666666666667" />
<circle cx="279.93" cy="340.53" r="1.6666666666666667" />
<circle cx="280.13" cy="341.38" r="1.6666666666666667" />
<circle cx="280.31" cy="333.81" r="1.6666666666666667" />
<circle cx="280.50" cy="331.37" r="1.6666666666666667" />
<circle cx="280.69" cy="341.91" r="1.6666666666666667" />
<circle cx="280.89" cy="341.57" r="1.6666666666666667" />
<circle cx="281.09" cy="345.30" r="1.6666666666666667" />
<circle cx="281.28" cy="340.91" r="1.6666666666666667" />
<circle cx="281.47" cy="340.56" r="1.6666666666666667" />
<circle cx="281.67" cy="346.83" r="1.6666666666666667" />
<circle cx="281.87" cy="345.99" r="1.6666666666666667" />
<circle cx="282.07" cy="343.10" r="1.6666666666666667" />
<circle cx="282.26" cy="338.89" r="1.6666666666666667" />
<circle cx="282.46" cy="346.90" r="1.6666666666666667" />
<circle cx="282.66" cy="348.79" r="1.6666666666666667" />
<circle cx="282.86" cy="343.76" r="1.6666666666666667" />
<circle cx="283.06" cy="346.41" r="1.6666666666666667" />
<circle cx="283.26" cy="342.71" r="1.6666666666666667" />
<circle cx="283.45" cy="342.85" r="1.6666666666666667" />
<circle cx="283.66" cy="348.64" r="1.6666666666666667" />
<circle cx="283.85" cy="345.84" r="1.6666666666666667" />
<circle cx="284.05" cy="342.34" r="1.6666666666666667" />
<circle cx="284.25" cy="346.66" r="1.6666666666666667" />
<circle cx="284.45" cy="343.99" r="1.6666666666666667" />
<circle cx="284.65" cy="345.60" r="1.6666666666666667" />
<circle cx="284.85" cy="348.59" r="1.6666666666666667" />
<circle cx="285.05" cy="350.82" r="1.6666666666666667" />
<circle cx="285.25" cy="345.65" r="1.6666666666666667" />
<circle cx="285.46" cy="347.14" r="1.6666666666666667" />
<circle cx="285.65" cy="342.01" r="1.6666666666666667" />
<circle cx="285.85" cy="346.83" r="1.6666666666666667" />
<circle cx="286.06" cy="355.83" r="1.6666666666666667" />
<circle cx="286.27" cy="350.01" r="1.6666666666666667" />
<circle cx="286.47" cy="349.59" r="1.6666666666666667" />
<circle cx="286.68" cy="349.61" r="1.6666666666666667" />
<circle cx="286.89" cy="353.92" r="1.6666666666666667" />
<circle cx="287.08" cy="343.66" r="1.6666666666666667" />
<circle cx="287.28" cy="341.03" r="1.6666666666666667" />
<circle cx="287.48" cy="346.80" r="1.6666666666666667" />
<circle cx="287.68" cy="352.17" r="1.6666666666666667" />
<circle cx="287.89" cy="350.32" r="1.6666666666666667" />
<circle cx="288.10" cy="353.89" r="1.6666666666666667" />
<circle cx="288.31" cy="351.76" r="1.6666666666666667" />
<circle cx="288.51" cy="347.40" r="1.6666666666666667" />
<circle cx="288.71" cy="350.60" r="1.6666666666666667" />
<circle cx="288.91" cy="347.86" r="1.6666666666666667" />
<circle cx="289.11" cy="345.88" r="1.6666666666666667" />
<circle cx="289.33" cy="356.61" r="1.6666666666666667" />
<circle cx="289.53" cy="350.60" r="1.6666666666666667" />
<circle cx="289.74" cy="352.23" r="1.6666666666666667" />
<circle cx="289.95" cy="354.26" r="1.6666666666666667" />
<circle cx="290.16" cy="355.05" r="1.6666666666666667" />
<circle cx="290.37" cy="353.34" r="1.6666666666666667" />
<circle cx="290.58" cy="351.85" r="1.6666666666666667" />
<circle cx="290.79" cy="357.71" r="1.6666666666666667" />
<circle cx="291.00" cy="349.64" r="1.6666666666666667" />
<circle cx="291.21" cy="360.16" r="1.6666666666666667" />
<circle cx="291.44" cy="363.60" r="1.6666666666666667" />
<circle cx="291.66" cy="359.78" r="1.6666666666666667" />
<circle cx="291.87" cy="356.63" r="1.6666666666666667" />
<circle cx="292.09" cy="361.02" r="1.6666666666666667" />
<circle cx="292.30" cy="357.88" r="1.6666666666666667" />
<circle cx="292.51" cy="354.27" r="1.6666666666666667" />
<circle cx="292.73" cy="356.86" r="1.6666666666666667" />
<circle cx="292.95" cy="359.21" r="1.6666666666666667" />
<circle cx="293.37" cy="359.49" r="1.6666666666666667" />
<circle cx="293.59" cy="358.95" r="1.6666666666666667" />
<circle cx="293.81" cy="359.42" r="1.6666666666666667" />
<circle cx="294.02" cy="356.70" r="1.6666666666666667" />
<circle cx="294.24" cy="358.26" r="1.6666666666666667" />
<circle cx="294.46" cy="360.97" r="1.6666666666666667" />
<circle cx="294.67" cy="357.56" r="1.6666666666666667" />
<circle cx="294.89" cy="358.35" r="1.6666666666666667" />
<circle cx="295.10" cy="359.60" r="1.6666666666666667" />
<circle cx="295.32" cy="359.39" r="1.6666666666666667" />
<circle cx="295.54" cy="362.08" r="1.6666666666666667" />
<circle cx="295.76" cy="357.79" r="1.6666666666666667" />
<circle cx="295.98" cy="361.80" r="1.6666666666666667" />
<circle cx="296.20" cy="362.27" r="1.6666666666666667" />
<circle cx="296.43" cy="364.75" r="1.6666666666666667" />
<circle cx="296.65" cy="365.77" r="1.6666666666666667" />
<circle cx="296.88" cy="366.59" r="1.6666666666666667" />
<circle cx="297.11" cy="366.34" r="1.6666666666666667" />
<circle cx="297.34" cy="369.09" r="1.6666666666666667" />
<circle cx="297.57" cy="365.21" r="1.6666666666666667" />
<circle cx="297.80" cy="367.72" r="1.6666666666666667" />
<circle cx="298.03" cy="368.40" r="1.6666666666666667" />
<circle cx="298.26" cy="371.32" r="1.6666666666666667" />
<circle cx="298.50" cy="373.42" r="1.6666666666666667" />
<circle cx="298.74" cy="373.43" r="1.6666666666666667" />
<circle cx="298.99" cy="377.12" r="1.6666666666666667" />
<circle cx="299.24" cy="376.87" r="1.6666666666666667" />
<circle cx="299.48" cy="376.88" r="1.6666666666666667" />
<circle cx="299.73" cy="380.55" r="1.6666666666666667" />
<circle cx="299.99" cy="381.65" r="1.6666666666666667" />
<circle cx="300.24" cy="380.14" r="1.6666666666666667" />
<circle cx="300.50" cy="382.23" r="1.6666666666666667" />
<circle cx="300.76" cy="383.81" r="1.6666666666666667" />
<circle cx="301.01" cy="382.01" r="1.6666666666666667" />
<circle cx="301.27" cy="382.85" r="1.6666666666666667" />
<circle cx="301.53" cy="384.50" r="1.6666666666666667" />
<circle cx="301.79" cy="383.64" r="1.6666666666666667" />
<circle cx="302.05" cy="384.33" r="1.6666666666666667" />
<circle cx="302.31" cy="384.18" r="1.6666666666666667" />
<circle cx="302.57" cy="382.38" r="1.6666666666666667" />
<circle cx="302.82" cy="381.87" r="1.6666666666666667" />
<circle cx="303.08" cy="380.99" r="1.6666666666666667" />
<circle cx="303.33" cy="381.25" r="1.6666666666666667" />
<circle cx="303.59" cy="383.24" r="1.6666666666666667" />
<circle cx="303.85" cy="382.35" r="1.6666666666666667" />
<circle cx="304.11" cy="384.38" r="1.6666666666666667" />
<circle cx="304.37" cy="384.50" r="1.6666666666666667" />
<circle cx="304.63" cy="383.20" r="1.6666666666666667" />
<circle cx="304.89" cy="386.69" r="1.6666666666666667" />
<circle cx="305.15" cy="382.83" r="1.6666666666666667" />
<circle cx="305.41" cy="383.78" r="1.6666666666666667" />
<circle cx="305.67" cy="383.47" r="1.6666666666666667" />
<circle cx="305.93" cy="384.39" r="1.6666666666666667" />
<circle cx="306.18" cy="379.08" r="1.6666666666666667" />
<circle cx="306.43" cy="381.28" r="1.6666666666666667" />
<circle cx="306.69" cy="385.03" r="1.6666666666666667" />
<circle cx="306.95" cy="384.46" r="1.6666666666666667" />
<circle cx="307.22" cy="385.53" r="1.6666666666666667" />
<circle cx="307.48" cy="387.35" r="1.6666666666666667" />
<circle cx="307.74" cy="381.37" r="1.6666666666666667" />
<circle cx="307.99" cy="381.01" r="1.6666666666666667" />
<circle cx="308.26" cy="386.46" r="1.6666666666666667" />
<circle cx="308.52" cy="386.07" r="1.6666666666666667" />
<circle cx="308.79" cy="387.21" r="1.6666666666666667" />
<circle cx="309.06" cy="390.79" r="1.6666666666666667" />
<circle cx="309.33" cy="389.03" r="1.6666666666666667" />
<circle cx="309.61" cy="391.48" r="1.6666666666666667" />
<circle cx="309.88" cy="389.47" r="1.6666666666666667" />
<circle cx="310.15" cy="390.60" r="1.6666666666666667" />
<circle cx="310.44" cy="394.49" r="1.6666666666666667" />
<circle cx="310.72" cy="393.73" r="1.6666666666666667" />
<circle cx="311.00" cy="392.98" r="1.6666666666666667" />
<circle cx="311.27" cy="388.32" r="1.6666666666666667" />
<circle cx="311.55" cy="395.02" r="1.6666666666666667" />
<circle cx="311.85" cy="397.99" r="1.6666666666666667" />
<circle cx="312.14" cy="397.05" r="1.6666666666666667" />
<circle cx="312.43" cy="397.95" r="1.6666666666666667" />
<circle cx="312.71" cy="394.94" r="1.6666666666666667" />
<circle cx="313.00" cy="394.48" r="1.6666666666666667" />
<circle cx="313.28" cy="394.04" r="1.6666666666666667" />
<circle cx="313.56" cy="395.30" r="1.6666666666666667" />
<circle cx="313.85" cy="397.46" r="1.6666666666666667" />
<circle cx="314.14" cy="395.44" r="1.6666666666666667" />
<circle cx="314.43" cy="398.51" r="1.6666666666666667" />
<circle cx="314.72" cy="394.88" r="1.6666666666666667" />
<circle cx="315.01" cy="396.37" r="1.6666666666666667" />
<circle cx="315.30" cy="400.74" r="1.6666666666666667" />
<circle cx="315.60" cy="397.92" r="1.6666666666666667" />
<circle cx="315.90" cy="403.69" r="1.6666666666666667" />
<circle cx="316.20" cy="400.71" r="1.6666666666666667" />
<circle cx="316.49" cy="395.95" r="1.6666666666666667" />
<circle cx="316.76" cy="388.39" r="1.6666666666666667" />
<circle cx="317.04" cy="393.81" r="1.6666666666666667" />
<circle cx="317.31" cy="389.47" r="1.6666666666666667" />
<circle cx="317.60" cy="395.13" r="1.6666666666666667" />
<circle cx="317.88" cy="394.05" r="1.6666666666666667" />
<circle cx="318.15" cy="390.28" r="1.6666666666666667" />
<circle cx="318.43" cy="392.14" r="1.6666666666666667" />
<circle cx="318.72" cy="397.74" r="1.6666666666666667" />
<circle cx="319.02" cy="398.54" r="1.6666666666666667" />
<circle cx="319.31" cy="396.72" r="1.6666666666666667" />
<circle cx="319.60" cy="397.07" r="1.6666666666666667" />
<circle cx="319.87" cy="392.00" r="1.6666666666666667" />
<circle cx="320.15" cy="393.50" r="1.6666666666666667" />
<circle cx="320.45" cy="397.47" r="1.6666666666666667" />
<circle cx="320.73" cy="396.83" r="1.6666666666666667" />
<circle cx="321.02" cy="395.48" r="1.6666666666666667" />
<circle cx="321.32" cy="400.37" r="1.6666666666666667" />
<circle cx="321.60" cy="393.96" r="1.6666666666666667" />
<circle cx="321.89" cy="394.70" r="1.6666666666666667" />
<circle cx="322.18" cy="398.26" r="1.6666666666666667" />
<circle cx="322.48" cy="400.61" r="1.6666666666666667" />
<circle cx="322.79" cy="403.82" r="1.6666666666666667" />
<circle cx="323.08" cy="399.99" r="1.6666666666666667" />
<circle cx="323.38" cy="400.74" r="1.6666666666666667" />
<circle cx="323.69" cy="403.11" r="1.6666666666666667" />
<circle cx="323.99" cy="402.89" r="1.6666666666666667" />
<circle cx="324.30" cy="402.68" r="1.6666666666666667" />
<circle cx="324.61" cy="403.97" r="1.6666666666666667" />
<circle cx="324.91" cy="402.48" r="1.6666666666666667" />
<circle cx="325.21" cy="398.39" r="1.6666666666666667" />
<circle cx="325.51" cy="403.62" r="1.6666666666666667" />
<circle cx="325.82" cy="403.27" r="1.6666666666666667" />
<circle cx="326.13" cy="402.95" r="1.6666666666666667" />
<circle cx="326.43" cy="402.05" r="1.6666666666666667" />
<circle cx="326.72" cy="397.74" r="1.6666666666666667" />
<circle cx="327.02" cy="402.24" r="1.6666666666666667" />
<circle cx="327.34" cy="404.94" r="1.6666666666666667" />
<circle cx="327.65" cy="406.73" r="1.6666666666666667" />
<circle cx="327.97" cy="406.38" r="1.6666666666666667" />
<circle cx="328.28" cy="405.39" r="1.6666666666666667" />
<circle cx="328.58" cy="401.82" r="1.6666666666666667" />
<circle cx="328.91" cy="408.88" r="1.6666666666666667" />
<circle cx="329.22" cy="405.63" r="1.6666666666666667" />
<circle cx="329.54" cy="408.03" r="1.6666666666666667" />
<circle cx="329.86" cy="407.02" r="1.6666666666666667" />
<circle cx="330.18" cy="405.99" r="1.6666666666666667" />
<circle cx="330.49" cy="406.74" r="1.6666666666666667" />
<circle cx="331.14" cy="407.10" r="1.6666666666666667" />
<circle cx="331.48" cy="414.16" r="1.6666666666666667" />
<circle cx="331.77" cy="397.88" r="1.6666666666666667" />
<circle cx="332.10" cy="409.46" r="1.6666666666666667" />
<circle cx="332.43" cy="411.37" r="1.6666666666666667" />
<circle cx="332.76" cy="411.24" r="1.6666666666666667" />
<circle cx="333.09" cy="411.96" r="1.6666666666666667" />
<circle cx="333.42" cy="409.41" r="1.6666666666666667" />
<circle cx="333.74" cy="407.28" r="1.6666666666666667" />
<circle cx="334.08" cy="413.02" r="1.6666666666666667" />
<circle cx="334.42" cy="415.23" r="1.6666666666666667" />
<circle cx="334.76" cy="412.00" r="1.6666666666666667" />
<circle cx="335.09" cy="413.04" r="1.6666666666666667" />
<circle cx="335.42" cy="411.00" r="1.6666666666666667" />
<circle cx="335.77" cy="414.60" r="1.6666666666666667" />
<circle cx="336.11" cy="415.14" r="1.6666666666666667" />
<circle cx="336.46" cy="416.29" r="1.6666666666666667" />
<circle cx="336.82" cy="417.85" r="1.6666666666666667" />
<circle cx="337.16" cy="413.79" r="1.6666666666666667" />
<circle cx="337.52" cy="419.55" r="1.6666666666666667" />
<circle cx="337.88" cy="418.73" r="1.6666666666666667" />
<circle cx="338.25" cy="422.60" r="1.6666666666666667" />
<circle cx="338.61" cy="418.65" r="1.6666666666666667" />
<circle cx="338.96" cy="417.59" r="1.6666666666666667" />
<circle cx="339.34" cy="422.75" r="1.6666666666666667" />
<circle cx="339.71" cy="421.58" r="1.6666666666666667" />
<circle cx="340.09" cy="423.29" r="1.6666666666666667" />
<circle cx="340.44" cy="418.36" r="1.6666666666666667" />
<circle cx="340.82" cy="422.83" r="1.6666666666666667" />
<circle cx="341.20" cy="424.47" r="1.6666666666666667" />
<circle cx="341.58" cy="422.83" r="1.6666666666666667" />
<circle cx="341.96" cy="423.66" r="1.6666666666666667" />
<circle cx="342.33" cy="422.79" r="1.6666666666666667" />
<circle cx="342.72" cy="425.93" r="1.6666666666666667" />
<circle cx="343.10" cy="424.40" r="1.6666666666666667" />
<circle cx="343.49" cy="424.10" r="1.6666666666666667" />
<circle cx="343.88" cy="427.00" r="1.6666666666666667" />
<circle cx="344.27" cy="425.49" r="1.6666666666666667" />
<circle cx="344.66" cy="427.40" r="1.6666666666666667" />
<circle cx="345.07" cy="428.58" r="1.6666666666666667" />
<circle cx="345.46" cy="427.01" r="1.6666666666666667" />
<circle cx="345.85" cy="425.85" r="1.6666666666666667" />
<circle cx="346.24" cy="427.30" r="1.6666666666666667" />
<circle cx="346.64" cy="427.34" r="1.6666666666666667" />
<circle cx="347.05" cy="430.21" r="1.6666666666666667" />
<circle cx="347.45" cy="427.60" r="1.6666666666666667" />
<circle cx="347.85" cy="427.74" r="1.6666666666666667" />
<circle cx="348.25" cy="428.67" r="1.6666666666666667" />
<circle cx="348.66" cy="431.39" r="1.6666666666666667" />
<circle cx="349.06" cy="427.44" r="1.6666666666666667" />
<circle cx="349.47" cy="429.73" r="1.6666666666666667" />
<circle cx="349.89" cy="431.69" r="1.6666666666666667" />
<circle cx="350.31" cy="432.18" r="1.6666666666666667" />
<circle cx="350.71" cy="429.55" r="1.6666666666666667" />
<circle cx="351.12" cy="429.23" r="1.6666666666666667" />
<circle cx="351.54" cy="432.02" r="1.6666666666666667" />
<circle cx="351.96" cy="432.69" r="1.6666666666666667" />
<circle cx="352.38" cy="432.30" r="1.6666666666666667" />
<circle cx="352.80" cy="431.66" r="1.6666666666666667" />
<circle cx="353.66" cy="434.38" r="1.6666666666666667" />
<circle cx="354.10" cy="434.46" r="1.6666666666666667" />
<circle cx="354.53" cy="433.81" r="1.6666666666666667" />
<circle cx="354.98" cy="437.18" r="1.6666666666666667" />
<circle cx="355.43" cy="438.01" r="1.6666666666666667" />
<circle cx="355.88" cy="437.02" r="1.6666666666666667" />
<circle cx="356.35" cy="439.80" r="1.6666666666666667" />
<circle cx="356.81" cy="439.49" r="1.6666666666666667" />
<circle cx="357.29" cy="441.50" r="1.6666666666666667" />
<circle cx="357.75" cy="438.98" r="1.6666666666666667" />
<circle cx="358.22" cy="440.83" r="1.6666666666666667" />
<circle cx="358.70" cy="441.54" r="1.6666666666666667" />
<circle cx="359.17" cy="440.29" r="1.6666666666666667" />
<circle cx="359.63" cy="438.79" r="1.6666666666666667" />
<circle cx="360.12" cy="443.55" r="1.6666666666666667" />
<circle cx="360.62" cy="444.11" r="1.6666666666666667" />
<circle cx="361.10" cy="442.21" r="1.6666666666666667" />
<circle cx="361.61" cy="445.41" r="1.6666666666666667" />
<circle cx="362.11" cy="444.27" r="1.6666666666666667" />
<circle cx="362.61" cy="444.74" r="1.6666666666666667" />
<circle cx="363.11" cy="444.84" r="1.6666666666666667" />
<circle cx="363.62" cy="445.60" r="1.6666666666666667" />
<circle cx="364.13" cy="446.65" r="1.6666666666666667" />
<circle cx="364.66" cy="447.58" r="1.6666666666666667" />
<circle cx="365.19" cy="448.58" r="1.6666666666666667" />
<circle cx="365.73" cy="448.80" r="1.6666666666666667" />
<circle cx="366.25" cy="447.28" r="1.6666666666666667" />
<circle cx="366.81" cy="451.51" r="1.6666666666666667" />
<circle cx="367.36" cy="450.25" r="1.6666666666666667" />
<circle cx="367.92" cy="452.13" r="1.6666666666666667" />
<circle cx="368.49" cy="452.34" r="1.6666666666666667" />
<circle cx="369.06" cy="452.26" r="1.6666666666666667" />
<circle cx="369.63" cy="452.57" r="1.6666666666666667" />
<circle cx="370.21" cy="453.54" r="1.6666666666666667" />
<circle cx="370.79" cy="454.08" r="1.6666666666666667" />
<circle cx="371.38" cy="454.56" r="1.6666666666666667" />
<circle cx="371.98" cy="455.10" r="1.6666666666666667" />
<circle cx="372.58" cy="455.32" r="1.6666666666666667" />
<circle cx="373.18" cy="455.98" r="1.6666666666666667" />
<circle cx="373.80" cy="456.68" r="1.6666666666666667" />
<circle cx="374.43" cy="458.03" r="1.6666666666666667" />
<circle cx="375.03" cy="455.57" r="1.6666666666666667" />
<circle cx="375.65" cy="457.60" r="1.6666666666666667" />
<circle cx="376.31" cy="460.05" r="1.6666666666666667" />
<circle cx="376.95" cy="459.05" r="1.6666666666666667" />
<circle cx="377.59" cy="459.13" r="1.6666666666666667" />
<circle cx="378.27" cy="461.40" r="1.6666666666666667" />
<circle cx="378.94" cy="461.37" r="1.6666666666666667" />
<circle cx="379.62" cy="461.47" r="1.6666666666666667" />
<circle cx="380.29" cy="461.64" r="1.6666666666666667" />
<circle cx="381.00" cy="463.51" r="1.6666666666666667" />
<circle cx="381.67" cy="461.38" r="1.6666666666666667" />
<circle cx="382.38" cy="463.91" r="1.6666666666666667" />
<circle cx="383.09" cy="464.23" r="1.6666666666666667" />
<circle cx="383.83" cy="465.45" r="1.6666666666666667" />
<circle cx="384.57" cy="466.02" r="1.6666666666666667" />
<circle cx="385.30" cy="464.86" r="1.6666666666666667" />
<circle cx="386.03" cy="465.02" r="1.6666666666666667" />
<circle cx="386.76" cy="465.15" r="1.6666666666666667" />
<circle cx="387.52" cy="466.92" r="1.6666666666666667" />
<circle cx="388.32" cy="469.39" r="1.6666666666666667" />
<circle cx="389.12" cy="469.09" r="1.6666666666666667" />
<circle cx="389.94" cy="470.20" r="1.6666666666666667" />
<circle cx="391.62" cy="471.65" r="1.6666666666666667" />
</g>
<g stroke="black">
<line x1="813.75" x2="813.75" y1="510.00" y2="520.00" />
<line x1="760.60" x2="760.60" y1="510.00" y2="520.00" />
<line x1="707.45" x2="707.45" y1="510.00" y2="520.00" />
<line x1="656.01" x2="656.01" y1="510.00" y2="520.00" />
<line x1="602.86" x2="602.86" y1="510.00" y2="520.00" />
<line x1="551.42" x2="551.42" y1="510.00" y2="520.00" />
<line x1="498.27" x2="498.27" y1="510.00" y2="520.00" />
<line x1="445.11" x2="445.11" y1="510.00" y2="520.00" />
<line x1="393.68" x2="393.68" y1="510.00" y2="520.00" />
<line x1="340.52" x2="340.52" y1="510.00" y2="520.00" />
<line x1="289.09" x2="289.09" y1="510.00" y2="520.00" />
<line x1="235.93" x2="235.93" y1="510.00" y2="520.00" />
<line x1="187.92" x2="187.92" y1="510.00" y2="520.00" />
<g fill="black" font-family="Arial, sans-serif" font-size="18.0" stroke="none" text-anchor="start" transform="translate(9.0 0.0)">
<text x="813.75" y="530.57">Feb</text>
<text x="760.60" y="530.57">Jan</text>
<text x="707.45" y="530.57">Dec</text>
<text x="656.01" y="530.57">Nov</text>
<text x="602.86" y="530.57">Oct</text>
<text x="551.42" y="530.57">Sep</text>
<text x="498.27" y="530.57">Aug</text>
<text x="445.11" y="530.57">Jul</text>
<text x="393.68" y="530.57">Jun</text>
<text x="340.52" y="530.57">May</text>
<text x="289.09" y="530.57">Apr</text>
<text x="235.93" y="530.57">Mar</text>
<text x="187.92" y="530.57">Feb</text>
</g>
<line x1="150.00" x2="850.00" y1="510.00" y2="510.00" />
</g>
<g stroke="black">
<line x1="150.00" x2="140.00" y1="510.00" y2="510.00" />
<line x1="150.00" x2="140.00" y1="319.09" y2="319.09" />
<line x1="150.00" x2="140.00" y1="128.18" y2="128.18" />
<g fill="black" font-family="Arial, sans-serif" font-size="18.0" stroke="none" text-anchor="end">
<text x="141.00" y="501.00">0</text>
<text x="141.00" y="310.09">10</text>
<text x="141.00" y="119.18">20</text>
</g>
<line x1="150.00" x2="150.00" y1="510.00" y2="90.00" />
</g>
</g>
</svg>