<?xml version="1.0"?>
<svg version="1.1" viewBox="0 0 1000 600" xmlns:xlink="http://www.w3.org/1999/xlink" xmlns="http://www.w3.org/2000/svg">
<g>
<g stroke-dasharray="3.6 7.2" stroke-width="0.72" stroke="#caa">
<line x1="315.51" x2="315.51" y1="510.00" y2="90.00" />
<line x1="812.66" x2="812.66" y1="510.00" y2="90.00" />
<line x1="150.00" x2="850.00" y1="311.13" y2="311.13" />
<line x1="150.00" x2="850.00" y1="106.07" y2="106.07" />
</g>
<g>
<text dominant-baseline="hanging" dx="-36.0" dy="18.0" fill="#0004" font-family="Arial, sans-serif" font-size="36" stroke="none" text-anchor="end" x="850.00" y="125.00">FR1</text>
</g>
<g>
<text dominant-baseline="text-bottom" dy="-12.0" fill="black" font-family="Arial, sans-serif" font-size="18.0" font-style="italic" stroke="none" text-anchor="middle" x="500.00" y="90.00">Days since start</text>
</g>
<g>
<text dominant-baseline="central" dx="12.0" dy="12.0" fill="black" font-family="Arial, sans-serif" font-size="18.0" font-style="italic" stroke="none" text-anchor="middle" text-orientation="sideways" writing-mode="vertical-lr" x="850.00" y="300.00">Drips per day</text>
</g>
<polyline fill="none" points="150.00,162.56 150.29,158.99 150.57,152.69 150.85,158.85 151.12,141.31 151.39,138.03 151.67,150.36 151.95,151.04 152.24,158.27 152.53,172.37 152.82,166.88 153.10,146.86 153.37,145.46 153.66,156.16 153.95,163.40 154.24,162.56 154.55,190.33 154.85,182.85 155.16,179.17 155.45,171.10 155.74,163.82 156.02,152.17 156.30,153.66 156.58,146.39 156.86,151.34 157.14,160.64 157.44,172.44 157.73,168.87 158.03,170.36 158.31,152.54 158.60,162.98 158.88,154.84 159.17,164.45 159.47,177.69 159.79,192.47 160.10,195.23 160.42,190.75 160.72,176.85 161.01,164.59 161.29,150.44 161.56,149.99 161.86,169.95 162.16,179.49 162.47,187.98 162.78,182.16 163.07,169.14 163.36,163.96 163.66,174.36 163.95,170.09 164.27,194.36 164.58,182.98 164.89,189.49 165.20,189.43 165.51,187.98 165.81,180.26 166.11,168.80 166.39,161.00 166.68,162.28 166.97,155.87 167.24,150.67 167.53,157.69 167.83,172.50 168.10,147.01 168.38,149.30 168.66,146.55 168.94,157.11 169.23,163.47 169.53,177.95 169.84,189.25 170.15,181.02 170.43,155.21 170.73,175.87 171.01,158.20 171.30,156.67 171.58,154.84 171.88,174.10 172.18,178.92 172.48,173.97 172.78,176.65 173.07,165.50 173.36,163.12 173.64,163.54 173.93,165.01 174.23,168.05 174.54,194.65 174.86,196.91 175.18,194.59 175.49,187.79 175.80,183.98 176.10,179.81 176.40,179.24 176.70,176.78 177.02,189.37 177.33,190.03 177.65,194.06 177.95,176.59 178.25,181.47 178.54,168.05 178.84,176.13 179.15,179.17 179.46,196.27 179.80,208.76 180.12,203.39 180.44,199.93 180.75,180.51 181.06,189.01 181.36,180.39 181.66,176.59 181.97,184.85 182.28,190.75 182.59,185.22 182.89,172.17 183.18,164.17 183.47,167.50 183.76,169.34 184.06,167.77 184.36,179.62 184.67,191.23 184.99,192.59 185.29,179.24 185.59,175.74 185.88,158.78 186.16,163.75 186.46,167.36 186.76,175.41 187.06,177.50 187.36,178.02 187.65,167.50 187.95,179.94 188.26,181.91 188.56,174.03 188.86,183.48 189.16,176.13 189.46,173.44 189.76,178.08 190.05,166.12 190.35,175.94 190.66,180.96 190.98,201.28 191.30,194.53 191.61,192.53 191.94,206.40 192.26,198.57 192.58,196.04 192.90,196.62 193.21,183.29 193.51,178.66 193.82,189.19 194.14,200.72 194.46,193.83 194.77,187.12 195.07,177.17 195.36,169.61 195.67,182.73 195.98,188.22 196.30,195.41 196.62,197.54 196.94,197.43 197.27,210.83 197.60,207.85 197.93,205.75 198.25,193.18 198.56,194.12 198.88,194.77 199.20,200.94 199.51,184.78 199.82,186.69 200.11,162.42 200.41,183.04 200.74,202.84 201.06,197.83 201.37,192.12 201.70,197.83 202.02,206.07 202.35,205.48 202.69,216.46 203.01,193.36 203.32,186.51 203.63,188.83 203.95,194.47 204.28,207.75 204.60,205.58 204.91,187.43 205.22,178.98 205.54,199.87 205.86,195.70 206.16,181.72 206.49,210.25 206.82,204.05 207.15,209.99 207.49,208.98 207.82,206.29 208.13,196.62 208.46,204.11 208.80,212.51 209.12,205.75 209.44,188.89 209.75,195.99 210.07,193.77 210.40,207.91 210.72,198.51 211.04,195.41 211.37,206.13 211.71,212.71 212.05,218.63 212.40,224.27 212.73,212.04 213.06,208.44 213.39,201.73 213.71,204.71 214.05,211.20 214.37,201.56 214.69,193.42 215.01,199.99 215.33,197.14 215.67,211.93 215.98,188.40 216.31,205.64 216.63,202.62 216.98,227.03 217.33,226.22 217.67,213.44 218.00,209.46 218.34,209.93 218.68,218.53 219.02,220.91 219.36,210.78 219.68,201.00 220.01,210.36 220.36,221.60 220.69,206.29 221.01,202.73 221.34,200.44 221.67,207.59 222.01,213.96 222.34,212.35 222.67,204.27 222.99,204.33 223.32,198.45 223.64,203.78 223.97,204.49 224.30,208.66 224.63,206.02 224.96,205.80 225.28,202.84 225.61,205.86 225.94,202.84 359.21,217.88 359.55,221.15 359.89,214.16 360.24,223.49 360.57,212.82 360.92,222.77 361.26,217.88 361.61,218.78 361.96,225.37 362.31,226.37 362.66,224.12 363.00,222.62 363.35,221.99 363.69,215.70 364.04,222.43 364.38,218.38 364.73,227.36 365.08,220.51 365.43,226.46 365.78,222.38 366.13,224.84 366.48,229.42 366.83,220.17 367.18,226.98 367.52,220.42 367.87,219.08 368.21,217.52 368.56,226.27 368.90,221.25 369.26,228.06 369.61,229.69 369.97,231.17 370.32,225.80 370.67,225.13 371.03,232.99 371.39,227.31 371.75,232.40 372.10,228.16 372.46,230.89 372.81,227.08 373.15,217.32 373.51,231.72 373.85,219.62 374.21,230.89 374.56,222.81 374.92,232.86 375.28,233.71 375.64,234.48 375.99,225.51 376.34,224.89 376.70,232.76 377.05,228.81 377.42,235.99 377.77,223.45 378.12,230.94 378.47,221.06 378.82,222.62 379.16,221.60 379.51,226.41 379.87,227.08 380.23,233.04 380.58,226.37 380.92,221.06 381.28,231.95 381.64,228.67 382.00,232.54 382.35,230.30 382.71,232.99 383.06,223.88 383.42,232.86 383.79,236.21 384.14,231.67 384.51,239.32 384.88,236.83 385.25,239.97 385.61,234.21 385.98,241.38 386.34,234.66 386.71,240.05 387.08,238.19 387.44,235.19 387.81,238.80 388.16,227.69 388.52,229.23 388.89,243.62 389.26,237.23 389.63,243.03 390.00,243.79 390.37,242.15 390.75,242.19 391.11,232.40 391.48,244.29 391.86,244.71 392.22,237.62 392.59,239.54 392.96,243.37 393.33,240.70 393.70,235.46 394.07,239.97 394.44,245.54 394.82,242.19 395.19,246.40 395.56,236.70 395.94,246.40 396.30,236.61 396.67,243.33 397.05,243.12 397.43,248.93 397.80,239.88 398.17,239.28 398.55,247.91 398.92,246.16 399.31,249.77 399.68,244.50 400.06,244.54 400.44,249.45 400.81,240.31 401.19,247.14 401.56,244.54 401.95,249.77 402.33,251.32 402.72,257.81 403.11,250.85 403.50,252.78 403.88,253.91 404.27,250.81 404.66,255.34 405.05,257.66 405.45,258.56 405.83,245.46 406.22,255.61 406.60,249.17 406.98,251.05 407.37,250.17 407.75,246.53 408.13,250.53 408.50,241.72 408.88,245.74 409.26,248.81 409.64,251.13 410.02,248.32 410.42,258.53 410.80,248.89 411.18,243.92 411.57,258.04 411.96,255.76 412.36,261.86 412.75,250.61 413.15,265.99 413.55,257.28 413.95,260.72 414.34,257.17 414.74,263.85 415.14,256.72 415.53,257.63 415.92,252.00 416.31,256.87 416.73,274.19 417.12,254.14 417.52,260.35 417.91,258.60 418.32,265.07 418.71,253.95 419.12,265.63 419.54,275.14 419.95,265.17 420.36,272.96 420.76,255.76 421.17,268.16 421.57,266.13 421.98,264.17 422.37,258.64 422.78,262.48 423.17,259.50 423.57,257.66 423.97,259.57 424.37,262.98 424.78,268.68 425.18,263.78 425.59,267.43 426.00,267.60 426.41,264.39 426.81,260.02 427.21,265.46 427.61,261.82 428.01,260.42 428.42,263.78 428.83,270.80 429.25,270.43 429.65,264.24 430.07,270.91 430.48,266.97 430.88,261.86 431.29,269.81 431.70,267.78 432.11,267.46 432.51,263.74 432.94,277.55 433.36,272.19 433.76,264.67 434.20,281.13 434.62,273.89 435.05,278.89 435.47,276.45 435.89,273.66 436.32,276.64 436.75,281.03 437.18,276.35 437.59,271.08 438.02,275.24 438.42,262.58 438.84,271.89 439.25,268.05 439.68,283.07 440.10,270.97 440.51,269.92 440.94,277.16 441.37,275.90 441.79,276.93 442.23,281.90 442.64,269.64 443.05,270.12 443.48,279.46 443.90,268.92 444.32,273.66 444.75,281.53 445.18,276.84 445.60,276.87 446.03,277.29 446.46,276.71 446.89,282.18 447.32,278.38 447.75,277.48 448.16,269.88 448.59,277.16 449.03,286.67 449.47,285.41 449.91,280.88 450.34,278.79 450.77,281.34 451.22,287.85 451.67,291.95 452.12,287.85 452.57,289.72 453.02,288.38 453.45,280.59 453.89,286.88 454.33,283.04 454.77,286.22 455.21,283.41 455.66,286.67 456.09,281.96 456.53,283.20 456.97,287.59 457.40,279.18 457.84,284.54 458.27,277.13 458.70,281.09 459.15,286.49 459.59,284.87 460.04,290.58 460.49,288.20 460.94,289.66 461.39,289.89 461.83,286.91 462.28,290.21 462.72,281.78 463.16,287.44 463.61,285.26 464.06,293.14 464.51,286.10 226.59,210.62 226.93,214.47 227.28,222.43 227.62,214.47 227.94,197.20 228.25,187.79 228.56,192.59 228.88,199.25 229.21,201.17 229.53,204.16 229.85,196.79 230.16,182.60 230.47,184.16 230.76,173.57 231.06,176.20 231.36,176.85 231.67,188.16 231.99,189.25 232.30,186.57 232.61,189.67 232.91,178.66 233.21,181.47 233.52,183.60 233.83,183.41 234.15,196.62 234.47,204.00 234.80,203.50 235.11,190.69 235.43,195.93 235.74,191.76 236.05,179.49 236.36,189.43 236.68,196.56 237.00,195.52 237.31,193.65 237.63,190.81 237.93,185.71 238.24,181.21 238.54,181.97 238.87,201.61 239.18,189.91 239.49,192.65 239.81,195.99 240.14,200.72 240.44,185.90 240.75,186.33 241.06,180.96 241.36,178.53 241.66,178.79 241.97,185.90 242.27,177.95 242.57,172.70 242.86,162.84 243.14,155.50 243.43,162.06 243.73,177.17 244.04,184.10 244.35,187.49 244.65,181.78 244.95,173.37 245.24,161.85 245.52,162.28 245.81,157.98 246.10,162.63 246.37,148.31 246.67,167.84 246.97,176.07 247.26,165.91 247.54,160.28 247.83,164.66 248.12,155.28 248.40,160.21 248.69,166.26 248.98,164.03 249.27,162.91 249.56,156.75 249.84,152.09 250.12,159.93 250.40,152.09 250.69,158.78 250.96,148.24 251.24,146.55 251.51,139.87 251.78,142.89 252.07,155.43 252.34,149.45 252.62,151.34 252.90,148.77 253.18,149.68 253.46,146.55 253.73,147.93 254.01,144.45 254.29,155.50 254.57,148.24 254.85,152.09 255.13,153.58 255.40,143.59 255.68,145.08 255.96,157.47 256.24,150.36 256.52,151.42 256.79,147.32 257.08,153.51 257.36,152.99 257.63,149.61 257.91,141.23 258.19,152.76 258.47,154.62 258.74,143.83 259.02,153.43 259.30,148.31 259.58,150.06 259.85,147.09 260.13,144.76 260.40,145.70 260.68,142.10 260.95,149.15 261.24,157.11 261.52,157.91 261.80,151.87 262.09,155.94 262.37,159.21 262.64,139.79 262.92,149.07 263.18,125.00 263.46,146.16 263.72,136.73 264.00,146.86 264.28,150.67 264.56,151.79 264.84,151.57 265.11,145.31 265.39,148.69 265.66,143.75 265.95,156.09 266.22,146.78 266.50,147.32 266.78,152.09 267.07,158.70 267.34,148.08 267.62,149.23 267.90,149.38 268.17,143.51 268.45,149.76 268.72,141.54 268.99,141.70 269.26,136.16 269.53,139.47 269.81,149.99 270.09,151.34 270.37,148.69 270.65,157.62 270.94,160.43 271.22,158.49 271.51,154.99 271.79,152.76 272.07,151.19 272.34,147.55 272.62,148.08 272.90,150.36 273.19,163.33 273.47,149.99 273.75,153.29 274.02,149.91 274.31,157.18 274.58,145.62 274.86,151.04 275.14,152.76 275.43,154.62 275.71,160.21 275.99,154.47 276.28,160.21 276.56,151.49 276.84,156.82 277.12,148.39 277.41,161.28 277.69,155.72 277.97,151.34 278.25,154.40 278.52,141.94 278.80,140.67 279.07,141.23 279.34,143.67 279.62,147.32 279.90,157.62 280.18,147.09 280.47,161.14 280.74,140.35 281.02,159.57 281.30,152.91 281.59,159.64 281.87,149.68 282.15,150.82 282.43,157.91 282.71,155.13 283.00,162.91 283.28,147.93 283.56,155.21 283.84,150.89 284.11,145.08 284.39,146.39 284.67,157.33 284.95,153.06 285.25,164.94 285.52,148.39 285.81,160.43 286.09,151.49 286.37,155.65 286.65,148.47 286.93,157.33 287.22,158.42 287.50,151.49 287.78,161.85 288.07,155.36 288.36,162.49 288.63,142.97 288.91,154.03 289.18,144.92 289.47,161.14 289.75,148.16 290.04,161.99 290.32,157.91 290.61,160.36 290.89,156.38 291.17,153.73 291.45,155.28 291.74,162.56 292.03,161.64 292.32,164.87 292.61,169.82 292.90,163.26 293.20,170.29 293.48,157.18 293.78,171.10 294.07,166.67 294.37,173.24 294.67,177.82 294.96,166.67 295.25,167.91 295.54,167.09 295.85,180.45 296.14,166.95 296.44,177.30 296.74,172.57 297.04,179.62 297.34,175.94 297.64,180.26 297.94,171.37 298.24,174.49 298.53,165.64 298.82,165.84 299.11,169.27 565.12,354.53 565.75,353.95 566.38,354.45 567.00,351.54 567.63,353.20 568.26,356.12 568.88,352.45 569.51,353.31 570.14,354.64 570.77,354.42 571.41,357.31 572.04,352.71 572.68,357.01 573.32,357.51 573.97,360.18 574.63,361.27 575.29,362.16 575.95,361.89 576.63,364.84 577.28,360.67 577.95,363.37 578.62,364.10 579.30,367.24 580.00,369.49 580.69,369.51 581.41,373.46 582.12,373.20 582.83,373.21 583.57,377.15 584.31,378.33 585.04,376.71 585.78,378.96 586.53,380.65 587.27,378.71 588.02,379.61 588.78,381.39 589.53,380.47 590.28,381.21 591.04,381.05 591.78,379.12 592.52,378.56 593.26,377.62 594.00,377.90 594.74,380.03 595.49,379.09 596.24,381.27 597.00,381.39 597.75,379.99 598.52,383.75 599.26,379.59 600.02,380.62 600.77,380.29 601.52,381.28 602.25,375.57 602.98,377.93 603.74,381.96 604.50,381.35 605.26,382.50 606.04,384.46 606.77,378.03 607.51,377.64 608.28,383.50 609.04,383.08 609.82,384.30 610.61,388.15 611.40,386.26 612.20,388.89 612.99,386.73 613.78,387.95 614.60,392.12 615.42,391.31 616.23,390.51 617.01,385.50 617.83,392.69 618.68,395.88 619.52,394.87 620.37,395.84 621.19,392.61 622.02,392.11 622.83,391.64 623.66,393.00 624.51,395.31 625.33,393.14 626.18,396.44 627.01,392.54 627.84,394.14 628.71,398.84 629.56,395.81 630.45,402.01 631.32,398.80 632.15,393.69 632.93,385.58 633.75,391.39 634.54,386.73 635.36,392.81 636.18,391.65 636.98,387.60 637.78,389.60 638.63,395.61 639.48,396.47 640.32,394.52 641.16,394.89 641.96,389.45 642.78,391.06 643.62,395.32 644.46,394.64 645.29,393.18 646.15,398.44 646.97,391.55 647.79,392.35 648.64,396.17 649.51,398.69 650.40,402.15 651.27,398.03 652.14,398.83 653.02,401.39 653.91,401.14 654.79,400.92 655.69,402.30 656.57,400.71 657.42,396.31 658.31,401.93 659.20,401.55 660.09,401.21 660.97,400.24 661.81,395.61 662.70,400.45 663.60,403.35 664.52,405.27 665.43,404.90 666.34,403.83 667.22,399.99 668.16,407.58 669.07,404.09 670.00,406.67 670.92,405.59 671.83,404.47 672.75,405.28 465.42,295.14 465.87,289.17 466.32,289.81 466.78,292.63 467.23,292.69 467.69,294.48 468.15,293.08 468.60,291.01 469.06,293.92 469.52,293.31 469.98,296.90 470.43,289.89 470.90,295.47 471.35,292.29 471.83,303.40 472.30,297.68 472.75,292.83 473.23,301.34 473.70,300.53 474.17,300.84 474.67,311.11 475.15,302.86 475.63,306.25 476.12,307.34 476.61,305.10 477.10,311.61 477.58,303.58 478.05,297.54 478.53,304.27 479.01,304.11 479.50,308.47 479.99,309.00 480.49,308.54 480.98,311.51 481.47,306.94 481.96,305.95 482.44,304.67 482.92,303.91 483.40,305.83 483.90,310.42 484.40,312.36 484.90,313.64 485.40,310.85 485.91,317.42 486.42,318.02 486.94,316.68 487.44,313.34 487.95,315.82 488.45,312.92 488.95,314.11 489.49,327.91 490.03,326.34 490.56,324.33 491.12,332.25 491.65,326.73 492.19,324.24 492.72,324.70 493.24,321.78 493.77,321.97 494.31,326.91 494.86,331.00 495.39,324.37 495.91,320.01 496.44,323.15 496.95,319.10 497.46,315.30 497.99,322.37 498.51,320.90 499.01,313.41 499.53,318.85 500.04,318.02 500.57,321.59 501.08,319.58 501.62,324.70 502.15,323.45 502.67,320.68 503.19,320.23 503.71,321.46 504.22,317.04 504.74,319.29 505.27,324.33 505.81,325.79 506.33,321.67 506.85,321.44 507.37,318.37 507.88,314.82 508.38,315.57 508.90,318.96 509.42,321.35 509.96,324.22 510.47,318.08 511.01,326.75 511.54,325.26 512.07,324.51 512.60,320.88 513.11,318.41 513.64,322.94 514.18,328.39 514.71,322.99 515.24,324.86 515.80,332.10 516.34,329.42 516.88,325.91 517.41,326.40 517.93,319.18 518.47,327.31 519.03,333.41 519.58,329.85 520.12,328.97 520.67,330.71 521.21,327.43 521.77,332.60 522.31,329.13 522.86,329.56 523.40,329.60 523.95,329.91 524.51,333.75 525.06,331.74 525.60,325.65 526.16,334.16 526.72,335.07 527.26,326.95 527.79,324.33 528.36,335.65 528.92,335.28 529.49,339.29 530.06,334.57 530.62,334.20 531.20,340.93 531.78,340.03 532.35,336.93 532.90,332.41 533.48,341.00 534.07,343.04 534.64,337.63 535.22,340.48 535.79,336.51 536.36,336.65 536.95,342.87 537.52,339.87 538.09,336.11 538.67,340.74 539.24,337.88 539.82,339.61 540.41,342.82 541.00,345.21 541.58,339.66 542.16,341.26 542.73,335.76 543.31,340.93 543.93,350.60 544.52,344.35 545.11,343.90 545.70,343.92 546.31,348.55 546.88,337.52 547.44,334.70 548.02,340.90 548.63,346.67 549.22,344.68 549.83,348.51 550.43,346.23 551.01,341.54 551.61,344.98 552.19,342.04 552.77,339.90 553.39,351.43 553.99,344.98 554.59,346.73 555.20,348.91 555.81,349.76 556.41,347.92 557.01,346.33 557.64,352.62 558.23,343.95 558.86,355.25 559.51,358.95 560.14,354.84 560.76,351.46 561.40,356.18 562.02,352.80 562.63,348.93 563.25,351.71 563.88,354.23 674.62,405.67 675.61,413.25 676.46,395.76 677.40,408.20 678.36,410.25 679.33,410.12 680.29,410.89 681.24,408.14 682.16,405.86 683.14,412.03 684.14,414.40 685.11,410.94 686.09,412.05 687.05,409.86 688.04,413.72 689.04,414.31 690.06,415.53 691.09,417.22 692.07,412.86 693.12,419.04 694.16,418.16 695.25,422.32 696.29,418.07 697.31,416.94 698.40,422.48 699.47,421.22 700.57,423.05 701.60,417.76 702.69,422.56 703.80,424.32 704.89,422.56 705.99,423.45 707.08,422.52 708.21,425.90 709.32,424.25 710.42,423.93 711.57,427.04 712.69,425.42 713.84,427.47 715.00,428.74 716.15,427.05 717.27,425.81 718.42,427.37 719.57,427.41 720.76,430.49 721.91,427.69 723.07,427.84 724.23,428.84 725.44,431.76 726.59,427.51 727.77,429.97 728.98,432.08 730.20,432.61 731.38,429.78 732.56,429.44 733.78,432.44 735.00,433.15 736.22,432.73 737.44,432.05 850.00,475.00 739.93,434.96 741.19,435.06 742.44,434.36 743.74,437.98 745.06,438.86 746.36,437.81 747.71,440.79 749.06,440.45 750.44,442.62 751.78,439.91 753.15,441.90 754.54,442.66 755.90,441.31 757.23,439.70 758.66,444.82 760.10,445.42 761.50,443.38 762.97,446.82 764.41,445.60 765.87,446.09 767.32,446.20 768.80,447.02 770.30,448.15 771.82,449.15 773.36,450.22 774.91,450.45 776.42,448.83 778.05,453.37 779.64,452.02 781.28,454.04 782.92,454.26 784.57,454.18 786.22,454.51 787.90,455.55 789.60,456.13 791.31,456.65 793.04,457.23 794.77,457.46 796.53,458.17 798.31,458.92 800.14,460.37 801.88,457.73 803.69,459.91 805.59,462.54 807.45,461.47 809.32,461.55 811.27,463.99 813.22,463.96 815.18,464.07 817.14,464.26 819.18,466.26 821.14,463.97 823.20,466.69 825.27,467.03 827.40,468.35 829.56,468.95 831.66,467.70 833.77,467.89 835.89,468.02 838.09,469.92 840.43,472.58 842.75,472.25 845.13,473.44" stroke-dasharray="3.6 3.6" stroke-width="3.6" stroke="#aaa" />
<g>
<circle cx="150.00" cy="162.56" r="1.6666666666666667" />
<circle cx="150.29" cy="158.99" r="1.6666666666666667" />
<circle cx="150.57" cy="152.69" r="1.6666666666666667" />
<circle cx="150.85" cy="158.85" r="1.6666666666666667" />
<circle cx="151.12" cy="141.31" r="1.6666666666666667" />
<circle cx="151.39" cy="138.03" r="1.6666666666666667" />
<circle cx="151.67" cy="150.36" r="1.6666666666666667" />
<circle cx="151.95" cy="151.04" r="1.6666666666666667" />
<circle cx="152.24" cy="158.27" r="1.6666666666666667" />
<circle cx="152.53" cy="172.37" r="1.6666666666666667" />
<circle cx="152.82" cy="166.88" r="1.6666666666666667" />
<circle cx="153.10" cy="146.86" r="1.6666666666666667" />
<circle cx="153.37" cy="145.46" r="1.6666666666666667" />
<circle cx="153.66" cy="156.16" r="1.6666666666666667" />
<circle cx="153.95" cy="163.40" r="1.6666666666666667" />
<circle cx="154.24" cy="162.56" r="1.6666666666666667" />
<circle cx="154.55" cy="190.33" r="1.6666666666666667" />
<circle cx="154.85" cy="182.85" r="1.6666666666666667" />
<circle cx="155.16" cy="179.17" r="1.6666666666666667" />
<circle cx="155.45" cy="171.10" r="1.6666666666666667" />
<circle cx="155.74" cy="163.82" r="1.6666666666666667" />
<circle cx="156.02" cy="152.17" r="1.6666666666666667" />
<circle cx="156.30" cy="153.66" r="1.6666666666666667" />
<circle cx="156.58" cy="146.39" r="1.6666666666666667" />
<circle cx="156.86" cy="151.34" r="1.6666666666666667" />
<circle cx="157.14" cy="160.64" r="1.6666666666666667" />
<circle cx="157.44" cy="172.44" r="1.6666666666666667" />
<circle cx="157.73" cy="168.87" r="1.6666666666666667" />
<circle cx="158.03" cy="170.36" r="1.6666666666666667" />
<circle cx="158.31" cy="152.54" r="1.6666666666666667" />
<circle cx="158.60" cy="162.98" r="1.6666666666666667" />
<circle cx="158.88" cy="154.84" r="1.6666666666666667" />
<circle cx="159.17" cy="164.45" r="1.6666666666666667" />
<circle cx="159.47" cy="177.69" r="1.6666666666666667" />
<circle cx="159.79" cy="192.47" r="1.6666666666666667" />
<circle cx="160.10" cy="195.23" r="1.6666666666666667" />
<circle cx="160.42" cy="190.75" r="1.6666666666666667" />
<circle cx="160.72" cy="176.85" r="1.6666666666666667" />
<circle cx="161.01" cy="164.59" r="1.6666666666666667" />
<circle cx="161.29" cy="150.44" r="1.6666666666666667" />
<circle cx="161.56" cy="149.99" r="1.6666666666666667" />
<circle cx="161.86" cy="169.95" r="1.6666666666666667" />
<circle cx="162.16" cy="179.49" r="1.6666666666666667" />
<circle cx="162.47" cy="187.98" r="1.6666666666666667" />
<circle cx="162.78" cy="182.16" r="1.6666666666666667" />
<circle cx="163.07" cy="169.14" r="1.6666666666666667" />
<circle cx="163.36" cy="163.96" r="1.6666666666666667" />
<circle cx="163.66" cy="174.36" r="1.6666666666666667" />
<circle cx="163.95" cy="170.09" r="1.6666666666666667" />
<circle cx="164.27" cy="194.36" r="1.6666666666666667" />
<circle cx="164.58" cy="182.98" r="1.6666666666666667" />
<circle cx="164.89" cy="189.49" r="1.6666666666666667" />
<circle cx="165.20" cy="189.43" r="1.6666666666666667" />
<circle cx="165.51" cy="187.98" r="1.6666666666666667" />
<circle cx="165.81" cy="180.26" r="1.6666666666666667" />
<circle cx="166.11" cy="168.80" r="1.6666666666666667" />
<circle cx="166.39" cy="161.00" r="1.6666666666666667" />
<circle cx="166.68" cy="162.28" r="1.6666666666666667" />
<circle cx="166.97" cy="155.87" r="1.6666666666666667" />
<circle cx="167.24" cy="150.67" r="1.6666666666666667" />
<circle cx="167.53" cy="157.69" r="1.6666666666666667" />
<circle cx="167.83" cy="172.50" r="1.6666666666666667" />
<circle cx="168.10" cy="147.01" r="1.6666666666666667" />
<circle cx="168.38" cy="149.30" r="1.6666666666666667" />
<circle cx="168.66" cy="146.55" r="1.6666666666666667" />
<circle cx="168.94" cy="157.11" r="1.6666666666666667" />
<circle cx="169.23" cy="163.47" r="1.6666666666666667" />
<circle cx="169.53" cy="177.95" r="1.6666666666666667" />
<circle cx="169.84" cy="189.25" r="1.6666666666666667" />
<circle cx="170.15" cy="181.02" r="1.6666666666666667" />
<circle cx="170.43" cy="155.21" r="1.6666666666666667" />
<circle cx="170.73" cy="175.87" r="1.6666666666666667" />
<circle cx="171.01" cy="158.20" r="1.6666666666666667" />
<circle cx="171.30" cy="156.67" r="1.6666666666666667" />
<circle cx="171.58" cy="154.84" r="1.6666666666666667" />
<circle cx="171.88" cy="174.10" r="1.6666666666666667" />
<circle cx="172.18" cy="178.92" r="1.6666666666666667" />
<circle cx="172.48" cy="173.97" r="1.6666666666666667" />
<circle cx="172.78" cy="176.65" r="1.6666666666666667" />
<circle cx="173.07" cy="165.50" r="1.6666666666666667" />
<circle cx="173.36" cy="163.12" r="1.6666666666666667" />
<circle cx="173.64" cy="163.54" r="1.6666666666666667" />
<circle cx="173.93" cy="165.01" r="1.6666666666666667" />
<circle cx="174.23" cy="168.05" r="1.6666666666666667" />
<circle cx="174.54" cy="194.65" r="1.6666666666666667" />
<circle cx="174.86" cy="196.91" r="1.6666666666666667" />
<circle cx="175.18" cy="194.59" r="1.6666666666666667" />
<circle cx="175.49" cy="187.79" r="1.6666666666666667" />
<circle cx="175.80" cy="183.98" r="1.6666666666666667" />
<circle cx="176.10" cy="179.81" r="1.6666666666666667" />
<circle cx="176.40" cy="179.24" r="1.6666666666666667" />
<circle cx="176.70" cy="176.78" r="1.6666666666666667" />
<circle cx="177.02" cy="189.37" r="1.6666666666666667" />
<circle cx="177.33" cy="190.03" r="1.6666666666666667" />
<circle cx="177.65" cy="194.06" r="1.6666666666666667" />
<circle cx="177.95" cy="176.59" r="1.6666666666666667" />
<circle cx="178.25" cy="181.47" r="1.6666666666666667" />
<circle cx="178.54" cy="168.05" r="1.6666666666666667" />
<circle cx="178.84" cy="176.13" r="1.6666666666666667" />
<circle cx="179.15" cy="179.17" r="1.6666666666666667" />
<circle cx="179.46" cy="196.27" r="1.6666666666666667" />
<circle cx="179.80" cy="208.76" r="1.6666666666666667" />
<circle cx="180.12" cy="203.39" r="1.6666666666666667" />
<circle cx="180.44" cy="199.93" r="1.6666666666666667" />
<circle cx="180.75" cy="180.51" r="1.6666666666666667" />
<circle cx="181.06" cy="189.01" r="1.6666666666666667" />
<circle cx="181.36" cy="180.39" r="1.6666666666666667" />
<circle cx="181.66" cy="176.59" r="1.6666666666666667" />
<circle cx="181.97" cy="184.85" r="1.6666666666666667" />
<circle cx="182.28" cy="190.75" r="1.6666666666666667" />
<circle cx="182.59" cy="185.22" r="1.6666666666666667" />
<circle cx="182.89" cy="172.17" r="1.6666666666666667" />
<circle cx="183.18" cy="164.17" r="1.6666666666666667" />
<circle cx="183.47" cy="167.50" r="1.6666666666666667" />
<circle cx="183.76" cy="169.34" r="1.6666666666666667" />
<circle cx="184.06" cy="167.77" r="1.6666666666666667" />
<circle cx="184.36" cy="179.62" r="1.6666666666666667" />
<circle cx="184.67" cy="191.23" r="1.6666666666666667" />
<circle cx="184.99" cy="192.59" r="1.6666666666666667" />
<circle cx="185.29" cy="179.24" r="1.6666666666666667" />
<circle cx="185.59" cy="175.74" r="1.6666666666666667" />
<circle cx="185.88" cy="158.78" r="1.6666666666666667" />
<circle cx="186.16" cy="163.75" r="1.6666666666666667" />
<circle cx="186.46" cy="167.36" r="1.6666666666666667" />
<circle cx="186.76" cy="175.41" r="1.6666666666666667" />
<circle cx="187.06" cy="177.50" r="1.6666666666666667" />
<circle cx="187.36" cy="178.02" r="1.6666666666666667" />
<circle cx="187.65" cy="167.50" r="1.6666666666666667" />
<circle cx="187.95" cy="179.94" r="1.6666666666666667" />
<circle cx="188.26" cy="181.91" r="1.6666666666666667" />
<circle cx="188.56" cy="174.03" r="1.6666666666666667" />
<circle cx="188.86" cy="183.48" r="1.6666666666666667" />
<circle cx="189.16" cy="176.13" r="1.6666666666666667" />
<circle cx="189.46" cy="173.44" r="1.6666666666666667" />
<circle cx="189.76" cy="178.08" r="1.6666666666666667" />
<circle cx="190.05" cy="166.12" r="1.6666666666666667" />
<circle cx="190.35" cy="175.94" r="1.6666666666666667" />
<circle cx="190.66" cy="180.96" r="1.6666666666666667" />
<circle cx="190.98" cy="201.28" r="1.6666666666666667" />
<circle cx="191.30" cy="194.53" r="1.6666666666666667" />
<circle cx="191.61" cy="192.53" r="1.6666666666666667" />
<circle cx="191.94" cy="206.40" r="1.6666666666666667" />
<circle cx="192.26" cy="198.57" r="1.6666666666666667" />
<circle cx="192.58" cy="196.04" r="1.6666666666666667" />
<circle cx="192.90" cy="196.62" r="1.6666666666666667" />
<circle cx="193.21" cy="183.29" r="1.6666666666666667" />
<circle cx="193.51" cy="178.66" r="1.6666666666666667" />
<circle cx="193.82" cy="189.19" r="1.6666666666666667" />
<circle cx="194.14" cy="200.72" r="1.6666666666666667" />
<circle cx="194.46" cy="193.83" r="1.6666666666666667" />
<circle cx="194.77" cy="187.12" r="1.6666666666666667" />
<circle cx="195.07" cy="177.17" r="1.6666666666666667" />
<circle cx="195.36" cy="169.61" r="1.6666666666666667" />
<circle cx="195.67" cy="182.73" r="1.6666666666666667" />
<circle cx="195.98" cy="188.22" r="1.6666666666666667" />
<circle cx="196.30" cy="195.41" r="1.6666666666666667" />
<circle cx="196.62" cy="197.54" r="1.6666666666666667" />
<circle cx="196.94" cy="197.43" r="1.6666666666666667" />
<circle cx="197.27" cy="210.83" r="1.6666666666666667" />
<circle cx="197.60" cy="207.85" r="1.6666666666666667" />
<circle cx="197.93" cy="205.75" r="1.6666666666666667" />
<circle cx="198.25" cy="193.18" r="1.6666666666666667" />
<circle cx="198.56" cy="194.12" r="1.6666666666666667" />
<circle cx="198.88" cy="194.77" r="1.6666666666666667" />
<circle cx="199.20" cy="200.94" r="1.6666666666666667" />
<circle cx="199.51" cy="184.78" r="1.6666666666666667" />
<circle cx="199.82" cy="186.69" r="1.6666666666666667" />
<circle cx="200.11" cy="162.42" r="1.6666666666666667" />
<circle cx="200.41" cy="183.04" r="1.6666666666666667" />
<circle cx="200.74" cy="202.84" r="1.6666666666666667" />
<circle cx="201.06" cy="197.83" r="1.6666666666666667" />
<circle cx="201.37" cy="192.12" r="1.6666666666666667" />
<circle cx="201.70" cy="197.83" r="1.6666666666666667" />
<circle cx="202.02" cy="206.07" r="1.6666666666666667" />
<circle cx="202.35" cy="205.48" r="1.6666666666666667" />
<circle cx="202.69" cy="216.46" r="1.6666666666666667" />
<circle cx="203.01" cy="193.36" r="1.6666666666666667" />
<circle cx="203.32" cy="186.51" r="1.6666666666666667" />
<circle cx="203.63" cy="188.83" r="1.6666666666666667" />
<circle cx="203.95" cy="194.47" r="1.6666666666666667" />
<circle cx="204.28" cy="207.75" r="1.6666666666666667" />
<circle cx="204.60" cy="205.58" r="1.6666666666666667" />
<circle cx="204.91" cy="187.43" r="1.6666666666666667" />
<circle cx="205.22" cy="178.98" r="1.6666666666666667" />
<circle cx="205.54" cy="199.87" r="1.6666666666666667" />
<circle cx="205.86" cy="195.70" r="1.6666666666666667" />
<circle cx="206.16" cy="181.72" r="1.6666666666666667" />
<circle cx="206.49" cy="210.25" r="1.6666666666666667" />
<circle cx="206.82" cy="204.05" r="1.6666666666666667" />
<circle cx="207.15" cy="209.99" r="1.6666666666666667" />
<circle cx="207.49" cy="208.98" r="1.6666666666666667" />
<circle cx="207.82" cy="206.29" r="1.6666666666666667" />
<circle cx="208.13" cy="196.62" r="1.6666666666666667" />
<circle cx="208.46" cy="204.11" r="1.6666666666666667" />
<circle cx="208.80" cy="212.51" r="1.6666666666666667" />
<circle cx="209.12" cy="205.75" r="1.6666666666666667" />
<circle cx="209.44" cy="188.89" r="1.6666666666666667" />
<circle cx="209.75" cy="195.99" r="1.6666666666666667" />
<circle cx="210.07" cy="193.77" r="1.6666666666666667" />
<circle cx="210.40" cy="207.91" r="1.6666666666666667" />
<circle cx="210.72" cy="198.51" r="1.6666666666666667" />
<circle cx="211.04" cy="195.41" r="1.6666666666666667" />
<circle cx="211.37" cy="206.13" r="1.6666666666666667" />
<circle cx="211.71" cy="212.71" r="1.6666666666666667" />
<circle cx="212.05" cy="218.63" r="1.6666666666666667" />
<circle cx="212.40" cy="224.27" r="1.6666666666666667" />
<circle cx="212.73" cy="212.04" r="1.6666666666666667" />
<circle cx="213.06" cy="208.44" r="1.6666666666666667" />
<circle cx="213.39" cy="201.73" r="1.6666666666666667" />
<circle cx="213.71" cy="204.71" r="1.6666666666666667" />
<circle cx="214.05" cy="211.20" r="1.6666666666666667" />
<circle cx="214.37" cy="201.56" r="1.6666666666666667" />
<circle cx="214.69" cy="193.42" r="1.6666666666666667" />
<circle cx="215.01" cy="199.99" r="1.6666666666666667" />
<circle cx="215.33" cy="197.14" r="1.6666666666666667" />
<circle cx="215.67" cy="211.93" r="1.6666666666666667" />
<circle cx="215.98" cy="188.40" r="1.6666666666666667" />
<circle cx="216.31" cy="205.64" r="1.6666666666666667" />
<circle cx="216.63" cy="202.62" r="1.6666666666666667" />
<circle cx="216.98" cy="227.03" r="1.6666666666666667" />
<circle cx="217.33" cy="226.22" r="1.6666666666666667" />
<circle cx="217.67" cy="213.44" r="1.6666666666666667" />
<circle cx="218.00" cy="209.46" r="1.6666666666666667" />
<circle cx="218.34" cy="209.93" r="1.6666666666666667" />
<circle cx="218.68" cy="218.53" r="1.6666666666666667" />
<circle cx="219.02" cy="220.91" r="1.6666666666666667" />
<circle cx="219.36" cy="210.78" r="1.6666666666666667" />
<circle cx="219.68" cy="201.00" r="1.6666666666666667" />
<circle cx="220.01" cy="210.36" r="1.6666666666666667" />
<circle cx="220.36" cy="221.60" r="1.6666666666666667" />
<circle cx="220.69" cy="206.29" r="1.6666666666666667" />
<circle cx="221.01" cy="202.73" r="1.6666666666666667" />
<circle cx="221.34" cy="200.44" r="1.6666666666666667" />
<circle cx="221.67" cy="207.59" r="1.6666666666666667" />
<circle cx="222.01" cy="213.96" r="1.6666666666666667" />
<circle cx="222.34" cy="212.35" r="1.6666666666666667" />
<circle cx="222.67" cy="204.27" r="1.6666666666666667" />
<circle cx="222.99" cy="204.33" r="1.6666666666666667" />
<circle cx="223.32" cy="198.45" r="1.6666666666666667" />
<circle cx="223.64" cy="203.78" r="1.6666666666666667" />
<circle cx="223.97" cy="204.49" r="1.6666666666666667" />
<circle cx="224.30" cy="208.66" r="1.6666666666666667" />
<circle cx="224.63" cy="206.02" r="1.6666666666666667" />
<circle cx="224.96" cy="205.80" r="1.6666666666666667" />
<circle cx="225.28" cy="202.84" r="1.6666666666666667" />
<circle cx="225.61" cy="205.86" r="1.6666666666666667" />
<circle cx="225.94" cy="202.84" r="1.6666666666666667" />
<circle cx="226.59" cy="210.62" r="1.6666666666666667" />
<circle cx="226.93" cy="214.47" r="1.6666666666666667" />
<circle cx="227.28" cy="222.43" r="1.6666666666666667" />
<circle cx="227.62" cy="214.47" r="1.6666666666666667" />
<circle cx="227.94" cy="197.20" r="1.6666666666666667" />
<circle cx="228.25" cy="187.79" r="1.6666666666666667" />
<circle cx="228.56" cy="192.59" r="1.6666666666666667" />
<circle cx="228.88" cy="199.25" r="1.6666666666666667" />
<circle cx="229.21" cy="201.17" r="1.6666666666666667" />
<circle cx="229.53" cy="204.16" r="1.6666666666666667" />
<circle cx="229.85" cy="196.79" r="1.6666666666666667" />
<circle cx="230.16" cy="182.60" r="1.6666666666666667" />
<circle cx="230.47" cy="184.16" r="1.6666666666666667" />
<circle cx="230.76" cy="173.57" r="1.6666666666666667" />
<circle cx="231.06" cy="176.20" r="1.6666666666666667" />
<circle cx="231.36" cy="176.85" r="1.6666666666666667" />
<circle cx="231.67" cy="188.16" r="1.6666666666666667" />
<circle cx="231.99" cy="189.25" r="1.6666666666666667" />
<circle cx="232.30" cy="186.57" r="1.6666666666666667" />
<circle cx="232.61" cy="189.67" r="1.6666666666666667" />
<circle cx="232.91" cy="178.66" r="1.6666666666666667" />
<circle cx="233.21" cy="181.47" r="1.6666666666666667" />
<circle cx="233.52" cy="183.60" r="1.6666666666666667" />
<circle cx="233.83" cy="183.41" r="1.6666666666666667" />
<circle cx="234.15" cy="196.62" r="1.6666666666666667" />
<circle cx="234.47" cy="204.00" r="1.6666666666666667" />
<circle cx="234.80" cy="203.50" r="1.6666666666666667" />
<circle cx="235.11" cy="190.69" r="1.6666666666666667" />
<circle cx="235.43" cy="195.93" r="1.6666666666666667" />
<circle cx="235.74" cy="191.76" r="1.6666666666666667" />
<circle cx="236.05" cy="179.49" r="1.6666666666666667" />
<circle cx="236.36" cy="189.43" r="1.6666666666666667" />
<circle cx="236.68" cy="196.56" r="1.6666666666666667" />
<circle cx="237.00" cy="195.52" r="1.6666666666666667" />
<circle cx="237.31" cy="193.65" r="1.6666666666666667" />
<circle cx="237.63" cy="190.81" r="1.6666666666666667" />
<circle cx="237.93" cy="185.71" r="1.6666666666666667" />
<circle cx="238.24" cy="181.21" r="1.6666666666666667" />
<circle cx="238.54" cy="181.97" r="1.6666666666666667" />
<circle cx="238.87" cy="201.61" r="1.6666666666666667" />
<circle cx="239.18" cy="189.91" r="1.6666666666666667" />
<circle cx="239.49" cy="192.65" r="1.6666666666666667" />
<circle cx="239.81" cy="195.99" r="1.6666666666666667" />
<circle cx="240.14" cy="200.72" r="1.6666666666666667" />
<circle cx="240.44" cy="185.90" r="1.6666666666666667" />
<circle cx="240.75" cy="186.33" r="1.6666666666666667" />
<circle cx="241.06" cy="180.96" r="1.6666666666666667" />
<circle cx="241.36" cy="178.53" r="1.6666666666666667" />
<circle cx="241.66" cy="178.79" r="1.6666666666666667" />
<circle cx="241.97" cy="185.90" r="1.6666666666666667" />
<circle cx="242.27" cy="177.95" r="1.6666666666666667" />
<circle cx="242.57" cy="172.70" r="1.6666666666666667" />
<circle cx="242.86" cy="162.84" r="1.6666666666666667" />
<circle cx="243.14" cy="155.50" r="1.6666666666666667" />
<circle cx="243.43" cy="162.06" r="1.6666666666666667" />
<circle cx="243.73" cy="177.17" r="1.6666666666666667" />
<circle cx="244.04" cy="184.10" r="1.6666666666666667" />
<circle cx="244.35" cy="187.49" r="1.6666666666666667" />
<circle cx="244.65" cy="181.78" r="1.6666666666666667" />
<circle cx="244.95" cy="173.37" r="1.6666666666666667" />
<circle cx="245.24" cy="161.85" r="1.6666666666666667" />
<circle cx="245.52" cy="162.28" r="1.6666666666666667" />
<circle cx="245.81" cy="157.98" r="1.6666666666666667" />
<circle cx="246.10" cy="162.63" r="1.6666666666666667" />
<circle cx="246.37" cy="148.31" r="1.6666666666666667" />
<circle cx="246.67" cy="167.84" r="1.6666666666666667" />
<circle cx="246.97" cy="176.07" r="1.6666666666666667" />
<circle cx="247.26" cy="165.91" r="1.6666666666666667" />
<circle cx="247.54" cy="160.28" r="1.6666666666666667" />
<circle cx="247.83" cy="164.66" r="1.6666666666666667" />
<circle cx="248.12" cy="155.28" r="1.6666666666666667" />
<circle cx="248.40" cy="160.21" r="1.6666666666666667" />
<circle cx="248.69" cy="166.26" r="1.6666666666666667" />
<circle cx="248.98" cy="164.03" r="1.6666666666666667" />
<circle cx="249.27" cy="162.91" r="1.6666666666666667" />
<circle cx="249.56" cy="156.75" r="1.6666666666666667" />
<circle cx="249.84" cy="152.09" r="1.6666666666666667" />
<circle cx="250.12" cy="159.93" r="1.6666666666666667" />
<circle cx="250.40" cy="152.09" r="1.6666666666666667" />
<circle cx="250.69" cy="158.78" r="1.6666666666666667" />
<circle cx="250.96" cy="148.24" r="1.6666666666666667" />
<circle cx="251.24" cy="146.55" r="1.6666666666666667" />
<circle cx="251.51" cy="139.87" r="1.6666666666666667" />
<circle cx="251.78" cy="142.89" r="1.6666666666666667" />
<circle cx="252.07" cy="155.43" r="1.6666666666666667" />
<circle cx="252.34" cy="149.45" r="1.6666666666666667" />
<circle cx="252.62" cy="151.34" r="1.6666666666666667" />
<circle cx="252.90" cy="148.77" r="1.6666666666666667" />
<circle cx="253.18" cy="149.68" r="1.6666666666666667" />
<circle cx="253.46" cy="146.55" r="1.6666666666666667" />
<circle cx="253.73" cy="147.93" r="1.6666666666666667" />
<circle cx="254.01" cy="144.45" r="1.6666666666666667" />
<circle cx="254.29" cy="155.50" r="1.6666666666666667" />
<circle cx="254.57" cy="148.24" r="1.6666666666666667" />
<circle cx="254.85" cy="152.09" r="1.6666666666666667" />
<circle cx="255.13" cy="153.58" r="1.6666666666666667" />
<circle cx="255.40" cy="143.59" r="1.6666666666666667" />
<circle cx="255.68" cy="145.08" r="1.6666666666666667" />
<circle cx="255.96" cy="157.47" r="1.6666666666666667" />
<circle cx="256.24" cy="150.36" r="1.6666666666666667" />
<circle cx="256.52" cy="151.42" r="1.6666666666666667" />
<circle cx="256.79" cy="147.32" r="1.6666666666666667" />
<circle cx="257.08" cy="153.51" r="1.6666666666666667" />
<circle cx="257.36" cy="152.99" r="1.6666666666666667" />
<circle cx="257.63" cy="149.61" r="1.6666666666666667" />
<circle cx="257.91" cy="141.23" r="1.6666666666666667" />
<circle cx="258.19" cy="152.76" r="1.6666666666666667" />
<circle cx="258.47" cy="154.62" r="1.6666666666666667" />
<circle cx="258.74" cy="143.83" r="1.6666666666666667" />
<circle cx="259.02" cy="153.43" r="1.6666666666666667" />
<circle cx="259.30" cy="148.31" r="1.6666666666666667" />
<circle cx="259.58" cy="150.06" r="1.6666666666666667" />
<circle cx="259.85" cy="147.09" r="1.6666666666666667" />
<circle cx="260.13" cy="144.76" r="1.6666666666666667" />
<circle cx="260.40" cy="145.70" r="1.6666666666666667" />
<circle cx="260.68" cy="142.10" r="1.6666666666666667" />
<circle cx="260.95" cy="149.15" r="1.6666666666666667" />
<circle cx="261.24" cy="157.11" r="1.6666666666666667" />
<circle cx="261.52" cy="157.91" r="1.6666666666666667" />
<circle cx="261.80" cy="151.87" r="1.6666666666666667" />
<circle cx="262.09" cy="155.94" r="1.6666666666666667" />
<circle cx="262.37" cy="159.21" r="1.6666666666666667" />
<circle cx="262.64" cy="139.79" r="1.6666666666666667" />
<circle cx="262.92" cy="149.07" r="1.6666666666666667" />
<circle cx="263.18" cy="125.00" r="1.6666666666666667" />
<circle cx="263.46" cy="146.16" r="1.6666666666666667" />
<circle cx="263.72" cy="136.73" r="1.6666666666666667" />
<circle cx="264.00" cy="146.86" r="1.6666666666666667" />
<circle cx="264.28" cy="150.67" r="1.6666666666666667" />
<circle cx="264.56" cy="151.79" r="1.6666666666666667" />
<circle cx="264.84" cy="151.57" r="1.6666666666666667" />
<circle cx="265.11" cy="145.31" r="1.6666666666666667" />
<circle cx="265.39" cy="148.69" r="1.6666666666666667" />
<circle cx="265.66" cy="143.75" r="1.6666666666666667" />
<circle cx="265.95" cy="156.09" r="1.6666666666666667" />
<circle cx="266.22" cy="146.78" r="1.6666666666666667" />
<circle cx="266.50" cy="147.32" r="1.6666666666666667" />
<circle cx="266.78" cy="152.09" r="1.6666666666666667" />
<circle cx="267.07" cy="158.70" r="1.6666666666666667" />
<circle cx="267.34" cy="148.08" r="1.6666666666666667" />
<circle cx="267.62" cy="149.23" r="1.6666666666666667" />
<circle cx="267.90" cy="149.38" r="1.6666666666666667" />
<circle cx="268.17" cy="143.51" r="1.6666666666666667" />
<circle cx="268.45" cy="149.76" r="1.6666666666666667" />
<circle cx="268.72" cy="141.54" r="1.6666666666666667" />
<circle cx="268.99" cy="141.70" r="1.6666666666666667" />
<circle cx="269.26" cy="136.16" r="1.6666666666666667" />
<circle cx="269.53" cy="139.47" r="1.6666666666666667" />
<circle cx="269.81" cy="149.99" r="1.6666666666666667" />
<circle cx="270.09" cy="151.34" r="1.6666666666666667" />
<circle cx="270.37" cy="148.69" r="1.6666666666666667" />
<circle cx="270.65" cy="157.62" r="1.6666666666666667" />
<circle cx="270.94" cy="160.43" r="1.6666666666666667" />
<circle cx="271.22" cy="158.49" r="1.6666666666666667" />
<circle cx="271.51" cy="154.99" r="1.6666666666666667" />
<circle cx="271.79" cy="152.76" r="1.6666666666666667" />
<circle cx="272.07" cy="151.19" r="1.6666666666666667" />
<circle cx="272.34" cy="147.55" r="1.6666666666666667" />
<circle cx="272.62" cy="148.08" r="1.6666666666666667" />
<circle cx="272.90" cy="150.36" r="1.6666666666666667" />
<circle cx="273.19" cy="163.33" r="1.6666666666666667" />
<circle cx="273.47" cy="149.99" r="1.6666666666666667" />
<circle cx="273.75" cy="153.29" r="1.6666666666666667" />
<circle cx="274.02" cy="149.91" r="1.6666666666666667" />
<circle cx="274.31" cy="157.18" r="1.6666666666666667" />
<circle cx="274.58" cy="145.62" r="1.6666666666666667" />
<circle cx="274.86" cy="151.04" r="1.6666666666666667" />
<circle cx="275.14" cy="152.76" r="1.6666666666666667" />
<circle cx="275.43" cy="154.62" r="1.6666666666666667" />
<circle cx="275.71" cy="160.21" r="1.6666666666666667" />
<circle cx="275.99" cy="154.47" r="1.6666666666666667" />
<circle cx="276.28" cy="160.21" r="1.6666666666666667" />
<circle cx="276.56" cy="151.49" r="1.6666666666666667" />
<circle cx="276.84" cy="156.82" r="1.6666666666666667" />
<circle cx="277.12" cy="148.39" r="1.6666666666666667" />
<circle cx="277.41" cy="161.28" r="1.6666666666666667" />
<circle cx="277.69" cy="155.72" r="1.6666666666666667" />
<circle cx="277.97" cy="151.34" r="1.6666666666666667" />
<circle cx="278.25" cy="154.40" r="1.6666666666666667" />
<circle cx="278.52" cy="141.94" r="1.6666666666666667" />
<circle cx="278.80" cy="140.67" r="1.6666666666666667" />
<circle cx="279.07" cy="141.23" r="1.6666666666666667" />
<circle cx="279.34" cy="143.67" r="1.6666666666666667" />
<circle cx="279.62" cy="147.32" r="1.6666666666666667" />
<circle cx="279.90" cy="157.62" r="1.6666666666666667" />
<circle cx="280.18" cy="147.09" r="1.6666666666666667" />
<circle cx="280.47" cy="161.14" r="1.6666666666666667" />
<circle cx="280.74" cy="140.35" r="1.6666666666666667" />
<circle cx="281.02" cy="159.57" r="1.6666666666666667" />
<circle cx="281.30" cy="152.91" r="1.6666666666666667" />
<circle cx="281.59" cy="159.64" r="1.6666666666666667" />
<circle cx="281.87" cy="149.68" r="1.6666666666666667" />
<circle cx="282.15" cy="150.82" r="1.6666666666666667" />
<circle cx="282.43" cy="157.91" r="1.6666666666666667" />
<circle cx="282.71" cy="155.13" r="1.6666666666666667" />
<circle cx="283.00" cy="162.91" r="1.6666666666666667" />
<circle cx="283.28" cy="147.93" r="1.6666666666666667" />
<circle cx="283.56" cy="155.21" r="1.6666666666666667" />
<circle cx="283.84" cy="150.89" r="1.6666666666666667" />
<circle cx="284.11" cy="145.08" r="1.6666666666666667" />
<circle cx="284.39" cy="146.39" r="1.6666666666666667" />
<circle cx="284.67" cy="157.33" r="1.6666666666666667" />
<circle cx="284.95" cy="153.06" r="1.6666666666666667" />
<circle cx="285.25" cy="164.94" r="1.6666666666666667" />
<circle cx="285.52" cy="148.39" r="1.6666666666666667" />
<circle cx="285.81" cy="160.43" r="1.6666666666666667" />
<circle cx="286.09" cy="151.49" r="1.6666666666666667" />
<circle cx="286.37" cy="155.65" r="1.6666666666666667" />
<circle cx="286.65" cy="148.47" r="1.6666666666666667" />
<circle cx="286.93" cy="157.33" r="1.6666666666666667" />
<circle cx="287.22" cy="158.42" r="1.6666666666666667" />
<circle cx="287.50" cy="151.49" r="1.6666666666666667" />
<circle cx="287.78" cy="161.85" r="1.6666666666666667" />
<circle cx="288.07" cy="155.36" r="1.6666666666666667" />
<circle cx="288.36" cy="162.49" r="1.6666666666666667" />
<circle cx="288.63" cy="142.97" r="1.6666666666666667" />
<circle cx="288.91" cy="154.03" r="1.6666666666666667" />
<circle cx="289.18" cy="144.92" r="1.6666666666666667" />
<circle cx="289.47" cy="161.14" r="1.6666666666666667" />
<circle cx="289.75" cy="148.16" r="1.6666666666666667" />
<circle cx="290.04" cy="161.99" r="1.6666666666666667" />
<circle cx="290.32" cy="157.91" r="1.6666666666666667" />
<circle cx="290.61" cy="160.36" r="1.6666666666666667" />
<circle cx="290.89" cy="156.38" r="1.6666666666666667" />
<circle cx="291.17" cy="153.73" r="1.6666666666666667" />
<circle cx="291.45" cy="155.28" r="1.6666666666666667" />
<circle cx="291.74" cy="162.56" r="1.6666666666666667" />
<circle cx="292.03" cy="161.64" r="1.6666666666666667" />
<circle cx="292.32" cy="164.87" r="1.6666666666666667" />
<circle cx="292.61" cy="169.82" r="1.6666666666666667" />
<circle cx="292.90" cy="163.26" r="1.6666666666666667" />
<circle cx="293.20" cy="170.29" r="1.6666666666666667" />
<circle cx="293.48" cy="157.18" r="1.6666666666666667" />
<circle cx="293.78" cy="171.10" r="1.6666666666666667" />
<circle cx="294.07" cy="166.67" r="1.6666666666666667" />
<circle cx="294.37" cy="173.24" r="1.6666666666666667" />
<circle cx="294.67" cy="177.82" r="1.6666666666666667" />
<circle cx="294.96" cy="166.67" r="1.6666666666666667" />
<circle cx="295.25" cy="167.91" r="1.6666666666666667" />
<circle cx="295.54" cy="167.09" r="1.6666666666666667" />
<circle cx="295.85" cy="180.45" r="1.6666666666666667" />
<circle cx="296.14" cy="166.95" r="1.6666666666666667" />
<circle cx="296.44" cy="177.30" r="1.6666666666666667" />
<circle cx="296.74" cy="172.57" r="1.6666666666666667" />
<circle cx="297.04" cy="179.62" r="1.6666666666666667" />
<circle cx="297.34" cy="175.94" r="1.6666666666666667" />
<circle cx="297.64" cy="180.26" r="1.6666666666666667" />
<circle cx="297.94" cy="171.37" r="1.6666666666666667" />
<circle cx="298.24" cy="174.49" r="1.6666666666666667" />
<circle cx="298.53" cy="165.64" r="1.6666666666666667" />
<circle cx="298.82" cy="165.84" r="1.6666666666666667" />
<circle cx="299.11" cy="169.27" r="1.6666666666666667" />
<circle cx="359.21" cy="217.88" r="1.6666666666666667" />
<circle cx="359.55" cy="221.15" r="1.6666666666666667" />
<circle cx="359.89" cy="214.16" r="1.6666666666666667" />
<circle cx="360.24" cy="223.49" r="1.6666666666666667" />
<circle cx="360.57" cy="212.82" r="1.6666666666666667" />
<circle cx="360.92" cy="222.77" r="1.6666666666666667" />
<circle cx="361.26" cy="217.88" r="1.6666666666666667" />
<circle cx="361.61" cy="218.78" r="1.6666666666666667" />
<circle cx="361.96" cy="225.37" r="1.6666666666666667" />
<circle cx="362.31" cy="226.37" r="1.6666666666666667" />
<circle cx="362.66" cy="224.12" r="1.6666666666666667" />
<circle cx="363.00" cy="222.62" r="1.6666666666666667" />
<circle cx="363.35" cy="221.99" r="1.6666666666666667" />
<circle cx="363.69" cy="215.70" r="1.6666666666666667" />
<circle cx="364.04" cy="222.43" r="1.6666666666666667" />
<circle cx="364.38" cy="218.38" r="1.6666666666666667" />
<circle cx="364.73" cy="227.36" r="1.6666666666666667" />
<circle cx="365.08" cy="220.51" r="1.6666666666666667" />
<circle cx="365.43" cy="226.46" r="1.6666666666666667" />
<circle cx="365.78" cy="222.38" r="1.6666666666666667" />
<circle cx="366.13" cy="224.84" r="1.6666666666666667" />
<circle cx="366.48" cy="229.42" r="1.6666666666666667" />
<circle cx="366.83" cy="220.17" r="1.6666666666666667" />
<circle cx="367.18" cy="226.98" r="1.6666666666666667" />
<circle cx="367.52" cy="220.42" r="1.6666666666666667" />
<circle cx="367.87" cy="219.08" r="1.6666666666666667" />
<circle cx="368.21" cy="217.52" r="1.6666666666666667" />
<circle cx="368.56" cy="226.27" r="1.6666666666666667" />
<circle cx="368.90" cy="221.25" r="1.6666666666666667" />
<circle cx="369.26" cy="228.06" r="1.6666666666666667" />
<circle cx="369.61" cy="229.69" r="1.6666666666666667" />
<circle cx="369.97" cy="231.17" r="1.6666666666666667" />
<circle cx="370.32" cy="225.80" r="1.6666666666666667" />
<circle cx="370.67" cy="225.13" r="1.6666666666666667" />
<circle cx="371.03" cy="232.99" r="1.6666666666666667" />
<circle cx="371.39" cy="227.31" r="1.6666666666666667" />
<circle cx="371.75" cy="232.40" r="1.6666666666666667" />
<circle cx="372.10" cy="228.16" r="1.6666666666666667" />
<circle cx="372.46" cy="230.89" r="1.6666666666666667" />
<circle cx="372.81" cy="227.08" r="1.6666666666666667" />
<circle cx="373.15" cy="217.32" r="1.6666666666666667" />
<circle cx="373.51" cy="231.72" r="1.6666666666666667" />
<circle cx="373.85" cy="219.62" r="1.6666666666666667" />
<circle cx="374.21" cy="230.89" r="1.6666666666666667" />
<circle cx="374.56" cy="222.81" r="1.6666666666666667" />
<circle cx="374.92" cy="232.86" r="1.6666666666666667" />
<circle cx="375.28" cy="233.71" r="1.6666666666666667" />
<circle cx="375.64" cy="234.48" r="1.6666666666666667" />
<circle cx="375.99" cy="225.51" r="1.6666666666666667" />
<circle cx="376.34" cy="224.89" r="1.6666666666666667" />
<circle cx="376.70" cy="232.76" r="1.6666666666666667" />
<circle cx="377.05" cy="228.81" r="1.6666666666666667" />
<circle cx="377.42" cy="235.99" r="1.6666666666666667" />
<circle cx="377.77" cy="223.45" r="1.6666666666666667" />
<circle cx="378.12" cy="230.94" r="1.6666666666666667" />
<circle cx="378.47" cy="221.06" r="1.6666666666666667" />
<circle cx="378.82" cy="222.62" r="1.6666666666666667" />
<circle cx="379.16" cy="221.60" r="1.6666666666666667" />
<circle cx="379.51" cy="226.41" r="1.6666666666666667" />
<circle cx="379.87" cy="227.08" r="1.6666666666666667" />
<circle cx="380.23" cy="233.04" r="1.6666666666666667" />
<circle cx="380.58" cy="226.37" r="1.6666666666666667" />
<circle cx="380.92" cy="221.06" r="1.6666666666666667" />
<circle cx="381.28" cy="231.95" r="1.6666666666666667" />
<circle cx="381.64" cy="228.67" r="1.6666666666666667" />
<circle cx="382.00" cy="232.54" r="1.6666666666666667" />
<circle cx="382.35" cy="230.30" r="1.6666666666666667" />
<circle cx="382.71" cy="232.99" r="1.6666666666666667" />
<circle cx="383.06" cy="223.88" r="1.6666666666666667" />
<circle cx="383.42" cy="232.86" r="1.6666666666666667" />
<circle cx="383.79" cy="236.21" r="1.6666666666666667" />
<circle cx="384.14" cy="231.67" r="1.6666666666666667" />
<circle cx="384.51" cy="239.32" r="1.6666666666666667" />
<circle cx="384.88" cy="236.83" r="1.6666666666666667" />
<circle cx="385.25" cy="239.97" r="1.6666666666666667" />
<circle cx="385.61" cy="234.21" r="1.6666666666666667" />
<circle cx="385.98" cy="241.38" r="1.6666666666666667" />
<circle cx="386.34" cy="234.66" r="1.6666666666666667" />
<circle cx="386.71" cy="240.05" r="1.6666666666666667" />
<circle cx="387.08" cy="238.19" r="1.6666666666666667" />
<circle cx="387.44" cy="235.19" r="1.6666666666666667" />
<circle cx="387.81" cy="238.80" r="1.6666666666666667" />
<circle cx="388.16" cy="227.69" r="1.6666666666666667" />
<circle cx="388.52" cy="229.23" r="1.6666666666666667" />
<circle cx="388.89" cy="243.62" r="1.6666666666666667" />
<circle cx="389.26" cy="237.23" r="1.6666666666666667" />
<circle cx="389.63" cy="243.03" r="1.6666666666666667" />
<circle cx="390.00" cy="243.79" r="1.6666666666666667" />
<circle cx="390.37" cy="242.15" r="1.6666666666666667" />
<circle cx="390.75" cy="242.19" r="1.6666666666666667" />
<circle cx="391.11" cy="232.40" r="1.6666666666666667" />
<circle cx="391.48" cy="244.29" r="1.6666666666666667" />
<circle cx="391.86" cy="244.71" r="1.6666666666666667" />
<circle cx="392.22" cy="237.62" r="1.6666666666666667" />
<circle cx="392.59" cy="239.54" r="1.6666666666666667" />
<circle cx="392.96" cy="243.37" r="1.6666666666666667" />
<circle cx="393.33" cy="240.70" r="1.6666666666666667" />
<circle cx="393.70" cy="235.46" r="1.6666666666666667" />
<circle cx="394.07" cy="239.97" r="1.6666666666666667" />
<circle cx="394.44" cy="245.54" r="1.6666666666666667" />
<circle cx="394.82" cy="242.19" r="1.6666666666666667" />
<circle cx="395.19" cy="246.40" r="1.6666666666666667" />
<circle cx="395.56" cy="236.70" r="1.6666666666666667" />
<circle cx="395.94" cy="246.40" r="1.6666666666666667" />
<circle cx="396.30" cy="236.61" r="1.6666666666666667" />
<circle cx="396.67" cy="243.33" r="1.6666666666666667" />
<circle cx="397.05" cy="243.12" r="1.6666666666666667" />
<circle cx="397.43" cy="248.93" r="1.6666666666666667" />
<circle cx="397.80" cy="239.88" r="1.6666666666666667" />
<circle cx="398.17" cy="239.28" r="1.6666666666666667" />
<circle cx="398.55" cy="247.91" r="1.6666666666666667" />
<circle cx="398.92" cy="246.16" r="1.6666666666666667" />
<circle cx="399.31" cy="249.77" r="1.6666666666666667" />
<circle cx="399.68" cy="244.50" r="1.6666666666666667" />
<circle cx="400.06" cy="244.54" r="1.6666666666666667" />
<circle cx="400.44" cy="249.45" r="1.6666666666666667" />
<circle cx="400.81" cy="240.31" r="1.6666666666666667" />
<circle cx="401.19" cy="247.14" r="1.6666666666666667" />
<circle cx="401.56" cy="244.54" r="1.6666666666666667" />
<circle cx="401.95" cy="249.77" r="1.6666666666666667" />
<circle cx="402.33" cy="251.32" r="1.6666666666666667" />
<circle cx="402.72" cy="257.81" r="1.6666666666666667" />
<circle cx="403.11" cy="250.85" r="1.6666666666666667" />
<circle cx="403.50" cy="252.78" r="1.6666666666666667" />
<circle cx="403.88" cy="253.91" r="1.6666666666666667" />
<circle cx="404.27" cy="250.81" r="1.6666666666666667" />
<circle cx="404.66" cy="255.34" r="1.6666666666666667" />
<circle cx="405.05" cy="257.66" r="1.6666666666666667" />
<circle cx="405.45" cy="258.56" r="1.6666666666666667" />
<circle cx="405.83" cy="245.46" r="1.6666666666666667" />
<circle cx="406.22" cy="255.61" r="1.6666666666666667" />
<circle cx="406.60" cy="249.17" r="1.6666666666666667" />
<circle cx="406.98" cy="251.05" r="1.6666666666666667" />
<circle cx="407.37" cy="250.17" r="1.6666666666666667" />
<circle cx="407.75" cy="246.53" r="1.6666666666666667" />
<circle cx="408.13" cy="250.53" r="1.6666666666666667" />
<circle cx="408.50" cy="241.72" r="1.6666666666666667" />
<circle cx="408.88" cy="245.74" r="1.6666666666666667" />
<circle cx="409.26" cy="248.81" r="1.6666666666666667" />
<circle cx="409.64" cy="251.13" r="1.6666666666666667" />
<circle cx="410.02" cy="248.32" r="1.6666666666666667" />
<circle cx="410.42" cy="258.53" r="1.6666666666666667" />
<circle cx="410.80" cy="248.89" r="1.6666666666666667" />
<circle cx="411.18" cy="243.92" r="1.6666666666666667" />
<circle cx="411.57" cy="258.04" r="1.6666666666666667" />
<circle cx="411.96" cy="255.76" r="1.6666666666666667" />
<circle cx="412.36" cy="261.86" r="1.6666666666666667" />
<circle cx="412.75" cy="250.61" r="1.6666666666666667" />
<circle cx="413.15" cy="265.99" r="1.6666666666666667" />
<circle cx="413.55" cy="257.28" r="1.6666666666666667" />
<circle cx="413.95" cy="260.72" r="1.6666666666666667" />
<circle cx="414.34" cy="257.17" r="1.6666666666666667" />
<circle cx="414.74" cy="263.85" r="1.6666666666666667" />
<circle cx="415.14" cy="256.72" r="1.6666666666666667" />
<circle cx="415.53" cy="257.63" r="1.6666666666666667" />
<circle cx="415.92" cy="252.00" r="1.6666666666666667" />
<circle cx="416.31" cy="256.87" r="1.6666666666666667" />
<circle cx="416.73" cy="274.19" r="1.6666666666666667" />
<circle cx="417.12" cy="254.14" r="1.6666666666666667" />
<circle cx="417.52" cy="260.35" r="1.6666666666666667" />
<circle cx="417.91" cy="258.60" r="1.6666666666666667" />
<circle cx="418.32" cy="265.07" r="1.6666666666666667" />
<circle cx="418.71" cy="253.95" r="1.6666666666666667" />
<circle cx="419.12" cy="265.63" r="1.6666666666666667" />
<circle cx="419.54" cy="275.14" r="1.6666666666666667" />
<circle cx="419.95" cy="265.17" r="1.6666666666666667" />
<circle cx="420.36" cy="272.96" r="1.6666666666666667" />
<circle cx="420.76" cy="255.76" r="1.6666666666666667" />
<circle cx="421.17" cy="268.16" r="1.6666666666666667" />
<circle cx="421.57" cy="266.13" r="1.6666666666666667" />
<circle cx="421.98" cy="264.17" r="1.6666666666666667" />
<circle cx="422.37" cy="258.64" r="1.6666666666666667" />
<circle cx="422.78" cy="262.48" r="1.6666666666666667" />
<circle cx="423.17" cy="259.50" r="1.6666666666666667" />
<circle cx="423.57" cy="257.66" r="1.6666666666666667" />
<circle cx="423.97" cy="259.57" r="1.6666666666666667" />
<circle cx="424.37" cy="262.98" r="1.6666666666666667" />
<circle cx="424.78" cy="268.68" r="1.6666666666666667" />
<circle cx="425.18" cy="263.78" r="1.6666666666666667" />
<circle cx="425.59" cy="267.43" r="1.6666666666666667" />
<circle cx="426.00" cy="267.60" r="1.6666666666666667" />
<circle cx="426.41" cy="264.39" r="1.6666666666666667" />
<circle cx="426.81" cy="260.02" r="1.6666666666666667" />
<circle cx="427.21" cy="265.46" r="1.6666666666666667" />
<circle cx="427.61" cy="261.82" r="1.6666666666666667" />
<circle cx="428.01" cy="260.42" r="1.6666666666666667" />
<circle cx="428.42" cy="263.78" r="1.6666666666666667" />
<circle cx="428.83" cy="270.80" r="1.6666666666666667" />
<circle cx="429.25" cy="270.43" r="1.6666666666666667" />
<circle cx="429.65" cy="264.24" r="1.6666666666666667" />
<circle cx="430.07" cy="270.91" r="1.6666666666666667" />
<circle cx="430.48" cy="266.97" r="1.6666666666666667" />
<circle cx="430.88" cy="261.86" r="1.6666666666666667" />
<circle cx="431.29" cy="269.81" r="1.6666666666666667" />
<circle cx="431.70" cy="267.78" r="1.6666666666666667" />
<circle cx="432.11" cy="267.46" r="1.6666666666666667" />
<circle cx="432.51" cy="263.74" r="1.6666666666666667" />
<circle cx="432.94" cy="277.55" r="1.6666666666666667" />
<circle cx="433.36" cy="272.19" r="1.6666666666666667" />
<circle cx="433.76" cy="264.67" r="1.6666666666666667" />
<circle cx="434.20" cy="281.13" r="1.6666666666666667" />
<circle cx="434.62" cy="273.89" r="1.6666666666666667" />
<circle cx="435.05" cy="278.89" r="1.6666666666666667" />
<circle cx="435.47" cy="276.45" r="1.6666666666666667" />
<circle cx="435.89" cy="273.66" r="1.6666666666666667" />
<circle cx="436.32" cy="276.64" r="1.6666666666666667" />
<circle cx="436.75" cy="281.03" r="1.6666666666666667" />
<circle cx="437.18" cy="276.35" r="1.6666666666666667" />
<circle cx="437.59" cy="271.08" r="1.6666666666666667" />
<circle cx="438.02" cy="275.24" r="1.6666666666666667" />
<circle cx="438.42" cy="262.58" r="1.6666666666666667" />
<circle cx="438.84" cy="271.89" r="1.6666666666666667" />
<circle cx="439.25" cy="268.05" r="1.6666666666666667" />
<circle cx="439.68" cy="283.07" r="1.6666666666666667" />
<circle cx="440.10" cy="270.97" r="1.6666666666666667" />
<circle cx="440.51" cy="269.92" r="1.6666666666666667" />
<circle cx="440.94" cy="277.16" r="1.6666666666666667" />
<circle cx="441.37" cy="275.90" r="1.6666666666666667" />
<circle cx="441.79" cy="276.93" r="1.6666666666666667" />
<circle cx="442.23" cy="281.90" r="1.6666666666666667" />
<circle cx="442.64" cy="269.64" r="1.6666666666666667" />
<circle cx="443.05" cy="270.12" r="1.6666666666666667" />
<circle cx="443.48" cy="279.46" r="1.6666666666666667" />
<circle cx="443.90" cy="268.92" r="1.6666666666666667" />
<circle cx="444.32" cy="273.66" r="1.6666666666666667" />
<circle cx="444.75" cy="281.53" r="1.6666666666666667" />
<circle cx="445.18" cy="276.84" r="1.6666666666666667" />
<circle cx="445.60" cy="276.87" r="1.6666666666666667" />
<circle cx="446.03" cy="277.29" r="1.6666666666666667" />
<circle cx="446.46" cy="276.71" r="1.6666666666666667" />
<circle cx="446.89" cy="282.18" r="1.6666666666666667" />
<circle cx="447.32" cy="278.38" r="1.6666666666666667" />
<circle cx="447.75" cy="277.48" r="1.6666666666666667" />
<circle cx="448.16" cy="269.88" r="1.6666666666666667" />
<circle cx="448.59" cy="277.16" r="1.6666666666666667" />
<circle cx="449.03" cy="286.67" r="1.6666666666666667" />
<circle cx="449.47" cy="285.41" r="1.6666666666666667" />
<circle cx="449.91" cy="280.88" r="1.6666666666666667" />
<circle cx="450.34" cy="278.79" r="1.6666666666666667" />
<circle cx="450.77" cy="281.34" r="1.6666666666666667" />
<circle cx="451.22" cy="287.85" r="1.6666666666666667" />
<circle cx="451.67" cy="291.95" r="1.6666666666666667" />
<circle cx="452.12" cy="287.85" r="1.6666666666666667" />
<circle cx="452.57" cy="289.72" r="1.6666666666666667" />
<circle cx="453.02" cy="288.38" r="1.6666666666666667" />
<circle cx="453.45" cy="280.59" r="1.6666666666666667" />
<circle cx="453.89" cy="286.88" r="1.6666666666666667" />
<circle cx="454.33" cy="283.04" r="1.6666666666666667" />
<circle cx="454.77" cy="286.22" r="1.6666666666666667" />
<circle cx="455.21" cy="283.41" r="1.6666666666666667" />
<circle cx="455.66" cy="286.67" r="1.6666666666666667" />
<circle cx="456.09" cy="281.96" r="1.6666666666666667" />
<circle cx="456.53" cy="283.20" r="1.6666666666666667" />
<circle cx="456.97" cy="287.59" r="1.6666666666666667" />
<circle cx="457.40" cy="279.18" r="1.6666666666666667" />
<circle cx="457.84" cy="284.54" r="1.6666666666666667" />
<circle cx="458.27" cy="277.13" r="1.6666666666666667" />
<circle cx="458.70" cy="281.09" r="1.6666666666666667" />
<circle cx="459.15" cy="286.49" r="1.6666666666666667" />
<circle cx="459.59" cy="284.87" r="1.6666666666666667" />
<circle cx="460.04" cy="290.58" r="1.6666666666666667" />
<circle cx="460.49" cy="288.20" r="1.6666666666666667" />
<circle cx="460.94" cy="289.66" r="1.6666666666666667" />
<circle cx="461.39" cy="289.89" r="1.6666666666666667" />
<circle cx="461.83" cy="286.91" r="1.6666666666666667" />
<circle cx="462.28" cy="290.21" r="1.6666666666666667" />
<circle cx="462.72" cy="281.78" r="1.6666666666666667" />
<circle cx="463.16" cy="287.44" r="1.6666666666666667" />
<circle cx="463.61" cy="285.26" r="1.6666666666666667" />
<circle cx="464.06" cy="293.14" r="1.6666666666666667" />
<circle cx="464.51" cy="286.10" r="1.6666666666666667" />
<circle cx="465.42" cy="295.14" r="1.6666666666666667" />
<circle cx="465.87" cy="289.17" r="1.6666666666666667" />
<circle cx="466.32" cy="289.81" r="1.6666666666666667" />
<circle cx="466.78" cy="292.63" r="1.6666666666666667" />
<circle cx="467.23" cy="292.69" r="1.6666666666666667" />
<circle cx="467.69" cy="294.48" r="1.6666666666666667" />
<circle cx="468.15" cy="293.08" r="1.6666666666666667" />
<circle cx="468.60" cy="291.01" r="1.6666666666666667" />
<circle cx="469.06" cy="293.92" r="1.6666666666666667" />
<circle cx="469.52" cy="293.31" r="1.6666666666666667" />
<circle cx="469.98" cy="296.90" r="1.6666666666666667" />
<circle cx="470.43" cy="289.89" r="1.6666666666666667" />
<circle cx="470.90" cy="295.47" r="1.6666666666666667" />
<circle cx="471.35" cy="292.29" r="1.6666666666666667" />
<circle cx="471.83" cy="303.40" r="1.6666666666666667" />
<circle cx="472.30" cy="297.68" r="1.6666666666666667" />
<circle cx="472.75" cy="292.83" r="1.6666666666666667" />
<circle cx="473.23" cy="301.34" r="1.6666666666666667" />
<circle cx="473.70" cy="300.53" r="1.6666666666666667" />
<circle cx="474.17" cy="300.84" r="1.6666666666666667" />
<circle cx="474.67" cy="311.11" r="1.6666666666666667" />
<circle cx="475.15" cy="302.86" r="1.6666666666666667" />
<circle cx="475.63" cy="306.25" r="1.6666666666666667" />
<circle cx="476.12" cy="307.34" r="1.6666666666666667" />
<circle cx="476.61" cy="305.10" r="1.6666666666666667" />
<circle cx="477.10" cy="311.61" r="1.6666666666666667" />
<circle cx="477.58" cy="303.58" r="1.6666666666666667" />
<circle cx="478.05" cy="297.54" r="1.6666666666666667" />
<circle cx="478.53" cy="304.27" r="1.6666666666666667" />
<circle cx="479.01" cy="304.11" r="1.6666666666666667" />
<circle cx="479.50" cy="308.47" r="1.6666666666666667" />
<circle cx="479.99" cy="309.00" r="1.6666666666666667" />
<circle cx="480.49" cy="308.54" r="1.6666666666666667" />
<circle cx="480.98" cy="311.51" r="1.6666666666666667" />
<circle cx="481.47" cy="306.94" r="1.6666666666666667" />
<circle cx="481.96" cy="305.95" r="1.6666666666666667" />
<circle cx="482.44" cy="304.67" r="1.6666666666666667" />
<circle cx="482.92" cy="303.91" r="1.6666666666666667" />
<circle cx="483.40" cy="305.83" r="1.6666666666666667" />
<circle cx="483.90" cy="310.42" r="1.6666666666666667" />
<circle cx="484.40" cy="312.36" r="1.6666666666666667" />
<circle cx="484.90" cy="313.64" r="1.6666666666666667" />
<circle cx="485.40" cy="310.85" r="1.6666666666666667" />
<circle cx="485.91" cy="317.42" r="1.6666666666666667" />
<circle cx="486.42" cy="318.02" r="1.6666666666666667" />
<circle cx="486.94" cy="316.68" r="1.6666666666666667" />
<circle cx="487.44" cy="313.34" r="1.6666666666666667" />
<circle cx="487.95" cy="315.82" r="1.6666666666666667" />
<circle cx="488.45" cy="312.92" r="1.6666666666666667" />
<circle cx="488.95" cy="314.11" r="1.6666666666666667" />
<circle cx="489.49" cy="327.91" r="1.6666666666666667" />
<circle cx="490.03" cy="326.34" r="1.6666666666666667" />
<circle cx="490.56" cy="324.33" r="1.6666666666666667" />
<circle cx="491.12" cy="332.25" r="1.6666666666666667" />
<circle cx="491.65" cy="326.73" r="1.6666666666666667" />
<circle cx="492.19" cy="324.24" r="1.6666666666666667" />
<circle cx="492.72" cy="324.70" r="1.6666666666666667" />
<circle cx="493.24" cy="321.78" r="1.6666666666666667" />
<circle cx="493.77" cy="321.97" r="1.6666666666666667" />
<circle cx="494.31" cy="326.91" r="1.6666666666666667" />
<circle cx="494.86" cy="331.00" r="1.6666666666666667" />
<circle cx="495.39" cy="324.37" r="1.6666666666666667" />
<circle cx="495.91" cy="320.01" r="1.6666666666666667" />
<circle cx="496.44" cy="323.15" r="1.6666666666666667" />
<circle cx="496.95" cy="319.10" r="1.6666666666666667" />
<circle cx="497.46" cy="315.30" r="1.6666666666666667" />
<circle cx="497.99" cy="322.37" r="1.6666666666666667" />
<circle cx="498.51" cy="320.90" r="1.6666666666666667" />
<circle cx="499.01" cy="313.41" r="1.6666666666666667" />
<circle cx="499.53" cy="318.85" r="1.6666666666666667" />
<circle cx="500.04" cy="318.02" r="1.6666666666666667" />
<circle cx="500.57" cy="321.59" r="1.6666666666666667" />
<circle cx="501.08" cy="319.58" r="1.6666666666666667" />
<circle cx="501.62" cy="324.70" r="1.6666666666666667" />
<circle cx="502.15" cy="323.45" r="1.6666666666666667" />
<circle cx="502.67" cy="320.68" r="1.6666666666666667" />
<circle cx="503.19" cy="320.23" r="1.6666666666666667" />
<circle cx="503.71" cy="321.46" r="1.6666666666666667" />
<circle cx="504.22" cy="317.04" r="1.6666666666666667" />
<circle cx="504.74" cy="319.29" r="1.6666666666666667" />
<circle cx="505.27" cy="324.33" r="1.6666666666666667" />
<circle cx="505.81" cy="325.79" r="1.6666666666666667" />
<circle cx="506.33" cy="321.67" r="1.6666666666666667" />
<circle cx="506.85" cy="321.44" r="1.6666666666666667" />
<circle cx="507.37" cy="318.37" r="1.6666666666666667" />
<circle cx="507.88" cy="314.82" r="1.6666666666666667" />
<circle cx="508.38" cy="315.57" r="1.6666666666666667" />
<circle cx="508.90" cy="318.96" r="1.6666666666666667" />
<circle cx="509.42" cy="321.35" r="1.6666666666666667" />
<circle cx="509.96" cy="324.22" r="1.6666666666666667" />
<circle cx="510.47" cy="318.08" r="1.6666666666666667" />
<circle cx="511.01" cy="326.75" r="1.6666666666666667" />
<circle cx="511.54" cy="325.26" r="1.6666666666666667" />
<circle cx="512.07" cy="324.51" r="1.6666666666666667" />
<circle cx="512.60" cy="320.88" r="1.6666666666666667" />
<circle cx="513.11" cy="318.41" r="1.6666666666666667" />
<circle cx="513.64" cy="322.94" r="1.6666666666666667" />
<circle cx="514.18" cy="328.39" r="1.6666666666666667" />
<circle cx="514.71" cy="322.99" r="1.6666666666666667" />
<circle cx="515.24" cy="324.86" r="1.6666666666666667" />
<circle cx="515.80" cy="332.10" r="1.6666666666666667" />
<circle cx="516.34" cy="329.42" r="1.6666666666666667" />
<circle cx="516.88" cy="325.91" r="1.6666666666666667" />
<circle cx="517.41" cy="326.40" r="1.6666666666666667" />
<circle cx="517.93" cy="319.18" r="1.6666666666666667" />
<circle cx="518.47" cy="327.31" r="1.6666666666666667" />
<circle cx="519.03" cy="333.41" r="1.6666666666666667" />
<circle cx="519.58" cy="329.85" r="1.6666666666666667" />
<circle cx="520.12" cy="328.97" r="1.6666666666666667" />
<circle cx="520.67" cy="330.71" r="1.6666666666666667" />
<circle cx="521.21" cy="327.43" r="1.6666666666666667" />
<circle cx="521.77" cy="332.60" r="1.6666666666666667" />
<circle cx="522.31" cy="329.13" r="1.6666666666666667" />
<circle cx="522.86" cy="329.56" r="1.6666666666666667" />
<circle cx="523.40" cy="329.60" r="1.6666666666666667" />
<circle cx="523.95" cy="329.91" r="1.6666666666666667" />
<circle cx="524.51" cy="333.75" r="1.6666666666666667" />
<circle cx="525.06" cy="331.74" r="1.6666666666666667" />
<circle cx="525.60" cy="325.65" r="1.6666666666666667" />
<circle cx="526.16" cy="334.16" r="1.6666666666666667" />
<circle cx="526.72" cy="335.07" r="1.6666666666666667" />
<circle cx="527.26" cy="326.95" r="1.6666666666666667" />
<circle cx="527.79" cy="324.33" r="1.6666666666666667" />
<circle cx="528.36" cy="335.65" r="1.6666666666666667" />
<circle cx="528.92" cy="335.28" r="1.6666666666666667" />
<circle cx="529.49" cy="339.29" r="1.6666666666666667" />
<circle cx="530.06" cy="334.57" r="1.6666666666666667" />
<circle cx="530.62" cy="334.20" r="1.6666666666666667" />
<circle cx="531.20" cy="340.93" r="1.6666666666666667" />
<circle cx="531.78" cy="340.03" r="1.6666666666666667" />
<circle cx="532.35" cy="336.93" r="1.6666666666666667" />
<circle cx="532.90" cy="332.41" r="1.6666666666666667" />
<circle cx="533.48" cy="341.00" r="1.6666666666666667" />
<circle cx="534.07" cy="343.04" r="1.6666666666666667" />
<circle cx="534.64" cy="337.63" r="1.6666666666666667" />
<circle cx="535.22" cy="340.48" r="1.6666666666666667" />
<circle cx="535.79" cy="336.51" r="1.6666666666666667" />
<circle cx="536.36" cy="336.65" r="1.6666666666666667" />
<circle cx="536.95" cy="342.87" r="1.6666666666666667" />
<circle cx="537.52" cy="339.87" r="1.6666666666666667" />
<circle cx="538.09" cy="336.11" r="1.6666666666666667" />
<circle cx="538.67" cy="340.74" r="1.6666666666666667" />
<circle cx="539.24" cy="337.88" r="1.6666666666666667" />
<circle cx="539.82" cy="339.61" r="1.6666666666666667" />
<circle cx="540.41" cy="342.82" r="1.6666666666666667" />
<circle cx="541.00" cy="345.21" r="1.6666666666666667" />
<circle cx="541.58" cy="339.66" r="1.6666666666666667" />
<circle cx="542.16" cy="341.26" r="1.6666666666666667" />
<circle cx="542.73" cy="335.76" r="1.6666666666666667" />
<circle cx="543.31" cy="340.93" r="1.6666666666666667" />
<circle cx="543.93" cy="350.60" r="1.6666666666666667" />
<circle cx="544.52" cy="344.35" r="1.6666666666666667" />
<circle cx="545.11" cy="343.90" r="1.6666666666666667" />
<circle cx="545.70" cy="343.92" r="1.6666666666666667" />
<circle cx="546.31" cy="348.55" r="1.6666666666666667" />
<circle cx="546.88" cy="337.52" r="1.6666666666666667" />
<circle cx="547.44" cy="334.70" r="1.6666666666666667" />
<circle cx="548.02" cy="340.90" r="1.6666666666666667" />
<circle cx="548.63" cy="346.67" r="1.6666666666666667" />
<circle cx="549.22" cy="344.68" r="1.6666666666666667" />
<circle cx="549.83" cy="348.51" r="1.6666666666666667" />
<circle cx="550.43" cy="346.23" r="1.6666666666666667" />
<circle cx="551.01" cy="341.54" r="1.6666666666666667" />
<circle cx="551.61" cy="344.98" r="1.6666666666666667" />
<circle cx="552.19" cy="342.04" r="1.6666666666666667" />
<circle cx="552.77" cy="339.90" r="1.6666666666666667" />
<circle cx="553.39" cy="351.43" r="1.6666666666666667" />
<circle cx="553.99" cy="344.98" r="1.6666666666666667" />
<circle cx="554.59" cy="346.73" r="1.6666666666666667" />
<circle cx="555.20" cy="348.91" r="1.6666666666666667" />
<circle cx="555.81" cy="349.76" r="1.6666666666666667" />
<circle cx="556.41" cy="347.92" r="1.6666666666666667" />
<circle cx="557.01" cy="346.33" r="1.6666666666666667" />
<circle cx="557.64" cy="352.62" r="1.6666666666666667" />
<circle cx="558.23" cy="343.95" r="1.6666666666666667" />
<circle cx="558.86" cy="355.25" r="1.6666666666666667" />
<circle cx="559.51" cy="358.95" r="1.6666666666666667" />
<circle cx="560.14" cy="354.84" r="1.6666666666666667" />
<circle cx="560.76" cy="351.46" r="1.6666666666666667" />
<circle cx="561.40" cy="356.18" r="1.6666666666666667" />
<circle cx="562.02" cy="352.80" r="1.6666666666666667" />
<circle cx="562.63" cy="348.93" r="1.6666666666666667" />
<circle cx="563.25" cy="351.71" r="1.6666666666666667" />
<circle cx="563.88" cy="354.23" r="1.6666666666666667" />
<circle cx="565.12" cy="354.53" r="1.6666666666666667" />
<circle cx="565.75" cy="353.95" r="1.6666666666666667" />
<circle cx="566.38" cy="354.45" r="1.6666666666666667" />
<circle cx="567.00" cy="351.54" r="1.6666666666666667" />
<circle cx="567.63" cy="353.20" r="1.6666666666666667" />
<circle cx="568.26" cy="356.12" r="1.6666666666666667" />
<circle cx="568.88" cy="352.45" r="1.6666666666666667" />
<circle cx="569.51" cy="353.31" r="1.6666666666666667" />
<circle cx="570.14" cy="354.64" r="1.6666666666666667" />
<circle cx="570.77" cy="354.42" r="1.6666666666666667" />
<circle cx="571.41" cy="357.31" r="1.6666666666666667" />
<circle cx="572.04" cy="352.71" r="1.6666666666666667" />
<circle cx="572.68" cy="357.01" r="1.6666666666666667" />
<circle cx="573.32" cy="357.51" r="1.6666666666666667" />
<circle cx="573.97" cy="360.18" r="1.6666666666666667" />
<circle cx="574.63" cy="361.27" r="1.6666666666666667" />
<circle cx="575.29" cy="362.16" r="1.6666666666666667" />
<circle cx="575.95" cy="361.89" r="1.6666666666666667" />
<circle cx="576.63" cy="364.84" r="1.6666666666666667" />
<circle cx="577.28" cy="360.67" r="1.6666666666666667" />
<circle cx="577.95" cy="363.37" r="1.6666666666666667" />
<circle cx="578.62" cy="364.10" r="1.6666666666666667" />
<circle cx="579.30" cy="367.24" r="1.6666666666666667" />
<circle cx="580.00" cy="369.49" r="1.6666666666666667" />
<circle cx="580.69" cy="369.51" r="1.6666666666666667" />
<circle cx="581.41" cy="373.46" r="1.6666666666666667" />
<circle cx="582.12" cy="373.20" r="1.6666666666666667" />
<circle cx="582.83" cy="373.21" r="1.6666666666666667" />
<circle cx="583.57" cy="377.15" r="1.6666666666666667" />
<circle cx="584.31" cy="378.33" r="1.6666666666666667" />
<circle cx="585.04" cy="376.71" r="1.6666666666666667" />
<circle cx="585.78" cy="378.96" r="1.6666666666666667" />
<circle cx="586.53" cy="380.65" r="1.6666666666666667" />
<circle cx="587.27" cy="378.71" r="1.6666666666666667" />
<circle cx="588.02" cy="379.61" r="1.6666666666666667" />
<circle cx="588.78" cy="381.39" r="1.6666666666666667" />
<circle cx="589.53" cy="380.47" r="1.6666666666666667" />
<circle cx="590.28" cy="381.21" r="1.6666666666666667" />
<circle cx="591.04" cy="381.05" r="1.6666666666666667" />
<circle cx="591.78" cy="379.12" r="1.6666666666666667" />
<circle cx="592.52" cy="378.56" r="1.6666666666666667" />
<circle cx="593.26" cy="377.62" r="1.6666666666666667" />
<circle cx="594.00" cy="377.90" r="1.6666666666666667" />
<circle cx="594.74" cy="380.03" r="1.6666666666666667" />
<circle cx="595.49" cy="379.09" r="1.6666666666666667" />
<circle cx="596.24" cy="381.27" r="1.6666666666666667" />
<circle cx="597.00" cy="381.39" r="1.6666666666666667" />
<circle cx="597.75" cy="379.99" r="1.6666666666666667" />
<circle cx="598.52" cy="383.75" r="1.6666666666666667" />
<circle cx="599.26" cy="379.59" r="1.6666666666666667" />
<circle cx="600.02" cy="380.62" r="1.6666666666666667" />
<circle cx="600.77" cy="380.29" r="1.6666666666666667" />
<circle cx="601.52" cy="381.28" r="1.6666666666666667" />
<circle cx="602.25" cy="375.57" r="1.6666666666666667" />
<circle cx="602.98" cy="377.93" r="1.6666666666666667" />
<circle cx="603.74" cy="381.96" r="1.6666666666666667" />
<circle cx="604.50" cy="381.35" r="1.6666666666666667" />
<circle cx="605.26" cy="382.50" r="1.6666666666666667" />
<circle cx="606.04" cy="384.46" r="1.6666666666666667" />
<circle cx="606.77" cy="378.03" r="1.6666666666666667" />
<circle cx="607.51" cy="377.64" r="1.6666666666666667" />
<circle cx="608.28" cy="383.50" r="1.6666666666666667" />
<circle cx="609.04" cy="383.08" r="1.6666666666666667" />
<circle cx="609.82" cy="384.30" r="1.6666666666666667" />
<circle cx="610.61" cy="388.15" r="1.6666666666666667" />
<circle cx="611.40" cy="386.26" r="1.6666666666666667" />
<circle cx="612.20" cy="388.89" r="1.6666666666666667" />
<circle cx="612.99" cy="386.73" r="1.6666666666666667" />
<circle cx="613.78" cy="387.95" r="1.6666666666666667" />
<circle cx="614.60" cy="392.12" r="1.6666666666666667" />
<circle cx="615.42" cy="391.31" r="1.6666666666666667" />
<circle cx="616.23" cy="390.51" r="1.6666666666666667" />
<circle cx="617.01" cy="385.50" r="1.6666666666666667" />
<circle cx="617.83" cy="392.69" r="1.6666666666666667" />
<circle cx="618.68" cy="395.88" r="1.6666666666666667" />
<circle cx="619.52" cy="394.87" r="1.6666666666666667" />
<circle cx="620.37" cy="395.84" r="1.6666666666666667" />
<circle cx="621.19" cy="392.61" r="1.6666666666666667" />
<circle cx="622.02" cy="392.11" r="1.6666666666666667" />
<circle cx="622.83" cy="391.64" r="1.6666666666666667" />
<circle cx="623.66" cy="393.00" r="1.6666666666666667" />
<circle cx="624.51" cy="395.31" r="1.6666666666666667" />
<circle cx="625.33" cy="393.14" r="1.6666666666666667" />
<circle cx="626.18" cy="396.44" r="1.6666666666666667" />
<circle cx="627.01" cy="392.54" r="1.6666666666666667" />
<circle cx="627.84" cy="394.14" r="1.6666666666666667" />
<circle cx="628.71" cy="398.84" r="1.6666666666666667" />
<circle cx="629.56" cy="395.81" r="1.6666666666666667" />
<circle cx="630.45" cy="402.01" r="1.6666666666666667" />
<circle cx="631.32" cy="398.80" r="1.6666666666666667" />
<circle cx="632.15" cy="393.69" r="1.6666666666666667" />
<circle cx="632.93" cy="385.58" r="1.6666666666666667" />
<circle cx="633.75" cy="391.39" r="1.6666666666666667" />
<circle cx="634.54" cy="386.73" r="1.6666666666666667" />
<circle cx="635.36" cy="392.81" r="1.6666666666666667" />
<circle cx="636.18" cy="391.65" r="1.6666666666666667" />
<circle cx="636.98" cy="387.60" r="1.6666666666666667" />
<circle cx="637.78" cy="389.60" r="1.6666666666666667" />
<circle cx="638.63" cy="395.61" r="1.6666666666666667" />
<circle cx="639.48" cy="396.47" r="1.6666666666666667" />
<circle cx="640.32" cy="394.52" r="1.6666666666666667" />
<circle cx="641.16" cy="394.89" r="1.6666666666666667" />
<circle cx="641.96" cy="389.45" r="1.6666666666666667" />
<circle cx="642.78" cy="391.06" r="1.6666666666666667" />
<circle cx="643.62" cy="395.32" r="1.6666666666666667" />
<circle cx="644.46" cy="394.64" r="1.6666666666666667" />
<circle cx="645.29" cy="393.18" r="1.6666666666666667" />
<circle cx="646.15" cy="398.44" r="1.6666666666666667" />
<circle cx="646.97" cy="391.55" r="1.6666666666666667" />
<circle cx="647.79" cy="392.35" r="1.6666666666666667" />
<circle cx="648.64" cy="396.17" r="1.6666666666666667" />
<circle cx="649.51" cy="398.69" r="1.6666666666666667" />
<circle cx="650.40" cy="402.15" r="1.6666666666666667" />
<circle cx="651.27" cy="398.03" r="1.6666666666666667" />
<circle cx="652.14" cy="398.83" r="1.6666666666666667" />
<circle cx="653.02" cy="401.39" r="1.6666666666666667" />
<circle cx="653.91" cy="401.14" r="1.6666666666666667" />
<circle cx="654.79" cy="400.92" r="1.6666666666666667" />
<circle cx="655.69" cy="402.30" r="1.6666666666666667" />
<circle cx="656.57" cy="400.71" r="1.6666666666666667" />
<circle cx="657.42" cy="396.31" r="1.6666666666666667" />
<circle cx="658.31" cy="401.93" r="1.6666666666666667" />
<circle cx="659.20" cy="401.55" r="1.6666666666666667" />
<circle cx="660.09" cy="401.21" r="1.6666666666666667" />
<circle cx="660.97" cy="400.24" r="1.6666666666666667" />
<circle cx="661.81" cy="395.61" r="1.6666666666666667" />
<circle cx="662.70" cy="400.45" r="1.6666666666666667" />
<circle cx="663.60" cy="403.35" r="1.6666666666666667" />
<circle cx="664.52" cy="405.27" r="1.6666666666666667" />
<circle cx="665.43" cy="404.90" r="1.6666666666666667" />
<circle cx="666.34" cy="403.83" r="1.6666666666666667" />
<circle cx="667.22" cy="399.99" r="1.6666666666666667" />
<circle cx="668.16" cy="407.58" r="1.6666666666666667" />
<circle cx="669.07" cy="404.09" r="1.6666666666666667" />
<circle cx="670.00" cy="406.67" r="1.6666666666666667" />
<circle cx="670.92" cy="405.59" r="1.6666666666666667" />
<circle cx="671.83" cy="404.47" r="1.6666666666666667" />
<circle cx="672.75" cy="405.28" r="1.6666666666666667" />
<circle cx="674.62" cy="405.67" r="1.6666666666666667" />
<circle cx="675.61" cy="413.25" r="1.6666666666666667" />
<circle cx="676.46" cy="395.76" r="1.6666666666666667" />
<circle cx="677.40" cy="408.20" r="1.6666666666666667" />
<circle cx="678.36" cy="410.25" r="1.6666666666666667" />
<circle cx="679.33" cy="410.12" r="1.6666666666666667" />
<circle cx="680.29" cy="410.89" r="1.6666666666666667" />
<circle cx="681.24" cy="408.14" r="1.6666666666666667" />
<circle cx="682.16" cy="405.86" r="1.6666666666666667" />
<circle cx="683.14" cy="412.03" r="1.6666666666666667" />
<circle cx="684.14" cy="414.40" r="1.6666666666666667" />
<circle cx="685.11" cy="410.94" r="1.6666666666666667" />
<circle cx="686.09" cy="412.05" r="1.6666666666666667" />
<circle cx="687.05" cy="409.86" r="1.6666666666666667" />
<circle cx="688.04" cy="413.72" r="1.6666666666666667" />
<circle cx="689.04" cy="414.31" r="1.6666666666666667" />
<circle cx="690.06" cy="415.53" r="1.6666666666666667" />
<circle cx="691.09" cy="417.22" r="1.6666666666666667" />
<circle cx="692.07" cy="412.86" r="1.6666666666666667" />
<circle cx="693.12" cy="419.04" r="1.6666666666666667" />
<circle cx="694.16" cy="418.16" r="1.6666666666666667" />
<circle cx="695.25" cy="422.32" r="1.6666666666666667" />
<circle cx="696.29" cy="418.07" r="1.6666666666666667" />
<circle cx="697.31" cy="416.94" r="1.6666666666666667" />
<circle cx="698.40" cy="422.48" r="1.6666666666666667" />
<circle cx="699.47" cy="421.22" r="1.6666666666666667" />
<circle cx="700.57" cy="423.05" r="1.6666666666666667" />
<circle cx="701.60" cy="417.76" r="1.6666666666666667" />
<circle cx="702.69" cy="422.56" r="1.6666666666666667" />
<circle cx="703.80" cy="424.32" r="1.6666666666666667" />
<circle cx="704.89" cy="422.56" r="1.6666666666666667" />
<circle cx="705.99" cy="423.45" r="1.6666666666666667" />
<circle cx="707.08" cy="422.52" r="1.6666666666666667" />
<circle cx="708.21" cy="425.90" r="1.6666666666666667" />
<circle cx="709.32" cy="424.25" r="1.6666666666666667" />
<circle cx="710.42" cy="423.93" r="1.6666666666666667" />
<circle cx="711.57" cy="427.04" r="1.6666666666666667" />
<circle cx="712.69" cy="425.42" r="1.6666666666666667" />
<circle cx="713.84" cy="427.47" r="1.6666666666666667" />
<circle cx="715.00" cy="428.74" r="1.6666666666666667" />
<circle cx="716.15" cy="427.05" r="1.6666666666666667" />
<circle cx="717.27" cy="425.81" r="1.6666666666666667" />
<circle cx="718.42" cy="427.37" r="1.6666666666666667" />
<circle cx="719.57" cy="427.41" r="1.6666666666666667" />
<circle cx="720.76" cy="430.49" r="1.6666666666666667" />
<circle cx="721.91" cy="427.69" r="1.6666666666666667" />
<circle cx="723.07" cy="427.84" r="1.6666666666666667" />
<circle cx="724.23" cy="428.84" r="1.6666666666666667" />
<circle cx="725.44" cy="431.76" r="1.6666666666666667" />
<circle cx="726.59" cy="427.51" r="1.6666666666666667" />
<circle cx="727.77" cy="429.97" r="1.6666666666666667" />
<circle cx="728.98" cy="432.08" r="1.6666666666666667" />
<circle cx="730.20" cy="432.61" r="1.6666666666666667" />
<circle cx="731.38" cy="429.78" r="1.6666666666666667" />
<circle cx="732.56" cy="429.44" r="1.6666666666666667" />
<circle cx="733.78" cy="432.44" r="1.6666666666666667" />
<circle cx="735.00" cy="433.15" r="1.6666666666666667" />
<circle cx="736.22" cy="432.73" r="1.6666666666666667" />
<circle cx="737.44" cy="432.05" r="1.6666666666666667" />
<circle cx="739.93" cy="434.96" r="1.6666666666666667" />
<circle cx="741.19" cy="435.06" r="1.6666666666666667" />
<circle cx="742.44" cy="434.36" r="1.6666666666666667" />
<circle cx="743.74" cy="437.98" r="1.6666666666666667" />
<circle cx="745.06" cy="438.86" r="1.6666666666666667" />
<circle cx="746.36" cy="437.81" r="1.6666666666666667" />
<circle cx="747.71" cy="440.79" r="1.6666666666666667" />
<circle cx="749.06" cy="440.45" r="1.6666666666666667" />
<circle cx="750.44" cy="442.62" r="1.6666666666666667" />
<circle cx="751.78" cy="439.91" r="1.6666666666666667" />
<circle cx="753.15" cy="441.90" r="1.6666666666666667" />
<circle cx="754.54" cy="442.66" r="1.6666666666666667" />
<circle cx="755.90" cy="441.31" r="1.6666666666666667" />
<circle cx="757.23" cy="439.70" r="1.6666666666666667" />
<circle cx="758.66" cy="444.82" r="1.6666666666666667" />
<circle cx="760.10" cy="445.42" r="1.6666666666666667" />
<circle cx="761.50" cy="443.38" r="1.6666666666666667" />
<circle cx="762.97" cy="446.82" r="1.6666666666666667" />
<circle cx="764.41" cy="445.60" r="1.6666666666666667" />
<circle cx="765.87" cy="446.09" r="1.6666666666666667" />
<circle cx="767.32" cy="446.20" r="1.6666666666666667" />
<circle cx="768.80" cy="447.02" r="1.6666666666666667" />
<circle cx="770.30" cy="448.15" r="1.6666666666666667" />
<circle cx="771.82" cy="449.15" r="1.6666666666666667" />
<circle cx="773.36" cy="450.22" r="1.6666666666666667" />
<circle cx="774.91" cy="450.45" r="1.6666666666666667" />
<circle cx="776.42" cy="448.83" r="1.6666666666666667" />
<circle cx="778.05" cy="453.37" r="1.6666666666666667" />
<circle cx="779.64" cy="452.02" r="1.6666666666666667" />
<circle cx="781.28" cy="454.04" r="1.6666666666666667" />
<circle cx="782.92" cy="454.26" r="1.6666666666666667" />
<circle cx="784.57" cy="454.18" r="1.6666666666666667" />
<circle cx="786.22" cy="454.51" r="1.6666666666666667" />
<circle cx="787.90" cy="455.55" r="1.6666666666666667" />
<circle cx="789.60" cy="456.13" r="1.6666666666666667" />
<circle cx="791.31" cy="456.65" r="1.6666666666666667" />
<circle cx="793.04" cy="457.23" r="1.6666666666666667" />
<circle cx="794.77" cy="457.46" r="1.6666666666666667" />
<circle cx="796.53" cy="458.17" r="1.6666666666666667" />
<circle cx="798.31" cy="458.92" r="1.6666666666666667" />
<circle cx="800.14" cy="460.37" r="1.6666666666666667" />
<circle cx="801.88" cy="457.73" r="1.6666666666666667" />
<circle cx="803.69" cy="459.91" r="1.6666666666666667" />
<circle cx="805.59" cy="462.54" r="1.6666666666666667" />
<circle cx="807.45" cy="461.47" r="1.6666666666666667" />
<circle cx="809.32" cy="461.55" r="1.6666666666666667" />
<circle cx="811.27" cy="463.99" r="1.6666666666666667" />
<circle cx="813.22" cy="463.96" r="1.6666666666666667" />
<circle cx="815.18" cy="464.07" r="1.6666666666666667" />
<circle cx="817.14" cy="464.26" r="1.6666666666666667" />
<circle cx="819.18" cy="466.26" r="1.6666666666666667" />
<circle cx="821.14" cy="463.97" r="1.6666666666666667" />
<circle cx="823.20" cy="466.69" r="1.6666666666666667" />
<circle cx="825.27" cy="467.03" r="1.6666666666666667" />
<circle cx="827.40" cy="468.35" r="1.6666666666666667" />
<circle cx="829.56" cy="468.95" r="1.6666666666666667" />
<circle cx="831.66" cy="467.70" r="1.6666666666666667" />
<circle cx="833.77" cy="467.89" r="1.6666666666666667" />
<circle cx="835.89" cy="468.02" r="1.6666666666666667" />
<circle cx="838.09" cy="469.92" r="1.6666666666666667" />
<circle cx="840.43" cy="472.58" r="1.6666666666666667" />
<circle cx="842.75" cy="472.25" r="1.6666666666666667" />
<circle cx="845.13" cy="473.44" r="1.6666666666666667" />
<circle cx="850.00" cy="475.00" r="1.6666666666666667" />
</g>
<g stroke="black">
<line x1="315.51" x2="315.51" y1="510.00" y2="520.00" />
<line x1="812.66" x2="812.66" y1="510.00" y2="520.00" />
<g fill="black" font-family="Arial, sans-serif" font-size="18.0" stroke="none" text-anchor="start" transform="translate(9.0 0.0)">
<text x="315.51" y="530.57">19400</text>
<text x="812.66" y="530.57">19500</text>
</g>
<line x1="150.00" x2="850.00" y1="510.00" y2="510.00" />
</g>
<g stroke="black">
<line x1="150.00" x2="140.00" y1="311.13" y2="311.13" />
<line x1="150.00" x2="140.00" y1="106.07" y2="106.07" />
<g fill="black" font-family="Arial, sans-serif" font-size="18.0" stroke="none" text-anchor="end">
<text x="141.00" y="302.13">10</text>
<text x="141.00" y="97.07">20</text>
</g>
<line x1="150.00" x2="150.00" y1="510.00" y2="90.00" />
</g>
</g>
</svg>