<?xml version="1.0"?>
<svg version="1.1" viewBox="0 0 1000 600" xmlns:xlink="http://www.w3.org/1999/xlink" xmlns="http://www.w3.org/2000/svg">
<g>
<g stroke-dasharray="3.6 7.2" stroke-width="0.72" stroke="#caa">
<line x1="813.75" x2="813.75" y1="510.00" y2="90.00" />
<line x1="760.60" x2="760.60" y1="510.00" y2="90.00" />
<line x1="707.45" x2="707.45" y1="510.00" y2="90.00" />
<line x1="656.01" x2="656.01" y1="510.00" y2="90.00" />
<line x1="602.86" x2="602.86" y1="510.00" y2="90.00" />
<line x1="551.42" x2="551.42" y1="510.00" y2="90.00" />
<line x1="498.27" x2="498.27" y1="510.00" y2="90.00" />
<line x1="445.11" x2="445.11" y1="510.00" y2="90.00" />
<line x1="393.68" x2="393.68" y1="510.00" y2="90.00" />
<line x1="340.52" x2="340.52" y1="510.00" y2="90.00" />
<line x1="289.09" x2="289.09" y1="510.00" y2="90.00" />
<line x1="235.93" x2="235.93" y1="510.00" y2="90.00" />
<line x1="187.92" x2="187.92" y1="510.00" y2="90.00" />
<line x1="150.00" x2="850.00" y1="510.00" y2="510.00" />
<line x1="150.00" x2="850.00" y1="216.29" y2="216.29" />
</g>
<g>
<text dominant-baseline="hanging" dx="-36.0" dy="18.0" fill="#0004" font-family="Arial, sans-serif" font-size="36" stroke="none" text-anchor="end" x="850.00" y="128.18">FR1</text>
</g>
<g>
<text dominant-baseline="text-bottom" dy="-12.0" fill="black" font-family="Arial, sans-serif" font-size="18.0" font-style="italic" stroke="none" text-anchor="middle" x="500.00" y="90.00">Years 2023 to 2024</text>
</g>
<g>
<text dominant-baseline="central" dx="12.0" dy="12.0" fill="black" font-family="Arial, sans-serif" font-size="18.0" font-style="italic" stroke="none" text-anchor="middle" text-orientation="sideways" writing-mode="vertical-lr" x="850.00" y="300.00">log(Drips per day)</text>
</g>
<polyline fill="none" points="150.20,426.37 150.30,426.07 150.40,425.56 150.50,426.06 150.59,424.65 150.68,424.40 150.78,425.37 150.88,425.42 150.97,426.01 151.08,427.19 151.18,426.73 151.27,425.09 151.37,424.98 151.46,425.84 151.56,426.44 151.66,426.37 151.77,428.77 151.88,428.10 151.98,427.78 152.08,427.08 152.18,426.47 152.28,425.52 152.38,425.64 152.47,425.05 152.57,425.45 152.67,426.21 152.77,427.20 152.87,426.89 152.97,427.02 153.07,425.55 153.17,426.40 153.27,425.73 153.37,426.52 153.47,427.65 153.58,428.96 153.69,429.21 153.80,428.81 153.90,427.58 154.00,426.54 154.09,425.38 154.19,425.34 154.29,426.99 154.40,427.81 154.50,428.56 154.61,428.04 154.71,426.92 154.81,426.48 154.91,427.36 155.01,427.00 155.12,429.13 155.23,428.11 155.34,428.69 155.44,428.69 155.55,428.56 155.66,427.87 155.76,426.89 155.86,426.24 155.96,426.34 156.05,425.82 156.15,425.39 156.25,425.96 156.35,427.20 156.45,425.10 156.54,425.28 156.64,425.07 156.73,425.92 156.83,426.44 156.94,427.67 157.05,428.67 157.15,427.94 157.25,425.76 157.35,427.49 157.45,426.01 157.55,425.88 157.64,425.73 157.75,427.34 157.85,427.76 157.95,427.33 158.06,427.56 158.16,426.61 158.26,426.41 158.36,426.45 158.46,426.57 158.56,426.83 158.67,429.16 158.78,429.37 158.89,429.15 158.99,428.54 159.10,428.20 159.20,427.83 159.31,427.78 159.41,427.57 159.52,428.68 159.63,428.74 159.74,429.11 159.84,427.55 159.95,427.98 160.05,426.83 160.15,427.52 160.25,427.78 160.36,429.31 160.48,430.48 160.59,429.97 160.70,429.65 160.81,427.90 160.91,428.65 161.02,427.89 161.12,427.55 161.23,428.28 161.34,428.81 161.44,428.31 161.55,427.18 161.65,426.50 161.75,426.78 161.85,426.93 161.95,426.80 162.05,427.82 162.16,428.85 162.27,428.97 162.37,427.78 162.48,427.48 162.58,426.05 162.68,426.47 162.78,426.77 162.88,427.45 162.98,427.63 163.09,427.68 163.19,426.78 163.29,427.85 163.40,428.02 163.50,427.33 163.61,428.16 163.71,427.52 163.81,427.28 163.92,427.68 164.02,426.66 164.12,427.50 164.22,427.94 164.34,429.77 164.45,429.15 164.55,428.97 164.67,430.25 164.78,429.52 164.89,429.29 165.00,429.34 165.10,428.14 165.21,427.73 165.32,428.67 165.43,429.72 165.54,429.08 165.64,428.48 165.75,427.61 165.85,426.96 165.95,428.09 166.06,428.58 166.17,429.23 166.28,429.42 166.39,429.41 166.51,430.68 166.62,430.39 166.73,430.19 166.84,429.03 166.95,429.11 167.06,429.17 167.17,429.74 167.28,428.27 167.39,428.44 167.48,426.35 167.59,428.12 167.70,429.92 167.81,429.45 167.92,428.93 168.03,429.45 168.14,430.22 168.26,430.17 168.38,431.22 168.48,429.04 168.59,428.43 168.70,428.63 168.81,429.14 168.92,430.38 169.03,430.18 169.14,428.51 169.25,427.76 169.36,429.64 169.47,429.26 169.57,428.00 169.69,430.62 169.80,430.03 169.91,430.60 170.03,430.50 170.14,430.24 170.25,429.34 170.36,430.04 170.48,430.84 170.59,430.19 170.70,428.64 170.81,429.28 170.92,429.08 171.03,430.40 171.15,429.51 171.25,429.23 171.37,430.23 171.48,430.86 171.60,431.44 171.72,432.00 171.84,430.79 171.95,430.45 172.06,429.81 172.18,430.09 172.29,430.71 172.40,429.80 172.51,429.05 172.62,429.65 172.73,429.39 172.85,430.78 172.96,428.59 173.07,430.18 173.18,429.90 173.30,432.28 173.43,432.20 173.54,430.93 173.66,430.54 173.77,430.59 173.89,431.43 174.01,431.66 174.12,430.67 174.23,429.75 174.35,430.63 174.47,431.73 174.58,430.24 174.69,429.91 174.81,429.69 174.92,430.37 175.04,430.98 175.15,430.82 175.26,430.05 175.38,430.06 175.49,429.51 175.60,430.01 175.71,430.07 175.83,430.47 175.94,430.22 176.05,430.20 176.17,429.92 176.28,430.20 176.39,429.92 222.36,431.36 222.47,431.69 222.59,431.00 222.71,431.92 222.83,430.87 222.95,431.85 223.06,431.36 223.18,431.45 223.30,432.11 223.42,432.21 223.55,431.98 223.67,431.83 223.78,431.77 223.90,431.15 224.02,431.81 224.14,431.41 224.26,432.31 224.38,431.62 224.50,432.22 224.62,431.81 224.74,432.06 224.86,432.52 224.98,431.59 225.10,432.27 225.22,431.61 225.34,431.48 225.46,431.33 225.58,432.20 225.70,431.70 225.82,432.38 225.94,432.55 226.07,432.70 226.19,432.15 226.31,432.08 226.43,432.89 226.56,432.31 226.68,432.83 226.80,432.39 226.93,432.67 227.05,432.28 227.16,431.31 227.29,432.76 227.41,431.53 227.53,432.67 227.65,431.85 227.77,432.87 227.90,432.96 228.02,433.04 228.14,432.12 228.26,432.06 228.39,432.87 228.51,432.46 228.64,433.20 228.76,431.92 228.88,432.68 229.00,431.68 229.12,431.83 229.24,431.73 229.36,432.21 229.48,432.28 229.61,432.89 229.73,432.21 229.85,431.68 229.97,432.78 230.09,432.44 230.22,432.84 230.34,432.61 230.46,432.89 230.58,431.96 230.71,432.87 230.83,433.23 230.96,432.75 231.08,433.55 231.21,433.29 231.34,433.62 231.46,433.02 231.59,433.77 231.71,433.06 231.84,433.63 231.97,433.43 232.09,433.12 232.22,433.50 232.34,432.34 232.46,432.50 232.59,434.01 232.72,433.33 232.85,433.95 232.98,434.03 233.10,433.85 233.23,433.86 233.36,432.83 233.49,434.08 233.62,434.13 233.74,433.37 233.87,433.58 234.00,433.99 234.13,433.70 234.25,433.15 234.38,433.62 234.51,434.22 234.64,433.86 234.77,434.31 234.89,433.28 235.02,434.31 235.15,433.27 235.28,433.98 235.41,433.96 235.54,434.59 235.67,433.61 235.79,433.55 235.92,434.48 236.05,434.29 236.19,434.68 236.31,434.11 236.44,434.11 236.58,434.65 236.70,433.66 236.83,434.39 236.96,434.11 237.10,434.68 237.23,434.85 237.36,435.58 237.50,434.80 237.63,435.02 237.76,435.14 237.90,434.80 238.03,435.30 238.17,435.57 238.30,435.67 238.43,434.21 238.57,435.33 238.70,434.62 238.83,434.82 238.97,434.73 239.10,434.33 239.23,434.77 239.36,433.81 239.49,434.24 239.62,434.58 239.75,434.83 239.88,434.52 240.02,435.66 240.15,434.59 240.28,434.04 240.41,435.61 240.55,435.35 240.69,436.05 240.82,434.78 240.96,436.53 241.10,435.52 241.23,435.92 241.37,435.51 241.51,436.28 241.65,435.46 241.78,435.56 241.91,434.93 242.05,435.48 242.19,437.51 242.33,435.17 242.47,435.87 242.60,435.67 242.74,436.42 242.88,435.15 243.02,436.49 243.16,437.62 243.30,436.43 243.45,437.36 243.58,435.35 243.72,436.78 243.87,436.54 244.00,436.31 244.14,435.68 244.28,436.12 244.42,435.78 244.55,435.57 244.69,435.78 244.83,436.18 244.97,436.84 245.11,436.27 245.25,436.70 245.39,436.72 245.53,436.34 245.67,435.83 245.81,436.46 245.95,436.04 246.09,435.88 246.22,436.27 246.37,437.10 246.51,437.05 246.65,436.32 246.79,437.11 246.94,436.64 247.07,436.05 247.22,436.98 247.36,436.74 247.50,436.70 247.64,436.26 247.79,437.92 247.93,437.26 248.07,436.37 248.22,438.36 248.36,437.47 248.51,438.08 248.66,437.78 248.80,437.44 248.95,437.81 249.10,438.35 249.25,437.77 249.39,437.13 249.54,437.63 249.67,436.13 249.82,437.23 249.96,436.77 250.11,438.60 250.25,437.12 250.40,436.99 250.54,437.87 250.69,437.71 250.84,437.84 250.99,438.46 251.13,436.96 251.27,437.02 251.42,438.15 251.56,436.87 251.71,437.44 251.86,438.41 252.01,437.83 252.15,437.83 252.30,437.88 252.45,437.81 252.60,438.49 252.74,438.02 252.89,437.91 253.03,436.99 253.18,437.87 253.34,439.06 253.49,438.90 253.64,438.33 253.78,438.07 253.93,438.39 254.09,439.21 254.25,439.75 254.40,439.21 254.55,439.45 254.71,439.28 254.86,438.29 255.01,439.09 255.16,438.60 255.32,439.00 255.47,438.65 255.62,439.06 255.77,438.47 255.92,438.62 256.07,439.18 256.22,438.12 256.37,438.79 256.52,437.87 256.67,438.36 256.82,439.04 256.98,438.83 257.13,439.57 257.29,439.26 257.44,439.45 257.60,439.48 257.75,439.09 257.91,439.52 258.06,438.44 258.21,439.16 258.36,438.88 258.52,439.90 258.67,438.99 176.62,430.66 176.74,431.03 176.86,431.81 176.97,431.03 177.08,429.39 177.19,428.54 177.30,428.97 177.41,429.58 177.52,429.76 177.63,430.04 177.74,429.36 177.85,428.08 177.95,428.22 178.06,427.29 178.16,427.52 178.26,427.58 178.37,428.57 178.48,428.67 178.59,428.43 178.69,428.71 178.80,427.73 178.90,427.98 179.01,428.17 179.11,428.15 179.22,429.34 179.34,430.03 179.45,429.98 179.56,428.80 179.67,429.28 179.77,428.90 179.88,427.81 179.99,428.69 180.10,429.33 180.21,429.24 180.32,429.07 180.42,428.81 180.53,428.35 180.63,427.96 180.74,428.02 180.85,429.80 180.96,428.73 181.07,428.98 181.18,429.28 181.29,429.72 181.40,428.37 181.50,428.41 181.61,427.94 181.71,427.72 181.82,427.75 181.92,428.37 182.03,427.67 182.13,427.22 182.23,426.39 182.33,425.79 182.42,426.32 182.53,427.61 182.63,428.21 182.74,428.51 182.85,428.01 182.95,427.28 183.05,426.31 183.15,426.34 183.25,425.99 183.35,426.37 183.44,425.21 183.54,426.81 183.64,427.51 183.75,426.65 183.84,426.18 183.94,426.54 184.04,425.77 184.14,426.17 184.24,426.67 184.34,426.49 184.44,426.39 184.54,425.89 184.63,425.51 184.73,426.15 184.83,425.51 184.93,426.05 185.02,425.20 185.12,425.07 185.21,424.54 185.31,424.78 185.40,425.78 185.50,425.30 185.60,425.45 185.69,425.24 185.79,425.32 185.88,425.07 185.98,425.18 186.07,424.90 186.17,425.79 186.27,425.20 186.36,425.51 186.46,425.63 186.55,424.83 186.65,424.95 186.75,425.95 186.84,425.37 186.94,425.45 187.03,425.13 187.13,425.62 187.23,425.58 187.32,425.31 187.42,424.65 187.51,425.56 187.61,425.71 187.71,424.85 187.80,425.62 187.90,425.21 187.99,425.35 188.09,425.11 188.18,424.92 188.28,425.00 188.37,424.71 188.47,425.27 188.57,425.92 188.67,425.98 188.76,425.49 188.86,425.82 188.96,426.09 189.05,424.53 189.15,425.27 189.24,423.40 189.33,425.03 189.42,424.30 189.52,425.09 189.62,425.39 189.71,425.48 189.81,425.47 189.90,424.97 190.00,425.24 190.09,424.84 190.19,425.83 190.29,425.08 190.38,425.13 190.48,425.51 190.58,426.05 190.67,425.19 190.77,425.28 190.86,425.29 190.96,424.83 191.05,425.32 191.15,424.67 191.24,424.68 191.33,424.25 191.43,424.51 191.52,425.34 191.62,425.45 191.72,425.24 191.81,425.96 191.91,426.19 192.01,426.03 192.11,425.74 192.21,425.56 192.30,425.44 192.40,425.14 192.49,425.19 192.59,425.37 192.69,426.43 192.78,425.34 192.88,425.61 192.98,425.33 193.08,425.92 193.17,424.99 193.27,425.42 193.36,425.56 193.46,425.71 193.56,426.17 193.66,425.70 193.76,426.17 193.85,425.46 193.95,425.89 194.04,425.21 194.14,426.26 194.24,425.80 194.34,425.45 194.44,425.70 194.53,424.70 194.62,424.60 194.72,424.65 194.81,424.84 194.91,425.13 195.00,425.96 195.10,425.11 195.20,426.25 195.29,424.58 195.39,426.12 195.49,425.58 195.59,426.12 195.68,425.32 195.78,425.41 195.88,425.98 195.97,425.76 196.07,426.39 196.17,425.18 196.27,425.76 196.36,425.41 196.46,424.95 196.55,425.05 196.65,425.93 196.75,425.59 196.85,426.56 196.94,425.21 197.04,426.19 197.14,425.46 197.24,425.80 197.33,425.22 197.43,425.93 197.53,426.02 197.62,425.46 197.72,426.31 197.82,425.77 197.92,426.36 198.01,424.78 198.11,425.67 198.21,424.94 198.30,426.25 198.40,425.19 198.50,426.32 198.60,425.98 198.70,426.18 198.79,425.86 198.89,425.64 198.99,425.77 199.09,426.37 199.19,426.29 199.29,426.56 199.39,426.97 199.49,426.42 199.59,427.01 199.69,425.92 199.79,427.08 199.89,426.71 199.99,427.27 200.10,427.66 200.20,426.71 200.30,426.81 200.40,426.74 200.50,427.89 200.60,426.73 200.71,427.62 200.81,427.21 200.92,427.82 201.02,427.50 201.12,427.87 201.22,427.11 201.33,427.37 201.43,426.62 201.53,426.64 201.63,426.93 293.37,449.35 293.59,449.25 293.81,449.34 294.02,448.82 294.24,449.12 294.46,449.65 294.67,448.98 294.89,449.13 295.10,449.38 295.32,449.34 295.54,449.86 295.76,449.03 295.98,449.81 296.20,449.90 296.43,450.40 296.65,450.61 296.88,450.78 297.11,450.72 297.34,451.29 297.57,450.49 297.80,451.01 298.03,451.15 298.26,451.76 298.50,452.21 298.74,452.21 298.99,453.01 299.24,452.96 299.48,452.96 299.73,453.78 299.99,454.03 300.24,453.69 300.50,454.17 300.76,454.53 301.01,454.11 301.27,454.31 301.53,454.69 301.79,454.49 302.05,454.65 302.31,454.62 302.57,454.20 302.82,454.08 303.08,453.88 303.33,453.94 303.59,454.40 303.85,454.19 304.11,454.67 304.37,454.69 304.63,454.39 304.89,455.21 305.15,454.30 305.41,454.52 305.67,454.45 305.93,454.67 306.18,453.45 306.43,453.95 306.69,454.82 306.95,454.68 307.22,454.93 307.48,455.37 307.74,453.97 307.99,453.89 308.26,455.16 308.52,455.06 308.79,455.33 309.06,456.20 309.33,455.77 309.61,456.37 309.88,455.88 310.15,456.16 310.44,457.13 310.72,456.94 311.00,456.75 311.27,455.60 311.55,457.26 311.85,458.03 312.14,457.79 312.43,458.02 312.71,457.24 313.00,457.13 313.28,457.01 313.56,457.34 313.85,457.89 314.14,457.37 314.43,458.17 314.72,457.23 315.01,457.61 315.30,458.76 315.60,458.01 315.90,459.57 316.20,458.75 316.49,457.50 316.76,455.62 317.04,456.96 317.31,455.88 317.60,457.29 317.88,457.02 318.15,456.08 318.43,456.54 318.72,457.97 319.02,458.18 319.31,457.70 319.60,457.79 319.87,456.50 320.15,456.88 320.45,457.90 320.73,457.73 321.02,457.38 321.32,458.66 321.60,456.99 321.89,457.18 322.18,458.10 322.48,458.73 322.79,459.60 323.08,458.56 323.38,458.76 323.69,459.41 323.99,459.34 324.30,459.29 324.61,459.64 324.91,459.23 325.21,458.14 325.51,459.55 325.82,459.45 326.13,459.36 326.43,459.12 326.72,457.97 327.02,459.17 327.34,459.91 327.65,460.42 327.97,460.32 328.28,460.04 328.58,459.05 328.91,461.04 329.22,460.11 329.54,460.79 329.86,460.50 330.18,460.21 330.49,460.42 258.99,440.17 259.14,439.38 259.30,439.47 259.46,439.83 259.61,439.84 259.77,440.08 259.93,439.89 260.08,439.62 260.24,440.00 260.40,439.92 260.56,440.40 260.72,439.48 260.88,440.21 261.03,439.79 261.20,441.28 261.36,440.51 261.52,439.86 261.68,441.00 261.84,440.89 262.01,440.93 262.18,442.37 262.34,441.21 262.51,441.68 262.68,441.83 262.84,441.52 263.02,442.44 263.18,441.31 263.34,440.49 263.51,441.40 263.67,441.38 263.84,441.99 264.01,442.07 264.18,442.00 264.35,442.43 264.52,441.78 264.69,441.64 264.86,441.46 265.02,441.35 265.19,441.62 265.36,442.27 265.53,442.55 265.71,442.73 265.88,442.33 266.05,443.29 266.23,443.37 266.41,443.18 266.58,442.69 266.76,443.05 266.93,442.63 267.10,442.80 267.29,444.88 267.48,444.63 267.66,444.32 267.85,445.56 268.04,444.69 268.22,444.31 268.40,444.38 268.58,443.94 268.76,443.97 268.95,444.72 269.14,445.36 269.32,444.33 269.50,443.67 269.68,444.15 269.86,443.53 270.04,442.97 270.22,444.03 270.40,443.80 270.57,442.70 270.75,443.50 270.93,443.37 271.11,443.91 271.29,443.61 271.47,444.38 271.65,444.19 271.83,443.77 272.01,443.70 272.19,443.89 272.37,443.23 272.55,443.56 272.73,444.32 272.92,444.55 273.10,443.92 273.28,443.89 273.46,443.43 273.63,442.90 273.81,443.01 273.98,443.52 274.16,443.87 274.35,444.31 274.52,443.38 274.71,444.70 274.89,444.47 275.08,444.35 275.26,443.80 275.44,443.43 275.62,444.11 275.80,444.95 275.99,444.12 276.17,444.41 276.36,445.54 276.55,445.12 276.73,444.57 276.92,444.64 277.10,443.55 277.28,444.79 277.48,445.75 277.67,445.18 277.85,445.04 278.04,445.32 278.23,444.80 278.42,445.62 278.61,445.07 278.80,445.14 278.99,445.14 279.17,445.19 279.37,445.80 279.56,445.48 279.74,444.53 279.93,445.87 280.13,446.02 280.31,444.73 280.50,444.32 280.69,446.11 280.89,446.05 281.09,446.71 281.28,445.94 281.47,445.88 281.67,446.98 281.87,446.83 282.07,446.32 282.26,445.59 282.46,447.00 282.66,447.34 282.86,446.44 283.06,446.91 283.26,446.25 283.45,446.27 283.66,447.31 283.85,446.81 284.05,446.19 284.25,446.95 284.45,446.48 284.65,446.76 284.85,447.30 285.05,447.71 285.25,446.77 285.46,447.04 285.65,446.13 285.85,446.98 286.06,448.65 286.27,447.56 286.47,447.48 286.68,447.49 286.89,448.29 287.08,446.42 287.28,445.96 287.48,446.98 287.68,447.96 287.89,447.62 288.10,448.28 288.31,447.88 288.51,447.09 288.71,447.67 288.91,447.17 289.11,446.81 289.33,448.80 289.53,447.67 289.74,447.97 289.95,448.35 290.16,448.50 290.37,448.18 290.58,447.90 290.79,449.01 291.00,447.49 291.21,449.49 291.44,450.17 291.66,449.41 291.87,448.80 292.09,449.66 292.30,449.04 292.51,448.35 292.73,448.85 292.95,449.30 331.14,460.52 331.48,462.61 331.77,458.00 332.10,461.21 332.43,461.77 332.76,461.73 333.09,461.94 333.42,461.19 333.74,460.58 334.08,462.26 334.42,462.94 334.76,461.96 335.09,462.27 335.42,461.66 335.77,462.75 336.11,462.91 336.46,463.27 336.82,463.77 337.16,462.50 337.52,464.31 337.88,464.05 338.25,465.32 338.61,464.02 338.96,463.68 339.34,465.37 339.71,464.98 340.09,465.55 340.44,463.93 340.82,465.40 341.20,465.95 341.58,465.40 341.96,465.68 342.33,465.38 342.72,466.46 343.10,465.93 343.49,465.83 343.88,466.84 344.27,466.31 344.66,466.98 345.07,467.40 345.46,466.84 345.85,466.43 346.24,466.94 346.64,466.96 347.05,467.99 347.45,467.05 347.85,467.10 348.25,467.43 348.66,468.43 349.06,466.99 349.47,467.82 349.89,468.54 350.31,468.73 350.71,467.75 351.12,467.64 351.54,468.67 351.96,468.92 352.38,468.77 352.80,468.53 391.62,489.51 353.66,469.57 354.10,469.60 354.53,469.35 354.98,470.68 355.43,471.01 355.88,470.62 356.35,471.75 356.81,471.62 357.29,472.47 357.75,471.41 358.22,472.19 358.70,472.49 359.17,471.96 359.63,471.33 360.12,473.37 360.62,473.61 361.10,472.78 361.61,474.20 362.11,473.69 362.61,473.90 363.11,473.94 363.62,474.29 364.13,474.77 364.66,475.20 365.19,475.68 365.73,475.78 366.25,475.07 366.81,477.12 367.36,476.49 367.92,477.43 368.49,477.53 369.06,477.49 369.63,477.65 370.21,478.15 370.79,478.44 371.38,478.69 371.98,478.98 372.58,479.10 373.18,479.45 373.80,479.83 374.43,480.59 375.03,479.23 375.65,480.35 376.31,481.75 376.95,481.17 377.59,481.21 378.27,482.56 378.94,482.54 379.62,482.60 380.29,482.70 381.00,483.86 381.67,482.55 382.38,484.12 383.09,484.32 383.83,485.11 384.57,485.49 385.30,484.72 386.03,484.83 386.76,484.91 387.52,486.10 388.32,487.83 389.12,487.61 389.94,488.42" stroke-dasharray="3.6 3.6" stroke-width="3.6" stroke="#aaa" />
<g>
<circle cx="150.20" cy="426.37" r="1.6666666666666667" />
<circle cx="150.30" cy="426.07" r="1.6666666666666667" />
<circle cx="150.40" cy="425.56" r="1.6666666666666667" />
<circle cx="150.50" cy="426.06" r="1.6666666666666667" />
<circle cx="150.59" cy="424.65" r="1.6666666666666667" />
<circle cx="150.68" cy="424.40" r="1.6666666666666667" />
<circle cx="150.78" cy="425.37" r="1.6666666666666667" />
<circle cx="150.88" cy="425.42" r="1.6666666666666667" />
<circle cx="150.97" cy="426.01" r="1.6666666666666667" />
<circle cx="151.08" cy="427.19" r="1.6666666666666667" />
<circle cx="151.18" cy="426.73" r="1.6666666666666667" />
<circle cx="151.27" cy="425.09" r="1.6666666666666667" />
<circle cx="151.37" cy="424.98" r="1.6666666666666667" />
<circle cx="151.46" cy="425.84" r="1.6666666666666667" />
<circle cx="151.56" cy="426.44" r="1.6666666666666667" />
<circle cx="151.66" cy="426.37" r="1.6666666666666667" />
<circle cx="151.77" cy="428.77" r="1.6666666666666667" />
<circle cx="151.88" cy="428.10" r="1.6666666666666667" />
<circle cx="151.98" cy="427.78" r="1.6666666666666667" />
<circle cx="152.08" cy="427.08" r="1.6666666666666667" />
<circle cx="152.18" cy="426.47" r="1.6666666666666667" />
<circle cx="152.28" cy="425.52" r="1.6666666666666667" />
<circle cx="152.38" cy="425.64" r="1.6666666666666667" />
<circle cx="152.47" cy="425.05" r="1.6666666666666667" />
<circle cx="152.57" cy="425.45" r="1.6666666666666667" />
<circle cx="152.67" cy="426.21" r="1.6666666666666667" />
<circle cx="152.77" cy="427.20" r="1.6666666666666667" />
<circle cx="152.87" cy="426.89" r="1.6666666666666667" />
<circle cx="152.97" cy="427.02" r="1.6666666666666667" />
<circle cx="153.07" cy="425.55" r="1.6666666666666667" />
<circle cx="153.17" cy="426.40" r="1.6666666666666667" />
<circle cx="153.27" cy="425.73" r="1.6666666666666667" />
<circle cx="153.37" cy="426.52" r="1.6666666666666667" />
<circle cx="153.47" cy="427.65" r="1.6666666666666667" />
<circle cx="153.58" cy="428.96" r="1.6666666666666667" />
<circle cx="153.69" cy="429.21" r="1.6666666666666667" />
<circle cx="153.80" cy="428.81" r="1.6666666666666667" />
<circle cx="153.90" cy="427.58" r="1.6666666666666667" />
<circle cx="154.00" cy="426.54" r="1.6666666666666667" />
<circle cx="154.09" cy="425.38" r="1.6666666666666667" />
<circle cx="154.19" cy="425.34" r="1.6666666666666667" />
<circle cx="154.29" cy="426.99" r="1.6666666666666667" />
<circle cx="154.40" cy="427.81" r="1.6666666666666667" />
<circle cx="154.50" cy="428.56" r="1.6666666666666667" />
<circle cx="154.61" cy="428.04" r="1.6666666666666667" />
<circle cx="154.71" cy="426.92" r="1.6666666666666667" />
<circle cx="154.81" cy="426.48" r="1.6666666666666667" />
<circle cx="154.91" cy="427.36" r="1.6666666666666667" />
<circle cx="155.01" cy="427.00" r="1.6666666666666667" />
<circle cx="155.12" cy="429.13" r="1.6666666666666667" />
<circle cx="155.23" cy="428.11" r="1.6666666666666667" />
<circle cx="155.34" cy="428.69" r="1.6666666666666667" />
<circle cx="155.44" cy="428.69" r="1.6666666666666667" />
<circle cx="155.55" cy="428.56" r="1.6666666666666667" />
<circle cx="155.66" cy="427.87" r="1.6666666666666667" />
<circle cx="155.76" cy="426.89" r="1.6666666666666667" />
<circle cx="155.86" cy="426.24" r="1.6666666666666667" />
<circle cx="155.96" cy="426.34" r="1.6666666666666667" />
<circle cx="156.05" cy="425.82" r="1.6666666666666667" />
<circle cx="156.15" cy="425.39" r="1.6666666666666667" />
<circle cx="156.25" cy="425.96" r="1.6666666666666667" />
<circle cx="156.35" cy="427.20" r="1.6666666666666667" />
<circle cx="156.45" cy="425.10" r="1.6666666666666667" />
<circle cx="156.54" cy="425.28" r="1.6666666666666667" />
<circle cx="156.64" cy="425.07" r="1.6666666666666667" />
<circle cx="156.73" cy="425.92" r="1.6666666666666667" />
<circle cx="156.83" cy="426.44" r="1.6666666666666667" />
<circle cx="156.94" cy="427.67" r="1.6666666666666667" />
<circle cx="157.05" cy="428.67" r="1.6666666666666667" />
<circle cx="157.15" cy="427.94" r="1.6666666666666667" />
<circle cx="157.25" cy="425.76" r="1.6666666666666667" />
<circle cx="157.35" cy="427.49" r="1.6666666666666667" />
<circle cx="157.45" cy="426.01" r="1.6666666666666667" />
<circle cx="157.55" cy="425.88" r="1.6666666666666667" />
<circle cx="157.64" cy="425.73" r="1.6666666666666667" />
<circle cx="157.75" cy="427.34" r="1.6666666666666667" />
<circle cx="157.85" cy="427.76" r="1.6666666666666667" />
<circle cx="157.95" cy="427.33" r="1.6666666666666667" />
<circle cx="158.06" cy="427.56" r="1.6666666666666667" />
<circle cx="158.16" cy="426.61" r="1.6666666666666667" />
<circle cx="158.26" cy="426.41" r="1.6666666666666667" />
<circle cx="158.36" cy="426.45" r="1.6666666666666667" />
<circle cx="158.46" cy="426.57" r="1.6666666666666667" />
<circle cx="158.56" cy="426.83" r="1.6666666666666667" />
<circle cx="158.67" cy="429.16" r="1.6666666666666667" />
<circle cx="158.78" cy="429.37" r="1.6666666666666667" />
<circle cx="158.89" cy="429.15" r="1.6666666666666667" />
<circle cx="158.99" cy="428.54" r="1.6666666666666667" />
<circle cx="159.10" cy="428.20" r="1.6666666666666667" />
<circle cx="159.20" cy="427.83" r="1.6666666666666667" />
<circle cx="159.31" cy="427.78" r="1.6666666666666667" />
<circle cx="159.41" cy="427.57" r="1.6666666666666667" />
<circle cx="159.52" cy="428.68" r="1.6666666666666667" />
<circle cx="159.63" cy="428.74" r="1.6666666666666667" />
<circle cx="159.74" cy="429.11" r="1.6666666666666667" />
<circle cx="159.84" cy="427.55" r="1.6666666666666667" />
<circle cx="159.95" cy="427.98" r="1.6666666666666667" />
<circle cx="160.05" cy="426.83" r="1.6666666666666667" />
<circle cx="160.15" cy="427.52" r="1.6666666666666667" />
<circle cx="160.25" cy="427.78" r="1.6666666666666667" />
<circle cx="160.36" cy="429.31" r="1.6666666666666667" />
<circle cx="160.48" cy="430.48" r="1.6666666666666667" />
<circle cx="160.59" cy="429.97" r="1.6666666666666667" />
<circle cx="160.70" cy="429.65" r="1.6666666666666667" />
<circle cx="160.81" cy="427.90" r="1.6666666666666667" />
<circle cx="160.91" cy="428.65" r="1.6666666666666667" />
<circle cx="161.02" cy="427.89" r="1.6666666666666667" />
<circle cx="161.12" cy="427.55" r="1.6666666666666667" />
<circle cx="161.23" cy="428.28" r="1.6666666666666667" />
<circle cx="161.34" cy="428.81" r="1.6666666666666667" />
<circle cx="161.44" cy="428.31" r="1.6666666666666667" />
<circle cx="161.55" cy="427.18" r="1.6666666666666667" />
<circle cx="161.65" cy="426.50" r="1.6666666666666667" />
<circle cx="161.75" cy="426.78" r="1.6666666666666667" />
<circle cx="161.85" cy="426.93" r="1.6666666666666667" />
<circle cx="161.95" cy="426.80" r="1.6666666666666667" />
<circle cx="162.05" cy="427.82" r="1.6666666666666667" />
<circle cx="162.16" cy="428.85" r="1.6666666666666667" />
<circle cx="162.27" cy="428.97" r="1.6666666666666667" />
<circle cx="162.37" cy="427.78" r="1.6666666666666667" />
<circle cx="162.48" cy="427.48" r="1.6666666666666667" />
<circle cx="162.58" cy="426.05" r="1.6666666666666667" />
<circle cx="162.68" cy="426.47" r="1.6666666666666667" />
<circle cx="162.78" cy="426.77" r="1.6666666666666667" />
<circle cx="162.88" cy="427.45" r="1.6666666666666667" />
<circle cx="162.98" cy="427.63" r="1.6666666666666667" />
<circle cx="163.09" cy="427.68" r="1.6666666666666667" />
<circle cx="163.19" cy="426.78" r="1.6666666666666667" />
<circle cx="163.29" cy="427.85" r="1.6666666666666667" />
<circle cx="163.40" cy="428.02" r="1.6666666666666667" />
<circle cx="163.50" cy="427.33" r="1.6666666666666667" />
<circle cx="163.61" cy="428.16" r="1.6666666666666667" />
<circle cx="163.71" cy="427.52" r="1.6666666666666667" />
<circle cx="163.81" cy="427.28" r="1.6666666666666667" />
<circle cx="163.92" cy="427.68" r="1.6666666666666667" />
<circle cx="164.02" cy="426.66" r="1.6666666666666667" />
<circle cx="164.12" cy="427.50" r="1.6666666666666667" />
<circle cx="164.22" cy="427.94" r="1.6666666666666667" />
<circle cx="164.34" cy="429.77" r="1.6666666666666667" />
<circle cx="164.45" cy="429.15" r="1.6666666666666667" />
<circle cx="164.55" cy="428.97" r="1.6666666666666667" />
<circle cx="164.67" cy="430.25" r="1.6666666666666667" />
<circle cx="164.78" cy="429.52" r="1.6666666666666667" />
<circle cx="164.89" cy="429.29" r="1.6666666666666667" />
<circle cx="165.00" cy="429.34" r="1.6666666666666667" />
<circle cx="165.10" cy="428.14" r="1.6666666666666667" />
<circle cx="165.21" cy="427.73" r="1.6666666666666667" />
<circle cx="165.32" cy="428.67" r="1.6666666666666667" />
<circle cx="165.43" cy="429.72" r="1.6666666666666667" />
<circle cx="165.54" cy="429.08" r="1.6666666666666667" />
<circle cx="165.64" cy="428.48" r="1.6666666666666667" />
<circle cx="165.75" cy="427.61" r="1.6666666666666667" />
<circle cx="165.85" cy="426.96" r="1.6666666666666667" />
<circle cx="165.95" cy="428.09" r="1.6666666666666667" />
<circle cx="166.06" cy="428.58" r="1.6666666666666667" />
<circle cx="166.17" cy="429.23" r="1.6666666666666667" />
<circle cx="166.28" cy="429.42" r="1.6666666666666667" />
<circle cx="166.39" cy="429.41" r="1.6666666666666667" />
<circle cx="166.51" cy="430.68" r="1.6666666666666667" />
<circle cx="166.62" cy="430.39" r="1.6666666666666667" />
<circle cx="166.73" cy="430.19" r="1.6666666666666667" />
<circle cx="166.84" cy="429.03" r="1.6666666666666667" />
<circle cx="166.95" cy="429.11" r="1.6666666666666667" />
<circle cx="167.06" cy="429.17" r="1.6666666666666667" />
<circle cx="167.17" cy="429.74" r="1.6666666666666667" />
<circle cx="167.28" cy="428.27" r="1.6666666666666667" />
<circle cx="167.39" cy="428.44" r="1.6666666666666667" />
<circle cx="167.48" cy="426.35" r="1.6666666666666667" />
<circle cx="167.59" cy="428.12" r="1.6666666666666667" />
<circle cx="167.70" cy="429.92" r="1.6666666666666667" />
<circle cx="167.81" cy="429.45" r="1.6666666666666667" />
<circle cx="167.92" cy="428.93" r="1.6666666666666667" />
<circle cx="168.03" cy="429.45" r="1.6666666666666667" />
<circle cx="168.14" cy="430.22" r="1.6666666666666667" />
<circle cx="168.26" cy="430.17" r="1.6666666666666667" />
<circle cx="168.38" cy="431.22" r="1.6666666666666667" />
<circle cx="168.48" cy="429.04" r="1.6666666666666667" />
<circle cx="168.59" cy="428.43" r="1.6666666666666667" />
<circle cx="168.70" cy="428.63" r="1.6666666666666667" />
<circle cx="168.81" cy="429.14" r="1.6666666666666667" />
<circle cx="168.92" cy="430.38" r="1.6666666666666667" />
<circle cx="169.03" cy="430.18" r="1.6666666666666667" />
<circle cx="169.14" cy="428.51" r="1.6666666666666667" />
<circle cx="169.25" cy="427.76" r="1.6666666666666667" />
<circle cx="169.36" cy="429.64" r="1.6666666666666667" />
<circle cx="169.47" cy="429.26" r="1.6666666666666667" />
<circle cx="169.57" cy="428.00" r="1.6666666666666667" />
<circle cx="169.69" cy="430.62" r="1.6666666666666667" />
<circle cx="169.80" cy="430.03" r="1.6666666666666667" />
<circle cx="169.91" cy="430.60" r="1.6666666666666667" />
<circle cx="170.03" cy="430.50" r="1.6666666666666667" />
<circle cx="170.14" cy="430.24" r="1.6666666666666667" />
<circle cx="170.25" cy="429.34" r="1.6666666666666667" />
<circle cx="170.36" cy="430.04" r="1.6666666666666667" />
<circle cx="170.48" cy="430.84" r="1.6666666666666667" />
<circle cx="170.59" cy="430.19" r="1.6666666666666667" />
<circle cx="170.70" cy="428.64" r="1.6666666666666667" />
<circle cx="170.81" cy="429.28" r="1.6666666666666667" />
<circle cx="170.92" cy="429.08" r="1.6666666666666667" />
<circle cx="171.03" cy="430.40" r="1.6666666666666667" />
<circle cx="171.15" cy="429.51" r="1.6666666666666667" />
<circle cx="171.25" cy="429.23" r="1.6666666666666667" />
<circle cx="171.37" cy="430.23" r="1.6666666666666667" />
<circle cx="171.48" cy="430.86" r="1.6666666666666667" />
<circle cx="171.60" cy="431.44" r="1.6666666666666667" />
<circle cx="171.72" cy="432.00" r="1.6666666666666667" />
<circle cx="171.84" cy="430.79" r="1.6666666666666667" />
<circle cx="171.95" cy="430.45" r="1.6666666666666667" />
<circle cx="172.06" cy="429.81" r="1.6666666666666667" />
<circle cx="172.18" cy="430.09" r="1.6666666666666667" />
<circle cx="172.29" cy="430.71" r="1.6666666666666667" />
<circle cx="172.40" cy="429.80" r="1.6666666666666667" />
<circle cx="172.51" cy="429.05" r="1.6666666666666667" />
<circle cx="172.62" cy="429.65" r="1.6666666666666667" />
<circle cx="172.73" cy="429.39" r="1.6666666666666667" />
<circle cx="172.85" cy="430.78" r="1.6666666666666667" />
<circle cx="172.96" cy="428.59" r="1.6666666666666667" />
<circle cx="173.07" cy="430.18" r="1.6666666666666667" />
<circle cx="173.18" cy="429.90" r="1.6666666666666667" />
<circle cx="173.30" cy="432.28" r="1.6666666666666667" />
<circle cx="173.43" cy="432.20" r="1.6666666666666667" />
<circle cx="173.54" cy="430.93" r="1.6666666666666667" />
<circle cx="173.66" cy="430.54" r="1.6666666666666667" />
<circle cx="173.77" cy="430.59" r="1.6666666666666667" />
<circle cx="173.89" cy="431.43" r="1.6666666666666667" />
<circle cx="174.01" cy="431.66" r="1.6666666666666667" />
<circle cx="174.12" cy="430.67" r="1.6666666666666667" />
<circle cx="174.23" cy="429.75" r="1.6666666666666667" />
<circle cx="174.35" cy="430.63" r="1.6666666666666667" />
<circle cx="174.47" cy="431.73" r="1.6666666666666667" />
<circle cx="174.58" cy="430.24" r="1.6666666666666667" />
<circle cx="174.69" cy="429.91" r="1.6666666666666667" />
<circle cx="174.81" cy="429.69" r="1.6666666666666667" />
<circle cx="174.92" cy="430.37" r="1.6666666666666667" />
<circle cx="175.04" cy="430.98" r="1.6666666666666667" />
<circle cx="175.15" cy="430.82" r="1.6666666666666667" />
<circle cx="175.26" cy="430.05" r="1.6666666666666667" />
<circle cx="175.38" cy="430.06" r="1.6666666666666667" />
<circle cx="175.49" cy="429.51" r="1.6666666666666667" />
<circle cx="175.60" cy="430.01" r="1.6666666666666667" />
<circle cx="175.71" cy="430.07" r="1.6666666666666667" />
<circle cx="175.83" cy="430.47" r="1.6666666666666667" />
<circle cx="175.94" cy="430.22" r="1.6666666666666667" />
<circle cx="176.05" cy="430.20" r="1.6666666666666667" />
<circle cx="176.17" cy="429.92" r="1.6666666666666667" />
<circle cx="176.28" cy="430.20" r="1.6666666666666667" />
<circle cx="176.39" cy="429.92" r="1.6666666666666667" />
<circle cx="176.62" cy="430.66" r="1.6666666666666667" />
<circle cx="176.74" cy="431.03" r="1.6666666666666667" />
<circle cx="176.86" cy="431.81" r="1.6666666666666667" />
<circle cx="176.97" cy="431.03" r="1.6666666666666667" />
<circle cx="177.08" cy="429.39" r="1.6666666666666667" />
<circle cx="177.19" cy="428.54" r="1.6666666666666667" />
<circle cx="177.30" cy="428.97" r="1.6666666666666667" />
<circle cx="177.41" cy="429.58" r="1.6666666666666667" />
<circle cx="177.52" cy="429.76" r="1.6666666666666667" />
<circle cx="177.63" cy="430.04" r="1.6666666666666667" />
<circle cx="177.74" cy="429.36" r="1.6666666666666667" />
<circle cx="177.85" cy="428.08" r="1.6666666666666667" />
<circle cx="177.95" cy="428.22" r="1.6666666666666667" />
<circle cx="178.06" cy="427.29" r="1.6666666666666667" />
<circle cx="178.16" cy="427.52" r="1.6666666666666667" />
<circle cx="178.26" cy="427.58" r="1.6666666666666667" />
<circle cx="178.37" cy="428.57" r="1.6666666666666667" />
<circle cx="178.48" cy="428.67" r="1.6666666666666667" />
<circle cx="178.59" cy="428.43" r="1.6666666666666667" />
<circle cx="178.69" cy="428.71" r="1.6666666666666667" />
<circle cx="178.80" cy="427.73" r="1.6666666666666667" />
<circle cx="178.90" cy="427.98" r="1.6666666666666667" />
<circle cx="179.01" cy="428.17" r="1.6666666666666667" />
<circle cx="179.11" cy="428.15" r="1.6666666666666667" />
<circle cx="179.22" cy="429.34" r="1.6666666666666667" />
<circle cx="179.34" cy="430.03" r="1.6666666666666667" />
<circle cx="179.45" cy="429.98" r="1.6666666666666667" />
<circle cx="179.56" cy="428.80" r="1.6666666666666667" />
<circle cx="179.67" cy="429.28" r="1.6666666666666667" />
<circle cx="179.77" cy="428.90" r="1.6666666666666667" />
<circle cx="179.88" cy="427.81" r="1.6666666666666667" />
<circle cx="179.99" cy="428.69" r="1.6666666666666667" />
<circle cx="180.10" cy="429.33" r="1.6666666666666667" />
<circle cx="180.21" cy="429.24" r="1.6666666666666667" />
<circle cx="180.32" cy="429.07" r="1.6666666666666667" />
<circle cx="180.42" cy="428.81" r="1.6666666666666667" />
<circle cx="180.53" cy="428.35" r="1.6666666666666667" />
<circle cx="180.63" cy="427.96" r="1.6666666666666667" />
<circle cx="180.74" cy="428.02" r="1.6666666666666667" />
<circle cx="180.85" cy="429.80" r="1.6666666666666667" />
<circle cx="180.96" cy="428.73" r="1.6666666666666667" />
<circle cx="181.07" cy="428.98" r="1.6666666666666667" />
<circle cx="181.18" cy="429.28" r="1.6666666666666667" />
<circle cx="181.29" cy="429.72" r="1.6666666666666667" />
<circle cx="181.40" cy="428.37" r="1.6666666666666667" />
<circle cx="181.50" cy="428.41" r="1.6666666666666667" />
<circle cx="181.61" cy="427.94" r="1.6666666666666667" />
<circle cx="181.71" cy="427.72" r="1.6666666666666667" />
<circle cx="181.82" cy="427.75" r="1.6666666666666667" />
<circle cx="181.92" cy="428.37" r="1.6666666666666667" />
<circle cx="182.03" cy="427.67" r="1.6666666666666667" />
<circle cx="182.13" cy="427.22" r="1.6666666666666667" />
<circle cx="182.23" cy="426.39" r="1.6666666666666667" />
<circle cx="182.33" cy="425.79" r="1.6666666666666667" />
<circle cx="182.42" cy="426.32" r="1.6666666666666667" />
<circle cx="182.53" cy="427.61" r="1.6666666666666667" />
<circle cx="182.63" cy="428.21" r="1.6666666666666667" />
<circle cx="182.74" cy="428.51" r="1.6666666666666667" />
<circle cx="182.85" cy="428.01" r="1.6666666666666667" />
<circle cx="182.95" cy="427.28" r="1.6666666666666667" />
<circle cx="183.05" cy="426.31" r="1.6666666666666667" />
<circle cx="183.15" cy="426.34" r="1.6666666666666667" />
<circle cx="183.25" cy="425.99" r="1.6666666666666667" />
<circle cx="183.35" cy="426.37" r="1.6666666666666667" />
<circle cx="183.44" cy="425.21" r="1.6666666666666667" />
<circle cx="183.54" cy="426.81" r="1.6666666666666667" />
<circle cx="183.64" cy="427.51" r="1.6666666666666667" />
<circle cx="183.75" cy="426.65" r="1.6666666666666667" />
<circle cx="183.84" cy="426.18" r="1.6666666666666667" />
<circle cx="183.94" cy="426.54" r="1.6666666666666667" />
<circle cx="184.04" cy="425.77" r="1.6666666666666667" />
<circle cx="184.14" cy="426.17" r="1.6666666666666667" />
<circle cx="184.24" cy="426.67" r="1.6666666666666667" />
<circle cx="184.34" cy="426.49" r="1.6666666666666667" />
<circle cx="184.44" cy="426.39" r="1.6666666666666667" />
<circle cx="184.54" cy="425.89" r="1.6666666666666667" />
<circle cx="184.63" cy="425.51" r="1.6666666666666667" />
<circle cx="184.73" cy="426.15" r="1.6666666666666667" />
<circle cx="184.83" cy="425.51" r="1.6666666666666667" />
<circle cx="184.93" cy="426.05" r="1.6666666666666667" />
<circle cx="185.02" cy="425.20" r="1.6666666666666667" />
<circle cx="185.12" cy="425.07" r="1.6666666666666667" />
<circle cx="185.21" cy="424.54" r="1.6666666666666667" />
<circle cx="185.31" cy="424.78" r="1.6666666666666667" />
<circle cx="185.40" cy="425.78" r="1.6666666666666667" />
<circle cx="185.50" cy="425.30" r="1.6666666666666667" />
<circle cx="185.60" cy="425.45" r="1.6666666666666667" />
<circle cx="185.69" cy="425.24" r="1.6666666666666667" />
<circle cx="185.79" cy="425.32" r="1.6666666666666667" />
<circle cx="185.88" cy="425.07" r="1.6666666666666667" />
<circle cx="185.98" cy="425.18" r="1.6666666666666667" />
<circle cx="186.07" cy="424.90" r="1.6666666666666667" />
<circle cx="186.17" cy="425.79" r="1.6666666666666667" />
<circle cx="186.27" cy="425.20" r="1.6666666666666667" />
<circle cx="186.36" cy="425.51" r="1.6666666666666667" />
<circle cx="186.46" cy="425.63" r="1.6666666666666667" />
<circle cx="186.55" cy="424.83" r="1.6666666666666667" />
<circle cx="186.65" cy="424.95" r="1.6666666666666667" />
<circle cx="186.75" cy="425.95" r="1.6666666666666667" />
<circle cx="186.84" cy="425.37" r="1.6666666666666667" />
<circle cx="186.94" cy="425.45" r="1.6666666666666667" />
<circle cx="187.03" cy="425.13" r="1.6666666666666667" />
<circle cx="187.13" cy="425.62" r="1.6666666666666667" />
<circle cx="187.23" cy="425.58" r="1.6666666666666667" />
<circle cx="187.32" cy="425.31" r="1.6666666666666667" />
<circle cx="187.42" cy="424.65" r="1.6666666666666667" />
<circle cx="187.51" cy="425.56" r="1.6666666666666667" />
<circle cx="187.61" cy="425.71" r="1.6666666666666667" />
<circle cx="187.71" cy="424.85" r="1.6666666666666667" />
<circle cx="187.80" cy="425.62" r="1.6666666666666667" />
<circle cx="187.90" cy="425.21" r="1.6666666666666667" />
<circle cx="187.99" cy="425.35" r="1.6666666666666667" />
<circle cx="188.09" cy="425.11" r="1.6666666666666667" />
<circle cx="188.18" cy="424.92" r="1.6666666666666667" />
<circle cx="188.28" cy="425.00" r="1.6666666666666667" />
<circle cx="188.37" cy="424.71" r="1.6666666666666667" />
<circle cx="188.47" cy="425.27" r="1.6666666666666667" />
<circle cx="188.57" cy="425.92" r="1.6666666666666667" />
<circle cx="188.67" cy="425.98" r="1.6666666666666667" />
<circle cx="188.76" cy="425.49" r="1.6666666666666667" />
<circle cx="188.86" cy="425.82" r="1.6666666666666667" />
<circle cx="188.96" cy="426.09" r="1.6666666666666667" />
<circle cx="189.05" cy="424.53" r="1.6666666666666667" />
<circle cx="189.15" cy="425.27" r="1.6666666666666667" />
<circle cx="189.24" cy="423.40" r="1.6666666666666667" />
<circle cx="189.33" cy="425.03" r="1.6666666666666667" />
<circle cx="189.42" cy="424.30" r="1.6666666666666667" />
<circle cx="189.52" cy="425.09" r="1.6666666666666667" />
<circle cx="189.62" cy="425.39" r="1.6666666666666667" />
<circle cx="189.71" cy="425.48" r="1.6666666666666667" />
<circle cx="189.81" cy="425.47" r="1.6666666666666667" />
<circle cx="189.90" cy="424.97" r="1.6666666666666667" />
<circle cx="190.00" cy="425.24" r="1.6666666666666667" />
<circle cx="190.09" cy="424.84" r="1.6666666666666667" />
<circle cx="190.19" cy="425.83" r="1.6666666666666667" />
<circle cx="190.29" cy="425.08" r="1.6666666666666667" />
<circle cx="190.38" cy="425.13" r="1.6666666666666667" />
<circle cx="190.48" cy="425.51" r="1.6666666666666667" />
<circle cx="190.58" cy="426.05" r="1.6666666666666667" />
<circle cx="190.67" cy="425.19" r="1.6666666666666667" />
<circle cx="190.77" cy="425.28" r="1.6666666666666667" />
<circle cx="190.86" cy="425.29" r="1.6666666666666667" />
<circle cx="190.96" cy="424.83" r="1.6666666666666667" />
<circle cx="191.05" cy="425.32" r="1.6666666666666667" />
<circle cx="191.15" cy="424.67" r="1.6666666666666667" />
<circle cx="191.24" cy="424.68" r="1.6666666666666667" />
<circle cx="191.33" cy="424.25" r="1.6666666666666667" />
<circle cx="191.43" cy="424.51" r="1.6666666666666667" />
<circle cx="191.52" cy="425.34" r="1.6666666666666667" />
<circle cx="191.62" cy="425.45" r="1.6666666666666667" />
<circle cx="191.72" cy="425.24" r="1.6666666666666667" />
<circle cx="191.81" cy="425.96" r="1.6666666666666667" />
<circle cx="191.91" cy="426.19" r="1.6666666666666667" />
<circle cx="192.01" cy="426.03" r="1.6666666666666667" />
<circle cx="192.11" cy="425.74" r="1.6666666666666667" />
<circle cx="192.21" cy="425.56" r="1.6666666666666667" />
<circle cx="192.30" cy="425.44" r="1.6666666666666667" />
<circle cx="192.40" cy="425.14" r="1.6666666666666667" />
<circle cx="192.49" cy="425.19" r="1.6666666666666667" />
<circle cx="192.59" cy="425.37" r="1.6666666666666667" />
<circle cx="192.69" cy="426.43" r="1.6666666666666667" />
<circle cx="192.78" cy="425.34" r="1.6666666666666667" />
<circle cx="192.88" cy="425.61" r="1.6666666666666667" />
<circle cx="192.98" cy="425.33" r="1.6666666666666667" />
<circle cx="193.08" cy="425.92" r="1.6666666666666667" />
<circle cx="193.17" cy="424.99" r="1.6666666666666667" />
<circle cx="193.27" cy="425.42" r="1.6666666666666667" />
<circle cx="193.36" cy="425.56" r="1.6666666666666667" />
<circle cx="193.46" cy="425.71" r="1.6666666666666667" />
<circle cx="193.56" cy="426.17" r="1.6666666666666667" />
<circle cx="193.66" cy="425.70" r="1.6666666666666667" />
<circle cx="193.76" cy="426.17" r="1.6666666666666667" />
<circle cx="193.85" cy="425.46" r="1.6666666666666667" />
<circle cx="193.95" cy="425.89" r="1.6666666666666667" />
<circle cx="194.04" cy="425.21" r="1.6666666666666667" />
<circle cx="194.14" cy="426.26" r="1.6666666666666667" />
<circle cx="194.24" cy="425.80" r="1.6666666666666667" />
<circle cx="194.34" cy="425.45" r="1.6666666666666667" />
<circle cx="194.44" cy="425.70" r="1.6666666666666667" />
<circle cx="194.53" cy="424.70" r="1.6666666666666667" />
<circle cx="194.62" cy="424.60" r="1.6666666666666667" />
<circle cx="194.72" cy="424.65" r="1.6666666666666667" />
<circle cx="194.81" cy="424.84" r="1.6666666666666667" />
<circle cx="194.91" cy="425.13" r="1.6666666666666667" />
<circle cx="195.00" cy="425.96" r="1.6666666666666667" />
<circle cx="195.10" cy="425.11" r="1.6666666666666667" />
<circle cx="195.20" cy="426.25" r="1.6666666666666667" />
<circle cx="195.29" cy="424.58" r="1.6666666666666667" />
<circle cx="195.39" cy="426.12" r="1.6666666666666667" />
<circle cx="195.49" cy="425.58" r="1.6666666666666667" />
<circle cx="195.59" cy="426.12" r="1.6666666666666667" />
<circle cx="195.68" cy="425.32" r="1.6666666666666667" />
<circle cx="195.78" cy="425.41" r="1.6666666666666667" />
<circle cx="195.88" cy="425.98" r="1.6666666666666667" />
<circle cx="195.97" cy="425.76" r="1.6666666666666667" />
<circle cx="196.07" cy="426.39" r="1.6666666666666667" />
<circle cx="196.17" cy="425.18" r="1.6666666666666667" />
<circle cx="196.27" cy="425.76" r="1.6666666666666667" />
<circle cx="196.36" cy="425.41" r="1.6666666666666667" />
<circle cx="196.46" cy="424.95" r="1.6666666666666667" />
<circle cx="196.55" cy="425.05" r="1.6666666666666667" />
<circle cx="196.65" cy="425.93" r="1.6666666666666667" />
<circle cx="196.75" cy="425.59" r="1.6666666666666667" />
<circle cx="196.85" cy="426.56" r="1.6666666666666667" />
<circle cx="196.94" cy="425.21" r="1.6666666666666667" />
<circle cx="197.04" cy="426.19" r="1.6666666666666667" />
<circle cx="197.14" cy="425.46" r="1.6666666666666667" />
<circle cx="197.24" cy="425.80" r="1.6666666666666667" />
<circle cx="197.33" cy="425.22" r="1.6666666666666667" />
<circle cx="197.43" cy="425.93" r="1.6666666666666667" />
<circle cx="197.53" cy="426.02" r="1.6666666666666667" />
<circle cx="197.62" cy="425.46" r="1.6666666666666667" />
<circle cx="197.72" cy="426.31" r="1.6666666666666667" />
<circle cx="197.82" cy="425.77" r="1.6666666666666667" />
<circle cx="197.92" cy="426.36" r="1.6666666666666667" />
<circle cx="198.01" cy="424.78" r="1.6666666666666667" />
<circle cx="198.11" cy="425.67" r="1.6666666666666667" />
<circle cx="198.21" cy="424.94" r="1.6666666666666667" />
<circle cx="198.30" cy="426.25" r="1.6666666666666667" />
<circle cx="198.40" cy="425.19" r="1.6666666666666667" />
<circle cx="198.50" cy="426.32" r="1.6666666666666667" />
<circle cx="198.60" cy="425.98" r="1.6666666666666667" />
<circle cx="198.70" cy="426.18" r="1.6666666666666667" />
<circle cx="198.79" cy="425.86" r="1.6666666666666667" />
<circle cx="198.89" cy="425.64" r="1.6666666666666667" />
<circle cx="198.99" cy="425.77" r="1.6666666666666667" />
<circle cx="199.09" cy="426.37" r="1.6666666666666667" />
<circle cx="199.19" cy="426.29" r="1.6666666666666667" />
<circle cx="199.29" cy="426.56" r="1.6666666666666667" />
<circle cx="199.39" cy="426.97" r="1.6666666666666667" />
<circle cx="199.49" cy="426.42" r="1.6666666666666667" />
<circle cx="199.59" cy="427.01" r="1.6666666666666667" />
<circle cx="199.69" cy="425.92" r="1.6666666666666667" />
<circle cx="199.79" cy="427.08" r="1.6666666666666667" />
<circle cx="199.89" cy="426.71" r="1.6666666666666667" />
<circle cx="199.99" cy="427.27" r="1.6666666666666667" />
<circle cx="200.10" cy="427.66" r="1.6666666666666667" />
<circle cx="200.20" cy="426.71" r="1.6666666666666667" />
<circle cx="200.30" cy="426.81" r="1.6666666666666667" />
<circle cx="200.40" cy="426.74" r="1.6666666666666667" />
<circle cx="200.50" cy="427.89" r="1.6666666666666667" />
<circle cx="200.60" cy="426.73" r="1.6666666666666667" />
<circle cx="200.71" cy="427.62" r="1.6666666666666667" />
<circle cx="200.81" cy="427.21" r="1.6666666666666667" />
<circle cx="200.92" cy="427.82" r="1.6666666666666667" />
<circle cx="201.02" cy="427.50" r="1.6666666666666667" />
<circle cx="201.12" cy="427.87" r="1.6666666666666667" />
<circle cx="201.22" cy="427.11" r="1.6666666666666667" />
<circle cx="201.33" cy="427.37" r="1.6666666666666667" />
<circle cx="201.43" cy="426.62" r="1.6666666666666667" />
<circle cx="201.53" cy="426.64" r="1.6666666666666667" />
<circle cx="201.63" cy="426.93" r="1.6666666666666667" />
<circle cx="222.36" cy="431.36" r="1.6666666666666667" />
<circle cx="222.47" cy="431.69" r="1.6666666666666667" />
<circle cx="222.59" cy="431.00" r="1.6666666666666667" />
<circle cx="222.71" cy="431.92" r="1.6666666666666667" />
<circle cx="222.83" cy="430.87" r="1.6666666666666667" />
<circle cx="222.95" cy="431.85" r="1.6666666666666667" />
<circle cx="223.06" cy="431.36" r="1.6666666666666667" />
<circle cx="223.18" cy="431.45" r="1.6666666666666667" />
<circle cx="223.30" cy="432.11" r="1.6666666666666667" />
<circle cx="223.42" cy="432.21" r="1.6666666666666667" />
<circle cx="223.55" cy="431.98" r="1.6666666666666667" />
<circle cx="223.67" cy="431.83" r="1.6666666666666667" />
<circle cx="223.78" cy="431.77" r="1.6666666666666667" />
<circle cx="223.90" cy="431.15" r="1.6666666666666667" />
<circle cx="224.02" cy="431.81" r="1.6666666666666667" />
<circle cx="224.14" cy="431.41" r="1.6666666666666667" />
<circle cx="224.26" cy="432.31" r="1.6666666666666667" />
<circle cx="224.38" cy="431.62" r="1.6666666666666667" />
<circle cx="224.50" cy="432.22" r="1.6666666666666667" />
<circle cx="224.62" cy="431.81" r="1.6666666666666667" />
<circle cx="224.74" cy="432.06" r="1.6666666666666667" />
<circle cx="224.86" cy="432.52" r="1.6666666666666667" />
<circle cx="224.98" cy="431.59" r="1.6666666666666667" />
<circle cx="225.10" cy="432.27" r="1.6666666666666667" />
<circle cx="225.22" cy="431.61" r="1.6666666666666667" />
<circle cx="225.34" cy="431.48" r="1.6666666666666667" />
<circle cx="225.46" cy="431.33" r="1.6666666666666667" />
<circle cx="225.58" cy="432.20" r="1.6666666666666667" />
<circle cx="225.70" cy="431.70" r="1.6666666666666667" />
<circle cx="225.82" cy="432.38" r="1.6666666666666667" />
<circle cx="225.94" cy="432.55" r="1.6666666666666667" />
<circle cx="226.07" cy="432.70" r="1.6666666666666667" />
<circle cx="226.19" cy="432.15" r="1.6666666666666667" />
<circle cx="226.31" cy="432.08" r="1.6666666666666667" />
<circle cx="226.43" cy="432.89" r="1.6666666666666667" />
<circle cx="226.56" cy="432.31" r="1.6666666666666667" />
<circle cx="226.68" cy="432.83" r="1.6666666666666667" />
<circle cx="226.80" cy="432.39" r="1.6666666666666667" />
<circle cx="226.93" cy="432.67" r="1.6666666666666667" />
<circle cx="227.05" cy="432.28" r="1.6666666666666667" />
<circle cx="227.16" cy="431.31" r="1.6666666666666667" />
<circle cx="227.29" cy="432.76" r="1.6666666666666667" />
<circle cx="227.41" cy="431.53" r="1.6666666666666667" />
<circle cx="227.53" cy="432.67" r="1.6666666666666667" />
<circle cx="227.65" cy="431.85" r="1.6666666666666667" />
<circle cx="227.77" cy="432.87" r="1.6666666666666667" />
<circle cx="227.90" cy="432.96" r="1.6666666666666667" />
<circle cx="228.02" cy="433.04" r="1.6666666666666667" />
<circle cx="228.14" cy="432.12" r="1.6666666666666667" />
<circle cx="228.26" cy="432.06" r="1.6666666666666667" />
<circle cx="228.39" cy="432.87" r="1.6666666666666667" />
<circle cx="228.51" cy="432.46" r="1.6666666666666667" />
<circle cx="228.64" cy="433.20" r="1.6666666666666667" />
<circle cx="228.76" cy="431.92" r="1.6666666666666667" />
<circle cx="228.88" cy="432.68" r="1.6666666666666667" />
<circle cx="229.00" cy="431.68" r="1.6666666666666667" />
<circle cx="229.12" cy="431.83" r="1.6666666666666667" />
<circle cx="229.24" cy="431.73" r="1.6666666666666667" />
<circle cx="229.36" cy="432.21" r="1.6666666666666667" />
<circle cx="229.48" cy="432.28" r="1.6666666666666667" />
<circle cx="229.61" cy="432.89" r="1.6666666666666667" />
<circle cx="229.73" cy="432.21" r="1.6666666666666667" />
<circle cx="229.85" cy="431.68" r="1.6666666666666667" />
<circle cx="229.97" cy="432.78" r="1.6666666666666667" />
<circle cx="230.09" cy="432.44" r="1.6666666666666667" />
<circle cx="230.22" cy="432.84" r="1.6666666666666667" />
<circle cx="230.34" cy="432.61" r="1.6666666666666667" />
<circle cx="230.46" cy="432.89" r="1.6666666666666667" />
<circle cx="230.58" cy="431.96" r="1.6666666666666667" />
<circle cx="230.71" cy="432.87" r="1.6666666666666667" />
<circle cx="230.83" cy="433.23" r="1.6666666666666667" />
<circle cx="230.96" cy="432.75" r="1.6666666666666667" />
<circle cx="231.08" cy="433.55" r="1.6666666666666667" />
<circle cx="231.21" cy="433.29" r="1.6666666666666667" />
<circle cx="231.34" cy="433.62" r="1.6666666666666667" />
<circle cx="231.46" cy="433.02" r="1.6666666666666667" />
<circle cx="231.59" cy="433.77" r="1.6666666666666667" />
<circle cx="231.71" cy="433.06" r="1.6666666666666667" />
<circle cx="231.84" cy="433.63" r="1.6666666666666667" />
<circle cx="231.97" cy="433.43" r="1.6666666666666667" />
<circle cx="232.09" cy="433.12" r="1.6666666666666667" />
<circle cx="232.22" cy="433.50" r="1.6666666666666667" />
<circle cx="232.34" cy="432.34" r="1.6666666666666667" />
<circle cx="232.46" cy="432.50" r="1.6666666666666667" />
<circle cx="232.59" cy="434.01" r="1.6666666666666667" />
<circle cx="232.72" cy="433.33" r="1.6666666666666667" />
<circle cx="232.85" cy="433.95" r="1.6666666666666667" />
<circle cx="232.98" cy="434.03" r="1.6666666666666667" />
<circle cx="233.10" cy="433.85" r="1.6666666666666667" />
<circle cx="233.23" cy="433.86" r="1.6666666666666667" />
<circle cx="233.36" cy="432.83" r="1.6666666666666667" />
<circle cx="233.49" cy="434.08" r="1.6666666666666667" />
<circle cx="233.62" cy="434.13" r="1.6666666666666667" />
<circle cx="233.74" cy="433.37" r="1.6666666666666667" />
<circle cx="233.87" cy="433.58" r="1.6666666666666667" />
<circle cx="234.00" cy="433.99" r="1.6666666666666667" />
<circle cx="234.13" cy="433.70" r="1.6666666666666667" />
<circle cx="234.25" cy="433.15" r="1.6666666666666667" />
<circle cx="234.38" cy="433.62" r="1.6666666666666667" />
<circle cx="234.51" cy="434.22" r="1.6666666666666667" />
<circle cx="234.64" cy="433.86" r="1.6666666666666667" />
<circle cx="234.77" cy="434.31" r="1.6666666666666667" />
<circle cx="234.89" cy="433.28" r="1.6666666666666667" />
<circle cx="235.02" cy="434.31" r="1.6666666666666667" />
<circle cx="235.15" cy="433.27" r="1.6666666666666667" />
<circle cx="235.28" cy="433.98" r="1.6666666666666667" />
<circle cx="235.41" cy="433.96" r="1.6666666666666667" />
<circle cx="235.54" cy="434.59" r="1.6666666666666667" />
<circle cx="235.67" cy="433.61" r="1.6666666666666667" />
<circle cx="235.79" cy="433.55" r="1.6666666666666667" />
<circle cx="235.92" cy="434.48" r="1.6666666666666667" />
<circle cx="236.05" cy="434.29" r="1.6666666666666667" />
<circle cx="236.19" cy="434.68" r="1.6666666666666667" />
<circle cx="236.31" cy="434.11" r="1.6666666666666667" />
<circle cx="236.44" cy="434.11" r="1.6666666666666667" />
<circle cx="236.58" cy="434.65" r="1.6666666666666667" />
<circle cx="236.70" cy="433.66" r="1.6666666666666667" />
<circle cx="236.83" cy="434.39" r="1.6666666666666667" />
<circle cx="236.96" cy="434.11" r="1.6666666666666667" />
<circle cx="237.10" cy="434.68" r="1.6666666666666667" />
<circle cx="237.23" cy="434.85" r="1.6666666666666667" />
<circle cx="237.36" cy="435.58" r="1.6666666666666667" />
<circle cx="237.50" cy="434.80" r="1.6666666666666667" />
<circle cx="237.63" cy="435.02" r="1.6666666666666667" />
<circle cx="237.76" cy="435.14" r="1.6666666666666667" />
<circle cx="237.90" cy="434.80" r="1.6666666666666667" />
<circle cx="238.03" cy="435.30" r="1.6666666666666667" />
<circle cx="238.17" cy="435.57" r="1.6666666666666667" />
<circle cx="238.30" cy="435.67" r="1.6666666666666667" />
<circle cx="238.43" cy="434.21" r="1.6666666666666667" />
<circle cx="238.57" cy="435.33" r="1.6666666666666667" />
<circle cx="238.70" cy="434.62" r="1.6666666666666667" />
<circle cx="238.83" cy="434.82" r="1.6666666666666667" />
<circle cx="238.97" cy="434.73" r="1.6666666666666667" />
<circle cx="239.10" cy="434.33" r="1.6666666666666667" />
<circle cx="239.23" cy="434.77" r="1.6666666666666667" />
<circle cx="239.36" cy="433.81" r="1.6666666666666667" />
<circle cx="239.49" cy="434.24" r="1.6666666666666667" />
<circle cx="239.62" cy="434.58" r="1.6666666666666667" />
<circle cx="239.75" cy="434.83" r="1.6666666666666667" />
<circle cx="239.88" cy="434.52" r="1.6666666666666667" />
<circle cx="240.02" cy="435.66" r="1.6666666666666667" />
<circle cx="240.15" cy="434.59" r="1.6666666666666667" />
<circle cx="240.28" cy="434.04" r="1.6666666666666667" />
<circle cx="240.41" cy="435.61" r="1.6666666666666667" />
<circle cx="240.55" cy="435.35" r="1.6666666666666667" />
<circle cx="240.69" cy="436.05" r="1.6666666666666667" />
<circle cx="240.82" cy="434.78" r="1.6666666666666667" />
<circle cx="240.96" cy="436.53" r="1.6666666666666667" />
<circle cx="241.10" cy="435.52" r="1.6666666666666667" />
<circle cx="241.23" cy="435.92" r="1.6666666666666667" />
<circle cx="241.37" cy="435.51" r="1.6666666666666667" />
<circle cx="241.51" cy="436.28" r="1.6666666666666667" />
<circle cx="241.65" cy="435.46" r="1.6666666666666667" />
<circle cx="241.78" cy="435.56" r="1.6666666666666667" />
<circle cx="241.91" cy="434.93" r="1.6666666666666667" />
<circle cx="242.05" cy="435.48" r="1.6666666666666667" />
<circle cx="242.19" cy="437.51" r="1.6666666666666667" />
<circle cx="242.33" cy="435.17" r="1.6666666666666667" />
<circle cx="242.47" cy="435.87" r="1.6666666666666667" />
<circle cx="242.60" cy="435.67" r="1.6666666666666667" />
<circle cx="242.74" cy="436.42" r="1.6666666666666667" />
<circle cx="242.88" cy="435.15" r="1.6666666666666667" />
<circle cx="243.02" cy="436.49" r="1.6666666666666667" />
<circle cx="243.16" cy="437.62" r="1.6666666666666667" />
<circle cx="243.30" cy="436.43" r="1.6666666666666667" />
<circle cx="243.45" cy="437.36" r="1.6666666666666667" />
<circle cx="243.58" cy="435.35" r="1.6666666666666667" />
<circle cx="243.72" cy="436.78" r="1.6666666666666667" />
<circle cx="243.87" cy="436.54" r="1.6666666666666667" />
<circle cx="244.00" cy="436.31" r="1.6666666666666667" />
<circle cx="244.14" cy="435.68" r="1.6666666666666667" />
<circle cx="244.28" cy="436.12" r="1.6666666666666667" />
<circle cx="244.42" cy="435.78" r="1.6666666666666667" />
<circle cx="244.55" cy="435.57" r="1.6666666666666667" />
<circle cx="244.69" cy="435.78" r="1.6666666666666667" />
<circle cx="244.83" cy="436.18" r="1.6666666666666667" />
<circle cx="244.97" cy="436.84" r="1.6666666666666667" />
<circle cx="245.11" cy="436.27" r="1.6666666666666667" />
<circle cx="245.25" cy="436.70" r="1.6666666666666667" />
<circle cx="245.39" cy="436.72" r="1.6666666666666667" />
<circle cx="245.53" cy="436.34" r="1.6666666666666667" />
<circle cx="245.67" cy="435.83" r="1.6666666666666667" />
<circle cx="245.81" cy="436.46" r="1.6666666666666667" />
<circle cx="245.95" cy="436.04" r="1.6666666666666667" />
<circle cx="246.09" cy="435.88" r="1.6666666666666667" />
<circle cx="246.22" cy="436.27" r="1.6666666666666667" />
<circle cx="246.37" cy="437.10" r="1.6666666666666667" />
<circle cx="246.51" cy="437.05" r="1.6666666666666667" />
<circle cx="246.65" cy="436.32" r="1.6666666666666667" />
<circle cx="246.79" cy="437.11" r="1.6666666666666667" />
<circle cx="246.94" cy="436.64" r="1.6666666666666667" />
<circle cx="247.07" cy="436.05" r="1.6666666666666667" />
<circle cx="247.22" cy="436.98" r="1.6666666666666667" />
<circle cx="247.36" cy="436.74" r="1.6666666666666667" />
<circle cx="247.50" cy="436.70" r="1.6666666666666667" />
<circle cx="247.64" cy="436.26" r="1.6666666666666667" />
<circle cx="247.79" cy="437.92" r="1.6666666666666667" />
<circle cx="247.93" cy="437.26" r="1.6666666666666667" />
<circle cx="248.07" cy="436.37" r="1.6666666666666667" />
<circle cx="248.22" cy="438.36" r="1.6666666666666667" />
<circle cx="248.36" cy="437.47" r="1.6666666666666667" />
<circle cx="248.51" cy="438.08" r="1.6666666666666667" />
<circle cx="248.66" cy="437.78" r="1.6666666666666667" />
<circle cx="248.80" cy="437.44" r="1.6666666666666667" />
<circle cx="248.95" cy="437.81" r="1.6666666666666667" />
<circle cx="249.10" cy="438.35" r="1.6666666666666667" />
<circle cx="249.25" cy="437.77" r="1.6666666666666667" />
<circle cx="249.39" cy="437.13" r="1.6666666666666667" />
<circle cx="249.54" cy="437.63" r="1.6666666666666667" />
<circle cx="249.67" cy="436.13" r="1.6666666666666667" />
<circle cx="249.82" cy="437.23" r="1.6666666666666667" />
<circle cx="249.96" cy="436.77" r="1.6666666666666667" />
<circle cx="250.11" cy="438.60" r="1.6666666666666667" />
<circle cx="250.25" cy="437.12" r="1.6666666666666667" />
<circle cx="250.40" cy="436.99" r="1.6666666666666667" />
<circle cx="250.54" cy="437.87" r="1.6666666666666667" />
<circle cx="250.69" cy="437.71" r="1.6666666666666667" />
<circle cx="250.84" cy="437.84" r="1.6666666666666667" />
<circle cx="250.99" cy="438.46" r="1.6666666666666667" />
<circle cx="251.13" cy="436.96" r="1.6666666666666667" />
<circle cx="251.27" cy="437.02" r="1.6666666666666667" />
<circle cx="251.42" cy="438.15" r="1.6666666666666667" />
<circle cx="251.56" cy="436.87" r="1.6666666666666667" />
<circle cx="251.71" cy="437.44" r="1.6666666666666667" />
<circle cx="251.86" cy="438.41" r="1.6666666666666667" />
<circle cx="252.01" cy="437.83" r="1.6666666666666667" />
<circle cx="252.15" cy="437.83" r="1.6666666666666667" />
<circle cx="252.30" cy="437.88" r="1.6666666666666667" />
<circle cx="252.45" cy="437.81" r="1.6666666666666667" />
<circle cx="252.60" cy="438.49" r="1.6666666666666667" />
<circle cx="252.74" cy="438.02" r="1.6666666666666667" />
<circle cx="252.89" cy="437.91" r="1.6666666666666667" />
<circle cx="253.03" cy="436.99" r="1.6666666666666667" />
<circle cx="253.18" cy="437.87" r="1.6666666666666667" />
<circle cx="253.34" cy="439.06" r="1.6666666666666667" />
<circle cx="253.49" cy="438.90" r="1.6666666666666667" />
<circle cx="253.64" cy="438.33" r="1.6666666666666667" />
<circle cx="253.78" cy="438.07" r="1.6666666666666667" />
<circle cx="253.93" cy="438.39" r="1.6666666666666667" />
<circle cx="254.09" cy="439.21" r="1.6666666666666667" />
<circle cx="254.25" cy="439.75" r="1.6666666666666667" />
<circle cx="254.40" cy="439.21" r="1.6666666666666667" />
<circle cx="254.55" cy="439.45" r="1.6666666666666667" />
<circle cx="254.71" cy="439.28" r="1.6666666666666667" />
<circle cx="254.86" cy="438.29" r="1.6666666666666667" />
<circle cx="255.01" cy="439.09" r="1.6666666666666667" />
<circle cx="255.16" cy="438.60" r="1.6666666666666667" />
<circle cx="255.32" cy="439.00" r="1.6666666666666667" />
<circle cx="255.47" cy="438.65" r="1.6666666666666667" />
<circle cx="255.62" cy="439.06" r="1.6666666666666667" />
<circle cx="255.77" cy="438.47" r="1.6666666666666667" />
<circle cx="255.92" cy="438.62" r="1.6666666666666667" />
<circle cx="256.07" cy="439.18" r="1.6666666666666667" />
<circle cx="256.22" cy="438.12" r="1.6666666666666667" />
<circle cx="256.37" cy="438.79" r="1.6666666666666667" />
<circle cx="256.52" cy="437.87" r="1.6666666666666667" />
<circle cx="256.67" cy="438.36" r="1.6666666666666667" />
<circle cx="256.82" cy="439.04" r="1.6666666666666667" />
<circle cx="256.98" cy="438.83" r="1.6666666666666667" />
<circle cx="257.13" cy="439.57" r="1.6666666666666667" />
<circle cx="257.29" cy="439.26" r="1.6666666666666667" />
<circle cx="257.44" cy="439.45" r="1.6666666666666667" />
<circle cx="257.60" cy="439.48" r="1.6666666666666667" />
<circle cx="257.75" cy="439.09" r="1.6666666666666667" />
<circle cx="257.91" cy="439.52" r="1.6666666666666667" />
<circle cx="258.06" cy="438.44" r="1.6666666666666667" />
<circle cx="258.21" cy="439.16" r="1.6666666666666667" />
<circle cx="258.36" cy="438.88" r="1.6666666666666667" />
<circle cx="258.52" cy="439.90" r="1.6666666666666667" />
<circle cx="258.67" cy="438.99" r="1.6666666666666667" />
<circle cx="258.99" cy="440.17" r="1.6666666666666667" />
<circle cx="259.14" cy="439.38" r="1.6666666666666667" />
<circle cx="259.30" cy="439.47" r="1.6666666666666667" />
<circle cx="259.46" cy="439.83" r="1.6666666666666667" />
<circle cx="259.61" cy="439.84" r="1.6666666666666667" />
<circle cx="259.77" cy="440.08" r="1.6666666666666667" />
<circle cx="259.93" cy="439.89" r="1.6666666666666667" />
<circle cx="260.08" cy="439.62" r="1.6666666666666667" />
<circle cx="260.24" cy="440.00" r="1.6666666666666667" />
<circle cx="260.40" cy="439.92" r="1.6666666666666667" />
<circle cx="260.56" cy="440.40" r="1.6666666666666667" />
<circle cx="260.72" cy="439.48" r="1.6666666666666667" />
<circle cx="260.88" cy="440.21" r="1.6666666666666667" />
<circle cx="261.03" cy="439.79" r="1.6666666666666667" />
<circle cx="261.20" cy="441.28" r="1.6666666666666667" />
<circle cx="261.36" cy="440.51" r="1.6666666666666667" />
<circle cx="261.52" cy="439.86" r="1.6666666666666667" />
<circle cx="261.68" cy="441.00" r="1.6666666666666667" />
<circle cx="261.84" cy="440.89" r="1.6666666666666667" />
<circle cx="262.01" cy="440.93" r="1.6666666666666667" />
<circle cx="262.18" cy="442.37" r="1.6666666666666667" />
<circle cx="262.34" cy="441.21" r="1.6666666666666667" />
<circle cx="262.51" cy="441.68" r="1.6666666666666667" />
<circle cx="262.68" cy="441.83" r="1.6666666666666667" />
<circle cx="262.84" cy="441.52" r="1.6666666666666667" />
<circle cx="263.02" cy="442.44" r="1.6666666666666667" />
<circle cx="263.18" cy="441.31" r="1.6666666666666667" />
<circle cx="263.34" cy="440.49" r="1.6666666666666667" />
<circle cx="263.51" cy="441.40" r="1.6666666666666667" />
<circle cx="263.67" cy="441.38" r="1.6666666666666667" />
<circle cx="263.84" cy="441.99" r="1.6666666666666667" />
<circle cx="264.01" cy="442.07" r="1.6666666666666667" />
<circle cx="264.18" cy="442.00" r="1.6666666666666667" />
<circle cx="264.35" cy="442.43" r="1.6666666666666667" />
<circle cx="264.52" cy="441.78" r="1.6666666666666667" />
<circle cx="264.69" cy="441.64" r="1.6666666666666667" />
<circle cx="264.86" cy="441.46" r="1.6666666666666667" />
<circle cx="265.02" cy="441.35" r="1.6666666666666667" />
<circle cx="265.19" cy="441.62" r="1.6666666666666667" />
<circle cx="265.36" cy="442.27" r="1.6666666666666667" />
<circle cx="265.53" cy="442.55" r="1.6666666666666667" />
<circle cx="265.71" cy="442.73" r="1.6666666666666667" />
<circle cx="265.88" cy="442.33" r="1.6666666666666667" />
<circle cx="266.05" cy="443.29" r="1.6666666666666667" />
<circle cx="266.23" cy="443.37" r="1.6666666666666667" />
<circle cx="266.41" cy="443.18" r="1.6666666666666667" />
<circle cx="266.58" cy="442.69" r="1.6666666666666667" />
<circle cx="266.76" cy="443.05" r="1.6666666666666667" />
<circle cx="266.93" cy="442.63" r="1.6666666666666667" />
<circle cx="267.10" cy="442.80" r="1.6666666666666667" />
<circle cx="267.29" cy="444.88" r="1.6666666666666667" />
<circle cx="267.48" cy="444.63" r="1.6666666666666667" />
<circle cx="267.66" cy="444.32" r="1.6666666666666667" />
<circle cx="267.85" cy="445.56" r="1.6666666666666667" />
<circle cx="268.04" cy="444.69" r="1.6666666666666667" />
<circle cx="268.22" cy="444.31" r="1.6666666666666667" />
<circle cx="268.40" cy="444.38" r="1.6666666666666667" />
<circle cx="268.58" cy="443.94" r="1.6666666666666667" />
<circle cx="268.76" cy="443.97" r="1.6666666666666667" />
<circle cx="268.95" cy="444.72" r="1.6666666666666667" />
<circle cx="269.14" cy="445.36" r="1.6666666666666667" />
<circle cx="269.32" cy="444.33" r="1.6666666666666667" />
<circle cx="269.50" cy="443.67" r="1.6666666666666667" />
<circle cx="269.68" cy="444.15" r="1.6666666666666667" />
<circle cx="269.86" cy="443.53" r="1.6666666666666667" />
<circle cx="270.04" cy="442.97" r="1.6666666666666667" />
<circle cx="270.22" cy="444.03" r="1.6666666666666667" />
<circle cx="270.40" cy="443.80" r="1.6666666666666667" />
<circle cx="270.57" cy="442.70" r="1.6666666666666667" />
<circle cx="270.75" cy="443.50" r="1.6666666666666667" />
<circle cx="270.93" cy="443.37" r="1.6666666666666667" />
<circle cx="271.11" cy="443.91" r="1.6666666666666667" />
<circle cx="271.29" cy="443.61" r="1.6666666666666667" />
<circle cx="271.47" cy="444.38" r="1.6666666666666667" />
<circle cx="271.65" cy="444.19" r="1.6666666666666667" />
<circle cx="271.83" cy="443.77" r="1.6666666666666667" />
<circle cx="272.01" cy="443.70" r="1.6666666666666667" />
<circle cx="272.19" cy="443.89" r="1.6666666666666667" />
<circle cx="272.37" cy="443.23" r="1.6666666666666667" />
<circle cx="272.55" cy="443.56" r="1.6666666666666667" />
<circle cx="272.73" cy="444.32" r="1.6666666666666667" />
<circle cx="272.92" cy="444.55" r="1.6666666666666667" />
<circle cx="273.10" cy="443.92" r="1.6666666666666667" />
<circle cx="273.28" cy="443.89" r="1.6666666666666667" />
<circle cx="273.46" cy="443.43" r="1.6666666666666667" />
<circle cx="273.63" cy="442.90" r="1.6666666666666667" />
<circle cx="273.81" cy="443.01" r="1.6666666666666667" />
<circle cx="273.98" cy="443.52" r="1.6666666666666667" />
<circle cx="274.16" cy="443.87" r="1.6666666666666667" />
<circle cx="274.35" cy="444.31" r="1.6666666666666667" />
<circle cx="274.52" cy="443.38" r="1.6666666666666667" />
<circle cx="274.71" cy="444.70" r="1.6666666666666667" />
<circle cx="274.89" cy="444.47" r="1.6666666666666667" />
<circle cx="275.08" cy="444.35" r="1.6666666666666667" />
<circle cx="275.26" cy="443.80" r="1.6666666666666667" />
<circle cx="275.44" cy="443.43" r="1.6666666666666667" />
<circle cx="275.62" cy="444.11" r="1.6666666666666667" />
<circle cx="275.80" cy="444.95" r="1.6666666666666667" />
<circle cx="275.99" cy="444.12" r="1.6666666666666667" />
<circle cx="276.17" cy="444.41" r="1.6666666666666667" />
<circle cx="276.36" cy="445.54" r="1.6666666666666667" />
<circle cx="276.55" cy="445.12" r="1.6666666666666667" />
<circle cx="276.73" cy="444.57" r="1.6666666666666667" />
<circle cx="276.92" cy="444.64" r="1.6666666666666667" />
<circle cx="277.10" cy="443.55" r="1.6666666666666667" />
<circle cx="277.28" cy="444.79" r="1.6666666666666667" />
<circle cx="277.48" cy="445.75" r="1.6666666666666667" />
<circle cx="277.67" cy="445.18" r="1.6666666666666667" />
<circle cx="277.85" cy="445.04" r="1.6666666666666667" />
<circle cx="278.04" cy="445.32" r="1.6666666666666667" />
<circle cx="278.23" cy="444.80" r="1.6666666666666667" />
<circle cx="278.42" cy="445.62" r="1.6666666666666667" />
<circle cx="278.61" cy="445.07" r="1.6666666666666667" />
<circle cx="278.80" cy="445.14" r="1.6666666666666667" />
<circle cx="278.99" cy="445.14" r="1.6666666666666667" />
<circle cx="279.17" cy="445.19" r="1.6666666666666667" />
<circle cx="279.37" cy="445.80" r="1.6666666666666667" />
<circle cx="279.56" cy="445.48" r="1.6666666666666667" />
<circle cx="279.74" cy="444.53" r="1.6666666666666667" />
<circle cx="279.93" cy="445.87" r="1.6666666666666667" />
<circle cx="280.13" cy="446.02" r="1.6666666666666667" />
<circle cx="280.31" cy="444.73" r="1.6666666666666667" />
<circle cx="280.50" cy="444.32" r="1.6666666666666667" />
<circle cx="280.69" cy="446.11" r="1.6666666666666667" />
<circle cx="280.89" cy="446.05" r="1.6666666666666667" />
<circle cx="281.09" cy="446.71" r="1.6666666666666667" />
<circle cx="281.28" cy="445.94" r="1.6666666666666667" />
<circle cx="281.47" cy="445.88" r="1.6666666666666667" />
<circle cx="281.67" cy="446.98" r="1.6666666666666667" />
<circle cx="281.87" cy="446.83" r="1.6666666666666667" />
<circle cx="282.07" cy="446.32" r="1.6666666666666667" />
<circle cx="282.26" cy="445.59" r="1.6666666666666667" />
<circle cx="282.46" cy="447.00" r="1.6666666666666667" />
<circle cx="282.66" cy="447.34" r="1.6666666666666667" />
<circle cx="282.86" cy="446.44" r="1.6666666666666667" />
<circle cx="283.06" cy="446.91" r="1.6666666666666667" />
<circle cx="283.26" cy="446.25" r="1.6666666666666667" />
<circle cx="283.45" cy="446.27" r="1.6666666666666667" />
<circle cx="283.66" cy="447.31" r="1.6666666666666667" />
<circle cx="283.85" cy="446.81" r="1.6666666666666667" />
<circle cx="284.05" cy="446.19" r="1.6666666666666667" />
<circle cx="284.25" cy="446.95" r="1.6666666666666667" />
<circle cx="284.45" cy="446.48" r="1.6666666666666667" />
<circle cx="284.65" cy="446.76" r="1.6666666666666667" />
<circle cx="284.85" cy="447.30" r="1.6666666666666667" />
<circle cx="285.05" cy="447.71" r="1.6666666666666667" />
<circle cx="285.25" cy="446.77" r="1.6666666666666667" />
<circle cx="285.46" cy="447.04" r="1.6666666666666667" />
<circle cx="285.65" cy="446.13" r="1.6666666666666667" />
<circle cx="285.85" cy="446.98" r="1.6666666666666667" />
<circle cx="286.06" cy="448.65" r="1.6666666666666667" />
<circle cx="286.27" cy="447.56" r="1.6666666666666667" />
<circle cx="286.47" cy="447.48" r="1.6666666666666667" />
<circle cx="286.68" cy="447.49" r="1.6666666666666667" />
<circle cx="286.89" cy="448.29" r="1.6666666666666667" />
<circle cx="287.08" cy="446.42" r="1.6666666666666667" />
<circle cx="287.28" cy="445.96" r="1.6666666666666667" />
<circle cx="287.48" cy="446.98" r="1.6666666666666667" />
<circle cx="287.68" cy="447.96" r="1.6666666666666667" />
<circle cx="287.89" cy="447.62" r="1.6666666666666667" />
<circle cx="288.10" cy="448.28" r="1.6666666666666667" />
<circle cx="288.31" cy="447.88" r="1.6666666666666667" />
<circle cx="288.51" cy="447.09" r="1.6666666666666667" />
<circle cx="288.71" cy="447.67" r="1.6666666666666667" />
<circle cx="288.91" cy="447.17" r="1.6666666666666667" />
<circle cx="289.11" cy="446.81" r="1.6666666666666667" />
<circle cx="289.33" cy="448.80" r="1.6666666666666667" />
<circle cx="289.53" cy="447.67" r="1.6666666666666667" />
<circle cx="289.74" cy="447.97" r="1.6666666666666667" />
<circle cx="289.95" cy="448.35" r="1.6666666666666667" />
<circle cx="290.16" cy="448.50" r="1.6666666666666667" />
<circle cx="290.37" cy="448.18" r="1.6666666666666667" />
<circle cx="290.58" cy="447.90" r="1.6666666666666667" />
<circle cx="290.79" cy="449.01" r="1.6666666666666667" />
<circle cx="291.00" cy="447.49" r="1.6666666666666667" />
<circle cx="291.21" cy="449.49" r="1.6666666666666667" />
<circle cx="291.44" cy="450.17" r="1.6666666666666667" />
<circle cx="291.66" cy="449.41" r="1.6666666666666667" />
<circle cx="291.87" cy="448.80" r="1.6666666666666667" />
<circle cx="292.09" cy="449.66" r="1.6666666666666667" />
<circle cx="292.30" cy="449.04" r="1.6666666666666667" />
<circle cx="292.51" cy="448.35" r="1.6666666666666667" />
<circle cx="292.73" cy="448.85" r="1.6666666666666667" />
<circle cx="292.95" cy="449.30" r="1.6666666666666667" />
<circle cx="293.37" cy="449.35" r="1.6666666666666667" />
<circle cx="293.59" cy="449.25" r="1.6666666666666667" />
<circle cx="293.81" cy="449.34" r="1.6666666666666667" />
<circle cx="294.02" cy="448.82" r="1.6666666666666667" />
<circle cx="294.24" cy="449.12" r="1.6666666666666667" />
<circle cx="294.46" cy="449.65" r="1.6666666666666667" />
<circle cx="294.67" cy="448.98" r="1.6666666666666667" />
<circle cx="294.89" cy="449.13" r="1.6666666666666667" />
<circle cx="295.10" cy="449.38" r="1.6666666666666667" />
<circle cx="295.32" cy="449.34" r="1.6666666666666667" />
<circle cx="295.54" cy="449.86" r="1.6666666666666667" />
<circle cx="295.76" cy="449.03" r="1.6666666666666667" />
<circle cx="295.98" cy="449.81" r="1.6666666666666667" />
<circle cx="296.20" cy="449.90" r="1.6666666666666667" />
<circle cx="296.43" cy="450.40" r="1.6666666666666667" />
<circle cx="296.65" cy="450.61" r="1.6666666666666667" />
<circle cx="296.88" cy="450.78" r="1.6666666666666667" />
<circle cx="297.11" cy="450.72" r="1.6666666666666667" />
<circle cx="297.34" cy="451.29" r="1.6666666666666667" />
<circle cx="297.57" cy="450.49" r="1.6666666666666667" />
<circle cx="297.80" cy="451.01" r="1.6666666666666667" />
<circle cx="298.03" cy="451.15" r="1.6666666666666667" />
<circle cx="298.26" cy="451.76" r="1.6666666666666667" />
<circle cx="298.50" cy="452.21" r="1.6666666666666667" />
<circle cx="298.74" cy="452.21" r="1.6666666666666667" />
<circle cx="298.99" cy="453.01" r="1.6666666666666667" />
<circle cx="299.24" cy="452.96" r="1.6666666666666667" />
<circle cx="299.48" cy="452.96" r="1.6666666666666667" />
<circle cx="299.73" cy="453.78" r="1.6666666666666667" />
<circle cx="299.99" cy="454.03" r="1.6666666666666667" />
<circle cx="300.24" cy="453.69" r="1.6666666666666667" />
<circle cx="300.50" cy="454.17" r="1.6666666666666667" />
<circle cx="300.76" cy="454.53" r="1.6666666666666667" />
<circle cx="301.01" cy="454.11" r="1.6666666666666667" />
<circle cx="301.27" cy="454.31" r="1.6666666666666667" />
<circle cx="301.53" cy="454.69" r="1.6666666666666667" />
<circle cx="301.79" cy="454.49" r="1.6666666666666667" />
<circle cx="302.05" cy="454.65" r="1.6666666666666667" />
<circle cx="302.31" cy="454.62" r="1.6666666666666667" />
<circle cx="302.57" cy="454.20" r="1.6666666666666667" />
<circle cx="302.82" cy="454.08" r="1.6666666666666667" />
<circle cx="303.08" cy="453.88" r="1.6666666666666667" />
<circle cx="303.33" cy="453.94" r="1.6666666666666667" />
<circle cx="303.59" cy="454.40" r="1.6666666666666667" />
<circle cx="303.85" cy="454.19" r="1.6666666666666667" />
<circle cx="304.11" cy="454.67" r="1.6666666666666667" />
<circle cx="304.37" cy="454.69" r="1.6666666666666667" />
<circle cx="304.63" cy="454.39" r="1.6666666666666667" />
<circle cx="304.89" cy="455.21" r="1.6666666666666667" />
<circle cx="305.15" cy="454.30" r="1.6666666666666667" />
<circle cx="305.41" cy="454.52" r="1.6666666666666667" />
<circle cx="305.67" cy="454.45" r="1.6666666666666667" />
<circle cx="305.93" cy="454.67" r="1.6666666666666667" />
<circle cx="306.18" cy="453.45" r="1.6666666666666667" />
<circle cx="306.43" cy="453.95" r="1.6666666666666667" />
<circle cx="306.69" cy="454.82" r="1.6666666666666667" />
<circle cx="306.95" cy="454.68" r="1.6666666666666667" />
<circle cx="307.22" cy="454.93" r="1.6666666666666667" />
<circle cx="307.48" cy="455.37" r="1.6666666666666667" />
<circle cx="307.74" cy="453.97" r="1.6666666666666667" />
<circle cx="307.99" cy="453.89" r="1.6666666666666667" />
<circle cx="308.26" cy="455.16" r="1.6666666666666667" />
<circle cx="308.52" cy="455.06" r="1.6666666666666667" />
<circle cx="308.79" cy="455.33" r="1.6666666666666667" />
<circle cx="309.06" cy="456.20" r="1.6666666666666667" />
<circle cx="309.33" cy="455.77" r="1.6666666666666667" />
<circle cx="309.61" cy="456.37" r="1.6666666666666667" />
<circle cx="309.88" cy="455.88" r="1.6666666666666667" />
<circle cx="310.15" cy="456.16" r="1.6666666666666667" />
<circle cx="310.44" cy="457.13" r="1.6666666666666667" />
<circle cx="310.72" cy="456.94" r="1.6666666666666667" />
<circle cx="311.00" cy="456.75" r="1.6666666666666667" />
<circle cx="311.27" cy="455.60" r="1.6666666666666667" />
<circle cx="311.55" cy="457.26" r="1.6666666666666667" />
<circle cx="311.85" cy="458.03" r="1.6666666666666667" />
<circle cx="312.14" cy="457.79" r="1.6666666666666667" />
<circle cx="312.43" cy="458.02" r="1.6666666666666667" />
<circle cx="312.71" cy="457.24" r="1.6666666666666667" />
<circle cx="313.00" cy="457.13" r="1.6666666666666667" />
<circle cx="313.28" cy="457.01" r="1.6666666666666667" />
<circle cx="313.56" cy="457.34" r="1.6666666666666667" />
<circle cx="313.85" cy="457.89" r="1.6666666666666667" />
<circle cx="314.14" cy="457.37" r="1.6666666666666667" />
<circle cx="314.43" cy="458.17" r="1.6666666666666667" />
<circle cx="314.72" cy="457.23" r="1.6666666666666667" />
<circle cx="315.01" cy="457.61" r="1.6666666666666667" />
<circle cx="315.30" cy="458.76" r="1.6666666666666667" />
<circle cx="315.60" cy="458.01" r="1.6666666666666667" />
<circle cx="315.90" cy="459.57" r="1.6666666666666667" />
<circle cx="316.20" cy="458.75" r="1.6666666666666667" />
<circle cx="316.49" cy="457.50" r="1.6666666666666667" />
<circle cx="316.76" cy="455.62" r="1.6666666666666667" />
<circle cx="317.04" cy="456.96" r="1.6666666666666667" />
<circle cx="317.31" cy="455.88" r="1.6666666666666667" />
<circle cx="317.60" cy="457.29" r="1.6666666666666667" />
<circle cx="317.88" cy="457.02" r="1.6666666666666667" />
<circle cx="318.15" cy="456.08" r="1.6666666666666667" />
<circle cx="318.43" cy="456.54" r="1.6666666666666667" />
<circle cx="318.72" cy="457.97" r="1.6666666666666667" />
<circle cx="319.02" cy="458.18" r="1.6666666666666667" />
<circle cx="319.31" cy="457.70" r="1.6666666666666667" />
<circle cx="319.60" cy="457.79" r="1.6666666666666667" />
<circle cx="319.87" cy="456.50" r="1.6666666666666667" />
<circle cx="320.15" cy="456.88" r="1.6666666666666667" />
<circle cx="320.45" cy="457.90" r="1.6666666666666667" />
<circle cx="320.73" cy="457.73" r="1.6666666666666667" />
<circle cx="321.02" cy="457.38" r="1.6666666666666667" />
<circle cx="321.32" cy="458.66" r="1.6666666666666667" />
<circle cx="321.60" cy="456.99" r="1.6666666666666667" />
<circle cx="321.89" cy="457.18" r="1.6666666666666667" />
<circle cx="322.18" cy="458.10" r="1.6666666666666667" />
<circle cx="322.48" cy="458.73" r="1.6666666666666667" />
<circle cx="322.79" cy="459.60" r="1.6666666666666667" />
<circle cx="323.08" cy="458.56" r="1.6666666666666667" />
<circle cx="323.38" cy="458.76" r="1.6666666666666667" />
<circle cx="323.69" cy="459.41" r="1.6666666666666667" />
<circle cx="323.99" cy="459.34" r="1.6666666666666667" />
<circle cx="324.30" cy="459.29" r="1.6666666666666667" />
<circle cx="324.61" cy="459.64" r="1.6666666666666667" />
<circle cx="324.91" cy="459.23" r="1.6666666666666667" />
<circle cx="325.21" cy="458.14" r="1.6666666666666667" />
<circle cx="325.51" cy="459.55" r="1.6666666666666667" />
<circle cx="325.82" cy="459.45" r="1.6666666666666667" />
<circle cx="326.13" cy="459.36" r="1.6666666666666667" />
<circle cx="326.43" cy="459.12" r="1.6666666666666667" />
<circle cx="326.72" cy="457.97" r="1.6666666666666667" />
<circle cx="327.02" cy="459.17" r="1.6666666666666667" />
<circle cx="327.34" cy="459.91" r="1.6666666666666667" />
<circle cx="327.65" cy="460.42" r="1.6666666666666667" />
<circle cx="327.97" cy="460.32" r="1.6666666666666667" />
<circle cx="328.28" cy="460.04" r="1.6666666666666667" />
<circle cx="328.58" cy="459.05" r="1.6666666666666667" />
<circle cx="328.91" cy="461.04" r="1.6666666666666667" />
<circle cx="329.22" cy="460.11" r="1.6666666666666667" />
<circle cx="329.54" cy="460.79" r="1.6666666666666667" />
<circle cx="329.86" cy="460.50" r="1.6666666666666667" />
<circle cx="330.18" cy="460.21" r="1.6666666666666667" />
<circle cx="330.49" cy="460.42" r="1.6666666666666667" />
<circle cx="331.14" cy="460.52" r="1.6666666666666667" />
<circle cx="331.48" cy="462.61" r="1.6666666666666667" />
<circle cx="331.77" cy="458.00" r="1.6666666666666667" />
<circle cx="332.10" cy="461.21" r="1.6666666666666667" />
<circle cx="332.43" cy="461.77" r="1.6666666666666667" />
<circle cx="332.76" cy="461.73" r="1.6666666666666667" />
<circle cx="333.09" cy="461.94" r="1.6666666666666667" />
<circle cx="333.42" cy="461.19" r="1.6666666666666667" />
<circle cx="333.74" cy="460.58" r="1.6666666666666667" />
<circle cx="334.08" cy="462.26" r="1.6666666666666667" />
<circle cx="334.42" cy="462.94" r="1.6666666666666667" />
<circle cx="334.76" cy="461.96" r="1.6666666666666667" />
<circle cx="335.09" cy="462.27" r="1.6666666666666667" />
<circle cx="335.42" cy="461.66" r="1.6666666666666667" />
<circle cx="335.77" cy="462.75" r="1.6666666666666667" />
<circle cx="336.11" cy="462.91" r="1.6666666666666667" />
<circle cx="336.46" cy="463.27" r="1.6666666666666667" />
<circle cx="336.82" cy="463.77" r="1.6666666666666667" />
<circle cx="337.16" cy="462.50" r="1.6666666666666667" />
<circle cx="337.52" cy="464.31" r="1.6666666666666667" />
<circle cx="337.88" cy="464.05" r="1.6666666666666667" />
<circle cx="338.25" cy="465.32" r="1.6666666666666667" />
<circle cx="338.61" cy="464.02" r="1.6666666666666667" />
<circle cx="338.96" cy="463.68" r="1.6666666666666667" />
<circle cx="339.34" cy="465.37" r="1.6666666666666667" />
<circle cx="339.71" cy="464.98" r="1.6666666666666667" />
<circle cx="340.09" cy="465.55" r="1.6666666666666667" />
<circle cx="340.44" cy="463.93" r="1.6666666666666667" />
<circle cx="340.82" cy="465.40" r="1.6666666666666667" />
<circle cx="341.20" cy="465.95" r="1.6666666666666667" />
<circle cx="341.58" cy="465.40" r="1.6666666666666667" />
<circle cx="341.96" cy="465.68" r="1.6666666666666667" />
<circle cx="342.33" cy="465.38" r="1.6666666666666667" />
<circle cx="342.72" cy="466.46" r="1.6666666666666667" />
<circle cx="343.10" cy="465.93" r="1.6666666666666667" />
<circle cx="343.49" cy="465.83" r="1.6666666666666667" />
<circle cx="343.88" cy="466.84" r="1.6666666666666667" />
<circle cx="344.27" cy="466.31" r="1.6666666666666667" />
<circle cx="344.66" cy="466.98" r="1.6666666666666667" />
<circle cx="345.07" cy="467.40" r="1.6666666666666667" />
<circle cx="345.46" cy="466.84" r="1.6666666666666667" />
<circle cx="345.85" cy="466.43" r="1.6666666666666667" />
<circle cx="346.24" cy="466.94" r="1.6666666666666667" />
<circle cx="346.64" cy="466.96" r="1.6666666666666667" />
<circle cx="347.05" cy="467.99" r="1.6666666666666667" />
<circle cx="347.45" cy="467.05" r="1.6666666666666667" />
<circle cx="347.85" cy="467.10" r="1.6666666666666667" />
<circle cx="348.25" cy="467.43" r="1.6666666666666667" />
<circle cx="348.66" cy="468.43" r="1.6666666666666667" />
<circle cx="349.06" cy="466.99" r="1.6666666666666667" />
<circle cx="349.47" cy="467.82" r="1.6666666666666667" />
<circle cx="349.89" cy="468.54" r="1.6666666666666667" />
<circle cx="350.31" cy="468.73" r="1.6666666666666667" />
<circle cx="350.71" cy="467.75" r="1.6666666666666667" />
<circle cx="351.12" cy="467.64" r="1.6666666666666667" />
<circle cx="351.54" cy="468.67" r="1.6666666666666667" />
<circle cx="351.96" cy="468.92" r="1.6666666666666667" />
<circle cx="352.38" cy="468.77" r="1.6666666666666667" />
<circle cx="352.80" cy="468.53" r="1.6666666666666667" />
<circle cx="353.66" cy="469.57" r="1.6666666666666667" />
<circle cx="354.10" cy="469.60" r="1.6666666666666667" />
<circle cx="354.53" cy="469.35" r="1.6666666666666667" />
<circle cx="354.98" cy="470.68" r="1.6666666666666667" />
<circle cx="355.43" cy="471.01" r="1.6666666666666667" />
<circle cx="355.88" cy="470.62" r="1.6666666666666667" />
<circle cx="356.35" cy="471.75" r="1.6666666666666667" />
<circle cx="356.81" cy="471.62" r="1.6666666666666667" />
<circle cx="357.29" cy="472.47" r="1.6666666666666667" />
<circle cx="357.75" cy="471.41" r="1.6666666666666667" />
<circle cx="358.22" cy="472.19" r="1.6666666666666667" />
<circle cx="358.70" cy="472.49" r="1.6666666666666667" />
<circle cx="359.17" cy="471.96" r="1.6666666666666667" />
<circle cx="359.63" cy="471.33" r="1.6666666666666667" />
<circle cx="360.12" cy="473.37" r="1.6666666666666667" />
<circle cx="360.62" cy="473.61" r="1.6666666666666667" />
<circle cx="361.10" cy="472.78" r="1.6666666666666667" />
<circle cx="361.61" cy="474.20" r="1.6666666666666667" />
<circle cx="362.11" cy="473.69" r="1.6666666666666667" />
<circle cx="362.61" cy="473.90" r="1.6666666666666667" />
<circle cx="363.11" cy="473.94" r="1.6666666666666667" />
<circle cx="363.62" cy="474.29" r="1.6666666666666667" />
<circle cx="364.13" cy="474.77" r="1.6666666666666667" />
<circle cx="364.66" cy="475.20" r="1.6666666666666667" />
<circle cx="365.19" cy="475.68" r="1.6666666666666667" />
<circle cx="365.73" cy="475.78" r="1.6666666666666667" />
<circle cx="366.25" cy="475.07" r="1.6666666666666667" />
<circle cx="366.81" cy="477.12" r="1.6666666666666667" />
<circle cx="367.36" cy="476.49" r="1.6666666666666667" />
<circle cx="367.92" cy="477.43" r="1.6666666666666667" />
<circle cx="368.49" cy="477.53" r="1.6666666666666667" />
<circle cx="369.06" cy="477.49" r="1.6666666666666667" />
<circle cx="369.63" cy="477.65" r="1.6666666666666667" />
<circle cx="370.21" cy="478.15" r="1.6666666666666667" />
<circle cx="370.79" cy="478.44" r="1.6666666666666667" />
<circle cx="371.38" cy="478.69" r="1.6666666666666667" />
<circle cx="371.98" cy="478.98" r="1.6666666666666667" />
<circle cx="372.58" cy="479.10" r="1.6666666666666667" />
<circle cx="373.18" cy="479.45" r="1.6666666666666667" />
<circle cx="373.80" cy="479.83" r="1.6666666666666667" />
<circle cx="374.43" cy="480.59" r="1.6666666666666667" />
<circle cx="375.03" cy="479.23" r="1.6666666666666667" />
<circle cx="375.65" cy="480.35" r="1.6666666666666667" />
<circle cx="376.31" cy="481.75" r="1.6666666666666667" />
<circle cx="376.95" cy="481.17" r="1.6666666666666667" />
<circle cx="377.59" cy="481.21" r="1.6666666666666667" />
<circle cx="378.27" cy="482.56" r="1.6666666666666667" />
<circle cx="378.94" cy="482.54" r="1.6666666666666667" />
<circle cx="379.62" cy="482.60" r="1.6666666666666667" />
<circle cx="380.29" cy="482.70" r="1.6666666666666667" />
<circle cx="381.00" cy="483.86" r="1.6666666666666667" />
<circle cx="381.67" cy="482.55" r="1.6666666666666667" />
<circle cx="382.38" cy="484.12" r="1.6666666666666667" />
<circle cx="383.09" cy="484.32" r="1.6666666666666667" />
<circle cx="383.83" cy="485.11" r="1.6666666666666667" />
<circle cx="384.57" cy="485.49" r="1.6666666666666667" />
<circle cx="385.30" cy="484.72" r="1.6666666666666667" />
<circle cx="386.03" cy="484.83" r="1.6666666666666667" />
<circle cx="386.76" cy="484.91" r="1.6666666666666667" />
<circle cx="387.52" cy="486.10" r="1.6666666666666667" />
<circle cx="388.32" cy="487.83" r="1.6666666666666667" />
<circle cx="389.12" cy="487.61" r="1.6666666666666667" />
<circle cx="389.94" cy="488.42" r="1.6666666666666667" />
<circle cx="391.62" cy="489.51" r="1.6666666666666667" />
</g>
<g stroke="black">
<line x1="813.75" x2="813.75" y1="510.00" y2="520.00" />
<line x1="760.60" x2="760.60" y1="510.00" y2="520.00" />
<line x1="707.45" x2="707.45" y1="510.00" y2="520.00" />
<line x1="656.01" x2="656.01" y1="510.00" y2="520.00" />
<line x1="602.86" x2="602.86" y1="510.00" y2="520.00" />
<line x1="551.42" x2="551.42" y1="510.00" y2="520.00" />
<line x1="498.27" x2="498.27" y1="510.00" y2="520.00" />
<line x1="445.11" x2="445.11" y1="510.00" y2="520.00" />
<line x1="393.68" x2="393.68" y1="510.00" y2="520.00" />
<line x1="340.52" x2="340.52" y1="510.00" y2="520.00" />
<line x1="289.09" x2="289.09" y1="510.00" y2="520.00" />
<line x1="235.93" x2="235.93" y1="510.00" y2="520.00" />
<line x1="187.92" x2="187.92" y1="510.00" y2="520.00" />
<g fill="black" font-family="Arial, sans-serif" font-size="18.0" stroke="none" text-anchor="start" transform="translate(9.0 0.0)">
<text x="813.75" y="530.57">Feb</text>
<text x="760.60" y="530.57">Jan</text>
<text x="707.45" y="530.57">Dec</text>
<text x="656.01" y="530.57">Nov</text>
<text x="602.86" y="530.57">Oct</text>
<text x="551.42" y="530.57">Sep</text>
<text x="498.27" y="530.57">Aug</text>
<text x="445.11" y="530.57">Jul</text>
<text x="393.68" y="530.57">Jun</text>
<text x="340.52" y="530.57">May</text>
<text x="289.09" y="530.57">Apr</text>
<text x="235.93" y="530.57">Mar</text>
<text x="187.92" y="530.57">Feb</text>
</g>
<line x1="150.00" x2="850.00" y1="510.00" y2="510.00" />
</g>
<g stroke="black">
<line x1="150.00" x2="140.00" y1="510.00" y2="510.00" />
<line x1="150.00" x2="140.00" y1="216.29" y2="216.29" />
<g fill="black" font-family="Arial, sans-serif" font-size="18.0" stroke="none" text-anchor="end">
<text x="141.00" y="501.00">0</text>
<text x="141.00" y="207.29">10</text>
</g>
<line x1="150.00" x2="150.00" y1="510.00" y2="90.00" />
</g>
</g>
</svg>