<?xml version="1.0"?>
<svg version="1.1" viewBox="0 0 1000 600" xmlns:xlink="http://www.w3.org/1999/xlink" xmlns="http://www.w3.org/2000/svg">
<g>
<g stroke-dasharray="3.6 7.2" stroke-width="0.72" stroke="#caa">
<line x1="839.86" x2="839.86" y1="510.00" y2="90.00" />
<line x1="791.78" x2="791.78" y1="510.00" y2="90.00" />
<line x1="740.39" x2="740.39" y1="510.00" y2="90.00" />
<line x1="689.00" x2="689.00" y1="510.00" y2="90.00" />
<line x1="639.26" x2="639.26" y1="510.00" y2="90.00" />
<line x1="587.87" x2="587.87" y1="510.00" y2="90.00" />
<line x1="538.13" x2="538.13" y1="510.00" y2="90.00" />
<line x1="486.74" x2="486.74" y1="510.00" y2="90.00" />
<line x1="435.35" x2="435.35" y1="510.00" y2="90.00" />
<line x1="385.61" x2="385.61" y1="510.00" y2="90.00" />
<line x1="334.22" x2="334.22" y1="510.00" y2="90.00" />
<line x1="284.48" x2="284.48" y1="510.00" y2="90.00" />
<line x1="233.09" x2="233.09" y1="510.00" y2="90.00" />
<line x1="186.67" x2="186.67" y1="510.00" y2="90.00" />
<line x1="150.00" x2="850.00" y1="510.00" y2="510.00" />
<line x1="150.00" x2="850.00" y1="216.29" y2="216.29" />
</g>
<g>
<text dominant-baseline="hanging" dx="-36.0" dy="18.0" fill="#0004" font-family="Arial, sans-serif" font-size="36" stroke="none" text-anchor="end" x="850.00" y="128.18">FR1</text>
</g>
<g>
<text dominant-baseline="text-bottom" dy="-12.0" fill="black" font-family="Arial, sans-serif" font-size="18.0" font-style="italic" stroke="none" text-anchor="middle" x="500.00" y="90.00">Years 2023 to 2024</text>
</g>
<g>
<text dominant-baseline="central" dx="12.0" dy="12.0" fill="black" font-family="Arial, sans-serif" font-size="18.0" font-style="italic" stroke="none" text-anchor="middle" text-orientation="sideways" writing-mode="vertical-lr" x="850.00" y="300.00">log(Drips per day)</text>
</g>
<polyline fill="none" points="150.20,426.37 150.29,426.07 150.38,425.56 150.48,426.06 150.57,424.65 150.66,424.40 150.75,425.37 150.85,425.42 150.94,426.01 151.04,427.19 151.14,426.73 151.23,425.09 151.32,424.98 151.42,425.84 151.51,426.44 151.61,426.37 151.71,428.77 151.81,428.10 151.92,427.78 152.01,427.08 152.11,426.47 152.20,425.52 152.30,425.64 152.39,425.05 152.48,425.45 152.58,426.21 152.68,427.20 152.77,426.89 152.87,427.02 152.97,425.55 153.06,426.40 153.16,425.73 153.25,426.52 153.35,427.65 153.46,428.96 153.57,429.21 153.67,428.81 153.77,427.58 153.87,426.54 153.96,425.38 154.05,425.34 154.15,426.99 154.25,427.81 154.35,428.56 154.46,428.04 154.55,426.92 154.65,426.48 154.75,427.36 154.85,427.00 154.95,429.13 155.06,428.11 155.16,428.69 155.26,428.69 155.37,428.56 155.47,427.87 155.57,426.89 155.66,426.24 155.76,426.34 155.85,425.82 155.95,425.39 156.04,425.96 156.14,427.20 156.23,425.10 156.32,425.28 156.42,425.07 156.51,425.92 156.61,426.44 156.71,427.67 156.81,428.67 156.91,427.94 157.01,425.76 157.11,427.49 157.20,426.01 157.30,425.88 157.39,425.73 157.49,427.34 157.59,427.76 157.69,427.33 157.79,427.56 157.89,426.61 157.98,426.41 158.08,426.45 158.18,426.57 158.28,426.83 158.38,429.16 158.49,429.37 158.59,429.15 158.70,428.54 158.80,428.20 158.90,427.83 159.00,427.78 159.10,427.57 159.21,428.68 159.31,428.74 159.41,429.11 159.51,427.55 159.62,427.98 159.71,426.83 159.81,427.52 159.91,427.78 160.02,429.31 160.13,430.48 160.24,429.97 160.35,429.65 160.45,427.90 160.55,428.65 160.65,427.89 160.75,427.55 160.86,428.28 160.96,428.81 161.06,428.31 161.16,427.18 161.26,426.50 161.36,426.78 161.46,426.93 161.55,426.80 161.65,427.82 161.76,428.85 161.86,428.97 161.96,427.78 162.06,427.48 162.16,426.05 162.26,426.47 162.35,426.77 162.45,427.45 162.55,427.63 162.65,427.68 162.75,426.78 162.85,427.85 162.95,428.02 163.05,427.33 163.16,428.16 163.26,427.52 163.35,427.28 163.46,427.68 163.55,426.66 163.65,427.50 163.75,427.94 163.86,429.77 163.97,429.15 164.07,428.97 164.18,430.25 164.29,429.52 164.40,429.29 164.50,429.34 164.60,428.14 164.70,427.73 164.81,428.67 164.92,429.72 165.02,429.08 165.13,428.48 165.23,427.61 165.32,426.96 165.43,428.09 165.53,428.58 165.64,429.23 165.74,429.42 165.85,429.41 165.96,430.68 166.07,430.39 166.18,430.19 166.28,429.03 166.39,429.11 166.50,429.17 166.60,429.74 166.71,428.27 166.81,428.44 166.91,426.35 167.01,428.12 167.12,429.92 167.22,429.45 167.33,428.93 167.43,429.45 167.54,430.22 167.65,430.17 167.77,431.22 167.87,429.04 167.98,428.43 168.08,428.63 168.19,429.14 168.30,430.38 168.40,430.18 168.51,428.51 168.61,427.76 168.72,429.64 168.82,429.26 168.92,428.00 169.04,430.62 169.14,430.03 169.26,430.60 169.37,430.50 169.48,430.24 169.58,429.34 169.69,430.04 169.80,430.84 169.91,430.19 170.02,428.64 170.12,429.28 170.23,429.08 170.34,430.40 170.45,429.51 170.55,429.23 170.66,430.23 170.77,430.86 170.89,431.44 171.00,432.00 171.12,430.79 171.23,430.45 171.33,429.81 171.44,430.09 171.55,430.71 171.66,429.80 171.77,429.05 171.88,429.65 171.98,429.39 172.09,430.78 172.20,428.59 172.31,430.18 172.42,429.90 172.53,432.28 172.65,432.20 172.76,430.93 172.87,430.54 172.98,430.59 173.10,431.43 173.21,431.66 173.32,430.67 173.43,429.75 173.54,430.63 173.66,431.73 173.77,430.24 173.88,429.91 173.98,429.69 174.10,430.37 174.21,430.98 174.32,430.82 174.43,430.05 174.54,430.06 174.64,429.51 174.75,430.01 174.86,430.07 174.97,430.47 175.08,430.22 175.19,430.20 175.30,429.92 175.41,430.20 175.52,429.92 219.96,431.36 220.08,431.69 220.19,431.00 220.30,431.92 220.42,430.87 220.53,431.85 220.65,431.36 220.76,431.45 220.88,432.11 220.99,432.21 221.11,431.98 221.23,431.83 221.34,431.77 221.46,431.15 221.57,431.81 221.69,431.41 221.80,432.31 221.92,431.62 222.04,432.22 222.15,431.81 222.27,432.06 222.39,432.52 222.50,431.59 222.62,432.27 222.73,431.61 222.85,431.48 222.96,431.33 223.08,432.20 223.19,431.70 223.31,432.38 223.43,432.55 223.55,432.70 223.67,432.15 223.78,432.08 223.90,432.89 224.02,432.31 224.14,432.83 224.26,432.39 224.38,432.67 224.50,432.28 224.61,431.31 224.73,432.76 224.84,431.53 224.96,432.67 225.08,431.85 225.20,432.87 225.32,432.96 225.44,433.04 225.56,432.12 225.67,432.06 225.79,432.87 225.91,432.46 226.03,433.20 226.15,431.92 226.27,432.68 226.38,431.68 226.50,431.83 226.62,431.73 226.73,432.21 226.85,432.28 226.97,432.89 227.09,432.21 227.20,431.68 227.32,432.78 227.44,432.44 227.56,432.84 227.68,432.61 227.80,432.89 227.92,431.96 228.04,432.87 228.16,433.23 228.28,432.75 228.40,433.55 228.52,433.29 228.64,433.62 228.76,433.02 228.89,433.77 229.01,433.06 229.13,433.63 229.25,433.43 229.38,433.12 229.50,433.50 229.62,432.34 229.73,432.50 229.86,434.01 229.98,433.33 230.11,433.95 230.23,434.03 230.35,433.85 230.48,433.86 230.60,432.83 230.72,434.08 230.85,434.13 230.97,433.37 231.09,433.58 231.22,433.99 231.34,433.70 231.46,433.15 231.59,433.62 231.71,434.22 231.83,433.86 231.96,434.31 232.08,433.28 232.21,434.31 232.33,433.27 232.45,433.98 232.58,433.96 232.71,434.59 232.83,433.61 232.95,433.55 233.08,434.48 233.20,434.29 233.33,434.68 233.46,434.11 233.58,434.11 233.71,434.65 233.83,433.66 233.96,434.39 234.08,434.11 234.21,434.68 234.34,434.85 234.47,435.58 234.60,434.80 234.73,435.02 234.86,435.14 234.99,434.80 235.12,435.30 235.25,435.57 235.38,435.67 235.51,434.21 235.64,435.33 235.76,434.62 235.89,434.82 236.02,434.73 236.15,434.33 236.27,434.77 236.40,433.81 236.52,434.24 236.65,434.58 236.78,434.83 236.91,434.52 237.04,435.66 237.17,434.59 237.29,434.04 237.42,435.61 237.55,435.35 237.69,436.05 237.81,434.78 237.95,436.53 238.08,435.52 238.21,435.92 238.35,435.51 238.48,436.28 238.61,435.46 238.74,435.56 238.87,434.93 239.00,435.48 239.14,437.51 239.27,435.17 239.41,435.87 239.54,435.67 239.67,436.42 239.80,435.15 239.94,436.49 240.08,437.62 240.21,436.43 240.35,437.36 240.49,435.35 240.62,436.78 240.76,436.54 240.89,436.31 241.02,435.68 241.16,436.12 241.29,435.78 241.42,435.57 241.56,435.78 241.69,436.18 241.83,436.84 241.96,436.27 242.10,436.70 242.24,436.72 242.37,436.34 242.50,435.83 242.64,436.46 242.77,436.04 242.90,435.88 243.04,436.27 243.18,437.10 243.32,437.05 243.45,436.32 243.59,437.11 243.73,436.64 243.86,436.05 244.00,436.98 244.13,436.74 244.27,436.70 244.41,436.26 244.55,437.92 244.69,437.26 244.82,436.37 244.97,438.36 245.11,437.47 245.25,438.08 245.39,437.78 245.53,437.44 245.68,437.81 245.82,438.35 245.96,437.77 246.10,437.13 246.24,437.63 246.38,436.13 246.51,437.23 246.65,436.77 246.80,438.60 246.94,437.12 247.07,436.99 247.22,437.87 247.36,437.71 247.50,437.84 247.64,438.46 247.78,436.96 247.92,437.02 248.06,438.15 248.20,436.87 248.34,437.44 248.49,438.41 248.63,437.83 248.77,437.83 248.91,437.88 249.06,437.81 249.20,438.49 249.34,438.02 249.49,437.91 249.62,436.99 249.77,437.87 249.91,439.06 250.06,438.90 250.21,438.33 250.35,438.07 250.49,438.39 250.64,439.21 250.79,439.75 250.94,439.21 251.09,439.45 251.24,439.28 251.39,438.29 251.54,439.09 251.68,438.60 251.83,439.00 251.98,438.65 252.12,439.06 252.27,438.47 252.41,438.62 252.56,439.18 252.71,438.12 252.85,438.79 253.00,437.87 253.14,438.36 253.29,439.04 253.43,438.83 253.59,439.57 253.73,439.26 253.88,439.45 254.03,439.48 254.18,439.09 254.33,439.52 254.48,438.44 254.63,439.16 254.77,438.88 254.93,439.90 255.07,438.99 175.74,430.66 175.85,431.03 175.97,431.81 176.08,431.03 176.19,429.39 176.29,428.54 176.39,428.97 176.50,429.58 176.61,429.76 176.72,430.04 176.82,429.36 176.93,428.08 177.03,428.22 177.13,427.29 177.23,427.52 177.33,427.58 177.43,428.57 177.54,428.67 177.64,428.43 177.74,428.71 177.84,427.73 177.95,427.98 178.05,428.17 178.15,428.15 178.26,429.34 178.37,430.03 178.47,429.98 178.58,428.80 178.68,429.28 178.79,428.90 178.89,427.81 178.99,428.69 179.10,429.33 179.21,429.24 179.31,429.07 179.42,428.81 179.52,428.35 179.62,427.96 179.72,428.02 179.83,429.80 179.93,428.73 180.04,428.98 180.15,429.28 180.25,429.72 180.36,428.37 180.46,428.41 180.56,427.94 180.66,427.72 180.76,427.75 180.87,428.37 180.97,427.67 181.06,427.22 181.16,426.39 181.26,425.79 181.35,426.32 181.45,427.61 181.55,428.21 181.66,428.51 181.76,428.01 181.86,427.28 181.95,426.31 182.05,426.34 182.15,425.99 182.24,426.37 182.33,425.21 182.43,426.81 182.53,427.51 182.63,426.65 182.72,426.18 182.82,426.54 182.91,425.77 183.01,426.17 183.11,426.67 183.20,426.49 183.30,426.39 183.39,425.89 183.49,425.51 183.58,426.15 183.68,425.51 183.77,426.05 183.86,425.20 183.96,425.07 184.05,424.54 184.14,424.78 184.23,425.78 184.32,425.30 184.42,425.45 184.51,425.24 184.60,425.32 184.70,425.07 184.79,425.18 184.88,424.90 184.97,425.79 185.07,425.20 185.16,425.51 185.25,425.63 185.34,424.83 185.44,424.95 185.53,425.95 185.62,425.37 185.72,425.45 185.81,425.13 185.90,425.62 186.00,425.58 186.09,425.31 186.18,424.65 186.27,425.56 186.37,425.71 186.46,424.85 186.55,425.62 186.64,425.21 186.74,425.35 186.83,425.11 186.92,424.92 187.01,425.00 187.10,424.71 187.20,425.27 187.29,425.92 187.39,425.98 187.48,425.49 187.57,425.82 187.67,426.09 187.76,424.53 187.85,425.27 187.94,423.40 188.03,425.03 188.12,424.30 188.21,425.09 188.30,425.39 188.40,425.48 188.49,425.47 188.58,424.97 188.68,425.24 188.77,424.84 188.86,425.83 188.95,425.08 189.05,425.13 189.14,425.51 189.23,426.05 189.33,425.19 189.42,425.28 189.51,425.29 189.60,424.83 189.70,425.32 189.79,424.67 189.88,424.68 189.97,424.25 190.06,424.51 190.15,425.34 190.24,425.45 190.34,425.24 190.43,425.96 190.53,426.19 190.62,426.03 190.71,425.74 190.81,425.56 190.90,425.44 190.99,425.14 191.09,425.19 191.18,425.37 191.28,426.43 191.37,425.34 191.46,425.61 191.55,425.33 191.65,425.92 191.74,424.99 191.83,425.42 191.93,425.56 192.02,425.71 192.12,426.17 192.21,425.70 192.31,426.17 192.40,425.46 192.49,425.89 192.59,425.21 192.68,426.26 192.78,425.80 192.87,425.45 192.96,425.70 193.05,424.70 193.15,424.60 193.24,424.65 193.33,424.84 193.42,425.13 193.51,425.96 193.61,425.11 193.70,426.25 193.79,424.58 193.89,426.12 193.98,425.58 194.08,426.12 194.17,425.32 194.26,425.41 194.36,425.98 194.45,425.76 194.55,426.39 194.64,425.18 194.73,425.76 194.83,425.41 194.92,424.95 195.01,425.05 195.11,425.93 195.20,425.59 195.30,426.56 195.39,425.21 195.48,426.19 195.58,425.46 195.67,425.80 195.76,425.22 195.86,425.93 195.95,426.02 196.05,425.46 196.14,426.31 196.24,425.77 196.33,426.36 196.42,424.78 196.52,425.67 196.61,424.94 196.71,426.25 196.80,425.19 196.89,426.32 196.99,425.98 197.08,426.18 197.18,425.86 197.27,425.64 197.37,425.77 197.46,426.37 197.56,426.29 197.66,426.56 197.75,426.97 197.85,426.42 197.95,427.01 198.04,425.92 198.14,427.08 198.24,426.71 198.34,427.27 198.44,427.66 198.54,426.71 198.63,426.81 198.73,426.74 198.83,427.89 198.93,426.73 199.03,427.62 199.13,427.21 199.23,427.82 199.33,427.50 199.43,427.87 199.53,427.11 199.63,427.37 199.73,426.62 199.82,426.64 199.92,426.93 288.63,449.35 288.84,449.25 289.05,449.34 289.25,448.82 289.46,449.12 289.67,449.65 289.88,448.98 290.09,449.13 290.30,449.38 290.51,449.34 290.73,449.86 290.93,449.03 291.15,449.81 291.36,449.90 291.58,450.40 291.80,450.61 292.02,450.78 292.24,450.72 292.46,451.29 292.68,450.49 292.90,451.01 293.13,451.15 293.36,451.76 293.59,452.21 293.82,452.21 294.06,453.01 294.30,452.96 294.53,452.96 294.78,453.78 295.02,454.03 295.27,453.69 295.52,454.17 295.77,454.53 296.01,454.11 296.26,454.31 296.52,454.69 296.77,454.49 297.02,454.65 297.27,454.62 297.52,454.20 297.76,454.08 298.01,453.88 298.26,453.94 298.51,454.40 298.75,454.19 299.01,454.67 299.26,454.69 299.51,454.39 299.76,455.21 300.01,454.30 300.26,454.52 300.51,454.45 300.77,454.67 301.01,453.45 301.25,453.95 301.51,454.82 301.76,454.68 302.01,454.93 302.27,455.37 302.52,453.97 302.76,453.89 303.02,455.16 303.27,455.06 303.53,455.33 303.80,456.20 304.06,455.77 304.33,456.37 304.59,455.88 304.85,456.16 305.13,457.13 305.40,456.94 305.67,456.75 305.93,455.60 306.21,457.26 306.49,458.03 306.77,457.79 307.05,458.02 307.33,457.24 307.60,457.13 307.87,457.01 308.15,457.34 308.43,457.89 308.71,457.37 308.99,458.17 309.26,457.23 309.54,457.61 309.83,458.76 310.12,458.01 310.41,459.57 310.70,458.75 310.98,457.50 311.24,455.62 311.51,456.96 311.78,455.88 312.05,457.29 312.32,457.02 312.59,456.08 312.86,456.54 313.14,457.97 313.42,458.18 313.70,457.70 313.98,457.79 314.25,456.50 314.52,456.88 314.80,457.90 315.08,457.73 315.36,457.38 315.65,458.66 315.92,456.99 316.20,457.18 316.48,458.10 316.77,458.73 317.07,459.60 317.35,458.56 317.64,458.76 317.94,459.41 318.23,459.34 318.53,459.29 318.83,459.64 319.12,459.23 319.41,458.14 319.70,459.55 320.00,459.45 320.30,459.36 320.59,459.12 320.87,457.97 321.16,459.17 321.47,459.91 321.77,460.42 322.08,460.32 322.38,460.04 322.67,459.05 322.99,461.04 323.29,460.11 323.60,460.79 323.91,460.50 324.21,460.21 324.52,460.42 255.38,440.17 255.53,439.38 255.68,439.47 255.83,439.83 255.98,439.84 256.14,440.08 256.29,439.89 256.44,439.62 256.59,440.00 256.75,439.92 256.90,440.40 257.05,439.48 257.21,440.21 257.36,439.79 257.52,441.28 257.67,440.51 257.82,439.86 257.98,441.00 258.14,440.89 258.30,440.93 258.46,442.37 258.62,441.21 258.79,441.68 258.95,441.83 259.11,441.52 259.28,442.44 259.44,441.31 259.59,440.49 259.75,441.40 259.91,441.38 260.08,441.99 260.24,442.07 260.40,442.00 260.57,442.43 260.73,441.78 260.89,441.64 261.05,441.46 261.21,441.35 261.38,441.62 261.54,442.27 261.71,442.55 261.88,442.73 262.04,442.33 262.21,443.29 262.38,443.37 262.55,443.18 262.72,442.69 262.89,443.05 263.06,442.63 263.23,442.80 263.41,444.88 263.59,444.63 263.76,444.32 263.95,445.56 264.13,444.69 264.30,444.31 264.48,444.38 264.66,443.94 264.83,443.97 265.01,444.72 265.20,445.36 265.37,444.33 265.55,443.67 265.72,444.15 265.89,443.53 266.06,442.97 266.24,444.03 266.41,443.80 266.58,442.70 266.75,443.50 266.92,443.37 267.10,443.91 267.27,443.61 267.45,444.38 267.63,444.19 267.80,443.77 267.97,443.70 268.15,443.89 268.32,443.23 268.49,443.56 268.67,444.32 268.85,444.55 269.02,443.92 269.20,443.89 269.37,443.43 269.54,442.90 269.71,443.01 269.88,443.52 270.05,443.87 270.23,444.31 270.40,443.38 270.58,444.70 270.76,444.47 270.94,444.35 271.11,443.80 271.28,443.43 271.46,444.11 271.64,444.95 271.82,444.12 271.99,444.41 272.18,445.54 272.36,445.12 272.54,444.57 272.72,444.64 272.89,443.55 273.07,444.79 273.26,445.75 273.44,445.18 273.62,445.04 273.80,445.32 273.98,444.80 274.17,445.62 274.35,445.07 274.53,445.14 274.72,445.14 274.90,445.19 275.08,445.80 275.27,445.48 275.45,444.53 275.63,445.87 275.82,446.02 276.00,444.73 276.18,444.32 276.37,446.11 276.55,446.05 276.75,446.71 276.93,445.94 277.12,445.88 277.31,446.98 277.51,446.83 277.70,446.32 277.88,445.59 278.08,447.00 278.27,447.34 278.46,446.44 278.66,446.91 278.85,446.25 279.03,446.27 279.23,447.31 279.42,446.81 279.61,446.19 279.81,446.95 280.00,446.48 280.19,446.76 280.39,447.30 280.58,447.71 280.78,446.77 280.97,447.04 281.16,446.13 281.35,446.98 281.56,448.65 281.76,447.56 281.95,447.48 282.15,447.49 282.35,448.29 282.54,446.42 282.73,445.96 282.93,446.98 283.13,447.96 283.32,447.62 283.53,448.28 283.73,447.88 283.92,447.09 284.12,447.67 284.32,447.17 284.51,446.81 284.71,448.80 284.91,447.67 285.11,447.97 285.32,448.35 285.52,448.50 285.72,448.18 285.92,447.90 286.13,449.01 286.33,447.49 286.54,449.49 286.76,450.17 286.97,449.41 287.17,448.80 287.39,449.66 287.59,449.04 287.80,448.35 288.00,448.85 288.21,449.30 325.14,460.52 325.47,462.61 325.75,458.00 326.07,461.21 326.39,461.77 326.71,461.73 327.03,461.94 327.35,461.19 327.66,460.58 327.98,462.26 328.32,462.94 328.64,461.96 328.97,462.27 329.29,461.66 329.62,462.75 329.95,462.91 330.29,463.27 330.63,463.77 330.96,462.50 331.31,464.31 331.66,464.05 332.02,465.32 332.37,464.02 332.71,463.68 333.07,465.37 333.43,464.98 333.79,465.55 334.14,463.93 334.50,465.40 334.87,465.95 335.24,465.40 335.60,465.68 335.97,465.38 336.34,466.46 336.71,465.93 337.08,465.83 337.46,466.84 337.84,466.31 338.22,466.98 338.61,467.40 338.99,466.84 339.37,466.43 339.75,466.94 340.13,466.96 340.53,467.99 340.91,467.05 341.30,467.10 341.69,467.43 342.09,468.43 342.47,466.99 342.87,467.82 343.27,468.54 343.68,468.73 344.07,467.75 344.46,467.64 344.87,468.67 345.28,468.92 345.68,468.77 346.09,468.53 383.63,489.51 346.92,469.57 347.34,469.60 347.76,469.35 348.19,470.68 348.63,471.01 349.06,470.62 349.51,471.75 349.96,471.62 350.43,472.47 350.87,471.41 351.33,472.19 351.79,472.49 352.25,471.96 352.69,471.33 353.17,473.37 353.65,473.61 354.11,472.78 354.60,474.20 355.08,473.69 355.57,473.90 356.06,473.94 356.55,474.29 357.05,474.77 357.55,475.20 358.07,475.68 358.59,475.78 359.09,475.07 359.63,477.12 360.16,476.49 360.71,477.43 361.26,477.53 361.81,477.49 362.36,477.65 362.92,478.15 363.48,478.44 364.05,478.69 364.63,478.98 365.21,479.10 365.80,479.45 366.39,479.83 367.00,480.59 367.58,479.23 368.18,480.35 368.82,481.75 369.44,481.17 370.06,481.21 370.71,482.56 371.36,482.54 372.01,482.60 372.67,482.70 373.35,483.86 374.00,482.55 374.69,484.12 375.38,484.32 376.09,485.11 376.81,485.49 377.51,484.72 378.21,484.83 378.92,484.91 379.65,486.10 380.43,487.83 381.21,487.61 382.00,488.42" stroke-dasharray="3.6 3.6" stroke-width="3.6" stroke="#aaa" />
<g>
<circle cx="150.20" cy="426.37" r="1.6666666666666667" />
<circle cx="150.29" cy="426.07" r="1.6666666666666667" />
<circle cx="150.38" cy="425.56" r="1.6666666666666667" />
<circle cx="150.48" cy="426.06" r="1.6666666666666667" />
<circle cx="150.57" cy="424.65" r="1.6666666666666667" />
<circle cx="150.66" cy="424.40" r="1.6666666666666667" />
<circle cx="150.75" cy="425.37" r="1.6666666666666667" />
<circle cx="150.85" cy="425.42" r="1.6666666666666667" />
<circle cx="150.94" cy="426.01" r="1.6666666666666667" />
<circle cx="151.04" cy="427.19" r="1.6666666666666667" />
<circle cx="151.14" cy="426.73" r="1.6666666666666667" />
<circle cx="151.23" cy="425.09" r="1.6666666666666667" />
<circle cx="151.32" cy="424.98" r="1.6666666666666667" />
<circle cx="151.42" cy="425.84" r="1.6666666666666667" />
<circle cx="151.51" cy="426.44" r="1.6666666666666667" />
<circle cx="151.61" cy="426.37" r="1.6666666666666667" />
<circle cx="151.71" cy="428.77" r="1.6666666666666667" />
<circle cx="151.81" cy="428.10" r="1.6666666666666667" />
<circle cx="151.92" cy="427.78" r="1.6666666666666667" />
<circle cx="152.01" cy="427.08" r="1.6666666666666667" />
<circle cx="152.11" cy="426.47" r="1.6666666666666667" />
<circle cx="152.20" cy="425.52" r="1.6666666666666667" />
<circle cx="152.30" cy="425.64" r="1.6666666666666667" />
<circle cx="152.39" cy="425.05" r="1.6666666666666667" />
<circle cx="152.48" cy="425.45" r="1.6666666666666667" />
<circle cx="152.58" cy="426.21" r="1.6666666666666667" />
<circle cx="152.68" cy="427.20" r="1.6666666666666667" />
<circle cx="152.77" cy="426.89" r="1.6666666666666667" />
<circle cx="152.87" cy="427.02" r="1.6666666666666667" />
<circle cx="152.97" cy="425.55" r="1.6666666666666667" />
<circle cx="153.06" cy="426.40" r="1.6666666666666667" />
<circle cx="153.16" cy="425.73" r="1.6666666666666667" />
<circle cx="153.25" cy="426.52" r="1.6666666666666667" />
<circle cx="153.35" cy="427.65" r="1.6666666666666667" />
<circle cx="153.46" cy="428.96" r="1.6666666666666667" />
<circle cx="153.57" cy="429.21" r="1.6666666666666667" />
<circle cx="153.67" cy="428.81" r="1.6666666666666667" />
<circle cx="153.77" cy="427.58" r="1.6666666666666667" />
<circle cx="153.87" cy="426.54" r="1.6666666666666667" />
<circle cx="153.96" cy="425.38" r="1.6666666666666667" />
<circle cx="154.05" cy="425.34" r="1.6666666666666667" />
<circle cx="154.15" cy="426.99" r="1.6666666666666667" />
<circle cx="154.25" cy="427.81" r="1.6666666666666667" />
<circle cx="154.35" cy="428.56" r="1.6666666666666667" />
<circle cx="154.46" cy="428.04" r="1.6666666666666667" />
<circle cx="154.55" cy="426.92" r="1.6666666666666667" />
<circle cx="154.65" cy="426.48" r="1.6666666666666667" />
<circle cx="154.75" cy="427.36" r="1.6666666666666667" />
<circle cx="154.85" cy="427.00" r="1.6666666666666667" />
<circle cx="154.95" cy="429.13" r="1.6666666666666667" />
<circle cx="155.06" cy="428.11" r="1.6666666666666667" />
<circle cx="155.16" cy="428.69" r="1.6666666666666667" />
<circle cx="155.26" cy="428.69" r="1.6666666666666667" />
<circle cx="155.37" cy="428.56" r="1.6666666666666667" />
<circle cx="155.47" cy="427.87" r="1.6666666666666667" />
<circle cx="155.57" cy="426.89" r="1.6666666666666667" />
<circle cx="155.66" cy="426.24" r="1.6666666666666667" />
<circle cx="155.76" cy="426.34" r="1.6666666666666667" />
<circle cx="155.85" cy="425.82" r="1.6666666666666667" />
<circle cx="155.95" cy="425.39" r="1.6666666666666667" />
<circle cx="156.04" cy="425.96" r="1.6666666666666667" />
<circle cx="156.14" cy="427.20" r="1.6666666666666667" />
<circle cx="156.23" cy="425.10" r="1.6666666666666667" />
<circle cx="156.32" cy="425.28" r="1.6666666666666667" />
<circle cx="156.42" cy="425.07" r="1.6666666666666667" />
<circle cx="156.51" cy="425.92" r="1.6666666666666667" />
<circle cx="156.61" cy="426.44" r="1.6666666666666667" />
<circle cx="156.71" cy="427.67" r="1.6666666666666667" />
<circle cx="156.81" cy="428.67" r="1.6666666666666667" />
<circle cx="156.91" cy="427.94" r="1.6666666666666667" />
<circle cx="157.01" cy="425.76" r="1.6666666666666667" />
<circle cx="157.11" cy="427.49" r="1.6666666666666667" />
<circle cx="157.20" cy="426.01" r="1.6666666666666667" />
<circle cx="157.30" cy="425.88" r="1.6666666666666667" />
<circle cx="157.39" cy="425.73" r="1.6666666666666667" />
<circle cx="157.49" cy="427.34" r="1.6666666666666667" />
<circle cx="157.59" cy="427.76" r="1.6666666666666667" />
<circle cx="157.69" cy="427.33" r="1.6666666666666667" />
<circle cx="157.79" cy="427.56" r="1.6666666666666667" />
<circle cx="157.89" cy="426.61" r="1.6666666666666667" />
<circle cx="157.98" cy="426.41" r="1.6666666666666667" />
<circle cx="158.08" cy="426.45" r="1.6666666666666667" />
<circle cx="158.18" cy="426.57" r="1.6666666666666667" />
<circle cx="158.28" cy="426.83" r="1.6666666666666667" />
<circle cx="158.38" cy="429.16" r="1.6666666666666667" />
<circle cx="158.49" cy="429.37" r="1.6666666666666667" />
<circle cx="158.59" cy="429.15" r="1.6666666666666667" />
<circle cx="158.70" cy="428.54" r="1.6666666666666667" />
<circle cx="158.80" cy="428.20" r="1.6666666666666667" />
<circle cx="158.90" cy="427.83" r="1.6666666666666667" />
<circle cx="159.00" cy="427.78" r="1.6666666666666667" />
<circle cx="159.10" cy="427.57" r="1.6666666666666667" />
<circle cx="159.21" cy="428.68" r="1.6666666666666667" />
<circle cx="159.31" cy="428.74" r="1.6666666666666667" />
<circle cx="159.41" cy="429.11" r="1.6666666666666667" />
<circle cx="159.51" cy="427.55" r="1.6666666666666667" />
<circle cx="159.62" cy="427.98" r="1.6666666666666667" />
<circle cx="159.71" cy="426.83" r="1.6666666666666667" />
<circle cx="159.81" cy="427.52" r="1.6666666666666667" />
<circle cx="159.91" cy="427.78" r="1.6666666666666667" />
<circle cx="160.02" cy="429.31" r="1.6666666666666667" />
<circle cx="160.13" cy="430.48" r="1.6666666666666667" />
<circle cx="160.24" cy="429.97" r="1.6666666666666667" />
<circle cx="160.35" cy="429.65" r="1.6666666666666667" />
<circle cx="160.45" cy="427.90" r="1.6666666666666667" />
<circle cx="160.55" cy="428.65" r="1.6666666666666667" />
<circle cx="160.65" cy="427.89" r="1.6666666666666667" />
<circle cx="160.75" cy="427.55" r="1.6666666666666667" />
<circle cx="160.86" cy="428.28" r="1.6666666666666667" />
<circle cx="160.96" cy="428.81" r="1.6666666666666667" />
<circle cx="161.06" cy="428.31" r="1.6666666666666667" />
<circle cx="161.16" cy="427.18" r="1.6666666666666667" />
<circle cx="161.26" cy="426.50" r="1.6666666666666667" />
<circle cx="161.36" cy="426.78" r="1.6666666666666667" />
<circle cx="161.46" cy="426.93" r="1.6666666666666667" />
<circle cx="161.55" cy="426.80" r="1.6666666666666667" />
<circle cx="161.65" cy="427.82" r="1.6666666666666667" />
<circle cx="161.76" cy="428.85" r="1.6666666666666667" />
<circle cx="161.86" cy="428.97" r="1.6666666666666667" />
<circle cx="161.96" cy="427.78" r="1.6666666666666667" />
<circle cx="162.06" cy="427.48" r="1.6666666666666667" />
<circle cx="162.16" cy="426.05" r="1.6666666666666667" />
<circle cx="162.26" cy="426.47" r="1.6666666666666667" />
<circle cx="162.35" cy="426.77" r="1.6666666666666667" />
<circle cx="162.45" cy="427.45" r="1.6666666666666667" />
<circle cx="162.55" cy="427.63" r="1.6666666666666667" />
<circle cx="162.65" cy="427.68" r="1.6666666666666667" />
<circle cx="162.75" cy="426.78" r="1.6666666666666667" />
<circle cx="162.85" cy="427.85" r="1.6666666666666667" />
<circle cx="162.95" cy="428.02" r="1.6666666666666667" />
<circle cx="163.05" cy="427.33" r="1.6666666666666667" />
<circle cx="163.16" cy="428.16" r="1.6666666666666667" />
<circle cx="163.26" cy="427.52" r="1.6666666666666667" />
<circle cx="163.35" cy="427.28" r="1.6666666666666667" />
<circle cx="163.46" cy="427.68" r="1.6666666666666667" />
<circle cx="163.55" cy="426.66" r="1.6666666666666667" />
<circle cx="163.65" cy="427.50" r="1.6666666666666667" />
<circle cx="163.75" cy="427.94" r="1.6666666666666667" />
<circle cx="163.86" cy="429.77" r="1.6666666666666667" />
<circle cx="163.97" cy="429.15" r="1.6666666666666667" />
<circle cx="164.07" cy="428.97" r="1.6666666666666667" />
<circle cx="164.18" cy="430.25" r="1.6666666666666667" />
<circle cx="164.29" cy="429.52" r="1.6666666666666667" />
<circle cx="164.40" cy="429.29" r="1.6666666666666667" />
<circle cx="164.50" cy="429.34" r="1.6666666666666667" />
<circle cx="164.60" cy="428.14" r="1.6666666666666667" />
<circle cx="164.70" cy="427.73" r="1.6666666666666667" />
<circle cx="164.81" cy="428.67" r="1.6666666666666667" />
<circle cx="164.92" cy="429.72" r="1.6666666666666667" />
<circle cx="165.02" cy="429.08" r="1.6666666666666667" />
<circle cx="165.13" cy="428.48" r="1.6666666666666667" />
<circle cx="165.23" cy="427.61" r="1.6666666666666667" />
<circle cx="165.32" cy="426.96" r="1.6666666666666667" />
<circle cx="165.43" cy="428.09" r="1.6666666666666667" />
<circle cx="165.53" cy="428.58" r="1.6666666666666667" />
<circle cx="165.64" cy="429.23" r="1.6666666666666667" />
<circle cx="165.74" cy="429.42" r="1.6666666666666667" />
<circle cx="165.85" cy="429.41" r="1.6666666666666667" />
<circle cx="165.96" cy="430.68" r="1.6666666666666667" />
<circle cx="166.07" cy="430.39" r="1.6666666666666667" />
<circle cx="166.18" cy="430.19" r="1.6666666666666667" />
<circle cx="166.28" cy="429.03" r="1.6666666666666667" />
<circle cx="166.39" cy="429.11" r="1.6666666666666667" />
<circle cx="166.50" cy="429.17" r="1.6666666666666667" />
<circle cx="166.60" cy="429.74" r="1.6666666666666667" />
<circle cx="166.71" cy="428.27" r="1.6666666666666667" />
<circle cx="166.81" cy="428.44" r="1.6666666666666667" />
<circle cx="166.91" cy="426.35" r="1.6666666666666667" />
<circle cx="167.01" cy="428.12" r="1.6666666666666667" />
<circle cx="167.12" cy="429.92" r="1.6666666666666667" />
<circle cx="167.22" cy="429.45" r="1.6666666666666667" />
<circle cx="167.33" cy="428.93" r="1.6666666666666667" />
<circle cx="167.43" cy="429.45" r="1.6666666666666667" />
<circle cx="167.54" cy="430.22" r="1.6666666666666667" />
<circle cx="167.65" cy="430.17" r="1.6666666666666667" />
<circle cx="167.77" cy="431.22" r="1.6666666666666667" />
<circle cx="167.87" cy="429.04" r="1.6666666666666667" />
<circle cx="167.98" cy="428.43" r="1.6666666666666667" />
<circle cx="168.08" cy="428.63" r="1.6666666666666667" />
<circle cx="168.19" cy="429.14" r="1.6666666666666667" />
<circle cx="168.30" cy="430.38" r="1.6666666666666667" />
<circle cx="168.40" cy="430.18" r="1.6666666666666667" />
<circle cx="168.51" cy="428.51" r="1.6666666666666667" />
<circle cx="168.61" cy="427.76" r="1.6666666666666667" />
<circle cx="168.72" cy="429.64" r="1.6666666666666667" />
<circle cx="168.82" cy="429.26" r="1.6666666666666667" />
<circle cx="168.92" cy="428.00" r="1.6666666666666667" />
<circle cx="169.04" cy="430.62" r="1.6666666666666667" />
<circle cx="169.14" cy="430.03" r="1.6666666666666667" />
<circle cx="169.26" cy="430.60" r="1.6666666666666667" />
<circle cx="169.37" cy="430.50" r="1.6666666666666667" />
<circle cx="169.48" cy="430.24" r="1.6666666666666667" />
<circle cx="169.58" cy="429.34" r="1.6666666666666667" />
<circle cx="169.69" cy="430.04" r="1.6666666666666667" />
<circle cx="169.80" cy="430.84" r="1.6666666666666667" />
<circle cx="169.91" cy="430.19" r="1.6666666666666667" />
<circle cx="170.02" cy="428.64" r="1.6666666666666667" />
<circle cx="170.12" cy="429.28" r="1.6666666666666667" />
<circle cx="170.23" cy="429.08" r="1.6666666666666667" />
<circle cx="170.34" cy="430.40" r="1.6666666666666667" />
<circle cx="170.45" cy="429.51" r="1.6666666666666667" />
<circle cx="170.55" cy="429.23" r="1.6666666666666667" />
<circle cx="170.66" cy="430.23" r="1.6666666666666667" />
<circle cx="170.77" cy="430.86" r="1.6666666666666667" />
<circle cx="170.89" cy="431.44" r="1.6666666666666667" />
<circle cx="171.00" cy="432.00" r="1.6666666666666667" />
<circle cx="171.12" cy="430.79" r="1.6666666666666667" />
<circle cx="171.23" cy="430.45" r="1.6666666666666667" />
<circle cx="171.33" cy="429.81" r="1.6666666666666667" />
<circle cx="171.44" cy="430.09" r="1.6666666666666667" />
<circle cx="171.55" cy="430.71" r="1.6666666666666667" />
<circle cx="171.66" cy="429.80" r="1.6666666666666667" />
<circle cx="171.77" cy="429.05" r="1.6666666666666667" />
<circle cx="171.88" cy="429.65" r="1.6666666666666667" />
<circle cx="171.98" cy="429.39" r="1.6666666666666667" />
<circle cx="172.09" cy="430.78" r="1.6666666666666667" />
<circle cx="172.20" cy="428.59" r="1.6666666666666667" />
<circle cx="172.31" cy="430.18" r="1.6666666666666667" />
<circle cx="172.42" cy="429.90" r="1.6666666666666667" />
<circle cx="172.53" cy="432.28" r="1.6666666666666667" />
<circle cx="172.65" cy="432.20" r="1.6666666666666667" />
<circle cx="172.76" cy="430.93" r="1.6666666666666667" />
<circle cx="172.87" cy="430.54" r="1.6666666666666667" />
<circle cx="172.98" cy="430.59" r="1.6666666666666667" />
<circle cx="173.10" cy="431.43" r="1.6666666666666667" />
<circle cx="173.21" cy="431.66" r="1.6666666666666667" />
<circle cx="173.32" cy="430.67" r="1.6666666666666667" />
<circle cx="173.43" cy="429.75" r="1.6666666666666667" />
<circle cx="173.54" cy="430.63" r="1.6666666666666667" />
<circle cx="173.66" cy="431.73" r="1.6666666666666667" />
<circle cx="173.77" cy="430.24" r="1.6666666666666667" />
<circle cx="173.88" cy="429.91" r="1.6666666666666667" />
<circle cx="173.98" cy="429.69" r="1.6666666666666667" />
<circle cx="174.10" cy="430.37" r="1.6666666666666667" />
<circle cx="174.21" cy="430.98" r="1.6666666666666667" />
<circle cx="174.32" cy="430.82" r="1.6666666666666667" />
<circle cx="174.43" cy="430.05" r="1.6666666666666667" />
<circle cx="174.54" cy="430.06" r="1.6666666666666667" />
<circle cx="174.64" cy="429.51" r="1.6666666666666667" />
<circle cx="174.75" cy="430.01" r="1.6666666666666667" />
<circle cx="174.86" cy="430.07" r="1.6666666666666667" />
<circle cx="174.97" cy="430.47" r="1.6666666666666667" />
<circle cx="175.08" cy="430.22" r="1.6666666666666667" />
<circle cx="175.19" cy="430.20" r="1.6666666666666667" />
<circle cx="175.30" cy="429.92" r="1.6666666666666667" />
<circle cx="175.41" cy="430.20" r="1.6666666666666667" />
<circle cx="175.52" cy="429.92" r="1.6666666666666667" />
<circle cx="175.74" cy="430.66" r="1.6666666666666667" />
<circle cx="175.85" cy="431.03" r="1.6666666666666667" />
<circle cx="175.97" cy="431.81" r="1.6666666666666667" />
<circle cx="176.08" cy="431.03" r="1.6666666666666667" />
<circle cx="176.19" cy="429.39" r="1.6666666666666667" />
<circle cx="176.29" cy="428.54" r="1.6666666666666667" />
<circle cx="176.39" cy="428.97" r="1.6666666666666667" />
<circle cx="176.50" cy="429.58" r="1.6666666666666667" />
<circle cx="176.61" cy="429.76" r="1.6666666666666667" />
<circle cx="176.72" cy="430.04" r="1.6666666666666667" />
<circle cx="176.82" cy="429.36" r="1.6666666666666667" />
<circle cx="176.93" cy="428.08" r="1.6666666666666667" />
<circle cx="177.03" cy="428.22" r="1.6666666666666667" />
<circle cx="177.13" cy="427.29" r="1.6666666666666667" />
<circle cx="177.23" cy="427.52" r="1.6666666666666667" />
<circle cx="177.33" cy="427.58" r="1.6666666666666667" />
<circle cx="177.43" cy="428.57" r="1.6666666666666667" />
<circle cx="177.54" cy="428.67" r="1.6666666666666667" />
<circle cx="177.64" cy="428.43" r="1.6666666666666667" />
<circle cx="177.74" cy="428.71" r="1.6666666666666667" />
<circle cx="177.84" cy="427.73" r="1.6666666666666667" />
<circle cx="177.95" cy="427.98" r="1.6666666666666667" />
<circle cx="178.05" cy="428.17" r="1.6666666666666667" />
<circle cx="178.15" cy="428.15" r="1.6666666666666667" />
<circle cx="178.26" cy="429.34" r="1.6666666666666667" />
<circle cx="178.37" cy="430.03" r="1.6666666666666667" />
<circle cx="178.47" cy="429.98" r="1.6666666666666667" />
<circle cx="178.58" cy="428.80" r="1.6666666666666667" />
<circle cx="178.68" cy="429.28" r="1.6666666666666667" />
<circle cx="178.79" cy="428.90" r="1.6666666666666667" />
<circle cx="178.89" cy="427.81" r="1.6666666666666667" />
<circle cx="178.99" cy="428.69" r="1.6666666666666667" />
<circle cx="179.10" cy="429.33" r="1.6666666666666667" />
<circle cx="179.21" cy="429.24" r="1.6666666666666667" />
<circle cx="179.31" cy="429.07" r="1.6666666666666667" />
<circle cx="179.42" cy="428.81" r="1.6666666666666667" />
<circle cx="179.52" cy="428.35" r="1.6666666666666667" />
<circle cx="179.62" cy="427.96" r="1.6666666666666667" />
<circle cx="179.72" cy="428.02" r="1.6666666666666667" />
<circle cx="179.83" cy="429.80" r="1.6666666666666667" />
<circle cx="179.93" cy="428.73" r="1.6666666666666667" />
<circle cx="180.04" cy="428.98" r="1.6666666666666667" />
<circle cx="180.15" cy="429.28" r="1.6666666666666667" />
<circle cx="180.25" cy="429.72" r="1.6666666666666667" />
<circle cx="180.36" cy="428.37" r="1.6666666666666667" />
<circle cx="180.46" cy="428.41" r="1.6666666666666667" />
<circle cx="180.56" cy="427.94" r="1.6666666666666667" />
<circle cx="180.66" cy="427.72" r="1.6666666666666667" />
<circle cx="180.76" cy="427.75" r="1.6666666666666667" />
<circle cx="180.87" cy="428.37" r="1.6666666666666667" />
<circle cx="180.97" cy="427.67" r="1.6666666666666667" />
<circle cx="181.06" cy="427.22" r="1.6666666666666667" />
<circle cx="181.16" cy="426.39" r="1.6666666666666667" />
<circle cx="181.26" cy="425.79" r="1.6666666666666667" />
<circle cx="181.35" cy="426.32" r="1.6666666666666667" />
<circle cx="181.45" cy="427.61" r="1.6666666666666667" />
<circle cx="181.55" cy="428.21" r="1.6666666666666667" />
<circle cx="181.66" cy="428.51" r="1.6666666666666667" />
<circle cx="181.76" cy="428.01" r="1.6666666666666667" />
<circle cx="181.86" cy="427.28" r="1.6666666666666667" />
<circle cx="181.95" cy="426.31" r="1.6666666666666667" />
<circle cx="182.05" cy="426.34" r="1.6666666666666667" />
<circle cx="182.15" cy="425.99" r="1.6666666666666667" />
<circle cx="182.24" cy="426.37" r="1.6666666666666667" />
<circle cx="182.33" cy="425.21" r="1.6666666666666667" />
<circle cx="182.43" cy="426.81" r="1.6666666666666667" />
<circle cx="182.53" cy="427.51" r="1.6666666666666667" />
<circle cx="182.63" cy="426.65" r="1.6666666666666667" />
<circle cx="182.72" cy="426.18" r="1.6666666666666667" />
<circle cx="182.82" cy="426.54" r="1.6666666666666667" />
<circle cx="182.91" cy="425.77" r="1.6666666666666667" />
<circle cx="183.01" cy="426.17" r="1.6666666666666667" />
<circle cx="183.11" cy="426.67" r="1.6666666666666667" />
<circle cx="183.20" cy="426.49" r="1.6666666666666667" />
<circle cx="183.30" cy="426.39" r="1.6666666666666667" />
<circle cx="183.39" cy="425.89" r="1.6666666666666667" />
<circle cx="183.49" cy="425.51" r="1.6666666666666667" />
<circle cx="183.58" cy="426.15" r="1.6666666666666667" />
<circle cx="183.68" cy="425.51" r="1.6666666666666667" />
<circle cx="183.77" cy="426.05" r="1.6666666666666667" />
<circle cx="183.86" cy="425.20" r="1.6666666666666667" />
<circle cx="183.96" cy="425.07" r="1.6666666666666667" />
<circle cx="184.05" cy="424.54" r="1.6666666666666667" />
<circle cx="184.14" cy="424.78" r="1.6666666666666667" />
<circle cx="184.23" cy="425.78" r="1.6666666666666667" />
<circle cx="184.32" cy="425.30" r="1.6666666666666667" />
<circle cx="184.42" cy="425.45" r="1.6666666666666667" />
<circle cx="184.51" cy="425.24" r="1.6666666666666667" />
<circle cx="184.60" cy="425.32" r="1.6666666666666667" />
<circle cx="184.70" cy="425.07" r="1.6666666666666667" />
<circle cx="184.79" cy="425.18" r="1.6666666666666667" />
<circle cx="184.88" cy="424.90" r="1.6666666666666667" />
<circle cx="184.97" cy="425.79" r="1.6666666666666667" />
<circle cx="185.07" cy="425.20" r="1.6666666666666667" />
<circle cx="185.16" cy="425.51" r="1.6666666666666667" />
<circle cx="185.25" cy="425.63" r="1.6666666666666667" />
<circle cx="185.34" cy="424.83" r="1.6666666666666667" />
<circle cx="185.44" cy="424.95" r="1.6666666666666667" />
<circle cx="185.53" cy="425.95" r="1.6666666666666667" />
<circle cx="185.62" cy="425.37" r="1.6666666666666667" />
<circle cx="185.72" cy="425.45" r="1.6666666666666667" />
<circle cx="185.81" cy="425.13" r="1.6666666666666667" />
<circle cx="185.90" cy="425.62" r="1.6666666666666667" />
<circle cx="186.00" cy="425.58" r="1.6666666666666667" />
<circle cx="186.09" cy="425.31" r="1.6666666666666667" />
<circle cx="186.18" cy="424.65" r="1.6666666666666667" />
<circle cx="186.27" cy="425.56" r="1.6666666666666667" />
<circle cx="186.37" cy="425.71" r="1.6666666666666667" />
<circle cx="186.46" cy="424.85" r="1.6666666666666667" />
<circle cx="186.55" cy="425.62" r="1.6666666666666667" />
<circle cx="186.64" cy="425.21" r="1.6666666666666667" />
<circle cx="186.74" cy="425.35" r="1.6666666666666667" />
<circle cx="186.83" cy="425.11" r="1.6666666666666667" />
<circle cx="186.92" cy="424.92" r="1.6666666666666667" />
<circle cx="187.01" cy="425.00" r="1.6666666666666667" />
<circle cx="187.10" cy="424.71" r="1.6666666666666667" />
<circle cx="187.20" cy="425.27" r="1.6666666666666667" />
<circle cx="187.29" cy="425.92" r="1.6666666666666667" />
<circle cx="187.39" cy="425.98" r="1.6666666666666667" />
<circle cx="187.48" cy="425.49" r="1.6666666666666667" />
<circle cx="187.57" cy="425.82" r="1.6666666666666667" />
<circle cx="187.67" cy="426.09" r="1.6666666666666667" />
<circle cx="187.76" cy="424.53" r="1.6666666666666667" />
<circle cx="187.85" cy="425.27" r="1.6666666666666667" />
<circle cx="187.94" cy="423.40" r="1.6666666666666667" />
<circle cx="188.03" cy="425.03" r="1.6666666666666667" />
<circle cx="188.12" cy="424.30" r="1.6666666666666667" />
<circle cx="188.21" cy="425.09" r="1.6666666666666667" />
<circle cx="188.30" cy="425.39" r="1.6666666666666667" />
<circle cx="188.40" cy="425.48" r="1.6666666666666667" />
<circle cx="188.49" cy="425.47" r="1.6666666666666667" />
<circle cx="188.58" cy="424.97" r="1.6666666666666667" />
<circle cx="188.68" cy="425.24" r="1.6666666666666667" />
<circle cx="188.77" cy="424.84" r="1.6666666666666667" />
<circle cx="188.86" cy="425.83" r="1.6666666666666667" />
<circle cx="188.95" cy="425.08" r="1.6666666666666667" />
<circle cx="189.05" cy="425.13" r="1.6666666666666667" />
<circle cx="189.14" cy="425.51" r="1.6666666666666667" />
<circle cx="189.23" cy="426.05" r="1.6666666666666667" />
<circle cx="189.33" cy="425.19" r="1.6666666666666667" />
<circle cx="189.42" cy="425.28" r="1.6666666666666667" />
<circle cx="189.51" cy="425.29" r="1.6666666666666667" />
<circle cx="189.60" cy="424.83" r="1.6666666666666667" />
<circle cx="189.70" cy="425.32" r="1.6666666666666667" />
<circle cx="189.79" cy="424.67" r="1.6666666666666667" />
<circle cx="189.88" cy="424.68" r="1.6666666666666667" />
<circle cx="189.97" cy="424.25" r="1.6666666666666667" />
<circle cx="190.06" cy="424.51" r="1.6666666666666667" />
<circle cx="190.15" cy="425.34" r="1.6666666666666667" />
<circle cx="190.24" cy="425.45" r="1.6666666666666667" />
<circle cx="190.34" cy="425.24" r="1.6666666666666667" />
<circle cx="190.43" cy="425.96" r="1.6666666666666667" />
<circle cx="190.53" cy="426.19" r="1.6666666666666667" />
<circle cx="190.62" cy="426.03" r="1.6666666666666667" />
<circle cx="190.71" cy="425.74" r="1.6666666666666667" />
<circle cx="190.81" cy="425.56" r="1.6666666666666667" />
<circle cx="190.90" cy="425.44" r="1.6666666666666667" />
<circle cx="190.99" cy="425.14" r="1.6666666666666667" />
<circle cx="191.09" cy="425.19" r="1.6666666666666667" />
<circle cx="191.18" cy="425.37" r="1.6666666666666667" />
<circle cx="191.28" cy="426.43" r="1.6666666666666667" />
<circle cx="191.37" cy="425.34" r="1.6666666666666667" />
<circle cx="191.46" cy="425.61" r="1.6666666666666667" />
<circle cx="191.55" cy="425.33" r="1.6666666666666667" />
<circle cx="191.65" cy="425.92" r="1.6666666666666667" />
<circle cx="191.74" cy="424.99" r="1.6666666666666667" />
<circle cx="191.83" cy="425.42" r="1.6666666666666667" />
<circle cx="191.93" cy="425.56" r="1.6666666666666667" />
<circle cx="192.02" cy="425.71" r="1.6666666666666667" />
<circle cx="192.12" cy="426.17" r="1.6666666666666667" />
<circle cx="192.21" cy="425.70" r="1.6666666666666667" />
<circle cx="192.31" cy="426.17" r="1.6666666666666667" />
<circle cx="192.40" cy="425.46" r="1.6666666666666667" />
<circle cx="192.49" cy="425.89" r="1.6666666666666667" />
<circle cx="192.59" cy="425.21" r="1.6666666666666667" />
<circle cx="192.68" cy="426.26" r="1.6666666666666667" />
<circle cx="192.78" cy="425.80" r="1.6666666666666667" />
<circle cx="192.87" cy="425.45" r="1.6666666666666667" />
<circle cx="192.96" cy="425.70" r="1.6666666666666667" />
<circle cx="193.05" cy="424.70" r="1.6666666666666667" />
<circle cx="193.15" cy="424.60" r="1.6666666666666667" />
<circle cx="193.24" cy="424.65" r="1.6666666666666667" />
<circle cx="193.33" cy="424.84" r="1.6666666666666667" />
<circle cx="193.42" cy="425.13" r="1.6666666666666667" />
<circle cx="193.51" cy="425.96" r="1.6666666666666667" />
<circle cx="193.61" cy="425.11" r="1.6666666666666667" />
<circle cx="193.70" cy="426.25" r="1.6666666666666667" />
<circle cx="193.79" cy="424.58" r="1.6666666666666667" />
<circle cx="193.89" cy="426.12" r="1.6666666666666667" />
<circle cx="193.98" cy="425.58" r="1.6666666666666667" />
<circle cx="194.08" cy="426.12" r="1.6666666666666667" />
<circle cx="194.17" cy="425.32" r="1.6666666666666667" />
<circle cx="194.26" cy="425.41" r="1.6666666666666667" />
<circle cx="194.36" cy="425.98" r="1.6666666666666667" />
<circle cx="194.45" cy="425.76" r="1.6666666666666667" />
<circle cx="194.55" cy="426.39" r="1.6666666666666667" />
<circle cx="194.64" cy="425.18" r="1.6666666666666667" />
<circle cx="194.73" cy="425.76" r="1.6666666666666667" />
<circle cx="194.83" cy="425.41" r="1.6666666666666667" />
<circle cx="194.92" cy="424.95" r="1.6666666666666667" />
<circle cx="195.01" cy="425.05" r="1.6666666666666667" />
<circle cx="195.11" cy="425.93" r="1.6666666666666667" />
<circle cx="195.20" cy="425.59" r="1.6666666666666667" />
<circle cx="195.30" cy="426.56" r="1.6666666666666667" />
<circle cx="195.39" cy="425.21" r="1.6666666666666667" />
<circle cx="195.48" cy="426.19" r="1.6666666666666667" />
<circle cx="195.58" cy="425.46" r="1.6666666666666667" />
<circle cx="195.67" cy="425.80" r="1.6666666666666667" />
<circle cx="195.76" cy="425.22" r="1.6666666666666667" />
<circle cx="195.86" cy="425.93" r="1.6666666666666667" />
<circle cx="195.95" cy="426.02" r="1.6666666666666667" />
<circle cx="196.05" cy="425.46" r="1.6666666666666667" />
<circle cx="196.14" cy="426.31" r="1.6666666666666667" />
<circle cx="196.24" cy="425.77" r="1.6666666666666667" />
<circle cx="196.33" cy="426.36" r="1.6666666666666667" />
<circle cx="196.42" cy="424.78" r="1.6666666666666667" />
<circle cx="196.52" cy="425.67" r="1.6666666666666667" />
<circle cx="196.61" cy="424.94" r="1.6666666666666667" />
<circle cx="196.71" cy="426.25" r="1.6666666666666667" />
<circle cx="196.80" cy="425.19" r="1.6666666666666667" />
<circle cx="196.89" cy="426.32" r="1.6666666666666667" />
<circle cx="196.99" cy="425.98" r="1.6666666666666667" />
<circle cx="197.08" cy="426.18" r="1.6666666666666667" />
<circle cx="197.18" cy="425.86" r="1.6666666666666667" />
<circle cx="197.27" cy="425.64" r="1.6666666666666667" />
<circle cx="197.37" cy="425.77" r="1.6666666666666667" />
<circle cx="197.46" cy="426.37" r="1.6666666666666667" />
<circle cx="197.56" cy="426.29" r="1.6666666666666667" />
<circle cx="197.66" cy="426.56" r="1.6666666666666667" />
<circle cx="197.75" cy="426.97" r="1.6666666666666667" />
<circle cx="197.85" cy="426.42" r="1.6666666666666667" />
<circle cx="197.95" cy="427.01" r="1.6666666666666667" />
<circle cx="198.04" cy="425.92" r="1.6666666666666667" />
<circle cx="198.14" cy="427.08" r="1.6666666666666667" />
<circle cx="198.24" cy="426.71" r="1.6666666666666667" />
<circle cx="198.34" cy="427.27" r="1.6666666666666667" />
<circle cx="198.44" cy="427.66" r="1.6666666666666667" />
<circle cx="198.54" cy="426.71" r="1.6666666666666667" />
<circle cx="198.63" cy="426.81" r="1.6666666666666667" />
<circle cx="198.73" cy="426.74" r="1.6666666666666667" />
<circle cx="198.83" cy="427.89" r="1.6666666666666667" />
<circle cx="198.93" cy="426.73" r="1.6666666666666667" />
<circle cx="199.03" cy="427.62" r="1.6666666666666667" />
<circle cx="199.13" cy="427.21" r="1.6666666666666667" />
<circle cx="199.23" cy="427.82" r="1.6666666666666667" />
<circle cx="199.33" cy="427.50" r="1.6666666666666667" />
<circle cx="199.43" cy="427.87" r="1.6666666666666667" />
<circle cx="199.53" cy="427.11" r="1.6666666666666667" />
<circle cx="199.63" cy="427.37" r="1.6666666666666667" />
<circle cx="199.73" cy="426.62" r="1.6666666666666667" />
<circle cx="199.82" cy="426.64" r="1.6666666666666667" />
<circle cx="199.92" cy="426.93" r="1.6666666666666667" />
<circle cx="219.96" cy="431.36" r="1.6666666666666667" />
<circle cx="220.08" cy="431.69" r="1.6666666666666667" />
<circle cx="220.19" cy="431.00" r="1.6666666666666667" />
<circle cx="220.30" cy="431.92" r="1.6666666666666667" />
<circle cx="220.42" cy="430.87" r="1.6666666666666667" />
<circle cx="220.53" cy="431.85" r="1.6666666666666667" />
<circle cx="220.65" cy="431.36" r="1.6666666666666667" />
<circle cx="220.76" cy="431.45" r="1.6666666666666667" />
<circle cx="220.88" cy="432.11" r="1.6666666666666667" />
<circle cx="220.99" cy="432.21" r="1.6666666666666667" />
<circle cx="221.11" cy="431.98" r="1.6666666666666667" />
<circle cx="221.23" cy="431.83" r="1.6666666666666667" />
<circle cx="221.34" cy="431.77" r="1.6666666666666667" />
<circle cx="221.46" cy="431.15" r="1.6666666666666667" />
<circle cx="221.57" cy="431.81" r="1.6666666666666667" />
<circle cx="221.69" cy="431.41" r="1.6666666666666667" />
<circle cx="221.80" cy="432.31" r="1.6666666666666667" />
<circle cx="221.92" cy="431.62" r="1.6666666666666667" />
<circle cx="222.04" cy="432.22" r="1.6666666666666667" />
<circle cx="222.15" cy="431.81" r="1.6666666666666667" />
<circle cx="222.27" cy="432.06" r="1.6666666666666667" />
<circle cx="222.39" cy="432.52" r="1.6666666666666667" />
<circle cx="222.50" cy="431.59" r="1.6666666666666667" />
<circle cx="222.62" cy="432.27" r="1.6666666666666667" />
<circle cx="222.73" cy="431.61" r="1.6666666666666667" />
<circle cx="222.85" cy="431.48" r="1.6666666666666667" />
<circle cx="222.96" cy="431.33" r="1.6666666666666667" />
<circle cx="223.08" cy="432.20" r="1.6666666666666667" />
<circle cx="223.19" cy="431.70" r="1.6666666666666667" />
<circle cx="223.31" cy="432.38" r="1.6666666666666667" />
<circle cx="223.43" cy="432.55" r="1.6666666666666667" />
<circle cx="223.55" cy="432.70" r="1.6666666666666667" />
<circle cx="223.67" cy="432.15" r="1.6666666666666667" />
<circle cx="223.78" cy="432.08" r="1.6666666666666667" />
<circle cx="223.90" cy="432.89" r="1.6666666666666667" />
<circle cx="224.02" cy="432.31" r="1.6666666666666667" />
<circle cx="224.14" cy="432.83" r="1.6666666666666667" />
<circle cx="224.26" cy="432.39" r="1.6666666666666667" />
<circle cx="224.38" cy="432.67" r="1.6666666666666667" />
<circle cx="224.50" cy="432.28" r="1.6666666666666667" />
<circle cx="224.61" cy="431.31" r="1.6666666666666667" />
<circle cx="224.73" cy="432.76" r="1.6666666666666667" />
<circle cx="224.84" cy="431.53" r="1.6666666666666667" />
<circle cx="224.96" cy="432.67" r="1.6666666666666667" />
<circle cx="225.08" cy="431.85" r="1.6666666666666667" />
<circle cx="225.20" cy="432.87" r="1.6666666666666667" />
<circle cx="225.32" cy="432.96" r="1.6666666666666667" />
<circle cx="225.44" cy="433.04" r="1.6666666666666667" />
<circle cx="225.56" cy="432.12" r="1.6666666666666667" />
<circle cx="225.67" cy="432.06" r="1.6666666666666667" />
<circle cx="225.79" cy="432.87" r="1.6666666666666667" />
<circle cx="225.91" cy="432.46" r="1.6666666666666667" />
<circle cx="226.03" cy="433.20" r="1.6666666666666667" />
<circle cx="226.15" cy="431.92" r="1.6666666666666667" />
<circle cx="226.27" cy="432.68" r="1.6666666666666667" />
<circle cx="226.38" cy="431.68" r="1.6666666666666667" />
<circle cx="226.50" cy="431.83" r="1.6666666666666667" />
<circle cx="226.62" cy="431.73" r="1.6666666666666667" />
<circle cx="226.73" cy="432.21" r="1.6666666666666667" />
<circle cx="226.85" cy="432.28" r="1.6666666666666667" />
<circle cx="226.97" cy="432.89" r="1.6666666666666667" />
<circle cx="227.09" cy="432.21" r="1.6666666666666667" />
<circle cx="227.20" cy="431.68" r="1.6666666666666667" />
<circle cx="227.32" cy="432.78" r="1.6666666666666667" />
<circle cx="227.44" cy="432.44" r="1.6666666666666667" />
<circle cx="227.56" cy="432.84" r="1.6666666666666667" />
<circle cx="227.68" cy="432.61" r="1.6666666666666667" />
<circle cx="227.80" cy="432.89" r="1.6666666666666667" />
<circle cx="227.92" cy="431.96" r="1.6666666666666667" />
<circle cx="228.04" cy="432.87" r="1.6666666666666667" />
<circle cx="228.16" cy="433.23" r="1.6666666666666667" />
<circle cx="228.28" cy="432.75" r="1.6666666666666667" />
<circle cx="228.40" cy="433.55" r="1.6666666666666667" />
<circle cx="228.52" cy="433.29" r="1.6666666666666667" />
<circle cx="228.64" cy="433.62" r="1.6666666666666667" />
<circle cx="228.76" cy="433.02" r="1.6666666666666667" />
<circle cx="228.89" cy="433.77" r="1.6666666666666667" />
<circle cx="229.01" cy="433.06" r="1.6666666666666667" />
<circle cx="229.13" cy="433.63" r="1.6666666666666667" />
<circle cx="229.25" cy="433.43" r="1.6666666666666667" />
<circle cx="229.38" cy="433.12" r="1.6666666666666667" />
<circle cx="229.50" cy="433.50" r="1.6666666666666667" />
<circle cx="229.62" cy="432.34" r="1.6666666666666667" />
<circle cx="229.73" cy="432.50" r="1.6666666666666667" />
<circle cx="229.86" cy="434.01" r="1.6666666666666667" />
<circle cx="229.98" cy="433.33" r="1.6666666666666667" />
<circle cx="230.11" cy="433.95" r="1.6666666666666667" />
<circle cx="230.23" cy="434.03" r="1.6666666666666667" />
<circle cx="230.35" cy="433.85" r="1.6666666666666667" />
<circle cx="230.48" cy="433.86" r="1.6666666666666667" />
<circle cx="230.60" cy="432.83" r="1.6666666666666667" />
<circle cx="230.72" cy="434.08" r="1.6666666666666667" />
<circle cx="230.85" cy="434.13" r="1.6666666666666667" />
<circle cx="230.97" cy="433.37" r="1.6666666666666667" />
<circle cx="231.09" cy="433.58" r="1.6666666666666667" />
<circle cx="231.22" cy="433.99" r="1.6666666666666667" />
<circle cx="231.34" cy="433.70" r="1.6666666666666667" />
<circle cx="231.46" cy="433.15" r="1.6666666666666667" />
<circle cx="231.59" cy="433.62" r="1.6666666666666667" />
<circle cx="231.71" cy="434.22" r="1.6666666666666667" />
<circle cx="231.83" cy="433.86" r="1.6666666666666667" />
<circle cx="231.96" cy="434.31" r="1.6666666666666667" />
<circle cx="232.08" cy="433.28" r="1.6666666666666667" />
<circle cx="232.21" cy="434.31" r="1.6666666666666667" />
<circle cx="232.33" cy="433.27" r="1.6666666666666667" />
<circle cx="232.45" cy="433.98" r="1.6666666666666667" />
<circle cx="232.58" cy="433.96" r="1.6666666666666667" />
<circle cx="232.71" cy="434.59" r="1.6666666666666667" />
<circle cx="232.83" cy="433.61" r="1.6666666666666667" />
<circle cx="232.95" cy="433.55" r="1.6666666666666667" />
<circle cx="233.08" cy="434.48" r="1.6666666666666667" />
<circle cx="233.20" cy="434.29" r="1.6666666666666667" />
<circle cx="233.33" cy="434.68" r="1.6666666666666667" />
<circle cx="233.46" cy="434.11" r="1.6666666666666667" />
<circle cx="233.58" cy="434.11" r="1.6666666666666667" />
<circle cx="233.71" cy="434.65" r="1.6666666666666667" />
<circle cx="233.83" cy="433.66" r="1.6666666666666667" />
<circle cx="233.96" cy="434.39" r="1.6666666666666667" />
<circle cx="234.08" cy="434.11" r="1.6666666666666667" />
<circle cx="234.21" cy="434.68" r="1.6666666666666667" />
<circle cx="234.34" cy="434.85" r="1.6666666666666667" />
<circle cx="234.47" cy="435.58" r="1.6666666666666667" />
<circle cx="234.60" cy="434.80" r="1.6666666666666667" />
<circle cx="234.73" cy="435.02" r="1.6666666666666667" />
<circle cx="234.86" cy="435.14" r="1.6666666666666667" />
<circle cx="234.99" cy="434.80" r="1.6666666666666667" />
<circle cx="235.12" cy="435.30" r="1.6666666666666667" />
<circle cx="235.25" cy="435.57" r="1.6666666666666667" />
<circle cx="235.38" cy="435.67" r="1.6666666666666667" />
<circle cx="235.51" cy="434.21" r="1.6666666666666667" />
<circle cx="235.64" cy="435.33" r="1.6666666666666667" />
<circle cx="235.76" cy="434.62" r="1.6666666666666667" />
<circle cx="235.89" cy="434.82" r="1.6666666666666667" />
<circle cx="236.02" cy="434.73" r="1.6666666666666667" />
<circle cx="236.15" cy="434.33" r="1.6666666666666667" />
<circle cx="236.27" cy="434.77" r="1.6666666666666667" />
<circle cx="236.40" cy="433.81" r="1.6666666666666667" />
<circle cx="236.52" cy="434.24" r="1.6666666666666667" />
<circle cx="236.65" cy="434.58" r="1.6666666666666667" />
<circle cx="236.78" cy="434.83" r="1.6666666666666667" />
<circle cx="236.91" cy="434.52" r="1.6666666666666667" />
<circle cx="237.04" cy="435.66" r="1.6666666666666667" />
<circle cx="237.17" cy="434.59" r="1.6666666666666667" />
<circle cx="237.29" cy="434.04" r="1.6666666666666667" />
<circle cx="237.42" cy="435.61" r="1.6666666666666667" />
<circle cx="237.55" cy="435.35" r="1.6666666666666667" />
<circle cx="237.69" cy="436.05" r="1.6666666666666667" />
<circle cx="237.81" cy="434.78" r="1.6666666666666667" />
<circle cx="237.95" cy="436.53" r="1.6666666666666667" />
<circle cx="238.08" cy="435.52" r="1.6666666666666667" />
<circle cx="238.21" cy="435.92" r="1.6666666666666667" />
<circle cx="238.35" cy="435.51" r="1.6666666666666667" />
<circle cx="238.48" cy="436.28" r="1.6666666666666667" />
<circle cx="238.61" cy="435.46" r="1.6666666666666667" />
<circle cx="238.74" cy="435.56" r="1.6666666666666667" />
<circle cx="238.87" cy="434.93" r="1.6666666666666667" />
<circle cx="239.00" cy="435.48" r="1.6666666666666667" />
<circle cx="239.14" cy="437.51" r="1.6666666666666667" />
<circle cx="239.27" cy="435.17" r="1.6666666666666667" />
<circle cx="239.41" cy="435.87" r="1.6666666666666667" />
<circle cx="239.54" cy="435.67" r="1.6666666666666667" />
<circle cx="239.67" cy="436.42" r="1.6666666666666667" />
<circle cx="239.80" cy="435.15" r="1.6666666666666667" />
<circle cx="239.94" cy="436.49" r="1.6666666666666667" />
<circle cx="240.08" cy="437.62" r="1.6666666666666667" />
<circle cx="240.21" cy="436.43" r="1.6666666666666667" />
<circle cx="240.35" cy="437.36" r="1.6666666666666667" />
<circle cx="240.49" cy="435.35" r="1.6666666666666667" />
<circle cx="240.62" cy="436.78" r="1.6666666666666667" />
<circle cx="240.76" cy="436.54" r="1.6666666666666667" />
<circle cx="240.89" cy="436.31" r="1.6666666666666667" />
<circle cx="241.02" cy="435.68" r="1.6666666666666667" />
<circle cx="241.16" cy="436.12" r="1.6666666666666667" />
<circle cx="241.29" cy="435.78" r="1.6666666666666667" />
<circle cx="241.42" cy="435.57" r="1.6666666666666667" />
<circle cx="241.56" cy="435.78" r="1.6666666666666667" />
<circle cx="241.69" cy="436.18" r="1.6666666666666667" />
<circle cx="241.83" cy="436.84" r="1.6666666666666667" />
<circle cx="241.96" cy="436.27" r="1.6666666666666667" />
<circle cx="242.10" cy="436.70" r="1.6666666666666667" />
<circle cx="242.24" cy="436.72" r="1.6666666666666667" />
<circle cx="242.37" cy="436.34" r="1.6666666666666667" />
<circle cx="242.50" cy="435.83" r="1.6666666666666667" />
<circle cx="242.64" cy="436.46" r="1.6666666666666667" />
<circle cx="242.77" cy="436.04" r="1.6666666666666667" />
<circle cx="242.90" cy="435.88" r="1.6666666666666667" />
<circle cx="243.04" cy="436.27" r="1.6666666666666667" />
<circle cx="243.18" cy="437.10" r="1.6666666666666667" />
<circle cx="243.32" cy="437.05" r="1.6666666666666667" />
<circle cx="243.45" cy="436.32" r="1.6666666666666667" />
<circle cx="243.59" cy="437.11" r="1.6666666666666667" />
<circle cx="243.73" cy="436.64" r="1.6666666666666667" />
<circle cx="243.86" cy="436.05" r="1.6666666666666667" />
<circle cx="244.00" cy="436.98" r="1.6666666666666667" />
<circle cx="244.13" cy="436.74" r="1.6666666666666667" />
<circle cx="244.27" cy="436.70" r="1.6666666666666667" />
<circle cx="244.41" cy="436.26" r="1.6666666666666667" />
<circle cx="244.55" cy="437.92" r="1.6666666666666667" />
<circle cx="244.69" cy="437.26" r="1.6666666666666667" />
<circle cx="244.82" cy="436.37" r="1.6666666666666667" />
<circle cx="244.97" cy="438.36" r="1.6666666666666667" />
<circle cx="245.11" cy="437.47" r="1.6666666666666667" />
<circle cx="245.25" cy="438.08" r="1.6666666666666667" />
<circle cx="245.39" cy="437.78" r="1.6666666666666667" />
<circle cx="245.53" cy="437.44" r="1.6666666666666667" />
<circle cx="245.68" cy="437.81" r="1.6666666666666667" />
<circle cx="245.82" cy="438.35" r="1.6666666666666667" />
<circle cx="245.96" cy="437.77" r="1.6666666666666667" />
<circle cx="246.10" cy="437.13" r="1.6666666666666667" />
<circle cx="246.24" cy="437.63" r="1.6666666666666667" />
<circle cx="246.38" cy="436.13" r="1.6666666666666667" />
<circle cx="246.51" cy="437.23" r="1.6666666666666667" />
<circle cx="246.65" cy="436.77" r="1.6666666666666667" />
<circle cx="246.80" cy="438.60" r="1.6666666666666667" />
<circle cx="246.94" cy="437.12" r="1.6666666666666667" />
<circle cx="247.07" cy="436.99" r="1.6666666666666667" />
<circle cx="247.22" cy="437.87" r="1.6666666666666667" />
<circle cx="247.36" cy="437.71" r="1.6666666666666667" />
<circle cx="247.50" cy="437.84" r="1.6666666666666667" />
<circle cx="247.64" cy="438.46" r="1.6666666666666667" />
<circle cx="247.78" cy="436.96" r="1.6666666666666667" />
<circle cx="247.92" cy="437.02" r="1.6666666666666667" />
<circle cx="248.06" cy="438.15" r="1.6666666666666667" />
<circle cx="248.20" cy="436.87" r="1.6666666666666667" />
<circle cx="248.34" cy="437.44" r="1.6666666666666667" />
<circle cx="248.49" cy="438.41" r="1.6666666666666667" />
<circle cx="248.63" cy="437.83" r="1.6666666666666667" />
<circle cx="248.77" cy="437.83" r="1.6666666666666667" />
<circle cx="248.91" cy="437.88" r="1.6666666666666667" />
<circle cx="249.06" cy="437.81" r="1.6666666666666667" />
<circle cx="249.20" cy="438.49" r="1.6666666666666667" />
<circle cx="249.34" cy="438.02" r="1.6666666666666667" />
<circle cx="249.49" cy="437.91" r="1.6666666666666667" />
<circle cx="249.62" cy="436.99" r="1.6666666666666667" />
<circle cx="249.77" cy="437.87" r="1.6666666666666667" />
<circle cx="249.91" cy="439.06" r="1.6666666666666667" />
<circle cx="250.06" cy="438.90" r="1.6666666666666667" />
<circle cx="250.21" cy="438.33" r="1.6666666666666667" />
<circle cx="250.35" cy="438.07" r="1.6666666666666667" />
<circle cx="250.49" cy="438.39" r="1.6666666666666667" />
<circle cx="250.64" cy="439.21" r="1.6666666666666667" />
<circle cx="250.79" cy="439.75" r="1.6666666666666667" />
<circle cx="250.94" cy="439.21" r="1.6666666666666667" />
<circle cx="251.09" cy="439.45" r="1.6666666666666667" />
<circle cx="251.24" cy="439.28" r="1.6666666666666667" />
<circle cx="251.39" cy="438.29" r="1.6666666666666667" />
<circle cx="251.54" cy="439.09" r="1.6666666666666667" />
<circle cx="251.68" cy="438.60" r="1.6666666666666667" />
<circle cx="251.83" cy="439.00" r="1.6666666666666667" />
<circle cx="251.98" cy="438.65" r="1.6666666666666667" />
<circle cx="252.12" cy="439.06" r="1.6666666666666667" />
<circle cx="252.27" cy="438.47" r="1.6666666666666667" />
<circle cx="252.41" cy="438.62" r="1.6666666666666667" />
<circle cx="252.56" cy="439.18" r="1.6666666666666667" />
<circle cx="252.71" cy="438.12" r="1.6666666666666667" />
<circle cx="252.85" cy="438.79" r="1.6666666666666667" />
<circle cx="253.00" cy="437.87" r="1.6666666666666667" />
<circle cx="253.14" cy="438.36" r="1.6666666666666667" />
<circle cx="253.29" cy="439.04" r="1.6666666666666667" />
<circle cx="253.43" cy="438.83" r="1.6666666666666667" />
<circle cx="253.59" cy="439.57" r="1.6666666666666667" />
<circle cx="253.73" cy="439.26" r="1.6666666666666667" />
<circle cx="253.88" cy="439.45" r="1.6666666666666667" />
<circle cx="254.03" cy="439.48" r="1.6666666666666667" />
<circle cx="254.18" cy="439.09" r="1.6666666666666667" />
<circle cx="254.33" cy="439.52" r="1.6666666666666667" />
<circle cx="254.48" cy="438.44" r="1.6666666666666667" />
<circle cx="254.63" cy="439.16" r="1.6666666666666667" />
<circle cx="254.77" cy="438.88" r="1.6666666666666667" />
<circle cx="254.93" cy="439.90" r="1.6666666666666667" />
<circle cx="255.07" cy="438.99" r="1.6666666666666667" />
<circle cx="255.38" cy="440.17" r="1.6666666666666667" />
<circle cx="255.53" cy="439.38" r="1.6666666666666667" />
<circle cx="255.68" cy="439.47" r="1.6666666666666667" />
<circle cx="255.83" cy="439.83" r="1.6666666666666667" />
<circle cx="255.98" cy="439.84" r="1.6666666666666667" />
<circle cx="256.14" cy="440.08" r="1.6666666666666667" />
<circle cx="256.29" cy="439.89" r="1.6666666666666667" />
<circle cx="256.44" cy="439.62" r="1.6666666666666667" />
<circle cx="256.59" cy="440.00" r="1.6666666666666667" />
<circle cx="256.75" cy="439.92" r="1.6666666666666667" />
<circle cx="256.90" cy="440.40" r="1.6666666666666667" />
<circle cx="257.05" cy="439.48" r="1.6666666666666667" />
<circle cx="257.21" cy="440.21" r="1.6666666666666667" />
<circle cx="257.36" cy="439.79" r="1.6666666666666667" />
<circle cx="257.52" cy="441.28" r="1.6666666666666667" />
<circle cx="257.67" cy="440.51" r="1.6666666666666667" />
<circle cx="257.82" cy="439.86" r="1.6666666666666667" />
<circle cx="257.98" cy="441.00" r="1.6666666666666667" />
<circle cx="258.14" cy="440.89" r="1.6666666666666667" />
<circle cx="258.30" cy="440.93" r="1.6666666666666667" />
<circle cx="258.46" cy="442.37" r="1.6666666666666667" />
<circle cx="258.62" cy="441.21" r="1.6666666666666667" />
<circle cx="258.79" cy="441.68" r="1.6666666666666667" />
<circle cx="258.95" cy="441.83" r="1.6666666666666667" />
<circle cx="259.11" cy="441.52" r="1.6666666666666667" />
<circle cx="259.28" cy="442.44" r="1.6666666666666667" />
<circle cx="259.44" cy="441.31" r="1.6666666666666667" />
<circle cx="259.59" cy="440.49" r="1.6666666666666667" />
<circle cx="259.75" cy="441.40" r="1.6666666666666667" />
<circle cx="259.91" cy="441.38" r="1.6666666666666667" />
<circle cx="260.08" cy="441.99" r="1.6666666666666667" />
<circle cx="260.24" cy="442.07" r="1.6666666666666667" />
<circle cx="260.40" cy="442.00" r="1.6666666666666667" />
<circle cx="260.57" cy="442.43" r="1.6666666666666667" />
<circle cx="260.73" cy="441.78" r="1.6666666666666667" />
<circle cx="260.89" cy="441.64" r="1.6666666666666667" />
<circle cx="261.05" cy="441.46" r="1.6666666666666667" />
<circle cx="261.21" cy="441.35" r="1.6666666666666667" />
<circle cx="261.38" cy="441.62" r="1.6666666666666667" />
<circle cx="261.54" cy="442.27" r="1.6666666666666667" />
<circle cx="261.71" cy="442.55" r="1.6666666666666667" />
<circle cx="261.88" cy="442.73" r="1.6666666666666667" />
<circle cx="262.04" cy="442.33" r="1.6666666666666667" />
<circle cx="262.21" cy="443.29" r="1.6666666666666667" />
<circle cx="262.38" cy="443.37" r="1.6666666666666667" />
<circle cx="262.55" cy="443.18" r="1.6666666666666667" />
<circle cx="262.72" cy="442.69" r="1.6666666666666667" />
<circle cx="262.89" cy="443.05" r="1.6666666666666667" />
<circle cx="263.06" cy="442.63" r="1.6666666666666667" />
<circle cx="263.23" cy="442.80" r="1.6666666666666667" />
<circle cx="263.41" cy="444.88" r="1.6666666666666667" />
<circle cx="263.59" cy="444.63" r="1.6666666666666667" />
<circle cx="263.76" cy="444.32" r="1.6666666666666667" />
<circle cx="263.95" cy="445.56" r="1.6666666666666667" />
<circle cx="264.13" cy="444.69" r="1.6666666666666667" />
<circle cx="264.30" cy="444.31" r="1.6666666666666667" />
<circle cx="264.48" cy="444.38" r="1.6666666666666667" />
<circle cx="264.66" cy="443.94" r="1.6666666666666667" />
<circle cx="264.83" cy="443.97" r="1.6666666666666667" />
<circle cx="265.01" cy="444.72" r="1.6666666666666667" />
<circle cx="265.20" cy="445.36" r="1.6666666666666667" />
<circle cx="265.37" cy="444.33" r="1.6666666666666667" />
<circle cx="265.55" cy="443.67" r="1.6666666666666667" />
<circle cx="265.72" cy="444.15" r="1.6666666666666667" />
<circle cx="265.89" cy="443.53" r="1.6666666666666667" />
<circle cx="266.06" cy="442.97" r="1.6666666666666667" />
<circle cx="266.24" cy="444.03" r="1.6666666666666667" />
<circle cx="266.41" cy="443.80" r="1.6666666666666667" />
<circle cx="266.58" cy="442.70" r="1.6666666666666667" />
<circle cx="266.75" cy="443.50" r="1.6666666666666667" />
<circle cx="266.92" cy="443.37" r="1.6666666666666667" />
<circle cx="267.10" cy="443.91" r="1.6666666666666667" />
<circle cx="267.27" cy="443.61" r="1.6666666666666667" />
<circle cx="267.45" cy="444.38" r="1.6666666666666667" />
<circle cx="267.63" cy="444.19" r="1.6666666666666667" />
<circle cx="267.80" cy="443.77" r="1.6666666666666667" />
<circle cx="267.97" cy="443.70" r="1.6666666666666667" />
<circle cx="268.15" cy="443.89" r="1.6666666666666667" />
<circle cx="268.32" cy="443.23" r="1.6666666666666667" />
<circle cx="268.49" cy="443.56" r="1.6666666666666667" />
<circle cx="268.67" cy="444.32" r="1.6666666666666667" />
<circle cx="268.85" cy="444.55" r="1.6666666666666667" />
<circle cx="269.02" cy="443.92" r="1.6666666666666667" />
<circle cx="269.20" cy="443.89" r="1.6666666666666667" />
<circle cx="269.37" cy="443.43" r="1.6666666666666667" />
<circle cx="269.54" cy="442.90" r="1.6666666666666667" />
<circle cx="269.71" cy="443.01" r="1.6666666666666667" />
<circle cx="269.88" cy="443.52" r="1.6666666666666667" />
<circle cx="270.05" cy="443.87" r="1.6666666666666667" />
<circle cx="270.23" cy="444.31" r="1.6666666666666667" />
<circle cx="270.40" cy="443.38" r="1.6666666666666667" />
<circle cx="270.58" cy="444.70" r="1.6666666666666667" />
<circle cx="270.76" cy="444.47" r="1.6666666666666667" />
<circle cx="270.94" cy="444.35" r="1.6666666666666667" />
<circle cx="271.11" cy="443.80" r="1.6666666666666667" />
<circle cx="271.28" cy="443.43" r="1.6666666666666667" />
<circle cx="271.46" cy="444.11" r="1.6666666666666667" />
<circle cx="271.64" cy="444.95" r="1.6666666666666667" />
<circle cx="271.82" cy="444.12" r="1.6666666666666667" />
<circle cx="271.99" cy="444.41" r="1.6666666666666667" />
<circle cx="272.18" cy="445.54" r="1.6666666666666667" />
<circle cx="272.36" cy="445.12" r="1.6666666666666667" />
<circle cx="272.54" cy="444.57" r="1.6666666666666667" />
<circle cx="272.72" cy="444.64" r="1.6666666666666667" />
<circle cx="272.89" cy="443.55" r="1.6666666666666667" />
<circle cx="273.07" cy="444.79" r="1.6666666666666667" />
<circle cx="273.26" cy="445.75" r="1.6666666666666667" />
<circle cx="273.44" cy="445.18" r="1.6666666666666667" />
<circle cx="273.62" cy="445.04" r="1.6666666666666667" />
<circle cx="273.80" cy="445.32" r="1.6666666666666667" />
<circle cx="273.98" cy="444.80" r="1.6666666666666667" />
<circle cx="274.17" cy="445.62" r="1.6666666666666667" />
<circle cx="274.35" cy="445.07" r="1.6666666666666667" />
<circle cx="274.53" cy="445.14" r="1.6666666666666667" />
<circle cx="274.72" cy="445.14" r="1.6666666666666667" />
<circle cx="274.90" cy="445.19" r="1.6666666666666667" />
<circle cx="275.08" cy="445.80" r="1.6666666666666667" />
<circle cx="275.27" cy="445.48" r="1.6666666666666667" />
<circle cx="275.45" cy="444.53" r="1.6666666666666667" />
<circle cx="275.63" cy="445.87" r="1.6666666666666667" />
<circle cx="275.82" cy="446.02" r="1.6666666666666667" />
<circle cx="276.00" cy="444.73" r="1.6666666666666667" />
<circle cx="276.18" cy="444.32" r="1.6666666666666667" />
<circle cx="276.37" cy="446.11" r="1.6666666666666667" />
<circle cx="276.55" cy="446.05" r="1.6666666666666667" />
<circle cx="276.75" cy="446.71" r="1.6666666666666667" />
<circle cx="276.93" cy="445.94" r="1.6666666666666667" />
<circle cx="277.12" cy="445.88" r="1.6666666666666667" />
<circle cx="277.31" cy="446.98" r="1.6666666666666667" />
<circle cx="277.51" cy="446.83" r="1.6666666666666667" />
<circle cx="277.70" cy="446.32" r="1.6666666666666667" />
<circle cx="277.88" cy="445.59" r="1.6666666666666667" />
<circle cx="278.08" cy="447.00" r="1.6666666666666667" />
<circle cx="278.27" cy="447.34" r="1.6666666666666667" />
<circle cx="278.46" cy="446.44" r="1.6666666666666667" />
<circle cx="278.66" cy="446.91" r="1.6666666666666667" />
<circle cx="278.85" cy="446.25" r="1.6666666666666667" />
<circle cx="279.03" cy="446.27" r="1.6666666666666667" />
<circle cx="279.23" cy="447.31" r="1.6666666666666667" />
<circle cx="279.42" cy="446.81" r="1.6666666666666667" />
<circle cx="279.61" cy="446.19" r="1.6666666666666667" />
<circle cx="279.81" cy="446.95" r="1.6666666666666667" />
<circle cx="280.00" cy="446.48" r="1.6666666666666667" />
<circle cx="280.19" cy="446.76" r="1.6666666666666667" />
<circle cx="280.39" cy="447.30" r="1.6666666666666667" />
<circle cx="280.58" cy="447.71" r="1.6666666666666667" />
<circle cx="280.78" cy="446.77" r="1.6666666666666667" />
<circle cx="280.97" cy="447.04" r="1.6666666666666667" />
<circle cx="281.16" cy="446.13" r="1.6666666666666667" />
<circle cx="281.35" cy="446.98" r="1.6666666666666667" />
<circle cx="281.56" cy="448.65" r="1.6666666666666667" />
<circle cx="281.76" cy="447.56" r="1.6666666666666667" />
<circle cx="281.95" cy="447.48" r="1.6666666666666667" />
<circle cx="282.15" cy="447.49" r="1.6666666666666667" />
<circle cx="282.35" cy="448.29" r="1.6666666666666667" />
<circle cx="282.54" cy="446.42" r="1.6666666666666667" />
<circle cx="282.73" cy="445.96" r="1.6666666666666667" />
<circle cx="282.93" cy="446.98" r="1.6666666666666667" />
<circle cx="283.13" cy="447.96" r="1.6666666666666667" />
<circle cx="283.32" cy="447.62" r="1.6666666666666667" />
<circle cx="283.53" cy="448.28" r="1.6666666666666667" />
<circle cx="283.73" cy="447.88" r="1.6666666666666667" />
<circle cx="283.92" cy="447.09" r="1.6666666666666667" />
<circle cx="284.12" cy="447.67" r="1.6666666666666667" />
<circle cx="284.32" cy="447.17" r="1.6666666666666667" />
<circle cx="284.51" cy="446.81" r="1.6666666666666667" />
<circle cx="284.71" cy="448.80" r="1.6666666666666667" />
<circle cx="284.91" cy="447.67" r="1.6666666666666667" />
<circle cx="285.11" cy="447.97" r="1.6666666666666667" />
<circle cx="285.32" cy="448.35" r="1.6666666666666667" />
<circle cx="285.52" cy="448.50" r="1.6666666666666667" />
<circle cx="285.72" cy="448.18" r="1.6666666666666667" />
<circle cx="285.92" cy="447.90" r="1.6666666666666667" />
<circle cx="286.13" cy="449.01" r="1.6666666666666667" />
<circle cx="286.33" cy="447.49" r="1.6666666666666667" />
<circle cx="286.54" cy="449.49" r="1.6666666666666667" />
<circle cx="286.76" cy="450.17" r="1.6666666666666667" />
<circle cx="286.97" cy="449.41" r="1.6666666666666667" />
<circle cx="287.17" cy="448.80" r="1.6666666666666667" />
<circle cx="287.39" cy="449.66" r="1.6666666666666667" />
<circle cx="287.59" cy="449.04" r="1.6666666666666667" />
<circle cx="287.80" cy="448.35" r="1.6666666666666667" />
<circle cx="288.00" cy="448.85" r="1.6666666666666667" />
<circle cx="288.21" cy="449.30" r="1.6666666666666667" />
<circle cx="288.63" cy="449.35" r="1.6666666666666667" />
<circle cx="288.84" cy="449.25" r="1.6666666666666667" />
<circle cx="289.05" cy="449.34" r="1.6666666666666667" />
<circle cx="289.25" cy="448.82" r="1.6666666666666667" />
<circle cx="289.46" cy="449.12" r="1.6666666666666667" />
<circle cx="289.67" cy="449.65" r="1.6666666666666667" />
<circle cx="289.88" cy="448.98" r="1.6666666666666667" />
<circle cx="290.09" cy="449.13" r="1.6666666666666667" />
<circle cx="290.30" cy="449.38" r="1.6666666666666667" />
<circle cx="290.51" cy="449.34" r="1.6666666666666667" />
<circle cx="290.73" cy="449.86" r="1.6666666666666667" />
<circle cx="290.93" cy="449.03" r="1.6666666666666667" />
<circle cx="291.15" cy="449.81" r="1.6666666666666667" />
<circle cx="291.36" cy="449.90" r="1.6666666666666667" />
<circle cx="291.58" cy="450.40" r="1.6666666666666667" />
<circle cx="291.80" cy="450.61" r="1.6666666666666667" />
<circle cx="292.02" cy="450.78" r="1.6666666666666667" />
<circle cx="292.24" cy="450.72" r="1.6666666666666667" />
<circle cx="292.46" cy="451.29" r="1.6666666666666667" />
<circle cx="292.68" cy="450.49" r="1.6666666666666667" />
<circle cx="292.90" cy="451.01" r="1.6666666666666667" />
<circle cx="293.13" cy="451.15" r="1.6666666666666667" />
<circle cx="293.36" cy="451.76" r="1.6666666666666667" />
<circle cx="293.59" cy="452.21" r="1.6666666666666667" />
<circle cx="293.82" cy="452.21" r="1.6666666666666667" />
<circle cx="294.06" cy="453.01" r="1.6666666666666667" />
<circle cx="294.30" cy="452.96" r="1.6666666666666667" />
<circle cx="294.53" cy="452.96" r="1.6666666666666667" />
<circle cx="294.78" cy="453.78" r="1.6666666666666667" />
<circle cx="295.02" cy="454.03" r="1.6666666666666667" />
<circle cx="295.27" cy="453.69" r="1.6666666666666667" />
<circle cx="295.52" cy="454.17" r="1.6666666666666667" />
<circle cx="295.77" cy="454.53" r="1.6666666666666667" />
<circle cx="296.01" cy="454.11" r="1.6666666666666667" />
<circle cx="296.26" cy="454.31" r="1.6666666666666667" />
<circle cx="296.52" cy="454.69" r="1.6666666666666667" />
<circle cx="296.77" cy="454.49" r="1.6666666666666667" />
<circle cx="297.02" cy="454.65" r="1.6666666666666667" />
<circle cx="297.27" cy="454.62" r="1.6666666666666667" />
<circle cx="297.52" cy="454.20" r="1.6666666666666667" />
<circle cx="297.76" cy="454.08" r="1.6666666666666667" />
<circle cx="298.01" cy="453.88" r="1.6666666666666667" />
<circle cx="298.26" cy="453.94" r="1.6666666666666667" />
<circle cx="298.51" cy="454.40" r="1.6666666666666667" />
<circle cx="298.75" cy="454.19" r="1.6666666666666667" />
<circle cx="299.01" cy="454.67" r="1.6666666666666667" />
<circle cx="299.26" cy="454.69" r="1.6666666666666667" />
<circle cx="299.51" cy="454.39" r="1.6666666666666667" />
<circle cx="299.76" cy="455.21" r="1.6666666666666667" />
<circle cx="300.01" cy="454.30" r="1.6666666666666667" />
<circle cx="300.26" cy="454.52" r="1.6666666666666667" />
<circle cx="300.51" cy="454.45" r="1.6666666666666667" />
<circle cx="300.77" cy="454.67" r="1.6666666666666667" />
<circle cx="301.01" cy="453.45" r="1.6666666666666667" />
<circle cx="301.25" cy="453.95" r="1.6666666666666667" />
<circle cx="301.51" cy="454.82" r="1.6666666666666667" />
<circle cx="301.76" cy="454.68" r="1.6666666666666667" />
<circle cx="302.01" cy="454.93" r="1.6666666666666667" />
<circle cx="302.27" cy="455.37" r="1.6666666666666667" />
<circle cx="302.52" cy="453.97" r="1.6666666666666667" />
<circle cx="302.76" cy="453.89" r="1.6666666666666667" />
<circle cx="303.02" cy="455.16" r="1.6666666666666667" />
<circle cx="303.27" cy="455.06" r="1.6666666666666667" />
<circle cx="303.53" cy="455.33" r="1.6666666666666667" />
<circle cx="303.80" cy="456.20" r="1.6666666666666667" />
<circle cx="304.06" cy="455.77" r="1.6666666666666667" />
<circle cx="304.33" cy="456.37" r="1.6666666666666667" />
<circle cx="304.59" cy="455.88" r="1.6666666666666667" />
<circle cx="304.85" cy="456.16" r="1.6666666666666667" />
<circle cx="305.13" cy="457.13" r="1.6666666666666667" />
<circle cx="305.40" cy="456.94" r="1.6666666666666667" />
<circle cx="305.67" cy="456.75" r="1.6666666666666667" />
<circle cx="305.93" cy="455.60" r="1.6666666666666667" />
<circle cx="306.21" cy="457.26" r="1.6666666666666667" />
<circle cx="306.49" cy="458.03" r="1.6666666666666667" />
<circle cx="306.77" cy="457.79" r="1.6666666666666667" />
<circle cx="307.05" cy="458.02" r="1.6666666666666667" />
<circle cx="307.33" cy="457.24" r="1.6666666666666667" />
<circle cx="307.60" cy="457.13" r="1.6666666666666667" />
<circle cx="307.87" cy="457.01" r="1.6666666666666667" />
<circle cx="308.15" cy="457.34" r="1.6666666666666667" />
<circle cx="308.43" cy="457.89" r="1.6666666666666667" />
<circle cx="308.71" cy="457.37" r="1.6666666666666667" />
<circle cx="308.99" cy="458.17" r="1.6666666666666667" />
<circle cx="309.26" cy="457.23" r="1.6666666666666667" />
<circle cx="309.54" cy="457.61" r="1.6666666666666667" />
<circle cx="309.83" cy="458.76" r="1.6666666666666667" />
<circle cx="310.12" cy="458.01" r="1.6666666666666667" />
<circle cx="310.41" cy="459.57" r="1.6666666666666667" />
<circle cx="310.70" cy="458.75" r="1.6666666666666667" />
<circle cx="310.98" cy="457.50" r="1.6666666666666667" />
<circle cx="311.24" cy="455.62" r="1.6666666666666667" />
<circle cx="311.51" cy="456.96" r="1.6666666666666667" />
<circle cx="311.78" cy="455.88" r="1.6666666666666667" />
<circle cx="312.05" cy="457.29" r="1.6666666666666667" />
<circle cx="312.32" cy="457.02" r="1.6666666666666667" />
<circle cx="312.59" cy="456.08" r="1.6666666666666667" />
<circle cx="312.86" cy="456.54" r="1.6666666666666667" />
<circle cx="313.14" cy="457.97" r="1.6666666666666667" />
<circle cx="313.42" cy="458.18" r="1.6666666666666667" />
<circle cx="313.70" cy="457.70" r="1.6666666666666667" />
<circle cx="313.98" cy="457.79" r="1.6666666666666667" />
<circle cx="314.25" cy="456.50" r="1.6666666666666667" />
<circle cx="314.52" cy="456.88" r="1.6666666666666667" />
<circle cx="314.80" cy="457.90" r="1.6666666666666667" />
<circle cx="315.08" cy="457.73" r="1.6666666666666667" />
<circle cx="315.36" cy="457.38" r="1.6666666666666667" />
<circle cx="315.65" cy="458.66" r="1.6666666666666667" />
<circle cx="315.92" cy="456.99" r="1.6666666666666667" />
<circle cx="316.20" cy="457.18" r="1.6666666666666667" />
<circle cx="316.48" cy="458.10" r="1.6666666666666667" />
<circle cx="316.77" cy="458.73" r="1.6666666666666667" />
<circle cx="317.07" cy="459.60" r="1.6666666666666667" />
<circle cx="317.35" cy="458.56" r="1.6666666666666667" />
<circle cx="317.64" cy="458.76" r="1.6666666666666667" />
<circle cx="317.94" cy="459.41" r="1.6666666666666667" />
<circle cx="318.23" cy="459.34" r="1.6666666666666667" />
<circle cx="318.53" cy="459.29" r="1.6666666666666667" />
<circle cx="318.83" cy="459.64" r="1.6666666666666667" />
<circle cx="319.12" cy="459.23" r="1.6666666666666667" />
<circle cx="319.41" cy="458.14" r="1.6666666666666667" />
<circle cx="319.70" cy="459.55" r="1.6666666666666667" />
<circle cx="320.00" cy="459.45" r="1.6666666666666667" />
<circle cx="320.30" cy="459.36" r="1.6666666666666667" />
<circle cx="320.59" cy="459.12" r="1.6666666666666667" />
<circle cx="320.87" cy="457.97" r="1.6666666666666667" />
<circle cx="321.16" cy="459.17" r="1.6666666666666667" />
<circle cx="321.47" cy="459.91" r="1.6666666666666667" />
<circle cx="321.77" cy="460.42" r="1.6666666666666667" />
<circle cx="322.08" cy="460.32" r="1.6666666666666667" />
<circle cx="322.38" cy="460.04" r="1.6666666666666667" />
<circle cx="322.67" cy="459.05" r="1.6666666666666667" />
<circle cx="322.99" cy="461.04" r="1.6666666666666667" />
<circle cx="323.29" cy="460.11" r="1.6666666666666667" />
<circle cx="323.60" cy="460.79" r="1.6666666666666667" />
<circle cx="323.91" cy="460.50" r="1.6666666666666667" />
<circle cx="324.21" cy="460.21" r="1.6666666666666667" />
<circle cx="324.52" cy="460.42" r="1.6666666666666667" />
<circle cx="325.14" cy="460.52" r="1.6666666666666667" />
<circle cx="325.47" cy="462.61" r="1.6666666666666667" />
<circle cx="325.75" cy="458.00" r="1.6666666666666667" />
<circle cx="326.07" cy="461.21" r="1.6666666666666667" />
<circle cx="326.39" cy="461.77" r="1.6666666666666667" />
<circle cx="326.71" cy="461.73" r="1.6666666666666667" />
<circle cx="327.03" cy="461.94" r="1.6666666666666667" />
<circle cx="327.35" cy="461.19" r="1.6666666666666667" />
<circle cx="327.66" cy="460.58" r="1.6666666666666667" />
<circle cx="327.98" cy="462.26" r="1.6666666666666667" />
<circle cx="328.32" cy="462.94" r="1.6666666666666667" />
<circle cx="328.64" cy="461.96" r="1.6666666666666667" />
<circle cx="328.97" cy="462.27" r="1.6666666666666667" />
<circle cx="329.29" cy="461.66" r="1.6666666666666667" />
<circle cx="329.62" cy="462.75" r="1.6666666666666667" />
<circle cx="329.95" cy="462.91" r="1.6666666666666667" />
<circle cx="330.29" cy="463.27" r="1.6666666666666667" />
<circle cx="330.63" cy="463.77" r="1.6666666666666667" />
<circle cx="330.96" cy="462.50" r="1.6666666666666667" />
<circle cx="331.31" cy="464.31" r="1.6666666666666667" />
<circle cx="331.66" cy="464.05" r="1.6666666666666667" />
<circle cx="332.02" cy="465.32" r="1.6666666666666667" />
<circle cx="332.37" cy="464.02" r="1.6666666666666667" />
<circle cx="332.71" cy="463.68" r="1.6666666666666667" />
<circle cx="333.07" cy="465.37" r="1.6666666666666667" />
<circle cx="333.43" cy="464.98" r="1.6666666666666667" />
<circle cx="333.79" cy="465.55" r="1.6666666666666667" />
<circle cx="334.14" cy="463.93" r="1.6666666666666667" />
<circle cx="334.50" cy="465.40" r="1.6666666666666667" />
<circle cx="334.87" cy="465.95" r="1.6666666666666667" />
<circle cx="335.24" cy="465.40" r="1.6666666666666667" />
<circle cx="335.60" cy="465.68" r="1.6666666666666667" />
<circle cx="335.97" cy="465.38" r="1.6666666666666667" />
<circle cx="336.34" cy="466.46" r="1.6666666666666667" />
<circle cx="336.71" cy="465.93" r="1.6666666666666667" />
<circle cx="337.08" cy="465.83" r="1.6666666666666667" />
<circle cx="337.46" cy="466.84" r="1.6666666666666667" />
<circle cx="337.84" cy="466.31" r="1.6666666666666667" />
<circle cx="338.22" cy="466.98" r="1.6666666666666667" />
<circle cx="338.61" cy="467.40" r="1.6666666666666667" />
<circle cx="338.99" cy="466.84" r="1.6666666666666667" />
<circle cx="339.37" cy="466.43" r="1.6666666666666667" />
<circle cx="339.75" cy="466.94" r="1.6666666666666667" />
<circle cx="340.13" cy="466.96" r="1.6666666666666667" />
<circle cx="340.53" cy="467.99" r="1.6666666666666667" />
<circle cx="340.91" cy="467.05" r="1.6666666666666667" />
<circle cx="341.30" cy="467.10" r="1.6666666666666667" />
<circle cx="341.69" cy="467.43" r="1.6666666666666667" />
<circle cx="342.09" cy="468.43" r="1.6666666666666667" />
<circle cx="342.47" cy="466.99" r="1.6666666666666667" />
<circle cx="342.87" cy="467.82" r="1.6666666666666667" />
<circle cx="343.27" cy="468.54" r="1.6666666666666667" />
<circle cx="343.68" cy="468.73" r="1.6666666666666667" />
<circle cx="344.07" cy="467.75" r="1.6666666666666667" />
<circle cx="344.46" cy="467.64" r="1.6666666666666667" />
<circle cx="344.87" cy="468.67" r="1.6666666666666667" />
<circle cx="345.28" cy="468.92" r="1.6666666666666667" />
<circle cx="345.68" cy="468.77" r="1.6666666666666667" />
<circle cx="346.09" cy="468.53" r="1.6666666666666667" />
<circle cx="346.92" cy="469.57" r="1.6666666666666667" />
<circle cx="347.34" cy="469.60" r="1.6666666666666667" />
<circle cx="347.76" cy="469.35" r="1.6666666666666667" />
<circle cx="348.19" cy="470.68" r="1.6666666666666667" />
<circle cx="348.63" cy="471.01" r="1.6666666666666667" />
<circle cx="349.06" cy="470.62" r="1.6666666666666667" />
<circle cx="349.51" cy="471.75" r="1.6666666666666667" />
<circle cx="349.96" cy="471.62" r="1.6666666666666667" />
<circle cx="350.43" cy="472.47" r="1.6666666666666667" />
<circle cx="350.87" cy="471.41" r="1.6666666666666667" />
<circle cx="351.33" cy="472.19" r="1.6666666666666667" />
<circle cx="351.79" cy="472.49" r="1.6666666666666667" />
<circle cx="352.25" cy="471.96" r="1.6666666666666667" />
<circle cx="352.69" cy="471.33" r="1.6666666666666667" />
<circle cx="353.17" cy="473.37" r="1.6666666666666667" />
<circle cx="353.65" cy="473.61" r="1.6666666666666667" />
<circle cx="354.11" cy="472.78" r="1.6666666666666667" />
<circle cx="354.60" cy="474.20" r="1.6666666666666667" />
<circle cx="355.08" cy="473.69" r="1.6666666666666667" />
<circle cx="355.57" cy="473.90" r="1.6666666666666667" />
<circle cx="356.06" cy="473.94" r="1.6666666666666667" />
<circle cx="356.55" cy="474.29" r="1.6666666666666667" />
<circle cx="357.05" cy="474.77" r="1.6666666666666667" />
<circle cx="357.55" cy="475.20" r="1.6666666666666667" />
<circle cx="358.07" cy="475.68" r="1.6666666666666667" />
<circle cx="358.59" cy="475.78" r="1.6666666666666667" />
<circle cx="359.09" cy="475.07" r="1.6666666666666667" />
<circle cx="359.63" cy="477.12" r="1.6666666666666667" />
<circle cx="360.16" cy="476.49" r="1.6666666666666667" />
<circle cx="360.71" cy="477.43" r="1.6666666666666667" />
<circle cx="361.26" cy="477.53" r="1.6666666666666667" />
<circle cx="361.81" cy="477.49" r="1.6666666666666667" />
<circle cx="362.36" cy="477.65" r="1.6666666666666667" />
<circle cx="362.92" cy="478.15" r="1.6666666666666667" />
<circle cx="363.48" cy="478.44" r="1.6666666666666667" />
<circle cx="364.05" cy="478.69" r="1.6666666666666667" />
<circle cx="364.63" cy="478.98" r="1.6666666666666667" />
<circle cx="365.21" cy="479.10" r="1.6666666666666667" />
<circle cx="365.80" cy="479.45" r="1.6666666666666667" />
<circle cx="366.39" cy="479.83" r="1.6666666666666667" />
<circle cx="367.00" cy="480.59" r="1.6666666666666667" />
<circle cx="367.58" cy="479.23" r="1.6666666666666667" />
<circle cx="368.18" cy="480.35" r="1.6666666666666667" />
<circle cx="368.82" cy="481.75" r="1.6666666666666667" />
<circle cx="369.44" cy="481.17" r="1.6666666666666667" />
<circle cx="370.06" cy="481.21" r="1.6666666666666667" />
<circle cx="370.71" cy="482.56" r="1.6666666666666667" />
<circle cx="371.36" cy="482.54" r="1.6666666666666667" />
<circle cx="372.01" cy="482.60" r="1.6666666666666667" />
<circle cx="372.67" cy="482.70" r="1.6666666666666667" />
<circle cx="373.35" cy="483.86" r="1.6666666666666667" />
<circle cx="374.00" cy="482.55" r="1.6666666666666667" />
<circle cx="374.69" cy="484.12" r="1.6666666666666667" />
<circle cx="375.38" cy="484.32" r="1.6666666666666667" />
<circle cx="376.09" cy="485.11" r="1.6666666666666667" />
<circle cx="376.81" cy="485.49" r="1.6666666666666667" />
<circle cx="377.51" cy="484.72" r="1.6666666666666667" />
<circle cx="378.21" cy="484.83" r="1.6666666666666667" />
<circle cx="378.92" cy="484.91" r="1.6666666666666667" />
<circle cx="379.65" cy="486.10" r="1.6666666666666667" />
<circle cx="380.43" cy="487.83" r="1.6666666666666667" />
<circle cx="381.21" cy="487.61" r="1.6666666666666667" />
<circle cx="382.00" cy="488.42" r="1.6666666666666667" />
<circle cx="383.63" cy="489.51" r="1.6666666666666667" />
</g>
<g stroke="black">
<line x1="839.86" x2="839.86" y1="510.00" y2="520.00" />
<line x1="791.78" x2="791.78" y1="510.00" y2="520.00" />
<line x1="740.39" x2="740.39" y1="510.00" y2="520.00" />
<line x1="689.00" x2="689.00" y1="510.00" y2="520.00" />
<line x1="639.26" x2="639.26" y1="510.00" y2="520.00" />
<line x1="587.87" x2="587.87" y1="510.00" y2="520.00" />
<line x1="538.13" x2="538.13" y1="510.00" y2="520.00" />
<line x1="486.74" x2="486.74" y1="510.00" y2="520.00" />
<line x1="435.35" x2="435.35" y1="510.00" y2="520.00" />
<line x1="385.61" x2="385.61" y1="510.00" y2="520.00" />
<line x1="334.22" x2="334.22" y1="510.00" y2="520.00" />
<line x1="284.48" x2="284.48" y1="510.00" y2="520.00" />
<line x1="233.09" x2="233.09" y1="510.00" y2="520.00" />
<line x1="186.67" x2="186.67" y1="510.00" y2="520.00" />
<g fill="black" font-family="Arial, sans-serif" font-size="18.0" stroke="none" text-anchor="start" transform="translate(9.0 0.0)">
<text x="839.86" y="530.57">Mar</text>
<text x="791.78" y="530.57">Feb</text>
<text x="740.39" y="530.57">Jan</text>
<text x="689.00" y="530.57">Dec</text>
<text x="639.26" y="530.57">Nov</text>
<text x="587.87" y="530.57">Oct</text>
<text x="538.13" y="530.57">Sep</text>
<text x="486.74" y="530.57">Aug</text>
<text x="435.35" y="530.57">Jul</text>
<text x="385.61" y="530.57">Jun</text>
<text x="334.22" y="530.57">May</text>
<text x="284.48" y="530.57">Apr</text>
<text x="233.09" y="530.57">Mar</text>
<text x="186.67" y="530.57">Feb</text>
</g>
<line x1="150.00" x2="850.00" y1="510.00" y2="510.00" />
</g>
<g stroke="black">
<line x1="150.00" x2="140.00" y1="510.00" y2="510.00" />
<line x1="150.00" x2="140.00" y1="216.29" y2="216.29" />
<g fill="black" font-family="Arial, sans-serif" font-size="18.0" stroke="none" text-anchor="end">
<text x="141.00" y="501.00">0</text>
<text x="141.00" y="207.29">10</text>
</g>
<line x1="150.00" x2="150.00" y1="510.00" y2="90.00" />
</g>
</g>
</svg>