<?xml version="1.0"?>
<svg version="1.1" viewBox="0 0 1000 600" xmlns:xlink="http://www.w3.org/1999/xlink" xmlns="http://www.w3.org/2000/svg">
<g>
<g stroke-dasharray="3.6 7.2" stroke-width="0.72" stroke="#caa">
<line x1="813.75" x2="813.75" y1="510.00" y2="90.00" />
<line x1="760.60" x2="760.60" y1="510.00" y2="90.00" />
<line x1="707.45" x2="707.45" y1="510.00" y2="90.00" />
<line x1="656.01" x2="656.01" y1="510.00" y2="90.00" />
<line x1="602.86" x2="602.86" y1="510.00" y2="90.00" />
<line x1="551.42" x2="551.42" y1="510.00" y2="90.00" />
<line x1="498.27" x2="498.27" y1="510.00" y2="90.00" />
<line x1="445.11" x2="445.11" y1="510.00" y2="90.00" />
<line x1="393.68" x2="393.68" y1="510.00" y2="90.00" />
<line x1="340.52" x2="340.52" y1="510.00" y2="90.00" />
<line x1="289.09" x2="289.09" y1="510.00" y2="90.00" />
<line x1="235.93" x2="235.93" y1="510.00" y2="90.00" />
<line x1="187.92" x2="187.92" y1="510.00" y2="90.00" />
<line x1="150.00" x2="850.00" y1="510.00" y2="510.00" />
<line x1="150.00" x2="850.00" y1="216.29" y2="216.29" />
</g>
<g>
<text dominant-baseline="hanging" dx="-36.0" dy="18.0" fill="#0004" font-family="Arial, sans-serif" font-size="36" stroke="none" text-anchor="end" x="850.00" y="128.18">FR2</text>
</g>
<g>
<text dominant-baseline="text-bottom" dy="-12.0" fill="black" font-family="Arial, sans-serif" font-size="18.0" font-style="italic" stroke="none" text-anchor="middle" x="500.00" y="90.00">Years 2023 to 2024</text>
</g>
<g>
<text dominant-baseline="central" dx="12.0" dy="12.0" fill="black" font-family="Arial, sans-serif" font-size="18.0" font-style="italic" stroke="none" text-anchor="middle" text-orientation="sideways" writing-mode="vertical-lr" x="850.00" y="300.00">log(Drips per day)</text>
</g>
<polyline fill="none" points="150.22,434.89 150.35,434.87 150.50,437.26 150.64,436.76 150.77,435.80 150.91,435.06 151.05,436.07 151.18,435.75 151.32,436.41 151.47,437.09 151.60,435.42 151.74,436.40 151.87,434.86 152.02,436.66 152.16,437.43 152.31,437.50 152.45,436.60 152.59,436.27 152.72,435.65 177.86,444.11 178.03,443.33 178.21,443.50 178.39,443.41 178.56,442.96 178.75,444.40 178.93,443.53 179.10,442.61 179.27,443.01 179.44,442.06 179.62,442.69 179.79,442.40 179.96,441.83 180.13,442.55 201.87,448.55" stroke-dasharray="3.6 3.6" stroke-width="3.6" stroke="#aaa" />
<g>
<circle cx="150.22" cy="434.89" r="1.6666666666666667" />
<circle cx="150.35" cy="434.87" r="1.6666666666666667" />
<circle cx="150.50" cy="437.26" r="1.6666666666666667" />
<circle cx="150.64" cy="436.76" r="1.6666666666666667" />
<circle cx="150.77" cy="435.80" r="1.6666666666666667" />
<circle cx="150.91" cy="435.06" r="1.6666666666666667" />
<circle cx="151.05" cy="436.07" r="1.6666666666666667" />
<circle cx="151.18" cy="435.75" r="1.6666666666666667" />
<circle cx="151.32" cy="436.41" r="1.6666666666666667" />
<circle cx="151.47" cy="437.09" r="1.6666666666666667" />
<circle cx="151.60" cy="435.42" r="1.6666666666666667" />
<circle cx="151.74" cy="436.40" r="1.6666666666666667" />
<circle cx="151.87" cy="434.86" r="1.6666666666666667" />
<circle cx="152.02" cy="436.66" r="1.6666666666666667" />
<circle cx="152.16" cy="437.43" r="1.6666666666666667" />
<circle cx="152.31" cy="437.50" r="1.6666666666666667" />
<circle cx="152.45" cy="436.60" r="1.6666666666666667" />
<circle cx="152.59" cy="436.27" r="1.6666666666666667" />
<circle cx="152.72" cy="435.65" r="1.6666666666666667" />
<circle cx="177.86" cy="444.11" r="1.6666666666666667" />
<circle cx="178.03" cy="443.33" r="1.6666666666666667" />
<circle cx="178.21" cy="443.50" r="1.6666666666666667" />
<circle cx="178.39" cy="443.41" r="1.6666666666666667" />
<circle cx="178.56" cy="442.96" r="1.6666666666666667" />
<circle cx="178.75" cy="444.40" r="1.6666666666666667" />
<circle cx="178.93" cy="443.53" r="1.6666666666666667" />
<circle cx="179.10" cy="442.61" r="1.6666666666666667" />
<circle cx="179.27" cy="443.01" r="1.6666666666666667" />
<circle cx="179.44" cy="442.06" r="1.6666666666666667" />
<circle cx="179.62" cy="442.69" r="1.6666666666666667" />
<circle cx="179.79" cy="442.40" r="1.6666666666666667" />
<circle cx="179.96" cy="441.83" r="1.6666666666666667" />
<circle cx="180.13" cy="442.55" r="1.6666666666666667" />
<circle cx="201.87" cy="448.55" r="1.6666666666666667" />
</g>
<g stroke="black">
<line x1="813.75" x2="813.75" y1="510.00" y2="520.00" />
<line x1="760.60" x2="760.60" y1="510.00" y2="520.00" />
<line x1="707.45" x2="707.45" y1="510.00" y2="520.00" />
<line x1="656.01" x2="656.01" y1="510.00" y2="520.00" />
<line x1="602.86" x2="602.86" y1="510.00" y2="520.00" />
<line x1="551.42" x2="551.42" y1="510.00" y2="520.00" />
<line x1="498.27" x2="498.27" y1="510.00" y2="520.00" />
<line x1="445.11" x2="445.11" y1="510.00" y2="520.00" />
<line x1="393.68" x2="393.68" y1="510.00" y2="520.00" />
<line x1="340.52" x2="340.52" y1="510.00" y2="520.00" />
<line x1="289.09" x2="289.09" y1="510.00" y2="520.00" />
<line x1="235.93" x2="235.93" y1="510.00" y2="520.00" />
<line x1="187.92" x2="187.92" y1="510.00" y2="520.00" />
<g fill="black" font-family="Arial, sans-serif" font-size="18.0" stroke="none" text-anchor="start" transform="translate(9.0 0.0)">
<text x="813.75" y="530.57">Feb</text>
<text x="760.60" y="530.57">Jan</text>
<text x="707.45" y="530.57">Dec</text>
<text x="656.01" y="530.57">Nov</text>
<text x="602.86" y="530.57">Oct</text>
<text x="551.42" y="530.57">Sep</text>
<text x="498.27" y="530.57">Aug</text>
<text x="445.11" y="530.57">Jul</text>
<text x="393.68" y="530.57">Jun</text>
<text x="340.52" y="530.57">May</text>
<text x="289.09" y="530.57">Apr</text>
<text x="235.93" y="530.57">Mar</text>
<text x="187.92" y="530.57">Feb</text>
</g>
<line x1="150.00" x2="850.00" y1="510.00" y2="510.00" />
</g>
<g stroke="black">
<line x1="150.00" x2="140.00" y1="510.00" y2="510.00" />
<line x1="150.00" x2="140.00" y1="216.29" y2="216.29" />
<g fill="black" font-family="Arial, sans-serif" font-size="18.0" stroke="none" text-anchor="end">
<text x="141.00" y="501.00">0</text>
<text x="141.00" y="207.29">10</text>
</g>
<line x1="150.00" x2="150.00" y1="510.00" y2="90.00" />
</g>
</g>
</svg>