<?xml version="1.0"?>
<svg version="1.1" viewBox="0 0 1000 600" xmlns:xlink="http://www.w3.org/1999/xlink" xmlns="http://www.w3.org/2000/svg">
<g>
<g stroke-dasharray="3.6 7.2" stroke-width="0.72" stroke="#caa">
<line x1="342.44" x2="342.44" y1="510.00" y2="90.00" />
<line x1="611.37" x2="611.37" y1="510.00" y2="90.00" />
<line x1="150.00" x2="850.00" y1="482.59" y2="482.59" />
<line x1="150.00" x2="850.00" y1="409.81" y2="409.81" />
<line x1="150.00" x2="850.00" y1="337.02" y2="337.02" />
<line x1="150.00" x2="850.00" y1="264.23" y2="264.23" />
<line x1="150.00" x2="850.00" y1="191.44" y2="191.44" />
<line x1="150.00" x2="850.00" y1="118.66" y2="118.66" />
</g>
<g>
<text dominant-baseline="hanging" dx="-36.0" dy="18.0" fill="#0004" font-family="Arial, sans-serif" font-size="36" stroke="none" text-anchor="end" x="850.00" y="125.00">FR2</text>
</g>
<g>
<text dominant-baseline="text-bottom" dy="-12.0" fill="black" font-family="Arial, sans-serif" font-size="18.0" font-style="italic" stroke="none" text-anchor="middle" x="500.00" y="90.00">Days since start</text>
</g>
<g>
<text dominant-baseline="central" dx="12.0" dy="12.0" fill="black" font-family="Arial, sans-serif" font-size="18.0" font-style="italic" stroke="none" text-anchor="middle" text-orientation="sideways" writing-mode="vertical-lr" x="850.00" y="300.00">Drips per day</text>
</g>
<polyline fill="none" points="150.00,125.70 151.80,125.28 153.75,198.78 155.67,183.86 157.53,154.52 159.34,131.28 161.22,162.75 163.07,152.81 164.97,173.24 166.91,193.50 168.74,142.64 170.64,172.86 172.44,125.00 174.35,180.89 176.31,203.53 178.28,205.76 180.19,178.89 182.08,169.05 183.93,149.89 524.52,378.94 526.92,360.34 529.34,364.42 531.74,362.39 534.12,351.55 536.61,385.61 539.02,365.28 541.37,342.95 543.74,352.76 546.04,329.18 548.39,344.93 550.71,337.78 553.00,323.37 555.33,341.46 850.00,475.00" stroke-dasharray="3.6 3.6" stroke-width="3.6" stroke="#aaa" />
<g>
<circle cx="150.00" cy="125.70" r="1.6666666666666667" />
<circle cx="151.80" cy="125.28" r="1.6666666666666667" />
<circle cx="153.75" cy="198.78" r="1.6666666666666667" />
<circle cx="155.67" cy="183.86" r="1.6666666666666667" />
<circle cx="157.53" cy="154.52" r="1.6666666666666667" />
<circle cx="159.34" cy="131.28" r="1.6666666666666667" />
<circle cx="161.22" cy="162.75" r="1.6666666666666667" />
<circle cx="163.07" cy="152.81" r="1.6666666666666667" />
<circle cx="164.97" cy="173.24" r="1.6666666666666667" />
<circle cx="166.91" cy="193.50" r="1.6666666666666667" />
<circle cx="168.74" cy="142.64" r="1.6666666666666667" />
<circle cx="170.64" cy="172.86" r="1.6666666666666667" />
<circle cx="172.44" cy="125.00" r="1.6666666666666667" />
<circle cx="174.35" cy="180.89" r="1.6666666666666667" />
<circle cx="176.31" cy="203.53" r="1.6666666666666667" />
<circle cx="178.28" cy="205.76" r="1.6666666666666667" />
<circle cx="180.19" cy="178.89" r="1.6666666666666667" />
<circle cx="182.08" cy="169.05" r="1.6666666666666667" />
<circle cx="183.93" cy="149.89" r="1.6666666666666667" />
<circle cx="524.52" cy="378.94" r="1.6666666666666667" />
<circle cx="526.92" cy="360.34" r="1.6666666666666667" />
<circle cx="529.34" cy="364.42" r="1.6666666666666667" />
<circle cx="531.74" cy="362.39" r="1.6666666666666667" />
<circle cx="534.12" cy="351.55" r="1.6666666666666667" />
<circle cx="536.61" cy="385.61" r="1.6666666666666667" />
<circle cx="539.02" cy="365.28" r="1.6666666666666667" />
<circle cx="541.37" cy="342.95" r="1.6666666666666667" />
<circle cx="543.74" cy="352.76" r="1.6666666666666667" />
<circle cx="546.04" cy="329.18" r="1.6666666666666667" />
<circle cx="548.39" cy="344.93" r="1.6666666666666667" />
<circle cx="550.71" cy="337.78" r="1.6666666666666667" />
<circle cx="553.00" cy="323.37" r="1.6666666666666667" />
<circle cx="555.33" cy="341.46" r="1.6666666666666667" />
<circle cx="850.00" cy="475.00" r="1.6666666666666667" />
</g>
<g stroke="black">
<line x1="342.44" x2="342.44" y1="510.00" y2="520.00" />
<line x1="611.37" x2="611.37" y1="510.00" y2="520.00" />
<g fill="black" font-family="Arial, sans-serif" font-size="18.0" stroke="none" text-anchor="start" transform="translate(9.0 0.0)">
<text x="342.44" y="530.57">18Jan'23</text>
<text x="611.37" y="530.57">29Jan'23</text>
</g>
<line x1="150.00" x2="850.00" y1="510.00" y2="510.00" />
</g>
<g stroke="black">
<line x1="150.00" x2="140.00" y1="482.59" y2="482.59" />
<line x1="150.00" x2="140.00" y1="409.81" y2="409.81" />
<line x1="150.00" x2="140.00" y1="337.02" y2="337.02" />
<line x1="150.00" x2="140.00" y1="264.23" y2="264.23" />
<line x1="150.00" x2="140.00" y1="191.44" y2="191.44" />
<line x1="150.00" x2="140.00" y1="118.66" y2="118.66" />
<g fill="black" font-family="Arial, sans-serif" font-size="18.0" stroke="none" text-anchor="end">
<text x="141.00" y="473.59">8</text>
<text x="141.00" y="400.81">9</text>
<text x="141.00" y="328.02">10</text>
<text x="141.00" y="255.23">11</text>
<text x="141.00" y="182.44">12</text>
<text x="141.00" y="109.66">13</text>
</g>
<line x1="150.00" x2="150.00" y1="510.00" y2="90.00" />
</g>
</g>
</svg>