<?xml version="1.0"?>
<svg version="1.1" viewBox="0 0 1000 600" xmlns:xlink="http://www.w3.org/1999/xlink" xmlns="http://www.w3.org/2000/svg">
<g>
<g stroke-dasharray="3.6 7.2" stroke-width="0.72" stroke="#caa">
<line x1="828.41" x2="828.41" y1="510.00" y2="90.00" />
<line x1="785.75" x2="785.75" y1="510.00" y2="90.00" />
<line x1="741.68" x2="741.68" y1="510.00" y2="90.00" />
<line x1="700.44" x2="700.44" y1="510.00" y2="90.00" />
<line x1="656.36" x2="656.36" y1="510.00" y2="90.00" />
<line x1="612.28" x2="612.28" y1="510.00" y2="90.00" />
<line x1="569.63" x2="569.63" y1="510.00" y2="90.00" />
<line x1="525.55" x2="525.55" y1="510.00" y2="90.00" />
<line x1="482.89" x2="482.89" y1="510.00" y2="90.00" />
<line x1="438.81" x2="438.81" y1="510.00" y2="90.00" />
<line x1="394.73" x2="394.73" y1="510.00" y2="90.00" />
<line x1="352.08" x2="352.08" y1="510.00" y2="90.00" />
<line x1="308.00" x2="308.00" y1="510.00" y2="90.00" />
<line x1="265.34" x2="265.34" y1="510.00" y2="90.00" />
<line x1="221.26" x2="221.26" y1="510.00" y2="90.00" />
<line x1="181.45" x2="181.45" y1="510.00" y2="90.00" />
<line x1="150.00" x2="850.00" y1="510.00" y2="510.00" />
<line x1="150.00" x2="850.00" y1="216.29" y2="216.29" />
</g>
<g>
<text dominant-baseline="hanging" dx="-36.0" dy="18.0" fill="#0004" font-family="Arial, sans-serif" font-size="36" stroke="none" text-anchor="end" x="850.00" y="128.18">FR2</text>
</g>
<g>
<text dominant-baseline="text-bottom" dy="-12.0" fill="black" font-family="Arial, sans-serif" font-size="18.0" font-style="italic" stroke="none" text-anchor="middle" x="500.00" y="90.00">Years 2023 to 2024</text>
</g>
<g>
<text dominant-baseline="hanging" dx="18.0" dy="18.0" fill="black" font-family="Arial, sans-serif" font-size="18.0" font-style="italic" stroke="none" text-anchor="beginning" text-orientation="sideways" x="150.00" y="90.00">log(Drips per day)</text>
</g>
<polyline fill="none" points="150.18,434.89 150.29,434.87 150.41,437.26 150.53,436.76 150.64,435.80 150.75,435.06 150.87,436.07 150.98,435.75 151.10,436.41 151.22,437.09 151.33,435.42 151.44,436.40 151.55,434.86 151.67,436.66 151.79,437.43 151.91,437.50 152.03,436.60 152.14,436.27 152.26,435.65 173.10,444.11 173.25,443.33 173.39,443.50 173.54,443.41 173.69,442.96 173.84,444.40 173.99,443.53 174.13,442.61 174.28,443.01 174.42,442.06 174.56,442.69 174.70,442.40 174.84,441.83 174.99,442.55 193.02,448.55" stroke-dasharray="3.6 3.6" stroke-width="3.6" stroke="#aaa" />
<g>
<circle cx="150.18" cy="434.89" r="1.6666666666666667" />
<circle cx="150.29" cy="434.87" r="1.6666666666666667" />
<circle cx="150.41" cy="437.26" r="1.6666666666666667" />
<circle cx="150.53" cy="436.76" r="1.6666666666666667" />
<circle cx="150.64" cy="435.80" r="1.6666666666666667" />
<circle cx="150.75" cy="435.06" r="1.6666666666666667" />
<circle cx="150.87" cy="436.07" r="1.6666666666666667" />
<circle cx="150.98" cy="435.75" r="1.6666666666666667" />
<circle cx="151.10" cy="436.41" r="1.6666666666666667" />
<circle cx="151.22" cy="437.09" r="1.6666666666666667" />
<circle cx="151.33" cy="435.42" r="1.6666666666666667" />
<circle cx="151.44" cy="436.40" r="1.6666666666666667" />
<circle cx="151.55" cy="434.86" r="1.6666666666666667" />
<circle cx="151.67" cy="436.66" r="1.6666666666666667" />
<circle cx="151.79" cy="437.43" r="1.6666666666666667" />
<circle cx="151.91" cy="437.50" r="1.6666666666666667" />
<circle cx="152.03" cy="436.60" r="1.6666666666666667" />
<circle cx="152.14" cy="436.27" r="1.6666666666666667" />
<circle cx="152.26" cy="435.65" r="1.6666666666666667" />
<circle cx="173.10" cy="444.11" r="1.6666666666666667" />
<circle cx="173.25" cy="443.33" r="1.6666666666666667" />
<circle cx="173.39" cy="443.50" r="1.6666666666666667" />
<circle cx="173.54" cy="443.41" r="1.6666666666666667" />
<circle cx="173.69" cy="442.96" r="1.6666666666666667" />
<circle cx="173.84" cy="444.40" r="1.6666666666666667" />
<circle cx="173.99" cy="443.53" r="1.6666666666666667" />
<circle cx="174.13" cy="442.61" r="1.6666666666666667" />
<circle cx="174.28" cy="443.01" r="1.6666666666666667" />
<circle cx="174.42" cy="442.06" r="1.6666666666666667" />
<circle cx="174.56" cy="442.69" r="1.6666666666666667" />
<circle cx="174.70" cy="442.40" r="1.6666666666666667" />
<circle cx="174.84" cy="441.83" r="1.6666666666666667" />
<circle cx="174.99" cy="442.55" r="1.6666666666666667" />
<circle cx="193.02" cy="448.55" r="1.6666666666666667" />
</g>
<g stroke="black">
<line x1="828.41" x2="828.41" y1="510.00" y2="520.00" />
<line x1="785.75" x2="785.75" y1="510.00" y2="520.00" />
<line x1="741.68" x2="741.68" y1="510.00" y2="520.00" />
<line x1="700.44" x2="700.44" y1="510.00" y2="520.00" />
<line x1="656.36" x2="656.36" y1="510.00" y2="520.00" />
<line x1="612.28" x2="612.28" y1="510.00" y2="520.00" />
<line x1="569.63" x2="569.63" y1="510.00" y2="520.00" />
<line x1="525.55" x2="525.55" y1="510.00" y2="520.00" />
<line x1="482.89" x2="482.89" y1="510.00" y2="520.00" />
<line x1="438.81" x2="438.81" y1="510.00" y2="520.00" />
<line x1="394.73" x2="394.73" y1="510.00" y2="520.00" />
<line x1="352.08" x2="352.08" y1="510.00" y2="520.00" />
<line x1="308.00" x2="308.00" y1="510.00" y2="520.00" />
<line x1="265.34" x2="265.34" y1="510.00" y2="520.00" />
<line x1="221.26" x2="221.26" y1="510.00" y2="520.00" />
<line x1="181.45" x2="181.45" y1="510.00" y2="520.00" />
<g fill="black" font-family="Arial, sans-serif" font-size="18.0" stroke="none" text-anchor="start" transform="translate(9.0 0.0)">
<text x="828.41" y="530.57">May</text>
<text x="785.75" y="530.57">Apr</text>
<text x="741.68" y="530.57">Mar</text>
<text x="700.44" y="530.57">Feb</text>
<text x="656.36" y="530.57">Jan</text>
<text x="612.28" y="530.57">Dec</text>
<text x="569.63" y="530.57">Nov</text>
<text x="525.55" y="530.57">Oct</text>
<text x="482.89" y="530.57">Sep</text>
<text x="438.81" y="530.57">Aug</text>
<text x="394.73" y="530.57">Jul</text>
<text x="352.08" y="530.57">Jun</text>
<text x="308.00" y="530.57">May</text>
<text x="265.34" y="530.57">Apr</text>
<text x="221.26" y="530.57">Mar</text>
<text x="181.45" y="530.57">Feb</text>
</g>
<line x1="150.00" x2="850.00" y1="510.00" y2="510.00" />
</g>
<g stroke="black">
<line x1="150.00" x2="138.00" y1="510.00" y2="510.00" />
<line x1="150.00" x2="138.00" y1="216.29" y2="216.29" />
<g fill="black" font-family="Arial, sans-serif" font-size="18.0" stroke="none" text-anchor="end">
<text x="141.00" y="501.00">0</text>
<text x="141.00" y="207.29">10</text>
</g>
<line x1="150.00" x2="150.00" y1="510.00" y2="90.00" />
</g>
</g>
</svg>