<?xml version="1.0"?>
<svg version="1.1" viewBox="0 0 1000 600" xmlns:xlink="http://www.w3.org/1999/xlink" xmlns="http://www.w3.org/2000/svg">
<g>
<g stroke-dasharray="3.6 7.2" stroke-width="0.72" stroke="#caa">
<line x1="813.75" x2="813.75" y1="510.00" y2="90.00" />
<line x1="760.60" x2="760.60" y1="510.00" y2="90.00" />
<line x1="707.45" x2="707.45" y1="510.00" y2="90.00" />
<line x1="656.01" x2="656.01" y1="510.00" y2="90.00" />
<line x1="602.86" x2="602.86" y1="510.00" y2="90.00" />
<line x1="551.42" x2="551.42" y1="510.00" y2="90.00" />
<line x1="498.27" x2="498.27" y1="510.00" y2="90.00" />
<line x1="445.11" x2="445.11" y1="510.00" y2="90.00" />
<line x1="393.68" x2="393.68" y1="510.00" y2="90.00" />
<line x1="340.52" x2="340.52" y1="510.00" y2="90.00" />
<line x1="289.09" x2="289.09" y1="510.00" y2="90.00" />
<line x1="235.93" x2="235.93" y1="510.00" y2="90.00" />
<line x1="187.92" x2="187.92" y1="510.00" y2="90.00" />
<line x1="150.00" x2="850.00" y1="510.00" y2="510.00" />
<line x1="150.00" x2="850.00" y1="319.09" y2="319.09" />
<line x1="150.00" x2="850.00" y1="128.18" y2="128.18" />
</g>
<g>
<text dominant-baseline="hanging" dx="-36.0" dy="18.0" fill="#0004" font-family="Arial, sans-serif" font-size="36" stroke="none" text-anchor="end" x="850.00" y="128.18">FR2</text>
</g>
<g>
<text dominant-baseline="text-bottom" dy="-12.0" fill="black" font-family="Arial, sans-serif" font-size="18.0" font-style="italic" stroke="none" text-anchor="middle" x="500.00" y="90.00">Days since start</text>
</g>
<g>
<text dominant-baseline="central" dx="12.0" dy="12.0" fill="black" font-family="Arial, sans-serif" font-size="18.0" font-style="italic" stroke="none" text-anchor="middle" text-orientation="sideways" writing-mode="vertical-lr" x="850.00" y="300.00">Drips per day</text>
</g>
<polyline fill="none" points="150.22,263.67 150.35,263.56 150.50,282.83 150.64,278.92 150.77,271.23 150.91,265.13 151.05,273.38 151.18,270.78 151.32,276.13 151.47,281.45 151.60,268.11 151.74,276.03 151.87,263.48 152.02,278.14 152.16,284.08 152.31,284.66 152.45,277.62 152.59,275.03 152.72,270.01 177.86,330.09 178.03,325.21 178.21,326.28 178.39,325.74 178.56,322.90 178.75,331.83 178.93,326.50 179.10,320.65 179.27,323.22 179.44,317.04 179.62,321.17 179.79,319.29 179.96,315.51 180.13,320.25 201.87,355.28" stroke-dasharray="3.6 3.6" stroke-width="3.6" stroke="#aaa" />
<g>
<circle cx="150.22" cy="263.67" r="1.6666666666666667" />
<circle cx="150.35" cy="263.56" r="1.6666666666666667" />
<circle cx="150.50" cy="282.83" r="1.6666666666666667" />
<circle cx="150.64" cy="278.92" r="1.6666666666666667" />
<circle cx="150.77" cy="271.23" r="1.6666666666666667" />
<circle cx="150.91" cy="265.13" r="1.6666666666666667" />
<circle cx="151.05" cy="273.38" r="1.6666666666666667" />
<circle cx="151.18" cy="270.78" r="1.6666666666666667" />
<circle cx="151.32" cy="276.13" r="1.6666666666666667" />
<circle cx="151.47" cy="281.45" r="1.6666666666666667" />
<circle cx="151.60" cy="268.11" r="1.6666666666666667" />
<circle cx="151.74" cy="276.03" r="1.6666666666666667" />
<circle cx="151.87" cy="263.48" r="1.6666666666666667" />
<circle cx="152.02" cy="278.14" r="1.6666666666666667" />
<circle cx="152.16" cy="284.08" r="1.6666666666666667" />
<circle cx="152.31" cy="284.66" r="1.6666666666666667" />
<circle cx="152.45" cy="277.62" r="1.6666666666666667" />
<circle cx="152.59" cy="275.03" r="1.6666666666666667" />
<circle cx="152.72" cy="270.01" r="1.6666666666666667" />
<circle cx="177.86" cy="330.09" r="1.6666666666666667" />
<circle cx="178.03" cy="325.21" r="1.6666666666666667" />
<circle cx="178.21" cy="326.28" r="1.6666666666666667" />
<circle cx="178.39" cy="325.74" r="1.6666666666666667" />
<circle cx="178.56" cy="322.90" r="1.6666666666666667" />
<circle cx="178.75" cy="331.83" r="1.6666666666666667" />
<circle cx="178.93" cy="326.50" r="1.6666666666666667" />
<circle cx="179.10" cy="320.65" r="1.6666666666666667" />
<circle cx="179.27" cy="323.22" r="1.6666666666666667" />
<circle cx="179.44" cy="317.04" r="1.6666666666666667" />
<circle cx="179.62" cy="321.17" r="1.6666666666666667" />
<circle cx="179.79" cy="319.29" r="1.6666666666666667" />
<circle cx="179.96" cy="315.51" r="1.6666666666666667" />
<circle cx="180.13" cy="320.25" r="1.6666666666666667" />
<circle cx="201.87" cy="355.28" r="1.6666666666666667" />
</g>
<g stroke="black">
<line x1="813.75" x2="813.75" y1="510.00" y2="520.00" />
<line x1="760.60" x2="760.60" y1="510.00" y2="520.00" />
<line x1="707.45" x2="707.45" y1="510.00" y2="520.00" />
<line x1="656.01" x2="656.01" y1="510.00" y2="520.00" />
<line x1="602.86" x2="602.86" y1="510.00" y2="520.00" />
<line x1="551.42" x2="551.42" y1="510.00" y2="520.00" />
<line x1="498.27" x2="498.27" y1="510.00" y2="520.00" />
<line x1="445.11" x2="445.11" y1="510.00" y2="520.00" />
<line x1="393.68" x2="393.68" y1="510.00" y2="520.00" />
<line x1="340.52" x2="340.52" y1="510.00" y2="520.00" />
<line x1="289.09" x2="289.09" y1="510.00" y2="520.00" />
<line x1="235.93" x2="235.93" y1="510.00" y2="520.00" />
<line x1="187.92" x2="187.92" y1="510.00" y2="520.00" />
<g fill="black" font-family="Arial, sans-serif" font-size="18.0" stroke="none" text-anchor="start" transform="translate(9.0 0.0)">
<text x="813.75" y="530.57">Feb</text>
<text x="760.60" y="530.57">Jan</text>
<text x="707.45" y="530.57">Dec</text>
<text x="656.01" y="530.57">Nov</text>
<text x="602.86" y="530.57">Oct</text>
<text x="551.42" y="530.57">Sep</text>
<text x="498.27" y="530.57">Aug</text>
<text x="445.11" y="530.57">Jul</text>
<text x="393.68" y="530.57">Jun</text>
<text x="340.52" y="530.57">May</text>
<text x="289.09" y="530.57">Apr</text>
<text x="235.93" y="530.57">Mar</text>
<text x="187.92" y="530.57">Feb</text>
</g>
<line x1="150.00" x2="850.00" y1="510.00" y2="510.00" />
</g>
<g stroke="black">
<line x1="150.00" x2="140.00" y1="510.00" y2="510.00" />
<line x1="150.00" x2="140.00" y1="319.09" y2="319.09" />
<line x1="150.00" x2="140.00" y1="128.18" y2="128.18" />
<g fill="black" font-family="Arial, sans-serif" font-size="18.0" stroke="none" text-anchor="end">
<text x="141.00" y="501.00">0</text>
<text x="141.00" y="310.09">10</text>
<text x="141.00" y="119.18">20</text>
</g>
<line x1="150.00" x2="150.00" y1="510.00" y2="90.00" />
</g>
</g>
</svg>