<?xml version="1.0"?>
<svg version="1.1" viewBox="0 0 1000 600" xmlns:xlink="http://www.w3.org/1999/xlink" xmlns="http://www.w3.org/2000/svg">
<g>
<g stroke-dasharray="3.6 7.2" stroke-width="0.72" stroke="#caa">
<line x1="839.86" x2="839.86" y1="510.00" y2="90.00" />
<line x1="791.78" x2="791.78" y1="510.00" y2="90.00" />
<line x1="740.39" x2="740.39" y1="510.00" y2="90.00" />
<line x1="689.00" x2="689.00" y1="510.00" y2="90.00" />
<line x1="639.26" x2="639.26" y1="510.00" y2="90.00" />
<line x1="587.87" x2="587.87" y1="510.00" y2="90.00" />
<line x1="538.13" x2="538.13" y1="510.00" y2="90.00" />
<line x1="486.74" x2="486.74" y1="510.00" y2="90.00" />
<line x1="435.35" x2="435.35" y1="510.00" y2="90.00" />
<line x1="385.61" x2="385.61" y1="510.00" y2="90.00" />
<line x1="334.22" x2="334.22" y1="510.00" y2="90.00" />
<line x1="284.48" x2="284.48" y1="510.00" y2="90.00" />
<line x1="233.09" x2="233.09" y1="510.00" y2="90.00" />
<line x1="186.67" x2="186.67" y1="510.00" y2="90.00" />
<line x1="150.00" x2="850.00" y1="510.00" y2="510.00" />
<line x1="150.00" x2="850.00" y1="216.29" y2="216.29" />
</g>
<g>
<text dominant-baseline="hanging" dx="-36.0" dy="18.0" fill="#0004" font-family="Arial, sans-serif" font-size="36" stroke="none" text-anchor="end" x="850.00" y="128.18">FR3</text>
</g>
<g>
<text dominant-baseline="text-bottom" dy="-12.0" fill="black" font-family="Arial, sans-serif" font-size="18.0" font-style="italic" stroke="none" text-anchor="middle" x="500.00" y="90.00">Years 2023 to 2024</text>
</g>
<g>
<text dominant-baseline="central" dx="12.0" dy="12.0" fill="black" font-family="Arial, sans-serif" font-size="18.0" font-style="italic" stroke="none" text-anchor="middle" text-orientation="sideways" writing-mode="vertical-lr" x="850.00" y="300.00">log(Drips per day)</text>
</g>
<polyline fill="none" points="150.27,456.21 150.54,456.65 150.80,456.52 151.08,457.04 151.35,457.14 151.62,456.37 151.89,456.65 152.15,456.35 152.43,457.12 152.48,405.31 219.15,384.00 219.15,257.58 219.15,261.04 219.15,272.95 219.15,259.36 219.19,405.51 219.19,237.23 219.19,216.87 219.19,196.51 219.19,176.15 219.19,176.15 219.19,176.15 219.19,176.15 219.19,176.15 219.19,176.15 219.19,176.15 219.19,176.15 219.19,176.15 219.19,176.15 219.20,176.15 219.20,176.15 219.20,176.15 219.20,176.15 219.20,176.15 219.20,176.15 219.20,176.15 219.20,176.15 219.20,176.15 219.20,176.15 219.20,176.15 219.20,176.15 219.20,176.15 219.20,176.15 219.20,176.15 219.20,176.15 219.20,176.15 219.20,176.15 219.20,176.15 219.20,176.15 219.20,176.15 219.20,176.15 219.20,176.15 219.20,176.15 219.20,176.15 219.20,176.15 219.20,176.15 219.20,176.15 219.20,176.15 219.20,176.15 219.20,176.15 219.20,176.15 219.20,176.15 219.20,176.15 219.20,176.15 219.20,176.15 219.20,176.15 219.20,176.15 219.20,176.15 219.20,176.15 219.20,176.15 219.20,176.15 219.20,176.15 219.20,176.15 219.20,176.15 219.20,176.15 219.20,176.15 219.20,176.15 219.20,176.15 219.20,176.15 219.20,176.15 219.20,176.15 219.20,176.15 219.20,176.15 219.20,176.15 219.20,176.15 219.20,176.15 219.20,176.15 219.20,196.51 219.20,176.15 219.20,176.15 219.20,176.15 219.20,176.15 219.20,176.15 219.20,176.15 219.20,176.15 219.20,176.15 219.20,176.15 219.20,176.15 219.20,176.15 219.20,176.15 219.20,176.15 219.20,176.15 219.20,176.15 219.20,176.15 219.20,176.15 219.20,176.15 219.20,176.15 219.20,176.15 219.20,176.15 219.20,176.15 219.20,176.15 219.20,176.15 219.20,176.15 219.20,176.15 219.20,176.15 219.20,176.15 219.20,176.15 219.20,176.15 219.20,176.15 219.20,176.15 219.20,176.15 219.20,176.15 219.20,176.15 219.20,176.15 219.20,176.15 219.20,176.15 219.20,176.15 219.20,176.15 219.20,176.15 219.20,176.15 219.20,176.15 219.20,176.15 219.20,176.15 219.20,176.15 219.20,176.15 219.20,176.15 219.20,176.15 219.20,176.15 219.20,176.15 219.20,176.15 219.20,176.15 219.20,176.15 219.20,176.15 219.20,176.15 219.20,176.15 219.20,176.15 219.20,176.15 219.20,176.15 219.20,176.15 219.20,257.58 219.20,176.15 219.20,176.15 219.20,176.15 219.20,176.15 219.20,176.15 219.20,176.15 219.20,176.15 219.20,176.15 219.20,176.15 219.20,176.15 219.20,176.15 219.20,176.15 219.20,176.15 219.20,176.15 219.20,176.15 219.20,176.15 219.20,176.15 219.20,176.15 219.20,176.15 219.20,176.15 219.20,176.15 219.20,176.15 219.20,176.15 219.20,176.15 219.20,176.15 219.20,176.15 219.20,176.15 219.20,176.15 219.20,176.15 219.20,176.15 219.20,176.15 219.20,176.15 219.20,176.15 219.20,176.15 219.20,176.15 219.20,176.15 219.20,176.15 219.20,176.15 219.20,176.15 219.20,176.15 219.20,176.15 219.20,176.15 219.20,176.15 219.20,176.15 219.20,176.15 219.20,176.15 219.20,176.15 219.20,176.15 219.20,176.15 219.20,176.15 219.20,176.15 219.20,176.15 219.20,176.15 219.20,176.15 219.20,176.15 219.20,176.15 219.20,176.15 219.20,176.15 219.20,176.15 219.20,176.15 219.20,176.15 219.20,176.15 219.20,176.15 219.20,176.15 219.20,176.15 219.20,176.15 219.20,176.15 219.20,176.15 219.20,176.15 219.20,176.15 219.20,176.15 219.20,176.15 219.20,176.15 219.20,176.15 219.20,176.15 219.20,176.15 219.20,176.15 219.20,176.15 219.20,176.15 219.20,176.15 219.20,176.15 219.20,176.15 219.20,176.15 219.20,176.15 219.20,176.15 219.20,176.15 219.20,176.15 219.20,176.15 219.20,176.15 219.20,176.15 219.20,176.15 219.20,176.15 219.20,176.15 219.20,176.15 219.20,176.15 219.20,176.15 219.20,176.15 219.20,176.15 219.20,176.15 219.20,176.15 219.20,176.15 219.20,176.15 219.20,176.15 219.20,176.15 219.20,176.15 219.20,176.15 219.20,176.15 219.20,176.15 219.20,176.15 219.20,176.15 219.20,176.15 219.20,176.15 219.20,176.15 219.20,176.15 219.20,176.15 219.20,176.15 219.20,176.15 219.20,176.15 219.20,176.15 219.20,176.15 219.20,176.15 219.20,176.15 219.20,176.15 219.20,176.15 219.20,176.15 219.20,176.15 219.20,176.15 219.20,176.15 219.20,176.15 219.20,176.15 219.20,176.15 219.20,176.15 219.20,176.15 219.20,176.15 219.20,176.15 219.20,176.15 219.20,176.15 219.20,257.58 219.20,176.15 219.20,176.15 219.20,176.15 219.20,176.15 219.20,176.15 219.20,176.15 219.20,176.15 219.20,176.15 219.20,176.15 219.20,176.15 219.20,257.58 219.20,176.15 219.20,176.15 219.20,176.15 219.20,176.15 219.20,176.15 219.20,176.15 219.20,176.15 219.20,176.15 219.20,176.15 219.20,176.15 219.20,176.15 219.20,176.15 219.20,176.15 219.20,176.15 219.20,176.15 219.20,176.15 219.20,176.15 219.20,176.15 219.20,176.15 219.20,176.15 219.20,176.15 219.20,176.15 219.20,176.15 219.20,176.15 219.20,176.15 219.20,176.15 219.20,176.15 219.20,176.15 219.20,176.15 219.20,176.15 219.20,176.15 219.20,176.15 219.20,176.15 219.20,176.15 219.20,176.15 219.20,176.15 219.20,176.15 219.20,176.15 219.20,176.15 219.20,176.15 219.20,176.15 219.20,176.15 219.20,176.15 219.20,176.15 219.20,176.15 219.20,176.15 219.20,176.15 219.20,176.15 219.20,176.15 219.20,176.15 219.20,176.15 219.20,176.15 219.20,176.15 219.20,176.15 219.20,176.15 219.20,176.15 219.20,176.15 219.20,176.15 219.20,176.15 219.20,176.15 219.20,176.15 219.20,176.15 219.20,176.15 219.20,176.15 219.20,176.15 219.20,176.15 219.20,176.15 219.20,176.15 219.20,176.15 219.20,176.15 219.20,176.15 219.20,176.15 219.20,176.15 219.20,176.15 219.20,176.15 219.20,176.15 219.20,176.15 219.20,176.15 219.20,176.15 219.20,176.15 219.20,176.15 219.20,176.15 219.20,176.15 219.20,176.15 219.20,176.15 219.20,176.15 219.20,176.15 219.20,176.15 219.20,176.15 219.20,176.15 219.20,176.15 219.20,176.15 219.20,176.15 219.20,176.15 219.20,176.15 219.20,257.58 219.20,176.15 219.20,176.15 219.20,176.15 219.20,176.15 219.20,176.15 219.20,176.15 219.20,176.15 219.20,176.15 219.20,176.15 219.20,176.15 219.20,176.15 219.20,176.15 219.20,176.15 219.20,176.15 219.20,176.15 219.20,176.15 219.20,176.15 219.20,176.15 219.20,176.15 219.20,176.15 219.20,176.15 219.20,176.15 219.20,176.15 219.20,176.15 219.20,176.15 219.20,176.15 219.20,176.15 219.20,176.15 219.20,176.15 219.20,176.15 219.20,176.15 219.20,176.15 219.20,176.15 219.20,176.15 219.20,176.15 219.20,176.15 219.20,176.15 219.20,176.15 219.20,176.15 219.20,196.51 219.20,176.15 219.20,176.15 219.20,176.15 219.20,176.15 219.20,257.58 219.20,176.15 219.20,176.15 219.20,176.15 219.21,314.74 219.21,176.15 219.21,176.15 219.21,176.15 219.21,176.15 219.21,176.15 219.21,176.15 219.21,176.15 219.21,176.15 219.21,176.15 219.21,176.15 219.21,176.15 219.21,176.15 219.21,176.15 219.21,176.15 219.21,176.15 219.21,176.15 219.21,176.15 219.21,176.15 219.21,176.15 219.21,176.15 219.21,176.15 219.21,176.15 219.21,176.15 219.21,176.15 219.21,176.15 219.21,176.15 219.21,176.15 219.21,176.15 219.21,176.15 219.21,176.15 219.21,176.15 219.21,176.15 219.21,176.15 219.21,176.15 219.21,176.15 219.21,176.15 219.21,176.15 219.21,176.15 219.21,176.15 219.21,176.15 219.21,176.15 219.21,176.15 219.21,176.15 219.21,176.15 219.21,176.15 219.21,176.15 219.21,176.15 219.21,176.15 219.21,176.15 219.21,176.15 219.21,176.15 219.21,176.15 219.21,176.15 219.21,176.15 219.21,176.15 219.21,176.15 219.21,176.15 219.21,176.15 219.21,176.15 219.21,176.15 219.21,176.15 219.21,176.15 219.21,176.15 219.21,176.15 219.21,176.15 219.21,176.15 219.21,176.15 219.21,176.15 219.21,176.15 219.21,176.15 219.21,176.15 219.21,176.15 219.21,176.15 219.21,176.15 219.21,176.15 219.21,176.15 219.21,176.15 219.21,176.15 219.21,176.15 219.21,176.15 219.21,176.15 219.21,176.15 219.21,176.15 219.21,176.15 219.21,176.15 219.21,176.15 219.21,176.15 219.21,176.15 219.21,176.15 219.21,176.15 219.21,176.15 219.21,176.15 219.21,176.15 219.21,176.15 219.21,176.15 219.21,176.15 219.21,176.15 219.21,176.15 219.21,176.15 219.21,176.15 219.21,176.15 219.21,176.15 219.21,176.15 219.21,176.15 219.21,176.15 219.21,176.15 219.21,176.15 219.21,176.15 219.21,176.15 219.21,176.15 219.21,176.15 219.21,176.15 219.21,176.15 219.21,176.15 219.21,176.15 219.21,176.15 219.21,176.15 219.21,176.15 219.21,176.15 219.21,176.15 219.21,176.15 219.21,176.15 219.21,176.15 219.21,176.15 219.21,176.15 219.21,176.15 219.21,176.15 219.21,176.15 219.21,176.15 219.21,176.15 219.21,176.15 219.21,176.15 219.21,176.15 219.21,176.15 219.21,176.15 219.21,176.15 219.21,176.15 219.21,176.15 219.21,176.15 219.21,176.15 219.21,176.15 219.21,176.15 219.21,176.15 219.21,176.15 219.21,176.15 219.21,176.15 219.21,176.15 219.21,176.15 219.21,176.15 219.21,176.15 219.21,176.15 219.21,176.15 219.21,176.15 219.21,176.15 219.21,176.15 219.21,176.15 219.21,176.15 219.21,176.15 219.21,176.15 219.21,176.15 219.21,176.15 219.21,176.15 219.21,176.15 219.21,176.15 219.21,176.15 219.21,176.15 219.21,176.15 219.21,176.15 219.21,176.15 219.21,176.15 219.21,176.15 219.21,176.15 219.21,176.15 219.21,176.15 219.21,176.15 219.21,176.15 219.21,176.15 219.21,176.15 219.21,176.15 219.21,176.15 219.21,176.15 219.21,176.15 219.21,176.15 219.21,176.15 219.21,176.15 219.21,176.15 219.21,257.58 219.21,176.15 219.21,176.15 219.21,176.15 219.21,176.15 219.21,176.15 219.21,176.15 219.21,176.15 219.21,176.15 219.21,176.15 219.21,176.15 219.21,176.15 219.21,176.15 219.21,176.15 219.21,176.15 219.24,388.75 219.24,276.05 219.24,299.20 219.24,328.34 219.26,381.32 219.26,253.66 219.26,208.42 219.26,176.15 219.26,237.23 219.27,348.62 219.58,460.49 219.80,451.26 220.03,451.59 220.25,450.88 220.47,450.47 220.69,450.51 220.89,448.75 221.11,450.80 221.34,451.11 221.55,449.94 221.78,451.27 221.99,450.10 222.22,451.38 222.45,452.00 222.68,451.82 222.91,451.96 223.12,449.98 223.34,450.89 223.57,451.66 223.80,451.43 224.03,452.33 224.25,450.61 224.47,451.50 224.71,453.18 224.94,451.39 225.17,452.35 225.39,449.84 225.62,452.53 225.86,452.78 226.10,453.57 226.34,453.01 226.57,452.59 226.81,452.42 227.03,451.67 227.27,453.01 227.51,452.67 227.74,452.08 227.98,453.45 228.21,452.42 228.45,453.36 228.69,452.91 228.94,453.98 229.19,454.25 229.44,454.55 229.68,453.64 229.92,453.72 230.17,453.46 230.42,454.67 230.68,455.74 230.94,455.69 231.20,455.68 231.46,455.06 231.72,456.42 231.99,456.60 232.26,456.25 232.52,455.25 232.76,454.21 233.03,456.12 233.30,456.85 233.56,455.70 233.81,454.65 234.08,456.36 234.34,456.02 234.60,455.65 234.87,455.81 235.12,454.94 235.39,456.53 235.65,455.77 235.90,454.52 236.16,455.53 236.42,456.12 236.68,455.52 236.95,456.12 237.20,454.49 237.46,455.19 237.73,456.66 238.00,457.08 238.26,455.76 238.52,455.76 238.80,457.39 239.07,457.08 239.33,455.38 239.61,457.44 239.88,456.80 240.14,456.17 240.42,456.84 240.69,456.77 240.95,456.54 241.23,456.84 241.48,455.31 241.76,457.34 242.03,457.24 242.31,457.79 242.58,456.61 242.85,456.31 243.13,457.27 243.40,457.68 243.68,457.71 243.97,458.18 244.24,457.32 244.52,457.54 244.80,457.67 245.08,457.15 245.35,457.74 245.64,458.20 245.92,457.38 246.20,457.91 246.47,457.50 246.65,443.57 246.82,444.38 247.01,446.06 247.17,440.88 247.33,441.15 247.49,440.84 247.57,423.02 247.59,370.43 247.61,383.75 247.80,446.51 247.85,408.58 178.00,486.55 178.79,488.22 179.55,487.24 180.38,489.44 181.21,489.72 181.89,483.75 182.51,481.44 183.20,484.22 183.83,481.34 184.50,483.48 185.25,486.68 185.97,485.64 186.67,484.41 187.41,486.56 188.21,488.59 188.91,484.40 189.68,487.50 190.45,487.71 191.15,484.38 191.93,488.16 192.57,481.69 193.30,485.99 193.95,482.60 194.67,485.67 195.41,486.24 196.11,484.60 196.86,486.81 197.66,488.48" stroke-dasharray="3.6 3.6" stroke-width="3.6" stroke="#aaa" />
<g>
<circle cx="150.27" cy="456.21" r="1.6666666666666667" />
<circle cx="150.54" cy="456.65" r="1.6666666666666667" />
<circle cx="150.80" cy="456.52" r="1.6666666666666667" />
<circle cx="151.08" cy="457.04" r="1.6666666666666667" />
<circle cx="151.35" cy="457.14" r="1.6666666666666667" />
<circle cx="151.62" cy="456.37" r="1.6666666666666667" />
<circle cx="151.89" cy="456.65" r="1.6666666666666667" />
<circle cx="152.15" cy="456.35" r="1.6666666666666667" />
<circle cx="152.43" cy="457.12" r="1.6666666666666667" />
<circle cx="152.48" cy="405.31" r="1.6666666666666667" />
<circle cx="178.00" cy="486.55" r="1.6666666666666667" />
<circle cx="178.79" cy="488.22" r="1.6666666666666667" />
<circle cx="179.55" cy="487.24" r="1.6666666666666667" />
<circle cx="180.38" cy="489.44" r="1.6666666666666667" />
<circle cx="181.21" cy="489.72" r="1.6666666666666667" />
<circle cx="181.89" cy="483.75" r="1.6666666666666667" />
<circle cx="182.51" cy="481.44" r="1.6666666666666667" />
<circle cx="183.20" cy="484.22" r="1.6666666666666667" />
<circle cx="183.83" cy="481.34" r="1.6666666666666667" />
<circle cx="184.50" cy="483.48" r="1.6666666666666667" />
<circle cx="185.25" cy="486.68" r="1.6666666666666667" />
<circle cx="185.97" cy="485.64" r="1.6666666666666667" />
<circle cx="186.67" cy="484.41" r="1.6666666666666667" />
<circle cx="187.41" cy="486.56" r="1.6666666666666667" />
<circle cx="188.21" cy="488.59" r="1.6666666666666667" />
<circle cx="188.91" cy="484.40" r="1.6666666666666667" />
<circle cx="189.68" cy="487.50" r="1.6666666666666667" />
<circle cx="190.45" cy="487.71" r="1.6666666666666667" />
<circle cx="191.15" cy="484.38" r="1.6666666666666667" />
<circle cx="191.93" cy="488.16" r="1.6666666666666667" />
<circle cx="192.57" cy="481.69" r="1.6666666666666667" />
<circle cx="193.30" cy="485.99" r="1.6666666666666667" />
<circle cx="193.95" cy="482.60" r="1.6666666666666667" />
<circle cx="194.67" cy="485.67" r="1.6666666666666667" />
<circle cx="195.41" cy="486.24" r="1.6666666666666667" />
<circle cx="196.11" cy="484.60" r="1.6666666666666667" />
<circle cx="196.86" cy="486.81" r="1.6666666666666667" />
<circle cx="197.66" cy="488.48" r="1.6666666666666667" />
<circle cx="219.15" cy="384.00" r="1.6666666666666667" />
<circle cx="219.15" cy="257.58" r="1.6666666666666667" />
<circle cx="219.15" cy="261.04" r="1.6666666666666667" />
<circle cx="219.15" cy="272.95" r="1.6666666666666667" />
<circle cx="219.15" cy="259.36" r="1.6666666666666667" />
<circle cx="219.19" cy="405.51" r="1.6666666666666667" />
<circle cx="219.19" cy="237.23" r="1.6666666666666667" />
<circle cx="219.19" cy="216.87" r="1.6666666666666667" />
<circle cx="219.19" cy="196.51" r="1.6666666666666667" />
<circle cx="219.19" cy="176.15" r="1.6666666666666667" />
<circle cx="219.19" cy="176.15" r="1.6666666666666667" />
<circle cx="219.19" cy="176.15" r="1.6666666666666667" />
<circle cx="219.19" cy="176.15" r="1.6666666666666667" />
<circle cx="219.19" cy="176.15" r="1.6666666666666667" />
<circle cx="219.19" cy="176.15" r="1.6666666666666667" />
<circle cx="219.19" cy="176.15" r="1.6666666666666667" />
<circle cx="219.19" cy="176.15" r="1.6666666666666667" />
<circle cx="219.19" cy="176.15" r="1.6666666666666667" />
<circle cx="219.19" cy="176.15" r="1.6666666666666667" />
<circle cx="219.20" cy="176.15" r="1.6666666666666667" />
<circle cx="219.20" cy="176.15" r="1.6666666666666667" />
<circle cx="219.20" cy="176.15" r="1.6666666666666667" />
<circle cx="219.20" cy="176.15" r="1.6666666666666667" />
<circle cx="219.20" cy="176.15" r="1.6666666666666667" />
<circle cx="219.20" cy="176.15" r="1.6666666666666667" />
<circle cx="219.20" cy="176.15" r="1.6666666666666667" />
<circle cx="219.20" cy="176.15" r="1.6666666666666667" />
<circle cx="219.20" cy="176.15" r="1.6666666666666667" />
<circle cx="219.20" cy="176.15" r="1.6666666666666667" />
<circle cx="219.20" cy="176.15" r="1.6666666666666667" />
<circle cx="219.20" cy="176.15" r="1.6666666666666667" />
<circle cx="219.20" cy="176.15" r="1.6666666666666667" />
<circle cx="219.20" cy="176.15" r="1.6666666666666667" />
<circle cx="219.20" cy="176.15" r="1.6666666666666667" />
<circle cx="219.20" cy="176.15" r="1.6666666666666667" />
<circle cx="219.20" cy="176.15" r="1.6666666666666667" />
<circle cx="219.20" cy="176.15" r="1.6666666666666667" />
<circle cx="219.20" cy="176.15" r="1.6666666666666667" />
<circle cx="219.20" cy="176.15" r="1.6666666666666667" />
<circle cx="219.20" cy="176.15" r="1.6666666666666667" />
<circle cx="219.20" cy="176.15" r="1.6666666666666667" />
<circle cx="219.20" cy="176.15" r="1.6666666666666667" />
<circle cx="219.20" cy="176.15" r="1.6666666666666667" />
<circle cx="219.20" cy="176.15" r="1.6666666666666667" />
<circle cx="219.20" cy="176.15" r="1.6666666666666667" />
<circle cx="219.20" cy="176.15" r="1.6666666666666667" />
<circle cx="219.20" cy="176.15" r="1.6666666666666667" />
<circle cx="219.20" cy="176.15" r="1.6666666666666667" />
<circle cx="219.20" cy="176.15" r="1.6666666666666667" />
<circle cx="219.20" cy="176.15" r="1.6666666666666667" />
<circle cx="219.20" cy="176.15" r="1.6666666666666667" />
<circle cx="219.20" cy="176.15" r="1.6666666666666667" />
<circle cx="219.20" cy="176.15" r="1.6666666666666667" />
<circle cx="219.20" cy="176.15" r="1.6666666666666667" />
<circle cx="219.20" cy="176.15" r="1.6666666666666667" />
<circle cx="219.20" cy="176.15" r="1.6666666666666667" />
<circle cx="219.20" cy="176.15" r="1.6666666666666667" />
<circle cx="219.20" cy="176.15" r="1.6666666666666667" />
<circle cx="219.20" cy="176.15" r="1.6666666666666667" />
<circle cx="219.20" cy="176.15" r="1.6666666666666667" />
<circle cx="219.20" cy="176.15" r="1.6666666666666667" />
<circle cx="219.20" cy="176.15" r="1.6666666666666667" />
<circle cx="219.20" cy="176.15" r="1.6666666666666667" />
<circle cx="219.20" cy="176.15" r="1.6666666666666667" />
<circle cx="219.20" cy="176.15" r="1.6666666666666667" />
<circle cx="219.20" cy="176.15" r="1.6666666666666667" />
<circle cx="219.20" cy="176.15" r="1.6666666666666667" />
<circle cx="219.20" cy="176.15" r="1.6666666666666667" />
<circle cx="219.20" cy="176.15" r="1.6666666666666667" />
<circle cx="219.20" cy="176.15" r="1.6666666666666667" />
<circle cx="219.20" cy="176.15" r="1.6666666666666667" />
<circle cx="219.20" cy="176.15" r="1.6666666666666667" />
<circle cx="219.20" cy="176.15" r="1.6666666666666667" />
<circle cx="219.20" cy="176.15" r="1.6666666666666667" />
<circle cx="219.20" cy="176.15" r="1.6666666666666667" />
<circle cx="219.20" cy="176.15" r="1.6666666666666667" />
<circle cx="219.20" cy="176.15" r="1.6666666666666667" />
<circle cx="219.20" cy="196.51" r="1.6666666666666667" />
<circle cx="219.20" cy="176.15" r="1.6666666666666667" />
<circle cx="219.20" cy="176.15" r="1.6666666666666667" />
<circle cx="219.20" cy="176.15" r="1.6666666666666667" />
<circle cx="219.20" cy="176.15" r="1.6666666666666667" />
<circle cx="219.20" cy="176.15" r="1.6666666666666667" />
<circle cx="219.20" cy="176.15" r="1.6666666666666667" />
<circle cx="219.20" cy="176.15" r="1.6666666666666667" />
<circle cx="219.20" cy="176.15" r="1.6666666666666667" />
<circle cx="219.20" cy="176.15" r="1.6666666666666667" />
<circle cx="219.20" cy="176.15" r="1.6666666666666667" />
<circle cx="219.20" cy="176.15" r="1.6666666666666667" />
<circle cx="219.20" cy="176.15" r="1.6666666666666667" />
<circle cx="219.20" cy="176.15" r="1.6666666666666667" />
<circle cx="219.20" cy="176.15" r="1.6666666666666667" />
<circle cx="219.20" cy="176.15" r="1.6666666666666667" />
<circle cx="219.20" cy="176.15" r="1.6666666666666667" />
<circle cx="219.20" cy="176.15" r="1.6666666666666667" />
<circle cx="219.20" cy="176.15" r="1.6666666666666667" />
<circle cx="219.20" cy="176.15" r="1.6666666666666667" />
<circle cx="219.20" cy="176.15" r="1.6666666666666667" />
<circle cx="219.20" cy="176.15" r="1.6666666666666667" />
<circle cx="219.20" cy="176.15" r="1.6666666666666667" />
<circle cx="219.20" cy="176.15" r="1.6666666666666667" />
<circle cx="219.20" cy="176.15" r="1.6666666666666667" />
<circle cx="219.20" cy="176.15" r="1.6666666666666667" />
<circle cx="219.20" cy="176.15" r="1.6666666666666667" />
<circle cx="219.20" cy="176.15" r="1.6666666666666667" />
<circle cx="219.20" cy="176.15" r="1.6666666666666667" />
<circle cx="219.20" cy="176.15" r="1.6666666666666667" />
<circle cx="219.20" cy="176.15" r="1.6666666666666667" />
<circle cx="219.20" cy="176.15" r="1.6666666666666667" />
<circle cx="219.20" cy="176.15" r="1.6666666666666667" />
<circle cx="219.20" cy="176.15" r="1.6666666666666667" />
<circle cx="219.20" cy="176.15" r="1.6666666666666667" />
<circle cx="219.20" cy="176.15" r="1.6666666666666667" />
<circle cx="219.20" cy="176.15" r="1.6666666666666667" />
<circle cx="219.20" cy="176.15" r="1.6666666666666667" />
<circle cx="219.20" cy="176.15" r="1.6666666666666667" />
<circle cx="219.20" cy="176.15" r="1.6666666666666667" />
<circle cx="219.20" cy="176.15" r="1.6666666666666667" />
<circle cx="219.20" cy="176.15" r="1.6666666666666667" />
<circle cx="219.20" cy="176.15" r="1.6666666666666667" />
<circle cx="219.20" cy="176.15" r="1.6666666666666667" />
<circle cx="219.20" cy="176.15" r="1.6666666666666667" />
<circle cx="219.20" cy="176.15" r="1.6666666666666667" />
<circle cx="219.20" cy="176.15" r="1.6666666666666667" />
<circle cx="219.20" cy="176.15" r="1.6666666666666667" />
<circle cx="219.20" cy="176.15" r="1.6666666666666667" />
<circle cx="219.20" cy="176.15" r="1.6666666666666667" />
<circle cx="219.20" cy="176.15" r="1.6666666666666667" />
<circle cx="219.20" cy="176.15" r="1.6666666666666667" />
<circle cx="219.20" cy="176.15" r="1.6666666666666667" />
<circle cx="219.20" cy="176.15" r="1.6666666666666667" />
<circle cx="219.20" cy="176.15" r="1.6666666666666667" />
<circle cx="219.20" cy="176.15" r="1.6666666666666667" />
<circle cx="219.20" cy="176.15" r="1.6666666666666667" />
<circle cx="219.20" cy="176.15" r="1.6666666666666667" />
<circle cx="219.20" cy="176.15" r="1.6666666666666667" />
<circle cx="219.20" cy="176.15" r="1.6666666666666667" />
<circle cx="219.20" cy="176.15" r="1.6666666666666667" />
<circle cx="219.20" cy="176.15" r="1.6666666666666667" />
<circle cx="219.20" cy="257.58" r="1.6666666666666667" />
<circle cx="219.20" cy="176.15" r="1.6666666666666667" />
<circle cx="219.20" cy="176.15" r="1.6666666666666667" />
<circle cx="219.20" cy="176.15" r="1.6666666666666667" />
<circle cx="219.20" cy="176.15" r="1.6666666666666667" />
<circle cx="219.20" cy="176.15" r="1.6666666666666667" />
<circle cx="219.20" cy="176.15" r="1.6666666666666667" />
<circle cx="219.20" cy="176.15" r="1.6666666666666667" />
<circle cx="219.20" cy="176.15" r="1.6666666666666667" />
<circle cx="219.20" cy="176.15" r="1.6666666666666667" />
<circle cx="219.20" cy="176.15" r="1.6666666666666667" />
<circle cx="219.20" cy="176.15" r="1.6666666666666667" />
<circle cx="219.20" cy="176.15" r="1.6666666666666667" />
<circle cx="219.20" cy="176.15" r="1.6666666666666667" />
<circle cx="219.20" cy="176.15" r="1.6666666666666667" />
<circle cx="219.20" cy="176.15" r="1.6666666666666667" />
<circle cx="219.20" cy="176.15" r="1.6666666666666667" />
<circle cx="219.20" cy="176.15" r="1.6666666666666667" />
<circle cx="219.20" cy="176.15" r="1.6666666666666667" />
<circle cx="219.20" cy="176.15" r="1.6666666666666667" />
<circle cx="219.20" cy="176.15" r="1.6666666666666667" />
<circle cx="219.20" cy="176.15" r="1.6666666666666667" />
<circle cx="219.20" cy="176.15" r="1.6666666666666667" />
<circle cx="219.20" cy="176.15" r="1.6666666666666667" />
<circle cx="219.20" cy="176.15" r="1.6666666666666667" />
<circle cx="219.20" cy="176.15" r="1.6666666666666667" />
<circle cx="219.20" cy="176.15" r="1.6666666666666667" />
<circle cx="219.20" cy="176.15" r="1.6666666666666667" />
<circle cx="219.20" cy="176.15" r="1.6666666666666667" />
<circle cx="219.20" cy="176.15" r="1.6666666666666667" />
<circle cx="219.20" cy="176.15" r="1.6666666666666667" />
<circle cx="219.20" cy="176.15" r="1.6666666666666667" />
<circle cx="219.20" cy="176.15" r="1.6666666666666667" />
<circle cx="219.20" cy="176.15" r="1.6666666666666667" />
<circle cx="219.20" cy="176.15" r="1.6666666666666667" />
<circle cx="219.20" cy="176.15" r="1.6666666666666667" />
<circle cx="219.20" cy="176.15" r="1.6666666666666667" />
<circle cx="219.20" cy="176.15" r="1.6666666666666667" />
<circle cx="219.20" cy="176.15" r="1.6666666666666667" />
<circle cx="219.20" cy="176.15" r="1.6666666666666667" />
<circle cx="219.20" cy="176.15" r="1.6666666666666667" />
<circle cx="219.20" cy="176.15" r="1.6666666666666667" />
<circle cx="219.20" cy="176.15" r="1.6666666666666667" />
<circle cx="219.20" cy="176.15" r="1.6666666666666667" />
<circle cx="219.20" cy="176.15" r="1.6666666666666667" />
<circle cx="219.20" cy="176.15" r="1.6666666666666667" />
<circle cx="219.20" cy="176.15" r="1.6666666666666667" />
<circle cx="219.20" cy="176.15" r="1.6666666666666667" />
<circle cx="219.20" cy="176.15" r="1.6666666666666667" />
<circle cx="219.20" cy="176.15" r="1.6666666666666667" />
<circle cx="219.20" cy="176.15" r="1.6666666666666667" />
<circle cx="219.20" cy="176.15" r="1.6666666666666667" />
<circle cx="219.20" cy="176.15" r="1.6666666666666667" />
<circle cx="219.20" cy="176.15" r="1.6666666666666667" />
<circle cx="219.20" cy="176.15" r="1.6666666666666667" />
<circle cx="219.20" cy="176.15" r="1.6666666666666667" />
<circle cx="219.20" cy="176.15" r="1.6666666666666667" />
<circle cx="219.20" cy="176.15" r="1.6666666666666667" />
<circle cx="219.20" cy="176.15" r="1.6666666666666667" />
<circle cx="219.20" cy="176.15" r="1.6666666666666667" />
<circle cx="219.20" cy="176.15" r="1.6666666666666667" />
<circle cx="219.20" cy="176.15" r="1.6666666666666667" />
<circle cx="219.20" cy="176.15" r="1.6666666666666667" />
<circle cx="219.20" cy="176.15" r="1.6666666666666667" />
<circle cx="219.20" cy="176.15" r="1.6666666666666667" />
<circle cx="219.20" cy="176.15" r="1.6666666666666667" />
<circle cx="219.20" cy="176.15" r="1.6666666666666667" />
<circle cx="219.20" cy="176.15" r="1.6666666666666667" />
<circle cx="219.20" cy="176.15" r="1.6666666666666667" />
<circle cx="219.20" cy="176.15" r="1.6666666666666667" />
<circle cx="219.20" cy="176.15" r="1.6666666666666667" />
<circle cx="219.20" cy="176.15" r="1.6666666666666667" />
<circle cx="219.20" cy="176.15" r="1.6666666666666667" />
<circle cx="219.20" cy="176.15" r="1.6666666666666667" />
<circle cx="219.20" cy="176.15" r="1.6666666666666667" />
<circle cx="219.20" cy="176.15" r="1.6666666666666667" />
<circle cx="219.20" cy="176.15" r="1.6666666666666667" />
<circle cx="219.20" cy="176.15" r="1.6666666666666667" />
<circle cx="219.20" cy="176.15" r="1.6666666666666667" />
<circle cx="219.20" cy="176.15" r="1.6666666666666667" />
<circle cx="219.20" cy="176.15" r="1.6666666666666667" />
<circle cx="219.20" cy="176.15" r="1.6666666666666667" />
<circle cx="219.20" cy="176.15" r="1.6666666666666667" />
<circle cx="219.20" cy="176.15" r="1.6666666666666667" />
<circle cx="219.20" cy="176.15" r="1.6666666666666667" />
<circle cx="219.20" cy="176.15" r="1.6666666666666667" />
<circle cx="219.20" cy="176.15" r="1.6666666666666667" />
<circle cx="219.20" cy="176.15" r="1.6666666666666667" />
<circle cx="219.20" cy="176.15" r="1.6666666666666667" />
<circle cx="219.20" cy="176.15" r="1.6666666666666667" />
<circle cx="219.20" cy="176.15" r="1.6666666666666667" />
<circle cx="219.20" cy="176.15" r="1.6666666666666667" />
<circle cx="219.20" cy="176.15" r="1.6666666666666667" />
<circle cx="219.20" cy="176.15" r="1.6666666666666667" />
<circle cx="219.20" cy="176.15" r="1.6666666666666667" />
<circle cx="219.20" cy="176.15" r="1.6666666666666667" />
<circle cx="219.20" cy="176.15" r="1.6666666666666667" />
<circle cx="219.20" cy="176.15" r="1.6666666666666667" />
<circle cx="219.20" cy="176.15" r="1.6666666666666667" />
<circle cx="219.20" cy="176.15" r="1.6666666666666667" />
<circle cx="219.20" cy="176.15" r="1.6666666666666667" />
<circle cx="219.20" cy="176.15" r="1.6666666666666667" />
<circle cx="219.20" cy="176.15" r="1.6666666666666667" />
<circle cx="219.20" cy="176.15" r="1.6666666666666667" />
<circle cx="219.20" cy="176.15" r="1.6666666666666667" />
<circle cx="219.20" cy="176.15" r="1.6666666666666667" />
<circle cx="219.20" cy="176.15" r="1.6666666666666667" />
<circle cx="219.20" cy="176.15" r="1.6666666666666667" />
<circle cx="219.20" cy="176.15" r="1.6666666666666667" />
<circle cx="219.20" cy="176.15" r="1.6666666666666667" />
<circle cx="219.20" cy="176.15" r="1.6666666666666667" />
<circle cx="219.20" cy="176.15" r="1.6666666666666667" />
<circle cx="219.20" cy="176.15" r="1.6666666666666667" />
<circle cx="219.20" cy="176.15" r="1.6666666666666667" />
<circle cx="219.20" cy="176.15" r="1.6666666666666667" />
<circle cx="219.20" cy="176.15" r="1.6666666666666667" />
<circle cx="219.20" cy="176.15" r="1.6666666666666667" />
<circle cx="219.20" cy="176.15" r="1.6666666666666667" />
<circle cx="219.20" cy="176.15" r="1.6666666666666667" />
<circle cx="219.20" cy="176.15" r="1.6666666666666667" />
<circle cx="219.20" cy="176.15" r="1.6666666666666667" />
<circle cx="219.20" cy="176.15" r="1.6666666666666667" />
<circle cx="219.20" cy="176.15" r="1.6666666666666667" />
<circle cx="219.20" cy="176.15" r="1.6666666666666667" />
<circle cx="219.20" cy="176.15" r="1.6666666666666667" />
<circle cx="219.20" cy="176.15" r="1.6666666666666667" />
<circle cx="219.20" cy="176.15" r="1.6666666666666667" />
<circle cx="219.20" cy="176.15" r="1.6666666666666667" />
<circle cx="219.20" cy="176.15" r="1.6666666666666667" />
<circle cx="219.20" cy="176.15" r="1.6666666666666667" />
<circle cx="219.20" cy="176.15" r="1.6666666666666667" />
<circle cx="219.20" cy="176.15" r="1.6666666666666667" />
<circle cx="219.20" cy="176.15" r="1.6666666666666667" />
<circle cx="219.20" cy="176.15" r="1.6666666666666667" />
<circle cx="219.20" cy="176.15" r="1.6666666666666667" />
<circle cx="219.20" cy="176.15" r="1.6666666666666667" />
<circle cx="219.20" cy="176.15" r="1.6666666666666667" />
<circle cx="219.20" cy="176.15" r="1.6666666666666667" />
<circle cx="219.20" cy="257.58" r="1.6666666666666667" />
<circle cx="219.20" cy="176.15" r="1.6666666666666667" />
<circle cx="219.20" cy="176.15" r="1.6666666666666667" />
<circle cx="219.20" cy="176.15" r="1.6666666666666667" />
<circle cx="219.20" cy="176.15" r="1.6666666666666667" />
<circle cx="219.20" cy="176.15" r="1.6666666666666667" />
<circle cx="219.20" cy="176.15" r="1.6666666666666667" />
<circle cx="219.20" cy="176.15" r="1.6666666666666667" />
<circle cx="219.20" cy="176.15" r="1.6666666666666667" />
<circle cx="219.20" cy="176.15" r="1.6666666666666667" />
<circle cx="219.20" cy="176.15" r="1.6666666666666667" />
<circle cx="219.20" cy="257.58" r="1.6666666666666667" />
<circle cx="219.20" cy="176.15" r="1.6666666666666667" />
<circle cx="219.20" cy="176.15" r="1.6666666666666667" />
<circle cx="219.20" cy="176.15" r="1.6666666666666667" />
<circle cx="219.20" cy="176.15" r="1.6666666666666667" />
<circle cx="219.20" cy="176.15" r="1.6666666666666667" />
<circle cx="219.20" cy="176.15" r="1.6666666666666667" />
<circle cx="219.20" cy="176.15" r="1.6666666666666667" />
<circle cx="219.20" cy="176.15" r="1.6666666666666667" />
<circle cx="219.20" cy="176.15" r="1.6666666666666667" />
<circle cx="219.20" cy="176.15" r="1.6666666666666667" />
<circle cx="219.20" cy="176.15" r="1.6666666666666667" />
<circle cx="219.20" cy="176.15" r="1.6666666666666667" />
<circle cx="219.20" cy="176.15" r="1.6666666666666667" />
<circle cx="219.20" cy="176.15" r="1.6666666666666667" />
<circle cx="219.20" cy="176.15" r="1.6666666666666667" />
<circle cx="219.20" cy="176.15" r="1.6666666666666667" />
<circle cx="219.20" cy="176.15" r="1.6666666666666667" />
<circle cx="219.20" cy="176.15" r="1.6666666666666667" />
<circle cx="219.20" cy="176.15" r="1.6666666666666667" />
<circle cx="219.20" cy="176.15" r="1.6666666666666667" />
<circle cx="219.20" cy="176.15" r="1.6666666666666667" />
<circle cx="219.20" cy="176.15" r="1.6666666666666667" />
<circle cx="219.20" cy="176.15" r="1.6666666666666667" />
<circle cx="219.20" cy="176.15" r="1.6666666666666667" />
<circle cx="219.20" cy="176.15" r="1.6666666666666667" />
<circle cx="219.20" cy="176.15" r="1.6666666666666667" />
<circle cx="219.20" cy="176.15" r="1.6666666666666667" />
<circle cx="219.20" cy="176.15" r="1.6666666666666667" />
<circle cx="219.20" cy="176.15" r="1.6666666666666667" />
<circle cx="219.20" cy="176.15" r="1.6666666666666667" />
<circle cx="219.20" cy="176.15" r="1.6666666666666667" />
<circle cx="219.20" cy="176.15" r="1.6666666666666667" />
<circle cx="219.20" cy="176.15" r="1.6666666666666667" />
<circle cx="219.20" cy="176.15" r="1.6666666666666667" />
<circle cx="219.20" cy="176.15" r="1.6666666666666667" />
<circle cx="219.20" cy="176.15" r="1.6666666666666667" />
<circle cx="219.20" cy="176.15" r="1.6666666666666667" />
<circle cx="219.20" cy="176.15" r="1.6666666666666667" />
<circle cx="219.20" cy="176.15" r="1.6666666666666667" />
<circle cx="219.20" cy="176.15" r="1.6666666666666667" />
<circle cx="219.20" cy="176.15" r="1.6666666666666667" />
<circle cx="219.20" cy="176.15" r="1.6666666666666667" />
<circle cx="219.20" cy="176.15" r="1.6666666666666667" />
<circle cx="219.20" cy="176.15" r="1.6666666666666667" />
<circle cx="219.20" cy="176.15" r="1.6666666666666667" />
<circle cx="219.20" cy="176.15" r="1.6666666666666667" />
<circle cx="219.20" cy="176.15" r="1.6666666666666667" />
<circle cx="219.20" cy="176.15" r="1.6666666666666667" />
<circle cx="219.20" cy="176.15" r="1.6666666666666667" />
<circle cx="219.20" cy="176.15" r="1.6666666666666667" />
<circle cx="219.20" cy="176.15" r="1.6666666666666667" />
<circle cx="219.20" cy="176.15" r="1.6666666666666667" />
<circle cx="219.20" cy="176.15" r="1.6666666666666667" />
<circle cx="219.20" cy="176.15" r="1.6666666666666667" />
<circle cx="219.20" cy="176.15" r="1.6666666666666667" />
<circle cx="219.20" cy="176.15" r="1.6666666666666667" />
<circle cx="219.20" cy="176.15" r="1.6666666666666667" />
<circle cx="219.20" cy="176.15" r="1.6666666666666667" />
<circle cx="219.20" cy="176.15" r="1.6666666666666667" />
<circle cx="219.20" cy="176.15" r="1.6666666666666667" />
<circle cx="219.20" cy="176.15" r="1.6666666666666667" />
<circle cx="219.20" cy="176.15" r="1.6666666666666667" />
<circle cx="219.20" cy="176.15" r="1.6666666666666667" />
<circle cx="219.20" cy="176.15" r="1.6666666666666667" />
<circle cx="219.20" cy="176.15" r="1.6666666666666667" />
<circle cx="219.20" cy="176.15" r="1.6666666666666667" />
<circle cx="219.20" cy="176.15" r="1.6666666666666667" />
<circle cx="219.20" cy="176.15" r="1.6666666666666667" />
<circle cx="219.20" cy="176.15" r="1.6666666666666667" />
<circle cx="219.20" cy="176.15" r="1.6666666666666667" />
<circle cx="219.20" cy="176.15" r="1.6666666666666667" />
<circle cx="219.20" cy="176.15" r="1.6666666666666667" />
<circle cx="219.20" cy="176.15" r="1.6666666666666667" />
<circle cx="219.20" cy="176.15" r="1.6666666666666667" />
<circle cx="219.20" cy="176.15" r="1.6666666666666667" />
<circle cx="219.20" cy="176.15" r="1.6666666666666667" />
<circle cx="219.20" cy="176.15" r="1.6666666666666667" />
<circle cx="219.20" cy="176.15" r="1.6666666666666667" />
<circle cx="219.20" cy="176.15" r="1.6666666666666667" />
<circle cx="219.20" cy="176.15" r="1.6666666666666667" />
<circle cx="219.20" cy="176.15" r="1.6666666666666667" />
<circle cx="219.20" cy="176.15" r="1.6666666666666667" />
<circle cx="219.20" cy="176.15" r="1.6666666666666667" />
<circle cx="219.20" cy="176.15" r="1.6666666666666667" />
<circle cx="219.20" cy="176.15" r="1.6666666666666667" />
<circle cx="219.20" cy="176.15" r="1.6666666666666667" />
<circle cx="219.20" cy="176.15" r="1.6666666666666667" />
<circle cx="219.20" cy="176.15" r="1.6666666666666667" />
<circle cx="219.20" cy="176.15" r="1.6666666666666667" />
<circle cx="219.20" cy="176.15" r="1.6666666666666667" />
<circle cx="219.20" cy="176.15" r="1.6666666666666667" />
<circle cx="219.20" cy="176.15" r="1.6666666666666667" />
<circle cx="219.20" cy="176.15" r="1.6666666666666667" />
<circle cx="219.20" cy="176.15" r="1.6666666666666667" />
<circle cx="219.20" cy="176.15" r="1.6666666666666667" />
<circle cx="219.20" cy="257.58" r="1.6666666666666667" />
<circle cx="219.20" cy="176.15" r="1.6666666666666667" />
<circle cx="219.20" cy="176.15" r="1.6666666666666667" />
<circle cx="219.20" cy="176.15" r="1.6666666666666667" />
<circle cx="219.20" cy="176.15" r="1.6666666666666667" />
<circle cx="219.20" cy="176.15" r="1.6666666666666667" />
<circle cx="219.20" cy="176.15" r="1.6666666666666667" />
<circle cx="219.20" cy="176.15" r="1.6666666666666667" />
<circle cx="219.20" cy="176.15" r="1.6666666666666667" />
<circle cx="219.20" cy="176.15" r="1.6666666666666667" />
<circle cx="219.20" cy="176.15" r="1.6666666666666667" />
<circle cx="219.20" cy="176.15" r="1.6666666666666667" />
<circle cx="219.20" cy="176.15" r="1.6666666666666667" />
<circle cx="219.20" cy="176.15" r="1.6666666666666667" />
<circle cx="219.20" cy="176.15" r="1.6666666666666667" />
<circle cx="219.20" cy="176.15" r="1.6666666666666667" />
<circle cx="219.20" cy="176.15" r="1.6666666666666667" />
<circle cx="219.20" cy="176.15" r="1.6666666666666667" />
<circle cx="219.20" cy="176.15" r="1.6666666666666667" />
<circle cx="219.20" cy="176.15" r="1.6666666666666667" />
<circle cx="219.20" cy="176.15" r="1.6666666666666667" />
<circle cx="219.20" cy="176.15" r="1.6666666666666667" />
<circle cx="219.20" cy="176.15" r="1.6666666666666667" />
<circle cx="219.20" cy="176.15" r="1.6666666666666667" />
<circle cx="219.20" cy="176.15" r="1.6666666666666667" />
<circle cx="219.20" cy="176.15" r="1.6666666666666667" />
<circle cx="219.20" cy="176.15" r="1.6666666666666667" />
<circle cx="219.20" cy="176.15" r="1.6666666666666667" />
<circle cx="219.20" cy="176.15" r="1.6666666666666667" />
<circle cx="219.20" cy="176.15" r="1.6666666666666667" />
<circle cx="219.20" cy="176.15" r="1.6666666666666667" />
<circle cx="219.20" cy="176.15" r="1.6666666666666667" />
<circle cx="219.20" cy="176.15" r="1.6666666666666667" />
<circle cx="219.20" cy="176.15" r="1.6666666666666667" />
<circle cx="219.20" cy="176.15" r="1.6666666666666667" />
<circle cx="219.20" cy="176.15" r="1.6666666666666667" />
<circle cx="219.20" cy="176.15" r="1.6666666666666667" />
<circle cx="219.20" cy="176.15" r="1.6666666666666667" />
<circle cx="219.20" cy="176.15" r="1.6666666666666667" />
<circle cx="219.20" cy="176.15" r="1.6666666666666667" />
<circle cx="219.20" cy="196.51" r="1.6666666666666667" />
<circle cx="219.20" cy="176.15" r="1.6666666666666667" />
<circle cx="219.20" cy="176.15" r="1.6666666666666667" />
<circle cx="219.20" cy="176.15" r="1.6666666666666667" />
<circle cx="219.20" cy="176.15" r="1.6666666666666667" />
<circle cx="219.20" cy="257.58" r="1.6666666666666667" />
<circle cx="219.20" cy="176.15" r="1.6666666666666667" />
<circle cx="219.20" cy="176.15" r="1.6666666666666667" />
<circle cx="219.20" cy="176.15" r="1.6666666666666667" />
<circle cx="219.21" cy="314.74" r="1.6666666666666667" />
<circle cx="219.21" cy="176.15" r="1.6666666666666667" />
<circle cx="219.21" cy="176.15" r="1.6666666666666667" />
<circle cx="219.21" cy="176.15" r="1.6666666666666667" />
<circle cx="219.21" cy="176.15" r="1.6666666666666667" />
<circle cx="219.21" cy="176.15" r="1.6666666666666667" />
<circle cx="219.21" cy="176.15" r="1.6666666666666667" />
<circle cx="219.21" cy="176.15" r="1.6666666666666667" />
<circle cx="219.21" cy="176.15" r="1.6666666666666667" />
<circle cx="219.21" cy="176.15" r="1.6666666666666667" />
<circle cx="219.21" cy="176.15" r="1.6666666666666667" />
<circle cx="219.21" cy="176.15" r="1.6666666666666667" />
<circle cx="219.21" cy="176.15" r="1.6666666666666667" />
<circle cx="219.21" cy="176.15" r="1.6666666666666667" />
<circle cx="219.21" cy="176.15" r="1.6666666666666667" />
<circle cx="219.21" cy="176.15" r="1.6666666666666667" />
<circle cx="219.21" cy="176.15" r="1.6666666666666667" />
<circle cx="219.21" cy="176.15" r="1.6666666666666667" />
<circle cx="219.21" cy="176.15" r="1.6666666666666667" />
<circle cx="219.21" cy="176.15" r="1.6666666666666667" />
<circle cx="219.21" cy="176.15" r="1.6666666666666667" />
<circle cx="219.21" cy="176.15" r="1.6666666666666667" />
<circle cx="219.21" cy="176.15" r="1.6666666666666667" />
<circle cx="219.21" cy="176.15" r="1.6666666666666667" />
<circle cx="219.21" cy="176.15" r="1.6666666666666667" />
<circle cx="219.21" cy="176.15" r="1.6666666666666667" />
<circle cx="219.21" cy="176.15" r="1.6666666666666667" />
<circle cx="219.21" cy="176.15" r="1.6666666666666667" />
<circle cx="219.21" cy="176.15" r="1.6666666666666667" />
<circle cx="219.21" cy="176.15" r="1.6666666666666667" />
<circle cx="219.21" cy="176.15" r="1.6666666666666667" />
<circle cx="219.21" cy="176.15" r="1.6666666666666667" />
<circle cx="219.21" cy="176.15" r="1.6666666666666667" />
<circle cx="219.21" cy="176.15" r="1.6666666666666667" />
<circle cx="219.21" cy="176.15" r="1.6666666666666667" />
<circle cx="219.21" cy="176.15" r="1.6666666666666667" />
<circle cx="219.21" cy="176.15" r="1.6666666666666667" />
<circle cx="219.21" cy="176.15" r="1.6666666666666667" />
<circle cx="219.21" cy="176.15" r="1.6666666666666667" />
<circle cx="219.21" cy="176.15" r="1.6666666666666667" />
<circle cx="219.21" cy="176.15" r="1.6666666666666667" />
<circle cx="219.21" cy="176.15" r="1.6666666666666667" />
<circle cx="219.21" cy="176.15" r="1.6666666666666667" />
<circle cx="219.21" cy="176.15" r="1.6666666666666667" />
<circle cx="219.21" cy="176.15" r="1.6666666666666667" />
<circle cx="219.21" cy="176.15" r="1.6666666666666667" />
<circle cx="219.21" cy="176.15" r="1.6666666666666667" />
<circle cx="219.21" cy="176.15" r="1.6666666666666667" />
<circle cx="219.21" cy="176.15" r="1.6666666666666667" />
<circle cx="219.21" cy="176.15" r="1.6666666666666667" />
<circle cx="219.21" cy="176.15" r="1.6666666666666667" />
<circle cx="219.21" cy="176.15" r="1.6666666666666667" />
<circle cx="219.21" cy="176.15" r="1.6666666666666667" />
<circle cx="219.21" cy="176.15" r="1.6666666666666667" />
<circle cx="219.21" cy="176.15" r="1.6666666666666667" />
<circle cx="219.21" cy="176.15" r="1.6666666666666667" />
<circle cx="219.21" cy="176.15" r="1.6666666666666667" />
<circle cx="219.21" cy="176.15" r="1.6666666666666667" />
<circle cx="219.21" cy="176.15" r="1.6666666666666667" />
<circle cx="219.21" cy="176.15" r="1.6666666666666667" />
<circle cx="219.21" cy="176.15" r="1.6666666666666667" />
<circle cx="219.21" cy="176.15" r="1.6666666666666667" />
<circle cx="219.21" cy="176.15" r="1.6666666666666667" />
<circle cx="219.21" cy="176.15" r="1.6666666666666667" />
<circle cx="219.21" cy="176.15" r="1.6666666666666667" />
<circle cx="219.21" cy="176.15" r="1.6666666666666667" />
<circle cx="219.21" cy="176.15" r="1.6666666666666667" />
<circle cx="219.21" cy="176.15" r="1.6666666666666667" />
<circle cx="219.21" cy="176.15" r="1.6666666666666667" />
<circle cx="219.21" cy="176.15" r="1.6666666666666667" />
<circle cx="219.21" cy="176.15" r="1.6666666666666667" />
<circle cx="219.21" cy="176.15" r="1.6666666666666667" />
<circle cx="219.21" cy="176.15" r="1.6666666666666667" />
<circle cx="219.21" cy="176.15" r="1.6666666666666667" />
<circle cx="219.21" cy="176.15" r="1.6666666666666667" />
<circle cx="219.21" cy="176.15" r="1.6666666666666667" />
<circle cx="219.21" cy="176.15" r="1.6666666666666667" />
<circle cx="219.21" cy="176.15" r="1.6666666666666667" />
<circle cx="219.21" cy="176.15" r="1.6666666666666667" />
<circle cx="219.21" cy="176.15" r="1.6666666666666667" />
<circle cx="219.21" cy="176.15" r="1.6666666666666667" />
<circle cx="219.21" cy="176.15" r="1.6666666666666667" />
<circle cx="219.21" cy="176.15" r="1.6666666666666667" />
<circle cx="219.21" cy="176.15" r="1.6666666666666667" />
<circle cx="219.21" cy="176.15" r="1.6666666666666667" />
<circle cx="219.21" cy="176.15" r="1.6666666666666667" />
<circle cx="219.21" cy="176.15" r="1.6666666666666667" />
<circle cx="219.21" cy="176.15" r="1.6666666666666667" />
<circle cx="219.21" cy="176.15" r="1.6666666666666667" />
<circle cx="219.21" cy="176.15" r="1.6666666666666667" />
<circle cx="219.21" cy="176.15" r="1.6666666666666667" />
<circle cx="219.21" cy="176.15" r="1.6666666666666667" />
<circle cx="219.21" cy="176.15" r="1.6666666666666667" />
<circle cx="219.21" cy="176.15" r="1.6666666666666667" />
<circle cx="219.21" cy="176.15" r="1.6666666666666667" />
<circle cx="219.21" cy="176.15" r="1.6666666666666667" />
<circle cx="219.21" cy="176.15" r="1.6666666666666667" />
<circle cx="219.21" cy="176.15" r="1.6666666666666667" />
<circle cx="219.21" cy="176.15" r="1.6666666666666667" />
<circle cx="219.21" cy="176.15" r="1.6666666666666667" />
<circle cx="219.21" cy="176.15" r="1.6666666666666667" />
<circle cx="219.21" cy="176.15" r="1.6666666666666667" />
<circle cx="219.21" cy="176.15" r="1.6666666666666667" />
<circle cx="219.21" cy="176.15" r="1.6666666666666667" />
<circle cx="219.21" cy="176.15" r="1.6666666666666667" />
<circle cx="219.21" cy="176.15" r="1.6666666666666667" />
<circle cx="219.21" cy="176.15" r="1.6666666666666667" />
<circle cx="219.21" cy="176.15" r="1.6666666666666667" />
<circle cx="219.21" cy="176.15" r="1.6666666666666667" />
<circle cx="219.21" cy="176.15" r="1.6666666666666667" />
<circle cx="219.21" cy="176.15" r="1.6666666666666667" />
<circle cx="219.21" cy="176.15" r="1.6666666666666667" />
<circle cx="219.21" cy="176.15" r="1.6666666666666667" />
<circle cx="219.21" cy="176.15" r="1.6666666666666667" />
<circle cx="219.21" cy="176.15" r="1.6666666666666667" />
<circle cx="219.21" cy="176.15" r="1.6666666666666667" />
<circle cx="219.21" cy="176.15" r="1.6666666666666667" />
<circle cx="219.21" cy="176.15" r="1.6666666666666667" />
<circle cx="219.21" cy="176.15" r="1.6666666666666667" />
<circle cx="219.21" cy="176.15" r="1.6666666666666667" />
<circle cx="219.21" cy="176.15" r="1.6666666666666667" />
<circle cx="219.21" cy="176.15" r="1.6666666666666667" />
<circle cx="219.21" cy="176.15" r="1.6666666666666667" />
<circle cx="219.21" cy="176.15" r="1.6666666666666667" />
<circle cx="219.21" cy="176.15" r="1.6666666666666667" />
<circle cx="219.21" cy="176.15" r="1.6666666666666667" />
<circle cx="219.21" cy="176.15" r="1.6666666666666667" />
<circle cx="219.21" cy="176.15" r="1.6666666666666667" />
<circle cx="219.21" cy="176.15" r="1.6666666666666667" />
<circle cx="219.21" cy="176.15" r="1.6666666666666667" />
<circle cx="219.21" cy="176.15" r="1.6666666666666667" />
<circle cx="219.21" cy="176.15" r="1.6666666666666667" />
<circle cx="219.21" cy="176.15" r="1.6666666666666667" />
<circle cx="219.21" cy="176.15" r="1.6666666666666667" />
<circle cx="219.21" cy="176.15" r="1.6666666666666667" />
<circle cx="219.21" cy="176.15" r="1.6666666666666667" />
<circle cx="219.21" cy="176.15" r="1.6666666666666667" />
<circle cx="219.21" cy="176.15" r="1.6666666666666667" />
<circle cx="219.21" cy="176.15" r="1.6666666666666667" />
<circle cx="219.21" cy="176.15" r="1.6666666666666667" />
<circle cx="219.21" cy="176.15" r="1.6666666666666667" />
<circle cx="219.21" cy="176.15" r="1.6666666666666667" />
<circle cx="219.21" cy="176.15" r="1.6666666666666667" />
<circle cx="219.21" cy="176.15" r="1.6666666666666667" />
<circle cx="219.21" cy="176.15" r="1.6666666666666667" />
<circle cx="219.21" cy="176.15" r="1.6666666666666667" />
<circle cx="219.21" cy="176.15" r="1.6666666666666667" />
<circle cx="219.21" cy="176.15" r="1.6666666666666667" />
<circle cx="219.21" cy="176.15" r="1.6666666666666667" />
<circle cx="219.21" cy="176.15" r="1.6666666666666667" />
<circle cx="219.21" cy="176.15" r="1.6666666666666667" />
<circle cx="219.21" cy="176.15" r="1.6666666666666667" />
<circle cx="219.21" cy="176.15" r="1.6666666666666667" />
<circle cx="219.21" cy="176.15" r="1.6666666666666667" />
<circle cx="219.21" cy="176.15" r="1.6666666666666667" />
<circle cx="219.21" cy="176.15" r="1.6666666666666667" />
<circle cx="219.21" cy="176.15" r="1.6666666666666667" />
<circle cx="219.21" cy="176.15" r="1.6666666666666667" />
<circle cx="219.21" cy="176.15" r="1.6666666666666667" />
<circle cx="219.21" cy="176.15" r="1.6666666666666667" />
<circle cx="219.21" cy="176.15" r="1.6666666666666667" />
<circle cx="219.21" cy="176.15" r="1.6666666666666667" />
<circle cx="219.21" cy="176.15" r="1.6666666666666667" />
<circle cx="219.21" cy="176.15" r="1.6666666666666667" />
<circle cx="219.21" cy="176.15" r="1.6666666666666667" />
<circle cx="219.21" cy="176.15" r="1.6666666666666667" />
<circle cx="219.21" cy="176.15" r="1.6666666666666667" />
<circle cx="219.21" cy="176.15" r="1.6666666666666667" />
<circle cx="219.21" cy="176.15" r="1.6666666666666667" />
<circle cx="219.21" cy="176.15" r="1.6666666666666667" />
<circle cx="219.21" cy="176.15" r="1.6666666666666667" />
<circle cx="219.21" cy="176.15" r="1.6666666666666667" />
<circle cx="219.21" cy="176.15" r="1.6666666666666667" />
<circle cx="219.21" cy="176.15" r="1.6666666666666667" />
<circle cx="219.21" cy="176.15" r="1.6666666666666667" />
<circle cx="219.21" cy="176.15" r="1.6666666666666667" />
<circle cx="219.21" cy="176.15" r="1.6666666666666667" />
<circle cx="219.21" cy="176.15" r="1.6666666666666667" />
<circle cx="219.21" cy="176.15" r="1.6666666666666667" />
<circle cx="219.21" cy="176.15" r="1.6666666666666667" />
<circle cx="219.21" cy="176.15" r="1.6666666666666667" />
<circle cx="219.21" cy="176.15" r="1.6666666666666667" />
<circle cx="219.21" cy="176.15" r="1.6666666666666667" />
<circle cx="219.21" cy="176.15" r="1.6666666666666667" />
<circle cx="219.21" cy="176.15" r="1.6666666666666667" />
<circle cx="219.21" cy="176.15" r="1.6666666666666667" />
<circle cx="219.21" cy="176.15" r="1.6666666666666667" />
<circle cx="219.21" cy="257.58" r="1.6666666666666667" />
<circle cx="219.21" cy="176.15" r="1.6666666666666667" />
<circle cx="219.21" cy="176.15" r="1.6666666666666667" />
<circle cx="219.21" cy="176.15" r="1.6666666666666667" />
<circle cx="219.21" cy="176.15" r="1.6666666666666667" />
<circle cx="219.21" cy="176.15" r="1.6666666666666667" />
<circle cx="219.21" cy="176.15" r="1.6666666666666667" />
<circle cx="219.21" cy="176.15" r="1.6666666666666667" />
<circle cx="219.21" cy="176.15" r="1.6666666666666667" />
<circle cx="219.21" cy="176.15" r="1.6666666666666667" />
<circle cx="219.21" cy="176.15" r="1.6666666666666667" />
<circle cx="219.21" cy="176.15" r="1.6666666666666667" />
<circle cx="219.21" cy="176.15" r="1.6666666666666667" />
<circle cx="219.21" cy="176.15" r="1.6666666666666667" />
<circle cx="219.21" cy="176.15" r="1.6666666666666667" />
<circle cx="219.24" cy="388.75" r="1.6666666666666667" />
<circle cx="219.24" cy="276.05" r="1.6666666666666667" />
<circle cx="219.24" cy="299.20" r="1.6666666666666667" />
<circle cx="219.24" cy="328.34" r="1.6666666666666667" />
<circle cx="219.26" cy="381.32" r="1.6666666666666667" />
<circle cx="219.26" cy="253.66" r="1.6666666666666667" />
<circle cx="219.26" cy="208.42" r="1.6666666666666667" />
<circle cx="219.26" cy="176.15" r="1.6666666666666667" />
<circle cx="219.26" cy="237.23" r="1.6666666666666667" />
<circle cx="219.27" cy="348.62" r="1.6666666666666667" />
<circle cx="219.58" cy="460.49" r="1.6666666666666667" />
<circle cx="219.80" cy="451.26" r="1.6666666666666667" />
<circle cx="220.03" cy="451.59" r="1.6666666666666667" />
<circle cx="220.25" cy="450.88" r="1.6666666666666667" />
<circle cx="220.47" cy="450.47" r="1.6666666666666667" />
<circle cx="220.69" cy="450.51" r="1.6666666666666667" />
<circle cx="220.89" cy="448.75" r="1.6666666666666667" />
<circle cx="221.11" cy="450.80" r="1.6666666666666667" />
<circle cx="221.34" cy="451.11" r="1.6666666666666667" />
<circle cx="221.55" cy="449.94" r="1.6666666666666667" />
<circle cx="221.78" cy="451.27" r="1.6666666666666667" />
<circle cx="221.99" cy="450.10" r="1.6666666666666667" />
<circle cx="222.22" cy="451.38" r="1.6666666666666667" />
<circle cx="222.45" cy="452.00" r="1.6666666666666667" />
<circle cx="222.68" cy="451.82" r="1.6666666666666667" />
<circle cx="222.91" cy="451.96" r="1.6666666666666667" />
<circle cx="223.12" cy="449.98" r="1.6666666666666667" />
<circle cx="223.34" cy="450.89" r="1.6666666666666667" />
<circle cx="223.57" cy="451.66" r="1.6666666666666667" />
<circle cx="223.80" cy="451.43" r="1.6666666666666667" />
<circle cx="224.03" cy="452.33" r="1.6666666666666667" />
<circle cx="224.25" cy="450.61" r="1.6666666666666667" />
<circle cx="224.47" cy="451.50" r="1.6666666666666667" />
<circle cx="224.71" cy="453.18" r="1.6666666666666667" />
<circle cx="224.94" cy="451.39" r="1.6666666666666667" />
<circle cx="225.17" cy="452.35" r="1.6666666666666667" />
<circle cx="225.39" cy="449.84" r="1.6666666666666667" />
<circle cx="225.62" cy="452.53" r="1.6666666666666667" />
<circle cx="225.86" cy="452.78" r="1.6666666666666667" />
<circle cx="226.10" cy="453.57" r="1.6666666666666667" />
<circle cx="226.34" cy="453.01" r="1.6666666666666667" />
<circle cx="226.57" cy="452.59" r="1.6666666666666667" />
<circle cx="226.81" cy="452.42" r="1.6666666666666667" />
<circle cx="227.03" cy="451.67" r="1.6666666666666667" />
<circle cx="227.27" cy="453.01" r="1.6666666666666667" />
<circle cx="227.51" cy="452.67" r="1.6666666666666667" />
<circle cx="227.74" cy="452.08" r="1.6666666666666667" />
<circle cx="227.98" cy="453.45" r="1.6666666666666667" />
<circle cx="228.21" cy="452.42" r="1.6666666666666667" />
<circle cx="228.45" cy="453.36" r="1.6666666666666667" />
<circle cx="228.69" cy="452.91" r="1.6666666666666667" />
<circle cx="228.94" cy="453.98" r="1.6666666666666667" />
<circle cx="229.19" cy="454.25" r="1.6666666666666667" />
<circle cx="229.44" cy="454.55" r="1.6666666666666667" />
<circle cx="229.68" cy="453.64" r="1.6666666666666667" />
<circle cx="229.92" cy="453.72" r="1.6666666666666667" />
<circle cx="230.17" cy="453.46" r="1.6666666666666667" />
<circle cx="230.42" cy="454.67" r="1.6666666666666667" />
<circle cx="230.68" cy="455.74" r="1.6666666666666667" />
<circle cx="230.94" cy="455.69" r="1.6666666666666667" />
<circle cx="231.20" cy="455.68" r="1.6666666666666667" />
<circle cx="231.46" cy="455.06" r="1.6666666666666667" />
<circle cx="231.72" cy="456.42" r="1.6666666666666667" />
<circle cx="231.99" cy="456.60" r="1.6666666666666667" />
<circle cx="232.26" cy="456.25" r="1.6666666666666667" />
<circle cx="232.52" cy="455.25" r="1.6666666666666667" />
<circle cx="232.76" cy="454.21" r="1.6666666666666667" />
<circle cx="233.03" cy="456.12" r="1.6666666666666667" />
<circle cx="233.30" cy="456.85" r="1.6666666666666667" />
<circle cx="233.56" cy="455.70" r="1.6666666666666667" />
<circle cx="233.81" cy="454.65" r="1.6666666666666667" />
<circle cx="234.08" cy="456.36" r="1.6666666666666667" />
<circle cx="234.34" cy="456.02" r="1.6666666666666667" />
<circle cx="234.60" cy="455.65" r="1.6666666666666667" />
<circle cx="234.87" cy="455.81" r="1.6666666666666667" />
<circle cx="235.12" cy="454.94" r="1.6666666666666667" />
<circle cx="235.39" cy="456.53" r="1.6666666666666667" />
<circle cx="235.65" cy="455.77" r="1.6666666666666667" />
<circle cx="235.90" cy="454.52" r="1.6666666666666667" />
<circle cx="236.16" cy="455.53" r="1.6666666666666667" />
<circle cx="236.42" cy="456.12" r="1.6666666666666667" />
<circle cx="236.68" cy="455.52" r="1.6666666666666667" />
<circle cx="236.95" cy="456.12" r="1.6666666666666667" />
<circle cx="237.20" cy="454.49" r="1.6666666666666667" />
<circle cx="237.46" cy="455.19" r="1.6666666666666667" />
<circle cx="237.73" cy="456.66" r="1.6666666666666667" />
<circle cx="238.00" cy="457.08" r="1.6666666666666667" />
<circle cx="238.26" cy="455.76" r="1.6666666666666667" />
<circle cx="238.52" cy="455.76" r="1.6666666666666667" />
<circle cx="238.80" cy="457.39" r="1.6666666666666667" />
<circle cx="239.07" cy="457.08" r="1.6666666666666667" />
<circle cx="239.33" cy="455.38" r="1.6666666666666667" />
<circle cx="239.61" cy="457.44" r="1.6666666666666667" />
<circle cx="239.88" cy="456.80" r="1.6666666666666667" />
<circle cx="240.14" cy="456.17" r="1.6666666666666667" />
<circle cx="240.42" cy="456.84" r="1.6666666666666667" />
<circle cx="240.69" cy="456.77" r="1.6666666666666667" />
<circle cx="240.95" cy="456.54" r="1.6666666666666667" />
<circle cx="241.23" cy="456.84" r="1.6666666666666667" />
<circle cx="241.48" cy="455.31" r="1.6666666666666667" />
<circle cx="241.76" cy="457.34" r="1.6666666666666667" />
<circle cx="242.03" cy="457.24" r="1.6666666666666667" />
<circle cx="242.31" cy="457.79" r="1.6666666666666667" />
<circle cx="242.58" cy="456.61" r="1.6666666666666667" />
<circle cx="242.85" cy="456.31" r="1.6666666666666667" />
<circle cx="243.13" cy="457.27" r="1.6666666666666667" />
<circle cx="243.40" cy="457.68" r="1.6666666666666667" />
<circle cx="243.68" cy="457.71" r="1.6666666666666667" />
<circle cx="243.97" cy="458.18" r="1.6666666666666667" />
<circle cx="244.24" cy="457.32" r="1.6666666666666667" />
<circle cx="244.52" cy="457.54" r="1.6666666666666667" />
<circle cx="244.80" cy="457.67" r="1.6666666666666667" />
<circle cx="245.08" cy="457.15" r="1.6666666666666667" />
<circle cx="245.35" cy="457.74" r="1.6666666666666667" />
<circle cx="245.64" cy="458.20" r="1.6666666666666667" />
<circle cx="245.92" cy="457.38" r="1.6666666666666667" />
<circle cx="246.20" cy="457.91" r="1.6666666666666667" />
<circle cx="246.47" cy="457.50" r="1.6666666666666667" />
<circle cx="246.65" cy="443.57" r="1.6666666666666667" />
<circle cx="246.82" cy="444.38" r="1.6666666666666667" />
<circle cx="247.01" cy="446.06" r="1.6666666666666667" />
<circle cx="247.17" cy="440.88" r="1.6666666666666667" />
<circle cx="247.33" cy="441.15" r="1.6666666666666667" />
<circle cx="247.49" cy="440.84" r="1.6666666666666667" />
<circle cx="247.57" cy="423.02" r="1.6666666666666667" />
<circle cx="247.59" cy="370.43" r="1.6666666666666667" />
<circle cx="247.61" cy="383.75" r="1.6666666666666667" />
<circle cx="247.80" cy="446.51" r="1.6666666666666667" />
<circle cx="247.85" cy="408.58" r="1.6666666666666667" />
</g>
<g stroke="black">
<line x1="839.86" x2="839.86" y1="510.00" y2="520.00" />
<line x1="791.78" x2="791.78" y1="510.00" y2="520.00" />
<line x1="740.39" x2="740.39" y1="510.00" y2="520.00" />
<line x1="689.00" x2="689.00" y1="510.00" y2="520.00" />
<line x1="639.26" x2="639.26" y1="510.00" y2="520.00" />
<line x1="587.87" x2="587.87" y1="510.00" y2="520.00" />
<line x1="538.13" x2="538.13" y1="510.00" y2="520.00" />
<line x1="486.74" x2="486.74" y1="510.00" y2="520.00" />
<line x1="435.35" x2="435.35" y1="510.00" y2="520.00" />
<line x1="385.61" x2="385.61" y1="510.00" y2="520.00" />
<line x1="334.22" x2="334.22" y1="510.00" y2="520.00" />
<line x1="284.48" x2="284.48" y1="510.00" y2="520.00" />
<line x1="233.09" x2="233.09" y1="510.00" y2="520.00" />
<line x1="186.67" x2="186.67" y1="510.00" y2="520.00" />
<g fill="black" font-family="Arial, sans-serif" font-size="18.0" stroke="none" text-anchor="start" transform="translate(9.0 0.0)">
<text x="839.86" y="530.57">Mar</text>
<text x="791.78" y="530.57">Feb</text>
<text x="740.39" y="530.57">Jan</text>
<text x="689.00" y="530.57">Dec</text>
<text x="639.26" y="530.57">Nov</text>
<text x="587.87" y="530.57">Oct</text>
<text x="538.13" y="530.57">Sep</text>
<text x="486.74" y="530.57">Aug</text>
<text x="435.35" y="530.57">Jul</text>
<text x="385.61" y="530.57">Jun</text>
<text x="334.22" y="530.57">May</text>
<text x="284.48" y="530.57">Apr</text>
<text x="233.09" y="530.57">Mar</text>
<text x="186.67" y="530.57">Feb</text>
</g>
<line x1="150.00" x2="850.00" y1="510.00" y2="510.00" />
</g>
<g stroke="black">
<line x1="150.00" x2="140.00" y1="510.00" y2="510.00" />
<line x1="150.00" x2="140.00" y1="216.29" y2="216.29" />
<g fill="black" font-family="Arial, sans-serif" font-size="18.0" stroke="none" text-anchor="end">
<text x="141.00" y="501.00">0</text>
<text x="141.00" y="207.29">10</text>
</g>
<line x1="150.00" x2="150.00" y1="510.00" y2="90.00" />
</g>
</g>
</svg>