<?xml version="1.0"?>
<svg version="1.1" viewBox="0 0 1000 600" xmlns:xlink="http://www.w3.org/1999/xlink" xmlns="http://www.w3.org/2000/svg">
<g>
<g stroke-dasharray="3.6 7.2" stroke-width="0.72" stroke="#caa">
<line x1="813.75" x2="813.75" y1="510.00" y2="90.00" />
<line x1="760.60" x2="760.60" y1="510.00" y2="90.00" />
<line x1="707.45" x2="707.45" y1="510.00" y2="90.00" />
<line x1="656.01" x2="656.01" y1="510.00" y2="90.00" />
<line x1="602.86" x2="602.86" y1="510.00" y2="90.00" />
<line x1="551.42" x2="551.42" y1="510.00" y2="90.00" />
<line x1="498.27" x2="498.27" y1="510.00" y2="90.00" />
<line x1="445.11" x2="445.11" y1="510.00" y2="90.00" />
<line x1="393.68" x2="393.68" y1="510.00" y2="90.00" />
<line x1="340.52" x2="340.52" y1="510.00" y2="90.00" />
<line x1="289.09" x2="289.09" y1="510.00" y2="90.00" />
<line x1="235.93" x2="235.93" y1="510.00" y2="90.00" />
<line x1="187.92" x2="187.92" y1="510.00" y2="90.00" />
<line x1="150.00" x2="850.00" y1="510.00" y2="510.00" />
<line x1="150.00" x2="850.00" y1="465.81" y2="465.81" />
<line x1="150.00" x2="850.00" y1="421.62" y2="421.62" />
<line x1="150.00" x2="850.00" y1="377.42" y2="377.42" />
<line x1="150.00" x2="850.00" y1="333.23" y2="333.23" />
<line x1="150.00" x2="850.00" y1="289.04" y2="289.04" />
<line x1="150.00" x2="850.00" y1="244.85" y2="244.85" />
<line x1="150.00" x2="850.00" y1="200.66" y2="200.66" />
<line x1="150.00" x2="850.00" y1="156.46" y2="156.46" />
<line x1="150.00" x2="850.00" y1="112.27" y2="112.27" />
</g>
<g>
<text dominant-baseline="hanging" dx="-36.0" dy="18.0" fill="#0004" font-family="Arial, sans-serif" font-size="36" stroke="none" text-anchor="end" x="850.00" y="128.18">FR3</text>
</g>
<g>
<text dominant-baseline="text-bottom" dy="-12.0" fill="black" font-family="Arial, sans-serif" font-size="18.0" font-style="italic" stroke="none" text-anchor="middle" x="500.00" y="90.00">Years 2023 to 2024</text>
</g>
<g>
<text dominant-baseline="central" dx="12.0" dy="12.0" fill="black" font-family="Arial, sans-serif" font-size="18.0" font-style="italic" stroke="none" text-anchor="middle" text-orientation="sideways" writing-mode="vertical-lr" x="850.00" y="300.00">Drips per day</text>
</g>
<polyline fill="none" points="150.27,509.97 150.55,509.97 150.83,509.97 151.11,509.97 151.40,509.97 151.67,509.97 151.95,509.97 152.23,509.97 152.51,509.97 152.56,509.84 221.51,509.68 221.51,486.14 221.51,488.79 221.51,495.86 221.51,487.54 221.56,509.84 221.56,462.27 221.56,414.55 221.56,319.09 221.56,128.18 221.56,128.18 221.56,128.18 221.56,128.18 221.56,128.18 221.56,128.18 221.56,128.18 221.56,128.18 221.56,128.18 221.56,128.18 221.56,128.18 221.56,128.18 221.56,128.18 221.56,128.18 221.56,128.18 221.56,128.18 221.56,128.18 221.56,128.18 221.56,128.18 221.56,128.18 221.56,128.18 221.56,128.18 221.56,128.18 221.56,128.18 221.56,128.18 221.56,128.18 221.56,128.18 221.56,128.18 221.56,128.18 221.56,128.18 221.56,128.18 221.56,128.18 221.56,128.18 221.56,128.18 221.56,128.18 221.56,128.18 221.56,128.18 221.56,128.18 221.56,128.18 221.56,128.18 221.56,128.18 221.56,128.18 221.56,128.18 221.56,128.18 221.56,128.18 221.56,128.18 221.56,128.18 221.56,128.18 221.56,128.18 221.56,128.18 221.56,128.18 221.56,128.18 221.56,128.18 221.56,128.18 221.56,128.18 221.56,128.18 221.56,128.18 221.56,128.18 221.56,128.18 221.56,128.18 221.56,128.18 221.56,128.18 221.56,128.18 221.57,128.18 221.57,128.18 221.57,128.18 221.57,128.18 221.57,128.18 221.57,319.09 221.57,128.18 221.57,128.18 221.57,128.18 221.57,128.18 221.57,128.18 221.57,128.18 221.57,128.18 221.57,128.18 221.57,128.18 221.57,128.18 221.57,128.18 221.57,128.18 221.57,128.18 221.57,128.18 221.57,128.18 221.57,128.18 221.57,128.18 221.57,128.18 221.57,128.18 221.57,128.18 221.57,128.18 221.57,128.18 221.57,128.18 221.57,128.18 221.57,128.18 221.57,128.18 221.57,128.18 221.57,128.18 221.57,128.18 221.57,128.18 221.57,128.18 221.57,128.18 221.57,128.18 221.57,128.18 221.57,128.18 221.57,128.18 221.57,128.18 221.57,128.18 221.57,128.18 221.57,128.18 221.57,128.18 221.57,128.18 221.57,128.18 221.57,128.18 221.57,128.18 221.57,128.18 221.57,128.18 221.57,128.18 221.57,128.18 221.57,128.18 221.57,128.18 221.57,128.18 221.57,128.18 221.57,128.18 221.57,128.18 221.57,128.18 221.57,128.18 221.57,128.18 221.57,128.18 221.57,128.18 221.57,128.18 221.57,486.14 221.57,128.18 221.57,128.18 221.57,128.18 221.57,128.18 221.57,128.18 221.57,128.18 221.57,128.18 221.57,128.18 221.57,128.18 221.57,128.18 221.57,128.18 221.57,128.18 221.57,128.18 221.57,128.18 221.57,128.18 221.57,128.18 221.57,128.18 221.57,128.18 221.57,128.18 221.57,128.18 221.57,128.18 221.57,128.18 221.57,128.18 221.57,128.18 221.57,128.18 221.57,128.18 221.57,128.18 221.57,128.18 221.57,128.18 221.57,128.18 221.57,128.18 221.57,128.18 221.57,128.18 221.57,128.18 221.57,128.18 221.57,128.18 221.57,128.18 221.57,128.18 221.57,128.18 221.57,128.18 221.57,128.18 221.57,128.18 221.57,128.18 221.57,128.18 221.57,128.18 221.57,128.18 221.57,128.18 221.57,128.18 221.57,128.18 221.57,128.18 221.57,128.18 221.57,128.18 221.57,128.18 221.57,128.18 221.57,128.18 221.57,128.18 221.57,128.18 221.57,128.18 221.57,128.18 221.57,128.18 221.57,128.18 221.57,128.18 221.57,128.18 221.57,128.18 221.57,128.18 221.57,128.18 221.57,128.18 221.57,128.18 221.57,128.18 221.57,128.18 221.57,128.18 221.57,128.18 221.57,128.18 221.57,128.18 221.57,128.18 221.57,128.18 221.57,128.18 221.57,128.18 221.57,128.18 221.57,128.18 221.57,128.18 221.57,128.18 221.57,128.18 221.57,128.18 221.57,128.18 221.57,128.18 221.57,128.18 221.57,128.18 221.57,128.18 221.57,128.18 221.57,128.18 221.57,128.18 221.57,128.18 221.57,128.18 221.57,128.18 221.57,128.18 221.57,128.18 221.57,128.18 221.57,128.18 221.57,128.18 221.57,128.18 221.57,128.18 221.57,128.18 221.57,128.18 221.57,128.18 221.57,128.18 221.57,128.18 221.57,128.18 221.57,128.18 221.57,128.18 221.57,128.18 221.57,128.18 221.57,128.18 221.57,128.18 221.57,128.18 221.57,128.18 221.57,128.18 221.57,128.18 221.57,128.18 221.57,128.18 221.57,128.18 221.57,128.18 221.57,128.18 221.57,128.18 221.57,128.18 221.57,128.18 221.57,128.18 221.57,128.18 221.57,128.18 221.57,128.18 221.57,128.18 221.57,128.18 221.57,128.18 221.57,128.18 221.57,128.18 221.57,128.18 221.57,128.18 221.57,486.14 221.57,128.18 221.57,128.18 221.57,128.18 221.57,128.18 221.57,128.18 221.57,128.18 221.57,128.18 221.57,128.18 221.57,128.18 221.57,128.18 221.57,486.14 221.57,128.18 221.57,128.18 221.57,128.18 221.57,128.18 221.57,128.18 221.57,128.18 221.57,128.18 221.57,128.18 221.57,128.18 221.57,128.18 221.57,128.18 221.57,128.18 221.57,128.18 221.57,128.18 221.57,128.18 221.57,128.18 221.57,128.18 221.57,128.18 221.57,128.18 221.57,128.18 221.57,128.18 221.57,128.18 221.57,128.18 221.57,128.18 221.57,128.18 221.57,128.18 221.57,128.18 221.57,128.18 221.57,128.18 221.57,128.18 221.57,128.18 221.57,128.18 221.57,128.18 221.57,128.18 221.57,128.18 221.57,128.18 221.57,128.18 221.57,128.18 221.57,128.18 221.57,128.18 221.57,128.18 221.57,128.18 221.57,128.18 221.57,128.18 221.57,128.18 221.57,128.18 221.57,128.18 221.57,128.18 221.57,128.18 221.57,128.18 221.57,128.18 221.57,128.18 221.57,128.18 221.57,128.18 221.57,128.18 221.57,128.18 221.57,128.18 221.57,128.18 221.57,128.18 221.57,128.18 221.57,128.18 221.57,128.18 221.57,128.18 221.57,128.18 221.57,128.18 221.57,128.18 221.57,128.18 221.57,128.18 221.57,128.18 221.57,128.18 221.57,128.18 221.57,128.18 221.57,128.18 221.57,128.18 221.57,128.18 221.57,128.18 221.57,128.18 221.57,128.18 221.57,128.18 221.57,128.18 221.57,128.18 221.57,128.18 221.57,128.18 221.57,128.18 221.57,128.18 221.57,128.18 221.57,128.18 221.57,128.18 221.57,128.18 221.57,128.18 221.57,128.18 221.57,128.18 221.57,128.18 221.57,128.18 221.57,128.18 221.57,486.14 221.57,128.18 221.57,128.18 221.57,128.18 221.57,128.18 221.57,128.18 221.57,128.18 221.57,128.18 221.57,128.18 221.57,128.18 221.57,128.18 221.57,128.18 221.57,128.18 221.57,128.18 221.57,128.18 221.57,128.18 221.57,128.18 221.57,128.18 221.57,128.18 221.57,128.18 221.57,128.18 221.57,128.18 221.57,128.18 221.57,128.18 221.57,128.18 221.57,128.18 221.57,128.18 221.57,128.18 221.57,128.18 221.57,128.18 221.57,128.18 221.57,128.18 221.57,128.18 221.57,128.18 221.57,128.18 221.57,128.18 221.57,128.18 221.57,128.18 221.57,128.18 221.57,128.18 221.57,319.09 221.57,128.18 221.57,128.18 221.57,128.18 221.57,128.18 221.57,486.14 221.57,128.18 221.57,128.18 221.57,128.18 221.58,506.59 221.58,128.18 221.58,128.18 221.58,128.18 221.58,128.18 221.58,128.18 221.58,128.18 221.58,128.18 221.58,128.18 221.58,128.18 221.58,128.18 221.58,128.18 221.58,128.18 221.58,128.18 221.58,128.18 221.58,128.18 221.58,128.18 221.58,128.18 221.58,128.18 221.58,128.18 221.58,128.18 221.58,128.18 221.58,128.18 221.58,128.18 221.58,128.18 221.58,128.18 221.58,128.18 221.58,128.18 221.58,128.18 221.58,128.18 221.58,128.18 221.58,128.18 221.58,128.18 221.58,128.18 221.58,128.18 221.58,128.18 221.58,128.18 221.58,128.18 221.58,128.18 221.58,128.18 221.58,128.18 221.58,128.18 221.58,128.18 221.58,128.18 221.58,128.18 221.58,128.18 221.58,128.18 221.58,128.18 221.58,128.18 221.58,128.18 221.58,128.18 221.58,128.18 221.58,128.18 221.58,128.18 221.58,128.18 221.58,128.18 221.58,128.18 221.58,128.18 221.58,128.18 221.58,128.18 221.58,128.18 221.58,128.18 221.58,128.18 221.58,128.18 221.58,128.18 221.58,128.18 221.58,128.18 221.58,128.18 221.58,128.18 221.58,128.18 221.58,128.18 221.58,128.18 221.58,128.18 221.58,128.18 221.58,128.18 221.58,128.18 221.58,128.18 221.58,128.18 221.58,128.18 221.58,128.18 221.58,128.18 221.58,128.18 221.58,128.18 221.58,128.18 221.58,128.18 221.58,128.18 221.58,128.18 221.58,128.18 221.58,128.18 221.58,128.18 221.58,128.18 221.58,128.18 221.58,128.18 221.58,128.18 221.58,128.18 221.58,128.18 221.58,128.18 221.58,128.18 221.58,128.18 221.58,128.18 221.58,128.18 221.58,128.18 221.58,128.18 221.58,128.18 221.58,128.18 221.58,128.18 221.58,128.18 221.58,128.18 221.58,128.18 221.58,128.18 221.58,128.18 221.58,128.18 221.58,128.18 221.58,128.18 221.58,128.18 221.58,128.18 221.58,128.18 221.58,128.18 221.58,128.18 221.58,128.18 221.58,128.18 221.58,128.18 221.58,128.18 221.58,128.18 221.58,128.18 221.58,128.18 221.58,128.18 221.58,128.18 221.58,128.18 221.58,128.18 221.58,128.18 221.58,128.18 221.58,128.18 221.58,128.18 221.58,128.18 221.58,128.18 221.58,128.18 221.58,128.18 221.58,128.18 221.58,128.18 221.58,128.18 221.58,128.18 221.58,128.18 221.58,128.18 221.58,128.18 221.58,128.18 221.58,128.18 221.58,128.18 221.58,128.18 221.58,128.18 221.58,128.18 221.58,128.18 221.58,128.18 221.58,128.18 221.58,128.18 221.58,128.18 221.58,128.18 221.58,128.18 221.58,128.18 221.58,128.18 221.58,128.18 221.58,128.18 221.58,128.18 221.58,128.18 221.58,128.18 221.58,128.18 221.58,128.18 221.58,128.18 221.58,128.18 221.58,128.18 221.58,128.18 221.58,128.18 221.58,128.18 221.58,128.18 221.58,128.18 221.58,128.18 221.58,128.18 221.58,128.18 221.58,128.18 221.58,128.18 221.58,128.18 221.58,128.18 221.58,128.18 221.58,128.18 221.58,128.18 221.58,128.18 221.58,128.18 221.58,486.14 221.58,128.18 221.58,128.18 221.58,128.18 221.58,128.18 221.58,128.18 221.58,128.18 221.58,128.18 221.58,128.18 221.58,128.18 221.58,128.18 221.58,128.18 221.58,128.18 221.58,128.18 221.58,128.18 221.61,509.73 221.61,497.27 221.61,504.21 221.61,507.85 221.63,509.65 221.63,482.73 221.64,382.73 221.64,128.18 221.64,462.27 221.64,508.92 221.96,509.98 222.19,509.97 222.43,509.97 222.66,509.97 222.88,509.97 223.11,509.97 223.32,509.96 223.55,509.97 223.78,509.97 224.00,509.97 224.23,509.97 224.46,509.97 224.69,509.97 224.93,509.97 225.16,509.97 225.40,509.97 225.62,509.97 225.85,509.97 226.09,509.97 226.32,509.97 226.56,509.97 226.79,509.97 227.02,509.97 227.27,509.97 227.50,509.97 227.75,509.97 227.97,509.97 228.21,509.97 228.45,509.97 228.70,509.97 228.95,509.97 229.19,509.97 229.43,509.97 229.67,509.97 229.92,509.97 230.16,509.97 230.40,509.97 230.65,509.97 230.89,509.97 231.14,509.97 231.38,509.97 231.64,509.97 231.90,509.97 232.16,509.97 232.41,509.97 232.66,509.97 232.91,509.97 233.17,509.97 233.44,509.97 233.71,509.97 233.98,509.97 234.24,509.97 234.52,509.97 234.80,509.97 235.07,509.97 235.34,509.97 235.60,509.97 235.87,509.97 236.15,509.97 236.42,509.97 236.68,509.97 236.96,509.97 237.23,509.97 237.50,509.97 237.77,509.97 238.03,509.97 238.31,509.97 238.58,509.97 238.84,509.97 239.11,509.97 239.38,509.97 239.65,509.97 239.93,509.97 240.19,509.97 240.45,509.97 240.73,509.97 241.01,509.97 241.28,509.97 241.55,509.97 241.84,509.97 242.12,509.97 242.39,509.97 242.68,509.97 242.96,509.97 243.23,509.97 243.51,509.97 243.79,509.97 244.07,509.97 244.35,509.97 244.62,509.97 244.90,509.97 245.19,509.97 245.47,509.97 245.75,509.97 246.03,509.97 246.31,509.97 246.60,509.97 246.89,509.97 247.19,509.97 247.47,509.97 247.76,509.97 248.05,509.97 248.33,509.97 248.62,509.97 248.91,509.97 249.20,509.97 249.49,509.97 249.78,509.97 249.96,509.96 250.14,509.96 250.33,509.96 250.50,509.95 250.66,509.95 250.82,509.95 250.91,509.91 250.93,509.49 250.95,509.67 251.15,509.96 251.20,509.86 178.96,509.99 179.78,509.99 180.57,509.99 181.42,509.99 182.28,509.99 182.98,509.99 183.63,509.99 184.34,509.99 184.99,509.99 185.68,509.99 186.46,509.99 187.20,509.99 187.92,509.99 188.69,509.99 189.52,509.99 190.24,509.99 191.04,509.99 191.84,509.99 192.55,509.99 193.37,509.99 194.02,509.99 194.78,509.99 195.46,509.99 196.20,509.99 196.97,509.99 197.69,509.99 198.47,509.99 199.29,509.99" stroke-dasharray="3.6 3.6" stroke-width="3.6" stroke="#aaa" />
<g>
<circle cx="150.27" cy="509.97" r="1.6666666666666667" />
<circle cx="150.55" cy="509.97" r="1.6666666666666667" />
<circle cx="150.83" cy="509.97" r="1.6666666666666667" />
<circle cx="151.11" cy="509.97" r="1.6666666666666667" />
<circle cx="151.40" cy="509.97" r="1.6666666666666667" />
<circle cx="151.67" cy="509.97" r="1.6666666666666667" />
<circle cx="151.95" cy="509.97" r="1.6666666666666667" />
<circle cx="152.23" cy="509.97" r="1.6666666666666667" />
<circle cx="152.51" cy="509.97" r="1.6666666666666667" />
<circle cx="152.56" cy="509.84" r="1.6666666666666667" />
<circle cx="178.96" cy="509.99" r="1.6666666666666667" />
<circle cx="179.78" cy="509.99" r="1.6666666666666667" />
<circle cx="180.57" cy="509.99" r="1.6666666666666667" />
<circle cx="181.42" cy="509.99" r="1.6666666666666667" />
<circle cx="182.28" cy="509.99" r="1.6666666666666667" />
<circle cx="182.98" cy="509.99" r="1.6666666666666667" />
<circle cx="183.63" cy="509.99" r="1.6666666666666667" />
<circle cx="184.34" cy="509.99" r="1.6666666666666667" />
<circle cx="184.99" cy="509.99" r="1.6666666666666667" />
<circle cx="185.68" cy="509.99" r="1.6666666666666667" />
<circle cx="186.46" cy="509.99" r="1.6666666666666667" />
<circle cx="187.20" cy="509.99" r="1.6666666666666667" />
<circle cx="187.92" cy="509.99" r="1.6666666666666667" />
<circle cx="188.69" cy="509.99" r="1.6666666666666667" />
<circle cx="189.52" cy="509.99" r="1.6666666666666667" />
<circle cx="190.24" cy="509.99" r="1.6666666666666667" />
<circle cx="191.04" cy="509.99" r="1.6666666666666667" />
<circle cx="191.84" cy="509.99" r="1.6666666666666667" />
<circle cx="192.55" cy="509.99" r="1.6666666666666667" />
<circle cx="193.37" cy="509.99" r="1.6666666666666667" />
<circle cx="194.02" cy="509.99" r="1.6666666666666667" />
<circle cx="194.78" cy="509.99" r="1.6666666666666667" />
<circle cx="195.46" cy="509.99" r="1.6666666666666667" />
<circle cx="196.20" cy="509.99" r="1.6666666666666667" />
<circle cx="196.97" cy="509.99" r="1.6666666666666667" />
<circle cx="197.69" cy="509.99" r="1.6666666666666667" />
<circle cx="198.47" cy="509.99" r="1.6666666666666667" />
<circle cx="199.29" cy="509.99" r="1.6666666666666667" />
<circle cx="221.51" cy="509.68" r="1.6666666666666667" />
<circle cx="221.51" cy="486.14" r="1.6666666666666667" />
<circle cx="221.51" cy="488.79" r="1.6666666666666667" />
<circle cx="221.51" cy="495.86" r="1.6666666666666667" />
<circle cx="221.51" cy="487.54" r="1.6666666666666667" />
<circle cx="221.56" cy="509.84" r="1.6666666666666667" />
<circle cx="221.56" cy="462.27" r="1.6666666666666667" />
<circle cx="221.56" cy="414.55" r="1.6666666666666667" />
<circle cx="221.56" cy="319.09" r="1.6666666666666667" />
<circle cx="221.56" cy="128.18" r="1.6666666666666667" />
<circle cx="221.56" cy="128.18" r="1.6666666666666667" />
<circle cx="221.56" cy="128.18" r="1.6666666666666667" />
<circle cx="221.56" cy="128.18" r="1.6666666666666667" />
<circle cx="221.56" cy="128.18" r="1.6666666666666667" />
<circle cx="221.56" cy="128.18" r="1.6666666666666667" />
<circle cx="221.56" cy="128.18" r="1.6666666666666667" />
<circle cx="221.56" cy="128.18" r="1.6666666666666667" />
<circle cx="221.56" cy="128.18" r="1.6666666666666667" />
<circle cx="221.56" cy="128.18" r="1.6666666666666667" />
<circle cx="221.56" cy="128.18" r="1.6666666666666667" />
<circle cx="221.56" cy="128.18" r="1.6666666666666667" />
<circle cx="221.56" cy="128.18" r="1.6666666666666667" />
<circle cx="221.56" cy="128.18" r="1.6666666666666667" />
<circle cx="221.56" cy="128.18" r="1.6666666666666667" />
<circle cx="221.56" cy="128.18" r="1.6666666666666667" />
<circle cx="221.56" cy="128.18" r="1.6666666666666667" />
<circle cx="221.56" cy="128.18" r="1.6666666666666667" />
<circle cx="221.56" cy="128.18" r="1.6666666666666667" />
<circle cx="221.56" cy="128.18" r="1.6666666666666667" />
<circle cx="221.56" cy="128.18" r="1.6666666666666667" />
<circle cx="221.56" cy="128.18" r="1.6666666666666667" />
<circle cx="221.56" cy="128.18" r="1.6666666666666667" />
<circle cx="221.56" cy="128.18" r="1.6666666666666667" />
<circle cx="221.56" cy="128.18" r="1.6666666666666667" />
<circle cx="221.56" cy="128.18" r="1.6666666666666667" />
<circle cx="221.56" cy="128.18" r="1.6666666666666667" />
<circle cx="221.56" cy="128.18" r="1.6666666666666667" />
<circle cx="221.56" cy="128.18" r="1.6666666666666667" />
<circle cx="221.56" cy="128.18" r="1.6666666666666667" />
<circle cx="221.56" cy="128.18" r="1.6666666666666667" />
<circle cx="221.56" cy="128.18" r="1.6666666666666667" />
<circle cx="221.56" cy="128.18" r="1.6666666666666667" />
<circle cx="221.56" cy="128.18" r="1.6666666666666667" />
<circle cx="221.56" cy="128.18" r="1.6666666666666667" />
<circle cx="221.56" cy="128.18" r="1.6666666666666667" />
<circle cx="221.56" cy="128.18" r="1.6666666666666667" />
<circle cx="221.56" cy="128.18" r="1.6666666666666667" />
<circle cx="221.56" cy="128.18" r="1.6666666666666667" />
<circle cx="221.56" cy="128.18" r="1.6666666666666667" />
<circle cx="221.56" cy="128.18" r="1.6666666666666667" />
<circle cx="221.56" cy="128.18" r="1.6666666666666667" />
<circle cx="221.56" cy="128.18" r="1.6666666666666667" />
<circle cx="221.56" cy="128.18" r="1.6666666666666667" />
<circle cx="221.56" cy="128.18" r="1.6666666666666667" />
<circle cx="221.56" cy="128.18" r="1.6666666666666667" />
<circle cx="221.56" cy="128.18" r="1.6666666666666667" />
<circle cx="221.56" cy="128.18" r="1.6666666666666667" />
<circle cx="221.56" cy="128.18" r="1.6666666666666667" />
<circle cx="221.56" cy="128.18" r="1.6666666666666667" />
<circle cx="221.56" cy="128.18" r="1.6666666666666667" />
<circle cx="221.56" cy="128.18" r="1.6666666666666667" />
<circle cx="221.56" cy="128.18" r="1.6666666666666667" />
<circle cx="221.56" cy="128.18" r="1.6666666666666667" />
<circle cx="221.56" cy="128.18" r="1.6666666666666667" />
<circle cx="221.56" cy="128.18" r="1.6666666666666667" />
<circle cx="221.56" cy="128.18" r="1.6666666666666667" />
<circle cx="221.56" cy="128.18" r="1.6666666666666667" />
<circle cx="221.56" cy="128.18" r="1.6666666666666667" />
<circle cx="221.56" cy="128.18" r="1.6666666666666667" />
<circle cx="221.56" cy="128.18" r="1.6666666666666667" />
<circle cx="221.56" cy="128.18" r="1.6666666666666667" />
<circle cx="221.56" cy="128.18" r="1.6666666666666667" />
<circle cx="221.57" cy="128.18" r="1.6666666666666667" />
<circle cx="221.57" cy="128.18" r="1.6666666666666667" />
<circle cx="221.57" cy="128.18" r="1.6666666666666667" />
<circle cx="221.57" cy="128.18" r="1.6666666666666667" />
<circle cx="221.57" cy="128.18" r="1.6666666666666667" />
<circle cx="221.57" cy="319.09" r="1.6666666666666667" />
<circle cx="221.57" cy="128.18" r="1.6666666666666667" />
<circle cx="221.57" cy="128.18" r="1.6666666666666667" />
<circle cx="221.57" cy="128.18" r="1.6666666666666667" />
<circle cx="221.57" cy="128.18" r="1.6666666666666667" />
<circle cx="221.57" cy="128.18" r="1.6666666666666667" />
<circle cx="221.57" cy="128.18" r="1.6666666666666667" />
<circle cx="221.57" cy="128.18" r="1.6666666666666667" />
<circle cx="221.57" cy="128.18" r="1.6666666666666667" />
<circle cx="221.57" cy="128.18" r="1.6666666666666667" />
<circle cx="221.57" cy="128.18" r="1.6666666666666667" />
<circle cx="221.57" cy="128.18" r="1.6666666666666667" />
<circle cx="221.57" cy="128.18" r="1.6666666666666667" />
<circle cx="221.57" cy="128.18" r="1.6666666666666667" />
<circle cx="221.57" cy="128.18" r="1.6666666666666667" />
<circle cx="221.57" cy="128.18" r="1.6666666666666667" />
<circle cx="221.57" cy="128.18" r="1.6666666666666667" />
<circle cx="221.57" cy="128.18" r="1.6666666666666667" />
<circle cx="221.57" cy="128.18" r="1.6666666666666667" />
<circle cx="221.57" cy="128.18" r="1.6666666666666667" />
<circle cx="221.57" cy="128.18" r="1.6666666666666667" />
<circle cx="221.57" cy="128.18" r="1.6666666666666667" />
<circle cx="221.57" cy="128.18" r="1.6666666666666667" />
<circle cx="221.57" cy="128.18" r="1.6666666666666667" />
<circle cx="221.57" cy="128.18" r="1.6666666666666667" />
<circle cx="221.57" cy="128.18" r="1.6666666666666667" />
<circle cx="221.57" cy="128.18" r="1.6666666666666667" />
<circle cx="221.57" cy="128.18" r="1.6666666666666667" />
<circle cx="221.57" cy="128.18" r="1.6666666666666667" />
<circle cx="221.57" cy="128.18" r="1.6666666666666667" />
<circle cx="221.57" cy="128.18" r="1.6666666666666667" />
<circle cx="221.57" cy="128.18" r="1.6666666666666667" />
<circle cx="221.57" cy="128.18" r="1.6666666666666667" />
<circle cx="221.57" cy="128.18" r="1.6666666666666667" />
<circle cx="221.57" cy="128.18" r="1.6666666666666667" />
<circle cx="221.57" cy="128.18" r="1.6666666666666667" />
<circle cx="221.57" cy="128.18" r="1.6666666666666667" />
<circle cx="221.57" cy="128.18" r="1.6666666666666667" />
<circle cx="221.57" cy="128.18" r="1.6666666666666667" />
<circle cx="221.57" cy="128.18" r="1.6666666666666667" />
<circle cx="221.57" cy="128.18" r="1.6666666666666667" />
<circle cx="221.57" cy="128.18" r="1.6666666666666667" />
<circle cx="221.57" cy="128.18" r="1.6666666666666667" />
<circle cx="221.57" cy="128.18" r="1.6666666666666667" />
<circle cx="221.57" cy="128.18" r="1.6666666666666667" />
<circle cx="221.57" cy="128.18" r="1.6666666666666667" />
<circle cx="221.57" cy="128.18" r="1.6666666666666667" />
<circle cx="221.57" cy="128.18" r="1.6666666666666667" />
<circle cx="221.57" cy="128.18" r="1.6666666666666667" />
<circle cx="221.57" cy="128.18" r="1.6666666666666667" />
<circle cx="221.57" cy="128.18" r="1.6666666666666667" />
<circle cx="221.57" cy="128.18" r="1.6666666666666667" />
<circle cx="221.57" cy="128.18" r="1.6666666666666667" />
<circle cx="221.57" cy="128.18" r="1.6666666666666667" />
<circle cx="221.57" cy="128.18" r="1.6666666666666667" />
<circle cx="221.57" cy="128.18" r="1.6666666666666667" />
<circle cx="221.57" cy="128.18" r="1.6666666666666667" />
<circle cx="221.57" cy="128.18" r="1.6666666666666667" />
<circle cx="221.57" cy="128.18" r="1.6666666666666667" />
<circle cx="221.57" cy="128.18" r="1.6666666666666667" />
<circle cx="221.57" cy="128.18" r="1.6666666666666667" />
<circle cx="221.57" cy="128.18" r="1.6666666666666667" />
<circle cx="221.57" cy="486.14" r="1.6666666666666667" />
<circle cx="221.57" cy="128.18" r="1.6666666666666667" />
<circle cx="221.57" cy="128.18" r="1.6666666666666667" />
<circle cx="221.57" cy="128.18" r="1.6666666666666667" />
<circle cx="221.57" cy="128.18" r="1.6666666666666667" />
<circle cx="221.57" cy="128.18" r="1.6666666666666667" />
<circle cx="221.57" cy="128.18" r="1.6666666666666667" />
<circle cx="221.57" cy="128.18" r="1.6666666666666667" />
<circle cx="221.57" cy="128.18" r="1.6666666666666667" />
<circle cx="221.57" cy="128.18" r="1.6666666666666667" />
<circle cx="221.57" cy="128.18" r="1.6666666666666667" />
<circle cx="221.57" cy="128.18" r="1.6666666666666667" />
<circle cx="221.57" cy="128.18" r="1.6666666666666667" />
<circle cx="221.57" cy="128.18" r="1.6666666666666667" />
<circle cx="221.57" cy="128.18" r="1.6666666666666667" />
<circle cx="221.57" cy="128.18" r="1.6666666666666667" />
<circle cx="221.57" cy="128.18" r="1.6666666666666667" />
<circle cx="221.57" cy="128.18" r="1.6666666666666667" />
<circle cx="221.57" cy="128.18" r="1.6666666666666667" />
<circle cx="221.57" cy="128.18" r="1.6666666666666667" />
<circle cx="221.57" cy="128.18" r="1.6666666666666667" />
<circle cx="221.57" cy="128.18" r="1.6666666666666667" />
<circle cx="221.57" cy="128.18" r="1.6666666666666667" />
<circle cx="221.57" cy="128.18" r="1.6666666666666667" />
<circle cx="221.57" cy="128.18" r="1.6666666666666667" />
<circle cx="221.57" cy="128.18" r="1.6666666666666667" />
<circle cx="221.57" cy="128.18" r="1.6666666666666667" />
<circle cx="221.57" cy="128.18" r="1.6666666666666667" />
<circle cx="221.57" cy="128.18" r="1.6666666666666667" />
<circle cx="221.57" cy="128.18" r="1.6666666666666667" />
<circle cx="221.57" cy="128.18" r="1.6666666666666667" />
<circle cx="221.57" cy="128.18" r="1.6666666666666667" />
<circle cx="221.57" cy="128.18" r="1.6666666666666667" />
<circle cx="221.57" cy="128.18" r="1.6666666666666667" />
<circle cx="221.57" cy="128.18" r="1.6666666666666667" />
<circle cx="221.57" cy="128.18" r="1.6666666666666667" />
<circle cx="221.57" cy="128.18" r="1.6666666666666667" />
<circle cx="221.57" cy="128.18" r="1.6666666666666667" />
<circle cx="221.57" cy="128.18" r="1.6666666666666667" />
<circle cx="221.57" cy="128.18" r="1.6666666666666667" />
<circle cx="221.57" cy="128.18" r="1.6666666666666667" />
<circle cx="221.57" cy="128.18" r="1.6666666666666667" />
<circle cx="221.57" cy="128.18" r="1.6666666666666667" />
<circle cx="221.57" cy="128.18" r="1.6666666666666667" />
<circle cx="221.57" cy="128.18" r="1.6666666666666667" />
<circle cx="221.57" cy="128.18" r="1.6666666666666667" />
<circle cx="221.57" cy="128.18" r="1.6666666666666667" />
<circle cx="221.57" cy="128.18" r="1.6666666666666667" />
<circle cx="221.57" cy="128.18" r="1.6666666666666667" />
<circle cx="221.57" cy="128.18" r="1.6666666666666667" />
<circle cx="221.57" cy="128.18" r="1.6666666666666667" />
<circle cx="221.57" cy="128.18" r="1.6666666666666667" />
<circle cx="221.57" cy="128.18" r="1.6666666666666667" />
<circle cx="221.57" cy="128.18" r="1.6666666666666667" />
<circle cx="221.57" cy="128.18" r="1.6666666666666667" />
<circle cx="221.57" cy="128.18" r="1.6666666666666667" />
<circle cx="221.57" cy="128.18" r="1.6666666666666667" />
<circle cx="221.57" cy="128.18" r="1.6666666666666667" />
<circle cx="221.57" cy="128.18" r="1.6666666666666667" />
<circle cx="221.57" cy="128.18" r="1.6666666666666667" />
<circle cx="221.57" cy="128.18" r="1.6666666666666667" />
<circle cx="221.57" cy="128.18" r="1.6666666666666667" />
<circle cx="221.57" cy="128.18" r="1.6666666666666667" />
<circle cx="221.57" cy="128.18" r="1.6666666666666667" />
<circle cx="221.57" cy="128.18" r="1.6666666666666667" />
<circle cx="221.57" cy="128.18" r="1.6666666666666667" />
<circle cx="221.57" cy="128.18" r="1.6666666666666667" />
<circle cx="221.57" cy="128.18" r="1.6666666666666667" />
<circle cx="221.57" cy="128.18" r="1.6666666666666667" />
<circle cx="221.57" cy="128.18" r="1.6666666666666667" />
<circle cx="221.57" cy="128.18" r="1.6666666666666667" />
<circle cx="221.57" cy="128.18" r="1.6666666666666667" />
<circle cx="221.57" cy="128.18" r="1.6666666666666667" />
<circle cx="221.57" cy="128.18" r="1.6666666666666667" />
<circle cx="221.57" cy="128.18" r="1.6666666666666667" />
<circle cx="221.57" cy="128.18" r="1.6666666666666667" />
<circle cx="221.57" cy="128.18" r="1.6666666666666667" />
<circle cx="221.57" cy="128.18" r="1.6666666666666667" />
<circle cx="221.57" cy="128.18" r="1.6666666666666667" />
<circle cx="221.57" cy="128.18" r="1.6666666666666667" />
<circle cx="221.57" cy="128.18" r="1.6666666666666667" />
<circle cx="221.57" cy="128.18" r="1.6666666666666667" />
<circle cx="221.57" cy="128.18" r="1.6666666666666667" />
<circle cx="221.57" cy="128.18" r="1.6666666666666667" />
<circle cx="221.57" cy="128.18" r="1.6666666666666667" />
<circle cx="221.57" cy="128.18" r="1.6666666666666667" />
<circle cx="221.57" cy="128.18" r="1.6666666666666667" />
<circle cx="221.57" cy="128.18" r="1.6666666666666667" />
<circle cx="221.57" cy="128.18" r="1.6666666666666667" />
<circle cx="221.57" cy="128.18" r="1.6666666666666667" />
<circle cx="221.57" cy="128.18" r="1.6666666666666667" />
<circle cx="221.57" cy="128.18" r="1.6666666666666667" />
<circle cx="221.57" cy="128.18" r="1.6666666666666667" />
<circle cx="221.57" cy="128.18" r="1.6666666666666667" />
<circle cx="221.57" cy="128.18" r="1.6666666666666667" />
<circle cx="221.57" cy="128.18" r="1.6666666666666667" />
<circle cx="221.57" cy="128.18" r="1.6666666666666667" />
<circle cx="221.57" cy="128.18" r="1.6666666666666667" />
<circle cx="221.57" cy="128.18" r="1.6666666666666667" />
<circle cx="221.57" cy="128.18" r="1.6666666666666667" />
<circle cx="221.57" cy="128.18" r="1.6666666666666667" />
<circle cx="221.57" cy="128.18" r="1.6666666666666667" />
<circle cx="221.57" cy="128.18" r="1.6666666666666667" />
<circle cx="221.57" cy="128.18" r="1.6666666666666667" />
<circle cx="221.57" cy="128.18" r="1.6666666666666667" />
<circle cx="221.57" cy="128.18" r="1.6666666666666667" />
<circle cx="221.57" cy="128.18" r="1.6666666666666667" />
<circle cx="221.57" cy="128.18" r="1.6666666666666667" />
<circle cx="221.57" cy="128.18" r="1.6666666666666667" />
<circle cx="221.57" cy="128.18" r="1.6666666666666667" />
<circle cx="221.57" cy="128.18" r="1.6666666666666667" />
<circle cx="221.57" cy="128.18" r="1.6666666666666667" />
<circle cx="221.57" cy="128.18" r="1.6666666666666667" />
<circle cx="221.57" cy="128.18" r="1.6666666666666667" />
<circle cx="221.57" cy="128.18" r="1.6666666666666667" />
<circle cx="221.57" cy="128.18" r="1.6666666666666667" />
<circle cx="221.57" cy="128.18" r="1.6666666666666667" />
<circle cx="221.57" cy="128.18" r="1.6666666666666667" />
<circle cx="221.57" cy="128.18" r="1.6666666666666667" />
<circle cx="221.57" cy="128.18" r="1.6666666666666667" />
<circle cx="221.57" cy="128.18" r="1.6666666666666667" />
<circle cx="221.57" cy="128.18" r="1.6666666666666667" />
<circle cx="221.57" cy="128.18" r="1.6666666666666667" />
<circle cx="221.57" cy="128.18" r="1.6666666666666667" />
<circle cx="221.57" cy="128.18" r="1.6666666666666667" />
<circle cx="221.57" cy="128.18" r="1.6666666666666667" />
<circle cx="221.57" cy="128.18" r="1.6666666666666667" />
<circle cx="221.57" cy="128.18" r="1.6666666666666667" />
<circle cx="221.57" cy="128.18" r="1.6666666666666667" />
<circle cx="221.57" cy="128.18" r="1.6666666666666667" />
<circle cx="221.57" cy="128.18" r="1.6666666666666667" />
<circle cx="221.57" cy="128.18" r="1.6666666666666667" />
<circle cx="221.57" cy="128.18" r="1.6666666666666667" />
<circle cx="221.57" cy="128.18" r="1.6666666666666667" />
<circle cx="221.57" cy="128.18" r="1.6666666666666667" />
<circle cx="221.57" cy="128.18" r="1.6666666666666667" />
<circle cx="221.57" cy="128.18" r="1.6666666666666667" />
<circle cx="221.57" cy="128.18" r="1.6666666666666667" />
<circle cx="221.57" cy="486.14" r="1.6666666666666667" />
<circle cx="221.57" cy="128.18" r="1.6666666666666667" />
<circle cx="221.57" cy="128.18" r="1.6666666666666667" />
<circle cx="221.57" cy="128.18" r="1.6666666666666667" />
<circle cx="221.57" cy="128.18" r="1.6666666666666667" />
<circle cx="221.57" cy="128.18" r="1.6666666666666667" />
<circle cx="221.57" cy="128.18" r="1.6666666666666667" />
<circle cx="221.57" cy="128.18" r="1.6666666666666667" />
<circle cx="221.57" cy="128.18" r="1.6666666666666667" />
<circle cx="221.57" cy="128.18" r="1.6666666666666667" />
<circle cx="221.57" cy="128.18" r="1.6666666666666667" />
<circle cx="221.57" cy="486.14" r="1.6666666666666667" />
<circle cx="221.57" cy="128.18" r="1.6666666666666667" />
<circle cx="221.57" cy="128.18" r="1.6666666666666667" />
<circle cx="221.57" cy="128.18" r="1.6666666666666667" />
<circle cx="221.57" cy="128.18" r="1.6666666666666667" />
<circle cx="221.57" cy="128.18" r="1.6666666666666667" />
<circle cx="221.57" cy="128.18" r="1.6666666666666667" />
<circle cx="221.57" cy="128.18" r="1.6666666666666667" />
<circle cx="221.57" cy="128.18" r="1.6666666666666667" />
<circle cx="221.57" cy="128.18" r="1.6666666666666667" />
<circle cx="221.57" cy="128.18" r="1.6666666666666667" />
<circle cx="221.57" cy="128.18" r="1.6666666666666667" />
<circle cx="221.57" cy="128.18" r="1.6666666666666667" />
<circle cx="221.57" cy="128.18" r="1.6666666666666667" />
<circle cx="221.57" cy="128.18" r="1.6666666666666667" />
<circle cx="221.57" cy="128.18" r="1.6666666666666667" />
<circle cx="221.57" cy="128.18" r="1.6666666666666667" />
<circle cx="221.57" cy="128.18" r="1.6666666666666667" />
<circle cx="221.57" cy="128.18" r="1.6666666666666667" />
<circle cx="221.57" cy="128.18" r="1.6666666666666667" />
<circle cx="221.57" cy="128.18" r="1.6666666666666667" />
<circle cx="221.57" cy="128.18" r="1.6666666666666667" />
<circle cx="221.57" cy="128.18" r="1.6666666666666667" />
<circle cx="221.57" cy="128.18" r="1.6666666666666667" />
<circle cx="221.57" cy="128.18" r="1.6666666666666667" />
<circle cx="221.57" cy="128.18" r="1.6666666666666667" />
<circle cx="221.57" cy="128.18" r="1.6666666666666667" />
<circle cx="221.57" cy="128.18" r="1.6666666666666667" />
<circle cx="221.57" cy="128.18" r="1.6666666666666667" />
<circle cx="221.57" cy="128.18" r="1.6666666666666667" />
<circle cx="221.57" cy="128.18" r="1.6666666666666667" />
<circle cx="221.57" cy="128.18" r="1.6666666666666667" />
<circle cx="221.57" cy="128.18" r="1.6666666666666667" />
<circle cx="221.57" cy="128.18" r="1.6666666666666667" />
<circle cx="221.57" cy="128.18" r="1.6666666666666667" />
<circle cx="221.57" cy="128.18" r="1.6666666666666667" />
<circle cx="221.57" cy="128.18" r="1.6666666666666667" />
<circle cx="221.57" cy="128.18" r="1.6666666666666667" />
<circle cx="221.57" cy="128.18" r="1.6666666666666667" />
<circle cx="221.57" cy="128.18" r="1.6666666666666667" />
<circle cx="221.57" cy="128.18" r="1.6666666666666667" />
<circle cx="221.57" cy="128.18" r="1.6666666666666667" />
<circle cx="221.57" cy="128.18" r="1.6666666666666667" />
<circle cx="221.57" cy="128.18" r="1.6666666666666667" />
<circle cx="221.57" cy="128.18" r="1.6666666666666667" />
<circle cx="221.57" cy="128.18" r="1.6666666666666667" />
<circle cx="221.57" cy="128.18" r="1.6666666666666667" />
<circle cx="221.57" cy="128.18" r="1.6666666666666667" />
<circle cx="221.57" cy="128.18" r="1.6666666666666667" />
<circle cx="221.57" cy="128.18" r="1.6666666666666667" />
<circle cx="221.57" cy="128.18" r="1.6666666666666667" />
<circle cx="221.57" cy="128.18" r="1.6666666666666667" />
<circle cx="221.57" cy="128.18" r="1.6666666666666667" />
<circle cx="221.57" cy="128.18" r="1.6666666666666667" />
<circle cx="221.57" cy="128.18" r="1.6666666666666667" />
<circle cx="221.57" cy="128.18" r="1.6666666666666667" />
<circle cx="221.57" cy="128.18" r="1.6666666666666667" />
<circle cx="221.57" cy="128.18" r="1.6666666666666667" />
<circle cx="221.57" cy="128.18" r="1.6666666666666667" />
<circle cx="221.57" cy="128.18" r="1.6666666666666667" />
<circle cx="221.57" cy="128.18" r="1.6666666666666667" />
<circle cx="221.57" cy="128.18" r="1.6666666666666667" />
<circle cx="221.57" cy="128.18" r="1.6666666666666667" />
<circle cx="221.57" cy="128.18" r="1.6666666666666667" />
<circle cx="221.57" cy="128.18" r="1.6666666666666667" />
<circle cx="221.57" cy="128.18" r="1.6666666666666667" />
<circle cx="221.57" cy="128.18" r="1.6666666666666667" />
<circle cx="221.57" cy="128.18" r="1.6666666666666667" />
<circle cx="221.57" cy="128.18" r="1.6666666666666667" />
<circle cx="221.57" cy="128.18" r="1.6666666666666667" />
<circle cx="221.57" cy="128.18" r="1.6666666666666667" />
<circle cx="221.57" cy="128.18" r="1.6666666666666667" />
<circle cx="221.57" cy="128.18" r="1.6666666666666667" />
<circle cx="221.57" cy="128.18" r="1.6666666666666667" />
<circle cx="221.57" cy="128.18" r="1.6666666666666667" />
<circle cx="221.57" cy="128.18" r="1.6666666666666667" />
<circle cx="221.57" cy="128.18" r="1.6666666666666667" />
<circle cx="221.57" cy="128.18" r="1.6666666666666667" />
<circle cx="221.57" cy="128.18" r="1.6666666666666667" />
<circle cx="221.57" cy="128.18" r="1.6666666666666667" />
<circle cx="221.57" cy="128.18" r="1.6666666666666667" />
<circle cx="221.57" cy="128.18" r="1.6666666666666667" />
<circle cx="221.57" cy="128.18" r="1.6666666666666667" />
<circle cx="221.57" cy="128.18" r="1.6666666666666667" />
<circle cx="221.57" cy="128.18" r="1.6666666666666667" />
<circle cx="221.57" cy="128.18" r="1.6666666666666667" />
<circle cx="221.57" cy="128.18" r="1.6666666666666667" />
<circle cx="221.57" cy="128.18" r="1.6666666666666667" />
<circle cx="221.57" cy="128.18" r="1.6666666666666667" />
<circle cx="221.57" cy="128.18" r="1.6666666666666667" />
<circle cx="221.57" cy="128.18" r="1.6666666666666667" />
<circle cx="221.57" cy="128.18" r="1.6666666666666667" />
<circle cx="221.57" cy="128.18" r="1.6666666666666667" />
<circle cx="221.57" cy="128.18" r="1.6666666666666667" />
<circle cx="221.57" cy="128.18" r="1.6666666666666667" />
<circle cx="221.57" cy="128.18" r="1.6666666666666667" />
<circle cx="221.57" cy="486.14" r="1.6666666666666667" />
<circle cx="221.57" cy="128.18" r="1.6666666666666667" />
<circle cx="221.57" cy="128.18" r="1.6666666666666667" />
<circle cx="221.57" cy="128.18" r="1.6666666666666667" />
<circle cx="221.57" cy="128.18" r="1.6666666666666667" />
<circle cx="221.57" cy="128.18" r="1.6666666666666667" />
<circle cx="221.57" cy="128.18" r="1.6666666666666667" />
<circle cx="221.57" cy="128.18" r="1.6666666666666667" />
<circle cx="221.57" cy="128.18" r="1.6666666666666667" />
<circle cx="221.57" cy="128.18" r="1.6666666666666667" />
<circle cx="221.57" cy="128.18" r="1.6666666666666667" />
<circle cx="221.57" cy="128.18" r="1.6666666666666667" />
<circle cx="221.57" cy="128.18" r="1.6666666666666667" />
<circle cx="221.57" cy="128.18" r="1.6666666666666667" />
<circle cx="221.57" cy="128.18" r="1.6666666666666667" />
<circle cx="221.57" cy="128.18" r="1.6666666666666667" />
<circle cx="221.57" cy="128.18" r="1.6666666666666667" />
<circle cx="221.57" cy="128.18" r="1.6666666666666667" />
<circle cx="221.57" cy="128.18" r="1.6666666666666667" />
<circle cx="221.57" cy="128.18" r="1.6666666666666667" />
<circle cx="221.57" cy="128.18" r="1.6666666666666667" />
<circle cx="221.57" cy="128.18" r="1.6666666666666667" />
<circle cx="221.57" cy="128.18" r="1.6666666666666667" />
<circle cx="221.57" cy="128.18" r="1.6666666666666667" />
<circle cx="221.57" cy="128.18" r="1.6666666666666667" />
<circle cx="221.57" cy="128.18" r="1.6666666666666667" />
<circle cx="221.57" cy="128.18" r="1.6666666666666667" />
<circle cx="221.57" cy="128.18" r="1.6666666666666667" />
<circle cx="221.57" cy="128.18" r="1.6666666666666667" />
<circle cx="221.57" cy="128.18" r="1.6666666666666667" />
<circle cx="221.57" cy="128.18" r="1.6666666666666667" />
<circle cx="221.57" cy="128.18" r="1.6666666666666667" />
<circle cx="221.57" cy="128.18" r="1.6666666666666667" />
<circle cx="221.57" cy="128.18" r="1.6666666666666667" />
<circle cx="221.57" cy="128.18" r="1.6666666666666667" />
<circle cx="221.57" cy="128.18" r="1.6666666666666667" />
<circle cx="221.57" cy="128.18" r="1.6666666666666667" />
<circle cx="221.57" cy="128.18" r="1.6666666666666667" />
<circle cx="221.57" cy="128.18" r="1.6666666666666667" />
<circle cx="221.57" cy="128.18" r="1.6666666666666667" />
<circle cx="221.57" cy="319.09" r="1.6666666666666667" />
<circle cx="221.57" cy="128.18" r="1.6666666666666667" />
<circle cx="221.57" cy="128.18" r="1.6666666666666667" />
<circle cx="221.57" cy="128.18" r="1.6666666666666667" />
<circle cx="221.57" cy="128.18" r="1.6666666666666667" />
<circle cx="221.57" cy="486.14" r="1.6666666666666667" />
<circle cx="221.57" cy="128.18" r="1.6666666666666667" />
<circle cx="221.57" cy="128.18" r="1.6666666666666667" />
<circle cx="221.57" cy="128.18" r="1.6666666666666667" />
<circle cx="221.58" cy="506.59" r="1.6666666666666667" />
<circle cx="221.58" cy="128.18" r="1.6666666666666667" />
<circle cx="221.58" cy="128.18" r="1.6666666666666667" />
<circle cx="221.58" cy="128.18" r="1.6666666666666667" />
<circle cx="221.58" cy="128.18" r="1.6666666666666667" />
<circle cx="221.58" cy="128.18" r="1.6666666666666667" />
<circle cx="221.58" cy="128.18" r="1.6666666666666667" />
<circle cx="221.58" cy="128.18" r="1.6666666666666667" />
<circle cx="221.58" cy="128.18" r="1.6666666666666667" />
<circle cx="221.58" cy="128.18" r="1.6666666666666667" />
<circle cx="221.58" cy="128.18" r="1.6666666666666667" />
<circle cx="221.58" cy="128.18" r="1.6666666666666667" />
<circle cx="221.58" cy="128.18" r="1.6666666666666667" />
<circle cx="221.58" cy="128.18" r="1.6666666666666667" />
<circle cx="221.58" cy="128.18" r="1.6666666666666667" />
<circle cx="221.58" cy="128.18" r="1.6666666666666667" />
<circle cx="221.58" cy="128.18" r="1.6666666666666667" />
<circle cx="221.58" cy="128.18" r="1.6666666666666667" />
<circle cx="221.58" cy="128.18" r="1.6666666666666667" />
<circle cx="221.58" cy="128.18" r="1.6666666666666667" />
<circle cx="221.58" cy="128.18" r="1.6666666666666667" />
<circle cx="221.58" cy="128.18" r="1.6666666666666667" />
<circle cx="221.58" cy="128.18" r="1.6666666666666667" />
<circle cx="221.58" cy="128.18" r="1.6666666666666667" />
<circle cx="221.58" cy="128.18" r="1.6666666666666667" />
<circle cx="221.58" cy="128.18" r="1.6666666666666667" />
<circle cx="221.58" cy="128.18" r="1.6666666666666667" />
<circle cx="221.58" cy="128.18" r="1.6666666666666667" />
<circle cx="221.58" cy="128.18" r="1.6666666666666667" />
<circle cx="221.58" cy="128.18" r="1.6666666666666667" />
<circle cx="221.58" cy="128.18" r="1.6666666666666667" />
<circle cx="221.58" cy="128.18" r="1.6666666666666667" />
<circle cx="221.58" cy="128.18" r="1.6666666666666667" />
<circle cx="221.58" cy="128.18" r="1.6666666666666667" />
<circle cx="221.58" cy="128.18" r="1.6666666666666667" />
<circle cx="221.58" cy="128.18" r="1.6666666666666667" />
<circle cx="221.58" cy="128.18" r="1.6666666666666667" />
<circle cx="221.58" cy="128.18" r="1.6666666666666667" />
<circle cx="221.58" cy="128.18" r="1.6666666666666667" />
<circle cx="221.58" cy="128.18" r="1.6666666666666667" />
<circle cx="221.58" cy="128.18" r="1.6666666666666667" />
<circle cx="221.58" cy="128.18" r="1.6666666666666667" />
<circle cx="221.58" cy="128.18" r="1.6666666666666667" />
<circle cx="221.58" cy="128.18" r="1.6666666666666667" />
<circle cx="221.58" cy="128.18" r="1.6666666666666667" />
<circle cx="221.58" cy="128.18" r="1.6666666666666667" />
<circle cx="221.58" cy="128.18" r="1.6666666666666667" />
<circle cx="221.58" cy="128.18" r="1.6666666666666667" />
<circle cx="221.58" cy="128.18" r="1.6666666666666667" />
<circle cx="221.58" cy="128.18" r="1.6666666666666667" />
<circle cx="221.58" cy="128.18" r="1.6666666666666667" />
<circle cx="221.58" cy="128.18" r="1.6666666666666667" />
<circle cx="221.58" cy="128.18" r="1.6666666666666667" />
<circle cx="221.58" cy="128.18" r="1.6666666666666667" />
<circle cx="221.58" cy="128.18" r="1.6666666666666667" />
<circle cx="221.58" cy="128.18" r="1.6666666666666667" />
<circle cx="221.58" cy="128.18" r="1.6666666666666667" />
<circle cx="221.58" cy="128.18" r="1.6666666666666667" />
<circle cx="221.58" cy="128.18" r="1.6666666666666667" />
<circle cx="221.58" cy="128.18" r="1.6666666666666667" />
<circle cx="221.58" cy="128.18" r="1.6666666666666667" />
<circle cx="221.58" cy="128.18" r="1.6666666666666667" />
<circle cx="221.58" cy="128.18" r="1.6666666666666667" />
<circle cx="221.58" cy="128.18" r="1.6666666666666667" />
<circle cx="221.58" cy="128.18" r="1.6666666666666667" />
<circle cx="221.58" cy="128.18" r="1.6666666666666667" />
<circle cx="221.58" cy="128.18" r="1.6666666666666667" />
<circle cx="221.58" cy="128.18" r="1.6666666666666667" />
<circle cx="221.58" cy="128.18" r="1.6666666666666667" />
<circle cx="221.58" cy="128.18" r="1.6666666666666667" />
<circle cx="221.58" cy="128.18" r="1.6666666666666667" />
<circle cx="221.58" cy="128.18" r="1.6666666666666667" />
<circle cx="221.58" cy="128.18" r="1.6666666666666667" />
<circle cx="221.58" cy="128.18" r="1.6666666666666667" />
<circle cx="221.58" cy="128.18" r="1.6666666666666667" />
<circle cx="221.58" cy="128.18" r="1.6666666666666667" />
<circle cx="221.58" cy="128.18" r="1.6666666666666667" />
<circle cx="221.58" cy="128.18" r="1.6666666666666667" />
<circle cx="221.58" cy="128.18" r="1.6666666666666667" />
<circle cx="221.58" cy="128.18" r="1.6666666666666667" />
<circle cx="221.58" cy="128.18" r="1.6666666666666667" />
<circle cx="221.58" cy="128.18" r="1.6666666666666667" />
<circle cx="221.58" cy="128.18" r="1.6666666666666667" />
<circle cx="221.58" cy="128.18" r="1.6666666666666667" />
<circle cx="221.58" cy="128.18" r="1.6666666666666667" />
<circle cx="221.58" cy="128.18" r="1.6666666666666667" />
<circle cx="221.58" cy="128.18" r="1.6666666666666667" />
<circle cx="221.58" cy="128.18" r="1.6666666666666667" />
<circle cx="221.58" cy="128.18" r="1.6666666666666667" />
<circle cx="221.58" cy="128.18" r="1.6666666666666667" />
<circle cx="221.58" cy="128.18" r="1.6666666666666667" />
<circle cx="221.58" cy="128.18" r="1.6666666666666667" />
<circle cx="221.58" cy="128.18" r="1.6666666666666667" />
<circle cx="221.58" cy="128.18" r="1.6666666666666667" />
<circle cx="221.58" cy="128.18" r="1.6666666666666667" />
<circle cx="221.58" cy="128.18" r="1.6666666666666667" />
<circle cx="221.58" cy="128.18" r="1.6666666666666667" />
<circle cx="221.58" cy="128.18" r="1.6666666666666667" />
<circle cx="221.58" cy="128.18" r="1.6666666666666667" />
<circle cx="221.58" cy="128.18" r="1.6666666666666667" />
<circle cx="221.58" cy="128.18" r="1.6666666666666667" />
<circle cx="221.58" cy="128.18" r="1.6666666666666667" />
<circle cx="221.58" cy="128.18" r="1.6666666666666667" />
<circle cx="221.58" cy="128.18" r="1.6666666666666667" />
<circle cx="221.58" cy="128.18" r="1.6666666666666667" />
<circle cx="221.58" cy="128.18" r="1.6666666666666667" />
<circle cx="221.58" cy="128.18" r="1.6666666666666667" />
<circle cx="221.58" cy="128.18" r="1.6666666666666667" />
<circle cx="221.58" cy="128.18" r="1.6666666666666667" />
<circle cx="221.58" cy="128.18" r="1.6666666666666667" />
<circle cx="221.58" cy="128.18" r="1.6666666666666667" />
<circle cx="221.58" cy="128.18" r="1.6666666666666667" />
<circle cx="221.58" cy="128.18" r="1.6666666666666667" />
<circle cx="221.58" cy="128.18" r="1.6666666666666667" />
<circle cx="221.58" cy="128.18" r="1.6666666666666667" />
<circle cx="221.58" cy="128.18" r="1.6666666666666667" />
<circle cx="221.58" cy="128.18" r="1.6666666666666667" />
<circle cx="221.58" cy="128.18" r="1.6666666666666667" />
<circle cx="221.58" cy="128.18" r="1.6666666666666667" />
<circle cx="221.58" cy="128.18" r="1.6666666666666667" />
<circle cx="221.58" cy="128.18" r="1.6666666666666667" />
<circle cx="221.58" cy="128.18" r="1.6666666666666667" />
<circle cx="221.58" cy="128.18" r="1.6666666666666667" />
<circle cx="221.58" cy="128.18" r="1.6666666666666667" />
<circle cx="221.58" cy="128.18" r="1.6666666666666667" />
<circle cx="221.58" cy="128.18" r="1.6666666666666667" />
<circle cx="221.58" cy="128.18" r="1.6666666666666667" />
<circle cx="221.58" cy="128.18" r="1.6666666666666667" />
<circle cx="221.58" cy="128.18" r="1.6666666666666667" />
<circle cx="221.58" cy="128.18" r="1.6666666666666667" />
<circle cx="221.58" cy="128.18" r="1.6666666666666667" />
<circle cx="221.58" cy="128.18" r="1.6666666666666667" />
<circle cx="221.58" cy="128.18" r="1.6666666666666667" />
<circle cx="221.58" cy="128.18" r="1.6666666666666667" />
<circle cx="221.58" cy="128.18" r="1.6666666666666667" />
<circle cx="221.58" cy="128.18" r="1.6666666666666667" />
<circle cx="221.58" cy="128.18" r="1.6666666666666667" />
<circle cx="221.58" cy="128.18" r="1.6666666666666667" />
<circle cx="221.58" cy="128.18" r="1.6666666666666667" />
<circle cx="221.58" cy="128.18" r="1.6666666666666667" />
<circle cx="221.58" cy="128.18" r="1.6666666666666667" />
<circle cx="221.58" cy="128.18" r="1.6666666666666667" />
<circle cx="221.58" cy="128.18" r="1.6666666666666667" />
<circle cx="221.58" cy="128.18" r="1.6666666666666667" />
<circle cx="221.58" cy="128.18" r="1.6666666666666667" />
<circle cx="221.58" cy="128.18" r="1.6666666666666667" />
<circle cx="221.58" cy="128.18" r="1.6666666666666667" />
<circle cx="221.58" cy="128.18" r="1.6666666666666667" />
<circle cx="221.58" cy="128.18" r="1.6666666666666667" />
<circle cx="221.58" cy="128.18" r="1.6666666666666667" />
<circle cx="221.58" cy="128.18" r="1.6666666666666667" />
<circle cx="221.58" cy="128.18" r="1.6666666666666667" />
<circle cx="221.58" cy="128.18" r="1.6666666666666667" />
<circle cx="221.58" cy="128.18" r="1.6666666666666667" />
<circle cx="221.58" cy="128.18" r="1.6666666666666667" />
<circle cx="221.58" cy="128.18" r="1.6666666666666667" />
<circle cx="221.58" cy="128.18" r="1.6666666666666667" />
<circle cx="221.58" cy="128.18" r="1.6666666666666667" />
<circle cx="221.58" cy="128.18" r="1.6666666666666667" />
<circle cx="221.58" cy="128.18" r="1.6666666666666667" />
<circle cx="221.58" cy="128.18" r="1.6666666666666667" />
<circle cx="221.58" cy="128.18" r="1.6666666666666667" />
<circle cx="221.58" cy="128.18" r="1.6666666666666667" />
<circle cx="221.58" cy="128.18" r="1.6666666666666667" />
<circle cx="221.58" cy="128.18" r="1.6666666666666667" />
<circle cx="221.58" cy="128.18" r="1.6666666666666667" />
<circle cx="221.58" cy="128.18" r="1.6666666666666667" />
<circle cx="221.58" cy="128.18" r="1.6666666666666667" />
<circle cx="221.58" cy="128.18" r="1.6666666666666667" />
<circle cx="221.58" cy="128.18" r="1.6666666666666667" />
<circle cx="221.58" cy="128.18" r="1.6666666666666667" />
<circle cx="221.58" cy="128.18" r="1.6666666666666667" />
<circle cx="221.58" cy="128.18" r="1.6666666666666667" />
<circle cx="221.58" cy="128.18" r="1.6666666666666667" />
<circle cx="221.58" cy="128.18" r="1.6666666666666667" />
<circle cx="221.58" cy="128.18" r="1.6666666666666667" />
<circle cx="221.58" cy="128.18" r="1.6666666666666667" />
<circle cx="221.58" cy="128.18" r="1.6666666666666667" />
<circle cx="221.58" cy="128.18" r="1.6666666666666667" />
<circle cx="221.58" cy="128.18" r="1.6666666666666667" />
<circle cx="221.58" cy="128.18" r="1.6666666666666667" />
<circle cx="221.58" cy="128.18" r="1.6666666666666667" />
<circle cx="221.58" cy="128.18" r="1.6666666666666667" />
<circle cx="221.58" cy="128.18" r="1.6666666666666667" />
<circle cx="221.58" cy="128.18" r="1.6666666666666667" />
<circle cx="221.58" cy="128.18" r="1.6666666666666667" />
<circle cx="221.58" cy="128.18" r="1.6666666666666667" />
<circle cx="221.58" cy="486.14" r="1.6666666666666667" />
<circle cx="221.58" cy="128.18" r="1.6666666666666667" />
<circle cx="221.58" cy="128.18" r="1.6666666666666667" />
<circle cx="221.58" cy="128.18" r="1.6666666666666667" />
<circle cx="221.58" cy="128.18" r="1.6666666666666667" />
<circle cx="221.58" cy="128.18" r="1.6666666666666667" />
<circle cx="221.58" cy="128.18" r="1.6666666666666667" />
<circle cx="221.58" cy="128.18" r="1.6666666666666667" />
<circle cx="221.58" cy="128.18" r="1.6666666666666667" />
<circle cx="221.58" cy="128.18" r="1.6666666666666667" />
<circle cx="221.58" cy="128.18" r="1.6666666666666667" />
<circle cx="221.58" cy="128.18" r="1.6666666666666667" />
<circle cx="221.58" cy="128.18" r="1.6666666666666667" />
<circle cx="221.58" cy="128.18" r="1.6666666666666667" />
<circle cx="221.58" cy="128.18" r="1.6666666666666667" />
<circle cx="221.61" cy="509.73" r="1.6666666666666667" />
<circle cx="221.61" cy="497.27" r="1.6666666666666667" />
<circle cx="221.61" cy="504.21" r="1.6666666666666667" />
<circle cx="221.61" cy="507.85" r="1.6666666666666667" />
<circle cx="221.63" cy="509.65" r="1.6666666666666667" />
<circle cx="221.63" cy="482.73" r="1.6666666666666667" />
<circle cx="221.64" cy="382.73" r="1.6666666666666667" />
<circle cx="221.64" cy="128.18" r="1.6666666666666667" />
<circle cx="221.64" cy="462.27" r="1.6666666666666667" />
<circle cx="221.64" cy="508.92" r="1.6666666666666667" />
<circle cx="221.96" cy="509.98" r="1.6666666666666667" />
<circle cx="222.19" cy="509.97" r="1.6666666666666667" />
<circle cx="222.43" cy="509.97" r="1.6666666666666667" />
<circle cx="222.66" cy="509.97" r="1.6666666666666667" />
<circle cx="222.88" cy="509.97" r="1.6666666666666667" />
<circle cx="223.11" cy="509.97" r="1.6666666666666667" />
<circle cx="223.32" cy="509.96" r="1.6666666666666667" />
<circle cx="223.55" cy="509.97" r="1.6666666666666667" />
<circle cx="223.78" cy="509.97" r="1.6666666666666667" />
<circle cx="224.00" cy="509.97" r="1.6666666666666667" />
<circle cx="224.23" cy="509.97" r="1.6666666666666667" />
<circle cx="224.46" cy="509.97" r="1.6666666666666667" />
<circle cx="224.69" cy="509.97" r="1.6666666666666667" />
<circle cx="224.93" cy="509.97" r="1.6666666666666667" />
<circle cx="225.16" cy="509.97" r="1.6666666666666667" />
<circle cx="225.40" cy="509.97" r="1.6666666666666667" />
<circle cx="225.62" cy="509.97" r="1.6666666666666667" />
<circle cx="225.85" cy="509.97" r="1.6666666666666667" />
<circle cx="226.09" cy="509.97" r="1.6666666666666667" />
<circle cx="226.32" cy="509.97" r="1.6666666666666667" />
<circle cx="226.56" cy="509.97" r="1.6666666666666667" />
<circle cx="226.79" cy="509.97" r="1.6666666666666667" />
<circle cx="227.02" cy="509.97" r="1.6666666666666667" />
<circle cx="227.27" cy="509.97" r="1.6666666666666667" />
<circle cx="227.50" cy="509.97" r="1.6666666666666667" />
<circle cx="227.75" cy="509.97" r="1.6666666666666667" />
<circle cx="227.97" cy="509.97" r="1.6666666666666667" />
<circle cx="228.21" cy="509.97" r="1.6666666666666667" />
<circle cx="228.45" cy="509.97" r="1.6666666666666667" />
<circle cx="228.70" cy="509.97" r="1.6666666666666667" />
<circle cx="228.95" cy="509.97" r="1.6666666666666667" />
<circle cx="229.19" cy="509.97" r="1.6666666666666667" />
<circle cx="229.43" cy="509.97" r="1.6666666666666667" />
<circle cx="229.67" cy="509.97" r="1.6666666666666667" />
<circle cx="229.92" cy="509.97" r="1.6666666666666667" />
<circle cx="230.16" cy="509.97" r="1.6666666666666667" />
<circle cx="230.40" cy="509.97" r="1.6666666666666667" />
<circle cx="230.65" cy="509.97" r="1.6666666666666667" />
<circle cx="230.89" cy="509.97" r="1.6666666666666667" />
<circle cx="231.14" cy="509.97" r="1.6666666666666667" />
<circle cx="231.38" cy="509.97" r="1.6666666666666667" />
<circle cx="231.64" cy="509.97" r="1.6666666666666667" />
<circle cx="231.90" cy="509.97" r="1.6666666666666667" />
<circle cx="232.16" cy="509.97" r="1.6666666666666667" />
<circle cx="232.41" cy="509.97" r="1.6666666666666667" />
<circle cx="232.66" cy="509.97" r="1.6666666666666667" />
<circle cx="232.91" cy="509.97" r="1.6666666666666667" />
<circle cx="233.17" cy="509.97" r="1.6666666666666667" />
<circle cx="233.44" cy="509.97" r="1.6666666666666667" />
<circle cx="233.71" cy="509.97" r="1.6666666666666667" />
<circle cx="233.98" cy="509.97" r="1.6666666666666667" />
<circle cx="234.24" cy="509.97" r="1.6666666666666667" />
<circle cx="234.52" cy="509.97" r="1.6666666666666667" />
<circle cx="234.80" cy="509.97" r="1.6666666666666667" />
<circle cx="235.07" cy="509.97" r="1.6666666666666667" />
<circle cx="235.34" cy="509.97" r="1.6666666666666667" />
<circle cx="235.60" cy="509.97" r="1.6666666666666667" />
<circle cx="235.87" cy="509.97" r="1.6666666666666667" />
<circle cx="236.15" cy="509.97" r="1.6666666666666667" />
<circle cx="236.42" cy="509.97" r="1.6666666666666667" />
<circle cx="236.68" cy="509.97" r="1.6666666666666667" />
<circle cx="236.96" cy="509.97" r="1.6666666666666667" />
<circle cx="237.23" cy="509.97" r="1.6666666666666667" />
<circle cx="237.50" cy="509.97" r="1.6666666666666667" />
<circle cx="237.77" cy="509.97" r="1.6666666666666667" />
<circle cx="238.03" cy="509.97" r="1.6666666666666667" />
<circle cx="238.31" cy="509.97" r="1.6666666666666667" />
<circle cx="238.58" cy="509.97" r="1.6666666666666667" />
<circle cx="238.84" cy="509.97" r="1.6666666666666667" />
<circle cx="239.11" cy="509.97" r="1.6666666666666667" />
<circle cx="239.38" cy="509.97" r="1.6666666666666667" />
<circle cx="239.65" cy="509.97" r="1.6666666666666667" />
<circle cx="239.93" cy="509.97" r="1.6666666666666667" />
<circle cx="240.19" cy="509.97" r="1.6666666666666667" />
<circle cx="240.45" cy="509.97" r="1.6666666666666667" />
<circle cx="240.73" cy="509.97" r="1.6666666666666667" />
<circle cx="241.01" cy="509.97" r="1.6666666666666667" />
<circle cx="241.28" cy="509.97" r="1.6666666666666667" />
<circle cx="241.55" cy="509.97" r="1.6666666666666667" />
<circle cx="241.84" cy="509.97" r="1.6666666666666667" />
<circle cx="242.12" cy="509.97" r="1.6666666666666667" />
<circle cx="242.39" cy="509.97" r="1.6666666666666667" />
<circle cx="242.68" cy="509.97" r="1.6666666666666667" />
<circle cx="242.96" cy="509.97" r="1.6666666666666667" />
<circle cx="243.23" cy="509.97" r="1.6666666666666667" />
<circle cx="243.51" cy="509.97" r="1.6666666666666667" />
<circle cx="243.79" cy="509.97" r="1.6666666666666667" />
<circle cx="244.07" cy="509.97" r="1.6666666666666667" />
<circle cx="244.35" cy="509.97" r="1.6666666666666667" />
<circle cx="244.62" cy="509.97" r="1.6666666666666667" />
<circle cx="244.90" cy="509.97" r="1.6666666666666667" />
<circle cx="245.19" cy="509.97" r="1.6666666666666667" />
<circle cx="245.47" cy="509.97" r="1.6666666666666667" />
<circle cx="245.75" cy="509.97" r="1.6666666666666667" />
<circle cx="246.03" cy="509.97" r="1.6666666666666667" />
<circle cx="246.31" cy="509.97" r="1.6666666666666667" />
<circle cx="246.60" cy="509.97" r="1.6666666666666667" />
<circle cx="246.89" cy="509.97" r="1.6666666666666667" />
<circle cx="247.19" cy="509.97" r="1.6666666666666667" />
<circle cx="247.47" cy="509.97" r="1.6666666666666667" />
<circle cx="247.76" cy="509.97" r="1.6666666666666667" />
<circle cx="248.05" cy="509.97" r="1.6666666666666667" />
<circle cx="248.33" cy="509.97" r="1.6666666666666667" />
<circle cx="248.62" cy="509.97" r="1.6666666666666667" />
<circle cx="248.91" cy="509.97" r="1.6666666666666667" />
<circle cx="249.20" cy="509.97" r="1.6666666666666667" />
<circle cx="249.49" cy="509.97" r="1.6666666666666667" />
<circle cx="249.78" cy="509.97" r="1.6666666666666667" />
<circle cx="249.96" cy="509.96" r="1.6666666666666667" />
<circle cx="250.14" cy="509.96" r="1.6666666666666667" />
<circle cx="250.33" cy="509.96" r="1.6666666666666667" />
<circle cx="250.50" cy="509.95" r="1.6666666666666667" />
<circle cx="250.66" cy="509.95" r="1.6666666666666667" />
<circle cx="250.82" cy="509.95" r="1.6666666666666667" />
<circle cx="250.91" cy="509.91" r="1.6666666666666667" />
<circle cx="250.93" cy="509.49" r="1.6666666666666667" />
<circle cx="250.95" cy="509.67" r="1.6666666666666667" />
<circle cx="251.15" cy="509.96" r="1.6666666666666667" />
<circle cx="251.20" cy="509.86" r="1.6666666666666667" />
</g>
<g stroke="black">
<line x1="813.75" x2="813.75" y1="510.00" y2="520.00" />
<line x1="760.60" x2="760.60" y1="510.00" y2="520.00" />
<line x1="707.45" x2="707.45" y1="510.00" y2="520.00" />
<line x1="656.01" x2="656.01" y1="510.00" y2="520.00" />
<line x1="602.86" x2="602.86" y1="510.00" y2="520.00" />
<line x1="551.42" x2="551.42" y1="510.00" y2="520.00" />
<line x1="498.27" x2="498.27" y1="510.00" y2="520.00" />
<line x1="445.11" x2="445.11" y1="510.00" y2="520.00" />
<line x1="393.68" x2="393.68" y1="510.00" y2="520.00" />
<line x1="340.52" x2="340.52" y1="510.00" y2="520.00" />
<line x1="289.09" x2="289.09" y1="510.00" y2="520.00" />
<line x1="235.93" x2="235.93" y1="510.00" y2="520.00" />
<line x1="187.92" x2="187.92" y1="510.00" y2="520.00" />
<g fill="black" font-family="Arial, sans-serif" font-size="18.0" stroke="none" text-anchor="start" transform="translate(9.0 0.0)">
<text x="813.75" y="530.57">Feb</text>
<text x="760.60" y="530.57">Jan</text>
<text x="707.45" y="530.57">Dec</text>
<text x="656.01" y="530.57">Nov</text>
<text x="602.86" y="530.57">Oct</text>
<text x="551.42" y="530.57">Sep</text>
<text x="498.27" y="530.57">Aug</text>
<text x="445.11" y="530.57">Jul</text>
<text x="393.68" y="530.57">Jun</text>
<text x="340.52" y="530.57">May</text>
<text x="289.09" y="530.57">Apr</text>
<text x="235.93" y="530.57">Mar</text>
<text x="187.92" y="530.57">Feb</text>
</g>
<line x1="150.00" x2="850.00" y1="510.00" y2="510.00" />
</g>
<g stroke="black">
<line x1="150.00" x2="140.00" y1="510.00" y2="510.00" />
<line x1="150.00" x2="140.00" y1="465.81" y2="465.81" />
<line x1="150.00" x2="140.00" y1="421.62" y2="421.62" />
<line x1="150.00" x2="140.00" y1="377.42" y2="377.42" />
<line x1="150.00" x2="140.00" y1="333.23" y2="333.23" />
<line x1="150.00" x2="140.00" y1="289.04" y2="289.04" />
<line x1="150.00" x2="140.00" y1="244.85" y2="244.85" />
<line x1="150.00" x2="140.00" y1="200.66" y2="200.66" />
<line x1="150.00" x2="140.00" y1="156.46" y2="156.46" />
<line x1="150.00" x2="140.00" y1="112.27" y2="112.27" />
<g fill="black" font-family="Arial, sans-serif" font-size="18.0" stroke="none" text-anchor="end">
<text x="141.00" y="501.00">0</text>
<text x="141.00" y="456.81">10000</text>
<text x="141.00" y="412.62">20000</text>
<text x="141.00" y="368.42">30000</text>
<text x="141.00" y="324.23">40000</text>
<text x="141.00" y="280.04">50000</text>
<text x="141.00" y="235.85">60000</text>
<text x="141.00" y="191.66">70000</text>
<text x="141.00" y="147.46">80000</text>
<text x="141.00" y="103.27">90000</text>
</g>
<line x1="150.00" x2="150.00" y1="510.00" y2="90.00" />
</g>
</g>
</svg>