<?xml version="1.0"?>
<svg version="1.1" viewBox="0 0 1000 600" xmlns:xlink="http://www.w3.org/1999/xlink" xmlns="http://www.w3.org/2000/svg">
<g>
<g stroke-dasharray="3.6 7.2" stroke-width="0.72" stroke="#caa">
<line x1="828.41" x2="828.41" y1="510.00" y2="90.00" />
<line x1="785.75" x2="785.75" y1="510.00" y2="90.00" />
<line x1="741.68" x2="741.68" y1="510.00" y2="90.00" />
<line x1="700.44" x2="700.44" y1="510.00" y2="90.00" />
<line x1="656.36" x2="656.36" y1="510.00" y2="90.00" />
<line x1="612.28" x2="612.28" y1="510.00" y2="90.00" />
<line x1="569.63" x2="569.63" y1="510.00" y2="90.00" />
<line x1="525.55" x2="525.55" y1="510.00" y2="90.00" />
<line x1="482.89" x2="482.89" y1="510.00" y2="90.00" />
<line x1="438.81" x2="438.81" y1="510.00" y2="90.00" />
<line x1="394.73" x2="394.73" y1="510.00" y2="90.00" />
<line x1="352.08" x2="352.08" y1="510.00" y2="90.00" />
<line x1="308.00" x2="308.00" y1="510.00" y2="90.00" />
<line x1="265.34" x2="265.34" y1="510.00" y2="90.00" />
<line x1="221.26" x2="221.26" y1="510.00" y2="90.00" />
<line x1="181.45" x2="181.45" y1="510.00" y2="90.00" />
<line x1="150.00" x2="850.00" y1="510.00" y2="510.00" />
<line x1="150.00" x2="850.00" y1="216.29" y2="216.29" />
</g>
<g>
<text dominant-baseline="hanging" dx="-36.0" dy="18.0" fill="#0004" font-family="Arial, sans-serif" font-size="36" stroke="none" text-anchor="end" x="850.00" y="128.18">FR3</text>
</g>
<g>
<text dominant-baseline="text-bottom" dy="-12.0" fill="black" font-family="Arial, sans-serif" font-size="18.0" font-style="italic" stroke="none" text-anchor="middle" x="500.00" y="90.00">Years 2023 to 2024</text>
</g>
<g>
<text dominant-baseline="central" dx="12.0" dy="12.0" fill="black" font-family="Arial, sans-serif" font-size="18.0" font-style="italic" stroke="none" text-anchor="middle" text-orientation="sideways" writing-mode="vertical-lr" x="850.00" y="300.00">log(Drips per day)</text>
</g>
<polyline fill="none" points="150.23,456.21 150.46,456.65 150.69,456.52 150.92,457.04 151.16,457.14 151.39,456.37 151.62,456.65 151.85,456.35 152.08,457.12 152.12,405.31 209.30,384.00 209.30,257.58 209.31,261.04 209.31,272.95 209.31,259.36 209.35,405.51 209.35,237.23 209.35,216.87 209.35,196.51 209.35,176.15 209.35,176.15 209.35,176.15 209.35,176.15 209.35,176.15 209.35,176.15 209.35,176.15 209.35,176.15 209.35,176.15 209.35,176.15 209.35,176.15 209.35,176.15 209.35,176.15 209.35,176.15 209.35,176.15 209.35,176.15 209.35,176.15 209.35,176.15 209.35,176.15 209.35,176.15 209.35,176.15 209.35,176.15 209.35,176.15 209.35,176.15 209.35,176.15 209.35,176.15 209.35,176.15 209.35,176.15 209.35,176.15 209.35,176.15 209.35,176.15 209.35,176.15 209.35,176.15 209.35,176.15 209.35,176.15 209.35,176.15 209.35,176.15 209.35,176.15 209.35,176.15 209.35,176.15 209.35,176.15 209.35,176.15 209.35,176.15 209.35,176.15 209.35,176.15 209.35,176.15 209.35,176.15 209.35,176.15 209.35,176.15 209.35,176.15 209.35,176.15 209.35,176.15 209.35,176.15 209.35,176.15 209.35,176.15 209.35,176.15 209.35,176.15 209.35,176.15 209.35,176.15 209.35,176.15 209.35,176.15 209.35,176.15 209.35,176.15 209.35,176.15 209.35,176.15 209.35,176.15 209.35,176.15 209.35,176.15 209.35,196.51 209.35,176.15 209.35,176.15 209.35,176.15 209.35,176.15 209.35,176.15 209.35,176.15 209.35,176.15 209.35,176.15 209.35,176.15 209.35,176.15 209.35,176.15 209.35,176.15 209.35,176.15 209.35,176.15 209.35,176.15 209.35,176.15 209.35,176.15 209.35,176.15 209.35,176.15 209.35,176.15 209.35,176.15 209.35,176.15 209.35,176.15 209.35,176.15 209.35,176.15 209.35,176.15 209.35,176.15 209.35,176.15 209.35,176.15 209.35,176.15 209.35,176.15 209.35,176.15 209.35,176.15 209.35,176.15 209.35,176.15 209.35,176.15 209.35,176.15 209.35,176.15 209.35,176.15 209.35,176.15 209.35,176.15 209.35,176.15 209.35,176.15 209.35,176.15 209.35,176.15 209.35,176.15 209.35,176.15 209.35,176.15 209.35,176.15 209.35,176.15 209.35,176.15 209.35,176.15 209.35,176.15 209.35,176.15 209.35,176.15 209.35,176.15 209.35,176.15 209.35,176.15 209.35,176.15 209.35,176.15 209.35,176.15 209.35,257.58 209.35,176.15 209.35,176.15 209.35,176.15 209.35,176.15 209.35,176.15 209.35,176.15 209.35,176.15 209.35,176.15 209.35,176.15 209.35,176.15 209.35,176.15 209.35,176.15 209.35,176.15 209.35,176.15 209.35,176.15 209.35,176.15 209.35,176.15 209.35,176.15 209.35,176.15 209.35,176.15 209.35,176.15 209.35,176.15 209.35,176.15 209.35,176.15 209.35,176.15 209.35,176.15 209.35,176.15 209.35,176.15 209.35,176.15 209.35,176.15 209.35,176.15 209.35,176.15 209.35,176.15 209.35,176.15 209.35,176.15 209.35,176.15 209.35,176.15 209.35,176.15 209.35,176.15 209.35,176.15 209.35,176.15 209.35,176.15 209.35,176.15 209.35,176.15 209.35,176.15 209.35,176.15 209.35,176.15 209.35,176.15 209.35,176.15 209.35,176.15 209.35,176.15 209.35,176.15 209.35,176.15 209.35,176.15 209.35,176.15 209.35,176.15 209.35,176.15 209.35,176.15 209.35,176.15 209.35,176.15 209.35,176.15 209.35,176.15 209.35,176.15 209.35,176.15 209.35,176.15 209.35,176.15 209.35,176.15 209.35,176.15 209.35,176.15 209.35,176.15 209.35,176.15 209.35,176.15 209.35,176.15 209.35,176.15 209.35,176.15 209.35,176.15 209.35,176.15 209.35,176.15 209.35,176.15 209.35,176.15 209.35,176.15 209.35,176.15 209.35,176.15 209.35,176.15 209.35,176.15 209.35,176.15 209.35,176.15 209.35,176.15 209.35,176.15 209.35,176.15 209.35,176.15 209.35,176.15 209.35,176.15 209.35,176.15 209.35,176.15 209.35,176.15 209.35,176.15 209.35,176.15 209.35,176.15 209.35,176.15 209.35,176.15 209.35,176.15 209.35,176.15 209.35,176.15 209.35,176.15 209.35,176.15 209.35,176.15 209.35,176.15 209.35,176.15 209.35,176.15 209.35,176.15 209.35,176.15 209.35,176.15 209.35,176.15 209.35,176.15 209.35,176.15 209.35,176.15 209.35,176.15 209.35,176.15 209.35,176.15 209.35,176.15 209.35,176.15 209.35,176.15 209.35,176.15 209.35,176.15 209.35,176.15 209.35,176.15 209.35,176.15 209.35,176.15 209.35,176.15 209.35,176.15 209.35,176.15 209.35,176.15 209.35,176.15 209.35,176.15 209.35,176.15 209.35,176.15 209.35,257.58 209.35,176.15 209.35,176.15 209.35,176.15 209.35,176.15 209.35,176.15 209.35,176.15 209.35,176.15 209.35,176.15 209.35,176.15 209.35,176.15 209.35,257.58 209.35,176.15 209.35,176.15 209.35,176.15 209.35,176.15 209.35,176.15 209.35,176.15 209.35,176.15 209.35,176.15 209.35,176.15 209.35,176.15 209.35,176.15 209.35,176.15 209.35,176.15 209.35,176.15 209.35,176.15 209.35,176.15 209.35,176.15 209.35,176.15 209.35,176.15 209.35,176.15 209.35,176.15 209.35,176.15 209.35,176.15 209.35,176.15 209.35,176.15 209.35,176.15 209.35,176.15 209.35,176.15 209.35,176.15 209.35,176.15 209.35,176.15 209.35,176.15 209.35,176.15 209.35,176.15 209.35,176.15 209.35,176.15 209.35,176.15 209.35,176.15 209.35,176.15 209.35,176.15 209.35,176.15 209.35,176.15 209.35,176.15 209.35,176.15 209.35,176.15 209.35,176.15 209.35,176.15 209.35,176.15 209.35,176.15 209.35,176.15 209.35,176.15 209.35,176.15 209.35,176.15 209.35,176.15 209.35,176.15 209.35,176.15 209.35,176.15 209.35,176.15 209.35,176.15 209.35,176.15 209.35,176.15 209.35,176.15 209.35,176.15 209.35,176.15 209.35,176.15 209.35,176.15 209.35,176.15 209.35,176.15 209.35,176.15 209.35,176.15 209.35,176.15 209.35,176.15 209.35,176.15 209.35,176.15 209.35,176.15 209.35,176.15 209.35,176.15 209.35,176.15 209.35,176.15 209.35,176.15 209.35,176.15 209.35,176.15 209.35,176.15 209.35,176.15 209.35,176.15 209.35,176.15 209.35,176.15 209.35,176.15 209.35,176.15 209.35,176.15 209.35,176.15 209.35,176.15 209.35,176.15 209.35,176.15 209.35,176.15 209.35,257.58 209.35,176.15 209.35,176.15 209.35,176.15 209.35,176.15 209.35,176.15 209.35,176.15 209.35,176.15 209.35,176.15 209.35,176.15 209.35,176.15 209.35,176.15 209.35,176.15 209.35,176.15 209.35,176.15 209.35,176.15 209.35,176.15 209.35,176.15 209.35,176.15 209.35,176.15 209.35,176.15 209.35,176.15 209.35,176.15 209.35,176.15 209.35,176.15 209.35,176.15 209.35,176.15 209.35,176.15 209.35,176.15 209.35,176.15 209.35,176.15 209.35,176.15 209.35,176.15 209.35,176.15 209.35,176.15 209.35,176.15 209.35,176.15 209.35,176.15 209.35,176.15 209.35,176.15 209.35,196.51 209.35,176.15 209.35,176.15 209.35,176.15 209.35,176.15 209.35,257.58 209.35,176.15 209.35,176.15 209.35,176.15 209.36,314.74 209.36,176.15 209.36,176.15 209.36,176.15 209.36,176.15 209.36,176.15 209.36,176.15 209.36,176.15 209.36,176.15 209.36,176.15 209.36,176.15 209.36,176.15 209.36,176.15 209.36,176.15 209.36,176.15 209.36,176.15 209.36,176.15 209.36,176.15 209.36,176.15 209.36,176.15 209.36,176.15 209.36,176.15 209.36,176.15 209.36,176.15 209.36,176.15 209.36,176.15 209.36,176.15 209.36,176.15 209.36,176.15 209.36,176.15 209.36,176.15 209.36,176.15 209.36,176.15 209.36,176.15 209.36,176.15 209.36,176.15 209.36,176.15 209.36,176.15 209.36,176.15 209.36,176.15 209.36,176.15 209.36,176.15 209.36,176.15 209.36,176.15 209.36,176.15 209.36,176.15 209.36,176.15 209.36,176.15 209.36,176.15 209.36,176.15 209.36,176.15 209.36,176.15 209.36,176.15 209.36,176.15 209.36,176.15 209.36,176.15 209.36,176.15 209.36,176.15 209.36,176.15 209.36,176.15 209.36,176.15 209.36,176.15 209.36,176.15 209.36,176.15 209.36,176.15 209.36,176.15 209.36,176.15 209.36,176.15 209.36,176.15 209.36,176.15 209.36,176.15 209.36,176.15 209.36,176.15 209.36,176.15 209.36,176.15 209.36,176.15 209.36,176.15 209.36,176.15 209.36,176.15 209.36,176.15 209.36,176.15 209.36,176.15 209.36,176.15 209.36,176.15 209.36,176.15 209.36,176.15 209.36,176.15 209.36,176.15 209.36,176.15 209.36,176.15 209.36,176.15 209.36,176.15 209.36,176.15 209.36,176.15 209.36,176.15 209.36,176.15 209.36,176.15 209.36,176.15 209.36,176.15 209.36,176.15 209.36,176.15 209.36,176.15 209.36,176.15 209.36,176.15 209.36,176.15 209.36,176.15 209.36,176.15 209.36,176.15 209.36,176.15 209.36,176.15 209.36,176.15 209.36,176.15 209.36,176.15 209.36,176.15 209.36,176.15 209.36,176.15 209.36,176.15 209.36,176.15 209.36,176.15 209.36,176.15 209.36,176.15 209.36,176.15 209.36,176.15 209.36,176.15 209.36,176.15 209.36,176.15 209.36,176.15 209.36,176.15 209.36,176.15 209.36,176.15 209.36,176.15 209.36,176.15 209.36,176.15 209.36,176.15 209.36,176.15 209.36,176.15 209.36,176.15 209.36,176.15 209.36,176.15 209.36,176.15 209.36,176.15 209.36,176.15 209.36,176.15 209.36,176.15 209.36,176.15 209.36,176.15 209.36,176.15 209.36,176.15 209.36,176.15 209.36,176.15 209.36,176.15 209.36,176.15 209.36,176.15 209.36,176.15 209.36,176.15 209.36,176.15 209.36,176.15 209.36,176.15 209.36,176.15 209.36,176.15 209.36,176.15 209.36,176.15 209.36,176.15 209.36,176.15 209.36,176.15 209.36,176.15 209.36,176.15 209.36,176.15 209.36,176.15 209.36,176.15 209.36,176.15 209.36,176.15 209.36,176.15 209.36,176.15 209.36,176.15 209.36,176.15 209.36,176.15 209.36,176.15 209.36,176.15 209.36,176.15 209.36,176.15 209.36,176.15 209.36,176.15 209.36,176.15 209.36,176.15 209.36,176.15 209.36,176.15 209.36,257.58 209.36,176.15 209.36,176.15 209.36,176.15 209.36,176.15 209.36,176.15 209.36,176.15 209.36,176.15 209.36,176.15 209.36,176.15 209.36,176.15 209.36,176.15 209.36,176.15 209.36,176.15 209.36,176.15 209.38,388.75 209.38,276.05 209.38,299.20 209.39,328.34 209.41,381.32 209.41,253.66 209.41,208.42 209.41,176.15 209.41,237.23 209.41,348.62 209.68,460.49 209.87,451.26 210.06,451.59 210.25,450.88 210.44,450.47 210.63,450.51 210.80,448.75 210.99,450.80 211.18,451.11 211.37,449.94 211.56,451.27 211.75,450.10 211.94,451.38 212.14,452.00 212.33,451.82 212.53,451.96 212.71,449.98 212.90,450.89 213.10,451.66 213.29,451.43 213.49,452.33 213.68,450.61 213.87,451.50 214.08,453.18 214.27,451.39 214.47,452.35 214.66,449.84 214.86,452.53 215.06,452.78 215.27,453.57 215.47,453.01 215.67,452.59 215.87,452.42 216.07,451.67 216.27,453.01 216.48,452.67 216.67,452.08 216.88,453.45 217.08,452.42 217.29,453.36 217.49,452.91 217.70,453.98 217.92,454.25 218.13,454.55 218.34,453.64 218.55,453.72 218.76,453.46 218.97,454.67 219.20,455.74 219.42,455.69 219.64,455.68 219.86,455.06 220.09,456.42 220.32,456.60 220.55,456.25 220.77,455.25 220.98,454.21 221.21,456.12 221.44,456.85 221.67,455.70 221.88,454.65 222.11,456.36 222.34,456.02 222.56,455.65 222.79,455.81 223.01,454.94 223.24,456.53 223.46,455.77 223.68,454.52 223.90,455.53 224.12,456.12 224.35,455.52 224.57,456.12 224.79,454.49 225.01,455.19 225.24,456.66 225.47,457.08 225.70,455.76 225.92,455.76 226.16,457.39 226.40,457.08 226.62,455.38 226.85,457.44 227.09,456.80 227.31,456.17 227.55,456.84 227.78,456.77 228.01,456.54 228.24,456.84 228.46,455.31 228.70,457.34 228.94,457.24 229.18,457.79 229.41,456.61 229.64,456.31 229.87,457.27 230.11,457.68 230.35,457.71 230.59,458.18 230.83,457.32 231.07,457.54 231.31,457.67 231.54,457.15 231.78,457.74 232.03,458.20 232.26,457.38 232.51,457.91 232.74,457.50 232.89,443.57 233.04,444.38 233.21,446.06 233.34,440.88 233.48,441.15 233.61,440.84 233.69,423.02 233.70,370.43 233.72,383.75 233.88,446.51 233.93,408.58 174.02,486.55 174.69,488.22 175.35,487.24 176.05,489.44 176.77,489.72 177.35,483.75 177.89,481.44 178.48,484.22 179.01,481.34 179.59,483.48 180.23,486.68 180.85,485.64 181.45,484.41 182.09,486.56 182.77,488.59 183.37,484.40 184.03,487.50 184.70,487.71 185.29,484.38 185.97,488.16 186.51,481.69 187.14,485.99 187.70,482.60 188.32,485.67 188.95,486.24 189.55,484.60 190.19,486.81 190.88,488.48" stroke-dasharray="3.6 3.6" stroke-width="3.6" stroke="#aaa" />
<g>
<circle cx="150.23" cy="456.21" r="1.6666666666666667" />
<circle cx="150.46" cy="456.65" r="1.6666666666666667" />
<circle cx="150.69" cy="456.52" r="1.6666666666666667" />
<circle cx="150.92" cy="457.04" r="1.6666666666666667" />
<circle cx="151.16" cy="457.14" r="1.6666666666666667" />
<circle cx="151.39" cy="456.37" r="1.6666666666666667" />
<circle cx="151.62" cy="456.65" r="1.6666666666666667" />
<circle cx="151.85" cy="456.35" r="1.6666666666666667" />
<circle cx="152.08" cy="457.12" r="1.6666666666666667" />
<circle cx="152.12" cy="405.31" r="1.6666666666666667" />
<circle cx="174.02" cy="486.55" r="1.6666666666666667" />
<circle cx="174.69" cy="488.22" r="1.6666666666666667" />
<circle cx="175.35" cy="487.24" r="1.6666666666666667" />
<circle cx="176.05" cy="489.44" r="1.6666666666666667" />
<circle cx="176.77" cy="489.72" r="1.6666666666666667" />
<circle cx="177.35" cy="483.75" r="1.6666666666666667" />
<circle cx="177.89" cy="481.44" r="1.6666666666666667" />
<circle cx="178.48" cy="484.22" r="1.6666666666666667" />
<circle cx="179.01" cy="481.34" r="1.6666666666666667" />
<circle cx="179.59" cy="483.48" r="1.6666666666666667" />
<circle cx="180.23" cy="486.68" r="1.6666666666666667" />
<circle cx="180.85" cy="485.64" r="1.6666666666666667" />
<circle cx="181.45" cy="484.41" r="1.6666666666666667" />
<circle cx="182.09" cy="486.56" r="1.6666666666666667" />
<circle cx="182.77" cy="488.59" r="1.6666666666666667" />
<circle cx="183.37" cy="484.40" r="1.6666666666666667" />
<circle cx="184.03" cy="487.50" r="1.6666666666666667" />
<circle cx="184.70" cy="487.71" r="1.6666666666666667" />
<circle cx="185.29" cy="484.38" r="1.6666666666666667" />
<circle cx="185.97" cy="488.16" r="1.6666666666666667" />
<circle cx="186.51" cy="481.69" r="1.6666666666666667" />
<circle cx="187.14" cy="485.99" r="1.6666666666666667" />
<circle cx="187.70" cy="482.60" r="1.6666666666666667" />
<circle cx="188.32" cy="485.67" r="1.6666666666666667" />
<circle cx="188.95" cy="486.24" r="1.6666666666666667" />
<circle cx="189.55" cy="484.60" r="1.6666666666666667" />
<circle cx="190.19" cy="486.81" r="1.6666666666666667" />
<circle cx="190.88" cy="488.48" r="1.6666666666666667" />
<circle cx="209.30" cy="384.00" r="1.6666666666666667" />
<circle cx="209.30" cy="257.58" r="1.6666666666666667" />
<circle cx="209.31" cy="261.04" r="1.6666666666666667" />
<circle cx="209.31" cy="272.95" r="1.6666666666666667" />
<circle cx="209.31" cy="259.36" r="1.6666666666666667" />
<circle cx="209.35" cy="405.51" r="1.6666666666666667" />
<circle cx="209.35" cy="237.23" r="1.6666666666666667" />
<circle cx="209.35" cy="216.87" r="1.6666666666666667" />
<circle cx="209.35" cy="196.51" r="1.6666666666666667" />
<circle cx="209.35" cy="176.15" r="1.6666666666666667" />
<circle cx="209.35" cy="176.15" r="1.6666666666666667" />
<circle cx="209.35" cy="176.15" r="1.6666666666666667" />
<circle cx="209.35" cy="176.15" r="1.6666666666666667" />
<circle cx="209.35" cy="176.15" r="1.6666666666666667" />
<circle cx="209.35" cy="176.15" r="1.6666666666666667" />
<circle cx="209.35" cy="176.15" r="1.6666666666666667" />
<circle cx="209.35" cy="176.15" r="1.6666666666666667" />
<circle cx="209.35" cy="176.15" r="1.6666666666666667" />
<circle cx="209.35" cy="176.15" r="1.6666666666666667" />
<circle cx="209.35" cy="176.15" r="1.6666666666666667" />
<circle cx="209.35" cy="176.15" r="1.6666666666666667" />
<circle cx="209.35" cy="176.15" r="1.6666666666666667" />
<circle cx="209.35" cy="176.15" r="1.6666666666666667" />
<circle cx="209.35" cy="176.15" r="1.6666666666666667" />
<circle cx="209.35" cy="176.15" r="1.6666666666666667" />
<circle cx="209.35" cy="176.15" r="1.6666666666666667" />
<circle cx="209.35" cy="176.15" r="1.6666666666666667" />
<circle cx="209.35" cy="176.15" r="1.6666666666666667" />
<circle cx="209.35" cy="176.15" r="1.6666666666666667" />
<circle cx="209.35" cy="176.15" r="1.6666666666666667" />
<circle cx="209.35" cy="176.15" r="1.6666666666666667" />
<circle cx="209.35" cy="176.15" r="1.6666666666666667" />
<circle cx="209.35" cy="176.15" r="1.6666666666666667" />
<circle cx="209.35" cy="176.15" r="1.6666666666666667" />
<circle cx="209.35" cy="176.15" r="1.6666666666666667" />
<circle cx="209.35" cy="176.15" r="1.6666666666666667" />
<circle cx="209.35" cy="176.15" r="1.6666666666666667" />
<circle cx="209.35" cy="176.15" r="1.6666666666666667" />
<circle cx="209.35" cy="176.15" r="1.6666666666666667" />
<circle cx="209.35" cy="176.15" r="1.6666666666666667" />
<circle cx="209.35" cy="176.15" r="1.6666666666666667" />
<circle cx="209.35" cy="176.15" r="1.6666666666666667" />
<circle cx="209.35" cy="176.15" r="1.6666666666666667" />
<circle cx="209.35" cy="176.15" r="1.6666666666666667" />
<circle cx="209.35" cy="176.15" r="1.6666666666666667" />
<circle cx="209.35" cy="176.15" r="1.6666666666666667" />
<circle cx="209.35" cy="176.15" r="1.6666666666666667" />
<circle cx="209.35" cy="176.15" r="1.6666666666666667" />
<circle cx="209.35" cy="176.15" r="1.6666666666666667" />
<circle cx="209.35" cy="176.15" r="1.6666666666666667" />
<circle cx="209.35" cy="176.15" r="1.6666666666666667" />
<circle cx="209.35" cy="176.15" r="1.6666666666666667" />
<circle cx="209.35" cy="176.15" r="1.6666666666666667" />
<circle cx="209.35" cy="176.15" r="1.6666666666666667" />
<circle cx="209.35" cy="176.15" r="1.6666666666666667" />
<circle cx="209.35" cy="176.15" r="1.6666666666666667" />
<circle cx="209.35" cy="176.15" r="1.6666666666666667" />
<circle cx="209.35" cy="176.15" r="1.6666666666666667" />
<circle cx="209.35" cy="176.15" r="1.6666666666666667" />
<circle cx="209.35" cy="176.15" r="1.6666666666666667" />
<circle cx="209.35" cy="176.15" r="1.6666666666666667" />
<circle cx="209.35" cy="176.15" r="1.6666666666666667" />
<circle cx="209.35" cy="176.15" r="1.6666666666666667" />
<circle cx="209.35" cy="176.15" r="1.6666666666666667" />
<circle cx="209.35" cy="176.15" r="1.6666666666666667" />
<circle cx="209.35" cy="176.15" r="1.6666666666666667" />
<circle cx="209.35" cy="176.15" r="1.6666666666666667" />
<circle cx="209.35" cy="176.15" r="1.6666666666666667" />
<circle cx="209.35" cy="176.15" r="1.6666666666666667" />
<circle cx="209.35" cy="176.15" r="1.6666666666666667" />
<circle cx="209.35" cy="176.15" r="1.6666666666666667" />
<circle cx="209.35" cy="176.15" r="1.6666666666666667" />
<circle cx="209.35" cy="176.15" r="1.6666666666666667" />
<circle cx="209.35" cy="176.15" r="1.6666666666666667" />
<circle cx="209.35" cy="176.15" r="1.6666666666666667" />
<circle cx="209.35" cy="176.15" r="1.6666666666666667" />
<circle cx="209.35" cy="176.15" r="1.6666666666666667" />
<circle cx="209.35" cy="196.51" r="1.6666666666666667" />
<circle cx="209.35" cy="176.15" r="1.6666666666666667" />
<circle cx="209.35" cy="176.15" r="1.6666666666666667" />
<circle cx="209.35" cy="176.15" r="1.6666666666666667" />
<circle cx="209.35" cy="176.15" r="1.6666666666666667" />
<circle cx="209.35" cy="176.15" r="1.6666666666666667" />
<circle cx="209.35" cy="176.15" r="1.6666666666666667" />
<circle cx="209.35" cy="176.15" r="1.6666666666666667" />
<circle cx="209.35" cy="176.15" r="1.6666666666666667" />
<circle cx="209.35" cy="176.15" r="1.6666666666666667" />
<circle cx="209.35" cy="176.15" r="1.6666666666666667" />
<circle cx="209.35" cy="176.15" r="1.6666666666666667" />
<circle cx="209.35" cy="176.15" r="1.6666666666666667" />
<circle cx="209.35" cy="176.15" r="1.6666666666666667" />
<circle cx="209.35" cy="176.15" r="1.6666666666666667" />
<circle cx="209.35" cy="176.15" r="1.6666666666666667" />
<circle cx="209.35" cy="176.15" r="1.6666666666666667" />
<circle cx="209.35" cy="176.15" r="1.6666666666666667" />
<circle cx="209.35" cy="176.15" r="1.6666666666666667" />
<circle cx="209.35" cy="176.15" r="1.6666666666666667" />
<circle cx="209.35" cy="176.15" r="1.6666666666666667" />
<circle cx="209.35" cy="176.15" r="1.6666666666666667" />
<circle cx="209.35" cy="176.15" r="1.6666666666666667" />
<circle cx="209.35" cy="176.15" r="1.6666666666666667" />
<circle cx="209.35" cy="176.15" r="1.6666666666666667" />
<circle cx="209.35" cy="176.15" r="1.6666666666666667" />
<circle cx="209.35" cy="176.15" r="1.6666666666666667" />
<circle cx="209.35" cy="176.15" r="1.6666666666666667" />
<circle cx="209.35" cy="176.15" r="1.6666666666666667" />
<circle cx="209.35" cy="176.15" r="1.6666666666666667" />
<circle cx="209.35" cy="176.15" r="1.6666666666666667" />
<circle cx="209.35" cy="176.15" r="1.6666666666666667" />
<circle cx="209.35" cy="176.15" r="1.6666666666666667" />
<circle cx="209.35" cy="176.15" r="1.6666666666666667" />
<circle cx="209.35" cy="176.15" r="1.6666666666666667" />
<circle cx="209.35" cy="176.15" r="1.6666666666666667" />
<circle cx="209.35" cy="176.15" r="1.6666666666666667" />
<circle cx="209.35" cy="176.15" r="1.6666666666666667" />
<circle cx="209.35" cy="176.15" r="1.6666666666666667" />
<circle cx="209.35" cy="176.15" r="1.6666666666666667" />
<circle cx="209.35" cy="176.15" r="1.6666666666666667" />
<circle cx="209.35" cy="176.15" r="1.6666666666666667" />
<circle cx="209.35" cy="176.15" r="1.6666666666666667" />
<circle cx="209.35" cy="176.15" r="1.6666666666666667" />
<circle cx="209.35" cy="176.15" r="1.6666666666666667" />
<circle cx="209.35" cy="176.15" r="1.6666666666666667" />
<circle cx="209.35" cy="176.15" r="1.6666666666666667" />
<circle cx="209.35" cy="176.15" r="1.6666666666666667" />
<circle cx="209.35" cy="176.15" r="1.6666666666666667" />
<circle cx="209.35" cy="176.15" r="1.6666666666666667" />
<circle cx="209.35" cy="176.15" r="1.6666666666666667" />
<circle cx="209.35" cy="176.15" r="1.6666666666666667" />
<circle cx="209.35" cy="176.15" r="1.6666666666666667" />
<circle cx="209.35" cy="176.15" r="1.6666666666666667" />
<circle cx="209.35" cy="176.15" r="1.6666666666666667" />
<circle cx="209.35" cy="176.15" r="1.6666666666666667" />
<circle cx="209.35" cy="176.15" r="1.6666666666666667" />
<circle cx="209.35" cy="176.15" r="1.6666666666666667" />
<circle cx="209.35" cy="176.15" r="1.6666666666666667" />
<circle cx="209.35" cy="176.15" r="1.6666666666666667" />
<circle cx="209.35" cy="176.15" r="1.6666666666666667" />
<circle cx="209.35" cy="176.15" r="1.6666666666666667" />
<circle cx="209.35" cy="257.58" r="1.6666666666666667" />
<circle cx="209.35" cy="176.15" r="1.6666666666666667" />
<circle cx="209.35" cy="176.15" r="1.6666666666666667" />
<circle cx="209.35" cy="176.15" r="1.6666666666666667" />
<circle cx="209.35" cy="176.15" r="1.6666666666666667" />
<circle cx="209.35" cy="176.15" r="1.6666666666666667" />
<circle cx="209.35" cy="176.15" r="1.6666666666666667" />
<circle cx="209.35" cy="176.15" r="1.6666666666666667" />
<circle cx="209.35" cy="176.15" r="1.6666666666666667" />
<circle cx="209.35" cy="176.15" r="1.6666666666666667" />
<circle cx="209.35" cy="176.15" r="1.6666666666666667" />
<circle cx="209.35" cy="176.15" r="1.6666666666666667" />
<circle cx="209.35" cy="176.15" r="1.6666666666666667" />
<circle cx="209.35" cy="176.15" r="1.6666666666666667" />
<circle cx="209.35" cy="176.15" r="1.6666666666666667" />
<circle cx="209.35" cy="176.15" r="1.6666666666666667" />
<circle cx="209.35" cy="176.15" r="1.6666666666666667" />
<circle cx="209.35" cy="176.15" r="1.6666666666666667" />
<circle cx="209.35" cy="176.15" r="1.6666666666666667" />
<circle cx="209.35" cy="176.15" r="1.6666666666666667" />
<circle cx="209.35" cy="176.15" r="1.6666666666666667" />
<circle cx="209.35" cy="176.15" r="1.6666666666666667" />
<circle cx="209.35" cy="176.15" r="1.6666666666666667" />
<circle cx="209.35" cy="176.15" r="1.6666666666666667" />
<circle cx="209.35" cy="176.15" r="1.6666666666666667" />
<circle cx="209.35" cy="176.15" r="1.6666666666666667" />
<circle cx="209.35" cy="176.15" r="1.6666666666666667" />
<circle cx="209.35" cy="176.15" r="1.6666666666666667" />
<circle cx="209.35" cy="176.15" r="1.6666666666666667" />
<circle cx="209.35" cy="176.15" r="1.6666666666666667" />
<circle cx="209.35" cy="176.15" r="1.6666666666666667" />
<circle cx="209.35" cy="176.15" r="1.6666666666666667" />
<circle cx="209.35" cy="176.15" r="1.6666666666666667" />
<circle cx="209.35" cy="176.15" r="1.6666666666666667" />
<circle cx="209.35" cy="176.15" r="1.6666666666666667" />
<circle cx="209.35" cy="176.15" r="1.6666666666666667" />
<circle cx="209.35" cy="176.15" r="1.6666666666666667" />
<circle cx="209.35" cy="176.15" r="1.6666666666666667" />
<circle cx="209.35" cy="176.15" r="1.6666666666666667" />
<circle cx="209.35" cy="176.15" r="1.6666666666666667" />
<circle cx="209.35" cy="176.15" r="1.6666666666666667" />
<circle cx="209.35" cy="176.15" r="1.6666666666666667" />
<circle cx="209.35" cy="176.15" r="1.6666666666666667" />
<circle cx="209.35" cy="176.15" r="1.6666666666666667" />
<circle cx="209.35" cy="176.15" r="1.6666666666666667" />
<circle cx="209.35" cy="176.15" r="1.6666666666666667" />
<circle cx="209.35" cy="176.15" r="1.6666666666666667" />
<circle cx="209.35" cy="176.15" r="1.6666666666666667" />
<circle cx="209.35" cy="176.15" r="1.6666666666666667" />
<circle cx="209.35" cy="176.15" r="1.6666666666666667" />
<circle cx="209.35" cy="176.15" r="1.6666666666666667" />
<circle cx="209.35" cy="176.15" r="1.6666666666666667" />
<circle cx="209.35" cy="176.15" r="1.6666666666666667" />
<circle cx="209.35" cy="176.15" r="1.6666666666666667" />
<circle cx="209.35" cy="176.15" r="1.6666666666666667" />
<circle cx="209.35" cy="176.15" r="1.6666666666666667" />
<circle cx="209.35" cy="176.15" r="1.6666666666666667" />
<circle cx="209.35" cy="176.15" r="1.6666666666666667" />
<circle cx="209.35" cy="176.15" r="1.6666666666666667" />
<circle cx="209.35" cy="176.15" r="1.6666666666666667" />
<circle cx="209.35" cy="176.15" r="1.6666666666666667" />
<circle cx="209.35" cy="176.15" r="1.6666666666666667" />
<circle cx="209.35" cy="176.15" r="1.6666666666666667" />
<circle cx="209.35" cy="176.15" r="1.6666666666666667" />
<circle cx="209.35" cy="176.15" r="1.6666666666666667" />
<circle cx="209.35" cy="176.15" r="1.6666666666666667" />
<circle cx="209.35" cy="176.15" r="1.6666666666666667" />
<circle cx="209.35" cy="176.15" r="1.6666666666666667" />
<circle cx="209.35" cy="176.15" r="1.6666666666666667" />
<circle cx="209.35" cy="176.15" r="1.6666666666666667" />
<circle cx="209.35" cy="176.15" r="1.6666666666666667" />
<circle cx="209.35" cy="176.15" r="1.6666666666666667" />
<circle cx="209.35" cy="176.15" r="1.6666666666666667" />
<circle cx="209.35" cy="176.15" r="1.6666666666666667" />
<circle cx="209.35" cy="176.15" r="1.6666666666666667" />
<circle cx="209.35" cy="176.15" r="1.6666666666666667" />
<circle cx="209.35" cy="176.15" r="1.6666666666666667" />
<circle cx="209.35" cy="176.15" r="1.6666666666666667" />
<circle cx="209.35" cy="176.15" r="1.6666666666666667" />
<circle cx="209.35" cy="176.15" r="1.6666666666666667" />
<circle cx="209.35" cy="176.15" r="1.6666666666666667" />
<circle cx="209.35" cy="176.15" r="1.6666666666666667" />
<circle cx="209.35" cy="176.15" r="1.6666666666666667" />
<circle cx="209.35" cy="176.15" r="1.6666666666666667" />
<circle cx="209.35" cy="176.15" r="1.6666666666666667" />
<circle cx="209.35" cy="176.15" r="1.6666666666666667" />
<circle cx="209.35" cy="176.15" r="1.6666666666666667" />
<circle cx="209.35" cy="176.15" r="1.6666666666666667" />
<circle cx="209.35" cy="176.15" r="1.6666666666666667" />
<circle cx="209.35" cy="176.15" r="1.6666666666666667" />
<circle cx="209.35" cy="176.15" r="1.6666666666666667" />
<circle cx="209.35" cy="176.15" r="1.6666666666666667" />
<circle cx="209.35" cy="176.15" r="1.6666666666666667" />
<circle cx="209.35" cy="176.15" r="1.6666666666666667" />
<circle cx="209.35" cy="176.15" r="1.6666666666666667" />
<circle cx="209.35" cy="176.15" r="1.6666666666666667" />
<circle cx="209.35" cy="176.15" r="1.6666666666666667" />
<circle cx="209.35" cy="176.15" r="1.6666666666666667" />
<circle cx="209.35" cy="176.15" r="1.6666666666666667" />
<circle cx="209.35" cy="176.15" r="1.6666666666666667" />
<circle cx="209.35" cy="176.15" r="1.6666666666666667" />
<circle cx="209.35" cy="176.15" r="1.6666666666666667" />
<circle cx="209.35" cy="176.15" r="1.6666666666666667" />
<circle cx="209.35" cy="176.15" r="1.6666666666666667" />
<circle cx="209.35" cy="176.15" r="1.6666666666666667" />
<circle cx="209.35" cy="176.15" r="1.6666666666666667" />
<circle cx="209.35" cy="176.15" r="1.6666666666666667" />
<circle cx="209.35" cy="176.15" r="1.6666666666666667" />
<circle cx="209.35" cy="176.15" r="1.6666666666666667" />
<circle cx="209.35" cy="176.15" r="1.6666666666666667" />
<circle cx="209.35" cy="176.15" r="1.6666666666666667" />
<circle cx="209.35" cy="176.15" r="1.6666666666666667" />
<circle cx="209.35" cy="176.15" r="1.6666666666666667" />
<circle cx="209.35" cy="176.15" r="1.6666666666666667" />
<circle cx="209.35" cy="176.15" r="1.6666666666666667" />
<circle cx="209.35" cy="176.15" r="1.6666666666666667" />
<circle cx="209.35" cy="176.15" r="1.6666666666666667" />
<circle cx="209.35" cy="176.15" r="1.6666666666666667" />
<circle cx="209.35" cy="176.15" r="1.6666666666666667" />
<circle cx="209.35" cy="176.15" r="1.6666666666666667" />
<circle cx="209.35" cy="176.15" r="1.6666666666666667" />
<circle cx="209.35" cy="176.15" r="1.6666666666666667" />
<circle cx="209.35" cy="176.15" r="1.6666666666666667" />
<circle cx="209.35" cy="176.15" r="1.6666666666666667" />
<circle cx="209.35" cy="176.15" r="1.6666666666666667" />
<circle cx="209.35" cy="176.15" r="1.6666666666666667" />
<circle cx="209.35" cy="176.15" r="1.6666666666666667" />
<circle cx="209.35" cy="176.15" r="1.6666666666666667" />
<circle cx="209.35" cy="176.15" r="1.6666666666666667" />
<circle cx="209.35" cy="176.15" r="1.6666666666666667" />
<circle cx="209.35" cy="176.15" r="1.6666666666666667" />
<circle cx="209.35" cy="176.15" r="1.6666666666666667" />
<circle cx="209.35" cy="176.15" r="1.6666666666666667" />
<circle cx="209.35" cy="176.15" r="1.6666666666666667" />
<circle cx="209.35" cy="176.15" r="1.6666666666666667" />
<circle cx="209.35" cy="176.15" r="1.6666666666666667" />
<circle cx="209.35" cy="176.15" r="1.6666666666666667" />
<circle cx="209.35" cy="176.15" r="1.6666666666666667" />
<circle cx="209.35" cy="257.58" r="1.6666666666666667" />
<circle cx="209.35" cy="176.15" r="1.6666666666666667" />
<circle cx="209.35" cy="176.15" r="1.6666666666666667" />
<circle cx="209.35" cy="176.15" r="1.6666666666666667" />
<circle cx="209.35" cy="176.15" r="1.6666666666666667" />
<circle cx="209.35" cy="176.15" r="1.6666666666666667" />
<circle cx="209.35" cy="176.15" r="1.6666666666666667" />
<circle cx="209.35" cy="176.15" r="1.6666666666666667" />
<circle cx="209.35" cy="176.15" r="1.6666666666666667" />
<circle cx="209.35" cy="176.15" r="1.6666666666666667" />
<circle cx="209.35" cy="176.15" r="1.6666666666666667" />
<circle cx="209.35" cy="257.58" r="1.6666666666666667" />
<circle cx="209.35" cy="176.15" r="1.6666666666666667" />
<circle cx="209.35" cy="176.15" r="1.6666666666666667" />
<circle cx="209.35" cy="176.15" r="1.6666666666666667" />
<circle cx="209.35" cy="176.15" r="1.6666666666666667" />
<circle cx="209.35" cy="176.15" r="1.6666666666666667" />
<circle cx="209.35" cy="176.15" r="1.6666666666666667" />
<circle cx="209.35" cy="176.15" r="1.6666666666666667" />
<circle cx="209.35" cy="176.15" r="1.6666666666666667" />
<circle cx="209.35" cy="176.15" r="1.6666666666666667" />
<circle cx="209.35" cy="176.15" r="1.6666666666666667" />
<circle cx="209.35" cy="176.15" r="1.6666666666666667" />
<circle cx="209.35" cy="176.15" r="1.6666666666666667" />
<circle cx="209.35" cy="176.15" r="1.6666666666666667" />
<circle cx="209.35" cy="176.15" r="1.6666666666666667" />
<circle cx="209.35" cy="176.15" r="1.6666666666666667" />
<circle cx="209.35" cy="176.15" r="1.6666666666666667" />
<circle cx="209.35" cy="176.15" r="1.6666666666666667" />
<circle cx="209.35" cy="176.15" r="1.6666666666666667" />
<circle cx="209.35" cy="176.15" r="1.6666666666666667" />
<circle cx="209.35" cy="176.15" r="1.6666666666666667" />
<circle cx="209.35" cy="176.15" r="1.6666666666666667" />
<circle cx="209.35" cy="176.15" r="1.6666666666666667" />
<circle cx="209.35" cy="176.15" r="1.6666666666666667" />
<circle cx="209.35" cy="176.15" r="1.6666666666666667" />
<circle cx="209.35" cy="176.15" r="1.6666666666666667" />
<circle cx="209.35" cy="176.15" r="1.6666666666666667" />
<circle cx="209.35" cy="176.15" r="1.6666666666666667" />
<circle cx="209.35" cy="176.15" r="1.6666666666666667" />
<circle cx="209.35" cy="176.15" r="1.6666666666666667" />
<circle cx="209.35" cy="176.15" r="1.6666666666666667" />
<circle cx="209.35" cy="176.15" r="1.6666666666666667" />
<circle cx="209.35" cy="176.15" r="1.6666666666666667" />
<circle cx="209.35" cy="176.15" r="1.6666666666666667" />
<circle cx="209.35" cy="176.15" r="1.6666666666666667" />
<circle cx="209.35" cy="176.15" r="1.6666666666666667" />
<circle cx="209.35" cy="176.15" r="1.6666666666666667" />
<circle cx="209.35" cy="176.15" r="1.6666666666666667" />
<circle cx="209.35" cy="176.15" r="1.6666666666666667" />
<circle cx="209.35" cy="176.15" r="1.6666666666666667" />
<circle cx="209.35" cy="176.15" r="1.6666666666666667" />
<circle cx="209.35" cy="176.15" r="1.6666666666666667" />
<circle cx="209.35" cy="176.15" r="1.6666666666666667" />
<circle cx="209.35" cy="176.15" r="1.6666666666666667" />
<circle cx="209.35" cy="176.15" r="1.6666666666666667" />
<circle cx="209.35" cy="176.15" r="1.6666666666666667" />
<circle cx="209.35" cy="176.15" r="1.6666666666666667" />
<circle cx="209.35" cy="176.15" r="1.6666666666666667" />
<circle cx="209.35" cy="176.15" r="1.6666666666666667" />
<circle cx="209.35" cy="176.15" r="1.6666666666666667" />
<circle cx="209.35" cy="176.15" r="1.6666666666666667" />
<circle cx="209.35" cy="176.15" r="1.6666666666666667" />
<circle cx="209.35" cy="176.15" r="1.6666666666666667" />
<circle cx="209.35" cy="176.15" r="1.6666666666666667" />
<circle cx="209.35" cy="176.15" r="1.6666666666666667" />
<circle cx="209.35" cy="176.15" r="1.6666666666666667" />
<circle cx="209.35" cy="176.15" r="1.6666666666666667" />
<circle cx="209.35" cy="176.15" r="1.6666666666666667" />
<circle cx="209.35" cy="176.15" r="1.6666666666666667" />
<circle cx="209.35" cy="176.15" r="1.6666666666666667" />
<circle cx="209.35" cy="176.15" r="1.6666666666666667" />
<circle cx="209.35" cy="176.15" r="1.6666666666666667" />
<circle cx="209.35" cy="176.15" r="1.6666666666666667" />
<circle cx="209.35" cy="176.15" r="1.6666666666666667" />
<circle cx="209.35" cy="176.15" r="1.6666666666666667" />
<circle cx="209.35" cy="176.15" r="1.6666666666666667" />
<circle cx="209.35" cy="176.15" r="1.6666666666666667" />
<circle cx="209.35" cy="176.15" r="1.6666666666666667" />
<circle cx="209.35" cy="176.15" r="1.6666666666666667" />
<circle cx="209.35" cy="176.15" r="1.6666666666666667" />
<circle cx="209.35" cy="176.15" r="1.6666666666666667" />
<circle cx="209.35" cy="176.15" r="1.6666666666666667" />
<circle cx="209.35" cy="176.15" r="1.6666666666666667" />
<circle cx="209.35" cy="176.15" r="1.6666666666666667" />
<circle cx="209.35" cy="176.15" r="1.6666666666666667" />
<circle cx="209.35" cy="176.15" r="1.6666666666666667" />
<circle cx="209.35" cy="176.15" r="1.6666666666666667" />
<circle cx="209.35" cy="176.15" r="1.6666666666666667" />
<circle cx="209.35" cy="176.15" r="1.6666666666666667" />
<circle cx="209.35" cy="176.15" r="1.6666666666666667" />
<circle cx="209.35" cy="176.15" r="1.6666666666666667" />
<circle cx="209.35" cy="176.15" r="1.6666666666666667" />
<circle cx="209.35" cy="176.15" r="1.6666666666666667" />
<circle cx="209.35" cy="176.15" r="1.6666666666666667" />
<circle cx="209.35" cy="176.15" r="1.6666666666666667" />
<circle cx="209.35" cy="176.15" r="1.6666666666666667" />
<circle cx="209.35" cy="176.15" r="1.6666666666666667" />
<circle cx="209.35" cy="176.15" r="1.6666666666666667" />
<circle cx="209.35" cy="176.15" r="1.6666666666666667" />
<circle cx="209.35" cy="176.15" r="1.6666666666666667" />
<circle cx="209.35" cy="176.15" r="1.6666666666666667" />
<circle cx="209.35" cy="176.15" r="1.6666666666666667" />
<circle cx="209.35" cy="176.15" r="1.6666666666666667" />
<circle cx="209.35" cy="176.15" r="1.6666666666666667" />
<circle cx="209.35" cy="176.15" r="1.6666666666666667" />
<circle cx="209.35" cy="176.15" r="1.6666666666666667" />
<circle cx="209.35" cy="257.58" r="1.6666666666666667" />
<circle cx="209.35" cy="176.15" r="1.6666666666666667" />
<circle cx="209.35" cy="176.15" r="1.6666666666666667" />
<circle cx="209.35" cy="176.15" r="1.6666666666666667" />
<circle cx="209.35" cy="176.15" r="1.6666666666666667" />
<circle cx="209.35" cy="176.15" r="1.6666666666666667" />
<circle cx="209.35" cy="176.15" r="1.6666666666666667" />
<circle cx="209.35" cy="176.15" r="1.6666666666666667" />
<circle cx="209.35" cy="176.15" r="1.6666666666666667" />
<circle cx="209.35" cy="176.15" r="1.6666666666666667" />
<circle cx="209.35" cy="176.15" r="1.6666666666666667" />
<circle cx="209.35" cy="176.15" r="1.6666666666666667" />
<circle cx="209.35" cy="176.15" r="1.6666666666666667" />
<circle cx="209.35" cy="176.15" r="1.6666666666666667" />
<circle cx="209.35" cy="176.15" r="1.6666666666666667" />
<circle cx="209.35" cy="176.15" r="1.6666666666666667" />
<circle cx="209.35" cy="176.15" r="1.6666666666666667" />
<circle cx="209.35" cy="176.15" r="1.6666666666666667" />
<circle cx="209.35" cy="176.15" r="1.6666666666666667" />
<circle cx="209.35" cy="176.15" r="1.6666666666666667" />
<circle cx="209.35" cy="176.15" r="1.6666666666666667" />
<circle cx="209.35" cy="176.15" r="1.6666666666666667" />
<circle cx="209.35" cy="176.15" r="1.6666666666666667" />
<circle cx="209.35" cy="176.15" r="1.6666666666666667" />
<circle cx="209.35" cy="176.15" r="1.6666666666666667" />
<circle cx="209.35" cy="176.15" r="1.6666666666666667" />
<circle cx="209.35" cy="176.15" r="1.6666666666666667" />
<circle cx="209.35" cy="176.15" r="1.6666666666666667" />
<circle cx="209.35" cy="176.15" r="1.6666666666666667" />
<circle cx="209.35" cy="176.15" r="1.6666666666666667" />
<circle cx="209.35" cy="176.15" r="1.6666666666666667" />
<circle cx="209.35" cy="176.15" r="1.6666666666666667" />
<circle cx="209.35" cy="176.15" r="1.6666666666666667" />
<circle cx="209.35" cy="176.15" r="1.6666666666666667" />
<circle cx="209.35" cy="176.15" r="1.6666666666666667" />
<circle cx="209.35" cy="176.15" r="1.6666666666666667" />
<circle cx="209.35" cy="176.15" r="1.6666666666666667" />
<circle cx="209.35" cy="176.15" r="1.6666666666666667" />
<circle cx="209.35" cy="176.15" r="1.6666666666666667" />
<circle cx="209.35" cy="176.15" r="1.6666666666666667" />
<circle cx="209.35" cy="196.51" r="1.6666666666666667" />
<circle cx="209.35" cy="176.15" r="1.6666666666666667" />
<circle cx="209.35" cy="176.15" r="1.6666666666666667" />
<circle cx="209.35" cy="176.15" r="1.6666666666666667" />
<circle cx="209.35" cy="176.15" r="1.6666666666666667" />
<circle cx="209.35" cy="257.58" r="1.6666666666666667" />
<circle cx="209.35" cy="176.15" r="1.6666666666666667" />
<circle cx="209.35" cy="176.15" r="1.6666666666666667" />
<circle cx="209.35" cy="176.15" r="1.6666666666666667" />
<circle cx="209.36" cy="314.74" r="1.6666666666666667" />
<circle cx="209.36" cy="176.15" r="1.6666666666666667" />
<circle cx="209.36" cy="176.15" r="1.6666666666666667" />
<circle cx="209.36" cy="176.15" r="1.6666666666666667" />
<circle cx="209.36" cy="176.15" r="1.6666666666666667" />
<circle cx="209.36" cy="176.15" r="1.6666666666666667" />
<circle cx="209.36" cy="176.15" r="1.6666666666666667" />
<circle cx="209.36" cy="176.15" r="1.6666666666666667" />
<circle cx="209.36" cy="176.15" r="1.6666666666666667" />
<circle cx="209.36" cy="176.15" r="1.6666666666666667" />
<circle cx="209.36" cy="176.15" r="1.6666666666666667" />
<circle cx="209.36" cy="176.15" r="1.6666666666666667" />
<circle cx="209.36" cy="176.15" r="1.6666666666666667" />
<circle cx="209.36" cy="176.15" r="1.6666666666666667" />
<circle cx="209.36" cy="176.15" r="1.6666666666666667" />
<circle cx="209.36" cy="176.15" r="1.6666666666666667" />
<circle cx="209.36" cy="176.15" r="1.6666666666666667" />
<circle cx="209.36" cy="176.15" r="1.6666666666666667" />
<circle cx="209.36" cy="176.15" r="1.6666666666666667" />
<circle cx="209.36" cy="176.15" r="1.6666666666666667" />
<circle cx="209.36" cy="176.15" r="1.6666666666666667" />
<circle cx="209.36" cy="176.15" r="1.6666666666666667" />
<circle cx="209.36" cy="176.15" r="1.6666666666666667" />
<circle cx="209.36" cy="176.15" r="1.6666666666666667" />
<circle cx="209.36" cy="176.15" r="1.6666666666666667" />
<circle cx="209.36" cy="176.15" r="1.6666666666666667" />
<circle cx="209.36" cy="176.15" r="1.6666666666666667" />
<circle cx="209.36" cy="176.15" r="1.6666666666666667" />
<circle cx="209.36" cy="176.15" r="1.6666666666666667" />
<circle cx="209.36" cy="176.15" r="1.6666666666666667" />
<circle cx="209.36" cy="176.15" r="1.6666666666666667" />
<circle cx="209.36" cy="176.15" r="1.6666666666666667" />
<circle cx="209.36" cy="176.15" r="1.6666666666666667" />
<circle cx="209.36" cy="176.15" r="1.6666666666666667" />
<circle cx="209.36" cy="176.15" r="1.6666666666666667" />
<circle cx="209.36" cy="176.15" r="1.6666666666666667" />
<circle cx="209.36" cy="176.15" r="1.6666666666666667" />
<circle cx="209.36" cy="176.15" r="1.6666666666666667" />
<circle cx="209.36" cy="176.15" r="1.6666666666666667" />
<circle cx="209.36" cy="176.15" r="1.6666666666666667" />
<circle cx="209.36" cy="176.15" r="1.6666666666666667" />
<circle cx="209.36" cy="176.15" r="1.6666666666666667" />
<circle cx="209.36" cy="176.15" r="1.6666666666666667" />
<circle cx="209.36" cy="176.15" r="1.6666666666666667" />
<circle cx="209.36" cy="176.15" r="1.6666666666666667" />
<circle cx="209.36" cy="176.15" r="1.6666666666666667" />
<circle cx="209.36" cy="176.15" r="1.6666666666666667" />
<circle cx="209.36" cy="176.15" r="1.6666666666666667" />
<circle cx="209.36" cy="176.15" r="1.6666666666666667" />
<circle cx="209.36" cy="176.15" r="1.6666666666666667" />
<circle cx="209.36" cy="176.15" r="1.6666666666666667" />
<circle cx="209.36" cy="176.15" r="1.6666666666666667" />
<circle cx="209.36" cy="176.15" r="1.6666666666666667" />
<circle cx="209.36" cy="176.15" r="1.6666666666666667" />
<circle cx="209.36" cy="176.15" r="1.6666666666666667" />
<circle cx="209.36" cy="176.15" r="1.6666666666666667" />
<circle cx="209.36" cy="176.15" r="1.6666666666666667" />
<circle cx="209.36" cy="176.15" r="1.6666666666666667" />
<circle cx="209.36" cy="176.15" r="1.6666666666666667" />
<circle cx="209.36" cy="176.15" r="1.6666666666666667" />
<circle cx="209.36" cy="176.15" r="1.6666666666666667" />
<circle cx="209.36" cy="176.15" r="1.6666666666666667" />
<circle cx="209.36" cy="176.15" r="1.6666666666666667" />
<circle cx="209.36" cy="176.15" r="1.6666666666666667" />
<circle cx="209.36" cy="176.15" r="1.6666666666666667" />
<circle cx="209.36" cy="176.15" r="1.6666666666666667" />
<circle cx="209.36" cy="176.15" r="1.6666666666666667" />
<circle cx="209.36" cy="176.15" r="1.6666666666666667" />
<circle cx="209.36" cy="176.15" r="1.6666666666666667" />
<circle cx="209.36" cy="176.15" r="1.6666666666666667" />
<circle cx="209.36" cy="176.15" r="1.6666666666666667" />
<circle cx="209.36" cy="176.15" r="1.6666666666666667" />
<circle cx="209.36" cy="176.15" r="1.6666666666666667" />
<circle cx="209.36" cy="176.15" r="1.6666666666666667" />
<circle cx="209.36" cy="176.15" r="1.6666666666666667" />
<circle cx="209.36" cy="176.15" r="1.6666666666666667" />
<circle cx="209.36" cy="176.15" r="1.6666666666666667" />
<circle cx="209.36" cy="176.15" r="1.6666666666666667" />
<circle cx="209.36" cy="176.15" r="1.6666666666666667" />
<circle cx="209.36" cy="176.15" r="1.6666666666666667" />
<circle cx="209.36" cy="176.15" r="1.6666666666666667" />
<circle cx="209.36" cy="176.15" r="1.6666666666666667" />
<circle cx="209.36" cy="176.15" r="1.6666666666666667" />
<circle cx="209.36" cy="176.15" r="1.6666666666666667" />
<circle cx="209.36" cy="176.15" r="1.6666666666666667" />
<circle cx="209.36" cy="176.15" r="1.6666666666666667" />
<circle cx="209.36" cy="176.15" r="1.6666666666666667" />
<circle cx="209.36" cy="176.15" r="1.6666666666666667" />
<circle cx="209.36" cy="176.15" r="1.6666666666666667" />
<circle cx="209.36" cy="176.15" r="1.6666666666666667" />
<circle cx="209.36" cy="176.15" r="1.6666666666666667" />
<circle cx="209.36" cy="176.15" r="1.6666666666666667" />
<circle cx="209.36" cy="176.15" r="1.6666666666666667" />
<circle cx="209.36" cy="176.15" r="1.6666666666666667" />
<circle cx="209.36" cy="176.15" r="1.6666666666666667" />
<circle cx="209.36" cy="176.15" r="1.6666666666666667" />
<circle cx="209.36" cy="176.15" r="1.6666666666666667" />
<circle cx="209.36" cy="176.15" r="1.6666666666666667" />
<circle cx="209.36" cy="176.15" r="1.6666666666666667" />
<circle cx="209.36" cy="176.15" r="1.6666666666666667" />
<circle cx="209.36" cy="176.15" r="1.6666666666666667" />
<circle cx="209.36" cy="176.15" r="1.6666666666666667" />
<circle cx="209.36" cy="176.15" r="1.6666666666666667" />
<circle cx="209.36" cy="176.15" r="1.6666666666666667" />
<circle cx="209.36" cy="176.15" r="1.6666666666666667" />
<circle cx="209.36" cy="176.15" r="1.6666666666666667" />
<circle cx="209.36" cy="176.15" r="1.6666666666666667" />
<circle cx="209.36" cy="176.15" r="1.6666666666666667" />
<circle cx="209.36" cy="176.15" r="1.6666666666666667" />
<circle cx="209.36" cy="176.15" r="1.6666666666666667" />
<circle cx="209.36" cy="176.15" r="1.6666666666666667" />
<circle cx="209.36" cy="176.15" r="1.6666666666666667" />
<circle cx="209.36" cy="176.15" r="1.6666666666666667" />
<circle cx="209.36" cy="176.15" r="1.6666666666666667" />
<circle cx="209.36" cy="176.15" r="1.6666666666666667" />
<circle cx="209.36" cy="176.15" r="1.6666666666666667" />
<circle cx="209.36" cy="176.15" r="1.6666666666666667" />
<circle cx="209.36" cy="176.15" r="1.6666666666666667" />
<circle cx="209.36" cy="176.15" r="1.6666666666666667" />
<circle cx="209.36" cy="176.15" r="1.6666666666666667" />
<circle cx="209.36" cy="176.15" r="1.6666666666666667" />
<circle cx="209.36" cy="176.15" r="1.6666666666666667" />
<circle cx="209.36" cy="176.15" r="1.6666666666666667" />
<circle cx="209.36" cy="176.15" r="1.6666666666666667" />
<circle cx="209.36" cy="176.15" r="1.6666666666666667" />
<circle cx="209.36" cy="176.15" r="1.6666666666666667" />
<circle cx="209.36" cy="176.15" r="1.6666666666666667" />
<circle cx="209.36" cy="176.15" r="1.6666666666666667" />
<circle cx="209.36" cy="176.15" r="1.6666666666666667" />
<circle cx="209.36" cy="176.15" r="1.6666666666666667" />
<circle cx="209.36" cy="176.15" r="1.6666666666666667" />
<circle cx="209.36" cy="176.15" r="1.6666666666666667" />
<circle cx="209.36" cy="176.15" r="1.6666666666666667" />
<circle cx="209.36" cy="176.15" r="1.6666666666666667" />
<circle cx="209.36" cy="176.15" r="1.6666666666666667" />
<circle cx="209.36" cy="176.15" r="1.6666666666666667" />
<circle cx="209.36" cy="176.15" r="1.6666666666666667" />
<circle cx="209.36" cy="176.15" r="1.6666666666666667" />
<circle cx="209.36" cy="176.15" r="1.6666666666666667" />
<circle cx="209.36" cy="176.15" r="1.6666666666666667" />
<circle cx="209.36" cy="176.15" r="1.6666666666666667" />
<circle cx="209.36" cy="176.15" r="1.6666666666666667" />
<circle cx="209.36" cy="176.15" r="1.6666666666666667" />
<circle cx="209.36" cy="176.15" r="1.6666666666666667" />
<circle cx="209.36" cy="176.15" r="1.6666666666666667" />
<circle cx="209.36" cy="176.15" r="1.6666666666666667" />
<circle cx="209.36" cy="176.15" r="1.6666666666666667" />
<circle cx="209.36" cy="176.15" r="1.6666666666666667" />
<circle cx="209.36" cy="176.15" r="1.6666666666666667" />
<circle cx="209.36" cy="176.15" r="1.6666666666666667" />
<circle cx="209.36" cy="176.15" r="1.6666666666666667" />
<circle cx="209.36" cy="176.15" r="1.6666666666666667" />
<circle cx="209.36" cy="176.15" r="1.6666666666666667" />
<circle cx="209.36" cy="176.15" r="1.6666666666666667" />
<circle cx="209.36" cy="176.15" r="1.6666666666666667" />
<circle cx="209.36" cy="176.15" r="1.6666666666666667" />
<circle cx="209.36" cy="176.15" r="1.6666666666666667" />
<circle cx="209.36" cy="176.15" r="1.6666666666666667" />
<circle cx="209.36" cy="176.15" r="1.6666666666666667" />
<circle cx="209.36" cy="176.15" r="1.6666666666666667" />
<circle cx="209.36" cy="176.15" r="1.6666666666666667" />
<circle cx="209.36" cy="176.15" r="1.6666666666666667" />
<circle cx="209.36" cy="176.15" r="1.6666666666666667" />
<circle cx="209.36" cy="176.15" r="1.6666666666666667" />
<circle cx="209.36" cy="176.15" r="1.6666666666666667" />
<circle cx="209.36" cy="176.15" r="1.6666666666666667" />
<circle cx="209.36" cy="176.15" r="1.6666666666666667" />
<circle cx="209.36" cy="176.15" r="1.6666666666666667" />
<circle cx="209.36" cy="176.15" r="1.6666666666666667" />
<circle cx="209.36" cy="176.15" r="1.6666666666666667" />
<circle cx="209.36" cy="176.15" r="1.6666666666666667" />
<circle cx="209.36" cy="176.15" r="1.6666666666666667" />
<circle cx="209.36" cy="176.15" r="1.6666666666666667" />
<circle cx="209.36" cy="176.15" r="1.6666666666666667" />
<circle cx="209.36" cy="176.15" r="1.6666666666666667" />
<circle cx="209.36" cy="176.15" r="1.6666666666666667" />
<circle cx="209.36" cy="176.15" r="1.6666666666666667" />
<circle cx="209.36" cy="176.15" r="1.6666666666666667" />
<circle cx="209.36" cy="176.15" r="1.6666666666666667" />
<circle cx="209.36" cy="176.15" r="1.6666666666666667" />
<circle cx="209.36" cy="176.15" r="1.6666666666666667" />
<circle cx="209.36" cy="176.15" r="1.6666666666666667" />
<circle cx="209.36" cy="176.15" r="1.6666666666666667" />
<circle cx="209.36" cy="176.15" r="1.6666666666666667" />
<circle cx="209.36" cy="176.15" r="1.6666666666666667" />
<circle cx="209.36" cy="176.15" r="1.6666666666666667" />
<circle cx="209.36" cy="176.15" r="1.6666666666666667" />
<circle cx="209.36" cy="257.58" r="1.6666666666666667" />
<circle cx="209.36" cy="176.15" r="1.6666666666666667" />
<circle cx="209.36" cy="176.15" r="1.6666666666666667" />
<circle cx="209.36" cy="176.15" r="1.6666666666666667" />
<circle cx="209.36" cy="176.15" r="1.6666666666666667" />
<circle cx="209.36" cy="176.15" r="1.6666666666666667" />
<circle cx="209.36" cy="176.15" r="1.6666666666666667" />
<circle cx="209.36" cy="176.15" r="1.6666666666666667" />
<circle cx="209.36" cy="176.15" r="1.6666666666666667" />
<circle cx="209.36" cy="176.15" r="1.6666666666666667" />
<circle cx="209.36" cy="176.15" r="1.6666666666666667" />
<circle cx="209.36" cy="176.15" r="1.6666666666666667" />
<circle cx="209.36" cy="176.15" r="1.6666666666666667" />
<circle cx="209.36" cy="176.15" r="1.6666666666666667" />
<circle cx="209.36" cy="176.15" r="1.6666666666666667" />
<circle cx="209.38" cy="388.75" r="1.6666666666666667" />
<circle cx="209.38" cy="276.05" r="1.6666666666666667" />
<circle cx="209.38" cy="299.20" r="1.6666666666666667" />
<circle cx="209.39" cy="328.34" r="1.6666666666666667" />
<circle cx="209.41" cy="381.32" r="1.6666666666666667" />
<circle cx="209.41" cy="253.66" r="1.6666666666666667" />
<circle cx="209.41" cy="208.42" r="1.6666666666666667" />
<circle cx="209.41" cy="176.15" r="1.6666666666666667" />
<circle cx="209.41" cy="237.23" r="1.6666666666666667" />
<circle cx="209.41" cy="348.62" r="1.6666666666666667" />
<circle cx="209.68" cy="460.49" r="1.6666666666666667" />
<circle cx="209.87" cy="451.26" r="1.6666666666666667" />
<circle cx="210.06" cy="451.59" r="1.6666666666666667" />
<circle cx="210.25" cy="450.88" r="1.6666666666666667" />
<circle cx="210.44" cy="450.47" r="1.6666666666666667" />
<circle cx="210.63" cy="450.51" r="1.6666666666666667" />
<circle cx="210.80" cy="448.75" r="1.6666666666666667" />
<circle cx="210.99" cy="450.80" r="1.6666666666666667" />
<circle cx="211.18" cy="451.11" r="1.6666666666666667" />
<circle cx="211.37" cy="449.94" r="1.6666666666666667" />
<circle cx="211.56" cy="451.27" r="1.6666666666666667" />
<circle cx="211.75" cy="450.10" r="1.6666666666666667" />
<circle cx="211.94" cy="451.38" r="1.6666666666666667" />
<circle cx="212.14" cy="452.00" r="1.6666666666666667" />
<circle cx="212.33" cy="451.82" r="1.6666666666666667" />
<circle cx="212.53" cy="451.96" r="1.6666666666666667" />
<circle cx="212.71" cy="449.98" r="1.6666666666666667" />
<circle cx="212.90" cy="450.89" r="1.6666666666666667" />
<circle cx="213.10" cy="451.66" r="1.6666666666666667" />
<circle cx="213.29" cy="451.43" r="1.6666666666666667" />
<circle cx="213.49" cy="452.33" r="1.6666666666666667" />
<circle cx="213.68" cy="450.61" r="1.6666666666666667" />
<circle cx="213.87" cy="451.50" r="1.6666666666666667" />
<circle cx="214.08" cy="453.18" r="1.6666666666666667" />
<circle cx="214.27" cy="451.39" r="1.6666666666666667" />
<circle cx="214.47" cy="452.35" r="1.6666666666666667" />
<circle cx="214.66" cy="449.84" r="1.6666666666666667" />
<circle cx="214.86" cy="452.53" r="1.6666666666666667" />
<circle cx="215.06" cy="452.78" r="1.6666666666666667" />
<circle cx="215.27" cy="453.57" r="1.6666666666666667" />
<circle cx="215.47" cy="453.01" r="1.6666666666666667" />
<circle cx="215.67" cy="452.59" r="1.6666666666666667" />
<circle cx="215.87" cy="452.42" r="1.6666666666666667" />
<circle cx="216.07" cy="451.67" r="1.6666666666666667" />
<circle cx="216.27" cy="453.01" r="1.6666666666666667" />
<circle cx="216.48" cy="452.67" r="1.6666666666666667" />
<circle cx="216.67" cy="452.08" r="1.6666666666666667" />
<circle cx="216.88" cy="453.45" r="1.6666666666666667" />
<circle cx="217.08" cy="452.42" r="1.6666666666666667" />
<circle cx="217.29" cy="453.36" r="1.6666666666666667" />
<circle cx="217.49" cy="452.91" r="1.6666666666666667" />
<circle cx="217.70" cy="453.98" r="1.6666666666666667" />
<circle cx="217.92" cy="454.25" r="1.6666666666666667" />
<circle cx="218.13" cy="454.55" r="1.6666666666666667" />
<circle cx="218.34" cy="453.64" r="1.6666666666666667" />
<circle cx="218.55" cy="453.72" r="1.6666666666666667" />
<circle cx="218.76" cy="453.46" r="1.6666666666666667" />
<circle cx="218.97" cy="454.67" r="1.6666666666666667" />
<circle cx="219.20" cy="455.74" r="1.6666666666666667" />
<circle cx="219.42" cy="455.69" r="1.6666666666666667" />
<circle cx="219.64" cy="455.68" r="1.6666666666666667" />
<circle cx="219.86" cy="455.06" r="1.6666666666666667" />
<circle cx="220.09" cy="456.42" r="1.6666666666666667" />
<circle cx="220.32" cy="456.60" r="1.6666666666666667" />
<circle cx="220.55" cy="456.25" r="1.6666666666666667" />
<circle cx="220.77" cy="455.25" r="1.6666666666666667" />
<circle cx="220.98" cy="454.21" r="1.6666666666666667" />
<circle cx="221.21" cy="456.12" r="1.6666666666666667" />
<circle cx="221.44" cy="456.85" r="1.6666666666666667" />
<circle cx="221.67" cy="455.70" r="1.6666666666666667" />
<circle cx="221.88" cy="454.65" r="1.6666666666666667" />
<circle cx="222.11" cy="456.36" r="1.6666666666666667" />
<circle cx="222.34" cy="456.02" r="1.6666666666666667" />
<circle cx="222.56" cy="455.65" r="1.6666666666666667" />
<circle cx="222.79" cy="455.81" r="1.6666666666666667" />
<circle cx="223.01" cy="454.94" r="1.6666666666666667" />
<circle cx="223.24" cy="456.53" r="1.6666666666666667" />
<circle cx="223.46" cy="455.77" r="1.6666666666666667" />
<circle cx="223.68" cy="454.52" r="1.6666666666666667" />
<circle cx="223.90" cy="455.53" r="1.6666666666666667" />
<circle cx="224.12" cy="456.12" r="1.6666666666666667" />
<circle cx="224.35" cy="455.52" r="1.6666666666666667" />
<circle cx="224.57" cy="456.12" r="1.6666666666666667" />
<circle cx="224.79" cy="454.49" r="1.6666666666666667" />
<circle cx="225.01" cy="455.19" r="1.6666666666666667" />
<circle cx="225.24" cy="456.66" r="1.6666666666666667" />
<circle cx="225.47" cy="457.08" r="1.6666666666666667" />
<circle cx="225.70" cy="455.76" r="1.6666666666666667" />
<circle cx="225.92" cy="455.76" r="1.6666666666666667" />
<circle cx="226.16" cy="457.39" r="1.6666666666666667" />
<circle cx="226.40" cy="457.08" r="1.6666666666666667" />
<circle cx="226.62" cy="455.38" r="1.6666666666666667" />
<circle cx="226.85" cy="457.44" r="1.6666666666666667" />
<circle cx="227.09" cy="456.80" r="1.6666666666666667" />
<circle cx="227.31" cy="456.17" r="1.6666666666666667" />
<circle cx="227.55" cy="456.84" r="1.6666666666666667" />
<circle cx="227.78" cy="456.77" r="1.6666666666666667" />
<circle cx="228.01" cy="456.54" r="1.6666666666666667" />
<circle cx="228.24" cy="456.84" r="1.6666666666666667" />
<circle cx="228.46" cy="455.31" r="1.6666666666666667" />
<circle cx="228.70" cy="457.34" r="1.6666666666666667" />
<circle cx="228.94" cy="457.24" r="1.6666666666666667" />
<circle cx="229.18" cy="457.79" r="1.6666666666666667" />
<circle cx="229.41" cy="456.61" r="1.6666666666666667" />
<circle cx="229.64" cy="456.31" r="1.6666666666666667" />
<circle cx="229.87" cy="457.27" r="1.6666666666666667" />
<circle cx="230.11" cy="457.68" r="1.6666666666666667" />
<circle cx="230.35" cy="457.71" r="1.6666666666666667" />
<circle cx="230.59" cy="458.18" r="1.6666666666666667" />
<circle cx="230.83" cy="457.32" r="1.6666666666666667" />
<circle cx="231.07" cy="457.54" r="1.6666666666666667" />
<circle cx="231.31" cy="457.67" r="1.6666666666666667" />
<circle cx="231.54" cy="457.15" r="1.6666666666666667" />
<circle cx="231.78" cy="457.74" r="1.6666666666666667" />
<circle cx="232.03" cy="458.20" r="1.6666666666666667" />
<circle cx="232.26" cy="457.38" r="1.6666666666666667" />
<circle cx="232.51" cy="457.91" r="1.6666666666666667" />
<circle cx="232.74" cy="457.50" r="1.6666666666666667" />
<circle cx="232.89" cy="443.57" r="1.6666666666666667" />
<circle cx="233.04" cy="444.38" r="1.6666666666666667" />
<circle cx="233.21" cy="446.06" r="1.6666666666666667" />
<circle cx="233.34" cy="440.88" r="1.6666666666666667" />
<circle cx="233.48" cy="441.15" r="1.6666666666666667" />
<circle cx="233.61" cy="440.84" r="1.6666666666666667" />
<circle cx="233.69" cy="423.02" r="1.6666666666666667" />
<circle cx="233.70" cy="370.43" r="1.6666666666666667" />
<circle cx="233.72" cy="383.75" r="1.6666666666666667" />
<circle cx="233.88" cy="446.51" r="1.6666666666666667" />
<circle cx="233.93" cy="408.58" r="1.6666666666666667" />
</g>
<g stroke="black">
<line x1="828.41" x2="828.41" y1="510.00" y2="520.00" />
<line x1="785.75" x2="785.75" y1="510.00" y2="520.00" />
<line x1="741.68" x2="741.68" y1="510.00" y2="520.00" />
<line x1="700.44" x2="700.44" y1="510.00" y2="520.00" />
<line x1="656.36" x2="656.36" y1="510.00" y2="520.00" />
<line x1="612.28" x2="612.28" y1="510.00" y2="520.00" />
<line x1="569.63" x2="569.63" y1="510.00" y2="520.00" />
<line x1="525.55" x2="525.55" y1="510.00" y2="520.00" />
<line x1="482.89" x2="482.89" y1="510.00" y2="520.00" />
<line x1="438.81" x2="438.81" y1="510.00" y2="520.00" />
<line x1="394.73" x2="394.73" y1="510.00" y2="520.00" />
<line x1="352.08" x2="352.08" y1="510.00" y2="520.00" />
<line x1="308.00" x2="308.00" y1="510.00" y2="520.00" />
<line x1="265.34" x2="265.34" y1="510.00" y2="520.00" />
<line x1="221.26" x2="221.26" y1="510.00" y2="520.00" />
<line x1="181.45" x2="181.45" y1="510.00" y2="520.00" />
<g fill="black" font-family="Arial, sans-serif" font-size="18.0" stroke="none" text-anchor="start" transform="translate(9.0 0.0)">
<text x="828.41" y="530.57">May</text>
<text x="785.75" y="530.57">Apr</text>
<text x="741.68" y="530.57">Mar</text>
<text x="700.44" y="530.57">Feb</text>
<text x="656.36" y="530.57">Jan</text>
<text x="612.28" y="530.57">Dec</text>
<text x="569.63" y="530.57">Nov</text>
<text x="525.55" y="530.57">Oct</text>
<text x="482.89" y="530.57">Sep</text>
<text x="438.81" y="530.57">Aug</text>
<text x="394.73" y="530.57">Jul</text>
<text x="352.08" y="530.57">Jun</text>
<text x="308.00" y="530.57">May</text>
<text x="265.34" y="530.57">Apr</text>
<text x="221.26" y="530.57">Mar</text>
<text x="181.45" y="530.57">Feb</text>
</g>
<line x1="150.00" x2="850.00" y1="510.00" y2="510.00" />
</g>
<g stroke="black">
<line x1="150.00" x2="140.00" y1="510.00" y2="510.00" />
<line x1="150.00" x2="140.00" y1="216.29" y2="216.29" />
<g fill="black" font-family="Arial, sans-serif" font-size="18.0" stroke="none" text-anchor="end">
<text x="141.00" y="501.00">0</text>
<text x="141.00" y="207.29">10</text>
</g>
<line x1="150.00" x2="150.00" y1="510.00" y2="90.00" />
</g>
</g>
</svg>