<?xml version="1.0"?>
<svg version="1.1" viewBox="0 0 1000 600" xmlns:xlink="http://www.w3.org/1999/xlink" xmlns="http://www.w3.org/2000/svg">
<g>
<g stroke-dasharray="3.6 7.2" stroke-width="0.72" stroke="#caa">
<line x1="813.75" x2="813.75" y1="510.00" y2="90.00" />
<line x1="760.60" x2="760.60" y1="510.00" y2="90.00" />
<line x1="707.45" x2="707.45" y1="510.00" y2="90.00" />
<line x1="656.01" x2="656.01" y1="510.00" y2="90.00" />
<line x1="602.86" x2="602.86" y1="510.00" y2="90.00" />
<line x1="551.42" x2="551.42" y1="510.00" y2="90.00" />
<line x1="498.27" x2="498.27" y1="510.00" y2="90.00" />
<line x1="445.11" x2="445.11" y1="510.00" y2="90.00" />
<line x1="393.68" x2="393.68" y1="510.00" y2="90.00" />
<line x1="340.52" x2="340.52" y1="510.00" y2="90.00" />
<line x1="289.09" x2="289.09" y1="510.00" y2="90.00" />
<line x1="235.93" x2="235.93" y1="510.00" y2="90.00" />
<line x1="187.92" x2="187.92" y1="510.00" y2="90.00" />
<line x1="150.00" x2="850.00" y1="510.00" y2="510.00" />
<line x1="150.00" x2="850.00" y1="216.29" y2="216.29" />
</g>
<g>
<text dominant-baseline="hanging" dx="-36.0" dy="18.0" fill="#0004" font-family="Arial, sans-serif" font-size="36" stroke="none" text-anchor="end" x="850.00" y="128.18">FR3</text>
</g>
<g>
<text dominant-baseline="text-bottom" dy="-12.0" fill="black" font-family="Arial, sans-serif" font-size="18.0" font-style="italic" stroke="none" text-anchor="middle" x="500.00" y="90.00">Years 2023 to 2024</text>
</g>
<g>
<text dominant-baseline="central" dx="12.0" dy="12.0" fill="black" font-family="Arial, sans-serif" font-size="18.0" font-style="italic" stroke="none" text-anchor="middle" text-orientation="sideways" writing-mode="vertical-lr" x="850.00" y="300.00">log(Drips per day)</text>
</g>
<polyline fill="none" points="150.27,456.21 150.55,456.65 150.83,456.52 151.11,457.04 151.40,457.14 151.67,456.37 151.95,456.65 152.23,456.35 152.51,457.12 152.56,405.31 221.51,384.00 221.51,257.58 221.51,261.04 221.51,272.95 221.51,259.36 221.56,405.51 221.56,237.23 221.56,216.87 221.56,196.51 221.56,176.15 221.56,176.15 221.56,176.15 221.56,176.15 221.56,176.15 221.56,176.15 221.56,176.15 221.56,176.15 221.56,176.15 221.56,176.15 221.56,176.15 221.56,176.15 221.56,176.15 221.56,176.15 221.56,176.15 221.56,176.15 221.56,176.15 221.56,176.15 221.56,176.15 221.56,176.15 221.56,176.15 221.56,176.15 221.56,176.15 221.56,176.15 221.56,176.15 221.56,176.15 221.56,176.15 221.56,176.15 221.56,176.15 221.56,176.15 221.56,176.15 221.56,176.15 221.56,176.15 221.56,176.15 221.56,176.15 221.56,176.15 221.56,176.15 221.56,176.15 221.56,176.15 221.56,176.15 221.56,176.15 221.56,176.15 221.56,176.15 221.56,176.15 221.56,176.15 221.56,176.15 221.56,176.15 221.56,176.15 221.56,176.15 221.56,176.15 221.56,176.15 221.56,176.15 221.56,176.15 221.56,176.15 221.56,176.15 221.56,176.15 221.56,176.15 221.56,176.15 221.56,176.15 221.56,176.15 221.56,176.15 221.56,176.15 221.56,176.15 221.57,176.15 221.57,176.15 221.57,176.15 221.57,176.15 221.57,176.15 221.57,196.51 221.57,176.15 221.57,176.15 221.57,176.15 221.57,176.15 221.57,176.15 221.57,176.15 221.57,176.15 221.57,176.15 221.57,176.15 221.57,176.15 221.57,176.15 221.57,176.15 221.57,176.15 221.57,176.15 221.57,176.15 221.57,176.15 221.57,176.15 221.57,176.15 221.57,176.15 221.57,176.15 221.57,176.15 221.57,176.15 221.57,176.15 221.57,176.15 221.57,176.15 221.57,176.15 221.57,176.15 221.57,176.15 221.57,176.15 221.57,176.15 221.57,176.15 221.57,176.15 221.57,176.15 221.57,176.15 221.57,176.15 221.57,176.15 221.57,176.15 221.57,176.15 221.57,176.15 221.57,176.15 221.57,176.15 221.57,176.15 221.57,176.15 221.57,176.15 221.57,176.15 221.57,176.15 221.57,176.15 221.57,176.15 221.57,176.15 221.57,176.15 221.57,176.15 221.57,176.15 221.57,176.15 221.57,176.15 221.57,176.15 221.57,176.15 221.57,176.15 221.57,176.15 221.57,176.15 221.57,176.15 221.57,176.15 221.57,257.58 221.57,176.15 221.57,176.15 221.57,176.15 221.57,176.15 221.57,176.15 221.57,176.15 221.57,176.15 221.57,176.15 221.57,176.15 221.57,176.15 221.57,176.15 221.57,176.15 221.57,176.15 221.57,176.15 221.57,176.15 221.57,176.15 221.57,176.15 221.57,176.15 221.57,176.15 221.57,176.15 221.57,176.15 221.57,176.15 221.57,176.15 221.57,176.15 221.57,176.15 221.57,176.15 221.57,176.15 221.57,176.15 221.57,176.15 221.57,176.15 221.57,176.15 221.57,176.15 221.57,176.15 221.57,176.15 221.57,176.15 221.57,176.15 221.57,176.15 221.57,176.15 221.57,176.15 221.57,176.15 221.57,176.15 221.57,176.15 221.57,176.15 221.57,176.15 221.57,176.15 221.57,176.15 221.57,176.15 221.57,176.15 221.57,176.15 221.57,176.15 221.57,176.15 221.57,176.15 221.57,176.15 221.57,176.15 221.57,176.15 221.57,176.15 221.57,176.15 221.57,176.15 221.57,176.15 221.57,176.15 221.57,176.15 221.57,176.15 221.57,176.15 221.57,176.15 221.57,176.15 221.57,176.15 221.57,176.15 221.57,176.15 221.57,176.15 221.57,176.15 221.57,176.15 221.57,176.15 221.57,176.15 221.57,176.15 221.57,176.15 221.57,176.15 221.57,176.15 221.57,176.15 221.57,176.15 221.57,176.15 221.57,176.15 221.57,176.15 221.57,176.15 221.57,176.15 221.57,176.15 221.57,176.15 221.57,176.15 221.57,176.15 221.57,176.15 221.57,176.15 221.57,176.15 221.57,176.15 221.57,176.15 221.57,176.15 221.57,176.15 221.57,176.15 221.57,176.15 221.57,176.15 221.57,176.15 221.57,176.15 221.57,176.15 221.57,176.15 221.57,176.15 221.57,176.15 221.57,176.15 221.57,176.15 221.57,176.15 221.57,176.15 221.57,176.15 221.57,176.15 221.57,176.15 221.57,176.15 221.57,176.15 221.57,176.15 221.57,176.15 221.57,176.15 221.57,176.15 221.57,176.15 221.57,176.15 221.57,176.15 221.57,176.15 221.57,176.15 221.57,176.15 221.57,176.15 221.57,176.15 221.57,176.15 221.57,176.15 221.57,176.15 221.57,176.15 221.57,176.15 221.57,176.15 221.57,176.15 221.57,176.15 221.57,176.15 221.57,176.15 221.57,176.15 221.57,176.15 221.57,257.58 221.57,176.15 221.57,176.15 221.57,176.15 221.57,176.15 221.57,176.15 221.57,176.15 221.57,176.15 221.57,176.15 221.57,176.15 221.57,176.15 221.57,257.58 221.57,176.15 221.57,176.15 221.57,176.15 221.57,176.15 221.57,176.15 221.57,176.15 221.57,176.15 221.57,176.15 221.57,176.15 221.57,176.15 221.57,176.15 221.57,176.15 221.57,176.15 221.57,176.15 221.57,176.15 221.57,176.15 221.57,176.15 221.57,176.15 221.57,176.15 221.57,176.15 221.57,176.15 221.57,176.15 221.57,176.15 221.57,176.15 221.57,176.15 221.57,176.15 221.57,176.15 221.57,176.15 221.57,176.15 221.57,176.15 221.57,176.15 221.57,176.15 221.57,176.15 221.57,176.15 221.57,176.15 221.57,176.15 221.57,176.15 221.57,176.15 221.57,176.15 221.57,176.15 221.57,176.15 221.57,176.15 221.57,176.15 221.57,176.15 221.57,176.15 221.57,176.15 221.57,176.15 221.57,176.15 221.57,176.15 221.57,176.15 221.57,176.15 221.57,176.15 221.57,176.15 221.57,176.15 221.57,176.15 221.57,176.15 221.57,176.15 221.57,176.15 221.57,176.15 221.57,176.15 221.57,176.15 221.57,176.15 221.57,176.15 221.57,176.15 221.57,176.15 221.57,176.15 221.57,176.15 221.57,176.15 221.57,176.15 221.57,176.15 221.57,176.15 221.57,176.15 221.57,176.15 221.57,176.15 221.57,176.15 221.57,176.15 221.57,176.15 221.57,176.15 221.57,176.15 221.57,176.15 221.57,176.15 221.57,176.15 221.57,176.15 221.57,176.15 221.57,176.15 221.57,176.15 221.57,176.15 221.57,176.15 221.57,176.15 221.57,176.15 221.57,176.15 221.57,176.15 221.57,176.15 221.57,176.15 221.57,176.15 221.57,257.58 221.57,176.15 221.57,176.15 221.57,176.15 221.57,176.15 221.57,176.15 221.57,176.15 221.57,176.15 221.57,176.15 221.57,176.15 221.57,176.15 221.57,176.15 221.57,176.15 221.57,176.15 221.57,176.15 221.57,176.15 221.57,176.15 221.57,176.15 221.57,176.15 221.57,176.15 221.57,176.15 221.57,176.15 221.57,176.15 221.57,176.15 221.57,176.15 221.57,176.15 221.57,176.15 221.57,176.15 221.57,176.15 221.57,176.15 221.57,176.15 221.57,176.15 221.57,176.15 221.57,176.15 221.57,176.15 221.57,176.15 221.57,176.15 221.57,176.15 221.57,176.15 221.57,176.15 221.57,196.51 221.57,176.15 221.57,176.15 221.57,176.15 221.57,176.15 221.57,257.58 221.57,176.15 221.57,176.15 221.57,176.15 221.58,314.74 221.58,176.15 221.58,176.15 221.58,176.15 221.58,176.15 221.58,176.15 221.58,176.15 221.58,176.15 221.58,176.15 221.58,176.15 221.58,176.15 221.58,176.15 221.58,176.15 221.58,176.15 221.58,176.15 221.58,176.15 221.58,176.15 221.58,176.15 221.58,176.15 221.58,176.15 221.58,176.15 221.58,176.15 221.58,176.15 221.58,176.15 221.58,176.15 221.58,176.15 221.58,176.15 221.58,176.15 221.58,176.15 221.58,176.15 221.58,176.15 221.58,176.15 221.58,176.15 221.58,176.15 221.58,176.15 221.58,176.15 221.58,176.15 221.58,176.15 221.58,176.15 221.58,176.15 221.58,176.15 221.58,176.15 221.58,176.15 221.58,176.15 221.58,176.15 221.58,176.15 221.58,176.15 221.58,176.15 221.58,176.15 221.58,176.15 221.58,176.15 221.58,176.15 221.58,176.15 221.58,176.15 221.58,176.15 221.58,176.15 221.58,176.15 221.58,176.15 221.58,176.15 221.58,176.15 221.58,176.15 221.58,176.15 221.58,176.15 221.58,176.15 221.58,176.15 221.58,176.15 221.58,176.15 221.58,176.15 221.58,176.15 221.58,176.15 221.58,176.15 221.58,176.15 221.58,176.15 221.58,176.15 221.58,176.15 221.58,176.15 221.58,176.15 221.58,176.15 221.58,176.15 221.58,176.15 221.58,176.15 221.58,176.15 221.58,176.15 221.58,176.15 221.58,176.15 221.58,176.15 221.58,176.15 221.58,176.15 221.58,176.15 221.58,176.15 221.58,176.15 221.58,176.15 221.58,176.15 221.58,176.15 221.58,176.15 221.58,176.15 221.58,176.15 221.58,176.15 221.58,176.15 221.58,176.15 221.58,176.15 221.58,176.15 221.58,176.15 221.58,176.15 221.58,176.15 221.58,176.15 221.58,176.15 221.58,176.15 221.58,176.15 221.58,176.15 221.58,176.15 221.58,176.15 221.58,176.15 221.58,176.15 221.58,176.15 221.58,176.15 221.58,176.15 221.58,176.15 221.58,176.15 221.58,176.15 221.58,176.15 221.58,176.15 221.58,176.15 221.58,176.15 221.58,176.15 221.58,176.15 221.58,176.15 221.58,176.15 221.58,176.15 221.58,176.15 221.58,176.15 221.58,176.15 221.58,176.15 221.58,176.15 221.58,176.15 221.58,176.15 221.58,176.15 221.58,176.15 221.58,176.15 221.58,176.15 221.58,176.15 221.58,176.15 221.58,176.15 221.58,176.15 221.58,176.15 221.58,176.15 221.58,176.15 221.58,176.15 221.58,176.15 221.58,176.15 221.58,176.15 221.58,176.15 221.58,176.15 221.58,176.15 221.58,176.15 221.58,176.15 221.58,176.15 221.58,176.15 221.58,176.15 221.58,176.15 221.58,176.15 221.58,176.15 221.58,176.15 221.58,176.15 221.58,176.15 221.58,176.15 221.58,176.15 221.58,176.15 221.58,176.15 221.58,176.15 221.58,176.15 221.58,176.15 221.58,176.15 221.58,176.15 221.58,176.15 221.58,176.15 221.58,176.15 221.58,176.15 221.58,176.15 221.58,176.15 221.58,176.15 221.58,176.15 221.58,176.15 221.58,176.15 221.58,176.15 221.58,176.15 221.58,176.15 221.58,257.58 221.58,176.15 221.58,176.15 221.58,176.15 221.58,176.15 221.58,176.15 221.58,176.15 221.58,176.15 221.58,176.15 221.58,176.15 221.58,176.15 221.58,176.15 221.58,176.15 221.58,176.15 221.58,176.15 221.61,388.75 221.61,276.05 221.61,299.20 221.61,328.34 221.63,381.32 221.63,253.66 221.64,208.42 221.64,176.15 221.64,237.23 221.64,348.62 221.96,460.49 222.19,451.26 222.43,451.59 222.66,450.88 222.88,450.47 223.11,450.51 223.32,448.75 223.55,450.80 223.78,451.11 224.00,449.94 224.23,451.27 224.46,450.10 224.69,451.38 224.93,452.00 225.16,451.82 225.40,451.96 225.62,449.98 225.85,450.89 226.09,451.66 226.32,451.43 226.56,452.33 226.79,450.61 227.02,451.50 227.27,453.18 227.50,451.39 227.75,452.35 227.97,449.84 228.21,452.53 228.45,452.78 228.70,453.57 228.95,453.01 229.19,452.59 229.43,452.42 229.67,451.67 229.92,453.01 230.16,452.67 230.40,452.08 230.65,453.45 230.89,452.42 231.14,453.36 231.38,452.91 231.64,453.98 231.90,454.25 232.16,454.55 232.41,453.64 232.66,453.72 232.91,453.46 233.17,454.67 233.44,455.74 233.71,455.69 233.98,455.68 234.24,455.06 234.52,456.42 234.80,456.60 235.07,456.25 235.34,455.25 235.60,454.21 235.87,456.12 236.15,456.85 236.42,455.70 236.68,454.65 236.96,456.36 237.23,456.02 237.50,455.65 237.77,455.81 238.03,454.94 238.31,456.53 238.58,455.77 238.84,454.52 239.11,455.53 239.38,456.12 239.65,455.52 239.93,456.12 240.19,454.49 240.45,455.19 240.73,456.66 241.01,457.08 241.28,455.76 241.55,455.76 241.84,457.39 242.12,457.08 242.39,455.38 242.68,457.44 242.96,456.80 243.23,456.17 243.51,456.84 243.79,456.77 244.07,456.54 244.35,456.84 244.62,455.31 244.90,457.34 245.19,457.24 245.47,457.79 245.75,456.61 246.03,456.31 246.31,457.27 246.60,457.68 246.89,457.71 247.19,458.18 247.47,457.32 247.76,457.54 248.05,457.67 248.33,457.15 248.62,457.74 248.91,458.20 249.20,457.38 249.49,457.91 249.78,457.50 249.96,443.57 250.14,444.38 250.33,446.06 250.50,440.88 250.66,441.15 250.82,440.84 250.91,423.02 250.93,370.43 250.95,383.75 251.15,446.51 251.20,408.58 178.96,486.55 179.78,488.22 180.57,487.24 181.42,489.44 182.28,489.72 182.98,483.75 183.63,481.44 184.34,484.22 184.99,481.34 185.68,483.48 186.46,486.68 187.20,485.64 187.92,484.41 188.69,486.56 189.52,488.59 190.24,484.40 191.04,487.50 191.84,487.71 192.55,484.38 193.37,488.16 194.02,481.69 194.78,485.99 195.46,482.60 196.20,485.67 196.97,486.24 197.69,484.60 198.47,486.81 199.29,488.48" stroke-dasharray="3.6 3.6" stroke-width="3.6" stroke="#aaa" />
<g>
<circle cx="150.27" cy="456.21" r="1.6666666666666667" />
<circle cx="150.55" cy="456.65" r="1.6666666666666667" />
<circle cx="150.83" cy="456.52" r="1.6666666666666667" />
<circle cx="151.11" cy="457.04" r="1.6666666666666667" />
<circle cx="151.40" cy="457.14" r="1.6666666666666667" />
<circle cx="151.67" cy="456.37" r="1.6666666666666667" />
<circle cx="151.95" cy="456.65" r="1.6666666666666667" />
<circle cx="152.23" cy="456.35" r="1.6666666666666667" />
<circle cx="152.51" cy="457.12" r="1.6666666666666667" />
<circle cx="152.56" cy="405.31" r="1.6666666666666667" />
<circle cx="178.96" cy="486.55" r="1.6666666666666667" />
<circle cx="179.78" cy="488.22" r="1.6666666666666667" />
<circle cx="180.57" cy="487.24" r="1.6666666666666667" />
<circle cx="181.42" cy="489.44" r="1.6666666666666667" />
<circle cx="182.28" cy="489.72" r="1.6666666666666667" />
<circle cx="182.98" cy="483.75" r="1.6666666666666667" />
<circle cx="183.63" cy="481.44" r="1.6666666666666667" />
<circle cx="184.34" cy="484.22" r="1.6666666666666667" />
<circle cx="184.99" cy="481.34" r="1.6666666666666667" />
<circle cx="185.68" cy="483.48" r="1.6666666666666667" />
<circle cx="186.46" cy="486.68" r="1.6666666666666667" />
<circle cx="187.20" cy="485.64" r="1.6666666666666667" />
<circle cx="187.92" cy="484.41" r="1.6666666666666667" />
<circle cx="188.69" cy="486.56" r="1.6666666666666667" />
<circle cx="189.52" cy="488.59" r="1.6666666666666667" />
<circle cx="190.24" cy="484.40" r="1.6666666666666667" />
<circle cx="191.04" cy="487.50" r="1.6666666666666667" />
<circle cx="191.84" cy="487.71" r="1.6666666666666667" />
<circle cx="192.55" cy="484.38" r="1.6666666666666667" />
<circle cx="193.37" cy="488.16" r="1.6666666666666667" />
<circle cx="194.02" cy="481.69" r="1.6666666666666667" />
<circle cx="194.78" cy="485.99" r="1.6666666666666667" />
<circle cx="195.46" cy="482.60" r="1.6666666666666667" />
<circle cx="196.20" cy="485.67" r="1.6666666666666667" />
<circle cx="196.97" cy="486.24" r="1.6666666666666667" />
<circle cx="197.69" cy="484.60" r="1.6666666666666667" />
<circle cx="198.47" cy="486.81" r="1.6666666666666667" />
<circle cx="199.29" cy="488.48" r="1.6666666666666667" />
<circle cx="221.51" cy="384.00" r="1.6666666666666667" />
<circle cx="221.51" cy="257.58" r="1.6666666666666667" />
<circle cx="221.51" cy="261.04" r="1.6666666666666667" />
<circle cx="221.51" cy="272.95" r="1.6666666666666667" />
<circle cx="221.51" cy="259.36" r="1.6666666666666667" />
<circle cx="221.56" cy="405.51" r="1.6666666666666667" />
<circle cx="221.56" cy="237.23" r="1.6666666666666667" />
<circle cx="221.56" cy="216.87" r="1.6666666666666667" />
<circle cx="221.56" cy="196.51" r="1.6666666666666667" />
<circle cx="221.56" cy="176.15" r="1.6666666666666667" />
<circle cx="221.56" cy="176.15" r="1.6666666666666667" />
<circle cx="221.56" cy="176.15" r="1.6666666666666667" />
<circle cx="221.56" cy="176.15" r="1.6666666666666667" />
<circle cx="221.56" cy="176.15" r="1.6666666666666667" />
<circle cx="221.56" cy="176.15" r="1.6666666666666667" />
<circle cx="221.56" cy="176.15" r="1.6666666666666667" />
<circle cx="221.56" cy="176.15" r="1.6666666666666667" />
<circle cx="221.56" cy="176.15" r="1.6666666666666667" />
<circle cx="221.56" cy="176.15" r="1.6666666666666667" />
<circle cx="221.56" cy="176.15" r="1.6666666666666667" />
<circle cx="221.56" cy="176.15" r="1.6666666666666667" />
<circle cx="221.56" cy="176.15" r="1.6666666666666667" />
<circle cx="221.56" cy="176.15" r="1.6666666666666667" />
<circle cx="221.56" cy="176.15" r="1.6666666666666667" />
<circle cx="221.56" cy="176.15" r="1.6666666666666667" />
<circle cx="221.56" cy="176.15" r="1.6666666666666667" />
<circle cx="221.56" cy="176.15" r="1.6666666666666667" />
<circle cx="221.56" cy="176.15" r="1.6666666666666667" />
<circle cx="221.56" cy="176.15" r="1.6666666666666667" />
<circle cx="221.56" cy="176.15" r="1.6666666666666667" />
<circle cx="221.56" cy="176.15" r="1.6666666666666667" />
<circle cx="221.56" cy="176.15" r="1.6666666666666667" />
<circle cx="221.56" cy="176.15" r="1.6666666666666667" />
<circle cx="221.56" cy="176.15" r="1.6666666666666667" />
<circle cx="221.56" cy="176.15" r="1.6666666666666667" />
<circle cx="221.56" cy="176.15" r="1.6666666666666667" />
<circle cx="221.56" cy="176.15" r="1.6666666666666667" />
<circle cx="221.56" cy="176.15" r="1.6666666666666667" />
<circle cx="221.56" cy="176.15" r="1.6666666666666667" />
<circle cx="221.56" cy="176.15" r="1.6666666666666667" />
<circle cx="221.56" cy="176.15" r="1.6666666666666667" />
<circle cx="221.56" cy="176.15" r="1.6666666666666667" />
<circle cx="221.56" cy="176.15" r="1.6666666666666667" />
<circle cx="221.56" cy="176.15" r="1.6666666666666667" />
<circle cx="221.56" cy="176.15" r="1.6666666666666667" />
<circle cx="221.56" cy="176.15" r="1.6666666666666667" />
<circle cx="221.56" cy="176.15" r="1.6666666666666667" />
<circle cx="221.56" cy="176.15" r="1.6666666666666667" />
<circle cx="221.56" cy="176.15" r="1.6666666666666667" />
<circle cx="221.56" cy="176.15" r="1.6666666666666667" />
<circle cx="221.56" cy="176.15" r="1.6666666666666667" />
<circle cx="221.56" cy="176.15" r="1.6666666666666667" />
<circle cx="221.56" cy="176.15" r="1.6666666666666667" />
<circle cx="221.56" cy="176.15" r="1.6666666666666667" />
<circle cx="221.56" cy="176.15" r="1.6666666666666667" />
<circle cx="221.56" cy="176.15" r="1.6666666666666667" />
<circle cx="221.56" cy="176.15" r="1.6666666666666667" />
<circle cx="221.56" cy="176.15" r="1.6666666666666667" />
<circle cx="221.56" cy="176.15" r="1.6666666666666667" />
<circle cx="221.56" cy="176.15" r="1.6666666666666667" />
<circle cx="221.56" cy="176.15" r="1.6666666666666667" />
<circle cx="221.56" cy="176.15" r="1.6666666666666667" />
<circle cx="221.56" cy="176.15" r="1.6666666666666667" />
<circle cx="221.56" cy="176.15" r="1.6666666666666667" />
<circle cx="221.56" cy="176.15" r="1.6666666666666667" />
<circle cx="221.56" cy="176.15" r="1.6666666666666667" />
<circle cx="221.56" cy="176.15" r="1.6666666666666667" />
<circle cx="221.56" cy="176.15" r="1.6666666666666667" />
<circle cx="221.56" cy="176.15" r="1.6666666666666667" />
<circle cx="221.56" cy="176.15" r="1.6666666666666667" />
<circle cx="221.56" cy="176.15" r="1.6666666666666667" />
<circle cx="221.56" cy="176.15" r="1.6666666666666667" />
<circle cx="221.57" cy="176.15" r="1.6666666666666667" />
<circle cx="221.57" cy="176.15" r="1.6666666666666667" />
<circle cx="221.57" cy="176.15" r="1.6666666666666667" />
<circle cx="221.57" cy="176.15" r="1.6666666666666667" />
<circle cx="221.57" cy="176.15" r="1.6666666666666667" />
<circle cx="221.57" cy="196.51" r="1.6666666666666667" />
<circle cx="221.57" cy="176.15" r="1.6666666666666667" />
<circle cx="221.57" cy="176.15" r="1.6666666666666667" />
<circle cx="221.57" cy="176.15" r="1.6666666666666667" />
<circle cx="221.57" cy="176.15" r="1.6666666666666667" />
<circle cx="221.57" cy="176.15" r="1.6666666666666667" />
<circle cx="221.57" cy="176.15" r="1.6666666666666667" />
<circle cx="221.57" cy="176.15" r="1.6666666666666667" />
<circle cx="221.57" cy="176.15" r="1.6666666666666667" />
<circle cx="221.57" cy="176.15" r="1.6666666666666667" />
<circle cx="221.57" cy="176.15" r="1.6666666666666667" />
<circle cx="221.57" cy="176.15" r="1.6666666666666667" />
<circle cx="221.57" cy="176.15" r="1.6666666666666667" />
<circle cx="221.57" cy="176.15" r="1.6666666666666667" />
<circle cx="221.57" cy="176.15" r="1.6666666666666667" />
<circle cx="221.57" cy="176.15" r="1.6666666666666667" />
<circle cx="221.57" cy="176.15" r="1.6666666666666667" />
<circle cx="221.57" cy="176.15" r="1.6666666666666667" />
<circle cx="221.57" cy="176.15" r="1.6666666666666667" />
<circle cx="221.57" cy="176.15" r="1.6666666666666667" />
<circle cx="221.57" cy="176.15" r="1.6666666666666667" />
<circle cx="221.57" cy="176.15" r="1.6666666666666667" />
<circle cx="221.57" cy="176.15" r="1.6666666666666667" />
<circle cx="221.57" cy="176.15" r="1.6666666666666667" />
<circle cx="221.57" cy="176.15" r="1.6666666666666667" />
<circle cx="221.57" cy="176.15" r="1.6666666666666667" />
<circle cx="221.57" cy="176.15" r="1.6666666666666667" />
<circle cx="221.57" cy="176.15" r="1.6666666666666667" />
<circle cx="221.57" cy="176.15" r="1.6666666666666667" />
<circle cx="221.57" cy="176.15" r="1.6666666666666667" />
<circle cx="221.57" cy="176.15" r="1.6666666666666667" />
<circle cx="221.57" cy="176.15" r="1.6666666666666667" />
<circle cx="221.57" cy="176.15" r="1.6666666666666667" />
<circle cx="221.57" cy="176.15" r="1.6666666666666667" />
<circle cx="221.57" cy="176.15" r="1.6666666666666667" />
<circle cx="221.57" cy="176.15" r="1.6666666666666667" />
<circle cx="221.57" cy="176.15" r="1.6666666666666667" />
<circle cx="221.57" cy="176.15" r="1.6666666666666667" />
<circle cx="221.57" cy="176.15" r="1.6666666666666667" />
<circle cx="221.57" cy="176.15" r="1.6666666666666667" />
<circle cx="221.57" cy="176.15" r="1.6666666666666667" />
<circle cx="221.57" cy="176.15" r="1.6666666666666667" />
<circle cx="221.57" cy="176.15" r="1.6666666666666667" />
<circle cx="221.57" cy="176.15" r="1.6666666666666667" />
<circle cx="221.57" cy="176.15" r="1.6666666666666667" />
<circle cx="221.57" cy="176.15" r="1.6666666666666667" />
<circle cx="221.57" cy="176.15" r="1.6666666666666667" />
<circle cx="221.57" cy="176.15" r="1.6666666666666667" />
<circle cx="221.57" cy="176.15" r="1.6666666666666667" />
<circle cx="221.57" cy="176.15" r="1.6666666666666667" />
<circle cx="221.57" cy="176.15" r="1.6666666666666667" />
<circle cx="221.57" cy="176.15" r="1.6666666666666667" />
<circle cx="221.57" cy="176.15" r="1.6666666666666667" />
<circle cx="221.57" cy="176.15" r="1.6666666666666667" />
<circle cx="221.57" cy="176.15" r="1.6666666666666667" />
<circle cx="221.57" cy="176.15" r="1.6666666666666667" />
<circle cx="221.57" cy="176.15" r="1.6666666666666667" />
<circle cx="221.57" cy="176.15" r="1.6666666666666667" />
<circle cx="221.57" cy="176.15" r="1.6666666666666667" />
<circle cx="221.57" cy="176.15" r="1.6666666666666667" />
<circle cx="221.57" cy="176.15" r="1.6666666666666667" />
<circle cx="221.57" cy="176.15" r="1.6666666666666667" />
<circle cx="221.57" cy="257.58" r="1.6666666666666667" />
<circle cx="221.57" cy="176.15" r="1.6666666666666667" />
<circle cx="221.57" cy="176.15" r="1.6666666666666667" />
<circle cx="221.57" cy="176.15" r="1.6666666666666667" />
<circle cx="221.57" cy="176.15" r="1.6666666666666667" />
<circle cx="221.57" cy="176.15" r="1.6666666666666667" />
<circle cx="221.57" cy="176.15" r="1.6666666666666667" />
<circle cx="221.57" cy="176.15" r="1.6666666666666667" />
<circle cx="221.57" cy="176.15" r="1.6666666666666667" />
<circle cx="221.57" cy="176.15" r="1.6666666666666667" />
<circle cx="221.57" cy="176.15" r="1.6666666666666667" />
<circle cx="221.57" cy="176.15" r="1.6666666666666667" />
<circle cx="221.57" cy="176.15" r="1.6666666666666667" />
<circle cx="221.57" cy="176.15" r="1.6666666666666667" />
<circle cx="221.57" cy="176.15" r="1.6666666666666667" />
<circle cx="221.57" cy="176.15" r="1.6666666666666667" />
<circle cx="221.57" cy="176.15" r="1.6666666666666667" />
<circle cx="221.57" cy="176.15" r="1.6666666666666667" />
<circle cx="221.57" cy="176.15" r="1.6666666666666667" />
<circle cx="221.57" cy="176.15" r="1.6666666666666667" />
<circle cx="221.57" cy="176.15" r="1.6666666666666667" />
<circle cx="221.57" cy="176.15" r="1.6666666666666667" />
<circle cx="221.57" cy="176.15" r="1.6666666666666667" />
<circle cx="221.57" cy="176.15" r="1.6666666666666667" />
<circle cx="221.57" cy="176.15" r="1.6666666666666667" />
<circle cx="221.57" cy="176.15" r="1.6666666666666667" />
<circle cx="221.57" cy="176.15" r="1.6666666666666667" />
<circle cx="221.57" cy="176.15" r="1.6666666666666667" />
<circle cx="221.57" cy="176.15" r="1.6666666666666667" />
<circle cx="221.57" cy="176.15" r="1.6666666666666667" />
<circle cx="221.57" cy="176.15" r="1.6666666666666667" />
<circle cx="221.57" cy="176.15" r="1.6666666666666667" />
<circle cx="221.57" cy="176.15" r="1.6666666666666667" />
<circle cx="221.57" cy="176.15" r="1.6666666666666667" />
<circle cx="221.57" cy="176.15" r="1.6666666666666667" />
<circle cx="221.57" cy="176.15" r="1.6666666666666667" />
<circle cx="221.57" cy="176.15" r="1.6666666666666667" />
<circle cx="221.57" cy="176.15" r="1.6666666666666667" />
<circle cx="221.57" cy="176.15" r="1.6666666666666667" />
<circle cx="221.57" cy="176.15" r="1.6666666666666667" />
<circle cx="221.57" cy="176.15" r="1.6666666666666667" />
<circle cx="221.57" cy="176.15" r="1.6666666666666667" />
<circle cx="221.57" cy="176.15" r="1.6666666666666667" />
<circle cx="221.57" cy="176.15" r="1.6666666666666667" />
<circle cx="221.57" cy="176.15" r="1.6666666666666667" />
<circle cx="221.57" cy="176.15" r="1.6666666666666667" />
<circle cx="221.57" cy="176.15" r="1.6666666666666667" />
<circle cx="221.57" cy="176.15" r="1.6666666666666667" />
<circle cx="221.57" cy="176.15" r="1.6666666666666667" />
<circle cx="221.57" cy="176.15" r="1.6666666666666667" />
<circle cx="221.57" cy="176.15" r="1.6666666666666667" />
<circle cx="221.57" cy="176.15" r="1.6666666666666667" />
<circle cx="221.57" cy="176.15" r="1.6666666666666667" />
<circle cx="221.57" cy="176.15" r="1.6666666666666667" />
<circle cx="221.57" cy="176.15" r="1.6666666666666667" />
<circle cx="221.57" cy="176.15" r="1.6666666666666667" />
<circle cx="221.57" cy="176.15" r="1.6666666666666667" />
<circle cx="221.57" cy="176.15" r="1.6666666666666667" />
<circle cx="221.57" cy="176.15" r="1.6666666666666667" />
<circle cx="221.57" cy="176.15" r="1.6666666666666667" />
<circle cx="221.57" cy="176.15" r="1.6666666666666667" />
<circle cx="221.57" cy="176.15" r="1.6666666666666667" />
<circle cx="221.57" cy="176.15" r="1.6666666666666667" />
<circle cx="221.57" cy="176.15" r="1.6666666666666667" />
<circle cx="221.57" cy="176.15" r="1.6666666666666667" />
<circle cx="221.57" cy="176.15" r="1.6666666666666667" />
<circle cx="221.57" cy="176.15" r="1.6666666666666667" />
<circle cx="221.57" cy="176.15" r="1.6666666666666667" />
<circle cx="221.57" cy="176.15" r="1.6666666666666667" />
<circle cx="221.57" cy="176.15" r="1.6666666666666667" />
<circle cx="221.57" cy="176.15" r="1.6666666666666667" />
<circle cx="221.57" cy="176.15" r="1.6666666666666667" />
<circle cx="221.57" cy="176.15" r="1.6666666666666667" />
<circle cx="221.57" cy="176.15" r="1.6666666666666667" />
<circle cx="221.57" cy="176.15" r="1.6666666666666667" />
<circle cx="221.57" cy="176.15" r="1.6666666666666667" />
<circle cx="221.57" cy="176.15" r="1.6666666666666667" />
<circle cx="221.57" cy="176.15" r="1.6666666666666667" />
<circle cx="221.57" cy="176.15" r="1.6666666666666667" />
<circle cx="221.57" cy="176.15" r="1.6666666666666667" />
<circle cx="221.57" cy="176.15" r="1.6666666666666667" />
<circle cx="221.57" cy="176.15" r="1.6666666666666667" />
<circle cx="221.57" cy="176.15" r="1.6666666666666667" />
<circle cx="221.57" cy="176.15" r="1.6666666666666667" />
<circle cx="221.57" cy="176.15" r="1.6666666666666667" />
<circle cx="221.57" cy="176.15" r="1.6666666666666667" />
<circle cx="221.57" cy="176.15" r="1.6666666666666667" />
<circle cx="221.57" cy="176.15" r="1.6666666666666667" />
<circle cx="221.57" cy="176.15" r="1.6666666666666667" />
<circle cx="221.57" cy="176.15" r="1.6666666666666667" />
<circle cx="221.57" cy="176.15" r="1.6666666666666667" />
<circle cx="221.57" cy="176.15" r="1.6666666666666667" />
<circle cx="221.57" cy="176.15" r="1.6666666666666667" />
<circle cx="221.57" cy="176.15" r="1.6666666666666667" />
<circle cx="221.57" cy="176.15" r="1.6666666666666667" />
<circle cx="221.57" cy="176.15" r="1.6666666666666667" />
<circle cx="221.57" cy="176.15" r="1.6666666666666667" />
<circle cx="221.57" cy="176.15" r="1.6666666666666667" />
<circle cx="221.57" cy="176.15" r="1.6666666666666667" />
<circle cx="221.57" cy="176.15" r="1.6666666666666667" />
<circle cx="221.57" cy="176.15" r="1.6666666666666667" />
<circle cx="221.57" cy="176.15" r="1.6666666666666667" />
<circle cx="221.57" cy="176.15" r="1.6666666666666667" />
<circle cx="221.57" cy="176.15" r="1.6666666666666667" />
<circle cx="221.57" cy="176.15" r="1.6666666666666667" />
<circle cx="221.57" cy="176.15" r="1.6666666666666667" />
<circle cx="221.57" cy="176.15" r="1.6666666666666667" />
<circle cx="221.57" cy="176.15" r="1.6666666666666667" />
<circle cx="221.57" cy="176.15" r="1.6666666666666667" />
<circle cx="221.57" cy="176.15" r="1.6666666666666667" />
<circle cx="221.57" cy="176.15" r="1.6666666666666667" />
<circle cx="221.57" cy="176.15" r="1.6666666666666667" />
<circle cx="221.57" cy="176.15" r="1.6666666666666667" />
<circle cx="221.57" cy="176.15" r="1.6666666666666667" />
<circle cx="221.57" cy="176.15" r="1.6666666666666667" />
<circle cx="221.57" cy="176.15" r="1.6666666666666667" />
<circle cx="221.57" cy="176.15" r="1.6666666666666667" />
<circle cx="221.57" cy="176.15" r="1.6666666666666667" />
<circle cx="221.57" cy="176.15" r="1.6666666666666667" />
<circle cx="221.57" cy="176.15" r="1.6666666666666667" />
<circle cx="221.57" cy="176.15" r="1.6666666666666667" />
<circle cx="221.57" cy="176.15" r="1.6666666666666667" />
<circle cx="221.57" cy="176.15" r="1.6666666666666667" />
<circle cx="221.57" cy="176.15" r="1.6666666666666667" />
<circle cx="221.57" cy="176.15" r="1.6666666666666667" />
<circle cx="221.57" cy="176.15" r="1.6666666666666667" />
<circle cx="221.57" cy="176.15" r="1.6666666666666667" />
<circle cx="221.57" cy="176.15" r="1.6666666666666667" />
<circle cx="221.57" cy="176.15" r="1.6666666666666667" />
<circle cx="221.57" cy="176.15" r="1.6666666666666667" />
<circle cx="221.57" cy="176.15" r="1.6666666666666667" />
<circle cx="221.57" cy="176.15" r="1.6666666666666667" />
<circle cx="221.57" cy="176.15" r="1.6666666666666667" />
<circle cx="221.57" cy="176.15" r="1.6666666666666667" />
<circle cx="221.57" cy="176.15" r="1.6666666666666667" />
<circle cx="221.57" cy="176.15" r="1.6666666666666667" />
<circle cx="221.57" cy="176.15" r="1.6666666666666667" />
<circle cx="221.57" cy="176.15" r="1.6666666666666667" />
<circle cx="221.57" cy="257.58" r="1.6666666666666667" />
<circle cx="221.57" cy="176.15" r="1.6666666666666667" />
<circle cx="221.57" cy="176.15" r="1.6666666666666667" />
<circle cx="221.57" cy="176.15" r="1.6666666666666667" />
<circle cx="221.57" cy="176.15" r="1.6666666666666667" />
<circle cx="221.57" cy="176.15" r="1.6666666666666667" />
<circle cx="221.57" cy="176.15" r="1.6666666666666667" />
<circle cx="221.57" cy="176.15" r="1.6666666666666667" />
<circle cx="221.57" cy="176.15" r="1.6666666666666667" />
<circle cx="221.57" cy="176.15" r="1.6666666666666667" />
<circle cx="221.57" cy="176.15" r="1.6666666666666667" />
<circle cx="221.57" cy="257.58" r="1.6666666666666667" />
<circle cx="221.57" cy="176.15" r="1.6666666666666667" />
<circle cx="221.57" cy="176.15" r="1.6666666666666667" />
<circle cx="221.57" cy="176.15" r="1.6666666666666667" />
<circle cx="221.57" cy="176.15" r="1.6666666666666667" />
<circle cx="221.57" cy="176.15" r="1.6666666666666667" />
<circle cx="221.57" cy="176.15" r="1.6666666666666667" />
<circle cx="221.57" cy="176.15" r="1.6666666666666667" />
<circle cx="221.57" cy="176.15" r="1.6666666666666667" />
<circle cx="221.57" cy="176.15" r="1.6666666666666667" />
<circle cx="221.57" cy="176.15" r="1.6666666666666667" />
<circle cx="221.57" cy="176.15" r="1.6666666666666667" />
<circle cx="221.57" cy="176.15" r="1.6666666666666667" />
<circle cx="221.57" cy="176.15" r="1.6666666666666667" />
<circle cx="221.57" cy="176.15" r="1.6666666666666667" />
<circle cx="221.57" cy="176.15" r="1.6666666666666667" />
<circle cx="221.57" cy="176.15" r="1.6666666666666667" />
<circle cx="221.57" cy="176.15" r="1.6666666666666667" />
<circle cx="221.57" cy="176.15" r="1.6666666666666667" />
<circle cx="221.57" cy="176.15" r="1.6666666666666667" />
<circle cx="221.57" cy="176.15" r="1.6666666666666667" />
<circle cx="221.57" cy="176.15" r="1.6666666666666667" />
<circle cx="221.57" cy="176.15" r="1.6666666666666667" />
<circle cx="221.57" cy="176.15" r="1.6666666666666667" />
<circle cx="221.57" cy="176.15" r="1.6666666666666667" />
<circle cx="221.57" cy="176.15" r="1.6666666666666667" />
<circle cx="221.57" cy="176.15" r="1.6666666666666667" />
<circle cx="221.57" cy="176.15" r="1.6666666666666667" />
<circle cx="221.57" cy="176.15" r="1.6666666666666667" />
<circle cx="221.57" cy="176.15" r="1.6666666666666667" />
<circle cx="221.57" cy="176.15" r="1.6666666666666667" />
<circle cx="221.57" cy="176.15" r="1.6666666666666667" />
<circle cx="221.57" cy="176.15" r="1.6666666666666667" />
<circle cx="221.57" cy="176.15" r="1.6666666666666667" />
<circle cx="221.57" cy="176.15" r="1.6666666666666667" />
<circle cx="221.57" cy="176.15" r="1.6666666666666667" />
<circle cx="221.57" cy="176.15" r="1.6666666666666667" />
<circle cx="221.57" cy="176.15" r="1.6666666666666667" />
<circle cx="221.57" cy="176.15" r="1.6666666666666667" />
<circle cx="221.57" cy="176.15" r="1.6666666666666667" />
<circle cx="221.57" cy="176.15" r="1.6666666666666667" />
<circle cx="221.57" cy="176.15" r="1.6666666666666667" />
<circle cx="221.57" cy="176.15" r="1.6666666666666667" />
<circle cx="221.57" cy="176.15" r="1.6666666666666667" />
<circle cx="221.57" cy="176.15" r="1.6666666666666667" />
<circle cx="221.57" cy="176.15" r="1.6666666666666667" />
<circle cx="221.57" cy="176.15" r="1.6666666666666667" />
<circle cx="221.57" cy="176.15" r="1.6666666666666667" />
<circle cx="221.57" cy="176.15" r="1.6666666666666667" />
<circle cx="221.57" cy="176.15" r="1.6666666666666667" />
<circle cx="221.57" cy="176.15" r="1.6666666666666667" />
<circle cx="221.57" cy="176.15" r="1.6666666666666667" />
<circle cx="221.57" cy="176.15" r="1.6666666666666667" />
<circle cx="221.57" cy="176.15" r="1.6666666666666667" />
<circle cx="221.57" cy="176.15" r="1.6666666666666667" />
<circle cx="221.57" cy="176.15" r="1.6666666666666667" />
<circle cx="221.57" cy="176.15" r="1.6666666666666667" />
<circle cx="221.57" cy="176.15" r="1.6666666666666667" />
<circle cx="221.57" cy="176.15" r="1.6666666666666667" />
<circle cx="221.57" cy="176.15" r="1.6666666666666667" />
<circle cx="221.57" cy="176.15" r="1.6666666666666667" />
<circle cx="221.57" cy="176.15" r="1.6666666666666667" />
<circle cx="221.57" cy="176.15" r="1.6666666666666667" />
<circle cx="221.57" cy="176.15" r="1.6666666666666667" />
<circle cx="221.57" cy="176.15" r="1.6666666666666667" />
<circle cx="221.57" cy="176.15" r="1.6666666666666667" />
<circle cx="221.57" cy="176.15" r="1.6666666666666667" />
<circle cx="221.57" cy="176.15" r="1.6666666666666667" />
<circle cx="221.57" cy="176.15" r="1.6666666666666667" />
<circle cx="221.57" cy="176.15" r="1.6666666666666667" />
<circle cx="221.57" cy="176.15" r="1.6666666666666667" />
<circle cx="221.57" cy="176.15" r="1.6666666666666667" />
<circle cx="221.57" cy="176.15" r="1.6666666666666667" />
<circle cx="221.57" cy="176.15" r="1.6666666666666667" />
<circle cx="221.57" cy="176.15" r="1.6666666666666667" />
<circle cx="221.57" cy="176.15" r="1.6666666666666667" />
<circle cx="221.57" cy="176.15" r="1.6666666666666667" />
<circle cx="221.57" cy="176.15" r="1.6666666666666667" />
<circle cx="221.57" cy="176.15" r="1.6666666666666667" />
<circle cx="221.57" cy="176.15" r="1.6666666666666667" />
<circle cx="221.57" cy="176.15" r="1.6666666666666667" />
<circle cx="221.57" cy="176.15" r="1.6666666666666667" />
<circle cx="221.57" cy="176.15" r="1.6666666666666667" />
<circle cx="221.57" cy="176.15" r="1.6666666666666667" />
<circle cx="221.57" cy="176.15" r="1.6666666666666667" />
<circle cx="221.57" cy="176.15" r="1.6666666666666667" />
<circle cx="221.57" cy="176.15" r="1.6666666666666667" />
<circle cx="221.57" cy="176.15" r="1.6666666666666667" />
<circle cx="221.57" cy="176.15" r="1.6666666666666667" />
<circle cx="221.57" cy="176.15" r="1.6666666666666667" />
<circle cx="221.57" cy="176.15" r="1.6666666666666667" />
<circle cx="221.57" cy="176.15" r="1.6666666666666667" />
<circle cx="221.57" cy="176.15" r="1.6666666666666667" />
<circle cx="221.57" cy="176.15" r="1.6666666666666667" />
<circle cx="221.57" cy="176.15" r="1.6666666666666667" />
<circle cx="221.57" cy="176.15" r="1.6666666666666667" />
<circle cx="221.57" cy="257.58" r="1.6666666666666667" />
<circle cx="221.57" cy="176.15" r="1.6666666666666667" />
<circle cx="221.57" cy="176.15" r="1.6666666666666667" />
<circle cx="221.57" cy="176.15" r="1.6666666666666667" />
<circle cx="221.57" cy="176.15" r="1.6666666666666667" />
<circle cx="221.57" cy="176.15" r="1.6666666666666667" />
<circle cx="221.57" cy="176.15" r="1.6666666666666667" />
<circle cx="221.57" cy="176.15" r="1.6666666666666667" />
<circle cx="221.57" cy="176.15" r="1.6666666666666667" />
<circle cx="221.57" cy="176.15" r="1.6666666666666667" />
<circle cx="221.57" cy="176.15" r="1.6666666666666667" />
<circle cx="221.57" cy="176.15" r="1.6666666666666667" />
<circle cx="221.57" cy="176.15" r="1.6666666666666667" />
<circle cx="221.57" cy="176.15" r="1.6666666666666667" />
<circle cx="221.57" cy="176.15" r="1.6666666666666667" />
<circle cx="221.57" cy="176.15" r="1.6666666666666667" />
<circle cx="221.57" cy="176.15" r="1.6666666666666667" />
<circle cx="221.57" cy="176.15" r="1.6666666666666667" />
<circle cx="221.57" cy="176.15" r="1.6666666666666667" />
<circle cx="221.57" cy="176.15" r="1.6666666666666667" />
<circle cx="221.57" cy="176.15" r="1.6666666666666667" />
<circle cx="221.57" cy="176.15" r="1.6666666666666667" />
<circle cx="221.57" cy="176.15" r="1.6666666666666667" />
<circle cx="221.57" cy="176.15" r="1.6666666666666667" />
<circle cx="221.57" cy="176.15" r="1.6666666666666667" />
<circle cx="221.57" cy="176.15" r="1.6666666666666667" />
<circle cx="221.57" cy="176.15" r="1.6666666666666667" />
<circle cx="221.57" cy="176.15" r="1.6666666666666667" />
<circle cx="221.57" cy="176.15" r="1.6666666666666667" />
<circle cx="221.57" cy="176.15" r="1.6666666666666667" />
<circle cx="221.57" cy="176.15" r="1.6666666666666667" />
<circle cx="221.57" cy="176.15" r="1.6666666666666667" />
<circle cx="221.57" cy="176.15" r="1.6666666666666667" />
<circle cx="221.57" cy="176.15" r="1.6666666666666667" />
<circle cx="221.57" cy="176.15" r="1.6666666666666667" />
<circle cx="221.57" cy="176.15" r="1.6666666666666667" />
<circle cx="221.57" cy="176.15" r="1.6666666666666667" />
<circle cx="221.57" cy="176.15" r="1.6666666666666667" />
<circle cx="221.57" cy="176.15" r="1.6666666666666667" />
<circle cx="221.57" cy="176.15" r="1.6666666666666667" />
<circle cx="221.57" cy="196.51" r="1.6666666666666667" />
<circle cx="221.57" cy="176.15" r="1.6666666666666667" />
<circle cx="221.57" cy="176.15" r="1.6666666666666667" />
<circle cx="221.57" cy="176.15" r="1.6666666666666667" />
<circle cx="221.57" cy="176.15" r="1.6666666666666667" />
<circle cx="221.57" cy="257.58" r="1.6666666666666667" />
<circle cx="221.57" cy="176.15" r="1.6666666666666667" />
<circle cx="221.57" cy="176.15" r="1.6666666666666667" />
<circle cx="221.57" cy="176.15" r="1.6666666666666667" />
<circle cx="221.58" cy="314.74" r="1.6666666666666667" />
<circle cx="221.58" cy="176.15" r="1.6666666666666667" />
<circle cx="221.58" cy="176.15" r="1.6666666666666667" />
<circle cx="221.58" cy="176.15" r="1.6666666666666667" />
<circle cx="221.58" cy="176.15" r="1.6666666666666667" />
<circle cx="221.58" cy="176.15" r="1.6666666666666667" />
<circle cx="221.58" cy="176.15" r="1.6666666666666667" />
<circle cx="221.58" cy="176.15" r="1.6666666666666667" />
<circle cx="221.58" cy="176.15" r="1.6666666666666667" />
<circle cx="221.58" cy="176.15" r="1.6666666666666667" />
<circle cx="221.58" cy="176.15" r="1.6666666666666667" />
<circle cx="221.58" cy="176.15" r="1.6666666666666667" />
<circle cx="221.58" cy="176.15" r="1.6666666666666667" />
<circle cx="221.58" cy="176.15" r="1.6666666666666667" />
<circle cx="221.58" cy="176.15" r="1.6666666666666667" />
<circle cx="221.58" cy="176.15" r="1.6666666666666667" />
<circle cx="221.58" cy="176.15" r="1.6666666666666667" />
<circle cx="221.58" cy="176.15" r="1.6666666666666667" />
<circle cx="221.58" cy="176.15" r="1.6666666666666667" />
<circle cx="221.58" cy="176.15" r="1.6666666666666667" />
<circle cx="221.58" cy="176.15" r="1.6666666666666667" />
<circle cx="221.58" cy="176.15" r="1.6666666666666667" />
<circle cx="221.58" cy="176.15" r="1.6666666666666667" />
<circle cx="221.58" cy="176.15" r="1.6666666666666667" />
<circle cx="221.58" cy="176.15" r="1.6666666666666667" />
<circle cx="221.58" cy="176.15" r="1.6666666666666667" />
<circle cx="221.58" cy="176.15" r="1.6666666666666667" />
<circle cx="221.58" cy="176.15" r="1.6666666666666667" />
<circle cx="221.58" cy="176.15" r="1.6666666666666667" />
<circle cx="221.58" cy="176.15" r="1.6666666666666667" />
<circle cx="221.58" cy="176.15" r="1.6666666666666667" />
<circle cx="221.58" cy="176.15" r="1.6666666666666667" />
<circle cx="221.58" cy="176.15" r="1.6666666666666667" />
<circle cx="221.58" cy="176.15" r="1.6666666666666667" />
<circle cx="221.58" cy="176.15" r="1.6666666666666667" />
<circle cx="221.58" cy="176.15" r="1.6666666666666667" />
<circle cx="221.58" cy="176.15" r="1.6666666666666667" />
<circle cx="221.58" cy="176.15" r="1.6666666666666667" />
<circle cx="221.58" cy="176.15" r="1.6666666666666667" />
<circle cx="221.58" cy="176.15" r="1.6666666666666667" />
<circle cx="221.58" cy="176.15" r="1.6666666666666667" />
<circle cx="221.58" cy="176.15" r="1.6666666666666667" />
<circle cx="221.58" cy="176.15" r="1.6666666666666667" />
<circle cx="221.58" cy="176.15" r="1.6666666666666667" />
<circle cx="221.58" cy="176.15" r="1.6666666666666667" />
<circle cx="221.58" cy="176.15" r="1.6666666666666667" />
<circle cx="221.58" cy="176.15" r="1.6666666666666667" />
<circle cx="221.58" cy="176.15" r="1.6666666666666667" />
<circle cx="221.58" cy="176.15" r="1.6666666666666667" />
<circle cx="221.58" cy="176.15" r="1.6666666666666667" />
<circle cx="221.58" cy="176.15" r="1.6666666666666667" />
<circle cx="221.58" cy="176.15" r="1.6666666666666667" />
<circle cx="221.58" cy="176.15" r="1.6666666666666667" />
<circle cx="221.58" cy="176.15" r="1.6666666666666667" />
<circle cx="221.58" cy="176.15" r="1.6666666666666667" />
<circle cx="221.58" cy="176.15" r="1.6666666666666667" />
<circle cx="221.58" cy="176.15" r="1.6666666666666667" />
<circle cx="221.58" cy="176.15" r="1.6666666666666667" />
<circle cx="221.58" cy="176.15" r="1.6666666666666667" />
<circle cx="221.58" cy="176.15" r="1.6666666666666667" />
<circle cx="221.58" cy="176.15" r="1.6666666666666667" />
<circle cx="221.58" cy="176.15" r="1.6666666666666667" />
<circle cx="221.58" cy="176.15" r="1.6666666666666667" />
<circle cx="221.58" cy="176.15" r="1.6666666666666667" />
<circle cx="221.58" cy="176.15" r="1.6666666666666667" />
<circle cx="221.58" cy="176.15" r="1.6666666666666667" />
<circle cx="221.58" cy="176.15" r="1.6666666666666667" />
<circle cx="221.58" cy="176.15" r="1.6666666666666667" />
<circle cx="221.58" cy="176.15" r="1.6666666666666667" />
<circle cx="221.58" cy="176.15" r="1.6666666666666667" />
<circle cx="221.58" cy="176.15" r="1.6666666666666667" />
<circle cx="221.58" cy="176.15" r="1.6666666666666667" />
<circle cx="221.58" cy="176.15" r="1.6666666666666667" />
<circle cx="221.58" cy="176.15" r="1.6666666666666667" />
<circle cx="221.58" cy="176.15" r="1.6666666666666667" />
<circle cx="221.58" cy="176.15" r="1.6666666666666667" />
<circle cx="221.58" cy="176.15" r="1.6666666666666667" />
<circle cx="221.58" cy="176.15" r="1.6666666666666667" />
<circle cx="221.58" cy="176.15" r="1.6666666666666667" />
<circle cx="221.58" cy="176.15" r="1.6666666666666667" />
<circle cx="221.58" cy="176.15" r="1.6666666666666667" />
<circle cx="221.58" cy="176.15" r="1.6666666666666667" />
<circle cx="221.58" cy="176.15" r="1.6666666666666667" />
<circle cx="221.58" cy="176.15" r="1.6666666666666667" />
<circle cx="221.58" cy="176.15" r="1.6666666666666667" />
<circle cx="221.58" cy="176.15" r="1.6666666666666667" />
<circle cx="221.58" cy="176.15" r="1.6666666666666667" />
<circle cx="221.58" cy="176.15" r="1.6666666666666667" />
<circle cx="221.58" cy="176.15" r="1.6666666666666667" />
<circle cx="221.58" cy="176.15" r="1.6666666666666667" />
<circle cx="221.58" cy="176.15" r="1.6666666666666667" />
<circle cx="221.58" cy="176.15" r="1.6666666666666667" />
<circle cx="221.58" cy="176.15" r="1.6666666666666667" />
<circle cx="221.58" cy="176.15" r="1.6666666666666667" />
<circle cx="221.58" cy="176.15" r="1.6666666666666667" />
<circle cx="221.58" cy="176.15" r="1.6666666666666667" />
<circle cx="221.58" cy="176.15" r="1.6666666666666667" />
<circle cx="221.58" cy="176.15" r="1.6666666666666667" />
<circle cx="221.58" cy="176.15" r="1.6666666666666667" />
<circle cx="221.58" cy="176.15" r="1.6666666666666667" />
<circle cx="221.58" cy="176.15" r="1.6666666666666667" />
<circle cx="221.58" cy="176.15" r="1.6666666666666667" />
<circle cx="221.58" cy="176.15" r="1.6666666666666667" />
<circle cx="221.58" cy="176.15" r="1.6666666666666667" />
<circle cx="221.58" cy="176.15" r="1.6666666666666667" />
<circle cx="221.58" cy="176.15" r="1.6666666666666667" />
<circle cx="221.58" cy="176.15" r="1.6666666666666667" />
<circle cx="221.58" cy="176.15" r="1.6666666666666667" />
<circle cx="221.58" cy="176.15" r="1.6666666666666667" />
<circle cx="221.58" cy="176.15" r="1.6666666666666667" />
<circle cx="221.58" cy="176.15" r="1.6666666666666667" />
<circle cx="221.58" cy="176.15" r="1.6666666666666667" />
<circle cx="221.58" cy="176.15" r="1.6666666666666667" />
<circle cx="221.58" cy="176.15" r="1.6666666666666667" />
<circle cx="221.58" cy="176.15" r="1.6666666666666667" />
<circle cx="221.58" cy="176.15" r="1.6666666666666667" />
<circle cx="221.58" cy="176.15" r="1.6666666666666667" />
<circle cx="221.58" cy="176.15" r="1.6666666666666667" />
<circle cx="221.58" cy="176.15" r="1.6666666666666667" />
<circle cx="221.58" cy="176.15" r="1.6666666666666667" />
<circle cx="221.58" cy="176.15" r="1.6666666666666667" />
<circle cx="221.58" cy="176.15" r="1.6666666666666667" />
<circle cx="221.58" cy="176.15" r="1.6666666666666667" />
<circle cx="221.58" cy="176.15" r="1.6666666666666667" />
<circle cx="221.58" cy="176.15" r="1.6666666666666667" />
<circle cx="221.58" cy="176.15" r="1.6666666666666667" />
<circle cx="221.58" cy="176.15" r="1.6666666666666667" />
<circle cx="221.58" cy="176.15" r="1.6666666666666667" />
<circle cx="221.58" cy="176.15" r="1.6666666666666667" />
<circle cx="221.58" cy="176.15" r="1.6666666666666667" />
<circle cx="221.58" cy="176.15" r="1.6666666666666667" />
<circle cx="221.58" cy="176.15" r="1.6666666666666667" />
<circle cx="221.58" cy="176.15" r="1.6666666666666667" />
<circle cx="221.58" cy="176.15" r="1.6666666666666667" />
<circle cx="221.58" cy="176.15" r="1.6666666666666667" />
<circle cx="221.58" cy="176.15" r="1.6666666666666667" />
<circle cx="221.58" cy="176.15" r="1.6666666666666667" />
<circle cx="221.58" cy="176.15" r="1.6666666666666667" />
<circle cx="221.58" cy="176.15" r="1.6666666666666667" />
<circle cx="221.58" cy="176.15" r="1.6666666666666667" />
<circle cx="221.58" cy="176.15" r="1.6666666666666667" />
<circle cx="221.58" cy="176.15" r="1.6666666666666667" />
<circle cx="221.58" cy="176.15" r="1.6666666666666667" />
<circle cx="221.58" cy="176.15" r="1.6666666666666667" />
<circle cx="221.58" cy="176.15" r="1.6666666666666667" />
<circle cx="221.58" cy="176.15" r="1.6666666666666667" />
<circle cx="221.58" cy="176.15" r="1.6666666666666667" />
<circle cx="221.58" cy="176.15" r="1.6666666666666667" />
<circle cx="221.58" cy="176.15" r="1.6666666666666667" />
<circle cx="221.58" cy="176.15" r="1.6666666666666667" />
<circle cx="221.58" cy="176.15" r="1.6666666666666667" />
<circle cx="221.58" cy="176.15" r="1.6666666666666667" />
<circle cx="221.58" cy="176.15" r="1.6666666666666667" />
<circle cx="221.58" cy="176.15" r="1.6666666666666667" />
<circle cx="221.58" cy="176.15" r="1.6666666666666667" />
<circle cx="221.58" cy="176.15" r="1.6666666666666667" />
<circle cx="221.58" cy="176.15" r="1.6666666666666667" />
<circle cx="221.58" cy="176.15" r="1.6666666666666667" />
<circle cx="221.58" cy="176.15" r="1.6666666666666667" />
<circle cx="221.58" cy="176.15" r="1.6666666666666667" />
<circle cx="221.58" cy="176.15" r="1.6666666666666667" />
<circle cx="221.58" cy="176.15" r="1.6666666666666667" />
<circle cx="221.58" cy="176.15" r="1.6666666666666667" />
<circle cx="221.58" cy="176.15" r="1.6666666666666667" />
<circle cx="221.58" cy="176.15" r="1.6666666666666667" />
<circle cx="221.58" cy="176.15" r="1.6666666666666667" />
<circle cx="221.58" cy="176.15" r="1.6666666666666667" />
<circle cx="221.58" cy="176.15" r="1.6666666666666667" />
<circle cx="221.58" cy="176.15" r="1.6666666666666667" />
<circle cx="221.58" cy="176.15" r="1.6666666666666667" />
<circle cx="221.58" cy="176.15" r="1.6666666666666667" />
<circle cx="221.58" cy="176.15" r="1.6666666666666667" />
<circle cx="221.58" cy="176.15" r="1.6666666666666667" />
<circle cx="221.58" cy="176.15" r="1.6666666666666667" />
<circle cx="221.58" cy="176.15" r="1.6666666666666667" />
<circle cx="221.58" cy="176.15" r="1.6666666666666667" />
<circle cx="221.58" cy="176.15" r="1.6666666666666667" />
<circle cx="221.58" cy="176.15" r="1.6666666666666667" />
<circle cx="221.58" cy="176.15" r="1.6666666666666667" />
<circle cx="221.58" cy="176.15" r="1.6666666666666667" />
<circle cx="221.58" cy="176.15" r="1.6666666666666667" />
<circle cx="221.58" cy="176.15" r="1.6666666666666667" />
<circle cx="221.58" cy="176.15" r="1.6666666666666667" />
<circle cx="221.58" cy="176.15" r="1.6666666666666667" />
<circle cx="221.58" cy="176.15" r="1.6666666666666667" />
<circle cx="221.58" cy="176.15" r="1.6666666666666667" />
<circle cx="221.58" cy="176.15" r="1.6666666666666667" />
<circle cx="221.58" cy="257.58" r="1.6666666666666667" />
<circle cx="221.58" cy="176.15" r="1.6666666666666667" />
<circle cx="221.58" cy="176.15" r="1.6666666666666667" />
<circle cx="221.58" cy="176.15" r="1.6666666666666667" />
<circle cx="221.58" cy="176.15" r="1.6666666666666667" />
<circle cx="221.58" cy="176.15" r="1.6666666666666667" />
<circle cx="221.58" cy="176.15" r="1.6666666666666667" />
<circle cx="221.58" cy="176.15" r="1.6666666666666667" />
<circle cx="221.58" cy="176.15" r="1.6666666666666667" />
<circle cx="221.58" cy="176.15" r="1.6666666666666667" />
<circle cx="221.58" cy="176.15" r="1.6666666666666667" />
<circle cx="221.58" cy="176.15" r="1.6666666666666667" />
<circle cx="221.58" cy="176.15" r="1.6666666666666667" />
<circle cx="221.58" cy="176.15" r="1.6666666666666667" />
<circle cx="221.58" cy="176.15" r="1.6666666666666667" />
<circle cx="221.61" cy="388.75" r="1.6666666666666667" />
<circle cx="221.61" cy="276.05" r="1.6666666666666667" />
<circle cx="221.61" cy="299.20" r="1.6666666666666667" />
<circle cx="221.61" cy="328.34" r="1.6666666666666667" />
<circle cx="221.63" cy="381.32" r="1.6666666666666667" />
<circle cx="221.63" cy="253.66" r="1.6666666666666667" />
<circle cx="221.64" cy="208.42" r="1.6666666666666667" />
<circle cx="221.64" cy="176.15" r="1.6666666666666667" />
<circle cx="221.64" cy="237.23" r="1.6666666666666667" />
<circle cx="221.64" cy="348.62" r="1.6666666666666667" />
<circle cx="221.96" cy="460.49" r="1.6666666666666667" />
<circle cx="222.19" cy="451.26" r="1.6666666666666667" />
<circle cx="222.43" cy="451.59" r="1.6666666666666667" />
<circle cx="222.66" cy="450.88" r="1.6666666666666667" />
<circle cx="222.88" cy="450.47" r="1.6666666666666667" />
<circle cx="223.11" cy="450.51" r="1.6666666666666667" />
<circle cx="223.32" cy="448.75" r="1.6666666666666667" />
<circle cx="223.55" cy="450.80" r="1.6666666666666667" />
<circle cx="223.78" cy="451.11" r="1.6666666666666667" />
<circle cx="224.00" cy="449.94" r="1.6666666666666667" />
<circle cx="224.23" cy="451.27" r="1.6666666666666667" />
<circle cx="224.46" cy="450.10" r="1.6666666666666667" />
<circle cx="224.69" cy="451.38" r="1.6666666666666667" />
<circle cx="224.93" cy="452.00" r="1.6666666666666667" />
<circle cx="225.16" cy="451.82" r="1.6666666666666667" />
<circle cx="225.40" cy="451.96" r="1.6666666666666667" />
<circle cx="225.62" cy="449.98" r="1.6666666666666667" />
<circle cx="225.85" cy="450.89" r="1.6666666666666667" />
<circle cx="226.09" cy="451.66" r="1.6666666666666667" />
<circle cx="226.32" cy="451.43" r="1.6666666666666667" />
<circle cx="226.56" cy="452.33" r="1.6666666666666667" />
<circle cx="226.79" cy="450.61" r="1.6666666666666667" />
<circle cx="227.02" cy="451.50" r="1.6666666666666667" />
<circle cx="227.27" cy="453.18" r="1.6666666666666667" />
<circle cx="227.50" cy="451.39" r="1.6666666666666667" />
<circle cx="227.75" cy="452.35" r="1.6666666666666667" />
<circle cx="227.97" cy="449.84" r="1.6666666666666667" />
<circle cx="228.21" cy="452.53" r="1.6666666666666667" />
<circle cx="228.45" cy="452.78" r="1.6666666666666667" />
<circle cx="228.70" cy="453.57" r="1.6666666666666667" />
<circle cx="228.95" cy="453.01" r="1.6666666666666667" />
<circle cx="229.19" cy="452.59" r="1.6666666666666667" />
<circle cx="229.43" cy="452.42" r="1.6666666666666667" />
<circle cx="229.67" cy="451.67" r="1.6666666666666667" />
<circle cx="229.92" cy="453.01" r="1.6666666666666667" />
<circle cx="230.16" cy="452.67" r="1.6666666666666667" />
<circle cx="230.40" cy="452.08" r="1.6666666666666667" />
<circle cx="230.65" cy="453.45" r="1.6666666666666667" />
<circle cx="230.89" cy="452.42" r="1.6666666666666667" />
<circle cx="231.14" cy="453.36" r="1.6666666666666667" />
<circle cx="231.38" cy="452.91" r="1.6666666666666667" />
<circle cx="231.64" cy="453.98" r="1.6666666666666667" />
<circle cx="231.90" cy="454.25" r="1.6666666666666667" />
<circle cx="232.16" cy="454.55" r="1.6666666666666667" />
<circle cx="232.41" cy="453.64" r="1.6666666666666667" />
<circle cx="232.66" cy="453.72" r="1.6666666666666667" />
<circle cx="232.91" cy="453.46" r="1.6666666666666667" />
<circle cx="233.17" cy="454.67" r="1.6666666666666667" />
<circle cx="233.44" cy="455.74" r="1.6666666666666667" />
<circle cx="233.71" cy="455.69" r="1.6666666666666667" />
<circle cx="233.98" cy="455.68" r="1.6666666666666667" />
<circle cx="234.24" cy="455.06" r="1.6666666666666667" />
<circle cx="234.52" cy="456.42" r="1.6666666666666667" />
<circle cx="234.80" cy="456.60" r="1.6666666666666667" />
<circle cx="235.07" cy="456.25" r="1.6666666666666667" />
<circle cx="235.34" cy="455.25" r="1.6666666666666667" />
<circle cx="235.60" cy="454.21" r="1.6666666666666667" />
<circle cx="235.87" cy="456.12" r="1.6666666666666667" />
<circle cx="236.15" cy="456.85" r="1.6666666666666667" />
<circle cx="236.42" cy="455.70" r="1.6666666666666667" />
<circle cx="236.68" cy="454.65" r="1.6666666666666667" />
<circle cx="236.96" cy="456.36" r="1.6666666666666667" />
<circle cx="237.23" cy="456.02" r="1.6666666666666667" />
<circle cx="237.50" cy="455.65" r="1.6666666666666667" />
<circle cx="237.77" cy="455.81" r="1.6666666666666667" />
<circle cx="238.03" cy="454.94" r="1.6666666666666667" />
<circle cx="238.31" cy="456.53" r="1.6666666666666667" />
<circle cx="238.58" cy="455.77" r="1.6666666666666667" />
<circle cx="238.84" cy="454.52" r="1.6666666666666667" />
<circle cx="239.11" cy="455.53" r="1.6666666666666667" />
<circle cx="239.38" cy="456.12" r="1.6666666666666667" />
<circle cx="239.65" cy="455.52" r="1.6666666666666667" />
<circle cx="239.93" cy="456.12" r="1.6666666666666667" />
<circle cx="240.19" cy="454.49" r="1.6666666666666667" />
<circle cx="240.45" cy="455.19" r="1.6666666666666667" />
<circle cx="240.73" cy="456.66" r="1.6666666666666667" />
<circle cx="241.01" cy="457.08" r="1.6666666666666667" />
<circle cx="241.28" cy="455.76" r="1.6666666666666667" />
<circle cx="241.55" cy="455.76" r="1.6666666666666667" />
<circle cx="241.84" cy="457.39" r="1.6666666666666667" />
<circle cx="242.12" cy="457.08" r="1.6666666666666667" />
<circle cx="242.39" cy="455.38" r="1.6666666666666667" />
<circle cx="242.68" cy="457.44" r="1.6666666666666667" />
<circle cx="242.96" cy="456.80" r="1.6666666666666667" />
<circle cx="243.23" cy="456.17" r="1.6666666666666667" />
<circle cx="243.51" cy="456.84" r="1.6666666666666667" />
<circle cx="243.79" cy="456.77" r="1.6666666666666667" />
<circle cx="244.07" cy="456.54" r="1.6666666666666667" />
<circle cx="244.35" cy="456.84" r="1.6666666666666667" />
<circle cx="244.62" cy="455.31" r="1.6666666666666667" />
<circle cx="244.90" cy="457.34" r="1.6666666666666667" />
<circle cx="245.19" cy="457.24" r="1.6666666666666667" />
<circle cx="245.47" cy="457.79" r="1.6666666666666667" />
<circle cx="245.75" cy="456.61" r="1.6666666666666667" />
<circle cx="246.03" cy="456.31" r="1.6666666666666667" />
<circle cx="246.31" cy="457.27" r="1.6666666666666667" />
<circle cx="246.60" cy="457.68" r="1.6666666666666667" />
<circle cx="246.89" cy="457.71" r="1.6666666666666667" />
<circle cx="247.19" cy="458.18" r="1.6666666666666667" />
<circle cx="247.47" cy="457.32" r="1.6666666666666667" />
<circle cx="247.76" cy="457.54" r="1.6666666666666667" />
<circle cx="248.05" cy="457.67" r="1.6666666666666667" />
<circle cx="248.33" cy="457.15" r="1.6666666666666667" />
<circle cx="248.62" cy="457.74" r="1.6666666666666667" />
<circle cx="248.91" cy="458.20" r="1.6666666666666667" />
<circle cx="249.20" cy="457.38" r="1.6666666666666667" />
<circle cx="249.49" cy="457.91" r="1.6666666666666667" />
<circle cx="249.78" cy="457.50" r="1.6666666666666667" />
<circle cx="249.96" cy="443.57" r="1.6666666666666667" />
<circle cx="250.14" cy="444.38" r="1.6666666666666667" />
<circle cx="250.33" cy="446.06" r="1.6666666666666667" />
<circle cx="250.50" cy="440.88" r="1.6666666666666667" />
<circle cx="250.66" cy="441.15" r="1.6666666666666667" />
<circle cx="250.82" cy="440.84" r="1.6666666666666667" />
<circle cx="250.91" cy="423.02" r="1.6666666666666667" />
<circle cx="250.93" cy="370.43" r="1.6666666666666667" />
<circle cx="250.95" cy="383.75" r="1.6666666666666667" />
<circle cx="251.15" cy="446.51" r="1.6666666666666667" />
<circle cx="251.20" cy="408.58" r="1.6666666666666667" />
</g>
<g stroke="black">
<line x1="813.75" x2="813.75" y1="510.00" y2="520.00" />
<line x1="760.60" x2="760.60" y1="510.00" y2="520.00" />
<line x1="707.45" x2="707.45" y1="510.00" y2="520.00" />
<line x1="656.01" x2="656.01" y1="510.00" y2="520.00" />
<line x1="602.86" x2="602.86" y1="510.00" y2="520.00" />
<line x1="551.42" x2="551.42" y1="510.00" y2="520.00" />
<line x1="498.27" x2="498.27" y1="510.00" y2="520.00" />
<line x1="445.11" x2="445.11" y1="510.00" y2="520.00" />
<line x1="393.68" x2="393.68" y1="510.00" y2="520.00" />
<line x1="340.52" x2="340.52" y1="510.00" y2="520.00" />
<line x1="289.09" x2="289.09" y1="510.00" y2="520.00" />
<line x1="235.93" x2="235.93" y1="510.00" y2="520.00" />
<line x1="187.92" x2="187.92" y1="510.00" y2="520.00" />
<g fill="black" font-family="Arial, sans-serif" font-size="18.0" stroke="none" text-anchor="start" transform="translate(9.0 0.0)">
<text x="813.75" y="530.57">Feb</text>
<text x="760.60" y="530.57">Jan</text>
<text x="707.45" y="530.57">Dec</text>
<text x="656.01" y="530.57">Nov</text>
<text x="602.86" y="530.57">Oct</text>
<text x="551.42" y="530.57">Sep</text>
<text x="498.27" y="530.57">Aug</text>
<text x="445.11" y="530.57">Jul</text>
<text x="393.68" y="530.57">Jun</text>
<text x="340.52" y="530.57">May</text>
<text x="289.09" y="530.57">Apr</text>
<text x="235.93" y="530.57">Mar</text>
<text x="187.92" y="530.57">Feb</text>
</g>
<line x1="150.00" x2="850.00" y1="510.00" y2="510.00" />
</g>
<g stroke="black">
<line x1="150.00" x2="140.00" y1="510.00" y2="510.00" />
<line x1="150.00" x2="140.00" y1="216.29" y2="216.29" />
<g fill="black" font-family="Arial, sans-serif" font-size="18.0" stroke="none" text-anchor="end">
<text x="141.00" y="501.00">0</text>
<text x="141.00" y="207.29">10</text>
</g>
<line x1="150.00" x2="150.00" y1="510.00" y2="90.00" />
</g>
</g>
</svg>