<?xml version="1.0"?>
<svg version="1.1" viewBox="0 0 1000 600" xmlns:xlink="http://www.w3.org/1999/xlink" xmlns="http://www.w3.org/2000/svg">
<g>
<g stroke-dasharray="3.6 7.2" stroke-width="0.72" stroke="#caa">
<line x1="813.75" x2="813.75" y1="510.00" y2="90.00" />
<line x1="760.60" x2="760.60" y1="510.00" y2="90.00" />
<line x1="707.45" x2="707.45" y1="510.00" y2="90.00" />
<line x1="656.01" x2="656.01" y1="510.00" y2="90.00" />
<line x1="602.86" x2="602.86" y1="510.00" y2="90.00" />
<line x1="551.42" x2="551.42" y1="510.00" y2="90.00" />
<line x1="498.27" x2="498.27" y1="510.00" y2="90.00" />
<line x1="445.11" x2="445.11" y1="510.00" y2="90.00" />
<line x1="393.68" x2="393.68" y1="510.00" y2="90.00" />
<line x1="340.52" x2="340.52" y1="510.00" y2="90.00" />
<line x1="289.09" x2="289.09" y1="510.00" y2="90.00" />
<line x1="235.93" x2="235.93" y1="510.00" y2="90.00" />
<line x1="187.92" x2="187.92" y1="510.00" y2="90.00" />
<line x1="150.00" x2="850.00" y1="510.00" y2="510.00" />
<line x1="150.00" x2="850.00" y1="319.09" y2="319.09" />
<line x1="150.00" x2="850.00" y1="128.18" y2="128.18" />
</g>
<g>
<text dominant-baseline="hanging" dx="-36.0" dy="18.0" fill="#0004" font-family="Arial, sans-serif" font-size="36" stroke="none" text-anchor="end" x="850.00" y="128.18">FR3</text>
</g>
<g>
<text dominant-baseline="text-bottom" dy="-12.0" fill="black" font-family="Arial, sans-serif" font-size="18.0" font-style="italic" stroke="none" text-anchor="middle" x="500.00" y="90.00">Days since start</text>
</g>
<g>
<text dominant-baseline="central" dx="12.0" dy="12.0" fill="black" font-family="Arial, sans-serif" font-size="18.0" font-style="italic" stroke="none" text-anchor="middle" text-orientation="sideways" writing-mode="vertical-lr" x="850.00" y="300.00">Drips per day</text>
</g>
<polyline fill="none" points="150.27,390.84 150.55,392.58 150.83,392.06 151.11,394.15 151.40,394.52 151.67,391.49 151.95,392.58 152.23,391.39 152.51,394.45 221.96,406.98 222.19,368.94 222.43,370.50 222.66,367.12 222.88,365.09 223.11,365.30 223.32,356.38 223.55,366.69 223.78,368.21 224.00,362.48 224.23,369.00 224.46,363.24 224.69,369.51 224.93,372.44 225.16,371.61 225.40,372.25 225.62,362.64 225.85,367.17 226.09,370.83 226.32,369.74 226.56,373.97 226.79,365.78 227.02,370.11 227.27,377.85 227.50,369.59 227.75,374.09 227.97,361.93 228.21,374.91 228.45,376.06 228.70,379.62 228.95,377.09 229.19,375.21 229.43,374.42 229.67,370.91 229.92,377.10 230.16,375.57 230.40,372.81 230.65,379.08 230.89,374.40 231.14,378.66 231.38,376.67 231.64,381.40 231.90,382.59 232.16,383.89 232.41,379.93 232.66,380.25 232.91,379.14 233.17,384.40 233.44,388.89 233.71,388.69 233.98,388.64 234.24,386.05 234.52,391.67 234.80,392.41 235.07,390.97 235.34,386.84 235.60,382.41 235.87,390.44 236.15,393.41 236.42,388.75 236.68,384.34 236.96,391.45 237.23,390.06 237.50,388.51 237.77,389.21 238.03,385.54 238.31,392.10 238.58,389.02 238.84,383.76 239.11,388.02 239.38,390.44 239.65,388.00 239.93,390.47 240.19,383.65 240.45,386.61 240.73,392.65 241.01,394.30 241.28,388.98 241.55,388.98 241.84,395.49 242.12,394.28 242.39,387.40 242.68,395.72 242.96,393.20 243.23,390.67 243.51,393.34 243.79,393.08 244.07,392.16 244.35,393.35 244.62,387.12 244.90,395.32 245.19,394.94 245.47,397.06 245.75,392.42 246.03,391.22 246.31,395.03 246.60,396.65 246.89,396.76 247.19,398.56 247.47,395.26 247.76,396.08 248.05,396.59 248.33,394.58 248.62,396.85 248.91,398.63 249.20,395.49 249.49,397.51 249.78,395.93 249.96,326.75 250.14,331.74 250.33,341.64 250.50,309.14 250.66,311.01 250.82,308.90 250.91,140.99 251.15,344.16 178.96,467.58 179.78,469.93 180.57,468.56 181.42,471.55 182.28,471.92 182.98,463.33 183.63,459.52 184.34,464.08 184.99,459.34 185.68,462.90 186.46,467.77 187.20,466.24 187.92,464.38 188.69,467.60 189.52,470.43 190.24,464.36 191.04,468.93 191.84,469.22 192.55,464.33 193.37,469.84 194.02,459.94 194.78,466.76 195.46,461.48 196.20,466.29 196.97,467.13 197.69,464.67 198.47,467.96 199.29,470.27" stroke-dasharray="3.6 3.6" stroke-width="3.6" stroke="#aaa" />
<g>
<circle cx="150.27" cy="390.84" r="1.6666666666666667" />
<circle cx="150.55" cy="392.58" r="1.6666666666666667" />
<circle cx="150.83" cy="392.06" r="1.6666666666666667" />
<circle cx="151.11" cy="394.15" r="1.6666666666666667" />
<circle cx="151.40" cy="394.52" r="1.6666666666666667" />
<circle cx="151.67" cy="391.49" r="1.6666666666666667" />
<circle cx="151.95" cy="392.58" r="1.6666666666666667" />
<circle cx="152.23" cy="391.39" r="1.6666666666666667" />
<circle cx="152.51" cy="394.45" r="1.6666666666666667" />
<circle cx="178.96" cy="467.58" r="1.6666666666666667" />
<circle cx="179.78" cy="469.93" r="1.6666666666666667" />
<circle cx="180.57" cy="468.56" r="1.6666666666666667" />
<circle cx="181.42" cy="471.55" r="1.6666666666666667" />
<circle cx="182.28" cy="471.92" r="1.6666666666666667" />
<circle cx="182.98" cy="463.33" r="1.6666666666666667" />
<circle cx="183.63" cy="459.52" r="1.6666666666666667" />
<circle cx="184.34" cy="464.08" r="1.6666666666666667" />
<circle cx="184.99" cy="459.34" r="1.6666666666666667" />
<circle cx="185.68" cy="462.90" r="1.6666666666666667" />
<circle cx="186.46" cy="467.77" r="1.6666666666666667" />
<circle cx="187.20" cy="466.24" r="1.6666666666666667" />
<circle cx="187.92" cy="464.38" r="1.6666666666666667" />
<circle cx="188.69" cy="467.60" r="1.6666666666666667" />
<circle cx="189.52" cy="470.43" r="1.6666666666666667" />
<circle cx="190.24" cy="464.36" r="1.6666666666666667" />
<circle cx="191.04" cy="468.93" r="1.6666666666666667" />
<circle cx="191.84" cy="469.22" r="1.6666666666666667" />
<circle cx="192.55" cy="464.33" r="1.6666666666666667" />
<circle cx="193.37" cy="469.84" r="1.6666666666666667" />
<circle cx="194.02" cy="459.94" r="1.6666666666666667" />
<circle cx="194.78" cy="466.76" r="1.6666666666666667" />
<circle cx="195.46" cy="461.48" r="1.6666666666666667" />
<circle cx="196.20" cy="466.29" r="1.6666666666666667" />
<circle cx="196.97" cy="467.13" r="1.6666666666666667" />
<circle cx="197.69" cy="464.67" r="1.6666666666666667" />
<circle cx="198.47" cy="467.96" r="1.6666666666666667" />
<circle cx="199.29" cy="470.27" r="1.6666666666666667" />
<circle cx="221.96" cy="406.98" r="1.6666666666666667" />
<circle cx="222.19" cy="368.94" r="1.6666666666666667" />
<circle cx="222.43" cy="370.50" r="1.6666666666666667" />
<circle cx="222.66" cy="367.12" r="1.6666666666666667" />
<circle cx="222.88" cy="365.09" r="1.6666666666666667" />
<circle cx="223.11" cy="365.30" r="1.6666666666666667" />
<circle cx="223.32" cy="356.38" r="1.6666666666666667" />
<circle cx="223.55" cy="366.69" r="1.6666666666666667" />
<circle cx="223.78" cy="368.21" r="1.6666666666666667" />
<circle cx="224.00" cy="362.48" r="1.6666666666666667" />
<circle cx="224.23" cy="369.00" r="1.6666666666666667" />
<circle cx="224.46" cy="363.24" r="1.6666666666666667" />
<circle cx="224.69" cy="369.51" r="1.6666666666666667" />
<circle cx="224.93" cy="372.44" r="1.6666666666666667" />
<circle cx="225.16" cy="371.61" r="1.6666666666666667" />
<circle cx="225.40" cy="372.25" r="1.6666666666666667" />
<circle cx="225.62" cy="362.64" r="1.6666666666666667" />
<circle cx="225.85" cy="367.17" r="1.6666666666666667" />
<circle cx="226.09" cy="370.83" r="1.6666666666666667" />
<circle cx="226.32" cy="369.74" r="1.6666666666666667" />
<circle cx="226.56" cy="373.97" r="1.6666666666666667" />
<circle cx="226.79" cy="365.78" r="1.6666666666666667" />
<circle cx="227.02" cy="370.11" r="1.6666666666666667" />
<circle cx="227.27" cy="377.85" r="1.6666666666666667" />
<circle cx="227.50" cy="369.59" r="1.6666666666666667" />
<circle cx="227.75" cy="374.09" r="1.6666666666666667" />
<circle cx="227.97" cy="361.93" r="1.6666666666666667" />
<circle cx="228.21" cy="374.91" r="1.6666666666666667" />
<circle cx="228.45" cy="376.06" r="1.6666666666666667" />
<circle cx="228.70" cy="379.62" r="1.6666666666666667" />
<circle cx="228.95" cy="377.09" r="1.6666666666666667" />
<circle cx="229.19" cy="375.21" r="1.6666666666666667" />
<circle cx="229.43" cy="374.42" r="1.6666666666666667" />
<circle cx="229.67" cy="370.91" r="1.6666666666666667" />
<circle cx="229.92" cy="377.10" r="1.6666666666666667" />
<circle cx="230.16" cy="375.57" r="1.6666666666666667" />
<circle cx="230.40" cy="372.81" r="1.6666666666666667" />
<circle cx="230.65" cy="379.08" r="1.6666666666666667" />
<circle cx="230.89" cy="374.40" r="1.6666666666666667" />
<circle cx="231.14" cy="378.66" r="1.6666666666666667" />
<circle cx="231.38" cy="376.67" r="1.6666666666666667" />
<circle cx="231.64" cy="381.40" r="1.6666666666666667" />
<circle cx="231.90" cy="382.59" r="1.6666666666666667" />
<circle cx="232.16" cy="383.89" r="1.6666666666666667" />
<circle cx="232.41" cy="379.93" r="1.6666666666666667" />
<circle cx="232.66" cy="380.25" r="1.6666666666666667" />
<circle cx="232.91" cy="379.14" r="1.6666666666666667" />
<circle cx="233.17" cy="384.40" r="1.6666666666666667" />
<circle cx="233.44" cy="388.89" r="1.6666666666666667" />
<circle cx="233.71" cy="388.69" r="1.6666666666666667" />
<circle cx="233.98" cy="388.64" r="1.6666666666666667" />
<circle cx="234.24" cy="386.05" r="1.6666666666666667" />
<circle cx="234.52" cy="391.67" r="1.6666666666666667" />
<circle cx="234.80" cy="392.41" r="1.6666666666666667" />
<circle cx="235.07" cy="390.97" r="1.6666666666666667" />
<circle cx="235.34" cy="386.84" r="1.6666666666666667" />
<circle cx="235.60" cy="382.41" r="1.6666666666666667" />
<circle cx="235.87" cy="390.44" r="1.6666666666666667" />
<circle cx="236.15" cy="393.41" r="1.6666666666666667" />
<circle cx="236.42" cy="388.75" r="1.6666666666666667" />
<circle cx="236.68" cy="384.34" r="1.6666666666666667" />
<circle cx="236.96" cy="391.45" r="1.6666666666666667" />
<circle cx="237.23" cy="390.06" r="1.6666666666666667" />
<circle cx="237.50" cy="388.51" r="1.6666666666666667" />
<circle cx="237.77" cy="389.21" r="1.6666666666666667" />
<circle cx="238.03" cy="385.54" r="1.6666666666666667" />
<circle cx="238.31" cy="392.10" r="1.6666666666666667" />
<circle cx="238.58" cy="389.02" r="1.6666666666666667" />
<circle cx="238.84" cy="383.76" r="1.6666666666666667" />
<circle cx="239.11" cy="388.02" r="1.6666666666666667" />
<circle cx="239.38" cy="390.44" r="1.6666666666666667" />
<circle cx="239.65" cy="388.00" r="1.6666666666666667" />
<circle cx="239.93" cy="390.47" r="1.6666666666666667" />
<circle cx="240.19" cy="383.65" r="1.6666666666666667" />
<circle cx="240.45" cy="386.61" r="1.6666666666666667" />
<circle cx="240.73" cy="392.65" r="1.6666666666666667" />
<circle cx="241.01" cy="394.30" r="1.6666666666666667" />
<circle cx="241.28" cy="388.98" r="1.6666666666666667" />
<circle cx="241.55" cy="388.98" r="1.6666666666666667" />
<circle cx="241.84" cy="395.49" r="1.6666666666666667" />
<circle cx="242.12" cy="394.28" r="1.6666666666666667" />
<circle cx="242.39" cy="387.40" r="1.6666666666666667" />
<circle cx="242.68" cy="395.72" r="1.6666666666666667" />
<circle cx="242.96" cy="393.20" r="1.6666666666666667" />
<circle cx="243.23" cy="390.67" r="1.6666666666666667" />
<circle cx="243.51" cy="393.34" r="1.6666666666666667" />
<circle cx="243.79" cy="393.08" r="1.6666666666666667" />
<circle cx="244.07" cy="392.16" r="1.6666666666666667" />
<circle cx="244.35" cy="393.35" r="1.6666666666666667" />
<circle cx="244.62" cy="387.12" r="1.6666666666666667" />
<circle cx="244.90" cy="395.32" r="1.6666666666666667" />
<circle cx="245.19" cy="394.94" r="1.6666666666666667" />
<circle cx="245.47" cy="397.06" r="1.6666666666666667" />
<circle cx="245.75" cy="392.42" r="1.6666666666666667" />
<circle cx="246.03" cy="391.22" r="1.6666666666666667" />
<circle cx="246.31" cy="395.03" r="1.6666666666666667" />
<circle cx="246.60" cy="396.65" r="1.6666666666666667" />
<circle cx="246.89" cy="396.76" r="1.6666666666666667" />
<circle cx="247.19" cy="398.56" r="1.6666666666666667" />
<circle cx="247.47" cy="395.26" r="1.6666666666666667" />
<circle cx="247.76" cy="396.08" r="1.6666666666666667" />
<circle cx="248.05" cy="396.59" r="1.6666666666666667" />
<circle cx="248.33" cy="394.58" r="1.6666666666666667" />
<circle cx="248.62" cy="396.85" r="1.6666666666666667" />
<circle cx="248.91" cy="398.63" r="1.6666666666666667" />
<circle cx="249.20" cy="395.49" r="1.6666666666666667" />
<circle cx="249.49" cy="397.51" r="1.6666666666666667" />
<circle cx="249.78" cy="395.93" r="1.6666666666666667" />
<circle cx="249.96" cy="326.75" r="1.6666666666666667" />
<circle cx="250.14" cy="331.74" r="1.6666666666666667" />
<circle cx="250.33" cy="341.64" r="1.6666666666666667" />
<circle cx="250.50" cy="309.14" r="1.6666666666666667" />
<circle cx="250.66" cy="311.01" r="1.6666666666666667" />
<circle cx="250.82" cy="308.90" r="1.6666666666666667" />
<circle cx="250.91" cy="140.99" r="1.6666666666666667" />
<circle cx="251.15" cy="344.16" r="1.6666666666666667" />
</g>
<g stroke="black">
<line x1="813.75" x2="813.75" y1="510.00" y2="520.00" />
<line x1="760.60" x2="760.60" y1="510.00" y2="520.00" />
<line x1="707.45" x2="707.45" y1="510.00" y2="520.00" />
<line x1="656.01" x2="656.01" y1="510.00" y2="520.00" />
<line x1="602.86" x2="602.86" y1="510.00" y2="520.00" />
<line x1="551.42" x2="551.42" y1="510.00" y2="520.00" />
<line x1="498.27" x2="498.27" y1="510.00" y2="520.00" />
<line x1="445.11" x2="445.11" y1="510.00" y2="520.00" />
<line x1="393.68" x2="393.68" y1="510.00" y2="520.00" />
<line x1="340.52" x2="340.52" y1="510.00" y2="520.00" />
<line x1="289.09" x2="289.09" y1="510.00" y2="520.00" />
<line x1="235.93" x2="235.93" y1="510.00" y2="520.00" />
<line x1="187.92" x2="187.92" y1="510.00" y2="520.00" />
<g fill="black" font-family="Arial, sans-serif" font-size="18.0" stroke="none" text-anchor="start" transform="translate(9.0 0.0)">
<text x="813.75" y="530.57">Feb</text>
<text x="760.60" y="530.57">Jan</text>
<text x="707.45" y="530.57">Dec</text>
<text x="656.01" y="530.57">Nov</text>
<text x="602.86" y="530.57">Oct</text>
<text x="551.42" y="530.57">Sep</text>
<text x="498.27" y="530.57">Aug</text>
<text x="445.11" y="530.57">Jul</text>
<text x="393.68" y="530.57">Jun</text>
<text x="340.52" y="530.57">May</text>
<text x="289.09" y="530.57">Apr</text>
<text x="235.93" y="530.57">Mar</text>
<text x="187.92" y="530.57">Feb</text>
</g>
<line x1="150.00" x2="850.00" y1="510.00" y2="510.00" />
</g>
<g stroke="black">
<line x1="150.00" x2="140.00" y1="510.00" y2="510.00" />
<line x1="150.00" x2="140.00" y1="319.09" y2="319.09" />
<line x1="150.00" x2="140.00" y1="128.18" y2="128.18" />
<g fill="black" font-family="Arial, sans-serif" font-size="18.0" stroke="none" text-anchor="end">
<text x="141.00" y="501.00">0</text>
<text x="141.00" y="310.09">10</text>
<text x="141.00" y="119.18">20</text>
</g>
<line x1="150.00" x2="150.00" y1="510.00" y2="90.00" />
</g>
</g>
</svg>