<?xml version="1.0"?>
<svg version="1.1" viewBox="0 0 1000 600" xmlns:xlink="http://www.w3.org/1999/xlink" xmlns="http://www.w3.org/2000/svg">
<g>
<g stroke-dasharray="3.6 7.2" stroke-width="0.72" stroke="#caa">
<line x1="188.64" x2="188.64" y1="510.00" y2="90.00" />
<line x1="307.56" x2="307.56" y1="510.00" y2="90.00" />
<line x1="426.48" x2="426.48" y1="510.00" y2="90.00" />
<line x1="545.40" x2="545.40" y1="510.00" y2="90.00" />
<line x1="664.32" x2="664.32" y1="510.00" y2="90.00" />
<line x1="783.24" x2="783.24" y1="510.00" y2="90.00" />
<line x1="150.00" x2="850.00" y1="510.00" y2="510.00" />
<line x1="150.00" x2="850.00" y1="465.81" y2="465.81" />
<line x1="150.00" x2="850.00" y1="421.62" y2="421.62" />
<line x1="150.00" x2="850.00" y1="377.42" y2="377.42" />
<line x1="150.00" x2="850.00" y1="333.23" y2="333.23" />
<line x1="150.00" x2="850.00" y1="289.04" y2="289.04" />
<line x1="150.00" x2="850.00" y1="244.85" y2="244.85" />
<line x1="150.00" x2="850.00" y1="200.66" y2="200.66" />
<line x1="150.00" x2="850.00" y1="156.46" y2="156.46" />
<line x1="150.00" x2="850.00" y1="112.27" y2="112.27" />
</g>
<g>
<text dominant-baseline="hanging" dx="-36.0" dy="18.0" fill="#0004" font-family="Arial, sans-serif" font-size="36" stroke="none" text-anchor="end" x="850.00" y="128.18">FR3</text>
</g>
<g>
<text dominant-baseline="text-bottom" dy="-12.0" fill="black" font-family="Arial, sans-serif" font-size="18.0" font-style="italic" stroke="none" text-anchor="middle" x="500.00" y="90.00">Days since start</text>
</g>
<g>
<text dominant-baseline="central" dx="12.0" dy="12.0" fill="black" font-family="Arial, sans-serif" font-size="18.0" font-style="italic" stroke="none" text-anchor="middle" text-orientation="sideways" writing-mode="vertical-lr" x="850.00" y="300.00">Drips per day</text>
</g>
<polyline fill="none" points="150.00,509.97 151.93,509.97 153.86,509.97 155.82,509.97 157.78,509.97 159.70,509.97 161.63,509.97 163.55,509.97 165.51,509.97 165.85,509.84 644.08,509.68 644.09,486.14 644.09,488.79 644.09,495.86 644.10,487.54 644.43,509.84 644.44,462.27 644.44,414.55 644.44,319.09 644.44,128.18 644.44,128.18 644.44,128.18 644.44,128.18 644.44,128.18 644.44,128.18 644.44,128.18 644.44,128.18 644.44,128.18 644.44,128.18 644.44,128.18 644.44,128.18 644.44,128.18 644.44,128.18 644.44,128.18 644.44,128.18 644.44,128.18 644.44,128.18 644.44,128.18 644.44,128.18 644.44,128.18 644.44,128.18 644.44,128.18 644.44,128.18 644.44,128.18 644.44,128.18 644.44,128.18 644.44,128.18 644.44,128.18 644.44,128.18 644.44,128.18 644.44,128.18 644.44,128.18 644.44,128.18 644.44,128.18 644.44,128.18 644.44,128.18 644.44,128.18 644.44,128.18 644.44,128.18 644.44,128.18 644.44,128.18 644.44,128.18 644.44,128.18 644.44,128.18 644.44,128.18 644.44,128.18 644.44,128.18 644.44,128.18 644.44,128.18 644.44,128.18 644.44,128.18 644.44,128.18 644.44,128.18 644.44,128.18 644.44,128.18 644.44,128.18 644.44,128.18 644.44,128.18 644.44,128.18 644.44,128.18 644.44,128.18 644.45,128.18 644.45,128.18 644.45,128.18 644.45,128.18 644.45,128.18 644.45,128.18 644.45,319.09 644.45,128.18 644.45,128.18 644.45,128.18 644.45,128.18 644.45,128.18 644.45,128.18 644.45,128.18 644.45,128.18 644.45,128.18 644.45,128.18 644.45,128.18 644.45,128.18 644.45,128.18 644.45,128.18 644.45,128.18 644.45,128.18 644.45,128.18 644.45,128.18 644.45,128.18 644.45,128.18 644.45,128.18 644.45,128.18 644.45,128.18 644.45,128.18 644.45,128.18 644.45,128.18 644.45,128.18 644.45,128.18 644.45,128.18 644.45,128.18 644.45,128.18 644.45,128.18 644.45,128.18 644.45,128.18 644.45,128.18 644.45,128.18 644.45,128.18 644.45,128.18 644.45,128.18 644.45,128.18 644.45,128.18 644.45,128.18 644.45,128.18 644.45,128.18 644.45,128.18 644.45,128.18 644.45,128.18 644.45,128.18 644.45,128.18 644.45,128.18 644.45,128.18 644.45,128.18 644.45,128.18 644.45,128.18 644.45,128.18 644.45,128.18 644.45,128.18 644.45,128.18 644.45,128.18 644.45,128.18 644.45,128.18 644.46,486.14 644.46,128.18 644.46,128.18 644.46,128.18 644.46,128.18 644.46,128.18 644.46,128.18 644.46,128.18 644.46,128.18 644.46,128.18 644.46,128.18 644.46,128.18 644.46,128.18 644.46,128.18 644.46,128.18 644.46,128.18 644.46,128.18 644.46,128.18 644.46,128.18 644.46,128.18 644.46,128.18 644.46,128.18 644.46,128.18 644.46,128.18 644.46,128.18 644.46,128.18 644.46,128.18 644.46,128.18 644.46,128.18 644.46,128.18 644.46,128.18 644.46,128.18 644.46,128.18 644.46,128.18 644.46,128.18 644.46,128.18 644.46,128.18 644.46,128.18 644.46,128.18 644.46,128.18 644.46,128.18 644.46,128.18 644.46,128.18 644.46,128.18 644.46,128.18 644.46,128.18 644.46,128.18 644.46,128.18 644.46,128.18 644.46,128.18 644.46,128.18 644.46,128.18 644.46,128.18 644.46,128.18 644.46,128.18 644.46,128.18 644.46,128.18 644.46,128.18 644.46,128.18 644.46,128.18 644.46,128.18 644.47,128.18 644.47,128.18 644.47,128.18 644.47,128.18 644.47,128.18 644.47,128.18 644.47,128.18 644.47,128.18 644.47,128.18 644.47,128.18 644.47,128.18 644.47,128.18 644.47,128.18 644.47,128.18 644.47,128.18 644.47,128.18 644.47,128.18 644.47,128.18 644.47,128.18 644.47,128.18 644.47,128.18 644.47,128.18 644.47,128.18 644.47,128.18 644.47,128.18 644.47,128.18 644.47,128.18 644.47,128.18 644.47,128.18 644.47,128.18 644.47,128.18 644.47,128.18 644.47,128.18 644.47,128.18 644.47,128.18 644.47,128.18 644.47,128.18 644.47,128.18 644.47,128.18 644.47,128.18 644.47,128.18 644.47,128.18 644.47,128.18 644.47,128.18 644.47,128.18 644.47,128.18 644.47,128.18 644.47,128.18 644.47,128.18 644.47,128.18 644.47,128.18 644.47,128.18 644.47,128.18 644.47,128.18 644.47,128.18 644.47,128.18 644.47,128.18 644.47,128.18 644.47,128.18 644.47,128.18 644.47,128.18 644.47,128.18 644.47,128.18 644.47,128.18 644.47,128.18 644.47,128.18 644.47,128.18 644.47,128.18 644.47,128.18 644.47,128.18 644.47,128.18 644.47,128.18 644.47,128.18 644.48,128.18 644.48,128.18 644.48,128.18 644.48,128.18 644.48,486.14 644.48,128.18 644.48,128.18 644.48,128.18 644.48,128.18 644.48,128.18 644.48,128.18 644.48,128.18 644.48,128.18 644.48,128.18 644.48,128.18 644.48,486.14 644.48,128.18 644.48,128.18 644.48,128.18 644.48,128.18 644.48,128.18 644.48,128.18 644.48,128.18 644.48,128.18 644.48,128.18 644.48,128.18 644.48,128.18 644.48,128.18 644.48,128.18 644.48,128.18 644.48,128.18 644.48,128.18 644.48,128.18 644.48,128.18 644.48,128.18 644.48,128.18 644.48,128.18 644.48,128.18 644.48,128.18 644.48,128.18 644.48,128.18 644.48,128.18 644.48,128.18 644.49,128.18 644.49,128.18 644.49,128.18 644.49,128.18 644.49,128.18 644.49,128.18 644.49,128.18 644.49,128.18 644.49,128.18 644.49,128.18 644.49,128.18 644.49,128.18 644.49,128.18 644.49,128.18 644.49,128.18 644.49,128.18 644.49,128.18 644.49,128.18 644.49,128.18 644.49,128.18 644.49,128.18 644.49,128.18 644.49,128.18 644.49,128.18 644.49,128.18 644.49,128.18 644.49,128.18 644.49,128.18 644.49,128.18 644.49,128.18 644.49,128.18 644.49,128.18 644.49,128.18 644.49,128.18 644.49,128.18 644.49,128.18 644.49,128.18 644.49,128.18 644.49,128.18 644.49,128.18 644.49,128.18 644.49,128.18 644.49,128.18 644.49,128.18 644.49,128.18 644.49,128.18 644.49,128.18 644.49,128.18 644.49,128.18 644.49,128.18 644.49,128.18 644.49,128.18 644.49,128.18 644.49,128.18 644.49,128.18 644.49,128.18 644.49,128.18 644.49,128.18 644.49,128.18 644.49,128.18 644.49,128.18 644.49,128.18 644.49,128.18 644.49,128.18 644.49,128.18 644.49,128.18 644.49,128.18 644.49,128.18 644.50,486.14 644.50,128.18 644.50,128.18 644.50,128.18 644.50,128.18 644.50,128.18 644.50,128.18 644.50,128.18 644.50,128.18 644.50,128.18 644.50,128.18 644.50,128.18 644.50,128.18 644.50,128.18 644.50,128.18 644.50,128.18 644.50,128.18 644.50,128.18 644.50,128.18 644.50,128.18 644.50,128.18 644.50,128.18 644.50,128.18 644.50,128.18 644.50,128.18 644.50,128.18 644.50,128.18 644.50,128.18 644.50,128.18 644.50,128.18 644.50,128.18 644.50,128.18 644.50,128.18 644.50,128.18 644.50,128.18 644.50,128.18 644.50,128.18 644.50,128.18 644.50,128.18 644.50,128.18 644.50,319.09 644.50,128.18 644.50,128.18 644.50,128.18 644.50,128.18 644.50,486.14 644.51,128.18 644.51,128.18 644.51,128.18 644.52,506.59 644.52,128.18 644.52,128.18 644.52,128.18 644.52,128.18 644.52,128.18 644.52,128.18 644.52,128.18 644.52,128.18 644.52,128.18 644.52,128.18 644.52,128.18 644.52,128.18 644.52,128.18 644.52,128.18 644.52,128.18 644.52,128.18 644.52,128.18 644.52,128.18 644.52,128.18 644.52,128.18 644.52,128.18 644.52,128.18 644.52,128.18 644.52,128.18 644.52,128.18 644.52,128.18 644.52,128.18 644.52,128.18 644.52,128.18 644.52,128.18 644.53,128.18 644.53,128.18 644.53,128.18 644.53,128.18 644.53,128.18 644.53,128.18 644.53,128.18 644.53,128.18 644.53,128.18 644.53,128.18 644.53,128.18 644.53,128.18 644.53,128.18 644.53,128.18 644.53,128.18 644.53,128.18 644.53,128.18 644.53,128.18 644.53,128.18 644.53,128.18 644.53,128.18 644.53,128.18 644.53,128.18 644.53,128.18 644.53,128.18 644.53,128.18 644.53,128.18 644.53,128.18 644.53,128.18 644.53,128.18 644.53,128.18 644.53,128.18 644.53,128.18 644.53,128.18 644.53,128.18 644.53,128.18 644.53,128.18 644.53,128.18 644.53,128.18 644.53,128.18 644.53,128.18 644.53,128.18 644.53,128.18 644.53,128.18 644.53,128.18 644.53,128.18 644.53,128.18 644.53,128.18 644.53,128.18 644.53,128.18 644.53,128.18 644.53,128.18 644.53,128.18 644.53,128.18 644.53,128.18 644.53,128.18 644.53,128.18 644.53,128.18 644.53,128.18 644.53,128.18 644.53,128.18 644.53,128.18 644.53,128.18 644.53,128.18 644.53,128.18 644.53,128.18 644.53,128.18 644.53,128.18 644.53,128.18 644.53,128.18 644.53,128.18 644.53,128.18 644.53,128.18 644.54,128.18 644.54,128.18 644.54,128.18 644.54,128.18 644.54,128.18 644.54,128.18 644.54,128.18 644.54,128.18 644.54,128.18 644.54,128.18 644.54,128.18 644.54,128.18 644.54,128.18 644.54,128.18 644.54,128.18 644.54,128.18 644.54,128.18 644.54,128.18 644.54,128.18 644.54,128.18 644.54,128.18 644.54,128.18 644.54,128.18 644.54,128.18 644.54,128.18 644.54,128.18 644.54,128.18 644.54,128.18 644.54,128.18 644.54,128.18 644.54,128.18 644.54,128.18 644.54,128.18 644.54,128.18 644.54,128.18 644.54,128.18 644.54,128.18 644.54,128.18 644.54,128.18 644.54,128.18 644.54,128.18 644.54,128.18 644.54,128.18 644.54,128.18 644.54,128.18 644.54,128.18 644.54,128.18 644.54,128.18 644.54,128.18 644.54,128.18 644.54,128.18 644.54,128.18 644.54,128.18 644.54,128.18 644.54,128.18 644.54,128.18 644.54,128.18 644.54,128.18 644.54,128.18 644.54,128.18 644.54,128.18 644.54,128.18 644.54,128.18 644.54,128.18 644.54,128.18 644.54,128.18 644.54,128.18 644.54,128.18 644.54,128.18 644.54,128.18 644.54,128.18 644.54,128.18 644.55,128.18 644.55,128.18 644.55,128.18 644.55,128.18 644.55,128.18 644.55,128.18 644.55,128.18 644.55,128.18 644.55,128.18 644.55,128.18 644.55,128.18 644.55,486.14 644.55,128.18 644.55,128.18 644.55,128.18 644.55,128.18 644.55,128.18 644.55,128.18 644.55,128.18 644.55,128.18 644.55,128.18 644.55,128.18 644.55,128.18 644.55,128.18 644.55,128.18 644.55,128.18 644.74,509.73 644.75,497.27 644.76,504.21 644.78,507.85 644.93,509.65 644.93,482.73 644.93,382.73 644.93,128.18 644.93,462.27 644.98,508.92 647.18,509.98 648.79,509.97 650.42,509.97 652.01,509.97 653.58,509.97 655.15,509.97 656.62,509.96 658.21,509.97 659.81,509.97 661.35,509.97 662.96,509.97 664.51,509.97 666.12,509.97 667.77,509.97 669.41,509.97 671.06,509.97 672.60,509.97 674.19,509.97 675.82,509.97 677.44,509.97 679.11,509.97 680.68,509.97 682.31,509.97 684.02,509.97 685.64,509.97 687.31,509.97 688.84,509.97 690.53,509.97 692.22,509.97 693.96,509.97 695.67,509.97 697.35,509.97 699.03,509.97 700.66,509.97 702.37,509.97 704.06,509.97 705.71,509.97 707.45,509.97 709.12,509.97 710.85,509.97 712.55,509.97 714.32,509.97 716.10,509.97 717.90,509.97 719.65,509.97 721.39,509.97 723.13,509.97 724.94,509.97 726.81,509.97 728.68,509.97 730.55,509.97 732.39,509.97 734.30,509.97 736.23,509.97 738.14,509.97 739.99,509.97 741.76,509.97 743.66,509.97 745.61,509.97 747.48,509.97 749.29,509.97 751.20,509.97 753.10,509.97 754.97,509.97 756.85,509.97 758.67,509.97 760.60,509.97 762.47,509.97 764.27,509.97 766.13,509.97 768.03,509.97 769.89,509.97 771.79,509.97 773.59,509.97 775.43,509.97 777.36,509.97 779.32,509.97 781.20,509.97 783.08,509.97 785.06,509.97 787.02,509.97 788.87,509.97 790.86,509.97 792.80,509.97 794.71,509.97 796.65,509.97 798.59,509.97 800.52,509.97 802.47,509.97 804.31,509.97 806.29,509.97 808.27,509.97 810.28,509.97 812.21,509.97 814.12,509.97 816.09,509.97 818.10,509.97 820.10,509.97 822.14,509.97 824.12,509.97 826.11,509.97 828.11,509.97 830.08,509.97 832.08,509.97 834.12,509.97 836.11,509.97 838.12,509.97 840.11,509.97 841.35,509.96 842.63,509.96 843.98,509.96 845.11,509.95 846.25,509.95 847.38,509.95 847.99,509.91 848.09,509.49 848.25,509.67 849.62,509.96 850.00,509.86 348.95,509.99 354.61,509.99 360.09,509.99 366.00,509.99 371.96,509.99 376.82,509.99 381.32,509.99 386.26,509.99 390.74,509.99 395.57,509.99 400.94,509.99 406.13,509.99 411.11,509.99 416.46,509.99 422.20,509.99 427.17,509.99 432.70,509.99 438.27,509.99 443.24,509.99 448.89,509.99 453.43,509.99 458.68,509.99 463.36,509.99 468.55,509.99 473.85,509.99 478.85,509.99 484.25,509.99 489.97,509.99" stroke-dasharray="3.6 3.6" stroke-width="3.6" stroke="#aaa" />
<g>
<circle cx="150.00" cy="509.97" r="1.6666666666666667" />
<circle cx="151.93" cy="509.97" r="1.6666666666666667" />
<circle cx="153.86" cy="509.97" r="1.6666666666666667" />
<circle cx="155.82" cy="509.97" r="1.6666666666666667" />
<circle cx="157.78" cy="509.97" r="1.6666666666666667" />
<circle cx="159.70" cy="509.97" r="1.6666666666666667" />
<circle cx="161.63" cy="509.97" r="1.6666666666666667" />
<circle cx="163.55" cy="509.97" r="1.6666666666666667" />
<circle cx="165.51" cy="509.97" r="1.6666666666666667" />
<circle cx="165.85" cy="509.84" r="1.6666666666666667" />
<circle cx="348.95" cy="509.99" r="1.6666666666666667" />
<circle cx="354.61" cy="509.99" r="1.6666666666666667" />
<circle cx="360.09" cy="509.99" r="1.6666666666666667" />
<circle cx="366.00" cy="509.99" r="1.6666666666666667" />
<circle cx="371.96" cy="509.99" r="1.6666666666666667" />
<circle cx="376.82" cy="509.99" r="1.6666666666666667" />
<circle cx="381.32" cy="509.99" r="1.6666666666666667" />
<circle cx="386.26" cy="509.99" r="1.6666666666666667" />
<circle cx="390.74" cy="509.99" r="1.6666666666666667" />
<circle cx="395.57" cy="509.99" r="1.6666666666666667" />
<circle cx="400.94" cy="509.99" r="1.6666666666666667" />
<circle cx="406.13" cy="509.99" r="1.6666666666666667" />
<circle cx="411.11" cy="509.99" r="1.6666666666666667" />
<circle cx="416.46" cy="509.99" r="1.6666666666666667" />
<circle cx="422.20" cy="509.99" r="1.6666666666666667" />
<circle cx="427.17" cy="509.99" r="1.6666666666666667" />
<circle cx="432.70" cy="509.99" r="1.6666666666666667" />
<circle cx="438.27" cy="509.99" r="1.6666666666666667" />
<circle cx="443.24" cy="509.99" r="1.6666666666666667" />
<circle cx="448.89" cy="509.99" r="1.6666666666666667" />
<circle cx="453.43" cy="509.99" r="1.6666666666666667" />
<circle cx="458.68" cy="509.99" r="1.6666666666666667" />
<circle cx="463.36" cy="509.99" r="1.6666666666666667" />
<circle cx="468.55" cy="509.99" r="1.6666666666666667" />
<circle cx="473.85" cy="509.99" r="1.6666666666666667" />
<circle cx="478.85" cy="509.99" r="1.6666666666666667" />
<circle cx="484.25" cy="509.99" r="1.6666666666666667" />
<circle cx="489.97" cy="509.99" r="1.6666666666666667" />
<circle cx="644.08" cy="509.68" r="1.6666666666666667" />
<circle cx="644.09" cy="486.14" r="1.6666666666666667" />
<circle cx="644.09" cy="488.79" r="1.6666666666666667" />
<circle cx="644.09" cy="495.86" r="1.6666666666666667" />
<circle cx="644.10" cy="487.54" r="1.6666666666666667" />
<circle cx="644.43" cy="509.84" r="1.6666666666666667" />
<circle cx="644.44" cy="462.27" r="1.6666666666666667" />
<circle cx="644.44" cy="414.55" r="1.6666666666666667" />
<circle cx="644.44" cy="319.09" r="1.6666666666666667" />
<circle cx="644.44" cy="128.18" r="1.6666666666666667" />
<circle cx="644.44" cy="128.18" r="1.6666666666666667" />
<circle cx="644.44" cy="128.18" r="1.6666666666666667" />
<circle cx="644.44" cy="128.18" r="1.6666666666666667" />
<circle cx="644.44" cy="128.18" r="1.6666666666666667" />
<circle cx="644.44" cy="128.18" r="1.6666666666666667" />
<circle cx="644.44" cy="128.18" r="1.6666666666666667" />
<circle cx="644.44" cy="128.18" r="1.6666666666666667" />
<circle cx="644.44" cy="128.18" r="1.6666666666666667" />
<circle cx="644.44" cy="128.18" r="1.6666666666666667" />
<circle cx="644.44" cy="128.18" r="1.6666666666666667" />
<circle cx="644.44" cy="128.18" r="1.6666666666666667" />
<circle cx="644.44" cy="128.18" r="1.6666666666666667" />
<circle cx="644.44" cy="128.18" r="1.6666666666666667" />
<circle cx="644.44" cy="128.18" r="1.6666666666666667" />
<circle cx="644.44" cy="128.18" r="1.6666666666666667" />
<circle cx="644.44" cy="128.18" r="1.6666666666666667" />
<circle cx="644.44" cy="128.18" r="1.6666666666666667" />
<circle cx="644.44" cy="128.18" r="1.6666666666666667" />
<circle cx="644.44" cy="128.18" r="1.6666666666666667" />
<circle cx="644.44" cy="128.18" r="1.6666666666666667" />
<circle cx="644.44" cy="128.18" r="1.6666666666666667" />
<circle cx="644.44" cy="128.18" r="1.6666666666666667" />
<circle cx="644.44" cy="128.18" r="1.6666666666666667" />
<circle cx="644.44" cy="128.18" r="1.6666666666666667" />
<circle cx="644.44" cy="128.18" r="1.6666666666666667" />
<circle cx="644.44" cy="128.18" r="1.6666666666666667" />
<circle cx="644.44" cy="128.18" r="1.6666666666666667" />
<circle cx="644.44" cy="128.18" r="1.6666666666666667" />
<circle cx="644.44" cy="128.18" r="1.6666666666666667" />
<circle cx="644.44" cy="128.18" r="1.6666666666666667" />
<circle cx="644.44" cy="128.18" r="1.6666666666666667" />
<circle cx="644.44" cy="128.18" r="1.6666666666666667" />
<circle cx="644.44" cy="128.18" r="1.6666666666666667" />
<circle cx="644.44" cy="128.18" r="1.6666666666666667" />
<circle cx="644.44" cy="128.18" r="1.6666666666666667" />
<circle cx="644.44" cy="128.18" r="1.6666666666666667" />
<circle cx="644.44" cy="128.18" r="1.6666666666666667" />
<circle cx="644.44" cy="128.18" r="1.6666666666666667" />
<circle cx="644.44" cy="128.18" r="1.6666666666666667" />
<circle cx="644.44" cy="128.18" r="1.6666666666666667" />
<circle cx="644.44" cy="128.18" r="1.6666666666666667" />
<circle cx="644.44" cy="128.18" r="1.6666666666666667" />
<circle cx="644.44" cy="128.18" r="1.6666666666666667" />
<circle cx="644.44" cy="128.18" r="1.6666666666666667" />
<circle cx="644.44" cy="128.18" r="1.6666666666666667" />
<circle cx="644.44" cy="128.18" r="1.6666666666666667" />
<circle cx="644.44" cy="128.18" r="1.6666666666666667" />
<circle cx="644.44" cy="128.18" r="1.6666666666666667" />
<circle cx="644.44" cy="128.18" r="1.6666666666666667" />
<circle cx="644.44" cy="128.18" r="1.6666666666666667" />
<circle cx="644.44" cy="128.18" r="1.6666666666666667" />
<circle cx="644.44" cy="128.18" r="1.6666666666666667" />
<circle cx="644.44" cy="128.18" r="1.6666666666666667" />
<circle cx="644.44" cy="128.18" r="1.6666666666666667" />
<circle cx="644.44" cy="128.18" r="1.6666666666666667" />
<circle cx="644.44" cy="128.18" r="1.6666666666666667" />
<circle cx="644.44" cy="128.18" r="1.6666666666666667" />
<circle cx="644.44" cy="128.18" r="1.6666666666666667" />
<circle cx="644.44" cy="128.18" r="1.6666666666666667" />
<circle cx="644.44" cy="128.18" r="1.6666666666666667" />
<circle cx="644.44" cy="128.18" r="1.6666666666666667" />
<circle cx="644.45" cy="128.18" r="1.6666666666666667" />
<circle cx="644.45" cy="128.18" r="1.6666666666666667" />
<circle cx="644.45" cy="128.18" r="1.6666666666666667" />
<circle cx="644.45" cy="128.18" r="1.6666666666666667" />
<circle cx="644.45" cy="128.18" r="1.6666666666666667" />
<circle cx="644.45" cy="128.18" r="1.6666666666666667" />
<circle cx="644.45" cy="319.09" r="1.6666666666666667" />
<circle cx="644.45" cy="128.18" r="1.6666666666666667" />
<circle cx="644.45" cy="128.18" r="1.6666666666666667" />
<circle cx="644.45" cy="128.18" r="1.6666666666666667" />
<circle cx="644.45" cy="128.18" r="1.6666666666666667" />
<circle cx="644.45" cy="128.18" r="1.6666666666666667" />
<circle cx="644.45" cy="128.18" r="1.6666666666666667" />
<circle cx="644.45" cy="128.18" r="1.6666666666666667" />
<circle cx="644.45" cy="128.18" r="1.6666666666666667" />
<circle cx="644.45" cy="128.18" r="1.6666666666666667" />
<circle cx="644.45" cy="128.18" r="1.6666666666666667" />
<circle cx="644.45" cy="128.18" r="1.6666666666666667" />
<circle cx="644.45" cy="128.18" r="1.6666666666666667" />
<circle cx="644.45" cy="128.18" r="1.6666666666666667" />
<circle cx="644.45" cy="128.18" r="1.6666666666666667" />
<circle cx="644.45" cy="128.18" r="1.6666666666666667" />
<circle cx="644.45" cy="128.18" r="1.6666666666666667" />
<circle cx="644.45" cy="128.18" r="1.6666666666666667" />
<circle cx="644.45" cy="128.18" r="1.6666666666666667" />
<circle cx="644.45" cy="128.18" r="1.6666666666666667" />
<circle cx="644.45" cy="128.18" r="1.6666666666666667" />
<circle cx="644.45" cy="128.18" r="1.6666666666666667" />
<circle cx="644.45" cy="128.18" r="1.6666666666666667" />
<circle cx="644.45" cy="128.18" r="1.6666666666666667" />
<circle cx="644.45" cy="128.18" r="1.6666666666666667" />
<circle cx="644.45" cy="128.18" r="1.6666666666666667" />
<circle cx="644.45" cy="128.18" r="1.6666666666666667" />
<circle cx="644.45" cy="128.18" r="1.6666666666666667" />
<circle cx="644.45" cy="128.18" r="1.6666666666666667" />
<circle cx="644.45" cy="128.18" r="1.6666666666666667" />
<circle cx="644.45" cy="128.18" r="1.6666666666666667" />
<circle cx="644.45" cy="128.18" r="1.6666666666666667" />
<circle cx="644.45" cy="128.18" r="1.6666666666666667" />
<circle cx="644.45" cy="128.18" r="1.6666666666666667" />
<circle cx="644.45" cy="128.18" r="1.6666666666666667" />
<circle cx="644.45" cy="128.18" r="1.6666666666666667" />
<circle cx="644.45" cy="128.18" r="1.6666666666666667" />
<circle cx="644.45" cy="128.18" r="1.6666666666666667" />
<circle cx="644.45" cy="128.18" r="1.6666666666666667" />
<circle cx="644.45" cy="128.18" r="1.6666666666666667" />
<circle cx="644.45" cy="128.18" r="1.6666666666666667" />
<circle cx="644.45" cy="128.18" r="1.6666666666666667" />
<circle cx="644.45" cy="128.18" r="1.6666666666666667" />
<circle cx="644.45" cy="128.18" r="1.6666666666666667" />
<circle cx="644.45" cy="128.18" r="1.6666666666666667" />
<circle cx="644.45" cy="128.18" r="1.6666666666666667" />
<circle cx="644.45" cy="128.18" r="1.6666666666666667" />
<circle cx="644.45" cy="128.18" r="1.6666666666666667" />
<circle cx="644.45" cy="128.18" r="1.6666666666666667" />
<circle cx="644.45" cy="128.18" r="1.6666666666666667" />
<circle cx="644.45" cy="128.18" r="1.6666666666666667" />
<circle cx="644.45" cy="128.18" r="1.6666666666666667" />
<circle cx="644.45" cy="128.18" r="1.6666666666666667" />
<circle cx="644.45" cy="128.18" r="1.6666666666666667" />
<circle cx="644.45" cy="128.18" r="1.6666666666666667" />
<circle cx="644.45" cy="128.18" r="1.6666666666666667" />
<circle cx="644.45" cy="128.18" r="1.6666666666666667" />
<circle cx="644.45" cy="128.18" r="1.6666666666666667" />
<circle cx="644.45" cy="128.18" r="1.6666666666666667" />
<circle cx="644.45" cy="128.18" r="1.6666666666666667" />
<circle cx="644.45" cy="128.18" r="1.6666666666666667" />
<circle cx="644.45" cy="128.18" r="1.6666666666666667" />
<circle cx="644.46" cy="486.14" r="1.6666666666666667" />
<circle cx="644.46" cy="128.18" r="1.6666666666666667" />
<circle cx="644.46" cy="128.18" r="1.6666666666666667" />
<circle cx="644.46" cy="128.18" r="1.6666666666666667" />
<circle cx="644.46" cy="128.18" r="1.6666666666666667" />
<circle cx="644.46" cy="128.18" r="1.6666666666666667" />
<circle cx="644.46" cy="128.18" r="1.6666666666666667" />
<circle cx="644.46" cy="128.18" r="1.6666666666666667" />
<circle cx="644.46" cy="128.18" r="1.6666666666666667" />
<circle cx="644.46" cy="128.18" r="1.6666666666666667" />
<circle cx="644.46" cy="128.18" r="1.6666666666666667" />
<circle cx="644.46" cy="128.18" r="1.6666666666666667" />
<circle cx="644.46" cy="128.18" r="1.6666666666666667" />
<circle cx="644.46" cy="128.18" r="1.6666666666666667" />
<circle cx="644.46" cy="128.18" r="1.6666666666666667" />
<circle cx="644.46" cy="128.18" r="1.6666666666666667" />
<circle cx="644.46" cy="128.18" r="1.6666666666666667" />
<circle cx="644.46" cy="128.18" r="1.6666666666666667" />
<circle cx="644.46" cy="128.18" r="1.6666666666666667" />
<circle cx="644.46" cy="128.18" r="1.6666666666666667" />
<circle cx="644.46" cy="128.18" r="1.6666666666666667" />
<circle cx="644.46" cy="128.18" r="1.6666666666666667" />
<circle cx="644.46" cy="128.18" r="1.6666666666666667" />
<circle cx="644.46" cy="128.18" r="1.6666666666666667" />
<circle cx="644.46" cy="128.18" r="1.6666666666666667" />
<circle cx="644.46" cy="128.18" r="1.6666666666666667" />
<circle cx="644.46" cy="128.18" r="1.6666666666666667" />
<circle cx="644.46" cy="128.18" r="1.6666666666666667" />
<circle cx="644.46" cy="128.18" r="1.6666666666666667" />
<circle cx="644.46" cy="128.18" r="1.6666666666666667" />
<circle cx="644.46" cy="128.18" r="1.6666666666666667" />
<circle cx="644.46" cy="128.18" r="1.6666666666666667" />
<circle cx="644.46" cy="128.18" r="1.6666666666666667" />
<circle cx="644.46" cy="128.18" r="1.6666666666666667" />
<circle cx="644.46" cy="128.18" r="1.6666666666666667" />
<circle cx="644.46" cy="128.18" r="1.6666666666666667" />
<circle cx="644.46" cy="128.18" r="1.6666666666666667" />
<circle cx="644.46" cy="128.18" r="1.6666666666666667" />
<circle cx="644.46" cy="128.18" r="1.6666666666666667" />
<circle cx="644.46" cy="128.18" r="1.6666666666666667" />
<circle cx="644.46" cy="128.18" r="1.6666666666666667" />
<circle cx="644.46" cy="128.18" r="1.6666666666666667" />
<circle cx="644.46" cy="128.18" r="1.6666666666666667" />
<circle cx="644.46" cy="128.18" r="1.6666666666666667" />
<circle cx="644.46" cy="128.18" r="1.6666666666666667" />
<circle cx="644.46" cy="128.18" r="1.6666666666666667" />
<circle cx="644.46" cy="128.18" r="1.6666666666666667" />
<circle cx="644.46" cy="128.18" r="1.6666666666666667" />
<circle cx="644.46" cy="128.18" r="1.6666666666666667" />
<circle cx="644.46" cy="128.18" r="1.6666666666666667" />
<circle cx="644.46" cy="128.18" r="1.6666666666666667" />
<circle cx="644.46" cy="128.18" r="1.6666666666666667" />
<circle cx="644.46" cy="128.18" r="1.6666666666666667" />
<circle cx="644.46" cy="128.18" r="1.6666666666666667" />
<circle cx="644.46" cy="128.18" r="1.6666666666666667" />
<circle cx="644.46" cy="128.18" r="1.6666666666666667" />
<circle cx="644.46" cy="128.18" r="1.6666666666666667" />
<circle cx="644.46" cy="128.18" r="1.6666666666666667" />
<circle cx="644.46" cy="128.18" r="1.6666666666666667" />
<circle cx="644.46" cy="128.18" r="1.6666666666666667" />
<circle cx="644.46" cy="128.18" r="1.6666666666666667" />
<circle cx="644.47" cy="128.18" r="1.6666666666666667" />
<circle cx="644.47" cy="128.18" r="1.6666666666666667" />
<circle cx="644.47" cy="128.18" r="1.6666666666666667" />
<circle cx="644.47" cy="128.18" r="1.6666666666666667" />
<circle cx="644.47" cy="128.18" r="1.6666666666666667" />
<circle cx="644.47" cy="128.18" r="1.6666666666666667" />
<circle cx="644.47" cy="128.18" r="1.6666666666666667" />
<circle cx="644.47" cy="128.18" r="1.6666666666666667" />
<circle cx="644.47" cy="128.18" r="1.6666666666666667" />
<circle cx="644.47" cy="128.18" r="1.6666666666666667" />
<circle cx="644.47" cy="128.18" r="1.6666666666666667" />
<circle cx="644.47" cy="128.18" r="1.6666666666666667" />
<circle cx="644.47" cy="128.18" r="1.6666666666666667" />
<circle cx="644.47" cy="128.18" r="1.6666666666666667" />
<circle cx="644.47" cy="128.18" r="1.6666666666666667" />
<circle cx="644.47" cy="128.18" r="1.6666666666666667" />
<circle cx="644.47" cy="128.18" r="1.6666666666666667" />
<circle cx="644.47" cy="128.18" r="1.6666666666666667" />
<circle cx="644.47" cy="128.18" r="1.6666666666666667" />
<circle cx="644.47" cy="128.18" r="1.6666666666666667" />
<circle cx="644.47" cy="128.18" r="1.6666666666666667" />
<circle cx="644.47" cy="128.18" r="1.6666666666666667" />
<circle cx="644.47" cy="128.18" r="1.6666666666666667" />
<circle cx="644.47" cy="128.18" r="1.6666666666666667" />
<circle cx="644.47" cy="128.18" r="1.6666666666666667" />
<circle cx="644.47" cy="128.18" r="1.6666666666666667" />
<circle cx="644.47" cy="128.18" r="1.6666666666666667" />
<circle cx="644.47" cy="128.18" r="1.6666666666666667" />
<circle cx="644.47" cy="128.18" r="1.6666666666666667" />
<circle cx="644.47" cy="128.18" r="1.6666666666666667" />
<circle cx="644.47" cy="128.18" r="1.6666666666666667" />
<circle cx="644.47" cy="128.18" r="1.6666666666666667" />
<circle cx="644.47" cy="128.18" r="1.6666666666666667" />
<circle cx="644.47" cy="128.18" r="1.6666666666666667" />
<circle cx="644.47" cy="128.18" r="1.6666666666666667" />
<circle cx="644.47" cy="128.18" r="1.6666666666666667" />
<circle cx="644.47" cy="128.18" r="1.6666666666666667" />
<circle cx="644.47" cy="128.18" r="1.6666666666666667" />
<circle cx="644.47" cy="128.18" r="1.6666666666666667" />
<circle cx="644.47" cy="128.18" r="1.6666666666666667" />
<circle cx="644.47" cy="128.18" r="1.6666666666666667" />
<circle cx="644.47" cy="128.18" r="1.6666666666666667" />
<circle cx="644.47" cy="128.18" r="1.6666666666666667" />
<circle cx="644.47" cy="128.18" r="1.6666666666666667" />
<circle cx="644.47" cy="128.18" r="1.6666666666666667" />
<circle cx="644.47" cy="128.18" r="1.6666666666666667" />
<circle cx="644.47" cy="128.18" r="1.6666666666666667" />
<circle cx="644.47" cy="128.18" r="1.6666666666666667" />
<circle cx="644.47" cy="128.18" r="1.6666666666666667" />
<circle cx="644.47" cy="128.18" r="1.6666666666666667" />
<circle cx="644.47" cy="128.18" r="1.6666666666666667" />
<circle cx="644.47" cy="128.18" r="1.6666666666666667" />
<circle cx="644.47" cy="128.18" r="1.6666666666666667" />
<circle cx="644.47" cy="128.18" r="1.6666666666666667" />
<circle cx="644.47" cy="128.18" r="1.6666666666666667" />
<circle cx="644.47" cy="128.18" r="1.6666666666666667" />
<circle cx="644.47" cy="128.18" r="1.6666666666666667" />
<circle cx="644.47" cy="128.18" r="1.6666666666666667" />
<circle cx="644.47" cy="128.18" r="1.6666666666666667" />
<circle cx="644.47" cy="128.18" r="1.6666666666666667" />
<circle cx="644.47" cy="128.18" r="1.6666666666666667" />
<circle cx="644.47" cy="128.18" r="1.6666666666666667" />
<circle cx="644.47" cy="128.18" r="1.6666666666666667" />
<circle cx="644.47" cy="128.18" r="1.6666666666666667" />
<circle cx="644.47" cy="128.18" r="1.6666666666666667" />
<circle cx="644.47" cy="128.18" r="1.6666666666666667" />
<circle cx="644.47" cy="128.18" r="1.6666666666666667" />
<circle cx="644.47" cy="128.18" r="1.6666666666666667" />
<circle cx="644.47" cy="128.18" r="1.6666666666666667" />
<circle cx="644.47" cy="128.18" r="1.6666666666666667" />
<circle cx="644.47" cy="128.18" r="1.6666666666666667" />
<circle cx="644.47" cy="128.18" r="1.6666666666666667" />
<circle cx="644.47" cy="128.18" r="1.6666666666666667" />
<circle cx="644.48" cy="128.18" r="1.6666666666666667" />
<circle cx="644.48" cy="128.18" r="1.6666666666666667" />
<circle cx="644.48" cy="128.18" r="1.6666666666666667" />
<circle cx="644.48" cy="128.18" r="1.6666666666666667" />
<circle cx="644.48" cy="486.14" r="1.6666666666666667" />
<circle cx="644.48" cy="128.18" r="1.6666666666666667" />
<circle cx="644.48" cy="128.18" r="1.6666666666666667" />
<circle cx="644.48" cy="128.18" r="1.6666666666666667" />
<circle cx="644.48" cy="128.18" r="1.6666666666666667" />
<circle cx="644.48" cy="128.18" r="1.6666666666666667" />
<circle cx="644.48" cy="128.18" r="1.6666666666666667" />
<circle cx="644.48" cy="128.18" r="1.6666666666666667" />
<circle cx="644.48" cy="128.18" r="1.6666666666666667" />
<circle cx="644.48" cy="128.18" r="1.6666666666666667" />
<circle cx="644.48" cy="128.18" r="1.6666666666666667" />
<circle cx="644.48" cy="486.14" r="1.6666666666666667" />
<circle cx="644.48" cy="128.18" r="1.6666666666666667" />
<circle cx="644.48" cy="128.18" r="1.6666666666666667" />
<circle cx="644.48" cy="128.18" r="1.6666666666666667" />
<circle cx="644.48" cy="128.18" r="1.6666666666666667" />
<circle cx="644.48" cy="128.18" r="1.6666666666666667" />
<circle cx="644.48" cy="128.18" r="1.6666666666666667" />
<circle cx="644.48" cy="128.18" r="1.6666666666666667" />
<circle cx="644.48" cy="128.18" r="1.6666666666666667" />
<circle cx="644.48" cy="128.18" r="1.6666666666666667" />
<circle cx="644.48" cy="128.18" r="1.6666666666666667" />
<circle cx="644.48" cy="128.18" r="1.6666666666666667" />
<circle cx="644.48" cy="128.18" r="1.6666666666666667" />
<circle cx="644.48" cy="128.18" r="1.6666666666666667" />
<circle cx="644.48" cy="128.18" r="1.6666666666666667" />
<circle cx="644.48" cy="128.18" r="1.6666666666666667" />
<circle cx="644.48" cy="128.18" r="1.6666666666666667" />
<circle cx="644.48" cy="128.18" r="1.6666666666666667" />
<circle cx="644.48" cy="128.18" r="1.6666666666666667" />
<circle cx="644.48" cy="128.18" r="1.6666666666666667" />
<circle cx="644.48" cy="128.18" r="1.6666666666666667" />
<circle cx="644.48" cy="128.18" r="1.6666666666666667" />
<circle cx="644.48" cy="128.18" r="1.6666666666666667" />
<circle cx="644.48" cy="128.18" r="1.6666666666666667" />
<circle cx="644.48" cy="128.18" r="1.6666666666666667" />
<circle cx="644.48" cy="128.18" r="1.6666666666666667" />
<circle cx="644.48" cy="128.18" r="1.6666666666666667" />
<circle cx="644.48" cy="128.18" r="1.6666666666666667" />
<circle cx="644.49" cy="128.18" r="1.6666666666666667" />
<circle cx="644.49" cy="128.18" r="1.6666666666666667" />
<circle cx="644.49" cy="128.18" r="1.6666666666666667" />
<circle cx="644.49" cy="128.18" r="1.6666666666666667" />
<circle cx="644.49" cy="128.18" r="1.6666666666666667" />
<circle cx="644.49" cy="128.18" r="1.6666666666666667" />
<circle cx="644.49" cy="128.18" r="1.6666666666666667" />
<circle cx="644.49" cy="128.18" r="1.6666666666666667" />
<circle cx="644.49" cy="128.18" r="1.6666666666666667" />
<circle cx="644.49" cy="128.18" r="1.6666666666666667" />
<circle cx="644.49" cy="128.18" r="1.6666666666666667" />
<circle cx="644.49" cy="128.18" r="1.6666666666666667" />
<circle cx="644.49" cy="128.18" r="1.6666666666666667" />
<circle cx="644.49" cy="128.18" r="1.6666666666666667" />
<circle cx="644.49" cy="128.18" r="1.6666666666666667" />
<circle cx="644.49" cy="128.18" r="1.6666666666666667" />
<circle cx="644.49" cy="128.18" r="1.6666666666666667" />
<circle cx="644.49" cy="128.18" r="1.6666666666666667" />
<circle cx="644.49" cy="128.18" r="1.6666666666666667" />
<circle cx="644.49" cy="128.18" r="1.6666666666666667" />
<circle cx="644.49" cy="128.18" r="1.6666666666666667" />
<circle cx="644.49" cy="128.18" r="1.6666666666666667" />
<circle cx="644.49" cy="128.18" r="1.6666666666666667" />
<circle cx="644.49" cy="128.18" r="1.6666666666666667" />
<circle cx="644.49" cy="128.18" r="1.6666666666666667" />
<circle cx="644.49" cy="128.18" r="1.6666666666666667" />
<circle cx="644.49" cy="128.18" r="1.6666666666666667" />
<circle cx="644.49" cy="128.18" r="1.6666666666666667" />
<circle cx="644.49" cy="128.18" r="1.6666666666666667" />
<circle cx="644.49" cy="128.18" r="1.6666666666666667" />
<circle cx="644.49" cy="128.18" r="1.6666666666666667" />
<circle cx="644.49" cy="128.18" r="1.6666666666666667" />
<circle cx="644.49" cy="128.18" r="1.6666666666666667" />
<circle cx="644.49" cy="128.18" r="1.6666666666666667" />
<circle cx="644.49" cy="128.18" r="1.6666666666666667" />
<circle cx="644.49" cy="128.18" r="1.6666666666666667" />
<circle cx="644.49" cy="128.18" r="1.6666666666666667" />
<circle cx="644.49" cy="128.18" r="1.6666666666666667" />
<circle cx="644.49" cy="128.18" r="1.6666666666666667" />
<circle cx="644.49" cy="128.18" r="1.6666666666666667" />
<circle cx="644.49" cy="128.18" r="1.6666666666666667" />
<circle cx="644.49" cy="128.18" r="1.6666666666666667" />
<circle cx="644.49" cy="128.18" r="1.6666666666666667" />
<circle cx="644.49" cy="128.18" r="1.6666666666666667" />
<circle cx="644.49" cy="128.18" r="1.6666666666666667" />
<circle cx="644.49" cy="128.18" r="1.6666666666666667" />
<circle cx="644.49" cy="128.18" r="1.6666666666666667" />
<circle cx="644.49" cy="128.18" r="1.6666666666666667" />
<circle cx="644.49" cy="128.18" r="1.6666666666666667" />
<circle cx="644.49" cy="128.18" r="1.6666666666666667" />
<circle cx="644.49" cy="128.18" r="1.6666666666666667" />
<circle cx="644.49" cy="128.18" r="1.6666666666666667" />
<circle cx="644.49" cy="128.18" r="1.6666666666666667" />
<circle cx="644.49" cy="128.18" r="1.6666666666666667" />
<circle cx="644.49" cy="128.18" r="1.6666666666666667" />
<circle cx="644.49" cy="128.18" r="1.6666666666666667" />
<circle cx="644.49" cy="128.18" r="1.6666666666666667" />
<circle cx="644.49" cy="128.18" r="1.6666666666666667" />
<circle cx="644.49" cy="128.18" r="1.6666666666666667" />
<circle cx="644.49" cy="128.18" r="1.6666666666666667" />
<circle cx="644.49" cy="128.18" r="1.6666666666666667" />
<circle cx="644.49" cy="128.18" r="1.6666666666666667" />
<circle cx="644.49" cy="128.18" r="1.6666666666666667" />
<circle cx="644.49" cy="128.18" r="1.6666666666666667" />
<circle cx="644.49" cy="128.18" r="1.6666666666666667" />
<circle cx="644.49" cy="128.18" r="1.6666666666666667" />
<circle cx="644.49" cy="128.18" r="1.6666666666666667" />
<circle cx="644.49" cy="128.18" r="1.6666666666666667" />
<circle cx="644.50" cy="486.14" r="1.6666666666666667" />
<circle cx="644.50" cy="128.18" r="1.6666666666666667" />
<circle cx="644.50" cy="128.18" r="1.6666666666666667" />
<circle cx="644.50" cy="128.18" r="1.6666666666666667" />
<circle cx="644.50" cy="128.18" r="1.6666666666666667" />
<circle cx="644.50" cy="128.18" r="1.6666666666666667" />
<circle cx="644.50" cy="128.18" r="1.6666666666666667" />
<circle cx="644.50" cy="128.18" r="1.6666666666666667" />
<circle cx="644.50" cy="128.18" r="1.6666666666666667" />
<circle cx="644.50" cy="128.18" r="1.6666666666666667" />
<circle cx="644.50" cy="128.18" r="1.6666666666666667" />
<circle cx="644.50" cy="128.18" r="1.6666666666666667" />
<circle cx="644.50" cy="128.18" r="1.6666666666666667" />
<circle cx="644.50" cy="128.18" r="1.6666666666666667" />
<circle cx="644.50" cy="128.18" r="1.6666666666666667" />
<circle cx="644.50" cy="128.18" r="1.6666666666666667" />
<circle cx="644.50" cy="128.18" r="1.6666666666666667" />
<circle cx="644.50" cy="128.18" r="1.6666666666666667" />
<circle cx="644.50" cy="128.18" r="1.6666666666666667" />
<circle cx="644.50" cy="128.18" r="1.6666666666666667" />
<circle cx="644.50" cy="128.18" r="1.6666666666666667" />
<circle cx="644.50" cy="128.18" r="1.6666666666666667" />
<circle cx="644.50" cy="128.18" r="1.6666666666666667" />
<circle cx="644.50" cy="128.18" r="1.6666666666666667" />
<circle cx="644.50" cy="128.18" r="1.6666666666666667" />
<circle cx="644.50" cy="128.18" r="1.6666666666666667" />
<circle cx="644.50" cy="128.18" r="1.6666666666666667" />
<circle cx="644.50" cy="128.18" r="1.6666666666666667" />
<circle cx="644.50" cy="128.18" r="1.6666666666666667" />
<circle cx="644.50" cy="128.18" r="1.6666666666666667" />
<circle cx="644.50" cy="128.18" r="1.6666666666666667" />
<circle cx="644.50" cy="128.18" r="1.6666666666666667" />
<circle cx="644.50" cy="128.18" r="1.6666666666666667" />
<circle cx="644.50" cy="128.18" r="1.6666666666666667" />
<circle cx="644.50" cy="128.18" r="1.6666666666666667" />
<circle cx="644.50" cy="128.18" r="1.6666666666666667" />
<circle cx="644.50" cy="128.18" r="1.6666666666666667" />
<circle cx="644.50" cy="128.18" r="1.6666666666666667" />
<circle cx="644.50" cy="128.18" r="1.6666666666666667" />
<circle cx="644.50" cy="128.18" r="1.6666666666666667" />
<circle cx="644.50" cy="319.09" r="1.6666666666666667" />
<circle cx="644.50" cy="128.18" r="1.6666666666666667" />
<circle cx="644.50" cy="128.18" r="1.6666666666666667" />
<circle cx="644.50" cy="128.18" r="1.6666666666666667" />
<circle cx="644.50" cy="128.18" r="1.6666666666666667" />
<circle cx="644.50" cy="486.14" r="1.6666666666666667" />
<circle cx="644.51" cy="128.18" r="1.6666666666666667" />
<circle cx="644.51" cy="128.18" r="1.6666666666666667" />
<circle cx="644.51" cy="128.18" r="1.6666666666666667" />
<circle cx="644.52" cy="506.59" r="1.6666666666666667" />
<circle cx="644.52" cy="128.18" r="1.6666666666666667" />
<circle cx="644.52" cy="128.18" r="1.6666666666666667" />
<circle cx="644.52" cy="128.18" r="1.6666666666666667" />
<circle cx="644.52" cy="128.18" r="1.6666666666666667" />
<circle cx="644.52" cy="128.18" r="1.6666666666666667" />
<circle cx="644.52" cy="128.18" r="1.6666666666666667" />
<circle cx="644.52" cy="128.18" r="1.6666666666666667" />
<circle cx="644.52" cy="128.18" r="1.6666666666666667" />
<circle cx="644.52" cy="128.18" r="1.6666666666666667" />
<circle cx="644.52" cy="128.18" r="1.6666666666666667" />
<circle cx="644.52" cy="128.18" r="1.6666666666666667" />
<circle cx="644.52" cy="128.18" r="1.6666666666666667" />
<circle cx="644.52" cy="128.18" r="1.6666666666666667" />
<circle cx="644.52" cy="128.18" r="1.6666666666666667" />
<circle cx="644.52" cy="128.18" r="1.6666666666666667" />
<circle cx="644.52" cy="128.18" r="1.6666666666666667" />
<circle cx="644.52" cy="128.18" r="1.6666666666666667" />
<circle cx="644.52" cy="128.18" r="1.6666666666666667" />
<circle cx="644.52" cy="128.18" r="1.6666666666666667" />
<circle cx="644.52" cy="128.18" r="1.6666666666666667" />
<circle cx="644.52" cy="128.18" r="1.6666666666666667" />
<circle cx="644.52" cy="128.18" r="1.6666666666666667" />
<circle cx="644.52" cy="128.18" r="1.6666666666666667" />
<circle cx="644.52" cy="128.18" r="1.6666666666666667" />
<circle cx="644.52" cy="128.18" r="1.6666666666666667" />
<circle cx="644.52" cy="128.18" r="1.6666666666666667" />
<circle cx="644.52" cy="128.18" r="1.6666666666666667" />
<circle cx="644.52" cy="128.18" r="1.6666666666666667" />
<circle cx="644.52" cy="128.18" r="1.6666666666666667" />
<circle cx="644.52" cy="128.18" r="1.6666666666666667" />
<circle cx="644.53" cy="128.18" r="1.6666666666666667" />
<circle cx="644.53" cy="128.18" r="1.6666666666666667" />
<circle cx="644.53" cy="128.18" r="1.6666666666666667" />
<circle cx="644.53" cy="128.18" r="1.6666666666666667" />
<circle cx="644.53" cy="128.18" r="1.6666666666666667" />
<circle cx="644.53" cy="128.18" r="1.6666666666666667" />
<circle cx="644.53" cy="128.18" r="1.6666666666666667" />
<circle cx="644.53" cy="128.18" r="1.6666666666666667" />
<circle cx="644.53" cy="128.18" r="1.6666666666666667" />
<circle cx="644.53" cy="128.18" r="1.6666666666666667" />
<circle cx="644.53" cy="128.18" r="1.6666666666666667" />
<circle cx="644.53" cy="128.18" r="1.6666666666666667" />
<circle cx="644.53" cy="128.18" r="1.6666666666666667" />
<circle cx="644.53" cy="128.18" r="1.6666666666666667" />
<circle cx="644.53" cy="128.18" r="1.6666666666666667" />
<circle cx="644.53" cy="128.18" r="1.6666666666666667" />
<circle cx="644.53" cy="128.18" r="1.6666666666666667" />
<circle cx="644.53" cy="128.18" r="1.6666666666666667" />
<circle cx="644.53" cy="128.18" r="1.6666666666666667" />
<circle cx="644.53" cy="128.18" r="1.6666666666666667" />
<circle cx="644.53" cy="128.18" r="1.6666666666666667" />
<circle cx="644.53" cy="128.18" r="1.6666666666666667" />
<circle cx="644.53" cy="128.18" r="1.6666666666666667" />
<circle cx="644.53" cy="128.18" r="1.6666666666666667" />
<circle cx="644.53" cy="128.18" r="1.6666666666666667" />
<circle cx="644.53" cy="128.18" r="1.6666666666666667" />
<circle cx="644.53" cy="128.18" r="1.6666666666666667" />
<circle cx="644.53" cy="128.18" r="1.6666666666666667" />
<circle cx="644.53" cy="128.18" r="1.6666666666666667" />
<circle cx="644.53" cy="128.18" r="1.6666666666666667" />
<circle cx="644.53" cy="128.18" r="1.6666666666666667" />
<circle cx="644.53" cy="128.18" r="1.6666666666666667" />
<circle cx="644.53" cy="128.18" r="1.6666666666666667" />
<circle cx="644.53" cy="128.18" r="1.6666666666666667" />
<circle cx="644.53" cy="128.18" r="1.6666666666666667" />
<circle cx="644.53" cy="128.18" r="1.6666666666666667" />
<circle cx="644.53" cy="128.18" r="1.6666666666666667" />
<circle cx="644.53" cy="128.18" r="1.6666666666666667" />
<circle cx="644.53" cy="128.18" r="1.6666666666666667" />
<circle cx="644.53" cy="128.18" r="1.6666666666666667" />
<circle cx="644.53" cy="128.18" r="1.6666666666666667" />
<circle cx="644.53" cy="128.18" r="1.6666666666666667" />
<circle cx="644.53" cy="128.18" r="1.6666666666666667" />
<circle cx="644.53" cy="128.18" r="1.6666666666666667" />
<circle cx="644.53" cy="128.18" r="1.6666666666666667" />
<circle cx="644.53" cy="128.18" r="1.6666666666666667" />
<circle cx="644.53" cy="128.18" r="1.6666666666666667" />
<circle cx="644.53" cy="128.18" r="1.6666666666666667" />
<circle cx="644.53" cy="128.18" r="1.6666666666666667" />
<circle cx="644.53" cy="128.18" r="1.6666666666666667" />
<circle cx="644.53" cy="128.18" r="1.6666666666666667" />
<circle cx="644.53" cy="128.18" r="1.6666666666666667" />
<circle cx="644.53" cy="128.18" r="1.6666666666666667" />
<circle cx="644.53" cy="128.18" r="1.6666666666666667" />
<circle cx="644.53" cy="128.18" r="1.6666666666666667" />
<circle cx="644.53" cy="128.18" r="1.6666666666666667" />
<circle cx="644.53" cy="128.18" r="1.6666666666666667" />
<circle cx="644.53" cy="128.18" r="1.6666666666666667" />
<circle cx="644.53" cy="128.18" r="1.6666666666666667" />
<circle cx="644.53" cy="128.18" r="1.6666666666666667" />
<circle cx="644.53" cy="128.18" r="1.6666666666666667" />
<circle cx="644.53" cy="128.18" r="1.6666666666666667" />
<circle cx="644.53" cy="128.18" r="1.6666666666666667" />
<circle cx="644.53" cy="128.18" r="1.6666666666666667" />
<circle cx="644.53" cy="128.18" r="1.6666666666666667" />
<circle cx="644.53" cy="128.18" r="1.6666666666666667" />
<circle cx="644.53" cy="128.18" r="1.6666666666666667" />
<circle cx="644.53" cy="128.18" r="1.6666666666666667" />
<circle cx="644.53" cy="128.18" r="1.6666666666666667" />
<circle cx="644.53" cy="128.18" r="1.6666666666666667" />
<circle cx="644.53" cy="128.18" r="1.6666666666666667" />
<circle cx="644.53" cy="128.18" r="1.6666666666666667" />
<circle cx="644.53" cy="128.18" r="1.6666666666666667" />
<circle cx="644.54" cy="128.18" r="1.6666666666666667" />
<circle cx="644.54" cy="128.18" r="1.6666666666666667" />
<circle cx="644.54" cy="128.18" r="1.6666666666666667" />
<circle cx="644.54" cy="128.18" r="1.6666666666666667" />
<circle cx="644.54" cy="128.18" r="1.6666666666666667" />
<circle cx="644.54" cy="128.18" r="1.6666666666666667" />
<circle cx="644.54" cy="128.18" r="1.6666666666666667" />
<circle cx="644.54" cy="128.18" r="1.6666666666666667" />
<circle cx="644.54" cy="128.18" r="1.6666666666666667" />
<circle cx="644.54" cy="128.18" r="1.6666666666666667" />
<circle cx="644.54" cy="128.18" r="1.6666666666666667" />
<circle cx="644.54" cy="128.18" r="1.6666666666666667" />
<circle cx="644.54" cy="128.18" r="1.6666666666666667" />
<circle cx="644.54" cy="128.18" r="1.6666666666666667" />
<circle cx="644.54" cy="128.18" r="1.6666666666666667" />
<circle cx="644.54" cy="128.18" r="1.6666666666666667" />
<circle cx="644.54" cy="128.18" r="1.6666666666666667" />
<circle cx="644.54" cy="128.18" r="1.6666666666666667" />
<circle cx="644.54" cy="128.18" r="1.6666666666666667" />
<circle cx="644.54" cy="128.18" r="1.6666666666666667" />
<circle cx="644.54" cy="128.18" r="1.6666666666666667" />
<circle cx="644.54" cy="128.18" r="1.6666666666666667" />
<circle cx="644.54" cy="128.18" r="1.6666666666666667" />
<circle cx="644.54" cy="128.18" r="1.6666666666666667" />
<circle cx="644.54" cy="128.18" r="1.6666666666666667" />
<circle cx="644.54" cy="128.18" r="1.6666666666666667" />
<circle cx="644.54" cy="128.18" r="1.6666666666666667" />
<circle cx="644.54" cy="128.18" r="1.6666666666666667" />
<circle cx="644.54" cy="128.18" r="1.6666666666666667" />
<circle cx="644.54" cy="128.18" r="1.6666666666666667" />
<circle cx="644.54" cy="128.18" r="1.6666666666666667" />
<circle cx="644.54" cy="128.18" r="1.6666666666666667" />
<circle cx="644.54" cy="128.18" r="1.6666666666666667" />
<circle cx="644.54" cy="128.18" r="1.6666666666666667" />
<circle cx="644.54" cy="128.18" r="1.6666666666666667" />
<circle cx="644.54" cy="128.18" r="1.6666666666666667" />
<circle cx="644.54" cy="128.18" r="1.6666666666666667" />
<circle cx="644.54" cy="128.18" r="1.6666666666666667" />
<circle cx="644.54" cy="128.18" r="1.6666666666666667" />
<circle cx="644.54" cy="128.18" r="1.6666666666666667" />
<circle cx="644.54" cy="128.18" r="1.6666666666666667" />
<circle cx="644.54" cy="128.18" r="1.6666666666666667" />
<circle cx="644.54" cy="128.18" r="1.6666666666666667" />
<circle cx="644.54" cy="128.18" r="1.6666666666666667" />
<circle cx="644.54" cy="128.18" r="1.6666666666666667" />
<circle cx="644.54" cy="128.18" r="1.6666666666666667" />
<circle cx="644.54" cy="128.18" r="1.6666666666666667" />
<circle cx="644.54" cy="128.18" r="1.6666666666666667" />
<circle cx="644.54" cy="128.18" r="1.6666666666666667" />
<circle cx="644.54" cy="128.18" r="1.6666666666666667" />
<circle cx="644.54" cy="128.18" r="1.6666666666666667" />
<circle cx="644.54" cy="128.18" r="1.6666666666666667" />
<circle cx="644.54" cy="128.18" r="1.6666666666666667" />
<circle cx="644.54" cy="128.18" r="1.6666666666666667" />
<circle cx="644.54" cy="128.18" r="1.6666666666666667" />
<circle cx="644.54" cy="128.18" r="1.6666666666666667" />
<circle cx="644.54" cy="128.18" r="1.6666666666666667" />
<circle cx="644.54" cy="128.18" r="1.6666666666666667" />
<circle cx="644.54" cy="128.18" r="1.6666666666666667" />
<circle cx="644.54" cy="128.18" r="1.6666666666666667" />
<circle cx="644.54" cy="128.18" r="1.6666666666666667" />
<circle cx="644.54" cy="128.18" r="1.6666666666666667" />
<circle cx="644.54" cy="128.18" r="1.6666666666666667" />
<circle cx="644.54" cy="128.18" r="1.6666666666666667" />
<circle cx="644.54" cy="128.18" r="1.6666666666666667" />
<circle cx="644.54" cy="128.18" r="1.6666666666666667" />
<circle cx="644.54" cy="128.18" r="1.6666666666666667" />
<circle cx="644.54" cy="128.18" r="1.6666666666666667" />
<circle cx="644.54" cy="128.18" r="1.6666666666666667" />
<circle cx="644.54" cy="128.18" r="1.6666666666666667" />
<circle cx="644.54" cy="128.18" r="1.6666666666666667" />
<circle cx="644.54" cy="128.18" r="1.6666666666666667" />
<circle cx="644.55" cy="128.18" r="1.6666666666666667" />
<circle cx="644.55" cy="128.18" r="1.6666666666666667" />
<circle cx="644.55" cy="128.18" r="1.6666666666666667" />
<circle cx="644.55" cy="128.18" r="1.6666666666666667" />
<circle cx="644.55" cy="128.18" r="1.6666666666666667" />
<circle cx="644.55" cy="128.18" r="1.6666666666666667" />
<circle cx="644.55" cy="128.18" r="1.6666666666666667" />
<circle cx="644.55" cy="128.18" r="1.6666666666666667" />
<circle cx="644.55" cy="128.18" r="1.6666666666666667" />
<circle cx="644.55" cy="128.18" r="1.6666666666666667" />
<circle cx="644.55" cy="128.18" r="1.6666666666666667" />
<circle cx="644.55" cy="486.14" r="1.6666666666666667" />
<circle cx="644.55" cy="128.18" r="1.6666666666666667" />
<circle cx="644.55" cy="128.18" r="1.6666666666666667" />
<circle cx="644.55" cy="128.18" r="1.6666666666666667" />
<circle cx="644.55" cy="128.18" r="1.6666666666666667" />
<circle cx="644.55" cy="128.18" r="1.6666666666666667" />
<circle cx="644.55" cy="128.18" r="1.6666666666666667" />
<circle cx="644.55" cy="128.18" r="1.6666666666666667" />
<circle cx="644.55" cy="128.18" r="1.6666666666666667" />
<circle cx="644.55" cy="128.18" r="1.6666666666666667" />
<circle cx="644.55" cy="128.18" r="1.6666666666666667" />
<circle cx="644.55" cy="128.18" r="1.6666666666666667" />
<circle cx="644.55" cy="128.18" r="1.6666666666666667" />
<circle cx="644.55" cy="128.18" r="1.6666666666666667" />
<circle cx="644.55" cy="128.18" r="1.6666666666666667" />
<circle cx="644.74" cy="509.73" r="1.6666666666666667" />
<circle cx="644.75" cy="497.27" r="1.6666666666666667" />
<circle cx="644.76" cy="504.21" r="1.6666666666666667" />
<circle cx="644.78" cy="507.85" r="1.6666666666666667" />
<circle cx="644.93" cy="509.65" r="1.6666666666666667" />
<circle cx="644.93" cy="482.73" r="1.6666666666666667" />
<circle cx="644.93" cy="382.73" r="1.6666666666666667" />
<circle cx="644.93" cy="128.18" r="1.6666666666666667" />
<circle cx="644.93" cy="462.27" r="1.6666666666666667" />
<circle cx="644.98" cy="508.92" r="1.6666666666666667" />
<circle cx="647.18" cy="509.98" r="1.6666666666666667" />
<circle cx="648.79" cy="509.97" r="1.6666666666666667" />
<circle cx="650.42" cy="509.97" r="1.6666666666666667" />
<circle cx="652.01" cy="509.97" r="1.6666666666666667" />
<circle cx="653.58" cy="509.97" r="1.6666666666666667" />
<circle cx="655.15" cy="509.97" r="1.6666666666666667" />
<circle cx="656.62" cy="509.96" r="1.6666666666666667" />
<circle cx="658.21" cy="509.97" r="1.6666666666666667" />
<circle cx="659.81" cy="509.97" r="1.6666666666666667" />
<circle cx="661.35" cy="509.97" r="1.6666666666666667" />
<circle cx="662.96" cy="509.97" r="1.6666666666666667" />
<circle cx="664.51" cy="509.97" r="1.6666666666666667" />
<circle cx="666.12" cy="509.97" r="1.6666666666666667" />
<circle cx="667.77" cy="509.97" r="1.6666666666666667" />
<circle cx="669.41" cy="509.97" r="1.6666666666666667" />
<circle cx="671.06" cy="509.97" r="1.6666666666666667" />
<circle cx="672.60" cy="509.97" r="1.6666666666666667" />
<circle cx="674.19" cy="509.97" r="1.6666666666666667" />
<circle cx="675.82" cy="509.97" r="1.6666666666666667" />
<circle cx="677.44" cy="509.97" r="1.6666666666666667" />
<circle cx="679.11" cy="509.97" r="1.6666666666666667" />
<circle cx="680.68" cy="509.97" r="1.6666666666666667" />
<circle cx="682.31" cy="509.97" r="1.6666666666666667" />
<circle cx="684.02" cy="509.97" r="1.6666666666666667" />
<circle cx="685.64" cy="509.97" r="1.6666666666666667" />
<circle cx="687.31" cy="509.97" r="1.6666666666666667" />
<circle cx="688.84" cy="509.97" r="1.6666666666666667" />
<circle cx="690.53" cy="509.97" r="1.6666666666666667" />
<circle cx="692.22" cy="509.97" r="1.6666666666666667" />
<circle cx="693.96" cy="509.97" r="1.6666666666666667" />
<circle cx="695.67" cy="509.97" r="1.6666666666666667" />
<circle cx="697.35" cy="509.97" r="1.6666666666666667" />
<circle cx="699.03" cy="509.97" r="1.6666666666666667" />
<circle cx="700.66" cy="509.97" r="1.6666666666666667" />
<circle cx="702.37" cy="509.97" r="1.6666666666666667" />
<circle cx="704.06" cy="509.97" r="1.6666666666666667" />
<circle cx="705.71" cy="509.97" r="1.6666666666666667" />
<circle cx="707.45" cy="509.97" r="1.6666666666666667" />
<circle cx="709.12" cy="509.97" r="1.6666666666666667" />
<circle cx="710.85" cy="509.97" r="1.6666666666666667" />
<circle cx="712.55" cy="509.97" r="1.6666666666666667" />
<circle cx="714.32" cy="509.97" r="1.6666666666666667" />
<circle cx="716.10" cy="509.97" r="1.6666666666666667" />
<circle cx="717.90" cy="509.97" r="1.6666666666666667" />
<circle cx="719.65" cy="509.97" r="1.6666666666666667" />
<circle cx="721.39" cy="509.97" r="1.6666666666666667" />
<circle cx="723.13" cy="509.97" r="1.6666666666666667" />
<circle cx="724.94" cy="509.97" r="1.6666666666666667" />
<circle cx="726.81" cy="509.97" r="1.6666666666666667" />
<circle cx="728.68" cy="509.97" r="1.6666666666666667" />
<circle cx="730.55" cy="509.97" r="1.6666666666666667" />
<circle cx="732.39" cy="509.97" r="1.6666666666666667" />
<circle cx="734.30" cy="509.97" r="1.6666666666666667" />
<circle cx="736.23" cy="509.97" r="1.6666666666666667" />
<circle cx="738.14" cy="509.97" r="1.6666666666666667" />
<circle cx="739.99" cy="509.97" r="1.6666666666666667" />
<circle cx="741.76" cy="509.97" r="1.6666666666666667" />
<circle cx="743.66" cy="509.97" r="1.6666666666666667" />
<circle cx="745.61" cy="509.97" r="1.6666666666666667" />
<circle cx="747.48" cy="509.97" r="1.6666666666666667" />
<circle cx="749.29" cy="509.97" r="1.6666666666666667" />
<circle cx="751.20" cy="509.97" r="1.6666666666666667" />
<circle cx="753.10" cy="509.97" r="1.6666666666666667" />
<circle cx="754.97" cy="509.97" r="1.6666666666666667" />
<circle cx="756.85" cy="509.97" r="1.6666666666666667" />
<circle cx="758.67" cy="509.97" r="1.6666666666666667" />
<circle cx="760.60" cy="509.97" r="1.6666666666666667" />
<circle cx="762.47" cy="509.97" r="1.6666666666666667" />
<circle cx="764.27" cy="509.97" r="1.6666666666666667" />
<circle cx="766.13" cy="509.97" r="1.6666666666666667" />
<circle cx="768.03" cy="509.97" r="1.6666666666666667" />
<circle cx="769.89" cy="509.97" r="1.6666666666666667" />
<circle cx="771.79" cy="509.97" r="1.6666666666666667" />
<circle cx="773.59" cy="509.97" r="1.6666666666666667" />
<circle cx="775.43" cy="509.97" r="1.6666666666666667" />
<circle cx="777.36" cy="509.97" r="1.6666666666666667" />
<circle cx="779.32" cy="509.97" r="1.6666666666666667" />
<circle cx="781.20" cy="509.97" r="1.6666666666666667" />
<circle cx="783.08" cy="509.97" r="1.6666666666666667" />
<circle cx="785.06" cy="509.97" r="1.6666666666666667" />
<circle cx="787.02" cy="509.97" r="1.6666666666666667" />
<circle cx="788.87" cy="509.97" r="1.6666666666666667" />
<circle cx="790.86" cy="509.97" r="1.6666666666666667" />
<circle cx="792.80" cy="509.97" r="1.6666666666666667" />
<circle cx="794.71" cy="509.97" r="1.6666666666666667" />
<circle cx="796.65" cy="509.97" r="1.6666666666666667" />
<circle cx="798.59" cy="509.97" r="1.6666666666666667" />
<circle cx="800.52" cy="509.97" r="1.6666666666666667" />
<circle cx="802.47" cy="509.97" r="1.6666666666666667" />
<circle cx="804.31" cy="509.97" r="1.6666666666666667" />
<circle cx="806.29" cy="509.97" r="1.6666666666666667" />
<circle cx="808.27" cy="509.97" r="1.6666666666666667" />
<circle cx="810.28" cy="509.97" r="1.6666666666666667" />
<circle cx="812.21" cy="509.97" r="1.6666666666666667" />
<circle cx="814.12" cy="509.97" r="1.6666666666666667" />
<circle cx="816.09" cy="509.97" r="1.6666666666666667" />
<circle cx="818.10" cy="509.97" r="1.6666666666666667" />
<circle cx="820.10" cy="509.97" r="1.6666666666666667" />
<circle cx="822.14" cy="509.97" r="1.6666666666666667" />
<circle cx="824.12" cy="509.97" r="1.6666666666666667" />
<circle cx="826.11" cy="509.97" r="1.6666666666666667" />
<circle cx="828.11" cy="509.97" r="1.6666666666666667" />
<circle cx="830.08" cy="509.97" r="1.6666666666666667" />
<circle cx="832.08" cy="509.97" r="1.6666666666666667" />
<circle cx="834.12" cy="509.97" r="1.6666666666666667" />
<circle cx="836.11" cy="509.97" r="1.6666666666666667" />
<circle cx="838.12" cy="509.97" r="1.6666666666666667" />
<circle cx="840.11" cy="509.97" r="1.6666666666666667" />
<circle cx="841.35" cy="509.96" r="1.6666666666666667" />
<circle cx="842.63" cy="509.96" r="1.6666666666666667" />
<circle cx="843.98" cy="509.96" r="1.6666666666666667" />
<circle cx="845.11" cy="509.95" r="1.6666666666666667" />
<circle cx="846.25" cy="509.95" r="1.6666666666666667" />
<circle cx="847.38" cy="509.95" r="1.6666666666666667" />
<circle cx="847.99" cy="509.91" r="1.6666666666666667" />
<circle cx="848.09" cy="509.49" r="1.6666666666666667" />
<circle cx="848.25" cy="509.67" r="1.6666666666666667" />
<circle cx="849.62" cy="509.96" r="1.6666666666666667" />
<circle cx="850.00" cy="509.86" r="1.6666666666666667" />
</g>
<g stroke="black">
<line x1="188.64" x2="188.64" y1="510.00" y2="520.00" />
<line x1="307.56" x2="307.56" y1="510.00" y2="520.00" />
<line x1="426.48" x2="426.48" y1="510.00" y2="520.00" />
<line x1="545.40" x2="545.40" y1="510.00" y2="520.00" />
<line x1="664.32" x2="664.32" y1="510.00" y2="520.00" />
<line x1="783.24" x2="783.24" y1="510.00" y2="520.00" />
<g fill="black" font-family="Arial, sans-serif" font-size="18.0" stroke="none" text-anchor="start" transform="translate(9.0 0.0)">
<text x="188.64" y="530.57">19370</text>
<text x="307.56" y="530.57">19380</text>
<text x="426.48" y="530.57">19390</text>
<text x="545.40" y="530.57">19400</text>
<text x="664.32" y="530.57">19410</text>
<text x="783.24" y="530.57">19420</text>
</g>
<line x1="150.00" x2="850.00" y1="510.00" y2="510.00" />
</g>
<g stroke="black">
<line x1="150.00" x2="140.00" y1="510.00" y2="510.00" />
<line x1="150.00" x2="140.00" y1="465.81" y2="465.81" />
<line x1="150.00" x2="140.00" y1="421.62" y2="421.62" />
<line x1="150.00" x2="140.00" y1="377.42" y2="377.42" />
<line x1="150.00" x2="140.00" y1="333.23" y2="333.23" />
<line x1="150.00" x2="140.00" y1="289.04" y2="289.04" />
<line x1="150.00" x2="140.00" y1="244.85" y2="244.85" />
<line x1="150.00" x2="140.00" y1="200.66" y2="200.66" />
<line x1="150.00" x2="140.00" y1="156.46" y2="156.46" />
<line x1="150.00" x2="140.00" y1="112.27" y2="112.27" />
<g fill="black" font-family="Arial, sans-serif" font-size="18.0" stroke="none" text-anchor="end">
<text x="141.00" y="501.00">0</text>
<text x="141.00" y="456.81">10000</text>
<text x="141.00" y="412.62">20000</text>
<text x="141.00" y="368.42">30000</text>
<text x="141.00" y="324.23">40000</text>
<text x="141.00" y="280.04">50000</text>
<text x="141.00" y="235.85">60000</text>
<text x="141.00" y="191.66">70000</text>
<text x="141.00" y="147.46">80000</text>
<text x="141.00" y="103.27">90000</text>
</g>
<line x1="150.00" x2="150.00" y1="510.00" y2="90.00" />
</g>
</g>
</svg>