<?xml version="1.0"?>
<svg version="1.1" viewBox="0 0 1000 600" xmlns:xlink="http://www.w3.org/1999/xlink" xmlns="http://www.w3.org/2000/svg">
<g>
<g stroke-dasharray="3.6 7.2" stroke-width="0.72" stroke="#caa">
<line x1="828.41" x2="828.41" y1="510.00" y2="90.00" />
<line x1="785.75" x2="785.75" y1="510.00" y2="90.00" />
<line x1="741.68" x2="741.68" y1="510.00" y2="90.00" />
<line x1="700.44" x2="700.44" y1="510.00" y2="90.00" />
<line x1="656.36" x2="656.36" y1="510.00" y2="90.00" />
<line x1="612.28" x2="612.28" y1="510.00" y2="90.00" />
<line x1="569.63" x2="569.63" y1="510.00" y2="90.00" />
<line x1="525.55" x2="525.55" y1="510.00" y2="90.00" />
<line x1="482.89" x2="482.89" y1="510.00" y2="90.00" />
<line x1="438.81" x2="438.81" y1="510.00" y2="90.00" />
<line x1="394.73" x2="394.73" y1="510.00" y2="90.00" />
<line x1="352.08" x2="352.08" y1="510.00" y2="90.00" />
<line x1="308.00" x2="308.00" y1="510.00" y2="90.00" />
<line x1="265.34" x2="265.34" y1="510.00" y2="90.00" />
<line x1="221.26" x2="221.26" y1="510.00" y2="90.00" />
<line x1="181.45" x2="181.45" y1="510.00" y2="90.00" />
<line x1="150.00" x2="850.00" y1="510.00" y2="510.00" />
<line x1="150.00" x2="850.00" y1="216.29" y2="216.29" />
</g>
<g>
<text dominant-baseline="hanging" dx="-36.0" dy="18.0" fill="#0004" font-family="Arial, sans-serif" font-size="36" stroke="none" text-anchor="end" x="850.00" y="128.18">FR4</text>
</g>
<g>
<text dominant-baseline="text-bottom" dy="-12.0" fill="black" font-family="Arial, sans-serif" font-size="18.0" font-style="italic" stroke="none" text-anchor="middle" x="500.00" y="90.00">Years 2023 to 2024</text>
</g>
<g>
<text dominant-baseline="hanging" dx="18.0" dy="18.0" fill="black" font-family="Arial, sans-serif" font-size="18.0" font-style="italic" stroke="none" text-anchor="beginning" text-orientation="sideways" x="150.00" y="90.00">log(Drips per day)</text>
</g>
<polyline fill="none" points="150.48,462.29 150.76,462.30 151.04,462.21 151.32,462.19 151.61,463.05 151.89,462.32 152.16,461.48 152.42,460.33 152.70,462.01 152.98,462.48 153.26,462.45 153.54,461.81 153.82,462.56 154.10,462.14 154.39,462.68 154.66,462.24 154.94,461.90 155.23,462.83 155.50,462.08 155.79,462.40 156.06,461.91 156.35,462.99 156.63,462.47 156.91,462.35 157.21,463.77 157.50,463.28 157.77,461.36 158.06,463.75 158.35,462.87 158.63,462.21 158.91,462.50 159.18,461.33 159.46,461.94 159.73,461.64 160.03,464.34 160.32,463.23 160.61,463.03 160.90,463.44 161.19,462.87 161.48,463.75 161.76,462.50 162.03,461.19 162.31,461.95 162.59,462.64 162.88,462.71 163.15,461.97 163.43,462.37 163.72,462.93 164.00,461.83 164.28,462.57 164.56,462.84 164.85,462.61 165.13,462.93 165.42,462.99 165.71,463.40 166.00,463.39 166.30,463.72 166.60,464.79 166.89,463.37 167.18,462.82 167.48,464.80 167.77,463.26 168.07,463.95 168.35,462.73 168.65,463.51 168.94,463.83 169.23,462.99 169.52,463.46 173.66,464.50 173.96,463.92 174.26,464.54 174.56,464.40 174.86,464.05 175.16,464.71 175.47,464.52 175.78,465.43 176.10,466.15 176.40,464.40 176.70,464.74 177.02,466.07 177.34,466.47 177.65,465.00 177.95,463.90 178.25,464.61 178.55,463.98 178.85,464.52 179.17,465.78 179.47,464.36 179.77,465.02 180.08,465.03 180.39,465.20 180.71,465.72 181.02,465.52 181.33,465.11 181.64,465.73 181.95,465.07 182.26,465.41" stroke-dasharray="3.6 3.6" stroke-width="3.6" stroke="#aaa" />
<g>
<circle cx="150.48" cy="462.29" r="1.6666666666666667" />
<circle cx="150.76" cy="462.30" r="1.6666666666666667" />
<circle cx="151.04" cy="462.21" r="1.6666666666666667" />
<circle cx="151.32" cy="462.19" r="1.6666666666666667" />
<circle cx="151.61" cy="463.05" r="1.6666666666666667" />
<circle cx="151.89" cy="462.32" r="1.6666666666666667" />
<circle cx="152.16" cy="461.48" r="1.6666666666666667" />
<circle cx="152.42" cy="460.33" r="1.6666666666666667" />
<circle cx="152.70" cy="462.01" r="1.6666666666666667" />
<circle cx="152.98" cy="462.48" r="1.6666666666666667" />
<circle cx="153.26" cy="462.45" r="1.6666666666666667" />
<circle cx="153.54" cy="461.81" r="1.6666666666666667" />
<circle cx="153.82" cy="462.56" r="1.6666666666666667" />
<circle cx="154.10" cy="462.14" r="1.6666666666666667" />
<circle cx="154.39" cy="462.68" r="1.6666666666666667" />
<circle cx="154.66" cy="462.24" r="1.6666666666666667" />
<circle cx="154.94" cy="461.90" r="1.6666666666666667" />
<circle cx="155.23" cy="462.83" r="1.6666666666666667" />
<circle cx="155.50" cy="462.08" r="1.6666666666666667" />
<circle cx="155.79" cy="462.40" r="1.6666666666666667" />
<circle cx="156.06" cy="461.91" r="1.6666666666666667" />
<circle cx="156.35" cy="462.99" r="1.6666666666666667" />
<circle cx="156.63" cy="462.47" r="1.6666666666666667" />
<circle cx="156.91" cy="462.35" r="1.6666666666666667" />
<circle cx="157.21" cy="463.77" r="1.6666666666666667" />
<circle cx="157.50" cy="463.28" r="1.6666666666666667" />
<circle cx="157.77" cy="461.36" r="1.6666666666666667" />
<circle cx="158.06" cy="463.75" r="1.6666666666666667" />
<circle cx="158.35" cy="462.87" r="1.6666666666666667" />
<circle cx="158.63" cy="462.21" r="1.6666666666666667" />
<circle cx="158.91" cy="462.50" r="1.6666666666666667" />
<circle cx="159.18" cy="461.33" r="1.6666666666666667" />
<circle cx="159.46" cy="461.94" r="1.6666666666666667" />
<circle cx="159.73" cy="461.64" r="1.6666666666666667" />
<circle cx="160.03" cy="464.34" r="1.6666666666666667" />
<circle cx="160.32" cy="463.23" r="1.6666666666666667" />
<circle cx="160.61" cy="463.03" r="1.6666666666666667" />
<circle cx="160.90" cy="463.44" r="1.6666666666666667" />
<circle cx="161.19" cy="462.87" r="1.6666666666666667" />
<circle cx="161.48" cy="463.75" r="1.6666666666666667" />
<circle cx="161.76" cy="462.50" r="1.6666666666666667" />
<circle cx="162.03" cy="461.19" r="1.6666666666666667" />
<circle cx="162.31" cy="461.95" r="1.6666666666666667" />
<circle cx="162.59" cy="462.64" r="1.6666666666666667" />
<circle cx="162.88" cy="462.71" r="1.6666666666666667" />
<circle cx="163.15" cy="461.97" r="1.6666666666666667" />
<circle cx="163.43" cy="462.37" r="1.6666666666666667" />
<circle cx="163.72" cy="462.93" r="1.6666666666666667" />
<circle cx="164.00" cy="461.83" r="1.6666666666666667" />
<circle cx="164.28" cy="462.57" r="1.6666666666666667" />
<circle cx="164.56" cy="462.84" r="1.6666666666666667" />
<circle cx="164.85" cy="462.61" r="1.6666666666666667" />
<circle cx="165.13" cy="462.93" r="1.6666666666666667" />
<circle cx="165.42" cy="462.99" r="1.6666666666666667" />
<circle cx="165.71" cy="463.40" r="1.6666666666666667" />
<circle cx="166.00" cy="463.39" r="1.6666666666666667" />
<circle cx="166.30" cy="463.72" r="1.6666666666666667" />
<circle cx="166.60" cy="464.79" r="1.6666666666666667" />
<circle cx="166.89" cy="463.37" r="1.6666666666666667" />
<circle cx="167.18" cy="462.82" r="1.6666666666666667" />
<circle cx="167.48" cy="464.80" r="1.6666666666666667" />
<circle cx="167.77" cy="463.26" r="1.6666666666666667" />
<circle cx="168.07" cy="463.95" r="1.6666666666666667" />
<circle cx="168.35" cy="462.73" r="1.6666666666666667" />
<circle cx="168.65" cy="463.51" r="1.6666666666666667" />
<circle cx="168.94" cy="463.83" r="1.6666666666666667" />
<circle cx="169.23" cy="462.99" r="1.6666666666666667" />
<circle cx="169.52" cy="463.46" r="1.6666666666666667" />
<circle cx="173.66" cy="464.50" r="1.6666666666666667" />
<circle cx="173.96" cy="463.92" r="1.6666666666666667" />
<circle cx="174.26" cy="464.54" r="1.6666666666666667" />
<circle cx="174.56" cy="464.40" r="1.6666666666666667" />
<circle cx="174.86" cy="464.05" r="1.6666666666666667" />
<circle cx="175.16" cy="464.71" r="1.6666666666666667" />
<circle cx="175.47" cy="464.52" r="1.6666666666666667" />
<circle cx="175.78" cy="465.43" r="1.6666666666666667" />
<circle cx="176.10" cy="466.15" r="1.6666666666666667" />
<circle cx="176.40" cy="464.40" r="1.6666666666666667" />
<circle cx="176.70" cy="464.74" r="1.6666666666666667" />
<circle cx="177.02" cy="466.07" r="1.6666666666666667" />
<circle cx="177.34" cy="466.47" r="1.6666666666666667" />
<circle cx="177.65" cy="465.00" r="1.6666666666666667" />
<circle cx="177.95" cy="463.90" r="1.6666666666666667" />
<circle cx="178.25" cy="464.61" r="1.6666666666666667" />
<circle cx="178.55" cy="463.98" r="1.6666666666666667" />
<circle cx="178.85" cy="464.52" r="1.6666666666666667" />
<circle cx="179.17" cy="465.78" r="1.6666666666666667" />
<circle cx="179.47" cy="464.36" r="1.6666666666666667" />
<circle cx="179.77" cy="465.02" r="1.6666666666666667" />
<circle cx="180.08" cy="465.03" r="1.6666666666666667" />
<circle cx="180.39" cy="465.20" r="1.6666666666666667" />
<circle cx="180.71" cy="465.72" r="1.6666666666666667" />
<circle cx="181.02" cy="465.52" r="1.6666666666666667" />
<circle cx="181.33" cy="465.11" r="1.6666666666666667" />
<circle cx="181.64" cy="465.73" r="1.6666666666666667" />
<circle cx="181.95" cy="465.07" r="1.6666666666666667" />
<circle cx="182.26" cy="465.41" r="1.6666666666666667" />
</g>
<g stroke="black">
<line x1="828.41" x2="828.41" y1="510.00" y2="520.00" />
<line x1="785.75" x2="785.75" y1="510.00" y2="520.00" />
<line x1="741.68" x2="741.68" y1="510.00" y2="520.00" />
<line x1="700.44" x2="700.44" y1="510.00" y2="520.00" />
<line x1="656.36" x2="656.36" y1="510.00" y2="520.00" />
<line x1="612.28" x2="612.28" y1="510.00" y2="520.00" />
<line x1="569.63" x2="569.63" y1="510.00" y2="520.00" />
<line x1="525.55" x2="525.55" y1="510.00" y2="520.00" />
<line x1="482.89" x2="482.89" y1="510.00" y2="520.00" />
<line x1="438.81" x2="438.81" y1="510.00" y2="520.00" />
<line x1="394.73" x2="394.73" y1="510.00" y2="520.00" />
<line x1="352.08" x2="352.08" y1="510.00" y2="520.00" />
<line x1="308.00" x2="308.00" y1="510.00" y2="520.00" />
<line x1="265.34" x2="265.34" y1="510.00" y2="520.00" />
<line x1="221.26" x2="221.26" y1="510.00" y2="520.00" />
<line x1="181.45" x2="181.45" y1="510.00" y2="520.00" />
<g fill="black" font-family="Arial, sans-serif" font-size="18.0" stroke="none" text-anchor="start" transform="translate(9.0 0.0)">
<text x="828.41" y="530.57">May</text>
<text x="785.75" y="530.57">Apr</text>
<text x="741.68" y="530.57">Mar</text>
<text x="700.44" y="530.57">Feb</text>
<text x="656.36" y="530.57">Jan</text>
<text x="612.28" y="530.57">Dec</text>
<text x="569.63" y="530.57">Nov</text>
<text x="525.55" y="530.57">Oct</text>
<text x="482.89" y="530.57">Sep</text>
<text x="438.81" y="530.57">Aug</text>
<text x="394.73" y="530.57">Jul</text>
<text x="352.08" y="530.57">Jun</text>
<text x="308.00" y="530.57">May</text>
<text x="265.34" y="530.57">Apr</text>
<text x="221.26" y="530.57">Mar</text>
<text x="181.45" y="530.57">Feb</text>
</g>
<line x1="150.00" x2="850.00" y1="510.00" y2="510.00" />
</g>
<g stroke="black">
<line x1="150.00" x2="138.00" y1="510.00" y2="510.00" />
<line x1="150.00" x2="138.00" y1="216.29" y2="216.29" />
<g fill="black" font-family="Arial, sans-serif" font-size="18.0" stroke="none" text-anchor="end">
<text x="141.00" y="501.00">0</text>
<text x="141.00" y="207.29">10</text>
</g>
<line x1="150.00" x2="150.00" y1="510.00" y2="90.00" />
</g>
</g>
</svg>