<?xml version="1.0"?>
<svg version="1.1" viewBox="0 0 1000 600" xmlns:xlink="http://www.w3.org/1999/xlink" xmlns="http://www.w3.org/2000/svg">
<g>
<g stroke-dasharray="3.6 7.2" stroke-width="0.72" stroke="#caa">
<line x1="402.79" x2="402.79" y1="510.00" y2="90.00" />
<line x1="765.29" x2="765.29" y1="510.00" y2="90.00" />
<line x1="150.00" x2="850.00" y1="270.41" y2="270.41" />
</g>
<g>
<text dominant-baseline="hanging" dx="-36.0" dy="18.0" fill="#0004" font-family="Arial, sans-serif" font-size="36" stroke="none" text-anchor="end" x="850.00" y="125.00">FR4</text>
</g>
<g>
<text dominant-baseline="text-bottom" dy="-12.0" fill="black" font-family="Arial, sans-serif" font-size="18.0" font-style="italic" stroke="none" text-anchor="middle" x="500.00" y="90.00">Days since start</text>
</g>
<g>
<text dominant-baseline="central" dx="12.0" dy="12.0" fill="black" font-family="Arial, sans-serif" font-size="18.0" font-style="italic" stroke="none" text-anchor="middle" text-orientation="sideways" writing-mode="vertical-lr" x="850.00" y="300.00">Drips per day</text>
</g>
<polyline fill="none" points="150.00,244.51 156.17,245.42 162.33,239.81 168.48,238.78 174.81,288.90 180.99,246.34 186.99,196.21 192.76,125.00 198.88,227.84 205.09,255.75 211.29,254.34 217.36,215.81 223.59,260.26 229.73,235.90 235.98,267.64 242.14,241.75 248.23,221.48 254.52,276.52 260.65,232.40 266.84,251.21 272.93,222.11 279.25,285.21 285.46,254.94 291.64,247.97 298.13,330.16 304.52,301.86 310.50,189.08 316.98,328.50 323.27,278.68 329.43,240.01 335.64,256.95 341.62,186.80 347.71,223.67 353.75,206.07 360.37,361.51 366.74,299.00 373.07,287.84 379.48,311.34 385.78,278.38 392.26,328.59 398.48,256.85 404.42,178.16 410.52,224.40 416.77,265.35 423.03,269.52 429.13,225.45 435.32,249.28 441.62,282.00 447.70,216.97 453.93,261.36 460.22,276.72 466.45,263.36 472.76,282.29 479.08,285.60 485.49,308.98 491.90,308.60 498.38,327.11 505.10,386.04 511.50,307.37 517.78,275.64 524.50,386.73 530.88,300.91 537.41,339.77 543.68,270.61 550.11,315.10 556.61,333.19 562.93,285.21 569.35,312.66 660.61,370.50 667.13,338.22 673.79,372.51 680.42,364.78 686.98,345.49 693.68,381.82 700.33,371.64 707.20,420.77 714.24,458.50 720.87,365.05 727.58,383.28 734.60,454.26 741.71,475.00 748.48,397.39 755.00,337.04 761.68,376.26 768.21,341.59 774.87,371.20 781.82,438.82 788.44,362.75 795.21,398.58 801.99,399.25 808.80,408.17 815.74,435.60 822.62,425.28 829.42,403.22 836.35,436.49 843.14,401.45 850.00,419.29" stroke-dasharray="3.6 3.6" stroke-width="3.6" stroke="#aaa" />
<g>
<circle cx="150.00" cy="244.51" r="1.6666666666666667" />
<circle cx="156.17" cy="245.42" r="1.6666666666666667" />
<circle cx="162.33" cy="239.81" r="1.6666666666666667" />
<circle cx="168.48" cy="238.78" r="1.6666666666666667" />
<circle cx="174.81" cy="288.90" r="1.6666666666666667" />
<circle cx="180.99" cy="246.34" r="1.6666666666666667" />
<circle cx="186.99" cy="196.21" r="1.6666666666666667" />
<circle cx="192.76" cy="125.00" r="1.6666666666666667" />
<circle cx="198.88" cy="227.84" r="1.6666666666666667" />
<circle cx="205.09" cy="255.75" r="1.6666666666666667" />
<circle cx="211.29" cy="254.34" r="1.6666666666666667" />
<circle cx="217.36" cy="215.81" r="1.6666666666666667" />
<circle cx="223.59" cy="260.26" r="1.6666666666666667" />
<circle cx="229.73" cy="235.90" r="1.6666666666666667" />
<circle cx="235.98" cy="267.64" r="1.6666666666666667" />
<circle cx="242.14" cy="241.75" r="1.6666666666666667" />
<circle cx="248.23" cy="221.48" r="1.6666666666666667" />
<circle cx="254.52" cy="276.52" r="1.6666666666666667" />
<circle cx="260.65" cy="232.40" r="1.6666666666666667" />
<circle cx="266.84" cy="251.21" r="1.6666666666666667" />
<circle cx="272.93" cy="222.11" r="1.6666666666666667" />
<circle cx="279.25" cy="285.21" r="1.6666666666666667" />
<circle cx="285.46" cy="254.94" r="1.6666666666666667" />
<circle cx="291.64" cy="247.97" r="1.6666666666666667" />
<circle cx="298.13" cy="330.16" r="1.6666666666666667" />
<circle cx="304.52" cy="301.86" r="1.6666666666666667" />
<circle cx="310.50" cy="189.08" r="1.6666666666666667" />
<circle cx="316.98" cy="328.50" r="1.6666666666666667" />
<circle cx="323.27" cy="278.68" r="1.6666666666666667" />
<circle cx="329.43" cy="240.01" r="1.6666666666666667" />
<circle cx="335.64" cy="256.95" r="1.6666666666666667" />
<circle cx="341.62" cy="186.80" r="1.6666666666666667" />
<circle cx="347.71" cy="223.67" r="1.6666666666666667" />
<circle cx="353.75" cy="206.07" r="1.6666666666666667" />
<circle cx="360.37" cy="361.51" r="1.6666666666666667" />
<circle cx="366.74" cy="299.00" r="1.6666666666666667" />
<circle cx="373.07" cy="287.84" r="1.6666666666666667" />
<circle cx="379.48" cy="311.34" r="1.6666666666666667" />
<circle cx="385.78" cy="278.38" r="1.6666666666666667" />
<circle cx="392.26" cy="328.59" r="1.6666666666666667" />
<circle cx="398.48" cy="256.85" r="1.6666666666666667" />
<circle cx="404.42" cy="178.16" r="1.6666666666666667" />
<circle cx="410.52" cy="224.40" r="1.6666666666666667" />
<circle cx="416.77" cy="265.35" r="1.6666666666666667" />
<circle cx="423.03" cy="269.52" r="1.6666666666666667" />
<circle cx="429.13" cy="225.45" r="1.6666666666666667" />
<circle cx="435.32" cy="249.28" r="1.6666666666666667" />
<circle cx="441.62" cy="282.00" r="1.6666666666666667" />
<circle cx="447.70" cy="216.97" r="1.6666666666666667" />
<circle cx="453.93" cy="261.36" r="1.6666666666666667" />
<circle cx="460.22" cy="276.72" r="1.6666666666666667" />
<circle cx="466.45" cy="263.36" r="1.6666666666666667" />
<circle cx="472.76" cy="282.29" r="1.6666666666666667" />
<circle cx="479.08" cy="285.60" r="1.6666666666666667" />
<circle cx="485.49" cy="308.98" r="1.6666666666666667" />
<circle cx="491.90" cy="308.60" r="1.6666666666666667" />
<circle cx="498.38" cy="327.11" r="1.6666666666666667" />
<circle cx="505.10" cy="386.04" r="1.6666666666666667" />
<circle cx="511.50" cy="307.37" r="1.6666666666666667" />
<circle cx="517.78" cy="275.64" r="1.6666666666666667" />
<circle cx="524.50" cy="386.73" r="1.6666666666666667" />
<circle cx="530.88" cy="300.91" r="1.6666666666666667" />
<circle cx="537.41" cy="339.77" r="1.6666666666666667" />
<circle cx="543.68" cy="270.61" r="1.6666666666666667" />
<circle cx="550.11" cy="315.10" r="1.6666666666666667" />
<circle cx="556.61" cy="333.19" r="1.6666666666666667" />
<circle cx="562.93" cy="285.21" r="1.6666666666666667" />
<circle cx="569.35" cy="312.66" r="1.6666666666666667" />
<circle cx="660.61" cy="370.50" r="1.6666666666666667" />
<circle cx="667.13" cy="338.22" r="1.6666666666666667" />
<circle cx="673.79" cy="372.51" r="1.6666666666666667" />
<circle cx="680.42" cy="364.78" r="1.6666666666666667" />
<circle cx="686.98" cy="345.49" r="1.6666666666666667" />
<circle cx="693.68" cy="381.82" r="1.6666666666666667" />
<circle cx="700.33" cy="371.64" r="1.6666666666666667" />
<circle cx="707.20" cy="420.77" r="1.6666666666666667" />
<circle cx="714.24" cy="458.50" r="1.6666666666666667" />
<circle cx="720.87" cy="365.05" r="1.6666666666666667" />
<circle cx="727.58" cy="383.28" r="1.6666666666666667" />
<circle cx="734.60" cy="454.26" r="1.6666666666666667" />
<circle cx="741.71" cy="475.00" r="1.6666666666666667" />
<circle cx="748.48" cy="397.39" r="1.6666666666666667" />
<circle cx="755.00" cy="337.04" r="1.6666666666666667" />
<circle cx="761.68" cy="376.26" r="1.6666666666666667" />
<circle cx="768.21" cy="341.59" r="1.6666666666666667" />
<circle cx="774.87" cy="371.20" r="1.6666666666666667" />
<circle cx="781.82" cy="438.82" r="1.6666666666666667" />
<circle cx="788.44" cy="362.75" r="1.6666666666666667" />
<circle cx="795.21" cy="398.58" r="1.6666666666666667" />
<circle cx="801.99" cy="399.25" r="1.6666666666666667" />
<circle cx="808.80" cy="408.17" r="1.6666666666666667" />
<circle cx="815.74" cy="435.60" r="1.6666666666666667" />
<circle cx="822.62" cy="425.28" r="1.6666666666666667" />
<circle cx="829.42" cy="403.22" r="1.6666666666666667" />
<circle cx="836.35" cy="436.49" r="1.6666666666666667" />
<circle cx="843.14" cy="401.45" r="1.6666666666666667" />
<circle cx="850.00" cy="419.29" r="1.6666666666666667" />
</g>
<g stroke="black">
<line x1="402.79" x2="402.79" y1="510.00" y2="520.00" />
<line x1="765.29" x2="765.29" y1="510.00" y2="520.00" />
<g fill="black" font-family="Arial, sans-serif" font-size="18.0" stroke="none" text-anchor="start" transform="translate(9.0 0.0)">
<text x="402.79" y="530.57">18Jan'23</text>
<text x="765.29" y="530.57">29Jan'23</text>
</g>
<line x1="150.00" x2="850.00" y1="510.00" y2="510.00" />
</g>
<g stroke="black">
<line x1="150.00" x2="140.00" y1="270.41" y2="270.41" />
<g fill="black" font-family="Arial, sans-serif" font-size="18.0" stroke="none" text-anchor="end">
<text x="141.00" y="261.41">5</text>
</g>
<line x1="150.00" x2="150.00" y1="510.00" y2="90.00" />
</g>
</g>
</svg>