<?xml version="1.0"?>
<svg version="1.1" viewBox="0 0 1000 600" xmlns:xlink="http://www.w3.org/1999/xlink" xmlns="http://www.w3.org/2000/svg">
<g>
<g stroke-dasharray="3.6 7.2" stroke-width="0.72" stroke="#caa">
<line x1="828.41" x2="828.41" y1="510.00" y2="90.00" />
<line x1="785.75" x2="785.75" y1="510.00" y2="90.00" />
<line x1="741.68" x2="741.68" y1="510.00" y2="90.00" />
<line x1="700.44" x2="700.44" y1="510.00" y2="90.00" />
<line x1="656.36" x2="656.36" y1="510.00" y2="90.00" />
<line x1="612.28" x2="612.28" y1="510.00" y2="90.00" />
<line x1="569.63" x2="569.63" y1="510.00" y2="90.00" />
<line x1="525.55" x2="525.55" y1="510.00" y2="90.00" />
<line x1="482.89" x2="482.89" y1="510.00" y2="90.00" />
<line x1="438.81" x2="438.81" y1="510.00" y2="90.00" />
<line x1="394.73" x2="394.73" y1="510.00" y2="90.00" />
<line x1="352.08" x2="352.08" y1="510.00" y2="90.00" />
<line x1="308.00" x2="308.00" y1="510.00" y2="90.00" />
<line x1="265.34" x2="265.34" y1="510.00" y2="90.00" />
<line x1="221.26" x2="221.26" y1="510.00" y2="90.00" />
<line x1="181.45" x2="181.45" y1="510.00" y2="90.00" />
<line x1="150.00" x2="850.00" y1="510.00" y2="510.00" />
<line x1="150.00" x2="850.00" y1="216.29" y2="216.29" />
</g>
<g>
<text dominant-baseline="hanging" dx="-36.0" dy="18.0" fill="#0004" font-family="Arial, sans-serif" font-size="36" stroke="none" text-anchor="end" x="850.00" y="128.18">R01</text>
</g>
<g>
<text dominant-baseline="text-bottom" dy="-12.0" fill="black" font-family="Arial, sans-serif" font-size="18.0" font-style="italic" stroke="none" text-anchor="middle" x="500.00" y="90.00">Years 2023 to 2024</text>
</g>
<g>
<text dominant-baseline="hanging" dx="18.0" dy="18.0" fill="black" font-family="Arial, sans-serif" font-size="18.0" font-style="italic" stroke="none" text-anchor="beginning" text-orientation="sideways" x="150.00" y="90.00">log(Drips per day)</text>
</g>
<polyline fill="none" points="532.49,450.47 532.76,461.90 532.96,452.42 533.21,459.25 533.41,451.17 533.65,458.30 533.86,453.72 534.10,457.38 534.30,453.27 534.54,457.60 534.75,453.96 535.00,457.98 535.19,451.51 535.46,461.12 535.66,452.76 535.91,459.07 536.13,454.77 536.38,459.22 536.58,452.15 536.81,456.49 537.01,452.98 537.24,456.58 537.46,454.44 537.70,458.28 537.92,454.38 538.19,461.42 538.39,452.77 538.67,461.76 538.90,456.91 539.15,459.09 539.39,456.96 539.64,459.05 539.87,457.16 540.12,458.51 540.38,460.87 540.63,458.02 540.88,459.04 541.11,457.04 541.37,459.32 541.60,456.74 541.83,457.22 542.10,460.46 542.33,457.59 542.59,459.12 542.82,457.13 543.11,463.09 543.34,456.61 543.61,461.36 543.82,454.01 544.10,461.80 544.32,455.80 544.58,459.72 544.79,454.19 545.04,458.90 545.27,456.40 545.54,460.96 545.78,457.45 546.04,461.02 546.25,452.87 546.52,461.31 546.72,452.44 546.99,461.31 547.20,454.39 547.49,462.69 547.71,454.89 547.95,458.26 548.16,454.51 548.41,458.25 548.65,457.94 548.89,457.55 549.10,454.45 549.35,458.07 549.57,455.54 549.81,457.91 550.04,456.36 550.30,460.45 550.52,454.38 550.75,456.57 550.96,454.10 551.21,459.21 551.43,454.45 551.67,458.28 551.87,452.38 552.11,458.17 552.30,450.01 552.53,457.10 552.72,451.12 552.99,461.04 553.20,452.85 553.45,460.00 553.67,454.84 553.92,458.87 554.12,451.56 554.37,458.93 629.13,448.82 629.32,450.15 629.50,449.80 629.68,450.12 629.88,451.54 630.06,449.79 630.25,450.46 630.43,450.13 630.62,450.88 630.82,451.06 631.00,450.16 631.19,450.18 631.37,450.51 631.56,450.80 631.75,450.21 631.93,450.00 632.13,452.44 632.32,451.13 632.51,450.00 632.70,451.18 632.90,451.50 633.08,450.51 633.28,451.70 661.80,448.33 661.97,447.09 662.13,446.96 662.30,446.86 662.47,447.63 662.64,447.71 662.81,447.70 662.98,447.83 663.15,447.17 663.32,448.31 663.49,447.49 663.66,448.04 663.83,447.46 664.00,447.00 664.17,447.51 664.34,447.05 664.50,446.27 664.67,448.36 664.84,447.90 665.02,447.91 665.19,447.66 665.36,448.76 665.54,448.45 665.71,447.80 665.87,446.98 666.03,445.66 666.19,445.79 666.35,445.38 666.51,445.82 666.67,445.33 666.82,444.62 666.98,445.48 667.13,444.31 667.28,443.97 667.44,445.40 667.60,445.69 667.76,445.22 667.91,445.65 668.07,444.91 668.23,445.89 668.39,445.86 668.55,445.28 668.70,444.92 668.87,447.34 669.04,448.11 669.21,447.79 669.38,447.54 669.55,447.45 669.73,448.57 669.90,447.82 670.07,447.83 670.24,447.32 670.41,447.68 670.58,447.98 670.75,447.94 670.93,448.40 671.11,449.27 671.29,448.91 671.46,447.73 671.63,447.87 671.80,448.76 671.98,448.03 672.14,447.28 672.32,449.03 672.50,448.49 672.68,449.01 672.85,449.09 673.03,448.53 673.21,448.70 673.38,448.51 673.56,448.83 673.74,448.88 673.92,449.14 674.10,449.27 674.27,448.37 674.45,448.94 674.62,448.47 674.80,448.59 674.98,449.33 675.15,448.30 675.33,448.78 675.51,449.75 675.68,447.40 675.85,448.08 676.03,448.91 676.20,447.96 676.38,449.42 676.56,449.45 676.75,450.45 676.94,450.35 677.11,448.26 677.29,448.51 677.47,449.19 677.65,449.64 677.82,448.42 678.00,449.02 678.19,450.03 678.36,448.96 678.55,449.47 678.73,449.57 678.91,449.32 679.08,448.84 679.26,447.87 679.43,447.98 679.61,449.17 679.79,450.47 679.97,449.28 680.15,449.22 680.34,449.70 680.52,449.28 680.69,448.94 680.87,448.10 681.04,448.61 681.23,450.26 681.41,449.64 681.59,449.59 681.78,449.99 681.96,450.19 682.15,450.46 682.33,449.83 682.52,450.74 682.70,449.29 682.88,448.11 683.05,449.06 683.23,448.70 683.42,450.20 683.60,449.50 683.78,449.48 683.97,451.61 684.16,450.27 684.34,449.68 684.53,450.84 684.72,450.42 684.91,450.63 685.09,450.54" stroke-dasharray="3.6 3.6" stroke-width="3.6" stroke="#aaa" />
<g>
<circle cx="532.49" cy="450.47" r="1.6666666666666667" />
<circle cx="532.76" cy="461.90" r="1.6666666666666667" />
<circle cx="532.96" cy="452.42" r="1.6666666666666667" />
<circle cx="533.21" cy="459.25" r="1.6666666666666667" />
<circle cx="533.41" cy="451.17" r="1.6666666666666667" />
<circle cx="533.65" cy="458.30" r="1.6666666666666667" />
<circle cx="533.86" cy="453.72" r="1.6666666666666667" />
<circle cx="534.10" cy="457.38" r="1.6666666666666667" />
<circle cx="534.30" cy="453.27" r="1.6666666666666667" />
<circle cx="534.54" cy="457.60" r="1.6666666666666667" />
<circle cx="534.75" cy="453.96" r="1.6666666666666667" />
<circle cx="535.00" cy="457.98" r="1.6666666666666667" />
<circle cx="535.19" cy="451.51" r="1.6666666666666667" />
<circle cx="535.46" cy="461.12" r="1.6666666666666667" />
<circle cx="535.66" cy="452.76" r="1.6666666666666667" />
<circle cx="535.91" cy="459.07" r="1.6666666666666667" />
<circle cx="536.13" cy="454.77" r="1.6666666666666667" />
<circle cx="536.38" cy="459.22" r="1.6666666666666667" />
<circle cx="536.58" cy="452.15" r="1.6666666666666667" />
<circle cx="536.81" cy="456.49" r="1.6666666666666667" />
<circle cx="537.01" cy="452.98" r="1.6666666666666667" />
<circle cx="537.24" cy="456.58" r="1.6666666666666667" />
<circle cx="537.46" cy="454.44" r="1.6666666666666667" />
<circle cx="537.70" cy="458.28" r="1.6666666666666667" />
<circle cx="537.92" cy="454.38" r="1.6666666666666667" />
<circle cx="538.19" cy="461.42" r="1.6666666666666667" />
<circle cx="538.39" cy="452.77" r="1.6666666666666667" />
<circle cx="538.67" cy="461.76" r="1.6666666666666667" />
<circle cx="538.90" cy="456.91" r="1.6666666666666667" />
<circle cx="539.15" cy="459.09" r="1.6666666666666667" />
<circle cx="539.39" cy="456.96" r="1.6666666666666667" />
<circle cx="539.64" cy="459.05" r="1.6666666666666667" />
<circle cx="539.87" cy="457.16" r="1.6666666666666667" />
<circle cx="540.12" cy="458.51" r="1.6666666666666667" />
<circle cx="540.38" cy="460.87" r="1.6666666666666667" />
<circle cx="540.63" cy="458.02" r="1.6666666666666667" />
<circle cx="540.88" cy="459.04" r="1.6666666666666667" />
<circle cx="541.11" cy="457.04" r="1.6666666666666667" />
<circle cx="541.37" cy="459.32" r="1.6666666666666667" />
<circle cx="541.60" cy="456.74" r="1.6666666666666667" />
<circle cx="541.83" cy="457.22" r="1.6666666666666667" />
<circle cx="542.10" cy="460.46" r="1.6666666666666667" />
<circle cx="542.33" cy="457.59" r="1.6666666666666667" />
<circle cx="542.59" cy="459.12" r="1.6666666666666667" />
<circle cx="542.82" cy="457.13" r="1.6666666666666667" />
<circle cx="543.11" cy="463.09" r="1.6666666666666667" />
<circle cx="543.34" cy="456.61" r="1.6666666666666667" />
<circle cx="543.61" cy="461.36" r="1.6666666666666667" />
<circle cx="543.82" cy="454.01" r="1.6666666666666667" />
<circle cx="544.10" cy="461.80" r="1.6666666666666667" />
<circle cx="544.32" cy="455.80" r="1.6666666666666667" />
<circle cx="544.58" cy="459.72" r="1.6666666666666667" />
<circle cx="544.79" cy="454.19" r="1.6666666666666667" />
<circle cx="545.04" cy="458.90" r="1.6666666666666667" />
<circle cx="545.27" cy="456.40" r="1.6666666666666667" />
<circle cx="545.54" cy="460.96" r="1.6666666666666667" />
<circle cx="545.78" cy="457.45" r="1.6666666666666667" />
<circle cx="546.04" cy="461.02" r="1.6666666666666667" />
<circle cx="546.25" cy="452.87" r="1.6666666666666667" />
<circle cx="546.52" cy="461.31" r="1.6666666666666667" />
<circle cx="546.72" cy="452.44" r="1.6666666666666667" />
<circle cx="546.99" cy="461.31" r="1.6666666666666667" />
<circle cx="547.20" cy="454.39" r="1.6666666666666667" />
<circle cx="547.49" cy="462.69" r="1.6666666666666667" />
<circle cx="547.71" cy="454.89" r="1.6666666666666667" />
<circle cx="547.95" cy="458.26" r="1.6666666666666667" />
<circle cx="548.16" cy="454.51" r="1.6666666666666667" />
<circle cx="548.41" cy="458.25" r="1.6666666666666667" />
<circle cx="548.65" cy="457.94" r="1.6666666666666667" />
<circle cx="548.89" cy="457.55" r="1.6666666666666667" />
<circle cx="549.10" cy="454.45" r="1.6666666666666667" />
<circle cx="549.35" cy="458.07" r="1.6666666666666667" />
<circle cx="549.57" cy="455.54" r="1.6666666666666667" />
<circle cx="549.81" cy="457.91" r="1.6666666666666667" />
<circle cx="550.04" cy="456.36" r="1.6666666666666667" />
<circle cx="550.30" cy="460.45" r="1.6666666666666667" />
<circle cx="550.52" cy="454.38" r="1.6666666666666667" />
<circle cx="550.75" cy="456.57" r="1.6666666666666667" />
<circle cx="550.96" cy="454.10" r="1.6666666666666667" />
<circle cx="551.21" cy="459.21" r="1.6666666666666667" />
<circle cx="551.43" cy="454.45" r="1.6666666666666667" />
<circle cx="551.67" cy="458.28" r="1.6666666666666667" />
<circle cx="551.87" cy="452.38" r="1.6666666666666667" />
<circle cx="552.11" cy="458.17" r="1.6666666666666667" />
<circle cx="552.30" cy="450.01" r="1.6666666666666667" />
<circle cx="552.53" cy="457.10" r="1.6666666666666667" />
<circle cx="552.72" cy="451.12" r="1.6666666666666667" />
<circle cx="552.99" cy="461.04" r="1.6666666666666667" />
<circle cx="553.20" cy="452.85" r="1.6666666666666667" />
<circle cx="553.45" cy="460.00" r="1.6666666666666667" />
<circle cx="553.67" cy="454.84" r="1.6666666666666667" />
<circle cx="553.92" cy="458.87" r="1.6666666666666667" />
<circle cx="554.12" cy="451.56" r="1.6666666666666667" />
<circle cx="554.37" cy="458.93" r="1.6666666666666667" />
<circle cx="629.13" cy="448.82" r="1.6666666666666667" />
<circle cx="629.32" cy="450.15" r="1.6666666666666667" />
<circle cx="629.50" cy="449.80" r="1.6666666666666667" />
<circle cx="629.68" cy="450.12" r="1.6666666666666667" />
<circle cx="629.88" cy="451.54" r="1.6666666666666667" />
<circle cx="630.06" cy="449.79" r="1.6666666666666667" />
<circle cx="630.25" cy="450.46" r="1.6666666666666667" />
<circle cx="630.43" cy="450.13" r="1.6666666666666667" />
<circle cx="630.62" cy="450.88" r="1.6666666666666667" />
<circle cx="630.82" cy="451.06" r="1.6666666666666667" />
<circle cx="631.00" cy="450.16" r="1.6666666666666667" />
<circle cx="631.19" cy="450.18" r="1.6666666666666667" />
<circle cx="631.37" cy="450.51" r="1.6666666666666667" />
<circle cx="631.56" cy="450.80" r="1.6666666666666667" />
<circle cx="631.75" cy="450.21" r="1.6666666666666667" />
<circle cx="631.93" cy="450.00" r="1.6666666666666667" />
<circle cx="632.13" cy="452.44" r="1.6666666666666667" />
<circle cx="632.32" cy="451.13" r="1.6666666666666667" />
<circle cx="632.51" cy="450.00" r="1.6666666666666667" />
<circle cx="632.70" cy="451.18" r="1.6666666666666667" />
<circle cx="632.90" cy="451.50" r="1.6666666666666667" />
<circle cx="633.08" cy="450.51" r="1.6666666666666667" />
<circle cx="633.28" cy="451.70" r="1.6666666666666667" />
<circle cx="661.80" cy="448.33" r="1.6666666666666667" />
<circle cx="661.97" cy="447.09" r="1.6666666666666667" />
<circle cx="662.13" cy="446.96" r="1.6666666666666667" />
<circle cx="662.30" cy="446.86" r="1.6666666666666667" />
<circle cx="662.47" cy="447.63" r="1.6666666666666667" />
<circle cx="662.64" cy="447.71" r="1.6666666666666667" />
<circle cx="662.81" cy="447.70" r="1.6666666666666667" />
<circle cx="662.98" cy="447.83" r="1.6666666666666667" />
<circle cx="663.15" cy="447.17" r="1.6666666666666667" />
<circle cx="663.32" cy="448.31" r="1.6666666666666667" />
<circle cx="663.49" cy="447.49" r="1.6666666666666667" />
<circle cx="663.66" cy="448.04" r="1.6666666666666667" />
<circle cx="663.83" cy="447.46" r="1.6666666666666667" />
<circle cx="664.00" cy="447.00" r="1.6666666666666667" />
<circle cx="664.17" cy="447.51" r="1.6666666666666667" />
<circle cx="664.34" cy="447.05" r="1.6666666666666667" />
<circle cx="664.50" cy="446.27" r="1.6666666666666667" />
<circle cx="664.67" cy="448.36" r="1.6666666666666667" />
<circle cx="664.84" cy="447.90" r="1.6666666666666667" />
<circle cx="665.02" cy="447.91" r="1.6666666666666667" />
<circle cx="665.19" cy="447.66" r="1.6666666666666667" />
<circle cx="665.36" cy="448.76" r="1.6666666666666667" />
<circle cx="665.54" cy="448.45" r="1.6666666666666667" />
<circle cx="665.71" cy="447.80" r="1.6666666666666667" />
<circle cx="665.87" cy="446.98" r="1.6666666666666667" />
<circle cx="666.03" cy="445.66" r="1.6666666666666667" />
<circle cx="666.19" cy="445.79" r="1.6666666666666667" />
<circle cx="666.35" cy="445.38" r="1.6666666666666667" />
<circle cx="666.51" cy="445.82" r="1.6666666666666667" />
<circle cx="666.67" cy="445.33" r="1.6666666666666667" />
<circle cx="666.82" cy="444.62" r="1.6666666666666667" />
<circle cx="666.98" cy="445.48" r="1.6666666666666667" />
<circle cx="667.13" cy="444.31" r="1.6666666666666667" />
<circle cx="667.28" cy="443.97" r="1.6666666666666667" />
<circle cx="667.44" cy="445.40" r="1.6666666666666667" />
<circle cx="667.60" cy="445.69" r="1.6666666666666667" />
<circle cx="667.76" cy="445.22" r="1.6666666666666667" />
<circle cx="667.91" cy="445.65" r="1.6666666666666667" />
<circle cx="668.07" cy="444.91" r="1.6666666666666667" />
<circle cx="668.23" cy="445.89" r="1.6666666666666667" />
<circle cx="668.39" cy="445.86" r="1.6666666666666667" />
<circle cx="668.55" cy="445.28" r="1.6666666666666667" />
<circle cx="668.70" cy="444.92" r="1.6666666666666667" />
<circle cx="668.87" cy="447.34" r="1.6666666666666667" />
<circle cx="669.04" cy="448.11" r="1.6666666666666667" />
<circle cx="669.21" cy="447.79" r="1.6666666666666667" />
<circle cx="669.38" cy="447.54" r="1.6666666666666667" />
<circle cx="669.55" cy="447.45" r="1.6666666666666667" />
<circle cx="669.73" cy="448.57" r="1.6666666666666667" />
<circle cx="669.90" cy="447.82" r="1.6666666666666667" />
<circle cx="670.07" cy="447.83" r="1.6666666666666667" />
<circle cx="670.24" cy="447.32" r="1.6666666666666667" />
<circle cx="670.41" cy="447.68" r="1.6666666666666667" />
<circle cx="670.58" cy="447.98" r="1.6666666666666667" />
<circle cx="670.75" cy="447.94" r="1.6666666666666667" />
<circle cx="670.93" cy="448.40" r="1.6666666666666667" />
<circle cx="671.11" cy="449.27" r="1.6666666666666667" />
<circle cx="671.29" cy="448.91" r="1.6666666666666667" />
<circle cx="671.46" cy="447.73" r="1.6666666666666667" />
<circle cx="671.63" cy="447.87" r="1.6666666666666667" />
<circle cx="671.80" cy="448.76" r="1.6666666666666667" />
<circle cx="671.98" cy="448.03" r="1.6666666666666667" />
<circle cx="672.14" cy="447.28" r="1.6666666666666667" />
<circle cx="672.32" cy="449.03" r="1.6666666666666667" />
<circle cx="672.50" cy="448.49" r="1.6666666666666667" />
<circle cx="672.68" cy="449.01" r="1.6666666666666667" />
<circle cx="672.85" cy="449.09" r="1.6666666666666667" />
<circle cx="673.03" cy="448.53" r="1.6666666666666667" />
<circle cx="673.21" cy="448.70" r="1.6666666666666667" />
<circle cx="673.38" cy="448.51" r="1.6666666666666667" />
<circle cx="673.56" cy="448.83" r="1.6666666666666667" />
<circle cx="673.74" cy="448.88" r="1.6666666666666667" />
<circle cx="673.92" cy="449.14" r="1.6666666666666667" />
<circle cx="674.10" cy="449.27" r="1.6666666666666667" />
<circle cx="674.27" cy="448.37" r="1.6666666666666667" />
<circle cx="674.45" cy="448.94" r="1.6666666666666667" />
<circle cx="674.62" cy="448.47" r="1.6666666666666667" />
<circle cx="674.80" cy="448.59" r="1.6666666666666667" />
<circle cx="674.98" cy="449.33" r="1.6666666666666667" />
<circle cx="675.15" cy="448.30" r="1.6666666666666667" />
<circle cx="675.33" cy="448.78" r="1.6666666666666667" />
<circle cx="675.51" cy="449.75" r="1.6666666666666667" />
<circle cx="675.68" cy="447.40" r="1.6666666666666667" />
<circle cx="675.85" cy="448.08" r="1.6666666666666667" />
<circle cx="676.03" cy="448.91" r="1.6666666666666667" />
<circle cx="676.20" cy="447.96" r="1.6666666666666667" />
<circle cx="676.38" cy="449.42" r="1.6666666666666667" />
<circle cx="676.56" cy="449.45" r="1.6666666666666667" />
<circle cx="676.75" cy="450.45" r="1.6666666666666667" />
<circle cx="676.94" cy="450.35" r="1.6666666666666667" />
<circle cx="677.11" cy="448.26" r="1.6666666666666667" />
<circle cx="677.29" cy="448.51" r="1.6666666666666667" />
<circle cx="677.47" cy="449.19" r="1.6666666666666667" />
<circle cx="677.65" cy="449.64" r="1.6666666666666667" />
<circle cx="677.82" cy="448.42" r="1.6666666666666667" />
<circle cx="678.00" cy="449.02" r="1.6666666666666667" />
<circle cx="678.19" cy="450.03" r="1.6666666666666667" />
<circle cx="678.36" cy="448.96" r="1.6666666666666667" />
<circle cx="678.55" cy="449.47" r="1.6666666666666667" />
<circle cx="678.73" cy="449.57" r="1.6666666666666667" />
<circle cx="678.91" cy="449.32" r="1.6666666666666667" />
<circle cx="679.08" cy="448.84" r="1.6666666666666667" />
<circle cx="679.26" cy="447.87" r="1.6666666666666667" />
<circle cx="679.43" cy="447.98" r="1.6666666666666667" />
<circle cx="679.61" cy="449.17" r="1.6666666666666667" />
<circle cx="679.79" cy="450.47" r="1.6666666666666667" />
<circle cx="679.97" cy="449.28" r="1.6666666666666667" />
<circle cx="680.15" cy="449.22" r="1.6666666666666667" />
<circle cx="680.34" cy="449.70" r="1.6666666666666667" />
<circle cx="680.52" cy="449.28" r="1.6666666666666667" />
<circle cx="680.69" cy="448.94" r="1.6666666666666667" />
<circle cx="680.87" cy="448.10" r="1.6666666666666667" />
<circle cx="681.04" cy="448.61" r="1.6666666666666667" />
<circle cx="681.23" cy="450.26" r="1.6666666666666667" />
<circle cx="681.41" cy="449.64" r="1.6666666666666667" />
<circle cx="681.59" cy="449.59" r="1.6666666666666667" />
<circle cx="681.78" cy="449.99" r="1.6666666666666667" />
<circle cx="681.96" cy="450.19" r="1.6666666666666667" />
<circle cx="682.15" cy="450.46" r="1.6666666666666667" />
<circle cx="682.33" cy="449.83" r="1.6666666666666667" />
<circle cx="682.52" cy="450.74" r="1.6666666666666667" />
<circle cx="682.70" cy="449.29" r="1.6666666666666667" />
<circle cx="682.88" cy="448.11" r="1.6666666666666667" />
<circle cx="683.05" cy="449.06" r="1.6666666666666667" />
<circle cx="683.23" cy="448.70" r="1.6666666666666667" />
<circle cx="683.42" cy="450.20" r="1.6666666666666667" />
<circle cx="683.60" cy="449.50" r="1.6666666666666667" />
<circle cx="683.78" cy="449.48" r="1.6666666666666667" />
<circle cx="683.97" cy="451.61" r="1.6666666666666667" />
<circle cx="684.16" cy="450.27" r="1.6666666666666667" />
<circle cx="684.34" cy="449.68" r="1.6666666666666667" />
<circle cx="684.53" cy="450.84" r="1.6666666666666667" />
<circle cx="684.72" cy="450.42" r="1.6666666666666667" />
<circle cx="684.91" cy="450.63" r="1.6666666666666667" />
<circle cx="685.09" cy="450.54" r="1.6666666666666667" />
</g>
<g stroke="black">
<line x1="828.41" x2="828.41" y1="510.00" y2="520.00" />
<line x1="785.75" x2="785.75" y1="510.00" y2="520.00" />
<line x1="741.68" x2="741.68" y1="510.00" y2="520.00" />
<line x1="700.44" x2="700.44" y1="510.00" y2="520.00" />
<line x1="656.36" x2="656.36" y1="510.00" y2="520.00" />
<line x1="612.28" x2="612.28" y1="510.00" y2="520.00" />
<line x1="569.63" x2="569.63" y1="510.00" y2="520.00" />
<line x1="525.55" x2="525.55" y1="510.00" y2="520.00" />
<line x1="482.89" x2="482.89" y1="510.00" y2="520.00" />
<line x1="438.81" x2="438.81" y1="510.00" y2="520.00" />
<line x1="394.73" x2="394.73" y1="510.00" y2="520.00" />
<line x1="352.08" x2="352.08" y1="510.00" y2="520.00" />
<line x1="308.00" x2="308.00" y1="510.00" y2="520.00" />
<line x1="265.34" x2="265.34" y1="510.00" y2="520.00" />
<line x1="221.26" x2="221.26" y1="510.00" y2="520.00" />
<line x1="181.45" x2="181.45" y1="510.00" y2="520.00" />
<g fill="black" font-family="Arial, sans-serif" font-size="18.0" stroke="none" text-anchor="start" transform="translate(9.0 0.0)">
<text x="828.41" y="530.57">May</text>
<text x="785.75" y="530.57">Apr</text>
<text x="741.68" y="530.57">Mar</text>
<text x="700.44" y="530.57">Feb</text>
<text x="656.36" y="530.57">Jan</text>
<text x="612.28" y="530.57">Dec</text>
<text x="569.63" y="530.57">Nov</text>
<text x="525.55" y="530.57">Oct</text>
<text x="482.89" y="530.57">Sep</text>
<text x="438.81" y="530.57">Aug</text>
<text x="394.73" y="530.57">Jul</text>
<text x="352.08" y="530.57">Jun</text>
<text x="308.00" y="530.57">May</text>
<text x="265.34" y="530.57">Apr</text>
<text x="221.26" y="530.57">Mar</text>
<text x="181.45" y="530.57">Feb</text>
</g>
<line x1="150.00" x2="850.00" y1="510.00" y2="510.00" />
</g>
<g stroke="black">
<line x1="150.00" x2="138.00" y1="510.00" y2="510.00" />
<line x1="150.00" x2="138.00" y1="216.29" y2="216.29" />
<g fill="black" font-family="Arial, sans-serif" font-size="18.0" stroke="none" text-anchor="end">
<text x="141.00" y="501.00">0</text>
<text x="141.00" y="207.29">10</text>
</g>
<line x1="150.00" x2="150.00" y1="510.00" y2="90.00" />
</g>
</g>
</svg>