<?xml version="1.0"?>
<svg version="1.1" viewBox="0 0 1000 600" xmlns:xlink="http://www.w3.org/1999/xlink" xmlns="http://www.w3.org/2000/svg">
<g>
<g stroke-dasharray="3.6 7.2" stroke-width="0.72" stroke="#caa">
<line x1="813.75" x2="813.75" y1="510.00" y2="90.00" />
<line x1="760.60" x2="760.60" y1="510.00" y2="90.00" />
<line x1="707.45" x2="707.45" y1="510.00" y2="90.00" />
<line x1="656.01" x2="656.01" y1="510.00" y2="90.00" />
<line x1="602.86" x2="602.86" y1="510.00" y2="90.00" />
<line x1="551.42" x2="551.42" y1="510.00" y2="90.00" />
<line x1="498.27" x2="498.27" y1="510.00" y2="90.00" />
<line x1="445.11" x2="445.11" y1="510.00" y2="90.00" />
<line x1="393.68" x2="393.68" y1="510.00" y2="90.00" />
<line x1="340.52" x2="340.52" y1="510.00" y2="90.00" />
<line x1="289.09" x2="289.09" y1="510.00" y2="90.00" />
<line x1="235.93" x2="235.93" y1="510.00" y2="90.00" />
<line x1="187.92" x2="187.92" y1="510.00" y2="90.00" />
<line x1="150.00" x2="850.00" y1="510.00" y2="510.00" />
<line x1="150.00" x2="850.00" y1="216.29" y2="216.29" />
</g>
<g>
<text dominant-baseline="hanging" dx="-36.0" dy="18.0" fill="#0004" font-family="Arial, sans-serif" font-size="36" stroke="none" text-anchor="end" x="850.00" y="128.18">R01</text>
</g>
<g>
<text dominant-baseline="text-bottom" dy="-12.0" fill="black" font-family="Arial, sans-serif" font-size="18.0" font-style="italic" stroke="none" text-anchor="middle" x="500.00" y="90.00">Years 2023 to 2024</text>
</g>
<g>
<text dominant-baseline="central" dx="12.0" dy="12.0" fill="black" font-family="Arial, sans-serif" font-size="18.0" font-style="italic" stroke="none" text-anchor="middle" text-orientation="sideways" writing-mode="vertical-lr" x="850.00" y="300.00">log(Drips per day)</text>
</g>
<polyline fill="none" points="611.22,450.47 611.56,461.90 611.80,452.42 612.10,459.25 612.33,451.17 612.63,458.30 612.88,453.72 613.17,457.38 613.42,453.27 613.70,457.60 613.96,453.96 614.25,457.98 614.48,451.51 614.81,461.12 615.05,452.76 615.36,459.07 615.62,454.77 615.92,459.22 616.16,452.15 616.44,456.49 616.68,452.98 616.96,456.58 617.22,454.44 617.52,458.28 617.77,454.38 618.10,461.42 618.35,452.77 618.68,461.76 618.96,456.91 619.26,459.09 619.54,456.96 619.85,459.05 620.13,457.16 620.43,458.51 620.75,460.87 621.04,458.02 621.34,459.04 621.63,457.04 621.93,459.32 622.21,456.74 622.49,457.22 622.81,460.46 623.10,457.59 623.40,459.12 623.69,457.13 624.03,463.09 624.31,456.61 624.64,461.36 624.89,454.01 625.23,461.80 625.50,455.80 625.81,459.72 626.06,454.19 626.36,458.90 626.64,456.40 626.96,460.96 627.25,457.45 627.57,461.02 627.82,452.87 628.15,461.31 628.39,452.44 628.71,461.31 628.97,454.39 629.31,462.69 629.58,454.89 629.87,458.26 630.13,454.51 630.43,458.25 630.72,457.94 631.00,457.55 631.26,454.45 631.56,458.07 631.82,455.54 632.11,457.91 632.39,456.36 632.71,460.45 632.97,454.38 633.24,456.57 633.50,454.10 633.80,459.21 634.06,454.45 634.36,458.28 634.60,452.38 634.89,458.17 635.11,450.01 635.40,457.10 635.63,451.12 635.95,461.04 636.20,452.85 636.51,460.00 636.77,454.84 637.07,458.87 637.31,451.56 637.61,458.93 727.76,448.82 727.99,450.15 728.21,449.80 728.43,450.12 728.67,451.54 728.89,449.79 729.11,450.46 729.34,450.13 729.56,450.88 729.80,451.06 730.02,450.16 730.24,450.18 730.47,450.51 730.70,450.80 730.92,450.21 731.14,450.00 731.38,452.44 731.62,451.13 731.84,450.00 732.07,451.18 732.30,451.50 732.53,450.51 732.77,451.70 767.16,448.33 767.36,447.09 767.56,446.96 767.76,446.86 767.96,447.63 768.17,447.71 768.38,447.70 768.58,447.83 768.78,447.17 768.99,448.31 769.20,447.49 769.41,448.04 769.61,447.46 769.81,447.00 770.01,447.51 770.22,447.05 770.41,446.27 770.62,448.36 770.83,447.90 771.04,447.91 771.24,447.66 771.45,448.76 771.67,448.45 771.87,447.80 772.07,446.98 772.26,445.66 772.46,445.79 772.65,445.38 772.84,445.82 773.03,445.33 773.21,444.62 773.40,445.48 773.59,444.31 773.77,443.97 773.96,445.40 774.15,445.69 774.34,445.22 774.53,445.65 774.72,444.91 774.91,445.89 775.10,445.86 775.29,445.28 775.48,444.92 775.68,447.34 775.89,448.11 776.10,447.79 776.30,447.54 776.51,447.45 776.72,448.57 776.93,447.82 777.13,447.83 777.33,447.32 777.54,447.68 777.75,447.98 777.95,447.94 778.17,448.40 778.38,449.27 778.60,448.91 778.80,447.73 779.01,447.87 779.22,448.76 779.43,448.03 779.63,447.28 779.85,449.03 780.06,448.49 780.27,449.01 780.49,449.09 780.70,448.53 780.91,448.70 781.12,448.51 781.34,448.83 781.55,448.88 781.77,449.14 781.99,449.27 782.20,448.37 782.41,448.94 782.62,448.47 782.83,448.59 783.05,449.33 783.26,448.30 783.47,448.78 783.69,449.75 783.90,447.40 784.11,448.08 784.32,448.91 784.53,447.96 784.74,449.42 784.96,449.45 785.19,450.45 785.41,450.35 785.62,448.26 785.83,448.51 786.05,449.19 786.27,449.64 786.48,448.42 786.70,449.02 786.92,450.03 787.13,448.96 787.35,449.47 787.57,449.57 787.79,449.32 788.00,448.84 788.21,447.87 788.42,447.98 788.63,449.17 788.86,450.47 789.07,449.28 789.29,449.22 789.51,449.70 789.73,449.28 789.94,448.94 790.15,448.10 790.36,448.61 790.59,450.26 790.81,449.64 791.03,449.59 791.25,449.99 791.47,450.19 791.70,450.46 791.92,449.83 792.15,450.74 792.36,449.29 792.57,448.11 792.79,449.06 793.00,448.70 793.22,450.20 793.44,449.50 793.66,449.48 793.90,451.61 794.12,450.27 794.34,449.68 794.57,450.84 794.80,450.42 795.02,450.63 795.25,450.54" stroke-dasharray="3.6 3.6" stroke-width="3.6" stroke="#aaa" />
<g>
<circle cx="611.22" cy="450.47" r="1.6666666666666667" />
<circle cx="611.56" cy="461.90" r="1.6666666666666667" />
<circle cx="611.80" cy="452.42" r="1.6666666666666667" />
<circle cx="612.10" cy="459.25" r="1.6666666666666667" />
<circle cx="612.33" cy="451.17" r="1.6666666666666667" />
<circle cx="612.63" cy="458.30" r="1.6666666666666667" />
<circle cx="612.88" cy="453.72" r="1.6666666666666667" />
<circle cx="613.17" cy="457.38" r="1.6666666666666667" />
<circle cx="613.42" cy="453.27" r="1.6666666666666667" />
<circle cx="613.70" cy="457.60" r="1.6666666666666667" />
<circle cx="613.96" cy="453.96" r="1.6666666666666667" />
<circle cx="614.25" cy="457.98" r="1.6666666666666667" />
<circle cx="614.48" cy="451.51" r="1.6666666666666667" />
<circle cx="614.81" cy="461.12" r="1.6666666666666667" />
<circle cx="615.05" cy="452.76" r="1.6666666666666667" />
<circle cx="615.36" cy="459.07" r="1.6666666666666667" />
<circle cx="615.62" cy="454.77" r="1.6666666666666667" />
<circle cx="615.92" cy="459.22" r="1.6666666666666667" />
<circle cx="616.16" cy="452.15" r="1.6666666666666667" />
<circle cx="616.44" cy="456.49" r="1.6666666666666667" />
<circle cx="616.68" cy="452.98" r="1.6666666666666667" />
<circle cx="616.96" cy="456.58" r="1.6666666666666667" />
<circle cx="617.22" cy="454.44" r="1.6666666666666667" />
<circle cx="617.52" cy="458.28" r="1.6666666666666667" />
<circle cx="617.77" cy="454.38" r="1.6666666666666667" />
<circle cx="618.10" cy="461.42" r="1.6666666666666667" />
<circle cx="618.35" cy="452.77" r="1.6666666666666667" />
<circle cx="618.68" cy="461.76" r="1.6666666666666667" />
<circle cx="618.96" cy="456.91" r="1.6666666666666667" />
<circle cx="619.26" cy="459.09" r="1.6666666666666667" />
<circle cx="619.54" cy="456.96" r="1.6666666666666667" />
<circle cx="619.85" cy="459.05" r="1.6666666666666667" />
<circle cx="620.13" cy="457.16" r="1.6666666666666667" />
<circle cx="620.43" cy="458.51" r="1.6666666666666667" />
<circle cx="620.75" cy="460.87" r="1.6666666666666667" />
<circle cx="621.04" cy="458.02" r="1.6666666666666667" />
<circle cx="621.34" cy="459.04" r="1.6666666666666667" />
<circle cx="621.63" cy="457.04" r="1.6666666666666667" />
<circle cx="621.93" cy="459.32" r="1.6666666666666667" />
<circle cx="622.21" cy="456.74" r="1.6666666666666667" />
<circle cx="622.49" cy="457.22" r="1.6666666666666667" />
<circle cx="622.81" cy="460.46" r="1.6666666666666667" />
<circle cx="623.10" cy="457.59" r="1.6666666666666667" />
<circle cx="623.40" cy="459.12" r="1.6666666666666667" />
<circle cx="623.69" cy="457.13" r="1.6666666666666667" />
<circle cx="624.03" cy="463.09" r="1.6666666666666667" />
<circle cx="624.31" cy="456.61" r="1.6666666666666667" />
<circle cx="624.64" cy="461.36" r="1.6666666666666667" />
<circle cx="624.89" cy="454.01" r="1.6666666666666667" />
<circle cx="625.23" cy="461.80" r="1.6666666666666667" />
<circle cx="625.50" cy="455.80" r="1.6666666666666667" />
<circle cx="625.81" cy="459.72" r="1.6666666666666667" />
<circle cx="626.06" cy="454.19" r="1.6666666666666667" />
<circle cx="626.36" cy="458.90" r="1.6666666666666667" />
<circle cx="626.64" cy="456.40" r="1.6666666666666667" />
<circle cx="626.96" cy="460.96" r="1.6666666666666667" />
<circle cx="627.25" cy="457.45" r="1.6666666666666667" />
<circle cx="627.57" cy="461.02" r="1.6666666666666667" />
<circle cx="627.82" cy="452.87" r="1.6666666666666667" />
<circle cx="628.15" cy="461.31" r="1.6666666666666667" />
<circle cx="628.39" cy="452.44" r="1.6666666666666667" />
<circle cx="628.71" cy="461.31" r="1.6666666666666667" />
<circle cx="628.97" cy="454.39" r="1.6666666666666667" />
<circle cx="629.31" cy="462.69" r="1.6666666666666667" />
<circle cx="629.58" cy="454.89" r="1.6666666666666667" />
<circle cx="629.87" cy="458.26" r="1.6666666666666667" />
<circle cx="630.13" cy="454.51" r="1.6666666666666667" />
<circle cx="630.43" cy="458.25" r="1.6666666666666667" />
<circle cx="630.72" cy="457.94" r="1.6666666666666667" />
<circle cx="631.00" cy="457.55" r="1.6666666666666667" />
<circle cx="631.26" cy="454.45" r="1.6666666666666667" />
<circle cx="631.56" cy="458.07" r="1.6666666666666667" />
<circle cx="631.82" cy="455.54" r="1.6666666666666667" />
<circle cx="632.11" cy="457.91" r="1.6666666666666667" />
<circle cx="632.39" cy="456.36" r="1.6666666666666667" />
<circle cx="632.71" cy="460.45" r="1.6666666666666667" />
<circle cx="632.97" cy="454.38" r="1.6666666666666667" />
<circle cx="633.24" cy="456.57" r="1.6666666666666667" />
<circle cx="633.50" cy="454.10" r="1.6666666666666667" />
<circle cx="633.80" cy="459.21" r="1.6666666666666667" />
<circle cx="634.06" cy="454.45" r="1.6666666666666667" />
<circle cx="634.36" cy="458.28" r="1.6666666666666667" />
<circle cx="634.60" cy="452.38" r="1.6666666666666667" />
<circle cx="634.89" cy="458.17" r="1.6666666666666667" />
<circle cx="635.11" cy="450.01" r="1.6666666666666667" />
<circle cx="635.40" cy="457.10" r="1.6666666666666667" />
<circle cx="635.63" cy="451.12" r="1.6666666666666667" />
<circle cx="635.95" cy="461.04" r="1.6666666666666667" />
<circle cx="636.20" cy="452.85" r="1.6666666666666667" />
<circle cx="636.51" cy="460.00" r="1.6666666666666667" />
<circle cx="636.77" cy="454.84" r="1.6666666666666667" />
<circle cx="637.07" cy="458.87" r="1.6666666666666667" />
<circle cx="637.31" cy="451.56" r="1.6666666666666667" />
<circle cx="637.61" cy="458.93" r="1.6666666666666667" />
<circle cx="727.76" cy="448.82" r="1.6666666666666667" />
<circle cx="727.99" cy="450.15" r="1.6666666666666667" />
<circle cx="728.21" cy="449.80" r="1.6666666666666667" />
<circle cx="728.43" cy="450.12" r="1.6666666666666667" />
<circle cx="728.67" cy="451.54" r="1.6666666666666667" />
<circle cx="728.89" cy="449.79" r="1.6666666666666667" />
<circle cx="729.11" cy="450.46" r="1.6666666666666667" />
<circle cx="729.34" cy="450.13" r="1.6666666666666667" />
<circle cx="729.56" cy="450.88" r="1.6666666666666667" />
<circle cx="729.80" cy="451.06" r="1.6666666666666667" />
<circle cx="730.02" cy="450.16" r="1.6666666666666667" />
<circle cx="730.24" cy="450.18" r="1.6666666666666667" />
<circle cx="730.47" cy="450.51" r="1.6666666666666667" />
<circle cx="730.70" cy="450.80" r="1.6666666666666667" />
<circle cx="730.92" cy="450.21" r="1.6666666666666667" />
<circle cx="731.14" cy="450.00" r="1.6666666666666667" />
<circle cx="731.38" cy="452.44" r="1.6666666666666667" />
<circle cx="731.62" cy="451.13" r="1.6666666666666667" />
<circle cx="731.84" cy="450.00" r="1.6666666666666667" />
<circle cx="732.07" cy="451.18" r="1.6666666666666667" />
<circle cx="732.30" cy="451.50" r="1.6666666666666667" />
<circle cx="732.53" cy="450.51" r="1.6666666666666667" />
<circle cx="732.77" cy="451.70" r="1.6666666666666667" />
<circle cx="767.16" cy="448.33" r="1.6666666666666667" />
<circle cx="767.36" cy="447.09" r="1.6666666666666667" />
<circle cx="767.56" cy="446.96" r="1.6666666666666667" />
<circle cx="767.76" cy="446.86" r="1.6666666666666667" />
<circle cx="767.96" cy="447.63" r="1.6666666666666667" />
<circle cx="768.17" cy="447.71" r="1.6666666666666667" />
<circle cx="768.38" cy="447.70" r="1.6666666666666667" />
<circle cx="768.58" cy="447.83" r="1.6666666666666667" />
<circle cx="768.78" cy="447.17" r="1.6666666666666667" />
<circle cx="768.99" cy="448.31" r="1.6666666666666667" />
<circle cx="769.20" cy="447.49" r="1.6666666666666667" />
<circle cx="769.41" cy="448.04" r="1.6666666666666667" />
<circle cx="769.61" cy="447.46" r="1.6666666666666667" />
<circle cx="769.81" cy="447.00" r="1.6666666666666667" />
<circle cx="770.01" cy="447.51" r="1.6666666666666667" />
<circle cx="770.22" cy="447.05" r="1.6666666666666667" />
<circle cx="770.41" cy="446.27" r="1.6666666666666667" />
<circle cx="770.62" cy="448.36" r="1.6666666666666667" />
<circle cx="770.83" cy="447.90" r="1.6666666666666667" />
<circle cx="771.04" cy="447.91" r="1.6666666666666667" />
<circle cx="771.24" cy="447.66" r="1.6666666666666667" />
<circle cx="771.45" cy="448.76" r="1.6666666666666667" />
<circle cx="771.67" cy="448.45" r="1.6666666666666667" />
<circle cx="771.87" cy="447.80" r="1.6666666666666667" />
<circle cx="772.07" cy="446.98" r="1.6666666666666667" />
<circle cx="772.26" cy="445.66" r="1.6666666666666667" />
<circle cx="772.46" cy="445.79" r="1.6666666666666667" />
<circle cx="772.65" cy="445.38" r="1.6666666666666667" />
<circle cx="772.84" cy="445.82" r="1.6666666666666667" />
<circle cx="773.03" cy="445.33" r="1.6666666666666667" />
<circle cx="773.21" cy="444.62" r="1.6666666666666667" />
<circle cx="773.40" cy="445.48" r="1.6666666666666667" />
<circle cx="773.59" cy="444.31" r="1.6666666666666667" />
<circle cx="773.77" cy="443.97" r="1.6666666666666667" />
<circle cx="773.96" cy="445.40" r="1.6666666666666667" />
<circle cx="774.15" cy="445.69" r="1.6666666666666667" />
<circle cx="774.34" cy="445.22" r="1.6666666666666667" />
<circle cx="774.53" cy="445.65" r="1.6666666666666667" />
<circle cx="774.72" cy="444.91" r="1.6666666666666667" />
<circle cx="774.91" cy="445.89" r="1.6666666666666667" />
<circle cx="775.10" cy="445.86" r="1.6666666666666667" />
<circle cx="775.29" cy="445.28" r="1.6666666666666667" />
<circle cx="775.48" cy="444.92" r="1.6666666666666667" />
<circle cx="775.68" cy="447.34" r="1.6666666666666667" />
<circle cx="775.89" cy="448.11" r="1.6666666666666667" />
<circle cx="776.10" cy="447.79" r="1.6666666666666667" />
<circle cx="776.30" cy="447.54" r="1.6666666666666667" />
<circle cx="776.51" cy="447.45" r="1.6666666666666667" />
<circle cx="776.72" cy="448.57" r="1.6666666666666667" />
<circle cx="776.93" cy="447.82" r="1.6666666666666667" />
<circle cx="777.13" cy="447.83" r="1.6666666666666667" />
<circle cx="777.33" cy="447.32" r="1.6666666666666667" />
<circle cx="777.54" cy="447.68" r="1.6666666666666667" />
<circle cx="777.75" cy="447.98" r="1.6666666666666667" />
<circle cx="777.95" cy="447.94" r="1.6666666666666667" />
<circle cx="778.17" cy="448.40" r="1.6666666666666667" />
<circle cx="778.38" cy="449.27" r="1.6666666666666667" />
<circle cx="778.60" cy="448.91" r="1.6666666666666667" />
<circle cx="778.80" cy="447.73" r="1.6666666666666667" />
<circle cx="779.01" cy="447.87" r="1.6666666666666667" />
<circle cx="779.22" cy="448.76" r="1.6666666666666667" />
<circle cx="779.43" cy="448.03" r="1.6666666666666667" />
<circle cx="779.63" cy="447.28" r="1.6666666666666667" />
<circle cx="779.85" cy="449.03" r="1.6666666666666667" />
<circle cx="780.06" cy="448.49" r="1.6666666666666667" />
<circle cx="780.27" cy="449.01" r="1.6666666666666667" />
<circle cx="780.49" cy="449.09" r="1.6666666666666667" />
<circle cx="780.70" cy="448.53" r="1.6666666666666667" />
<circle cx="780.91" cy="448.70" r="1.6666666666666667" />
<circle cx="781.12" cy="448.51" r="1.6666666666666667" />
<circle cx="781.34" cy="448.83" r="1.6666666666666667" />
<circle cx="781.55" cy="448.88" r="1.6666666666666667" />
<circle cx="781.77" cy="449.14" r="1.6666666666666667" />
<circle cx="781.99" cy="449.27" r="1.6666666666666667" />
<circle cx="782.20" cy="448.37" r="1.6666666666666667" />
<circle cx="782.41" cy="448.94" r="1.6666666666666667" />
<circle cx="782.62" cy="448.47" r="1.6666666666666667" />
<circle cx="782.83" cy="448.59" r="1.6666666666666667" />
<circle cx="783.05" cy="449.33" r="1.6666666666666667" />
<circle cx="783.26" cy="448.30" r="1.6666666666666667" />
<circle cx="783.47" cy="448.78" r="1.6666666666666667" />
<circle cx="783.69" cy="449.75" r="1.6666666666666667" />
<circle cx="783.90" cy="447.40" r="1.6666666666666667" />
<circle cx="784.11" cy="448.08" r="1.6666666666666667" />
<circle cx="784.32" cy="448.91" r="1.6666666666666667" />
<circle cx="784.53" cy="447.96" r="1.6666666666666667" />
<circle cx="784.74" cy="449.42" r="1.6666666666666667" />
<circle cx="784.96" cy="449.45" r="1.6666666666666667" />
<circle cx="785.19" cy="450.45" r="1.6666666666666667" />
<circle cx="785.41" cy="450.35" r="1.6666666666666667" />
<circle cx="785.62" cy="448.26" r="1.6666666666666667" />
<circle cx="785.83" cy="448.51" r="1.6666666666666667" />
<circle cx="786.05" cy="449.19" r="1.6666666666666667" />
<circle cx="786.27" cy="449.64" r="1.6666666666666667" />
<circle cx="786.48" cy="448.42" r="1.6666666666666667" />
<circle cx="786.70" cy="449.02" r="1.6666666666666667" />
<circle cx="786.92" cy="450.03" r="1.6666666666666667" />
<circle cx="787.13" cy="448.96" r="1.6666666666666667" />
<circle cx="787.35" cy="449.47" r="1.6666666666666667" />
<circle cx="787.57" cy="449.57" r="1.6666666666666667" />
<circle cx="787.79" cy="449.32" r="1.6666666666666667" />
<circle cx="788.00" cy="448.84" r="1.6666666666666667" />
<circle cx="788.21" cy="447.87" r="1.6666666666666667" />
<circle cx="788.42" cy="447.98" r="1.6666666666666667" />
<circle cx="788.63" cy="449.17" r="1.6666666666666667" />
<circle cx="788.86" cy="450.47" r="1.6666666666666667" />
<circle cx="789.07" cy="449.28" r="1.6666666666666667" />
<circle cx="789.29" cy="449.22" r="1.6666666666666667" />
<circle cx="789.51" cy="449.70" r="1.6666666666666667" />
<circle cx="789.73" cy="449.28" r="1.6666666666666667" />
<circle cx="789.94" cy="448.94" r="1.6666666666666667" />
<circle cx="790.15" cy="448.10" r="1.6666666666666667" />
<circle cx="790.36" cy="448.61" r="1.6666666666666667" />
<circle cx="790.59" cy="450.26" r="1.6666666666666667" />
<circle cx="790.81" cy="449.64" r="1.6666666666666667" />
<circle cx="791.03" cy="449.59" r="1.6666666666666667" />
<circle cx="791.25" cy="449.99" r="1.6666666666666667" />
<circle cx="791.47" cy="450.19" r="1.6666666666666667" />
<circle cx="791.70" cy="450.46" r="1.6666666666666667" />
<circle cx="791.92" cy="449.83" r="1.6666666666666667" />
<circle cx="792.15" cy="450.74" r="1.6666666666666667" />
<circle cx="792.36" cy="449.29" r="1.6666666666666667" />
<circle cx="792.57" cy="448.11" r="1.6666666666666667" />
<circle cx="792.79" cy="449.06" r="1.6666666666666667" />
<circle cx="793.00" cy="448.70" r="1.6666666666666667" />
<circle cx="793.22" cy="450.20" r="1.6666666666666667" />
<circle cx="793.44" cy="449.50" r="1.6666666666666667" />
<circle cx="793.66" cy="449.48" r="1.6666666666666667" />
<circle cx="793.90" cy="451.61" r="1.6666666666666667" />
<circle cx="794.12" cy="450.27" r="1.6666666666666667" />
<circle cx="794.34" cy="449.68" r="1.6666666666666667" />
<circle cx="794.57" cy="450.84" r="1.6666666666666667" />
<circle cx="794.80" cy="450.42" r="1.6666666666666667" />
<circle cx="795.02" cy="450.63" r="1.6666666666666667" />
<circle cx="795.25" cy="450.54" r="1.6666666666666667" />
</g>
<g stroke="black">
<line x1="813.75" x2="813.75" y1="510.00" y2="520.00" />
<line x1="760.60" x2="760.60" y1="510.00" y2="520.00" />
<line x1="707.45" x2="707.45" y1="510.00" y2="520.00" />
<line x1="656.01" x2="656.01" y1="510.00" y2="520.00" />
<line x1="602.86" x2="602.86" y1="510.00" y2="520.00" />
<line x1="551.42" x2="551.42" y1="510.00" y2="520.00" />
<line x1="498.27" x2="498.27" y1="510.00" y2="520.00" />
<line x1="445.11" x2="445.11" y1="510.00" y2="520.00" />
<line x1="393.68" x2="393.68" y1="510.00" y2="520.00" />
<line x1="340.52" x2="340.52" y1="510.00" y2="520.00" />
<line x1="289.09" x2="289.09" y1="510.00" y2="520.00" />
<line x1="235.93" x2="235.93" y1="510.00" y2="520.00" />
<line x1="187.92" x2="187.92" y1="510.00" y2="520.00" />
<g fill="black" font-family="Arial, sans-serif" font-size="18.0" stroke="none" text-anchor="start" transform="translate(9.0 0.0)">
<text x="813.75" y="530.57">Feb</text>
<text x="760.60" y="530.57">Jan</text>
<text x="707.45" y="530.57">Dec</text>
<text x="656.01" y="530.57">Nov</text>
<text x="602.86" y="530.57">Oct</text>
<text x="551.42" y="530.57">Sep</text>
<text x="498.27" y="530.57">Aug</text>
<text x="445.11" y="530.57">Jul</text>
<text x="393.68" y="530.57">Jun</text>
<text x="340.52" y="530.57">May</text>
<text x="289.09" y="530.57">Apr</text>
<text x="235.93" y="530.57">Mar</text>
<text x="187.92" y="530.57">Feb</text>
</g>
<line x1="150.00" x2="850.00" y1="510.00" y2="510.00" />
</g>
<g stroke="black">
<line x1="150.00" x2="140.00" y1="510.00" y2="510.00" />
<line x1="150.00" x2="140.00" y1="216.29" y2="216.29" />
<g fill="black" font-family="Arial, sans-serif" font-size="18.0" stroke="none" text-anchor="end">
<text x="141.00" y="501.00">0</text>
<text x="141.00" y="207.29">10</text>
</g>
<line x1="150.00" x2="150.00" y1="510.00" y2="90.00" />
</g>
</g>
</svg>