<?xml version="1.0"?>
<svg version="1.1" viewBox="0 0 1000 600" xmlns:xlink="http://www.w3.org/1999/xlink" xmlns="http://www.w3.org/2000/svg">
<g>
<g stroke-dasharray="3.6 7.2" stroke-width="0.72" stroke="#caa">
<line x1="813.75" x2="813.75" y1="510.00" y2="90.00" />
<line x1="760.60" x2="760.60" y1="510.00" y2="90.00" />
<line x1="707.45" x2="707.45" y1="510.00" y2="90.00" />
<line x1="656.01" x2="656.01" y1="510.00" y2="90.00" />
<line x1="602.86" x2="602.86" y1="510.00" y2="90.00" />
<line x1="551.42" x2="551.42" y1="510.00" y2="90.00" />
<line x1="498.27" x2="498.27" y1="510.00" y2="90.00" />
<line x1="445.11" x2="445.11" y1="510.00" y2="90.00" />
<line x1="393.68" x2="393.68" y1="510.00" y2="90.00" />
<line x1="340.52" x2="340.52" y1="510.00" y2="90.00" />
<line x1="289.09" x2="289.09" y1="510.00" y2="90.00" />
<line x1="235.93" x2="235.93" y1="510.00" y2="90.00" />
<line x1="187.92" x2="187.92" y1="510.00" y2="90.00" />
<line x1="150.00" x2="850.00" y1="510.00" y2="510.00" />
<line x1="150.00" x2="850.00" y1="319.09" y2="319.09" />
<line x1="150.00" x2="850.00" y1="128.18" y2="128.18" />
</g>
<g>
<text dominant-baseline="hanging" dx="-36.0" dy="18.0" fill="#0004" font-family="Arial, sans-serif" font-size="36" stroke="none" text-anchor="end" x="850.00" y="128.18">R01</text>
</g>
<g>
<text dominant-baseline="text-bottom" dy="-12.0" fill="black" font-family="Arial, sans-serif" font-size="18.0" font-style="italic" stroke="none" text-anchor="middle" x="500.00" y="90.00">Years 2023 to 2024</text>
</g>
<g>
<text dominant-baseline="central" dx="12.0" dy="12.0" fill="black" font-family="Arial, sans-serif" font-size="18.0" font-style="italic" stroke="none" text-anchor="middle" text-orientation="sideways" writing-mode="vertical-lr" x="850.00" y="300.00">Drips per day</text>
</g>
<polyline fill="none" points="611.22,365.08 611.56,411.79 611.80,374.41 612.10,402.55 612.33,368.49 612.63,399.00 612.88,380.25 613.17,395.46 613.42,378.25 613.70,396.32 613.96,381.35 614.25,397.80 614.48,370.13 614.81,409.15 615.05,375.97 615.36,401.88 615.62,384.83 615.92,402.43 616.16,373.15 616.44,391.95 616.68,376.98 616.96,392.30 617.22,383.40 617.52,398.94 617.77,383.17 618.10,410.20 618.35,376.00 618.68,411.35 618.96,393.64 619.26,401.96 619.54,393.82 619.85,401.80 620.13,394.62 620.43,399.79 620.75,408.31 621.04,397.94 621.34,401.77 621.63,394.16 621.93,402.79 622.21,392.94 622.49,394.83 622.81,406.86 623.10,396.28 623.40,402.04 623.69,394.51 624.03,415.72 624.31,392.45 624.64,409.97 624.89,381.56 625.23,411.48 625.50,389.13 625.81,404.23 626.06,382.33 626.36,401.25 626.64,391.57 626.96,408.60 627.25,395.76 627.57,408.84 627.82,376.45 628.15,409.81 628.39,374.49 628.71,409.81 628.97,383.19 629.31,414.41 629.58,385.36 629.87,398.87 630.13,383.73 630.43,398.83 630.72,397.65 631.00,396.12 631.26,383.44 631.56,398.13 631.82,388.07 632.11,397.52 632.39,391.44 632.71,406.83 632.97,383.14 633.24,392.28 633.50,381.94 633.80,402.39 634.06,383.45 634.36,398.93 634.60,374.20 634.89,398.51 635.11,362.81 635.40,394.37 635.63,368.27 635.95,408.88 636.20,376.37 636.51,405.24 636.77,385.12 637.07,401.15 637.31,370.38 637.61,401.37 727.76,356.75 727.99,363.50 728.21,361.75 728.43,363.36 728.67,370.29 728.89,361.71 729.11,365.07 729.34,363.39 729.56,367.13 729.80,368.00 730.02,363.56 730.24,363.65 730.47,365.27 730.70,366.69 730.92,363.82 731.14,362.78 731.38,374.48 731.62,368.31 731.84,362.77 732.07,368.55 732.30,370.11 732.53,365.29 732.77,371.03 767.16,354.16 767.36,347.41 767.56,346.69 767.76,346.15 767.96,350.39 768.17,350.82 768.38,350.74 768.58,351.46 768.78,347.84 768.99,354.04 769.20,349.61 769.41,352.61 769.61,349.44 769.81,346.90 770.01,349.75 770.22,347.22 770.41,342.80 770.62,354.29 770.83,351.87 771.04,351.90 771.24,350.54 771.45,356.39 771.67,354.77 771.87,351.32 772.07,346.82 772.26,339.30 772.46,340.09 772.65,337.68 772.84,340.27 773.03,337.41 773.21,333.17 773.40,338.27 773.59,331.29 773.77,329.18 773.96,337.79 774.15,339.48 774.34,336.72 774.53,339.27 774.72,334.92 774.91,340.62 775.10,340.46 775.29,337.10 775.48,334.95 775.68,348.79 775.89,352.97 776.10,351.23 776.30,349.91 776.51,349.41 776.72,355.41 776.93,351.41 777.13,351.46 777.33,348.72 777.54,350.63 777.75,352.28 777.95,352.04 778.17,354.52 778.38,359.05 778.60,357.20 778.80,350.94 779.01,351.67 779.22,356.39 779.43,352.56 779.63,348.48 779.85,357.82 780.06,354.98 780.27,357.72 780.49,358.10 780.70,355.22 780.91,356.08 781.12,355.08 781.34,356.79 781.55,357.02 781.77,358.38 781.99,359.06 782.20,354.35 782.41,357.33 782.62,354.90 782.83,355.51 783.05,359.36 783.26,354.01 783.47,356.49 783.69,361.51 783.90,349.14 784.11,352.79 784.32,357.20 784.53,352.16 784.74,359.80 784.96,359.97 785.19,364.99 785.41,364.51 785.62,353.79 785.83,355.11 786.05,358.62 786.27,360.94 786.48,354.60 786.70,357.78 786.92,362.90 787.13,357.44 787.35,360.09 787.57,360.59 787.79,359.31 788.00,356.85 788.21,351.67 788.42,352.28 788.63,358.52 788.86,365.12 789.07,359.09 789.29,358.81 789.51,361.24 789.73,359.12 789.94,357.37 790.15,352.94 790.36,355.63 790.59,364.07 790.81,360.96 791.03,360.71 791.25,362.73 791.47,363.73 791.70,365.07 791.92,361.91 792.15,366.42 792.36,359.17 792.57,353.00 792.79,357.99 793.00,356.12 793.22,363.76 793.44,360.25 793.66,360.10 793.90,370.63 794.12,364.12 794.34,361.13 794.57,366.91 794.80,364.84 795.02,365.89 795.25,365.45" stroke-dasharray="3.6 3.6" stroke-width="3.6" stroke="#aaa" />
<g>
<circle cx="611.22" cy="365.08" r="1.6666666666666667" />
<circle cx="611.56" cy="411.79" r="1.6666666666666667" />
<circle cx="611.80" cy="374.41" r="1.6666666666666667" />
<circle cx="612.10" cy="402.55" r="1.6666666666666667" />
<circle cx="612.33" cy="368.49" r="1.6666666666666667" />
<circle cx="612.63" cy="399.00" r="1.6666666666666667" />
<circle cx="612.88" cy="380.25" r="1.6666666666666667" />
<circle cx="613.17" cy="395.46" r="1.6666666666666667" />
<circle cx="613.42" cy="378.25" r="1.6666666666666667" />
<circle cx="613.70" cy="396.32" r="1.6666666666666667" />
<circle cx="613.96" cy="381.35" r="1.6666666666666667" />
<circle cx="614.25" cy="397.80" r="1.6666666666666667" />
<circle cx="614.48" cy="370.13" r="1.6666666666666667" />
<circle cx="614.81" cy="409.15" r="1.6666666666666667" />
<circle cx="615.05" cy="375.97" r="1.6666666666666667" />
<circle cx="615.36" cy="401.88" r="1.6666666666666667" />
<circle cx="615.62" cy="384.83" r="1.6666666666666667" />
<circle cx="615.92" cy="402.43" r="1.6666666666666667" />
<circle cx="616.16" cy="373.15" r="1.6666666666666667" />
<circle cx="616.44" cy="391.95" r="1.6666666666666667" />
<circle cx="616.68" cy="376.98" r="1.6666666666666667" />
<circle cx="616.96" cy="392.30" r="1.6666666666666667" />
<circle cx="617.22" cy="383.40" r="1.6666666666666667" />
<circle cx="617.52" cy="398.94" r="1.6666666666666667" />
<circle cx="617.77" cy="383.17" r="1.6666666666666667" />
<circle cx="618.10" cy="410.20" r="1.6666666666666667" />
<circle cx="618.35" cy="376.00" r="1.6666666666666667" />
<circle cx="618.68" cy="411.35" r="1.6666666666666667" />
<circle cx="618.96" cy="393.64" r="1.6666666666666667" />
<circle cx="619.26" cy="401.96" r="1.6666666666666667" />
<circle cx="619.54" cy="393.82" r="1.6666666666666667" />
<circle cx="619.85" cy="401.80" r="1.6666666666666667" />
<circle cx="620.13" cy="394.62" r="1.6666666666666667" />
<circle cx="620.43" cy="399.79" r="1.6666666666666667" />
<circle cx="620.75" cy="408.31" r="1.6666666666666667" />
<circle cx="621.04" cy="397.94" r="1.6666666666666667" />
<circle cx="621.34" cy="401.77" r="1.6666666666666667" />
<circle cx="621.63" cy="394.16" r="1.6666666666666667" />
<circle cx="621.93" cy="402.79" r="1.6666666666666667" />
<circle cx="622.21" cy="392.94" r="1.6666666666666667" />
<circle cx="622.49" cy="394.83" r="1.6666666666666667" />
<circle cx="622.81" cy="406.86" r="1.6666666666666667" />
<circle cx="623.10" cy="396.28" r="1.6666666666666667" />
<circle cx="623.40" cy="402.04" r="1.6666666666666667" />
<circle cx="623.69" cy="394.51" r="1.6666666666666667" />
<circle cx="624.03" cy="415.72" r="1.6666666666666667" />
<circle cx="624.31" cy="392.45" r="1.6666666666666667" />
<circle cx="624.64" cy="409.97" r="1.6666666666666667" />
<circle cx="624.89" cy="381.56" r="1.6666666666666667" />
<circle cx="625.23" cy="411.48" r="1.6666666666666667" />
<circle cx="625.50" cy="389.13" r="1.6666666666666667" />
<circle cx="625.81" cy="404.23" r="1.6666666666666667" />
<circle cx="626.06" cy="382.33" r="1.6666666666666667" />
<circle cx="626.36" cy="401.25" r="1.6666666666666667" />
<circle cx="626.64" cy="391.57" r="1.6666666666666667" />
<circle cx="626.96" cy="408.60" r="1.6666666666666667" />
<circle cx="627.25" cy="395.76" r="1.6666666666666667" />
<circle cx="627.57" cy="408.84" r="1.6666666666666667" />
<circle cx="627.82" cy="376.45" r="1.6666666666666667" />
<circle cx="628.15" cy="409.81" r="1.6666666666666667" />
<circle cx="628.39" cy="374.49" r="1.6666666666666667" />
<circle cx="628.71" cy="409.81" r="1.6666666666666667" />
<circle cx="628.97" cy="383.19" r="1.6666666666666667" />
<circle cx="629.31" cy="414.41" r="1.6666666666666667" />
<circle cx="629.58" cy="385.36" r="1.6666666666666667" />
<circle cx="629.87" cy="398.87" r="1.6666666666666667" />
<circle cx="630.13" cy="383.73" r="1.6666666666666667" />
<circle cx="630.43" cy="398.83" r="1.6666666666666667" />
<circle cx="630.72" cy="397.65" r="1.6666666666666667" />
<circle cx="631.00" cy="396.12" r="1.6666666666666667" />
<circle cx="631.26" cy="383.44" r="1.6666666666666667" />
<circle cx="631.56" cy="398.13" r="1.6666666666666667" />
<circle cx="631.82" cy="388.07" r="1.6666666666666667" />
<circle cx="632.11" cy="397.52" r="1.6666666666666667" />
<circle cx="632.39" cy="391.44" r="1.6666666666666667" />
<circle cx="632.71" cy="406.83" r="1.6666666666666667" />
<circle cx="632.97" cy="383.14" r="1.6666666666666667" />
<circle cx="633.24" cy="392.28" r="1.6666666666666667" />
<circle cx="633.50" cy="381.94" r="1.6666666666666667" />
<circle cx="633.80" cy="402.39" r="1.6666666666666667" />
<circle cx="634.06" cy="383.45" r="1.6666666666666667" />
<circle cx="634.36" cy="398.93" r="1.6666666666666667" />
<circle cx="634.60" cy="374.20" r="1.6666666666666667" />
<circle cx="634.89" cy="398.51" r="1.6666666666666667" />
<circle cx="635.11" cy="362.81" r="1.6666666666666667" />
<circle cx="635.40" cy="394.37" r="1.6666666666666667" />
<circle cx="635.63" cy="368.27" r="1.6666666666666667" />
<circle cx="635.95" cy="408.88" r="1.6666666666666667" />
<circle cx="636.20" cy="376.37" r="1.6666666666666667" />
<circle cx="636.51" cy="405.24" r="1.6666666666666667" />
<circle cx="636.77" cy="385.12" r="1.6666666666666667" />
<circle cx="637.07" cy="401.15" r="1.6666666666666667" />
<circle cx="637.31" cy="370.38" r="1.6666666666666667" />
<circle cx="637.61" cy="401.37" r="1.6666666666666667" />
<circle cx="727.76" cy="356.75" r="1.6666666666666667" />
<circle cx="727.99" cy="363.50" r="1.6666666666666667" />
<circle cx="728.21" cy="361.75" r="1.6666666666666667" />
<circle cx="728.43" cy="363.36" r="1.6666666666666667" />
<circle cx="728.67" cy="370.29" r="1.6666666666666667" />
<circle cx="728.89" cy="361.71" r="1.6666666666666667" />
<circle cx="729.11" cy="365.07" r="1.6666666666666667" />
<circle cx="729.34" cy="363.39" r="1.6666666666666667" />
<circle cx="729.56" cy="367.13" r="1.6666666666666667" />
<circle cx="729.80" cy="368.00" r="1.6666666666666667" />
<circle cx="730.02" cy="363.56" r="1.6666666666666667" />
<circle cx="730.24" cy="363.65" r="1.6666666666666667" />
<circle cx="730.47" cy="365.27" r="1.6666666666666667" />
<circle cx="730.70" cy="366.69" r="1.6666666666666667" />
<circle cx="730.92" cy="363.82" r="1.6666666666666667" />
<circle cx="731.14" cy="362.78" r="1.6666666666666667" />
<circle cx="731.38" cy="374.48" r="1.6666666666666667" />
<circle cx="731.62" cy="368.31" r="1.6666666666666667" />
<circle cx="731.84" cy="362.77" r="1.6666666666666667" />
<circle cx="732.07" cy="368.55" r="1.6666666666666667" />
<circle cx="732.30" cy="370.11" r="1.6666666666666667" />
<circle cx="732.53" cy="365.29" r="1.6666666666666667" />
<circle cx="732.77" cy="371.03" r="1.6666666666666667" />
<circle cx="767.16" cy="354.16" r="1.6666666666666667" />
<circle cx="767.36" cy="347.41" r="1.6666666666666667" />
<circle cx="767.56" cy="346.69" r="1.6666666666666667" />
<circle cx="767.76" cy="346.15" r="1.6666666666666667" />
<circle cx="767.96" cy="350.39" r="1.6666666666666667" />
<circle cx="768.17" cy="350.82" r="1.6666666666666667" />
<circle cx="768.38" cy="350.74" r="1.6666666666666667" />
<circle cx="768.58" cy="351.46" r="1.6666666666666667" />
<circle cx="768.78" cy="347.84" r="1.6666666666666667" />
<circle cx="768.99" cy="354.04" r="1.6666666666666667" />
<circle cx="769.20" cy="349.61" r="1.6666666666666667" />
<circle cx="769.41" cy="352.61" r="1.6666666666666667" />
<circle cx="769.61" cy="349.44" r="1.6666666666666667" />
<circle cx="769.81" cy="346.90" r="1.6666666666666667" />
<circle cx="770.01" cy="349.75" r="1.6666666666666667" />
<circle cx="770.22" cy="347.22" r="1.6666666666666667" />
<circle cx="770.41" cy="342.80" r="1.6666666666666667" />
<circle cx="770.62" cy="354.29" r="1.6666666666666667" />
<circle cx="770.83" cy="351.87" r="1.6666666666666667" />
<circle cx="771.04" cy="351.90" r="1.6666666666666667" />
<circle cx="771.24" cy="350.54" r="1.6666666666666667" />
<circle cx="771.45" cy="356.39" r="1.6666666666666667" />
<circle cx="771.67" cy="354.77" r="1.6666666666666667" />
<circle cx="771.87" cy="351.32" r="1.6666666666666667" />
<circle cx="772.07" cy="346.82" r="1.6666666666666667" />
<circle cx="772.26" cy="339.30" r="1.6666666666666667" />
<circle cx="772.46" cy="340.09" r="1.6666666666666667" />
<circle cx="772.65" cy="337.68" r="1.6666666666666667" />
<circle cx="772.84" cy="340.27" r="1.6666666666666667" />
<circle cx="773.03" cy="337.41" r="1.6666666666666667" />
<circle cx="773.21" cy="333.17" r="1.6666666666666667" />
<circle cx="773.40" cy="338.27" r="1.6666666666666667" />
<circle cx="773.59" cy="331.29" r="1.6666666666666667" />
<circle cx="773.77" cy="329.18" r="1.6666666666666667" />
<circle cx="773.96" cy="337.79" r="1.6666666666666667" />
<circle cx="774.15" cy="339.48" r="1.6666666666666667" />
<circle cx="774.34" cy="336.72" r="1.6666666666666667" />
<circle cx="774.53" cy="339.27" r="1.6666666666666667" />
<circle cx="774.72" cy="334.92" r="1.6666666666666667" />
<circle cx="774.91" cy="340.62" r="1.6666666666666667" />
<circle cx="775.10" cy="340.46" r="1.6666666666666667" />
<circle cx="775.29" cy="337.10" r="1.6666666666666667" />
<circle cx="775.48" cy="334.95" r="1.6666666666666667" />
<circle cx="775.68" cy="348.79" r="1.6666666666666667" />
<circle cx="775.89" cy="352.97" r="1.6666666666666667" />
<circle cx="776.10" cy="351.23" r="1.6666666666666667" />
<circle cx="776.30" cy="349.91" r="1.6666666666666667" />
<circle cx="776.51" cy="349.41" r="1.6666666666666667" />
<circle cx="776.72" cy="355.41" r="1.6666666666666667" />
<circle cx="776.93" cy="351.41" r="1.6666666666666667" />
<circle cx="777.13" cy="351.46" r="1.6666666666666667" />
<circle cx="777.33" cy="348.72" r="1.6666666666666667" />
<circle cx="777.54" cy="350.63" r="1.6666666666666667" />
<circle cx="777.75" cy="352.28" r="1.6666666666666667" />
<circle cx="777.95" cy="352.04" r="1.6666666666666667" />
<circle cx="778.17" cy="354.52" r="1.6666666666666667" />
<circle cx="778.38" cy="359.05" r="1.6666666666666667" />
<circle cx="778.60" cy="357.20" r="1.6666666666666667" />
<circle cx="778.80" cy="350.94" r="1.6666666666666667" />
<circle cx="779.01" cy="351.67" r="1.6666666666666667" />
<circle cx="779.22" cy="356.39" r="1.6666666666666667" />
<circle cx="779.43" cy="352.56" r="1.6666666666666667" />
<circle cx="779.63" cy="348.48" r="1.6666666666666667" />
<circle cx="779.85" cy="357.82" r="1.6666666666666667" />
<circle cx="780.06" cy="354.98" r="1.6666666666666667" />
<circle cx="780.27" cy="357.72" r="1.6666666666666667" />
<circle cx="780.49" cy="358.10" r="1.6666666666666667" />
<circle cx="780.70" cy="355.22" r="1.6666666666666667" />
<circle cx="780.91" cy="356.08" r="1.6666666666666667" />
<circle cx="781.12" cy="355.08" r="1.6666666666666667" />
<circle cx="781.34" cy="356.79" r="1.6666666666666667" />
<circle cx="781.55" cy="357.02" r="1.6666666666666667" />
<circle cx="781.77" cy="358.38" r="1.6666666666666667" />
<circle cx="781.99" cy="359.06" r="1.6666666666666667" />
<circle cx="782.20" cy="354.35" r="1.6666666666666667" />
<circle cx="782.41" cy="357.33" r="1.6666666666666667" />
<circle cx="782.62" cy="354.90" r="1.6666666666666667" />
<circle cx="782.83" cy="355.51" r="1.6666666666666667" />
<circle cx="783.05" cy="359.36" r="1.6666666666666667" />
<circle cx="783.26" cy="354.01" r="1.6666666666666667" />
<circle cx="783.47" cy="356.49" r="1.6666666666666667" />
<circle cx="783.69" cy="361.51" r="1.6666666666666667" />
<circle cx="783.90" cy="349.14" r="1.6666666666666667" />
<circle cx="784.11" cy="352.79" r="1.6666666666666667" />
<circle cx="784.32" cy="357.20" r="1.6666666666666667" />
<circle cx="784.53" cy="352.16" r="1.6666666666666667" />
<circle cx="784.74" cy="359.80" r="1.6666666666666667" />
<circle cx="784.96" cy="359.97" r="1.6666666666666667" />
<circle cx="785.19" cy="364.99" r="1.6666666666666667" />
<circle cx="785.41" cy="364.51" r="1.6666666666666667" />
<circle cx="785.62" cy="353.79" r="1.6666666666666667" />
<circle cx="785.83" cy="355.11" r="1.6666666666666667" />
<circle cx="786.05" cy="358.62" r="1.6666666666666667" />
<circle cx="786.27" cy="360.94" r="1.6666666666666667" />
<circle cx="786.48" cy="354.60" r="1.6666666666666667" />
<circle cx="786.70" cy="357.78" r="1.6666666666666667" />
<circle cx="786.92" cy="362.90" r="1.6666666666666667" />
<circle cx="787.13" cy="357.44" r="1.6666666666666667" />
<circle cx="787.35" cy="360.09" r="1.6666666666666667" />
<circle cx="787.57" cy="360.59" r="1.6666666666666667" />
<circle cx="787.79" cy="359.31" r="1.6666666666666667" />
<circle cx="788.00" cy="356.85" r="1.6666666666666667" />
<circle cx="788.21" cy="351.67" r="1.6666666666666667" />
<circle cx="788.42" cy="352.28" r="1.6666666666666667" />
<circle cx="788.63" cy="358.52" r="1.6666666666666667" />
<circle cx="788.86" cy="365.12" r="1.6666666666666667" />
<circle cx="789.07" cy="359.09" r="1.6666666666666667" />
<circle cx="789.29" cy="358.81" r="1.6666666666666667" />
<circle cx="789.51" cy="361.24" r="1.6666666666666667" />
<circle cx="789.73" cy="359.12" r="1.6666666666666667" />
<circle cx="789.94" cy="357.37" r="1.6666666666666667" />
<circle cx="790.15" cy="352.94" r="1.6666666666666667" />
<circle cx="790.36" cy="355.63" r="1.6666666666666667" />
<circle cx="790.59" cy="364.07" r="1.6666666666666667" />
<circle cx="790.81" cy="360.96" r="1.6666666666666667" />
<circle cx="791.03" cy="360.71" r="1.6666666666666667" />
<circle cx="791.25" cy="362.73" r="1.6666666666666667" />
<circle cx="791.47" cy="363.73" r="1.6666666666666667" />
<circle cx="791.70" cy="365.07" r="1.6666666666666667" />
<circle cx="791.92" cy="361.91" r="1.6666666666666667" />
<circle cx="792.15" cy="366.42" r="1.6666666666666667" />
<circle cx="792.36" cy="359.17" r="1.6666666666666667" />
<circle cx="792.57" cy="353.00" r="1.6666666666666667" />
<circle cx="792.79" cy="357.99" r="1.6666666666666667" />
<circle cx="793.00" cy="356.12" r="1.6666666666666667" />
<circle cx="793.22" cy="363.76" r="1.6666666666666667" />
<circle cx="793.44" cy="360.25" r="1.6666666666666667" />
<circle cx="793.66" cy="360.10" r="1.6666666666666667" />
<circle cx="793.90" cy="370.63" r="1.6666666666666667" />
<circle cx="794.12" cy="364.12" r="1.6666666666666667" />
<circle cx="794.34" cy="361.13" r="1.6666666666666667" />
<circle cx="794.57" cy="366.91" r="1.6666666666666667" />
<circle cx="794.80" cy="364.84" r="1.6666666666666667" />
<circle cx="795.02" cy="365.89" r="1.6666666666666667" />
<circle cx="795.25" cy="365.45" r="1.6666666666666667" />
</g>
<g stroke="black">
<line x1="813.75" x2="813.75" y1="510.00" y2="520.00" />
<line x1="760.60" x2="760.60" y1="510.00" y2="520.00" />
<line x1="707.45" x2="707.45" y1="510.00" y2="520.00" />
<line x1="656.01" x2="656.01" y1="510.00" y2="520.00" />
<line x1="602.86" x2="602.86" y1="510.00" y2="520.00" />
<line x1="551.42" x2="551.42" y1="510.00" y2="520.00" />
<line x1="498.27" x2="498.27" y1="510.00" y2="520.00" />
<line x1="445.11" x2="445.11" y1="510.00" y2="520.00" />
<line x1="393.68" x2="393.68" y1="510.00" y2="520.00" />
<line x1="340.52" x2="340.52" y1="510.00" y2="520.00" />
<line x1="289.09" x2="289.09" y1="510.00" y2="520.00" />
<line x1="235.93" x2="235.93" y1="510.00" y2="520.00" />
<line x1="187.92" x2="187.92" y1="510.00" y2="520.00" />
<g fill="black" font-family="Arial, sans-serif" font-size="18.0" stroke="none" text-anchor="start" transform="translate(9.0 0.0)">
<text x="813.75" y="530.57">Feb</text>
<text x="760.60" y="530.57">Jan</text>
<text x="707.45" y="530.57">Dec</text>
<text x="656.01" y="530.57">Nov</text>
<text x="602.86" y="530.57">Oct</text>
<text x="551.42" y="530.57">Sep</text>
<text x="498.27" y="530.57">Aug</text>
<text x="445.11" y="530.57">Jul</text>
<text x="393.68" y="530.57">Jun</text>
<text x="340.52" y="530.57">May</text>
<text x="289.09" y="530.57">Apr</text>
<text x="235.93" y="530.57">Mar</text>
<text x="187.92" y="530.57">Feb</text>
</g>
<line x1="150.00" x2="850.00" y1="510.00" y2="510.00" />
</g>
<g stroke="black">
<line x1="150.00" x2="140.00" y1="510.00" y2="510.00" />
<line x1="150.00" x2="140.00" y1="319.09" y2="319.09" />
<line x1="150.00" x2="140.00" y1="128.18" y2="128.18" />
<g fill="black" font-family="Arial, sans-serif" font-size="18.0" stroke="none" text-anchor="end">
<text x="141.00" y="501.00">0</text>
<text x="141.00" y="310.09">10</text>
<text x="141.00" y="119.18">20</text>
</g>
<line x1="150.00" x2="150.00" y1="510.00" y2="90.00" />
</g>
</g>
</svg>