<?xml version="1.0"?>
<svg version="1.1" viewBox="0 0 1000 600" xmlns:xlink="http://www.w3.org/1999/xlink" xmlns="http://www.w3.org/2000/svg">
<g>
<g stroke-dasharray="3.6 7.2" stroke-width="0.72" stroke="#caa">
<line x1="186.63" x2="186.63" y1="510.00" y2="90.00" />
<line x1="262.12" x2="262.12" y1="510.00" y2="90.00" />
<line x1="337.60" x2="337.60" y1="510.00" y2="90.00" />
<line x1="413.09" x2="413.09" y1="510.00" y2="90.00" />
<line x1="488.58" x2="488.58" y1="510.00" y2="90.00" />
<line x1="564.06" x2="564.06" y1="510.00" y2="90.00" />
<line x1="639.55" x2="639.55" y1="510.00" y2="90.00" />
<line x1="715.04" x2="715.04" y1="510.00" y2="90.00" />
<line x1="790.52" x2="790.52" y1="510.00" y2="90.00" />
<line x1="150.00" x2="850.00" y1="470.23" y2="470.23" />
<line x1="150.00" x2="850.00" y1="393.03" y2="393.03" />
<line x1="150.00" x2="850.00" y1="315.82" y2="315.82" />
<line x1="150.00" x2="850.00" y1="238.62" y2="238.62" />
<line x1="150.00" x2="850.00" y1="161.41" y2="161.41" />
</g>
<g>
<text dominant-baseline="hanging" dx="-36.0" dy="18.0" fill="#0004" font-family="Arial, sans-serif" font-size="36" stroke="none" text-anchor="end" x="850.00" y="125.00">R01</text>
</g>
<g>
<text dominant-baseline="text-bottom" dy="-12.0" fill="black" font-family="Arial, sans-serif" font-size="18.0" font-style="italic" stroke="none" text-anchor="middle" x="500.00" y="90.00">Days since start</text>
</g>
<g>
<text dominant-baseline="central" dx="12.0" dy="12.0" fill="black" font-family="Arial, sans-serif" font-size="18.0" font-style="italic" stroke="none" text-anchor="middle" text-orientation="sideways" writing-mode="vertical-lr" x="850.00" y="300.00">Drips per day</text>
</g>
<polyline fill="none" points="150.00,270.20 151.27,459.11 152.19,307.92 153.34,421.73 154.22,283.98 155.35,407.37 156.31,331.56 157.39,393.06 158.34,323.47 159.43,396.51 160.40,335.98 161.51,402.51 162.40,290.62 163.64,448.43 164.57,314.25 165.72,419.02 166.71,350.07 167.87,421.24 168.78,302.83 169.83,378.87 170.77,318.31 171.83,380.27 172.81,344.28 173.93,407.13 174.91,343.34 176.16,452.67 177.09,314.34 178.35,457.30 179.42,385.68 180.58,419.34 181.65,386.40 182.80,418.68 183.88,389.66 185.01,410.58 186.23,445.03 187.34,403.07 188.49,418.56 189.57,387.79 190.73,422.69 191.79,382.87 192.87,390.51 194.08,439.17 195.18,396.38 196.33,419.68 197.41,389.20 198.73,475.00 199.79,380.88 201.03,451.74 202.00,336.83 203.27,457.83 204.30,367.47 205.47,428.52 206.45,339.96 207.59,416.45 208.64,377.33 209.87,446.19 210.96,394.25 212.19,447.15 213.13,316.18 214.37,451.10 215.29,308.24 216.53,451.08 217.51,343.42 218.81,469.67 219.81,352.21 220.93,406.85 221.92,345.62 223.04,406.67 224.15,401.93 225.24,395.71 226.23,344.44 227.34,403.84 228.36,363.17 229.47,401.37 230.52,376.78 231.72,439.04 232.70,343.22 233.76,380.20 234.73,338.36 235.89,421.07 236.88,344.48 238.00,407.10 238.91,307.06 240.03,405.37 240.88,260.99 241.95,388.64 242.83,283.09 244.06,447.33 244.99,315.83 246.18,432.60 247.18,351.22 248.32,416.05 249.22,291.63 250.36,416.95 593.30,236.49 594.15,263.80 594.99,256.71 595.84,263.22 596.73,291.25 597.57,256.55 598.43,270.15 599.28,263.38 600.15,278.47 601.03,282.01 601.88,264.06 602.73,264.43 603.59,270.97 604.46,276.72 605.31,265.11 606.15,260.89 607.07,308.19 607.95,283.24 608.80,260.83 609.68,284.22 610.57,290.53 611.43,271.02 612.32,294.25 743.15,226.01 743.91,198.74 744.68,195.81 745.44,193.64 746.22,210.76 747.00,212.51 747.78,212.20 748.57,215.11 749.33,200.48 750.13,225.53 750.91,207.63 751.70,219.76 752.47,206.93 753.24,196.66 754.01,208.19 754.78,197.96 755.52,180.08 756.32,226.55 757.11,216.77 757.90,216.89 758.68,211.39 759.49,235.05 760.29,228.50 761.08,214.55 761.84,196.33 762.57,165.94 763.30,169.14 764.02,159.38 764.76,169.85 765.48,158.28 766.18,141.15 766.91,161.77 767.61,133.56 768.29,125.00 769.02,159.81 769.75,166.65 770.47,155.50 771.20,165.80 771.91,148.21 772.64,171.26 773.38,170.62 774.10,157.04 774.81,148.36 775.58,204.33 776.37,221.21 777.16,214.18 777.93,208.82 778.71,206.81 779.52,231.09 780.30,214.92 781.09,215.11 781.86,204.01 782.64,211.76 783.43,218.42 784.22,217.44 785.02,227.50 785.84,245.80 786.66,238.33 787.44,213.01 788.23,215.97 789.04,235.05 789.83,219.57 790.60,203.05 791.42,240.84 792.22,229.33 793.04,240.44 793.86,241.97 794.66,230.33 795.47,233.78 796.27,229.74 797.09,236.67 797.90,237.59 798.72,243.10 799.55,245.85 800.35,226.78 801.16,238.85 801.97,229.03 802.77,231.50 803.60,247.08 804.40,225.42 805.21,235.46 806.05,255.74 806.82,205.73 807.61,220.49 808.43,238.33 809.22,217.93 810.05,248.85 810.88,249.52 811.73,269.84 812.59,267.87 813.39,224.52 814.19,229.86 815.01,244.06 815.85,253.46 816.65,227.79 817.47,240.67 818.31,261.37 819.13,239.30 819.96,250.01 820.79,252.04 821.62,246.85 822.43,236.90 823.22,215.97 824.01,218.42 824.83,243.66 825.69,270.35 826.52,245.96 827.34,244.84 828.18,254.66 829.00,246.07 829.82,239.02 830.61,221.09 831.42,231.97 832.27,266.10 833.11,253.52 833.94,252.54 834.78,260.68 835.64,264.74 836.49,270.15 837.34,257.36 838.20,275.61 839.03,246.30 839.82,221.33 840.64,241.52 841.45,233.95 842.30,264.85 843.13,250.67 843.96,250.07 844.86,292.63 845.71,266.31 846.55,254.23 847.42,277.57 848.27,269.22 849.14,273.48 850.00,271.69" stroke-dasharray="3.6 3.6" stroke-width="3.6" stroke="#aaa" />
<g>
<circle cx="150.00" cy="270.20" r="1.6666666666666667" />
<circle cx="151.27" cy="459.11" r="1.6666666666666667" />
<circle cx="152.19" cy="307.92" r="1.6666666666666667" />
<circle cx="153.34" cy="421.73" r="1.6666666666666667" />
<circle cx="154.22" cy="283.98" r="1.6666666666666667" />
<circle cx="155.35" cy="407.37" r="1.6666666666666667" />
<circle cx="156.31" cy="331.56" r="1.6666666666666667" />
<circle cx="157.39" cy="393.06" r="1.6666666666666667" />
<circle cx="158.34" cy="323.47" r="1.6666666666666667" />
<circle cx="159.43" cy="396.51" r="1.6666666666666667" />
<circle cx="160.40" cy="335.98" r="1.6666666666666667" />
<circle cx="161.51" cy="402.51" r="1.6666666666666667" />
<circle cx="162.40" cy="290.62" r="1.6666666666666667" />
<circle cx="163.64" cy="448.43" r="1.6666666666666667" />
<circle cx="164.57" cy="314.25" r="1.6666666666666667" />
<circle cx="165.72" cy="419.02" r="1.6666666666666667" />
<circle cx="166.71" cy="350.07" r="1.6666666666666667" />
<circle cx="167.87" cy="421.24" r="1.6666666666666667" />
<circle cx="168.78" cy="302.83" r="1.6666666666666667" />
<circle cx="169.83" cy="378.87" r="1.6666666666666667" />
<circle cx="170.77" cy="318.31" r="1.6666666666666667" />
<circle cx="171.83" cy="380.27" r="1.6666666666666667" />
<circle cx="172.81" cy="344.28" r="1.6666666666666667" />
<circle cx="173.93" cy="407.13" r="1.6666666666666667" />
<circle cx="174.91" cy="343.34" r="1.6666666666666667" />
<circle cx="176.16" cy="452.67" r="1.6666666666666667" />
<circle cx="177.09" cy="314.34" r="1.6666666666666667" />
<circle cx="178.35" cy="457.30" r="1.6666666666666667" />
<circle cx="179.42" cy="385.68" r="1.6666666666666667" />
<circle cx="180.58" cy="419.34" r="1.6666666666666667" />
<circle cx="181.65" cy="386.40" r="1.6666666666666667" />
<circle cx="182.80" cy="418.68" r="1.6666666666666667" />
<circle cx="183.88" cy="389.66" r="1.6666666666666667" />
<circle cx="185.01" cy="410.58" r="1.6666666666666667" />
<circle cx="186.23" cy="445.03" r="1.6666666666666667" />
<circle cx="187.34" cy="403.07" r="1.6666666666666667" />
<circle cx="188.49" cy="418.56" r="1.6666666666666667" />
<circle cx="189.57" cy="387.79" r="1.6666666666666667" />
<circle cx="190.73" cy="422.69" r="1.6666666666666667" />
<circle cx="191.79" cy="382.87" r="1.6666666666666667" />
<circle cx="192.87" cy="390.51" r="1.6666666666666667" />
<circle cx="194.08" cy="439.17" r="1.6666666666666667" />
<circle cx="195.18" cy="396.38" r="1.6666666666666667" />
<circle cx="196.33" cy="419.68" r="1.6666666666666667" />
<circle cx="197.41" cy="389.20" r="1.6666666666666667" />
<circle cx="198.73" cy="475.00" r="1.6666666666666667" />
<circle cx="199.79" cy="380.88" r="1.6666666666666667" />
<circle cx="201.03" cy="451.74" r="1.6666666666666667" />
<circle cx="202.00" cy="336.83" r="1.6666666666666667" />
<circle cx="203.27" cy="457.83" r="1.6666666666666667" />
<circle cx="204.30" cy="367.47" r="1.6666666666666667" />
<circle cx="205.47" cy="428.52" r="1.6666666666666667" />
<circle cx="206.45" cy="339.96" r="1.6666666666666667" />
<circle cx="207.59" cy="416.45" r="1.6666666666666667" />
<circle cx="208.64" cy="377.33" r="1.6666666666666667" />
<circle cx="209.87" cy="446.19" r="1.6666666666666667" />
<circle cx="210.96" cy="394.25" r="1.6666666666666667" />
<circle cx="212.19" cy="447.15" r="1.6666666666666667" />
<circle cx="213.13" cy="316.18" r="1.6666666666666667" />
<circle cx="214.37" cy="451.10" r="1.6666666666666667" />
<circle cx="215.29" cy="308.24" r="1.6666666666666667" />
<circle cx="216.53" cy="451.08" r="1.6666666666666667" />
<circle cx="217.51" cy="343.42" r="1.6666666666666667" />
<circle cx="218.81" cy="469.67" r="1.6666666666666667" />
<circle cx="219.81" cy="352.21" r="1.6666666666666667" />
<circle cx="220.93" cy="406.85" r="1.6666666666666667" />
<circle cx="221.92" cy="345.62" r="1.6666666666666667" />
<circle cx="223.04" cy="406.67" r="1.6666666666666667" />
<circle cx="224.15" cy="401.93" r="1.6666666666666667" />
<circle cx="225.24" cy="395.71" r="1.6666666666666667" />
<circle cx="226.23" cy="344.44" r="1.6666666666666667" />
<circle cx="227.34" cy="403.84" r="1.6666666666666667" />
<circle cx="228.36" cy="363.17" r="1.6666666666666667" />
<circle cx="229.47" cy="401.37" r="1.6666666666666667" />
<circle cx="230.52" cy="376.78" r="1.6666666666666667" />
<circle cx="231.72" cy="439.04" r="1.6666666666666667" />
<circle cx="232.70" cy="343.22" r="1.6666666666666667" />
<circle cx="233.76" cy="380.20" r="1.6666666666666667" />
<circle cx="234.73" cy="338.36" r="1.6666666666666667" />
<circle cx="235.89" cy="421.07" r="1.6666666666666667" />
<circle cx="236.88" cy="344.48" r="1.6666666666666667" />
<circle cx="238.00" cy="407.10" r="1.6666666666666667" />
<circle cx="238.91" cy="307.06" r="1.6666666666666667" />
<circle cx="240.03" cy="405.37" r="1.6666666666666667" />
<circle cx="240.88" cy="260.99" r="1.6666666666666667" />
<circle cx="241.95" cy="388.64" r="1.6666666666666667" />
<circle cx="242.83" cy="283.09" r="1.6666666666666667" />
<circle cx="244.06" cy="447.33" r="1.6666666666666667" />
<circle cx="244.99" cy="315.83" r="1.6666666666666667" />
<circle cx="246.18" cy="432.60" r="1.6666666666666667" />
<circle cx="247.18" cy="351.22" r="1.6666666666666667" />
<circle cx="248.32" cy="416.05" r="1.6666666666666667" />
<circle cx="249.22" cy="291.63" r="1.6666666666666667" />
<circle cx="250.36" cy="416.95" r="1.6666666666666667" />
<circle cx="593.30" cy="236.49" r="1.6666666666666667" />
<circle cx="594.15" cy="263.80" r="1.6666666666666667" />
<circle cx="594.99" cy="256.71" r="1.6666666666666667" />
<circle cx="595.84" cy="263.22" r="1.6666666666666667" />
<circle cx="596.73" cy="291.25" r="1.6666666666666667" />
<circle cx="597.57" cy="256.55" r="1.6666666666666667" />
<circle cx="598.43" cy="270.15" r="1.6666666666666667" />
<circle cx="599.28" cy="263.38" r="1.6666666666666667" />
<circle cx="600.15" cy="278.47" r="1.6666666666666667" />
<circle cx="601.03" cy="282.01" r="1.6666666666666667" />
<circle cx="601.88" cy="264.06" r="1.6666666666666667" />
<circle cx="602.73" cy="264.43" r="1.6666666666666667" />
<circle cx="603.59" cy="270.97" r="1.6666666666666667" />
<circle cx="604.46" cy="276.72" r="1.6666666666666667" />
<circle cx="605.31" cy="265.11" r="1.6666666666666667" />
<circle cx="606.15" cy="260.89" r="1.6666666666666667" />
<circle cx="607.07" cy="308.19" r="1.6666666666666667" />
<circle cx="607.95" cy="283.24" r="1.6666666666666667" />
<circle cx="608.80" cy="260.83" r="1.6666666666666667" />
<circle cx="609.68" cy="284.22" r="1.6666666666666667" />
<circle cx="610.57" cy="290.53" r="1.6666666666666667" />
<circle cx="611.43" cy="271.02" r="1.6666666666666667" />
<circle cx="612.32" cy="294.25" r="1.6666666666666667" />
<circle cx="743.15" cy="226.01" r="1.6666666666666667" />
<circle cx="743.91" cy="198.74" r="1.6666666666666667" />
<circle cx="744.68" cy="195.81" r="1.6666666666666667" />
<circle cx="745.44" cy="193.64" r="1.6666666666666667" />
<circle cx="746.22" cy="210.76" r="1.6666666666666667" />
<circle cx="747.00" cy="212.51" r="1.6666666666666667" />
<circle cx="747.78" cy="212.20" r="1.6666666666666667" />
<circle cx="748.57" cy="215.11" r="1.6666666666666667" />
<circle cx="749.33" cy="200.48" r="1.6666666666666667" />
<circle cx="750.13" cy="225.53" r="1.6666666666666667" />
<circle cx="750.91" cy="207.63" r="1.6666666666666667" />
<circle cx="751.70" cy="219.76" r="1.6666666666666667" />
<circle cx="752.47" cy="206.93" r="1.6666666666666667" />
<circle cx="753.24" cy="196.66" r="1.6666666666666667" />
<circle cx="754.01" cy="208.19" r="1.6666666666666667" />
<circle cx="754.78" cy="197.96" r="1.6666666666666667" />
<circle cx="755.52" cy="180.08" r="1.6666666666666667" />
<circle cx="756.32" cy="226.55" r="1.6666666666666667" />
<circle cx="757.11" cy="216.77" r="1.6666666666666667" />
<circle cx="757.90" cy="216.89" r="1.6666666666666667" />
<circle cx="758.68" cy="211.39" r="1.6666666666666667" />
<circle cx="759.49" cy="235.05" r="1.6666666666666667" />
<circle cx="760.29" cy="228.50" r="1.6666666666666667" />
<circle cx="761.08" cy="214.55" r="1.6666666666666667" />
<circle cx="761.84" cy="196.33" r="1.6666666666666667" />
<circle cx="762.57" cy="165.94" r="1.6666666666666667" />
<circle cx="763.30" cy="169.14" r="1.6666666666666667" />
<circle cx="764.02" cy="159.38" r="1.6666666666666667" />
<circle cx="764.76" cy="169.85" r="1.6666666666666667" />
<circle cx="765.48" cy="158.28" r="1.6666666666666667" />
<circle cx="766.18" cy="141.15" r="1.6666666666666667" />
<circle cx="766.91" cy="161.77" r="1.6666666666666667" />
<circle cx="767.61" cy="133.56" r="1.6666666666666667" />
<circle cx="768.29" cy="125.00" r="1.6666666666666667" />
<circle cx="769.02" cy="159.81" r="1.6666666666666667" />
<circle cx="769.75" cy="166.65" r="1.6666666666666667" />
<circle cx="770.47" cy="155.50" r="1.6666666666666667" />
<circle cx="771.20" cy="165.80" r="1.6666666666666667" />
<circle cx="771.91" cy="148.21" r="1.6666666666666667" />
<circle cx="772.64" cy="171.26" r="1.6666666666666667" />
<circle cx="773.38" cy="170.62" r="1.6666666666666667" />
<circle cx="774.10" cy="157.04" r="1.6666666666666667" />
<circle cx="774.81" cy="148.36" r="1.6666666666666667" />
<circle cx="775.58" cy="204.33" r="1.6666666666666667" />
<circle cx="776.37" cy="221.21" r="1.6666666666666667" />
<circle cx="777.16" cy="214.18" r="1.6666666666666667" />
<circle cx="777.93" cy="208.82" r="1.6666666666666667" />
<circle cx="778.71" cy="206.81" r="1.6666666666666667" />
<circle cx="779.52" cy="231.09" r="1.6666666666666667" />
<circle cx="780.30" cy="214.92" r="1.6666666666666667" />
<circle cx="781.09" cy="215.11" r="1.6666666666666667" />
<circle cx="781.86" cy="204.01" r="1.6666666666666667" />
<circle cx="782.64" cy="211.76" r="1.6666666666666667" />
<circle cx="783.43" cy="218.42" r="1.6666666666666667" />
<circle cx="784.22" cy="217.44" r="1.6666666666666667" />
<circle cx="785.02" cy="227.50" r="1.6666666666666667" />
<circle cx="785.84" cy="245.80" r="1.6666666666666667" />
<circle cx="786.66" cy="238.33" r="1.6666666666666667" />
<circle cx="787.44" cy="213.01" r="1.6666666666666667" />
<circle cx="788.23" cy="215.97" r="1.6666666666666667" />
<circle cx="789.04" cy="235.05" r="1.6666666666666667" />
<circle cx="789.83" cy="219.57" r="1.6666666666666667" />
<circle cx="790.60" cy="203.05" r="1.6666666666666667" />
<circle cx="791.42" cy="240.84" r="1.6666666666666667" />
<circle cx="792.22" cy="229.33" r="1.6666666666666667" />
<circle cx="793.04" cy="240.44" r="1.6666666666666667" />
<circle cx="793.86" cy="241.97" r="1.6666666666666667" />
<circle cx="794.66" cy="230.33" r="1.6666666666666667" />
<circle cx="795.47" cy="233.78" r="1.6666666666666667" />
<circle cx="796.27" cy="229.74" r="1.6666666666666667" />
<circle cx="797.09" cy="236.67" r="1.6666666666666667" />
<circle cx="797.90" cy="237.59" r="1.6666666666666667" />
<circle cx="798.72" cy="243.10" r="1.6666666666666667" />
<circle cx="799.55" cy="245.85" r="1.6666666666666667" />
<circle cx="800.35" cy="226.78" r="1.6666666666666667" />
<circle cx="801.16" cy="238.85" r="1.6666666666666667" />
<circle cx="801.97" cy="229.03" r="1.6666666666666667" />
<circle cx="802.77" cy="231.50" r="1.6666666666666667" />
<circle cx="803.60" cy="247.08" r="1.6666666666666667" />
<circle cx="804.40" cy="225.42" r="1.6666666666666667" />
<circle cx="805.21" cy="235.46" r="1.6666666666666667" />
<circle cx="806.05" cy="255.74" r="1.6666666666666667" />
<circle cx="806.82" cy="205.73" r="1.6666666666666667" />
<circle cx="807.61" cy="220.49" r="1.6666666666666667" />
<circle cx="808.43" cy="238.33" r="1.6666666666666667" />
<circle cx="809.22" cy="217.93" r="1.6666666666666667" />
<circle cx="810.05" cy="248.85" r="1.6666666666666667" />
<circle cx="810.88" cy="249.52" r="1.6666666666666667" />
<circle cx="811.73" cy="269.84" r="1.6666666666666667" />
<circle cx="812.59" cy="267.87" r="1.6666666666666667" />
<circle cx="813.39" cy="224.52" r="1.6666666666666667" />
<circle cx="814.19" cy="229.86" r="1.6666666666666667" />
<circle cx="815.01" cy="244.06" r="1.6666666666666667" />
<circle cx="815.85" cy="253.46" r="1.6666666666666667" />
<circle cx="816.65" cy="227.79" r="1.6666666666666667" />
<circle cx="817.47" cy="240.67" r="1.6666666666666667" />
<circle cx="818.31" cy="261.37" r="1.6666666666666667" />
<circle cx="819.13" cy="239.30" r="1.6666666666666667" />
<circle cx="819.96" cy="250.01" r="1.6666666666666667" />
<circle cx="820.79" cy="252.04" r="1.6666666666666667" />
<circle cx="821.62" cy="246.85" r="1.6666666666666667" />
<circle cx="822.43" cy="236.90" r="1.6666666666666667" />
<circle cx="823.22" cy="215.97" r="1.6666666666666667" />
<circle cx="824.01" cy="218.42" r="1.6666666666666667" />
<circle cx="824.83" cy="243.66" r="1.6666666666666667" />
<circle cx="825.69" cy="270.35" r="1.6666666666666667" />
<circle cx="826.52" cy="245.96" r="1.6666666666666667" />
<circle cx="827.34" cy="244.84" r="1.6666666666666667" />
<circle cx="828.18" cy="254.66" r="1.6666666666666667" />
<circle cx="829.00" cy="246.07" r="1.6666666666666667" />
<circle cx="829.82" cy="239.02" r="1.6666666666666667" />
<circle cx="830.61" cy="221.09" r="1.6666666666666667" />
<circle cx="831.42" cy="231.97" r="1.6666666666666667" />
<circle cx="832.27" cy="266.10" r="1.6666666666666667" />
<circle cx="833.11" cy="253.52" r="1.6666666666666667" />
<circle cx="833.94" cy="252.54" r="1.6666666666666667" />
<circle cx="834.78" cy="260.68" r="1.6666666666666667" />
<circle cx="835.64" cy="264.74" r="1.6666666666666667" />
<circle cx="836.49" cy="270.15" r="1.6666666666666667" />
<circle cx="837.34" cy="257.36" r="1.6666666666666667" />
<circle cx="838.20" cy="275.61" r="1.6666666666666667" />
<circle cx="839.03" cy="246.30" r="1.6666666666666667" />
<circle cx="839.82" cy="221.33" r="1.6666666666666667" />
<circle cx="840.64" cy="241.52" r="1.6666666666666667" />
<circle cx="841.45" cy="233.95" r="1.6666666666666667" />
<circle cx="842.30" cy="264.85" r="1.6666666666666667" />
<circle cx="843.13" cy="250.67" r="1.6666666666666667" />
<circle cx="843.96" cy="250.07" r="1.6666666666666667" />
<circle cx="844.86" cy="292.63" r="1.6666666666666667" />
<circle cx="845.71" cy="266.31" r="1.6666666666666667" />
<circle cx="846.55" cy="254.23" r="1.6666666666666667" />
<circle cx="847.42" cy="277.57" r="1.6666666666666667" />
<circle cx="848.27" cy="269.22" r="1.6666666666666667" />
<circle cx="849.14" cy="273.48" r="1.6666666666666667" />
<circle cx="850.00" cy="271.69" r="1.6666666666666667" />
</g>
<g stroke="black">
<line x1="186.63" x2="186.63" y1="510.00" y2="520.00" />
<line x1="262.12" x2="262.12" y1="510.00" y2="520.00" />
<line x1="337.60" x2="337.60" y1="510.00" y2="520.00" />
<line x1="413.09" x2="413.09" y1="510.00" y2="520.00" />
<line x1="488.58" x2="488.58" y1="510.00" y2="520.00" />
<line x1="564.06" x2="564.06" y1="510.00" y2="520.00" />
<line x1="639.55" x2="639.55" y1="510.00" y2="520.00" />
<line x1="715.04" x2="715.04" y1="510.00" y2="520.00" />
<line x1="790.52" x2="790.52" y1="510.00" y2="520.00" />
<g fill="black" font-family="Arial, sans-serif" font-size="18.0" stroke="none" text-anchor="start" transform="translate(9.0 0.0)">
<text x="186.63" y="530.57">11Oct'23</text>
<text x="262.12" y="530.57">22Oct'23</text>
<text x="337.60" y="530.57">3Nov'23</text>
<text x="413.09" y="530.57">14Nov'23</text>
<text x="488.58" y="530.57">26Nov'23</text>
<text x="564.06" y="530.57">8Dec'23</text>
<text x="639.55" y="530.57">19Dec'23</text>
<text x="715.04" y="530.57">31Dec'23</text>
<text x="790.52" y="530.57">11Jan'24</text>
</g>
<line x1="150.00" x2="850.00" y1="510.00" y2="510.00" />
</g>
<g stroke="black">
<line x1="150.00" x2="140.00" y1="470.23" y2="470.23" />
<line x1="150.00" x2="140.00" y1="393.03" y2="393.03" />
<line x1="150.00" x2="140.00" y1="315.82" y2="315.82" />
<line x1="150.00" x2="140.00" y1="238.62" y2="238.62" />
<line x1="150.00" x2="140.00" y1="161.41" y2="161.41" />
<g fill="black" font-family="Arial, sans-serif" font-size="18.0" stroke="none" text-anchor="end">
<text x="141.00" y="461.23">5</text>
<text x="141.00" y="384.03">6</text>
<text x="141.00" y="306.82">7</text>
<text x="141.00" y="229.62">8</text>
<text x="141.00" y="152.41">9</text>
</g>
<line x1="150.00" x2="150.00" y1="510.00" y2="90.00" />
</g>
</g>
</svg>