<?xml version="1.0"?>
<svg version="1.1" viewBox="0 0 1000 600" xmlns:xlink="http://www.w3.org/1999/xlink" xmlns="http://www.w3.org/2000/svg">
<g>
<g stroke-dasharray="3.6 7.2" stroke-width="0.72" stroke="#caa">
<line x1="839.86" x2="839.86" y1="510.00" y2="90.00" />
<line x1="791.78" x2="791.78" y1="510.00" y2="90.00" />
<line x1="740.39" x2="740.39" y1="510.00" y2="90.00" />
<line x1="689.00" x2="689.00" y1="510.00" y2="90.00" />
<line x1="639.26" x2="639.26" y1="510.00" y2="90.00" />
<line x1="587.87" x2="587.87" y1="510.00" y2="90.00" />
<line x1="538.13" x2="538.13" y1="510.00" y2="90.00" />
<line x1="486.74" x2="486.74" y1="510.00" y2="90.00" />
<line x1="435.35" x2="435.35" y1="510.00" y2="90.00" />
<line x1="385.61" x2="385.61" y1="510.00" y2="90.00" />
<line x1="334.22" x2="334.22" y1="510.00" y2="90.00" />
<line x1="284.48" x2="284.48" y1="510.00" y2="90.00" />
<line x1="233.09" x2="233.09" y1="510.00" y2="90.00" />
<line x1="186.67" x2="186.67" y1="510.00" y2="90.00" />
<line x1="150.00" x2="850.00" y1="510.00" y2="510.00" />
<line x1="150.00" x2="850.00" y1="216.29" y2="216.29" />
</g>
<g>
<text dominant-baseline="hanging" dx="-36.0" dy="18.0" fill="#0004" font-family="Arial, sans-serif" font-size="36" stroke="none" text-anchor="end" x="850.00" y="128.18">R01</text>
</g>
<g>
<text dominant-baseline="text-bottom" dy="-12.0" fill="black" font-family="Arial, sans-serif" font-size="18.0" font-style="italic" stroke="none" text-anchor="middle" x="500.00" y="90.00">Years 2023 to 2024</text>
</g>
<g>
<text dominant-baseline="central" dx="12.0" dy="12.0" fill="black" font-family="Arial, sans-serif" font-size="18.0" font-style="italic" stroke="none" text-anchor="middle" text-orientation="sideways" writing-mode="vertical-lr" x="850.00" y="300.00">log(Drips per day)</text>
</g>
<polyline fill="none" points="595.96,450.47 596.28,461.90 596.51,452.42 596.81,459.25 597.03,451.17 597.32,458.30 597.56,453.72 597.84,457.38 598.08,453.27 598.35,457.60 598.60,453.96 598.88,457.98 599.11,451.51 599.42,461.12 599.66,452.76 599.95,459.07 600.20,454.77 600.50,459.22 600.73,452.15 601.00,456.49 601.24,452.98 601.50,456.58 601.75,454.44 602.04,458.28 602.29,454.38 602.61,461.42 602.84,452.77 603.16,461.76 603.44,456.91 603.73,459.09 604.00,456.96 604.29,459.05 604.57,457.16 604.85,458.51 605.17,460.87 605.45,458.02 605.74,459.04 606.01,457.04 606.31,459.32 606.58,456.74 606.85,457.22 607.16,460.46 607.44,457.59 607.73,459.12 608.01,457.13 608.34,463.09 608.61,456.61 608.93,461.36 609.17,454.01 609.50,461.80 609.76,455.80 610.06,459.72 610.30,454.19 610.60,458.90 610.86,456.40 611.17,460.96 611.45,457.45 611.76,461.02 612.00,452.87 612.32,461.31 612.55,452.44 612.87,461.31 613.12,454.39 613.45,462.69 613.70,454.89 613.99,458.26 614.24,454.51 614.52,458.25 614.80,457.94 615.08,457.55 615.33,454.45 615.61,458.07 615.87,455.54 616.16,457.91 616.42,456.36 616.73,460.45 616.98,454.38 617.25,456.57 617.49,454.10 617.79,459.21 618.04,454.45 618.32,458.28 618.56,452.38 618.84,458.17 619.06,450.01 619.33,457.10 619.55,451.12 619.87,461.04 620.10,452.85 620.40,460.00 620.66,454.84 620.95,458.87 621.18,451.56 621.47,458.93 708.64,448.82 708.85,450.15 709.07,449.80 709.28,450.12 709.51,451.54 709.72,449.79 709.94,450.46 710.16,450.13 710.38,450.88 710.60,451.06 710.82,450.16 711.03,450.18 711.25,450.51 711.47,450.80 711.69,450.21 711.91,450.00 712.14,452.44 712.36,451.13 712.58,450.00 712.80,451.18 713.03,451.50 713.25,450.51 713.47,451.70 746.73,448.33 746.92,447.09 747.12,446.96 747.31,446.86 747.51,447.63 747.71,447.71 747.91,447.70 748.11,447.83 748.30,447.17 748.50,448.31 748.70,447.49 748.90,448.04 749.10,447.46 749.29,447.00 749.49,447.51 749.69,447.05 749.87,446.27 750.08,448.36 750.28,447.90 750.48,447.91 750.68,447.66 750.88,448.76 751.09,448.45 751.29,447.80 751.48,446.98 751.67,445.66 751.85,445.79 752.04,445.38 752.22,445.82 752.41,445.33 752.58,444.62 752.77,445.48 752.95,444.31 753.12,443.97 753.30,445.40 753.49,445.69 753.67,445.22 753.86,445.65 754.04,444.91 754.23,445.89 754.41,445.86 754.60,445.28 754.78,444.92 754.97,447.34 755.17,448.11 755.37,447.79 755.57,447.54 755.77,447.45 755.97,448.57 756.17,447.82 756.37,447.83 756.57,447.32 756.77,447.68 756.97,447.98 757.17,447.94 757.37,448.40 757.58,449.27 757.79,448.91 757.99,447.73 758.19,447.87 758.39,448.76 758.59,448.03 758.79,447.28 759.00,449.03 759.20,448.49 759.41,449.01 759.62,449.09 759.82,448.53 760.03,448.70 760.23,448.51 760.44,448.83 760.65,448.88 760.86,449.14 761.06,449.27 761.27,448.37 761.48,448.94 761.68,448.47 761.88,448.59 762.09,449.33 762.30,448.30 762.50,448.78 762.72,449.75 762.91,447.40 763.11,448.08 763.32,448.91 763.52,447.96 763.73,449.42 763.94,449.45 764.16,450.45 764.38,450.35 764.58,448.26 764.79,448.51 765.00,449.19 765.21,449.64 765.41,448.42 765.62,449.02 765.83,450.03 766.04,448.96 766.25,449.47 766.47,449.57 766.68,449.32 766.88,448.84 767.08,447.87 767.28,447.98 767.49,449.17 767.71,450.47 767.92,449.28 768.13,449.22 768.34,449.70 768.55,449.28 768.76,448.94 768.96,448.10 769.17,448.61 769.38,450.26 769.59,449.64 769.81,449.59 770.02,449.99 770.24,450.19 770.46,450.46 770.67,449.83 770.89,450.74 771.10,449.29 771.30,448.11 771.51,449.06 771.72,448.70 771.93,450.20 772.14,449.50 772.35,449.48 772.58,451.61 772.80,450.27 773.01,449.68 773.23,450.84 773.45,450.42 773.67,450.63 773.89,450.54" stroke-dasharray="3.6 3.6" stroke-width="3.6" stroke="#aaa" />
<g>
<circle cx="595.96" cy="450.47" r="1.6666666666666667" />
<circle cx="596.28" cy="461.90" r="1.6666666666666667" />
<circle cx="596.51" cy="452.42" r="1.6666666666666667" />
<circle cx="596.81" cy="459.25" r="1.6666666666666667" />
<circle cx="597.03" cy="451.17" r="1.6666666666666667" />
<circle cx="597.32" cy="458.30" r="1.6666666666666667" />
<circle cx="597.56" cy="453.72" r="1.6666666666666667" />
<circle cx="597.84" cy="457.38" r="1.6666666666666667" />
<circle cx="598.08" cy="453.27" r="1.6666666666666667" />
<circle cx="598.35" cy="457.60" r="1.6666666666666667" />
<circle cx="598.60" cy="453.96" r="1.6666666666666667" />
<circle cx="598.88" cy="457.98" r="1.6666666666666667" />
<circle cx="599.11" cy="451.51" r="1.6666666666666667" />
<circle cx="599.42" cy="461.12" r="1.6666666666666667" />
<circle cx="599.66" cy="452.76" r="1.6666666666666667" />
<circle cx="599.95" cy="459.07" r="1.6666666666666667" />
<circle cx="600.20" cy="454.77" r="1.6666666666666667" />
<circle cx="600.50" cy="459.22" r="1.6666666666666667" />
<circle cx="600.73" cy="452.15" r="1.6666666666666667" />
<circle cx="601.00" cy="456.49" r="1.6666666666666667" />
<circle cx="601.24" cy="452.98" r="1.6666666666666667" />
<circle cx="601.50" cy="456.58" r="1.6666666666666667" />
<circle cx="601.75" cy="454.44" r="1.6666666666666667" />
<circle cx="602.04" cy="458.28" r="1.6666666666666667" />
<circle cx="602.29" cy="454.38" r="1.6666666666666667" />
<circle cx="602.61" cy="461.42" r="1.6666666666666667" />
<circle cx="602.84" cy="452.77" r="1.6666666666666667" />
<circle cx="603.16" cy="461.76" r="1.6666666666666667" />
<circle cx="603.44" cy="456.91" r="1.6666666666666667" />
<circle cx="603.73" cy="459.09" r="1.6666666666666667" />
<circle cx="604.00" cy="456.96" r="1.6666666666666667" />
<circle cx="604.29" cy="459.05" r="1.6666666666666667" />
<circle cx="604.57" cy="457.16" r="1.6666666666666667" />
<circle cx="604.85" cy="458.51" r="1.6666666666666667" />
<circle cx="605.17" cy="460.87" r="1.6666666666666667" />
<circle cx="605.45" cy="458.02" r="1.6666666666666667" />
<circle cx="605.74" cy="459.04" r="1.6666666666666667" />
<circle cx="606.01" cy="457.04" r="1.6666666666666667" />
<circle cx="606.31" cy="459.32" r="1.6666666666666667" />
<circle cx="606.58" cy="456.74" r="1.6666666666666667" />
<circle cx="606.85" cy="457.22" r="1.6666666666666667" />
<circle cx="607.16" cy="460.46" r="1.6666666666666667" />
<circle cx="607.44" cy="457.59" r="1.6666666666666667" />
<circle cx="607.73" cy="459.12" r="1.6666666666666667" />
<circle cx="608.01" cy="457.13" r="1.6666666666666667" />
<circle cx="608.34" cy="463.09" r="1.6666666666666667" />
<circle cx="608.61" cy="456.61" r="1.6666666666666667" />
<circle cx="608.93" cy="461.36" r="1.6666666666666667" />
<circle cx="609.17" cy="454.01" r="1.6666666666666667" />
<circle cx="609.50" cy="461.80" r="1.6666666666666667" />
<circle cx="609.76" cy="455.80" r="1.6666666666666667" />
<circle cx="610.06" cy="459.72" r="1.6666666666666667" />
<circle cx="610.30" cy="454.19" r="1.6666666666666667" />
<circle cx="610.60" cy="458.90" r="1.6666666666666667" />
<circle cx="610.86" cy="456.40" r="1.6666666666666667" />
<circle cx="611.17" cy="460.96" r="1.6666666666666667" />
<circle cx="611.45" cy="457.45" r="1.6666666666666667" />
<circle cx="611.76" cy="461.02" r="1.6666666666666667" />
<circle cx="612.00" cy="452.87" r="1.6666666666666667" />
<circle cx="612.32" cy="461.31" r="1.6666666666666667" />
<circle cx="612.55" cy="452.44" r="1.6666666666666667" />
<circle cx="612.87" cy="461.31" r="1.6666666666666667" />
<circle cx="613.12" cy="454.39" r="1.6666666666666667" />
<circle cx="613.45" cy="462.69" r="1.6666666666666667" />
<circle cx="613.70" cy="454.89" r="1.6666666666666667" />
<circle cx="613.99" cy="458.26" r="1.6666666666666667" />
<circle cx="614.24" cy="454.51" r="1.6666666666666667" />
<circle cx="614.52" cy="458.25" r="1.6666666666666667" />
<circle cx="614.80" cy="457.94" r="1.6666666666666667" />
<circle cx="615.08" cy="457.55" r="1.6666666666666667" />
<circle cx="615.33" cy="454.45" r="1.6666666666666667" />
<circle cx="615.61" cy="458.07" r="1.6666666666666667" />
<circle cx="615.87" cy="455.54" r="1.6666666666666667" />
<circle cx="616.16" cy="457.91" r="1.6666666666666667" />
<circle cx="616.42" cy="456.36" r="1.6666666666666667" />
<circle cx="616.73" cy="460.45" r="1.6666666666666667" />
<circle cx="616.98" cy="454.38" r="1.6666666666666667" />
<circle cx="617.25" cy="456.57" r="1.6666666666666667" />
<circle cx="617.49" cy="454.10" r="1.6666666666666667" />
<circle cx="617.79" cy="459.21" r="1.6666666666666667" />
<circle cx="618.04" cy="454.45" r="1.6666666666666667" />
<circle cx="618.32" cy="458.28" r="1.6666666666666667" />
<circle cx="618.56" cy="452.38" r="1.6666666666666667" />
<circle cx="618.84" cy="458.17" r="1.6666666666666667" />
<circle cx="619.06" cy="450.01" r="1.6666666666666667" />
<circle cx="619.33" cy="457.10" r="1.6666666666666667" />
<circle cx="619.55" cy="451.12" r="1.6666666666666667" />
<circle cx="619.87" cy="461.04" r="1.6666666666666667" />
<circle cx="620.10" cy="452.85" r="1.6666666666666667" />
<circle cx="620.40" cy="460.00" r="1.6666666666666667" />
<circle cx="620.66" cy="454.84" r="1.6666666666666667" />
<circle cx="620.95" cy="458.87" r="1.6666666666666667" />
<circle cx="621.18" cy="451.56" r="1.6666666666666667" />
<circle cx="621.47" cy="458.93" r="1.6666666666666667" />
<circle cx="708.64" cy="448.82" r="1.6666666666666667" />
<circle cx="708.85" cy="450.15" r="1.6666666666666667" />
<circle cx="709.07" cy="449.80" r="1.6666666666666667" />
<circle cx="709.28" cy="450.12" r="1.6666666666666667" />
<circle cx="709.51" cy="451.54" r="1.6666666666666667" />
<circle cx="709.72" cy="449.79" r="1.6666666666666667" />
<circle cx="709.94" cy="450.46" r="1.6666666666666667" />
<circle cx="710.16" cy="450.13" r="1.6666666666666667" />
<circle cx="710.38" cy="450.88" r="1.6666666666666667" />
<circle cx="710.60" cy="451.06" r="1.6666666666666667" />
<circle cx="710.82" cy="450.16" r="1.6666666666666667" />
<circle cx="711.03" cy="450.18" r="1.6666666666666667" />
<circle cx="711.25" cy="450.51" r="1.6666666666666667" />
<circle cx="711.47" cy="450.80" r="1.6666666666666667" />
<circle cx="711.69" cy="450.21" r="1.6666666666666667" />
<circle cx="711.91" cy="450.00" r="1.6666666666666667" />
<circle cx="712.14" cy="452.44" r="1.6666666666666667" />
<circle cx="712.36" cy="451.13" r="1.6666666666666667" />
<circle cx="712.58" cy="450.00" r="1.6666666666666667" />
<circle cx="712.80" cy="451.18" r="1.6666666666666667" />
<circle cx="713.03" cy="451.50" r="1.6666666666666667" />
<circle cx="713.25" cy="450.51" r="1.6666666666666667" />
<circle cx="713.47" cy="451.70" r="1.6666666666666667" />
<circle cx="746.73" cy="448.33" r="1.6666666666666667" />
<circle cx="746.92" cy="447.09" r="1.6666666666666667" />
<circle cx="747.12" cy="446.96" r="1.6666666666666667" />
<circle cx="747.31" cy="446.86" r="1.6666666666666667" />
<circle cx="747.51" cy="447.63" r="1.6666666666666667" />
<circle cx="747.71" cy="447.71" r="1.6666666666666667" />
<circle cx="747.91" cy="447.70" r="1.6666666666666667" />
<circle cx="748.11" cy="447.83" r="1.6666666666666667" />
<circle cx="748.30" cy="447.17" r="1.6666666666666667" />
<circle cx="748.50" cy="448.31" r="1.6666666666666667" />
<circle cx="748.70" cy="447.49" r="1.6666666666666667" />
<circle cx="748.90" cy="448.04" r="1.6666666666666667" />
<circle cx="749.10" cy="447.46" r="1.6666666666666667" />
<circle cx="749.29" cy="447.00" r="1.6666666666666667" />
<circle cx="749.49" cy="447.51" r="1.6666666666666667" />
<circle cx="749.69" cy="447.05" r="1.6666666666666667" />
<circle cx="749.87" cy="446.27" r="1.6666666666666667" />
<circle cx="750.08" cy="448.36" r="1.6666666666666667" />
<circle cx="750.28" cy="447.90" r="1.6666666666666667" />
<circle cx="750.48" cy="447.91" r="1.6666666666666667" />
<circle cx="750.68" cy="447.66" r="1.6666666666666667" />
<circle cx="750.88" cy="448.76" r="1.6666666666666667" />
<circle cx="751.09" cy="448.45" r="1.6666666666666667" />
<circle cx="751.29" cy="447.80" r="1.6666666666666667" />
<circle cx="751.48" cy="446.98" r="1.6666666666666667" />
<circle cx="751.67" cy="445.66" r="1.6666666666666667" />
<circle cx="751.85" cy="445.79" r="1.6666666666666667" />
<circle cx="752.04" cy="445.38" r="1.6666666666666667" />
<circle cx="752.22" cy="445.82" r="1.6666666666666667" />
<circle cx="752.41" cy="445.33" r="1.6666666666666667" />
<circle cx="752.58" cy="444.62" r="1.6666666666666667" />
<circle cx="752.77" cy="445.48" r="1.6666666666666667" />
<circle cx="752.95" cy="444.31" r="1.6666666666666667" />
<circle cx="753.12" cy="443.97" r="1.6666666666666667" />
<circle cx="753.30" cy="445.40" r="1.6666666666666667" />
<circle cx="753.49" cy="445.69" r="1.6666666666666667" />
<circle cx="753.67" cy="445.22" r="1.6666666666666667" />
<circle cx="753.86" cy="445.65" r="1.6666666666666667" />
<circle cx="754.04" cy="444.91" r="1.6666666666666667" />
<circle cx="754.23" cy="445.89" r="1.6666666666666667" />
<circle cx="754.41" cy="445.86" r="1.6666666666666667" />
<circle cx="754.60" cy="445.28" r="1.6666666666666667" />
<circle cx="754.78" cy="444.92" r="1.6666666666666667" />
<circle cx="754.97" cy="447.34" r="1.6666666666666667" />
<circle cx="755.17" cy="448.11" r="1.6666666666666667" />
<circle cx="755.37" cy="447.79" r="1.6666666666666667" />
<circle cx="755.57" cy="447.54" r="1.6666666666666667" />
<circle cx="755.77" cy="447.45" r="1.6666666666666667" />
<circle cx="755.97" cy="448.57" r="1.6666666666666667" />
<circle cx="756.17" cy="447.82" r="1.6666666666666667" />
<circle cx="756.37" cy="447.83" r="1.6666666666666667" />
<circle cx="756.57" cy="447.32" r="1.6666666666666667" />
<circle cx="756.77" cy="447.68" r="1.6666666666666667" />
<circle cx="756.97" cy="447.98" r="1.6666666666666667" />
<circle cx="757.17" cy="447.94" r="1.6666666666666667" />
<circle cx="757.37" cy="448.40" r="1.6666666666666667" />
<circle cx="757.58" cy="449.27" r="1.6666666666666667" />
<circle cx="757.79" cy="448.91" r="1.6666666666666667" />
<circle cx="757.99" cy="447.73" r="1.6666666666666667" />
<circle cx="758.19" cy="447.87" r="1.6666666666666667" />
<circle cx="758.39" cy="448.76" r="1.6666666666666667" />
<circle cx="758.59" cy="448.03" r="1.6666666666666667" />
<circle cx="758.79" cy="447.28" r="1.6666666666666667" />
<circle cx="759.00" cy="449.03" r="1.6666666666666667" />
<circle cx="759.20" cy="448.49" r="1.6666666666666667" />
<circle cx="759.41" cy="449.01" r="1.6666666666666667" />
<circle cx="759.62" cy="449.09" r="1.6666666666666667" />
<circle cx="759.82" cy="448.53" r="1.6666666666666667" />
<circle cx="760.03" cy="448.70" r="1.6666666666666667" />
<circle cx="760.23" cy="448.51" r="1.6666666666666667" />
<circle cx="760.44" cy="448.83" r="1.6666666666666667" />
<circle cx="760.65" cy="448.88" r="1.6666666666666667" />
<circle cx="760.86" cy="449.14" r="1.6666666666666667" />
<circle cx="761.06" cy="449.27" r="1.6666666666666667" />
<circle cx="761.27" cy="448.37" r="1.6666666666666667" />
<circle cx="761.48" cy="448.94" r="1.6666666666666667" />
<circle cx="761.68" cy="448.47" r="1.6666666666666667" />
<circle cx="761.88" cy="448.59" r="1.6666666666666667" />
<circle cx="762.09" cy="449.33" r="1.6666666666666667" />
<circle cx="762.30" cy="448.30" r="1.6666666666666667" />
<circle cx="762.50" cy="448.78" r="1.6666666666666667" />
<circle cx="762.72" cy="449.75" r="1.6666666666666667" />
<circle cx="762.91" cy="447.40" r="1.6666666666666667" />
<circle cx="763.11" cy="448.08" r="1.6666666666666667" />
<circle cx="763.32" cy="448.91" r="1.6666666666666667" />
<circle cx="763.52" cy="447.96" r="1.6666666666666667" />
<circle cx="763.73" cy="449.42" r="1.6666666666666667" />
<circle cx="763.94" cy="449.45" r="1.6666666666666667" />
<circle cx="764.16" cy="450.45" r="1.6666666666666667" />
<circle cx="764.38" cy="450.35" r="1.6666666666666667" />
<circle cx="764.58" cy="448.26" r="1.6666666666666667" />
<circle cx="764.79" cy="448.51" r="1.6666666666666667" />
<circle cx="765.00" cy="449.19" r="1.6666666666666667" />
<circle cx="765.21" cy="449.64" r="1.6666666666666667" />
<circle cx="765.41" cy="448.42" r="1.6666666666666667" />
<circle cx="765.62" cy="449.02" r="1.6666666666666667" />
<circle cx="765.83" cy="450.03" r="1.6666666666666667" />
<circle cx="766.04" cy="448.96" r="1.6666666666666667" />
<circle cx="766.25" cy="449.47" r="1.6666666666666667" />
<circle cx="766.47" cy="449.57" r="1.6666666666666667" />
<circle cx="766.68" cy="449.32" r="1.6666666666666667" />
<circle cx="766.88" cy="448.84" r="1.6666666666666667" />
<circle cx="767.08" cy="447.87" r="1.6666666666666667" />
<circle cx="767.28" cy="447.98" r="1.6666666666666667" />
<circle cx="767.49" cy="449.17" r="1.6666666666666667" />
<circle cx="767.71" cy="450.47" r="1.6666666666666667" />
<circle cx="767.92" cy="449.28" r="1.6666666666666667" />
<circle cx="768.13" cy="449.22" r="1.6666666666666667" />
<circle cx="768.34" cy="449.70" r="1.6666666666666667" />
<circle cx="768.55" cy="449.28" r="1.6666666666666667" />
<circle cx="768.76" cy="448.94" r="1.6666666666666667" />
<circle cx="768.96" cy="448.10" r="1.6666666666666667" />
<circle cx="769.17" cy="448.61" r="1.6666666666666667" />
<circle cx="769.38" cy="450.26" r="1.6666666666666667" />
<circle cx="769.59" cy="449.64" r="1.6666666666666667" />
<circle cx="769.81" cy="449.59" r="1.6666666666666667" />
<circle cx="770.02" cy="449.99" r="1.6666666666666667" />
<circle cx="770.24" cy="450.19" r="1.6666666666666667" />
<circle cx="770.46" cy="450.46" r="1.6666666666666667" />
<circle cx="770.67" cy="449.83" r="1.6666666666666667" />
<circle cx="770.89" cy="450.74" r="1.6666666666666667" />
<circle cx="771.10" cy="449.29" r="1.6666666666666667" />
<circle cx="771.30" cy="448.11" r="1.6666666666666667" />
<circle cx="771.51" cy="449.06" r="1.6666666666666667" />
<circle cx="771.72" cy="448.70" r="1.6666666666666667" />
<circle cx="771.93" cy="450.20" r="1.6666666666666667" />
<circle cx="772.14" cy="449.50" r="1.6666666666666667" />
<circle cx="772.35" cy="449.48" r="1.6666666666666667" />
<circle cx="772.58" cy="451.61" r="1.6666666666666667" />
<circle cx="772.80" cy="450.27" r="1.6666666666666667" />
<circle cx="773.01" cy="449.68" r="1.6666666666666667" />
<circle cx="773.23" cy="450.84" r="1.6666666666666667" />
<circle cx="773.45" cy="450.42" r="1.6666666666666667" />
<circle cx="773.67" cy="450.63" r="1.6666666666666667" />
<circle cx="773.89" cy="450.54" r="1.6666666666666667" />
</g>
<g stroke="black">
<line x1="839.86" x2="839.86" y1="510.00" y2="520.00" />
<line x1="791.78" x2="791.78" y1="510.00" y2="520.00" />
<line x1="740.39" x2="740.39" y1="510.00" y2="520.00" />
<line x1="689.00" x2="689.00" y1="510.00" y2="520.00" />
<line x1="639.26" x2="639.26" y1="510.00" y2="520.00" />
<line x1="587.87" x2="587.87" y1="510.00" y2="520.00" />
<line x1="538.13" x2="538.13" y1="510.00" y2="520.00" />
<line x1="486.74" x2="486.74" y1="510.00" y2="520.00" />
<line x1="435.35" x2="435.35" y1="510.00" y2="520.00" />
<line x1="385.61" x2="385.61" y1="510.00" y2="520.00" />
<line x1="334.22" x2="334.22" y1="510.00" y2="520.00" />
<line x1="284.48" x2="284.48" y1="510.00" y2="520.00" />
<line x1="233.09" x2="233.09" y1="510.00" y2="520.00" />
<line x1="186.67" x2="186.67" y1="510.00" y2="520.00" />
<g fill="black" font-family="Arial, sans-serif" font-size="18.0" stroke="none" text-anchor="start" transform="translate(9.0 0.0)">
<text x="839.86" y="530.57">Mar</text>
<text x="791.78" y="530.57">Feb</text>
<text x="740.39" y="530.57">Jan</text>
<text x="689.00" y="530.57">Dec</text>
<text x="639.26" y="530.57">Nov</text>
<text x="587.87" y="530.57">Oct</text>
<text x="538.13" y="530.57">Sep</text>
<text x="486.74" y="530.57">Aug</text>
<text x="435.35" y="530.57">Jul</text>
<text x="385.61" y="530.57">Jun</text>
<text x="334.22" y="530.57">May</text>
<text x="284.48" y="530.57">Apr</text>
<text x="233.09" y="530.57">Mar</text>
<text x="186.67" y="530.57">Feb</text>
</g>
<line x1="150.00" x2="850.00" y1="510.00" y2="510.00" />
</g>
<g stroke="black">
<line x1="150.00" x2="140.00" y1="510.00" y2="510.00" />
<line x1="150.00" x2="140.00" y1="216.29" y2="216.29" />
<g fill="black" font-family="Arial, sans-serif" font-size="18.0" stroke="none" text-anchor="end">
<text x="141.00" y="501.00">0</text>
<text x="141.00" y="207.29">10</text>
</g>
<line x1="150.00" x2="150.00" y1="510.00" y2="90.00" />
</g>
</g>
</svg>