<?xml version="1.0"?>
<svg version="1.1" viewBox="0 0 1000 600" xmlns:xlink="http://www.w3.org/1999/xlink" xmlns="http://www.w3.org/2000/svg">
<g>
<g stroke-dasharray="3.6 7.2" stroke-width="0.72" stroke="#caa">
<line x1="813.75" x2="813.75" y1="510.00" y2="90.00" />
<line x1="760.60" x2="760.60" y1="510.00" y2="90.00" />
<line x1="707.45" x2="707.45" y1="510.00" y2="90.00" />
<line x1="656.01" x2="656.01" y1="510.00" y2="90.00" />
<line x1="602.86" x2="602.86" y1="510.00" y2="90.00" />
<line x1="551.42" x2="551.42" y1="510.00" y2="90.00" />
<line x1="498.27" x2="498.27" y1="510.00" y2="90.00" />
<line x1="445.11" x2="445.11" y1="510.00" y2="90.00" />
<line x1="393.68" x2="393.68" y1="510.00" y2="90.00" />
<line x1="340.52" x2="340.52" y1="510.00" y2="90.00" />
<line x1="289.09" x2="289.09" y1="510.00" y2="90.00" />
<line x1="235.93" x2="235.93" y1="510.00" y2="90.00" />
<line x1="187.92" x2="187.92" y1="510.00" y2="90.00" />
<line x1="150.00" x2="850.00" y1="510.00" y2="510.00" />
<line x1="150.00" x2="850.00" y1="216.29" y2="216.29" />
</g>
<g>
<text dominant-baseline="hanging" dx="-36.0" dy="18.0" fill="#0004" font-family="Arial, sans-serif" font-size="36" stroke="none" text-anchor="end" x="850.00" y="128.18">R02</text>
</g>
<g>
<text dominant-baseline="text-bottom" dy="-12.0" fill="black" font-family="Arial, sans-serif" font-size="18.0" font-style="italic" stroke="none" text-anchor="middle" x="500.00" y="90.00">Years 2023 to 2024</text>
</g>
<g>
<text dominant-baseline="central" dx="12.0" dy="12.0" fill="black" font-family="Arial, sans-serif" font-size="18.0" font-style="italic" stroke="none" text-anchor="middle" text-orientation="sideways" writing-mode="vertical-lr" x="850.00" y="300.00">log(Drips per day)</text>
</g>
<polyline fill="none" points="638.85,470.28 639.44,478.67 639.90,471.53 797.97,494.27 797.97,294.38 797.97,286.62 797.97,268.24 797.97,249.13 797.97,237.23 797.97,243.78 797.97,255.69 797.97,253.66 797.97,259.36 797.98,281.40 797.98,287.30 797.98,261.04 797.98,266.94 797.98,255.69 797.98,259.36 797.98,257.58 797.98,251.49 797.98,251.49 797.98,261.04 797.98,265.57 797.98,265.57 797.98,271.84 797.98,304.11 798.60,480.27" stroke-dasharray="3.6 3.6" stroke-width="3.6" stroke="#aaa" />
<g>
<circle cx="638.85" cy="470.28" r="1.6666666666666667" />
<circle cx="639.44" cy="478.67" r="1.6666666666666667" />
<circle cx="639.90" cy="471.53" r="1.6666666666666667" />
<circle cx="797.97" cy="494.27" r="1.6666666666666667" />
<circle cx="797.97" cy="294.38" r="1.6666666666666667" />
<circle cx="797.97" cy="286.62" r="1.6666666666666667" />
<circle cx="797.97" cy="268.24" r="1.6666666666666667" />
<circle cx="797.97" cy="249.13" r="1.6666666666666667" />
<circle cx="797.97" cy="237.23" r="1.6666666666666667" />
<circle cx="797.97" cy="243.78" r="1.6666666666666667" />
<circle cx="797.97" cy="255.69" r="1.6666666666666667" />
<circle cx="797.97" cy="253.66" r="1.6666666666666667" />
<circle cx="797.97" cy="259.36" r="1.6666666666666667" />
<circle cx="797.98" cy="281.40" r="1.6666666666666667" />
<circle cx="797.98" cy="287.30" r="1.6666666666666667" />
<circle cx="797.98" cy="261.04" r="1.6666666666666667" />
<circle cx="797.98" cy="266.94" r="1.6666666666666667" />
<circle cx="797.98" cy="255.69" r="1.6666666666666667" />
<circle cx="797.98" cy="259.36" r="1.6666666666666667" />
<circle cx="797.98" cy="257.58" r="1.6666666666666667" />
<circle cx="797.98" cy="251.49" r="1.6666666666666667" />
<circle cx="797.98" cy="251.49" r="1.6666666666666667" />
<circle cx="797.98" cy="261.04" r="1.6666666666666667" />
<circle cx="797.98" cy="265.57" r="1.6666666666666667" />
<circle cx="797.98" cy="265.57" r="1.6666666666666667" />
<circle cx="797.98" cy="271.84" r="1.6666666666666667" />
<circle cx="797.98" cy="304.11" r="1.6666666666666667" />
<circle cx="798.60" cy="480.27" r="1.6666666666666667" />
</g>
<g stroke="black">
<line x1="813.75" x2="813.75" y1="510.00" y2="520.00" />
<line x1="760.60" x2="760.60" y1="510.00" y2="520.00" />
<line x1="707.45" x2="707.45" y1="510.00" y2="520.00" />
<line x1="656.01" x2="656.01" y1="510.00" y2="520.00" />
<line x1="602.86" x2="602.86" y1="510.00" y2="520.00" />
<line x1="551.42" x2="551.42" y1="510.00" y2="520.00" />
<line x1="498.27" x2="498.27" y1="510.00" y2="520.00" />
<line x1="445.11" x2="445.11" y1="510.00" y2="520.00" />
<line x1="393.68" x2="393.68" y1="510.00" y2="520.00" />
<line x1="340.52" x2="340.52" y1="510.00" y2="520.00" />
<line x1="289.09" x2="289.09" y1="510.00" y2="520.00" />
<line x1="235.93" x2="235.93" y1="510.00" y2="520.00" />
<line x1="187.92" x2="187.92" y1="510.00" y2="520.00" />
<g fill="black" font-family="Arial, sans-serif" font-size="18.0" stroke="none" text-anchor="start" transform="translate(9.0 0.0)">
<text x="813.75" y="530.57">Feb</text>
<text x="760.60" y="530.57">Jan</text>
<text x="707.45" y="530.57">Dec</text>
<text x="656.01" y="530.57">Nov</text>
<text x="602.86" y="530.57">Oct</text>
<text x="551.42" y="530.57">Sep</text>
<text x="498.27" y="530.57">Aug</text>
<text x="445.11" y="530.57">Jul</text>
<text x="393.68" y="530.57">Jun</text>
<text x="340.52" y="530.57">May</text>
<text x="289.09" y="530.57">Apr</text>
<text x="235.93" y="530.57">Mar</text>
<text x="187.92" y="530.57">Feb</text>
</g>
<line x1="150.00" x2="850.00" y1="510.00" y2="510.00" />
</g>
<g stroke="black">
<line x1="150.00" x2="140.00" y1="510.00" y2="510.00" />
<line x1="150.00" x2="140.00" y1="216.29" y2="216.29" />
<g fill="black" font-family="Arial, sans-serif" font-size="18.0" stroke="none" text-anchor="end">
<text x="141.00" y="501.00">0</text>
<text x="141.00" y="207.29">10</text>
</g>
<line x1="150.00" x2="150.00" y1="510.00" y2="90.00" />
</g>
</g>
</svg>