<?xml version="1.0"?>
<svg version="1.1" viewBox="0 0 1000 600" xmlns:xlink="http://www.w3.org/1999/xlink" xmlns="http://www.w3.org/2000/svg">
<g>
<g stroke-dasharray="3.6 7.2" stroke-width="0.72" stroke="#caa">
<line x1="212.37" x2="212.37" y1="510.00" y2="90.00" />
<line x1="287.50" x2="287.50" y1="510.00" y2="90.00" />
<line x1="362.63" x2="362.63" y1="510.00" y2="90.00" />
<line x1="437.76" x2="437.76" y1="510.00" y2="90.00" />
<line x1="512.88" x2="512.88" y1="510.00" y2="90.00" />
<line x1="588.01" x2="588.01" y1="510.00" y2="90.00" />
<line x1="663.14" x2="663.14" y1="510.00" y2="90.00" />
<line x1="738.27" x2="738.27" y1="510.00" y2="90.00" />
<line x1="813.39" x2="813.39" y1="510.00" y2="90.00" />
<line x1="150.00" x2="850.00" y1="510.00" y2="510.00" />
<line x1="150.00" x2="850.00" y1="156.46" y2="156.46" />
</g>
<g>
<text dominant-baseline="hanging" dx="-36.0" dy="18.0" fill="#0004" font-family="Arial, sans-serif" font-size="36" stroke="none" text-anchor="end" x="850.00" y="128.18">R02</text>
</g>
<g>
<text dominant-baseline="text-bottom" dy="-12.0" fill="black" font-family="Arial, sans-serif" font-size="18.0" font-style="italic" stroke="none" text-anchor="middle" x="500.00" y="90.00">Days since start</text>
</g>
<g>
<text dominant-baseline="central" dx="12.0" dy="12.0" fill="black" font-family="Arial, sans-serif" font-size="18.0" font-style="italic" stroke="none" text-anchor="middle" text-orientation="sideways" writing-mode="vertical-lr" x="850.00" y="300.00">Drips per day</text>
</g>
<polyline fill="none" points="150.00,509.86 152.59,509.90 154.61,509.87 847.22,509.94 847.23,455.45 847.23,438.96 847.23,377.19 847.23,255.45 847.23,128.18 847.23,204.54 847.24,306.36 847.24,291.82 847.24,330.32 847.24,425.15 847.25,440.58 847.25,340.30 847.25,371.16 847.25,306.36 847.25,330.32 847.25,319.09 847.25,275.03 847.26,275.03 847.26,340.30 847.26,364.54 847.26,364.54 847.26,392.52 847.27,470.84 850.00,509.90" stroke-dasharray="3.6 3.6" stroke-width="3.6" stroke="#aaa" />
<g>
<circle cx="150.00" cy="509.86" r="1.6666666666666667" />
<circle cx="152.59" cy="509.90" r="1.6666666666666667" />
<circle cx="154.61" cy="509.87" r="1.6666666666666667" />
<circle cx="847.22" cy="509.94" r="1.6666666666666667" />
<circle cx="847.23" cy="455.45" r="1.6666666666666667" />
<circle cx="847.23" cy="438.96" r="1.6666666666666667" />
<circle cx="847.23" cy="377.19" r="1.6666666666666667" />
<circle cx="847.23" cy="255.45" r="1.6666666666666667" />
<circle cx="847.23" cy="128.18" r="1.6666666666666667" />
<circle cx="847.23" cy="204.54" r="1.6666666666666667" />
<circle cx="847.24" cy="306.36" r="1.6666666666666667" />
<circle cx="847.24" cy="291.82" r="1.6666666666666667" />
<circle cx="847.24" cy="330.32" r="1.6666666666666667" />
<circle cx="847.24" cy="425.15" r="1.6666666666666667" />
<circle cx="847.25" cy="440.58" r="1.6666666666666667" />
<circle cx="847.25" cy="340.30" r="1.6666666666666667" />
<circle cx="847.25" cy="371.16" r="1.6666666666666667" />
<circle cx="847.25" cy="306.36" r="1.6666666666666667" />
<circle cx="847.25" cy="330.32" r="1.6666666666666667" />
<circle cx="847.25" cy="319.09" r="1.6666666666666667" />
<circle cx="847.25" cy="275.03" r="1.6666666666666667" />
<circle cx="847.26" cy="275.03" r="1.6666666666666667" />
<circle cx="847.26" cy="340.30" r="1.6666666666666667" />
<circle cx="847.26" cy="364.54" r="1.6666666666666667" />
<circle cx="847.26" cy="364.54" r="1.6666666666666667" />
<circle cx="847.26" cy="392.52" r="1.6666666666666667" />
<circle cx="847.27" cy="470.84" r="1.6666666666666667" />
<circle cx="850.00" cy="509.90" r="1.6666666666666667" />
</g>
<g stroke="black">
<line x1="212.37" x2="212.37" y1="510.00" y2="520.00" />
<line x1="287.50" x2="287.50" y1="510.00" y2="520.00" />
<line x1="362.63" x2="362.63" y1="510.00" y2="520.00" />
<line x1="437.76" x2="437.76" y1="510.00" y2="520.00" />
<line x1="512.88" x2="512.88" y1="510.00" y2="520.00" />
<line x1="588.01" x2="588.01" y1="510.00" y2="520.00" />
<line x1="663.14" x2="663.14" y1="510.00" y2="520.00" />
<line x1="738.27" x2="738.27" y1="510.00" y2="520.00" />
<line x1="813.39" x2="813.39" y1="510.00" y2="520.00" />
<g fill="black" font-family="Arial, sans-serif" font-size="18.0" stroke="none" text-anchor="start" transform="translate(9.0 0.0)">
<text x="212.37" y="530.57">19660</text>
<text x="287.50" y="530.57">19670</text>
<text x="362.63" y="530.57">19680</text>
<text x="437.76" y="530.57">19690</text>
<text x="512.88" y="530.57">19700</text>
<text x="588.01" y="530.57">19710</text>
<text x="663.14" y="530.57">19720</text>
<text x="738.27" y="530.57">19730</text>
<text x="813.39" y="530.57">19740</text>
</g>
<line x1="150.00" x2="850.00" y1="510.00" y2="510.00" />
</g>
<g stroke="black">
<line x1="150.00" x2="140.00" y1="510.00" y2="510.00" />
<line x1="150.00" x2="140.00" y1="156.46" y2="156.46" />
<g fill="black" font-family="Arial, sans-serif" font-size="18.0" stroke="none" text-anchor="end">
<text x="141.00" y="501.00">0</text>
<text x="141.00" y="147.46">10000</text>
</g>
<line x1="150.00" x2="150.00" y1="510.00" y2="90.00" />
</g>
</g>
</svg>