<?xml version="1.0"?>
<svg version="1.1" viewBox="0 0 1000 600" xmlns:xlink="http://www.w3.org/1999/xlink" xmlns="http://www.w3.org/2000/svg">
<g>
<g stroke-dasharray="3.6 7.2" stroke-width="0.72" stroke="#caa">
<line x1="828.41" x2="828.41" y1="510.00" y2="90.00" />
<line x1="785.75" x2="785.75" y1="510.00" y2="90.00" />
<line x1="741.68" x2="741.68" y1="510.00" y2="90.00" />
<line x1="700.44" x2="700.44" y1="510.00" y2="90.00" />
<line x1="656.36" x2="656.36" y1="510.00" y2="90.00" />
<line x1="612.28" x2="612.28" y1="510.00" y2="90.00" />
<line x1="569.63" x2="569.63" y1="510.00" y2="90.00" />
<line x1="525.55" x2="525.55" y1="510.00" y2="90.00" />
<line x1="482.89" x2="482.89" y1="510.00" y2="90.00" />
<line x1="438.81" x2="438.81" y1="510.00" y2="90.00" />
<line x1="394.73" x2="394.73" y1="510.00" y2="90.00" />
<line x1="352.08" x2="352.08" y1="510.00" y2="90.00" />
<line x1="308.00" x2="308.00" y1="510.00" y2="90.00" />
<line x1="265.34" x2="265.34" y1="510.00" y2="90.00" />
<line x1="221.26" x2="221.26" y1="510.00" y2="90.00" />
<line x1="181.45" x2="181.45" y1="510.00" y2="90.00" />
<line x1="150.00" x2="850.00" y1="510.00" y2="510.00" />
<line x1="150.00" x2="850.00" y1="216.29" y2="216.29" />
</g>
<g>
<text dominant-baseline="hanging" dx="-36.0" dy="18.0" fill="#0004" font-family="Arial, sans-serif" font-size="36" stroke="none" text-anchor="end" x="850.00" y="128.18">R02</text>
</g>
<g>
<text dominant-baseline="text-bottom" dy="-12.0" fill="black" font-family="Arial, sans-serif" font-size="18.0" font-style="italic" stroke="none" text-anchor="middle" x="500.00" y="90.00">Years 2023 to 2024</text>
</g>
<g>
<text dominant-baseline="central" dx="12.0" dy="12.0" fill="black" font-family="Arial, sans-serif" font-size="18.0" font-style="italic" stroke="none" text-anchor="middle" text-orientation="sideways" writing-mode="vertical-lr" x="850.00" y="300.00">log(Drips per day)</text>
</g>
<polyline fill="none" points="555.39,470.28 555.88,478.67 556.27,471.53 687.35,494.27 687.35,294.38 687.35,286.62 687.35,268.24 687.35,249.13 687.35,237.23 687.35,243.78 687.35,255.69 687.35,253.66 687.35,259.36 687.36,281.40 687.36,287.30 687.36,261.04 687.36,266.94 687.36,255.69 687.36,259.36 687.36,257.58 687.36,251.49 687.36,251.49 687.36,261.04 687.36,265.57 687.36,265.57 687.36,271.84 687.36,304.11 687.88,480.27 731.49,274.02 731.49,249.13 731.49,243.78 731.49,243.78 731.49,240.69 731.49,240.69 731.49,243.78 731.49,240.69 731.49,240.69 731.49,243.78 731.49,237.23 731.49,240.69 731.49,240.69 731.49,240.69 731.49,243.78 731.49,243.78 731.49,243.78 731.49,251.49 731.49,246.58 731.49,255.69 731.49,264.14 731.49,279.72 731.49,261.04 731.49,261.04 731.49,257.58 731.49,253.66 731.49,253.66 731.49,255.69 731.49,253.66 731.49,253.66 731.49,265.57 731.49,262.63 731.49,276.05 731.50,269.49 731.50,290.46 731.50,296.41 731.50,275.05 731.50,277.01 731.50,272.95 731.50,264.14 731.50,261.04 731.50,259.36 731.50,259.36 731.50,259.36 731.50,257.58 731.50,255.69 731.50,257.58 731.50,257.58 731.50,259.36 731.50,261.04 731.50,262.63 731.50,271.84 731.50,279.72 731.50,278.85 731.50,275.05 731.50,272.95 731.50,270.69 731.51,270.69 731.51,270.69 731.51,276.05 731.51,291.63 731.51,304.49 731.51,301.35 731.51,300.08 731.51,316.52 731.52,339.70 731.52,332.35 731.52,317.25 731.52,323.51 731.53,350.23 731.53,299.20 731.53,289.23 731.53,301.76 731.54,313.67 731.54,318.66 731.55,371.55 731.56,366.47 732.04,477.79 747.15,270.69 747.15,253.66 747.15,253.66 747.15,257.58 747.15,259.36 747.15,257.58 747.15,255.69 747.15,262.63 747.15,268.24 747.15,270.69 747.15,287.96 747.15,277.01 747.15,259.36 747.15,255.69 747.15,259.36 747.15,259.36 747.15,261.04 747.15,264.14 747.15,266.94 747.15,275.05 747.15,277.94 747.15,265.57 747.15,266.94 747.15,277.01 747.16,330.57 747.18,389.58 747.43,458.32 824.32,455.66 824.61,463.57 824.84,456.34 825.10,460.44 825.34,457.31 825.63,463.22 825.83,452.83 826.11,462.70 826.30,449.83 826.58,462.18 826.81,456.39 827.08,461.84 827.28,451.56 827.54,460.69 827.75,453.08 828.06,465.27 828.27,454.35 828.53,459.76 828.74,454.81 829.02,462.19 829.21,450.04 829.49,462.32 829.70,453.49 829.98,462.40 830.21,456.53 830.49,462.40 830.74,459.12 830.99,459.24 831.22,455.71 831.51,463.63 831.71,453.03 832.02,464.82 832.21,451.58 832.51,464.32 832.72,453.58 833.00,462.48 833.21,453.75 833.50,462.93 833.72,454.99 833.97,458.84 834.19,455.84 834.45,459.98 834.68,456.76 834.96,461.80 835.19,456.51 835.45,459.88 835.68,456.86 835.96,461.84 836.16,453.55 836.42,459.09 836.66,458.61 836.93,460.36 837.16,456.68 837.42,460.56 837.63,453.41 837.91,462.22 838.12,454.41 838.42,464.38 838.61,450.59 838.88,461.28 839.12,457.77 839.39,461.55 839.60,452.97 839.90,464.33 840.08,449.61 840.36,462.52 840.58,454.21 840.86,462.46 841.08,456.05 841.35,460.55 841.56,454.23 841.83,460.54 842.07,457.94 842.34,461.75 842.55,453.81 842.83,461.58 843.05,455.83 843.34,462.82 843.54,452.79 843.81,461.70 844.07,459.34 844.34,461.27 844.55,454.42 844.81,459.51 845.04,457.43 845.33,462.89 845.55,455.47 845.83,461.82 846.03,452.63 846.30,461.71 846.54,457.95 846.82,461.69 847.03,454.12 847.28,459.24 847.52,457.15 847.81,463.06 848.01,453.18 848.30,462.89 848.52,455.88 848.80,461.71 849.03,456.56 849.31,462.78 849.51,452.56 849.78,460.60 850.00,455.33" stroke-dasharray="3.6 3.6" stroke-width="3.6" stroke="#aaa" />
<g>
<circle cx="555.39" cy="470.28" r="1.6666666666666667" />
<circle cx="555.88" cy="478.67" r="1.6666666666666667" />
<circle cx="556.27" cy="471.53" r="1.6666666666666667" />
<circle cx="687.35" cy="494.27" r="1.6666666666666667" />
<circle cx="687.35" cy="294.38" r="1.6666666666666667" />
<circle cx="687.35" cy="286.62" r="1.6666666666666667" />
<circle cx="687.35" cy="268.24" r="1.6666666666666667" />
<circle cx="687.35" cy="249.13" r="1.6666666666666667" />
<circle cx="687.35" cy="237.23" r="1.6666666666666667" />
<circle cx="687.35" cy="243.78" r="1.6666666666666667" />
<circle cx="687.35" cy="255.69" r="1.6666666666666667" />
<circle cx="687.35" cy="253.66" r="1.6666666666666667" />
<circle cx="687.35" cy="259.36" r="1.6666666666666667" />
<circle cx="687.36" cy="281.40" r="1.6666666666666667" />
<circle cx="687.36" cy="287.30" r="1.6666666666666667" />
<circle cx="687.36" cy="261.04" r="1.6666666666666667" />
<circle cx="687.36" cy="266.94" r="1.6666666666666667" />
<circle cx="687.36" cy="255.69" r="1.6666666666666667" />
<circle cx="687.36" cy="259.36" r="1.6666666666666667" />
<circle cx="687.36" cy="257.58" r="1.6666666666666667" />
<circle cx="687.36" cy="251.49" r="1.6666666666666667" />
<circle cx="687.36" cy="251.49" r="1.6666666666666667" />
<circle cx="687.36" cy="261.04" r="1.6666666666666667" />
<circle cx="687.36" cy="265.57" r="1.6666666666666667" />
<circle cx="687.36" cy="265.57" r="1.6666666666666667" />
<circle cx="687.36" cy="271.84" r="1.6666666666666667" />
<circle cx="687.36" cy="304.11" r="1.6666666666666667" />
<circle cx="687.88" cy="480.27" r="1.6666666666666667" />
<circle cx="731.49" cy="274.02" r="1.6666666666666667" />
<circle cx="731.49" cy="249.13" r="1.6666666666666667" />
<circle cx="731.49" cy="243.78" r="1.6666666666666667" />
<circle cx="731.49" cy="243.78" r="1.6666666666666667" />
<circle cx="731.49" cy="240.69" r="1.6666666666666667" />
<circle cx="731.49" cy="240.69" r="1.6666666666666667" />
<circle cx="731.49" cy="243.78" r="1.6666666666666667" />
<circle cx="731.49" cy="240.69" r="1.6666666666666667" />
<circle cx="731.49" cy="240.69" r="1.6666666666666667" />
<circle cx="731.49" cy="243.78" r="1.6666666666666667" />
<circle cx="731.49" cy="237.23" r="1.6666666666666667" />
<circle cx="731.49" cy="240.69" r="1.6666666666666667" />
<circle cx="731.49" cy="240.69" r="1.6666666666666667" />
<circle cx="731.49" cy="240.69" r="1.6666666666666667" />
<circle cx="731.49" cy="243.78" r="1.6666666666666667" />
<circle cx="731.49" cy="243.78" r="1.6666666666666667" />
<circle cx="731.49" cy="243.78" r="1.6666666666666667" />
<circle cx="731.49" cy="251.49" r="1.6666666666666667" />
<circle cx="731.49" cy="246.58" r="1.6666666666666667" />
<circle cx="731.49" cy="255.69" r="1.6666666666666667" />
<circle cx="731.49" cy="264.14" r="1.6666666666666667" />
<circle cx="731.49" cy="279.72" r="1.6666666666666667" />
<circle cx="731.49" cy="261.04" r="1.6666666666666667" />
<circle cx="731.49" cy="261.04" r="1.6666666666666667" />
<circle cx="731.49" cy="257.58" r="1.6666666666666667" />
<circle cx="731.49" cy="253.66" r="1.6666666666666667" />
<circle cx="731.49" cy="253.66" r="1.6666666666666667" />
<circle cx="731.49" cy="255.69" r="1.6666666666666667" />
<circle cx="731.49" cy="253.66" r="1.6666666666666667" />
<circle cx="731.49" cy="253.66" r="1.6666666666666667" />
<circle cx="731.49" cy="265.57" r="1.6666666666666667" />
<circle cx="731.49" cy="262.63" r="1.6666666666666667" />
<circle cx="731.49" cy="276.05" r="1.6666666666666667" />
<circle cx="731.50" cy="269.49" r="1.6666666666666667" />
<circle cx="731.50" cy="290.46" r="1.6666666666666667" />
<circle cx="731.50" cy="296.41" r="1.6666666666666667" />
<circle cx="731.50" cy="275.05" r="1.6666666666666667" />
<circle cx="731.50" cy="277.01" r="1.6666666666666667" />
<circle cx="731.50" cy="272.95" r="1.6666666666666667" />
<circle cx="731.50" cy="264.14" r="1.6666666666666667" />
<circle cx="731.50" cy="261.04" r="1.6666666666666667" />
<circle cx="731.50" cy="259.36" r="1.6666666666666667" />
<circle cx="731.50" cy="259.36" r="1.6666666666666667" />
<circle cx="731.50" cy="259.36" r="1.6666666666666667" />
<circle cx="731.50" cy="257.58" r="1.6666666666666667" />
<circle cx="731.50" cy="255.69" r="1.6666666666666667" />
<circle cx="731.50" cy="257.58" r="1.6666666666666667" />
<circle cx="731.50" cy="257.58" r="1.6666666666666667" />
<circle cx="731.50" cy="259.36" r="1.6666666666666667" />
<circle cx="731.50" cy="261.04" r="1.6666666666666667" />
<circle cx="731.50" cy="262.63" r="1.6666666666666667" />
<circle cx="731.50" cy="271.84" r="1.6666666666666667" />
<circle cx="731.50" cy="279.72" r="1.6666666666666667" />
<circle cx="731.50" cy="278.85" r="1.6666666666666667" />
<circle cx="731.50" cy="275.05" r="1.6666666666666667" />
<circle cx="731.50" cy="272.95" r="1.6666666666666667" />
<circle cx="731.50" cy="270.69" r="1.6666666666666667" />
<circle cx="731.51" cy="270.69" r="1.6666666666666667" />
<circle cx="731.51" cy="270.69" r="1.6666666666666667" />
<circle cx="731.51" cy="276.05" r="1.6666666666666667" />
<circle cx="731.51" cy="291.63" r="1.6666666666666667" />
<circle cx="731.51" cy="304.49" r="1.6666666666666667" />
<circle cx="731.51" cy="301.35" r="1.6666666666666667" />
<circle cx="731.51" cy="300.08" r="1.6666666666666667" />
<circle cx="731.51" cy="316.52" r="1.6666666666666667" />
<circle cx="731.52" cy="339.70" r="1.6666666666666667" />
<circle cx="731.52" cy="332.35" r="1.6666666666666667" />
<circle cx="731.52" cy="317.25" r="1.6666666666666667" />
<circle cx="731.52" cy="323.51" r="1.6666666666666667" />
<circle cx="731.53" cy="350.23" r="1.6666666666666667" />
<circle cx="731.53" cy="299.20" r="1.6666666666666667" />
<circle cx="731.53" cy="289.23" r="1.6666666666666667" />
<circle cx="731.53" cy="301.76" r="1.6666666666666667" />
<circle cx="731.54" cy="313.67" r="1.6666666666666667" />
<circle cx="731.54" cy="318.66" r="1.6666666666666667" />
<circle cx="731.55" cy="371.55" r="1.6666666666666667" />
<circle cx="731.56" cy="366.47" r="1.6666666666666667" />
<circle cx="732.04" cy="477.79" r="1.6666666666666667" />
<circle cx="747.15" cy="270.69" r="1.6666666666666667" />
<circle cx="747.15" cy="253.66" r="1.6666666666666667" />
<circle cx="747.15" cy="253.66" r="1.6666666666666667" />
<circle cx="747.15" cy="257.58" r="1.6666666666666667" />
<circle cx="747.15" cy="259.36" r="1.6666666666666667" />
<circle cx="747.15" cy="257.58" r="1.6666666666666667" />
<circle cx="747.15" cy="255.69" r="1.6666666666666667" />
<circle cx="747.15" cy="262.63" r="1.6666666666666667" />
<circle cx="747.15" cy="268.24" r="1.6666666666666667" />
<circle cx="747.15" cy="270.69" r="1.6666666666666667" />
<circle cx="747.15" cy="287.96" r="1.6666666666666667" />
<circle cx="747.15" cy="277.01" r="1.6666666666666667" />
<circle cx="747.15" cy="259.36" r="1.6666666666666667" />
<circle cx="747.15" cy="255.69" r="1.6666666666666667" />
<circle cx="747.15" cy="259.36" r="1.6666666666666667" />
<circle cx="747.15" cy="259.36" r="1.6666666666666667" />
<circle cx="747.15" cy="261.04" r="1.6666666666666667" />
<circle cx="747.15" cy="264.14" r="1.6666666666666667" />
<circle cx="747.15" cy="266.94" r="1.6666666666666667" />
<circle cx="747.15" cy="275.05" r="1.6666666666666667" />
<circle cx="747.15" cy="277.94" r="1.6666666666666667" />
<circle cx="747.15" cy="265.57" r="1.6666666666666667" />
<circle cx="747.15" cy="266.94" r="1.6666666666666667" />
<circle cx="747.15" cy="277.01" r="1.6666666666666667" />
<circle cx="747.16" cy="330.57" r="1.6666666666666667" />
<circle cx="747.18" cy="389.58" r="1.6666666666666667" />
<circle cx="747.43" cy="458.32" r="1.6666666666666667" />
<circle cx="824.32" cy="455.66" r="1.6666666666666667" />
<circle cx="824.61" cy="463.57" r="1.6666666666666667" />
<circle cx="824.84" cy="456.34" r="1.6666666666666667" />
<circle cx="825.10" cy="460.44" r="1.6666666666666667" />
<circle cx="825.34" cy="457.31" r="1.6666666666666667" />
<circle cx="825.63" cy="463.22" r="1.6666666666666667" />
<circle cx="825.83" cy="452.83" r="1.6666666666666667" />
<circle cx="826.11" cy="462.70" r="1.6666666666666667" />
<circle cx="826.30" cy="449.83" r="1.6666666666666667" />
<circle cx="826.58" cy="462.18" r="1.6666666666666667" />
<circle cx="826.81" cy="456.39" r="1.6666666666666667" />
<circle cx="827.08" cy="461.84" r="1.6666666666666667" />
<circle cx="827.28" cy="451.56" r="1.6666666666666667" />
<circle cx="827.54" cy="460.69" r="1.6666666666666667" />
<circle cx="827.75" cy="453.08" r="1.6666666666666667" />
<circle cx="828.06" cy="465.27" r="1.6666666666666667" />
<circle cx="828.27" cy="454.35" r="1.6666666666666667" />
<circle cx="828.53" cy="459.76" r="1.6666666666666667" />
<circle cx="828.74" cy="454.81" r="1.6666666666666667" />
<circle cx="829.02" cy="462.19" r="1.6666666666666667" />
<circle cx="829.21" cy="450.04" r="1.6666666666666667" />
<circle cx="829.49" cy="462.32" r="1.6666666666666667" />
<circle cx="829.70" cy="453.49" r="1.6666666666666667" />
<circle cx="829.98" cy="462.40" r="1.6666666666666667" />
<circle cx="830.21" cy="456.53" r="1.6666666666666667" />
<circle cx="830.49" cy="462.40" r="1.6666666666666667" />
<circle cx="830.74" cy="459.12" r="1.6666666666666667" />
<circle cx="830.99" cy="459.24" r="1.6666666666666667" />
<circle cx="831.22" cy="455.71" r="1.6666666666666667" />
<circle cx="831.51" cy="463.63" r="1.6666666666666667" />
<circle cx="831.71" cy="453.03" r="1.6666666666666667" />
<circle cx="832.02" cy="464.82" r="1.6666666666666667" />
<circle cx="832.21" cy="451.58" r="1.6666666666666667" />
<circle cx="832.51" cy="464.32" r="1.6666666666666667" />
<circle cx="832.72" cy="453.58" r="1.6666666666666667" />
<circle cx="833.00" cy="462.48" r="1.6666666666666667" />
<circle cx="833.21" cy="453.75" r="1.6666666666666667" />
<circle cx="833.50" cy="462.93" r="1.6666666666666667" />
<circle cx="833.72" cy="454.99" r="1.6666666666666667" />
<circle cx="833.97" cy="458.84" r="1.6666666666666667" />
<circle cx="834.19" cy="455.84" r="1.6666666666666667" />
<circle cx="834.45" cy="459.98" r="1.6666666666666667" />
<circle cx="834.68" cy="456.76" r="1.6666666666666667" />
<circle cx="834.96" cy="461.80" r="1.6666666666666667" />
<circle cx="835.19" cy="456.51" r="1.6666666666666667" />
<circle cx="835.45" cy="459.88" r="1.6666666666666667" />
<circle cx="835.68" cy="456.86" r="1.6666666666666667" />
<circle cx="835.96" cy="461.84" r="1.6666666666666667" />
<circle cx="836.16" cy="453.55" r="1.6666666666666667" />
<circle cx="836.42" cy="459.09" r="1.6666666666666667" />
<circle cx="836.66" cy="458.61" r="1.6666666666666667" />
<circle cx="836.93" cy="460.36" r="1.6666666666666667" />
<circle cx="837.16" cy="456.68" r="1.6666666666666667" />
<circle cx="837.42" cy="460.56" r="1.6666666666666667" />
<circle cx="837.63" cy="453.41" r="1.6666666666666667" />
<circle cx="837.91" cy="462.22" r="1.6666666666666667" />
<circle cx="838.12" cy="454.41" r="1.6666666666666667" />
<circle cx="838.42" cy="464.38" r="1.6666666666666667" />
<circle cx="838.61" cy="450.59" r="1.6666666666666667" />
<circle cx="838.88" cy="461.28" r="1.6666666666666667" />
<circle cx="839.12" cy="457.77" r="1.6666666666666667" />
<circle cx="839.39" cy="461.55" r="1.6666666666666667" />
<circle cx="839.60" cy="452.97" r="1.6666666666666667" />
<circle cx="839.90" cy="464.33" r="1.6666666666666667" />
<circle cx="840.08" cy="449.61" r="1.6666666666666667" />
<circle cx="840.36" cy="462.52" r="1.6666666666666667" />
<circle cx="840.58" cy="454.21" r="1.6666666666666667" />
<circle cx="840.86" cy="462.46" r="1.6666666666666667" />
<circle cx="841.08" cy="456.05" r="1.6666666666666667" />
<circle cx="841.35" cy="460.55" r="1.6666666666666667" />
<circle cx="841.56" cy="454.23" r="1.6666666666666667" />
<circle cx="841.83" cy="460.54" r="1.6666666666666667" />
<circle cx="842.07" cy="457.94" r="1.6666666666666667" />
<circle cx="842.34" cy="461.75" r="1.6666666666666667" />
<circle cx="842.55" cy="453.81" r="1.6666666666666667" />
<circle cx="842.83" cy="461.58" r="1.6666666666666667" />
<circle cx="843.05" cy="455.83" r="1.6666666666666667" />
<circle cx="843.34" cy="462.82" r="1.6666666666666667" />
<circle cx="843.54" cy="452.79" r="1.6666666666666667" />
<circle cx="843.81" cy="461.70" r="1.6666666666666667" />
<circle cx="844.07" cy="459.34" r="1.6666666666666667" />
<circle cx="844.34" cy="461.27" r="1.6666666666666667" />
<circle cx="844.55" cy="454.42" r="1.6666666666666667" />
<circle cx="844.81" cy="459.51" r="1.6666666666666667" />
<circle cx="845.04" cy="457.43" r="1.6666666666666667" />
<circle cx="845.33" cy="462.89" r="1.6666666666666667" />
<circle cx="845.55" cy="455.47" r="1.6666666666666667" />
<circle cx="845.83" cy="461.82" r="1.6666666666666667" />
<circle cx="846.03" cy="452.63" r="1.6666666666666667" />
<circle cx="846.30" cy="461.71" r="1.6666666666666667" />
<circle cx="846.54" cy="457.95" r="1.6666666666666667" />
<circle cx="846.82" cy="461.69" r="1.6666666666666667" />
<circle cx="847.03" cy="454.12" r="1.6666666666666667" />
<circle cx="847.28" cy="459.24" r="1.6666666666666667" />
<circle cx="847.52" cy="457.15" r="1.6666666666666667" />
<circle cx="847.81" cy="463.06" r="1.6666666666666667" />
<circle cx="848.01" cy="453.18" r="1.6666666666666667" />
<circle cx="848.30" cy="462.89" r="1.6666666666666667" />
<circle cx="848.52" cy="455.88" r="1.6666666666666667" />
<circle cx="848.80" cy="461.71" r="1.6666666666666667" />
<circle cx="849.03" cy="456.56" r="1.6666666666666667" />
<circle cx="849.31" cy="462.78" r="1.6666666666666667" />
<circle cx="849.51" cy="452.56" r="1.6666666666666667" />
<circle cx="849.78" cy="460.60" r="1.6666666666666667" />
<circle cx="850.00" cy="455.33" r="1.6666666666666667" />
</g>
<g stroke="black">
<line x1="828.41" x2="828.41" y1="510.00" y2="520.00" />
<line x1="785.75" x2="785.75" y1="510.00" y2="520.00" />
<line x1="741.68" x2="741.68" y1="510.00" y2="520.00" />
<line x1="700.44" x2="700.44" y1="510.00" y2="520.00" />
<line x1="656.36" x2="656.36" y1="510.00" y2="520.00" />
<line x1="612.28" x2="612.28" y1="510.00" y2="520.00" />
<line x1="569.63" x2="569.63" y1="510.00" y2="520.00" />
<line x1="525.55" x2="525.55" y1="510.00" y2="520.00" />
<line x1="482.89" x2="482.89" y1="510.00" y2="520.00" />
<line x1="438.81" x2="438.81" y1="510.00" y2="520.00" />
<line x1="394.73" x2="394.73" y1="510.00" y2="520.00" />
<line x1="352.08" x2="352.08" y1="510.00" y2="520.00" />
<line x1="308.00" x2="308.00" y1="510.00" y2="520.00" />
<line x1="265.34" x2="265.34" y1="510.00" y2="520.00" />
<line x1="221.26" x2="221.26" y1="510.00" y2="520.00" />
<line x1="181.45" x2="181.45" y1="510.00" y2="520.00" />
<g fill="black" font-family="Arial, sans-serif" font-size="18.0" stroke="none" text-anchor="start" transform="translate(9.0 0.0)">
<text x="828.41" y="530.57">May</text>
<text x="785.75" y="530.57">Apr</text>
<text x="741.68" y="530.57">Mar</text>
<text x="700.44" y="530.57">Feb</text>
<text x="656.36" y="530.57">Jan</text>
<text x="612.28" y="530.57">Dec</text>
<text x="569.63" y="530.57">Nov</text>
<text x="525.55" y="530.57">Oct</text>
<text x="482.89" y="530.57">Sep</text>
<text x="438.81" y="530.57">Aug</text>
<text x="394.73" y="530.57">Jul</text>
<text x="352.08" y="530.57">Jun</text>
<text x="308.00" y="530.57">May</text>
<text x="265.34" y="530.57">Apr</text>
<text x="221.26" y="530.57">Mar</text>
<text x="181.45" y="530.57">Feb</text>
</g>
<line x1="150.00" x2="850.00" y1="510.00" y2="510.00" />
</g>
<g stroke="black">
<line x1="150.00" x2="140.00" y1="510.00" y2="510.00" />
<line x1="150.00" x2="140.00" y1="216.29" y2="216.29" />
<g fill="black" font-family="Arial, sans-serif" font-size="18.0" stroke="none" text-anchor="end">
<text x="141.00" y="501.00">0</text>
<text x="141.00" y="207.29">10</text>
</g>
<line x1="150.00" x2="150.00" y1="510.00" y2="90.00" />
</g>
</g>
</svg>