<?xml version="1.0"?>
<svg version="1.1" viewBox="0 0 1000 600" xmlns:xlink="http://www.w3.org/1999/xlink" xmlns="http://www.w3.org/2000/svg">
<g>
<g stroke-dasharray="3.6 7.2" stroke-width="0.72" stroke="#caa">
<line x1="839.86" x2="839.86" y1="510.00" y2="90.00" />
<line x1="791.78" x2="791.78" y1="510.00" y2="90.00" />
<line x1="740.39" x2="740.39" y1="510.00" y2="90.00" />
<line x1="689.00" x2="689.00" y1="510.00" y2="90.00" />
<line x1="639.26" x2="639.26" y1="510.00" y2="90.00" />
<line x1="587.87" x2="587.87" y1="510.00" y2="90.00" />
<line x1="538.13" x2="538.13" y1="510.00" y2="90.00" />
<line x1="486.74" x2="486.74" y1="510.00" y2="90.00" />
<line x1="435.35" x2="435.35" y1="510.00" y2="90.00" />
<line x1="385.61" x2="385.61" y1="510.00" y2="90.00" />
<line x1="334.22" x2="334.22" y1="510.00" y2="90.00" />
<line x1="284.48" x2="284.48" y1="510.00" y2="90.00" />
<line x1="233.09" x2="233.09" y1="510.00" y2="90.00" />
<line x1="186.67" x2="186.67" y1="510.00" y2="90.00" />
<line x1="150.00" x2="850.00" y1="510.00" y2="510.00" />
<line x1="150.00" x2="850.00" y1="216.29" y2="216.29" />
</g>
<g>
<text dominant-baseline="hanging" dx="-36.0" dy="18.0" fill="#0004" font-family="Arial, sans-serif" font-size="36" stroke="none" text-anchor="end" x="850.00" y="128.18">R02</text>
</g>
<g>
<text dominant-baseline="text-bottom" dy="-12.0" fill="black" font-family="Arial, sans-serif" font-size="18.0" font-style="italic" stroke="none" text-anchor="middle" x="500.00" y="90.00">Years 2023 to 2024</text>
</g>
<g>
<text dominant-baseline="central" dx="12.0" dy="12.0" fill="black" font-family="Arial, sans-serif" font-size="18.0" font-style="italic" stroke="none" text-anchor="middle" text-orientation="sideways" writing-mode="vertical-lr" x="850.00" y="300.00">log(Drips per day)</text>
</g>
<polyline fill="none" points="622.66,470.28 623.23,478.67 623.68,471.53 776.52,494.27 776.52,294.38 776.52,286.62 776.52,268.24 776.52,249.13 776.52,237.23 776.52,243.78 776.52,255.69 776.52,253.66 776.52,259.36 776.53,281.40 776.53,287.30 776.53,261.04 776.53,266.94 776.53,255.69 776.53,259.36 776.53,257.58 776.53,251.49 776.53,251.49 776.53,261.04 776.53,265.57 776.53,265.57 776.53,271.84 776.53,304.11 777.13,480.27 827.98,274.02 827.98,249.13 827.98,243.78 827.98,243.78 827.98,240.69 827.98,240.69 827.98,243.78 827.98,240.69 827.98,240.69 827.98,243.78 827.98,237.23 827.98,240.69 827.98,240.69 827.98,240.69 827.98,243.78 827.98,243.78 827.98,243.78 827.98,251.49 827.98,246.58 827.98,255.69 827.99,264.14 827.99,279.72 827.99,261.04 827.99,261.04 827.99,257.58 827.99,253.66 827.99,253.66 827.99,255.69 827.99,253.66 827.99,253.66 827.99,265.57 827.99,262.63 827.99,276.05 827.99,269.49 827.99,290.46 827.99,296.41 827.99,275.05 827.99,277.01 827.99,272.95 827.99,264.14 827.99,261.04 827.99,259.36 828.00,259.36 828.00,259.36 828.00,257.58 828.00,255.69 828.00,257.58 828.00,257.58 828.00,259.36 828.00,261.04 828.00,262.63 828.00,271.84 828.00,279.72 828.00,278.85 828.00,275.05 828.00,272.95 828.00,270.69 828.00,270.69 828.00,270.69 828.00,276.05 828.00,291.63 828.01,304.49 828.01,301.35 828.01,300.08 828.01,316.52 828.01,339.70 828.02,332.35 828.02,317.25 828.02,323.51 828.03,350.23 828.03,299.20 828.03,289.23 828.03,301.76 828.04,313.67 828.04,318.66 828.05,371.55 828.07,366.47 828.62,477.79 846.24,270.69 846.24,253.66 846.24,253.66 846.24,257.58 846.24,259.36 846.24,257.58 846.24,255.69 846.24,262.63 846.24,268.24 846.24,270.69 846.24,287.96 846.24,277.01 846.24,259.36 846.24,255.69 846.24,259.36 846.24,259.36 846.24,261.04 846.24,264.14 846.24,266.94 846.24,275.05 846.24,277.94 846.25,265.57 846.25,266.94 846.25,277.01 846.25,330.57 846.28,389.58 846.56,458.32" stroke-dasharray="3.6 3.6" stroke-width="3.6" stroke="#aaa" />
<g>
<circle cx="622.66" cy="470.28" r="1.6666666666666667" />
<circle cx="623.23" cy="478.67" r="1.6666666666666667" />
<circle cx="623.68" cy="471.53" r="1.6666666666666667" />
<circle cx="776.52" cy="494.27" r="1.6666666666666667" />
<circle cx="776.52" cy="294.38" r="1.6666666666666667" />
<circle cx="776.52" cy="286.62" r="1.6666666666666667" />
<circle cx="776.52" cy="268.24" r="1.6666666666666667" />
<circle cx="776.52" cy="249.13" r="1.6666666666666667" />
<circle cx="776.52" cy="237.23" r="1.6666666666666667" />
<circle cx="776.52" cy="243.78" r="1.6666666666666667" />
<circle cx="776.52" cy="255.69" r="1.6666666666666667" />
<circle cx="776.52" cy="253.66" r="1.6666666666666667" />
<circle cx="776.52" cy="259.36" r="1.6666666666666667" />
<circle cx="776.53" cy="281.40" r="1.6666666666666667" />
<circle cx="776.53" cy="287.30" r="1.6666666666666667" />
<circle cx="776.53" cy="261.04" r="1.6666666666666667" />
<circle cx="776.53" cy="266.94" r="1.6666666666666667" />
<circle cx="776.53" cy="255.69" r="1.6666666666666667" />
<circle cx="776.53" cy="259.36" r="1.6666666666666667" />
<circle cx="776.53" cy="257.58" r="1.6666666666666667" />
<circle cx="776.53" cy="251.49" r="1.6666666666666667" />
<circle cx="776.53" cy="251.49" r="1.6666666666666667" />
<circle cx="776.53" cy="261.04" r="1.6666666666666667" />
<circle cx="776.53" cy="265.57" r="1.6666666666666667" />
<circle cx="776.53" cy="265.57" r="1.6666666666666667" />
<circle cx="776.53" cy="271.84" r="1.6666666666666667" />
<circle cx="776.53" cy="304.11" r="1.6666666666666667" />
<circle cx="777.13" cy="480.27" r="1.6666666666666667" />
<circle cx="827.98" cy="274.02" r="1.6666666666666667" />
<circle cx="827.98" cy="249.13" r="1.6666666666666667" />
<circle cx="827.98" cy="243.78" r="1.6666666666666667" />
<circle cx="827.98" cy="243.78" r="1.6666666666666667" />
<circle cx="827.98" cy="240.69" r="1.6666666666666667" />
<circle cx="827.98" cy="240.69" r="1.6666666666666667" />
<circle cx="827.98" cy="243.78" r="1.6666666666666667" />
<circle cx="827.98" cy="240.69" r="1.6666666666666667" />
<circle cx="827.98" cy="240.69" r="1.6666666666666667" />
<circle cx="827.98" cy="243.78" r="1.6666666666666667" />
<circle cx="827.98" cy="237.23" r="1.6666666666666667" />
<circle cx="827.98" cy="240.69" r="1.6666666666666667" />
<circle cx="827.98" cy="240.69" r="1.6666666666666667" />
<circle cx="827.98" cy="240.69" r="1.6666666666666667" />
<circle cx="827.98" cy="243.78" r="1.6666666666666667" />
<circle cx="827.98" cy="243.78" r="1.6666666666666667" />
<circle cx="827.98" cy="243.78" r="1.6666666666666667" />
<circle cx="827.98" cy="251.49" r="1.6666666666666667" />
<circle cx="827.98" cy="246.58" r="1.6666666666666667" />
<circle cx="827.98" cy="255.69" r="1.6666666666666667" />
<circle cx="827.99" cy="264.14" r="1.6666666666666667" />
<circle cx="827.99" cy="279.72" r="1.6666666666666667" />
<circle cx="827.99" cy="261.04" r="1.6666666666666667" />
<circle cx="827.99" cy="261.04" r="1.6666666666666667" />
<circle cx="827.99" cy="257.58" r="1.6666666666666667" />
<circle cx="827.99" cy="253.66" r="1.6666666666666667" />
<circle cx="827.99" cy="253.66" r="1.6666666666666667" />
<circle cx="827.99" cy="255.69" r="1.6666666666666667" />
<circle cx="827.99" cy="253.66" r="1.6666666666666667" />
<circle cx="827.99" cy="253.66" r="1.6666666666666667" />
<circle cx="827.99" cy="265.57" r="1.6666666666666667" />
<circle cx="827.99" cy="262.63" r="1.6666666666666667" />
<circle cx="827.99" cy="276.05" r="1.6666666666666667" />
<circle cx="827.99" cy="269.49" r="1.6666666666666667" />
<circle cx="827.99" cy="290.46" r="1.6666666666666667" />
<circle cx="827.99" cy="296.41" r="1.6666666666666667" />
<circle cx="827.99" cy="275.05" r="1.6666666666666667" />
<circle cx="827.99" cy="277.01" r="1.6666666666666667" />
<circle cx="827.99" cy="272.95" r="1.6666666666666667" />
<circle cx="827.99" cy="264.14" r="1.6666666666666667" />
<circle cx="827.99" cy="261.04" r="1.6666666666666667" />
<circle cx="827.99" cy="259.36" r="1.6666666666666667" />
<circle cx="828.00" cy="259.36" r="1.6666666666666667" />
<circle cx="828.00" cy="259.36" r="1.6666666666666667" />
<circle cx="828.00" cy="257.58" r="1.6666666666666667" />
<circle cx="828.00" cy="255.69" r="1.6666666666666667" />
<circle cx="828.00" cy="257.58" r="1.6666666666666667" />
<circle cx="828.00" cy="257.58" r="1.6666666666666667" />
<circle cx="828.00" cy="259.36" r="1.6666666666666667" />
<circle cx="828.00" cy="261.04" r="1.6666666666666667" />
<circle cx="828.00" cy="262.63" r="1.6666666666666667" />
<circle cx="828.00" cy="271.84" r="1.6666666666666667" />
<circle cx="828.00" cy="279.72" r="1.6666666666666667" />
<circle cx="828.00" cy="278.85" r="1.6666666666666667" />
<circle cx="828.00" cy="275.05" r="1.6666666666666667" />
<circle cx="828.00" cy="272.95" r="1.6666666666666667" />
<circle cx="828.00" cy="270.69" r="1.6666666666666667" />
<circle cx="828.00" cy="270.69" r="1.6666666666666667" />
<circle cx="828.00" cy="270.69" r="1.6666666666666667" />
<circle cx="828.00" cy="276.05" r="1.6666666666666667" />
<circle cx="828.00" cy="291.63" r="1.6666666666666667" />
<circle cx="828.01" cy="304.49" r="1.6666666666666667" />
<circle cx="828.01" cy="301.35" r="1.6666666666666667" />
<circle cx="828.01" cy="300.08" r="1.6666666666666667" />
<circle cx="828.01" cy="316.52" r="1.6666666666666667" />
<circle cx="828.01" cy="339.70" r="1.6666666666666667" />
<circle cx="828.02" cy="332.35" r="1.6666666666666667" />
<circle cx="828.02" cy="317.25" r="1.6666666666666667" />
<circle cx="828.02" cy="323.51" r="1.6666666666666667" />
<circle cx="828.03" cy="350.23" r="1.6666666666666667" />
<circle cx="828.03" cy="299.20" r="1.6666666666666667" />
<circle cx="828.03" cy="289.23" r="1.6666666666666667" />
<circle cx="828.03" cy="301.76" r="1.6666666666666667" />
<circle cx="828.04" cy="313.67" r="1.6666666666666667" />
<circle cx="828.04" cy="318.66" r="1.6666666666666667" />
<circle cx="828.05" cy="371.55" r="1.6666666666666667" />
<circle cx="828.07" cy="366.47" r="1.6666666666666667" />
<circle cx="828.62" cy="477.79" r="1.6666666666666667" />
<circle cx="846.24" cy="270.69" r="1.6666666666666667" />
<circle cx="846.24" cy="253.66" r="1.6666666666666667" />
<circle cx="846.24" cy="253.66" r="1.6666666666666667" />
<circle cx="846.24" cy="257.58" r="1.6666666666666667" />
<circle cx="846.24" cy="259.36" r="1.6666666666666667" />
<circle cx="846.24" cy="257.58" r="1.6666666666666667" />
<circle cx="846.24" cy="255.69" r="1.6666666666666667" />
<circle cx="846.24" cy="262.63" r="1.6666666666666667" />
<circle cx="846.24" cy="268.24" r="1.6666666666666667" />
<circle cx="846.24" cy="270.69" r="1.6666666666666667" />
<circle cx="846.24" cy="287.96" r="1.6666666666666667" />
<circle cx="846.24" cy="277.01" r="1.6666666666666667" />
<circle cx="846.24" cy="259.36" r="1.6666666666666667" />
<circle cx="846.24" cy="255.69" r="1.6666666666666667" />
<circle cx="846.24" cy="259.36" r="1.6666666666666667" />
<circle cx="846.24" cy="259.36" r="1.6666666666666667" />
<circle cx="846.24" cy="261.04" r="1.6666666666666667" />
<circle cx="846.24" cy="264.14" r="1.6666666666666667" />
<circle cx="846.24" cy="266.94" r="1.6666666666666667" />
<circle cx="846.24" cy="275.05" r="1.6666666666666667" />
<circle cx="846.24" cy="277.94" r="1.6666666666666667" />
<circle cx="846.25" cy="265.57" r="1.6666666666666667" />
<circle cx="846.25" cy="266.94" r="1.6666666666666667" />
<circle cx="846.25" cy="277.01" r="1.6666666666666667" />
<circle cx="846.25" cy="330.57" r="1.6666666666666667" />
<circle cx="846.28" cy="389.58" r="1.6666666666666667" />
<circle cx="846.56" cy="458.32" r="1.6666666666666667" />
</g>
<g stroke="black">
<line x1="839.86" x2="839.86" y1="510.00" y2="520.00" />
<line x1="791.78" x2="791.78" y1="510.00" y2="520.00" />
<line x1="740.39" x2="740.39" y1="510.00" y2="520.00" />
<line x1="689.00" x2="689.00" y1="510.00" y2="520.00" />
<line x1="639.26" x2="639.26" y1="510.00" y2="520.00" />
<line x1="587.87" x2="587.87" y1="510.00" y2="520.00" />
<line x1="538.13" x2="538.13" y1="510.00" y2="520.00" />
<line x1="486.74" x2="486.74" y1="510.00" y2="520.00" />
<line x1="435.35" x2="435.35" y1="510.00" y2="520.00" />
<line x1="385.61" x2="385.61" y1="510.00" y2="520.00" />
<line x1="334.22" x2="334.22" y1="510.00" y2="520.00" />
<line x1="284.48" x2="284.48" y1="510.00" y2="520.00" />
<line x1="233.09" x2="233.09" y1="510.00" y2="520.00" />
<line x1="186.67" x2="186.67" y1="510.00" y2="520.00" />
<g fill="black" font-family="Arial, sans-serif" font-size="18.0" stroke="none" text-anchor="start" transform="translate(9.0 0.0)">
<text x="839.86" y="530.57">Mar</text>
<text x="791.78" y="530.57">Feb</text>
<text x="740.39" y="530.57">Jan</text>
<text x="689.00" y="530.57">Dec</text>
<text x="639.26" y="530.57">Nov</text>
<text x="587.87" y="530.57">Oct</text>
<text x="538.13" y="530.57">Sep</text>
<text x="486.74" y="530.57">Aug</text>
<text x="435.35" y="530.57">Jul</text>
<text x="385.61" y="530.57">Jun</text>
<text x="334.22" y="530.57">May</text>
<text x="284.48" y="530.57">Apr</text>
<text x="233.09" y="530.57">Mar</text>
<text x="186.67" y="530.57">Feb</text>
</g>
<line x1="150.00" x2="850.00" y1="510.00" y2="510.00" />
</g>
<g stroke="black">
<line x1="150.00" x2="140.00" y1="510.00" y2="510.00" />
<line x1="150.00" x2="140.00" y1="216.29" y2="216.29" />
<g fill="black" font-family="Arial, sans-serif" font-size="18.0" stroke="none" text-anchor="end">
<text x="141.00" y="501.00">0</text>
<text x="141.00" y="207.29">10</text>
</g>
<line x1="150.00" x2="150.00" y1="510.00" y2="90.00" />
</g>
</g>
</svg>