<?xml version="1.0"?>
<svg version="1.1" viewBox="0 0 1000 600" xmlns:xlink="http://www.w3.org/1999/xlink" xmlns="http://www.w3.org/2000/svg">
<g>
<g stroke-dasharray="3.6 7.2" stroke-width="0.72" stroke="#caa">
<line x1="158.12" x2="158.12" y1="510.00" y2="90.00" />
<line x1="245.07" x2="245.07" y1="510.00" y2="90.00" />
<line x1="332.02" x2="332.02" y1="510.00" y2="90.00" />
<line x1="418.97" x2="418.97" y1="510.00" y2="90.00" />
<line x1="505.93" x2="505.93" y1="510.00" y2="90.00" />
<line x1="592.88" x2="592.88" y1="510.00" y2="90.00" />
<line x1="679.83" x2="679.83" y1="510.00" y2="90.00" />
<line x1="766.79" x2="766.79" y1="510.00" y2="90.00" />
<line x1="150.00" x2="850.00" y1="510.00" y2="510.00" />
<line x1="150.00" x2="850.00" y1="156.46" y2="156.46" />
</g>
<g>
<text dominant-baseline="hanging" dx="-36.0" dy="18.0" fill="#0004" font-family="Arial, sans-serif" font-size="36" stroke="none" text-anchor="end" x="850.00" y="128.18">R02</text>
</g>
<g>
<text dominant-baseline="text-bottom" dy="-12.0" fill="black" font-family="Arial, sans-serif" font-size="18.0" font-style="italic" stroke="none" text-anchor="middle" x="500.00" y="90.00">Days since start</text>
</g>
<g>
<text dominant-baseline="central" dx="12.0" dy="12.0" fill="black" font-family="Arial, sans-serif" font-size="18.0" font-style="italic" stroke="none" text-anchor="middle" text-orientation="sideways" writing-mode="vertical-lr" x="850.00" y="300.00">Drips per day</text>
</g>
<polyline fill="none" points="150.00,509.86 152.59,509.90 154.61,509.87 847.22,509.94 847.23,455.45 847.23,438.96 847.23,377.19 847.23,255.45 847.23,128.18 847.23,204.54 847.24,306.36 847.24,291.82 847.24,330.32 847.24,425.15 847.25,440.58 847.25,340.30 847.25,371.16 847.25,306.36 847.25,330.32 847.25,319.09 847.25,275.03 847.26,275.03 847.26,340.30 847.26,364.54 847.26,364.54 847.26,392.52 847.27,470.84 850.00,509.90" stroke-dasharray="3.6 3.6" stroke-width="3.6" stroke="#aaa" />
<g>
<circle cx="150.00" cy="509.86" r="1.6666666666666667" />
<circle cx="152.59" cy="509.90" r="1.6666666666666667" />
<circle cx="154.61" cy="509.87" r="1.6666666666666667" />
<circle cx="847.22" cy="509.94" r="1.6666666666666667" />
<circle cx="847.23" cy="455.45" r="1.6666666666666667" />
<circle cx="847.23" cy="438.96" r="1.6666666666666667" />
<circle cx="847.23" cy="377.19" r="1.6666666666666667" />
<circle cx="847.23" cy="255.45" r="1.6666666666666667" />
<circle cx="847.23" cy="128.18" r="1.6666666666666667" />
<circle cx="847.23" cy="204.54" r="1.6666666666666667" />
<circle cx="847.24" cy="306.36" r="1.6666666666666667" />
<circle cx="847.24" cy="291.82" r="1.6666666666666667" />
<circle cx="847.24" cy="330.32" r="1.6666666666666667" />
<circle cx="847.24" cy="425.15" r="1.6666666666666667" />
<circle cx="847.25" cy="440.58" r="1.6666666666666667" />
<circle cx="847.25" cy="340.30" r="1.6666666666666667" />
<circle cx="847.25" cy="371.16" r="1.6666666666666667" />
<circle cx="847.25" cy="306.36" r="1.6666666666666667" />
<circle cx="847.25" cy="330.32" r="1.6666666666666667" />
<circle cx="847.25" cy="319.09" r="1.6666666666666667" />
<circle cx="847.25" cy="275.03" r="1.6666666666666667" />
<circle cx="847.26" cy="275.03" r="1.6666666666666667" />
<circle cx="847.26" cy="340.30" r="1.6666666666666667" />
<circle cx="847.26" cy="364.54" r="1.6666666666666667" />
<circle cx="847.26" cy="364.54" r="1.6666666666666667" />
<circle cx="847.26" cy="392.52" r="1.6666666666666667" />
<circle cx="847.27" cy="470.84" r="1.6666666666666667" />
<circle cx="850.00" cy="509.90" r="1.6666666666666667" />
</g>
<g stroke="black">
<line x1="158.12" x2="158.12" y1="510.00" y2="520.00" />
<line x1="245.07" x2="245.07" y1="510.00" y2="520.00" />
<line x1="332.02" x2="332.02" y1="510.00" y2="520.00" />
<line x1="418.97" x2="418.97" y1="510.00" y2="520.00" />
<line x1="505.93" x2="505.93" y1="510.00" y2="520.00" />
<line x1="592.88" x2="592.88" y1="510.00" y2="520.00" />
<line x1="679.83" x2="679.83" y1="510.00" y2="520.00" />
<line x1="766.79" x2="766.79" y1="510.00" y2="520.00" />
<g fill="black" font-family="Arial, sans-serif" font-size="18.0" stroke="none" text-anchor="start" transform="translate(9.0 0.0)">
<text x="158.12" y="530.57">22Oct'23</text>
<text x="245.07" y="530.57">3Nov'23</text>
<text x="332.02" y="530.57">14Nov'23</text>
<text x="418.97" y="530.57">26Nov'23</text>
<text x="505.93" y="530.57">8Dec'23</text>
<text x="592.88" y="530.57">19Dec'23</text>
<text x="679.83" y="530.57">31Dec'23</text>
<text x="766.79" y="530.57">11Jan'24</text>
</g>
<line x1="150.00" x2="850.00" y1="510.00" y2="510.00" />
</g>
<g stroke="black">
<line x1="150.00" x2="140.00" y1="510.00" y2="510.00" />
<line x1="150.00" x2="140.00" y1="156.46" y2="156.46" />
<g fill="black" font-family="Arial, sans-serif" font-size="18.0" stroke="none" text-anchor="end">
<text x="141.00" y="501.00">0</text>
<text x="141.00" y="147.46">10000</text>
</g>
<line x1="150.00" x2="150.00" y1="510.00" y2="90.00" />
</g>
</g>
</svg>