<?xml version="1.0"?>
<svg version="1.1" viewBox="0 0 1000 600" xmlns:xlink="http://www.w3.org/1999/xlink" xmlns="http://www.w3.org/2000/svg">
<g>
<g stroke-dasharray="3.6 7.2" stroke-width="0.72" stroke="#caa">
<line x1="212.67" x2="212.67" y1="510.00" y2="90.00" />
<line x1="342.51" x2="342.51" y1="510.00" y2="90.00" />
<line x1="472.36" x2="472.36" y1="510.00" y2="90.00" />
<line x1="602.20" x2="602.20" y1="510.00" y2="90.00" />
<line x1="732.05" x2="732.05" y1="510.00" y2="90.00" />
<line x1="150.00" x2="850.00" y1="500.23" y2="500.23" />
<line x1="150.00" x2="850.00" y1="442.13" y2="442.13" />
<line x1="150.00" x2="850.00" y1="384.04" y2="384.04" />
<line x1="150.00" x2="850.00" y1="325.94" y2="325.94" />
<line x1="150.00" x2="850.00" y1="267.84" y2="267.84" />
<line x1="150.00" x2="850.00" y1="209.74" y2="209.74" />
<line x1="150.00" x2="850.00" y1="151.64" y2="151.64" />
<line x1="150.00" x2="850.00" y1="93.54" y2="93.54" />
</g>
<g>
<text dominant-baseline="hanging" dx="-36.0" dy="18.0" fill="#0004" font-family="Arial, sans-serif" font-size="36" stroke="none" text-anchor="end" x="850.00" y="125.00">R03</text>
</g>
<g>
<text dominant-baseline="text-bottom" dy="-12.0" fill="black" font-family="Arial, sans-serif" font-size="18.0" font-style="italic" stroke="none" text-anchor="middle" x="500.00" y="90.00">Days since start</text>
</g>
<g>
<text dominant-baseline="central" dx="12.0" dy="12.0" fill="black" font-family="Arial, sans-serif" font-size="18.0" font-style="italic" stroke="none" text-anchor="middle" text-orientation="sideways" writing-mode="vertical-lr" x="850.00" y="300.00">Drips per day</text>
</g>
<polyline fill="none" points="150.00,218.29 169.19,455.77 179.61,125.00 196.50,401.99 208.38,214.14 223.89,362.23 238.02,315.10 254.98,403.93 268.22,278.98 284.25,378.37 298.15,306.15 313.98,372.25 327.01,269.72 343.88,401.59 357.99,314.41 376.15,433.25 390.93,338.74 408.69,424.04 424.42,369.16 443.14,445.93 456.63,289.46 473.22,393.98 486.76,292.01 504.78,430.03 519.31,329.78 536.36,406.21 551.22,341.17 568.97,423.82 583.73,337.91 601.57,425.86 616.14,331.33 634.50,437.84 649.14,333.40 668.23,453.76 684.12,373.92 703.93,468.02 721.78,426.40 741.96,475.00 758.35,388.38 776.68,437.20 793.60,403.10 813.18,463.64 831.65,440.32 850.00,437.68" stroke-dasharray="3.6 3.6" stroke-width="3.6" stroke="#aaa" />
<g>
<circle cx="150.00" cy="218.29" r="1.6666666666666667" />
<circle cx="169.19" cy="455.77" r="1.6666666666666667" />
<circle cx="179.61" cy="125.00" r="1.6666666666666667" />
<circle cx="196.50" cy="401.99" r="1.6666666666666667" />
<circle cx="208.38" cy="214.14" r="1.6666666666666667" />
<circle cx="223.89" cy="362.23" r="1.6666666666666667" />
<circle cx="238.02" cy="315.10" r="1.6666666666666667" />
<circle cx="254.98" cy="403.93" r="1.6666666666666667" />
<circle cx="268.22" cy="278.98" r="1.6666666666666667" />
<circle cx="284.25" cy="378.37" r="1.6666666666666667" />
<circle cx="298.15" cy="306.15" r="1.6666666666666667" />
<circle cx="313.98" cy="372.25" r="1.6666666666666667" />
<circle cx="327.01" cy="269.72" r="1.6666666666666667" />
<circle cx="343.88" cy="401.59" r="1.6666666666666667" />
<circle cx="357.99" cy="314.41" r="1.6666666666666667" />
<circle cx="376.15" cy="433.25" r="1.6666666666666667" />
<circle cx="390.93" cy="338.74" r="1.6666666666666667" />
<circle cx="408.69" cy="424.04" r="1.6666666666666667" />
<circle cx="424.42" cy="369.16" r="1.6666666666666667" />
<circle cx="443.14" cy="445.93" r="1.6666666666666667" />
<circle cx="456.63" cy="289.46" r="1.6666666666666667" />
<circle cx="473.22" cy="393.98" r="1.6666666666666667" />
<circle cx="486.76" cy="292.01" r="1.6666666666666667" />
<circle cx="504.78" cy="430.03" r="1.6666666666666667" />
<circle cx="519.31" cy="329.78" r="1.6666666666666667" />
<circle cx="536.36" cy="406.21" r="1.6666666666666667" />
<circle cx="551.22" cy="341.17" r="1.6666666666666667" />
<circle cx="568.97" cy="423.82" r="1.6666666666666667" />
<circle cx="583.73" cy="337.91" r="1.6666666666666667" />
<circle cx="601.57" cy="425.86" r="1.6666666666666667" />
<circle cx="616.14" cy="331.33" r="1.6666666666666667" />
<circle cx="634.50" cy="437.84" r="1.6666666666666667" />
<circle cx="649.14" cy="333.40" r="1.6666666666666667" />
<circle cx="668.23" cy="453.76" r="1.6666666666666667" />
<circle cx="684.12" cy="373.92" r="1.6666666666666667" />
<circle cx="703.93" cy="468.02" r="1.6666666666666667" />
<circle cx="721.78" cy="426.40" r="1.6666666666666667" />
<circle cx="741.96" cy="475.00" r="1.6666666666666667" />
<circle cx="758.35" cy="388.38" r="1.6666666666666667" />
<circle cx="776.68" cy="437.20" r="1.6666666666666667" />
<circle cx="793.60" cy="403.10" r="1.6666666666666667" />
<circle cx="813.18" cy="463.64" r="1.6666666666666667" />
<circle cx="831.65" cy="440.32" r="1.6666666666666667" />
<circle cx="850.00" cy="437.68" r="1.6666666666666667" />
</g>
<g stroke="black">
<line x1="212.67" x2="212.67" y1="510.00" y2="520.00" />
<line x1="342.51" x2="342.51" y1="510.00" y2="520.00" />
<line x1="472.36" x2="472.36" y1="510.00" y2="520.00" />
<line x1="602.20" x2="602.20" y1="510.00" y2="520.00" />
<line x1="732.05" x2="732.05" y1="510.00" y2="520.00" />
<g fill="black" font-family="Arial, sans-serif" font-size="18.0" stroke="none" text-anchor="start" transform="translate(9.0 0.0)">
<text x="212.67" y="530.57">19630</text>
<text x="342.51" y="530.57">19631</text>
<text x="472.36" y="530.57">19632</text>
<text x="602.20" y="530.57">19633</text>
<text x="732.05" y="530.57">19634</text>
</g>
<line x1="150.00" x2="850.00" y1="510.00" y2="510.00" />
</g>
<g stroke="black">
<line x1="150.00" x2="140.00" y1="500.23" y2="500.23" />
<line x1="150.00" x2="140.00" y1="442.13" y2="442.13" />
<line x1="150.00" x2="140.00" y1="384.04" y2="384.04" />
<line x1="150.00" x2="140.00" y1="325.94" y2="325.94" />
<line x1="150.00" x2="140.00" y1="267.84" y2="267.84" />
<line x1="150.00" x2="140.00" y1="209.74" y2="209.74" />
<line x1="150.00" x2="140.00" y1="151.64" y2="151.64" />
<line x1="150.00" x2="140.00" y1="93.54" y2="93.54" />
<g fill="black" font-family="Arial, sans-serif" font-size="18.0" stroke="none" text-anchor="end">
<text x="141.00" y="491.23">6</text>
<text x="141.00" y="433.13">7</text>
<text x="141.00" y="375.04">8</text>
<text x="141.00" y="316.94">9</text>
<text x="141.00" y="258.84">10</text>
<text x="141.00" y="200.74">11</text>
<text x="141.00" y="142.64">12</text>
<text x="141.00" y="84.54">13</text>
</g>
<line x1="150.00" x2="150.00" y1="510.00" y2="90.00" />
</g>
</g>
</svg>