<?xml version="1.0"?>
<svg version="1.1" viewBox="0 0 1000 600" xmlns:xlink="http://www.w3.org/1999/xlink" xmlns="http://www.w3.org/2000/svg">
<g>
<g stroke-dasharray="3.6 7.2" stroke-width="0.72" stroke="#caa">
<line x1="839.86" x2="839.86" y1="510.00" y2="90.00" />
<line x1="791.78" x2="791.78" y1="510.00" y2="90.00" />
<line x1="740.39" x2="740.39" y1="510.00" y2="90.00" />
<line x1="689.00" x2="689.00" y1="510.00" y2="90.00" />
<line x1="639.26" x2="639.26" y1="510.00" y2="90.00" />
<line x1="587.87" x2="587.87" y1="510.00" y2="90.00" />
<line x1="538.13" x2="538.13" y1="510.00" y2="90.00" />
<line x1="486.74" x2="486.74" y1="510.00" y2="90.00" />
<line x1="435.35" x2="435.35" y1="510.00" y2="90.00" />
<line x1="385.61" x2="385.61" y1="510.00" y2="90.00" />
<line x1="334.22" x2="334.22" y1="510.00" y2="90.00" />
<line x1="284.48" x2="284.48" y1="510.00" y2="90.00" />
<line x1="233.09" x2="233.09" y1="510.00" y2="90.00" />
<line x1="186.67" x2="186.67" y1="510.00" y2="90.00" />
<line x1="150.00" x2="850.00" y1="510.00" y2="510.00" />
<line x1="150.00" x2="850.00" y1="216.29" y2="216.29" />
</g>
<g>
<text dominant-baseline="hanging" dx="-36.0" dy="18.0" fill="#0004" font-family="Arial, sans-serif" font-size="36" stroke="none" text-anchor="end" x="850.00" y="128.18">R03</text>
</g>
<g>
<text dominant-baseline="text-bottom" dy="-12.0" fill="black" font-family="Arial, sans-serif" font-size="18.0" font-style="italic" stroke="none" text-anchor="middle" x="500.00" y="90.00">Years 2023 to 2024</text>
</g>
<g>
<text dominant-baseline="central" dx="12.0" dy="12.0" fill="black" font-family="Arial, sans-serif" font-size="18.0" font-style="italic" stroke="none" text-anchor="middle" text-orientation="sideways" writing-mode="vertical-lr" x="850.00" y="300.00">log(Drips per day)</text>
</g>
<polyline fill="none" points="585.89,439.97 586.14,453.85 586.27,435.92 586.49,450.08 586.64,439.78 586.84,447.58 587.02,444.86 587.23,450.21 587.40,442.94 587.61,448.57 587.78,444.38 587.99,448.19 588.15,442.47 588.37,450.06 588.55,444.83 588.78,452.21 588.97,446.19 589.20,451.57 589.40,448.00 589.64,453.12 589.81,443.49 590.02,449.56 590.19,443.62 590.42,451.99 590.61,445.68 590.83,450.36 591.02,446.33 591.24,451.55 591.43,446.15 591.66,451.70 591.84,445.77 592.08,452.54 592.27,445.89 592.51,453.70 592.71,448.29 592.97,454.78 593.19,451.73 593.45,455.32 593.66,449.20 593.89,452.49 594.11,450.16 594.36,454.44 594.60,452.72 594.83,452.53" stroke-dasharray="3.6 3.6" stroke-width="3.6" stroke="#aaa" />
<g>
<circle cx="585.89" cy="439.97" r="1.6666666666666667" />
<circle cx="586.14" cy="453.85" r="1.6666666666666667" />
<circle cx="586.27" cy="435.92" r="1.6666666666666667" />
<circle cx="586.49" cy="450.08" r="1.6666666666666667" />
<circle cx="586.64" cy="439.78" r="1.6666666666666667" />
<circle cx="586.84" cy="447.58" r="1.6666666666666667" />
<circle cx="587.02" cy="444.86" r="1.6666666666666667" />
<circle cx="587.23" cy="450.21" r="1.6666666666666667" />
<circle cx="587.40" cy="442.94" r="1.6666666666666667" />
<circle cx="587.61" cy="448.57" r="1.6666666666666667" />
<circle cx="587.78" cy="444.38" r="1.6666666666666667" />
<circle cx="587.99" cy="448.19" r="1.6666666666666667" />
<circle cx="588.15" cy="442.47" r="1.6666666666666667" />
<circle cx="588.37" cy="450.06" r="1.6666666666666667" />
<circle cx="588.55" cy="444.83" r="1.6666666666666667" />
<circle cx="588.78" cy="452.21" r="1.6666666666666667" />
<circle cx="588.97" cy="446.19" r="1.6666666666666667" />
<circle cx="589.20" cy="451.57" r="1.6666666666666667" />
<circle cx="589.40" cy="448.00" r="1.6666666666666667" />
<circle cx="589.64" cy="453.12" r="1.6666666666666667" />
<circle cx="589.81" cy="443.49" r="1.6666666666666667" />
<circle cx="590.02" cy="449.56" r="1.6666666666666667" />
<circle cx="590.19" cy="443.62" r="1.6666666666666667" />
<circle cx="590.42" cy="451.99" r="1.6666666666666667" />
<circle cx="590.61" cy="445.68" r="1.6666666666666667" />
<circle cx="590.83" cy="450.36" r="1.6666666666666667" />
<circle cx="591.02" cy="446.33" r="1.6666666666666667" />
<circle cx="591.24" cy="451.55" r="1.6666666666666667" />
<circle cx="591.43" cy="446.15" r="1.6666666666666667" />
<circle cx="591.66" cy="451.70" r="1.6666666666666667" />
<circle cx="591.84" cy="445.77" r="1.6666666666666667" />
<circle cx="592.08" cy="452.54" r="1.6666666666666667" />
<circle cx="592.27" cy="445.89" r="1.6666666666666667" />
<circle cx="592.51" cy="453.70" r="1.6666666666666667" />
<circle cx="592.71" cy="448.29" r="1.6666666666666667" />
<circle cx="592.97" cy="454.78" r="1.6666666666666667" />
<circle cx="593.19" cy="451.73" r="1.6666666666666667" />
<circle cx="593.45" cy="455.32" r="1.6666666666666667" />
<circle cx="593.66" cy="449.20" r="1.6666666666666667" />
<circle cx="593.89" cy="452.49" r="1.6666666666666667" />
<circle cx="594.11" cy="450.16" r="1.6666666666666667" />
<circle cx="594.36" cy="454.44" r="1.6666666666666667" />
<circle cx="594.60" cy="452.72" r="1.6666666666666667" />
<circle cx="594.83" cy="452.53" r="1.6666666666666667" />
</g>
<g stroke="black">
<line x1="839.86" x2="839.86" y1="510.00" y2="520.00" />
<line x1="791.78" x2="791.78" y1="510.00" y2="520.00" />
<line x1="740.39" x2="740.39" y1="510.00" y2="520.00" />
<line x1="689.00" x2="689.00" y1="510.00" y2="520.00" />
<line x1="639.26" x2="639.26" y1="510.00" y2="520.00" />
<line x1="587.87" x2="587.87" y1="510.00" y2="520.00" />
<line x1="538.13" x2="538.13" y1="510.00" y2="520.00" />
<line x1="486.74" x2="486.74" y1="510.00" y2="520.00" />
<line x1="435.35" x2="435.35" y1="510.00" y2="520.00" />
<line x1="385.61" x2="385.61" y1="510.00" y2="520.00" />
<line x1="334.22" x2="334.22" y1="510.00" y2="520.00" />
<line x1="284.48" x2="284.48" y1="510.00" y2="520.00" />
<line x1="233.09" x2="233.09" y1="510.00" y2="520.00" />
<line x1="186.67" x2="186.67" y1="510.00" y2="520.00" />
<g fill="black" font-family="Arial, sans-serif" font-size="18.0" stroke="none" text-anchor="start" transform="translate(9.0 0.0)">
<text x="839.86" y="530.57">Mar</text>
<text x="791.78" y="530.57">Feb</text>
<text x="740.39" y="530.57">Jan</text>
<text x="689.00" y="530.57">Dec</text>
<text x="639.26" y="530.57">Nov</text>
<text x="587.87" y="530.57">Oct</text>
<text x="538.13" y="530.57">Sep</text>
<text x="486.74" y="530.57">Aug</text>
<text x="435.35" y="530.57">Jul</text>
<text x="385.61" y="530.57">Jun</text>
<text x="334.22" y="530.57">May</text>
<text x="284.48" y="530.57">Apr</text>
<text x="233.09" y="530.57">Mar</text>
<text x="186.67" y="530.57">Feb</text>
</g>
<line x1="150.00" x2="850.00" y1="510.00" y2="510.00" />
</g>
<g stroke="black">
<line x1="150.00" x2="140.00" y1="510.00" y2="510.00" />
<line x1="150.00" x2="140.00" y1="216.29" y2="216.29" />
<g fill="black" font-family="Arial, sans-serif" font-size="18.0" stroke="none" text-anchor="end">
<text x="141.00" y="501.00">0</text>
<text x="141.00" y="207.29">10</text>
</g>
<line x1="150.00" x2="150.00" y1="510.00" y2="90.00" />
</g>
</g>
</svg>