<?xml version="1.0"?>
<svg version="1.1" viewBox="0 0 1000 600" xmlns:xlink="http://www.w3.org/1999/xlink" xmlns="http://www.w3.org/2000/svg">
<g>
<g stroke-dasharray="3.6 7.2" stroke-width="0.72" stroke="#caa">
<line x1="828.41" x2="828.41" y1="510.00" y2="90.00" />
<line x1="785.75" x2="785.75" y1="510.00" y2="90.00" />
<line x1="741.68" x2="741.68" y1="510.00" y2="90.00" />
<line x1="700.44" x2="700.44" y1="510.00" y2="90.00" />
<line x1="656.36" x2="656.36" y1="510.00" y2="90.00" />
<line x1="612.28" x2="612.28" y1="510.00" y2="90.00" />
<line x1="569.63" x2="569.63" y1="510.00" y2="90.00" />
<line x1="525.55" x2="525.55" y1="510.00" y2="90.00" />
<line x1="482.89" x2="482.89" y1="510.00" y2="90.00" />
<line x1="438.81" x2="438.81" y1="510.00" y2="90.00" />
<line x1="394.73" x2="394.73" y1="510.00" y2="90.00" />
<line x1="352.08" x2="352.08" y1="510.00" y2="90.00" />
<line x1="308.00" x2="308.00" y1="510.00" y2="90.00" />
<line x1="265.34" x2="265.34" y1="510.00" y2="90.00" />
<line x1="221.26" x2="221.26" y1="510.00" y2="90.00" />
<line x1="181.45" x2="181.45" y1="510.00" y2="90.00" />
<line x1="150.00" x2="850.00" y1="510.00" y2="510.00" />
<line x1="150.00" x2="850.00" y1="216.29" y2="216.29" />
</g>
<g>
<text dominant-baseline="hanging" dx="-36.0" dy="18.0" fill="#0004" font-family="Arial, sans-serif" font-size="36" stroke="none" text-anchor="end" x="850.00" y="128.18">R03</text>
</g>
<g>
<text dominant-baseline="text-bottom" dy="-12.0" fill="black" font-family="Arial, sans-serif" font-size="18.0" font-style="italic" stroke="none" text-anchor="middle" x="500.00" y="90.00">Years 2023 to 2024</text>
</g>
<g>
<text dominant-baseline="hanging" dx="18.0" dy="18.0" fill="black" font-family="Arial, sans-serif" font-size="18.0" font-style="italic" stroke="none" text-anchor="beginning" text-orientation="sideways" x="150.00" y="90.00">log(Drips per day)</text>
</g>
<polyline fill="none" points="523.85,439.97 524.06,453.85 524.18,435.92 524.36,450.08 524.49,439.78 524.66,447.58 524.82,444.86 525.00,450.21 525.15,442.94 525.32,448.57 525.48,444.38 525.65,448.19 525.79,442.47 525.98,450.06 526.13,444.83 526.33,452.21 526.49,446.19 526.69,451.57 526.86,448.00 527.06,453.12 527.21,443.49 527.39,449.56 527.54,443.62 527.74,451.99 527.90,445.68 528.09,450.36 528.25,446.33 528.44,451.55 528.60,446.15 528.80,451.70 528.96,445.77 529.16,452.54 529.32,445.89 529.53,453.70 529.70,448.29 529.92,454.78 530.12,451.73 530.34,455.32 530.52,449.20 530.72,452.49 530.90,450.16 531.12,454.44 531.32,452.72 531.52,452.53" stroke-dasharray="3.6 3.6" stroke-width="3.6" stroke="#aaa" />
<g>
<circle cx="523.85" cy="439.97" r="1.6666666666666667" />
<circle cx="524.06" cy="453.85" r="1.6666666666666667" />
<circle cx="524.18" cy="435.92" r="1.6666666666666667" />
<circle cx="524.36" cy="450.08" r="1.6666666666666667" />
<circle cx="524.49" cy="439.78" r="1.6666666666666667" />
<circle cx="524.66" cy="447.58" r="1.6666666666666667" />
<circle cx="524.82" cy="444.86" r="1.6666666666666667" />
<circle cx="525.00" cy="450.21" r="1.6666666666666667" />
<circle cx="525.15" cy="442.94" r="1.6666666666666667" />
<circle cx="525.32" cy="448.57" r="1.6666666666666667" />
<circle cx="525.48" cy="444.38" r="1.6666666666666667" />
<circle cx="525.65" cy="448.19" r="1.6666666666666667" />
<circle cx="525.79" cy="442.47" r="1.6666666666666667" />
<circle cx="525.98" cy="450.06" r="1.6666666666666667" />
<circle cx="526.13" cy="444.83" r="1.6666666666666667" />
<circle cx="526.33" cy="452.21" r="1.6666666666666667" />
<circle cx="526.49" cy="446.19" r="1.6666666666666667" />
<circle cx="526.69" cy="451.57" r="1.6666666666666667" />
<circle cx="526.86" cy="448.00" r="1.6666666666666667" />
<circle cx="527.06" cy="453.12" r="1.6666666666666667" />
<circle cx="527.21" cy="443.49" r="1.6666666666666667" />
<circle cx="527.39" cy="449.56" r="1.6666666666666667" />
<circle cx="527.54" cy="443.62" r="1.6666666666666667" />
<circle cx="527.74" cy="451.99" r="1.6666666666666667" />
<circle cx="527.90" cy="445.68" r="1.6666666666666667" />
<circle cx="528.09" cy="450.36" r="1.6666666666666667" />
<circle cx="528.25" cy="446.33" r="1.6666666666666667" />
<circle cx="528.44" cy="451.55" r="1.6666666666666667" />
<circle cx="528.60" cy="446.15" r="1.6666666666666667" />
<circle cx="528.80" cy="451.70" r="1.6666666666666667" />
<circle cx="528.96" cy="445.77" r="1.6666666666666667" />
<circle cx="529.16" cy="452.54" r="1.6666666666666667" />
<circle cx="529.32" cy="445.89" r="1.6666666666666667" />
<circle cx="529.53" cy="453.70" r="1.6666666666666667" />
<circle cx="529.70" cy="448.29" r="1.6666666666666667" />
<circle cx="529.92" cy="454.78" r="1.6666666666666667" />
<circle cx="530.12" cy="451.73" r="1.6666666666666667" />
<circle cx="530.34" cy="455.32" r="1.6666666666666667" />
<circle cx="530.52" cy="449.20" r="1.6666666666666667" />
<circle cx="530.72" cy="452.49" r="1.6666666666666667" />
<circle cx="530.90" cy="450.16" r="1.6666666666666667" />
<circle cx="531.12" cy="454.44" r="1.6666666666666667" />
<circle cx="531.32" cy="452.72" r="1.6666666666666667" />
<circle cx="531.52" cy="452.53" r="1.6666666666666667" />
</g>
<g stroke="black">
<line x1="828.41" x2="828.41" y1="510.00" y2="520.00" />
<line x1="785.75" x2="785.75" y1="510.00" y2="520.00" />
<line x1="741.68" x2="741.68" y1="510.00" y2="520.00" />
<line x1="700.44" x2="700.44" y1="510.00" y2="520.00" />
<line x1="656.36" x2="656.36" y1="510.00" y2="520.00" />
<line x1="612.28" x2="612.28" y1="510.00" y2="520.00" />
<line x1="569.63" x2="569.63" y1="510.00" y2="520.00" />
<line x1="525.55" x2="525.55" y1="510.00" y2="520.00" />
<line x1="482.89" x2="482.89" y1="510.00" y2="520.00" />
<line x1="438.81" x2="438.81" y1="510.00" y2="520.00" />
<line x1="394.73" x2="394.73" y1="510.00" y2="520.00" />
<line x1="352.08" x2="352.08" y1="510.00" y2="520.00" />
<line x1="308.00" x2="308.00" y1="510.00" y2="520.00" />
<line x1="265.34" x2="265.34" y1="510.00" y2="520.00" />
<line x1="221.26" x2="221.26" y1="510.00" y2="520.00" />
<line x1="181.45" x2="181.45" y1="510.00" y2="520.00" />
<g fill="black" font-family="Arial, sans-serif" font-size="18.0" stroke="none" text-anchor="start" transform="translate(9.0 0.0)">
<text x="828.41" y="530.57">May</text>
<text x="785.75" y="530.57">Apr</text>
<text x="741.68" y="530.57">Mar</text>
<text x="700.44" y="530.57">Feb</text>
<text x="656.36" y="530.57">Jan</text>
<text x="612.28" y="530.57">Dec</text>
<text x="569.63" y="530.57">Nov</text>
<text x="525.55" y="530.57">Oct</text>
<text x="482.89" y="530.57">Sep</text>
<text x="438.81" y="530.57">Aug</text>
<text x="394.73" y="530.57">Jul</text>
<text x="352.08" y="530.57">Jun</text>
<text x="308.00" y="530.57">May</text>
<text x="265.34" y="530.57">Apr</text>
<text x="221.26" y="530.57">Mar</text>
<text x="181.45" y="530.57">Feb</text>
</g>
<line x1="150.00" x2="850.00" y1="510.00" y2="510.00" />
</g>
<g stroke="black">
<line x1="150.00" x2="138.00" y1="510.00" y2="510.00" />
<line x1="150.00" x2="138.00" y1="216.29" y2="216.29" />
<g fill="black" font-family="Arial, sans-serif" font-size="18.0" stroke="none" text-anchor="end">
<text x="141.00" y="501.00">0</text>
<text x="141.00" y="207.29">10</text>
</g>
<line x1="150.00" x2="150.00" y1="510.00" y2="90.00" />
</g>
</g>
</svg>