<?xml version="1.0"?>
<svg version="1.1" viewBox="0 0 1000 600" xmlns:xlink="http://www.w3.org/1999/xlink" xmlns="http://www.w3.org/2000/svg">
<g>
<g stroke-dasharray="3.6 7.2" stroke-width="0.72" stroke="#caa">
<line x1="813.75" x2="813.75" y1="510.00" y2="90.00" />
<line x1="760.60" x2="760.60" y1="510.00" y2="90.00" />
<line x1="707.45" x2="707.45" y1="510.00" y2="90.00" />
<line x1="656.01" x2="656.01" y1="510.00" y2="90.00" />
<line x1="602.86" x2="602.86" y1="510.00" y2="90.00" />
<line x1="551.42" x2="551.42" y1="510.00" y2="90.00" />
<line x1="498.27" x2="498.27" y1="510.00" y2="90.00" />
<line x1="445.11" x2="445.11" y1="510.00" y2="90.00" />
<line x1="393.68" x2="393.68" y1="510.00" y2="90.00" />
<line x1="340.52" x2="340.52" y1="510.00" y2="90.00" />
<line x1="289.09" x2="289.09" y1="510.00" y2="90.00" />
<line x1="235.93" x2="235.93" y1="510.00" y2="90.00" />
<line x1="187.92" x2="187.92" y1="510.00" y2="90.00" />
<line x1="150.00" x2="850.00" y1="510.00" y2="510.00" />
<line x1="150.00" x2="850.00" y1="216.29" y2="216.29" />
</g>
<g>
<text dominant-baseline="hanging" dx="-36.0" dy="18.0" fill="#0004" font-family="Arial, sans-serif" font-size="36" stroke="none" text-anchor="end" x="850.00" y="128.18">R03</text>
</g>
<g>
<text dominant-baseline="text-bottom" dy="-12.0" fill="black" font-family="Arial, sans-serif" font-size="18.0" font-style="italic" stroke="none" text-anchor="middle" x="500.00" y="90.00">Years 2023 to 2024</text>
</g>
<g>
<text dominant-baseline="central" dx="12.0" dy="12.0" fill="black" font-family="Arial, sans-serif" font-size="18.0" font-style="italic" stroke="none" text-anchor="middle" text-orientation="sideways" writing-mode="vertical-lr" x="850.00" y="300.00">log(Drips per day)</text>
</g>
<polyline fill="none" points="600.82,439.97 601.07,453.85 601.21,435.92 601.43,450.08 601.59,439.78 601.79,447.58 601.98,444.86 602.20,450.21 602.38,442.94 602.59,448.57 602.77,444.38 602.98,448.19 603.15,442.47 603.38,450.06 603.56,444.83 603.80,452.21 604.00,446.19 604.23,451.57 604.44,448.00 604.69,453.12 604.86,443.49 605.08,449.56 605.26,443.62 605.50,451.99 605.69,445.68 605.92,450.36 606.11,446.33 606.35,451.55 606.54,446.15 606.78,451.70 606.97,445.77 607.21,452.54 607.41,445.89 607.66,453.70 607.87,448.29 608.13,454.78 608.37,451.73 608.63,455.32 608.85,449.20 609.09,452.49 609.31,450.16 609.57,454.44 609.82,452.72 610.06,452.53" stroke-dasharray="3.6 3.6" stroke-width="3.6" stroke="#aaa" />
<g>
<circle cx="600.82" cy="439.97" r="1.6666666666666667" />
<circle cx="601.07" cy="453.85" r="1.6666666666666667" />
<circle cx="601.21" cy="435.92" r="1.6666666666666667" />
<circle cx="601.43" cy="450.08" r="1.6666666666666667" />
<circle cx="601.59" cy="439.78" r="1.6666666666666667" />
<circle cx="601.79" cy="447.58" r="1.6666666666666667" />
<circle cx="601.98" cy="444.86" r="1.6666666666666667" />
<circle cx="602.20" cy="450.21" r="1.6666666666666667" />
<circle cx="602.38" cy="442.94" r="1.6666666666666667" />
<circle cx="602.59" cy="448.57" r="1.6666666666666667" />
<circle cx="602.77" cy="444.38" r="1.6666666666666667" />
<circle cx="602.98" cy="448.19" r="1.6666666666666667" />
<circle cx="603.15" cy="442.47" r="1.6666666666666667" />
<circle cx="603.38" cy="450.06" r="1.6666666666666667" />
<circle cx="603.56" cy="444.83" r="1.6666666666666667" />
<circle cx="603.80" cy="452.21" r="1.6666666666666667" />
<circle cx="604.00" cy="446.19" r="1.6666666666666667" />
<circle cx="604.23" cy="451.57" r="1.6666666666666667" />
<circle cx="604.44" cy="448.00" r="1.6666666666666667" />
<circle cx="604.69" cy="453.12" r="1.6666666666666667" />
<circle cx="604.86" cy="443.49" r="1.6666666666666667" />
<circle cx="605.08" cy="449.56" r="1.6666666666666667" />
<circle cx="605.26" cy="443.62" r="1.6666666666666667" />
<circle cx="605.50" cy="451.99" r="1.6666666666666667" />
<circle cx="605.69" cy="445.68" r="1.6666666666666667" />
<circle cx="605.92" cy="450.36" r="1.6666666666666667" />
<circle cx="606.11" cy="446.33" r="1.6666666666666667" />
<circle cx="606.35" cy="451.55" r="1.6666666666666667" />
<circle cx="606.54" cy="446.15" r="1.6666666666666667" />
<circle cx="606.78" cy="451.70" r="1.6666666666666667" />
<circle cx="606.97" cy="445.77" r="1.6666666666666667" />
<circle cx="607.21" cy="452.54" r="1.6666666666666667" />
<circle cx="607.41" cy="445.89" r="1.6666666666666667" />
<circle cx="607.66" cy="453.70" r="1.6666666666666667" />
<circle cx="607.87" cy="448.29" r="1.6666666666666667" />
<circle cx="608.13" cy="454.78" r="1.6666666666666667" />
<circle cx="608.37" cy="451.73" r="1.6666666666666667" />
<circle cx="608.63" cy="455.32" r="1.6666666666666667" />
<circle cx="608.85" cy="449.20" r="1.6666666666666667" />
<circle cx="609.09" cy="452.49" r="1.6666666666666667" />
<circle cx="609.31" cy="450.16" r="1.6666666666666667" />
<circle cx="609.57" cy="454.44" r="1.6666666666666667" />
<circle cx="609.82" cy="452.72" r="1.6666666666666667" />
<circle cx="610.06" cy="452.53" r="1.6666666666666667" />
</g>
<g stroke="black">
<line x1="813.75" x2="813.75" y1="510.00" y2="520.00" />
<line x1="760.60" x2="760.60" y1="510.00" y2="520.00" />
<line x1="707.45" x2="707.45" y1="510.00" y2="520.00" />
<line x1="656.01" x2="656.01" y1="510.00" y2="520.00" />
<line x1="602.86" x2="602.86" y1="510.00" y2="520.00" />
<line x1="551.42" x2="551.42" y1="510.00" y2="520.00" />
<line x1="498.27" x2="498.27" y1="510.00" y2="520.00" />
<line x1="445.11" x2="445.11" y1="510.00" y2="520.00" />
<line x1="393.68" x2="393.68" y1="510.00" y2="520.00" />
<line x1="340.52" x2="340.52" y1="510.00" y2="520.00" />
<line x1="289.09" x2="289.09" y1="510.00" y2="520.00" />
<line x1="235.93" x2="235.93" y1="510.00" y2="520.00" />
<line x1="187.92" x2="187.92" y1="510.00" y2="520.00" />
<g fill="black" font-family="Arial, sans-serif" font-size="18.0" stroke="none" text-anchor="start" transform="translate(9.0 0.0)">
<text x="813.75" y="530.57">Feb</text>
<text x="760.60" y="530.57">Jan</text>
<text x="707.45" y="530.57">Dec</text>
<text x="656.01" y="530.57">Nov</text>
<text x="602.86" y="530.57">Oct</text>
<text x="551.42" y="530.57">Sep</text>
<text x="498.27" y="530.57">Aug</text>
<text x="445.11" y="530.57">Jul</text>
<text x="393.68" y="530.57">Jun</text>
<text x="340.52" y="530.57">May</text>
<text x="289.09" y="530.57">Apr</text>
<text x="235.93" y="530.57">Mar</text>
<text x="187.92" y="530.57">Feb</text>
</g>
<line x1="150.00" x2="850.00" y1="510.00" y2="510.00" />
</g>
<g stroke="black">
<line x1="150.00" x2="140.00" y1="510.00" y2="510.00" />
<line x1="150.00" x2="140.00" y1="216.29" y2="216.29" />
<g fill="black" font-family="Arial, sans-serif" font-size="18.0" stroke="none" text-anchor="end">
<text x="141.00" y="501.00">0</text>
<text x="141.00" y="207.29">10</text>
</g>
<line x1="150.00" x2="150.00" y1="510.00" y2="90.00" />
</g>
</g>
</svg>