<?xml version="1.0"?>
<svg version="1.1" viewBox="0 0 1000 600" xmlns:xlink="http://www.w3.org/1999/xlink" xmlns="http://www.w3.org/2000/svg">
<g>
<g stroke-dasharray="3.6 7.2" stroke-width="0.72" stroke="#caa">
<line x1="813.75" x2="813.75" y1="510.00" y2="90.00" />
<line x1="760.60" x2="760.60" y1="510.00" y2="90.00" />
<line x1="707.45" x2="707.45" y1="510.00" y2="90.00" />
<line x1="656.01" x2="656.01" y1="510.00" y2="90.00" />
<line x1="602.86" x2="602.86" y1="510.00" y2="90.00" />
<line x1="551.42" x2="551.42" y1="510.00" y2="90.00" />
<line x1="498.27" x2="498.27" y1="510.00" y2="90.00" />
<line x1="445.11" x2="445.11" y1="510.00" y2="90.00" />
<line x1="393.68" x2="393.68" y1="510.00" y2="90.00" />
<line x1="340.52" x2="340.52" y1="510.00" y2="90.00" />
<line x1="289.09" x2="289.09" y1="510.00" y2="90.00" />
<line x1="235.93" x2="235.93" y1="510.00" y2="90.00" />
<line x1="187.92" x2="187.92" y1="510.00" y2="90.00" />
<line x1="150.00" x2="850.00" y1="510.00" y2="510.00" />
<line x1="150.00" x2="850.00" y1="319.09" y2="319.09" />
<line x1="150.00" x2="850.00" y1="128.18" y2="128.18" />
</g>
<g>
<text dominant-baseline="hanging" dx="-36.0" dy="18.0" fill="#0004" font-family="Arial, sans-serif" font-size="36" stroke="none" text-anchor="end" x="850.00" y="128.18">R03</text>
</g>
<g>
<text dominant-baseline="text-bottom" dy="-12.0" fill="black" font-family="Arial, sans-serif" font-size="18.0" font-style="italic" stroke="none" text-anchor="middle" x="500.00" y="90.00">Years 2023 to 2024</text>
</g>
<g>
<text dominant-baseline="central" dx="12.0" dy="12.0" fill="black" font-family="Arial, sans-serif" font-size="18.0" font-style="italic" stroke="none" text-anchor="middle" text-orientation="sideways" writing-mode="vertical-lr" x="850.00" y="300.00">Drips per day</text>
</g>
<polyline fill="none" points="600.82,302.81 601.07,380.84 601.21,272.16 601.43,363.17 601.59,301.45 601.79,350.11 601.98,334.62 602.20,363.81 602.38,322.75 602.59,355.41 602.77,331.68 602.98,353.40 603.15,319.71 603.38,363.04 603.56,334.40 603.80,373.44 604.00,342.39 604.23,370.42 604.44,352.38 604.69,377.61 604.86,326.20 605.08,360.54 605.26,327.03 605.50,372.38 605.69,339.44 605.92,364.56 606.11,343.19 606.35,370.35 606.54,342.12 606.78,371.02 606.97,339.95 607.21,374.95 607.41,340.63 607.66,380.18 607.87,353.95 608.13,384.87 608.37,371.19 608.63,387.16 608.85,358.70 609.09,374.74 609.31,363.54 609.57,383.43 609.82,375.77 610.06,374.90" stroke-dasharray="3.6 3.6" stroke-width="3.6" stroke="#aaa" />
<g>
<circle cx="600.82" cy="302.81" r="1.6666666666666667" />
<circle cx="601.07" cy="380.84" r="1.6666666666666667" />
<circle cx="601.21" cy="272.16" r="1.6666666666666667" />
<circle cx="601.43" cy="363.17" r="1.6666666666666667" />
<circle cx="601.59" cy="301.45" r="1.6666666666666667" />
<circle cx="601.79" cy="350.11" r="1.6666666666666667" />
<circle cx="601.98" cy="334.62" r="1.6666666666666667" />
<circle cx="602.20" cy="363.81" r="1.6666666666666667" />
<circle cx="602.38" cy="322.75" r="1.6666666666666667" />
<circle cx="602.59" cy="355.41" r="1.6666666666666667" />
<circle cx="602.77" cy="331.68" r="1.6666666666666667" />
<circle cx="602.98" cy="353.40" r="1.6666666666666667" />
<circle cx="603.15" cy="319.71" r="1.6666666666666667" />
<circle cx="603.38" cy="363.04" r="1.6666666666666667" />
<circle cx="603.56" cy="334.40" r="1.6666666666666667" />
<circle cx="603.80" cy="373.44" r="1.6666666666666667" />
<circle cx="604.00" cy="342.39" r="1.6666666666666667" />
<circle cx="604.23" cy="370.42" r="1.6666666666666667" />
<circle cx="604.44" cy="352.38" r="1.6666666666666667" />
<circle cx="604.69" cy="377.61" r="1.6666666666666667" />
<circle cx="604.86" cy="326.20" r="1.6666666666666667" />
<circle cx="605.08" cy="360.54" r="1.6666666666666667" />
<circle cx="605.26" cy="327.03" r="1.6666666666666667" />
<circle cx="605.50" cy="372.38" r="1.6666666666666667" />
<circle cx="605.69" cy="339.44" r="1.6666666666666667" />
<circle cx="605.92" cy="364.56" r="1.6666666666666667" />
<circle cx="606.11" cy="343.19" r="1.6666666666666667" />
<circle cx="606.35" cy="370.35" r="1.6666666666666667" />
<circle cx="606.54" cy="342.12" r="1.6666666666666667" />
<circle cx="606.78" cy="371.02" r="1.6666666666666667" />
<circle cx="606.97" cy="339.95" r="1.6666666666666667" />
<circle cx="607.21" cy="374.95" r="1.6666666666666667" />
<circle cx="607.41" cy="340.63" r="1.6666666666666667" />
<circle cx="607.66" cy="380.18" r="1.6666666666666667" />
<circle cx="607.87" cy="353.95" r="1.6666666666666667" />
<circle cx="608.13" cy="384.87" r="1.6666666666666667" />
<circle cx="608.37" cy="371.19" r="1.6666666666666667" />
<circle cx="608.63" cy="387.16" r="1.6666666666666667" />
<circle cx="608.85" cy="358.70" r="1.6666666666666667" />
<circle cx="609.09" cy="374.74" r="1.6666666666666667" />
<circle cx="609.31" cy="363.54" r="1.6666666666666667" />
<circle cx="609.57" cy="383.43" r="1.6666666666666667" />
<circle cx="609.82" cy="375.77" r="1.6666666666666667" />
<circle cx="610.06" cy="374.90" r="1.6666666666666667" />
</g>
<g stroke="black">
<line x1="813.75" x2="813.75" y1="510.00" y2="520.00" />
<line x1="760.60" x2="760.60" y1="510.00" y2="520.00" />
<line x1="707.45" x2="707.45" y1="510.00" y2="520.00" />
<line x1="656.01" x2="656.01" y1="510.00" y2="520.00" />
<line x1="602.86" x2="602.86" y1="510.00" y2="520.00" />
<line x1="551.42" x2="551.42" y1="510.00" y2="520.00" />
<line x1="498.27" x2="498.27" y1="510.00" y2="520.00" />
<line x1="445.11" x2="445.11" y1="510.00" y2="520.00" />
<line x1="393.68" x2="393.68" y1="510.00" y2="520.00" />
<line x1="340.52" x2="340.52" y1="510.00" y2="520.00" />
<line x1="289.09" x2="289.09" y1="510.00" y2="520.00" />
<line x1="235.93" x2="235.93" y1="510.00" y2="520.00" />
<line x1="187.92" x2="187.92" y1="510.00" y2="520.00" />
<g fill="black" font-family="Arial, sans-serif" font-size="18.0" stroke="none" text-anchor="start" transform="translate(9.0 0.0)">
<text x="813.75" y="530.57">Feb</text>
<text x="760.60" y="530.57">Jan</text>
<text x="707.45" y="530.57">Dec</text>
<text x="656.01" y="530.57">Nov</text>
<text x="602.86" y="530.57">Oct</text>
<text x="551.42" y="530.57">Sep</text>
<text x="498.27" y="530.57">Aug</text>
<text x="445.11" y="530.57">Jul</text>
<text x="393.68" y="530.57">Jun</text>
<text x="340.52" y="530.57">May</text>
<text x="289.09" y="530.57">Apr</text>
<text x="235.93" y="530.57">Mar</text>
<text x="187.92" y="530.57">Feb</text>
</g>
<line x1="150.00" x2="850.00" y1="510.00" y2="510.00" />
</g>
<g stroke="black">
<line x1="150.00" x2="140.00" y1="510.00" y2="510.00" />
<line x1="150.00" x2="140.00" y1="319.09" y2="319.09" />
<line x1="150.00" x2="140.00" y1="128.18" y2="128.18" />
<g fill="black" font-family="Arial, sans-serif" font-size="18.0" stroke="none" text-anchor="end">
<text x="141.00" y="501.00">0</text>
<text x="141.00" y="310.09">10</text>
<text x="141.00" y="119.18">20</text>
</g>
<line x1="150.00" x2="150.00" y1="510.00" y2="90.00" />
</g>
</g>
</svg>