<?xml version="1.0"?>
<svg version="1.1" viewBox="0 0 1000 600" xmlns:xlink="http://www.w3.org/1999/xlink" xmlns="http://www.w3.org/2000/svg">
<g>
<g stroke-dasharray="3.6 7.2" stroke-width="0.72" stroke="#caa">
<line x1="580.77" x2="580.77" y1="510.00" y2="90.00" />
<line x1="150.00" x2="850.00" y1="461.23" y2="461.23" />
<line x1="150.00" x2="850.00" y1="410.59" y2="410.59" />
<line x1="150.00" x2="850.00" y1="359.95" y2="359.95" />
<line x1="150.00" x2="850.00" y1="309.32" y2="309.32" />
<line x1="150.00" x2="850.00" y1="258.68" y2="258.68" />
<line x1="150.00" x2="850.00" y1="208.04" y2="208.04" />
<line x1="150.00" x2="850.00" y1="157.41" y2="157.41" />
<line x1="150.00" x2="850.00" y1="106.77" y2="106.77" />
</g>
<g>
<text dominant-baseline="hanging" dx="-36.0" dy="18.0" fill="#0004" font-family="Arial, sans-serif" font-size="36" stroke="none" text-anchor="end" x="850.00" y="125.00">R04</text>
</g>
<g>
<text dominant-baseline="text-bottom" dy="-12.0" fill="black" font-family="Arial, sans-serif" font-size="18.0" font-style="italic" stroke="none" text-anchor="middle" x="500.00" y="90.00">Days since start</text>
</g>
<g>
<text dominant-baseline="central" dx="12.0" dy="12.0" fill="black" font-family="Arial, sans-serif" font-size="18.0" font-style="italic" stroke="none" text-anchor="middle" text-orientation="sideways" writing-mode="vertical-lr" x="850.00" y="300.00">Drips per day</text>
</g>
<polyline fill="none" points="150.00,125.00 203.85,125.00 257.69,125.00 311.54,125.00 365.38,125.00 419.23,125.00 473.08,125.00 742.31,475.00 796.15,125.00 850.00,125.00" stroke-dasharray="3.6 3.6" stroke-width="3.6" stroke="#aaa" />
<g>
<circle cx="150.00" cy="125.00" r="1.6666666666666667" />
<circle cx="203.85" cy="125.00" r="1.6666666666666667" />
<circle cx="257.69" cy="125.00" r="1.6666666666666667" />
<circle cx="311.54" cy="125.00" r="1.6666666666666667" />
<circle cx="365.38" cy="125.00" r="1.6666666666666667" />
<circle cx="419.23" cy="125.00" r="1.6666666666666667" />
<circle cx="473.08" cy="125.00" r="1.6666666666666667" />
<circle cx="742.31" cy="475.00" r="1.6666666666666667" />
<circle cx="796.15" cy="125.00" r="1.6666666666666667" />
<circle cx="850.00" cy="125.00" r="1.6666666666666667" />
</g>
<g stroke="black">
<line x1="580.77" x2="580.77" y1="510.00" y2="520.00" />
<g fill="black" font-family="Arial, sans-serif" font-size="18.0" stroke="none" text-anchor="start" transform="translate(9.0 0.0)">
<text x="580.77" y="530.57">3Nov'23</text>
</g>
<line x1="150.00" x2="850.00" y1="510.00" y2="510.00" />
</g>
<g stroke="black">
<line x1="150.00" x2="140.00" y1="461.23" y2="461.23" />
<line x1="150.00" x2="140.00" y1="410.59" y2="410.59" />
<line x1="150.00" x2="140.00" y1="359.95" y2="359.95" />
<line x1="150.00" x2="140.00" y1="309.32" y2="309.32" />
<line x1="150.00" x2="140.00" y1="258.68" y2="258.68" />
<line x1="150.00" x2="140.00" y1="208.04" y2="208.04" />
<line x1="150.00" x2="140.00" y1="157.41" y2="157.41" />
<line x1="150.00" x2="140.00" y1="106.77" y2="106.77" />
<g fill="black" font-family="Arial, sans-serif" font-size="18.0" stroke="none" text-anchor="end">
<text x="141.00" y="452.23">20000</text>
<text x="141.00" y="401.59">30000</text>
<text x="141.00" y="350.95">40000</text>
<text x="141.00" y="300.32">50000</text>
<text x="141.00" y="249.68">60000</text>
<text x="141.00" y="199.04">70000</text>
<text x="141.00" y="148.41">80000</text>
<text x="141.00" y="97.77">90000</text>
</g>
<line x1="150.00" x2="150.00" y1="510.00" y2="90.00" />
</g>
</g>
</svg>