<?xml version="1.0"?>
<svg version="1.1" viewBox="0 0 1000 600" xmlns:xlink="http://www.w3.org/1999/xlink" xmlns="http://www.w3.org/2000/svg">
<g>
<g stroke-dasharray="3.6 7.2" stroke-width="0.72" stroke="#caa">
<line x1="813.75" x2="813.75" y1="510.00" y2="90.00" />
<line x1="760.60" x2="760.60" y1="510.00" y2="90.00" />
<line x1="707.45" x2="707.45" y1="510.00" y2="90.00" />
<line x1="656.01" x2="656.01" y1="510.00" y2="90.00" />
<line x1="602.86" x2="602.86" y1="510.00" y2="90.00" />
<line x1="551.42" x2="551.42" y1="510.00" y2="90.00" />
<line x1="498.27" x2="498.27" y1="510.00" y2="90.00" />
<line x1="445.11" x2="445.11" y1="510.00" y2="90.00" />
<line x1="393.68" x2="393.68" y1="510.00" y2="90.00" />
<line x1="340.52" x2="340.52" y1="510.00" y2="90.00" />
<line x1="289.09" x2="289.09" y1="510.00" y2="90.00" />
<line x1="235.93" x2="235.93" y1="510.00" y2="90.00" />
<line x1="187.92" x2="187.92" y1="510.00" y2="90.00" />
<line x1="150.00" x2="850.00" y1="510.00" y2="510.00" />
<line x1="150.00" x2="850.00" y1="216.29" y2="216.29" />
</g>
<g>
<text dominant-baseline="hanging" dx="-36.0" dy="18.0" fill="#0004" font-family="Arial, sans-serif" font-size="36" stroke="none" text-anchor="end" x="850.00" y="128.18">R05</text>
</g>
<g>
<text dominant-baseline="text-bottom" dy="-12.0" fill="black" font-family="Arial, sans-serif" font-size="18.0" font-style="italic" stroke="none" text-anchor="middle" x="500.00" y="90.00">Years 2023 to 2024</text>
</g>
<g>
<text dominant-baseline="central" dx="12.0" dy="12.0" fill="black" font-family="Arial, sans-serif" font-size="18.0" font-style="italic" stroke="none" text-anchor="middle" text-orientation="sideways" writing-mode="vertical-lr" x="850.00" y="300.00">log(Drips per day)</text>
</g>
<polyline fill="none" points="746.48,469.75 746.98,473.87 747.35,464.57 747.84,473.56 748.25,467.64 748.77,474.84 749.15,466.02 749.65,473.87 750.02,464.88 750.48,471.42 750.89,467.71 751.36,472.28 751.76,466.89 752.20,470.26 752.60,466.97 753.06,471.40 753.51,470.86 753.97,471.18 754.33,464.61 754.80,471.74 755.21,467.75 755.77,477.23 756.18,467.85 756.69,474.37 757.10,467.92 757.62,475.40 758.07,470.56 758.60,475.63 759.10,473.69 759.63,475.21 759.99,464.81 760.52,475.57 760.97,470.66 761.48,474.15 761.89,467.83 762.40,474.29 762.79,466.63 763.29,473.95 763.71,468.42 764.20,473.29 764.67,472.43 765.16,472.90 765.64,472.67 766.13,473.32 796.37,449.93 796.60,450.65 796.83,450.53 797.05,450.86 797.29,451.33 797.52,450.80 797.74,449.93 797.96,450.25 798.19,451.19 798.42,450.86 798.65,450.21 798.88,451.85 799.12,452.02 799.35,450.89 799.58,450.63 799.81,451.59 800.04,450.24 800.27,451.19 800.49,449.90 800.71,450.10 800.94,451.11 801.17,450.32 801.40,450.94 801.63,451.49 801.87,451.74 802.10,451.05 802.34,451.94 802.57,451.71 802.81,452.64 803.05,451.75 803.29,452.05 803.52,451.68 803.76,451.69 803.99,451.34 804.23,452.00 804.46,451.60 804.70,451.18 804.93,451.53 805.17,451.86 805.40,451.60 805.64,451.97 805.88,452.12 806.12,452.04 806.34,450.53 806.57,450.82 806.81,451.69 807.04,451.97 807.28,451.69 807.52,452.42 807.76,452.10 808.00,452.07 808.23,451.36 808.46,451.25 808.70,452.22 808.95,452.75 809.19,452.29 809.43,452.34 809.66,451.74 809.90,451.55 810.14,452.19 810.38,451.79 810.61,452.06 810.86,452.77 811.10,452.60 811.33,451.09 811.57,451.58 811.80,451.24 812.04,452.60 812.28,452.06 812.52,452.75 812.77,453.49 813.01,451.64 813.24,451.58 813.49,452.55 813.73,452.69 813.97,452.42 814.22,453.43 814.47,453.03 814.71,452.69 814.95,452.24 815.19,452.46 815.44,452.88 815.68,452.71 815.93,453.30 816.18,453.48 816.42,452.35 816.66,452.56 816.91,452.40 817.14,452.12 817.38,452.12 817.63,453.08 817.88,453.74 818.13,452.55 818.37,453.27 818.62,453.30 818.88,454.85 819.14,454.28 819.41,455.01 819.67,454.76 819.92,453.91 820.18,454.46 820.44,454.19 820.69,454.19 820.94,453.59 821.21,454.81 821.46,453.92 821.71,453.34 821.96,453.11 822.20,453.14 822.46,454.71 822.73,454.77" stroke-dasharray="3.6 3.6" stroke-width="3.6" stroke="#aaa" />
<g>
<circle cx="746.48" cy="469.75" r="1.6666666666666667" />
<circle cx="746.98" cy="473.87" r="1.6666666666666667" />
<circle cx="747.35" cy="464.57" r="1.6666666666666667" />
<circle cx="747.84" cy="473.56" r="1.6666666666666667" />
<circle cx="748.25" cy="467.64" r="1.6666666666666667" />
<circle cx="748.77" cy="474.84" r="1.6666666666666667" />
<circle cx="749.15" cy="466.02" r="1.6666666666666667" />
<circle cx="749.65" cy="473.87" r="1.6666666666666667" />
<circle cx="750.02" cy="464.88" r="1.6666666666666667" />
<circle cx="750.48" cy="471.42" r="1.6666666666666667" />
<circle cx="750.89" cy="467.71" r="1.6666666666666667" />
<circle cx="751.36" cy="472.28" r="1.6666666666666667" />
<circle cx="751.76" cy="466.89" r="1.6666666666666667" />
<circle cx="752.20" cy="470.26" r="1.6666666666666667" />
<circle cx="752.60" cy="466.97" r="1.6666666666666667" />
<circle cx="753.06" cy="471.40" r="1.6666666666666667" />
<circle cx="753.51" cy="470.86" r="1.6666666666666667" />
<circle cx="753.97" cy="471.18" r="1.6666666666666667" />
<circle cx="754.33" cy="464.61" r="1.6666666666666667" />
<circle cx="754.80" cy="471.74" r="1.6666666666666667" />
<circle cx="755.21" cy="467.75" r="1.6666666666666667" />
<circle cx="755.77" cy="477.23" r="1.6666666666666667" />
<circle cx="756.18" cy="467.85" r="1.6666666666666667" />
<circle cx="756.69" cy="474.37" r="1.6666666666666667" />
<circle cx="757.10" cy="467.92" r="1.6666666666666667" />
<circle cx="757.62" cy="475.40" r="1.6666666666666667" />
<circle cx="758.07" cy="470.56" r="1.6666666666666667" />
<circle cx="758.60" cy="475.63" r="1.6666666666666667" />
<circle cx="759.10" cy="473.69" r="1.6666666666666667" />
<circle cx="759.63" cy="475.21" r="1.6666666666666667" />
<circle cx="759.99" cy="464.81" r="1.6666666666666667" />
<circle cx="760.52" cy="475.57" r="1.6666666666666667" />
<circle cx="760.97" cy="470.66" r="1.6666666666666667" />
<circle cx="761.48" cy="474.15" r="1.6666666666666667" />
<circle cx="761.89" cy="467.83" r="1.6666666666666667" />
<circle cx="762.40" cy="474.29" r="1.6666666666666667" />
<circle cx="762.79" cy="466.63" r="1.6666666666666667" />
<circle cx="763.29" cy="473.95" r="1.6666666666666667" />
<circle cx="763.71" cy="468.42" r="1.6666666666666667" />
<circle cx="764.20" cy="473.29" r="1.6666666666666667" />
<circle cx="764.67" cy="472.43" r="1.6666666666666667" />
<circle cx="765.16" cy="472.90" r="1.6666666666666667" />
<circle cx="765.64" cy="472.67" r="1.6666666666666667" />
<circle cx="766.13" cy="473.32" r="1.6666666666666667" />
<circle cx="796.37" cy="449.93" r="1.6666666666666667" />
<circle cx="796.60" cy="450.65" r="1.6666666666666667" />
<circle cx="796.83" cy="450.53" r="1.6666666666666667" />
<circle cx="797.05" cy="450.86" r="1.6666666666666667" />
<circle cx="797.29" cy="451.33" r="1.6666666666666667" />
<circle cx="797.52" cy="450.80" r="1.6666666666666667" />
<circle cx="797.74" cy="449.93" r="1.6666666666666667" />
<circle cx="797.96" cy="450.25" r="1.6666666666666667" />
<circle cx="798.19" cy="451.19" r="1.6666666666666667" />
<circle cx="798.42" cy="450.86" r="1.6666666666666667" />
<circle cx="798.65" cy="450.21" r="1.6666666666666667" />
<circle cx="798.88" cy="451.85" r="1.6666666666666667" />
<circle cx="799.12" cy="452.02" r="1.6666666666666667" />
<circle cx="799.35" cy="450.89" r="1.6666666666666667" />
<circle cx="799.58" cy="450.63" r="1.6666666666666667" />
<circle cx="799.81" cy="451.59" r="1.6666666666666667" />
<circle cx="800.04" cy="450.24" r="1.6666666666666667" />
<circle cx="800.27" cy="451.19" r="1.6666666666666667" />
<circle cx="800.49" cy="449.90" r="1.6666666666666667" />
<circle cx="800.71" cy="450.10" r="1.6666666666666667" />
<circle cx="800.94" cy="451.11" r="1.6666666666666667" />
<circle cx="801.17" cy="450.32" r="1.6666666666666667" />
<circle cx="801.40" cy="450.94" r="1.6666666666666667" />
<circle cx="801.63" cy="451.49" r="1.6666666666666667" />
<circle cx="801.87" cy="451.74" r="1.6666666666666667" />
<circle cx="802.10" cy="451.05" r="1.6666666666666667" />
<circle cx="802.34" cy="451.94" r="1.6666666666666667" />
<circle cx="802.57" cy="451.71" r="1.6666666666666667" />
<circle cx="802.81" cy="452.64" r="1.6666666666666667" />
<circle cx="803.05" cy="451.75" r="1.6666666666666667" />
<circle cx="803.29" cy="452.05" r="1.6666666666666667" />
<circle cx="803.52" cy="451.68" r="1.6666666666666667" />
<circle cx="803.76" cy="451.69" r="1.6666666666666667" />
<circle cx="803.99" cy="451.34" r="1.6666666666666667" />
<circle cx="804.23" cy="452.00" r="1.6666666666666667" />
<circle cx="804.46" cy="451.60" r="1.6666666666666667" />
<circle cx="804.70" cy="451.18" r="1.6666666666666667" />
<circle cx="804.93" cy="451.53" r="1.6666666666666667" />
<circle cx="805.17" cy="451.86" r="1.6666666666666667" />
<circle cx="805.40" cy="451.60" r="1.6666666666666667" />
<circle cx="805.64" cy="451.97" r="1.6666666666666667" />
<circle cx="805.88" cy="452.12" r="1.6666666666666667" />
<circle cx="806.12" cy="452.04" r="1.6666666666666667" />
<circle cx="806.34" cy="450.53" r="1.6666666666666667" />
<circle cx="806.57" cy="450.82" r="1.6666666666666667" />
<circle cx="806.81" cy="451.69" r="1.6666666666666667" />
<circle cx="807.04" cy="451.97" r="1.6666666666666667" />
<circle cx="807.28" cy="451.69" r="1.6666666666666667" />
<circle cx="807.52" cy="452.42" r="1.6666666666666667" />
<circle cx="807.76" cy="452.10" r="1.6666666666666667" />
<circle cx="808.00" cy="452.07" r="1.6666666666666667" />
<circle cx="808.23" cy="451.36" r="1.6666666666666667" />
<circle cx="808.46" cy="451.25" r="1.6666666666666667" />
<circle cx="808.70" cy="452.22" r="1.6666666666666667" />
<circle cx="808.95" cy="452.75" r="1.6666666666666667" />
<circle cx="809.19" cy="452.29" r="1.6666666666666667" />
<circle cx="809.43" cy="452.34" r="1.6666666666666667" />
<circle cx="809.66" cy="451.74" r="1.6666666666666667" />
<circle cx="809.90" cy="451.55" r="1.6666666666666667" />
<circle cx="810.14" cy="452.19" r="1.6666666666666667" />
<circle cx="810.38" cy="451.79" r="1.6666666666666667" />
<circle cx="810.61" cy="452.06" r="1.6666666666666667" />
<circle cx="810.86" cy="452.77" r="1.6666666666666667" />
<circle cx="811.10" cy="452.60" r="1.6666666666666667" />
<circle cx="811.33" cy="451.09" r="1.6666666666666667" />
<circle cx="811.57" cy="451.58" r="1.6666666666666667" />
<circle cx="811.80" cy="451.24" r="1.6666666666666667" />
<circle cx="812.04" cy="452.60" r="1.6666666666666667" />
<circle cx="812.28" cy="452.06" r="1.6666666666666667" />
<circle cx="812.52" cy="452.75" r="1.6666666666666667" />
<circle cx="812.77" cy="453.49" r="1.6666666666666667" />
<circle cx="813.01" cy="451.64" r="1.6666666666666667" />
<circle cx="813.24" cy="451.58" r="1.6666666666666667" />
<circle cx="813.49" cy="452.55" r="1.6666666666666667" />
<circle cx="813.73" cy="452.69" r="1.6666666666666667" />
<circle cx="813.97" cy="452.42" r="1.6666666666666667" />
<circle cx="814.22" cy="453.43" r="1.6666666666666667" />
<circle cx="814.47" cy="453.03" r="1.6666666666666667" />
<circle cx="814.71" cy="452.69" r="1.6666666666666667" />
<circle cx="814.95" cy="452.24" r="1.6666666666666667" />
<circle cx="815.19" cy="452.46" r="1.6666666666666667" />
<circle cx="815.44" cy="452.88" r="1.6666666666666667" />
<circle cx="815.68" cy="452.71" r="1.6666666666666667" />
<circle cx="815.93" cy="453.30" r="1.6666666666666667" />
<circle cx="816.18" cy="453.48" r="1.6666666666666667" />
<circle cx="816.42" cy="452.35" r="1.6666666666666667" />
<circle cx="816.66" cy="452.56" r="1.6666666666666667" />
<circle cx="816.91" cy="452.40" r="1.6666666666666667" />
<circle cx="817.14" cy="452.12" r="1.6666666666666667" />
<circle cx="817.38" cy="452.12" r="1.6666666666666667" />
<circle cx="817.63" cy="453.08" r="1.6666666666666667" />
<circle cx="817.88" cy="453.74" r="1.6666666666666667" />
<circle cx="818.13" cy="452.55" r="1.6666666666666667" />
<circle cx="818.37" cy="453.27" r="1.6666666666666667" />
<circle cx="818.62" cy="453.30" r="1.6666666666666667" />
<circle cx="818.88" cy="454.85" r="1.6666666666666667" />
<circle cx="819.14" cy="454.28" r="1.6666666666666667" />
<circle cx="819.41" cy="455.01" r="1.6666666666666667" />
<circle cx="819.67" cy="454.76" r="1.6666666666666667" />
<circle cx="819.92" cy="453.91" r="1.6666666666666667" />
<circle cx="820.18" cy="454.46" r="1.6666666666666667" />
<circle cx="820.44" cy="454.19" r="1.6666666666666667" />
<circle cx="820.69" cy="454.19" r="1.6666666666666667" />
<circle cx="820.94" cy="453.59" r="1.6666666666666667" />
<circle cx="821.21" cy="454.81" r="1.6666666666666667" />
<circle cx="821.46" cy="453.92" r="1.6666666666666667" />
<circle cx="821.71" cy="453.34" r="1.6666666666666667" />
<circle cx="821.96" cy="453.11" r="1.6666666666666667" />
<circle cx="822.20" cy="453.14" r="1.6666666666666667" />
<circle cx="822.46" cy="454.71" r="1.6666666666666667" />
<circle cx="822.73" cy="454.77" r="1.6666666666666667" />
</g>
<g stroke="black">
<line x1="813.75" x2="813.75" y1="510.00" y2="520.00" />
<line x1="760.60" x2="760.60" y1="510.00" y2="520.00" />
<line x1="707.45" x2="707.45" y1="510.00" y2="520.00" />
<line x1="656.01" x2="656.01" y1="510.00" y2="520.00" />
<line x1="602.86" x2="602.86" y1="510.00" y2="520.00" />
<line x1="551.42" x2="551.42" y1="510.00" y2="520.00" />
<line x1="498.27" x2="498.27" y1="510.00" y2="520.00" />
<line x1="445.11" x2="445.11" y1="510.00" y2="520.00" />
<line x1="393.68" x2="393.68" y1="510.00" y2="520.00" />
<line x1="340.52" x2="340.52" y1="510.00" y2="520.00" />
<line x1="289.09" x2="289.09" y1="510.00" y2="520.00" />
<line x1="235.93" x2="235.93" y1="510.00" y2="520.00" />
<line x1="187.92" x2="187.92" y1="510.00" y2="520.00" />
<g fill="black" font-family="Arial, sans-serif" font-size="18.0" stroke="none" text-anchor="start" transform="translate(9.0 0.0)">
<text x="813.75" y="530.57">Feb</text>
<text x="760.60" y="530.57">Jan</text>
<text x="707.45" y="530.57">Dec</text>
<text x="656.01" y="530.57">Nov</text>
<text x="602.86" y="530.57">Oct</text>
<text x="551.42" y="530.57">Sep</text>
<text x="498.27" y="530.57">Aug</text>
<text x="445.11" y="530.57">Jul</text>
<text x="393.68" y="530.57">Jun</text>
<text x="340.52" y="530.57">May</text>
<text x="289.09" y="530.57">Apr</text>
<text x="235.93" y="530.57">Mar</text>
<text x="187.92" y="530.57">Feb</text>
</g>
<line x1="150.00" x2="850.00" y1="510.00" y2="510.00" />
</g>
<g stroke="black">
<line x1="150.00" x2="140.00" y1="510.00" y2="510.00" />
<line x1="150.00" x2="140.00" y1="216.29" y2="216.29" />
<g fill="black" font-family="Arial, sans-serif" font-size="18.0" stroke="none" text-anchor="end">
<text x="141.00" y="501.00">0</text>
<text x="141.00" y="207.29">10</text>
</g>
<line x1="150.00" x2="150.00" y1="510.00" y2="90.00" />
</g>
</g>
</svg>