<?xml version="1.0"?>
<svg version="1.1" viewBox="0 0 1000 600" xmlns:xlink="http://www.w3.org/1999/xlink" xmlns="http://www.w3.org/2000/svg">
<g>
<g stroke-dasharray="3.6 7.2" stroke-width="0.72" stroke="#caa">
<line x1="839.86" x2="839.86" y1="510.00" y2="90.00" />
<line x1="791.78" x2="791.78" y1="510.00" y2="90.00" />
<line x1="740.39" x2="740.39" y1="510.00" y2="90.00" />
<line x1="689.00" x2="689.00" y1="510.00" y2="90.00" />
<line x1="639.26" x2="639.26" y1="510.00" y2="90.00" />
<line x1="587.87" x2="587.87" y1="510.00" y2="90.00" />
<line x1="538.13" x2="538.13" y1="510.00" y2="90.00" />
<line x1="486.74" x2="486.74" y1="510.00" y2="90.00" />
<line x1="435.35" x2="435.35" y1="510.00" y2="90.00" />
<line x1="385.61" x2="385.61" y1="510.00" y2="90.00" />
<line x1="334.22" x2="334.22" y1="510.00" y2="90.00" />
<line x1="284.48" x2="284.48" y1="510.00" y2="90.00" />
<line x1="233.09" x2="233.09" y1="510.00" y2="90.00" />
<line x1="186.67" x2="186.67" y1="510.00" y2="90.00" />
<line x1="150.00" x2="850.00" y1="510.00" y2="510.00" />
<line x1="150.00" x2="850.00" y1="216.29" y2="216.29" />
</g>
<g>
<text dominant-baseline="hanging" dx="-36.0" dy="18.0" fill="#0004" font-family="Arial, sans-serif" font-size="36" stroke="none" text-anchor="end" x="850.00" y="128.18">R05</text>
</g>
<g>
<text dominant-baseline="text-bottom" dy="-12.0" fill="black" font-family="Arial, sans-serif" font-size="18.0" font-style="italic" stroke="none" text-anchor="middle" x="500.00" y="90.00">Years 2023 to 2024</text>
</g>
<g>
<text dominant-baseline="central" dx="12.0" dy="12.0" fill="black" font-family="Arial, sans-serif" font-size="18.0" font-style="italic" stroke="none" text-anchor="middle" text-orientation="sideways" writing-mode="vertical-lr" x="850.00" y="300.00">log(Drips per day)</text>
</g>
<polyline fill="none" points="726.74,469.75 727.22,473.87 727.57,464.57 728.05,473.56 728.45,467.64 728.95,474.84 729.32,466.02 729.80,473.87 730.16,464.88 730.60,471.42 731.00,467.71 731.46,472.28 731.84,466.89 732.27,470.26 732.65,466.97 733.10,471.40 733.53,470.86 733.97,471.18 734.33,464.61 734.78,471.74 735.17,467.75 735.72,477.23 736.11,467.85 736.60,474.37 737.00,467.92 737.51,475.40 737.94,470.56 738.46,475.63 738.94,473.69 739.45,475.21 739.80,464.81 740.31,475.57 740.75,470.66 741.24,474.15 741.63,467.83 742.12,474.29 742.50,466.63 742.99,473.95 743.39,468.42 743.87,473.29 744.33,472.43 744.80,472.90 745.26,472.67 745.74,473.32 774.98,449.93 775.20,450.65 775.41,450.53 775.64,450.86 775.86,451.33 776.08,450.80 776.30,449.93 776.51,450.25 776.74,451.19 776.96,450.86 777.17,450.21 777.40,451.85 777.63,452.02 777.86,450.89 778.07,450.63 778.30,451.59 778.52,450.24 778.74,451.19 778.96,449.90 779.17,450.10 779.40,451.11 779.61,450.32 779.83,450.94 780.06,451.49 780.29,451.74 780.51,451.05 780.74,451.94 780.97,451.71 781.20,452.64 781.43,451.75 781.66,452.05 781.89,451.68 782.12,451.69 782.34,451.34 782.57,452.00 782.80,451.60 783.02,451.18 783.25,451.53 783.48,451.86 783.71,451.60 783.94,451.97 784.17,452.12 784.40,452.04 784.62,450.53 784.84,450.82 785.07,451.69 785.30,451.97 785.52,451.69 785.76,452.42 785.99,452.10 786.22,452.07 786.44,451.36 786.67,451.25 786.90,452.22 787.14,452.75 787.37,452.29 787.60,452.34 787.83,451.74 788.05,451.55 788.29,452.19 788.51,451.79 788.75,452.06 788.98,452.77 789.22,452.60 789.44,451.09 789.67,451.58 789.89,451.24 790.13,452.60 790.36,452.06 790.59,452.75 790.83,453.49 791.06,451.64 791.29,451.58 791.52,452.55 791.76,452.69 791.99,452.42 792.23,453.43 792.47,453.03 792.71,452.69 792.94,452.24 793.17,452.46 793.41,452.88 793.65,452.71 793.89,453.30 794.13,453.48 794.36,452.35 794.60,452.56 794.83,452.40 795.06,452.12 795.29,452.12 795.53,453.08 795.77,453.74 796.01,452.55 796.25,453.27 796.49,453.30 796.74,454.85 796.99,454.28 797.25,455.01 797.50,454.76 797.74,453.91 797.99,454.46 798.24,454.19 798.49,454.19 798.73,453.59 798.99,454.81 799.23,453.92 799.47,453.34 799.71,453.11 799.95,453.14 800.20,454.71 800.46,454.77 828.02,460.74 828.33,460.53 828.63,459.42 828.94,460.62 829.24,460.50 829.55,460.57 829.86,460.49 830.17,461.21 830.49,461.62 830.81,461.00 831.12,461.08 831.43,461.15 831.75,461.63 832.07,461.19 832.39,461.82 832.70,461.02 833.02,461.89 833.34,461.68 833.66,461.04 833.98,461.72 834.29,461.00 834.62,462.33 834.95,462.92 835.28,462.04 835.60,462.50 835.93,462.06 836.25,461.83 836.57,462.02 836.90,462.08 837.22,461.49 837.54,462.08 837.88,463.18 838.22,464.05 838.56,462.80 838.90,463.96 839.24,463.13 839.58,463.40 839.93,464.28 840.28,464.83 840.63,464.14 840.98,464.63 841.36,466.46 841.73,465.90 842.09,465.42 842.45,465.14 842.82,465.77 843.21,467.48 843.58,465.56 843.94,465.84 844.31,465.67 844.74,470.52 845.11,466.05 845.48,465.56 845.85,465.66 846.31,472.86 846.70,467.42 847.09,467.40 847.48,467.03 847.95,473.24 848.35,467.89 848.75,468.55 849.17,470.02 849.60,470.03 850.00,468.27" stroke-dasharray="3.6 3.6" stroke-width="3.6" stroke="#aaa" />
<g>
<circle cx="726.74" cy="469.75" r="1.6666666666666667" />
<circle cx="727.22" cy="473.87" r="1.6666666666666667" />
<circle cx="727.57" cy="464.57" r="1.6666666666666667" />
<circle cx="728.05" cy="473.56" r="1.6666666666666667" />
<circle cx="728.45" cy="467.64" r="1.6666666666666667" />
<circle cx="728.95" cy="474.84" r="1.6666666666666667" />
<circle cx="729.32" cy="466.02" r="1.6666666666666667" />
<circle cx="729.80" cy="473.87" r="1.6666666666666667" />
<circle cx="730.16" cy="464.88" r="1.6666666666666667" />
<circle cx="730.60" cy="471.42" r="1.6666666666666667" />
<circle cx="731.00" cy="467.71" r="1.6666666666666667" />
<circle cx="731.46" cy="472.28" r="1.6666666666666667" />
<circle cx="731.84" cy="466.89" r="1.6666666666666667" />
<circle cx="732.27" cy="470.26" r="1.6666666666666667" />
<circle cx="732.65" cy="466.97" r="1.6666666666666667" />
<circle cx="733.10" cy="471.40" r="1.6666666666666667" />
<circle cx="733.53" cy="470.86" r="1.6666666666666667" />
<circle cx="733.97" cy="471.18" r="1.6666666666666667" />
<circle cx="734.33" cy="464.61" r="1.6666666666666667" />
<circle cx="734.78" cy="471.74" r="1.6666666666666667" />
<circle cx="735.17" cy="467.75" r="1.6666666666666667" />
<circle cx="735.72" cy="477.23" r="1.6666666666666667" />
<circle cx="736.11" cy="467.85" r="1.6666666666666667" />
<circle cx="736.60" cy="474.37" r="1.6666666666666667" />
<circle cx="737.00" cy="467.92" r="1.6666666666666667" />
<circle cx="737.51" cy="475.40" r="1.6666666666666667" />
<circle cx="737.94" cy="470.56" r="1.6666666666666667" />
<circle cx="738.46" cy="475.63" r="1.6666666666666667" />
<circle cx="738.94" cy="473.69" r="1.6666666666666667" />
<circle cx="739.45" cy="475.21" r="1.6666666666666667" />
<circle cx="739.80" cy="464.81" r="1.6666666666666667" />
<circle cx="740.31" cy="475.57" r="1.6666666666666667" />
<circle cx="740.75" cy="470.66" r="1.6666666666666667" />
<circle cx="741.24" cy="474.15" r="1.6666666666666667" />
<circle cx="741.63" cy="467.83" r="1.6666666666666667" />
<circle cx="742.12" cy="474.29" r="1.6666666666666667" />
<circle cx="742.50" cy="466.63" r="1.6666666666666667" />
<circle cx="742.99" cy="473.95" r="1.6666666666666667" />
<circle cx="743.39" cy="468.42" r="1.6666666666666667" />
<circle cx="743.87" cy="473.29" r="1.6666666666666667" />
<circle cx="744.33" cy="472.43" r="1.6666666666666667" />
<circle cx="744.80" cy="472.90" r="1.6666666666666667" />
<circle cx="745.26" cy="472.67" r="1.6666666666666667" />
<circle cx="745.74" cy="473.32" r="1.6666666666666667" />
<circle cx="774.98" cy="449.93" r="1.6666666666666667" />
<circle cx="775.20" cy="450.65" r="1.6666666666666667" />
<circle cx="775.41" cy="450.53" r="1.6666666666666667" />
<circle cx="775.64" cy="450.86" r="1.6666666666666667" />
<circle cx="775.86" cy="451.33" r="1.6666666666666667" />
<circle cx="776.08" cy="450.80" r="1.6666666666666667" />
<circle cx="776.30" cy="449.93" r="1.6666666666666667" />
<circle cx="776.51" cy="450.25" r="1.6666666666666667" />
<circle cx="776.74" cy="451.19" r="1.6666666666666667" />
<circle cx="776.96" cy="450.86" r="1.6666666666666667" />
<circle cx="777.17" cy="450.21" r="1.6666666666666667" />
<circle cx="777.40" cy="451.85" r="1.6666666666666667" />
<circle cx="777.63" cy="452.02" r="1.6666666666666667" />
<circle cx="777.86" cy="450.89" r="1.6666666666666667" />
<circle cx="778.07" cy="450.63" r="1.6666666666666667" />
<circle cx="778.30" cy="451.59" r="1.6666666666666667" />
<circle cx="778.52" cy="450.24" r="1.6666666666666667" />
<circle cx="778.74" cy="451.19" r="1.6666666666666667" />
<circle cx="778.96" cy="449.90" r="1.6666666666666667" />
<circle cx="779.17" cy="450.10" r="1.6666666666666667" />
<circle cx="779.40" cy="451.11" r="1.6666666666666667" />
<circle cx="779.61" cy="450.32" r="1.6666666666666667" />
<circle cx="779.83" cy="450.94" r="1.6666666666666667" />
<circle cx="780.06" cy="451.49" r="1.6666666666666667" />
<circle cx="780.29" cy="451.74" r="1.6666666666666667" />
<circle cx="780.51" cy="451.05" r="1.6666666666666667" />
<circle cx="780.74" cy="451.94" r="1.6666666666666667" />
<circle cx="780.97" cy="451.71" r="1.6666666666666667" />
<circle cx="781.20" cy="452.64" r="1.6666666666666667" />
<circle cx="781.43" cy="451.75" r="1.6666666666666667" />
<circle cx="781.66" cy="452.05" r="1.6666666666666667" />
<circle cx="781.89" cy="451.68" r="1.6666666666666667" />
<circle cx="782.12" cy="451.69" r="1.6666666666666667" />
<circle cx="782.34" cy="451.34" r="1.6666666666666667" />
<circle cx="782.57" cy="452.00" r="1.6666666666666667" />
<circle cx="782.80" cy="451.60" r="1.6666666666666667" />
<circle cx="783.02" cy="451.18" r="1.6666666666666667" />
<circle cx="783.25" cy="451.53" r="1.6666666666666667" />
<circle cx="783.48" cy="451.86" r="1.6666666666666667" />
<circle cx="783.71" cy="451.60" r="1.6666666666666667" />
<circle cx="783.94" cy="451.97" r="1.6666666666666667" />
<circle cx="784.17" cy="452.12" r="1.6666666666666667" />
<circle cx="784.40" cy="452.04" r="1.6666666666666667" />
<circle cx="784.62" cy="450.53" r="1.6666666666666667" />
<circle cx="784.84" cy="450.82" r="1.6666666666666667" />
<circle cx="785.07" cy="451.69" r="1.6666666666666667" />
<circle cx="785.30" cy="451.97" r="1.6666666666666667" />
<circle cx="785.52" cy="451.69" r="1.6666666666666667" />
<circle cx="785.76" cy="452.42" r="1.6666666666666667" />
<circle cx="785.99" cy="452.10" r="1.6666666666666667" />
<circle cx="786.22" cy="452.07" r="1.6666666666666667" />
<circle cx="786.44" cy="451.36" r="1.6666666666666667" />
<circle cx="786.67" cy="451.25" r="1.6666666666666667" />
<circle cx="786.90" cy="452.22" r="1.6666666666666667" />
<circle cx="787.14" cy="452.75" r="1.6666666666666667" />
<circle cx="787.37" cy="452.29" r="1.6666666666666667" />
<circle cx="787.60" cy="452.34" r="1.6666666666666667" />
<circle cx="787.83" cy="451.74" r="1.6666666666666667" />
<circle cx="788.05" cy="451.55" r="1.6666666666666667" />
<circle cx="788.29" cy="452.19" r="1.6666666666666667" />
<circle cx="788.51" cy="451.79" r="1.6666666666666667" />
<circle cx="788.75" cy="452.06" r="1.6666666666666667" />
<circle cx="788.98" cy="452.77" r="1.6666666666666667" />
<circle cx="789.22" cy="452.60" r="1.6666666666666667" />
<circle cx="789.44" cy="451.09" r="1.6666666666666667" />
<circle cx="789.67" cy="451.58" r="1.6666666666666667" />
<circle cx="789.89" cy="451.24" r="1.6666666666666667" />
<circle cx="790.13" cy="452.60" r="1.6666666666666667" />
<circle cx="790.36" cy="452.06" r="1.6666666666666667" />
<circle cx="790.59" cy="452.75" r="1.6666666666666667" />
<circle cx="790.83" cy="453.49" r="1.6666666666666667" />
<circle cx="791.06" cy="451.64" r="1.6666666666666667" />
<circle cx="791.29" cy="451.58" r="1.6666666666666667" />
<circle cx="791.52" cy="452.55" r="1.6666666666666667" />
<circle cx="791.76" cy="452.69" r="1.6666666666666667" />
<circle cx="791.99" cy="452.42" r="1.6666666666666667" />
<circle cx="792.23" cy="453.43" r="1.6666666666666667" />
<circle cx="792.47" cy="453.03" r="1.6666666666666667" />
<circle cx="792.71" cy="452.69" r="1.6666666666666667" />
<circle cx="792.94" cy="452.24" r="1.6666666666666667" />
<circle cx="793.17" cy="452.46" r="1.6666666666666667" />
<circle cx="793.41" cy="452.88" r="1.6666666666666667" />
<circle cx="793.65" cy="452.71" r="1.6666666666666667" />
<circle cx="793.89" cy="453.30" r="1.6666666666666667" />
<circle cx="794.13" cy="453.48" r="1.6666666666666667" />
<circle cx="794.36" cy="452.35" r="1.6666666666666667" />
<circle cx="794.60" cy="452.56" r="1.6666666666666667" />
<circle cx="794.83" cy="452.40" r="1.6666666666666667" />
<circle cx="795.06" cy="452.12" r="1.6666666666666667" />
<circle cx="795.29" cy="452.12" r="1.6666666666666667" />
<circle cx="795.53" cy="453.08" r="1.6666666666666667" />
<circle cx="795.77" cy="453.74" r="1.6666666666666667" />
<circle cx="796.01" cy="452.55" r="1.6666666666666667" />
<circle cx="796.25" cy="453.27" r="1.6666666666666667" />
<circle cx="796.49" cy="453.30" r="1.6666666666666667" />
<circle cx="796.74" cy="454.85" r="1.6666666666666667" />
<circle cx="796.99" cy="454.28" r="1.6666666666666667" />
<circle cx="797.25" cy="455.01" r="1.6666666666666667" />
<circle cx="797.50" cy="454.76" r="1.6666666666666667" />
<circle cx="797.74" cy="453.91" r="1.6666666666666667" />
<circle cx="797.99" cy="454.46" r="1.6666666666666667" />
<circle cx="798.24" cy="454.19" r="1.6666666666666667" />
<circle cx="798.49" cy="454.19" r="1.6666666666666667" />
<circle cx="798.73" cy="453.59" r="1.6666666666666667" />
<circle cx="798.99" cy="454.81" r="1.6666666666666667" />
<circle cx="799.23" cy="453.92" r="1.6666666666666667" />
<circle cx="799.47" cy="453.34" r="1.6666666666666667" />
<circle cx="799.71" cy="453.11" r="1.6666666666666667" />
<circle cx="799.95" cy="453.14" r="1.6666666666666667" />
<circle cx="800.20" cy="454.71" r="1.6666666666666667" />
<circle cx="800.46" cy="454.77" r="1.6666666666666667" />
<circle cx="828.02" cy="460.74" r="1.6666666666666667" />
<circle cx="828.33" cy="460.53" r="1.6666666666666667" />
<circle cx="828.63" cy="459.42" r="1.6666666666666667" />
<circle cx="828.94" cy="460.62" r="1.6666666666666667" />
<circle cx="829.24" cy="460.50" r="1.6666666666666667" />
<circle cx="829.55" cy="460.57" r="1.6666666666666667" />
<circle cx="829.86" cy="460.49" r="1.6666666666666667" />
<circle cx="830.17" cy="461.21" r="1.6666666666666667" />
<circle cx="830.49" cy="461.62" r="1.6666666666666667" />
<circle cx="830.81" cy="461.00" r="1.6666666666666667" />
<circle cx="831.12" cy="461.08" r="1.6666666666666667" />
<circle cx="831.43" cy="461.15" r="1.6666666666666667" />
<circle cx="831.75" cy="461.63" r="1.6666666666666667" />
<circle cx="832.07" cy="461.19" r="1.6666666666666667" />
<circle cx="832.39" cy="461.82" r="1.6666666666666667" />
<circle cx="832.70" cy="461.02" r="1.6666666666666667" />
<circle cx="833.02" cy="461.89" r="1.6666666666666667" />
<circle cx="833.34" cy="461.68" r="1.6666666666666667" />
<circle cx="833.66" cy="461.04" r="1.6666666666666667" />
<circle cx="833.98" cy="461.72" r="1.6666666666666667" />
<circle cx="834.29" cy="461.00" r="1.6666666666666667" />
<circle cx="834.62" cy="462.33" r="1.6666666666666667" />
<circle cx="834.95" cy="462.92" r="1.6666666666666667" />
<circle cx="835.28" cy="462.04" r="1.6666666666666667" />
<circle cx="835.60" cy="462.50" r="1.6666666666666667" />
<circle cx="835.93" cy="462.06" r="1.6666666666666667" />
<circle cx="836.25" cy="461.83" r="1.6666666666666667" />
<circle cx="836.57" cy="462.02" r="1.6666666666666667" />
<circle cx="836.90" cy="462.08" r="1.6666666666666667" />
<circle cx="837.22" cy="461.49" r="1.6666666666666667" />
<circle cx="837.54" cy="462.08" r="1.6666666666666667" />
<circle cx="837.88" cy="463.18" r="1.6666666666666667" />
<circle cx="838.22" cy="464.05" r="1.6666666666666667" />
<circle cx="838.56" cy="462.80" r="1.6666666666666667" />
<circle cx="838.90" cy="463.96" r="1.6666666666666667" />
<circle cx="839.24" cy="463.13" r="1.6666666666666667" />
<circle cx="839.58" cy="463.40" r="1.6666666666666667" />
<circle cx="839.93" cy="464.28" r="1.6666666666666667" />
<circle cx="840.28" cy="464.83" r="1.6666666666666667" />
<circle cx="840.63" cy="464.14" r="1.6666666666666667" />
<circle cx="840.98" cy="464.63" r="1.6666666666666667" />
<circle cx="841.36" cy="466.46" r="1.6666666666666667" />
<circle cx="841.73" cy="465.90" r="1.6666666666666667" />
<circle cx="842.09" cy="465.42" r="1.6666666666666667" />
<circle cx="842.45" cy="465.14" r="1.6666666666666667" />
<circle cx="842.82" cy="465.77" r="1.6666666666666667" />
<circle cx="843.21" cy="467.48" r="1.6666666666666667" />
<circle cx="843.58" cy="465.56" r="1.6666666666666667" />
<circle cx="843.94" cy="465.84" r="1.6666666666666667" />
<circle cx="844.31" cy="465.67" r="1.6666666666666667" />
<circle cx="844.74" cy="470.52" r="1.6666666666666667" />
<circle cx="845.11" cy="466.05" r="1.6666666666666667" />
<circle cx="845.48" cy="465.56" r="1.6666666666666667" />
<circle cx="845.85" cy="465.66" r="1.6666666666666667" />
<circle cx="846.31" cy="472.86" r="1.6666666666666667" />
<circle cx="846.70" cy="467.42" r="1.6666666666666667" />
<circle cx="847.09" cy="467.40" r="1.6666666666666667" />
<circle cx="847.48" cy="467.03" r="1.6666666666666667" />
<circle cx="847.95" cy="473.24" r="1.6666666666666667" />
<circle cx="848.35" cy="467.89" r="1.6666666666666667" />
<circle cx="848.75" cy="468.55" r="1.6666666666666667" />
<circle cx="849.17" cy="470.02" r="1.6666666666666667" />
<circle cx="849.60" cy="470.03" r="1.6666666666666667" />
<circle cx="850.00" cy="468.27" r="1.6666666666666667" />
</g>
<g stroke="black">
<line x1="839.86" x2="839.86" y1="510.00" y2="520.00" />
<line x1="791.78" x2="791.78" y1="510.00" y2="520.00" />
<line x1="740.39" x2="740.39" y1="510.00" y2="520.00" />
<line x1="689.00" x2="689.00" y1="510.00" y2="520.00" />
<line x1="639.26" x2="639.26" y1="510.00" y2="520.00" />
<line x1="587.87" x2="587.87" y1="510.00" y2="520.00" />
<line x1="538.13" x2="538.13" y1="510.00" y2="520.00" />
<line x1="486.74" x2="486.74" y1="510.00" y2="520.00" />
<line x1="435.35" x2="435.35" y1="510.00" y2="520.00" />
<line x1="385.61" x2="385.61" y1="510.00" y2="520.00" />
<line x1="334.22" x2="334.22" y1="510.00" y2="520.00" />
<line x1="284.48" x2="284.48" y1="510.00" y2="520.00" />
<line x1="233.09" x2="233.09" y1="510.00" y2="520.00" />
<line x1="186.67" x2="186.67" y1="510.00" y2="520.00" />
<g fill="black" font-family="Arial, sans-serif" font-size="18.0" stroke="none" text-anchor="start" transform="translate(9.0 0.0)">
<text x="839.86" y="530.57">Mar</text>
<text x="791.78" y="530.57">Feb</text>
<text x="740.39" y="530.57">Jan</text>
<text x="689.00" y="530.57">Dec</text>
<text x="639.26" y="530.57">Nov</text>
<text x="587.87" y="530.57">Oct</text>
<text x="538.13" y="530.57">Sep</text>
<text x="486.74" y="530.57">Aug</text>
<text x="435.35" y="530.57">Jul</text>
<text x="385.61" y="530.57">Jun</text>
<text x="334.22" y="530.57">May</text>
<text x="284.48" y="530.57">Apr</text>
<text x="233.09" y="530.57">Mar</text>
<text x="186.67" y="530.57">Feb</text>
</g>
<line x1="150.00" x2="850.00" y1="510.00" y2="510.00" />
</g>
<g stroke="black">
<line x1="150.00" x2="140.00" y1="510.00" y2="510.00" />
<line x1="150.00" x2="140.00" y1="216.29" y2="216.29" />
<g fill="black" font-family="Arial, sans-serif" font-size="18.0" stroke="none" text-anchor="end">
<text x="141.00" y="501.00">0</text>
<text x="141.00" y="207.29">10</text>
</g>
<line x1="150.00" x2="150.00" y1="510.00" y2="90.00" />
</g>
</g>
</svg>