<?xml version="1.0"?>
<svg version="1.1" viewBox="0 0 1000 600" xmlns:xlink="http://www.w3.org/1999/xlink" xmlns="http://www.w3.org/2000/svg">
<g>
<g stroke-dasharray="3.6 7.2" stroke-width="0.72" stroke="#caa">
<line x1="813.75" x2="813.75" y1="510.00" y2="90.00" />
<line x1="760.60" x2="760.60" y1="510.00" y2="90.00" />
<line x1="707.45" x2="707.45" y1="510.00" y2="90.00" />
<line x1="656.01" x2="656.01" y1="510.00" y2="90.00" />
<line x1="602.86" x2="602.86" y1="510.00" y2="90.00" />
<line x1="551.42" x2="551.42" y1="510.00" y2="90.00" />
<line x1="498.27" x2="498.27" y1="510.00" y2="90.00" />
<line x1="445.11" x2="445.11" y1="510.00" y2="90.00" />
<line x1="393.68" x2="393.68" y1="510.00" y2="90.00" />
<line x1="340.52" x2="340.52" y1="510.00" y2="90.00" />
<line x1="289.09" x2="289.09" y1="510.00" y2="90.00" />
<line x1="235.93" x2="235.93" y1="510.00" y2="90.00" />
<line x1="187.92" x2="187.92" y1="510.00" y2="90.00" />
<line x1="150.00" x2="850.00" y1="510.00" y2="510.00" />
<line x1="150.00" x2="850.00" y1="319.09" y2="319.09" />
<line x1="150.00" x2="850.00" y1="128.18" y2="128.18" />
</g>
<g>
<text dominant-baseline="hanging" dx="-36.0" dy="18.0" fill="#0004" font-family="Arial, sans-serif" font-size="36" stroke="none" text-anchor="end" x="850.00" y="128.18">R05</text>
</g>
<g>
<text dominant-baseline="text-bottom" dy="-12.0" fill="black" font-family="Arial, sans-serif" font-size="18.0" font-style="italic" stroke="none" text-anchor="middle" x="500.00" y="90.00">Days since start</text>
</g>
<g>
<text dominant-baseline="central" dx="12.0" dy="12.0" fill="black" font-family="Arial, sans-serif" font-size="18.0" font-style="italic" stroke="none" text-anchor="middle" text-orientation="sideways" writing-mode="vertical-lr" x="850.00" y="300.00">Drips per day</text>
</g>
<polyline fill="none" points="746.48,434.85 746.98,444.67 747.35,420.35 747.84,443.98 748.25,429.25 748.77,446.79 749.15,424.66 749.65,444.67 750.02,421.28 750.48,439.00 750.89,429.42 751.36,441.04 751.76,427.15 752.20,436.12 752.60,427.37 753.06,438.95 753.51,437.63 753.97,438.41 754.33,420.46 754.80,439.77 755.21,429.55 755.77,451.75 756.18,429.82 756.69,445.78 757.10,430.01 757.62,448.00 758.07,436.89 758.60,448.48 759.10,444.28 759.63,447.58 759.99,421.08 760.52,448.34 760.97,437.14 761.48,445.29 761.89,429.76 762.40,445.61 762.79,426.43 763.29,444.86 763.71,431.35 764.20,443.37 764.67,441.40 765.16,442.48 765.64,441.95 766.13,443.44 796.37,362.40 796.60,365.97 796.83,365.40 797.05,367.02 797.29,369.26 797.52,366.73 797.74,362.40 797.96,363.99 798.19,368.61 798.42,367.00 798.65,363.78 798.88,371.73 799.12,372.53 799.35,367.15 799.58,365.91 799.81,370.52 800.04,363.95 800.27,368.60 800.49,362.28 800.71,363.25 800.94,368.20 801.17,364.38 801.40,367.38 801.63,370.06 801.87,371.24 802.10,367.92 802.34,372.19 802.57,371.08 802.81,375.39 803.05,371.29 803.29,372.68 803.52,370.95 803.76,371.00 803.99,369.33 804.23,372.47 804.46,370.58 804.70,368.57 804.93,370.23 805.17,371.79 805.40,370.56 805.64,372.33 805.88,372.99 806.12,372.65 806.34,365.37 806.57,366.79 806.81,370.99 807.04,372.29 807.28,371.00 807.52,374.40 807.76,372.91 808.00,372.76 808.23,369.41 808.46,368.90 808.70,373.46 808.95,375.92 809.19,373.82 809.43,374.03 809.66,371.25 809.90,370.31 810.14,373.35 810.38,371.48 810.61,372.72 810.86,376.01 811.10,375.24 811.33,368.14 811.57,370.46 811.80,368.85 812.04,375.22 812.28,372.73 812.52,375.92 812.77,379.28 813.01,370.75 813.24,370.49 813.49,375.01 813.73,375.65 813.97,374.42 814.22,378.98 814.47,377.19 814.71,375.66 814.95,373.56 815.19,374.61 815.44,376.51 815.68,375.76 815.93,378.41 816.18,379.22 816.42,374.06 816.66,375.03 816.91,374.33 817.14,373.02 817.38,373.00 817.63,377.44 817.88,380.38 818.13,375.00 818.37,378.29 818.62,378.40 818.88,385.18 819.14,382.75 819.41,385.84 819.67,384.78 819.92,381.10 820.18,383.49 820.44,382.34 820.69,382.31 820.94,379.69 821.21,385.01 821.46,381.16 821.71,378.59 821.96,377.55 822.20,377.67 822.46,384.58 822.73,384.84" stroke-dasharray="3.6 3.6" stroke-width="3.6" stroke="#aaa" />
<g>
<circle cx="746.48" cy="434.85" r="1.6666666666666667" />
<circle cx="746.98" cy="444.67" r="1.6666666666666667" />
<circle cx="747.35" cy="420.35" r="1.6666666666666667" />
<circle cx="747.84" cy="443.98" r="1.6666666666666667" />
<circle cx="748.25" cy="429.25" r="1.6666666666666667" />
<circle cx="748.77" cy="446.79" r="1.6666666666666667" />
<circle cx="749.15" cy="424.66" r="1.6666666666666667" />
<circle cx="749.65" cy="444.67" r="1.6666666666666667" />
<circle cx="750.02" cy="421.28" r="1.6666666666666667" />
<circle cx="750.48" cy="439.00" r="1.6666666666666667" />
<circle cx="750.89" cy="429.42" r="1.6666666666666667" />
<circle cx="751.36" cy="441.04" r="1.6666666666666667" />
<circle cx="751.76" cy="427.15" r="1.6666666666666667" />
<circle cx="752.20" cy="436.12" r="1.6666666666666667" />
<circle cx="752.60" cy="427.37" r="1.6666666666666667" />
<circle cx="753.06" cy="438.95" r="1.6666666666666667" />
<circle cx="753.51" cy="437.63" r="1.6666666666666667" />
<circle cx="753.97" cy="438.41" r="1.6666666666666667" />
<circle cx="754.33" cy="420.46" r="1.6666666666666667" />
<circle cx="754.80" cy="439.77" r="1.6666666666666667" />
<circle cx="755.21" cy="429.55" r="1.6666666666666667" />
<circle cx="755.77" cy="451.75" r="1.6666666666666667" />
<circle cx="756.18" cy="429.82" r="1.6666666666666667" />
<circle cx="756.69" cy="445.78" r="1.6666666666666667" />
<circle cx="757.10" cy="430.01" r="1.6666666666666667" />
<circle cx="757.62" cy="448.00" r="1.6666666666666667" />
<circle cx="758.07" cy="436.89" r="1.6666666666666667" />
<circle cx="758.60" cy="448.48" r="1.6666666666666667" />
<circle cx="759.10" cy="444.28" r="1.6666666666666667" />
<circle cx="759.63" cy="447.58" r="1.6666666666666667" />
<circle cx="759.99" cy="421.08" r="1.6666666666666667" />
<circle cx="760.52" cy="448.34" r="1.6666666666666667" />
<circle cx="760.97" cy="437.14" r="1.6666666666666667" />
<circle cx="761.48" cy="445.29" r="1.6666666666666667" />
<circle cx="761.89" cy="429.76" r="1.6666666666666667" />
<circle cx="762.40" cy="445.61" r="1.6666666666666667" />
<circle cx="762.79" cy="426.43" r="1.6666666666666667" />
<circle cx="763.29" cy="444.86" r="1.6666666666666667" />
<circle cx="763.71" cy="431.35" r="1.6666666666666667" />
<circle cx="764.20" cy="443.37" r="1.6666666666666667" />
<circle cx="764.67" cy="441.40" r="1.6666666666666667" />
<circle cx="765.16" cy="442.48" r="1.6666666666666667" />
<circle cx="765.64" cy="441.95" r="1.6666666666666667" />
<circle cx="766.13" cy="443.44" r="1.6666666666666667" />
<circle cx="796.37" cy="362.40" r="1.6666666666666667" />
<circle cx="796.60" cy="365.97" r="1.6666666666666667" />
<circle cx="796.83" cy="365.40" r="1.6666666666666667" />
<circle cx="797.05" cy="367.02" r="1.6666666666666667" />
<circle cx="797.29" cy="369.26" r="1.6666666666666667" />
<circle cx="797.52" cy="366.73" r="1.6666666666666667" />
<circle cx="797.74" cy="362.40" r="1.6666666666666667" />
<circle cx="797.96" cy="363.99" r="1.6666666666666667" />
<circle cx="798.19" cy="368.61" r="1.6666666666666667" />
<circle cx="798.42" cy="367.00" r="1.6666666666666667" />
<circle cx="798.65" cy="363.78" r="1.6666666666666667" />
<circle cx="798.88" cy="371.73" r="1.6666666666666667" />
<circle cx="799.12" cy="372.53" r="1.6666666666666667" />
<circle cx="799.35" cy="367.15" r="1.6666666666666667" />
<circle cx="799.58" cy="365.91" r="1.6666666666666667" />
<circle cx="799.81" cy="370.52" r="1.6666666666666667" />
<circle cx="800.04" cy="363.95" r="1.6666666666666667" />
<circle cx="800.27" cy="368.60" r="1.6666666666666667" />
<circle cx="800.49" cy="362.28" r="1.6666666666666667" />
<circle cx="800.71" cy="363.25" r="1.6666666666666667" />
<circle cx="800.94" cy="368.20" r="1.6666666666666667" />
<circle cx="801.17" cy="364.38" r="1.6666666666666667" />
<circle cx="801.40" cy="367.38" r="1.6666666666666667" />
<circle cx="801.63" cy="370.06" r="1.6666666666666667" />
<circle cx="801.87" cy="371.24" r="1.6666666666666667" />
<circle cx="802.10" cy="367.92" r="1.6666666666666667" />
<circle cx="802.34" cy="372.19" r="1.6666666666666667" />
<circle cx="802.57" cy="371.08" r="1.6666666666666667" />
<circle cx="802.81" cy="375.39" r="1.6666666666666667" />
<circle cx="803.05" cy="371.29" r="1.6666666666666667" />
<circle cx="803.29" cy="372.68" r="1.6666666666666667" />
<circle cx="803.52" cy="370.95" r="1.6666666666666667" />
<circle cx="803.76" cy="371.00" r="1.6666666666666667" />
<circle cx="803.99" cy="369.33" r="1.6666666666666667" />
<circle cx="804.23" cy="372.47" r="1.6666666666666667" />
<circle cx="804.46" cy="370.58" r="1.6666666666666667" />
<circle cx="804.70" cy="368.57" r="1.6666666666666667" />
<circle cx="804.93" cy="370.23" r="1.6666666666666667" />
<circle cx="805.17" cy="371.79" r="1.6666666666666667" />
<circle cx="805.40" cy="370.56" r="1.6666666666666667" />
<circle cx="805.64" cy="372.33" r="1.6666666666666667" />
<circle cx="805.88" cy="372.99" r="1.6666666666666667" />
<circle cx="806.12" cy="372.65" r="1.6666666666666667" />
<circle cx="806.34" cy="365.37" r="1.6666666666666667" />
<circle cx="806.57" cy="366.79" r="1.6666666666666667" />
<circle cx="806.81" cy="370.99" r="1.6666666666666667" />
<circle cx="807.04" cy="372.29" r="1.6666666666666667" />
<circle cx="807.28" cy="371.00" r="1.6666666666666667" />
<circle cx="807.52" cy="374.40" r="1.6666666666666667" />
<circle cx="807.76" cy="372.91" r="1.6666666666666667" />
<circle cx="808.00" cy="372.76" r="1.6666666666666667" />
<circle cx="808.23" cy="369.41" r="1.6666666666666667" />
<circle cx="808.46" cy="368.90" r="1.6666666666666667" />
<circle cx="808.70" cy="373.46" r="1.6666666666666667" />
<circle cx="808.95" cy="375.92" r="1.6666666666666667" />
<circle cx="809.19" cy="373.82" r="1.6666666666666667" />
<circle cx="809.43" cy="374.03" r="1.6666666666666667" />
<circle cx="809.66" cy="371.25" r="1.6666666666666667" />
<circle cx="809.90" cy="370.31" r="1.6666666666666667" />
<circle cx="810.14" cy="373.35" r="1.6666666666666667" />
<circle cx="810.38" cy="371.48" r="1.6666666666666667" />
<circle cx="810.61" cy="372.72" r="1.6666666666666667" />
<circle cx="810.86" cy="376.01" r="1.6666666666666667" />
<circle cx="811.10" cy="375.24" r="1.6666666666666667" />
<circle cx="811.33" cy="368.14" r="1.6666666666666667" />
<circle cx="811.57" cy="370.46" r="1.6666666666666667" />
<circle cx="811.80" cy="368.85" r="1.6666666666666667" />
<circle cx="812.04" cy="375.22" r="1.6666666666666667" />
<circle cx="812.28" cy="372.73" r="1.6666666666666667" />
<circle cx="812.52" cy="375.92" r="1.6666666666666667" />
<circle cx="812.77" cy="379.28" r="1.6666666666666667" />
<circle cx="813.01" cy="370.75" r="1.6666666666666667" />
<circle cx="813.24" cy="370.49" r="1.6666666666666667" />
<circle cx="813.49" cy="375.01" r="1.6666666666666667" />
<circle cx="813.73" cy="375.65" r="1.6666666666666667" />
<circle cx="813.97" cy="374.42" r="1.6666666666666667" />
<circle cx="814.22" cy="378.98" r="1.6666666666666667" />
<circle cx="814.47" cy="377.19" r="1.6666666666666667" />
<circle cx="814.71" cy="375.66" r="1.6666666666666667" />
<circle cx="814.95" cy="373.56" r="1.6666666666666667" />
<circle cx="815.19" cy="374.61" r="1.6666666666666667" />
<circle cx="815.44" cy="376.51" r="1.6666666666666667" />
<circle cx="815.68" cy="375.76" r="1.6666666666666667" />
<circle cx="815.93" cy="378.41" r="1.6666666666666667" />
<circle cx="816.18" cy="379.22" r="1.6666666666666667" />
<circle cx="816.42" cy="374.06" r="1.6666666666666667" />
<circle cx="816.66" cy="375.03" r="1.6666666666666667" />
<circle cx="816.91" cy="374.33" r="1.6666666666666667" />
<circle cx="817.14" cy="373.02" r="1.6666666666666667" />
<circle cx="817.38" cy="373.00" r="1.6666666666666667" />
<circle cx="817.63" cy="377.44" r="1.6666666666666667" />
<circle cx="817.88" cy="380.38" r="1.6666666666666667" />
<circle cx="818.13" cy="375.00" r="1.6666666666666667" />
<circle cx="818.37" cy="378.29" r="1.6666666666666667" />
<circle cx="818.62" cy="378.40" r="1.6666666666666667" />
<circle cx="818.88" cy="385.18" r="1.6666666666666667" />
<circle cx="819.14" cy="382.75" r="1.6666666666666667" />
<circle cx="819.41" cy="385.84" r="1.6666666666666667" />
<circle cx="819.67" cy="384.78" r="1.6666666666666667" />
<circle cx="819.92" cy="381.10" r="1.6666666666666667" />
<circle cx="820.18" cy="383.49" r="1.6666666666666667" />
<circle cx="820.44" cy="382.34" r="1.6666666666666667" />
<circle cx="820.69" cy="382.31" r="1.6666666666666667" />
<circle cx="820.94" cy="379.69" r="1.6666666666666667" />
<circle cx="821.21" cy="385.01" r="1.6666666666666667" />
<circle cx="821.46" cy="381.16" r="1.6666666666666667" />
<circle cx="821.71" cy="378.59" r="1.6666666666666667" />
<circle cx="821.96" cy="377.55" r="1.6666666666666667" />
<circle cx="822.20" cy="377.67" r="1.6666666666666667" />
<circle cx="822.46" cy="384.58" r="1.6666666666666667" />
<circle cx="822.73" cy="384.84" r="1.6666666666666667" />
</g>
<g stroke="black">
<line x1="813.75" x2="813.75" y1="510.00" y2="520.00" />
<line x1="760.60" x2="760.60" y1="510.00" y2="520.00" />
<line x1="707.45" x2="707.45" y1="510.00" y2="520.00" />
<line x1="656.01" x2="656.01" y1="510.00" y2="520.00" />
<line x1="602.86" x2="602.86" y1="510.00" y2="520.00" />
<line x1="551.42" x2="551.42" y1="510.00" y2="520.00" />
<line x1="498.27" x2="498.27" y1="510.00" y2="520.00" />
<line x1="445.11" x2="445.11" y1="510.00" y2="520.00" />
<line x1="393.68" x2="393.68" y1="510.00" y2="520.00" />
<line x1="340.52" x2="340.52" y1="510.00" y2="520.00" />
<line x1="289.09" x2="289.09" y1="510.00" y2="520.00" />
<line x1="235.93" x2="235.93" y1="510.00" y2="520.00" />
<line x1="187.92" x2="187.92" y1="510.00" y2="520.00" />
<g fill="black" font-family="Arial, sans-serif" font-size="18.0" stroke="none" text-anchor="start" transform="translate(9.0 0.0)">
<text x="813.75" y="530.57">Feb</text>
<text x="760.60" y="530.57">Jan</text>
<text x="707.45" y="530.57">Dec</text>
<text x="656.01" y="530.57">Nov</text>
<text x="602.86" y="530.57">Oct</text>
<text x="551.42" y="530.57">Sep</text>
<text x="498.27" y="530.57">Aug</text>
<text x="445.11" y="530.57">Jul</text>
<text x="393.68" y="530.57">Jun</text>
<text x="340.52" y="530.57">May</text>
<text x="289.09" y="530.57">Apr</text>
<text x="235.93" y="530.57">Mar</text>
<text x="187.92" y="530.57">Feb</text>
</g>
<line x1="150.00" x2="850.00" y1="510.00" y2="510.00" />
</g>
<g stroke="black">
<line x1="150.00" x2="140.00" y1="510.00" y2="510.00" />
<line x1="150.00" x2="140.00" y1="319.09" y2="319.09" />
<line x1="150.00" x2="140.00" y1="128.18" y2="128.18" />
<g fill="black" font-family="Arial, sans-serif" font-size="18.0" stroke="none" text-anchor="end">
<text x="141.00" y="501.00">0</text>
<text x="141.00" y="310.09">10</text>
<text x="141.00" y="119.18">20</text>
</g>
<line x1="150.00" x2="150.00" y1="510.00" y2="90.00" />
</g>
</g>
</svg>