<?xml version="1.0"?>
<svg version="1.1" viewBox="0 0 1000 600" xmlns:xlink="http://www.w3.org/1999/xlink" xmlns="http://www.w3.org/2000/svg">
<g>
<g stroke-dasharray="3.6 7.2" stroke-width="0.72" stroke="#caa">
<line x1="828.41" x2="828.41" y1="510.00" y2="90.00" />
<line x1="785.75" x2="785.75" y1="510.00" y2="90.00" />
<line x1="741.68" x2="741.68" y1="510.00" y2="90.00" />
<line x1="700.44" x2="700.44" y1="510.00" y2="90.00" />
<line x1="656.36" x2="656.36" y1="510.00" y2="90.00" />
<line x1="612.28" x2="612.28" y1="510.00" y2="90.00" />
<line x1="569.63" x2="569.63" y1="510.00" y2="90.00" />
<line x1="525.55" x2="525.55" y1="510.00" y2="90.00" />
<line x1="482.89" x2="482.89" y1="510.00" y2="90.00" />
<line x1="438.81" x2="438.81" y1="510.00" y2="90.00" />
<line x1="394.73" x2="394.73" y1="510.00" y2="90.00" />
<line x1="352.08" x2="352.08" y1="510.00" y2="90.00" />
<line x1="308.00" x2="308.00" y1="510.00" y2="90.00" />
<line x1="265.34" x2="265.34" y1="510.00" y2="90.00" />
<line x1="221.26" x2="221.26" y1="510.00" y2="90.00" />
<line x1="181.45" x2="181.45" y1="510.00" y2="90.00" />
<line x1="150.00" x2="850.00" y1="510.00" y2="510.00" />
<line x1="150.00" x2="850.00" y1="216.29" y2="216.29" />
</g>
<g>
<text dominant-baseline="hanging" dx="-36.0" dy="18.0" fill="#0004" font-family="Arial, sans-serif" font-size="36" stroke="none" text-anchor="end" x="850.00" y="128.18">R05</text>
</g>
<g>
<text dominant-baseline="text-bottom" dy="-12.0" fill="black" font-family="Arial, sans-serif" font-size="18.0" font-style="italic" stroke="none" text-anchor="middle" x="500.00" y="90.00">Years 2023 to 2024</text>
</g>
<g>
<text dominant-baseline="central" dx="12.0" dy="12.0" fill="black" font-family="Arial, sans-serif" font-size="18.0" font-style="italic" stroke="none" text-anchor="middle" text-orientation="sideways" writing-mode="vertical-lr" x="850.00" y="300.00">log(Drips per day)</text>
</g>
<polyline fill="none" points="644.65,469.75 645.07,473.87 645.37,464.57 645.78,473.56 646.12,467.64 646.55,474.84 646.87,466.02 647.28,473.87 647.59,464.88 647.97,471.42 648.31,467.71 648.70,472.28 649.03,466.89 649.40,470.26 649.72,466.97 650.11,471.40 650.48,470.86 650.86,471.18 651.16,464.61 651.55,471.74 651.89,467.75 652.35,477.23 652.69,467.85 653.12,474.37 653.45,467.92 653.89,475.40 654.26,470.56 654.70,475.63 655.12,473.69 655.55,475.21 655.86,464.81 656.30,475.57 656.67,470.66 657.09,474.15 657.43,467.83 657.85,474.29 658.18,466.63 658.59,473.95 658.94,468.42 659.34,473.29 659.74,472.43 660.14,472.90 660.54,472.67 660.95,473.32 686.03,449.93 686.21,450.65 686.40,450.53 686.59,450.86 686.79,451.33 686.97,450.80 687.16,449.93 687.34,450.25 687.54,451.19 687.73,450.86 687.91,450.21 688.11,451.85 688.31,452.02 688.50,450.89 688.68,450.63 688.88,451.59 689.06,450.24 689.26,451.19 689.44,449.90 689.63,450.10 689.82,451.11 690.00,450.32 690.19,450.94 690.39,451.49 690.58,451.74 690.77,451.05 690.97,451.94 691.17,451.71 691.37,452.64 691.56,451.75 691.76,452.05 691.96,451.68 692.15,451.69 692.35,451.34 692.54,452.00 692.74,451.60 692.93,451.18 693.12,451.53 693.32,451.86 693.51,451.60 693.71,451.97 693.91,452.12 694.11,452.04 694.30,450.53 694.48,450.82 694.68,451.69 694.88,451.97 695.07,451.69 695.27,452.42 695.47,452.10 695.67,452.07 695.86,451.36 696.05,451.25 696.25,452.22 696.46,452.75 696.65,452.29 696.85,452.34 697.05,451.74 697.24,451.55 697.44,452.19 697.64,451.79 697.84,452.06 698.04,452.77 698.24,452.60 698.43,451.09 698.63,451.58 698.82,451.24 699.02,452.60 699.22,452.06 699.42,452.75 699.63,453.49 699.82,451.64 700.02,451.58 700.22,452.55 700.42,452.69 700.62,452.42 700.83,453.43 701.03,453.03 701.23,452.69 701.43,452.24 701.63,452.46 701.84,452.88 702.04,452.71 702.25,453.30 702.45,453.48 702.65,452.35 702.85,452.56 703.05,452.40 703.25,452.12 703.45,452.12 703.66,453.08 703.86,453.74 704.07,452.55 704.27,453.27 704.48,453.30 704.70,454.85 704.91,454.28 705.13,455.01 705.34,454.76 705.55,453.91 705.77,454.46 705.98,454.19 706.19,454.19 706.40,453.59 706.62,454.81 706.83,453.92 707.04,453.34 707.24,453.11 707.45,453.14 707.66,454.71 707.88,454.77 790.16,506.75 792.77,502.98 794.19,509.90 795.35,504.11 796.74,509.22 797.98,506.06 799.39,509.80 800.35,498.53 801.74,509.20 802.62,496.01 803.99,508.83 805.20,505.40 806.59,509.20 731.53,460.74 731.79,460.53 732.04,459.42 732.31,460.62 732.57,460.50 732.84,460.57 733.10,460.49 733.37,461.21 733.64,461.62 733.91,461.00 734.18,461.08 734.45,461.15 734.72,461.63 734.99,461.19 735.27,461.82 735.54,461.02 735.81,461.89 736.09,461.68 736.36,461.04 736.63,461.72 736.90,461.00 737.18,462.33 737.47,462.92 737.74,462.04 738.03,462.50 738.30,462.06 738.58,461.83 738.86,462.02 739.14,462.08 739.41,461.49 739.69,462.08 739.98,463.18 740.27,464.05 740.56,462.80 740.85,463.96 741.14,463.13 741.43,463.40 741.73,464.28 742.04,464.83 742.34,464.14 742.64,464.63 742.96,466.46 743.28,465.90 743.59,465.42 743.90,465.14 744.22,465.77 744.55,467.48 744.86,465.56 745.18,465.84 745.49,465.67 745.86,470.52 746.18,466.05 746.50,465.56 746.81,465.66 747.21,472.86 747.55,467.42 747.88,467.40 748.21,467.03 748.61,473.24 748.95,467.89 749.30,468.55 749.66,470.02 750.03,470.03 750.37,468.27" stroke-dasharray="3.6 3.6" stroke-width="3.6" stroke="#aaa" />
<g>
<circle cx="644.65" cy="469.75" r="1.6666666666666667" />
<circle cx="645.07" cy="473.87" r="1.6666666666666667" />
<circle cx="645.37" cy="464.57" r="1.6666666666666667" />
<circle cx="645.78" cy="473.56" r="1.6666666666666667" />
<circle cx="646.12" cy="467.64" r="1.6666666666666667" />
<circle cx="646.55" cy="474.84" r="1.6666666666666667" />
<circle cx="646.87" cy="466.02" r="1.6666666666666667" />
<circle cx="647.28" cy="473.87" r="1.6666666666666667" />
<circle cx="647.59" cy="464.88" r="1.6666666666666667" />
<circle cx="647.97" cy="471.42" r="1.6666666666666667" />
<circle cx="648.31" cy="467.71" r="1.6666666666666667" />
<circle cx="648.70" cy="472.28" r="1.6666666666666667" />
<circle cx="649.03" cy="466.89" r="1.6666666666666667" />
<circle cx="649.40" cy="470.26" r="1.6666666666666667" />
<circle cx="649.72" cy="466.97" r="1.6666666666666667" />
<circle cx="650.11" cy="471.40" r="1.6666666666666667" />
<circle cx="650.48" cy="470.86" r="1.6666666666666667" />
<circle cx="650.86" cy="471.18" r="1.6666666666666667" />
<circle cx="651.16" cy="464.61" r="1.6666666666666667" />
<circle cx="651.55" cy="471.74" r="1.6666666666666667" />
<circle cx="651.89" cy="467.75" r="1.6666666666666667" />
<circle cx="652.35" cy="477.23" r="1.6666666666666667" />
<circle cx="652.69" cy="467.85" r="1.6666666666666667" />
<circle cx="653.12" cy="474.37" r="1.6666666666666667" />
<circle cx="653.45" cy="467.92" r="1.6666666666666667" />
<circle cx="653.89" cy="475.40" r="1.6666666666666667" />
<circle cx="654.26" cy="470.56" r="1.6666666666666667" />
<circle cx="654.70" cy="475.63" r="1.6666666666666667" />
<circle cx="655.12" cy="473.69" r="1.6666666666666667" />
<circle cx="655.55" cy="475.21" r="1.6666666666666667" />
<circle cx="655.86" cy="464.81" r="1.6666666666666667" />
<circle cx="656.30" cy="475.57" r="1.6666666666666667" />
<circle cx="656.67" cy="470.66" r="1.6666666666666667" />
<circle cx="657.09" cy="474.15" r="1.6666666666666667" />
<circle cx="657.43" cy="467.83" r="1.6666666666666667" />
<circle cx="657.85" cy="474.29" r="1.6666666666666667" />
<circle cx="658.18" cy="466.63" r="1.6666666666666667" />
<circle cx="658.59" cy="473.95" r="1.6666666666666667" />
<circle cx="658.94" cy="468.42" r="1.6666666666666667" />
<circle cx="659.34" cy="473.29" r="1.6666666666666667" />
<circle cx="659.74" cy="472.43" r="1.6666666666666667" />
<circle cx="660.14" cy="472.90" r="1.6666666666666667" />
<circle cx="660.54" cy="472.67" r="1.6666666666666667" />
<circle cx="660.95" cy="473.32" r="1.6666666666666667" />
<circle cx="686.03" cy="449.93" r="1.6666666666666667" />
<circle cx="686.21" cy="450.65" r="1.6666666666666667" />
<circle cx="686.40" cy="450.53" r="1.6666666666666667" />
<circle cx="686.59" cy="450.86" r="1.6666666666666667" />
<circle cx="686.79" cy="451.33" r="1.6666666666666667" />
<circle cx="686.97" cy="450.80" r="1.6666666666666667" />
<circle cx="687.16" cy="449.93" r="1.6666666666666667" />
<circle cx="687.34" cy="450.25" r="1.6666666666666667" />
<circle cx="687.54" cy="451.19" r="1.6666666666666667" />
<circle cx="687.73" cy="450.86" r="1.6666666666666667" />
<circle cx="687.91" cy="450.21" r="1.6666666666666667" />
<circle cx="688.11" cy="451.85" r="1.6666666666666667" />
<circle cx="688.31" cy="452.02" r="1.6666666666666667" />
<circle cx="688.50" cy="450.89" r="1.6666666666666667" />
<circle cx="688.68" cy="450.63" r="1.6666666666666667" />
<circle cx="688.88" cy="451.59" r="1.6666666666666667" />
<circle cx="689.06" cy="450.24" r="1.6666666666666667" />
<circle cx="689.26" cy="451.19" r="1.6666666666666667" />
<circle cx="689.44" cy="449.90" r="1.6666666666666667" />
<circle cx="689.63" cy="450.10" r="1.6666666666666667" />
<circle cx="689.82" cy="451.11" r="1.6666666666666667" />
<circle cx="690.00" cy="450.32" r="1.6666666666666667" />
<circle cx="690.19" cy="450.94" r="1.6666666666666667" />
<circle cx="690.39" cy="451.49" r="1.6666666666666667" />
<circle cx="690.58" cy="451.74" r="1.6666666666666667" />
<circle cx="690.77" cy="451.05" r="1.6666666666666667" />
<circle cx="690.97" cy="451.94" r="1.6666666666666667" />
<circle cx="691.17" cy="451.71" r="1.6666666666666667" />
<circle cx="691.37" cy="452.64" r="1.6666666666666667" />
<circle cx="691.56" cy="451.75" r="1.6666666666666667" />
<circle cx="691.76" cy="452.05" r="1.6666666666666667" />
<circle cx="691.96" cy="451.68" r="1.6666666666666667" />
<circle cx="692.15" cy="451.69" r="1.6666666666666667" />
<circle cx="692.35" cy="451.34" r="1.6666666666666667" />
<circle cx="692.54" cy="452.00" r="1.6666666666666667" />
<circle cx="692.74" cy="451.60" r="1.6666666666666667" />
<circle cx="692.93" cy="451.18" r="1.6666666666666667" />
<circle cx="693.12" cy="451.53" r="1.6666666666666667" />
<circle cx="693.32" cy="451.86" r="1.6666666666666667" />
<circle cx="693.51" cy="451.60" r="1.6666666666666667" />
<circle cx="693.71" cy="451.97" r="1.6666666666666667" />
<circle cx="693.91" cy="452.12" r="1.6666666666666667" />
<circle cx="694.11" cy="452.04" r="1.6666666666666667" />
<circle cx="694.30" cy="450.53" r="1.6666666666666667" />
<circle cx="694.48" cy="450.82" r="1.6666666666666667" />
<circle cx="694.68" cy="451.69" r="1.6666666666666667" />
<circle cx="694.88" cy="451.97" r="1.6666666666666667" />
<circle cx="695.07" cy="451.69" r="1.6666666666666667" />
<circle cx="695.27" cy="452.42" r="1.6666666666666667" />
<circle cx="695.47" cy="452.10" r="1.6666666666666667" />
<circle cx="695.67" cy="452.07" r="1.6666666666666667" />
<circle cx="695.86" cy="451.36" r="1.6666666666666667" />
<circle cx="696.05" cy="451.25" r="1.6666666666666667" />
<circle cx="696.25" cy="452.22" r="1.6666666666666667" />
<circle cx="696.46" cy="452.75" r="1.6666666666666667" />
<circle cx="696.65" cy="452.29" r="1.6666666666666667" />
<circle cx="696.85" cy="452.34" r="1.6666666666666667" />
<circle cx="697.05" cy="451.74" r="1.6666666666666667" />
<circle cx="697.24" cy="451.55" r="1.6666666666666667" />
<circle cx="697.44" cy="452.19" r="1.6666666666666667" />
<circle cx="697.64" cy="451.79" r="1.6666666666666667" />
<circle cx="697.84" cy="452.06" r="1.6666666666666667" />
<circle cx="698.04" cy="452.77" r="1.6666666666666667" />
<circle cx="698.24" cy="452.60" r="1.6666666666666667" />
<circle cx="698.43" cy="451.09" r="1.6666666666666667" />
<circle cx="698.63" cy="451.58" r="1.6666666666666667" />
<circle cx="698.82" cy="451.24" r="1.6666666666666667" />
<circle cx="699.02" cy="452.60" r="1.6666666666666667" />
<circle cx="699.22" cy="452.06" r="1.6666666666666667" />
<circle cx="699.42" cy="452.75" r="1.6666666666666667" />
<circle cx="699.63" cy="453.49" r="1.6666666666666667" />
<circle cx="699.82" cy="451.64" r="1.6666666666666667" />
<circle cx="700.02" cy="451.58" r="1.6666666666666667" />
<circle cx="700.22" cy="452.55" r="1.6666666666666667" />
<circle cx="700.42" cy="452.69" r="1.6666666666666667" />
<circle cx="700.62" cy="452.42" r="1.6666666666666667" />
<circle cx="700.83" cy="453.43" r="1.6666666666666667" />
<circle cx="701.03" cy="453.03" r="1.6666666666666667" />
<circle cx="701.23" cy="452.69" r="1.6666666666666667" />
<circle cx="701.43" cy="452.24" r="1.6666666666666667" />
<circle cx="701.63" cy="452.46" r="1.6666666666666667" />
<circle cx="701.84" cy="452.88" r="1.6666666666666667" />
<circle cx="702.04" cy="452.71" r="1.6666666666666667" />
<circle cx="702.25" cy="453.30" r="1.6666666666666667" />
<circle cx="702.45" cy="453.48" r="1.6666666666666667" />
<circle cx="702.65" cy="452.35" r="1.6666666666666667" />
<circle cx="702.85" cy="452.56" r="1.6666666666666667" />
<circle cx="703.05" cy="452.40" r="1.6666666666666667" />
<circle cx="703.25" cy="452.12" r="1.6666666666666667" />
<circle cx="703.45" cy="452.12" r="1.6666666666666667" />
<circle cx="703.66" cy="453.08" r="1.6666666666666667" />
<circle cx="703.86" cy="453.74" r="1.6666666666666667" />
<circle cx="704.07" cy="452.55" r="1.6666666666666667" />
<circle cx="704.27" cy="453.27" r="1.6666666666666667" />
<circle cx="704.48" cy="453.30" r="1.6666666666666667" />
<circle cx="704.70" cy="454.85" r="1.6666666666666667" />
<circle cx="704.91" cy="454.28" r="1.6666666666666667" />
<circle cx="705.13" cy="455.01" r="1.6666666666666667" />
<circle cx="705.34" cy="454.76" r="1.6666666666666667" />
<circle cx="705.55" cy="453.91" r="1.6666666666666667" />
<circle cx="705.77" cy="454.46" r="1.6666666666666667" />
<circle cx="705.98" cy="454.19" r="1.6666666666666667" />
<circle cx="706.19" cy="454.19" r="1.6666666666666667" />
<circle cx="706.40" cy="453.59" r="1.6666666666666667" />
<circle cx="706.62" cy="454.81" r="1.6666666666666667" />
<circle cx="706.83" cy="453.92" r="1.6666666666666667" />
<circle cx="707.04" cy="453.34" r="1.6666666666666667" />
<circle cx="707.24" cy="453.11" r="1.6666666666666667" />
<circle cx="707.45" cy="453.14" r="1.6666666666666667" />
<circle cx="707.66" cy="454.71" r="1.6666666666666667" />
<circle cx="707.88" cy="454.77" r="1.6666666666666667" />
<circle cx="731.53" cy="460.74" r="1.6666666666666667" />
<circle cx="731.79" cy="460.53" r="1.6666666666666667" />
<circle cx="732.04" cy="459.42" r="1.6666666666666667" />
<circle cx="732.31" cy="460.62" r="1.6666666666666667" />
<circle cx="732.57" cy="460.50" r="1.6666666666666667" />
<circle cx="732.84" cy="460.57" r="1.6666666666666667" />
<circle cx="733.10" cy="460.49" r="1.6666666666666667" />
<circle cx="733.37" cy="461.21" r="1.6666666666666667" />
<circle cx="733.64" cy="461.62" r="1.6666666666666667" />
<circle cx="733.91" cy="461.00" r="1.6666666666666667" />
<circle cx="734.18" cy="461.08" r="1.6666666666666667" />
<circle cx="734.45" cy="461.15" r="1.6666666666666667" />
<circle cx="734.72" cy="461.63" r="1.6666666666666667" />
<circle cx="734.99" cy="461.19" r="1.6666666666666667" />
<circle cx="735.27" cy="461.82" r="1.6666666666666667" />
<circle cx="735.54" cy="461.02" r="1.6666666666666667" />
<circle cx="735.81" cy="461.89" r="1.6666666666666667" />
<circle cx="736.09" cy="461.68" r="1.6666666666666667" />
<circle cx="736.36" cy="461.04" r="1.6666666666666667" />
<circle cx="736.63" cy="461.72" r="1.6666666666666667" />
<circle cx="736.90" cy="461.00" r="1.6666666666666667" />
<circle cx="737.18" cy="462.33" r="1.6666666666666667" />
<circle cx="737.47" cy="462.92" r="1.6666666666666667" />
<circle cx="737.74" cy="462.04" r="1.6666666666666667" />
<circle cx="738.03" cy="462.50" r="1.6666666666666667" />
<circle cx="738.30" cy="462.06" r="1.6666666666666667" />
<circle cx="738.58" cy="461.83" r="1.6666666666666667" />
<circle cx="738.86" cy="462.02" r="1.6666666666666667" />
<circle cx="739.14" cy="462.08" r="1.6666666666666667" />
<circle cx="739.41" cy="461.49" r="1.6666666666666667" />
<circle cx="739.69" cy="462.08" r="1.6666666666666667" />
<circle cx="739.98" cy="463.18" r="1.6666666666666667" />
<circle cx="740.27" cy="464.05" r="1.6666666666666667" />
<circle cx="740.56" cy="462.80" r="1.6666666666666667" />
<circle cx="740.85" cy="463.96" r="1.6666666666666667" />
<circle cx="741.14" cy="463.13" r="1.6666666666666667" />
<circle cx="741.43" cy="463.40" r="1.6666666666666667" />
<circle cx="741.73" cy="464.28" r="1.6666666666666667" />
<circle cx="742.04" cy="464.83" r="1.6666666666666667" />
<circle cx="742.34" cy="464.14" r="1.6666666666666667" />
<circle cx="742.64" cy="464.63" r="1.6666666666666667" />
<circle cx="742.96" cy="466.46" r="1.6666666666666667" />
<circle cx="743.28" cy="465.90" r="1.6666666666666667" />
<circle cx="743.59" cy="465.42" r="1.6666666666666667" />
<circle cx="743.90" cy="465.14" r="1.6666666666666667" />
<circle cx="744.22" cy="465.77" r="1.6666666666666667" />
<circle cx="744.55" cy="467.48" r="1.6666666666666667" />
<circle cx="744.86" cy="465.56" r="1.6666666666666667" />
<circle cx="745.18" cy="465.84" r="1.6666666666666667" />
<circle cx="745.49" cy="465.67" r="1.6666666666666667" />
<circle cx="745.86" cy="470.52" r="1.6666666666666667" />
<circle cx="746.18" cy="466.05" r="1.6666666666666667" />
<circle cx="746.50" cy="465.56" r="1.6666666666666667" />
<circle cx="746.81" cy="465.66" r="1.6666666666666667" />
<circle cx="747.21" cy="472.86" r="1.6666666666666667" />
<circle cx="747.55" cy="467.42" r="1.6666666666666667" />
<circle cx="747.88" cy="467.40" r="1.6666666666666667" />
<circle cx="748.21" cy="467.03" r="1.6666666666666667" />
<circle cx="748.61" cy="473.24" r="1.6666666666666667" />
<circle cx="748.95" cy="467.89" r="1.6666666666666667" />
<circle cx="749.30" cy="468.55" r="1.6666666666666667" />
<circle cx="749.66" cy="470.02" r="1.6666666666666667" />
<circle cx="750.03" cy="470.03" r="1.6666666666666667" />
<circle cx="750.37" cy="468.27" r="1.6666666666666667" />
<circle cx="790.16" cy="506.75" r="1.6666666666666667" />
<circle cx="792.77" cy="502.98" r="1.6666666666666667" />
<circle cx="794.19" cy="509.90" r="1.6666666666666667" />
<circle cx="795.35" cy="504.11" r="1.6666666666666667" />
<circle cx="796.74" cy="509.22" r="1.6666666666666667" />
<circle cx="797.98" cy="506.06" r="1.6666666666666667" />
<circle cx="799.39" cy="509.80" r="1.6666666666666667" />
<circle cx="800.35" cy="498.53" r="1.6666666666666667" />
<circle cx="801.74" cy="509.20" r="1.6666666666666667" />
<circle cx="802.62" cy="496.01" r="1.6666666666666667" />
<circle cx="803.99" cy="508.83" r="1.6666666666666667" />
<circle cx="805.20" cy="505.40" r="1.6666666666666667" />
<circle cx="806.59" cy="509.20" r="1.6666666666666667" />
</g>
<g stroke="black">
<line x1="828.41" x2="828.41" y1="510.00" y2="520.00" />
<line x1="785.75" x2="785.75" y1="510.00" y2="520.00" />
<line x1="741.68" x2="741.68" y1="510.00" y2="520.00" />
<line x1="700.44" x2="700.44" y1="510.00" y2="520.00" />
<line x1="656.36" x2="656.36" y1="510.00" y2="520.00" />
<line x1="612.28" x2="612.28" y1="510.00" y2="520.00" />
<line x1="569.63" x2="569.63" y1="510.00" y2="520.00" />
<line x1="525.55" x2="525.55" y1="510.00" y2="520.00" />
<line x1="482.89" x2="482.89" y1="510.00" y2="520.00" />
<line x1="438.81" x2="438.81" y1="510.00" y2="520.00" />
<line x1="394.73" x2="394.73" y1="510.00" y2="520.00" />
<line x1="352.08" x2="352.08" y1="510.00" y2="520.00" />
<line x1="308.00" x2="308.00" y1="510.00" y2="520.00" />
<line x1="265.34" x2="265.34" y1="510.00" y2="520.00" />
<line x1="221.26" x2="221.26" y1="510.00" y2="520.00" />
<line x1="181.45" x2="181.45" y1="510.00" y2="520.00" />
<g fill="black" font-family="Arial, sans-serif" font-size="18.0" stroke="none" text-anchor="start" transform="translate(9.0 0.0)">
<text x="828.41" y="530.57">May</text>
<text x="785.75" y="530.57">Apr</text>
<text x="741.68" y="530.57">Mar</text>
<text x="700.44" y="530.57">Feb</text>
<text x="656.36" y="530.57">Jan</text>
<text x="612.28" y="530.57">Dec</text>
<text x="569.63" y="530.57">Nov</text>
<text x="525.55" y="530.57">Oct</text>
<text x="482.89" y="530.57">Sep</text>
<text x="438.81" y="530.57">Aug</text>
<text x="394.73" y="530.57">Jul</text>
<text x="352.08" y="530.57">Jun</text>
<text x="308.00" y="530.57">May</text>
<text x="265.34" y="530.57">Apr</text>
<text x="221.26" y="530.57">Mar</text>
<text x="181.45" y="530.57">Feb</text>
</g>
<line x1="150.00" x2="850.00" y1="510.00" y2="510.00" />
</g>
<g stroke="black">
<line x1="150.00" x2="140.00" y1="510.00" y2="510.00" />
<line x1="150.00" x2="140.00" y1="216.29" y2="216.29" />
<g fill="black" font-family="Arial, sans-serif" font-size="18.0" stroke="none" text-anchor="end">
<text x="141.00" y="501.00">0</text>
<text x="141.00" y="207.29">10</text>
</g>
<line x1="150.00" x2="150.00" y1="510.00" y2="90.00" />
</g>
</g>
</svg>