<?xml version="1.0"?>
<svg version="1.1" viewBox="0 0 1000 600" xmlns:xlink="http://www.w3.org/1999/xlink" xmlns="http://www.w3.org/2000/svg">
<g>
<g stroke-dasharray="3.6 7.2" stroke-width="0.72" stroke="#caa">
<line x1="271.98" x2="271.98" y1="510.00" y2="90.00" />
<line x1="454.18" x2="454.18" y1="510.00" y2="90.00" />
<line x1="636.37" x2="636.37" y1="510.00" y2="90.00" />
<line x1="818.57" x2="818.57" y1="510.00" y2="90.00" />
<line x1="150.00" x2="850.00" y1="478.84" y2="478.84" />
<line x1="150.00" x2="850.00" y1="404.15" y2="404.15" />
<line x1="150.00" x2="850.00" y1="329.47" y2="329.47" />
<line x1="150.00" x2="850.00" y1="254.78" y2="254.78" />
<line x1="150.00" x2="850.00" y1="180.10" y2="180.10" />
<line x1="150.00" x2="850.00" y1="105.42" y2="105.42" />
</g>
<g>
<text dominant-baseline="hanging" dx="-36.0" dy="18.0" fill="#0004" font-family="Arial, sans-serif" font-size="36" stroke="none" text-anchor="end" x="850.00" y="125.00">R05</text>
</g>
<g>
<text dominant-baseline="text-bottom" dy="-12.0" fill="black" font-family="Arial, sans-serif" font-size="18.0" font-style="italic" stroke="none" text-anchor="middle" x="500.00" y="90.00">Days since start</text>
</g>
<g>
<text dominant-baseline="central" dx="12.0" dy="12.0" fill="black" font-family="Arial, sans-serif" font-size="18.0" font-style="italic" stroke="none" text-anchor="middle" text-orientation="sideways" writing-mode="vertical-lr" x="850.00" y="300.00">Drips per day</text>
</g>
<polyline fill="none" points="150.00,408.90 154.60,447.32 157.95,352.16 162.50,444.64 166.23,387.00 170.98,455.62 174.50,369.05 179.10,447.31 182.49,355.80 186.72,425.13 190.45,387.66 194.81,433.11 198.44,378.80 202.51,413.88 206.14,379.66 210.37,424.92 214.53,419.78 218.72,422.84 222.08,352.60 226.36,428.17 230.10,388.18 235.25,475.00 239.00,389.21 243.68,451.65 247.44,389.97 252.29,460.33 256.40,416.88 261.28,462.23 265.85,445.80 270.67,458.72 274.05,355.03 278.92,461.68 283.05,417.85 287.69,449.75 291.44,388.98 296.10,450.98 299.70,375.96 304.31,448.06 308.14,395.21 312.65,442.25 317.03,434.54 321.48,438.74 325.89,436.68 330.41,442.49 608.05,125.47 610.13,139.43 612.21,137.21 614.31,143.53 616.45,152.32 618.55,142.42 620.58,125.47 622.64,131.70 624.77,149.77 626.87,143.49 628.92,130.89 631.10,161.96 633.28,165.12 635.39,144.07 637.47,139.19 639.63,157.25 641.68,131.55 643.81,149.72 645.84,125.00 647.89,128.80 650.01,148.15 652.08,133.21 654.18,144.94 656.33,155.45 658.50,160.05 660.61,147.05 662.79,163.77 664.96,159.41 667.19,176.31 669.35,160.23 671.54,165.70 673.70,158.91 675.87,159.14 678.00,152.60 680.19,164.85 682.34,157.48 684.47,149.63 686.62,156.10 688.79,162.19 690.95,157.39 693.13,164.31 695.32,166.91 697.51,165.57 699.59,137.11 701.69,142.66 703.85,159.09 706.03,164.18 708.20,159.14 710.41,172.41 712.60,166.59 714.79,166.01 716.93,152.88 719.06,150.90 721.26,168.72 723.50,178.36 725.71,170.14 727.92,170.97 730.09,160.10 732.24,156.42 734.44,168.33 736.61,161.01 738.80,165.83 741.04,178.70 743.27,175.71 745.39,147.91 747.54,157.02 749.67,150.71 751.90,175.62 754.09,165.88 756.33,178.36 758.63,191.50 760.79,158.13 762.94,157.11 765.17,174.80 767.41,177.30 769.62,172.50 771.92,190.32 774.18,183.35 776.42,177.34 778.62,169.12 780.84,173.24 783.09,180.66 785.33,177.72 787.61,188.11 789.91,191.26 792.12,171.10 794.35,174.89 796.56,172.15 798.76,167.04 800.95,166.95 803.22,184.31 805.54,195.80 807.76,174.76 810.04,187.62 812.33,188.07 814.74,214.60 817.10,205.07 819.52,217.18 821.92,213.01 824.25,198.61 826.62,207.97 828.98,203.49 831.33,203.38 833.64,193.12 836.04,213.94 838.38,198.85 840.66,188.81 842.93,184.72 845.20,185.22 847.60,212.23 850.00,213.27" stroke-dasharray="3.6 3.6" stroke-width="3.6" stroke="#aaa" />
<g>
<circle cx="150.00" cy="408.90" r="1.6666666666666667" />
<circle cx="154.60" cy="447.32" r="1.6666666666666667" />
<circle cx="157.95" cy="352.16" r="1.6666666666666667" />
<circle cx="162.50" cy="444.64" r="1.6666666666666667" />
<circle cx="166.23" cy="387.00" r="1.6666666666666667" />
<circle cx="170.98" cy="455.62" r="1.6666666666666667" />
<circle cx="174.50" cy="369.05" r="1.6666666666666667" />
<circle cx="179.10" cy="447.31" r="1.6666666666666667" />
<circle cx="182.49" cy="355.80" r="1.6666666666666667" />
<circle cx="186.72" cy="425.13" r="1.6666666666666667" />
<circle cx="190.45" cy="387.66" r="1.6666666666666667" />
<circle cx="194.81" cy="433.11" r="1.6666666666666667" />
<circle cx="198.44" cy="378.80" r="1.6666666666666667" />
<circle cx="202.51" cy="413.88" r="1.6666666666666667" />
<circle cx="206.14" cy="379.66" r="1.6666666666666667" />
<circle cx="210.37" cy="424.92" r="1.6666666666666667" />
<circle cx="214.53" cy="419.78" r="1.6666666666666667" />
<circle cx="218.72" cy="422.84" r="1.6666666666666667" />
<circle cx="222.08" cy="352.60" r="1.6666666666666667" />
<circle cx="226.36" cy="428.17" r="1.6666666666666667" />
<circle cx="230.10" cy="388.18" r="1.6666666666666667" />
<circle cx="235.25" cy="475.00" r="1.6666666666666667" />
<circle cx="239.00" cy="389.21" r="1.6666666666666667" />
<circle cx="243.68" cy="451.65" r="1.6666666666666667" />
<circle cx="247.44" cy="389.97" r="1.6666666666666667" />
<circle cx="252.29" cy="460.33" r="1.6666666666666667" />
<circle cx="256.40" cy="416.88" r="1.6666666666666667" />
<circle cx="261.28" cy="462.23" r="1.6666666666666667" />
<circle cx="265.85" cy="445.80" r="1.6666666666666667" />
<circle cx="270.67" cy="458.72" r="1.6666666666666667" />
<circle cx="274.05" cy="355.03" r="1.6666666666666667" />
<circle cx="278.92" cy="461.68" r="1.6666666666666667" />
<circle cx="283.05" cy="417.85" r="1.6666666666666667" />
<circle cx="287.69" cy="449.75" r="1.6666666666666667" />
<circle cx="291.44" cy="388.98" r="1.6666666666666667" />
<circle cx="296.10" cy="450.98" r="1.6666666666666667" />
<circle cx="299.70" cy="375.96" r="1.6666666666666667" />
<circle cx="304.31" cy="448.06" r="1.6666666666666667" />
<circle cx="308.14" cy="395.21" r="1.6666666666666667" />
<circle cx="312.65" cy="442.25" r="1.6666666666666667" />
<circle cx="317.03" cy="434.54" r="1.6666666666666667" />
<circle cx="321.48" cy="438.74" r="1.6666666666666667" />
<circle cx="325.89" cy="436.68" r="1.6666666666666667" />
<circle cx="330.41" cy="442.49" r="1.6666666666666667" />
<circle cx="608.05" cy="125.47" r="1.6666666666666667" />
<circle cx="610.13" cy="139.43" r="1.6666666666666667" />
<circle cx="612.21" cy="137.21" r="1.6666666666666667" />
<circle cx="614.31" cy="143.53" r="1.6666666666666667" />
<circle cx="616.45" cy="152.32" r="1.6666666666666667" />
<circle cx="618.55" cy="142.42" r="1.6666666666666667" />
<circle cx="620.58" cy="125.47" r="1.6666666666666667" />
<circle cx="622.64" cy="131.70" r="1.6666666666666667" />
<circle cx="624.77" cy="149.77" r="1.6666666666666667" />
<circle cx="626.87" cy="143.49" r="1.6666666666666667" />
<circle cx="628.92" cy="130.89" r="1.6666666666666667" />
<circle cx="631.10" cy="161.96" r="1.6666666666666667" />
<circle cx="633.28" cy="165.12" r="1.6666666666666667" />
<circle cx="635.39" cy="144.07" r="1.6666666666666667" />
<circle cx="637.47" cy="139.19" r="1.6666666666666667" />
<circle cx="639.63" cy="157.25" r="1.6666666666666667" />
<circle cx="641.68" cy="131.55" r="1.6666666666666667" />
<circle cx="643.81" cy="149.72" r="1.6666666666666667" />
<circle cx="645.84" cy="125.00" r="1.6666666666666667" />
<circle cx="647.89" cy="128.80" r="1.6666666666666667" />
<circle cx="650.01" cy="148.15" r="1.6666666666666667" />
<circle cx="652.08" cy="133.21" r="1.6666666666666667" />
<circle cx="654.18" cy="144.94" r="1.6666666666666667" />
<circle cx="656.33" cy="155.45" r="1.6666666666666667" />
<circle cx="658.50" cy="160.05" r="1.6666666666666667" />
<circle cx="660.61" cy="147.05" r="1.6666666666666667" />
<circle cx="662.79" cy="163.77" r="1.6666666666666667" />
<circle cx="664.96" cy="159.41" r="1.6666666666666667" />
<circle cx="667.19" cy="176.31" r="1.6666666666666667" />
<circle cx="669.35" cy="160.23" r="1.6666666666666667" />
<circle cx="671.54" cy="165.70" r="1.6666666666666667" />
<circle cx="673.70" cy="158.91" r="1.6666666666666667" />
<circle cx="675.87" cy="159.14" r="1.6666666666666667" />
<circle cx="678.00" cy="152.60" r="1.6666666666666667" />
<circle cx="680.19" cy="164.85" r="1.6666666666666667" />
<circle cx="682.34" cy="157.48" r="1.6666666666666667" />
<circle cx="684.47" cy="149.63" r="1.6666666666666667" />
<circle cx="686.62" cy="156.10" r="1.6666666666666667" />
<circle cx="688.79" cy="162.19" r="1.6666666666666667" />
<circle cx="690.95" cy="157.39" r="1.6666666666666667" />
<circle cx="693.13" cy="164.31" r="1.6666666666666667" />
<circle cx="695.32" cy="166.91" r="1.6666666666666667" />
<circle cx="697.51" cy="165.57" r="1.6666666666666667" />
<circle cx="699.59" cy="137.11" r="1.6666666666666667" />
<circle cx="701.69" cy="142.66" r="1.6666666666666667" />
<circle cx="703.85" cy="159.09" r="1.6666666666666667" />
<circle cx="706.03" cy="164.18" r="1.6666666666666667" />
<circle cx="708.20" cy="159.14" r="1.6666666666666667" />
<circle cx="710.41" cy="172.41" r="1.6666666666666667" />
<circle cx="712.60" cy="166.59" r="1.6666666666666667" />
<circle cx="714.79" cy="166.01" r="1.6666666666666667" />
<circle cx="716.93" cy="152.88" r="1.6666666666666667" />
<circle cx="719.06" cy="150.90" r="1.6666666666666667" />
<circle cx="721.26" cy="168.72" r="1.6666666666666667" />
<circle cx="723.50" cy="178.36" r="1.6666666666666667" />
<circle cx="725.71" cy="170.14" r="1.6666666666666667" />
<circle cx="727.92" cy="170.97" r="1.6666666666666667" />
<circle cx="730.09" cy="160.10" r="1.6666666666666667" />
<circle cx="732.24" cy="156.42" r="1.6666666666666667" />
<circle cx="734.44" cy="168.33" r="1.6666666666666667" />
<circle cx="736.61" cy="161.01" r="1.6666666666666667" />
<circle cx="738.80" cy="165.83" r="1.6666666666666667" />
<circle cx="741.04" cy="178.70" r="1.6666666666666667" />
<circle cx="743.27" cy="175.71" r="1.6666666666666667" />
<circle cx="745.39" cy="147.91" r="1.6666666666666667" />
<circle cx="747.54" cy="157.02" r="1.6666666666666667" />
<circle cx="749.67" cy="150.71" r="1.6666666666666667" />
<circle cx="751.90" cy="175.62" r="1.6666666666666667" />
<circle cx="754.09" cy="165.88" r="1.6666666666666667" />
<circle cx="756.33" cy="178.36" r="1.6666666666666667" />
<circle cx="758.63" cy="191.50" r="1.6666666666666667" />
<circle cx="760.79" cy="158.13" r="1.6666666666666667" />
<circle cx="762.94" cy="157.11" r="1.6666666666666667" />
<circle cx="765.17" cy="174.80" r="1.6666666666666667" />
<circle cx="767.41" cy="177.30" r="1.6666666666666667" />
<circle cx="769.62" cy="172.50" r="1.6666666666666667" />
<circle cx="771.92" cy="190.32" r="1.6666666666666667" />
<circle cx="774.18" cy="183.35" r="1.6666666666666667" />
<circle cx="776.42" cy="177.34" r="1.6666666666666667" />
<circle cx="778.62" cy="169.12" r="1.6666666666666667" />
<circle cx="780.84" cy="173.24" r="1.6666666666666667" />
<circle cx="783.09" cy="180.66" r="1.6666666666666667" />
<circle cx="785.33" cy="177.72" r="1.6666666666666667" />
<circle cx="787.61" cy="188.11" r="1.6666666666666667" />
<circle cx="789.91" cy="191.26" r="1.6666666666666667" />
<circle cx="792.12" cy="171.10" r="1.6666666666666667" />
<circle cx="794.35" cy="174.89" r="1.6666666666666667" />
<circle cx="796.56" cy="172.15" r="1.6666666666666667" />
<circle cx="798.76" cy="167.04" r="1.6666666666666667" />
<circle cx="800.95" cy="166.95" r="1.6666666666666667" />
<circle cx="803.22" cy="184.31" r="1.6666666666666667" />
<circle cx="805.54" cy="195.80" r="1.6666666666666667" />
<circle cx="807.76" cy="174.76" r="1.6666666666666667" />
<circle cx="810.04" cy="187.62" r="1.6666666666666667" />
<circle cx="812.33" cy="188.07" r="1.6666666666666667" />
<circle cx="814.74" cy="214.60" r="1.6666666666666667" />
<circle cx="817.10" cy="205.07" r="1.6666666666666667" />
<circle cx="819.52" cy="217.18" r="1.6666666666666667" />
<circle cx="821.92" cy="213.01" r="1.6666666666666667" />
<circle cx="824.25" cy="198.61" r="1.6666666666666667" />
<circle cx="826.62" cy="207.97" r="1.6666666666666667" />
<circle cx="828.98" cy="203.49" r="1.6666666666666667" />
<circle cx="831.33" cy="203.38" r="1.6666666666666667" />
<circle cx="833.64" cy="193.12" r="1.6666666666666667" />
<circle cx="836.04" cy="213.94" r="1.6666666666666667" />
<circle cx="838.38" cy="198.85" r="1.6666666666666667" />
<circle cx="840.66" cy="188.81" r="1.6666666666666667" />
<circle cx="842.93" cy="184.72" r="1.6666666666666667" />
<circle cx="845.20" cy="185.22" r="1.6666666666666667" />
<circle cx="847.60" cy="212.23" r="1.6666666666666667" />
<circle cx="850.00" cy="213.27" r="1.6666666666666667" />
</g>
<g stroke="black">
<line x1="271.98" x2="271.98" y1="510.00" y2="520.00" />
<line x1="454.18" x2="454.18" y1="510.00" y2="520.00" />
<line x1="636.37" x2="636.37" y1="510.00" y2="520.00" />
<line x1="818.57" x2="818.57" y1="510.00" y2="520.00" />
<g fill="black" font-family="Arial, sans-serif" font-size="18.0" stroke="none" text-anchor="start" transform="translate(9.0 0.0)">
<text x="271.98" y="530.57">31Dec'23</text>
<text x="454.18" y="530.57">11Jan'24</text>
<text x="636.37" y="530.57">23Jan'24</text>
<text x="818.57" y="530.57">3Feb'24</text>
</g>
<line x1="150.00" x2="850.00" y1="510.00" y2="510.00" />
</g>
<g stroke="black">
<line x1="150.00" x2="140.00" y1="478.84" y2="478.84" />
<line x1="150.00" x2="140.00" y1="404.15" y2="404.15" />
<line x1="150.00" x2="140.00" y1="329.47" y2="329.47" />
<line x1="150.00" x2="140.00" y1="254.78" y2="254.78" />
<line x1="150.00" x2="140.00" y1="180.10" y2="180.10" />
<line x1="150.00" x2="140.00" y1="105.42" y2="105.42" />
<g fill="black" font-family="Arial, sans-serif" font-size="18.0" stroke="none" text-anchor="end">
<text x="141.00" y="469.84">3</text>
<text x="141.00" y="395.15">4</text>
<text x="141.00" y="320.47">5</text>
<text x="141.00" y="245.78">6</text>
<text x="141.00" y="171.10">7</text>
<text x="141.00" y="96.42">8</text>
</g>
<line x1="150.00" x2="150.00" y1="510.00" y2="90.00" />
</g>
</g>
</svg>