<?xml version="1.0"?>
<svg version="1.1" viewBox="0 0 1000 600" xmlns:xlink="http://www.w3.org/1999/xlink" xmlns="http://www.w3.org/2000/svg">
<g>
<g stroke-dasharray="3.6 7.2" stroke-width="0.72" stroke="#caa">
<line x1="813.75" x2="813.75" y1="510.00" y2="90.00" />
<line x1="760.60" x2="760.60" y1="510.00" y2="90.00" />
<line x1="707.45" x2="707.45" y1="510.00" y2="90.00" />
<line x1="656.01" x2="656.01" y1="510.00" y2="90.00" />
<line x1="602.86" x2="602.86" y1="510.00" y2="90.00" />
<line x1="551.42" x2="551.42" y1="510.00" y2="90.00" />
<line x1="498.27" x2="498.27" y1="510.00" y2="90.00" />
<line x1="445.11" x2="445.11" y1="510.00" y2="90.00" />
<line x1="393.68" x2="393.68" y1="510.00" y2="90.00" />
<line x1="340.52" x2="340.52" y1="510.00" y2="90.00" />
<line x1="289.09" x2="289.09" y1="510.00" y2="90.00" />
<line x1="235.93" x2="235.93" y1="510.00" y2="90.00" />
<line x1="187.92" x2="187.92" y1="510.00" y2="90.00" />
<line x1="150.00" x2="850.00" y1="510.00" y2="510.00" />
<line x1="150.00" x2="850.00" y1="465.81" y2="465.81" />
<line x1="150.00" x2="850.00" y1="421.62" y2="421.62" />
<line x1="150.00" x2="850.00" y1="377.42" y2="377.42" />
<line x1="150.00" x2="850.00" y1="333.23" y2="333.23" />
<line x1="150.00" x2="850.00" y1="289.04" y2="289.04" />
<line x1="150.00" x2="850.00" y1="244.85" y2="244.85" />
<line x1="150.00" x2="850.00" y1="200.66" y2="200.66" />
<line x1="150.00" x2="850.00" y1="156.46" y2="156.46" />
<line x1="150.00" x2="850.00" y1="112.27" y2="112.27" />
</g>
<g>
<text dominant-baseline="hanging" dx="-36.0" dy="18.0" fill="#0004" font-family="Arial, sans-serif" font-size="36" stroke="none" text-anchor="end" x="850.00" y="128.18">R07</text>
</g>
<g>
<text dominant-baseline="text-bottom" dy="-12.0" fill="black" font-family="Arial, sans-serif" font-size="18.0" font-style="italic" stroke="none" text-anchor="middle" x="500.00" y="90.00">Years 2023 to 2024</text>
</g>
<g>
<text dominant-baseline="central" dx="12.0" dy="12.0" fill="black" font-family="Arial, sans-serif" font-size="18.0" font-style="italic" stroke="none" text-anchor="middle" text-orientation="sideways" writing-mode="vertical-lr" x="850.00" y="300.00">Drips per day</text>
</g>
<polyline fill="none" points="605.47,357.27 605.47,255.45 605.47,309.04 605.47,400.91 605.47,390.68 605.48,336.45 605.48,439.29 605.48,128.18 605.48,128.18 605.48,319.09 605.48,382.73 605.48,397.70 605.48,425.15 605.58,509.28 605.59,475.29 605.59,382.73 605.59,297.88 605.59,319.09 605.59,319.09 605.59,297.88 605.59,255.45 605.59,336.45 605.59,328.18 605.59,297.88 605.59,336.45 605.59,350.91 605.59,357.27 605.59,350.91 605.59,357.27 605.59,343.99 605.59,357.27 605.59,336.45 605.60,378.34 605.60,394.30 605.60,394.30 605.60,421.21 605.60,414.55 605.60,433.64 605.60,441.82 605.60,476.51 605.63,507.67 605.70,508.81 605.75,508.46 729.13,435.13 729.13,430.45 729.13,350.91 729.14,328.18 729.14,297.88 729.14,271.36 729.14,255.45 729.14,255.45 729.14,255.45 729.14,297.88 729.14,271.36 729.14,271.36 729.14,255.45 729.14,285.40 729.14,271.36 729.14,285.40 729.14,255.45 729.14,285.40 729.14,297.88 729.14,336.45 729.14,328.18 729.14,363.15 729.14,350.91 729.14,319.09 729.14,285.40 729.14,285.40 729.14,328.18 729.14,297.88 729.14,271.36 729.14,319.09 729.14,373.64 729.15,416.87 729.15,441.82 729.15,491.73 729.36,509.63 729.36,462.86 729.36,463.44 729.36,489.25 729.36,448.42 729.36,455.45 730.38,509.93 730.91,509.86 730.91,394.30 730.91,412.10 730.91,423.22 730.91,382.73 730.91,363.15 730.91,368.59 730.91,319.09 730.91,297.88 730.91,285.40 730.91,216.29 730.91,237.27 730.91,319.09 730.91,357.27 730.92,427.00 730.92,439.29 730.92,440.58 730.92,421.21 730.92,430.45 730.92,472.20 730.93,498.70 732.67,378.34 732.67,390.68 732.67,357.27 732.67,357.27 732.67,390.68 732.67,489.02 732.83,509.52 733.34,509.85 739.71,505.10 739.72,488.18 739.74,507.21 740.41,509.89" stroke-dasharray="3.6 3.6" stroke-width="3.6" stroke="#aaa" />
<g>
<circle cx="605.47" cy="357.27" r="1.6666666666666667" />
<circle cx="605.47" cy="255.45" r="1.6666666666666667" />
<circle cx="605.47" cy="309.04" r="1.6666666666666667" />
<circle cx="605.47" cy="400.91" r="1.6666666666666667" />
<circle cx="605.47" cy="390.68" r="1.6666666666666667" />
<circle cx="605.48" cy="336.45" r="1.6666666666666667" />
<circle cx="605.48" cy="439.29" r="1.6666666666666667" />
<circle cx="605.48" cy="128.18" r="1.6666666666666667" />
<circle cx="605.48" cy="128.18" r="1.6666666666666667" />
<circle cx="605.48" cy="319.09" r="1.6666666666666667" />
<circle cx="605.48" cy="382.73" r="1.6666666666666667" />
<circle cx="605.48" cy="397.70" r="1.6666666666666667" />
<circle cx="605.48" cy="425.15" r="1.6666666666666667" />
<circle cx="605.58" cy="509.28" r="1.6666666666666667" />
<circle cx="605.59" cy="475.29" r="1.6666666666666667" />
<circle cx="605.59" cy="382.73" r="1.6666666666666667" />
<circle cx="605.59" cy="297.88" r="1.6666666666666667" />
<circle cx="605.59" cy="319.09" r="1.6666666666666667" />
<circle cx="605.59" cy="319.09" r="1.6666666666666667" />
<circle cx="605.59" cy="297.88" r="1.6666666666666667" />
<circle cx="605.59" cy="255.45" r="1.6666666666666667" />
<circle cx="605.59" cy="336.45" r="1.6666666666666667" />
<circle cx="605.59" cy="328.18" r="1.6666666666666667" />
<circle cx="605.59" cy="297.88" r="1.6666666666666667" />
<circle cx="605.59" cy="336.45" r="1.6666666666666667" />
<circle cx="605.59" cy="350.91" r="1.6666666666666667" />
<circle cx="605.59" cy="357.27" r="1.6666666666666667" />
<circle cx="605.59" cy="350.91" r="1.6666666666666667" />
<circle cx="605.59" cy="357.27" r="1.6666666666666667" />
<circle cx="605.59" cy="343.99" r="1.6666666666666667" />
<circle cx="605.59" cy="357.27" r="1.6666666666666667" />
<circle cx="605.59" cy="336.45" r="1.6666666666666667" />
<circle cx="605.60" cy="378.34" r="1.6666666666666667" />
<circle cx="605.60" cy="394.30" r="1.6666666666666667" />
<circle cx="605.60" cy="394.30" r="1.6666666666666667" />
<circle cx="605.60" cy="421.21" r="1.6666666666666667" />
<circle cx="605.60" cy="414.55" r="1.6666666666666667" />
<circle cx="605.60" cy="433.64" r="1.6666666666666667" />
<circle cx="605.60" cy="441.82" r="1.6666666666666667" />
<circle cx="605.60" cy="476.51" r="1.6666666666666667" />
<circle cx="605.63" cy="507.67" r="1.6666666666666667" />
<circle cx="605.70" cy="508.81" r="1.6666666666666667" />
<circle cx="605.75" cy="508.46" r="1.6666666666666667" />
<circle cx="729.13" cy="435.13" r="1.6666666666666667" />
<circle cx="729.13" cy="430.45" r="1.6666666666666667" />
<circle cx="729.13" cy="350.91" r="1.6666666666666667" />
<circle cx="729.14" cy="328.18" r="1.6666666666666667" />
<circle cx="729.14" cy="297.88" r="1.6666666666666667" />
<circle cx="729.14" cy="271.36" r="1.6666666666666667" />
<circle cx="729.14" cy="255.45" r="1.6666666666666667" />
<circle cx="729.14" cy="255.45" r="1.6666666666666667" />
<circle cx="729.14" cy="255.45" r="1.6666666666666667" />
<circle cx="729.14" cy="297.88" r="1.6666666666666667" />
<circle cx="729.14" cy="271.36" r="1.6666666666666667" />
<circle cx="729.14" cy="271.36" r="1.6666666666666667" />
<circle cx="729.14" cy="255.45" r="1.6666666666666667" />
<circle cx="729.14" cy="285.40" r="1.6666666666666667" />
<circle cx="729.14" cy="271.36" r="1.6666666666666667" />
<circle cx="729.14" cy="285.40" r="1.6666666666666667" />
<circle cx="729.14" cy="255.45" r="1.6666666666666667" />
<circle cx="729.14" cy="285.40" r="1.6666666666666667" />
<circle cx="729.14" cy="297.88" r="1.6666666666666667" />
<circle cx="729.14" cy="336.45" r="1.6666666666666667" />
<circle cx="729.14" cy="328.18" r="1.6666666666666667" />
<circle cx="729.14" cy="363.15" r="1.6666666666666667" />
<circle cx="729.14" cy="350.91" r="1.6666666666666667" />
<circle cx="729.14" cy="319.09" r="1.6666666666666667" />
<circle cx="729.14" cy="285.40" r="1.6666666666666667" />
<circle cx="729.14" cy="285.40" r="1.6666666666666667" />
<circle cx="729.14" cy="328.18" r="1.6666666666666667" />
<circle cx="729.14" cy="297.88" r="1.6666666666666667" />
<circle cx="729.14" cy="271.36" r="1.6666666666666667" />
<circle cx="729.14" cy="319.09" r="1.6666666666666667" />
<circle cx="729.14" cy="373.64" r="1.6666666666666667" />
<circle cx="729.15" cy="416.87" r="1.6666666666666667" />
<circle cx="729.15" cy="441.82" r="1.6666666666666667" />
<circle cx="729.15" cy="491.73" r="1.6666666666666667" />
<circle cx="729.36" cy="509.63" r="1.6666666666666667" />
<circle cx="729.36" cy="462.86" r="1.6666666666666667" />
<circle cx="729.36" cy="463.44" r="1.6666666666666667" />
<circle cx="729.36" cy="489.25" r="1.6666666666666667" />
<circle cx="729.36" cy="448.42" r="1.6666666666666667" />
<circle cx="729.36" cy="455.45" r="1.6666666666666667" />
<circle cx="730.38" cy="509.93" r="1.6666666666666667" />
<circle cx="730.91" cy="509.86" r="1.6666666666666667" />
<circle cx="730.91" cy="394.30" r="1.6666666666666667" />
<circle cx="730.91" cy="412.10" r="1.6666666666666667" />
<circle cx="730.91" cy="423.22" r="1.6666666666666667" />
<circle cx="730.91" cy="382.73" r="1.6666666666666667" />
<circle cx="730.91" cy="363.15" r="1.6666666666666667" />
<circle cx="730.91" cy="368.59" r="1.6666666666666667" />
<circle cx="730.91" cy="319.09" r="1.6666666666666667" />
<circle cx="730.91" cy="297.88" r="1.6666666666666667" />
<circle cx="730.91" cy="285.40" r="1.6666666666666667" />
<circle cx="730.91" cy="216.29" r="1.6666666666666667" />
<circle cx="730.91" cy="237.27" r="1.6666666666666667" />
<circle cx="730.91" cy="319.09" r="1.6666666666666667" />
<circle cx="730.91" cy="357.27" r="1.6666666666666667" />
<circle cx="730.92" cy="427.00" r="1.6666666666666667" />
<circle cx="730.92" cy="439.29" r="1.6666666666666667" />
<circle cx="730.92" cy="440.58" r="1.6666666666666667" />
<circle cx="730.92" cy="421.21" r="1.6666666666666667" />
<circle cx="730.92" cy="430.45" r="1.6666666666666667" />
<circle cx="730.92" cy="472.20" r="1.6666666666666667" />
<circle cx="730.93" cy="498.70" r="1.6666666666666667" />
<circle cx="732.67" cy="378.34" r="1.6666666666666667" />
<circle cx="732.67" cy="390.68" r="1.6666666666666667" />
<circle cx="732.67" cy="357.27" r="1.6666666666666667" />
<circle cx="732.67" cy="357.27" r="1.6666666666666667" />
<circle cx="732.67" cy="390.68" r="1.6666666666666667" />
<circle cx="732.67" cy="489.02" r="1.6666666666666667" />
<circle cx="732.83" cy="509.52" r="1.6666666666666667" />
<circle cx="733.34" cy="509.85" r="1.6666666666666667" />
<circle cx="739.71" cy="505.10" r="1.6666666666666667" />
<circle cx="739.72" cy="488.18" r="1.6666666666666667" />
<circle cx="739.74" cy="507.21" r="1.6666666666666667" />
<circle cx="740.41" cy="509.89" r="1.6666666666666667" />
</g>
<g stroke="black">
<line x1="813.75" x2="813.75" y1="510.00" y2="520.00" />
<line x1="760.60" x2="760.60" y1="510.00" y2="520.00" />
<line x1="707.45" x2="707.45" y1="510.00" y2="520.00" />
<line x1="656.01" x2="656.01" y1="510.00" y2="520.00" />
<line x1="602.86" x2="602.86" y1="510.00" y2="520.00" />
<line x1="551.42" x2="551.42" y1="510.00" y2="520.00" />
<line x1="498.27" x2="498.27" y1="510.00" y2="520.00" />
<line x1="445.11" x2="445.11" y1="510.00" y2="520.00" />
<line x1="393.68" x2="393.68" y1="510.00" y2="520.00" />
<line x1="340.52" x2="340.52" y1="510.00" y2="520.00" />
<line x1="289.09" x2="289.09" y1="510.00" y2="520.00" />
<line x1="235.93" x2="235.93" y1="510.00" y2="520.00" />
<line x1="187.92" x2="187.92" y1="510.00" y2="520.00" />
<g fill="black" font-family="Arial, sans-serif" font-size="18.0" stroke="none" text-anchor="start" transform="translate(9.0 0.0)">
<text x="813.75" y="530.57">Feb</text>
<text x="760.60" y="530.57">Jan</text>
<text x="707.45" y="530.57">Dec</text>
<text x="656.01" y="530.57">Nov</text>
<text x="602.86" y="530.57">Oct</text>
<text x="551.42" y="530.57">Sep</text>
<text x="498.27" y="530.57">Aug</text>
<text x="445.11" y="530.57">Jul</text>
<text x="393.68" y="530.57">Jun</text>
<text x="340.52" y="530.57">May</text>
<text x="289.09" y="530.57">Apr</text>
<text x="235.93" y="530.57">Mar</text>
<text x="187.92" y="530.57">Feb</text>
</g>
<line x1="150.00" x2="850.00" y1="510.00" y2="510.00" />
</g>
<g stroke="black">
<line x1="150.00" x2="140.00" y1="510.00" y2="510.00" />
<line x1="150.00" x2="140.00" y1="465.81" y2="465.81" />
<line x1="150.00" x2="140.00" y1="421.62" y2="421.62" />
<line x1="150.00" x2="140.00" y1="377.42" y2="377.42" />
<line x1="150.00" x2="140.00" y1="333.23" y2="333.23" />
<line x1="150.00" x2="140.00" y1="289.04" y2="289.04" />
<line x1="150.00" x2="140.00" y1="244.85" y2="244.85" />
<line x1="150.00" x2="140.00" y1="200.66" y2="200.66" />
<line x1="150.00" x2="140.00" y1="156.46" y2="156.46" />
<line x1="150.00" x2="140.00" y1="112.27" y2="112.27" />
<g fill="black" font-family="Arial, sans-serif" font-size="18.0" stroke="none" text-anchor="end">
<text x="141.00" y="501.00">0</text>
<text x="141.00" y="456.81">1000</text>
<text x="141.00" y="412.62">2000</text>
<text x="141.00" y="368.42">3000</text>
<text x="141.00" y="324.23">4000</text>
<text x="141.00" y="280.04">5000</text>
<text x="141.00" y="235.85">6000</text>
<text x="141.00" y="191.66">7000</text>
<text x="141.00" y="147.46">8000</text>
<text x="141.00" y="103.27">9000</text>
</g>
<line x1="150.00" x2="150.00" y1="510.00" y2="90.00" />
</g>
</g>
</svg>