<?xml version="1.0"?>
<svg version="1.1" viewBox="0 0 1000 600" xmlns:xlink="http://www.w3.org/1999/xlink" xmlns="http://www.w3.org/2000/svg">
<g>
<g stroke-dasharray="3.6 7.2" stroke-width="0.72" stroke="#caa">
<line x1="839.86" x2="839.86" y1="510.00" y2="90.00" />
<line x1="791.78" x2="791.78" y1="510.00" y2="90.00" />
<line x1="740.39" x2="740.39" y1="510.00" y2="90.00" />
<line x1="689.00" x2="689.00" y1="510.00" y2="90.00" />
<line x1="639.26" x2="639.26" y1="510.00" y2="90.00" />
<line x1="587.87" x2="587.87" y1="510.00" y2="90.00" />
<line x1="538.13" x2="538.13" y1="510.00" y2="90.00" />
<line x1="486.74" x2="486.74" y1="510.00" y2="90.00" />
<line x1="435.35" x2="435.35" y1="510.00" y2="90.00" />
<line x1="385.61" x2="385.61" y1="510.00" y2="90.00" />
<line x1="334.22" x2="334.22" y1="510.00" y2="90.00" />
<line x1="284.48" x2="284.48" y1="510.00" y2="90.00" />
<line x1="233.09" x2="233.09" y1="510.00" y2="90.00" />
<line x1="186.67" x2="186.67" y1="510.00" y2="90.00" />
<line x1="150.00" x2="850.00" y1="510.00" y2="510.00" />
<line x1="150.00" x2="850.00" y1="216.29" y2="216.29" />
</g>
<g>
<text dominant-baseline="hanging" dx="-36.0" dy="18.0" fill="#0004" font-family="Arial, sans-serif" font-size="36" stroke="none" text-anchor="end" x="850.00" y="128.18">R07</text>
</g>
<g>
<text dominant-baseline="text-bottom" dy="-12.0" fill="black" font-family="Arial, sans-serif" font-size="18.0" font-style="italic" stroke="none" text-anchor="middle" x="500.00" y="90.00">Years 2023 to 2024</text>
</g>
<g>
<text dominant-baseline="central" dx="12.0" dy="12.0" fill="black" font-family="Arial, sans-serif" font-size="18.0" font-style="italic" stroke="none" text-anchor="middle" text-orientation="sideways" writing-mode="vertical-lr" x="850.00" y="300.00">log(Drips per day)</text>
</g>
<polyline fill="none" points="590.40,270.69 590.40,255.69 590.40,262.63 590.40,280.57 590.40,277.94 590.40,266.94 590.40,293.31 590.40,243.78 590.40,243.78 590.40,264.14 590.40,276.05 590.40,279.72 590.40,287.96 590.50,428.13 590.51,314.21 590.51,276.05 590.51,261.04 590.51,264.14 590.51,264.14 590.51,261.04 590.51,255.69 590.51,266.94 590.51,265.57 590.51,261.04 590.51,266.94 590.51,269.49 590.51,270.69 590.51,269.49 590.51,270.69 590.51,268.24 590.51,270.69 590.51,266.94 590.51,275.05 590.51,278.85 590.52,278.85 590.52,286.62 590.52,284.50 590.52,291.05 590.52,294.38 590.52,315.26 590.55,393.51 590.61,413.34 590.66,405.67 709.96,291.63 709.96,289.85 709.96,269.49 709.96,265.57 709.96,261.04 709.96,257.58 709.97,255.69 709.97,255.69 709.97,255.69 709.97,261.04 709.97,257.58 709.97,257.58 709.97,255.69 709.97,259.36 709.97,257.58 709.97,259.36 709.97,255.69 709.97,259.36 709.97,261.04 709.97,266.94 709.97,265.57 709.97,271.84 709.97,269.49 709.97,264.14 709.97,259.36 709.97,259.36 709.97,265.57 709.97,261.04 709.97,257.58 709.97,264.14 709.97,274.02 709.97,285.22 709.98,294.38 709.98,333.06 710.18,447.51 710.18,305.22 710.18,305.58 710.18,329.32 710.18,297.37 710.19,300.93 711.17,494.68 711.68,475.25 711.68,278.85 711.68,283.75 711.68,287.30 711.68,276.05 711.68,271.84 711.68,272.95 711.68,264.14 711.68,261.04 711.68,259.36 711.68,251.49 711.68,253.66 711.68,264.14 711.68,270.69 711.69,288.60 711.69,293.31 711.69,293.85 711.69,286.62 711.69,289.85 711.69,311.70 711.70,347.18 713.38,275.05 713.38,277.94 713.38,270.69 713.38,270.69 713.38,277.94 713.39,329.00 713.54,439.90 714.03,474.09 720.19,371.70 720.20,327.84 720.22,388.26 720.86,482.14" stroke-dasharray="3.6 3.6" stroke-width="3.6" stroke="#aaa" />
<g>
<circle cx="590.40" cy="270.69" r="1.6666666666666667" />
<circle cx="590.40" cy="255.69" r="1.6666666666666667" />
<circle cx="590.40" cy="262.63" r="1.6666666666666667" />
<circle cx="590.40" cy="280.57" r="1.6666666666666667" />
<circle cx="590.40" cy="277.94" r="1.6666666666666667" />
<circle cx="590.40" cy="266.94" r="1.6666666666666667" />
<circle cx="590.40" cy="293.31" r="1.6666666666666667" />
<circle cx="590.40" cy="243.78" r="1.6666666666666667" />
<circle cx="590.40" cy="243.78" r="1.6666666666666667" />
<circle cx="590.40" cy="264.14" r="1.6666666666666667" />
<circle cx="590.40" cy="276.05" r="1.6666666666666667" />
<circle cx="590.40" cy="279.72" r="1.6666666666666667" />
<circle cx="590.40" cy="287.96" r="1.6666666666666667" />
<circle cx="590.50" cy="428.13" r="1.6666666666666667" />
<circle cx="590.51" cy="314.21" r="1.6666666666666667" />
<circle cx="590.51" cy="276.05" r="1.6666666666666667" />
<circle cx="590.51" cy="261.04" r="1.6666666666666667" />
<circle cx="590.51" cy="264.14" r="1.6666666666666667" />
<circle cx="590.51" cy="264.14" r="1.6666666666666667" />
<circle cx="590.51" cy="261.04" r="1.6666666666666667" />
<circle cx="590.51" cy="255.69" r="1.6666666666666667" />
<circle cx="590.51" cy="266.94" r="1.6666666666666667" />
<circle cx="590.51" cy="265.57" r="1.6666666666666667" />
<circle cx="590.51" cy="261.04" r="1.6666666666666667" />
<circle cx="590.51" cy="266.94" r="1.6666666666666667" />
<circle cx="590.51" cy="269.49" r="1.6666666666666667" />
<circle cx="590.51" cy="270.69" r="1.6666666666666667" />
<circle cx="590.51" cy="269.49" r="1.6666666666666667" />
<circle cx="590.51" cy="270.69" r="1.6666666666666667" />
<circle cx="590.51" cy="268.24" r="1.6666666666666667" />
<circle cx="590.51" cy="270.69" r="1.6666666666666667" />
<circle cx="590.51" cy="266.94" r="1.6666666666666667" />
<circle cx="590.51" cy="275.05" r="1.6666666666666667" />
<circle cx="590.51" cy="278.85" r="1.6666666666666667" />
<circle cx="590.52" cy="278.85" r="1.6666666666666667" />
<circle cx="590.52" cy="286.62" r="1.6666666666666667" />
<circle cx="590.52" cy="284.50" r="1.6666666666666667" />
<circle cx="590.52" cy="291.05" r="1.6666666666666667" />
<circle cx="590.52" cy="294.38" r="1.6666666666666667" />
<circle cx="590.52" cy="315.26" r="1.6666666666666667" />
<circle cx="590.55" cy="393.51" r="1.6666666666666667" />
<circle cx="590.61" cy="413.34" r="1.6666666666666667" />
<circle cx="590.66" cy="405.67" r="1.6666666666666667" />
<circle cx="709.96" cy="291.63" r="1.6666666666666667" />
<circle cx="709.96" cy="289.85" r="1.6666666666666667" />
<circle cx="709.96" cy="269.49" r="1.6666666666666667" />
<circle cx="709.96" cy="265.57" r="1.6666666666666667" />
<circle cx="709.96" cy="261.04" r="1.6666666666666667" />
<circle cx="709.96" cy="257.58" r="1.6666666666666667" />
<circle cx="709.97" cy="255.69" r="1.6666666666666667" />
<circle cx="709.97" cy="255.69" r="1.6666666666666667" />
<circle cx="709.97" cy="255.69" r="1.6666666666666667" />
<circle cx="709.97" cy="261.04" r="1.6666666666666667" />
<circle cx="709.97" cy="257.58" r="1.6666666666666667" />
<circle cx="709.97" cy="257.58" r="1.6666666666666667" />
<circle cx="709.97" cy="255.69" r="1.6666666666666667" />
<circle cx="709.97" cy="259.36" r="1.6666666666666667" />
<circle cx="709.97" cy="257.58" r="1.6666666666666667" />
<circle cx="709.97" cy="259.36" r="1.6666666666666667" />
<circle cx="709.97" cy="255.69" r="1.6666666666666667" />
<circle cx="709.97" cy="259.36" r="1.6666666666666667" />
<circle cx="709.97" cy="261.04" r="1.6666666666666667" />
<circle cx="709.97" cy="266.94" r="1.6666666666666667" />
<circle cx="709.97" cy="265.57" r="1.6666666666666667" />
<circle cx="709.97" cy="271.84" r="1.6666666666666667" />
<circle cx="709.97" cy="269.49" r="1.6666666666666667" />
<circle cx="709.97" cy="264.14" r="1.6666666666666667" />
<circle cx="709.97" cy="259.36" r="1.6666666666666667" />
<circle cx="709.97" cy="259.36" r="1.6666666666666667" />
<circle cx="709.97" cy="265.57" r="1.6666666666666667" />
<circle cx="709.97" cy="261.04" r="1.6666666666666667" />
<circle cx="709.97" cy="257.58" r="1.6666666666666667" />
<circle cx="709.97" cy="264.14" r="1.6666666666666667" />
<circle cx="709.97" cy="274.02" r="1.6666666666666667" />
<circle cx="709.97" cy="285.22" r="1.6666666666666667" />
<circle cx="709.98" cy="294.38" r="1.6666666666666667" />
<circle cx="709.98" cy="333.06" r="1.6666666666666667" />
<circle cx="710.18" cy="447.51" r="1.6666666666666667" />
<circle cx="710.18" cy="305.22" r="1.6666666666666667" />
<circle cx="710.18" cy="305.58" r="1.6666666666666667" />
<circle cx="710.18" cy="329.32" r="1.6666666666666667" />
<circle cx="710.18" cy="297.37" r="1.6666666666666667" />
<circle cx="710.19" cy="300.93" r="1.6666666666666667" />
<circle cx="711.17" cy="494.68" r="1.6666666666666667" />
<circle cx="711.68" cy="475.25" r="1.6666666666666667" />
<circle cx="711.68" cy="278.85" r="1.6666666666666667" />
<circle cx="711.68" cy="283.75" r="1.6666666666666667" />
<circle cx="711.68" cy="287.30" r="1.6666666666666667" />
<circle cx="711.68" cy="276.05" r="1.6666666666666667" />
<circle cx="711.68" cy="271.84" r="1.6666666666666667" />
<circle cx="711.68" cy="272.95" r="1.6666666666666667" />
<circle cx="711.68" cy="264.14" r="1.6666666666666667" />
<circle cx="711.68" cy="261.04" r="1.6666666666666667" />
<circle cx="711.68" cy="259.36" r="1.6666666666666667" />
<circle cx="711.68" cy="251.49" r="1.6666666666666667" />
<circle cx="711.68" cy="253.66" r="1.6666666666666667" />
<circle cx="711.68" cy="264.14" r="1.6666666666666667" />
<circle cx="711.68" cy="270.69" r="1.6666666666666667" />
<circle cx="711.69" cy="288.60" r="1.6666666666666667" />
<circle cx="711.69" cy="293.31" r="1.6666666666666667" />
<circle cx="711.69" cy="293.85" r="1.6666666666666667" />
<circle cx="711.69" cy="286.62" r="1.6666666666666667" />
<circle cx="711.69" cy="289.85" r="1.6666666666666667" />
<circle cx="711.69" cy="311.70" r="1.6666666666666667" />
<circle cx="711.70" cy="347.18" r="1.6666666666666667" />
<circle cx="713.38" cy="275.05" r="1.6666666666666667" />
<circle cx="713.38" cy="277.94" r="1.6666666666666667" />
<circle cx="713.38" cy="270.69" r="1.6666666666666667" />
<circle cx="713.38" cy="270.69" r="1.6666666666666667" />
<circle cx="713.38" cy="277.94" r="1.6666666666666667" />
<circle cx="713.39" cy="329.00" r="1.6666666666666667" />
<circle cx="713.54" cy="439.90" r="1.6666666666666667" />
<circle cx="714.03" cy="474.09" r="1.6666666666666667" />
<circle cx="720.19" cy="371.70" r="1.6666666666666667" />
<circle cx="720.20" cy="327.84" r="1.6666666666666667" />
<circle cx="720.22" cy="388.26" r="1.6666666666666667" />
<circle cx="720.86" cy="482.14" r="1.6666666666666667" />
</g>
<g stroke="black">
<line x1="839.86" x2="839.86" y1="510.00" y2="520.00" />
<line x1="791.78" x2="791.78" y1="510.00" y2="520.00" />
<line x1="740.39" x2="740.39" y1="510.00" y2="520.00" />
<line x1="689.00" x2="689.00" y1="510.00" y2="520.00" />
<line x1="639.26" x2="639.26" y1="510.00" y2="520.00" />
<line x1="587.87" x2="587.87" y1="510.00" y2="520.00" />
<line x1="538.13" x2="538.13" y1="510.00" y2="520.00" />
<line x1="486.74" x2="486.74" y1="510.00" y2="520.00" />
<line x1="435.35" x2="435.35" y1="510.00" y2="520.00" />
<line x1="385.61" x2="385.61" y1="510.00" y2="520.00" />
<line x1="334.22" x2="334.22" y1="510.00" y2="520.00" />
<line x1="284.48" x2="284.48" y1="510.00" y2="520.00" />
<line x1="233.09" x2="233.09" y1="510.00" y2="520.00" />
<line x1="186.67" x2="186.67" y1="510.00" y2="520.00" />
<g fill="black" font-family="Arial, sans-serif" font-size="18.0" stroke="none" text-anchor="start" transform="translate(9.0 0.0)">
<text x="839.86" y="530.57">Mar</text>
<text x="791.78" y="530.57">Feb</text>
<text x="740.39" y="530.57">Jan</text>
<text x="689.00" y="530.57">Dec</text>
<text x="639.26" y="530.57">Nov</text>
<text x="587.87" y="530.57">Oct</text>
<text x="538.13" y="530.57">Sep</text>
<text x="486.74" y="530.57">Aug</text>
<text x="435.35" y="530.57">Jul</text>
<text x="385.61" y="530.57">Jun</text>
<text x="334.22" y="530.57">May</text>
<text x="284.48" y="530.57">Apr</text>
<text x="233.09" y="530.57">Mar</text>
<text x="186.67" y="530.57">Feb</text>
</g>
<line x1="150.00" x2="850.00" y1="510.00" y2="510.00" />
</g>
<g stroke="black">
<line x1="150.00" x2="140.00" y1="510.00" y2="510.00" />
<line x1="150.00" x2="140.00" y1="216.29" y2="216.29" />
<g fill="black" font-family="Arial, sans-serif" font-size="18.0" stroke="none" text-anchor="end">
<text x="141.00" y="501.00">0</text>
<text x="141.00" y="207.29">10</text>
</g>
<line x1="150.00" x2="150.00" y1="510.00" y2="90.00" />
</g>
</g>
</svg>