<?xml version="1.0"?>
<svg version="1.1" viewBox="0 0 1000 600" xmlns:xlink="http://www.w3.org/1999/xlink" xmlns="http://www.w3.org/2000/svg">
<g>
<g stroke-dasharray="3.6 7.2" stroke-width="0.72" stroke="#caa">
<line x1="828.41" x2="828.41" y1="510.00" y2="90.00" />
<line x1="785.75" x2="785.75" y1="510.00" y2="90.00" />
<line x1="741.68" x2="741.68" y1="510.00" y2="90.00" />
<line x1="700.44" x2="700.44" y1="510.00" y2="90.00" />
<line x1="656.36" x2="656.36" y1="510.00" y2="90.00" />
<line x1="612.28" x2="612.28" y1="510.00" y2="90.00" />
<line x1="569.63" x2="569.63" y1="510.00" y2="90.00" />
<line x1="525.55" x2="525.55" y1="510.00" y2="90.00" />
<line x1="482.89" x2="482.89" y1="510.00" y2="90.00" />
<line x1="438.81" x2="438.81" y1="510.00" y2="90.00" />
<line x1="394.73" x2="394.73" y1="510.00" y2="90.00" />
<line x1="352.08" x2="352.08" y1="510.00" y2="90.00" />
<line x1="308.00" x2="308.00" y1="510.00" y2="90.00" />
<line x1="265.34" x2="265.34" y1="510.00" y2="90.00" />
<line x1="221.26" x2="221.26" y1="510.00" y2="90.00" />
<line x1="181.45" x2="181.45" y1="510.00" y2="90.00" />
<line x1="150.00" x2="850.00" y1="510.00" y2="510.00" />
<line x1="150.00" x2="850.00" y1="216.29" y2="216.29" />
</g>
<g>
<text dominant-baseline="hanging" dx="-36.0" dy="18.0" fill="#0004" font-family="Arial, sans-serif" font-size="36" stroke="none" text-anchor="end" x="850.00" y="128.18">R07</text>
</g>
<g>
<text dominant-baseline="text-bottom" dy="-12.0" fill="black" font-family="Arial, sans-serif" font-size="18.0" font-style="italic" stroke="none" text-anchor="middle" x="500.00" y="90.00">Years 2023 to 2024</text>
</g>
<g>
<text dominant-baseline="hanging" dx="18.0" dy="18.0" fill="black" font-family="Arial, sans-serif" font-size="18.0" font-style="italic" stroke="none" text-anchor="beginning" text-orientation="sideways" x="150.00" y="90.00">log(Drips per day)</text>
</g>
<polyline fill="none" points="527.72,270.69 527.72,255.69 527.72,262.63 527.72,280.57 527.72,277.94 527.72,266.94 527.72,293.31 527.72,243.78 527.72,243.78 527.72,264.14 527.72,276.05 527.72,279.72 527.72,287.96 527.81,428.13 527.81,314.21 527.81,276.05 527.81,261.04 527.81,264.14 527.81,264.14 527.81,261.04 527.81,255.69 527.81,266.94 527.81,265.57 527.81,261.04 527.81,266.94 527.82,269.49 527.82,270.69 527.82,269.49 527.82,270.69 527.82,268.24 527.82,270.69 527.82,266.94 527.82,275.05 527.82,278.85 527.82,278.85 527.82,286.62 527.82,284.50 527.82,291.05 527.82,294.38 527.82,315.26 527.85,393.51 527.90,413.34 527.94,405.67 630.27,291.63 630.27,289.85 630.27,269.49 630.27,265.57 630.27,261.04 630.27,257.58 630.27,255.69 630.27,255.69 630.27,255.69 630.27,261.04 630.27,257.58 630.27,257.58 630.27,255.69 630.27,259.36 630.27,257.58 630.27,259.36 630.27,255.69 630.27,259.36 630.27,261.04 630.27,266.94 630.27,265.57 630.27,271.84 630.27,269.49 630.27,264.14 630.27,259.36 630.27,259.36 630.27,265.57 630.27,261.04 630.28,257.58 630.28,264.14 630.28,274.02 630.28,285.22 630.28,294.38 630.28,333.06 630.45,447.51 630.45,305.22 630.45,305.58 630.46,329.32 630.46,297.37 630.46,300.93 631.30,494.68 631.74,475.25 631.74,278.85 631.74,283.75 631.74,287.30 631.74,276.05 631.74,271.84 631.74,272.95 631.74,264.14 631.74,261.04 631.74,259.36 631.74,251.49 631.74,253.66 631.74,264.14 631.74,270.69 631.74,288.60 631.74,293.31 631.75,293.85 631.75,286.62 631.75,289.85 631.75,311.70 631.75,347.18 633.20,275.05 633.20,277.94 633.20,270.69 633.20,270.69 633.20,277.94 633.20,329.00 633.33,439.90 633.75,474.09 639.04,371.70 639.04,327.84 639.07,388.26 639.62,482.14" stroke-dasharray="3.6 3.6" stroke-width="3.6" stroke="#aaa" />
<g>
<circle cx="527.72" cy="270.69" r="1.6666666666666667" />
<circle cx="527.72" cy="255.69" r="1.6666666666666667" />
<circle cx="527.72" cy="262.63" r="1.6666666666666667" />
<circle cx="527.72" cy="280.57" r="1.6666666666666667" />
<circle cx="527.72" cy="277.94" r="1.6666666666666667" />
<circle cx="527.72" cy="266.94" r="1.6666666666666667" />
<circle cx="527.72" cy="293.31" r="1.6666666666666667" />
<circle cx="527.72" cy="243.78" r="1.6666666666666667" />
<circle cx="527.72" cy="243.78" r="1.6666666666666667" />
<circle cx="527.72" cy="264.14" r="1.6666666666666667" />
<circle cx="527.72" cy="276.05" r="1.6666666666666667" />
<circle cx="527.72" cy="279.72" r="1.6666666666666667" />
<circle cx="527.72" cy="287.96" r="1.6666666666666667" />
<circle cx="527.81" cy="428.13" r="1.6666666666666667" />
<circle cx="527.81" cy="314.21" r="1.6666666666666667" />
<circle cx="527.81" cy="276.05" r="1.6666666666666667" />
<circle cx="527.81" cy="261.04" r="1.6666666666666667" />
<circle cx="527.81" cy="264.14" r="1.6666666666666667" />
<circle cx="527.81" cy="264.14" r="1.6666666666666667" />
<circle cx="527.81" cy="261.04" r="1.6666666666666667" />
<circle cx="527.81" cy="255.69" r="1.6666666666666667" />
<circle cx="527.81" cy="266.94" r="1.6666666666666667" />
<circle cx="527.81" cy="265.57" r="1.6666666666666667" />
<circle cx="527.81" cy="261.04" r="1.6666666666666667" />
<circle cx="527.81" cy="266.94" r="1.6666666666666667" />
<circle cx="527.82" cy="269.49" r="1.6666666666666667" />
<circle cx="527.82" cy="270.69" r="1.6666666666666667" />
<circle cx="527.82" cy="269.49" r="1.6666666666666667" />
<circle cx="527.82" cy="270.69" r="1.6666666666666667" />
<circle cx="527.82" cy="268.24" r="1.6666666666666667" />
<circle cx="527.82" cy="270.69" r="1.6666666666666667" />
<circle cx="527.82" cy="266.94" r="1.6666666666666667" />
<circle cx="527.82" cy="275.05" r="1.6666666666666667" />
<circle cx="527.82" cy="278.85" r="1.6666666666666667" />
<circle cx="527.82" cy="278.85" r="1.6666666666666667" />
<circle cx="527.82" cy="286.62" r="1.6666666666666667" />
<circle cx="527.82" cy="284.50" r="1.6666666666666667" />
<circle cx="527.82" cy="291.05" r="1.6666666666666667" />
<circle cx="527.82" cy="294.38" r="1.6666666666666667" />
<circle cx="527.82" cy="315.26" r="1.6666666666666667" />
<circle cx="527.85" cy="393.51" r="1.6666666666666667" />
<circle cx="527.90" cy="413.34" r="1.6666666666666667" />
<circle cx="527.94" cy="405.67" r="1.6666666666666667" />
<circle cx="630.27" cy="291.63" r="1.6666666666666667" />
<circle cx="630.27" cy="289.85" r="1.6666666666666667" />
<circle cx="630.27" cy="269.49" r="1.6666666666666667" />
<circle cx="630.27" cy="265.57" r="1.6666666666666667" />
<circle cx="630.27" cy="261.04" r="1.6666666666666667" />
<circle cx="630.27" cy="257.58" r="1.6666666666666667" />
<circle cx="630.27" cy="255.69" r="1.6666666666666667" />
<circle cx="630.27" cy="255.69" r="1.6666666666666667" />
<circle cx="630.27" cy="255.69" r="1.6666666666666667" />
<circle cx="630.27" cy="261.04" r="1.6666666666666667" />
<circle cx="630.27" cy="257.58" r="1.6666666666666667" />
<circle cx="630.27" cy="257.58" r="1.6666666666666667" />
<circle cx="630.27" cy="255.69" r="1.6666666666666667" />
<circle cx="630.27" cy="259.36" r="1.6666666666666667" />
<circle cx="630.27" cy="257.58" r="1.6666666666666667" />
<circle cx="630.27" cy="259.36" r="1.6666666666666667" />
<circle cx="630.27" cy="255.69" r="1.6666666666666667" />
<circle cx="630.27" cy="259.36" r="1.6666666666666667" />
<circle cx="630.27" cy="261.04" r="1.6666666666666667" />
<circle cx="630.27" cy="266.94" r="1.6666666666666667" />
<circle cx="630.27" cy="265.57" r="1.6666666666666667" />
<circle cx="630.27" cy="271.84" r="1.6666666666666667" />
<circle cx="630.27" cy="269.49" r="1.6666666666666667" />
<circle cx="630.27" cy="264.14" r="1.6666666666666667" />
<circle cx="630.27" cy="259.36" r="1.6666666666666667" />
<circle cx="630.27" cy="259.36" r="1.6666666666666667" />
<circle cx="630.27" cy="265.57" r="1.6666666666666667" />
<circle cx="630.27" cy="261.04" r="1.6666666666666667" />
<circle cx="630.28" cy="257.58" r="1.6666666666666667" />
<circle cx="630.28" cy="264.14" r="1.6666666666666667" />
<circle cx="630.28" cy="274.02" r="1.6666666666666667" />
<circle cx="630.28" cy="285.22" r="1.6666666666666667" />
<circle cx="630.28" cy="294.38" r="1.6666666666666667" />
<circle cx="630.28" cy="333.06" r="1.6666666666666667" />
<circle cx="630.45" cy="447.51" r="1.6666666666666667" />
<circle cx="630.45" cy="305.22" r="1.6666666666666667" />
<circle cx="630.45" cy="305.58" r="1.6666666666666667" />
<circle cx="630.46" cy="329.32" r="1.6666666666666667" />
<circle cx="630.46" cy="297.37" r="1.6666666666666667" />
<circle cx="630.46" cy="300.93" r="1.6666666666666667" />
<circle cx="631.30" cy="494.68" r="1.6666666666666667" />
<circle cx="631.74" cy="475.25" r="1.6666666666666667" />
<circle cx="631.74" cy="278.85" r="1.6666666666666667" />
<circle cx="631.74" cy="283.75" r="1.6666666666666667" />
<circle cx="631.74" cy="287.30" r="1.6666666666666667" />
<circle cx="631.74" cy="276.05" r="1.6666666666666667" />
<circle cx="631.74" cy="271.84" r="1.6666666666666667" />
<circle cx="631.74" cy="272.95" r="1.6666666666666667" />
<circle cx="631.74" cy="264.14" r="1.6666666666666667" />
<circle cx="631.74" cy="261.04" r="1.6666666666666667" />
<circle cx="631.74" cy="259.36" r="1.6666666666666667" />
<circle cx="631.74" cy="251.49" r="1.6666666666666667" />
<circle cx="631.74" cy="253.66" r="1.6666666666666667" />
<circle cx="631.74" cy="264.14" r="1.6666666666666667" />
<circle cx="631.74" cy="270.69" r="1.6666666666666667" />
<circle cx="631.74" cy="288.60" r="1.6666666666666667" />
<circle cx="631.74" cy="293.31" r="1.6666666666666667" />
<circle cx="631.75" cy="293.85" r="1.6666666666666667" />
<circle cx="631.75" cy="286.62" r="1.6666666666666667" />
<circle cx="631.75" cy="289.85" r="1.6666666666666667" />
<circle cx="631.75" cy="311.70" r="1.6666666666666667" />
<circle cx="631.75" cy="347.18" r="1.6666666666666667" />
<circle cx="633.20" cy="275.05" r="1.6666666666666667" />
<circle cx="633.20" cy="277.94" r="1.6666666666666667" />
<circle cx="633.20" cy="270.69" r="1.6666666666666667" />
<circle cx="633.20" cy="270.69" r="1.6666666666666667" />
<circle cx="633.20" cy="277.94" r="1.6666666666666667" />
<circle cx="633.20" cy="329.00" r="1.6666666666666667" />
<circle cx="633.33" cy="439.90" r="1.6666666666666667" />
<circle cx="633.75" cy="474.09" r="1.6666666666666667" />
<circle cx="639.04" cy="371.70" r="1.6666666666666667" />
<circle cx="639.04" cy="327.84" r="1.6666666666666667" />
<circle cx="639.07" cy="388.26" r="1.6666666666666667" />
<circle cx="639.62" cy="482.14" r="1.6666666666666667" />
</g>
<g stroke="black">
<line x1="828.41" x2="828.41" y1="510.00" y2="520.00" />
<line x1="785.75" x2="785.75" y1="510.00" y2="520.00" />
<line x1="741.68" x2="741.68" y1="510.00" y2="520.00" />
<line x1="700.44" x2="700.44" y1="510.00" y2="520.00" />
<line x1="656.36" x2="656.36" y1="510.00" y2="520.00" />
<line x1="612.28" x2="612.28" y1="510.00" y2="520.00" />
<line x1="569.63" x2="569.63" y1="510.00" y2="520.00" />
<line x1="525.55" x2="525.55" y1="510.00" y2="520.00" />
<line x1="482.89" x2="482.89" y1="510.00" y2="520.00" />
<line x1="438.81" x2="438.81" y1="510.00" y2="520.00" />
<line x1="394.73" x2="394.73" y1="510.00" y2="520.00" />
<line x1="352.08" x2="352.08" y1="510.00" y2="520.00" />
<line x1="308.00" x2="308.00" y1="510.00" y2="520.00" />
<line x1="265.34" x2="265.34" y1="510.00" y2="520.00" />
<line x1="221.26" x2="221.26" y1="510.00" y2="520.00" />
<line x1="181.45" x2="181.45" y1="510.00" y2="520.00" />
<g fill="black" font-family="Arial, sans-serif" font-size="18.0" stroke="none" text-anchor="start" transform="translate(9.0 0.0)">
<text x="828.41" y="530.57">May</text>
<text x="785.75" y="530.57">Apr</text>
<text x="741.68" y="530.57">Mar</text>
<text x="700.44" y="530.57">Feb</text>
<text x="656.36" y="530.57">Jan</text>
<text x="612.28" y="530.57">Dec</text>
<text x="569.63" y="530.57">Nov</text>
<text x="525.55" y="530.57">Oct</text>
<text x="482.89" y="530.57">Sep</text>
<text x="438.81" y="530.57">Aug</text>
<text x="394.73" y="530.57">Jul</text>
<text x="352.08" y="530.57">Jun</text>
<text x="308.00" y="530.57">May</text>
<text x="265.34" y="530.57">Apr</text>
<text x="221.26" y="530.57">Mar</text>
<text x="181.45" y="530.57">Feb</text>
</g>
<line x1="150.00" x2="850.00" y1="510.00" y2="510.00" />
</g>
<g stroke="black">
<line x1="150.00" x2="138.00" y1="510.00" y2="510.00" />
<line x1="150.00" x2="138.00" y1="216.29" y2="216.29" />
<g fill="black" font-family="Arial, sans-serif" font-size="18.0" stroke="none" text-anchor="end">
<text x="141.00" y="501.00">0</text>
<text x="141.00" y="207.29">10</text>
</g>
<line x1="150.00" x2="150.00" y1="510.00" y2="90.00" />
</g>
</g>
</svg>