<?xml version="1.0"?>
<svg version="1.1" viewBox="0 0 1000 600" xmlns:xlink="http://www.w3.org/1999/xlink" xmlns="http://www.w3.org/2000/svg">
<g>
<g stroke-dasharray="3.6 7.2" stroke-width="0.72" stroke="#caa">
<line x1="219.08" x2="219.08" y1="510.00" y2="90.00" />
<line x1="308.03" x2="308.03" y1="510.00" y2="90.00" />
<line x1="396.98" x2="396.98" y1="510.00" y2="90.00" />
<line x1="485.93" x2="485.93" y1="510.00" y2="90.00" />
<line x1="574.87" x2="574.87" y1="510.00" y2="90.00" />
<line x1="663.82" x2="663.82" y1="510.00" y2="90.00" />
<line x1="752.77" x2="752.77" y1="510.00" y2="90.00" />
<line x1="841.72" x2="841.72" y1="510.00" y2="90.00" />
<line x1="150.00" x2="850.00" y1="510.00" y2="510.00" />
<line x1="150.00" x2="850.00" y1="465.81" y2="465.81" />
<line x1="150.00" x2="850.00" y1="421.61" y2="421.61" />
<line x1="150.00" x2="850.00" y1="377.42" y2="377.42" />
<line x1="150.00" x2="850.00" y1="333.23" y2="333.23" />
<line x1="150.00" x2="850.00" y1="289.04" y2="289.04" />
<line x1="150.00" x2="850.00" y1="244.84" y2="244.84" />
<line x1="150.00" x2="850.00" y1="200.65" y2="200.65" />
<line x1="150.00" x2="850.00" y1="156.46" y2="156.46" />
<line x1="150.00" x2="850.00" y1="112.27" y2="112.27" />
</g>
<g>
<text dominant-baseline="hanging" dx="-36.0" dy="18.0" fill="#0004" font-family="Arial, sans-serif" font-size="36" stroke="none" text-anchor="end" x="850.00" y="128.18">R07</text>
</g>
<g>
<text dominant-baseline="text-bottom" dy="-12.0" fill="black" font-family="Arial, sans-serif" font-size="18.0" font-style="italic" stroke="none" text-anchor="middle" x="500.00" y="90.00">Days since start</text>
</g>
<g>
<text dominant-baseline="central" dx="12.0" dy="12.0" fill="black" font-family="Arial, sans-serif" font-size="18.0" font-style="italic" stroke="none" text-anchor="middle" text-orientation="sideways" writing-mode="vertical-lr" x="850.00" y="300.00">Drips per day</text>
</g>
<polyline fill="none" points="150.00,357.27 150.00,255.45 150.00,309.04 150.01,400.91 150.01,390.68 150.01,336.44 150.02,439.29 150.02,128.18 150.02,128.18 150.02,319.09 150.03,382.73 150.03,397.70 150.03,425.15 150.58,509.28 150.59,475.29 150.60,382.73 150.60,297.88 150.60,319.09 150.60,319.09 150.60,297.88 150.61,255.45 150.61,336.44 150.61,328.18 150.61,297.88 150.61,336.44 150.62,350.91 150.62,357.27 150.62,350.91 150.62,357.27 150.63,343.99 150.63,357.27 150.63,336.44 150.63,378.34 150.64,394.30 150.64,394.30 150.65,421.20 150.65,414.54 150.65,433.64 150.66,441.82 150.67,476.51 150.84,507.67 151.17,508.81 151.43,508.46 791.51,435.13 791.51,430.45 791.52,350.91 791.52,328.18 791.52,297.88 791.52,271.36 791.52,255.45 791.52,255.45 791.53,255.45 791.53,297.88 791.53,271.36 791.53,271.36 791.53,255.45 791.53,285.40 791.54,271.36 791.54,285.40 791.54,255.45 791.54,285.40 791.54,297.88 791.55,336.44 791.55,328.18 791.55,363.14 791.55,350.91 791.56,319.09 791.56,285.40 791.56,285.40 791.56,328.18 791.56,297.88 791.56,271.36 791.57,319.09 791.57,373.63 791.57,416.87 791.58,441.82 791.60,491.73 792.66,509.63 792.67,462.86 792.68,463.44 792.70,489.25 792.70,448.42 792.71,455.45 797.99,509.93 800.71,509.86 800.72,394.30 800.72,412.10 800.73,423.22 800.73,382.73 800.73,363.14 800.73,368.58 800.74,319.09 800.74,297.88 800.74,285.40 800.74,216.29 800.74,237.27 800.75,319.09 800.75,357.27 800.75,426.99 800.76,439.29 800.76,440.58 800.77,421.20 800.77,430.45 800.78,472.20 800.82,498.70 809.84,378.34 809.85,390.68 809.85,357.27 809.85,357.27 809.85,390.68 809.87,489.02 810.69,509.52 813.31,509.85 846.40,505.10 846.41,488.18 846.55,507.21 850.00,509.89" stroke-dasharray="3.6 3.6" stroke-width="3.6" stroke="#aaa" />
<g>
<circle cx="150.00" cy="357.27" r="1.6666666666666667" />
<circle cx="150.00" cy="255.45" r="1.6666666666666667" />
<circle cx="150.00" cy="309.04" r="1.6666666666666667" />
<circle cx="150.01" cy="400.91" r="1.6666666666666667" />
<circle cx="150.01" cy="390.68" r="1.6666666666666667" />
<circle cx="150.01" cy="336.44" r="1.6666666666666667" />
<circle cx="150.02" cy="439.29" r="1.6666666666666667" />
<circle cx="150.02" cy="128.18" r="1.6666666666666667" />
<circle cx="150.02" cy="128.18" r="1.6666666666666667" />
<circle cx="150.02" cy="319.09" r="1.6666666666666667" />
<circle cx="150.03" cy="382.73" r="1.6666666666666667" />
<circle cx="150.03" cy="397.70" r="1.6666666666666667" />
<circle cx="150.03" cy="425.15" r="1.6666666666666667" />
<circle cx="150.58" cy="509.28" r="1.6666666666666667" />
<circle cx="150.59" cy="475.29" r="1.6666666666666667" />
<circle cx="150.60" cy="382.73" r="1.6666666666666667" />
<circle cx="150.60" cy="297.88" r="1.6666666666666667" />
<circle cx="150.60" cy="319.09" r="1.6666666666666667" />
<circle cx="150.60" cy="319.09" r="1.6666666666666667" />
<circle cx="150.60" cy="297.88" r="1.6666666666666667" />
<circle cx="150.61" cy="255.45" r="1.6666666666666667" />
<circle cx="150.61" cy="336.44" r="1.6666666666666667" />
<circle cx="150.61" cy="328.18" r="1.6666666666666667" />
<circle cx="150.61" cy="297.88" r="1.6666666666666667" />
<circle cx="150.61" cy="336.44" r="1.6666666666666667" />
<circle cx="150.62" cy="350.91" r="1.6666666666666667" />
<circle cx="150.62" cy="357.27" r="1.6666666666666667" />
<circle cx="150.62" cy="350.91" r="1.6666666666666667" />
<circle cx="150.62" cy="357.27" r="1.6666666666666667" />
<circle cx="150.63" cy="343.99" r="1.6666666666666667" />
<circle cx="150.63" cy="357.27" r="1.6666666666666667" />
<circle cx="150.63" cy="336.44" r="1.6666666666666667" />
<circle cx="150.63" cy="378.34" r="1.6666666666666667" />
<circle cx="150.64" cy="394.30" r="1.6666666666666667" />
<circle cx="150.64" cy="394.30" r="1.6666666666666667" />
<circle cx="150.65" cy="421.20" r="1.6666666666666667" />
<circle cx="150.65" cy="414.54" r="1.6666666666666667" />
<circle cx="150.65" cy="433.64" r="1.6666666666666667" />
<circle cx="150.66" cy="441.82" r="1.6666666666666667" />
<circle cx="150.67" cy="476.51" r="1.6666666666666667" />
<circle cx="150.84" cy="507.67" r="1.6666666666666667" />
<circle cx="151.17" cy="508.81" r="1.6666666666666667" />
<circle cx="151.43" cy="508.46" r="1.6666666666666667" />
<circle cx="791.51" cy="435.13" r="1.6666666666666667" />
<circle cx="791.51" cy="430.45" r="1.6666666666666667" />
<circle cx="791.52" cy="350.91" r="1.6666666666666667" />
<circle cx="791.52" cy="328.18" r="1.6666666666666667" />
<circle cx="791.52" cy="297.88" r="1.6666666666666667" />
<circle cx="791.52" cy="271.36" r="1.6666666666666667" />
<circle cx="791.52" cy="255.45" r="1.6666666666666667" />
<circle cx="791.52" cy="255.45" r="1.6666666666666667" />
<circle cx="791.53" cy="255.45" r="1.6666666666666667" />
<circle cx="791.53" cy="297.88" r="1.6666666666666667" />
<circle cx="791.53" cy="271.36" r="1.6666666666666667" />
<circle cx="791.53" cy="271.36" r="1.6666666666666667" />
<circle cx="791.53" cy="255.45" r="1.6666666666666667" />
<circle cx="791.53" cy="285.40" r="1.6666666666666667" />
<circle cx="791.54" cy="271.36" r="1.6666666666666667" />
<circle cx="791.54" cy="285.40" r="1.6666666666666667" />
<circle cx="791.54" cy="255.45" r="1.6666666666666667" />
<circle cx="791.54" cy="285.40" r="1.6666666666666667" />
<circle cx="791.54" cy="297.88" r="1.6666666666666667" />
<circle cx="791.55" cy="336.44" r="1.6666666666666667" />
<circle cx="791.55" cy="328.18" r="1.6666666666666667" />
<circle cx="791.55" cy="363.14" r="1.6666666666666667" />
<circle cx="791.55" cy="350.91" r="1.6666666666666667" />
<circle cx="791.56" cy="319.09" r="1.6666666666666667" />
<circle cx="791.56" cy="285.40" r="1.6666666666666667" />
<circle cx="791.56" cy="285.40" r="1.6666666666666667" />
<circle cx="791.56" cy="328.18" r="1.6666666666666667" />
<circle cx="791.56" cy="297.88" r="1.6666666666666667" />
<circle cx="791.56" cy="271.36" r="1.6666666666666667" />
<circle cx="791.57" cy="319.09" r="1.6666666666666667" />
<circle cx="791.57" cy="373.63" r="1.6666666666666667" />
<circle cx="791.57" cy="416.87" r="1.6666666666666667" />
<circle cx="791.58" cy="441.82" r="1.6666666666666667" />
<circle cx="791.60" cy="491.73" r="1.6666666666666667" />
<circle cx="792.66" cy="509.63" r="1.6666666666666667" />
<circle cx="792.67" cy="462.86" r="1.6666666666666667" />
<circle cx="792.68" cy="463.44" r="1.6666666666666667" />
<circle cx="792.70" cy="489.25" r="1.6666666666666667" />
<circle cx="792.70" cy="448.42" r="1.6666666666666667" />
<circle cx="792.71" cy="455.45" r="1.6666666666666667" />
<circle cx="797.99" cy="509.93" r="1.6666666666666667" />
<circle cx="800.71" cy="509.86" r="1.6666666666666667" />
<circle cx="800.72" cy="394.30" r="1.6666666666666667" />
<circle cx="800.72" cy="412.10" r="1.6666666666666667" />
<circle cx="800.73" cy="423.22" r="1.6666666666666667" />
<circle cx="800.73" cy="382.73" r="1.6666666666666667" />
<circle cx="800.73" cy="363.14" r="1.6666666666666667" />
<circle cx="800.73" cy="368.58" r="1.6666666666666667" />
<circle cx="800.74" cy="319.09" r="1.6666666666666667" />
<circle cx="800.74" cy="297.88" r="1.6666666666666667" />
<circle cx="800.74" cy="285.40" r="1.6666666666666667" />
<circle cx="800.74" cy="216.29" r="1.6666666666666667" />
<circle cx="800.74" cy="237.27" r="1.6666666666666667" />
<circle cx="800.75" cy="319.09" r="1.6666666666666667" />
<circle cx="800.75" cy="357.27" r="1.6666666666666667" />
<circle cx="800.75" cy="426.99" r="1.6666666666666667" />
<circle cx="800.76" cy="439.29" r="1.6666666666666667" />
<circle cx="800.76" cy="440.58" r="1.6666666666666667" />
<circle cx="800.77" cy="421.20" r="1.6666666666666667" />
<circle cx="800.77" cy="430.45" r="1.6666666666666667" />
<circle cx="800.78" cy="472.20" r="1.6666666666666667" />
<circle cx="800.82" cy="498.70" r="1.6666666666666667" />
<circle cx="809.84" cy="378.34" r="1.6666666666666667" />
<circle cx="809.85" cy="390.68" r="1.6666666666666667" />
<circle cx="809.85" cy="357.27" r="1.6666666666666667" />
<circle cx="809.85" cy="357.27" r="1.6666666666666667" />
<circle cx="809.85" cy="390.68" r="1.6666666666666667" />
<circle cx="809.87" cy="489.02" r="1.6666666666666667" />
<circle cx="810.69" cy="509.52" r="1.6666666666666667" />
<circle cx="813.31" cy="509.85" r="1.6666666666666667" />
<circle cx="846.40" cy="505.10" r="1.6666666666666667" />
<circle cx="846.41" cy="488.18" r="1.6666666666666667" />
<circle cx="846.55" cy="507.21" r="1.6666666666666667" />
<circle cx="850.00" cy="509.89" r="1.6666666666666667" />
</g>
<g stroke="black">
<line x1="219.08" x2="219.08" y1="510.00" y2="520.00" />
<line x1="308.03" x2="308.03" y1="510.00" y2="520.00" />
<line x1="396.98" x2="396.98" y1="510.00" y2="520.00" />
<line x1="485.93" x2="485.93" y1="510.00" y2="520.00" />
<line x1="574.87" x2="574.87" y1="510.00" y2="520.00" />
<line x1="663.82" x2="663.82" y1="510.00" y2="520.00" />
<line x1="752.77" x2="752.77" y1="510.00" y2="520.00" />
<line x1="841.72" x2="841.72" y1="510.00" y2="520.00" />
<g fill="black" font-family="Arial, sans-serif" font-size="18.0" stroke="none" text-anchor="start" transform="translate(9.0 0.0)">
<text x="219.08" y="530.57">19640</text>
<text x="308.03" y="530.57">19650</text>
<text x="396.98" y="530.57">19660</text>
<text x="485.93" y="530.57">19670</text>
<text x="574.87" y="530.57">19680</text>
<text x="663.82" y="530.57">19690</text>
<text x="752.77" y="530.57">19700</text>
<text x="841.72" y="530.57">19710</text>
</g>
<line x1="150.00" x2="850.00" y1="510.00" y2="510.00" />
</g>
<g stroke="black">
<line x1="150.00" x2="140.00" y1="510.00" y2="510.00" />
<line x1="150.00" x2="140.00" y1="465.81" y2="465.81" />
<line x1="150.00" x2="140.00" y1="421.61" y2="421.61" />
<line x1="150.00" x2="140.00" y1="377.42" y2="377.42" />
<line x1="150.00" x2="140.00" y1="333.23" y2="333.23" />
<line x1="150.00" x2="140.00" y1="289.04" y2="289.04" />
<line x1="150.00" x2="140.00" y1="244.84" y2="244.84" />
<line x1="150.00" x2="140.00" y1="200.65" y2="200.65" />
<line x1="150.00" x2="140.00" y1="156.46" y2="156.46" />
<line x1="150.00" x2="140.00" y1="112.27" y2="112.27" />
<g fill="black" font-family="Arial, sans-serif" font-size="18.0" stroke="none" text-anchor="end">
<text x="141.00" y="501.00">0</text>
<text x="141.00" y="456.81">1000</text>
<text x="141.00" y="412.61">2000</text>
<text x="141.00" y="368.42">3000</text>
<text x="141.00" y="324.23">4000</text>
<text x="141.00" y="280.04">5000</text>
<text x="141.00" y="235.84">6000</text>
<text x="141.00" y="191.65">7000</text>
<text x="141.00" y="147.46">8000</text>
<text x="141.00" y="103.27">9000</text>
</g>
<line x1="150.00" x2="150.00" y1="510.00" y2="90.00" />
</g>
</g>
</svg>