<?xml version="1.0"?>
<svg version="1.1" viewBox="0 0 1000 600" xmlns:xlink="http://www.w3.org/1999/xlink" xmlns="http://www.w3.org/2000/svg">
<g>
<g stroke-dasharray="3.6 7.2" stroke-width="0.72" stroke="#caa">
<line x1="813.75" x2="813.75" y1="510.00" y2="90.00" />
<line x1="760.60" x2="760.60" y1="510.00" y2="90.00" />
<line x1="707.45" x2="707.45" y1="510.00" y2="90.00" />
<line x1="656.01" x2="656.01" y1="510.00" y2="90.00" />
<line x1="602.86" x2="602.86" y1="510.00" y2="90.00" />
<line x1="551.42" x2="551.42" y1="510.00" y2="90.00" />
<line x1="498.27" x2="498.27" y1="510.00" y2="90.00" />
<line x1="445.11" x2="445.11" y1="510.00" y2="90.00" />
<line x1="393.68" x2="393.68" y1="510.00" y2="90.00" />
<line x1="340.52" x2="340.52" y1="510.00" y2="90.00" />
<line x1="289.09" x2="289.09" y1="510.00" y2="90.00" />
<line x1="235.93" x2="235.93" y1="510.00" y2="90.00" />
<line x1="187.92" x2="187.92" y1="510.00" y2="90.00" />
<line x1="150.00" x2="850.00" y1="510.00" y2="510.00" />
<line x1="150.00" x2="850.00" y1="216.29" y2="216.29" />
</g>
<g>
<text dominant-baseline="hanging" dx="-36.0" dy="18.0" fill="#0004" font-family="Arial, sans-serif" font-size="36" stroke="none" text-anchor="end" x="850.00" y="128.18">R07</text>
</g>
<g>
<text dominant-baseline="text-bottom" dy="-12.0" fill="black" font-family="Arial, sans-serif" font-size="18.0" font-style="italic" stroke="none" text-anchor="middle" x="500.00" y="90.00">Years 2023 to 2024</text>
</g>
<g>
<text dominant-baseline="central" dx="12.0" dy="12.0" fill="black" font-family="Arial, sans-serif" font-size="18.0" font-style="italic" stroke="none" text-anchor="middle" text-orientation="sideways" writing-mode="vertical-lr" x="850.00" y="300.00">log(Drips per day)</text>
</g>
<polyline fill="none" points="605.47,270.69 605.47,255.69 605.47,262.63 605.47,280.57 605.47,277.94 605.48,266.94 605.48,293.31 605.48,243.78 605.48,243.78 605.48,264.14 605.48,276.05 605.48,279.72 605.48,287.96 605.58,428.13 605.59,314.21 605.59,276.05 605.59,261.04 605.59,264.14 605.59,264.14 605.59,261.04 605.59,255.69 605.59,266.94 605.59,265.57 605.59,261.04 605.59,266.94 605.59,269.49 605.59,270.69 605.59,269.49 605.59,270.69 605.59,268.24 605.59,270.69 605.59,266.94 605.60,275.05 605.60,278.85 605.60,278.85 605.60,286.62 605.60,284.50 605.60,291.05 605.60,294.38 605.60,315.26 605.63,393.51 605.70,413.34 605.75,405.67 729.13,291.63 729.13,289.85 729.13,269.49 729.14,265.57 729.14,261.04 729.14,257.58 729.14,255.69 729.14,255.69 729.14,255.69 729.14,261.04 729.14,257.58 729.14,257.58 729.14,255.69 729.14,259.36 729.14,257.58 729.14,259.36 729.14,255.69 729.14,259.36 729.14,261.04 729.14,266.94 729.14,265.57 729.14,271.84 729.14,269.49 729.14,264.14 729.14,259.36 729.14,259.36 729.14,265.57 729.14,261.04 729.14,257.58 729.14,264.14 729.14,274.02 729.15,285.22 729.15,294.38 729.15,333.06 729.36,447.51 729.36,305.22 729.36,305.58 729.36,329.32 729.36,297.37 729.36,300.93 730.38,494.68 730.91,475.25 730.91,278.85 730.91,283.75 730.91,287.30 730.91,276.05 730.91,271.84 730.91,272.95 730.91,264.14 730.91,261.04 730.91,259.36 730.91,251.49 730.91,253.66 730.91,264.14 730.91,270.69 730.92,288.60 730.92,293.31 730.92,293.85 730.92,286.62 730.92,289.85 730.92,311.70 730.93,347.18 732.67,275.05 732.67,277.94 732.67,270.69 732.67,270.69 732.67,277.94 732.67,329.00 732.83,439.90 733.34,474.09 739.71,371.70 739.72,327.84 739.74,388.26 740.41,482.14" stroke-dasharray="3.6 3.6" stroke-width="3.6" stroke="#aaa" />
<g>
<circle cx="605.47" cy="270.69" r="1.6666666666666667" />
<circle cx="605.47" cy="255.69" r="1.6666666666666667" />
<circle cx="605.47" cy="262.63" r="1.6666666666666667" />
<circle cx="605.47" cy="280.57" r="1.6666666666666667" />
<circle cx="605.47" cy="277.94" r="1.6666666666666667" />
<circle cx="605.48" cy="266.94" r="1.6666666666666667" />
<circle cx="605.48" cy="293.31" r="1.6666666666666667" />
<circle cx="605.48" cy="243.78" r="1.6666666666666667" />
<circle cx="605.48" cy="243.78" r="1.6666666666666667" />
<circle cx="605.48" cy="264.14" r="1.6666666666666667" />
<circle cx="605.48" cy="276.05" r="1.6666666666666667" />
<circle cx="605.48" cy="279.72" r="1.6666666666666667" />
<circle cx="605.48" cy="287.96" r="1.6666666666666667" />
<circle cx="605.58" cy="428.13" r="1.6666666666666667" />
<circle cx="605.59" cy="314.21" r="1.6666666666666667" />
<circle cx="605.59" cy="276.05" r="1.6666666666666667" />
<circle cx="605.59" cy="261.04" r="1.6666666666666667" />
<circle cx="605.59" cy="264.14" r="1.6666666666666667" />
<circle cx="605.59" cy="264.14" r="1.6666666666666667" />
<circle cx="605.59" cy="261.04" r="1.6666666666666667" />
<circle cx="605.59" cy="255.69" r="1.6666666666666667" />
<circle cx="605.59" cy="266.94" r="1.6666666666666667" />
<circle cx="605.59" cy="265.57" r="1.6666666666666667" />
<circle cx="605.59" cy="261.04" r="1.6666666666666667" />
<circle cx="605.59" cy="266.94" r="1.6666666666666667" />
<circle cx="605.59" cy="269.49" r="1.6666666666666667" />
<circle cx="605.59" cy="270.69" r="1.6666666666666667" />
<circle cx="605.59" cy="269.49" r="1.6666666666666667" />
<circle cx="605.59" cy="270.69" r="1.6666666666666667" />
<circle cx="605.59" cy="268.24" r="1.6666666666666667" />
<circle cx="605.59" cy="270.69" r="1.6666666666666667" />
<circle cx="605.59" cy="266.94" r="1.6666666666666667" />
<circle cx="605.60" cy="275.05" r="1.6666666666666667" />
<circle cx="605.60" cy="278.85" r="1.6666666666666667" />
<circle cx="605.60" cy="278.85" r="1.6666666666666667" />
<circle cx="605.60" cy="286.62" r="1.6666666666666667" />
<circle cx="605.60" cy="284.50" r="1.6666666666666667" />
<circle cx="605.60" cy="291.05" r="1.6666666666666667" />
<circle cx="605.60" cy="294.38" r="1.6666666666666667" />
<circle cx="605.60" cy="315.26" r="1.6666666666666667" />
<circle cx="605.63" cy="393.51" r="1.6666666666666667" />
<circle cx="605.70" cy="413.34" r="1.6666666666666667" />
<circle cx="605.75" cy="405.67" r="1.6666666666666667" />
<circle cx="729.13" cy="291.63" r="1.6666666666666667" />
<circle cx="729.13" cy="289.85" r="1.6666666666666667" />
<circle cx="729.13" cy="269.49" r="1.6666666666666667" />
<circle cx="729.14" cy="265.57" r="1.6666666666666667" />
<circle cx="729.14" cy="261.04" r="1.6666666666666667" />
<circle cx="729.14" cy="257.58" r="1.6666666666666667" />
<circle cx="729.14" cy="255.69" r="1.6666666666666667" />
<circle cx="729.14" cy="255.69" r="1.6666666666666667" />
<circle cx="729.14" cy="255.69" r="1.6666666666666667" />
<circle cx="729.14" cy="261.04" r="1.6666666666666667" />
<circle cx="729.14" cy="257.58" r="1.6666666666666667" />
<circle cx="729.14" cy="257.58" r="1.6666666666666667" />
<circle cx="729.14" cy="255.69" r="1.6666666666666667" />
<circle cx="729.14" cy="259.36" r="1.6666666666666667" />
<circle cx="729.14" cy="257.58" r="1.6666666666666667" />
<circle cx="729.14" cy="259.36" r="1.6666666666666667" />
<circle cx="729.14" cy="255.69" r="1.6666666666666667" />
<circle cx="729.14" cy="259.36" r="1.6666666666666667" />
<circle cx="729.14" cy="261.04" r="1.6666666666666667" />
<circle cx="729.14" cy="266.94" r="1.6666666666666667" />
<circle cx="729.14" cy="265.57" r="1.6666666666666667" />
<circle cx="729.14" cy="271.84" r="1.6666666666666667" />
<circle cx="729.14" cy="269.49" r="1.6666666666666667" />
<circle cx="729.14" cy="264.14" r="1.6666666666666667" />
<circle cx="729.14" cy="259.36" r="1.6666666666666667" />
<circle cx="729.14" cy="259.36" r="1.6666666666666667" />
<circle cx="729.14" cy="265.57" r="1.6666666666666667" />
<circle cx="729.14" cy="261.04" r="1.6666666666666667" />
<circle cx="729.14" cy="257.58" r="1.6666666666666667" />
<circle cx="729.14" cy="264.14" r="1.6666666666666667" />
<circle cx="729.14" cy="274.02" r="1.6666666666666667" />
<circle cx="729.15" cy="285.22" r="1.6666666666666667" />
<circle cx="729.15" cy="294.38" r="1.6666666666666667" />
<circle cx="729.15" cy="333.06" r="1.6666666666666667" />
<circle cx="729.36" cy="447.51" r="1.6666666666666667" />
<circle cx="729.36" cy="305.22" r="1.6666666666666667" />
<circle cx="729.36" cy="305.58" r="1.6666666666666667" />
<circle cx="729.36" cy="329.32" r="1.6666666666666667" />
<circle cx="729.36" cy="297.37" r="1.6666666666666667" />
<circle cx="729.36" cy="300.93" r="1.6666666666666667" />
<circle cx="730.38" cy="494.68" r="1.6666666666666667" />
<circle cx="730.91" cy="475.25" r="1.6666666666666667" />
<circle cx="730.91" cy="278.85" r="1.6666666666666667" />
<circle cx="730.91" cy="283.75" r="1.6666666666666667" />
<circle cx="730.91" cy="287.30" r="1.6666666666666667" />
<circle cx="730.91" cy="276.05" r="1.6666666666666667" />
<circle cx="730.91" cy="271.84" r="1.6666666666666667" />
<circle cx="730.91" cy="272.95" r="1.6666666666666667" />
<circle cx="730.91" cy="264.14" r="1.6666666666666667" />
<circle cx="730.91" cy="261.04" r="1.6666666666666667" />
<circle cx="730.91" cy="259.36" r="1.6666666666666667" />
<circle cx="730.91" cy="251.49" r="1.6666666666666667" />
<circle cx="730.91" cy="253.66" r="1.6666666666666667" />
<circle cx="730.91" cy="264.14" r="1.6666666666666667" />
<circle cx="730.91" cy="270.69" r="1.6666666666666667" />
<circle cx="730.92" cy="288.60" r="1.6666666666666667" />
<circle cx="730.92" cy="293.31" r="1.6666666666666667" />
<circle cx="730.92" cy="293.85" r="1.6666666666666667" />
<circle cx="730.92" cy="286.62" r="1.6666666666666667" />
<circle cx="730.92" cy="289.85" r="1.6666666666666667" />
<circle cx="730.92" cy="311.70" r="1.6666666666666667" />
<circle cx="730.93" cy="347.18" r="1.6666666666666667" />
<circle cx="732.67" cy="275.05" r="1.6666666666666667" />
<circle cx="732.67" cy="277.94" r="1.6666666666666667" />
<circle cx="732.67" cy="270.69" r="1.6666666666666667" />
<circle cx="732.67" cy="270.69" r="1.6666666666666667" />
<circle cx="732.67" cy="277.94" r="1.6666666666666667" />
<circle cx="732.67" cy="329.00" r="1.6666666666666667" />
<circle cx="732.83" cy="439.90" r="1.6666666666666667" />
<circle cx="733.34" cy="474.09" r="1.6666666666666667" />
<circle cx="739.71" cy="371.70" r="1.6666666666666667" />
<circle cx="739.72" cy="327.84" r="1.6666666666666667" />
<circle cx="739.74" cy="388.26" r="1.6666666666666667" />
<circle cx="740.41" cy="482.14" r="1.6666666666666667" />
</g>
<g stroke="black">
<line x1="813.75" x2="813.75" y1="510.00" y2="520.00" />
<line x1="760.60" x2="760.60" y1="510.00" y2="520.00" />
<line x1="707.45" x2="707.45" y1="510.00" y2="520.00" />
<line x1="656.01" x2="656.01" y1="510.00" y2="520.00" />
<line x1="602.86" x2="602.86" y1="510.00" y2="520.00" />
<line x1="551.42" x2="551.42" y1="510.00" y2="520.00" />
<line x1="498.27" x2="498.27" y1="510.00" y2="520.00" />
<line x1="445.11" x2="445.11" y1="510.00" y2="520.00" />
<line x1="393.68" x2="393.68" y1="510.00" y2="520.00" />
<line x1="340.52" x2="340.52" y1="510.00" y2="520.00" />
<line x1="289.09" x2="289.09" y1="510.00" y2="520.00" />
<line x1="235.93" x2="235.93" y1="510.00" y2="520.00" />
<line x1="187.92" x2="187.92" y1="510.00" y2="520.00" />
<g fill="black" font-family="Arial, sans-serif" font-size="18.0" stroke="none" text-anchor="start" transform="translate(9.0 0.0)">
<text x="813.75" y="530.57">Feb</text>
<text x="760.60" y="530.57">Jan</text>
<text x="707.45" y="530.57">Dec</text>
<text x="656.01" y="530.57">Nov</text>
<text x="602.86" y="530.57">Oct</text>
<text x="551.42" y="530.57">Sep</text>
<text x="498.27" y="530.57">Aug</text>
<text x="445.11" y="530.57">Jul</text>
<text x="393.68" y="530.57">Jun</text>
<text x="340.52" y="530.57">May</text>
<text x="289.09" y="530.57">Apr</text>
<text x="235.93" y="530.57">Mar</text>
<text x="187.92" y="530.57">Feb</text>
</g>
<line x1="150.00" x2="850.00" y1="510.00" y2="510.00" />
</g>
<g stroke="black">
<line x1="150.00" x2="140.00" y1="510.00" y2="510.00" />
<line x1="150.00" x2="140.00" y1="216.29" y2="216.29" />
<g fill="black" font-family="Arial, sans-serif" font-size="18.0" stroke="none" text-anchor="end">
<text x="141.00" y="501.00">0</text>
<text x="141.00" y="207.29">10</text>
</g>
<line x1="150.00" x2="150.00" y1="510.00" y2="90.00" />
</g>
</g>
</svg>