<?xml version="1.0"?>
<svg version="1.1" viewBox="0 0 1000 600" xmlns:xlink="http://www.w3.org/1999/xlink" xmlns="http://www.w3.org/2000/svg">
<g>
<g stroke-dasharray="3.6 7.2" stroke-width="0.72" stroke="#caa">
<line x1="292.34" x2="292.34" y1="510.00" y2="90.00" />
<line x1="728.19" x2="728.19" y1="510.00" y2="90.00" />
<line x1="150.00" x2="850.00" y1="495.82" y2="495.82" />
<line x1="150.00" x2="850.00" y1="283.62" y2="283.62" />
</g>
<g>
<text dominant-baseline="hanging" dx="-36.0" dy="18.0" fill="#0004" font-family="Arial, sans-serif" font-size="36" stroke="none" text-anchor="end" x="850.00" y="125.00">R08</text>
</g>
<g>
<text dominant-baseline="text-bottom" dy="-12.0" fill="black" font-family="Arial, sans-serif" font-size="18.0" font-style="italic" stroke="none" text-anchor="middle" x="500.00" y="90.00">Days since start</text>
</g>
<g>
<text dominant-baseline="central" dx="12.0" dy="12.0" fill="black" font-family="Arial, sans-serif" font-size="18.0" font-style="italic" stroke="none" text-anchor="middle" text-orientation="sideways" writing-mode="vertical-lr" x="850.00" y="300.00">Drips per day</text>
</g>
<polyline fill="none" points="150.00,327.83 163.18,430.47 173.76,258.45 185.70,357.75 196.65,288.12 210.62,470.25 221.70,297.61 235.15,445.08 245.95,276.05 259.64,456.76 270.76,300.45 283.30,394.63 295.24,358.31 306.68,323.58 318.01,316.23 331.45,444.36 340.94,157.57 352.91,359.71 364.05,302.56 376.53,390.93 387.19,265.52 398.13,286.52 409.05,285.39 422.15,426.80 432.73,257.45 444.54,349.85 454.36,189.94 466.39,364.08 477.14,271.50 489.34,374.56 500.52,305.14 513.63,427.07 524.01,240.82 536.53,393.80 549.25,405.42 561.18,356.96 573.58,386.71 586.12,394.78 597.49,319.09 610.30,410.18 621.57,312.32 634.52,417.92 644.97,247.83 657.78,410.01 668.60,277.72 680.08,327.20 690.45,240.25 703.33,414.11 712.51,125.00 724.98,391.02 734.74,184.83 747.72,419.70 758.59,281.61 772.66,475.00 783.23,258.12 794.83,335.04 804.70,194.81 816.78,367.00 826.83,211.76 839.74,416.41 850.00,230.60" stroke-dasharray="3.6 3.6" stroke-width="3.6" stroke="#aaa" />
<g>
<circle cx="150.00" cy="327.83" r="1.6666666666666667" />
<circle cx="163.18" cy="430.47" r="1.6666666666666667" />
<circle cx="173.76" cy="258.45" r="1.6666666666666667" />
<circle cx="185.70" cy="357.75" r="1.6666666666666667" />
<circle cx="196.65" cy="288.12" r="1.6666666666666667" />
<circle cx="210.62" cy="470.25" r="1.6666666666666667" />
<circle cx="221.70" cy="297.61" r="1.6666666666666667" />
<circle cx="235.15" cy="445.08" r="1.6666666666666667" />
<circle cx="245.95" cy="276.05" r="1.6666666666666667" />
<circle cx="259.64" cy="456.76" r="1.6666666666666667" />
<circle cx="270.76" cy="300.45" r="1.6666666666666667" />
<circle cx="283.30" cy="394.63" r="1.6666666666666667" />
<circle cx="295.24" cy="358.31" r="1.6666666666666667" />
<circle cx="306.68" cy="323.58" r="1.6666666666666667" />
<circle cx="318.01" cy="316.23" r="1.6666666666666667" />
<circle cx="331.45" cy="444.36" r="1.6666666666666667" />
<circle cx="340.94" cy="157.57" r="1.6666666666666667" />
<circle cx="352.91" cy="359.71" r="1.6666666666666667" />
<circle cx="364.05" cy="302.56" r="1.6666666666666667" />
<circle cx="376.53" cy="390.93" r="1.6666666666666667" />
<circle cx="387.19" cy="265.52" r="1.6666666666666667" />
<circle cx="398.13" cy="286.52" r="1.6666666666666667" />
<circle cx="409.05" cy="285.39" r="1.6666666666666667" />
<circle cx="422.15" cy="426.80" r="1.6666666666666667" />
<circle cx="432.73" cy="257.45" r="1.6666666666666667" />
<circle cx="444.54" cy="349.85" r="1.6666666666666667" />
<circle cx="454.36" cy="189.94" r="1.6666666666666667" />
<circle cx="466.39" cy="364.08" r="1.6666666666666667" />
<circle cx="477.14" cy="271.50" r="1.6666666666666667" />
<circle cx="489.34" cy="374.56" r="1.6666666666666667" />
<circle cx="500.52" cy="305.14" r="1.6666666666666667" />
<circle cx="513.63" cy="427.07" r="1.6666666666666667" />
<circle cx="524.01" cy="240.82" r="1.6666666666666667" />
<circle cx="536.53" cy="393.80" r="1.6666666666666667" />
<circle cx="549.25" cy="405.42" r="1.6666666666666667" />
<circle cx="561.18" cy="356.96" r="1.6666666666666667" />
<circle cx="573.58" cy="386.71" r="1.6666666666666667" />
<circle cx="586.12" cy="394.78" r="1.6666666666666667" />
<circle cx="597.49" cy="319.09" r="1.6666666666666667" />
<circle cx="610.30" cy="410.18" r="1.6666666666666667" />
<circle cx="621.57" cy="312.32" r="1.6666666666666667" />
<circle cx="634.52" cy="417.92" r="1.6666666666666667" />
<circle cx="644.97" cy="247.83" r="1.6666666666666667" />
<circle cx="657.78" cy="410.01" r="1.6666666666666667" />
<circle cx="668.60" cy="277.72" r="1.6666666666666667" />
<circle cx="680.08" cy="327.20" r="1.6666666666666667" />
<circle cx="690.45" cy="240.25" r="1.6666666666666667" />
<circle cx="703.33" cy="414.11" r="1.6666666666666667" />
<circle cx="712.51" cy="125.00" r="1.6666666666666667" />
<circle cx="724.98" cy="391.02" r="1.6666666666666667" />
<circle cx="734.74" cy="184.83" r="1.6666666666666667" />
<circle cx="747.72" cy="419.70" r="1.6666666666666667" />
<circle cx="758.59" cy="281.61" r="1.6666666666666667" />
<circle cx="772.66" cy="475.00" r="1.6666666666666667" />
<circle cx="783.23" cy="258.12" r="1.6666666666666667" />
<circle cx="794.83" cy="335.04" r="1.6666666666666667" />
<circle cx="804.70" cy="194.81" r="1.6666666666666667" />
<circle cx="816.78" cy="367.00" r="1.6666666666666667" />
<circle cx="826.83" cy="211.76" r="1.6666666666666667" />
<circle cx="839.74" cy="416.41" r="1.6666666666666667" />
<circle cx="850.00" cy="230.60" r="1.6666666666666667" />
</g>
<g stroke="black">
<line x1="292.34" x2="292.34" y1="510.00" y2="520.00" />
<line x1="728.19" x2="728.19" y1="510.00" y2="520.00" />
<g fill="black" font-family="Arial, sans-serif" font-size="18.0" stroke="none" text-anchor="start" transform="translate(9.0 0.0)">
<text x="292.34" y="530.57">19730</text>
<text x="728.19" y="530.57">19740</text>
</g>
<line x1="150.00" x2="850.00" y1="510.00" y2="510.00" />
</g>
<g stroke="black">
<line x1="150.00" x2="140.00" y1="495.82" y2="495.82" />
<line x1="150.00" x2="140.00" y1="283.62" y2="283.62" />
<g fill="black" font-family="Arial, sans-serif" font-size="18.0" stroke="none" text-anchor="end">
<text x="141.00" y="486.82">3</text>
<text x="141.00" y="274.62">4</text>
</g>
<line x1="150.00" x2="150.00" y1="510.00" y2="90.00" />
</g>
</g>
</svg>