<?xml version="1.0"?>
<svg version="1.1" viewBox="0 0 1000 600" xmlns:xlink="http://www.w3.org/1999/xlink" xmlns="http://www.w3.org/2000/svg">
<g>
<g stroke-dasharray="3.6 7.2" stroke-width="0.72" stroke="#caa">
<line x1="813.75" x2="813.75" y1="510.00" y2="90.00" />
<line x1="760.60" x2="760.60" y1="510.00" y2="90.00" />
<line x1="707.45" x2="707.45" y1="510.00" y2="90.00" />
<line x1="656.01" x2="656.01" y1="510.00" y2="90.00" />
<line x1="602.86" x2="602.86" y1="510.00" y2="90.00" />
<line x1="551.42" x2="551.42" y1="510.00" y2="90.00" />
<line x1="498.27" x2="498.27" y1="510.00" y2="90.00" />
<line x1="445.11" x2="445.11" y1="510.00" y2="90.00" />
<line x1="393.68" x2="393.68" y1="510.00" y2="90.00" />
<line x1="340.52" x2="340.52" y1="510.00" y2="90.00" />
<line x1="289.09" x2="289.09" y1="510.00" y2="90.00" />
<line x1="235.93" x2="235.93" y1="510.00" y2="90.00" />
<line x1="187.92" x2="187.92" y1="510.00" y2="90.00" />
<line x1="150.00" x2="850.00" y1="510.00" y2="510.00" />
<line x1="150.00" x2="850.00" y1="216.29" y2="216.29" />
</g>
<g>
<text dominant-baseline="hanging" dx="-36.0" dy="18.0" fill="#0004" font-family="Arial, sans-serif" font-size="36" stroke="none" text-anchor="end" x="850.00" y="128.18">R08</text>
</g>
<g>
<text dominant-baseline="text-bottom" dy="-12.0" fill="black" font-family="Arial, sans-serif" font-size="18.0" font-style="italic" stroke="none" text-anchor="middle" x="500.00" y="90.00">Years 2023 to 2024</text>
</g>
<g>
<text dominant-baseline="central" dx="12.0" dy="12.0" fill="black" font-family="Arial, sans-serif" font-size="18.0" font-style="italic" stroke="none" text-anchor="middle" text-orientation="sideways" writing-mode="vertical-lr" x="850.00" y="300.00">log(Drips per day)</text>
</g>
<polyline fill="none" points="767.50,470.85 768.02,474.86 768.44,468.43 768.91,471.97 769.34,469.44 769.89,476.58 770.32,469.77 770.85,475.48 771.28,469.02 771.82,475.98 772.25,469.87 772.75,473.40 773.22,471.99 773.67,470.70 774.11,470.43 774.64,475.45 775.02,465.22 775.49,472.04 775.92,469.95 776.42,473.25 776.84,468.66 777.27,469.38 777.69,469.34 778.21,474.71 778.63,468.39 779.09,471.67 779.48,466.21 779.95,472.21 780.37,468.87 780.85,472.61 781.29,470.04 781.81,474.72 782.22,467.84 782.71,473.37 783.21,473.83 783.68,471.94 784.17,473.09 784.66,473.41 785.11,470.54 785.61,474.03 786.06,470.29 786.56,474.34 786.98,468.07 787.48,474.02 787.91,469.08 788.36,470.83 788.76,467.82 789.27,474.19 789.63,464.25 790.12,473.26 790.51,466.05 791.02,474.42 791.45,469.21 792.00,476.79 792.41,468.41 792.87,471.12 793.26,466.36 793.73,472.32 794.13,466.90 794.64,474.28 795.04,467.50 823.75,454.00 824.00,453.72 824.26,454.10 824.51,453.83 824.77,455.16 825.02,452.89 825.27,453.71 825.53,455.00 825.79,454.00 826.05,454.52 826.31,454.41 826.58,455.89 826.83,453.35 827.09,454.31 827.35,455.10 827.61,454.08 827.87,454.87 828.12,454.27 828.38,454.36 828.64,454.18 828.89,453.56 829.15,454.87 829.41,454.01 829.68,455.54 829.95,455.64 830.21,455.63 830.48,455.39 830.75,455.49 831.02,455.93 831.29,455.57 831.55,454.94 831.82,455.78 832.09,455.44 832.36,455.57 832.63,455.78 832.90,455.59 833.17,455.99 833.44,455.96 833.71,455.07 833.98,455.28 834.25,456.69 834.52,455.70 834.80,456.71 835.08,455.93 835.34,455.44 835.60,454.74 835.88,455.94 836.15,455.83 836.42,455.64 836.69,456.47 836.97,456.17 837.24,455.37 837.51,455.89 837.78,456.20 838.06,456.08 838.33,456.71 838.61,456.05 838.88,456.01 839.17,457.31 839.46,457.77 839.74,456.91 840.02,457.36 840.31,457.40 840.59,457.03 840.88,457.76 841.17,457.79 841.45,457.03 841.74,457.69 842.03,457.64 842.32,457.68 842.60,457.22 842.90,458.30 843.19,457.77 843.48,458.13 843.78,458.87 844.07,457.50 844.36,457.96 844.66,458.67 844.95,457.77 845.24,458.34 845.54,458.33 845.83,458.39 846.14,459.45 846.43,458.12 846.73,457.97 847.03,458.84 847.32,458.38 847.61,457.85 847.91,458.49 848.21,458.67 848.49,457.34 848.80,459.01 849.09,458.28 849.39,459.16 849.69,458.87 850.00,459.35" stroke-dasharray="3.6 3.6" stroke-width="3.6" stroke="#aaa" />
<g>
<circle cx="767.50" cy="470.85" r="1.6666666666666667" />
<circle cx="768.02" cy="474.86" r="1.6666666666666667" />
<circle cx="768.44" cy="468.43" r="1.6666666666666667" />
<circle cx="768.91" cy="471.97" r="1.6666666666666667" />
<circle cx="769.34" cy="469.44" r="1.6666666666666667" />
<circle cx="769.89" cy="476.58" r="1.6666666666666667" />
<circle cx="770.32" cy="469.77" r="1.6666666666666667" />
<circle cx="770.85" cy="475.48" r="1.6666666666666667" />
<circle cx="771.28" cy="469.02" r="1.6666666666666667" />
<circle cx="771.82" cy="475.98" r="1.6666666666666667" />
<circle cx="772.25" cy="469.87" r="1.6666666666666667" />
<circle cx="772.75" cy="473.40" r="1.6666666666666667" />
<circle cx="773.22" cy="471.99" r="1.6666666666666667" />
<circle cx="773.67" cy="470.70" r="1.6666666666666667" />
<circle cx="774.11" cy="470.43" r="1.6666666666666667" />
<circle cx="774.64" cy="475.45" r="1.6666666666666667" />
<circle cx="775.02" cy="465.22" r="1.6666666666666667" />
<circle cx="775.49" cy="472.04" r="1.6666666666666667" />
<circle cx="775.92" cy="469.95" r="1.6666666666666667" />
<circle cx="776.42" cy="473.25" r="1.6666666666666667" />
<circle cx="776.84" cy="468.66" r="1.6666666666666667" />
<circle cx="777.27" cy="469.38" r="1.6666666666666667" />
<circle cx="777.69" cy="469.34" r="1.6666666666666667" />
<circle cx="778.21" cy="474.71" r="1.6666666666666667" />
<circle cx="778.63" cy="468.39" r="1.6666666666666667" />
<circle cx="779.09" cy="471.67" r="1.6666666666666667" />
<circle cx="779.48" cy="466.21" r="1.6666666666666667" />
<circle cx="779.95" cy="472.21" r="1.6666666666666667" />
<circle cx="780.37" cy="468.87" r="1.6666666666666667" />
<circle cx="780.85" cy="472.61" r="1.6666666666666667" />
<circle cx="781.29" cy="470.04" r="1.6666666666666667" />
<circle cx="781.81" cy="474.72" r="1.6666666666666667" />
<circle cx="782.22" cy="467.84" r="1.6666666666666667" />
<circle cx="782.71" cy="473.37" r="1.6666666666666667" />
<circle cx="783.21" cy="473.83" r="1.6666666666666667" />
<circle cx="783.68" cy="471.94" r="1.6666666666666667" />
<circle cx="784.17" cy="473.09" r="1.6666666666666667" />
<circle cx="784.66" cy="473.41" r="1.6666666666666667" />
<circle cx="785.11" cy="470.54" r="1.6666666666666667" />
<circle cx="785.61" cy="474.03" r="1.6666666666666667" />
<circle cx="786.06" cy="470.29" r="1.6666666666666667" />
<circle cx="786.56" cy="474.34" r="1.6666666666666667" />
<circle cx="786.98" cy="468.07" r="1.6666666666666667" />
<circle cx="787.48" cy="474.02" r="1.6666666666666667" />
<circle cx="787.91" cy="469.08" r="1.6666666666666667" />
<circle cx="788.36" cy="470.83" r="1.6666666666666667" />
<circle cx="788.76" cy="467.82" r="1.6666666666666667" />
<circle cx="789.27" cy="474.19" r="1.6666666666666667" />
<circle cx="789.63" cy="464.25" r="1.6666666666666667" />
<circle cx="790.12" cy="473.26" r="1.6666666666666667" />
<circle cx="790.51" cy="466.05" r="1.6666666666666667" />
<circle cx="791.02" cy="474.42" r="1.6666666666666667" />
<circle cx="791.45" cy="469.21" r="1.6666666666666667" />
<circle cx="792.00" cy="476.79" r="1.6666666666666667" />
<circle cx="792.41" cy="468.41" r="1.6666666666666667" />
<circle cx="792.87" cy="471.12" r="1.6666666666666667" />
<circle cx="793.26" cy="466.36" r="1.6666666666666667" />
<circle cx="793.73" cy="472.32" r="1.6666666666666667" />
<circle cx="794.13" cy="466.90" r="1.6666666666666667" />
<circle cx="794.64" cy="474.28" r="1.6666666666666667" />
<circle cx="795.04" cy="467.50" r="1.6666666666666667" />
<circle cx="823.75" cy="454.00" r="1.6666666666666667" />
<circle cx="824.00" cy="453.72" r="1.6666666666666667" />
<circle cx="824.26" cy="454.10" r="1.6666666666666667" />
<circle cx="824.51" cy="453.83" r="1.6666666666666667" />
<circle cx="824.77" cy="455.16" r="1.6666666666666667" />
<circle cx="825.02" cy="452.89" r="1.6666666666666667" />
<circle cx="825.27" cy="453.71" r="1.6666666666666667" />
<circle cx="825.53" cy="455.00" r="1.6666666666666667" />
<circle cx="825.79" cy="454.00" r="1.6666666666666667" />
<circle cx="826.05" cy="454.52" r="1.6666666666666667" />
<circle cx="826.31" cy="454.41" r="1.6666666666666667" />
<circle cx="826.58" cy="455.89" r="1.6666666666666667" />
<circle cx="826.83" cy="453.35" r="1.6666666666666667" />
<circle cx="827.09" cy="454.31" r="1.6666666666666667" />
<circle cx="827.35" cy="455.10" r="1.6666666666666667" />
<circle cx="827.61" cy="454.08" r="1.6666666666666667" />
<circle cx="827.87" cy="454.87" r="1.6666666666666667" />
<circle cx="828.12" cy="454.27" r="1.6666666666666667" />
<circle cx="828.38" cy="454.36" r="1.6666666666666667" />
<circle cx="828.64" cy="454.18" r="1.6666666666666667" />
<circle cx="828.89" cy="453.56" r="1.6666666666666667" />
<circle cx="829.15" cy="454.87" r="1.6666666666666667" />
<circle cx="829.41" cy="454.01" r="1.6666666666666667" />
<circle cx="829.68" cy="455.54" r="1.6666666666666667" />
<circle cx="829.95" cy="455.64" r="1.6666666666666667" />
<circle cx="830.21" cy="455.63" r="1.6666666666666667" />
<circle cx="830.48" cy="455.39" r="1.6666666666666667" />
<circle cx="830.75" cy="455.49" r="1.6666666666666667" />
<circle cx="831.02" cy="455.93" r="1.6666666666666667" />
<circle cx="831.29" cy="455.57" r="1.6666666666666667" />
<circle cx="831.55" cy="454.94" r="1.6666666666666667" />
<circle cx="831.82" cy="455.78" r="1.6666666666666667" />
<circle cx="832.09" cy="455.44" r="1.6666666666666667" />
<circle cx="832.36" cy="455.57" r="1.6666666666666667" />
<circle cx="832.63" cy="455.78" r="1.6666666666666667" />
<circle cx="832.90" cy="455.59" r="1.6666666666666667" />
<circle cx="833.17" cy="455.99" r="1.6666666666666667" />
<circle cx="833.44" cy="455.96" r="1.6666666666666667" />
<circle cx="833.71" cy="455.07" r="1.6666666666666667" />
<circle cx="833.98" cy="455.28" r="1.6666666666666667" />
<circle cx="834.25" cy="456.69" r="1.6666666666666667" />
<circle cx="834.52" cy="455.70" r="1.6666666666666667" />
<circle cx="834.80" cy="456.71" r="1.6666666666666667" />
<circle cx="835.08" cy="455.93" r="1.6666666666666667" />
<circle cx="835.34" cy="455.44" r="1.6666666666666667" />
<circle cx="835.60" cy="454.74" r="1.6666666666666667" />
<circle cx="835.88" cy="455.94" r="1.6666666666666667" />
<circle cx="836.15" cy="455.83" r="1.6666666666666667" />
<circle cx="836.42" cy="455.64" r="1.6666666666666667" />
<circle cx="836.69" cy="456.47" r="1.6666666666666667" />
<circle cx="836.97" cy="456.17" r="1.6666666666666667" />
<circle cx="837.24" cy="455.37" r="1.6666666666666667" />
<circle cx="837.51" cy="455.89" r="1.6666666666666667" />
<circle cx="837.78" cy="456.20" r="1.6666666666666667" />
<circle cx="838.06" cy="456.08" r="1.6666666666666667" />
<circle cx="838.33" cy="456.71" r="1.6666666666666667" />
<circle cx="838.61" cy="456.05" r="1.6666666666666667" />
<circle cx="838.88" cy="456.01" r="1.6666666666666667" />
<circle cx="839.17" cy="457.31" r="1.6666666666666667" />
<circle cx="839.46" cy="457.77" r="1.6666666666666667" />
<circle cx="839.74" cy="456.91" r="1.6666666666666667" />
<circle cx="840.02" cy="457.36" r="1.6666666666666667" />
<circle cx="840.31" cy="457.40" r="1.6666666666666667" />
<circle cx="840.59" cy="457.03" r="1.6666666666666667" />
<circle cx="840.88" cy="457.76" r="1.6666666666666667" />
<circle cx="841.17" cy="457.79" r="1.6666666666666667" />
<circle cx="841.45" cy="457.03" r="1.6666666666666667" />
<circle cx="841.74" cy="457.69" r="1.6666666666666667" />
<circle cx="842.03" cy="457.64" r="1.6666666666666667" />
<circle cx="842.32" cy="457.68" r="1.6666666666666667" />
<circle cx="842.60" cy="457.22" r="1.6666666666666667" />
<circle cx="842.90" cy="458.30" r="1.6666666666666667" />
<circle cx="843.19" cy="457.77" r="1.6666666666666667" />
<circle cx="843.48" cy="458.13" r="1.6666666666666667" />
<circle cx="843.78" cy="458.87" r="1.6666666666666667" />
<circle cx="844.07" cy="457.50" r="1.6666666666666667" />
<circle cx="844.36" cy="457.96" r="1.6666666666666667" />
<circle cx="844.66" cy="458.67" r="1.6666666666666667" />
<circle cx="844.95" cy="457.77" r="1.6666666666666667" />
<circle cx="845.24" cy="458.34" r="1.6666666666666667" />
<circle cx="845.54" cy="458.33" r="1.6666666666666667" />
<circle cx="845.83" cy="458.39" r="1.6666666666666667" />
<circle cx="846.14" cy="459.45" r="1.6666666666666667" />
<circle cx="846.43" cy="458.12" r="1.6666666666666667" />
<circle cx="846.73" cy="457.97" r="1.6666666666666667" />
<circle cx="847.03" cy="458.84" r="1.6666666666666667" />
<circle cx="847.32" cy="458.38" r="1.6666666666666667" />
<circle cx="847.61" cy="457.85" r="1.6666666666666667" />
<circle cx="847.91" cy="458.49" r="1.6666666666666667" />
<circle cx="848.21" cy="458.67" r="1.6666666666666667" />
<circle cx="848.49" cy="457.34" r="1.6666666666666667" />
<circle cx="848.80" cy="459.01" r="1.6666666666666667" />
<circle cx="849.09" cy="458.28" r="1.6666666666666667" />
<circle cx="849.39" cy="459.16" r="1.6666666666666667" />
<circle cx="849.69" cy="458.87" r="1.6666666666666667" />
<circle cx="850.00" cy="459.35" r="1.6666666666666667" />
</g>
<g stroke="black">
<line x1="813.75" x2="813.75" y1="510.00" y2="520.00" />
<line x1="760.60" x2="760.60" y1="510.00" y2="520.00" />
<line x1="707.45" x2="707.45" y1="510.00" y2="520.00" />
<line x1="656.01" x2="656.01" y1="510.00" y2="520.00" />
<line x1="602.86" x2="602.86" y1="510.00" y2="520.00" />
<line x1="551.42" x2="551.42" y1="510.00" y2="520.00" />
<line x1="498.27" x2="498.27" y1="510.00" y2="520.00" />
<line x1="445.11" x2="445.11" y1="510.00" y2="520.00" />
<line x1="393.68" x2="393.68" y1="510.00" y2="520.00" />
<line x1="340.52" x2="340.52" y1="510.00" y2="520.00" />
<line x1="289.09" x2="289.09" y1="510.00" y2="520.00" />
<line x1="235.93" x2="235.93" y1="510.00" y2="520.00" />
<line x1="187.92" x2="187.92" y1="510.00" y2="520.00" />
<g fill="black" font-family="Arial, sans-serif" font-size="18.0" stroke="none" text-anchor="start" transform="translate(9.0 0.0)">
<text x="813.75" y="530.57">Feb</text>
<text x="760.60" y="530.57">Jan</text>
<text x="707.45" y="530.57">Dec</text>
<text x="656.01" y="530.57">Nov</text>
<text x="602.86" y="530.57">Oct</text>
<text x="551.42" y="530.57">Sep</text>
<text x="498.27" y="530.57">Aug</text>
<text x="445.11" y="530.57">Jul</text>
<text x="393.68" y="530.57">Jun</text>
<text x="340.52" y="530.57">May</text>
<text x="289.09" y="530.57">Apr</text>
<text x="235.93" y="530.57">Mar</text>
<text x="187.92" y="530.57">Feb</text>
</g>
<line x1="150.00" x2="850.00" y1="510.00" y2="510.00" />
</g>
<g stroke="black">
<line x1="150.00" x2="140.00" y1="510.00" y2="510.00" />
<line x1="150.00" x2="140.00" y1="216.29" y2="216.29" />
<g fill="black" font-family="Arial, sans-serif" font-size="18.0" stroke="none" text-anchor="end">
<text x="141.00" y="501.00">0</text>
<text x="141.00" y="207.29">10</text>
</g>
<line x1="150.00" x2="150.00" y1="510.00" y2="90.00" />
</g>
</g>
</svg>