<?xml version="1.0"?>
<svg version="1.1" viewBox="0 0 1000 600" xmlns:xlink="http://www.w3.org/1999/xlink" xmlns="http://www.w3.org/2000/svg">
<g>
<g stroke-dasharray="3.6 7.2" stroke-width="0.72" stroke="#caa">
<line x1="252.75" x2="252.75" y1="510.00" y2="90.00" />
<line x1="421.14" x2="421.14" y1="510.00" y2="90.00" />
<line x1="589.53" x2="589.53" y1="510.00" y2="90.00" />
<line x1="757.92" x2="757.92" y1="510.00" y2="90.00" />
<line x1="150.00" x2="850.00" y1="483.82" y2="483.82" />
<line x1="150.00" x2="850.00" y1="393.87" y2="393.87" />
<line x1="150.00" x2="850.00" y1="303.92" y2="303.92" />
<line x1="150.00" x2="850.00" y1="213.97" y2="213.97" />
<line x1="150.00" x2="850.00" y1="124.02" y2="124.02" />
</g>
<g>
<text dominant-baseline="hanging" dx="-36.0" dy="18.0" fill="#0004" font-family="Arial, sans-serif" font-size="36" stroke="none" text-anchor="end" x="850.00" y="125.00">R08</text>
</g>
<g>
<text dominant-baseline="text-bottom" dy="-12.0" fill="black" font-family="Arial, sans-serif" font-size="18.0" font-style="italic" stroke="none" text-anchor="middle" x="500.00" y="90.00">Days since start</text>
</g>
<g>
<text dominant-baseline="central" dx="12.0" dy="12.0" fill="black" font-family="Arial, sans-serif" font-size="18.0" font-style="italic" stroke="none" text-anchor="middle" text-orientation="sideways" writing-mode="vertical-lr" x="850.00" y="300.00">Drips per day</text>
</g>
<polyline fill="none" points="150.00,412.62 154.40,456.13 157.93,383.21 161.92,425.30 165.57,395.78 170.23,472.99 173.93,399.81 178.42,462.32 182.03,390.66 186.60,467.27 190.31,401.01 194.49,440.93 198.48,425.53 202.30,410.81 206.08,407.70 210.57,462.01 213.74,340.44 217.73,426.13 221.45,401.90 225.61,439.36 229.18,386.20 232.83,395.10 236.47,394.62 240.85,454.57 244.37,382.78 248.32,421.95 251.60,354.16 255.61,427.98 259.20,388.74 263.27,432.42 267.00,403.00 271.38,454.68 274.84,375.73 279.02,440.58 283.27,445.51 287.25,424.97 291.39,437.57 295.58,440.99 299.37,408.91 303.65,447.52 307.41,406.04 311.73,450.80 315.22,378.70 319.50,447.45 323.11,391.38 326.94,412.35 330.40,375.49 334.70,449.19 337.77,326.64 341.93,439.40 345.19,352.00 349.52,451.56 353.15,393.02 357.84,475.00 361.38,383.07 365.25,415.67 368.54,356.23 372.57,429.22 375.93,363.41 380.24,450.16 383.66,371.40 627.24,148.31 629.38,142.36 631.55,150.28 633.70,144.75 635.95,171.70 638.03,125.00 640.17,142.21 642.41,168.55 644.57,148.22 646.77,158.87 648.96,156.59 651.26,185.94 653.38,134.76 655.56,154.52 657.81,170.43 659.97,149.91 662.20,165.85 664.38,153.87 666.57,155.72 668.75,151.97 670.88,139.17 673.10,166.02 675.26,148.50 677.54,179.27 679.83,181.22 682.11,181.01 684.38,176.24 686.65,178.17 688.96,186.81 691.24,179.87 693.48,167.35 695.77,183.86 698.04,177.31 700.32,179.70 702.62,183.78 704.90,180.16 707.21,187.84 709.53,187.39 711.77,169.91 714.02,174.00 716.39,201.28 718.68,182.27 721.05,201.59 723.36,186.77 725.63,177.18 727.85,163.39 730.16,186.90 732.46,184.90 734.75,181.22 737.10,197.08 739.42,191.37 741.69,175.77 743.99,186.07 746.32,191.98 748.64,189.61 751.01,201.59 753.33,189.04 755.65,188.26 758.07,212.70 760.52,221.19 762.91,205.45 765.33,213.71 767.76,214.46 770.16,207.64 772.62,221.04 775.07,221.55 777.47,207.68 779.92,219.76 782.37,218.84 784.82,219.50 787.23,211.11 789.73,230.68 792.19,221.22 794.68,227.67 797.23,240.73 799.67,216.33 802.14,224.70 804.67,237.28 807.13,221.19 809.64,231.42 812.14,231.21 814.65,232.37 817.26,250.85 819.74,227.42 822.22,224.81 824.77,240.22 827.27,232.16 829.74,222.57 832.26,234.07 834.79,237.25 837.21,213.37 839.78,243.19 842.28,230.44 844.85,245.76 847.41,240.79 850.00,249.09" stroke-dasharray="3.6 3.6" stroke-width="3.6" stroke="#aaa" />
<g>
<circle cx="150.00" cy="412.62" r="1.6666666666666667" />
<circle cx="154.40" cy="456.13" r="1.6666666666666667" />
<circle cx="157.93" cy="383.21" r="1.6666666666666667" />
<circle cx="161.92" cy="425.30" r="1.6666666666666667" />
<circle cx="165.57" cy="395.78" r="1.6666666666666667" />
<circle cx="170.23" cy="472.99" r="1.6666666666666667" />
<circle cx="173.93" cy="399.81" r="1.6666666666666667" />
<circle cx="178.42" cy="462.32" r="1.6666666666666667" />
<circle cx="182.03" cy="390.66" r="1.6666666666666667" />
<circle cx="186.60" cy="467.27" r="1.6666666666666667" />
<circle cx="190.31" cy="401.01" r="1.6666666666666667" />
<circle cx="194.49" cy="440.93" r="1.6666666666666667" />
<circle cx="198.48" cy="425.53" r="1.6666666666666667" />
<circle cx="202.30" cy="410.81" r="1.6666666666666667" />
<circle cx="206.08" cy="407.70" r="1.6666666666666667" />
<circle cx="210.57" cy="462.01" r="1.6666666666666667" />
<circle cx="213.74" cy="340.44" r="1.6666666666666667" />
<circle cx="217.73" cy="426.13" r="1.6666666666666667" />
<circle cx="221.45" cy="401.90" r="1.6666666666666667" />
<circle cx="225.61" cy="439.36" r="1.6666666666666667" />
<circle cx="229.18" cy="386.20" r="1.6666666666666667" />
<circle cx="232.83" cy="395.10" r="1.6666666666666667" />
<circle cx="236.47" cy="394.62" r="1.6666666666666667" />
<circle cx="240.85" cy="454.57" r="1.6666666666666667" />
<circle cx="244.37" cy="382.78" r="1.6666666666666667" />
<circle cx="248.32" cy="421.95" r="1.6666666666666667" />
<circle cx="251.60" cy="354.16" r="1.6666666666666667" />
<circle cx="255.61" cy="427.98" r="1.6666666666666667" />
<circle cx="259.20" cy="388.74" r="1.6666666666666667" />
<circle cx="263.27" cy="432.42" r="1.6666666666666667" />
<circle cx="267.00" cy="403.00" r="1.6666666666666667" />
<circle cx="271.38" cy="454.68" r="1.6666666666666667" />
<circle cx="274.84" cy="375.73" r="1.6666666666666667" />
<circle cx="279.02" cy="440.58" r="1.6666666666666667" />
<circle cx="283.27" cy="445.51" r="1.6666666666666667" />
<circle cx="287.25" cy="424.97" r="1.6666666666666667" />
<circle cx="291.39" cy="437.57" r="1.6666666666666667" />
<circle cx="295.58" cy="440.99" r="1.6666666666666667" />
<circle cx="299.37" cy="408.91" r="1.6666666666666667" />
<circle cx="303.65" cy="447.52" r="1.6666666666666667" />
<circle cx="307.41" cy="406.04" r="1.6666666666666667" />
<circle cx="311.73" cy="450.80" r="1.6666666666666667" />
<circle cx="315.22" cy="378.70" r="1.6666666666666667" />
<circle cx="319.50" cy="447.45" r="1.6666666666666667" />
<circle cx="323.11" cy="391.38" r="1.6666666666666667" />
<circle cx="326.94" cy="412.35" r="1.6666666666666667" />
<circle cx="330.40" cy="375.49" r="1.6666666666666667" />
<circle cx="334.70" cy="449.19" r="1.6666666666666667" />
<circle cx="337.77" cy="326.64" r="1.6666666666666667" />
<circle cx="341.93" cy="439.40" r="1.6666666666666667" />
<circle cx="345.19" cy="352.00" r="1.6666666666666667" />
<circle cx="349.52" cy="451.56" r="1.6666666666666667" />
<circle cx="353.15" cy="393.02" r="1.6666666666666667" />
<circle cx="357.84" cy="475.00" r="1.6666666666666667" />
<circle cx="361.38" cy="383.07" r="1.6666666666666667" />
<circle cx="365.25" cy="415.67" r="1.6666666666666667" />
<circle cx="368.54" cy="356.23" r="1.6666666666666667" />
<circle cx="372.57" cy="429.22" r="1.6666666666666667" />
<circle cx="375.93" cy="363.41" r="1.6666666666666667" />
<circle cx="380.24" cy="450.16" r="1.6666666666666667" />
<circle cx="383.66" cy="371.40" r="1.6666666666666667" />
<circle cx="627.24" cy="148.31" r="1.6666666666666667" />
<circle cx="629.38" cy="142.36" r="1.6666666666666667" />
<circle cx="631.55" cy="150.28" r="1.6666666666666667" />
<circle cx="633.70" cy="144.75" r="1.6666666666666667" />
<circle cx="635.95" cy="171.70" r="1.6666666666666667" />
<circle cx="638.03" cy="125.00" r="1.6666666666666667" />
<circle cx="640.17" cy="142.21" r="1.6666666666666667" />
<circle cx="642.41" cy="168.55" r="1.6666666666666667" />
<circle cx="644.57" cy="148.22" r="1.6666666666666667" />
<circle cx="646.77" cy="158.87" r="1.6666666666666667" />
<circle cx="648.96" cy="156.59" r="1.6666666666666667" />
<circle cx="651.26" cy="185.94" r="1.6666666666666667" />
<circle cx="653.38" cy="134.76" r="1.6666666666666667" />
<circle cx="655.56" cy="154.52" r="1.6666666666666667" />
<circle cx="657.81" cy="170.43" r="1.6666666666666667" />
<circle cx="659.97" cy="149.91" r="1.6666666666666667" />
<circle cx="662.20" cy="165.85" r="1.6666666666666667" />
<circle cx="664.38" cy="153.87" r="1.6666666666666667" />
<circle cx="666.57" cy="155.72" r="1.6666666666666667" />
<circle cx="668.75" cy="151.97" r="1.6666666666666667" />
<circle cx="670.88" cy="139.17" r="1.6666666666666667" />
<circle cx="673.10" cy="166.02" r="1.6666666666666667" />
<circle cx="675.26" cy="148.50" r="1.6666666666666667" />
<circle cx="677.54" cy="179.27" r="1.6666666666666667" />
<circle cx="679.83" cy="181.22" r="1.6666666666666667" />
<circle cx="682.11" cy="181.01" r="1.6666666666666667" />
<circle cx="684.38" cy="176.24" r="1.6666666666666667" />
<circle cx="686.65" cy="178.17" r="1.6666666666666667" />
<circle cx="688.96" cy="186.81" r="1.6666666666666667" />
<circle cx="691.24" cy="179.87" r="1.6666666666666667" />
<circle cx="693.48" cy="167.35" r="1.6666666666666667" />
<circle cx="695.77" cy="183.86" r="1.6666666666666667" />
<circle cx="698.04" cy="177.31" r="1.6666666666666667" />
<circle cx="700.32" cy="179.70" r="1.6666666666666667" />
<circle cx="702.62" cy="183.78" r="1.6666666666666667" />
<circle cx="704.90" cy="180.16" r="1.6666666666666667" />
<circle cx="707.21" cy="187.84" r="1.6666666666666667" />
<circle cx="709.53" cy="187.39" r="1.6666666666666667" />
<circle cx="711.77" cy="169.91" r="1.6666666666666667" />
<circle cx="714.02" cy="174.00" r="1.6666666666666667" />
<circle cx="716.39" cy="201.28" r="1.6666666666666667" />
<circle cx="718.68" cy="182.27" r="1.6666666666666667" />
<circle cx="721.05" cy="201.59" r="1.6666666666666667" />
<circle cx="723.36" cy="186.77" r="1.6666666666666667" />
<circle cx="725.63" cy="177.18" r="1.6666666666666667" />
<circle cx="727.85" cy="163.39" r="1.6666666666666667" />
<circle cx="730.16" cy="186.90" r="1.6666666666666667" />
<circle cx="732.46" cy="184.90" r="1.6666666666666667" />
<circle cx="734.75" cy="181.22" r="1.6666666666666667" />
<circle cx="737.10" cy="197.08" r="1.6666666666666667" />
<circle cx="739.42" cy="191.37" r="1.6666666666666667" />
<circle cx="741.69" cy="175.77" r="1.6666666666666667" />
<circle cx="743.99" cy="186.07" r="1.6666666666666667" />
<circle cx="746.32" cy="191.98" r="1.6666666666666667" />
<circle cx="748.64" cy="189.61" r="1.6666666666666667" />
<circle cx="751.01" cy="201.59" r="1.6666666666666667" />
<circle cx="753.33" cy="189.04" r="1.6666666666666667" />
<circle cx="755.65" cy="188.26" r="1.6666666666666667" />
<circle cx="758.07" cy="212.70" r="1.6666666666666667" />
<circle cx="760.52" cy="221.19" r="1.6666666666666667" />
<circle cx="762.91" cy="205.45" r="1.6666666666666667" />
<circle cx="765.33" cy="213.71" r="1.6666666666666667" />
<circle cx="767.76" cy="214.46" r="1.6666666666666667" />
<circle cx="770.16" cy="207.64" r="1.6666666666666667" />
<circle cx="772.62" cy="221.04" r="1.6666666666666667" />
<circle cx="775.07" cy="221.55" r="1.6666666666666667" />
<circle cx="777.47" cy="207.68" r="1.6666666666666667" />
<circle cx="779.92" cy="219.76" r="1.6666666666666667" />
<circle cx="782.37" cy="218.84" r="1.6666666666666667" />
<circle cx="784.82" cy="219.50" r="1.6666666666666667" />
<circle cx="787.23" cy="211.11" r="1.6666666666666667" />
<circle cx="789.73" cy="230.68" r="1.6666666666666667" />
<circle cx="792.19" cy="221.22" r="1.6666666666666667" />
<circle cx="794.68" cy="227.67" r="1.6666666666666667" />
<circle cx="797.23" cy="240.73" r="1.6666666666666667" />
<circle cx="799.67" cy="216.33" r="1.6666666666666667" />
<circle cx="802.14" cy="224.70" r="1.6666666666666667" />
<circle cx="804.67" cy="237.28" r="1.6666666666666667" />
<circle cx="807.13" cy="221.19" r="1.6666666666666667" />
<circle cx="809.64" cy="231.42" r="1.6666666666666667" />
<circle cx="812.14" cy="231.21" r="1.6666666666666667" />
<circle cx="814.65" cy="232.37" r="1.6666666666666667" />
<circle cx="817.26" cy="250.85" r="1.6666666666666667" />
<circle cx="819.74" cy="227.42" r="1.6666666666666667" />
<circle cx="822.22" cy="224.81" r="1.6666666666666667" />
<circle cx="824.77" cy="240.22" r="1.6666666666666667" />
<circle cx="827.27" cy="232.16" r="1.6666666666666667" />
<circle cx="829.74" cy="222.57" r="1.6666666666666667" />
<circle cx="832.26" cy="234.07" r="1.6666666666666667" />
<circle cx="834.79" cy="237.25" r="1.6666666666666667" />
<circle cx="837.21" cy="213.37" r="1.6666666666666667" />
<circle cx="839.78" cy="243.19" r="1.6666666666666667" />
<circle cx="842.28" cy="230.44" r="1.6666666666666667" />
<circle cx="844.85" cy="245.76" r="1.6666666666666667" />
<circle cx="847.41" cy="240.79" r="1.6666666666666667" />
<circle cx="850.00" cy="249.09" r="1.6666666666666667" />
</g>
<g stroke="black">
<line x1="252.75" x2="252.75" y1="510.00" y2="520.00" />
<line x1="421.14" x2="421.14" y1="510.00" y2="520.00" />
<line x1="589.53" x2="589.53" y1="510.00" y2="520.00" />
<line x1="757.92" x2="757.92" y1="510.00" y2="520.00" />
<g fill="black" font-family="Arial, sans-serif" font-size="18.0" stroke="none" text-anchor="start" transform="translate(9.0 0.0)">
<text x="252.75" y="530.57">11Jan'24</text>
<text x="421.14" y="530.57">23Jan'24</text>
<text x="589.53" y="530.57">3Feb'24</text>
<text x="757.92" y="530.57">15Feb'24</text>
</g>
<line x1="150.00" x2="850.00" y1="510.00" y2="510.00" />
</g>
<g stroke="black">
<line x1="150.00" x2="140.00" y1="483.82" y2="483.82" />
<line x1="150.00" x2="140.00" y1="393.87" y2="393.87" />
<line x1="150.00" x2="140.00" y1="303.92" y2="303.92" />
<line x1="150.00" x2="140.00" y1="213.97" y2="213.97" />
<line x1="150.00" x2="140.00" y1="124.02" y2="124.02" />
<g fill="black" font-family="Arial, sans-serif" font-size="18.0" stroke="none" text-anchor="end">
<text x="141.00" y="474.82">3</text>
<text x="141.00" y="384.87">4</text>
<text x="141.00" y="294.92">5</text>
<text x="141.00" y="204.97">6</text>
<text x="141.00" y="115.02">7</text>
</g>
<line x1="150.00" x2="150.00" y1="510.00" y2="90.00" />
</g>
</g>
</svg>