<?xml version="1.0"?>
<svg version="1.1" viewBox="0 0 1000 600" xmlns:xlink="http://www.w3.org/1999/xlink" xmlns="http://www.w3.org/2000/svg">
<g>
<g stroke-dasharray="3.6 7.2" stroke-width="0.72" stroke="#caa">
<line x1="828.41" x2="828.41" y1="510.00" y2="90.00" />
<line x1="785.75" x2="785.75" y1="510.00" y2="90.00" />
<line x1="741.68" x2="741.68" y1="510.00" y2="90.00" />
<line x1="700.44" x2="700.44" y1="510.00" y2="90.00" />
<line x1="656.36" x2="656.36" y1="510.00" y2="90.00" />
<line x1="612.28" x2="612.28" y1="510.00" y2="90.00" />
<line x1="569.63" x2="569.63" y1="510.00" y2="90.00" />
<line x1="525.55" x2="525.55" y1="510.00" y2="90.00" />
<line x1="482.89" x2="482.89" y1="510.00" y2="90.00" />
<line x1="438.81" x2="438.81" y1="510.00" y2="90.00" />
<line x1="394.73" x2="394.73" y1="510.00" y2="90.00" />
<line x1="352.08" x2="352.08" y1="510.00" y2="90.00" />
<line x1="308.00" x2="308.00" y1="510.00" y2="90.00" />
<line x1="265.34" x2="265.34" y1="510.00" y2="90.00" />
<line x1="221.26" x2="221.26" y1="510.00" y2="90.00" />
<line x1="181.45" x2="181.45" y1="510.00" y2="90.00" />
<line x1="150.00" x2="850.00" y1="510.00" y2="510.00" />
<line x1="150.00" x2="850.00" y1="216.29" y2="216.29" />
</g>
<g>
<text dominant-baseline="hanging" dx="-36.0" dy="18.0" fill="#0004" font-family="Arial, sans-serif" font-size="36" stroke="none" text-anchor="end" x="850.00" y="128.18">R08</text>
</g>
<g>
<text dominant-baseline="text-bottom" dy="-12.0" fill="black" font-family="Arial, sans-serif" font-size="18.0" font-style="italic" stroke="none" text-anchor="middle" x="500.00" y="90.00">Years 2023 to 2024</text>
</g>
<g>
<text dominant-baseline="hanging" dx="18.0" dy="18.0" fill="black" font-family="Arial, sans-serif" font-size="18.0" font-style="italic" stroke="none" text-anchor="beginning" text-orientation="sideways" x="150.00" y="90.00">log(Drips per day)</text>
</g>
<polyline fill="none" points="662.09,470.85 662.52,474.86 662.86,468.43 663.25,471.97 663.61,469.44 664.06,476.58 664.43,469.77 664.86,475.48 665.22,469.02 665.66,475.98 666.03,469.87 666.43,473.40 666.82,471.99 667.20,470.70 667.57,470.43 668.01,475.45 668.32,465.22 668.71,472.04 669.07,469.95 669.48,473.25 669.82,468.66 670.18,469.38 670.54,469.34 670.97,474.71 671.31,468.39 671.70,471.67 672.02,466.21 672.41,472.21 672.76,468.87 673.16,472.61 673.52,470.04 673.95,474.72 674.29,467.84 674.70,473.37 675.11,473.83 675.50,471.94 675.91,473.09 676.31,473.41 676.69,470.54 677.10,474.03 677.47,470.29 677.89,474.34 678.23,468.07 678.65,474.02 679.00,469.08 679.38,470.83 679.72,467.82 680.14,474.19 680.44,464.25 680.84,473.26 681.16,466.05 681.59,474.42 681.94,469.21 682.40,476.79 682.74,468.41 683.12,471.12 683.44,466.36 683.84,472.32 684.17,466.90 684.59,474.28 684.92,467.50 708.73,454.00 708.94,453.72 709.15,454.10 709.36,453.83 709.58,455.16 709.78,452.89 709.99,453.71 710.21,455.00 710.42,454.00 710.64,454.52 710.85,454.41 711.08,455.89 711.28,453.35 711.50,454.31 711.72,455.10 711.93,454.08 712.14,454.87 712.36,454.27 712.57,454.36 712.78,454.18 712.99,453.56 713.21,454.87 713.42,454.01 713.64,455.54 713.87,455.64 714.09,455.63 714.31,455.39 714.53,455.49 714.76,455.93 714.98,455.57 715.20,454.94 715.43,455.78 715.65,455.44 715.87,455.57 716.10,455.78 716.32,455.59 716.54,455.99 716.77,455.96 716.99,455.07 717.21,455.28 717.44,456.69 717.67,455.70 717.90,456.71 718.12,455.93 718.34,455.44 718.56,454.74 718.79,455.94 719.01,455.83 719.23,455.64 719.46,456.47 719.69,456.17 719.91,455.37 720.14,455.89 720.37,456.20 720.59,456.08 720.82,456.71 721.05,456.05 721.28,456.01 721.51,457.31 721.75,457.77 721.99,456.91 722.22,457.36 722.46,457.40 722.70,457.03 722.94,457.76 723.18,457.79 723.41,457.03 723.65,457.69 723.89,457.64 724.13,457.68 724.36,457.22 724.61,458.30 724.85,457.77 725.09,458.13 725.34,458.87 725.58,457.50 725.82,457.96 726.07,458.67 726.31,457.77 726.55,458.34 726.80,458.33 727.04,458.39 727.30,459.45 727.54,458.12 727.78,457.97 728.03,458.84 728.28,458.38 728.52,457.85 728.77,458.49 729.01,458.67 729.25,457.34 729.50,459.01 729.74,458.28 730.00,459.16 730.25,458.87 730.50,459.35" stroke-dasharray="3.6 3.6" stroke-width="3.6" stroke="#aaa" />
<g>
<circle cx="662.09" cy="470.85" r="1.6666666666666667" />
<circle cx="662.52" cy="474.86" r="1.6666666666666667" />
<circle cx="662.86" cy="468.43" r="1.6666666666666667" />
<circle cx="663.25" cy="471.97" r="1.6666666666666667" />
<circle cx="663.61" cy="469.44" r="1.6666666666666667" />
<circle cx="664.06" cy="476.58" r="1.6666666666666667" />
<circle cx="664.43" cy="469.77" r="1.6666666666666667" />
<circle cx="664.86" cy="475.48" r="1.6666666666666667" />
<circle cx="665.22" cy="469.02" r="1.6666666666666667" />
<circle cx="665.66" cy="475.98" r="1.6666666666666667" />
<circle cx="666.03" cy="469.87" r="1.6666666666666667" />
<circle cx="666.43" cy="473.40" r="1.6666666666666667" />
<circle cx="666.82" cy="471.99" r="1.6666666666666667" />
<circle cx="667.20" cy="470.70" r="1.6666666666666667" />
<circle cx="667.57" cy="470.43" r="1.6666666666666667" />
<circle cx="668.01" cy="475.45" r="1.6666666666666667" />
<circle cx="668.32" cy="465.22" r="1.6666666666666667" />
<circle cx="668.71" cy="472.04" r="1.6666666666666667" />
<circle cx="669.07" cy="469.95" r="1.6666666666666667" />
<circle cx="669.48" cy="473.25" r="1.6666666666666667" />
<circle cx="669.82" cy="468.66" r="1.6666666666666667" />
<circle cx="670.18" cy="469.38" r="1.6666666666666667" />
<circle cx="670.54" cy="469.34" r="1.6666666666666667" />
<circle cx="670.97" cy="474.71" r="1.6666666666666667" />
<circle cx="671.31" cy="468.39" r="1.6666666666666667" />
<circle cx="671.70" cy="471.67" r="1.6666666666666667" />
<circle cx="672.02" cy="466.21" r="1.6666666666666667" />
<circle cx="672.41" cy="472.21" r="1.6666666666666667" />
<circle cx="672.76" cy="468.87" r="1.6666666666666667" />
<circle cx="673.16" cy="472.61" r="1.6666666666666667" />
<circle cx="673.52" cy="470.04" r="1.6666666666666667" />
<circle cx="673.95" cy="474.72" r="1.6666666666666667" />
<circle cx="674.29" cy="467.84" r="1.6666666666666667" />
<circle cx="674.70" cy="473.37" r="1.6666666666666667" />
<circle cx="675.11" cy="473.83" r="1.6666666666666667" />
<circle cx="675.50" cy="471.94" r="1.6666666666666667" />
<circle cx="675.91" cy="473.09" r="1.6666666666666667" />
<circle cx="676.31" cy="473.41" r="1.6666666666666667" />
<circle cx="676.69" cy="470.54" r="1.6666666666666667" />
<circle cx="677.10" cy="474.03" r="1.6666666666666667" />
<circle cx="677.47" cy="470.29" r="1.6666666666666667" />
<circle cx="677.89" cy="474.34" r="1.6666666666666667" />
<circle cx="678.23" cy="468.07" r="1.6666666666666667" />
<circle cx="678.65" cy="474.02" r="1.6666666666666667" />
<circle cx="679.00" cy="469.08" r="1.6666666666666667" />
<circle cx="679.38" cy="470.83" r="1.6666666666666667" />
<circle cx="679.72" cy="467.82" r="1.6666666666666667" />
<circle cx="680.14" cy="474.19" r="1.6666666666666667" />
<circle cx="680.44" cy="464.25" r="1.6666666666666667" />
<circle cx="680.84" cy="473.26" r="1.6666666666666667" />
<circle cx="681.16" cy="466.05" r="1.6666666666666667" />
<circle cx="681.59" cy="474.42" r="1.6666666666666667" />
<circle cx="681.94" cy="469.21" r="1.6666666666666667" />
<circle cx="682.40" cy="476.79" r="1.6666666666666667" />
<circle cx="682.74" cy="468.41" r="1.6666666666666667" />
<circle cx="683.12" cy="471.12" r="1.6666666666666667" />
<circle cx="683.44" cy="466.36" r="1.6666666666666667" />
<circle cx="683.84" cy="472.32" r="1.6666666666666667" />
<circle cx="684.17" cy="466.90" r="1.6666666666666667" />
<circle cx="684.59" cy="474.28" r="1.6666666666666667" />
<circle cx="684.92" cy="467.50" r="1.6666666666666667" />
<circle cx="708.73" cy="454.00" r="1.6666666666666667" />
<circle cx="708.94" cy="453.72" r="1.6666666666666667" />
<circle cx="709.15" cy="454.10" r="1.6666666666666667" />
<circle cx="709.36" cy="453.83" r="1.6666666666666667" />
<circle cx="709.58" cy="455.16" r="1.6666666666666667" />
<circle cx="709.78" cy="452.89" r="1.6666666666666667" />
<circle cx="709.99" cy="453.71" r="1.6666666666666667" />
<circle cx="710.21" cy="455.00" r="1.6666666666666667" />
<circle cx="710.42" cy="454.00" r="1.6666666666666667" />
<circle cx="710.64" cy="454.52" r="1.6666666666666667" />
<circle cx="710.85" cy="454.41" r="1.6666666666666667" />
<circle cx="711.08" cy="455.89" r="1.6666666666666667" />
<circle cx="711.28" cy="453.35" r="1.6666666666666667" />
<circle cx="711.50" cy="454.31" r="1.6666666666666667" />
<circle cx="711.72" cy="455.10" r="1.6666666666666667" />
<circle cx="711.93" cy="454.08" r="1.6666666666666667" />
<circle cx="712.14" cy="454.87" r="1.6666666666666667" />
<circle cx="712.36" cy="454.27" r="1.6666666666666667" />
<circle cx="712.57" cy="454.36" r="1.6666666666666667" />
<circle cx="712.78" cy="454.18" r="1.6666666666666667" />
<circle cx="712.99" cy="453.56" r="1.6666666666666667" />
<circle cx="713.21" cy="454.87" r="1.6666666666666667" />
<circle cx="713.42" cy="454.01" r="1.6666666666666667" />
<circle cx="713.64" cy="455.54" r="1.6666666666666667" />
<circle cx="713.87" cy="455.64" r="1.6666666666666667" />
<circle cx="714.09" cy="455.63" r="1.6666666666666667" />
<circle cx="714.31" cy="455.39" r="1.6666666666666667" />
<circle cx="714.53" cy="455.49" r="1.6666666666666667" />
<circle cx="714.76" cy="455.93" r="1.6666666666666667" />
<circle cx="714.98" cy="455.57" r="1.6666666666666667" />
<circle cx="715.20" cy="454.94" r="1.6666666666666667" />
<circle cx="715.43" cy="455.78" r="1.6666666666666667" />
<circle cx="715.65" cy="455.44" r="1.6666666666666667" />
<circle cx="715.87" cy="455.57" r="1.6666666666666667" />
<circle cx="716.10" cy="455.78" r="1.6666666666666667" />
<circle cx="716.32" cy="455.59" r="1.6666666666666667" />
<circle cx="716.54" cy="455.99" r="1.6666666666666667" />
<circle cx="716.77" cy="455.96" r="1.6666666666666667" />
<circle cx="716.99" cy="455.07" r="1.6666666666666667" />
<circle cx="717.21" cy="455.28" r="1.6666666666666667" />
<circle cx="717.44" cy="456.69" r="1.6666666666666667" />
<circle cx="717.67" cy="455.70" r="1.6666666666666667" />
<circle cx="717.90" cy="456.71" r="1.6666666666666667" />
<circle cx="718.12" cy="455.93" r="1.6666666666666667" />
<circle cx="718.34" cy="455.44" r="1.6666666666666667" />
<circle cx="718.56" cy="454.74" r="1.6666666666666667" />
<circle cx="718.79" cy="455.94" r="1.6666666666666667" />
<circle cx="719.01" cy="455.83" r="1.6666666666666667" />
<circle cx="719.23" cy="455.64" r="1.6666666666666667" />
<circle cx="719.46" cy="456.47" r="1.6666666666666667" />
<circle cx="719.69" cy="456.17" r="1.6666666666666667" />
<circle cx="719.91" cy="455.37" r="1.6666666666666667" />
<circle cx="720.14" cy="455.89" r="1.6666666666666667" />
<circle cx="720.37" cy="456.20" r="1.6666666666666667" />
<circle cx="720.59" cy="456.08" r="1.6666666666666667" />
<circle cx="720.82" cy="456.71" r="1.6666666666666667" />
<circle cx="721.05" cy="456.05" r="1.6666666666666667" />
<circle cx="721.28" cy="456.01" r="1.6666666666666667" />
<circle cx="721.51" cy="457.31" r="1.6666666666666667" />
<circle cx="721.75" cy="457.77" r="1.6666666666666667" />
<circle cx="721.99" cy="456.91" r="1.6666666666666667" />
<circle cx="722.22" cy="457.36" r="1.6666666666666667" />
<circle cx="722.46" cy="457.40" r="1.6666666666666667" />
<circle cx="722.70" cy="457.03" r="1.6666666666666667" />
<circle cx="722.94" cy="457.76" r="1.6666666666666667" />
<circle cx="723.18" cy="457.79" r="1.6666666666666667" />
<circle cx="723.41" cy="457.03" r="1.6666666666666667" />
<circle cx="723.65" cy="457.69" r="1.6666666666666667" />
<circle cx="723.89" cy="457.64" r="1.6666666666666667" />
<circle cx="724.13" cy="457.68" r="1.6666666666666667" />
<circle cx="724.36" cy="457.22" r="1.6666666666666667" />
<circle cx="724.61" cy="458.30" r="1.6666666666666667" />
<circle cx="724.85" cy="457.77" r="1.6666666666666667" />
<circle cx="725.09" cy="458.13" r="1.6666666666666667" />
<circle cx="725.34" cy="458.87" r="1.6666666666666667" />
<circle cx="725.58" cy="457.50" r="1.6666666666666667" />
<circle cx="725.82" cy="457.96" r="1.6666666666666667" />
<circle cx="726.07" cy="458.67" r="1.6666666666666667" />
<circle cx="726.31" cy="457.77" r="1.6666666666666667" />
<circle cx="726.55" cy="458.34" r="1.6666666666666667" />
<circle cx="726.80" cy="458.33" r="1.6666666666666667" />
<circle cx="727.04" cy="458.39" r="1.6666666666666667" />
<circle cx="727.30" cy="459.45" r="1.6666666666666667" />
<circle cx="727.54" cy="458.12" r="1.6666666666666667" />
<circle cx="727.78" cy="457.97" r="1.6666666666666667" />
<circle cx="728.03" cy="458.84" r="1.6666666666666667" />
<circle cx="728.28" cy="458.38" r="1.6666666666666667" />
<circle cx="728.52" cy="457.85" r="1.6666666666666667" />
<circle cx="728.77" cy="458.49" r="1.6666666666666667" />
<circle cx="729.01" cy="458.67" r="1.6666666666666667" />
<circle cx="729.25" cy="457.34" r="1.6666666666666667" />
<circle cx="729.50" cy="459.01" r="1.6666666666666667" />
<circle cx="729.74" cy="458.28" r="1.6666666666666667" />
<circle cx="730.00" cy="459.16" r="1.6666666666666667" />
<circle cx="730.25" cy="458.87" r="1.6666666666666667" />
<circle cx="730.50" cy="459.35" r="1.6666666666666667" />
</g>
<g stroke="black">
<line x1="828.41" x2="828.41" y1="510.00" y2="520.00" />
<line x1="785.75" x2="785.75" y1="510.00" y2="520.00" />
<line x1="741.68" x2="741.68" y1="510.00" y2="520.00" />
<line x1="700.44" x2="700.44" y1="510.00" y2="520.00" />
<line x1="656.36" x2="656.36" y1="510.00" y2="520.00" />
<line x1="612.28" x2="612.28" y1="510.00" y2="520.00" />
<line x1="569.63" x2="569.63" y1="510.00" y2="520.00" />
<line x1="525.55" x2="525.55" y1="510.00" y2="520.00" />
<line x1="482.89" x2="482.89" y1="510.00" y2="520.00" />
<line x1="438.81" x2="438.81" y1="510.00" y2="520.00" />
<line x1="394.73" x2="394.73" y1="510.00" y2="520.00" />
<line x1="352.08" x2="352.08" y1="510.00" y2="520.00" />
<line x1="308.00" x2="308.00" y1="510.00" y2="520.00" />
<line x1="265.34" x2="265.34" y1="510.00" y2="520.00" />
<line x1="221.26" x2="221.26" y1="510.00" y2="520.00" />
<line x1="181.45" x2="181.45" y1="510.00" y2="520.00" />
<g fill="black" font-family="Arial, sans-serif" font-size="18.0" stroke="none" text-anchor="start" transform="translate(9.0 0.0)">
<text x="828.41" y="530.57">May</text>
<text x="785.75" y="530.57">Apr</text>
<text x="741.68" y="530.57">Mar</text>
<text x="700.44" y="530.57">Feb</text>
<text x="656.36" y="530.57">Jan</text>
<text x="612.28" y="530.57">Dec</text>
<text x="569.63" y="530.57">Nov</text>
<text x="525.55" y="530.57">Oct</text>
<text x="482.89" y="530.57">Sep</text>
<text x="438.81" y="530.57">Aug</text>
<text x="394.73" y="530.57">Jul</text>
<text x="352.08" y="530.57">Jun</text>
<text x="308.00" y="530.57">May</text>
<text x="265.34" y="530.57">Apr</text>
<text x="221.26" y="530.57">Mar</text>
<text x="181.45" y="530.57">Feb</text>
</g>
<line x1="150.00" x2="850.00" y1="510.00" y2="510.00" />
</g>
<g stroke="black">
<line x1="150.00" x2="138.00" y1="510.00" y2="510.00" />
<line x1="150.00" x2="138.00" y1="216.29" y2="216.29" />
<g fill="black" font-family="Arial, sans-serif" font-size="18.0" stroke="none" text-anchor="end">
<text x="141.00" y="501.00">0</text>
<text x="141.00" y="207.29">10</text>
</g>
<line x1="150.00" x2="150.00" y1="510.00" y2="90.00" />
</g>
</g>
</svg>