<?xml version="1.0"?>
<svg version="1.1" viewBox="0 0 1000 600" xmlns:xlink="http://www.w3.org/1999/xlink" xmlns="http://www.w3.org/2000/svg">
<g>
<g stroke-dasharray="3.6 7.2" stroke-width="0.72" stroke="#caa">
<line x1="839.86" x2="839.86" y1="510.00" y2="90.00" />
<line x1="791.78" x2="791.78" y1="510.00" y2="90.00" />
<line x1="740.39" x2="740.39" y1="510.00" y2="90.00" />
<line x1="689.00" x2="689.00" y1="510.00" y2="90.00" />
<line x1="639.26" x2="639.26" y1="510.00" y2="90.00" />
<line x1="587.87" x2="587.87" y1="510.00" y2="90.00" />
<line x1="538.13" x2="538.13" y1="510.00" y2="90.00" />
<line x1="486.74" x2="486.74" y1="510.00" y2="90.00" />
<line x1="435.35" x2="435.35" y1="510.00" y2="90.00" />
<line x1="385.61" x2="385.61" y1="510.00" y2="90.00" />
<line x1="334.22" x2="334.22" y1="510.00" y2="90.00" />
<line x1="284.48" x2="284.48" y1="510.00" y2="90.00" />
<line x1="233.09" x2="233.09" y1="510.00" y2="90.00" />
<line x1="186.67" x2="186.67" y1="510.00" y2="90.00" />
<line x1="150.00" x2="850.00" y1="510.00" y2="510.00" />
<line x1="150.00" x2="850.00" y1="216.29" y2="216.29" />
</g>
<g>
<text dominant-baseline="hanging" dx="-36.0" dy="18.0" fill="#0004" font-family="Arial, sans-serif" font-size="36" stroke="none" text-anchor="end" x="850.00" y="128.18">R08</text>
</g>
<g>
<text dominant-baseline="text-bottom" dy="-12.0" fill="black" font-family="Arial, sans-serif" font-size="18.0" font-style="italic" stroke="none" text-anchor="middle" x="500.00" y="90.00">Years 2023 to 2024</text>
</g>
<g>
<text dominant-baseline="central" dx="12.0" dy="12.0" fill="black" font-family="Arial, sans-serif" font-size="18.0" font-style="italic" stroke="none" text-anchor="middle" text-orientation="sideways" writing-mode="vertical-lr" x="850.00" y="300.00">log(Drips per day)</text>
</g>
<polyline fill="none" points="747.06,470.85 747.56,474.86 747.97,468.43 748.42,471.97 748.84,469.44 749.37,476.58 749.79,469.77 750.30,475.48 750.71,469.02 751.23,475.98 751.66,469.87 752.13,473.40 752.59,471.99 753.02,470.70 753.45,470.43 753.97,475.45 754.33,465.22 754.78,472.04 755.21,469.95 755.68,473.25 756.09,468.66 756.50,469.38 756.92,469.34 757.42,474.71 757.82,468.39 758.27,471.67 758.64,466.21 759.10,472.21 759.51,468.87 759.97,472.61 760.40,470.04 760.89,474.72 761.29,467.84 761.77,473.37 762.25,473.83 762.70,471.94 763.17,473.09 763.65,473.41 764.08,470.54 764.57,474.03 765.00,470.29 765.49,474.34 765.89,468.07 766.38,474.02 766.79,469.08 767.23,470.83 767.62,467.82 768.11,474.19 768.46,464.25 768.93,473.26 769.30,466.05 769.80,474.42 770.21,469.21 770.75,476.79 771.15,468.41 771.59,471.12 771.97,466.36 772.43,472.32 772.81,466.90 773.30,474.28 773.69,467.50 801.44,454.00 801.69,453.72 801.94,454.10 802.18,453.83 802.44,455.16 802.67,452.89 802.92,453.71 803.17,455.00 803.42,454.00 803.67,454.52 803.92,454.41 804.18,455.89 804.42,453.35 804.67,454.31 804.93,455.10 805.17,454.08 805.43,454.87 805.68,454.27 805.93,454.36 806.17,454.18 806.42,453.56 806.67,454.87 806.92,454.01 807.18,455.54 807.44,455.64 807.70,455.63 807.96,455.39 808.22,455.49 808.48,455.93 808.74,455.57 808.99,454.94 809.25,455.78 809.51,455.44 809.77,455.57 810.03,455.78 810.29,455.59 810.56,455.99 810.82,455.96 811.08,455.07 811.33,455.28 811.60,456.69 811.86,455.70 812.13,456.71 812.40,455.93 812.66,455.44 812.91,454.74 813.17,455.94 813.43,455.83 813.70,455.64 813.96,456.47 814.23,456.17 814.49,455.37 814.75,455.89 815.01,456.20 815.28,456.08 815.55,456.71 815.81,456.05 816.08,456.01 816.35,457.31 816.63,457.77 816.90,456.91 817.18,457.36 817.46,457.40 817.73,457.03 818.01,457.76 818.29,457.79 818.56,457.03 818.84,457.69 819.12,457.64 819.40,457.68 819.68,457.22 819.96,458.30 820.24,457.77 820.52,458.13 820.82,458.87 821.09,457.50 821.37,457.96 821.66,458.67 821.94,457.77 822.23,458.34 822.51,458.33 822.80,458.39 823.10,459.45 823.38,458.12 823.66,457.97 823.95,458.84 824.24,458.38 824.52,457.85 824.81,458.49 825.10,458.67 825.37,457.34 825.66,459.01 825.95,458.28 826.24,459.16 826.53,458.87 826.83,459.35" stroke-dasharray="3.6 3.6" stroke-width="3.6" stroke="#aaa" />
<g>
<circle cx="747.06" cy="470.85" r="1.6666666666666667" />
<circle cx="747.56" cy="474.86" r="1.6666666666666667" />
<circle cx="747.97" cy="468.43" r="1.6666666666666667" />
<circle cx="748.42" cy="471.97" r="1.6666666666666667" />
<circle cx="748.84" cy="469.44" r="1.6666666666666667" />
<circle cx="749.37" cy="476.58" r="1.6666666666666667" />
<circle cx="749.79" cy="469.77" r="1.6666666666666667" />
<circle cx="750.30" cy="475.48" r="1.6666666666666667" />
<circle cx="750.71" cy="469.02" r="1.6666666666666667" />
<circle cx="751.23" cy="475.98" r="1.6666666666666667" />
<circle cx="751.66" cy="469.87" r="1.6666666666666667" />
<circle cx="752.13" cy="473.40" r="1.6666666666666667" />
<circle cx="752.59" cy="471.99" r="1.6666666666666667" />
<circle cx="753.02" cy="470.70" r="1.6666666666666667" />
<circle cx="753.45" cy="470.43" r="1.6666666666666667" />
<circle cx="753.97" cy="475.45" r="1.6666666666666667" />
<circle cx="754.33" cy="465.22" r="1.6666666666666667" />
<circle cx="754.78" cy="472.04" r="1.6666666666666667" />
<circle cx="755.21" cy="469.95" r="1.6666666666666667" />
<circle cx="755.68" cy="473.25" r="1.6666666666666667" />
<circle cx="756.09" cy="468.66" r="1.6666666666666667" />
<circle cx="756.50" cy="469.38" r="1.6666666666666667" />
<circle cx="756.92" cy="469.34" r="1.6666666666666667" />
<circle cx="757.42" cy="474.71" r="1.6666666666666667" />
<circle cx="757.82" cy="468.39" r="1.6666666666666667" />
<circle cx="758.27" cy="471.67" r="1.6666666666666667" />
<circle cx="758.64" cy="466.21" r="1.6666666666666667" />
<circle cx="759.10" cy="472.21" r="1.6666666666666667" />
<circle cx="759.51" cy="468.87" r="1.6666666666666667" />
<circle cx="759.97" cy="472.61" r="1.6666666666666667" />
<circle cx="760.40" cy="470.04" r="1.6666666666666667" />
<circle cx="760.89" cy="474.72" r="1.6666666666666667" />
<circle cx="761.29" cy="467.84" r="1.6666666666666667" />
<circle cx="761.77" cy="473.37" r="1.6666666666666667" />
<circle cx="762.25" cy="473.83" r="1.6666666666666667" />
<circle cx="762.70" cy="471.94" r="1.6666666666666667" />
<circle cx="763.17" cy="473.09" r="1.6666666666666667" />
<circle cx="763.65" cy="473.41" r="1.6666666666666667" />
<circle cx="764.08" cy="470.54" r="1.6666666666666667" />
<circle cx="764.57" cy="474.03" r="1.6666666666666667" />
<circle cx="765.00" cy="470.29" r="1.6666666666666667" />
<circle cx="765.49" cy="474.34" r="1.6666666666666667" />
<circle cx="765.89" cy="468.07" r="1.6666666666666667" />
<circle cx="766.38" cy="474.02" r="1.6666666666666667" />
<circle cx="766.79" cy="469.08" r="1.6666666666666667" />
<circle cx="767.23" cy="470.83" r="1.6666666666666667" />
<circle cx="767.62" cy="467.82" r="1.6666666666666667" />
<circle cx="768.11" cy="474.19" r="1.6666666666666667" />
<circle cx="768.46" cy="464.25" r="1.6666666666666667" />
<circle cx="768.93" cy="473.26" r="1.6666666666666667" />
<circle cx="769.30" cy="466.05" r="1.6666666666666667" />
<circle cx="769.80" cy="474.42" r="1.6666666666666667" />
<circle cx="770.21" cy="469.21" r="1.6666666666666667" />
<circle cx="770.75" cy="476.79" r="1.6666666666666667" />
<circle cx="771.15" cy="468.41" r="1.6666666666666667" />
<circle cx="771.59" cy="471.12" r="1.6666666666666667" />
<circle cx="771.97" cy="466.36" r="1.6666666666666667" />
<circle cx="772.43" cy="472.32" r="1.6666666666666667" />
<circle cx="772.81" cy="466.90" r="1.6666666666666667" />
<circle cx="773.30" cy="474.28" r="1.6666666666666667" />
<circle cx="773.69" cy="467.50" r="1.6666666666666667" />
<circle cx="801.44" cy="454.00" r="1.6666666666666667" />
<circle cx="801.69" cy="453.72" r="1.6666666666666667" />
<circle cx="801.94" cy="454.10" r="1.6666666666666667" />
<circle cx="802.18" cy="453.83" r="1.6666666666666667" />
<circle cx="802.44" cy="455.16" r="1.6666666666666667" />
<circle cx="802.67" cy="452.89" r="1.6666666666666667" />
<circle cx="802.92" cy="453.71" r="1.6666666666666667" />
<circle cx="803.17" cy="455.00" r="1.6666666666666667" />
<circle cx="803.42" cy="454.00" r="1.6666666666666667" />
<circle cx="803.67" cy="454.52" r="1.6666666666666667" />
<circle cx="803.92" cy="454.41" r="1.6666666666666667" />
<circle cx="804.18" cy="455.89" r="1.6666666666666667" />
<circle cx="804.42" cy="453.35" r="1.6666666666666667" />
<circle cx="804.67" cy="454.31" r="1.6666666666666667" />
<circle cx="804.93" cy="455.10" r="1.6666666666666667" />
<circle cx="805.17" cy="454.08" r="1.6666666666666667" />
<circle cx="805.43" cy="454.87" r="1.6666666666666667" />
<circle cx="805.68" cy="454.27" r="1.6666666666666667" />
<circle cx="805.93" cy="454.36" r="1.6666666666666667" />
<circle cx="806.17" cy="454.18" r="1.6666666666666667" />
<circle cx="806.42" cy="453.56" r="1.6666666666666667" />
<circle cx="806.67" cy="454.87" r="1.6666666666666667" />
<circle cx="806.92" cy="454.01" r="1.6666666666666667" />
<circle cx="807.18" cy="455.54" r="1.6666666666666667" />
<circle cx="807.44" cy="455.64" r="1.6666666666666667" />
<circle cx="807.70" cy="455.63" r="1.6666666666666667" />
<circle cx="807.96" cy="455.39" r="1.6666666666666667" />
<circle cx="808.22" cy="455.49" r="1.6666666666666667" />
<circle cx="808.48" cy="455.93" r="1.6666666666666667" />
<circle cx="808.74" cy="455.57" r="1.6666666666666667" />
<circle cx="808.99" cy="454.94" r="1.6666666666666667" />
<circle cx="809.25" cy="455.78" r="1.6666666666666667" />
<circle cx="809.51" cy="455.44" r="1.6666666666666667" />
<circle cx="809.77" cy="455.57" r="1.6666666666666667" />
<circle cx="810.03" cy="455.78" r="1.6666666666666667" />
<circle cx="810.29" cy="455.59" r="1.6666666666666667" />
<circle cx="810.56" cy="455.99" r="1.6666666666666667" />
<circle cx="810.82" cy="455.96" r="1.6666666666666667" />
<circle cx="811.08" cy="455.07" r="1.6666666666666667" />
<circle cx="811.33" cy="455.28" r="1.6666666666666667" />
<circle cx="811.60" cy="456.69" r="1.6666666666666667" />
<circle cx="811.86" cy="455.70" r="1.6666666666666667" />
<circle cx="812.13" cy="456.71" r="1.6666666666666667" />
<circle cx="812.40" cy="455.93" r="1.6666666666666667" />
<circle cx="812.66" cy="455.44" r="1.6666666666666667" />
<circle cx="812.91" cy="454.74" r="1.6666666666666667" />
<circle cx="813.17" cy="455.94" r="1.6666666666666667" />
<circle cx="813.43" cy="455.83" r="1.6666666666666667" />
<circle cx="813.70" cy="455.64" r="1.6666666666666667" />
<circle cx="813.96" cy="456.47" r="1.6666666666666667" />
<circle cx="814.23" cy="456.17" r="1.6666666666666667" />
<circle cx="814.49" cy="455.37" r="1.6666666666666667" />
<circle cx="814.75" cy="455.89" r="1.6666666666666667" />
<circle cx="815.01" cy="456.20" r="1.6666666666666667" />
<circle cx="815.28" cy="456.08" r="1.6666666666666667" />
<circle cx="815.55" cy="456.71" r="1.6666666666666667" />
<circle cx="815.81" cy="456.05" r="1.6666666666666667" />
<circle cx="816.08" cy="456.01" r="1.6666666666666667" />
<circle cx="816.35" cy="457.31" r="1.6666666666666667" />
<circle cx="816.63" cy="457.77" r="1.6666666666666667" />
<circle cx="816.90" cy="456.91" r="1.6666666666666667" />
<circle cx="817.18" cy="457.36" r="1.6666666666666667" />
<circle cx="817.46" cy="457.40" r="1.6666666666666667" />
<circle cx="817.73" cy="457.03" r="1.6666666666666667" />
<circle cx="818.01" cy="457.76" r="1.6666666666666667" />
<circle cx="818.29" cy="457.79" r="1.6666666666666667" />
<circle cx="818.56" cy="457.03" r="1.6666666666666667" />
<circle cx="818.84" cy="457.69" r="1.6666666666666667" />
<circle cx="819.12" cy="457.64" r="1.6666666666666667" />
<circle cx="819.40" cy="457.68" r="1.6666666666666667" />
<circle cx="819.68" cy="457.22" r="1.6666666666666667" />
<circle cx="819.96" cy="458.30" r="1.6666666666666667" />
<circle cx="820.24" cy="457.77" r="1.6666666666666667" />
<circle cx="820.52" cy="458.13" r="1.6666666666666667" />
<circle cx="820.82" cy="458.87" r="1.6666666666666667" />
<circle cx="821.09" cy="457.50" r="1.6666666666666667" />
<circle cx="821.37" cy="457.96" r="1.6666666666666667" />
<circle cx="821.66" cy="458.67" r="1.6666666666666667" />
<circle cx="821.94" cy="457.77" r="1.6666666666666667" />
<circle cx="822.23" cy="458.34" r="1.6666666666666667" />
<circle cx="822.51" cy="458.33" r="1.6666666666666667" />
<circle cx="822.80" cy="458.39" r="1.6666666666666667" />
<circle cx="823.10" cy="459.45" r="1.6666666666666667" />
<circle cx="823.38" cy="458.12" r="1.6666666666666667" />
<circle cx="823.66" cy="457.97" r="1.6666666666666667" />
<circle cx="823.95" cy="458.84" r="1.6666666666666667" />
<circle cx="824.24" cy="458.38" r="1.6666666666666667" />
<circle cx="824.52" cy="457.85" r="1.6666666666666667" />
<circle cx="824.81" cy="458.49" r="1.6666666666666667" />
<circle cx="825.10" cy="458.67" r="1.6666666666666667" />
<circle cx="825.37" cy="457.34" r="1.6666666666666667" />
<circle cx="825.66" cy="459.01" r="1.6666666666666667" />
<circle cx="825.95" cy="458.28" r="1.6666666666666667" />
<circle cx="826.24" cy="459.16" r="1.6666666666666667" />
<circle cx="826.53" cy="458.87" r="1.6666666666666667" />
<circle cx="826.83" cy="459.35" r="1.6666666666666667" />
</g>
<g stroke="black">
<line x1="839.86" x2="839.86" y1="510.00" y2="520.00" />
<line x1="791.78" x2="791.78" y1="510.00" y2="520.00" />
<line x1="740.39" x2="740.39" y1="510.00" y2="520.00" />
<line x1="689.00" x2="689.00" y1="510.00" y2="520.00" />
<line x1="639.26" x2="639.26" y1="510.00" y2="520.00" />
<line x1="587.87" x2="587.87" y1="510.00" y2="520.00" />
<line x1="538.13" x2="538.13" y1="510.00" y2="520.00" />
<line x1="486.74" x2="486.74" y1="510.00" y2="520.00" />
<line x1="435.35" x2="435.35" y1="510.00" y2="520.00" />
<line x1="385.61" x2="385.61" y1="510.00" y2="520.00" />
<line x1="334.22" x2="334.22" y1="510.00" y2="520.00" />
<line x1="284.48" x2="284.48" y1="510.00" y2="520.00" />
<line x1="233.09" x2="233.09" y1="510.00" y2="520.00" />
<line x1="186.67" x2="186.67" y1="510.00" y2="520.00" />
<g fill="black" font-family="Arial, sans-serif" font-size="18.0" stroke="none" text-anchor="start" transform="translate(9.0 0.0)">
<text x="839.86" y="530.57">Mar</text>
<text x="791.78" y="530.57">Feb</text>
<text x="740.39" y="530.57">Jan</text>
<text x="689.00" y="530.57">Dec</text>
<text x="639.26" y="530.57">Nov</text>
<text x="587.87" y="530.57">Oct</text>
<text x="538.13" y="530.57">Sep</text>
<text x="486.74" y="530.57">Aug</text>
<text x="435.35" y="530.57">Jul</text>
<text x="385.61" y="530.57">Jun</text>
<text x="334.22" y="530.57">May</text>
<text x="284.48" y="530.57">Apr</text>
<text x="233.09" y="530.57">Mar</text>
<text x="186.67" y="530.57">Feb</text>
</g>
<line x1="150.00" x2="850.00" y1="510.00" y2="510.00" />
</g>
<g stroke="black">
<line x1="150.00" x2="140.00" y1="510.00" y2="510.00" />
<line x1="150.00" x2="140.00" y1="216.29" y2="216.29" />
<g fill="black" font-family="Arial, sans-serif" font-size="18.0" stroke="none" text-anchor="end">
<text x="141.00" y="501.00">0</text>
<text x="141.00" y="207.29">10</text>
</g>
<line x1="150.00" x2="150.00" y1="510.00" y2="90.00" />
</g>
</g>
</svg>