<?xml version="1.0"?>
<svg version="1.1" viewBox="0 0 1000 600" xmlns:xlink="http://www.w3.org/1999/xlink" xmlns="http://www.w3.org/2000/svg">
<g>
<g stroke-dasharray="3.6 7.2" stroke-width="0.72" stroke="#caa">
<line x1="813.75" x2="813.75" y1="510.00" y2="90.00" />
<line x1="760.60" x2="760.60" y1="510.00" y2="90.00" />
<line x1="707.45" x2="707.45" y1="510.00" y2="90.00" />
<line x1="656.01" x2="656.01" y1="510.00" y2="90.00" />
<line x1="602.86" x2="602.86" y1="510.00" y2="90.00" />
<line x1="551.42" x2="551.42" y1="510.00" y2="90.00" />
<line x1="498.27" x2="498.27" y1="510.00" y2="90.00" />
<line x1="445.11" x2="445.11" y1="510.00" y2="90.00" />
<line x1="393.68" x2="393.68" y1="510.00" y2="90.00" />
<line x1="340.52" x2="340.52" y1="510.00" y2="90.00" />
<line x1="289.09" x2="289.09" y1="510.00" y2="90.00" />
<line x1="235.93" x2="235.93" y1="510.00" y2="90.00" />
<line x1="187.92" x2="187.92" y1="510.00" y2="90.00" />
<line x1="150.00" x2="850.00" y1="510.00" y2="510.00" />
<line x1="150.00" x2="850.00" y1="319.09" y2="319.09" />
<line x1="150.00" x2="850.00" y1="128.18" y2="128.18" />
</g>
<g>
<text dominant-baseline="hanging" dx="-36.0" dy="18.0" fill="#0004" font-family="Arial, sans-serif" font-size="36" stroke="none" text-anchor="end" x="850.00" y="128.18">R08</text>
</g>
<g>
<text dominant-baseline="text-bottom" dy="-12.0" fill="black" font-family="Arial, sans-serif" font-size="18.0" font-style="italic" stroke="none" text-anchor="middle" x="500.00" y="90.00">Years 2023 to 2024</text>
</g>
<g>
<text dominant-baseline="central" dx="12.0" dy="12.0" fill="black" font-family="Arial, sans-serif" font-size="18.0" font-style="italic" stroke="none" text-anchor="middle" text-orientation="sideways" writing-mode="vertical-lr" x="850.00" y="300.00">Drips per day</text>
</g>
<polyline fill="none" points="767.50,437.61 768.02,446.85 768.44,431.37 768.91,440.31 769.34,434.04 769.89,450.43 770.32,434.90 770.85,448.16 771.28,432.96 771.82,449.21 772.25,435.15 772.75,443.62 773.22,440.36 773.67,437.23 774.11,436.57 774.64,448.10 775.02,422.30 775.49,440.48 775.92,435.34 776.42,443.29 776.84,432.01 777.27,433.90 777.69,433.80 778.21,446.52 778.63,431.28 779.09,439.59 779.48,425.21 779.95,440.88 780.37,432.55 780.85,441.82 781.29,435.57 781.81,446.54 782.22,429.79 782.71,443.55 783.21,444.59 783.68,440.23 784.17,442.91 784.66,443.64 785.11,436.83 785.61,445.02 786.06,436.22 786.56,445.72 786.98,430.42 787.48,445.01 787.91,433.11 788.36,437.56 788.76,429.73 789.27,445.38 789.63,419.37 790.12,443.30 790.51,424.75 791.02,445.88 791.45,433.46 792.00,450.85 792.41,431.34 792.87,438.26 793.26,425.65 793.73,441.14 794.13,427.17 794.64,445.58 795.04,428.87 823.75,381.52 824.00,380.25 824.26,381.94 824.51,380.76 824.77,386.48 825.02,376.57 825.27,380.22 825.53,385.81 825.79,381.50 826.05,383.76 826.31,383.27 826.58,389.51 826.83,378.64 827.09,382.84 827.35,386.21 827.61,381.86 827.87,385.24 828.12,382.70 828.38,383.09 828.64,382.29 828.89,379.58 829.15,385.28 829.41,381.56 829.68,388.09 829.95,388.50 830.21,388.46 830.48,387.45 830.75,387.85 831.02,389.69 831.29,388.22 831.55,385.56 831.82,389.06 832.09,387.67 832.36,388.18 832.63,389.05 832.90,388.28 833.17,389.91 833.44,389.81 833.71,386.10 833.98,386.97 834.25,392.76 834.52,388.73 834.80,392.83 835.08,389.68 835.34,387.65 835.60,384.72 835.88,389.71 836.15,389.28 836.42,388.50 836.69,391.87 836.97,390.66 837.24,387.35 837.51,389.53 837.78,390.79 838.06,390.28 838.33,392.83 838.61,390.16 838.88,390.00 839.17,395.18 839.46,396.98 839.74,393.64 840.02,395.40 840.31,395.56 840.59,394.11 840.88,396.95 841.17,397.06 841.45,394.12 841.74,396.68 842.03,396.49 842.32,396.63 842.60,394.85 842.90,399.00 843.19,396.99 843.48,398.36 843.78,401.13 844.07,395.95 844.36,397.73 844.66,400.40 844.95,396.98 845.24,399.16 845.54,399.11 845.83,399.36 846.14,403.28 846.43,398.31 846.73,397.75 847.03,401.02 847.32,399.31 847.61,397.28 847.91,399.72 848.21,400.39 848.49,395.33 848.80,401.65 849.09,398.95 849.39,402.20 849.69,401.15 850.00,402.91" stroke-dasharray="3.6 3.6" stroke-width="3.6" stroke="#aaa" />
<g>
<circle cx="767.50" cy="437.61" r="1.6666666666666667" />
<circle cx="768.02" cy="446.85" r="1.6666666666666667" />
<circle cx="768.44" cy="431.37" r="1.6666666666666667" />
<circle cx="768.91" cy="440.31" r="1.6666666666666667" />
<circle cx="769.34" cy="434.04" r="1.6666666666666667" />
<circle cx="769.89" cy="450.43" r="1.6666666666666667" />
<circle cx="770.32" cy="434.90" r="1.6666666666666667" />
<circle cx="770.85" cy="448.16" r="1.6666666666666667" />
<circle cx="771.28" cy="432.96" r="1.6666666666666667" />
<circle cx="771.82" cy="449.21" r="1.6666666666666667" />
<circle cx="772.25" cy="435.15" r="1.6666666666666667" />
<circle cx="772.75" cy="443.62" r="1.6666666666666667" />
<circle cx="773.22" cy="440.36" r="1.6666666666666667" />
<circle cx="773.67" cy="437.23" r="1.6666666666666667" />
<circle cx="774.11" cy="436.57" r="1.6666666666666667" />
<circle cx="774.64" cy="448.10" r="1.6666666666666667" />
<circle cx="775.02" cy="422.30" r="1.6666666666666667" />
<circle cx="775.49" cy="440.48" r="1.6666666666666667" />
<circle cx="775.92" cy="435.34" r="1.6666666666666667" />
<circle cx="776.42" cy="443.29" r="1.6666666666666667" />
<circle cx="776.84" cy="432.01" r="1.6666666666666667" />
<circle cx="777.27" cy="433.90" r="1.6666666666666667" />
<circle cx="777.69" cy="433.80" r="1.6666666666666667" />
<circle cx="778.21" cy="446.52" r="1.6666666666666667" />
<circle cx="778.63" cy="431.28" r="1.6666666666666667" />
<circle cx="779.09" cy="439.59" r="1.6666666666666667" />
<circle cx="779.48" cy="425.21" r="1.6666666666666667" />
<circle cx="779.95" cy="440.88" r="1.6666666666666667" />
<circle cx="780.37" cy="432.55" r="1.6666666666666667" />
<circle cx="780.85" cy="441.82" r="1.6666666666666667" />
<circle cx="781.29" cy="435.57" r="1.6666666666666667" />
<circle cx="781.81" cy="446.54" r="1.6666666666666667" />
<circle cx="782.22" cy="429.79" r="1.6666666666666667" />
<circle cx="782.71" cy="443.55" r="1.6666666666666667" />
<circle cx="783.21" cy="444.59" r="1.6666666666666667" />
<circle cx="783.68" cy="440.23" r="1.6666666666666667" />
<circle cx="784.17" cy="442.91" r="1.6666666666666667" />
<circle cx="784.66" cy="443.64" r="1.6666666666666667" />
<circle cx="785.11" cy="436.83" r="1.6666666666666667" />
<circle cx="785.61" cy="445.02" r="1.6666666666666667" />
<circle cx="786.06" cy="436.22" r="1.6666666666666667" />
<circle cx="786.56" cy="445.72" r="1.6666666666666667" />
<circle cx="786.98" cy="430.42" r="1.6666666666666667" />
<circle cx="787.48" cy="445.01" r="1.6666666666666667" />
<circle cx="787.91" cy="433.11" r="1.6666666666666667" />
<circle cx="788.36" cy="437.56" r="1.6666666666666667" />
<circle cx="788.76" cy="429.73" r="1.6666666666666667" />
<circle cx="789.27" cy="445.38" r="1.6666666666666667" />
<circle cx="789.63" cy="419.37" r="1.6666666666666667" />
<circle cx="790.12" cy="443.30" r="1.6666666666666667" />
<circle cx="790.51" cy="424.75" r="1.6666666666666667" />
<circle cx="791.02" cy="445.88" r="1.6666666666666667" />
<circle cx="791.45" cy="433.46" r="1.6666666666666667" />
<circle cx="792.00" cy="450.85" r="1.6666666666666667" />
<circle cx="792.41" cy="431.34" r="1.6666666666666667" />
<circle cx="792.87" cy="438.26" r="1.6666666666666667" />
<circle cx="793.26" cy="425.65" r="1.6666666666666667" />
<circle cx="793.73" cy="441.14" r="1.6666666666666667" />
<circle cx="794.13" cy="427.17" r="1.6666666666666667" />
<circle cx="794.64" cy="445.58" r="1.6666666666666667" />
<circle cx="795.04" cy="428.87" r="1.6666666666666667" />
<circle cx="823.75" cy="381.52" r="1.6666666666666667" />
<circle cx="824.00" cy="380.25" r="1.6666666666666667" />
<circle cx="824.26" cy="381.94" r="1.6666666666666667" />
<circle cx="824.51" cy="380.76" r="1.6666666666666667" />
<circle cx="824.77" cy="386.48" r="1.6666666666666667" />
<circle cx="825.02" cy="376.57" r="1.6666666666666667" />
<circle cx="825.27" cy="380.22" r="1.6666666666666667" />
<circle cx="825.53" cy="385.81" r="1.6666666666666667" />
<circle cx="825.79" cy="381.50" r="1.6666666666666667" />
<circle cx="826.05" cy="383.76" r="1.6666666666666667" />
<circle cx="826.31" cy="383.27" r="1.6666666666666667" />
<circle cx="826.58" cy="389.51" r="1.6666666666666667" />
<circle cx="826.83" cy="378.64" r="1.6666666666666667" />
<circle cx="827.09" cy="382.84" r="1.6666666666666667" />
<circle cx="827.35" cy="386.21" r="1.6666666666666667" />
<circle cx="827.61" cy="381.86" r="1.6666666666666667" />
<circle cx="827.87" cy="385.24" r="1.6666666666666667" />
<circle cx="828.12" cy="382.70" r="1.6666666666666667" />
<circle cx="828.38" cy="383.09" r="1.6666666666666667" />
<circle cx="828.64" cy="382.29" r="1.6666666666666667" />
<circle cx="828.89" cy="379.58" r="1.6666666666666667" />
<circle cx="829.15" cy="385.28" r="1.6666666666666667" />
<circle cx="829.41" cy="381.56" r="1.6666666666666667" />
<circle cx="829.68" cy="388.09" r="1.6666666666666667" />
<circle cx="829.95" cy="388.50" r="1.6666666666666667" />
<circle cx="830.21" cy="388.46" r="1.6666666666666667" />
<circle cx="830.48" cy="387.45" r="1.6666666666666667" />
<circle cx="830.75" cy="387.85" r="1.6666666666666667" />
<circle cx="831.02" cy="389.69" r="1.6666666666666667" />
<circle cx="831.29" cy="388.22" r="1.6666666666666667" />
<circle cx="831.55" cy="385.56" r="1.6666666666666667" />
<circle cx="831.82" cy="389.06" r="1.6666666666666667" />
<circle cx="832.09" cy="387.67" r="1.6666666666666667" />
<circle cx="832.36" cy="388.18" r="1.6666666666666667" />
<circle cx="832.63" cy="389.05" r="1.6666666666666667" />
<circle cx="832.90" cy="388.28" r="1.6666666666666667" />
<circle cx="833.17" cy="389.91" r="1.6666666666666667" />
<circle cx="833.44" cy="389.81" r="1.6666666666666667" />
<circle cx="833.71" cy="386.10" r="1.6666666666666667" />
<circle cx="833.98" cy="386.97" r="1.6666666666666667" />
<circle cx="834.25" cy="392.76" r="1.6666666666666667" />
<circle cx="834.52" cy="388.73" r="1.6666666666666667" />
<circle cx="834.80" cy="392.83" r="1.6666666666666667" />
<circle cx="835.08" cy="389.68" r="1.6666666666666667" />
<circle cx="835.34" cy="387.65" r="1.6666666666666667" />
<circle cx="835.60" cy="384.72" r="1.6666666666666667" />
<circle cx="835.88" cy="389.71" r="1.6666666666666667" />
<circle cx="836.15" cy="389.28" r="1.6666666666666667" />
<circle cx="836.42" cy="388.50" r="1.6666666666666667" />
<circle cx="836.69" cy="391.87" r="1.6666666666666667" />
<circle cx="836.97" cy="390.66" r="1.6666666666666667" />
<circle cx="837.24" cy="387.35" r="1.6666666666666667" />
<circle cx="837.51" cy="389.53" r="1.6666666666666667" />
<circle cx="837.78" cy="390.79" r="1.6666666666666667" />
<circle cx="838.06" cy="390.28" r="1.6666666666666667" />
<circle cx="838.33" cy="392.83" r="1.6666666666666667" />
<circle cx="838.61" cy="390.16" r="1.6666666666666667" />
<circle cx="838.88" cy="390.00" r="1.6666666666666667" />
<circle cx="839.17" cy="395.18" r="1.6666666666666667" />
<circle cx="839.46" cy="396.98" r="1.6666666666666667" />
<circle cx="839.74" cy="393.64" r="1.6666666666666667" />
<circle cx="840.02" cy="395.40" r="1.6666666666666667" />
<circle cx="840.31" cy="395.56" r="1.6666666666666667" />
<circle cx="840.59" cy="394.11" r="1.6666666666666667" />
<circle cx="840.88" cy="396.95" r="1.6666666666666667" />
<circle cx="841.17" cy="397.06" r="1.6666666666666667" />
<circle cx="841.45" cy="394.12" r="1.6666666666666667" />
<circle cx="841.74" cy="396.68" r="1.6666666666666667" />
<circle cx="842.03" cy="396.49" r="1.6666666666666667" />
<circle cx="842.32" cy="396.63" r="1.6666666666666667" />
<circle cx="842.60" cy="394.85" r="1.6666666666666667" />
<circle cx="842.90" cy="399.00" r="1.6666666666666667" />
<circle cx="843.19" cy="396.99" r="1.6666666666666667" />
<circle cx="843.48" cy="398.36" r="1.6666666666666667" />
<circle cx="843.78" cy="401.13" r="1.6666666666666667" />
<circle cx="844.07" cy="395.95" r="1.6666666666666667" />
<circle cx="844.36" cy="397.73" r="1.6666666666666667" />
<circle cx="844.66" cy="400.40" r="1.6666666666666667" />
<circle cx="844.95" cy="396.98" r="1.6666666666666667" />
<circle cx="845.24" cy="399.16" r="1.6666666666666667" />
<circle cx="845.54" cy="399.11" r="1.6666666666666667" />
<circle cx="845.83" cy="399.36" r="1.6666666666666667" />
<circle cx="846.14" cy="403.28" r="1.6666666666666667" />
<circle cx="846.43" cy="398.31" r="1.6666666666666667" />
<circle cx="846.73" cy="397.75" r="1.6666666666666667" />
<circle cx="847.03" cy="401.02" r="1.6666666666666667" />
<circle cx="847.32" cy="399.31" r="1.6666666666666667" />
<circle cx="847.61" cy="397.28" r="1.6666666666666667" />
<circle cx="847.91" cy="399.72" r="1.6666666666666667" />
<circle cx="848.21" cy="400.39" r="1.6666666666666667" />
<circle cx="848.49" cy="395.33" r="1.6666666666666667" />
<circle cx="848.80" cy="401.65" r="1.6666666666666667" />
<circle cx="849.09" cy="398.95" r="1.6666666666666667" />
<circle cx="849.39" cy="402.20" r="1.6666666666666667" />
<circle cx="849.69" cy="401.15" r="1.6666666666666667" />
<circle cx="850.00" cy="402.91" r="1.6666666666666667" />
</g>
<g stroke="black">
<line x1="813.75" x2="813.75" y1="510.00" y2="520.00" />
<line x1="760.60" x2="760.60" y1="510.00" y2="520.00" />
<line x1="707.45" x2="707.45" y1="510.00" y2="520.00" />
<line x1="656.01" x2="656.01" y1="510.00" y2="520.00" />
<line x1="602.86" x2="602.86" y1="510.00" y2="520.00" />
<line x1="551.42" x2="551.42" y1="510.00" y2="520.00" />
<line x1="498.27" x2="498.27" y1="510.00" y2="520.00" />
<line x1="445.11" x2="445.11" y1="510.00" y2="520.00" />
<line x1="393.68" x2="393.68" y1="510.00" y2="520.00" />
<line x1="340.52" x2="340.52" y1="510.00" y2="520.00" />
<line x1="289.09" x2="289.09" y1="510.00" y2="520.00" />
<line x1="235.93" x2="235.93" y1="510.00" y2="520.00" />
<line x1="187.92" x2="187.92" y1="510.00" y2="520.00" />
<g fill="black" font-family="Arial, sans-serif" font-size="18.0" stroke="none" text-anchor="start" transform="translate(9.0 0.0)">
<text x="813.75" y="530.57">Feb</text>
<text x="760.60" y="530.57">Jan</text>
<text x="707.45" y="530.57">Dec</text>
<text x="656.01" y="530.57">Nov</text>
<text x="602.86" y="530.57">Oct</text>
<text x="551.42" y="530.57">Sep</text>
<text x="498.27" y="530.57">Aug</text>
<text x="445.11" y="530.57">Jul</text>
<text x="393.68" y="530.57">Jun</text>
<text x="340.52" y="530.57">May</text>
<text x="289.09" y="530.57">Apr</text>
<text x="235.93" y="530.57">Mar</text>
<text x="187.92" y="530.57">Feb</text>
</g>
<line x1="150.00" x2="850.00" y1="510.00" y2="510.00" />
</g>
<g stroke="black">
<line x1="150.00" x2="140.00" y1="510.00" y2="510.00" />
<line x1="150.00" x2="140.00" y1="319.09" y2="319.09" />
<line x1="150.00" x2="140.00" y1="128.18" y2="128.18" />
<g fill="black" font-family="Arial, sans-serif" font-size="18.0" stroke="none" text-anchor="end">
<text x="141.00" y="501.00">0</text>
<text x="141.00" y="310.09">10</text>
<text x="141.00" y="119.18">20</text>
</g>
<line x1="150.00" x2="150.00" y1="510.00" y2="90.00" />
</g>
</g>
</svg>