<?xml version="1.0"?>
<svg version="1.1" viewBox="0 0 1000 600" xmlns:xlink="http://www.w3.org/1999/xlink" xmlns="http://www.w3.org/2000/svg">
<g>
<g stroke-dasharray="3.6 7.2" stroke-width="0.72" stroke="#caa">
<line x1="839.86" x2="839.86" y1="510.00" y2="90.00" />
<line x1="791.78" x2="791.78" y1="510.00" y2="90.00" />
<line x1="740.39" x2="740.39" y1="510.00" y2="90.00" />
<line x1="689.00" x2="689.00" y1="510.00" y2="90.00" />
<line x1="639.26" x2="639.26" y1="510.00" y2="90.00" />
<line x1="587.87" x2="587.87" y1="510.00" y2="90.00" />
<line x1="538.13" x2="538.13" y1="510.00" y2="90.00" />
<line x1="486.74" x2="486.74" y1="510.00" y2="90.00" />
<line x1="435.35" x2="435.35" y1="510.00" y2="90.00" />
<line x1="385.61" x2="385.61" y1="510.00" y2="90.00" />
<line x1="334.22" x2="334.22" y1="510.00" y2="90.00" />
<line x1="284.48" x2="284.48" y1="510.00" y2="90.00" />
<line x1="233.09" x2="233.09" y1="510.00" y2="90.00" />
<line x1="186.67" x2="186.67" y1="510.00" y2="90.00" />
<line x1="150.00" x2="850.00" y1="510.00" y2="510.00" />
<line x1="150.00" x2="850.00" y1="216.29" y2="216.29" />
</g>
<g>
<text dominant-baseline="hanging" dx="-36.0" dy="18.0" fill="#0004" font-family="Arial, sans-serif" font-size="36" stroke="none" text-anchor="end" x="850.00" y="128.18">R10</text>
</g>
<g>
<text dominant-baseline="text-bottom" dy="-12.0" fill="black" font-family="Arial, sans-serif" font-size="18.0" font-style="italic" stroke="none" text-anchor="middle" x="500.00" y="90.00">Years 2023 to 2024</text>
</g>
<g>
<text dominant-baseline="central" dx="12.0" dy="12.0" fill="black" font-family="Arial, sans-serif" font-size="18.0" font-style="italic" stroke="none" text-anchor="middle" text-orientation="sideways" writing-mode="vertical-lr" x="850.00" y="300.00">log(Drips per day)</text>
</g>
<polyline fill="none" points="804.75,303.73 804.76,301.76 804.76,351.00 804.77,324.66 804.81,400.28 805.55,486.30 806.33,488.05 806.33,223.42 806.33,243.78 806.33,271.84 806.33,251.49 806.33,253.66 806.33,257.58 806.33,259.36 806.33,268.24 806.33,274.02 806.33,268.24 806.33,265.57 806.33,262.63 806.34,265.57 806.34,246.58 806.34,240.69 806.34,240.69 806.34,240.69 806.34,249.13 806.34,249.13 806.34,249.13 806.34,261.04 806.34,261.04 806.34,264.14 806.34,262.63 806.34,249.13 806.34,237.23 806.34,240.69 806.34,233.30 806.34,237.23 806.34,233.30 806.34,237.23 806.34,237.23 806.34,233.30 806.34,233.30 806.34,233.30 806.34,237.23 806.34,237.23 806.34,233.30 806.34,237.23 806.34,237.23 806.34,233.30 806.34,237.23 806.34,233.30 806.34,233.30 806.34,237.23 806.34,233.30 806.34,237.23 806.34,233.30 806.34,233.30 806.34,228.78 806.34,237.23 806.34,233.30 806.34,233.30 806.34,237.23 806.34,237.23 806.34,237.23 806.34,240.69 806.34,240.69 806.34,243.78 806.34,249.13 806.34,259.36 806.35,344.92 806.91,478.12 823.20,329.16 823.20,282.99 823.20,275.05 823.20,268.24 823.20,268.24 823.20,268.24 823.20,262.63 823.20,255.69 823.20,255.69 823.21,253.66 823.21,253.66 823.21,253.66 823.21,259.36 823.21,253.66 823.21,255.69 823.21,253.66 823.21,255.69 823.21,257.58 823.21,253.66 823.21,253.66 823.21,255.69 823.21,257.58 823.21,251.49 823.21,253.66 823.21,259.36 823.21,262.63 823.21,259.36 823.21,272.95 823.21,275.05 823.21,270.69 823.21,264.14 823.21,266.94 823.21,257.58 823.21,257.58 823.21,257.58 823.21,257.58 823.21,259.36 823.21,259.36 823.21,262.63 823.22,264.14 823.22,269.49 823.22,269.49 823.22,278.85 823.22,296.89 823.22,317.96 823.22,330.72 823.23,339.81 823.24,348.20 823.24,333.48 823.25,365.00 823.26,367.27" stroke-dasharray="3.6 3.6" stroke-width="3.6" stroke="#aaa" />
<g>
<circle cx="804.75" cy="303.73" r="1.6666666666666667" />
<circle cx="804.76" cy="301.76" r="1.6666666666666667" />
<circle cx="804.76" cy="351.00" r="1.6666666666666667" />
<circle cx="804.77" cy="324.66" r="1.6666666666666667" />
<circle cx="804.81" cy="400.28" r="1.6666666666666667" />
<circle cx="805.55" cy="486.30" r="1.6666666666666667" />
<circle cx="806.33" cy="488.05" r="1.6666666666666667" />
<circle cx="806.33" cy="223.42" r="1.6666666666666667" />
<circle cx="806.33" cy="243.78" r="1.6666666666666667" />
<circle cx="806.33" cy="271.84" r="1.6666666666666667" />
<circle cx="806.33" cy="251.49" r="1.6666666666666667" />
<circle cx="806.33" cy="253.66" r="1.6666666666666667" />
<circle cx="806.33" cy="257.58" r="1.6666666666666667" />
<circle cx="806.33" cy="259.36" r="1.6666666666666667" />
<circle cx="806.33" cy="268.24" r="1.6666666666666667" />
<circle cx="806.33" cy="274.02" r="1.6666666666666667" />
<circle cx="806.33" cy="268.24" r="1.6666666666666667" />
<circle cx="806.33" cy="265.57" r="1.6666666666666667" />
<circle cx="806.33" cy="262.63" r="1.6666666666666667" />
<circle cx="806.34" cy="265.57" r="1.6666666666666667" />
<circle cx="806.34" cy="246.58" r="1.6666666666666667" />
<circle cx="806.34" cy="240.69" r="1.6666666666666667" />
<circle cx="806.34" cy="240.69" r="1.6666666666666667" />
<circle cx="806.34" cy="240.69" r="1.6666666666666667" />
<circle cx="806.34" cy="249.13" r="1.6666666666666667" />
<circle cx="806.34" cy="249.13" r="1.6666666666666667" />
<circle cx="806.34" cy="249.13" r="1.6666666666666667" />
<circle cx="806.34" cy="261.04" r="1.6666666666666667" />
<circle cx="806.34" cy="261.04" r="1.6666666666666667" />
<circle cx="806.34" cy="264.14" r="1.6666666666666667" />
<circle cx="806.34" cy="262.63" r="1.6666666666666667" />
<circle cx="806.34" cy="249.13" r="1.6666666666666667" />
<circle cx="806.34" cy="237.23" r="1.6666666666666667" />
<circle cx="806.34" cy="240.69" r="1.6666666666666667" />
<circle cx="806.34" cy="233.30" r="1.6666666666666667" />
<circle cx="806.34" cy="237.23" r="1.6666666666666667" />
<circle cx="806.34" cy="233.30" r="1.6666666666666667" />
<circle cx="806.34" cy="237.23" r="1.6666666666666667" />
<circle cx="806.34" cy="237.23" r="1.6666666666666667" />
<circle cx="806.34" cy="233.30" r="1.6666666666666667" />
<circle cx="806.34" cy="233.30" r="1.6666666666666667" />
<circle cx="806.34" cy="233.30" r="1.6666666666666667" />
<circle cx="806.34" cy="237.23" r="1.6666666666666667" />
<circle cx="806.34" cy="237.23" r="1.6666666666666667" />
<circle cx="806.34" cy="233.30" r="1.6666666666666667" />
<circle cx="806.34" cy="237.23" r="1.6666666666666667" />
<circle cx="806.34" cy="237.23" r="1.6666666666666667" />
<circle cx="806.34" cy="233.30" r="1.6666666666666667" />
<circle cx="806.34" cy="237.23" r="1.6666666666666667" />
<circle cx="806.34" cy="233.30" r="1.6666666666666667" />
<circle cx="806.34" cy="233.30" r="1.6666666666666667" />
<circle cx="806.34" cy="237.23" r="1.6666666666666667" />
<circle cx="806.34" cy="233.30" r="1.6666666666666667" />
<circle cx="806.34" cy="237.23" r="1.6666666666666667" />
<circle cx="806.34" cy="233.30" r="1.6666666666666667" />
<circle cx="806.34" cy="233.30" r="1.6666666666666667" />
<circle cx="806.34" cy="228.78" r="1.6666666666666667" />
<circle cx="806.34" cy="237.23" r="1.6666666666666667" />
<circle cx="806.34" cy="233.30" r="1.6666666666666667" />
<circle cx="806.34" cy="233.30" r="1.6666666666666667" />
<circle cx="806.34" cy="237.23" r="1.6666666666666667" />
<circle cx="806.34" cy="237.23" r="1.6666666666666667" />
<circle cx="806.34" cy="237.23" r="1.6666666666666667" />
<circle cx="806.34" cy="240.69" r="1.6666666666666667" />
<circle cx="806.34" cy="240.69" r="1.6666666666666667" />
<circle cx="806.34" cy="243.78" r="1.6666666666666667" />
<circle cx="806.34" cy="249.13" r="1.6666666666666667" />
<circle cx="806.34" cy="259.36" r="1.6666666666666667" />
<circle cx="806.35" cy="344.92" r="1.6666666666666667" />
<circle cx="806.91" cy="478.12" r="1.6666666666666667" />
<circle cx="823.20" cy="329.16" r="1.6666666666666667" />
<circle cx="823.20" cy="282.99" r="1.6666666666666667" />
<circle cx="823.20" cy="275.05" r="1.6666666666666667" />
<circle cx="823.20" cy="268.24" r="1.6666666666666667" />
<circle cx="823.20" cy="268.24" r="1.6666666666666667" />
<circle cx="823.20" cy="268.24" r="1.6666666666666667" />
<circle cx="823.20" cy="262.63" r="1.6666666666666667" />
<circle cx="823.20" cy="255.69" r="1.6666666666666667" />
<circle cx="823.20" cy="255.69" r="1.6666666666666667" />
<circle cx="823.21" cy="253.66" r="1.6666666666666667" />
<circle cx="823.21" cy="253.66" r="1.6666666666666667" />
<circle cx="823.21" cy="253.66" r="1.6666666666666667" />
<circle cx="823.21" cy="259.36" r="1.6666666666666667" />
<circle cx="823.21" cy="253.66" r="1.6666666666666667" />
<circle cx="823.21" cy="255.69" r="1.6666666666666667" />
<circle cx="823.21" cy="253.66" r="1.6666666666666667" />
<circle cx="823.21" cy="255.69" r="1.6666666666666667" />
<circle cx="823.21" cy="257.58" r="1.6666666666666667" />
<circle cx="823.21" cy="253.66" r="1.6666666666666667" />
<circle cx="823.21" cy="253.66" r="1.6666666666666667" />
<circle cx="823.21" cy="255.69" r="1.6666666666666667" />
<circle cx="823.21" cy="257.58" r="1.6666666666666667" />
<circle cx="823.21" cy="251.49" r="1.6666666666666667" />
<circle cx="823.21" cy="253.66" r="1.6666666666666667" />
<circle cx="823.21" cy="259.36" r="1.6666666666666667" />
<circle cx="823.21" cy="262.63" r="1.6666666666666667" />
<circle cx="823.21" cy="259.36" r="1.6666666666666667" />
<circle cx="823.21" cy="272.95" r="1.6666666666666667" />
<circle cx="823.21" cy="275.05" r="1.6666666666666667" />
<circle cx="823.21" cy="270.69" r="1.6666666666666667" />
<circle cx="823.21" cy="264.14" r="1.6666666666666667" />
<circle cx="823.21" cy="266.94" r="1.6666666666666667" />
<circle cx="823.21" cy="257.58" r="1.6666666666666667" />
<circle cx="823.21" cy="257.58" r="1.6666666666666667" />
<circle cx="823.21" cy="257.58" r="1.6666666666666667" />
<circle cx="823.21" cy="257.58" r="1.6666666666666667" />
<circle cx="823.21" cy="259.36" r="1.6666666666666667" />
<circle cx="823.21" cy="259.36" r="1.6666666666666667" />
<circle cx="823.21" cy="262.63" r="1.6666666666666667" />
<circle cx="823.22" cy="264.14" r="1.6666666666666667" />
<circle cx="823.22" cy="269.49" r="1.6666666666666667" />
<circle cx="823.22" cy="269.49" r="1.6666666666666667" />
<circle cx="823.22" cy="278.85" r="1.6666666666666667" />
<circle cx="823.22" cy="296.89" r="1.6666666666666667" />
<circle cx="823.22" cy="317.96" r="1.6666666666666667" />
<circle cx="823.22" cy="330.72" r="1.6666666666666667" />
<circle cx="823.23" cy="339.81" r="1.6666666666666667" />
<circle cx="823.24" cy="348.20" r="1.6666666666666667" />
<circle cx="823.24" cy="333.48" r="1.6666666666666667" />
<circle cx="823.25" cy="365.00" r="1.6666666666666667" />
<circle cx="823.26" cy="367.27" r="1.6666666666666667" />
</g>
<g stroke="black">
<line x1="839.86" x2="839.86" y1="510.00" y2="520.00" />
<line x1="791.78" x2="791.78" y1="510.00" y2="520.00" />
<line x1="740.39" x2="740.39" y1="510.00" y2="520.00" />
<line x1="689.00" x2="689.00" y1="510.00" y2="520.00" />
<line x1="639.26" x2="639.26" y1="510.00" y2="520.00" />
<line x1="587.87" x2="587.87" y1="510.00" y2="520.00" />
<line x1="538.13" x2="538.13" y1="510.00" y2="520.00" />
<line x1="486.74" x2="486.74" y1="510.00" y2="520.00" />
<line x1="435.35" x2="435.35" y1="510.00" y2="520.00" />
<line x1="385.61" x2="385.61" y1="510.00" y2="520.00" />
<line x1="334.22" x2="334.22" y1="510.00" y2="520.00" />
<line x1="284.48" x2="284.48" y1="510.00" y2="520.00" />
<line x1="233.09" x2="233.09" y1="510.00" y2="520.00" />
<line x1="186.67" x2="186.67" y1="510.00" y2="520.00" />
<g fill="black" font-family="Arial, sans-serif" font-size="18.0" stroke="none" text-anchor="start" transform="translate(9.0 0.0)">
<text x="839.86" y="530.57">Mar</text>
<text x="791.78" y="530.57">Feb</text>
<text x="740.39" y="530.57">Jan</text>
<text x="689.00" y="530.57">Dec</text>
<text x="639.26" y="530.57">Nov</text>
<text x="587.87" y="530.57">Oct</text>
<text x="538.13" y="530.57">Sep</text>
<text x="486.74" y="530.57">Aug</text>
<text x="435.35" y="530.57">Jul</text>
<text x="385.61" y="530.57">Jun</text>
<text x="334.22" y="530.57">May</text>
<text x="284.48" y="530.57">Apr</text>
<text x="233.09" y="530.57">Mar</text>
<text x="186.67" y="530.57">Feb</text>
</g>
<line x1="150.00" x2="850.00" y1="510.00" y2="510.00" />
</g>
<g stroke="black">
<line x1="150.00" x2="140.00" y1="510.00" y2="510.00" />
<line x1="150.00" x2="140.00" y1="216.29" y2="216.29" />
<g fill="black" font-family="Arial, sans-serif" font-size="18.0" stroke="none" text-anchor="end">
<text x="141.00" y="501.00">0</text>
<text x="141.00" y="207.29">10</text>
</g>
<line x1="150.00" x2="150.00" y1="510.00" y2="90.00" />
</g>
</g>
</svg>