<?xml version="1.0"?>
<svg version="1.1" viewBox="0 0 1000 600" xmlns:xlink="http://www.w3.org/1999/xlink" xmlns="http://www.w3.org/2000/svg">
<g>
<g stroke-dasharray="3.6 7.2" stroke-width="0.72" stroke="#caa">
<line x1="813.75" x2="813.75" y1="510.00" y2="90.00" />
<line x1="760.60" x2="760.60" y1="510.00" y2="90.00" />
<line x1="707.45" x2="707.45" y1="510.00" y2="90.00" />
<line x1="656.01" x2="656.01" y1="510.00" y2="90.00" />
<line x1="602.86" x2="602.86" y1="510.00" y2="90.00" />
<line x1="551.42" x2="551.42" y1="510.00" y2="90.00" />
<line x1="498.27" x2="498.27" y1="510.00" y2="90.00" />
<line x1="445.11" x2="445.11" y1="510.00" y2="90.00" />
<line x1="393.68" x2="393.68" y1="510.00" y2="90.00" />
<line x1="340.52" x2="340.52" y1="510.00" y2="90.00" />
<line x1="289.09" x2="289.09" y1="510.00" y2="90.00" />
<line x1="235.93" x2="235.93" y1="510.00" y2="90.00" />
<line x1="187.92" x2="187.92" y1="510.00" y2="90.00" />
<line x1="150.00" x2="850.00" y1="510.00" y2="510.00" />
<line x1="150.00" x2="850.00" y1="216.29" y2="216.29" />
</g>
<g>
<text dominant-baseline="hanging" dx="-36.0" dy="18.0" fill="#0004" font-family="Arial, sans-serif" font-size="36" stroke="none" text-anchor="end" x="850.00" y="128.18">R10</text>
</g>
<g>
<text dominant-baseline="text-bottom" dy="-12.0" fill="black" font-family="Arial, sans-serif" font-size="18.0" font-style="italic" stroke="none" text-anchor="middle" x="500.00" y="90.00">Years 2023 to 2024</text>
</g>
<g>
<text dominant-baseline="central" dx="12.0" dy="12.0" fill="black" font-family="Arial, sans-serif" font-size="18.0" font-style="italic" stroke="none" text-anchor="middle" text-orientation="sideways" writing-mode="vertical-lr" x="850.00" y="300.00">log(Drips per day)</text>
</g>
<polyline fill="none" points="827.17,303.73 827.17,301.76 827.18,351.00 827.18,324.66 827.22,400.28 827.99,486.30 828.80,488.05 828.80,223.42 828.80,243.78 828.80,271.84 828.80,251.49 828.80,253.66 828.80,257.58 828.80,259.36 828.80,268.24 828.80,274.02 828.80,268.24 828.80,265.57 828.80,262.63 828.81,265.57 828.81,246.58 828.81,240.69 828.81,240.69 828.81,240.69 828.81,249.13 828.81,249.13 828.81,249.13 828.81,261.04 828.81,261.04 828.81,264.14 828.81,262.63 828.81,249.13 828.81,237.23 828.81,240.69 828.81,233.30 828.81,237.23 828.81,233.30 828.81,237.23 828.81,237.23 828.81,233.30 828.81,233.30 828.81,233.30 828.81,237.23 828.81,237.23 828.81,233.30 828.81,237.23 828.81,237.23 828.81,233.30 828.81,237.23 828.81,233.30 828.81,233.30 828.81,237.23 828.81,233.30 828.81,237.23 828.81,233.30 828.81,233.30 828.81,228.78 828.81,237.23 828.81,233.30 828.81,233.30 828.81,237.23 828.81,237.23 828.81,237.23 828.81,240.69 828.81,240.69 828.81,243.78 828.81,249.13 828.81,259.36 828.82,344.92 829.40,478.12 846.25,329.16 846.25,282.99 846.25,275.05 846.25,268.24 846.25,268.24 846.25,268.24 846.25,262.63 846.25,255.69 846.25,255.69 846.25,253.66 846.25,253.66 846.25,253.66 846.25,259.36 846.25,253.66 846.25,255.69 846.25,253.66 846.25,255.69 846.26,257.58 846.26,253.66 846.26,253.66 846.26,255.69 846.26,257.58 846.26,251.49 846.26,253.66 846.26,259.36 846.26,262.63 846.26,259.36 846.26,272.95 846.26,275.05 846.26,270.69 846.26,264.14 846.26,266.94 846.26,257.58 846.26,257.58 846.26,257.58 846.26,257.58 846.26,259.36 846.26,259.36 846.26,262.63 846.26,264.14 846.26,269.49 846.26,269.49 846.26,278.85 846.27,296.89 846.27,317.96 846.27,330.72 846.28,339.81 846.28,348.20 846.29,333.48 846.30,365.00 846.31,367.27" stroke-dasharray="3.6 3.6" stroke-width="3.6" stroke="#aaa" />
<g>
<circle cx="827.17" cy="303.73" r="1.6666666666666667" />
<circle cx="827.17" cy="301.76" r="1.6666666666666667" />
<circle cx="827.18" cy="351.00" r="1.6666666666666667" />
<circle cx="827.18" cy="324.66" r="1.6666666666666667" />
<circle cx="827.22" cy="400.28" r="1.6666666666666667" />
<circle cx="827.99" cy="486.30" r="1.6666666666666667" />
<circle cx="828.80" cy="488.05" r="1.6666666666666667" />
<circle cx="828.80" cy="223.42" r="1.6666666666666667" />
<circle cx="828.80" cy="243.78" r="1.6666666666666667" />
<circle cx="828.80" cy="271.84" r="1.6666666666666667" />
<circle cx="828.80" cy="251.49" r="1.6666666666666667" />
<circle cx="828.80" cy="253.66" r="1.6666666666666667" />
<circle cx="828.80" cy="257.58" r="1.6666666666666667" />
<circle cx="828.80" cy="259.36" r="1.6666666666666667" />
<circle cx="828.80" cy="268.24" r="1.6666666666666667" />
<circle cx="828.80" cy="274.02" r="1.6666666666666667" />
<circle cx="828.80" cy="268.24" r="1.6666666666666667" />
<circle cx="828.80" cy="265.57" r="1.6666666666666667" />
<circle cx="828.80" cy="262.63" r="1.6666666666666667" />
<circle cx="828.81" cy="265.57" r="1.6666666666666667" />
<circle cx="828.81" cy="246.58" r="1.6666666666666667" />
<circle cx="828.81" cy="240.69" r="1.6666666666666667" />
<circle cx="828.81" cy="240.69" r="1.6666666666666667" />
<circle cx="828.81" cy="240.69" r="1.6666666666666667" />
<circle cx="828.81" cy="249.13" r="1.6666666666666667" />
<circle cx="828.81" cy="249.13" r="1.6666666666666667" />
<circle cx="828.81" cy="249.13" r="1.6666666666666667" />
<circle cx="828.81" cy="261.04" r="1.6666666666666667" />
<circle cx="828.81" cy="261.04" r="1.6666666666666667" />
<circle cx="828.81" cy="264.14" r="1.6666666666666667" />
<circle cx="828.81" cy="262.63" r="1.6666666666666667" />
<circle cx="828.81" cy="249.13" r="1.6666666666666667" />
<circle cx="828.81" cy="237.23" r="1.6666666666666667" />
<circle cx="828.81" cy="240.69" r="1.6666666666666667" />
<circle cx="828.81" cy="233.30" r="1.6666666666666667" />
<circle cx="828.81" cy="237.23" r="1.6666666666666667" />
<circle cx="828.81" cy="233.30" r="1.6666666666666667" />
<circle cx="828.81" cy="237.23" r="1.6666666666666667" />
<circle cx="828.81" cy="237.23" r="1.6666666666666667" />
<circle cx="828.81" cy="233.30" r="1.6666666666666667" />
<circle cx="828.81" cy="233.30" r="1.6666666666666667" />
<circle cx="828.81" cy="233.30" r="1.6666666666666667" />
<circle cx="828.81" cy="237.23" r="1.6666666666666667" />
<circle cx="828.81" cy="237.23" r="1.6666666666666667" />
<circle cx="828.81" cy="233.30" r="1.6666666666666667" />
<circle cx="828.81" cy="237.23" r="1.6666666666666667" />
<circle cx="828.81" cy="237.23" r="1.6666666666666667" />
<circle cx="828.81" cy="233.30" r="1.6666666666666667" />
<circle cx="828.81" cy="237.23" r="1.6666666666666667" />
<circle cx="828.81" cy="233.30" r="1.6666666666666667" />
<circle cx="828.81" cy="233.30" r="1.6666666666666667" />
<circle cx="828.81" cy="237.23" r="1.6666666666666667" />
<circle cx="828.81" cy="233.30" r="1.6666666666666667" />
<circle cx="828.81" cy="237.23" r="1.6666666666666667" />
<circle cx="828.81" cy="233.30" r="1.6666666666666667" />
<circle cx="828.81" cy="233.30" r="1.6666666666666667" />
<circle cx="828.81" cy="228.78" r="1.6666666666666667" />
<circle cx="828.81" cy="237.23" r="1.6666666666666667" />
<circle cx="828.81" cy="233.30" r="1.6666666666666667" />
<circle cx="828.81" cy="233.30" r="1.6666666666666667" />
<circle cx="828.81" cy="237.23" r="1.6666666666666667" />
<circle cx="828.81" cy="237.23" r="1.6666666666666667" />
<circle cx="828.81" cy="237.23" r="1.6666666666666667" />
<circle cx="828.81" cy="240.69" r="1.6666666666666667" />
<circle cx="828.81" cy="240.69" r="1.6666666666666667" />
<circle cx="828.81" cy="243.78" r="1.6666666666666667" />
<circle cx="828.81" cy="249.13" r="1.6666666666666667" />
<circle cx="828.81" cy="259.36" r="1.6666666666666667" />
<circle cx="828.82" cy="344.92" r="1.6666666666666667" />
<circle cx="829.40" cy="478.12" r="1.6666666666666667" />
<circle cx="846.25" cy="329.16" r="1.6666666666666667" />
<circle cx="846.25" cy="282.99" r="1.6666666666666667" />
<circle cx="846.25" cy="275.05" r="1.6666666666666667" />
<circle cx="846.25" cy="268.24" r="1.6666666666666667" />
<circle cx="846.25" cy="268.24" r="1.6666666666666667" />
<circle cx="846.25" cy="268.24" r="1.6666666666666667" />
<circle cx="846.25" cy="262.63" r="1.6666666666666667" />
<circle cx="846.25" cy="255.69" r="1.6666666666666667" />
<circle cx="846.25" cy="255.69" r="1.6666666666666667" />
<circle cx="846.25" cy="253.66" r="1.6666666666666667" />
<circle cx="846.25" cy="253.66" r="1.6666666666666667" />
<circle cx="846.25" cy="253.66" r="1.6666666666666667" />
<circle cx="846.25" cy="259.36" r="1.6666666666666667" />
<circle cx="846.25" cy="253.66" r="1.6666666666666667" />
<circle cx="846.25" cy="255.69" r="1.6666666666666667" />
<circle cx="846.25" cy="253.66" r="1.6666666666666667" />
<circle cx="846.25" cy="255.69" r="1.6666666666666667" />
<circle cx="846.26" cy="257.58" r="1.6666666666666667" />
<circle cx="846.26" cy="253.66" r="1.6666666666666667" />
<circle cx="846.26" cy="253.66" r="1.6666666666666667" />
<circle cx="846.26" cy="255.69" r="1.6666666666666667" />
<circle cx="846.26" cy="257.58" r="1.6666666666666667" />
<circle cx="846.26" cy="251.49" r="1.6666666666666667" />
<circle cx="846.26" cy="253.66" r="1.6666666666666667" />
<circle cx="846.26" cy="259.36" r="1.6666666666666667" />
<circle cx="846.26" cy="262.63" r="1.6666666666666667" />
<circle cx="846.26" cy="259.36" r="1.6666666666666667" />
<circle cx="846.26" cy="272.95" r="1.6666666666666667" />
<circle cx="846.26" cy="275.05" r="1.6666666666666667" />
<circle cx="846.26" cy="270.69" r="1.6666666666666667" />
<circle cx="846.26" cy="264.14" r="1.6666666666666667" />
<circle cx="846.26" cy="266.94" r="1.6666666666666667" />
<circle cx="846.26" cy="257.58" r="1.6666666666666667" />
<circle cx="846.26" cy="257.58" r="1.6666666666666667" />
<circle cx="846.26" cy="257.58" r="1.6666666666666667" />
<circle cx="846.26" cy="257.58" r="1.6666666666666667" />
<circle cx="846.26" cy="259.36" r="1.6666666666666667" />
<circle cx="846.26" cy="259.36" r="1.6666666666666667" />
<circle cx="846.26" cy="262.63" r="1.6666666666666667" />
<circle cx="846.26" cy="264.14" r="1.6666666666666667" />
<circle cx="846.26" cy="269.49" r="1.6666666666666667" />
<circle cx="846.26" cy="269.49" r="1.6666666666666667" />
<circle cx="846.26" cy="278.85" r="1.6666666666666667" />
<circle cx="846.27" cy="296.89" r="1.6666666666666667" />
<circle cx="846.27" cy="317.96" r="1.6666666666666667" />
<circle cx="846.27" cy="330.72" r="1.6666666666666667" />
<circle cx="846.28" cy="339.81" r="1.6666666666666667" />
<circle cx="846.28" cy="348.20" r="1.6666666666666667" />
<circle cx="846.29" cy="333.48" r="1.6666666666666667" />
<circle cx="846.30" cy="365.00" r="1.6666666666666667" />
<circle cx="846.31" cy="367.27" r="1.6666666666666667" />
</g>
<g stroke="black">
<line x1="813.75" x2="813.75" y1="510.00" y2="520.00" />
<line x1="760.60" x2="760.60" y1="510.00" y2="520.00" />
<line x1="707.45" x2="707.45" y1="510.00" y2="520.00" />
<line x1="656.01" x2="656.01" y1="510.00" y2="520.00" />
<line x1="602.86" x2="602.86" y1="510.00" y2="520.00" />
<line x1="551.42" x2="551.42" y1="510.00" y2="520.00" />
<line x1="498.27" x2="498.27" y1="510.00" y2="520.00" />
<line x1="445.11" x2="445.11" y1="510.00" y2="520.00" />
<line x1="393.68" x2="393.68" y1="510.00" y2="520.00" />
<line x1="340.52" x2="340.52" y1="510.00" y2="520.00" />
<line x1="289.09" x2="289.09" y1="510.00" y2="520.00" />
<line x1="235.93" x2="235.93" y1="510.00" y2="520.00" />
<line x1="187.92" x2="187.92" y1="510.00" y2="520.00" />
<g fill="black" font-family="Arial, sans-serif" font-size="18.0" stroke="none" text-anchor="start" transform="translate(9.0 0.0)">
<text x="813.75" y="530.57">Feb</text>
<text x="760.60" y="530.57">Jan</text>
<text x="707.45" y="530.57">Dec</text>
<text x="656.01" y="530.57">Nov</text>
<text x="602.86" y="530.57">Oct</text>
<text x="551.42" y="530.57">Sep</text>
<text x="498.27" y="530.57">Aug</text>
<text x="445.11" y="530.57">Jul</text>
<text x="393.68" y="530.57">Jun</text>
<text x="340.52" y="530.57">May</text>
<text x="289.09" y="530.57">Apr</text>
<text x="235.93" y="530.57">Mar</text>
<text x="187.92" y="530.57">Feb</text>
</g>
<line x1="150.00" x2="850.00" y1="510.00" y2="510.00" />
</g>
<g stroke="black">
<line x1="150.00" x2="140.00" y1="510.00" y2="510.00" />
<line x1="150.00" x2="140.00" y1="216.29" y2="216.29" />
<g fill="black" font-family="Arial, sans-serif" font-size="18.0" stroke="none" text-anchor="end">
<text x="141.00" y="501.00">0</text>
<text x="141.00" y="207.29">10</text>
</g>
<line x1="150.00" x2="150.00" y1="510.00" y2="90.00" />
</g>
</g>
</svg>