<?xml version="1.0"?>
<svg version="1.1" viewBox="0 0 1000 600" xmlns:xlink="http://www.w3.org/1999/xlink" xmlns="http://www.w3.org/2000/svg">
<g>
<g stroke-dasharray="3.6 7.2" stroke-width="0.72" stroke="#caa">
<line x1="828.41" x2="828.41" y1="510.00" y2="90.00" />
<line x1="785.75" x2="785.75" y1="510.00" y2="90.00" />
<line x1="741.68" x2="741.68" y1="510.00" y2="90.00" />
<line x1="700.44" x2="700.44" y1="510.00" y2="90.00" />
<line x1="656.36" x2="656.36" y1="510.00" y2="90.00" />
<line x1="612.28" x2="612.28" y1="510.00" y2="90.00" />
<line x1="569.63" x2="569.63" y1="510.00" y2="90.00" />
<line x1="525.55" x2="525.55" y1="510.00" y2="90.00" />
<line x1="482.89" x2="482.89" y1="510.00" y2="90.00" />
<line x1="438.81" x2="438.81" y1="510.00" y2="90.00" />
<line x1="394.73" x2="394.73" y1="510.00" y2="90.00" />
<line x1="352.08" x2="352.08" y1="510.00" y2="90.00" />
<line x1="308.00" x2="308.00" y1="510.00" y2="90.00" />
<line x1="265.34" x2="265.34" y1="510.00" y2="90.00" />
<line x1="221.26" x2="221.26" y1="510.00" y2="90.00" />
<line x1="181.45" x2="181.45" y1="510.00" y2="90.00" />
<line x1="150.00" x2="850.00" y1="510.00" y2="510.00" />
<line x1="150.00" x2="850.00" y1="216.29" y2="216.29" />
</g>
<g>
<text dominant-baseline="hanging" dx="-36.0" dy="18.0" fill="#0004" font-family="Arial, sans-serif" font-size="36" stroke="none" text-anchor="end" x="850.00" y="128.18">R10</text>
</g>
<g>
<text dominant-baseline="text-bottom" dy="-12.0" fill="black" font-family="Arial, sans-serif" font-size="18.0" font-style="italic" stroke="none" text-anchor="middle" x="500.00" y="90.00">Years 2023 to 2024</text>
</g>
<g>
<text dominant-baseline="hanging" dx="18.0" dy="18.0" fill="black" font-family="Arial, sans-serif" font-size="18.0" font-style="italic" stroke="none" text-anchor="beginning" text-orientation="sideways" x="150.00" y="90.00">log(Drips per day)</text>
</g>
<polyline fill="none" points="711.57,303.73 711.57,301.76 711.57,351.00 711.58,324.66 711.61,400.28 712.25,486.30 712.92,488.05 712.92,223.42 712.92,243.78 712.92,271.84 712.92,251.49 712.92,253.66 712.92,257.58 712.92,259.36 712.92,268.24 712.92,274.02 712.92,268.24 712.92,265.57 712.92,262.63 712.92,265.57 712.92,246.58 712.92,240.69 712.92,240.69 712.92,240.69 712.92,249.13 712.92,249.13 712.92,249.13 712.92,261.04 712.92,261.04 712.92,264.14 712.92,262.63 712.93,249.13 712.93,237.23 712.93,240.69 712.93,233.30 712.93,237.23 712.93,233.30 712.93,237.23 712.93,237.23 712.93,233.30 712.93,233.30 712.93,233.30 712.93,237.23 712.93,237.23 712.93,233.30 712.93,237.23 712.93,237.23 712.93,233.30 712.93,237.23 712.93,233.30 712.93,233.30 712.93,237.23 712.93,233.30 712.93,237.23 712.93,233.30 712.93,233.30 712.93,228.78 712.93,237.23 712.93,233.30 712.93,233.30 712.93,237.23 712.93,237.23 712.93,237.23 712.93,240.69 712.93,240.69 712.93,243.78 712.93,249.13 712.93,259.36 712.94,344.92 713.42,478.12 727.39,329.16 727.39,282.99 727.39,275.05 727.39,268.24 727.39,268.24 727.39,268.24 727.39,262.63 727.39,255.69 727.39,255.69 727.39,253.66 727.39,253.66 727.39,253.66 727.39,259.36 727.39,253.66 727.39,255.69 727.39,253.66 727.39,255.69 727.39,257.58 727.39,253.66 727.39,253.66 727.39,255.69 727.39,257.58 727.39,251.49 727.39,253.66 727.40,259.36 727.40,262.63 727.40,259.36 727.40,272.95 727.40,275.05 727.40,270.69 727.40,264.14 727.40,266.94 727.40,257.58 727.40,257.58 727.40,257.58 727.40,257.58 727.40,259.36 727.40,259.36 727.40,262.63 727.40,264.14 727.40,269.49 727.40,269.49 727.40,278.85 727.40,296.89 727.40,317.96 727.41,330.72 727.41,339.81 727.42,348.20 727.42,333.48 727.43,365.00 727.44,367.27" stroke-dasharray="3.6 3.6" stroke-width="3.6" stroke="#aaa" />
<g>
<circle cx="711.57" cy="303.73" r="1.6666666666666667" />
<circle cx="711.57" cy="301.76" r="1.6666666666666667" />
<circle cx="711.57" cy="351.00" r="1.6666666666666667" />
<circle cx="711.58" cy="324.66" r="1.6666666666666667" />
<circle cx="711.61" cy="400.28" r="1.6666666666666667" />
<circle cx="712.25" cy="486.30" r="1.6666666666666667" />
<circle cx="712.92" cy="488.05" r="1.6666666666666667" />
<circle cx="712.92" cy="223.42" r="1.6666666666666667" />
<circle cx="712.92" cy="243.78" r="1.6666666666666667" />
<circle cx="712.92" cy="271.84" r="1.6666666666666667" />
<circle cx="712.92" cy="251.49" r="1.6666666666666667" />
<circle cx="712.92" cy="253.66" r="1.6666666666666667" />
<circle cx="712.92" cy="257.58" r="1.6666666666666667" />
<circle cx="712.92" cy="259.36" r="1.6666666666666667" />
<circle cx="712.92" cy="268.24" r="1.6666666666666667" />
<circle cx="712.92" cy="274.02" r="1.6666666666666667" />
<circle cx="712.92" cy="268.24" r="1.6666666666666667" />
<circle cx="712.92" cy="265.57" r="1.6666666666666667" />
<circle cx="712.92" cy="262.63" r="1.6666666666666667" />
<circle cx="712.92" cy="265.57" r="1.6666666666666667" />
<circle cx="712.92" cy="246.58" r="1.6666666666666667" />
<circle cx="712.92" cy="240.69" r="1.6666666666666667" />
<circle cx="712.92" cy="240.69" r="1.6666666666666667" />
<circle cx="712.92" cy="240.69" r="1.6666666666666667" />
<circle cx="712.92" cy="249.13" r="1.6666666666666667" />
<circle cx="712.92" cy="249.13" r="1.6666666666666667" />
<circle cx="712.92" cy="249.13" r="1.6666666666666667" />
<circle cx="712.92" cy="261.04" r="1.6666666666666667" />
<circle cx="712.92" cy="261.04" r="1.6666666666666667" />
<circle cx="712.92" cy="264.14" r="1.6666666666666667" />
<circle cx="712.92" cy="262.63" r="1.6666666666666667" />
<circle cx="712.93" cy="249.13" r="1.6666666666666667" />
<circle cx="712.93" cy="237.23" r="1.6666666666666667" />
<circle cx="712.93" cy="240.69" r="1.6666666666666667" />
<circle cx="712.93" cy="233.30" r="1.6666666666666667" />
<circle cx="712.93" cy="237.23" r="1.6666666666666667" />
<circle cx="712.93" cy="233.30" r="1.6666666666666667" />
<circle cx="712.93" cy="237.23" r="1.6666666666666667" />
<circle cx="712.93" cy="237.23" r="1.6666666666666667" />
<circle cx="712.93" cy="233.30" r="1.6666666666666667" />
<circle cx="712.93" cy="233.30" r="1.6666666666666667" />
<circle cx="712.93" cy="233.30" r="1.6666666666666667" />
<circle cx="712.93" cy="237.23" r="1.6666666666666667" />
<circle cx="712.93" cy="237.23" r="1.6666666666666667" />
<circle cx="712.93" cy="233.30" r="1.6666666666666667" />
<circle cx="712.93" cy="237.23" r="1.6666666666666667" />
<circle cx="712.93" cy="237.23" r="1.6666666666666667" />
<circle cx="712.93" cy="233.30" r="1.6666666666666667" />
<circle cx="712.93" cy="237.23" r="1.6666666666666667" />
<circle cx="712.93" cy="233.30" r="1.6666666666666667" />
<circle cx="712.93" cy="233.30" r="1.6666666666666667" />
<circle cx="712.93" cy="237.23" r="1.6666666666666667" />
<circle cx="712.93" cy="233.30" r="1.6666666666666667" />
<circle cx="712.93" cy="237.23" r="1.6666666666666667" />
<circle cx="712.93" cy="233.30" r="1.6666666666666667" />
<circle cx="712.93" cy="233.30" r="1.6666666666666667" />
<circle cx="712.93" cy="228.78" r="1.6666666666666667" />
<circle cx="712.93" cy="237.23" r="1.6666666666666667" />
<circle cx="712.93" cy="233.30" r="1.6666666666666667" />
<circle cx="712.93" cy="233.30" r="1.6666666666666667" />
<circle cx="712.93" cy="237.23" r="1.6666666666666667" />
<circle cx="712.93" cy="237.23" r="1.6666666666666667" />
<circle cx="712.93" cy="237.23" r="1.6666666666666667" />
<circle cx="712.93" cy="240.69" r="1.6666666666666667" />
<circle cx="712.93" cy="240.69" r="1.6666666666666667" />
<circle cx="712.93" cy="243.78" r="1.6666666666666667" />
<circle cx="712.93" cy="249.13" r="1.6666666666666667" />
<circle cx="712.93" cy="259.36" r="1.6666666666666667" />
<circle cx="712.94" cy="344.92" r="1.6666666666666667" />
<circle cx="713.42" cy="478.12" r="1.6666666666666667" />
<circle cx="727.39" cy="329.16" r="1.6666666666666667" />
<circle cx="727.39" cy="282.99" r="1.6666666666666667" />
<circle cx="727.39" cy="275.05" r="1.6666666666666667" />
<circle cx="727.39" cy="268.24" r="1.6666666666666667" />
<circle cx="727.39" cy="268.24" r="1.6666666666666667" />
<circle cx="727.39" cy="268.24" r="1.6666666666666667" />
<circle cx="727.39" cy="262.63" r="1.6666666666666667" />
<circle cx="727.39" cy="255.69" r="1.6666666666666667" />
<circle cx="727.39" cy="255.69" r="1.6666666666666667" />
<circle cx="727.39" cy="253.66" r="1.6666666666666667" />
<circle cx="727.39" cy="253.66" r="1.6666666666666667" />
<circle cx="727.39" cy="253.66" r="1.6666666666666667" />
<circle cx="727.39" cy="259.36" r="1.6666666666666667" />
<circle cx="727.39" cy="253.66" r="1.6666666666666667" />
<circle cx="727.39" cy="255.69" r="1.6666666666666667" />
<circle cx="727.39" cy="253.66" r="1.6666666666666667" />
<circle cx="727.39" cy="255.69" r="1.6666666666666667" />
<circle cx="727.39" cy="257.58" r="1.6666666666666667" />
<circle cx="727.39" cy="253.66" r="1.6666666666666667" />
<circle cx="727.39" cy="253.66" r="1.6666666666666667" />
<circle cx="727.39" cy="255.69" r="1.6666666666666667" />
<circle cx="727.39" cy="257.58" r="1.6666666666666667" />
<circle cx="727.39" cy="251.49" r="1.6666666666666667" />
<circle cx="727.39" cy="253.66" r="1.6666666666666667" />
<circle cx="727.40" cy="259.36" r="1.6666666666666667" />
<circle cx="727.40" cy="262.63" r="1.6666666666666667" />
<circle cx="727.40" cy="259.36" r="1.6666666666666667" />
<circle cx="727.40" cy="272.95" r="1.6666666666666667" />
<circle cx="727.40" cy="275.05" r="1.6666666666666667" />
<circle cx="727.40" cy="270.69" r="1.6666666666666667" />
<circle cx="727.40" cy="264.14" r="1.6666666666666667" />
<circle cx="727.40" cy="266.94" r="1.6666666666666667" />
<circle cx="727.40" cy="257.58" r="1.6666666666666667" />
<circle cx="727.40" cy="257.58" r="1.6666666666666667" />
<circle cx="727.40" cy="257.58" r="1.6666666666666667" />
<circle cx="727.40" cy="257.58" r="1.6666666666666667" />
<circle cx="727.40" cy="259.36" r="1.6666666666666667" />
<circle cx="727.40" cy="259.36" r="1.6666666666666667" />
<circle cx="727.40" cy="262.63" r="1.6666666666666667" />
<circle cx="727.40" cy="264.14" r="1.6666666666666667" />
<circle cx="727.40" cy="269.49" r="1.6666666666666667" />
<circle cx="727.40" cy="269.49" r="1.6666666666666667" />
<circle cx="727.40" cy="278.85" r="1.6666666666666667" />
<circle cx="727.40" cy="296.89" r="1.6666666666666667" />
<circle cx="727.40" cy="317.96" r="1.6666666666666667" />
<circle cx="727.41" cy="330.72" r="1.6666666666666667" />
<circle cx="727.41" cy="339.81" r="1.6666666666666667" />
<circle cx="727.42" cy="348.20" r="1.6666666666666667" />
<circle cx="727.42" cy="333.48" r="1.6666666666666667" />
<circle cx="727.43" cy="365.00" r="1.6666666666666667" />
<circle cx="727.44" cy="367.27" r="1.6666666666666667" />
</g>
<g stroke="black">
<line x1="828.41" x2="828.41" y1="510.00" y2="520.00" />
<line x1="785.75" x2="785.75" y1="510.00" y2="520.00" />
<line x1="741.68" x2="741.68" y1="510.00" y2="520.00" />
<line x1="700.44" x2="700.44" y1="510.00" y2="520.00" />
<line x1="656.36" x2="656.36" y1="510.00" y2="520.00" />
<line x1="612.28" x2="612.28" y1="510.00" y2="520.00" />
<line x1="569.63" x2="569.63" y1="510.00" y2="520.00" />
<line x1="525.55" x2="525.55" y1="510.00" y2="520.00" />
<line x1="482.89" x2="482.89" y1="510.00" y2="520.00" />
<line x1="438.81" x2="438.81" y1="510.00" y2="520.00" />
<line x1="394.73" x2="394.73" y1="510.00" y2="520.00" />
<line x1="352.08" x2="352.08" y1="510.00" y2="520.00" />
<line x1="308.00" x2="308.00" y1="510.00" y2="520.00" />
<line x1="265.34" x2="265.34" y1="510.00" y2="520.00" />
<line x1="221.26" x2="221.26" y1="510.00" y2="520.00" />
<line x1="181.45" x2="181.45" y1="510.00" y2="520.00" />
<g fill="black" font-family="Arial, sans-serif" font-size="18.0" stroke="none" text-anchor="start" transform="translate(9.0 0.0)">
<text x="828.41" y="530.57">May</text>
<text x="785.75" y="530.57">Apr</text>
<text x="741.68" y="530.57">Mar</text>
<text x="700.44" y="530.57">Feb</text>
<text x="656.36" y="530.57">Jan</text>
<text x="612.28" y="530.57">Dec</text>
<text x="569.63" y="530.57">Nov</text>
<text x="525.55" y="530.57">Oct</text>
<text x="482.89" y="530.57">Sep</text>
<text x="438.81" y="530.57">Aug</text>
<text x="394.73" y="530.57">Jul</text>
<text x="352.08" y="530.57">Jun</text>
<text x="308.00" y="530.57">May</text>
<text x="265.34" y="530.57">Apr</text>
<text x="221.26" y="530.57">Mar</text>
<text x="181.45" y="530.57">Feb</text>
</g>
<line x1="150.00" x2="850.00" y1="510.00" y2="510.00" />
</g>
<g stroke="black">
<line x1="150.00" x2="138.00" y1="510.00" y2="510.00" />
<line x1="150.00" x2="138.00" y1="216.29" y2="216.29" />
<g fill="black" font-family="Arial, sans-serif" font-size="18.0" stroke="none" text-anchor="end">
<text x="141.00" y="501.00">0</text>
<text x="141.00" y="207.29">10</text>
</g>
<line x1="150.00" x2="150.00" y1="510.00" y2="90.00" />
</g>
</g>
</svg>