<?xml version="1.0"?>
<svg version="1.1" viewBox="0 0 1000 600" xmlns:xlink="http://www.w3.org/1999/xlink" xmlns="http://www.w3.org/2000/svg">
<g>
<g stroke-dasharray="3.6 7.2" stroke-width="0.72" stroke="#caa">
<line x1="828.41" x2="828.41" y1="510.00" y2="90.00" />
<line x1="785.75" x2="785.75" y1="510.00" y2="90.00" />
<line x1="741.68" x2="741.68" y1="510.00" y2="90.00" />
<line x1="700.44" x2="700.44" y1="510.00" y2="90.00" />
<line x1="656.36" x2="656.36" y1="510.00" y2="90.00" />
<line x1="612.28" x2="612.28" y1="510.00" y2="90.00" />
<line x1="569.63" x2="569.63" y1="510.00" y2="90.00" />
<line x1="525.55" x2="525.55" y1="510.00" y2="90.00" />
<line x1="482.89" x2="482.89" y1="510.00" y2="90.00" />
<line x1="438.81" x2="438.81" y1="510.00" y2="90.00" />
<line x1="394.73" x2="394.73" y1="510.00" y2="90.00" />
<line x1="352.08" x2="352.08" y1="510.00" y2="90.00" />
<line x1="308.00" x2="308.00" y1="510.00" y2="90.00" />
<line x1="265.34" x2="265.34" y1="510.00" y2="90.00" />
<line x1="221.26" x2="221.26" y1="510.00" y2="90.00" />
<line x1="181.45" x2="181.45" y1="510.00" y2="90.00" />
<line x1="150.00" x2="850.00" y1="510.00" y2="510.00" />
<line x1="150.00" x2="850.00" y1="216.29" y2="216.29" />
</g>
<g>
<text dominant-baseline="hanging" dx="-36.0" dy="18.0" fill="#0004" font-family="Arial, sans-serif" font-size="36" stroke="none" text-anchor="end" x="850.00" y="128.18">R11</text>
</g>
<g>
<text dominant-baseline="text-bottom" dy="-12.0" fill="black" font-family="Arial, sans-serif" font-size="18.0" font-style="italic" stroke="none" text-anchor="middle" x="500.00" y="90.00">Years 2023 to 2024</text>
</g>
<g>
<text dominant-baseline="hanging" dx="18.0" dy="18.0" fill="black" font-family="Arial, sans-serif" font-size="18.0" font-style="italic" stroke="none" text-anchor="beginning" text-orientation="sideways" x="150.00" y="90.00">log(Drips per day)</text>
</g>
<polyline fill="none" points="524.14,470.27 524.45,464.57 524.80,469.47 525.04,457.03 525.39,468.99 525.64,458.50 525.97,467.62 526.19,454.36 526.51,466.48 526.77,460.63 527.11,467.80 527.38,460.78 527.71,467.58 527.98,460.92 528.32,468.37 528.63,464.38 529.01,471.39 529.33,466.12 529.74,473.87 530.08,467.47 530.49,473.62 530.83,468.28 531.24,473.60 531.57,467.08 644.49,446.01 644.66,446.75 644.84,448.99 645.01,447.74 645.18,448.32 645.36,448.06 645.52,447.17 645.69,447.56 645.86,446.83 646.03,447.46 646.19,446.86 646.36,447.47 646.53,447.42 646.71,448.53 646.88,448.23 647.05,448.38 647.23,448.10 647.39,446.96 647.56,447.68 647.74,448.11 647.91,447.96 648.08,447.05 648.25,448.40 648.42,448.38 648.59,446.25 648.75,446.50 648.92,446.84 649.08,446.87 649.25,446.93 649.41,446.90 649.58,447.88 649.74,445.67 649.91,447.16 650.08,447.17 650.24,446.74 650.41,446.19 650.57,446.98 650.74,447.04 650.91,448.20 651.08,447.71 651.25,447.17 651.42,446.98 651.58,446.51 651.75,446.79 651.91,447.38 652.08,447.38 652.26,448.10 652.42,447.28 652.59,446.78 652.75,446.66 652.92,447.30 653.08,446.00 653.25,447.16 653.41,446.19 653.57,446.41 653.74,446.15 653.90,446.97 654.07,447.19 654.24,447.84 654.41,447.26 654.57,446.77 654.75,447.74 654.92,447.91 655.09,447.74 655.25,446.77 655.42,447.51 655.59,448.07 655.77,447.75 655.93,447.36 656.11,447.94 656.28,447.85 656.45,447.58 656.61,447.07 656.78,447.31 656.96,448.26 657.13,447.47 657.29,447.12 657.46,447.75 657.64,448.02 657.80,447.08 657.97,446.73 658.13,446.63 658.30,447.13 658.46,446.95 658.63,447.22 658.79,445.26 658.95,446.37 659.11,445.96 659.28,446.98 659.44,446.46 659.61,446.95 659.78,447.74 659.95,447.05 660.11,446.59 660.28,447.09 660.44,446.63 660.61,447.96 660.78,447.38 660.95,447.75" stroke-dasharray="3.6 3.6" stroke-width="3.6" stroke="#aaa" />
<g>
<circle cx="524.14" cy="470.27" r="1.6666666666666667" />
<circle cx="524.45" cy="464.57" r="1.6666666666666667" />
<circle cx="524.80" cy="469.47" r="1.6666666666666667" />
<circle cx="525.04" cy="457.03" r="1.6666666666666667" />
<circle cx="525.39" cy="468.99" r="1.6666666666666667" />
<circle cx="525.64" cy="458.50" r="1.6666666666666667" />
<circle cx="525.97" cy="467.62" r="1.6666666666666667" />
<circle cx="526.19" cy="454.36" r="1.6666666666666667" />
<circle cx="526.51" cy="466.48" r="1.6666666666666667" />
<circle cx="526.77" cy="460.63" r="1.6666666666666667" />
<circle cx="527.11" cy="467.80" r="1.6666666666666667" />
<circle cx="527.38" cy="460.78" r="1.6666666666666667" />
<circle cx="527.71" cy="467.58" r="1.6666666666666667" />
<circle cx="527.98" cy="460.92" r="1.6666666666666667" />
<circle cx="528.32" cy="468.37" r="1.6666666666666667" />
<circle cx="528.63" cy="464.38" r="1.6666666666666667" />
<circle cx="529.01" cy="471.39" r="1.6666666666666667" />
<circle cx="529.33" cy="466.12" r="1.6666666666666667" />
<circle cx="529.74" cy="473.87" r="1.6666666666666667" />
<circle cx="530.08" cy="467.47" r="1.6666666666666667" />
<circle cx="530.49" cy="473.62" r="1.6666666666666667" />
<circle cx="530.83" cy="468.28" r="1.6666666666666667" />
<circle cx="531.24" cy="473.60" r="1.6666666666666667" />
<circle cx="531.57" cy="467.08" r="1.6666666666666667" />
<circle cx="644.49" cy="446.01" r="1.6666666666666667" />
<circle cx="644.66" cy="446.75" r="1.6666666666666667" />
<circle cx="644.84" cy="448.99" r="1.6666666666666667" />
<circle cx="645.01" cy="447.74" r="1.6666666666666667" />
<circle cx="645.18" cy="448.32" r="1.6666666666666667" />
<circle cx="645.36" cy="448.06" r="1.6666666666666667" />
<circle cx="645.52" cy="447.17" r="1.6666666666666667" />
<circle cx="645.69" cy="447.56" r="1.6666666666666667" />
<circle cx="645.86" cy="446.83" r="1.6666666666666667" />
<circle cx="646.03" cy="447.46" r="1.6666666666666667" />
<circle cx="646.19" cy="446.86" r="1.6666666666666667" />
<circle cx="646.36" cy="447.47" r="1.6666666666666667" />
<circle cx="646.53" cy="447.42" r="1.6666666666666667" />
<circle cx="646.71" cy="448.53" r="1.6666666666666667" />
<circle cx="646.88" cy="448.23" r="1.6666666666666667" />
<circle cx="647.05" cy="448.38" r="1.6666666666666667" />
<circle cx="647.23" cy="448.10" r="1.6666666666666667" />
<circle cx="647.39" cy="446.96" r="1.6666666666666667" />
<circle cx="647.56" cy="447.68" r="1.6666666666666667" />
<circle cx="647.74" cy="448.11" r="1.6666666666666667" />
<circle cx="647.91" cy="447.96" r="1.6666666666666667" />
<circle cx="648.08" cy="447.05" r="1.6666666666666667" />
<circle cx="648.25" cy="448.40" r="1.6666666666666667" />
<circle cx="648.42" cy="448.38" r="1.6666666666666667" />
<circle cx="648.59" cy="446.25" r="1.6666666666666667" />
<circle cx="648.75" cy="446.50" r="1.6666666666666667" />
<circle cx="648.92" cy="446.84" r="1.6666666666666667" />
<circle cx="649.08" cy="446.87" r="1.6666666666666667" />
<circle cx="649.25" cy="446.93" r="1.6666666666666667" />
<circle cx="649.41" cy="446.90" r="1.6666666666666667" />
<circle cx="649.58" cy="447.88" r="1.6666666666666667" />
<circle cx="649.74" cy="445.67" r="1.6666666666666667" />
<circle cx="649.91" cy="447.16" r="1.6666666666666667" />
<circle cx="650.08" cy="447.17" r="1.6666666666666667" />
<circle cx="650.24" cy="446.74" r="1.6666666666666667" />
<circle cx="650.41" cy="446.19" r="1.6666666666666667" />
<circle cx="650.57" cy="446.98" r="1.6666666666666667" />
<circle cx="650.74" cy="447.04" r="1.6666666666666667" />
<circle cx="650.91" cy="448.20" r="1.6666666666666667" />
<circle cx="651.08" cy="447.71" r="1.6666666666666667" />
<circle cx="651.25" cy="447.17" r="1.6666666666666667" />
<circle cx="651.42" cy="446.98" r="1.6666666666666667" />
<circle cx="651.58" cy="446.51" r="1.6666666666666667" />
<circle cx="651.75" cy="446.79" r="1.6666666666666667" />
<circle cx="651.91" cy="447.38" r="1.6666666666666667" />
<circle cx="652.08" cy="447.38" r="1.6666666666666667" />
<circle cx="652.26" cy="448.10" r="1.6666666666666667" />
<circle cx="652.42" cy="447.28" r="1.6666666666666667" />
<circle cx="652.59" cy="446.78" r="1.6666666666666667" />
<circle cx="652.75" cy="446.66" r="1.6666666666666667" />
<circle cx="652.92" cy="447.30" r="1.6666666666666667" />
<circle cx="653.08" cy="446.00" r="1.6666666666666667" />
<circle cx="653.25" cy="447.16" r="1.6666666666666667" />
<circle cx="653.41" cy="446.19" r="1.6666666666666667" />
<circle cx="653.57" cy="446.41" r="1.6666666666666667" />
<circle cx="653.74" cy="446.15" r="1.6666666666666667" />
<circle cx="653.90" cy="446.97" r="1.6666666666666667" />
<circle cx="654.07" cy="447.19" r="1.6666666666666667" />
<circle cx="654.24" cy="447.84" r="1.6666666666666667" />
<circle cx="654.41" cy="447.26" r="1.6666666666666667" />
<circle cx="654.57" cy="446.77" r="1.6666666666666667" />
<circle cx="654.75" cy="447.74" r="1.6666666666666667" />
<circle cx="654.92" cy="447.91" r="1.6666666666666667" />
<circle cx="655.09" cy="447.74" r="1.6666666666666667" />
<circle cx="655.25" cy="446.77" r="1.6666666666666667" />
<circle cx="655.42" cy="447.51" r="1.6666666666666667" />
<circle cx="655.59" cy="448.07" r="1.6666666666666667" />
<circle cx="655.77" cy="447.75" r="1.6666666666666667" />
<circle cx="655.93" cy="447.36" r="1.6666666666666667" />
<circle cx="656.11" cy="447.94" r="1.6666666666666667" />
<circle cx="656.28" cy="447.85" r="1.6666666666666667" />
<circle cx="656.45" cy="447.58" r="1.6666666666666667" />
<circle cx="656.61" cy="447.07" r="1.6666666666666667" />
<circle cx="656.78" cy="447.31" r="1.6666666666666667" />
<circle cx="656.96" cy="448.26" r="1.6666666666666667" />
<circle cx="657.13" cy="447.47" r="1.6666666666666667" />
<circle cx="657.29" cy="447.12" r="1.6666666666666667" />
<circle cx="657.46" cy="447.75" r="1.6666666666666667" />
<circle cx="657.64" cy="448.02" r="1.6666666666666667" />
<circle cx="657.80" cy="447.08" r="1.6666666666666667" />
<circle cx="657.97" cy="446.73" r="1.6666666666666667" />
<circle cx="658.13" cy="446.63" r="1.6666666666666667" />
<circle cx="658.30" cy="447.13" r="1.6666666666666667" />
<circle cx="658.46" cy="446.95" r="1.6666666666666667" />
<circle cx="658.63" cy="447.22" r="1.6666666666666667" />
<circle cx="658.79" cy="445.26" r="1.6666666666666667" />
<circle cx="658.95" cy="446.37" r="1.6666666666666667" />
<circle cx="659.11" cy="445.96" r="1.6666666666666667" />
<circle cx="659.28" cy="446.98" r="1.6666666666666667" />
<circle cx="659.44" cy="446.46" r="1.6666666666666667" />
<circle cx="659.61" cy="446.95" r="1.6666666666666667" />
<circle cx="659.78" cy="447.74" r="1.6666666666666667" />
<circle cx="659.95" cy="447.05" r="1.6666666666666667" />
<circle cx="660.11" cy="446.59" r="1.6666666666666667" />
<circle cx="660.28" cy="447.09" r="1.6666666666666667" />
<circle cx="660.44" cy="446.63" r="1.6666666666666667" />
<circle cx="660.61" cy="447.96" r="1.6666666666666667" />
<circle cx="660.78" cy="447.38" r="1.6666666666666667" />
<circle cx="660.95" cy="447.75" r="1.6666666666666667" />
</g>
<g stroke="black">
<line x1="828.41" x2="828.41" y1="510.00" y2="520.00" />
<line x1="785.75" x2="785.75" y1="510.00" y2="520.00" />
<line x1="741.68" x2="741.68" y1="510.00" y2="520.00" />
<line x1="700.44" x2="700.44" y1="510.00" y2="520.00" />
<line x1="656.36" x2="656.36" y1="510.00" y2="520.00" />
<line x1="612.28" x2="612.28" y1="510.00" y2="520.00" />
<line x1="569.63" x2="569.63" y1="510.00" y2="520.00" />
<line x1="525.55" x2="525.55" y1="510.00" y2="520.00" />
<line x1="482.89" x2="482.89" y1="510.00" y2="520.00" />
<line x1="438.81" x2="438.81" y1="510.00" y2="520.00" />
<line x1="394.73" x2="394.73" y1="510.00" y2="520.00" />
<line x1="352.08" x2="352.08" y1="510.00" y2="520.00" />
<line x1="308.00" x2="308.00" y1="510.00" y2="520.00" />
<line x1="265.34" x2="265.34" y1="510.00" y2="520.00" />
<line x1="221.26" x2="221.26" y1="510.00" y2="520.00" />
<line x1="181.45" x2="181.45" y1="510.00" y2="520.00" />
<g fill="black" font-family="Arial, sans-serif" font-size="18.0" stroke="none" text-anchor="start" transform="translate(9.0 0.0)">
<text x="828.41" y="530.57">May</text>
<text x="785.75" y="530.57">Apr</text>
<text x="741.68" y="530.57">Mar</text>
<text x="700.44" y="530.57">Feb</text>
<text x="656.36" y="530.57">Jan</text>
<text x="612.28" y="530.57">Dec</text>
<text x="569.63" y="530.57">Nov</text>
<text x="525.55" y="530.57">Oct</text>
<text x="482.89" y="530.57">Sep</text>
<text x="438.81" y="530.57">Aug</text>
<text x="394.73" y="530.57">Jul</text>
<text x="352.08" y="530.57">Jun</text>
<text x="308.00" y="530.57">May</text>
<text x="265.34" y="530.57">Apr</text>
<text x="221.26" y="530.57">Mar</text>
<text x="181.45" y="530.57">Feb</text>
</g>
<line x1="150.00" x2="850.00" y1="510.00" y2="510.00" />
</g>
<g stroke="black">
<line x1="150.00" x2="138.00" y1="510.00" y2="510.00" />
<line x1="150.00" x2="138.00" y1="216.29" y2="216.29" />
<g fill="black" font-family="Arial, sans-serif" font-size="18.0" stroke="none" text-anchor="end">
<text x="141.00" y="501.00">0</text>
<text x="141.00" y="207.29">10</text>
</g>
<line x1="150.00" x2="150.00" y1="510.00" y2="90.00" />
</g>
</g>
</svg>