<?xml version="1.0"?>
<svg version="1.1" viewBox="0 0 1000 600" xmlns:xlink="http://www.w3.org/1999/xlink" xmlns="http://www.w3.org/2000/svg">
<g>
<g stroke-dasharray="3.6 7.2" stroke-width="0.72" stroke="#caa">
<line x1="839.86" x2="839.86" y1="510.00" y2="90.00" />
<line x1="791.78" x2="791.78" y1="510.00" y2="90.00" />
<line x1="740.39" x2="740.39" y1="510.00" y2="90.00" />
<line x1="689.00" x2="689.00" y1="510.00" y2="90.00" />
<line x1="639.26" x2="639.26" y1="510.00" y2="90.00" />
<line x1="587.87" x2="587.87" y1="510.00" y2="90.00" />
<line x1="538.13" x2="538.13" y1="510.00" y2="90.00" />
<line x1="486.74" x2="486.74" y1="510.00" y2="90.00" />
<line x1="435.35" x2="435.35" y1="510.00" y2="90.00" />
<line x1="385.61" x2="385.61" y1="510.00" y2="90.00" />
<line x1="334.22" x2="334.22" y1="510.00" y2="90.00" />
<line x1="284.48" x2="284.48" y1="510.00" y2="90.00" />
<line x1="233.09" x2="233.09" y1="510.00" y2="90.00" />
<line x1="186.67" x2="186.67" y1="510.00" y2="90.00" />
<line x1="150.00" x2="850.00" y1="510.00" y2="510.00" />
<line x1="150.00" x2="850.00" y1="216.29" y2="216.29" />
</g>
<g>
<text dominant-baseline="hanging" dx="-36.0" dy="18.0" fill="#0004" font-family="Arial, sans-serif" font-size="36" stroke="none" text-anchor="end" x="850.00" y="128.18">R11</text>
</g>
<g>
<text dominant-baseline="text-bottom" dy="-12.0" fill="black" font-family="Arial, sans-serif" font-size="18.0" font-style="italic" stroke="none" text-anchor="middle" x="500.00" y="90.00">Years 2023 to 2024</text>
</g>
<g>
<text dominant-baseline="central" dx="12.0" dy="12.0" fill="black" font-family="Arial, sans-serif" font-size="18.0" font-style="italic" stroke="none" text-anchor="middle" text-orientation="sideways" writing-mode="vertical-lr" x="850.00" y="300.00">log(Drips per day)</text>
</g>
<polyline fill="none" points="586.23,470.27 586.58,464.57 587.00,469.47 587.27,457.03 587.68,468.99 587.97,458.50 588.36,467.62 588.61,454.36 588.99,466.48 589.30,460.63 589.69,467.80 590.00,460.78 590.39,467.58 590.70,460.92 591.10,468.37 591.46,464.38 591.90,471.39 592.27,466.12 592.76,473.87 593.15,467.47 593.63,473.62 594.03,468.28 594.51,473.60 594.89,467.08 726.55,446.01 726.74,446.75 726.95,448.99 727.15,447.74 727.35,448.32 727.56,448.06 727.75,447.17 727.95,447.56 728.14,446.83 728.34,447.46 728.53,446.86 728.73,447.47 728.93,447.42 729.13,448.53 729.33,448.23 729.54,448.38 729.74,448.10 729.93,446.96 730.13,447.68 730.33,448.11 730.53,447.96 730.73,447.05 730.93,448.40 731.13,448.38 731.32,446.25 731.51,446.50 731.71,446.84 731.90,446.87 732.09,446.93 732.29,446.90 732.49,447.88 732.67,445.67 732.87,447.16 733.06,447.17 733.26,446.74 733.44,446.19 733.64,446.98 733.83,447.04 734.03,448.20 734.23,447.71 734.43,447.17 734.62,446.98 734.81,446.51 735.01,446.79 735.20,447.38 735.40,447.38 735.60,448.10 735.80,447.28 735.99,446.78 736.18,446.66 736.38,447.30 736.56,446.00 736.76,447.16 736.95,446.19 737.14,446.41 737.33,446.15 737.52,446.97 737.72,447.19 737.92,447.84 738.11,447.26 738.30,446.77 738.50,447.74 738.70,447.91 738.90,447.74 739.10,446.77 739.29,447.51 739.49,448.07 739.69,447.75 739.89,447.36 740.09,447.94 740.29,447.85 740.49,447.58 740.68,447.07 740.88,447.31 741.08,448.26 741.28,447.47 741.47,447.12 741.67,447.75 741.87,448.02 742.07,447.08 742.26,446.73 742.45,446.63 742.65,447.13 742.84,446.95 743.04,447.22 743.22,445.26 743.41,446.37 743.60,445.96 743.79,446.98 743.98,446.46 744.17,446.95 744.37,447.74 744.57,447.05 744.76,446.59 744.95,447.09 745.15,446.63 745.35,447.96 745.54,447.38 745.74,447.75" stroke-dasharray="3.6 3.6" stroke-width="3.6" stroke="#aaa" />
<g>
<circle cx="586.23" cy="470.27" r="1.6666666666666667" />
<circle cx="586.58" cy="464.57" r="1.6666666666666667" />
<circle cx="587.00" cy="469.47" r="1.6666666666666667" />
<circle cx="587.27" cy="457.03" r="1.6666666666666667" />
<circle cx="587.68" cy="468.99" r="1.6666666666666667" />
<circle cx="587.97" cy="458.50" r="1.6666666666666667" />
<circle cx="588.36" cy="467.62" r="1.6666666666666667" />
<circle cx="588.61" cy="454.36" r="1.6666666666666667" />
<circle cx="588.99" cy="466.48" r="1.6666666666666667" />
<circle cx="589.30" cy="460.63" r="1.6666666666666667" />
<circle cx="589.69" cy="467.80" r="1.6666666666666667" />
<circle cx="590.00" cy="460.78" r="1.6666666666666667" />
<circle cx="590.39" cy="467.58" r="1.6666666666666667" />
<circle cx="590.70" cy="460.92" r="1.6666666666666667" />
<circle cx="591.10" cy="468.37" r="1.6666666666666667" />
<circle cx="591.46" cy="464.38" r="1.6666666666666667" />
<circle cx="591.90" cy="471.39" r="1.6666666666666667" />
<circle cx="592.27" cy="466.12" r="1.6666666666666667" />
<circle cx="592.76" cy="473.87" r="1.6666666666666667" />
<circle cx="593.15" cy="467.47" r="1.6666666666666667" />
<circle cx="593.63" cy="473.62" r="1.6666666666666667" />
<circle cx="594.03" cy="468.28" r="1.6666666666666667" />
<circle cx="594.51" cy="473.60" r="1.6666666666666667" />
<circle cx="594.89" cy="467.08" r="1.6666666666666667" />
<circle cx="726.55" cy="446.01" r="1.6666666666666667" />
<circle cx="726.74" cy="446.75" r="1.6666666666666667" />
<circle cx="726.95" cy="448.99" r="1.6666666666666667" />
<circle cx="727.15" cy="447.74" r="1.6666666666666667" />
<circle cx="727.35" cy="448.32" r="1.6666666666666667" />
<circle cx="727.56" cy="448.06" r="1.6666666666666667" />
<circle cx="727.75" cy="447.17" r="1.6666666666666667" />
<circle cx="727.95" cy="447.56" r="1.6666666666666667" />
<circle cx="728.14" cy="446.83" r="1.6666666666666667" />
<circle cx="728.34" cy="447.46" r="1.6666666666666667" />
<circle cx="728.53" cy="446.86" r="1.6666666666666667" />
<circle cx="728.73" cy="447.47" r="1.6666666666666667" />
<circle cx="728.93" cy="447.42" r="1.6666666666666667" />
<circle cx="729.13" cy="448.53" r="1.6666666666666667" />
<circle cx="729.33" cy="448.23" r="1.6666666666666667" />
<circle cx="729.54" cy="448.38" r="1.6666666666666667" />
<circle cx="729.74" cy="448.10" r="1.6666666666666667" />
<circle cx="729.93" cy="446.96" r="1.6666666666666667" />
<circle cx="730.13" cy="447.68" r="1.6666666666666667" />
<circle cx="730.33" cy="448.11" r="1.6666666666666667" />
<circle cx="730.53" cy="447.96" r="1.6666666666666667" />
<circle cx="730.73" cy="447.05" r="1.6666666666666667" />
<circle cx="730.93" cy="448.40" r="1.6666666666666667" />
<circle cx="731.13" cy="448.38" r="1.6666666666666667" />
<circle cx="731.32" cy="446.25" r="1.6666666666666667" />
<circle cx="731.51" cy="446.50" r="1.6666666666666667" />
<circle cx="731.71" cy="446.84" r="1.6666666666666667" />
<circle cx="731.90" cy="446.87" r="1.6666666666666667" />
<circle cx="732.09" cy="446.93" r="1.6666666666666667" />
<circle cx="732.29" cy="446.90" r="1.6666666666666667" />
<circle cx="732.49" cy="447.88" r="1.6666666666666667" />
<circle cx="732.67" cy="445.67" r="1.6666666666666667" />
<circle cx="732.87" cy="447.16" r="1.6666666666666667" />
<circle cx="733.06" cy="447.17" r="1.6666666666666667" />
<circle cx="733.26" cy="446.74" r="1.6666666666666667" />
<circle cx="733.44" cy="446.19" r="1.6666666666666667" />
<circle cx="733.64" cy="446.98" r="1.6666666666666667" />
<circle cx="733.83" cy="447.04" r="1.6666666666666667" />
<circle cx="734.03" cy="448.20" r="1.6666666666666667" />
<circle cx="734.23" cy="447.71" r="1.6666666666666667" />
<circle cx="734.43" cy="447.17" r="1.6666666666666667" />
<circle cx="734.62" cy="446.98" r="1.6666666666666667" />
<circle cx="734.81" cy="446.51" r="1.6666666666666667" />
<circle cx="735.01" cy="446.79" r="1.6666666666666667" />
<circle cx="735.20" cy="447.38" r="1.6666666666666667" />
<circle cx="735.40" cy="447.38" r="1.6666666666666667" />
<circle cx="735.60" cy="448.10" r="1.6666666666666667" />
<circle cx="735.80" cy="447.28" r="1.6666666666666667" />
<circle cx="735.99" cy="446.78" r="1.6666666666666667" />
<circle cx="736.18" cy="446.66" r="1.6666666666666667" />
<circle cx="736.38" cy="447.30" r="1.6666666666666667" />
<circle cx="736.56" cy="446.00" r="1.6666666666666667" />
<circle cx="736.76" cy="447.16" r="1.6666666666666667" />
<circle cx="736.95" cy="446.19" r="1.6666666666666667" />
<circle cx="737.14" cy="446.41" r="1.6666666666666667" />
<circle cx="737.33" cy="446.15" r="1.6666666666666667" />
<circle cx="737.52" cy="446.97" r="1.6666666666666667" />
<circle cx="737.72" cy="447.19" r="1.6666666666666667" />
<circle cx="737.92" cy="447.84" r="1.6666666666666667" />
<circle cx="738.11" cy="447.26" r="1.6666666666666667" />
<circle cx="738.30" cy="446.77" r="1.6666666666666667" />
<circle cx="738.50" cy="447.74" r="1.6666666666666667" />
<circle cx="738.70" cy="447.91" r="1.6666666666666667" />
<circle cx="738.90" cy="447.74" r="1.6666666666666667" />
<circle cx="739.10" cy="446.77" r="1.6666666666666667" />
<circle cx="739.29" cy="447.51" r="1.6666666666666667" />
<circle cx="739.49" cy="448.07" r="1.6666666666666667" />
<circle cx="739.69" cy="447.75" r="1.6666666666666667" />
<circle cx="739.89" cy="447.36" r="1.6666666666666667" />
<circle cx="740.09" cy="447.94" r="1.6666666666666667" />
<circle cx="740.29" cy="447.85" r="1.6666666666666667" />
<circle cx="740.49" cy="447.58" r="1.6666666666666667" />
<circle cx="740.68" cy="447.07" r="1.6666666666666667" />
<circle cx="740.88" cy="447.31" r="1.6666666666666667" />
<circle cx="741.08" cy="448.26" r="1.6666666666666667" />
<circle cx="741.28" cy="447.47" r="1.6666666666666667" />
<circle cx="741.47" cy="447.12" r="1.6666666666666667" />
<circle cx="741.67" cy="447.75" r="1.6666666666666667" />
<circle cx="741.87" cy="448.02" r="1.6666666666666667" />
<circle cx="742.07" cy="447.08" r="1.6666666666666667" />
<circle cx="742.26" cy="446.73" r="1.6666666666666667" />
<circle cx="742.45" cy="446.63" r="1.6666666666666667" />
<circle cx="742.65" cy="447.13" r="1.6666666666666667" />
<circle cx="742.84" cy="446.95" r="1.6666666666666667" />
<circle cx="743.04" cy="447.22" r="1.6666666666666667" />
<circle cx="743.22" cy="445.26" r="1.6666666666666667" />
<circle cx="743.41" cy="446.37" r="1.6666666666666667" />
<circle cx="743.60" cy="445.96" r="1.6666666666666667" />
<circle cx="743.79" cy="446.98" r="1.6666666666666667" />
<circle cx="743.98" cy="446.46" r="1.6666666666666667" />
<circle cx="744.17" cy="446.95" r="1.6666666666666667" />
<circle cx="744.37" cy="447.74" r="1.6666666666666667" />
<circle cx="744.57" cy="447.05" r="1.6666666666666667" />
<circle cx="744.76" cy="446.59" r="1.6666666666666667" />
<circle cx="744.95" cy="447.09" r="1.6666666666666667" />
<circle cx="745.15" cy="446.63" r="1.6666666666666667" />
<circle cx="745.35" cy="447.96" r="1.6666666666666667" />
<circle cx="745.54" cy="447.38" r="1.6666666666666667" />
<circle cx="745.74" cy="447.75" r="1.6666666666666667" />
</g>
<g stroke="black">
<line x1="839.86" x2="839.86" y1="510.00" y2="520.00" />
<line x1="791.78" x2="791.78" y1="510.00" y2="520.00" />
<line x1="740.39" x2="740.39" y1="510.00" y2="520.00" />
<line x1="689.00" x2="689.00" y1="510.00" y2="520.00" />
<line x1="639.26" x2="639.26" y1="510.00" y2="520.00" />
<line x1="587.87" x2="587.87" y1="510.00" y2="520.00" />
<line x1="538.13" x2="538.13" y1="510.00" y2="520.00" />
<line x1="486.74" x2="486.74" y1="510.00" y2="520.00" />
<line x1="435.35" x2="435.35" y1="510.00" y2="520.00" />
<line x1="385.61" x2="385.61" y1="510.00" y2="520.00" />
<line x1="334.22" x2="334.22" y1="510.00" y2="520.00" />
<line x1="284.48" x2="284.48" y1="510.00" y2="520.00" />
<line x1="233.09" x2="233.09" y1="510.00" y2="520.00" />
<line x1="186.67" x2="186.67" y1="510.00" y2="520.00" />
<g fill="black" font-family="Arial, sans-serif" font-size="18.0" stroke="none" text-anchor="start" transform="translate(9.0 0.0)">
<text x="839.86" y="530.57">Mar</text>
<text x="791.78" y="530.57">Feb</text>
<text x="740.39" y="530.57">Jan</text>
<text x="689.00" y="530.57">Dec</text>
<text x="639.26" y="530.57">Nov</text>
<text x="587.87" y="530.57">Oct</text>
<text x="538.13" y="530.57">Sep</text>
<text x="486.74" y="530.57">Aug</text>
<text x="435.35" y="530.57">Jul</text>
<text x="385.61" y="530.57">Jun</text>
<text x="334.22" y="530.57">May</text>
<text x="284.48" y="530.57">Apr</text>
<text x="233.09" y="530.57">Mar</text>
<text x="186.67" y="530.57">Feb</text>
</g>
<line x1="150.00" x2="850.00" y1="510.00" y2="510.00" />
</g>
<g stroke="black">
<line x1="150.00" x2="140.00" y1="510.00" y2="510.00" />
<line x1="150.00" x2="140.00" y1="216.29" y2="216.29" />
<g fill="black" font-family="Arial, sans-serif" font-size="18.0" stroke="none" text-anchor="end">
<text x="141.00" y="501.00">0</text>
<text x="141.00" y="207.29">10</text>
</g>
<line x1="150.00" x2="150.00" y1="510.00" y2="90.00" />
</g>
</g>
</svg>