<?xml version="1.0"?>
<svg version="1.1" viewBox="0 0 1000 600" xmlns:xlink="http://www.w3.org/1999/xlink" xmlns="http://www.w3.org/2000/svg">
<g>
<g stroke-dasharray="3.6 7.2" stroke-width="0.72" stroke="#caa">
<line x1="813.75" x2="813.75" y1="510.00" y2="90.00" />
<line x1="760.60" x2="760.60" y1="510.00" y2="90.00" />
<line x1="707.45" x2="707.45" y1="510.00" y2="90.00" />
<line x1="656.01" x2="656.01" y1="510.00" y2="90.00" />
<line x1="602.86" x2="602.86" y1="510.00" y2="90.00" />
<line x1="551.42" x2="551.42" y1="510.00" y2="90.00" />
<line x1="498.27" x2="498.27" y1="510.00" y2="90.00" />
<line x1="445.11" x2="445.11" y1="510.00" y2="90.00" />
<line x1="393.68" x2="393.68" y1="510.00" y2="90.00" />
<line x1="340.52" x2="340.52" y1="510.00" y2="90.00" />
<line x1="289.09" x2="289.09" y1="510.00" y2="90.00" />
<line x1="235.93" x2="235.93" y1="510.00" y2="90.00" />
<line x1="187.92" x2="187.92" y1="510.00" y2="90.00" />
<line x1="150.00" x2="850.00" y1="510.00" y2="510.00" />
<line x1="150.00" x2="850.00" y1="216.29" y2="216.29" />
</g>
<g>
<text dominant-baseline="hanging" dx="-36.0" dy="18.0" fill="#0004" font-family="Arial, sans-serif" font-size="36" stroke="none" text-anchor="end" x="850.00" y="128.18">R11</text>
</g>
<g>
<text dominant-baseline="text-bottom" dy="-12.0" fill="black" font-family="Arial, sans-serif" font-size="18.0" font-style="italic" stroke="none" text-anchor="middle" x="500.00" y="90.00">Years 2023 to 2024</text>
</g>
<g>
<text dominant-baseline="central" dx="12.0" dy="12.0" fill="black" font-family="Arial, sans-serif" font-size="18.0" font-style="italic" stroke="none" text-anchor="middle" text-orientation="sideways" writing-mode="vertical-lr" x="850.00" y="300.00">log(Drips per day)</text>
</g>
<polyline fill="none" points="601.16,470.27 601.53,464.57 601.96,469.47 602.24,457.03 602.67,468.99 602.96,458.50 603.37,467.62 603.63,454.36 604.02,466.48 604.34,460.63 604.74,467.80 605.06,460.78 605.47,467.58 605.79,460.92 606.21,468.37 606.57,464.38 607.03,471.39 607.41,466.12 607.92,473.87 608.32,467.47 608.82,473.62 609.23,468.28 609.73,473.60 610.12,467.08 746.29,446.01 746.49,446.75 746.70,448.99 746.91,447.74 747.12,448.32 747.33,448.06 747.53,447.17 747.74,447.56 747.93,446.83 748.14,447.46 748.34,446.86 748.54,447.47 748.75,447.42 748.96,448.53 749.17,448.23 749.38,448.38 749.59,448.10 749.79,446.96 749.99,447.68 750.20,448.11 750.41,447.96 750.61,447.05 750.82,448.40 751.03,448.38 751.22,446.25 751.42,446.50 751.62,446.84 751.82,446.87 752.02,446.93 752.22,446.90 752.43,447.88 752.62,445.67 752.82,447.16 753.02,447.17 753.22,446.74 753.42,446.19 753.62,446.98 753.82,447.04 754.03,448.20 754.23,447.71 754.44,447.17 754.64,446.98 754.83,446.51 755.03,446.79 755.24,447.38 755.44,447.38 755.65,448.10 755.85,447.28 756.05,446.78 756.25,446.66 756.45,447.30 756.65,446.00 756.85,447.16 757.04,446.19 757.24,446.41 757.44,446.15 757.64,446.97 757.84,447.19 758.04,447.84 758.25,447.26 758.45,446.77 758.65,447.74 758.86,447.91 759.06,447.74 759.26,446.77 759.47,447.51 759.68,448.07 759.88,447.75 760.09,447.36 760.29,447.94 760.50,447.85 760.70,447.58 760.91,447.07 761.11,447.31 761.32,448.26 761.52,447.47 761.72,447.12 761.93,447.75 762.14,448.02 762.34,447.08 762.54,446.73 762.74,446.63 762.94,447.13 763.14,446.95 763.34,447.22 763.53,445.26 763.72,446.37 763.92,445.96 764.12,446.98 764.32,446.46 764.52,446.95 764.72,447.74 764.92,447.05 765.12,446.59 765.32,447.09 765.52,446.63 765.73,447.96 765.93,447.38 766.14,447.75" stroke-dasharray="3.6 3.6" stroke-width="3.6" stroke="#aaa" />
<g>
<circle cx="601.16" cy="470.27" r="1.6666666666666667" />
<circle cx="601.53" cy="464.57" r="1.6666666666666667" />
<circle cx="601.96" cy="469.47" r="1.6666666666666667" />
<circle cx="602.24" cy="457.03" r="1.6666666666666667" />
<circle cx="602.67" cy="468.99" r="1.6666666666666667" />
<circle cx="602.96" cy="458.50" r="1.6666666666666667" />
<circle cx="603.37" cy="467.62" r="1.6666666666666667" />
<circle cx="603.63" cy="454.36" r="1.6666666666666667" />
<circle cx="604.02" cy="466.48" r="1.6666666666666667" />
<circle cx="604.34" cy="460.63" r="1.6666666666666667" />
<circle cx="604.74" cy="467.80" r="1.6666666666666667" />
<circle cx="605.06" cy="460.78" r="1.6666666666666667" />
<circle cx="605.47" cy="467.58" r="1.6666666666666667" />
<circle cx="605.79" cy="460.92" r="1.6666666666666667" />
<circle cx="606.21" cy="468.37" r="1.6666666666666667" />
<circle cx="606.57" cy="464.38" r="1.6666666666666667" />
<circle cx="607.03" cy="471.39" r="1.6666666666666667" />
<circle cx="607.41" cy="466.12" r="1.6666666666666667" />
<circle cx="607.92" cy="473.87" r="1.6666666666666667" />
<circle cx="608.32" cy="467.47" r="1.6666666666666667" />
<circle cx="608.82" cy="473.62" r="1.6666666666666667" />
<circle cx="609.23" cy="468.28" r="1.6666666666666667" />
<circle cx="609.73" cy="473.60" r="1.6666666666666667" />
<circle cx="610.12" cy="467.08" r="1.6666666666666667" />
<circle cx="746.29" cy="446.01" r="1.6666666666666667" />
<circle cx="746.49" cy="446.75" r="1.6666666666666667" />
<circle cx="746.70" cy="448.99" r="1.6666666666666667" />
<circle cx="746.91" cy="447.74" r="1.6666666666666667" />
<circle cx="747.12" cy="448.32" r="1.6666666666666667" />
<circle cx="747.33" cy="448.06" r="1.6666666666666667" />
<circle cx="747.53" cy="447.17" r="1.6666666666666667" />
<circle cx="747.74" cy="447.56" r="1.6666666666666667" />
<circle cx="747.93" cy="446.83" r="1.6666666666666667" />
<circle cx="748.14" cy="447.46" r="1.6666666666666667" />
<circle cx="748.34" cy="446.86" r="1.6666666666666667" />
<circle cx="748.54" cy="447.47" r="1.6666666666666667" />
<circle cx="748.75" cy="447.42" r="1.6666666666666667" />
<circle cx="748.96" cy="448.53" r="1.6666666666666667" />
<circle cx="749.17" cy="448.23" r="1.6666666666666667" />
<circle cx="749.38" cy="448.38" r="1.6666666666666667" />
<circle cx="749.59" cy="448.10" r="1.6666666666666667" />
<circle cx="749.79" cy="446.96" r="1.6666666666666667" />
<circle cx="749.99" cy="447.68" r="1.6666666666666667" />
<circle cx="750.20" cy="448.11" r="1.6666666666666667" />
<circle cx="750.41" cy="447.96" r="1.6666666666666667" />
<circle cx="750.61" cy="447.05" r="1.6666666666666667" />
<circle cx="750.82" cy="448.40" r="1.6666666666666667" />
<circle cx="751.03" cy="448.38" r="1.6666666666666667" />
<circle cx="751.22" cy="446.25" r="1.6666666666666667" />
<circle cx="751.42" cy="446.50" r="1.6666666666666667" />
<circle cx="751.62" cy="446.84" r="1.6666666666666667" />
<circle cx="751.82" cy="446.87" r="1.6666666666666667" />
<circle cx="752.02" cy="446.93" r="1.6666666666666667" />
<circle cx="752.22" cy="446.90" r="1.6666666666666667" />
<circle cx="752.43" cy="447.88" r="1.6666666666666667" />
<circle cx="752.62" cy="445.67" r="1.6666666666666667" />
<circle cx="752.82" cy="447.16" r="1.6666666666666667" />
<circle cx="753.02" cy="447.17" r="1.6666666666666667" />
<circle cx="753.22" cy="446.74" r="1.6666666666666667" />
<circle cx="753.42" cy="446.19" r="1.6666666666666667" />
<circle cx="753.62" cy="446.98" r="1.6666666666666667" />
<circle cx="753.82" cy="447.04" r="1.6666666666666667" />
<circle cx="754.03" cy="448.20" r="1.6666666666666667" />
<circle cx="754.23" cy="447.71" r="1.6666666666666667" />
<circle cx="754.44" cy="447.17" r="1.6666666666666667" />
<circle cx="754.64" cy="446.98" r="1.6666666666666667" />
<circle cx="754.83" cy="446.51" r="1.6666666666666667" />
<circle cx="755.03" cy="446.79" r="1.6666666666666667" />
<circle cx="755.24" cy="447.38" r="1.6666666666666667" />
<circle cx="755.44" cy="447.38" r="1.6666666666666667" />
<circle cx="755.65" cy="448.10" r="1.6666666666666667" />
<circle cx="755.85" cy="447.28" r="1.6666666666666667" />
<circle cx="756.05" cy="446.78" r="1.6666666666666667" />
<circle cx="756.25" cy="446.66" r="1.6666666666666667" />
<circle cx="756.45" cy="447.30" r="1.6666666666666667" />
<circle cx="756.65" cy="446.00" r="1.6666666666666667" />
<circle cx="756.85" cy="447.16" r="1.6666666666666667" />
<circle cx="757.04" cy="446.19" r="1.6666666666666667" />
<circle cx="757.24" cy="446.41" r="1.6666666666666667" />
<circle cx="757.44" cy="446.15" r="1.6666666666666667" />
<circle cx="757.64" cy="446.97" r="1.6666666666666667" />
<circle cx="757.84" cy="447.19" r="1.6666666666666667" />
<circle cx="758.04" cy="447.84" r="1.6666666666666667" />
<circle cx="758.25" cy="447.26" r="1.6666666666666667" />
<circle cx="758.45" cy="446.77" r="1.6666666666666667" />
<circle cx="758.65" cy="447.74" r="1.6666666666666667" />
<circle cx="758.86" cy="447.91" r="1.6666666666666667" />
<circle cx="759.06" cy="447.74" r="1.6666666666666667" />
<circle cx="759.26" cy="446.77" r="1.6666666666666667" />
<circle cx="759.47" cy="447.51" r="1.6666666666666667" />
<circle cx="759.68" cy="448.07" r="1.6666666666666667" />
<circle cx="759.88" cy="447.75" r="1.6666666666666667" />
<circle cx="760.09" cy="447.36" r="1.6666666666666667" />
<circle cx="760.29" cy="447.94" r="1.6666666666666667" />
<circle cx="760.50" cy="447.85" r="1.6666666666666667" />
<circle cx="760.70" cy="447.58" r="1.6666666666666667" />
<circle cx="760.91" cy="447.07" r="1.6666666666666667" />
<circle cx="761.11" cy="447.31" r="1.6666666666666667" />
<circle cx="761.32" cy="448.26" r="1.6666666666666667" />
<circle cx="761.52" cy="447.47" r="1.6666666666666667" />
<circle cx="761.72" cy="447.12" r="1.6666666666666667" />
<circle cx="761.93" cy="447.75" r="1.6666666666666667" />
<circle cx="762.14" cy="448.02" r="1.6666666666666667" />
<circle cx="762.34" cy="447.08" r="1.6666666666666667" />
<circle cx="762.54" cy="446.73" r="1.6666666666666667" />
<circle cx="762.74" cy="446.63" r="1.6666666666666667" />
<circle cx="762.94" cy="447.13" r="1.6666666666666667" />
<circle cx="763.14" cy="446.95" r="1.6666666666666667" />
<circle cx="763.34" cy="447.22" r="1.6666666666666667" />
<circle cx="763.53" cy="445.26" r="1.6666666666666667" />
<circle cx="763.72" cy="446.37" r="1.6666666666666667" />
<circle cx="763.92" cy="445.96" r="1.6666666666666667" />
<circle cx="764.12" cy="446.98" r="1.6666666666666667" />
<circle cx="764.32" cy="446.46" r="1.6666666666666667" />
<circle cx="764.52" cy="446.95" r="1.6666666666666667" />
<circle cx="764.72" cy="447.74" r="1.6666666666666667" />
<circle cx="764.92" cy="447.05" r="1.6666666666666667" />
<circle cx="765.12" cy="446.59" r="1.6666666666666667" />
<circle cx="765.32" cy="447.09" r="1.6666666666666667" />
<circle cx="765.52" cy="446.63" r="1.6666666666666667" />
<circle cx="765.73" cy="447.96" r="1.6666666666666667" />
<circle cx="765.93" cy="447.38" r="1.6666666666666667" />
<circle cx="766.14" cy="447.75" r="1.6666666666666667" />
</g>
<g stroke="black">
<line x1="813.75" x2="813.75" y1="510.00" y2="520.00" />
<line x1="760.60" x2="760.60" y1="510.00" y2="520.00" />
<line x1="707.45" x2="707.45" y1="510.00" y2="520.00" />
<line x1="656.01" x2="656.01" y1="510.00" y2="520.00" />
<line x1="602.86" x2="602.86" y1="510.00" y2="520.00" />
<line x1="551.42" x2="551.42" y1="510.00" y2="520.00" />
<line x1="498.27" x2="498.27" y1="510.00" y2="520.00" />
<line x1="445.11" x2="445.11" y1="510.00" y2="520.00" />
<line x1="393.68" x2="393.68" y1="510.00" y2="520.00" />
<line x1="340.52" x2="340.52" y1="510.00" y2="520.00" />
<line x1="289.09" x2="289.09" y1="510.00" y2="520.00" />
<line x1="235.93" x2="235.93" y1="510.00" y2="520.00" />
<line x1="187.92" x2="187.92" y1="510.00" y2="520.00" />
<g fill="black" font-family="Arial, sans-serif" font-size="18.0" stroke="none" text-anchor="start" transform="translate(9.0 0.0)">
<text x="813.75" y="530.57">Feb</text>
<text x="760.60" y="530.57">Jan</text>
<text x="707.45" y="530.57">Dec</text>
<text x="656.01" y="530.57">Nov</text>
<text x="602.86" y="530.57">Oct</text>
<text x="551.42" y="530.57">Sep</text>
<text x="498.27" y="530.57">Aug</text>
<text x="445.11" y="530.57">Jul</text>
<text x="393.68" y="530.57">Jun</text>
<text x="340.52" y="530.57">May</text>
<text x="289.09" y="530.57">Apr</text>
<text x="235.93" y="530.57">Mar</text>
<text x="187.92" y="530.57">Feb</text>
</g>
<line x1="150.00" x2="850.00" y1="510.00" y2="510.00" />
</g>
<g stroke="black">
<line x1="150.00" x2="140.00" y1="510.00" y2="510.00" />
<line x1="150.00" x2="140.00" y1="216.29" y2="216.29" />
<g fill="black" font-family="Arial, sans-serif" font-size="18.0" stroke="none" text-anchor="end">
<text x="141.00" y="501.00">0</text>
<text x="141.00" y="207.29">10</text>
</g>
<line x1="150.00" x2="150.00" y1="510.00" y2="90.00" />
</g>
</g>
</svg>