<?xml version="1.0"?>
<svg version="1.1" viewBox="0 0 1000 600" xmlns:xlink="http://www.w3.org/1999/xlink" xmlns="http://www.w3.org/2000/svg">
<g>
<g stroke-dasharray="3.6 7.2" stroke-width="0.72" stroke="#caa">
<line x1="813.75" x2="813.75" y1="510.00" y2="90.00" />
<line x1="760.60" x2="760.60" y1="510.00" y2="90.00" />
<line x1="707.45" x2="707.45" y1="510.00" y2="90.00" />
<line x1="656.01" x2="656.01" y1="510.00" y2="90.00" />
<line x1="602.86" x2="602.86" y1="510.00" y2="90.00" />
<line x1="551.42" x2="551.42" y1="510.00" y2="90.00" />
<line x1="498.27" x2="498.27" y1="510.00" y2="90.00" />
<line x1="445.11" x2="445.11" y1="510.00" y2="90.00" />
<line x1="393.68" x2="393.68" y1="510.00" y2="90.00" />
<line x1="340.52" x2="340.52" y1="510.00" y2="90.00" />
<line x1="289.09" x2="289.09" y1="510.00" y2="90.00" />
<line x1="235.93" x2="235.93" y1="510.00" y2="90.00" />
<line x1="187.92" x2="187.92" y1="510.00" y2="90.00" />
<line x1="150.00" x2="850.00" y1="510.00" y2="510.00" />
<line x1="150.00" x2="850.00" y1="319.09" y2="319.09" />
<line x1="150.00" x2="850.00" y1="128.18" y2="128.18" />
</g>
<g>
<text dominant-baseline="hanging" dx="-36.0" dy="18.0" fill="#0004" font-family="Arial, sans-serif" font-size="36" stroke="none" text-anchor="end" x="850.00" y="128.18">R11</text>
</g>
<g>
<text dominant-baseline="text-bottom" dy="-12.0" fill="black" font-family="Arial, sans-serif" font-size="18.0" font-style="italic" stroke="none" text-anchor="middle" x="500.00" y="90.00">Days since start</text>
</g>
<g>
<text dominant-baseline="central" dx="12.0" dy="12.0" fill="black" font-family="Arial, sans-serif" font-size="18.0" font-style="italic" stroke="none" text-anchor="middle" text-orientation="sideways" writing-mode="vertical-lr" x="850.00" y="300.00">Drips per day</text>
</g>
<polyline fill="none" points="601.16,436.17 601.53,420.34 601.96,434.11 602.24,394.11 602.67,432.87 602.96,399.74 603.37,429.18 603.63,383.09 604.02,425.98 604.34,407.46 604.74,429.68 605.06,408.00 605.47,429.07 605.79,408.49 606.21,431.21 606.57,419.75 607.03,438.92 607.41,424.96 607.92,444.68 608.32,428.78 608.82,444.11 609.23,430.97 609.73,444.08 610.12,427.70 746.29,341.34 746.49,345.55 746.70,357.61 746.91,350.99 747.12,354.10 747.33,352.70 747.53,347.89 747.74,349.98 747.93,345.96 748.14,349.48 748.34,346.12 748.54,349.53 748.75,349.23 748.96,355.19 749.17,353.62 749.38,354.41 749.59,352.92 749.79,346.72 749.99,350.68 750.20,352.95 750.41,352.17 750.61,347.19 750.82,354.52 751.03,354.42 751.22,342.70 751.42,344.13 751.62,346.02 751.82,346.18 752.02,346.54 752.22,346.36 752.43,351.76 752.62,339.36 752.82,347.81 753.02,347.89 753.22,345.45 753.42,342.34 753.62,346.83 753.82,347.17 754.03,353.45 754.23,350.82 754.44,347.86 754.64,346.83 754.83,344.21 755.03,345.78 755.24,349.03 755.44,349.05 755.65,352.91 755.85,348.45 756.05,345.70 756.25,345.01 756.45,348.57 756.65,341.29 756.85,347.83 757.04,342.34 757.24,343.64 757.44,342.12 757.64,346.75 757.84,347.96 758.04,351.52 758.25,348.35 758.45,345.65 758.65,350.97 758.86,351.92 759.06,350.99 759.26,345.65 759.47,349.72 759.68,352.74 759.88,351.05 760.09,348.92 760.29,352.05 760.50,351.55 760.70,350.11 760.91,347.32 761.11,348.65 761.32,353.76 761.52,349.53 761.72,347.60 761.93,351.03 762.14,352.47 762.34,347.35 762.54,345.40 762.74,344.84 762.94,347.65 763.14,346.66 763.34,348.16 763.53,336.97 763.72,343.41 763.92,341.05 764.12,346.83 764.32,343.93 764.52,346.62 764.72,350.99 764.92,347.22 765.12,344.62 765.32,347.40 765.52,344.87 765.73,352.17 765.93,349.01 766.14,351.06" stroke-dasharray="3.6 3.6" stroke-width="3.6" stroke="#aaa" />
<g>
<circle cx="601.16" cy="436.17" r="1.6666666666666667" />
<circle cx="601.53" cy="420.34" r="1.6666666666666667" />
<circle cx="601.96" cy="434.11" r="1.6666666666666667" />
<circle cx="602.24" cy="394.11" r="1.6666666666666667" />
<circle cx="602.67" cy="432.87" r="1.6666666666666667" />
<circle cx="602.96" cy="399.74" r="1.6666666666666667" />
<circle cx="603.37" cy="429.18" r="1.6666666666666667" />
<circle cx="603.63" cy="383.09" r="1.6666666666666667" />
<circle cx="604.02" cy="425.98" r="1.6666666666666667" />
<circle cx="604.34" cy="407.46" r="1.6666666666666667" />
<circle cx="604.74" cy="429.68" r="1.6666666666666667" />
<circle cx="605.06" cy="408.00" r="1.6666666666666667" />
<circle cx="605.47" cy="429.07" r="1.6666666666666667" />
<circle cx="605.79" cy="408.49" r="1.6666666666666667" />
<circle cx="606.21" cy="431.21" r="1.6666666666666667" />
<circle cx="606.57" cy="419.75" r="1.6666666666666667" />
<circle cx="607.03" cy="438.92" r="1.6666666666666667" />
<circle cx="607.41" cy="424.96" r="1.6666666666666667" />
<circle cx="607.92" cy="444.68" r="1.6666666666666667" />
<circle cx="608.32" cy="428.78" r="1.6666666666666667" />
<circle cx="608.82" cy="444.11" r="1.6666666666666667" />
<circle cx="609.23" cy="430.97" r="1.6666666666666667" />
<circle cx="609.73" cy="444.08" r="1.6666666666666667" />
<circle cx="610.12" cy="427.70" r="1.6666666666666667" />
<circle cx="746.29" cy="341.34" r="1.6666666666666667" />
<circle cx="746.49" cy="345.55" r="1.6666666666666667" />
<circle cx="746.70" cy="357.61" r="1.6666666666666667" />
<circle cx="746.91" cy="350.99" r="1.6666666666666667" />
<circle cx="747.12" cy="354.10" r="1.6666666666666667" />
<circle cx="747.33" cy="352.70" r="1.6666666666666667" />
<circle cx="747.53" cy="347.89" r="1.6666666666666667" />
<circle cx="747.74" cy="349.98" r="1.6666666666666667" />
<circle cx="747.93" cy="345.96" r="1.6666666666666667" />
<circle cx="748.14" cy="349.48" r="1.6666666666666667" />
<circle cx="748.34" cy="346.12" r="1.6666666666666667" />
<circle cx="748.54" cy="349.53" r="1.6666666666666667" />
<circle cx="748.75" cy="349.23" r="1.6666666666666667" />
<circle cx="748.96" cy="355.19" r="1.6666666666666667" />
<circle cx="749.17" cy="353.62" r="1.6666666666666667" />
<circle cx="749.38" cy="354.41" r="1.6666666666666667" />
<circle cx="749.59" cy="352.92" r="1.6666666666666667" />
<circle cx="749.79" cy="346.72" r="1.6666666666666667" />
<circle cx="749.99" cy="350.68" r="1.6666666666666667" />
<circle cx="750.20" cy="352.95" r="1.6666666666666667" />
<circle cx="750.41" cy="352.17" r="1.6666666666666667" />
<circle cx="750.61" cy="347.19" r="1.6666666666666667" />
<circle cx="750.82" cy="354.52" r="1.6666666666666667" />
<circle cx="751.03" cy="354.42" r="1.6666666666666667" />
<circle cx="751.22" cy="342.70" r="1.6666666666666667" />
<circle cx="751.42" cy="344.13" r="1.6666666666666667" />
<circle cx="751.62" cy="346.02" r="1.6666666666666667" />
<circle cx="751.82" cy="346.18" r="1.6666666666666667" />
<circle cx="752.02" cy="346.54" r="1.6666666666666667" />
<circle cx="752.22" cy="346.36" r="1.6666666666666667" />
<circle cx="752.43" cy="351.76" r="1.6666666666666667" />
<circle cx="752.62" cy="339.36" r="1.6666666666666667" />
<circle cx="752.82" cy="347.81" r="1.6666666666666667" />
<circle cx="753.02" cy="347.89" r="1.6666666666666667" />
<circle cx="753.22" cy="345.45" r="1.6666666666666667" />
<circle cx="753.42" cy="342.34" r="1.6666666666666667" />
<circle cx="753.62" cy="346.83" r="1.6666666666666667" />
<circle cx="753.82" cy="347.17" r="1.6666666666666667" />
<circle cx="754.03" cy="353.45" r="1.6666666666666667" />
<circle cx="754.23" cy="350.82" r="1.6666666666666667" />
<circle cx="754.44" cy="347.86" r="1.6666666666666667" />
<circle cx="754.64" cy="346.83" r="1.6666666666666667" />
<circle cx="754.83" cy="344.21" r="1.6666666666666667" />
<circle cx="755.03" cy="345.78" r="1.6666666666666667" />
<circle cx="755.24" cy="349.03" r="1.6666666666666667" />
<circle cx="755.44" cy="349.05" r="1.6666666666666667" />
<circle cx="755.65" cy="352.91" r="1.6666666666666667" />
<circle cx="755.85" cy="348.45" r="1.6666666666666667" />
<circle cx="756.05" cy="345.70" r="1.6666666666666667" />
<circle cx="756.25" cy="345.01" r="1.6666666666666667" />
<circle cx="756.45" cy="348.57" r="1.6666666666666667" />
<circle cx="756.65" cy="341.29" r="1.6666666666666667" />
<circle cx="756.85" cy="347.83" r="1.6666666666666667" />
<circle cx="757.04" cy="342.34" r="1.6666666666666667" />
<circle cx="757.24" cy="343.64" r="1.6666666666666667" />
<circle cx="757.44" cy="342.12" r="1.6666666666666667" />
<circle cx="757.64" cy="346.75" r="1.6666666666666667" />
<circle cx="757.84" cy="347.96" r="1.6666666666666667" />
<circle cx="758.04" cy="351.52" r="1.6666666666666667" />
<circle cx="758.25" cy="348.35" r="1.6666666666666667" />
<circle cx="758.45" cy="345.65" r="1.6666666666666667" />
<circle cx="758.65" cy="350.97" r="1.6666666666666667" />
<circle cx="758.86" cy="351.92" r="1.6666666666666667" />
<circle cx="759.06" cy="350.99" r="1.6666666666666667" />
<circle cx="759.26" cy="345.65" r="1.6666666666666667" />
<circle cx="759.47" cy="349.72" r="1.6666666666666667" />
<circle cx="759.68" cy="352.74" r="1.6666666666666667" />
<circle cx="759.88" cy="351.05" r="1.6666666666666667" />
<circle cx="760.09" cy="348.92" r="1.6666666666666667" />
<circle cx="760.29" cy="352.05" r="1.6666666666666667" />
<circle cx="760.50" cy="351.55" r="1.6666666666666667" />
<circle cx="760.70" cy="350.11" r="1.6666666666666667" />
<circle cx="760.91" cy="347.32" r="1.6666666666666667" />
<circle cx="761.11" cy="348.65" r="1.6666666666666667" />
<circle cx="761.32" cy="353.76" r="1.6666666666666667" />
<circle cx="761.52" cy="349.53" r="1.6666666666666667" />
<circle cx="761.72" cy="347.60" r="1.6666666666666667" />
<circle cx="761.93" cy="351.03" r="1.6666666666666667" />
<circle cx="762.14" cy="352.47" r="1.6666666666666667" />
<circle cx="762.34" cy="347.35" r="1.6666666666666667" />
<circle cx="762.54" cy="345.40" r="1.6666666666666667" />
<circle cx="762.74" cy="344.84" r="1.6666666666666667" />
<circle cx="762.94" cy="347.65" r="1.6666666666666667" />
<circle cx="763.14" cy="346.66" r="1.6666666666666667" />
<circle cx="763.34" cy="348.16" r="1.6666666666666667" />
<circle cx="763.53" cy="336.97" r="1.6666666666666667" />
<circle cx="763.72" cy="343.41" r="1.6666666666666667" />
<circle cx="763.92" cy="341.05" r="1.6666666666666667" />
<circle cx="764.12" cy="346.83" r="1.6666666666666667" />
<circle cx="764.32" cy="343.93" r="1.6666666666666667" />
<circle cx="764.52" cy="346.62" r="1.6666666666666667" />
<circle cx="764.72" cy="350.99" r="1.6666666666666667" />
<circle cx="764.92" cy="347.22" r="1.6666666666666667" />
<circle cx="765.12" cy="344.62" r="1.6666666666666667" />
<circle cx="765.32" cy="347.40" r="1.6666666666666667" />
<circle cx="765.52" cy="344.87" r="1.6666666666666667" />
<circle cx="765.73" cy="352.17" r="1.6666666666666667" />
<circle cx="765.93" cy="349.01" r="1.6666666666666667" />
<circle cx="766.14" cy="351.06" r="1.6666666666666667" />
</g>
<g stroke="black">
<line x1="813.75" x2="813.75" y1="510.00" y2="520.00" />
<line x1="760.60" x2="760.60" y1="510.00" y2="520.00" />
<line x1="707.45" x2="707.45" y1="510.00" y2="520.00" />
<line x1="656.01" x2="656.01" y1="510.00" y2="520.00" />
<line x1="602.86" x2="602.86" y1="510.00" y2="520.00" />
<line x1="551.42" x2="551.42" y1="510.00" y2="520.00" />
<line x1="498.27" x2="498.27" y1="510.00" y2="520.00" />
<line x1="445.11" x2="445.11" y1="510.00" y2="520.00" />
<line x1="393.68" x2="393.68" y1="510.00" y2="520.00" />
<line x1="340.52" x2="340.52" y1="510.00" y2="520.00" />
<line x1="289.09" x2="289.09" y1="510.00" y2="520.00" />
<line x1="235.93" x2="235.93" y1="510.00" y2="520.00" />
<line x1="187.92" x2="187.92" y1="510.00" y2="520.00" />
<g fill="black" font-family="Arial, sans-serif" font-size="18.0" stroke="none" text-anchor="start" transform="translate(9.0 0.0)">
<text x="813.75" y="530.57">Feb</text>
<text x="760.60" y="530.57">Jan</text>
<text x="707.45" y="530.57">Dec</text>
<text x="656.01" y="530.57">Nov</text>
<text x="602.86" y="530.57">Oct</text>
<text x="551.42" y="530.57">Sep</text>
<text x="498.27" y="530.57">Aug</text>
<text x="445.11" y="530.57">Jul</text>
<text x="393.68" y="530.57">Jun</text>
<text x="340.52" y="530.57">May</text>
<text x="289.09" y="530.57">Apr</text>
<text x="235.93" y="530.57">Mar</text>
<text x="187.92" y="530.57">Feb</text>
</g>
<line x1="150.00" x2="850.00" y1="510.00" y2="510.00" />
</g>
<g stroke="black">
<line x1="150.00" x2="140.00" y1="510.00" y2="510.00" />
<line x1="150.00" x2="140.00" y1="319.09" y2="319.09" />
<line x1="150.00" x2="140.00" y1="128.18" y2="128.18" />
<g fill="black" font-family="Arial, sans-serif" font-size="18.0" stroke="none" text-anchor="end">
<text x="141.00" y="501.00">0</text>
<text x="141.00" y="310.09">10</text>
<text x="141.00" y="119.18">20</text>
</g>
<line x1="150.00" x2="150.00" y1="510.00" y2="90.00" />
</g>
</g>
</svg>