<?xml version="1.0"?>
<svg version="1.1" viewBox="0 0 1000 600" xmlns:xlink="http://www.w3.org/1999/xlink" xmlns="http://www.w3.org/2000/svg">
<g>
<g stroke-dasharray="3.6 7.2" stroke-width="0.72" stroke="#caa">
<line x1="233.55" x2="233.55" y1="510.00" y2="90.00" />
<line x1="317.75" x2="317.75" y1="510.00" y2="90.00" />
<line x1="401.95" x2="401.95" y1="510.00" y2="90.00" />
<line x1="486.16" x2="486.16" y1="510.00" y2="90.00" />
<line x1="570.36" x2="570.36" y1="510.00" y2="90.00" />
<line x1="654.56" x2="654.56" y1="510.00" y2="90.00" />
<line x1="738.77" x2="738.77" y1="510.00" y2="90.00" />
<line x1="822.97" x2="822.97" y1="510.00" y2="90.00" />
<line x1="150.00" x2="850.00" y1="501.15" y2="501.15" />
<line x1="150.00" x2="850.00" y1="439.11" y2="439.11" />
<line x1="150.00" x2="850.00" y1="377.07" y2="377.07" />
<line x1="150.00" x2="850.00" y1="315.04" y2="315.04" />
<line x1="150.00" x2="850.00" y1="253.00" y2="253.00" />
<line x1="150.00" x2="850.00" y1="190.96" y2="190.96" />
<line x1="150.00" x2="850.00" y1="128.92" y2="128.92" />
</g>
<g>
<text dominant-baseline="hanging" dx="-36.0" dy="18.0" fill="#0004" font-family="Arial, sans-serif" font-size="36" stroke="none" text-anchor="end" x="850.00" y="125.00">R11</text>
</g>
<g>
<text dominant-baseline="text-bottom" dy="-12.0" fill="black" font-family="Arial, sans-serif" font-size="18.0" font-style="italic" stroke="none" text-anchor="middle" x="500.00" y="90.00">Days since start</text>
</g>
<g>
<text dominant-baseline="central" dx="12.0" dy="12.0" fill="black" font-family="Arial, sans-serif" font-size="18.0" font-style="italic" stroke="none" text-anchor="middle" text-orientation="sideways" writing-mode="vertical-lr" x="850.00" y="300.00">Drips per day</text>
</g>
<polyline fill="none" points="150.00,447.33 151.55,395.89 153.38,440.66 154.58,310.67 156.38,436.61 157.64,328.97 159.36,424.63 160.45,274.86 162.10,414.24 163.46,354.05 165.19,426.24 166.55,355.80 168.27,424.27 169.63,357.39 171.40,431.24 172.94,393.98 174.89,456.30 176.52,410.91 178.65,475.00 180.36,423.32 182.47,473.16 184.22,430.46 186.33,473.06 188.02,419.82 765.79,139.20 766.63,152.86 767.54,192.06 768.42,170.53 769.31,180.64 770.19,176.10 771.05,160.48 771.92,167.27 772.76,154.19 773.63,165.65 774.48,154.72 775.34,165.81 776.20,164.84 777.10,184.21 777.99,179.10 778.88,181.65 779.77,176.83 780.62,156.67 781.49,169.53 782.37,176.93 783.25,174.39 784.11,158.19 785.00,182.03 785.89,181.69 786.72,143.59 787.56,148.24 788.41,154.40 789.26,154.93 790.11,156.09 790.95,155.51 791.83,173.06 792.65,132.74 793.50,160.22 794.36,160.48 795.20,152.54 796.03,142.43 796.88,157.04 797.74,158.14 798.62,178.53 799.49,169.98 800.35,160.37 801.20,157.04 802.04,148.51 802.89,153.61 803.75,164.18 804.61,164.23 805.50,176.78 806.36,162.28 807.20,153.34 808.04,151.10 808.90,162.69 809.73,139.03 810.58,160.27 811.41,142.43 812.25,146.66 813.07,141.71 813.92,156.77 814.78,160.68 815.66,172.27 816.52,161.97 817.36,153.18 818.24,170.48 819.11,173.55 819.99,170.53 820.83,153.18 821.70,166.41 822.58,176.25 823.46,170.73 824.32,163.82 825.20,174.00 826.07,172.37 826.94,167.68 827.80,158.61 828.66,162.95 829.55,179.54 830.41,165.81 831.27,159.54 832.14,170.68 833.02,175.37 833.88,158.71 834.72,152.38 835.56,150.56 836.42,159.70 837.27,156.46 838.13,161.36 838.93,125.00 839.76,145.90 840.58,138.25 841.44,157.04 842.27,147.59 843.12,156.35 843.99,170.53 844.85,158.29 845.69,149.86 846.54,158.87 847.38,150.67 848.26,174.39 849.13,164.13 850.00,170.78" stroke-dasharray="3.6 3.6" stroke-width="3.6" stroke="#aaa" />
<g>
<circle cx="150.00" cy="447.33" r="1.6666666666666667" />
<circle cx="151.55" cy="395.89" r="1.6666666666666667" />
<circle cx="153.38" cy="440.66" r="1.6666666666666667" />
<circle cx="154.58" cy="310.67" r="1.6666666666666667" />
<circle cx="156.38" cy="436.61" r="1.6666666666666667" />
<circle cx="157.64" cy="328.97" r="1.6666666666666667" />
<circle cx="159.36" cy="424.63" r="1.6666666666666667" />
<circle cx="160.45" cy="274.86" r="1.6666666666666667" />
<circle cx="162.10" cy="414.24" r="1.6666666666666667" />
<circle cx="163.46" cy="354.05" r="1.6666666666666667" />
<circle cx="165.19" cy="426.24" r="1.6666666666666667" />
<circle cx="166.55" cy="355.80" r="1.6666666666666667" />
<circle cx="168.27" cy="424.27" r="1.6666666666666667" />
<circle cx="169.63" cy="357.39" r="1.6666666666666667" />
<circle cx="171.40" cy="431.24" r="1.6666666666666667" />
<circle cx="172.94" cy="393.98" r="1.6666666666666667" />
<circle cx="174.89" cy="456.30" r="1.6666666666666667" />
<circle cx="176.52" cy="410.91" r="1.6666666666666667" />
<circle cx="178.65" cy="475.00" r="1.6666666666666667" />
<circle cx="180.36" cy="423.32" r="1.6666666666666667" />
<circle cx="182.47" cy="473.16" r="1.6666666666666667" />
<circle cx="184.22" cy="430.46" r="1.6666666666666667" />
<circle cx="186.33" cy="473.06" r="1.6666666666666667" />
<circle cx="188.02" cy="419.82" r="1.6666666666666667" />
<circle cx="765.79" cy="139.20" r="1.6666666666666667" />
<circle cx="766.63" cy="152.86" r="1.6666666666666667" />
<circle cx="767.54" cy="192.06" r="1.6666666666666667" />
<circle cx="768.42" cy="170.53" r="1.6666666666666667" />
<circle cx="769.31" cy="180.64" r="1.6666666666666667" />
<circle cx="770.19" cy="176.10" r="1.6666666666666667" />
<circle cx="771.05" cy="160.48" r="1.6666666666666667" />
<circle cx="771.92" cy="167.27" r="1.6666666666666667" />
<circle cx="772.76" cy="154.19" r="1.6666666666666667" />
<circle cx="773.63" cy="165.65" r="1.6666666666666667" />
<circle cx="774.48" cy="154.72" r="1.6666666666666667" />
<circle cx="775.34" cy="165.81" r="1.6666666666666667" />
<circle cx="776.20" cy="164.84" r="1.6666666666666667" />
<circle cx="777.10" cy="184.21" r="1.6666666666666667" />
<circle cx="777.99" cy="179.10" r="1.6666666666666667" />
<circle cx="778.88" cy="181.65" r="1.6666666666666667" />
<circle cx="779.77" cy="176.83" r="1.6666666666666667" />
<circle cx="780.62" cy="156.67" r="1.6666666666666667" />
<circle cx="781.49" cy="169.53" r="1.6666666666666667" />
<circle cx="782.37" cy="176.93" r="1.6666666666666667" />
<circle cx="783.25" cy="174.39" r="1.6666666666666667" />
<circle cx="784.11" cy="158.19" r="1.6666666666666667" />
<circle cx="785.00" cy="182.03" r="1.6666666666666667" />
<circle cx="785.89" cy="181.69" r="1.6666666666666667" />
<circle cx="786.72" cy="143.59" r="1.6666666666666667" />
<circle cx="787.56" cy="148.24" r="1.6666666666666667" />
<circle cx="788.41" cy="154.40" r="1.6666666666666667" />
<circle cx="789.26" cy="154.93" r="1.6666666666666667" />
<circle cx="790.11" cy="156.09" r="1.6666666666666667" />
<circle cx="790.95" cy="155.51" r="1.6666666666666667" />
<circle cx="791.83" cy="173.06" r="1.6666666666666667" />
<circle cx="792.65" cy="132.74" r="1.6666666666666667" />
<circle cx="793.50" cy="160.22" r="1.6666666666666667" />
<circle cx="794.36" cy="160.48" r="1.6666666666666667" />
<circle cx="795.20" cy="152.54" r="1.6666666666666667" />
<circle cx="796.03" cy="142.43" r="1.6666666666666667" />
<circle cx="796.88" cy="157.04" r="1.6666666666666667" />
<circle cx="797.74" cy="158.14" r="1.6666666666666667" />
<circle cx="798.62" cy="178.53" r="1.6666666666666667" />
<circle cx="799.49" cy="169.98" r="1.6666666666666667" />
<circle cx="800.35" cy="160.37" r="1.6666666666666667" />
<circle cx="801.20" cy="157.04" r="1.6666666666666667" />
<circle cx="802.04" cy="148.51" r="1.6666666666666667" />
<circle cx="802.89" cy="153.61" r="1.6666666666666667" />
<circle cx="803.75" cy="164.18" r="1.6666666666666667" />
<circle cx="804.61" cy="164.23" r="1.6666666666666667" />
<circle cx="805.50" cy="176.78" r="1.6666666666666667" />
<circle cx="806.36" cy="162.28" r="1.6666666666666667" />
<circle cx="807.20" cy="153.34" r="1.6666666666666667" />
<circle cx="808.04" cy="151.10" r="1.6666666666666667" />
<circle cx="808.90" cy="162.69" r="1.6666666666666667" />
<circle cx="809.73" cy="139.03" r="1.6666666666666667" />
<circle cx="810.58" cy="160.27" r="1.6666666666666667" />
<circle cx="811.41" cy="142.43" r="1.6666666666666667" />
<circle cx="812.25" cy="146.66" r="1.6666666666666667" />
<circle cx="813.07" cy="141.71" r="1.6666666666666667" />
<circle cx="813.92" cy="156.77" r="1.6666666666666667" />
<circle cx="814.78" cy="160.68" r="1.6666666666666667" />
<circle cx="815.66" cy="172.27" r="1.6666666666666667" />
<circle cx="816.52" cy="161.97" r="1.6666666666666667" />
<circle cx="817.36" cy="153.18" r="1.6666666666666667" />
<circle cx="818.24" cy="170.48" r="1.6666666666666667" />
<circle cx="819.11" cy="173.55" r="1.6666666666666667" />
<circle cx="819.99" cy="170.53" r="1.6666666666666667" />
<circle cx="820.83" cy="153.18" r="1.6666666666666667" />
<circle cx="821.70" cy="166.41" r="1.6666666666666667" />
<circle cx="822.58" cy="176.25" r="1.6666666666666667" />
<circle cx="823.46" cy="170.73" r="1.6666666666666667" />
<circle cx="824.32" cy="163.82" r="1.6666666666666667" />
<circle cx="825.20" cy="174.00" r="1.6666666666666667" />
<circle cx="826.07" cy="172.37" r="1.6666666666666667" />
<circle cx="826.94" cy="167.68" r="1.6666666666666667" />
<circle cx="827.80" cy="158.61" r="1.6666666666666667" />
<circle cx="828.66" cy="162.95" r="1.6666666666666667" />
<circle cx="829.55" cy="179.54" r="1.6666666666666667" />
<circle cx="830.41" cy="165.81" r="1.6666666666666667" />
<circle cx="831.27" cy="159.54" r="1.6666666666666667" />
<circle cx="832.14" cy="170.68" r="1.6666666666666667" />
<circle cx="833.02" cy="175.37" r="1.6666666666666667" />
<circle cx="833.88" cy="158.71" r="1.6666666666666667" />
<circle cx="834.72" cy="152.38" r="1.6666666666666667" />
<circle cx="835.56" cy="150.56" r="1.6666666666666667" />
<circle cx="836.42" cy="159.70" r="1.6666666666666667" />
<circle cx="837.27" cy="156.46" r="1.6666666666666667" />
<circle cx="838.13" cy="161.36" r="1.6666666666666667" />
<circle cx="838.93" cy="125.00" r="1.6666666666666667" />
<circle cx="839.76" cy="145.90" r="1.6666666666666667" />
<circle cx="840.58" cy="138.25" r="1.6666666666666667" />
<circle cx="841.44" cy="157.04" r="1.6666666666666667" />
<circle cx="842.27" cy="147.59" r="1.6666666666666667" />
<circle cx="843.12" cy="156.35" r="1.6666666666666667" />
<circle cx="843.99" cy="170.53" r="1.6666666666666667" />
<circle cx="844.85" cy="158.29" r="1.6666666666666667" />
<circle cx="845.69" cy="149.86" r="1.6666666666666667" />
<circle cx="846.54" cy="158.87" r="1.6666666666666667" />
<circle cx="847.38" cy="150.67" r="1.6666666666666667" />
<circle cx="848.26" cy="174.39" r="1.6666666666666667" />
<circle cx="849.13" cy="164.13" r="1.6666666666666667" />
<circle cx="850.00" cy="170.78" r="1.6666666666666667" />
</g>
<g stroke="black">
<line x1="233.55" x2="233.55" y1="510.00" y2="520.00" />
<line x1="317.75" x2="317.75" y1="510.00" y2="520.00" />
<line x1="401.95" x2="401.95" y1="510.00" y2="520.00" />
<line x1="486.16" x2="486.16" y1="510.00" y2="520.00" />
<line x1="570.36" x2="570.36" y1="510.00" y2="520.00" />
<line x1="654.56" x2="654.56" y1="510.00" y2="520.00" />
<line x1="738.77" x2="738.77" y1="510.00" y2="520.00" />
<line x1="822.97" x2="822.97" y1="510.00" y2="520.00" />
<g fill="black" font-family="Arial, sans-serif" font-size="18.0" stroke="none" text-anchor="start" transform="translate(9.0 0.0)">
<text x="233.55" y="530.57">11Oct'23</text>
<text x="317.75" y="530.57">22Oct'23</text>
<text x="401.95" y="530.57">3Nov'23</text>
<text x="486.16" y="530.57">14Nov'23</text>
<text x="570.36" y="530.57">26Nov'23</text>
<text x="654.56" y="530.57">8Dec'23</text>
<text x="738.77" y="530.57">19Dec'23</text>
<text x="822.97" y="530.57">31Dec'23</text>
</g>
<line x1="150.00" x2="850.00" y1="510.00" y2="510.00" />
</g>
<g stroke="black">
<line x1="150.00" x2="140.00" y1="501.15" y2="501.15" />
<line x1="150.00" x2="140.00" y1="439.11" y2="439.11" />
<line x1="150.00" x2="140.00" y1="377.07" y2="377.07" />
<line x1="150.00" x2="140.00" y1="315.04" y2="315.04" />
<line x1="150.00" x2="140.00" y1="253.00" y2="253.00" />
<line x1="150.00" x2="140.00" y1="190.96" y2="190.96" />
<line x1="150.00" x2="140.00" y1="128.92" y2="128.92" />
<g fill="black" font-family="Arial, sans-serif" font-size="18.0" stroke="none" text-anchor="end">
<text x="141.00" y="492.15">3</text>
<text x="141.00" y="430.11">4</text>
<text x="141.00" y="368.07">5</text>
<text x="141.00" y="306.04">6</text>
<text x="141.00" y="244.00">7</text>
<text x="141.00" y="181.96">8</text>
<text x="141.00" y="119.92">9</text>
</g>
<line x1="150.00" x2="150.00" y1="510.00" y2="90.00" />
</g>
</g>
</svg>