<?xml version="1.0"?>
<svg version="1.1" viewBox="0 0 1000 600" xmlns:xlink="http://www.w3.org/1999/xlink" xmlns="http://www.w3.org/2000/svg">
<g>
<g stroke-dasharray="3.6 7.2" stroke-width="0.72" stroke="#caa">
<line x1="813.75" x2="813.75" y1="510.00" y2="90.00" />
<line x1="760.60" x2="760.60" y1="510.00" y2="90.00" />
<line x1="707.45" x2="707.45" y1="510.00" y2="90.00" />
<line x1="656.01" x2="656.01" y1="510.00" y2="90.00" />
<line x1="602.86" x2="602.86" y1="510.00" y2="90.00" />
<line x1="551.42" x2="551.42" y1="510.00" y2="90.00" />
<line x1="498.27" x2="498.27" y1="510.00" y2="90.00" />
<line x1="445.11" x2="445.11" y1="510.00" y2="90.00" />
<line x1="393.68" x2="393.68" y1="510.00" y2="90.00" />
<line x1="340.52" x2="340.52" y1="510.00" y2="90.00" />
<line x1="289.09" x2="289.09" y1="510.00" y2="90.00" />
<line x1="235.93" x2="235.93" y1="510.00" y2="90.00" />
<line x1="187.92" x2="187.92" y1="510.00" y2="90.00" />
<line x1="150.00" x2="850.00" y1="510.00" y2="510.00" />
<line x1="150.00" x2="850.00" y1="465.81" y2="465.81" />
<line x1="150.00" x2="850.00" y1="421.62" y2="421.62" />
<line x1="150.00" x2="850.00" y1="377.42" y2="377.42" />
<line x1="150.00" x2="850.00" y1="333.23" y2="333.23" />
<line x1="150.00" x2="850.00" y1="289.04" y2="289.04" />
<line x1="150.00" x2="850.00" y1="244.85" y2="244.85" />
<line x1="150.00" x2="850.00" y1="200.66" y2="200.66" />
<line x1="150.00" x2="850.00" y1="156.46" y2="156.46" />
<line x1="150.00" x2="850.00" y1="112.27" y2="112.27" />
</g>
<g>
<text dominant-baseline="hanging" dx="-36.0" dy="18.0" fill="#0004" font-family="Arial, sans-serif" font-size="36" stroke="none" text-anchor="end" x="850.00" y="128.18">R13</text>
</g>
<g>
<text dominant-baseline="text-bottom" dy="-12.0" fill="black" font-family="Arial, sans-serif" font-size="18.0" font-style="italic" stroke="none" text-anchor="middle" x="500.00" y="90.00">Years 2023 to 2024</text>
</g>
<g>
<text dominant-baseline="central" dx="12.0" dy="12.0" fill="black" font-family="Arial, sans-serif" font-size="18.0" font-style="italic" stroke="none" text-anchor="middle" text-orientation="sideways" writing-mode="vertical-lr" x="850.00" y="300.00">Drips per day</text>
</g>
<polyline fill="none" points="638.34,509.97 638.65,509.98 638.93,509.97 639.24,509.98 639.52,509.97 639.83,509.98 640.10,509.97 640.43,509.98 640.68,509.97 641.01,509.98 641.26,509.97 641.58,509.98 641.86,509.97 642.17,509.98 642.45,509.97 642.77,509.98 643.03,509.97 643.33,509.98 643.59,509.97 643.89,509.97 644.15,509.97 644.47,509.98 644.72,509.97 645.02,509.97 645.29,509.97 645.57,509.97 645.85,509.97 646.17,509.98 646.43,509.97 646.73,509.97 647.00,509.97 647.32,509.98 647.57,509.97 647.90,509.98 648.17,509.97 648.50,509.98 648.76,509.97 649.06,509.97 649.30,509.97 649.63,509.98 649.92,509.97 650.25,509.98 650.53,509.97 650.85,509.98 651.12,509.97 651.45,509.98 651.74,509.97 652.06,509.98 652.31,509.97 652.66,509.98 652.94,509.97 653.27,509.98 653.53,509.97 653.86,509.98 654.13,509.97 654.44,509.98 654.73,509.97 655.05,509.98 655.34,509.97 655.61,509.97 655.85,509.97 656.18,509.98 656.44,509.97 656.77,509.98 657.03,509.97 657.38,509.98 657.64,509.97 657.97,509.98 658.24,509.97 658.56,509.98 658.82,509.97 659.13,509.98 659.42,509.97 659.77,509.98 746.08,433.64 746.08,414.55 746.08,128.18 746.08,471.82" stroke-dasharray="3.6 3.6" stroke-width="3.6" stroke="#aaa" />
<g>
<circle cx="638.34" cy="509.97" r="1.6666666666666667" />
<circle cx="638.65" cy="509.98" r="1.6666666666666667" />
<circle cx="638.93" cy="509.97" r="1.6666666666666667" />
<circle cx="639.24" cy="509.98" r="1.6666666666666667" />
<circle cx="639.52" cy="509.97" r="1.6666666666666667" />
<circle cx="639.83" cy="509.98" r="1.6666666666666667" />
<circle cx="640.10" cy="509.97" r="1.6666666666666667" />
<circle cx="640.43" cy="509.98" r="1.6666666666666667" />
<circle cx="640.68" cy="509.97" r="1.6666666666666667" />
<circle cx="641.01" cy="509.98" r="1.6666666666666667" />
<circle cx="641.26" cy="509.97" r="1.6666666666666667" />
<circle cx="641.58" cy="509.98" r="1.6666666666666667" />
<circle cx="641.86" cy="509.97" r="1.6666666666666667" />
<circle cx="642.17" cy="509.98" r="1.6666666666666667" />
<circle cx="642.45" cy="509.97" r="1.6666666666666667" />
<circle cx="642.77" cy="509.98" r="1.6666666666666667" />
<circle cx="643.03" cy="509.97" r="1.6666666666666667" />
<circle cx="643.33" cy="509.98" r="1.6666666666666667" />
<circle cx="643.59" cy="509.97" r="1.6666666666666667" />
<circle cx="643.89" cy="509.97" r="1.6666666666666667" />
<circle cx="644.15" cy="509.97" r="1.6666666666666667" />
<circle cx="644.47" cy="509.98" r="1.6666666666666667" />
<circle cx="644.72" cy="509.97" r="1.6666666666666667" />
<circle cx="645.02" cy="509.97" r="1.6666666666666667" />
<circle cx="645.29" cy="509.97" r="1.6666666666666667" />
<circle cx="645.57" cy="509.97" r="1.6666666666666667" />
<circle cx="645.85" cy="509.97" r="1.6666666666666667" />
<circle cx="646.17" cy="509.98" r="1.6666666666666667" />
<circle cx="646.43" cy="509.97" r="1.6666666666666667" />
<circle cx="646.73" cy="509.97" r="1.6666666666666667" />
<circle cx="647.00" cy="509.97" r="1.6666666666666667" />
<circle cx="647.32" cy="509.98" r="1.6666666666666667" />
<circle cx="647.57" cy="509.97" r="1.6666666666666667" />
<circle cx="647.90" cy="509.98" r="1.6666666666666667" />
<circle cx="648.17" cy="509.97" r="1.6666666666666667" />
<circle cx="648.50" cy="509.98" r="1.6666666666666667" />
<circle cx="648.76" cy="509.97" r="1.6666666666666667" />
<circle cx="649.06" cy="509.97" r="1.6666666666666667" />
<circle cx="649.30" cy="509.97" r="1.6666666666666667" />
<circle cx="649.63" cy="509.98" r="1.6666666666666667" />
<circle cx="649.92" cy="509.97" r="1.6666666666666667" />
<circle cx="650.25" cy="509.98" r="1.6666666666666667" />
<circle cx="650.53" cy="509.97" r="1.6666666666666667" />
<circle cx="650.85" cy="509.98" r="1.6666666666666667" />
<circle cx="651.12" cy="509.97" r="1.6666666666666667" />
<circle cx="651.45" cy="509.98" r="1.6666666666666667" />
<circle cx="651.74" cy="509.97" r="1.6666666666666667" />
<circle cx="652.06" cy="509.98" r="1.6666666666666667" />
<circle cx="652.31" cy="509.97" r="1.6666666666666667" />
<circle cx="652.66" cy="509.98" r="1.6666666666666667" />
<circle cx="652.94" cy="509.97" r="1.6666666666666667" />
<circle cx="653.27" cy="509.98" r="1.6666666666666667" />
<circle cx="653.53" cy="509.97" r="1.6666666666666667" />
<circle cx="653.86" cy="509.98" r="1.6666666666666667" />
<circle cx="654.13" cy="509.97" r="1.6666666666666667" />
<circle cx="654.44" cy="509.98" r="1.6666666666666667" />
<circle cx="654.73" cy="509.97" r="1.6666666666666667" />
<circle cx="655.05" cy="509.98" r="1.6666666666666667" />
<circle cx="655.34" cy="509.97" r="1.6666666666666667" />
<circle cx="655.61" cy="509.97" r="1.6666666666666667" />
<circle cx="655.85" cy="509.97" r="1.6666666666666667" />
<circle cx="656.18" cy="509.98" r="1.6666666666666667" />
<circle cx="656.44" cy="509.97" r="1.6666666666666667" />
<circle cx="656.77" cy="509.98" r="1.6666666666666667" />
<circle cx="657.03" cy="509.97" r="1.6666666666666667" />
<circle cx="657.38" cy="509.98" r="1.6666666666666667" />
<circle cx="657.64" cy="509.97" r="1.6666666666666667" />
<circle cx="657.97" cy="509.98" r="1.6666666666666667" />
<circle cx="658.24" cy="509.97" r="1.6666666666666667" />
<circle cx="658.56" cy="509.98" r="1.6666666666666667" />
<circle cx="658.82" cy="509.97" r="1.6666666666666667" />
<circle cx="659.13" cy="509.98" r="1.6666666666666667" />
<circle cx="659.42" cy="509.97" r="1.6666666666666667" />
<circle cx="659.77" cy="509.98" r="1.6666666666666667" />
<circle cx="746.08" cy="433.64" r="1.6666666666666667" />
<circle cx="746.08" cy="414.55" r="1.6666666666666667" />
<circle cx="746.08" cy="128.18" r="1.6666666666666667" />
<circle cx="746.08" cy="471.82" r="1.6666666666666667" />
</g>
<g stroke="black">
<line x1="813.75" x2="813.75" y1="510.00" y2="520.00" />
<line x1="760.60" x2="760.60" y1="510.00" y2="520.00" />
<line x1="707.45" x2="707.45" y1="510.00" y2="520.00" />
<line x1="656.01" x2="656.01" y1="510.00" y2="520.00" />
<line x1="602.86" x2="602.86" y1="510.00" y2="520.00" />
<line x1="551.42" x2="551.42" y1="510.00" y2="520.00" />
<line x1="498.27" x2="498.27" y1="510.00" y2="520.00" />
<line x1="445.11" x2="445.11" y1="510.00" y2="520.00" />
<line x1="393.68" x2="393.68" y1="510.00" y2="520.00" />
<line x1="340.52" x2="340.52" y1="510.00" y2="520.00" />
<line x1="289.09" x2="289.09" y1="510.00" y2="520.00" />
<line x1="235.93" x2="235.93" y1="510.00" y2="520.00" />
<line x1="187.92" x2="187.92" y1="510.00" y2="520.00" />
<g fill="black" font-family="Arial, sans-serif" font-size="18.0" stroke="none" text-anchor="start" transform="translate(9.0 0.0)">
<text x="813.75" y="530.57">Feb</text>
<text x="760.60" y="530.57">Jan</text>
<text x="707.45" y="530.57">Dec</text>
<text x="656.01" y="530.57">Nov</text>
<text x="602.86" y="530.57">Oct</text>
<text x="551.42" y="530.57">Sep</text>
<text x="498.27" y="530.57">Aug</text>
<text x="445.11" y="530.57">Jul</text>
<text x="393.68" y="530.57">Jun</text>
<text x="340.52" y="530.57">May</text>
<text x="289.09" y="530.57">Apr</text>
<text x="235.93" y="530.57">Mar</text>
<text x="187.92" y="530.57">Feb</text>
</g>
<line x1="150.00" x2="850.00" y1="510.00" y2="510.00" />
</g>
<g stroke="black">
<line x1="150.00" x2="140.00" y1="510.00" y2="510.00" />
<line x1="150.00" x2="140.00" y1="465.81" y2="465.81" />
<line x1="150.00" x2="140.00" y1="421.62" y2="421.62" />
<line x1="150.00" x2="140.00" y1="377.42" y2="377.42" />
<line x1="150.00" x2="140.00" y1="333.23" y2="333.23" />
<line x1="150.00" x2="140.00" y1="289.04" y2="289.04" />
<line x1="150.00" x2="140.00" y1="244.85" y2="244.85" />
<line x1="150.00" x2="140.00" y1="200.66" y2="200.66" />
<line x1="150.00" x2="140.00" y1="156.46" y2="156.46" />
<line x1="150.00" x2="140.00" y1="112.27" y2="112.27" />
<g fill="black" font-family="Arial, sans-serif" font-size="18.0" stroke="none" text-anchor="end">
<text x="141.00" y="501.00">0</text>
<text x="141.00" y="456.81">10000</text>
<text x="141.00" y="412.62">20000</text>
<text x="141.00" y="368.42">30000</text>
<text x="141.00" y="324.23">40000</text>
<text x="141.00" y="280.04">50000</text>
<text x="141.00" y="235.85">60000</text>
<text x="141.00" y="191.66">70000</text>
<text x="141.00" y="147.46">80000</text>
<text x="141.00" y="103.27">90000</text>
</g>
<line x1="150.00" x2="150.00" y1="510.00" y2="90.00" />
</g>
</g>
</svg>