<?xml version="1.0"?>
<svg version="1.1" viewBox="0 0 1000 600" xmlns:xlink="http://www.w3.org/1999/xlink" xmlns="http://www.w3.org/2000/svg">
<g>
<g stroke-dasharray="3.6 7.2" stroke-width="0.72" stroke="#caa">
<line x1="813.75" x2="813.75" y1="510.00" y2="90.00" />
<line x1="760.60" x2="760.60" y1="510.00" y2="90.00" />
<line x1="707.45" x2="707.45" y1="510.00" y2="90.00" />
<line x1="656.01" x2="656.01" y1="510.00" y2="90.00" />
<line x1="602.86" x2="602.86" y1="510.00" y2="90.00" />
<line x1="551.42" x2="551.42" y1="510.00" y2="90.00" />
<line x1="498.27" x2="498.27" y1="510.00" y2="90.00" />
<line x1="445.11" x2="445.11" y1="510.00" y2="90.00" />
<line x1="393.68" x2="393.68" y1="510.00" y2="90.00" />
<line x1="340.52" x2="340.52" y1="510.00" y2="90.00" />
<line x1="289.09" x2="289.09" y1="510.00" y2="90.00" />
<line x1="235.93" x2="235.93" y1="510.00" y2="90.00" />
<line x1="187.92" x2="187.92" y1="510.00" y2="90.00" />
<line x1="150.00" x2="850.00" y1="510.00" y2="510.00" />
<line x1="150.00" x2="850.00" y1="216.29" y2="216.29" />
</g>
<g>
<text dominant-baseline="hanging" dx="-36.0" dy="18.0" fill="#0004" font-family="Arial, sans-serif" font-size="36" stroke="none" text-anchor="end" x="850.00" y="128.18">R13</text>
</g>
<g>
<text dominant-baseline="text-bottom" dy="-12.0" fill="black" font-family="Arial, sans-serif" font-size="18.0" font-style="italic" stroke="none" text-anchor="middle" x="500.00" y="90.00">Years 2023 to 2024</text>
</g>
<g>
<text dominant-baseline="central" dx="12.0" dy="12.0" fill="black" font-family="Arial, sans-serif" font-size="18.0" font-style="italic" stroke="none" text-anchor="middle" text-orientation="sideways" writing-mode="vertical-lr" x="850.00" y="300.00">log(Drips per day)</text>
</g>
<polyline fill="none" points="638.34,454.15 638.65,459.43 638.93,457.03 639.24,459.35 639.52,456.85 639.83,459.70 640.10,456.10 640.43,461.17 640.68,453.69 641.01,461.40 641.26,454.03 641.58,460.59 641.86,456.47 642.17,460.00 642.45,456.37 642.77,460.87 643.03,454.45 643.33,459.28 643.59,453.95 643.89,458.83 644.15,454.49 644.47,460.94 644.72,453.80 645.02,458.66 645.29,455.49 645.57,456.87 645.85,456.91 646.17,461.00 646.43,454.38 646.73,458.38 647.00,455.74 647.32,460.99 647.57,453.44 647.90,461.82 648.17,455.66 648.50,461.37 648.76,454.18 649.06,458.72 649.30,452.54 649.63,461.91 649.92,457.69 650.25,461.10 650.53,457.05 650.85,460.71 651.12,455.85 651.45,461.45 651.74,458.00 652.06,460.49 652.31,453.59 652.66,463.82 652.94,456.12 653.27,461.99 653.53,454.55 653.86,461.30 654.13,456.11 654.44,459.91 654.73,457.79 655.05,460.19 655.34,457.69 655.61,455.83 655.85,451.82 656.18,462.44 656.44,454.03 656.77,461.31 657.03,455.42 657.38,463.01 657.64,454.23 657.97,461.79 658.24,455.87 658.56,460.63 658.82,454.33 659.13,460.47 659.42,457.68 659.77,462.81 746.08,223.42 746.08,216.87 746.08,176.15 746.08,243.78" stroke-dasharray="3.6 3.6" stroke-width="3.6" stroke="#aaa" />
<g>
<circle cx="638.34" cy="454.15" r="1.6666666666666667" />
<circle cx="638.65" cy="459.43" r="1.6666666666666667" />
<circle cx="638.93" cy="457.03" r="1.6666666666666667" />
<circle cx="639.24" cy="459.35" r="1.6666666666666667" />
<circle cx="639.52" cy="456.85" r="1.6666666666666667" />
<circle cx="639.83" cy="459.70" r="1.6666666666666667" />
<circle cx="640.10" cy="456.10" r="1.6666666666666667" />
<circle cx="640.43" cy="461.17" r="1.6666666666666667" />
<circle cx="640.68" cy="453.69" r="1.6666666666666667" />
<circle cx="641.01" cy="461.40" r="1.6666666666666667" />
<circle cx="641.26" cy="454.03" r="1.6666666666666667" />
<circle cx="641.58" cy="460.59" r="1.6666666666666667" />
<circle cx="641.86" cy="456.47" r="1.6666666666666667" />
<circle cx="642.17" cy="460.00" r="1.6666666666666667" />
<circle cx="642.45" cy="456.37" r="1.6666666666666667" />
<circle cx="642.77" cy="460.87" r="1.6666666666666667" />
<circle cx="643.03" cy="454.45" r="1.6666666666666667" />
<circle cx="643.33" cy="459.28" r="1.6666666666666667" />
<circle cx="643.59" cy="453.95" r="1.6666666666666667" />
<circle cx="643.89" cy="458.83" r="1.6666666666666667" />
<circle cx="644.15" cy="454.49" r="1.6666666666666667" />
<circle cx="644.47" cy="460.94" r="1.6666666666666667" />
<circle cx="644.72" cy="453.80" r="1.6666666666666667" />
<circle cx="645.02" cy="458.66" r="1.6666666666666667" />
<circle cx="645.29" cy="455.49" r="1.6666666666666667" />
<circle cx="645.57" cy="456.87" r="1.6666666666666667" />
<circle cx="645.85" cy="456.91" r="1.6666666666666667" />
<circle cx="646.17" cy="461.00" r="1.6666666666666667" />
<circle cx="646.43" cy="454.38" r="1.6666666666666667" />
<circle cx="646.73" cy="458.38" r="1.6666666666666667" />
<circle cx="647.00" cy="455.74" r="1.6666666666666667" />
<circle cx="647.32" cy="460.99" r="1.6666666666666667" />
<circle cx="647.57" cy="453.44" r="1.6666666666666667" />
<circle cx="647.90" cy="461.82" r="1.6666666666666667" />
<circle cx="648.17" cy="455.66" r="1.6666666666666667" />
<circle cx="648.50" cy="461.37" r="1.6666666666666667" />
<circle cx="648.76" cy="454.18" r="1.6666666666666667" />
<circle cx="649.06" cy="458.72" r="1.6666666666666667" />
<circle cx="649.30" cy="452.54" r="1.6666666666666667" />
<circle cx="649.63" cy="461.91" r="1.6666666666666667" />
<circle cx="649.92" cy="457.69" r="1.6666666666666667" />
<circle cx="650.25" cy="461.10" r="1.6666666666666667" />
<circle cx="650.53" cy="457.05" r="1.6666666666666667" />
<circle cx="650.85" cy="460.71" r="1.6666666666666667" />
<circle cx="651.12" cy="455.85" r="1.6666666666666667" />
<circle cx="651.45" cy="461.45" r="1.6666666666666667" />
<circle cx="651.74" cy="458.00" r="1.6666666666666667" />
<circle cx="652.06" cy="460.49" r="1.6666666666666667" />
<circle cx="652.31" cy="453.59" r="1.6666666666666667" />
<circle cx="652.66" cy="463.82" r="1.6666666666666667" />
<circle cx="652.94" cy="456.12" r="1.6666666666666667" />
<circle cx="653.27" cy="461.99" r="1.6666666666666667" />
<circle cx="653.53" cy="454.55" r="1.6666666666666667" />
<circle cx="653.86" cy="461.30" r="1.6666666666666667" />
<circle cx="654.13" cy="456.11" r="1.6666666666666667" />
<circle cx="654.44" cy="459.91" r="1.6666666666666667" />
<circle cx="654.73" cy="457.79" r="1.6666666666666667" />
<circle cx="655.05" cy="460.19" r="1.6666666666666667" />
<circle cx="655.34" cy="457.69" r="1.6666666666666667" />
<circle cx="655.61" cy="455.83" r="1.6666666666666667" />
<circle cx="655.85" cy="451.82" r="1.6666666666666667" />
<circle cx="656.18" cy="462.44" r="1.6666666666666667" />
<circle cx="656.44" cy="454.03" r="1.6666666666666667" />
<circle cx="656.77" cy="461.31" r="1.6666666666666667" />
<circle cx="657.03" cy="455.42" r="1.6666666666666667" />
<circle cx="657.38" cy="463.01" r="1.6666666666666667" />
<circle cx="657.64" cy="454.23" r="1.6666666666666667" />
<circle cx="657.97" cy="461.79" r="1.6666666666666667" />
<circle cx="658.24" cy="455.87" r="1.6666666666666667" />
<circle cx="658.56" cy="460.63" r="1.6666666666666667" />
<circle cx="658.82" cy="454.33" r="1.6666666666666667" />
<circle cx="659.13" cy="460.47" r="1.6666666666666667" />
<circle cx="659.42" cy="457.68" r="1.6666666666666667" />
<circle cx="659.77" cy="462.81" r="1.6666666666666667" />
<circle cx="746.08" cy="223.42" r="1.6666666666666667" />
<circle cx="746.08" cy="216.87" r="1.6666666666666667" />
<circle cx="746.08" cy="176.15" r="1.6666666666666667" />
<circle cx="746.08" cy="243.78" r="1.6666666666666667" />
</g>
<g stroke="black">
<line x1="813.75" x2="813.75" y1="510.00" y2="520.00" />
<line x1="760.60" x2="760.60" y1="510.00" y2="520.00" />
<line x1="707.45" x2="707.45" y1="510.00" y2="520.00" />
<line x1="656.01" x2="656.01" y1="510.00" y2="520.00" />
<line x1="602.86" x2="602.86" y1="510.00" y2="520.00" />
<line x1="551.42" x2="551.42" y1="510.00" y2="520.00" />
<line x1="498.27" x2="498.27" y1="510.00" y2="520.00" />
<line x1="445.11" x2="445.11" y1="510.00" y2="520.00" />
<line x1="393.68" x2="393.68" y1="510.00" y2="520.00" />
<line x1="340.52" x2="340.52" y1="510.00" y2="520.00" />
<line x1="289.09" x2="289.09" y1="510.00" y2="520.00" />
<line x1="235.93" x2="235.93" y1="510.00" y2="520.00" />
<line x1="187.92" x2="187.92" y1="510.00" y2="520.00" />
<g fill="black" font-family="Arial, sans-serif" font-size="18.0" stroke="none" text-anchor="start" transform="translate(9.0 0.0)">
<text x="813.75" y="530.57">Feb</text>
<text x="760.60" y="530.57">Jan</text>
<text x="707.45" y="530.57">Dec</text>
<text x="656.01" y="530.57">Nov</text>
<text x="602.86" y="530.57">Oct</text>
<text x="551.42" y="530.57">Sep</text>
<text x="498.27" y="530.57">Aug</text>
<text x="445.11" y="530.57">Jul</text>
<text x="393.68" y="530.57">Jun</text>
<text x="340.52" y="530.57">May</text>
<text x="289.09" y="530.57">Apr</text>
<text x="235.93" y="530.57">Mar</text>
<text x="187.92" y="530.57">Feb</text>
</g>
<line x1="150.00" x2="850.00" y1="510.00" y2="510.00" />
</g>
<g stroke="black">
<line x1="150.00" x2="140.00" y1="510.00" y2="510.00" />
<line x1="150.00" x2="140.00" y1="216.29" y2="216.29" />
<g fill="black" font-family="Arial, sans-serif" font-size="18.0" stroke="none" text-anchor="end">
<text x="141.00" y="501.00">0</text>
<text x="141.00" y="207.29">10</text>
</g>
<line x1="150.00" x2="150.00" y1="510.00" y2="90.00" />
</g>
</g>
</svg>