<?xml version="1.0"?>
<svg version="1.1" viewBox="0 0 1000 600" xmlns:xlink="http://www.w3.org/1999/xlink" xmlns="http://www.w3.org/2000/svg">
<g>
<g stroke-dasharray="3.6 7.2" stroke-width="0.72" stroke="#caa">
<line x1="839.86" x2="839.86" y1="510.00" y2="90.00" />
<line x1="791.78" x2="791.78" y1="510.00" y2="90.00" />
<line x1="740.39" x2="740.39" y1="510.00" y2="90.00" />
<line x1="689.00" x2="689.00" y1="510.00" y2="90.00" />
<line x1="639.26" x2="639.26" y1="510.00" y2="90.00" />
<line x1="587.87" x2="587.87" y1="510.00" y2="90.00" />
<line x1="538.13" x2="538.13" y1="510.00" y2="90.00" />
<line x1="486.74" x2="486.74" y1="510.00" y2="90.00" />
<line x1="435.35" x2="435.35" y1="510.00" y2="90.00" />
<line x1="385.61" x2="385.61" y1="510.00" y2="90.00" />
<line x1="334.22" x2="334.22" y1="510.00" y2="90.00" />
<line x1="284.48" x2="284.48" y1="510.00" y2="90.00" />
<line x1="233.09" x2="233.09" y1="510.00" y2="90.00" />
<line x1="186.67" x2="186.67" y1="510.00" y2="90.00" />
<line x1="150.00" x2="850.00" y1="510.00" y2="510.00" />
<line x1="150.00" x2="850.00" y1="216.29" y2="216.29" />
</g>
<g>
<text dominant-baseline="hanging" dx="-36.0" dy="18.0" fill="#0004" font-family="Arial, sans-serif" font-size="36" stroke="none" text-anchor="end" x="850.00" y="128.18">R13</text>
</g>
<g>
<text dominant-baseline="text-bottom" dy="-12.0" fill="black" font-family="Arial, sans-serif" font-size="18.0" font-style="italic" stroke="none" text-anchor="middle" x="500.00" y="90.00">Years 2023 to 2024</text>
</g>
<g>
<text dominant-baseline="central" dx="12.0" dy="12.0" fill="black" font-family="Arial, sans-serif" font-size="18.0" font-style="italic" stroke="none" text-anchor="middle" text-orientation="sideways" writing-mode="vertical-lr" x="850.00" y="300.00">log(Drips per day)</text>
</g>
<polyline fill="none" points="622.18,454.15 622.48,459.43 622.75,457.03 623.04,459.35 623.32,456.85 623.61,459.70 623.88,456.10 624.19,461.17 624.44,453.69 624.75,461.40 625.00,454.03 625.31,460.59 625.58,456.47 625.88,460.00 626.15,456.37 626.46,460.87 626.71,454.45 627.00,459.28 627.25,453.95 627.54,458.83 627.79,454.49 628.10,460.94 628.35,453.80 628.63,458.66 628.89,455.49 629.17,456.87 629.44,456.91 629.75,461.00 630.00,454.38 630.29,458.38 630.55,455.74 630.86,460.99 631.10,453.44 631.42,461.82 631.68,455.66 632.00,461.37 632.25,454.18 632.54,458.72 632.77,452.54 633.09,461.91 633.37,457.69 633.69,461.10 633.96,457.05 634.27,460.71 634.53,455.85 634.85,461.45 635.13,458.00 635.44,460.49 635.68,453.59 636.03,463.82 636.29,456.12 636.61,461.99 636.86,454.55 637.18,461.30 637.44,456.11 637.75,459.91 638.03,457.79 638.33,460.19 638.61,457.69 638.87,455.83 639.10,451.82 639.43,462.44 639.68,454.03 639.99,461.31 640.25,455.42 640.58,463.01 640.83,454.23 641.15,461.79 641.42,455.87 641.73,460.63 641.97,454.33 642.28,460.47 642.56,457.68 642.89,462.81 726.35,223.42 726.35,216.87 726.35,176.15 726.35,243.78" stroke-dasharray="3.6 3.6" stroke-width="3.6" stroke="#aaa" />
<g>
<circle cx="622.18" cy="454.15" r="1.6666666666666667" />
<circle cx="622.48" cy="459.43" r="1.6666666666666667" />
<circle cx="622.75" cy="457.03" r="1.6666666666666667" />
<circle cx="623.04" cy="459.35" r="1.6666666666666667" />
<circle cx="623.32" cy="456.85" r="1.6666666666666667" />
<circle cx="623.61" cy="459.70" r="1.6666666666666667" />
<circle cx="623.88" cy="456.10" r="1.6666666666666667" />
<circle cx="624.19" cy="461.17" r="1.6666666666666667" />
<circle cx="624.44" cy="453.69" r="1.6666666666666667" />
<circle cx="624.75" cy="461.40" r="1.6666666666666667" />
<circle cx="625.00" cy="454.03" r="1.6666666666666667" />
<circle cx="625.31" cy="460.59" r="1.6666666666666667" />
<circle cx="625.58" cy="456.47" r="1.6666666666666667" />
<circle cx="625.88" cy="460.00" r="1.6666666666666667" />
<circle cx="626.15" cy="456.37" r="1.6666666666666667" />
<circle cx="626.46" cy="460.87" r="1.6666666666666667" />
<circle cx="626.71" cy="454.45" r="1.6666666666666667" />
<circle cx="627.00" cy="459.28" r="1.6666666666666667" />
<circle cx="627.25" cy="453.95" r="1.6666666666666667" />
<circle cx="627.54" cy="458.83" r="1.6666666666666667" />
<circle cx="627.79" cy="454.49" r="1.6666666666666667" />
<circle cx="628.10" cy="460.94" r="1.6666666666666667" />
<circle cx="628.35" cy="453.80" r="1.6666666666666667" />
<circle cx="628.63" cy="458.66" r="1.6666666666666667" />
<circle cx="628.89" cy="455.49" r="1.6666666666666667" />
<circle cx="629.17" cy="456.87" r="1.6666666666666667" />
<circle cx="629.44" cy="456.91" r="1.6666666666666667" />
<circle cx="629.75" cy="461.00" r="1.6666666666666667" />
<circle cx="630.00" cy="454.38" r="1.6666666666666667" />
<circle cx="630.29" cy="458.38" r="1.6666666666666667" />
<circle cx="630.55" cy="455.74" r="1.6666666666666667" />
<circle cx="630.86" cy="460.99" r="1.6666666666666667" />
<circle cx="631.10" cy="453.44" r="1.6666666666666667" />
<circle cx="631.42" cy="461.82" r="1.6666666666666667" />
<circle cx="631.68" cy="455.66" r="1.6666666666666667" />
<circle cx="632.00" cy="461.37" r="1.6666666666666667" />
<circle cx="632.25" cy="454.18" r="1.6666666666666667" />
<circle cx="632.54" cy="458.72" r="1.6666666666666667" />
<circle cx="632.77" cy="452.54" r="1.6666666666666667" />
<circle cx="633.09" cy="461.91" r="1.6666666666666667" />
<circle cx="633.37" cy="457.69" r="1.6666666666666667" />
<circle cx="633.69" cy="461.10" r="1.6666666666666667" />
<circle cx="633.96" cy="457.05" r="1.6666666666666667" />
<circle cx="634.27" cy="460.71" r="1.6666666666666667" />
<circle cx="634.53" cy="455.85" r="1.6666666666666667" />
<circle cx="634.85" cy="461.45" r="1.6666666666666667" />
<circle cx="635.13" cy="458.00" r="1.6666666666666667" />
<circle cx="635.44" cy="460.49" r="1.6666666666666667" />
<circle cx="635.68" cy="453.59" r="1.6666666666666667" />
<circle cx="636.03" cy="463.82" r="1.6666666666666667" />
<circle cx="636.29" cy="456.12" r="1.6666666666666667" />
<circle cx="636.61" cy="461.99" r="1.6666666666666667" />
<circle cx="636.86" cy="454.55" r="1.6666666666666667" />
<circle cx="637.18" cy="461.30" r="1.6666666666666667" />
<circle cx="637.44" cy="456.11" r="1.6666666666666667" />
<circle cx="637.75" cy="459.91" r="1.6666666666666667" />
<circle cx="638.03" cy="457.79" r="1.6666666666666667" />
<circle cx="638.33" cy="460.19" r="1.6666666666666667" />
<circle cx="638.61" cy="457.69" r="1.6666666666666667" />
<circle cx="638.87" cy="455.83" r="1.6666666666666667" />
<circle cx="639.10" cy="451.82" r="1.6666666666666667" />
<circle cx="639.43" cy="462.44" r="1.6666666666666667" />
<circle cx="639.68" cy="454.03" r="1.6666666666666667" />
<circle cx="639.99" cy="461.31" r="1.6666666666666667" />
<circle cx="640.25" cy="455.42" r="1.6666666666666667" />
<circle cx="640.58" cy="463.01" r="1.6666666666666667" />
<circle cx="640.83" cy="454.23" r="1.6666666666666667" />
<circle cx="641.15" cy="461.79" r="1.6666666666666667" />
<circle cx="641.42" cy="455.87" r="1.6666666666666667" />
<circle cx="641.73" cy="460.63" r="1.6666666666666667" />
<circle cx="641.97" cy="454.33" r="1.6666666666666667" />
<circle cx="642.28" cy="460.47" r="1.6666666666666667" />
<circle cx="642.56" cy="457.68" r="1.6666666666666667" />
<circle cx="642.89" cy="462.81" r="1.6666666666666667" />
<circle cx="726.35" cy="223.42" r="1.6666666666666667" />
<circle cx="726.35" cy="216.87" r="1.6666666666666667" />
<circle cx="726.35" cy="176.15" r="1.6666666666666667" />
<circle cx="726.35" cy="243.78" r="1.6666666666666667" />
</g>
<g stroke="black">
<line x1="839.86" x2="839.86" y1="510.00" y2="520.00" />
<line x1="791.78" x2="791.78" y1="510.00" y2="520.00" />
<line x1="740.39" x2="740.39" y1="510.00" y2="520.00" />
<line x1="689.00" x2="689.00" y1="510.00" y2="520.00" />
<line x1="639.26" x2="639.26" y1="510.00" y2="520.00" />
<line x1="587.87" x2="587.87" y1="510.00" y2="520.00" />
<line x1="538.13" x2="538.13" y1="510.00" y2="520.00" />
<line x1="486.74" x2="486.74" y1="510.00" y2="520.00" />
<line x1="435.35" x2="435.35" y1="510.00" y2="520.00" />
<line x1="385.61" x2="385.61" y1="510.00" y2="520.00" />
<line x1="334.22" x2="334.22" y1="510.00" y2="520.00" />
<line x1="284.48" x2="284.48" y1="510.00" y2="520.00" />
<line x1="233.09" x2="233.09" y1="510.00" y2="520.00" />
<line x1="186.67" x2="186.67" y1="510.00" y2="520.00" />
<g fill="black" font-family="Arial, sans-serif" font-size="18.0" stroke="none" text-anchor="start" transform="translate(9.0 0.0)">
<text x="839.86" y="530.57">Mar</text>
<text x="791.78" y="530.57">Feb</text>
<text x="740.39" y="530.57">Jan</text>
<text x="689.00" y="530.57">Dec</text>
<text x="639.26" y="530.57">Nov</text>
<text x="587.87" y="530.57">Oct</text>
<text x="538.13" y="530.57">Sep</text>
<text x="486.74" y="530.57">Aug</text>
<text x="435.35" y="530.57">Jul</text>
<text x="385.61" y="530.57">Jun</text>
<text x="334.22" y="530.57">May</text>
<text x="284.48" y="530.57">Apr</text>
<text x="233.09" y="530.57">Mar</text>
<text x="186.67" y="530.57">Feb</text>
</g>
<line x1="150.00" x2="850.00" y1="510.00" y2="510.00" />
</g>
<g stroke="black">
<line x1="150.00" x2="140.00" y1="510.00" y2="510.00" />
<line x1="150.00" x2="140.00" y1="216.29" y2="216.29" />
<g fill="black" font-family="Arial, sans-serif" font-size="18.0" stroke="none" text-anchor="end">
<text x="141.00" y="501.00">0</text>
<text x="141.00" y="207.29">10</text>
</g>
<line x1="150.00" x2="150.00" y1="510.00" y2="90.00" />
</g>
</g>
</svg>