<?xml version="1.0"?>
<svg version="1.1" viewBox="0 0 1000 600" xmlns:xlink="http://www.w3.org/1999/xlink" xmlns="http://www.w3.org/2000/svg">
<g>
<g stroke-dasharray="3.6 7.2" stroke-width="0.72" stroke="#caa">
<line x1="813.75" x2="813.75" y1="510.00" y2="90.00" />
<line x1="760.60" x2="760.60" y1="510.00" y2="90.00" />
<line x1="707.45" x2="707.45" y1="510.00" y2="90.00" />
<line x1="656.01" x2="656.01" y1="510.00" y2="90.00" />
<line x1="602.86" x2="602.86" y1="510.00" y2="90.00" />
<line x1="551.42" x2="551.42" y1="510.00" y2="90.00" />
<line x1="498.27" x2="498.27" y1="510.00" y2="90.00" />
<line x1="445.11" x2="445.11" y1="510.00" y2="90.00" />
<line x1="393.68" x2="393.68" y1="510.00" y2="90.00" />
<line x1="340.52" x2="340.52" y1="510.00" y2="90.00" />
<line x1="289.09" x2="289.09" y1="510.00" y2="90.00" />
<line x1="235.93" x2="235.93" y1="510.00" y2="90.00" />
<line x1="187.92" x2="187.92" y1="510.00" y2="90.00" />
<line x1="150.00" x2="850.00" y1="510.00" y2="510.00" />
<line x1="150.00" x2="850.00" y1="319.09" y2="319.09" />
<line x1="150.00" x2="850.00" y1="128.18" y2="128.18" />
</g>
<g>
<text dominant-baseline="hanging" dx="-36.0" dy="18.0" fill="#0004" font-family="Arial, sans-serif" font-size="36" stroke="none" text-anchor="end" x="850.00" y="128.18">R13</text>
</g>
<g>
<text dominant-baseline="text-bottom" dy="-12.0" fill="black" font-family="Arial, sans-serif" font-size="18.0" font-style="italic" stroke="none" text-anchor="middle" x="500.00" y="90.00">Days since start</text>
</g>
<g>
<text dominant-baseline="central" dx="12.0" dy="12.0" fill="black" font-family="Arial, sans-serif" font-size="18.0" font-style="italic" stroke="none" text-anchor="middle" text-orientation="sideways" writing-mode="vertical-lr" x="850.00" y="300.00">Drips per day</text>
</g>
<polyline fill="none" points="638.34,382.17 638.65,403.20 638.93,394.11 639.24,402.92 639.52,393.40 639.83,404.18 640.10,390.39 640.43,409.36 640.68,380.16 641.01,410.12 641.26,381.66 641.58,407.35 641.86,391.86 642.17,405.25 642.45,391.46 642.77,408.32 643.03,383.44 643.33,402.65 643.59,381.31 643.89,401.00 644.15,383.63 644.47,408.56 644.72,380.61 645.02,400.37 645.29,387.85 645.57,393.46 645.85,393.62 646.17,408.74 646.43,383.16 646.73,399.31 647.00,388.89 647.32,408.73 647.57,379.04 647.90,411.54 648.17,388.56 648.50,410.03 648.76,382.30 649.06,400.58 649.30,374.95 649.63,411.85 649.92,396.69 650.25,409.10 650.53,394.18 650.85,407.75 651.12,389.35 651.45,410.30 651.74,397.88 652.06,406.99 652.31,379.68 652.66,418.01 652.94,390.45 653.27,412.10 653.53,383.88 653.86,409.79 654.13,390.40 654.44,404.93 654.73,397.07 655.05,405.93 655.34,396.66 655.61,389.27 655.85,371.61 656.18,413.61 656.44,381.64 656.77,409.83 657.03,387.59 657.38,415.44 657.64,382.49 657.97,411.44 658.24,389.43 658.56,407.47 658.82,382.96 659.13,406.90 659.42,396.64 659.77,414.80" stroke-dasharray="3.6 3.6" stroke-width="3.6" stroke="#aaa" />
<g>
<circle cx="638.34" cy="382.17" r="1.6666666666666667" />
<circle cx="638.65" cy="403.20" r="1.6666666666666667" />
<circle cx="638.93" cy="394.11" r="1.6666666666666667" />
<circle cx="639.24" cy="402.92" r="1.6666666666666667" />
<circle cx="639.52" cy="393.40" r="1.6666666666666667" />
<circle cx="639.83" cy="404.18" r="1.6666666666666667" />
<circle cx="640.10" cy="390.39" r="1.6666666666666667" />
<circle cx="640.43" cy="409.36" r="1.6666666666666667" />
<circle cx="640.68" cy="380.16" r="1.6666666666666667" />
<circle cx="641.01" cy="410.12" r="1.6666666666666667" />
<circle cx="641.26" cy="381.66" r="1.6666666666666667" />
<circle cx="641.58" cy="407.35" r="1.6666666666666667" />
<circle cx="641.86" cy="391.86" r="1.6666666666666667" />
<circle cx="642.17" cy="405.25" r="1.6666666666666667" />
<circle cx="642.45" cy="391.46" r="1.6666666666666667" />
<circle cx="642.77" cy="408.32" r="1.6666666666666667" />
<circle cx="643.03" cy="383.44" r="1.6666666666666667" />
<circle cx="643.33" cy="402.65" r="1.6666666666666667" />
<circle cx="643.59" cy="381.31" r="1.6666666666666667" />
<circle cx="643.89" cy="401.00" r="1.6666666666666667" />
<circle cx="644.15" cy="383.63" r="1.6666666666666667" />
<circle cx="644.47" cy="408.56" r="1.6666666666666667" />
<circle cx="644.72" cy="380.61" r="1.6666666666666667" />
<circle cx="645.02" cy="400.37" r="1.6666666666666667" />
<circle cx="645.29" cy="387.85" r="1.6666666666666667" />
<circle cx="645.57" cy="393.46" r="1.6666666666666667" />
<circle cx="645.85" cy="393.62" r="1.6666666666666667" />
<circle cx="646.17" cy="408.74" r="1.6666666666666667" />
<circle cx="646.43" cy="383.16" r="1.6666666666666667" />
<circle cx="646.73" cy="399.31" r="1.6666666666666667" />
<circle cx="647.00" cy="388.89" r="1.6666666666666667" />
<circle cx="647.32" cy="408.73" r="1.6666666666666667" />
<circle cx="647.57" cy="379.04" r="1.6666666666666667" />
<circle cx="647.90" cy="411.54" r="1.6666666666666667" />
<circle cx="648.17" cy="388.56" r="1.6666666666666667" />
<circle cx="648.50" cy="410.03" r="1.6666666666666667" />
<circle cx="648.76" cy="382.30" r="1.6666666666666667" />
<circle cx="649.06" cy="400.58" r="1.6666666666666667" />
<circle cx="649.30" cy="374.95" r="1.6666666666666667" />
<circle cx="649.63" cy="411.85" r="1.6666666666666667" />
<circle cx="649.92" cy="396.69" r="1.6666666666666667" />
<circle cx="650.25" cy="409.10" r="1.6666666666666667" />
<circle cx="650.53" cy="394.18" r="1.6666666666666667" />
<circle cx="650.85" cy="407.75" r="1.6666666666666667" />
<circle cx="651.12" cy="389.35" r="1.6666666666666667" />
<circle cx="651.45" cy="410.30" r="1.6666666666666667" />
<circle cx="651.74" cy="397.88" r="1.6666666666666667" />
<circle cx="652.06" cy="406.99" r="1.6666666666666667" />
<circle cx="652.31" cy="379.68" r="1.6666666666666667" />
<circle cx="652.66" cy="418.01" r="1.6666666666666667" />
<circle cx="652.94" cy="390.45" r="1.6666666666666667" />
<circle cx="653.27" cy="412.10" r="1.6666666666666667" />
<circle cx="653.53" cy="383.88" r="1.6666666666666667" />
<circle cx="653.86" cy="409.79" r="1.6666666666666667" />
<circle cx="654.13" cy="390.40" r="1.6666666666666667" />
<circle cx="654.44" cy="404.93" r="1.6666666666666667" />
<circle cx="654.73" cy="397.07" r="1.6666666666666667" />
<circle cx="655.05" cy="405.93" r="1.6666666666666667" />
<circle cx="655.34" cy="396.66" r="1.6666666666666667" />
<circle cx="655.61" cy="389.27" r="1.6666666666666667" />
<circle cx="655.85" cy="371.61" r="1.6666666666666667" />
<circle cx="656.18" cy="413.61" r="1.6666666666666667" />
<circle cx="656.44" cy="381.64" r="1.6666666666666667" />
<circle cx="656.77" cy="409.83" r="1.6666666666666667" />
<circle cx="657.03" cy="387.59" r="1.6666666666666667" />
<circle cx="657.38" cy="415.44" r="1.6666666666666667" />
<circle cx="657.64" cy="382.49" r="1.6666666666666667" />
<circle cx="657.97" cy="411.44" r="1.6666666666666667" />
<circle cx="658.24" cy="389.43" r="1.6666666666666667" />
<circle cx="658.56" cy="407.47" r="1.6666666666666667" />
<circle cx="658.82" cy="382.96" r="1.6666666666666667" />
<circle cx="659.13" cy="406.90" r="1.6666666666666667" />
<circle cx="659.42" cy="396.64" r="1.6666666666666667" />
<circle cx="659.77" cy="414.80" r="1.6666666666666667" />
</g>
<g stroke="black">
<line x1="813.75" x2="813.75" y1="510.00" y2="520.00" />
<line x1="760.60" x2="760.60" y1="510.00" y2="520.00" />
<line x1="707.45" x2="707.45" y1="510.00" y2="520.00" />
<line x1="656.01" x2="656.01" y1="510.00" y2="520.00" />
<line x1="602.86" x2="602.86" y1="510.00" y2="520.00" />
<line x1="551.42" x2="551.42" y1="510.00" y2="520.00" />
<line x1="498.27" x2="498.27" y1="510.00" y2="520.00" />
<line x1="445.11" x2="445.11" y1="510.00" y2="520.00" />
<line x1="393.68" x2="393.68" y1="510.00" y2="520.00" />
<line x1="340.52" x2="340.52" y1="510.00" y2="520.00" />
<line x1="289.09" x2="289.09" y1="510.00" y2="520.00" />
<line x1="235.93" x2="235.93" y1="510.00" y2="520.00" />
<line x1="187.92" x2="187.92" y1="510.00" y2="520.00" />
<g fill="black" font-family="Arial, sans-serif" font-size="18.0" stroke="none" text-anchor="start" transform="translate(9.0 0.0)">
<text x="813.75" y="530.57">Feb</text>
<text x="760.60" y="530.57">Jan</text>
<text x="707.45" y="530.57">Dec</text>
<text x="656.01" y="530.57">Nov</text>
<text x="602.86" y="530.57">Oct</text>
<text x="551.42" y="530.57">Sep</text>
<text x="498.27" y="530.57">Aug</text>
<text x="445.11" y="530.57">Jul</text>
<text x="393.68" y="530.57">Jun</text>
<text x="340.52" y="530.57">May</text>
<text x="289.09" y="530.57">Apr</text>
<text x="235.93" y="530.57">Mar</text>
<text x="187.92" y="530.57">Feb</text>
</g>
<line x1="150.00" x2="850.00" y1="510.00" y2="510.00" />
</g>
<g stroke="black">
<line x1="150.00" x2="140.00" y1="510.00" y2="510.00" />
<line x1="150.00" x2="140.00" y1="319.09" y2="319.09" />
<line x1="150.00" x2="140.00" y1="128.18" y2="128.18" />
<g fill="black" font-family="Arial, sans-serif" font-size="18.0" stroke="none" text-anchor="end">
<text x="141.00" y="501.00">0</text>
<text x="141.00" y="310.09">10</text>
<text x="141.00" y="119.18">20</text>
</g>
<line x1="150.00" x2="150.00" y1="510.00" y2="90.00" />
</g>
</g>
</svg>