<?xml version="1.0"?>
<svg version="1.1" viewBox="0 0 1000 600" xmlns:xlink="http://www.w3.org/1999/xlink" xmlns="http://www.w3.org/2000/svg">
<g>
<g stroke-dasharray="3.6 7.2" stroke-width="0.72" stroke="#caa">
<line x1="245.75" x2="245.75" y1="510.00" y2="90.00" />
<line x1="357.15" x2="357.15" y1="510.00" y2="90.00" />
<line x1="468.56" x2="468.56" y1="510.00" y2="90.00" />
<line x1="579.96" x2="579.96" y1="510.00" y2="90.00" />
<line x1="691.36" x2="691.36" y1="510.00" y2="90.00" />
<line x1="802.77" x2="802.77" y1="510.00" y2="90.00" />
<line x1="150.00" x2="850.00" y1="510.00" y2="510.00" />
<line x1="150.00" x2="850.00" y1="465.81" y2="465.81" />
<line x1="150.00" x2="850.00" y1="421.62" y2="421.62" />
<line x1="150.00" x2="850.00" y1="377.42" y2="377.42" />
<line x1="150.00" x2="850.00" y1="333.23" y2="333.23" />
<line x1="150.00" x2="850.00" y1="289.04" y2="289.04" />
<line x1="150.00" x2="850.00" y1="244.85" y2="244.85" />
<line x1="150.00" x2="850.00" y1="200.65" y2="200.65" />
<line x1="150.00" x2="850.00" y1="156.46" y2="156.46" />
<line x1="150.00" x2="850.00" y1="112.27" y2="112.27" />
</g>
<g>
<text dominant-baseline="hanging" dx="-36.0" dy="18.0" fill="#0004" font-family="Arial, sans-serif" font-size="36" stroke="none" text-anchor="end" x="850.00" y="128.18">R13</text>
</g>
<g>
<text dominant-baseline="text-bottom" dy="-12.0" fill="black" font-family="Arial, sans-serif" font-size="18.0" font-style="italic" stroke="none" text-anchor="middle" x="500.00" y="90.00">Days since start</text>
</g>
<g>
<text dominant-baseline="central" dx="12.0" dy="12.0" fill="black" font-family="Arial, sans-serif" font-size="18.0" font-style="italic" stroke="none" text-anchor="middle" text-orientation="sideways" writing-mode="vertical-lr" x="850.00" y="300.00">Drips per day</text>
</g>
<polyline fill="none" points="150.00,509.97 151.99,509.98 153.83,509.97 155.81,509.98 157.64,509.97 159.65,509.98 161.42,509.97 163.54,509.98 165.18,509.97 167.31,509.98 168.96,509.97 171.03,509.98 172.83,509.97 174.86,509.98 176.66,509.97 178.75,509.98 180.43,509.97 182.41,509.98 184.06,509.97 186.02,509.97 187.70,509.97 189.80,509.98 191.44,509.97 193.38,509.97 195.12,509.97 196.95,509.97 198.77,509.97 200.87,509.98 202.55,509.97 204.47,509.97 206.23,509.97 208.33,509.98 209.95,509.97 212.11,509.98 213.86,509.97 215.99,509.98 217.66,509.97 219.60,509.97 221.17,509.97 223.34,509.98 225.22,509.97 227.33,509.98 229.16,509.97 231.24,509.98 233.01,509.97 235.14,509.98 237.04,509.97 239.10,509.98 240.73,509.97 243.04,509.98 244.82,509.97 247.00,509.98 248.68,509.97 250.80,509.98 252.58,509.97 254.61,509.98 256.49,509.97 258.53,509.98 260.41,509.97 262.17,509.97 263.71,509.97 265.91,509.98 267.57,509.97 269.69,509.98 271.43,509.97 273.68,509.98 275.35,509.97 277.51,509.98 279.27,509.97 281.35,509.98 283.02,509.97 285.08,509.98 286.96,509.97 289.19,509.98 850.00,433.64 850.00,414.54 850.00,128.18 850.00,471.82" stroke-dasharray="3.6 3.6" stroke-width="3.6" stroke="#aaa" />
<g>
<circle cx="150.00" cy="509.97" r="1.6666666666666667" />
<circle cx="151.99" cy="509.98" r="1.6666666666666667" />
<circle cx="153.83" cy="509.97" r="1.6666666666666667" />
<circle cx="155.81" cy="509.98" r="1.6666666666666667" />
<circle cx="157.64" cy="509.97" r="1.6666666666666667" />
<circle cx="159.65" cy="509.98" r="1.6666666666666667" />
<circle cx="161.42" cy="509.97" r="1.6666666666666667" />
<circle cx="163.54" cy="509.98" r="1.6666666666666667" />
<circle cx="165.18" cy="509.97" r="1.6666666666666667" />
<circle cx="167.31" cy="509.98" r="1.6666666666666667" />
<circle cx="168.96" cy="509.97" r="1.6666666666666667" />
<circle cx="171.03" cy="509.98" r="1.6666666666666667" />
<circle cx="172.83" cy="509.97" r="1.6666666666666667" />
<circle cx="174.86" cy="509.98" r="1.6666666666666667" />
<circle cx="176.66" cy="509.97" r="1.6666666666666667" />
<circle cx="178.75" cy="509.98" r="1.6666666666666667" />
<circle cx="180.43" cy="509.97" r="1.6666666666666667" />
<circle cx="182.41" cy="509.98" r="1.6666666666666667" />
<circle cx="184.06" cy="509.97" r="1.6666666666666667" />
<circle cx="186.02" cy="509.97" r="1.6666666666666667" />
<circle cx="187.70" cy="509.97" r="1.6666666666666667" />
<circle cx="189.80" cy="509.98" r="1.6666666666666667" />
<circle cx="191.44" cy="509.97" r="1.6666666666666667" />
<circle cx="193.38" cy="509.97" r="1.6666666666666667" />
<circle cx="195.12" cy="509.97" r="1.6666666666666667" />
<circle cx="196.95" cy="509.97" r="1.6666666666666667" />
<circle cx="198.77" cy="509.97" r="1.6666666666666667" />
<circle cx="200.87" cy="509.98" r="1.6666666666666667" />
<circle cx="202.55" cy="509.97" r="1.6666666666666667" />
<circle cx="204.47" cy="509.97" r="1.6666666666666667" />
<circle cx="206.23" cy="509.97" r="1.6666666666666667" />
<circle cx="208.33" cy="509.98" r="1.6666666666666667" />
<circle cx="209.95" cy="509.97" r="1.6666666666666667" />
<circle cx="212.11" cy="509.98" r="1.6666666666666667" />
<circle cx="213.86" cy="509.97" r="1.6666666666666667" />
<circle cx="215.99" cy="509.98" r="1.6666666666666667" />
<circle cx="217.66" cy="509.97" r="1.6666666666666667" />
<circle cx="219.60" cy="509.97" r="1.6666666666666667" />
<circle cx="221.17" cy="509.97" r="1.6666666666666667" />
<circle cx="223.34" cy="509.98" r="1.6666666666666667" />
<circle cx="225.22" cy="509.97" r="1.6666666666666667" />
<circle cx="227.33" cy="509.98" r="1.6666666666666667" />
<circle cx="229.16" cy="509.97" r="1.6666666666666667" />
<circle cx="231.24" cy="509.98" r="1.6666666666666667" />
<circle cx="233.01" cy="509.97" r="1.6666666666666667" />
<circle cx="235.14" cy="509.98" r="1.6666666666666667" />
<circle cx="237.04" cy="509.97" r="1.6666666666666667" />
<circle cx="239.10" cy="509.98" r="1.6666666666666667" />
<circle cx="240.73" cy="509.97" r="1.6666666666666667" />
<circle cx="243.04" cy="509.98" r="1.6666666666666667" />
<circle cx="244.82" cy="509.97" r="1.6666666666666667" />
<circle cx="247.00" cy="509.98" r="1.6666666666666667" />
<circle cx="248.68" cy="509.97" r="1.6666666666666667" />
<circle cx="250.80" cy="509.98" r="1.6666666666666667" />
<circle cx="252.58" cy="509.97" r="1.6666666666666667" />
<circle cx="254.61" cy="509.98" r="1.6666666666666667" />
<circle cx="256.49" cy="509.97" r="1.6666666666666667" />
<circle cx="258.53" cy="509.98" r="1.6666666666666667" />
<circle cx="260.41" cy="509.97" r="1.6666666666666667" />
<circle cx="262.17" cy="509.97" r="1.6666666666666667" />
<circle cx="263.71" cy="509.97" r="1.6666666666666667" />
<circle cx="265.91" cy="509.98" r="1.6666666666666667" />
<circle cx="267.57" cy="509.97" r="1.6666666666666667" />
<circle cx="269.69" cy="509.98" r="1.6666666666666667" />
<circle cx="271.43" cy="509.97" r="1.6666666666666667" />
<circle cx="273.68" cy="509.98" r="1.6666666666666667" />
<circle cx="275.35" cy="509.97" r="1.6666666666666667" />
<circle cx="277.51" cy="509.98" r="1.6666666666666667" />
<circle cx="279.27" cy="509.97" r="1.6666666666666667" />
<circle cx="281.35" cy="509.98" r="1.6666666666666667" />
<circle cx="283.02" cy="509.97" r="1.6666666666666667" />
<circle cx="285.08" cy="509.98" r="1.6666666666666667" />
<circle cx="286.96" cy="509.97" r="1.6666666666666667" />
<circle cx="289.19" cy="509.98" r="1.6666666666666667" />
<circle cx="850.00" cy="433.64" r="1.6666666666666667" />
<circle cx="850.00" cy="414.54" r="1.6666666666666667" />
<circle cx="850.00" cy="128.18" r="1.6666666666666667" />
<circle cx="850.00" cy="471.82" r="1.6666666666666667" />
</g>
<g stroke="black">
<line x1="245.75" x2="245.75" y1="510.00" y2="520.00" />
<line x1="357.15" x2="357.15" y1="510.00" y2="520.00" />
<line x1="468.56" x2="468.56" y1="510.00" y2="520.00" />
<line x1="579.96" x2="579.96" y1="510.00" y2="520.00" />
<line x1="691.36" x2="691.36" y1="510.00" y2="520.00" />
<line x1="802.77" x2="802.77" y1="510.00" y2="520.00" />
<g fill="black" font-family="Arial, sans-serif" font-size="18.0" stroke="none" text-anchor="start" transform="translate(9.0 0.0)">
<text x="245.75" y="530.57">19660</text>
<text x="357.15" y="530.57">19670</text>
<text x="468.56" y="530.57">19680</text>
<text x="579.96" y="530.57">19690</text>
<text x="691.36" y="530.57">19700</text>
<text x="802.77" y="530.57">19710</text>
</g>
<line x1="150.00" x2="850.00" y1="510.00" y2="510.00" />
</g>
<g stroke="black">
<line x1="150.00" x2="140.00" y1="510.00" y2="510.00" />
<line x1="150.00" x2="140.00" y1="465.81" y2="465.81" />
<line x1="150.00" x2="140.00" y1="421.62" y2="421.62" />
<line x1="150.00" x2="140.00" y1="377.42" y2="377.42" />
<line x1="150.00" x2="140.00" y1="333.23" y2="333.23" />
<line x1="150.00" x2="140.00" y1="289.04" y2="289.04" />
<line x1="150.00" x2="140.00" y1="244.85" y2="244.85" />
<line x1="150.00" x2="140.00" y1="200.65" y2="200.65" />
<line x1="150.00" x2="140.00" y1="156.46" y2="156.46" />
<line x1="150.00" x2="140.00" y1="112.27" y2="112.27" />
<g fill="black" font-family="Arial, sans-serif" font-size="18.0" stroke="none" text-anchor="end">
<text x="141.00" y="501.00">0</text>
<text x="141.00" y="456.81">10000</text>
<text x="141.00" y="412.62">20000</text>
<text x="141.00" y="368.42">30000</text>
<text x="141.00" y="324.23">40000</text>
<text x="141.00" y="280.04">50000</text>
<text x="141.00" y="235.85">60000</text>
<text x="141.00" y="191.65">70000</text>
<text x="141.00" y="147.46">80000</text>
<text x="141.00" y="103.27">90000</text>
</g>
<line x1="150.00" x2="150.00" y1="510.00" y2="90.00" />
</g>
</g>
</svg>