<?xml version="1.0"?>
<svg version="1.1" viewBox="0 0 1000 600" xmlns:xlink="http://www.w3.org/1999/xlink" xmlns="http://www.w3.org/2000/svg">
<g>
<g stroke-dasharray="3.6 7.2" stroke-width="0.72" stroke="#caa">
<line x1="828.41" x2="828.41" y1="510.00" y2="90.00" />
<line x1="785.75" x2="785.75" y1="510.00" y2="90.00" />
<line x1="741.68" x2="741.68" y1="510.00" y2="90.00" />
<line x1="700.44" x2="700.44" y1="510.00" y2="90.00" />
<line x1="656.36" x2="656.36" y1="510.00" y2="90.00" />
<line x1="612.28" x2="612.28" y1="510.00" y2="90.00" />
<line x1="569.63" x2="569.63" y1="510.00" y2="90.00" />
<line x1="525.55" x2="525.55" y1="510.00" y2="90.00" />
<line x1="482.89" x2="482.89" y1="510.00" y2="90.00" />
<line x1="438.81" x2="438.81" y1="510.00" y2="90.00" />
<line x1="394.73" x2="394.73" y1="510.00" y2="90.00" />
<line x1="352.08" x2="352.08" y1="510.00" y2="90.00" />
<line x1="308.00" x2="308.00" y1="510.00" y2="90.00" />
<line x1="265.34" x2="265.34" y1="510.00" y2="90.00" />
<line x1="221.26" x2="221.26" y1="510.00" y2="90.00" />
<line x1="181.45" x2="181.45" y1="510.00" y2="90.00" />
<line x1="150.00" x2="850.00" y1="510.00" y2="510.00" />
<line x1="150.00" x2="850.00" y1="216.29" y2="216.29" />
</g>
<g>
<text dominant-baseline="hanging" dx="-36.0" dy="18.0" fill="#0004" font-family="Arial, sans-serif" font-size="36" stroke="none" text-anchor="end" x="850.00" y="128.18">R13</text>
</g>
<g>
<text dominant-baseline="text-bottom" dy="-12.0" fill="black" font-family="Arial, sans-serif" font-size="18.0" font-style="italic" stroke="none" text-anchor="middle" x="500.00" y="90.00">Years 2023 to 2024</text>
</g>
<g>
<text dominant-baseline="hanging" dx="18.0" dy="18.0" fill="black" font-family="Arial, sans-serif" font-size="18.0" font-style="italic" stroke="none" text-anchor="beginning" text-orientation="sideways" x="150.00" y="90.00">log(Drips per day)</text>
</g>
<polyline fill="none" points="554.98,454.15 555.23,459.43 555.46,457.03 555.72,459.35 555.95,456.85 556.21,459.70 556.43,456.10 556.70,461.17 556.91,453.69 557.19,461.40 557.40,454.03 557.66,460.59 557.89,456.47 558.15,460.00 558.38,456.37 558.65,460.87 558.86,454.45 559.11,459.28 559.32,453.95 559.57,458.83 559.79,454.49 560.06,460.94 560.27,453.80 560.51,458.66 560.74,455.49 560.97,456.87 561.20,456.91 561.47,461.00 561.68,454.38 561.93,458.38 562.15,455.74 562.42,460.99 562.63,453.44 562.90,461.82 563.13,455.66 563.40,461.37 563.61,454.18 563.86,458.72 564.06,452.54 564.34,461.91 564.58,457.69 564.85,461.10 565.08,457.05 565.35,460.71 565.57,455.85 565.84,461.45 566.09,458.00 566.35,460.49 566.56,453.59 566.85,463.82 567.08,456.12 567.36,461.99 567.57,454.55 567.84,461.30 568.07,456.11 568.33,459.91 568.57,457.79 568.83,460.19 569.07,457.69 569.29,455.83 569.49,451.82 569.77,462.44 569.98,454.03 570.25,461.31 570.48,455.42 570.76,463.01 570.98,454.23 571.25,461.79 571.48,455.87 571.74,460.63 571.95,454.33 572.22,460.47 572.46,457.68 572.74,462.81 644.32,223.42 644.32,216.87 644.32,176.15 644.32,243.78" stroke-dasharray="3.6 3.6" stroke-width="3.6" stroke="#aaa" />
<g>
<circle cx="554.98" cy="454.15" r="1.6666666666666667" />
<circle cx="555.23" cy="459.43" r="1.6666666666666667" />
<circle cx="555.46" cy="457.03" r="1.6666666666666667" />
<circle cx="555.72" cy="459.35" r="1.6666666666666667" />
<circle cx="555.95" cy="456.85" r="1.6666666666666667" />
<circle cx="556.21" cy="459.70" r="1.6666666666666667" />
<circle cx="556.43" cy="456.10" r="1.6666666666666667" />
<circle cx="556.70" cy="461.17" r="1.6666666666666667" />
<circle cx="556.91" cy="453.69" r="1.6666666666666667" />
<circle cx="557.19" cy="461.40" r="1.6666666666666667" />
<circle cx="557.40" cy="454.03" r="1.6666666666666667" />
<circle cx="557.66" cy="460.59" r="1.6666666666666667" />
<circle cx="557.89" cy="456.47" r="1.6666666666666667" />
<circle cx="558.15" cy="460.00" r="1.6666666666666667" />
<circle cx="558.38" cy="456.37" r="1.6666666666666667" />
<circle cx="558.65" cy="460.87" r="1.6666666666666667" />
<circle cx="558.86" cy="454.45" r="1.6666666666666667" />
<circle cx="559.11" cy="459.28" r="1.6666666666666667" />
<circle cx="559.32" cy="453.95" r="1.6666666666666667" />
<circle cx="559.57" cy="458.83" r="1.6666666666666667" />
<circle cx="559.79" cy="454.49" r="1.6666666666666667" />
<circle cx="560.06" cy="460.94" r="1.6666666666666667" />
<circle cx="560.27" cy="453.80" r="1.6666666666666667" />
<circle cx="560.51" cy="458.66" r="1.6666666666666667" />
<circle cx="560.74" cy="455.49" r="1.6666666666666667" />
<circle cx="560.97" cy="456.87" r="1.6666666666666667" />
<circle cx="561.20" cy="456.91" r="1.6666666666666667" />
<circle cx="561.47" cy="461.00" r="1.6666666666666667" />
<circle cx="561.68" cy="454.38" r="1.6666666666666667" />
<circle cx="561.93" cy="458.38" r="1.6666666666666667" />
<circle cx="562.15" cy="455.74" r="1.6666666666666667" />
<circle cx="562.42" cy="460.99" r="1.6666666666666667" />
<circle cx="562.63" cy="453.44" r="1.6666666666666667" />
<circle cx="562.90" cy="461.82" r="1.6666666666666667" />
<circle cx="563.13" cy="455.66" r="1.6666666666666667" />
<circle cx="563.40" cy="461.37" r="1.6666666666666667" />
<circle cx="563.61" cy="454.18" r="1.6666666666666667" />
<circle cx="563.86" cy="458.72" r="1.6666666666666667" />
<circle cx="564.06" cy="452.54" r="1.6666666666666667" />
<circle cx="564.34" cy="461.91" r="1.6666666666666667" />
<circle cx="564.58" cy="457.69" r="1.6666666666666667" />
<circle cx="564.85" cy="461.10" r="1.6666666666666667" />
<circle cx="565.08" cy="457.05" r="1.6666666666666667" />
<circle cx="565.35" cy="460.71" r="1.6666666666666667" />
<circle cx="565.57" cy="455.85" r="1.6666666666666667" />
<circle cx="565.84" cy="461.45" r="1.6666666666666667" />
<circle cx="566.09" cy="458.00" r="1.6666666666666667" />
<circle cx="566.35" cy="460.49" r="1.6666666666666667" />
<circle cx="566.56" cy="453.59" r="1.6666666666666667" />
<circle cx="566.85" cy="463.82" r="1.6666666666666667" />
<circle cx="567.08" cy="456.12" r="1.6666666666666667" />
<circle cx="567.36" cy="461.99" r="1.6666666666666667" />
<circle cx="567.57" cy="454.55" r="1.6666666666666667" />
<circle cx="567.84" cy="461.30" r="1.6666666666666667" />
<circle cx="568.07" cy="456.11" r="1.6666666666666667" />
<circle cx="568.33" cy="459.91" r="1.6666666666666667" />
<circle cx="568.57" cy="457.79" r="1.6666666666666667" />
<circle cx="568.83" cy="460.19" r="1.6666666666666667" />
<circle cx="569.07" cy="457.69" r="1.6666666666666667" />
<circle cx="569.29" cy="455.83" r="1.6666666666666667" />
<circle cx="569.49" cy="451.82" r="1.6666666666666667" />
<circle cx="569.77" cy="462.44" r="1.6666666666666667" />
<circle cx="569.98" cy="454.03" r="1.6666666666666667" />
<circle cx="570.25" cy="461.31" r="1.6666666666666667" />
<circle cx="570.48" cy="455.42" r="1.6666666666666667" />
<circle cx="570.76" cy="463.01" r="1.6666666666666667" />
<circle cx="570.98" cy="454.23" r="1.6666666666666667" />
<circle cx="571.25" cy="461.79" r="1.6666666666666667" />
<circle cx="571.48" cy="455.87" r="1.6666666666666667" />
<circle cx="571.74" cy="460.63" r="1.6666666666666667" />
<circle cx="571.95" cy="454.33" r="1.6666666666666667" />
<circle cx="572.22" cy="460.47" r="1.6666666666666667" />
<circle cx="572.46" cy="457.68" r="1.6666666666666667" />
<circle cx="572.74" cy="462.81" r="1.6666666666666667" />
<circle cx="644.32" cy="223.42" r="1.6666666666666667" />
<circle cx="644.32" cy="216.87" r="1.6666666666666667" />
<circle cx="644.32" cy="176.15" r="1.6666666666666667" />
<circle cx="644.32" cy="243.78" r="1.6666666666666667" />
</g>
<g stroke="black">
<line x1="828.41" x2="828.41" y1="510.00" y2="520.00" />
<line x1="785.75" x2="785.75" y1="510.00" y2="520.00" />
<line x1="741.68" x2="741.68" y1="510.00" y2="520.00" />
<line x1="700.44" x2="700.44" y1="510.00" y2="520.00" />
<line x1="656.36" x2="656.36" y1="510.00" y2="520.00" />
<line x1="612.28" x2="612.28" y1="510.00" y2="520.00" />
<line x1="569.63" x2="569.63" y1="510.00" y2="520.00" />
<line x1="525.55" x2="525.55" y1="510.00" y2="520.00" />
<line x1="482.89" x2="482.89" y1="510.00" y2="520.00" />
<line x1="438.81" x2="438.81" y1="510.00" y2="520.00" />
<line x1="394.73" x2="394.73" y1="510.00" y2="520.00" />
<line x1="352.08" x2="352.08" y1="510.00" y2="520.00" />
<line x1="308.00" x2="308.00" y1="510.00" y2="520.00" />
<line x1="265.34" x2="265.34" y1="510.00" y2="520.00" />
<line x1="221.26" x2="221.26" y1="510.00" y2="520.00" />
<line x1="181.45" x2="181.45" y1="510.00" y2="520.00" />
<g fill="black" font-family="Arial, sans-serif" font-size="18.0" stroke="none" text-anchor="start" transform="translate(9.0 0.0)">
<text x="828.41" y="530.57">May</text>
<text x="785.75" y="530.57">Apr</text>
<text x="741.68" y="530.57">Mar</text>
<text x="700.44" y="530.57">Feb</text>
<text x="656.36" y="530.57">Jan</text>
<text x="612.28" y="530.57">Dec</text>
<text x="569.63" y="530.57">Nov</text>
<text x="525.55" y="530.57">Oct</text>
<text x="482.89" y="530.57">Sep</text>
<text x="438.81" y="530.57">Aug</text>
<text x="394.73" y="530.57">Jul</text>
<text x="352.08" y="530.57">Jun</text>
<text x="308.00" y="530.57">May</text>
<text x="265.34" y="530.57">Apr</text>
<text x="221.26" y="530.57">Mar</text>
<text x="181.45" y="530.57">Feb</text>
</g>
<line x1="150.00" x2="850.00" y1="510.00" y2="510.00" />
</g>
<g stroke="black">
<line x1="150.00" x2="138.00" y1="510.00" y2="510.00" />
<line x1="150.00" x2="138.00" y1="216.29" y2="216.29" />
<g fill="black" font-family="Arial, sans-serif" font-size="18.0" stroke="none" text-anchor="end">
<text x="141.00" y="501.00">0</text>
<text x="141.00" y="207.29">10</text>
</g>
<line x1="150.00" x2="150.00" y1="510.00" y2="90.00" />
</g>
</g>
</svg>