<?xml version="1.0"?>
<svg version="1.1" viewBox="0 0 1000 600" xmlns:xlink="http://www.w3.org/1999/xlink" xmlns="http://www.w3.org/2000/svg">
<g>
<g stroke-dasharray="3.6 7.2" stroke-width="0.72" stroke="#caa">
<line x1="346.38" x2="346.38" y1="510.00" y2="90.00" />
<line x1="150.00" x2="850.00" y1="510.00" y2="510.00" />
<line x1="150.00" x2="850.00" y1="198.99" y2="198.99" />
</g>
<g>
<text dominant-baseline="hanging" dx="-36.0" dy="18.0" fill="#0004" font-family="Arial, sans-serif" font-size="36" stroke="none" text-anchor="end" x="850.00" y="126.13">R14</text>
</g>
<g>
<text dominant-baseline="text-bottom" dy="-12.0" fill="black" font-family="Arial, sans-serif" font-size="18.0" font-style="italic" stroke="none" text-anchor="middle" x="500.00" y="90.00">Days since start</text>
</g>
<g>
<text dominant-baseline="central" dx="12.0" dy="12.0" fill="black" font-family="Arial, sans-serif" font-size="18.0" font-style="italic" stroke="none" text-anchor="middle" text-orientation="sideways" writing-mode="vertical-lr" x="850.00" y="300.00">Drips per day</text>
</g>
<polyline fill="none" points="150.00,485.57 205.07,474.64 267.39,478.75 353.62,487.42 379.71,435.36 407.25,439.29 456.52,470.48 501.45,466.66 544.20,464.46 577.54,451.58 594.93,398.04 609.42,375.65 618.12,286.08 625.36,241.29 631.16,174.11 636.96,174.11 642.03,126.13 647.83,174.11 652.90,126.13 658.70,174.11 663.77,126.13 669.57,174.11 674.64,126.13 679.71,126.13 686.23,211.43 692.03,174.11 697.10,126.13 702.17,126.13 707.97,174.11 713.77,174.11 720.29,211.43 726.09,174.11 731.88,174.11 737.68,174.11 743.48,174.11 750.00,211.43 755.80,174.11 761.59,174.11 767.39,174.11 773.19,174.11 778.26,126.13 784.78,211.43 792.75,265.72 800.72,265.72 807.97,241.29 816.67,286.08 825.36,286.08 833.33,265.72 840.58,241.29 850.00,303.30" stroke-dasharray="3.6 3.6" stroke-width="3.6" stroke="#aaa" />
<g>
<circle cx="150.00" cy="485.57" r="1.6666666666666667" />
<circle cx="205.07" cy="474.64" r="1.6666666666666667" />
<circle cx="267.39" cy="478.75" r="1.6666666666666667" />
<circle cx="353.62" cy="487.42" r="1.6666666666666667" />
<circle cx="379.71" cy="435.36" r="1.6666666666666667" />
<circle cx="407.25" cy="439.29" r="1.6666666666666667" />
<circle cx="456.52" cy="470.48" r="1.6666666666666667" />
<circle cx="501.45" cy="466.66" r="1.6666666666666667" />
<circle cx="544.20" cy="464.46" r="1.6666666666666667" />
<circle cx="577.54" cy="451.58" r="1.6666666666666667" />
<circle cx="594.93" cy="398.04" r="1.6666666666666667" />
<circle cx="609.42" cy="375.65" r="1.6666666666666667" />
<circle cx="618.12" cy="286.08" r="1.6666666666666667" />
<circle cx="625.36" cy="241.29" r="1.6666666666666667" />
<circle cx="631.16" cy="174.11" r="1.6666666666666667" />
<circle cx="636.96" cy="174.11" r="1.6666666666666667" />
<circle cx="642.03" cy="126.13" r="1.6666666666666667" />
<circle cx="647.83" cy="174.11" r="1.6666666666666667" />
<circle cx="652.90" cy="126.13" r="1.6666666666666667" />
<circle cx="658.70" cy="174.11" r="1.6666666666666667" />
<circle cx="663.77" cy="126.13" r="1.6666666666666667" />
<circle cx="669.57" cy="174.11" r="1.6666666666666667" />
<circle cx="674.64" cy="126.13" r="1.6666666666666667" />
<circle cx="679.71" cy="126.13" r="1.6666666666666667" />
<circle cx="686.23" cy="211.43" r="1.6666666666666667" />
<circle cx="692.03" cy="174.11" r="1.6666666666666667" />
<circle cx="697.10" cy="126.13" r="1.6666666666666667" />
<circle cx="702.17" cy="126.13" r="1.6666666666666667" />
<circle cx="707.97" cy="174.11" r="1.6666666666666667" />
<circle cx="713.77" cy="174.11" r="1.6666666666666667" />
<circle cx="720.29" cy="211.43" r="1.6666666666666667" />
<circle cx="726.09" cy="174.11" r="1.6666666666666667" />
<circle cx="731.88" cy="174.11" r="1.6666666666666667" />
<circle cx="737.68" cy="174.11" r="1.6666666666666667" />
<circle cx="743.48" cy="174.11" r="1.6666666666666667" />
<circle cx="750.00" cy="211.43" r="1.6666666666666667" />
<circle cx="755.80" cy="174.11" r="1.6666666666666667" />
<circle cx="761.59" cy="174.11" r="1.6666666666666667" />
<circle cx="767.39" cy="174.11" r="1.6666666666666667" />
<circle cx="773.19" cy="174.11" r="1.6666666666666667" />
<circle cx="778.26" cy="126.13" r="1.6666666666666667" />
<circle cx="784.78" cy="211.43" r="1.6666666666666667" />
<circle cx="792.75" cy="265.72" r="1.6666666666666667" />
<circle cx="800.72" cy="265.72" r="1.6666666666666667" />
<circle cx="807.97" cy="241.29" r="1.6666666666666667" />
<circle cx="816.67" cy="286.08" r="1.6666666666666667" />
<circle cx="825.36" cy="286.08" r="1.6666666666666667" />
<circle cx="833.33" cy="265.72" r="1.6666666666666667" />
<circle cx="840.58" cy="241.29" r="1.6666666666666667" />
<circle cx="850.00" cy="303.30" r="1.6666666666666667" />
</g>
<g stroke="black">
<line x1="346.38" x2="346.38" y1="510.00" y2="520.00" />
<g fill="black" font-family="Arial, sans-serif" font-size="18.0" stroke="none" text-anchor="start" transform="translate(9.0 0.0)">
<text x="346.38" y="530.57">19726.6</text>
</g>
<line x1="150.00" x2="850.00" y1="510.00" y2="510.00" />
</g>
<g stroke="black">
<line x1="150.00" x2="140.00" y1="510.00" y2="510.00" />
<line x1="150.00" x2="140.00" y1="198.99" y2="198.99" />
<g fill="black" font-family="Arial, sans-serif" font-size="18.0" stroke="none" text-anchor="end">
<text x="141.00" y="501.00">0</text>
<text x="141.00" y="189.99">10000</text>
</g>
<line x1="150.00" x2="150.00" y1="510.00" y2="90.00" />
</g>
</g>
</svg>