<?xml version="1.0"?>
<svg version="1.1" viewBox="0 0 1000 600" xmlns:xlink="http://www.w3.org/1999/xlink" xmlns="http://www.w3.org/2000/svg">
<g>
<g stroke-dasharray="3.6 7.2" stroke-width="0.72" stroke="#caa">
<line x1="839.86" x2="839.86" y1="510.00" y2="90.00" />
<line x1="791.78" x2="791.78" y1="510.00" y2="90.00" />
<line x1="740.39" x2="740.39" y1="510.00" y2="90.00" />
<line x1="689.00" x2="689.00" y1="510.00" y2="90.00" />
<line x1="639.26" x2="639.26" y1="510.00" y2="90.00" />
<line x1="587.87" x2="587.87" y1="510.00" y2="90.00" />
<line x1="538.13" x2="538.13" y1="510.00" y2="90.00" />
<line x1="486.74" x2="486.74" y1="510.00" y2="90.00" />
<line x1="435.35" x2="435.35" y1="510.00" y2="90.00" />
<line x1="385.61" x2="385.61" y1="510.00" y2="90.00" />
<line x1="334.22" x2="334.22" y1="510.00" y2="90.00" />
<line x1="284.48" x2="284.48" y1="510.00" y2="90.00" />
<line x1="233.09" x2="233.09" y1="510.00" y2="90.00" />
<line x1="186.67" x2="186.67" y1="510.00" y2="90.00" />
<line x1="150.00" x2="850.00" y1="510.00" y2="510.00" />
<line x1="150.00" x2="850.00" y1="216.29" y2="216.29" />
</g>
<g>
<text dominant-baseline="hanging" dx="-36.0" dy="18.0" fill="#0004" font-family="Arial, sans-serif" font-size="36" stroke="none" text-anchor="end" x="850.00" y="128.18">R14</text>
</g>
<g>
<text dominant-baseline="text-bottom" dy="-12.0" fill="black" font-family="Arial, sans-serif" font-size="18.0" font-style="italic" stroke="none" text-anchor="middle" x="500.00" y="90.00">Years 2023 to 2024</text>
</g>
<g>
<text dominant-baseline="central" dx="12.0" dy="12.0" fill="black" font-family="Arial, sans-serif" font-size="18.0" font-style="italic" stroke="none" text-anchor="middle" text-orientation="sideways" writing-mode="vertical-lr" x="850.00" y="300.00">log(Drips per day)</text>
</g>
<polyline fill="none" points="746.84,314.21 746.84,303.35 746.84,306.98 746.84,316.52 746.84,281.40 746.84,282.99 746.84,300.08 746.84,297.37 746.85,295.91 746.85,288.60 746.85,269.49 746.85,264.14 746.85,249.13 746.85,243.78 746.85,237.23 746.85,237.23 746.85,233.30 746.85,237.23 746.85,233.30 746.85,237.23 746.85,233.30 746.85,237.23 746.85,233.30 746.85,233.30 746.85,240.69 746.85,237.23 746.85,233.30 746.85,233.30 746.85,237.23 746.85,237.23 746.85,240.69 746.85,237.23 746.85,237.23 746.85,237.23 746.85,237.23 746.85,240.69 746.85,237.23 746.85,237.23 746.85,237.23 746.85,237.23 746.85,233.30 746.85,240.69 746.85,246.58 746.85,246.58 746.85,243.78 746.85,249.13 746.85,249.13 746.85,246.58 746.85,243.78 746.85,251.49" stroke-dasharray="3.6 3.6" stroke-width="3.6" stroke="#aaa" />
<g>
<circle cx="746.84" cy="314.21" r="1.6666666666666667" />
<circle cx="746.84" cy="303.35" r="1.6666666666666667" />
<circle cx="746.84" cy="306.98" r="1.6666666666666667" />
<circle cx="746.84" cy="316.52" r="1.6666666666666667" />
<circle cx="746.84" cy="281.40" r="1.6666666666666667" />
<circle cx="746.84" cy="282.99" r="1.6666666666666667" />
<circle cx="746.84" cy="300.08" r="1.6666666666666667" />
<circle cx="746.84" cy="297.37" r="1.6666666666666667" />
<circle cx="746.85" cy="295.91" r="1.6666666666666667" />
<circle cx="746.85" cy="288.60" r="1.6666666666666667" />
<circle cx="746.85" cy="269.49" r="1.6666666666666667" />
<circle cx="746.85" cy="264.14" r="1.6666666666666667" />
<circle cx="746.85" cy="249.13" r="1.6666666666666667" />
<circle cx="746.85" cy="243.78" r="1.6666666666666667" />
<circle cx="746.85" cy="237.23" r="1.6666666666666667" />
<circle cx="746.85" cy="237.23" r="1.6666666666666667" />
<circle cx="746.85" cy="233.30" r="1.6666666666666667" />
<circle cx="746.85" cy="237.23" r="1.6666666666666667" />
<circle cx="746.85" cy="233.30" r="1.6666666666666667" />
<circle cx="746.85" cy="237.23" r="1.6666666666666667" />
<circle cx="746.85" cy="233.30" r="1.6666666666666667" />
<circle cx="746.85" cy="237.23" r="1.6666666666666667" />
<circle cx="746.85" cy="233.30" r="1.6666666666666667" />
<circle cx="746.85" cy="233.30" r="1.6666666666666667" />
<circle cx="746.85" cy="240.69" r="1.6666666666666667" />
<circle cx="746.85" cy="237.23" r="1.6666666666666667" />
<circle cx="746.85" cy="233.30" r="1.6666666666666667" />
<circle cx="746.85" cy="233.30" r="1.6666666666666667" />
<circle cx="746.85" cy="237.23" r="1.6666666666666667" />
<circle cx="746.85" cy="237.23" r="1.6666666666666667" />
<circle cx="746.85" cy="240.69" r="1.6666666666666667" />
<circle cx="746.85" cy="237.23" r="1.6666666666666667" />
<circle cx="746.85" cy="237.23" r="1.6666666666666667" />
<circle cx="746.85" cy="237.23" r="1.6666666666666667" />
<circle cx="746.85" cy="237.23" r="1.6666666666666667" />
<circle cx="746.85" cy="240.69" r="1.6666666666666667" />
<circle cx="746.85" cy="237.23" r="1.6666666666666667" />
<circle cx="746.85" cy="237.23" r="1.6666666666666667" />
<circle cx="746.85" cy="237.23" r="1.6666666666666667" />
<circle cx="746.85" cy="237.23" r="1.6666666666666667" />
<circle cx="746.85" cy="233.30" r="1.6666666666666667" />
<circle cx="746.85" cy="240.69" r="1.6666666666666667" />
<circle cx="746.85" cy="246.58" r="1.6666666666666667" />
<circle cx="746.85" cy="246.58" r="1.6666666666666667" />
<circle cx="746.85" cy="243.78" r="1.6666666666666667" />
<circle cx="746.85" cy="249.13" r="1.6666666666666667" />
<circle cx="746.85" cy="249.13" r="1.6666666666666667" />
<circle cx="746.85" cy="246.58" r="1.6666666666666667" />
<circle cx="746.85" cy="243.78" r="1.6666666666666667" />
<circle cx="746.85" cy="251.49" r="1.6666666666666667" />
</g>
<g stroke="black">
<line x1="839.86" x2="839.86" y1="510.00" y2="520.00" />
<line x1="791.78" x2="791.78" y1="510.00" y2="520.00" />
<line x1="740.39" x2="740.39" y1="510.00" y2="520.00" />
<line x1="689.00" x2="689.00" y1="510.00" y2="520.00" />
<line x1="639.26" x2="639.26" y1="510.00" y2="520.00" />
<line x1="587.87" x2="587.87" y1="510.00" y2="520.00" />
<line x1="538.13" x2="538.13" y1="510.00" y2="520.00" />
<line x1="486.74" x2="486.74" y1="510.00" y2="520.00" />
<line x1="435.35" x2="435.35" y1="510.00" y2="520.00" />
<line x1="385.61" x2="385.61" y1="510.00" y2="520.00" />
<line x1="334.22" x2="334.22" y1="510.00" y2="520.00" />
<line x1="284.48" x2="284.48" y1="510.00" y2="520.00" />
<line x1="233.09" x2="233.09" y1="510.00" y2="520.00" />
<line x1="186.67" x2="186.67" y1="510.00" y2="520.00" />
<g fill="black" font-family="Arial, sans-serif" font-size="18.0" stroke="none" text-anchor="start" transform="translate(9.0 0.0)">
<text x="839.86" y="530.57">Mar</text>
<text x="791.78" y="530.57">Feb</text>
<text x="740.39" y="530.57">Jan</text>
<text x="689.00" y="530.57">Dec</text>
<text x="639.26" y="530.57">Nov</text>
<text x="587.87" y="530.57">Oct</text>
<text x="538.13" y="530.57">Sep</text>
<text x="486.74" y="530.57">Aug</text>
<text x="435.35" y="530.57">Jul</text>
<text x="385.61" y="530.57">Jun</text>
<text x="334.22" y="530.57">May</text>
<text x="284.48" y="530.57">Apr</text>
<text x="233.09" y="530.57">Mar</text>
<text x="186.67" y="530.57">Feb</text>
</g>
<line x1="150.00" x2="850.00" y1="510.00" y2="510.00" />
</g>
<g stroke="black">
<line x1="150.00" x2="140.00" y1="510.00" y2="510.00" />
<line x1="150.00" x2="140.00" y1="216.29" y2="216.29" />
<g fill="black" font-family="Arial, sans-serif" font-size="18.0" stroke="none" text-anchor="end">
<text x="141.00" y="501.00">0</text>
<text x="141.00" y="207.29">10</text>
</g>
<line x1="150.00" x2="150.00" y1="510.00" y2="90.00" />
</g>
</g>
</svg>