<?xml version="1.0"?>
<svg version="1.1" viewBox="0 0 1000 600" xmlns:xlink="http://www.w3.org/1999/xlink" xmlns="http://www.w3.org/2000/svg">
<g>
<g stroke-dasharray="3.6 7.2" stroke-width="0.72" stroke="#caa">
<line x1="813.75" x2="813.75" y1="510.00" y2="90.00" />
<line x1="760.60" x2="760.60" y1="510.00" y2="90.00" />
<line x1="707.45" x2="707.45" y1="510.00" y2="90.00" />
<line x1="656.01" x2="656.01" y1="510.00" y2="90.00" />
<line x1="602.86" x2="602.86" y1="510.00" y2="90.00" />
<line x1="551.42" x2="551.42" y1="510.00" y2="90.00" />
<line x1="498.27" x2="498.27" y1="510.00" y2="90.00" />
<line x1="445.11" x2="445.11" y1="510.00" y2="90.00" />
<line x1="393.68" x2="393.68" y1="510.00" y2="90.00" />
<line x1="340.52" x2="340.52" y1="510.00" y2="90.00" />
<line x1="289.09" x2="289.09" y1="510.00" y2="90.00" />
<line x1="235.93" x2="235.93" y1="510.00" y2="90.00" />
<line x1="187.92" x2="187.92" y1="510.00" y2="90.00" />
<line x1="150.00" x2="850.00" y1="510.00" y2="510.00" />
<line x1="150.00" x2="850.00" y1="200.66" y2="200.66" />
</g>
<g>
<text dominant-baseline="hanging" dx="-36.0" dy="18.0" fill="#0004" font-family="Arial, sans-serif" font-size="36" stroke="none" text-anchor="end" x="850.00" y="128.18">R14</text>
</g>
<g>
<text dominant-baseline="text-bottom" dy="-12.0" fill="black" font-family="Arial, sans-serif" font-size="18.0" font-style="italic" stroke="none" text-anchor="middle" x="500.00" y="90.00">Years 2023 to 2024</text>
</g>
<g>
<text dominant-baseline="central" dx="12.0" dy="12.0" fill="black" font-family="Arial, sans-serif" font-size="18.0" font-style="italic" stroke="none" text-anchor="middle" text-orientation="sideways" writing-mode="vertical-lr" x="850.00" y="300.00">Drips per day</text>
</g>
<polyline fill="none" points="767.27,485.70 767.27,474.83 767.27,478.92 767.27,487.54 767.28,435.76 767.28,439.67 767.28,470.70 767.28,466.89 767.28,464.70 767.28,451.90 767.28,398.64 767.28,376.36 767.28,287.27 767.28,242.73 767.28,175.91 767.28,175.91 767.28,128.18 767.28,175.91 767.28,128.18 767.28,175.91 767.28,128.18 767.28,175.91 767.28,128.18 767.28,128.18 767.28,213.03 767.28,175.91 767.28,128.18 767.28,128.18 767.28,175.91 767.28,175.91 767.28,213.03 767.28,175.91 767.28,175.91 767.28,175.91 767.28,175.91 767.29,213.03 767.29,175.91 767.29,175.91 767.29,175.91 767.29,175.91 767.29,128.18 767.29,213.03 767.29,267.02 767.29,267.02 767.29,242.73 767.29,287.27 767.29,287.27 767.29,267.02 767.29,242.73 767.29,304.41" stroke-dasharray="3.6 3.6" stroke-width="3.6" stroke="#aaa" />
<g>
<circle cx="767.27" cy="485.70" r="1.6666666666666667" />
<circle cx="767.27" cy="474.83" r="1.6666666666666667" />
<circle cx="767.27" cy="478.92" r="1.6666666666666667" />
<circle cx="767.27" cy="487.54" r="1.6666666666666667" />
<circle cx="767.28" cy="435.76" r="1.6666666666666667" />
<circle cx="767.28" cy="439.67" r="1.6666666666666667" />
<circle cx="767.28" cy="470.70" r="1.6666666666666667" />
<circle cx="767.28" cy="466.89" r="1.6666666666666667" />
<circle cx="767.28" cy="464.70" r="1.6666666666666667" />
<circle cx="767.28" cy="451.90" r="1.6666666666666667" />
<circle cx="767.28" cy="398.64" r="1.6666666666666667" />
<circle cx="767.28" cy="376.36" r="1.6666666666666667" />
<circle cx="767.28" cy="287.27" r="1.6666666666666667" />
<circle cx="767.28" cy="242.73" r="1.6666666666666667" />
<circle cx="767.28" cy="175.91" r="1.6666666666666667" />
<circle cx="767.28" cy="175.91" r="1.6666666666666667" />
<circle cx="767.28" cy="128.18" r="1.6666666666666667" />
<circle cx="767.28" cy="175.91" r="1.6666666666666667" />
<circle cx="767.28" cy="128.18" r="1.6666666666666667" />
<circle cx="767.28" cy="175.91" r="1.6666666666666667" />
<circle cx="767.28" cy="128.18" r="1.6666666666666667" />
<circle cx="767.28" cy="175.91" r="1.6666666666666667" />
<circle cx="767.28" cy="128.18" r="1.6666666666666667" />
<circle cx="767.28" cy="128.18" r="1.6666666666666667" />
<circle cx="767.28" cy="213.03" r="1.6666666666666667" />
<circle cx="767.28" cy="175.91" r="1.6666666666666667" />
<circle cx="767.28" cy="128.18" r="1.6666666666666667" />
<circle cx="767.28" cy="128.18" r="1.6666666666666667" />
<circle cx="767.28" cy="175.91" r="1.6666666666666667" />
<circle cx="767.28" cy="175.91" r="1.6666666666666667" />
<circle cx="767.28" cy="213.03" r="1.6666666666666667" />
<circle cx="767.28" cy="175.91" r="1.6666666666666667" />
<circle cx="767.28" cy="175.91" r="1.6666666666666667" />
<circle cx="767.28" cy="175.91" r="1.6666666666666667" />
<circle cx="767.28" cy="175.91" r="1.6666666666666667" />
<circle cx="767.29" cy="213.03" r="1.6666666666666667" />
<circle cx="767.29" cy="175.91" r="1.6666666666666667" />
<circle cx="767.29" cy="175.91" r="1.6666666666666667" />
<circle cx="767.29" cy="175.91" r="1.6666666666666667" />
<circle cx="767.29" cy="175.91" r="1.6666666666666667" />
<circle cx="767.29" cy="128.18" r="1.6666666666666667" />
<circle cx="767.29" cy="213.03" r="1.6666666666666667" />
<circle cx="767.29" cy="267.02" r="1.6666666666666667" />
<circle cx="767.29" cy="267.02" r="1.6666666666666667" />
<circle cx="767.29" cy="242.73" r="1.6666666666666667" />
<circle cx="767.29" cy="287.27" r="1.6666666666666667" />
<circle cx="767.29" cy="287.27" r="1.6666666666666667" />
<circle cx="767.29" cy="267.02" r="1.6666666666666667" />
<circle cx="767.29" cy="242.73" r="1.6666666666666667" />
<circle cx="767.29" cy="304.41" r="1.6666666666666667" />
</g>
<g stroke="black">
<line x1="813.75" x2="813.75" y1="510.00" y2="520.00" />
<line x1="760.60" x2="760.60" y1="510.00" y2="520.00" />
<line x1="707.45" x2="707.45" y1="510.00" y2="520.00" />
<line x1="656.01" x2="656.01" y1="510.00" y2="520.00" />
<line x1="602.86" x2="602.86" y1="510.00" y2="520.00" />
<line x1="551.42" x2="551.42" y1="510.00" y2="520.00" />
<line x1="498.27" x2="498.27" y1="510.00" y2="520.00" />
<line x1="445.11" x2="445.11" y1="510.00" y2="520.00" />
<line x1="393.68" x2="393.68" y1="510.00" y2="520.00" />
<line x1="340.52" x2="340.52" y1="510.00" y2="520.00" />
<line x1="289.09" x2="289.09" y1="510.00" y2="520.00" />
<line x1="235.93" x2="235.93" y1="510.00" y2="520.00" />
<line x1="187.92" x2="187.92" y1="510.00" y2="520.00" />
<g fill="black" font-family="Arial, sans-serif" font-size="18.0" stroke="none" text-anchor="start" transform="translate(9.0 0.0)">
<text x="813.75" y="530.57">Feb</text>
<text x="760.60" y="530.57">Jan</text>
<text x="707.45" y="530.57">Dec</text>
<text x="656.01" y="530.57">Nov</text>
<text x="602.86" y="530.57">Oct</text>
<text x="551.42" y="530.57">Sep</text>
<text x="498.27" y="530.57">Aug</text>
<text x="445.11" y="530.57">Jul</text>
<text x="393.68" y="530.57">Jun</text>
<text x="340.52" y="530.57">May</text>
<text x="289.09" y="530.57">Apr</text>
<text x="235.93" y="530.57">Mar</text>
<text x="187.92" y="530.57">Feb</text>
</g>
<line x1="150.00" x2="850.00" y1="510.00" y2="510.00" />
</g>
<g stroke="black">
<line x1="150.00" x2="140.00" y1="510.00" y2="510.00" />
<line x1="150.00" x2="140.00" y1="200.66" y2="200.66" />
<g fill="black" font-family="Arial, sans-serif" font-size="18.0" stroke="none" text-anchor="end">
<text x="141.00" y="501.00">0</text>
<text x="141.00" y="191.66">10000</text>
</g>
<line x1="150.00" x2="150.00" y1="510.00" y2="90.00" />
</g>
</g>
</svg>