<?xml version="1.0"?>
<svg version="1.1" viewBox="0 0 1000 600" xmlns:xlink="http://www.w3.org/1999/xlink" xmlns="http://www.w3.org/2000/svg">
<g>
<g stroke-dasharray="3.6 7.2" stroke-width="0.72" stroke="#caa">
<line x1="839.86" x2="839.86" y1="510.00" y2="90.00" />
<line x1="791.78" x2="791.78" y1="510.00" y2="90.00" />
<line x1="740.39" x2="740.39" y1="510.00" y2="90.00" />
<line x1="689.00" x2="689.00" y1="510.00" y2="90.00" />
<line x1="639.26" x2="639.26" y1="510.00" y2="90.00" />
<line x1="587.87" x2="587.87" y1="510.00" y2="90.00" />
<line x1="538.13" x2="538.13" y1="510.00" y2="90.00" />
<line x1="486.74" x2="486.74" y1="510.00" y2="90.00" />
<line x1="435.35" x2="435.35" y1="510.00" y2="90.00" />
<line x1="385.61" x2="385.61" y1="510.00" y2="90.00" />
<line x1="334.22" x2="334.22" y1="510.00" y2="90.00" />
<line x1="284.48" x2="284.48" y1="510.00" y2="90.00" />
<line x1="233.09" x2="233.09" y1="510.00" y2="90.00" />
<line x1="186.67" x2="186.67" y1="510.00" y2="90.00" />
<line x1="150.00" x2="850.00" y1="510.00" y2="510.00" />
<line x1="150.00" x2="850.00" y1="216.29" y2="216.29" />
</g>
<g>
<text dominant-baseline="hanging" dx="-36.0" dy="18.0" fill="#0004" font-family="Arial, sans-serif" font-size="36" stroke="none" text-anchor="end" x="850.00" y="128.18">R15</text>
</g>
<g>
<text dominant-baseline="text-bottom" dy="-12.0" fill="black" font-family="Arial, sans-serif" font-size="18.0" font-style="italic" stroke="none" text-anchor="middle" x="500.00" y="90.00">Years 2023 to 2024</text>
</g>
<g>
<text dominant-baseline="central" dx="12.0" dy="12.0" fill="black" font-family="Arial, sans-serif" font-size="18.0" font-style="italic" stroke="none" text-anchor="middle" text-orientation="sideways" writing-mode="vertical-lr" x="850.00" y="300.00">log(Drips per day)</text>
</g>
<polyline fill="none" points="673.61,176.15 673.61,280.57 673.61,176.15 678.53,331.17 678.53,332.35 678.54,326.82 678.54,333.34 678.55,354.45 678.56,350.39 678.56,341.96 678.57,335.23 678.57,324.28 678.57,312.28 678.57,317.49 678.58,326.47 678.58,330.41 678.58,331.02 678.59,346.74 678.62,394.38 678.74,432.87 680.08,503.72 680.08,280.57 680.08,270.69 680.08,268.24 680.08,283.75 680.08,296.41 680.09,298.30 680.09,288.60 680.09,282.21 680.09,278.85 680.09,278.85 680.09,272.95 680.09,269.49 680.09,276.05 680.09,295.91 680.09,303.35 680.09,298.76 680.09,298.76 680.10,310.51 680.10,306.98 680.10,313.40 680.11,347.87 680.12,368.73 680.78,483.06 680.80,367.10 680.81,358.80 680.81,353.21 680.82,348.95 680.83,345.20 680.85,388.96 681.32,472.50 681.40,423.21 681.41,352.49 681.42,348.78 681.42,350.70 681.43,349.03 681.44,348.03 681.44,341.96 681.45,345.66 681.46,360.17 681.47,371.36 681.49,375.97 681.51,371.96 681.52,365.97 681.53,367.32 681.54,359.60 681.55,365.65 681.59,393.28 681.62,395.46 681.73,431.69 681.77,401.24 681.82,404.52 681.84,376.49 681.85,367.62 681.86,368.05 681.88,366.47 681.89,377.38 681.90,351.31 681.91,346.56 681.92,354.72 681.93,367.05 682.01,420.43 682.02,373.21 682.05,382.52 682.07,389.54 682.96,491.59 683.03,419.32 683.19,440.06 683.19,322.92 683.19,305.58 683.21,379.85 683.21,300.93 683.21,275.05 683.21,268.24 683.21,279.72 683.22,344.54 683.23,335.10 683.23,336.63 683.27,400.74 683.27,326.99 683.28,317.25 683.28,325.21 683.28,325.21 683.29,331.91 683.29,331.47 683.29,331.91 683.30,334.16 683.30,340.47 683.31,349.99 683.32,342.48 683.32,347.44 683.33,347.52 683.35,375.55 683.38,397.44 683.38,316.76 683.38,304.49 683.39,296.89 683.39,287.96 683.39,293.85 683.39,294.38 683.39,285.93 683.39,284.50 683.39,298.30 683.39,320.22 683.40,340.36 683.41,347.78 683.41,339.81 683.42,356.17 683.44,376.78 683.45,374.16 683.46,343.68 683.47,342.07 683.47,357.05 683.50,382.18 683.52,386.92 683.55,395.32 683.58,389.46 683.60,373.35 683.63,390.09 683.66,396.85 683.67,362.68 683.68,349.44 683.69,353.06 683.70,366.38 684.56,490.63 690.20,297.37 690.20,283.75 690.20,283.75 690.20,277.01 690.20,266.94 690.20,274.02 690.21,331.62 690.28,418.39 690.28,269.49 690.28,264.14 690.28,274.02 690.28,262.63 690.28,265.57 690.28,266.94 690.28,253.66 690.28,255.69 690.28,259.36 690.28,262.63 690.28,270.69 690.28,288.60 690.29,317.96 690.31,387.37 690.34,388.18 691.04,484.66 691.79,486.81 691.79,281.40 691.79,253.66 691.79,253.66 691.79,246.58 691.79,243.78 691.79,251.49 691.79,253.66 691.79,246.58 691.79,243.78 691.79,246.58 691.79,253.66 691.79,255.69 691.79,259.36 691.80,261.04 691.80,265.57 691.80,298.76 691.80,332.35 691.80,296.89 691.80,301.76 691.80,277.01 691.80,272.95 691.80,266.94 691.81,262.63 691.81,262.63 691.81,259.36 691.81,255.69 691.81,257.58 691.81,269.49 691.82,359.94 691.83,357.23 691.83,316.02 691.83,280.57 691.83,293.85 691.83,283.75 691.83,240.69 691.83,223.42 691.83,233.30 691.83,233.30 691.83,223.42 691.83,228.78 691.83,228.78 691.83,243.78 691.83,251.49 691.83,246.58 691.83,243.78 691.83,246.58 691.83,243.78 691.83,249.13 691.83,253.66 691.83,251.49 691.83,237.23 691.83,240.69 691.83,243.78 691.83,240.69 691.83,233.30 691.83,246.58 691.84,251.49 691.84,261.04 691.84,265.57 691.84,269.49 691.84,259.36 691.84,255.69 691.84,305.22 691.85,350.07 691.85,350.15 691.85,302.56 691.86,301.76 691.86,292.20 691.86,301.76 691.86,310.51 691.86,332.06 691.87,325.58 691.88,372.81 691.90,379.88 691.92,368.56 691.97,406.91 692.65,483.99 692.96,460.44 693.60,482.23 693.61,361.69 696.81,340.14 696.91,427.72 697.15,453.46 698.43,502.21 698.43,320.00 698.43,301.76 698.43,291.05 698.43,280.57 698.43,264.14 698.43,268.24 698.43,272.95 698.43,279.72 698.43,278.85 698.43,253.66 698.43,259.36 698.44,253.66 698.44,264.14 698.44,259.36 698.44,264.14 698.44,265.57 698.44,266.94 698.44,261.04 698.44,265.57 698.44,271.84 698.44,279.72 698.44,285.22 698.44,302.17 698.44,293.85 698.44,265.57 698.44,266.94 698.44,268.24 698.44,261.04 698.44,264.14 698.44,270.69 698.45,280.57 698.45,297.84 698.45,309.90 698.74,458.97 698.77,391.37 698.77,331.62 698.78,344.64 698.78,311.70 698.78,293.85 698.78,308.31 698.78,289.85 698.79,314.47 698.79,310.81 698.79,305.58 698.79,283.75 698.79,279.72 698.79,264.14 698.79,251.49 698.79,255.69 698.79,253.66 698.79,255.69 698.79,259.36 698.79,296.89 698.80,280.57 698.80,262.63 698.80,257.58 698.80,262.63 698.80,269.49 698.80,277.94 698.80,288.60 698.80,291.63 698.80,269.49 698.80,271.84 698.80,272.95 698.80,268.24 698.80,279.72 698.80,268.24 698.80,262.63 698.80,283.75 698.84,394.29 700.26,505.49 700.28,387.41 700.29,358.80 700.30,329.00 700.90,480.11 703.53,283.75 703.53,272.95 703.53,282.99 703.53,332.35 703.66,434.99 704.87,500.71 704.87,308.31 704.88,302.56 704.88,333.34 704.98,427.67 704.98,259.36 704.98,261.04 704.98,249.13 704.98,243.78 704.98,251.49 704.98,251.49 704.98,257.58 704.98,259.36 704.98,261.04 704.98,270.69 704.98,286.62 704.99,302.56 704.99,333.34 705.03,403.79 705.03,278.85 705.04,296.41 705.04,302.96 705.06,377.44 705.06,308.96 705.06,279.72 705.06,264.14 705.06,261.04 705.06,265.57 705.06,272.95 705.06,287.30 705.06,315.51 705.06,285.93 705.06,270.69 705.06,268.24 705.06,274.02 705.07,279.72 705.07,278.85 705.07,275.05 705.07,277.01 705.07,274.02 705.07,281.40 705.07,291.63 705.07,277.94 705.07,271.84 705.07,266.94 705.07,265.57 705.07,268.24 705.07,271.84 705.07,277.01 705.07,283.75 705.07,285.22 705.08,288.60 705.08,287.30 705.08,279.72 705.08,283.75 705.08,291.63 705.08,311.41 705.59,475.31" stroke-dasharray="3.6 3.6" stroke-width="3.6" stroke="#aaa" />
<g>
<circle cx="673.61" cy="176.15" r="1.6666666666666667" />
<circle cx="673.61" cy="280.57" r="1.6666666666666667" />
<circle cx="673.61" cy="176.15" r="1.6666666666666667" />
<circle cx="678.53" cy="331.17" r="1.6666666666666667" />
<circle cx="678.53" cy="332.35" r="1.6666666666666667" />
<circle cx="678.54" cy="326.82" r="1.6666666666666667" />
<circle cx="678.54" cy="333.34" r="1.6666666666666667" />
<circle cx="678.55" cy="354.45" r="1.6666666666666667" />
<circle cx="678.56" cy="350.39" r="1.6666666666666667" />
<circle cx="678.56" cy="341.96" r="1.6666666666666667" />
<circle cx="678.57" cy="335.23" r="1.6666666666666667" />
<circle cx="678.57" cy="324.28" r="1.6666666666666667" />
<circle cx="678.57" cy="312.28" r="1.6666666666666667" />
<circle cx="678.57" cy="317.49" r="1.6666666666666667" />
<circle cx="678.58" cy="326.47" r="1.6666666666666667" />
<circle cx="678.58" cy="330.41" r="1.6666666666666667" />
<circle cx="678.58" cy="331.02" r="1.6666666666666667" />
<circle cx="678.59" cy="346.74" r="1.6666666666666667" />
<circle cx="678.62" cy="394.38" r="1.6666666666666667" />
<circle cx="678.74" cy="432.87" r="1.6666666666666667" />
<circle cx="680.08" cy="503.72" r="1.6666666666666667" />
<circle cx="680.08" cy="280.57" r="1.6666666666666667" />
<circle cx="680.08" cy="270.69" r="1.6666666666666667" />
<circle cx="680.08" cy="268.24" r="1.6666666666666667" />
<circle cx="680.08" cy="283.75" r="1.6666666666666667" />
<circle cx="680.08" cy="296.41" r="1.6666666666666667" />
<circle cx="680.09" cy="298.30" r="1.6666666666666667" />
<circle cx="680.09" cy="288.60" r="1.6666666666666667" />
<circle cx="680.09" cy="282.21" r="1.6666666666666667" />
<circle cx="680.09" cy="278.85" r="1.6666666666666667" />
<circle cx="680.09" cy="278.85" r="1.6666666666666667" />
<circle cx="680.09" cy="272.95" r="1.6666666666666667" />
<circle cx="680.09" cy="269.49" r="1.6666666666666667" />
<circle cx="680.09" cy="276.05" r="1.6666666666666667" />
<circle cx="680.09" cy="295.91" r="1.6666666666666667" />
<circle cx="680.09" cy="303.35" r="1.6666666666666667" />
<circle cx="680.09" cy="298.76" r="1.6666666666666667" />
<circle cx="680.09" cy="298.76" r="1.6666666666666667" />
<circle cx="680.10" cy="310.51" r="1.6666666666666667" />
<circle cx="680.10" cy="306.98" r="1.6666666666666667" />
<circle cx="680.10" cy="313.40" r="1.6666666666666667" />
<circle cx="680.11" cy="347.87" r="1.6666666666666667" />
<circle cx="680.12" cy="368.73" r="1.6666666666666667" />
<circle cx="680.78" cy="483.06" r="1.6666666666666667" />
<circle cx="680.80" cy="367.10" r="1.6666666666666667" />
<circle cx="680.81" cy="358.80" r="1.6666666666666667" />
<circle cx="680.81" cy="353.21" r="1.6666666666666667" />
<circle cx="680.82" cy="348.95" r="1.6666666666666667" />
<circle cx="680.83" cy="345.20" r="1.6666666666666667" />
<circle cx="680.85" cy="388.96" r="1.6666666666666667" />
<circle cx="681.32" cy="472.50" r="1.6666666666666667" />
<circle cx="681.40" cy="423.21" r="1.6666666666666667" />
<circle cx="681.41" cy="352.49" r="1.6666666666666667" />
<circle cx="681.42" cy="348.78" r="1.6666666666666667" />
<circle cx="681.42" cy="350.70" r="1.6666666666666667" />
<circle cx="681.43" cy="349.03" r="1.6666666666666667" />
<circle cx="681.44" cy="348.03" r="1.6666666666666667" />
<circle cx="681.44" cy="341.96" r="1.6666666666666667" />
<circle cx="681.45" cy="345.66" r="1.6666666666666667" />
<circle cx="681.46" cy="360.17" r="1.6666666666666667" />
<circle cx="681.47" cy="371.36" r="1.6666666666666667" />
<circle cx="681.49" cy="375.97" r="1.6666666666666667" />
<circle cx="681.51" cy="371.96" r="1.6666666666666667" />
<circle cx="681.52" cy="365.97" r="1.6666666666666667" />
<circle cx="681.53" cy="367.32" r="1.6666666666666667" />
<circle cx="681.54" cy="359.60" r="1.6666666666666667" />
<circle cx="681.55" cy="365.65" r="1.6666666666666667" />
<circle cx="681.59" cy="393.28" r="1.6666666666666667" />
<circle cx="681.62" cy="395.46" r="1.6666666666666667" />
<circle cx="681.73" cy="431.69" r="1.6666666666666667" />
<circle cx="681.77" cy="401.24" r="1.6666666666666667" />
<circle cx="681.82" cy="404.52" r="1.6666666666666667" />
<circle cx="681.84" cy="376.49" r="1.6666666666666667" />
<circle cx="681.85" cy="367.62" r="1.6666666666666667" />
<circle cx="681.86" cy="368.05" r="1.6666666666666667" />
<circle cx="681.88" cy="366.47" r="1.6666666666666667" />
<circle cx="681.89" cy="377.38" r="1.6666666666666667" />
<circle cx="681.90" cy="351.31" r="1.6666666666666667" />
<circle cx="681.91" cy="346.56" r="1.6666666666666667" />
<circle cx="681.92" cy="354.72" r="1.6666666666666667" />
<circle cx="681.93" cy="367.05" r="1.6666666666666667" />
<circle cx="682.01" cy="420.43" r="1.6666666666666667" />
<circle cx="682.02" cy="373.21" r="1.6666666666666667" />
<circle cx="682.05" cy="382.52" r="1.6666666666666667" />
<circle cx="682.07" cy="389.54" r="1.6666666666666667" />
<circle cx="682.96" cy="491.59" r="1.6666666666666667" />
<circle cx="683.03" cy="419.32" r="1.6666666666666667" />
<circle cx="683.19" cy="440.06" r="1.6666666666666667" />
<circle cx="683.19" cy="322.92" r="1.6666666666666667" />
<circle cx="683.19" cy="305.58" r="1.6666666666666667" />
<circle cx="683.21" cy="379.85" r="1.6666666666666667" />
<circle cx="683.21" cy="300.93" r="1.6666666666666667" />
<circle cx="683.21" cy="275.05" r="1.6666666666666667" />
<circle cx="683.21" cy="268.24" r="1.6666666666666667" />
<circle cx="683.21" cy="279.72" r="1.6666666666666667" />
<circle cx="683.22" cy="344.54" r="1.6666666666666667" />
<circle cx="683.23" cy="335.10" r="1.6666666666666667" />
<circle cx="683.23" cy="336.63" r="1.6666666666666667" />
<circle cx="683.27" cy="400.74" r="1.6666666666666667" />
<circle cx="683.27" cy="326.99" r="1.6666666666666667" />
<circle cx="683.28" cy="317.25" r="1.6666666666666667" />
<circle cx="683.28" cy="325.21" r="1.6666666666666667" />
<circle cx="683.28" cy="325.21" r="1.6666666666666667" />
<circle cx="683.29" cy="331.91" r="1.6666666666666667" />
<circle cx="683.29" cy="331.47" r="1.6666666666666667" />
<circle cx="683.29" cy="331.91" r="1.6666666666666667" />
<circle cx="683.30" cy="334.16" r="1.6666666666666667" />
<circle cx="683.30" cy="340.47" r="1.6666666666666667" />
<circle cx="683.31" cy="349.99" r="1.6666666666666667" />
<circle cx="683.32" cy="342.48" r="1.6666666666666667" />
<circle cx="683.32" cy="347.44" r="1.6666666666666667" />
<circle cx="683.33" cy="347.52" r="1.6666666666666667" />
<circle cx="683.35" cy="375.55" r="1.6666666666666667" />
<circle cx="683.38" cy="397.44" r="1.6666666666666667" />
<circle cx="683.38" cy="316.76" r="1.6666666666666667" />
<circle cx="683.38" cy="304.49" r="1.6666666666666667" />
<circle cx="683.39" cy="296.89" r="1.6666666666666667" />
<circle cx="683.39" cy="287.96" r="1.6666666666666667" />
<circle cx="683.39" cy="293.85" r="1.6666666666666667" />
<circle cx="683.39" cy="294.38" r="1.6666666666666667" />
<circle cx="683.39" cy="285.93" r="1.6666666666666667" />
<circle cx="683.39" cy="284.50" r="1.6666666666666667" />
<circle cx="683.39" cy="298.30" r="1.6666666666666667" />
<circle cx="683.39" cy="320.22" r="1.6666666666666667" />
<circle cx="683.40" cy="340.36" r="1.6666666666666667" />
<circle cx="683.41" cy="347.78" r="1.6666666666666667" />
<circle cx="683.41" cy="339.81" r="1.6666666666666667" />
<circle cx="683.42" cy="356.17" r="1.6666666666666667" />
<circle cx="683.44" cy="376.78" r="1.6666666666666667" />
<circle cx="683.45" cy="374.16" r="1.6666666666666667" />
<circle cx="683.46" cy="343.68" r="1.6666666666666667" />
<circle cx="683.47" cy="342.07" r="1.6666666666666667" />
<circle cx="683.47" cy="357.05" r="1.6666666666666667" />
<circle cx="683.50" cy="382.18" r="1.6666666666666667" />
<circle cx="683.52" cy="386.92" r="1.6666666666666667" />
<circle cx="683.55" cy="395.32" r="1.6666666666666667" />
<circle cx="683.58" cy="389.46" r="1.6666666666666667" />
<circle cx="683.60" cy="373.35" r="1.6666666666666667" />
<circle cx="683.63" cy="390.09" r="1.6666666666666667" />
<circle cx="683.66" cy="396.85" r="1.6666666666666667" />
<circle cx="683.67" cy="362.68" r="1.6666666666666667" />
<circle cx="683.68" cy="349.44" r="1.6666666666666667" />
<circle cx="683.69" cy="353.06" r="1.6666666666666667" />
<circle cx="683.70" cy="366.38" r="1.6666666666666667" />
<circle cx="684.56" cy="490.63" r="1.6666666666666667" />
<circle cx="690.20" cy="297.37" r="1.6666666666666667" />
<circle cx="690.20" cy="283.75" r="1.6666666666666667" />
<circle cx="690.20" cy="283.75" r="1.6666666666666667" />
<circle cx="690.20" cy="277.01" r="1.6666666666666667" />
<circle cx="690.20" cy="266.94" r="1.6666666666666667" />
<circle cx="690.20" cy="274.02" r="1.6666666666666667" />
<circle cx="690.21" cy="331.62" r="1.6666666666666667" />
<circle cx="690.28" cy="418.39" r="1.6666666666666667" />
<circle cx="690.28" cy="269.49" r="1.6666666666666667" />
<circle cx="690.28" cy="264.14" r="1.6666666666666667" />
<circle cx="690.28" cy="274.02" r="1.6666666666666667" />
<circle cx="690.28" cy="262.63" r="1.6666666666666667" />
<circle cx="690.28" cy="265.57" r="1.6666666666666667" />
<circle cx="690.28" cy="266.94" r="1.6666666666666667" />
<circle cx="690.28" cy="253.66" r="1.6666666666666667" />
<circle cx="690.28" cy="255.69" r="1.6666666666666667" />
<circle cx="690.28" cy="259.36" r="1.6666666666666667" />
<circle cx="690.28" cy="262.63" r="1.6666666666666667" />
<circle cx="690.28" cy="270.69" r="1.6666666666666667" />
<circle cx="690.28" cy="288.60" r="1.6666666666666667" />
<circle cx="690.29" cy="317.96" r="1.6666666666666667" />
<circle cx="690.31" cy="387.37" r="1.6666666666666667" />
<circle cx="690.34" cy="388.18" r="1.6666666666666667" />
<circle cx="691.04" cy="484.66" r="1.6666666666666667" />
<circle cx="691.79" cy="486.81" r="1.6666666666666667" />
<circle cx="691.79" cy="281.40" r="1.6666666666666667" />
<circle cx="691.79" cy="253.66" r="1.6666666666666667" />
<circle cx="691.79" cy="253.66" r="1.6666666666666667" />
<circle cx="691.79" cy="246.58" r="1.6666666666666667" />
<circle cx="691.79" cy="243.78" r="1.6666666666666667" />
<circle cx="691.79" cy="251.49" r="1.6666666666666667" />
<circle cx="691.79" cy="253.66" r="1.6666666666666667" />
<circle cx="691.79" cy="246.58" r="1.6666666666666667" />
<circle cx="691.79" cy="243.78" r="1.6666666666666667" />
<circle cx="691.79" cy="246.58" r="1.6666666666666667" />
<circle cx="691.79" cy="253.66" r="1.6666666666666667" />
<circle cx="691.79" cy="255.69" r="1.6666666666666667" />
<circle cx="691.79" cy="259.36" r="1.6666666666666667" />
<circle cx="691.80" cy="261.04" r="1.6666666666666667" />
<circle cx="691.80" cy="265.57" r="1.6666666666666667" />
<circle cx="691.80" cy="298.76" r="1.6666666666666667" />
<circle cx="691.80" cy="332.35" r="1.6666666666666667" />
<circle cx="691.80" cy="296.89" r="1.6666666666666667" />
<circle cx="691.80" cy="301.76" r="1.6666666666666667" />
<circle cx="691.80" cy="277.01" r="1.6666666666666667" />
<circle cx="691.80" cy="272.95" r="1.6666666666666667" />
<circle cx="691.80" cy="266.94" r="1.6666666666666667" />
<circle cx="691.81" cy="262.63" r="1.6666666666666667" />
<circle cx="691.81" cy="262.63" r="1.6666666666666667" />
<circle cx="691.81" cy="259.36" r="1.6666666666666667" />
<circle cx="691.81" cy="255.69" r="1.6666666666666667" />
<circle cx="691.81" cy="257.58" r="1.6666666666666667" />
<circle cx="691.81" cy="269.49" r="1.6666666666666667" />
<circle cx="691.82" cy="359.94" r="1.6666666666666667" />
<circle cx="691.83" cy="357.23" r="1.6666666666666667" />
<circle cx="691.83" cy="316.02" r="1.6666666666666667" />
<circle cx="691.83" cy="280.57" r="1.6666666666666667" />
<circle cx="691.83" cy="293.85" r="1.6666666666666667" />
<circle cx="691.83" cy="283.75" r="1.6666666666666667" />
<circle cx="691.83" cy="240.69" r="1.6666666666666667" />
<circle cx="691.83" cy="223.42" r="1.6666666666666667" />
<circle cx="691.83" cy="233.30" r="1.6666666666666667" />
<circle cx="691.83" cy="233.30" r="1.6666666666666667" />
<circle cx="691.83" cy="223.42" r="1.6666666666666667" />
<circle cx="691.83" cy="228.78" r="1.6666666666666667" />
<circle cx="691.83" cy="228.78" r="1.6666666666666667" />
<circle cx="691.83" cy="243.78" r="1.6666666666666667" />
<circle cx="691.83" cy="251.49" r="1.6666666666666667" />
<circle cx="691.83" cy="246.58" r="1.6666666666666667" />
<circle cx="691.83" cy="243.78" r="1.6666666666666667" />
<circle cx="691.83" cy="246.58" r="1.6666666666666667" />
<circle cx="691.83" cy="243.78" r="1.6666666666666667" />
<circle cx="691.83" cy="249.13" r="1.6666666666666667" />
<circle cx="691.83" cy="253.66" r="1.6666666666666667" />
<circle cx="691.83" cy="251.49" r="1.6666666666666667" />
<circle cx="691.83" cy="237.23" r="1.6666666666666667" />
<circle cx="691.83" cy="240.69" r="1.6666666666666667" />
<circle cx="691.83" cy="243.78" r="1.6666666666666667" />
<circle cx="691.83" cy="240.69" r="1.6666666666666667" />
<circle cx="691.83" cy="233.30" r="1.6666666666666667" />
<circle cx="691.83" cy="246.58" r="1.6666666666666667" />
<circle cx="691.84" cy="251.49" r="1.6666666666666667" />
<circle cx="691.84" cy="261.04" r="1.6666666666666667" />
<circle cx="691.84" cy="265.57" r="1.6666666666666667" />
<circle cx="691.84" cy="269.49" r="1.6666666666666667" />
<circle cx="691.84" cy="259.36" r="1.6666666666666667" />
<circle cx="691.84" cy="255.69" r="1.6666666666666667" />
<circle cx="691.84" cy="305.22" r="1.6666666666666667" />
<circle cx="691.85" cy="350.07" r="1.6666666666666667" />
<circle cx="691.85" cy="350.15" r="1.6666666666666667" />
<circle cx="691.85" cy="302.56" r="1.6666666666666667" />
<circle cx="691.86" cy="301.76" r="1.6666666666666667" />
<circle cx="691.86" cy="292.20" r="1.6666666666666667" />
<circle cx="691.86" cy="301.76" r="1.6666666666666667" />
<circle cx="691.86" cy="310.51" r="1.6666666666666667" />
<circle cx="691.86" cy="332.06" r="1.6666666666666667" />
<circle cx="691.87" cy="325.58" r="1.6666666666666667" />
<circle cx="691.88" cy="372.81" r="1.6666666666666667" />
<circle cx="691.90" cy="379.88" r="1.6666666666666667" />
<circle cx="691.92" cy="368.56" r="1.6666666666666667" />
<circle cx="691.97" cy="406.91" r="1.6666666666666667" />
<circle cx="692.65" cy="483.99" r="1.6666666666666667" />
<circle cx="692.96" cy="460.44" r="1.6666666666666667" />
<circle cx="693.60" cy="482.23" r="1.6666666666666667" />
<circle cx="693.61" cy="361.69" r="1.6666666666666667" />
<circle cx="696.81" cy="340.14" r="1.6666666666666667" />
<circle cx="696.91" cy="427.72" r="1.6666666666666667" />
<circle cx="697.15" cy="453.46" r="1.6666666666666667" />
<circle cx="698.43" cy="502.21" r="1.6666666666666667" />
<circle cx="698.43" cy="320.00" r="1.6666666666666667" />
<circle cx="698.43" cy="301.76" r="1.6666666666666667" />
<circle cx="698.43" cy="291.05" r="1.6666666666666667" />
<circle cx="698.43" cy="280.57" r="1.6666666666666667" />
<circle cx="698.43" cy="264.14" r="1.6666666666666667" />
<circle cx="698.43" cy="268.24" r="1.6666666666666667" />
<circle cx="698.43" cy="272.95" r="1.6666666666666667" />
<circle cx="698.43" cy="279.72" r="1.6666666666666667" />
<circle cx="698.43" cy="278.85" r="1.6666666666666667" />
<circle cx="698.43" cy="253.66" r="1.6666666666666667" />
<circle cx="698.43" cy="259.36" r="1.6666666666666667" />
<circle cx="698.44" cy="253.66" r="1.6666666666666667" />
<circle cx="698.44" cy="264.14" r="1.6666666666666667" />
<circle cx="698.44" cy="259.36" r="1.6666666666666667" />
<circle cx="698.44" cy="264.14" r="1.6666666666666667" />
<circle cx="698.44" cy="265.57" r="1.6666666666666667" />
<circle cx="698.44" cy="266.94" r="1.6666666666666667" />
<circle cx="698.44" cy="261.04" r="1.6666666666666667" />
<circle cx="698.44" cy="265.57" r="1.6666666666666667" />
<circle cx="698.44" cy="271.84" r="1.6666666666666667" />
<circle cx="698.44" cy="279.72" r="1.6666666666666667" />
<circle cx="698.44" cy="285.22" r="1.6666666666666667" />
<circle cx="698.44" cy="302.17" r="1.6666666666666667" />
<circle cx="698.44" cy="293.85" r="1.6666666666666667" />
<circle cx="698.44" cy="265.57" r="1.6666666666666667" />
<circle cx="698.44" cy="266.94" r="1.6666666666666667" />
<circle cx="698.44" cy="268.24" r="1.6666666666666667" />
<circle cx="698.44" cy="261.04" r="1.6666666666666667" />
<circle cx="698.44" cy="264.14" r="1.6666666666666667" />
<circle cx="698.44" cy="270.69" r="1.6666666666666667" />
<circle cx="698.45" cy="280.57" r="1.6666666666666667" />
<circle cx="698.45" cy="297.84" r="1.6666666666666667" />
<circle cx="698.45" cy="309.90" r="1.6666666666666667" />
<circle cx="698.74" cy="458.97" r="1.6666666666666667" />
<circle cx="698.77" cy="391.37" r="1.6666666666666667" />
<circle cx="698.77" cy="331.62" r="1.6666666666666667" />
<circle cx="698.78" cy="344.64" r="1.6666666666666667" />
<circle cx="698.78" cy="311.70" r="1.6666666666666667" />
<circle cx="698.78" cy="293.85" r="1.6666666666666667" />
<circle cx="698.78" cy="308.31" r="1.6666666666666667" />
<circle cx="698.78" cy="289.85" r="1.6666666666666667" />
<circle cx="698.79" cy="314.47" r="1.6666666666666667" />
<circle cx="698.79" cy="310.81" r="1.6666666666666667" />
<circle cx="698.79" cy="305.58" r="1.6666666666666667" />
<circle cx="698.79" cy="283.75" r="1.6666666666666667" />
<circle cx="698.79" cy="279.72" r="1.6666666666666667" />
<circle cx="698.79" cy="264.14" r="1.6666666666666667" />
<circle cx="698.79" cy="251.49" r="1.6666666666666667" />
<circle cx="698.79" cy="255.69" r="1.6666666666666667" />
<circle cx="698.79" cy="253.66" r="1.6666666666666667" />
<circle cx="698.79" cy="255.69" r="1.6666666666666667" />
<circle cx="698.79" cy="259.36" r="1.6666666666666667" />
<circle cx="698.79" cy="296.89" r="1.6666666666666667" />
<circle cx="698.80" cy="280.57" r="1.6666666666666667" />
<circle cx="698.80" cy="262.63" r="1.6666666666666667" />
<circle cx="698.80" cy="257.58" r="1.6666666666666667" />
<circle cx="698.80" cy="262.63" r="1.6666666666666667" />
<circle cx="698.80" cy="269.49" r="1.6666666666666667" />
<circle cx="698.80" cy="277.94" r="1.6666666666666667" />
<circle cx="698.80" cy="288.60" r="1.6666666666666667" />
<circle cx="698.80" cy="291.63" r="1.6666666666666667" />
<circle cx="698.80" cy="269.49" r="1.6666666666666667" />
<circle cx="698.80" cy="271.84" r="1.6666666666666667" />
<circle cx="698.80" cy="272.95" r="1.6666666666666667" />
<circle cx="698.80" cy="268.24" r="1.6666666666666667" />
<circle cx="698.80" cy="279.72" r="1.6666666666666667" />
<circle cx="698.80" cy="268.24" r="1.6666666666666667" />
<circle cx="698.80" cy="262.63" r="1.6666666666666667" />
<circle cx="698.80" cy="283.75" r="1.6666666666666667" />
<circle cx="698.84" cy="394.29" r="1.6666666666666667" />
<circle cx="700.26" cy="505.49" r="1.6666666666666667" />
<circle cx="700.28" cy="387.41" r="1.6666666666666667" />
<circle cx="700.29" cy="358.80" r="1.6666666666666667" />
<circle cx="700.30" cy="329.00" r="1.6666666666666667" />
<circle cx="700.90" cy="480.11" r="1.6666666666666667" />
<circle cx="703.53" cy="283.75" r="1.6666666666666667" />
<circle cx="703.53" cy="272.95" r="1.6666666666666667" />
<circle cx="703.53" cy="282.99" r="1.6666666666666667" />
<circle cx="703.53" cy="332.35" r="1.6666666666666667" />
<circle cx="703.66" cy="434.99" r="1.6666666666666667" />
<circle cx="704.87" cy="500.71" r="1.6666666666666667" />
<circle cx="704.87" cy="308.31" r="1.6666666666666667" />
<circle cx="704.88" cy="302.56" r="1.6666666666666667" />
<circle cx="704.88" cy="333.34" r="1.6666666666666667" />
<circle cx="704.98" cy="427.67" r="1.6666666666666667" />
<circle cx="704.98" cy="259.36" r="1.6666666666666667" />
<circle cx="704.98" cy="261.04" r="1.6666666666666667" />
<circle cx="704.98" cy="249.13" r="1.6666666666666667" />
<circle cx="704.98" cy="243.78" r="1.6666666666666667" />
<circle cx="704.98" cy="251.49" r="1.6666666666666667" />
<circle cx="704.98" cy="251.49" r="1.6666666666666667" />
<circle cx="704.98" cy="257.58" r="1.6666666666666667" />
<circle cx="704.98" cy="259.36" r="1.6666666666666667" />
<circle cx="704.98" cy="261.04" r="1.6666666666666667" />
<circle cx="704.98" cy="270.69" r="1.6666666666666667" />
<circle cx="704.98" cy="286.62" r="1.6666666666666667" />
<circle cx="704.99" cy="302.56" r="1.6666666666666667" />
<circle cx="704.99" cy="333.34" r="1.6666666666666667" />
<circle cx="705.03" cy="403.79" r="1.6666666666666667" />
<circle cx="705.03" cy="278.85" r="1.6666666666666667" />
<circle cx="705.04" cy="296.41" r="1.6666666666666667" />
<circle cx="705.04" cy="302.96" r="1.6666666666666667" />
<circle cx="705.06" cy="377.44" r="1.6666666666666667" />
<circle cx="705.06" cy="308.96" r="1.6666666666666667" />
<circle cx="705.06" cy="279.72" r="1.6666666666666667" />
<circle cx="705.06" cy="264.14" r="1.6666666666666667" />
<circle cx="705.06" cy="261.04" r="1.6666666666666667" />
<circle cx="705.06" cy="265.57" r="1.6666666666666667" />
<circle cx="705.06" cy="272.95" r="1.6666666666666667" />
<circle cx="705.06" cy="287.30" r="1.6666666666666667" />
<circle cx="705.06" cy="315.51" r="1.6666666666666667" />
<circle cx="705.06" cy="285.93" r="1.6666666666666667" />
<circle cx="705.06" cy="270.69" r="1.6666666666666667" />
<circle cx="705.06" cy="268.24" r="1.6666666666666667" />
<circle cx="705.06" cy="274.02" r="1.6666666666666667" />
<circle cx="705.07" cy="279.72" r="1.6666666666666667" />
<circle cx="705.07" cy="278.85" r="1.6666666666666667" />
<circle cx="705.07" cy="275.05" r="1.6666666666666667" />
<circle cx="705.07" cy="277.01" r="1.6666666666666667" />
<circle cx="705.07" cy="274.02" r="1.6666666666666667" />
<circle cx="705.07" cy="281.40" r="1.6666666666666667" />
<circle cx="705.07" cy="291.63" r="1.6666666666666667" />
<circle cx="705.07" cy="277.94" r="1.6666666666666667" />
<circle cx="705.07" cy="271.84" r="1.6666666666666667" />
<circle cx="705.07" cy="266.94" r="1.6666666666666667" />
<circle cx="705.07" cy="265.57" r="1.6666666666666667" />
<circle cx="705.07" cy="268.24" r="1.6666666666666667" />
<circle cx="705.07" cy="271.84" r="1.6666666666666667" />
<circle cx="705.07" cy="277.01" r="1.6666666666666667" />
<circle cx="705.07" cy="283.75" r="1.6666666666666667" />
<circle cx="705.07" cy="285.22" r="1.6666666666666667" />
<circle cx="705.08" cy="288.60" r="1.6666666666666667" />
<circle cx="705.08" cy="287.30" r="1.6666666666666667" />
<circle cx="705.08" cy="279.72" r="1.6666666666666667" />
<circle cx="705.08" cy="283.75" r="1.6666666666666667" />
<circle cx="705.08" cy="291.63" r="1.6666666666666667" />
<circle cx="705.08" cy="311.41" r="1.6666666666666667" />
<circle cx="705.59" cy="475.31" r="1.6666666666666667" />
</g>
<g stroke="black">
<line x1="839.86" x2="839.86" y1="510.00" y2="520.00" />
<line x1="791.78" x2="791.78" y1="510.00" y2="520.00" />
<line x1="740.39" x2="740.39" y1="510.00" y2="520.00" />
<line x1="689.00" x2="689.00" y1="510.00" y2="520.00" />
<line x1="639.26" x2="639.26" y1="510.00" y2="520.00" />
<line x1="587.87" x2="587.87" y1="510.00" y2="520.00" />
<line x1="538.13" x2="538.13" y1="510.00" y2="520.00" />
<line x1="486.74" x2="486.74" y1="510.00" y2="520.00" />
<line x1="435.35" x2="435.35" y1="510.00" y2="520.00" />
<line x1="385.61" x2="385.61" y1="510.00" y2="520.00" />
<line x1="334.22" x2="334.22" y1="510.00" y2="520.00" />
<line x1="284.48" x2="284.48" y1="510.00" y2="520.00" />
<line x1="233.09" x2="233.09" y1="510.00" y2="520.00" />
<line x1="186.67" x2="186.67" y1="510.00" y2="520.00" />
<g fill="black" font-family="Arial, sans-serif" font-size="18.0" stroke="none" text-anchor="start" transform="translate(9.0 0.0)">
<text x="839.86" y="530.57">Mar</text>
<text x="791.78" y="530.57">Feb</text>
<text x="740.39" y="530.57">Jan</text>
<text x="689.00" y="530.57">Dec</text>
<text x="639.26" y="530.57">Nov</text>
<text x="587.87" y="530.57">Oct</text>
<text x="538.13" y="530.57">Sep</text>
<text x="486.74" y="530.57">Aug</text>
<text x="435.35" y="530.57">Jul</text>
<text x="385.61" y="530.57">Jun</text>
<text x="334.22" y="530.57">May</text>
<text x="284.48" y="530.57">Apr</text>
<text x="233.09" y="530.57">Mar</text>
<text x="186.67" y="530.57">Feb</text>
</g>
<line x1="150.00" x2="850.00" y1="510.00" y2="510.00" />
</g>
<g stroke="black">
<line x1="150.00" x2="140.00" y1="510.00" y2="510.00" />
<line x1="150.00" x2="140.00" y1="216.29" y2="216.29" />
<g fill="black" font-family="Arial, sans-serif" font-size="18.0" stroke="none" text-anchor="end">
<text x="141.00" y="501.00">0</text>
<text x="141.00" y="207.29">10</text>
</g>
<line x1="150.00" x2="150.00" y1="510.00" y2="90.00" />
</g>
</g>
</svg>