<?xml version="1.0"?>
<svg version="1.1" viewBox="0 0 1000 600" xmlns:xlink="http://www.w3.org/1999/xlink" xmlns="http://www.w3.org/2000/svg">
<g>
<g stroke-dasharray="3.6 7.2" stroke-width="0.72" stroke="#caa">
<line x1="424.83" x2="424.83" y1="510.00" y2="90.00" />
<line x1="787.69" x2="787.69" y1="510.00" y2="90.00" />
<line x1="150.00" x2="850.00" y1="510.00" y2="510.00" />
<line x1="150.00" x2="850.00" y1="465.81" y2="465.81" />
<line x1="150.00" x2="850.00" y1="421.62" y2="421.62" />
<line x1="150.00" x2="850.00" y1="377.42" y2="377.42" />
<line x1="150.00" x2="850.00" y1="333.23" y2="333.23" />
<line x1="150.00" x2="850.00" y1="289.04" y2="289.04" />
<line x1="150.00" x2="850.00" y1="244.85" y2="244.85" />
<line x1="150.00" x2="850.00" y1="200.66" y2="200.66" />
<line x1="150.00" x2="850.00" y1="156.46" y2="156.46" />
<line x1="150.00" x2="850.00" y1="112.27" y2="112.27" />
</g>
<g>
<text dominant-baseline="hanging" dx="-36.0" dy="18.0" fill="#0004" font-family="Arial, sans-serif" font-size="36" stroke="none" text-anchor="end" x="850.00" y="128.18">R15</text>
</g>
<g>
<text dominant-baseline="text-bottom" dy="-12.0" fill="black" font-family="Arial, sans-serif" font-size="18.0" font-style="italic" stroke="none" text-anchor="middle" x="500.00" y="90.00">Days since start</text>
</g>
<g>
<text dominant-baseline="central" dx="12.0" dy="12.0" fill="black" font-family="Arial, sans-serif" font-size="18.0" font-style="italic" stroke="none" text-anchor="middle" text-orientation="sideways" writing-mode="vertical-lr" x="850.00" y="300.00">Drips per day</text>
</g>
<polyline fill="none" points="150.00,128.18 150.01,499.09 150.02,128.18 257.73,508.05 257.82,508.13 257.89,507.74 257.97,508.19 258.16,509.12 258.32,508.99 258.43,508.65 258.53,508.30 258.59,507.54 258.64,506.29 258.69,506.90 258.76,507.71 258.84,508.00 258.92,508.04 259.06,508.85 259.77,509.77 262.39,509.94 291.69,509.99 291.71,499.09 291.72,494.73 291.73,493.40 291.74,500.21 291.77,503.64 291.79,504.03 291.81,501.70 291.83,499.68 291.84,498.43 291.86,498.43 291.87,495.86 291.88,494.09 291.89,497.27 291.92,503.53 291.95,504.98 291.98,504.13 292.00,504.13 292.04,506.06 292.08,505.56 292.12,506.43 292.27,508.90 292.57,509.46 307.07,509.99 307.35,509.43 307.56,509.24 307.73,509.08 307.88,508.94 308.02,508.79 308.61,509.73 318.73,509.98 320.62,509.92 320.79,509.06 320.94,508.93 321.10,509.00 321.25,508.94 321.39,508.90 321.51,508.65 321.65,508.81 321.87,509.27 322.19,509.50 322.57,509.58 322.90,509.51 323.17,509.40 323.45,509.43 323.67,509.26 323.93,509.40 324.62,509.76 325.35,509.78 327.87,509.94 328.77,509.82 329.77,509.84 330.15,509.58 330.44,509.44 330.73,509.45 331.00,509.41 331.40,509.60 331.56,509.02 331.70,508.85 331.88,509.13 332.16,509.43 333.88,509.91 334.23,509.53 334.70,509.66 335.30,509.73 354.69,509.99 356.34,509.90 359.70,509.95 359.76,507.42 359.79,505.34 360.22,509.63 360.25,504.55 360.27,496.83 360.28,493.40 360.29,498.77 360.42,508.76 360.51,508.30 360.61,508.38 361.49,509.82 361.56,507.75 361.62,506.87 361.68,507.61 361.75,507.61 361.83,508.10 361.92,508.07 362.00,508.10 362.09,508.24 362.21,508.58 362.36,508.97 362.48,508.67 362.63,508.88 362.77,508.88 363.14,509.57 363.93,509.80 363.98,506.82 364.01,505.17 364.04,503.74 364.06,501.52 364.08,503.06 364.10,503.18 364.12,500.91 364.14,500.45 364.16,504.03 364.22,507.17 364.33,508.58 364.48,508.89 364.59,508.55 364.78,509.17 365.17,509.59 365.53,509.55 365.65,508.73 365.77,508.66 365.97,509.19 366.44,509.66 366.99,509.71 367.72,509.78 368.32,509.73 368.66,509.54 369.28,509.74 370.05,509.79 370.29,509.33 370.44,508.95 370.61,509.08 370.89,509.41 389.65,509.99 513.16,503.84 513.18,500.21 513.20,500.21 513.21,497.68 513.22,492.64 513.23,496.36 513.31,508.08 514.92,509.90 514.93,494.09 514.94,490.91 514.95,496.36 514.96,489.90 514.97,491.82 514.98,492.64 514.98,482.73 514.99,484.55 514.99,487.54 515.00,489.90 515.01,494.73 515.03,501.70 515.08,506.95 515.64,509.71 516.22,509.72 531.53,509.99 548.00,509.99 548.02,499.39 548.03,482.73 548.03,482.73 548.04,475.29 548.04,471.82 548.05,480.63 548.05,482.73 548.06,475.29 548.06,471.82 548.06,475.29 548.07,482.73 548.08,484.55 548.08,487.54 548.09,488.79 548.10,491.82 548.13,504.13 548.21,508.13 548.24,503.74 548.27,504.70 548.28,497.68 548.29,495.86 548.30,492.64 548.31,489.90 548.32,489.90 548.33,487.54 548.33,484.55 548.34,486.14 548.35,494.09 548.57,509.27 548.77,509.20 548.82,506.74 548.83,499.09 548.85,503.06 548.87,500.21 548.88,467.58 548.88,433.64 548.88,455.45 548.88,455.45 548.89,433.64 548.89,446.36 548.89,446.36 548.89,471.82 548.90,480.63 548.90,475.29 548.91,471.82 548.91,475.29 548.92,471.82 548.92,478.18 548.93,482.73 548.93,480.63 548.94,462.27 548.94,467.58 548.95,471.82 548.95,467.58 548.95,455.45 548.96,475.29 548.96,480.63 548.97,488.79 548.98,491.82 548.99,494.09 549.00,487.54 549.00,484.55 549.04,505.29 549.19,508.98 549.35,508.98 549.38,504.84 549.41,504.70 549.43,502.66 549.46,504.70 549.50,506.06 549.59,508.11 549.66,507.64 550.00,509.53 550.43,509.63 550.72,509.45 551.81,509.85 566.77,509.99 573.49,509.98 587.59,509.99 587.82,509.31 657.90,508.56 660.10,509.93 665.39,509.97 693.22,509.99 693.28,507.15 693.31,504.70 693.33,502.36 693.35,499.09 693.35,490.91 693.36,493.40 693.38,495.86 693.39,498.77 693.40,498.43 693.41,482.73 693.42,487.54 693.42,482.73 693.43,490.91 693.44,487.54 693.45,490.91 693.45,491.82 693.46,492.64 693.47,488.79 693.48,491.82 693.49,495.31 693.51,498.77 693.52,500.69 693.55,504.77 693.58,503.06 693.59,491.82 693.59,492.64 693.60,493.40 693.61,488.79 693.62,490.91 693.63,494.73 693.65,499.09 693.67,503.94 693.71,505.98 700.10,509.97 700.74,509.75 700.82,508.08 700.95,508.77 700.99,506.22 701.02,503.06 701.05,505.76 701.07,502.05 701.12,506.56 701.16,506.10 701.20,505.34 701.21,500.21 701.23,498.77 701.23,490.91 701.24,480.63 701.25,484.55 701.25,482.73 701.26,484.55 701.27,487.54 701.29,503.74 701.31,499.09 701.31,489.90 701.32,486.14 701.33,489.90 701.34,494.09 701.35,498.07 701.37,501.70 701.39,502.51 701.40,494.09 701.41,495.31 701.43,495.86 701.43,493.40 701.45,498.77 701.46,493.40 701.47,489.90 701.48,500.21 702.19,509.77 733.31,509.99 733.86,509.71 734.08,509.24 734.15,507.90 747.27,509.99 804.92,500.21 804.94,495.86 804.95,499.95 805.04,508.13 807.86,509.94 834.31,509.99 834.35,505.76 834.38,504.84 834.47,508.19 836.67,509.93 836.67,487.54 836.68,488.79 836.69,478.18 836.69,471.82 836.70,480.63 836.70,480.63 836.71,486.14 836.72,487.54 836.72,488.79 836.73,494.73 836.75,501.12 836.78,504.84 836.87,508.19 837.85,509.84 837.86,498.43 837.89,503.64 837.92,504.91 838.32,509.60 838.35,505.85 838.37,498.77 838.38,490.91 838.38,488.79 838.39,491.82 838.40,495.86 838.42,501.32 838.47,506.68 838.49,500.91 838.50,494.73 838.51,493.40 838.52,496.36 838.54,498.77 838.55,498.43 838.56,496.83 838.57,497.68 838.59,496.36 838.60,499.39 838.62,502.51 838.64,498.07 838.65,495.31 838.66,492.64 838.66,491.82 838.67,493.40 838.69,495.31 838.70,497.68 838.71,500.21 838.73,500.69 838.75,501.70 838.77,501.32 838.78,498.77 838.80,500.21 838.82,502.51 838.86,506.18 850.00,509.99" stroke-dasharray="3.6 3.6" stroke-width="3.6" stroke="#aaa" />
<g>
<circle cx="150.00" cy="128.18" r="1.6666666666666667" />
<circle cx="150.01" cy="499.09" r="1.6666666666666667" />
<circle cx="150.02" cy="128.18" r="1.6666666666666667" />
<circle cx="257.73" cy="508.05" r="1.6666666666666667" />
<circle cx="257.82" cy="508.13" r="1.6666666666666667" />
<circle cx="257.89" cy="507.74" r="1.6666666666666667" />
<circle cx="257.97" cy="508.19" r="1.6666666666666667" />
<circle cx="258.16" cy="509.12" r="1.6666666666666667" />
<circle cx="258.32" cy="508.99" r="1.6666666666666667" />
<circle cx="258.43" cy="508.65" r="1.6666666666666667" />
<circle cx="258.53" cy="508.30" r="1.6666666666666667" />
<circle cx="258.59" cy="507.54" r="1.6666666666666667" />
<circle cx="258.64" cy="506.29" r="1.6666666666666667" />
<circle cx="258.69" cy="506.90" r="1.6666666666666667" />
<circle cx="258.76" cy="507.71" r="1.6666666666666667" />
<circle cx="258.84" cy="508.00" r="1.6666666666666667" />
<circle cx="258.92" cy="508.04" r="1.6666666666666667" />
<circle cx="259.06" cy="508.85" r="1.6666666666666667" />
<circle cx="259.77" cy="509.77" r="1.6666666666666667" />
<circle cx="262.39" cy="509.94" r="1.6666666666666667" />
<circle cx="291.69" cy="509.99" r="1.6666666666666667" />
<circle cx="291.71" cy="499.09" r="1.6666666666666667" />
<circle cx="291.72" cy="494.73" r="1.6666666666666667" />
<circle cx="291.73" cy="493.40" r="1.6666666666666667" />
<circle cx="291.74" cy="500.21" r="1.6666666666666667" />
<circle cx="291.77" cy="503.64" r="1.6666666666666667" />
<circle cx="291.79" cy="504.03" r="1.6666666666666667" />
<circle cx="291.81" cy="501.70" r="1.6666666666666667" />
<circle cx="291.83" cy="499.68" r="1.6666666666666667" />
<circle cx="291.84" cy="498.43" r="1.6666666666666667" />
<circle cx="291.86" cy="498.43" r="1.6666666666666667" />
<circle cx="291.87" cy="495.86" r="1.6666666666666667" />
<circle cx="291.88" cy="494.09" r="1.6666666666666667" />
<circle cx="291.89" cy="497.27" r="1.6666666666666667" />
<circle cx="291.92" cy="503.53" r="1.6666666666666667" />
<circle cx="291.95" cy="504.98" r="1.6666666666666667" />
<circle cx="291.98" cy="504.13" r="1.6666666666666667" />
<circle cx="292.00" cy="504.13" r="1.6666666666666667" />
<circle cx="292.04" cy="506.06" r="1.6666666666666667" />
<circle cx="292.08" cy="505.56" r="1.6666666666666667" />
<circle cx="292.12" cy="506.43" r="1.6666666666666667" />
<circle cx="292.27" cy="508.90" r="1.6666666666666667" />
<circle cx="292.57" cy="509.46" r="1.6666666666666667" />
<circle cx="307.07" cy="509.99" r="1.6666666666666667" />
<circle cx="307.35" cy="509.43" r="1.6666666666666667" />
<circle cx="307.56" cy="509.24" r="1.6666666666666667" />
<circle cx="307.73" cy="509.08" r="1.6666666666666667" />
<circle cx="307.88" cy="508.94" r="1.6666666666666667" />
<circle cx="308.02" cy="508.79" r="1.6666666666666667" />
<circle cx="308.61" cy="509.73" r="1.6666666666666667" />
<circle cx="318.73" cy="509.98" r="1.6666666666666667" />
<circle cx="320.62" cy="509.92" r="1.6666666666666667" />
<circle cx="320.79" cy="509.06" r="1.6666666666666667" />
<circle cx="320.94" cy="508.93" r="1.6666666666666667" />
<circle cx="321.10" cy="509.00" r="1.6666666666666667" />
<circle cx="321.25" cy="508.94" r="1.6666666666666667" />
<circle cx="321.39" cy="508.90" r="1.6666666666666667" />
<circle cx="321.51" cy="508.65" r="1.6666666666666667" />
<circle cx="321.65" cy="508.81" r="1.6666666666666667" />
<circle cx="321.87" cy="509.27" r="1.6666666666666667" />
<circle cx="322.19" cy="509.50" r="1.6666666666666667" />
<circle cx="322.57" cy="509.58" r="1.6666666666666667" />
<circle cx="322.90" cy="509.51" r="1.6666666666666667" />
<circle cx="323.17" cy="509.40" r="1.6666666666666667" />
<circle cx="323.45" cy="509.43" r="1.6666666666666667" />
<circle cx="323.67" cy="509.26" r="1.6666666666666667" />
<circle cx="323.93" cy="509.40" r="1.6666666666666667" />
<circle cx="324.62" cy="509.76" r="1.6666666666666667" />
<circle cx="325.35" cy="509.78" r="1.6666666666666667" />
<circle cx="327.87" cy="509.94" r="1.6666666666666667" />
<circle cx="328.77" cy="509.82" r="1.6666666666666667" />
<circle cx="329.77" cy="509.84" r="1.6666666666666667" />
<circle cx="330.15" cy="509.58" r="1.6666666666666667" />
<circle cx="330.44" cy="509.44" r="1.6666666666666667" />
<circle cx="330.73" cy="509.45" r="1.6666666666666667" />
<circle cx="331.00" cy="509.41" r="1.6666666666666667" />
<circle cx="331.40" cy="509.60" r="1.6666666666666667" />
<circle cx="331.56" cy="509.02" r="1.6666666666666667" />
<circle cx="331.70" cy="508.85" r="1.6666666666666667" />
<circle cx="331.88" cy="509.13" r="1.6666666666666667" />
<circle cx="332.16" cy="509.43" r="1.6666666666666667" />
<circle cx="333.88" cy="509.91" r="1.6666666666666667" />
<circle cx="334.23" cy="509.53" r="1.6666666666666667" />
<circle cx="334.70" cy="509.66" r="1.6666666666666667" />
<circle cx="335.30" cy="509.73" r="1.6666666666666667" />
<circle cx="354.69" cy="509.99" r="1.6666666666666667" />
<circle cx="356.34" cy="509.90" r="1.6666666666666667" />
<circle cx="359.70" cy="509.95" r="1.6666666666666667" />
<circle cx="359.76" cy="507.42" r="1.6666666666666667" />
<circle cx="359.79" cy="505.34" r="1.6666666666666667" />
<circle cx="360.22" cy="509.63" r="1.6666666666666667" />
<circle cx="360.25" cy="504.55" r="1.6666666666666667" />
<circle cx="360.27" cy="496.83" r="1.6666666666666667" />
<circle cx="360.28" cy="493.40" r="1.6666666666666667" />
<circle cx="360.29" cy="498.77" r="1.6666666666666667" />
<circle cx="360.42" cy="508.76" r="1.6666666666666667" />
<circle cx="360.51" cy="508.30" r="1.6666666666666667" />
<circle cx="360.61" cy="508.38" r="1.6666666666666667" />
<circle cx="361.49" cy="509.82" r="1.6666666666666667" />
<circle cx="361.56" cy="507.75" r="1.6666666666666667" />
<circle cx="361.62" cy="506.87" r="1.6666666666666667" />
<circle cx="361.68" cy="507.61" r="1.6666666666666667" />
<circle cx="361.75" cy="507.61" r="1.6666666666666667" />
<circle cx="361.83" cy="508.10" r="1.6666666666666667" />
<circle cx="361.92" cy="508.07" r="1.6666666666666667" />
<circle cx="362.00" cy="508.10" r="1.6666666666666667" />
<circle cx="362.09" cy="508.24" r="1.6666666666666667" />
<circle cx="362.21" cy="508.58" r="1.6666666666666667" />
<circle cx="362.36" cy="508.97" r="1.6666666666666667" />
<circle cx="362.48" cy="508.67" r="1.6666666666666667" />
<circle cx="362.63" cy="508.88" r="1.6666666666666667" />
<circle cx="362.77" cy="508.88" r="1.6666666666666667" />
<circle cx="363.14" cy="509.57" r="1.6666666666666667" />
<circle cx="363.93" cy="509.80" r="1.6666666666666667" />
<circle cx="363.98" cy="506.82" r="1.6666666666666667" />
<circle cx="364.01" cy="505.17" r="1.6666666666666667" />
<circle cx="364.04" cy="503.74" r="1.6666666666666667" />
<circle cx="364.06" cy="501.52" r="1.6666666666666667" />
<circle cx="364.08" cy="503.06" r="1.6666666666666667" />
<circle cx="364.10" cy="503.18" r="1.6666666666666667" />
<circle cx="364.12" cy="500.91" r="1.6666666666666667" />
<circle cx="364.14" cy="500.45" r="1.6666666666666667" />
<circle cx="364.16" cy="504.03" r="1.6666666666666667" />
<circle cx="364.22" cy="507.17" r="1.6666666666666667" />
<circle cx="364.33" cy="508.58" r="1.6666666666666667" />
<circle cx="364.48" cy="508.89" r="1.6666666666666667" />
<circle cx="364.59" cy="508.55" r="1.6666666666666667" />
<circle cx="364.78" cy="509.17" r="1.6666666666666667" />
<circle cx="365.17" cy="509.59" r="1.6666666666666667" />
<circle cx="365.53" cy="509.55" r="1.6666666666666667" />
<circle cx="365.65" cy="508.73" r="1.6666666666666667" />
<circle cx="365.77" cy="508.66" r="1.6666666666666667" />
<circle cx="365.97" cy="509.19" r="1.6666666666666667" />
<circle cx="366.44" cy="509.66" r="1.6666666666666667" />
<circle cx="366.99" cy="509.71" r="1.6666666666666667" />
<circle cx="367.72" cy="509.78" r="1.6666666666666667" />
<circle cx="368.32" cy="509.73" r="1.6666666666666667" />
<circle cx="368.66" cy="509.54" r="1.6666666666666667" />
<circle cx="369.28" cy="509.74" r="1.6666666666666667" />
<circle cx="370.05" cy="509.79" r="1.6666666666666667" />
<circle cx="370.29" cy="509.33" r="1.6666666666666667" />
<circle cx="370.44" cy="508.95" r="1.6666666666666667" />
<circle cx="370.61" cy="509.08" r="1.6666666666666667" />
<circle cx="370.89" cy="509.41" r="1.6666666666666667" />
<circle cx="389.65" cy="509.99" r="1.6666666666666667" />
<circle cx="513.16" cy="503.84" r="1.6666666666666667" />
<circle cx="513.18" cy="500.21" r="1.6666666666666667" />
<circle cx="513.20" cy="500.21" r="1.6666666666666667" />
<circle cx="513.21" cy="497.68" r="1.6666666666666667" />
<circle cx="513.22" cy="492.64" r="1.6666666666666667" />
<circle cx="513.23" cy="496.36" r="1.6666666666666667" />
<circle cx="513.31" cy="508.08" r="1.6666666666666667" />
<circle cx="514.92" cy="509.90" r="1.6666666666666667" />
<circle cx="514.93" cy="494.09" r="1.6666666666666667" />
<circle cx="514.94" cy="490.91" r="1.6666666666666667" />
<circle cx="514.95" cy="496.36" r="1.6666666666666667" />
<circle cx="514.96" cy="489.90" r="1.6666666666666667" />
<circle cx="514.97" cy="491.82" r="1.6666666666666667" />
<circle cx="514.98" cy="492.64" r="1.6666666666666667" />
<circle cx="514.98" cy="482.73" r="1.6666666666666667" />
<circle cx="514.99" cy="484.55" r="1.6666666666666667" />
<circle cx="514.99" cy="487.54" r="1.6666666666666667" />
<circle cx="515.00" cy="489.90" r="1.6666666666666667" />
<circle cx="515.01" cy="494.73" r="1.6666666666666667" />
<circle cx="515.03" cy="501.70" r="1.6666666666666667" />
<circle cx="515.08" cy="506.95" r="1.6666666666666667" />
<circle cx="515.64" cy="509.71" r="1.6666666666666667" />
<circle cx="516.22" cy="509.72" r="1.6666666666666667" />
<circle cx="531.53" cy="509.99" r="1.6666666666666667" />
<circle cx="548.00" cy="509.99" r="1.6666666666666667" />
<circle cx="548.02" cy="499.39" r="1.6666666666666667" />
<circle cx="548.03" cy="482.73" r="1.6666666666666667" />
<circle cx="548.03" cy="482.73" r="1.6666666666666667" />
<circle cx="548.04" cy="475.29" r="1.6666666666666667" />
<circle cx="548.04" cy="471.82" r="1.6666666666666667" />
<circle cx="548.05" cy="480.63" r="1.6666666666666667" />
<circle cx="548.05" cy="482.73" r="1.6666666666666667" />
<circle cx="548.06" cy="475.29" r="1.6666666666666667" />
<circle cx="548.06" cy="471.82" r="1.6666666666666667" />
<circle cx="548.06" cy="475.29" r="1.6666666666666667" />
<circle cx="548.07" cy="482.73" r="1.6666666666666667" />
<circle cx="548.08" cy="484.55" r="1.6666666666666667" />
<circle cx="548.08" cy="487.54" r="1.6666666666666667" />
<circle cx="548.09" cy="488.79" r="1.6666666666666667" />
<circle cx="548.10" cy="491.82" r="1.6666666666666667" />
<circle cx="548.13" cy="504.13" r="1.6666666666666667" />
<circle cx="548.21" cy="508.13" r="1.6666666666666667" />
<circle cx="548.24" cy="503.74" r="1.6666666666666667" />
<circle cx="548.27" cy="504.70" r="1.6666666666666667" />
<circle cx="548.28" cy="497.68" r="1.6666666666666667" />
<circle cx="548.29" cy="495.86" r="1.6666666666666667" />
<circle cx="548.30" cy="492.64" r="1.6666666666666667" />
<circle cx="548.31" cy="489.90" r="1.6666666666666667" />
<circle cx="548.32" cy="489.90" r="1.6666666666666667" />
<circle cx="548.33" cy="487.54" r="1.6666666666666667" />
<circle cx="548.33" cy="484.55" r="1.6666666666666667" />
<circle cx="548.34" cy="486.14" r="1.6666666666666667" />
<circle cx="548.35" cy="494.09" r="1.6666666666666667" />
<circle cx="548.57" cy="509.27" r="1.6666666666666667" />
<circle cx="548.77" cy="509.20" r="1.6666666666666667" />
<circle cx="548.82" cy="506.74" r="1.6666666666666667" />
<circle cx="548.83" cy="499.09" r="1.6666666666666667" />
<circle cx="548.85" cy="503.06" r="1.6666666666666667" />
<circle cx="548.87" cy="500.21" r="1.6666666666666667" />
<circle cx="548.88" cy="467.58" r="1.6666666666666667" />
<circle cx="548.88" cy="433.64" r="1.6666666666666667" />
<circle cx="548.88" cy="455.45" r="1.6666666666666667" />
<circle cx="548.88" cy="455.45" r="1.6666666666666667" />
<circle cx="548.89" cy="433.64" r="1.6666666666666667" />
<circle cx="548.89" cy="446.36" r="1.6666666666666667" />
<circle cx="548.89" cy="446.36" r="1.6666666666666667" />
<circle cx="548.89" cy="471.82" r="1.6666666666666667" />
<circle cx="548.90" cy="480.63" r="1.6666666666666667" />
<circle cx="548.90" cy="475.29" r="1.6666666666666667" />
<circle cx="548.91" cy="471.82" r="1.6666666666666667" />
<circle cx="548.91" cy="475.29" r="1.6666666666666667" />
<circle cx="548.92" cy="471.82" r="1.6666666666666667" />
<circle cx="548.92" cy="478.18" r="1.6666666666666667" />
<circle cx="548.93" cy="482.73" r="1.6666666666666667" />
<circle cx="548.93" cy="480.63" r="1.6666666666666667" />
<circle cx="548.94" cy="462.27" r="1.6666666666666667" />
<circle cx="548.94" cy="467.58" r="1.6666666666666667" />
<circle cx="548.95" cy="471.82" r="1.6666666666666667" />
<circle cx="548.95" cy="467.58" r="1.6666666666666667" />
<circle cx="548.95" cy="455.45" r="1.6666666666666667" />
<circle cx="548.96" cy="475.29" r="1.6666666666666667" />
<circle cx="548.96" cy="480.63" r="1.6666666666666667" />
<circle cx="548.97" cy="488.79" r="1.6666666666666667" />
<circle cx="548.98" cy="491.82" r="1.6666666666666667" />
<circle cx="548.99" cy="494.09" r="1.6666666666666667" />
<circle cx="549.00" cy="487.54" r="1.6666666666666667" />
<circle cx="549.00" cy="484.55" r="1.6666666666666667" />
<circle cx="549.04" cy="505.29" r="1.6666666666666667" />
<circle cx="549.19" cy="508.98" r="1.6666666666666667" />
<circle cx="549.35" cy="508.98" r="1.6666666666666667" />
<circle cx="549.38" cy="504.84" r="1.6666666666666667" />
<circle cx="549.41" cy="504.70" r="1.6666666666666667" />
<circle cx="549.43" cy="502.66" r="1.6666666666666667" />
<circle cx="549.46" cy="504.70" r="1.6666666666666667" />
<circle cx="549.50" cy="506.06" r="1.6666666666666667" />
<circle cx="549.59" cy="508.11" r="1.6666666666666667" />
<circle cx="549.66" cy="507.64" r="1.6666666666666667" />
<circle cx="550.00" cy="509.53" r="1.6666666666666667" />
<circle cx="550.43" cy="509.63" r="1.6666666666666667" />
<circle cx="550.72" cy="509.45" r="1.6666666666666667" />
<circle cx="551.81" cy="509.85" r="1.6666666666666667" />
<circle cx="566.77" cy="509.99" r="1.6666666666666667" />
<circle cx="573.49" cy="509.98" r="1.6666666666666667" />
<circle cx="587.59" cy="509.99" r="1.6666666666666667" />
<circle cx="587.82" cy="509.31" r="1.6666666666666667" />
<circle cx="657.90" cy="508.56" r="1.6666666666666667" />
<circle cx="660.10" cy="509.93" r="1.6666666666666667" />
<circle cx="665.39" cy="509.97" r="1.6666666666666667" />
<circle cx="693.22" cy="509.99" r="1.6666666666666667" />
<circle cx="693.28" cy="507.15" r="1.6666666666666667" />
<circle cx="693.31" cy="504.70" r="1.6666666666666667" />
<circle cx="693.33" cy="502.36" r="1.6666666666666667" />
<circle cx="693.35" cy="499.09" r="1.6666666666666667" />
<circle cx="693.35" cy="490.91" r="1.6666666666666667" />
<circle cx="693.36" cy="493.40" r="1.6666666666666667" />
<circle cx="693.38" cy="495.86" r="1.6666666666666667" />
<circle cx="693.39" cy="498.77" r="1.6666666666666667" />
<circle cx="693.40" cy="498.43" r="1.6666666666666667" />
<circle cx="693.41" cy="482.73" r="1.6666666666666667" />
<circle cx="693.42" cy="487.54" r="1.6666666666666667" />
<circle cx="693.42" cy="482.73" r="1.6666666666666667" />
<circle cx="693.43" cy="490.91" r="1.6666666666666667" />
<circle cx="693.44" cy="487.54" r="1.6666666666666667" />
<circle cx="693.45" cy="490.91" r="1.6666666666666667" />
<circle cx="693.45" cy="491.82" r="1.6666666666666667" />
<circle cx="693.46" cy="492.64" r="1.6666666666666667" />
<circle cx="693.47" cy="488.79" r="1.6666666666666667" />
<circle cx="693.48" cy="491.82" r="1.6666666666666667" />
<circle cx="693.49" cy="495.31" r="1.6666666666666667" />
<circle cx="693.51" cy="498.77" r="1.6666666666666667" />
<circle cx="693.52" cy="500.69" r="1.6666666666666667" />
<circle cx="693.55" cy="504.77" r="1.6666666666666667" />
<circle cx="693.58" cy="503.06" r="1.6666666666666667" />
<circle cx="693.59" cy="491.82" r="1.6666666666666667" />
<circle cx="693.59" cy="492.64" r="1.6666666666666667" />
<circle cx="693.60" cy="493.40" r="1.6666666666666667" />
<circle cx="693.61" cy="488.79" r="1.6666666666666667" />
<circle cx="693.62" cy="490.91" r="1.6666666666666667" />
<circle cx="693.63" cy="494.73" r="1.6666666666666667" />
<circle cx="693.65" cy="499.09" r="1.6666666666666667" />
<circle cx="693.67" cy="503.94" r="1.6666666666666667" />
<circle cx="693.71" cy="505.98" r="1.6666666666666667" />
<circle cx="700.10" cy="509.97" r="1.6666666666666667" />
<circle cx="700.74" cy="509.75" r="1.6666666666666667" />
<circle cx="700.82" cy="508.08" r="1.6666666666666667" />
<circle cx="700.95" cy="508.77" r="1.6666666666666667" />
<circle cx="700.99" cy="506.22" r="1.6666666666666667" />
<circle cx="701.02" cy="503.06" r="1.6666666666666667" />
<circle cx="701.05" cy="505.76" r="1.6666666666666667" />
<circle cx="701.07" cy="502.05" r="1.6666666666666667" />
<circle cx="701.12" cy="506.56" r="1.6666666666666667" />
<circle cx="701.16" cy="506.10" r="1.6666666666666667" />
<circle cx="701.20" cy="505.34" r="1.6666666666666667" />
<circle cx="701.21" cy="500.21" r="1.6666666666666667" />
<circle cx="701.23" cy="498.77" r="1.6666666666666667" />
<circle cx="701.23" cy="490.91" r="1.6666666666666667" />
<circle cx="701.24" cy="480.63" r="1.6666666666666667" />
<circle cx="701.25" cy="484.55" r="1.6666666666666667" />
<circle cx="701.25" cy="482.73" r="1.6666666666666667" />
<circle cx="701.26" cy="484.55" r="1.6666666666666667" />
<circle cx="701.27" cy="487.54" r="1.6666666666666667" />
<circle cx="701.29" cy="503.74" r="1.6666666666666667" />
<circle cx="701.31" cy="499.09" r="1.6666666666666667" />
<circle cx="701.31" cy="489.90" r="1.6666666666666667" />
<circle cx="701.32" cy="486.14" r="1.6666666666666667" />
<circle cx="701.33" cy="489.90" r="1.6666666666666667" />
<circle cx="701.34" cy="494.09" r="1.6666666666666667" />
<circle cx="701.35" cy="498.07" r="1.6666666666666667" />
<circle cx="701.37" cy="501.70" r="1.6666666666666667" />
<circle cx="701.39" cy="502.51" r="1.6666666666666667" />
<circle cx="701.40" cy="494.09" r="1.6666666666666667" />
<circle cx="701.41" cy="495.31" r="1.6666666666666667" />
<circle cx="701.43" cy="495.86" r="1.6666666666666667" />
<circle cx="701.43" cy="493.40" r="1.6666666666666667" />
<circle cx="701.45" cy="498.77" r="1.6666666666666667" />
<circle cx="701.46" cy="493.40" r="1.6666666666666667" />
<circle cx="701.47" cy="489.90" r="1.6666666666666667" />
<circle cx="701.48" cy="500.21" r="1.6666666666666667" />
<circle cx="702.19" cy="509.77" r="1.6666666666666667" />
<circle cx="733.31" cy="509.99" r="1.6666666666666667" />
<circle cx="733.86" cy="509.71" r="1.6666666666666667" />
<circle cx="734.08" cy="509.24" r="1.6666666666666667" />
<circle cx="734.15" cy="507.90" r="1.6666666666666667" />
<circle cx="747.27" cy="509.99" r="1.6666666666666667" />
<circle cx="804.92" cy="500.21" r="1.6666666666666667" />
<circle cx="804.94" cy="495.86" r="1.6666666666666667" />
<circle cx="804.95" cy="499.95" r="1.6666666666666667" />
<circle cx="805.04" cy="508.13" r="1.6666666666666667" />
<circle cx="807.86" cy="509.94" r="1.6666666666666667" />
<circle cx="834.31" cy="509.99" r="1.6666666666666667" />
<circle cx="834.35" cy="505.76" r="1.6666666666666667" />
<circle cx="834.38" cy="504.84" r="1.6666666666666667" />
<circle cx="834.47" cy="508.19" r="1.6666666666666667" />
<circle cx="836.67" cy="509.93" r="1.6666666666666667" />
<circle cx="836.67" cy="487.54" r="1.6666666666666667" />
<circle cx="836.68" cy="488.79" r="1.6666666666666667" />
<circle cx="836.69" cy="478.18" r="1.6666666666666667" />
<circle cx="836.69" cy="471.82" r="1.6666666666666667" />
<circle cx="836.70" cy="480.63" r="1.6666666666666667" />
<circle cx="836.70" cy="480.63" r="1.6666666666666667" />
<circle cx="836.71" cy="486.14" r="1.6666666666666667" />
<circle cx="836.72" cy="487.54" r="1.6666666666666667" />
<circle cx="836.72" cy="488.79" r="1.6666666666666667" />
<circle cx="836.73" cy="494.73" r="1.6666666666666667" />
<circle cx="836.75" cy="501.12" r="1.6666666666666667" />
<circle cx="836.78" cy="504.84" r="1.6666666666666667" />
<circle cx="836.87" cy="508.19" r="1.6666666666666667" />
<circle cx="837.85" cy="509.84" r="1.6666666666666667" />
<circle cx="837.86" cy="498.43" r="1.6666666666666667" />
<circle cx="837.89" cy="503.64" r="1.6666666666666667" />
<circle cx="837.92" cy="504.91" r="1.6666666666666667" />
<circle cx="838.32" cy="509.60" r="1.6666666666666667" />
<circle cx="838.35" cy="505.85" r="1.6666666666666667" />
<circle cx="838.37" cy="498.77" r="1.6666666666666667" />
<circle cx="838.38" cy="490.91" r="1.6666666666666667" />
<circle cx="838.38" cy="488.79" r="1.6666666666666667" />
<circle cx="838.39" cy="491.82" r="1.6666666666666667" />
<circle cx="838.40" cy="495.86" r="1.6666666666666667" />
<circle cx="838.42" cy="501.32" r="1.6666666666666667" />
<circle cx="838.47" cy="506.68" r="1.6666666666666667" />
<circle cx="838.49" cy="500.91" r="1.6666666666666667" />
<circle cx="838.50" cy="494.73" r="1.6666666666666667" />
<circle cx="838.51" cy="493.40" r="1.6666666666666667" />
<circle cx="838.52" cy="496.36" r="1.6666666666666667" />
<circle cx="838.54" cy="498.77" r="1.6666666666666667" />
<circle cx="838.55" cy="498.43" r="1.6666666666666667" />
<circle cx="838.56" cy="496.83" r="1.6666666666666667" />
<circle cx="838.57" cy="497.68" r="1.6666666666666667" />
<circle cx="838.59" cy="496.36" r="1.6666666666666667" />
<circle cx="838.60" cy="499.39" r="1.6666666666666667" />
<circle cx="838.62" cy="502.51" r="1.6666666666666667" />
<circle cx="838.64" cy="498.07" r="1.6666666666666667" />
<circle cx="838.65" cy="495.31" r="1.6666666666666667" />
<circle cx="838.66" cy="492.64" r="1.6666666666666667" />
<circle cx="838.66" cy="491.82" r="1.6666666666666667" />
<circle cx="838.67" cy="493.40" r="1.6666666666666667" />
<circle cx="838.69" cy="495.31" r="1.6666666666666667" />
<circle cx="838.70" cy="497.68" r="1.6666666666666667" />
<circle cx="838.71" cy="500.21" r="1.6666666666666667" />
<circle cx="838.73" cy="500.69" r="1.6666666666666667" />
<circle cx="838.75" cy="501.70" r="1.6666666666666667" />
<circle cx="838.77" cy="501.32" r="1.6666666666666667" />
<circle cx="838.78" cy="498.77" r="1.6666666666666667" />
<circle cx="838.80" cy="500.21" r="1.6666666666666667" />
<circle cx="838.82" cy="502.51" r="1.6666666666666667" />
<circle cx="838.86" cy="506.18" r="1.6666666666666667" />
<circle cx="850.00" cy="509.99" r="1.6666666666666667" />
</g>
<g stroke="black">
<line x1="424.83" x2="424.83" y1="510.00" y2="520.00" />
<line x1="787.69" x2="787.69" y1="510.00" y2="520.00" />
<g fill="black" font-family="Arial, sans-serif" font-size="18.0" stroke="none" text-anchor="start" transform="translate(9.0 0.0)">
<text x="424.83" y="530.57">19690</text>
<text x="787.69" y="530.57">19700</text>
</g>
<line x1="150.00" x2="850.00" y1="510.00" y2="510.00" />
</g>
<g stroke="black">
<line x1="150.00" x2="140.00" y1="510.00" y2="510.00" />
<line x1="150.00" x2="140.00" y1="465.81" y2="465.81" />
<line x1="150.00" x2="140.00" y1="421.62" y2="421.62" />
<line x1="150.00" x2="140.00" y1="377.42" y2="377.42" />
<line x1="150.00" x2="140.00" y1="333.23" y2="333.23" />
<line x1="150.00" x2="140.00" y1="289.04" y2="289.04" />
<line x1="150.00" x2="140.00" y1="244.85" y2="244.85" />
<line x1="150.00" x2="140.00" y1="200.66" y2="200.66" />
<line x1="150.00" x2="140.00" y1="156.46" y2="156.46" />
<line x1="150.00" x2="140.00" y1="112.27" y2="112.27" />
<g fill="black" font-family="Arial, sans-serif" font-size="18.0" stroke="none" text-anchor="end">
<text x="141.00" y="501.00">0</text>
<text x="141.00" y="456.81">10000</text>
<text x="141.00" y="412.62">20000</text>
<text x="141.00" y="368.42">30000</text>
<text x="141.00" y="324.23">40000</text>
<text x="141.00" y="280.04">50000</text>
<text x="141.00" y="235.85">60000</text>
<text x="141.00" y="191.66">70000</text>
<text x="141.00" y="147.46">80000</text>
<text x="141.00" y="103.27">90000</text>
</g>
<line x1="150.00" x2="150.00" y1="510.00" y2="90.00" />
</g>
</g>
</svg>