<?xml version="1.0"?>
<svg version="1.1" viewBox="0 0 1000 600" xmlns:xlink="http://www.w3.org/1999/xlink" xmlns="http://www.w3.org/2000/svg">
<g>
<g stroke-dasharray="3.6 7.2" stroke-width="0.72" stroke="#caa">
<line x1="813.75" x2="813.75" y1="510.00" y2="90.00" />
<line x1="760.60" x2="760.60" y1="510.00" y2="90.00" />
<line x1="707.45" x2="707.45" y1="510.00" y2="90.00" />
<line x1="656.01" x2="656.01" y1="510.00" y2="90.00" />
<line x1="602.86" x2="602.86" y1="510.00" y2="90.00" />
<line x1="551.42" x2="551.42" y1="510.00" y2="90.00" />
<line x1="498.27" x2="498.27" y1="510.00" y2="90.00" />
<line x1="445.11" x2="445.11" y1="510.00" y2="90.00" />
<line x1="393.68" x2="393.68" y1="510.00" y2="90.00" />
<line x1="340.52" x2="340.52" y1="510.00" y2="90.00" />
<line x1="289.09" x2="289.09" y1="510.00" y2="90.00" />
<line x1="235.93" x2="235.93" y1="510.00" y2="90.00" />
<line x1="187.92" x2="187.92" y1="510.00" y2="90.00" />
<line x1="150.00" x2="850.00" y1="510.00" y2="510.00" />
<line x1="150.00" x2="850.00" y1="465.81" y2="465.81" />
<line x1="150.00" x2="850.00" y1="421.62" y2="421.62" />
<line x1="150.00" x2="850.00" y1="377.42" y2="377.42" />
<line x1="150.00" x2="850.00" y1="333.23" y2="333.23" />
<line x1="150.00" x2="850.00" y1="289.04" y2="289.04" />
<line x1="150.00" x2="850.00" y1="244.85" y2="244.85" />
<line x1="150.00" x2="850.00" y1="200.66" y2="200.66" />
<line x1="150.00" x2="850.00" y1="156.46" y2="156.46" />
<line x1="150.00" x2="850.00" y1="112.27" y2="112.27" />
</g>
<g>
<text dominant-baseline="hanging" dx="-36.0" dy="18.0" fill="#0004" font-family="Arial, sans-serif" font-size="36" stroke="none" text-anchor="end" x="850.00" y="128.18">R15</text>
</g>
<g>
<text dominant-baseline="text-bottom" dy="-12.0" fill="black" font-family="Arial, sans-serif" font-size="18.0" font-style="italic" stroke="none" text-anchor="middle" x="500.00" y="90.00">Years 2023 to 2024</text>
</g>
<g>
<text dominant-baseline="central" dx="12.0" dy="12.0" fill="black" font-family="Arial, sans-serif" font-size="18.0" font-style="italic" stroke="none" text-anchor="middle" text-orientation="sideways" writing-mode="vertical-lr" x="850.00" y="300.00">Drips per day</text>
</g>
<polyline fill="none" points="691.53,128.18 691.53,499.09 691.53,128.18 696.62,508.05 696.63,508.13 696.63,507.74 696.64,508.19 696.64,509.12 696.65,508.99 696.66,508.65 696.66,508.30 696.66,507.54 696.67,506.29 696.67,506.90 696.67,507.71 696.68,508.00 696.68,508.04 696.69,508.85 696.72,509.77 696.84,509.94 698.23,509.99 698.23,499.09 698.23,494.73 698.23,493.40 698.23,500.21 698.23,503.64 698.23,504.03 698.23,501.70 698.23,499.68 698.24,498.43 698.24,498.43 698.24,495.86 698.24,494.09 698.24,497.27 698.24,503.53 698.24,504.98 698.24,504.13 698.24,504.13 698.25,506.06 698.25,505.56 698.25,506.43 698.26,508.90 698.27,509.46 698.96,509.99 698.97,509.43 698.98,509.24 698.99,509.08 698.99,508.94 699.00,508.79 699.03,509.73 699.51,509.98 699.60,509.92 699.60,509.06 699.61,508.93 699.62,509.00 699.63,508.94 699.63,508.90 699.64,508.65 699.64,508.81 699.65,509.27 699.67,509.50 699.69,509.58 699.70,509.51 699.72,509.40 699.73,509.43 699.74,509.26 699.75,509.40 699.78,509.76 699.82,509.78 699.94,509.94 699.98,509.82 700.03,509.84 700.05,509.58 700.06,509.44 700.07,509.45 700.09,509.41 700.10,509.60 700.11,509.02 700.12,508.85 700.13,509.13 700.14,509.43 700.22,509.91 700.24,509.53 700.26,509.66 700.29,509.73 701.21,509.99 701.28,509.90 701.44,509.95 701.44,507.42 701.45,505.34 701.47,509.63 701.47,504.55 701.47,496.83 701.47,493.40 701.47,498.77 701.48,508.76 701.48,508.30 701.49,508.38 701.53,509.82 701.53,507.75 701.53,506.87 701.54,507.61 701.54,507.61 701.54,508.10 701.55,508.07 701.55,508.10 701.56,508.24 701.56,508.58 701.57,508.97 701.57,508.67 701.58,508.88 701.59,508.88 701.60,509.57 701.64,509.80 701.64,506.82 701.65,505.17 701.65,503.74 701.65,501.52 701.65,503.06 701.65,503.18 701.65,500.91 701.65,500.45 701.65,504.03 701.66,507.17 701.66,508.58 701.67,508.89 701.67,508.55 701.68,509.17 701.70,509.59 701.72,509.55 701.72,508.73 701.73,508.66 701.74,509.19 701.76,509.66 701.79,509.71 701.82,509.78 701.85,509.73 701.87,509.54 701.89,509.74 701.93,509.79 701.94,509.33 701.95,508.95 701.96,509.08 701.97,509.41 702.86,509.99 708.69,503.84 708.69,500.21 708.70,500.21 708.70,497.68 708.70,492.64 708.70,496.36 708.70,508.08 708.78,509.90 708.78,494.09 708.78,490.91 708.78,496.36 708.78,489.90 708.78,491.82 708.78,492.64 708.78,482.73 708.78,484.55 708.78,487.54 708.78,489.90 708.78,494.73 708.78,501.70 708.78,506.95 708.81,509.71 708.84,509.72 709.56,509.99 710.34,509.99 710.34,499.39 710.34,482.73 710.34,482.73 710.34,475.29 710.34,471.82 710.34,480.63 710.34,482.73 710.34,475.29 710.34,471.82 710.34,475.29 710.34,482.73 710.34,484.55 710.34,487.54 710.34,488.79 710.34,491.82 710.35,504.13 710.35,508.13 710.35,503.74 710.35,504.70 710.35,497.68 710.35,495.86 710.35,492.64 710.35,489.90 710.35,489.90 710.36,487.54 710.36,484.55 710.36,486.14 710.36,494.09 710.37,509.27 710.38,509.20 710.38,506.74 710.38,499.09 710.38,503.06 710.38,500.21 710.38,467.58 710.38,433.64 710.38,455.45 710.38,455.45 710.38,433.64 710.38,446.36 710.38,446.36 710.38,471.82 710.38,480.63 710.38,475.29 710.38,471.82 710.38,475.29 710.38,471.82 710.38,478.18 710.38,482.73 710.38,480.63 710.38,462.27 710.38,467.58 710.38,471.82 710.38,467.58 710.38,455.45 710.38,475.29 710.39,480.63 710.39,488.79 710.39,491.82 710.39,494.09 710.39,487.54 710.39,484.55 710.39,505.29 710.40,508.98 710.40,508.98 710.40,504.84 710.41,504.70 710.41,502.66 710.41,504.70 710.41,506.06 710.41,508.11 710.42,507.64 710.43,509.53 710.45,509.63 710.47,509.45 710.52,509.85 711.23,509.99 711.54,509.98 712.21,509.99 712.22,509.31 715.53,508.56 715.64,509.93 715.89,509.97 717.20,509.99 717.20,507.15 717.21,504.70 717.21,502.36 717.21,499.09 717.21,490.91 717.21,493.40 717.21,495.86 717.21,498.77 717.21,498.43 717.21,482.73 717.21,487.54 717.21,482.73 717.21,490.91 717.21,487.54 717.21,490.91 717.21,491.82 717.21,492.64 717.21,488.79 717.21,491.82 717.21,495.31 717.22,498.77 717.22,500.69 717.22,504.77 717.22,503.06 717.22,491.82 717.22,492.64 717.22,493.40 717.22,488.79 717.22,490.91 717.22,494.73 717.22,499.09 717.22,503.94 717.23,505.98 717.53,509.97 717.56,509.75 717.56,508.08 717.57,508.77 717.57,506.22 717.57,503.06 717.57,505.76 717.57,502.05 717.58,506.56 717.58,506.10 717.58,505.34 717.58,500.21 717.58,498.77 717.58,490.91 717.58,480.63 717.58,484.55 717.58,482.73 717.58,484.55 717.58,487.54 717.58,503.74 717.58,499.09 717.58,489.90 717.58,486.14 717.58,489.90 717.59,494.09 717.59,498.07 717.59,501.70 717.59,502.51 717.59,494.09 717.59,495.31 717.59,495.86 717.59,493.40 717.59,498.77 717.59,493.40 717.59,489.90 717.59,500.21 717.63,509.77 719.10,509.99 719.12,509.71 719.13,509.24 719.14,507.90 719.76,509.99 722.48,500.21 722.48,495.86 722.48,499.95 722.49,508.13 722.62,509.94 723.87,509.99 723.87,505.76 723.87,504.84 723.88,508.19 723.98,509.93 723.98,487.54 723.98,488.79 723.98,478.18 723.98,471.82 723.98,480.63 723.98,480.63 723.98,486.14 723.98,487.54 723.98,488.79 723.98,494.73 723.98,501.12 723.99,504.84 723.99,508.19 724.04,509.84 724.04,498.43 724.04,503.64 724.04,504.91 724.06,509.60 724.06,505.85 724.06,498.77 724.06,490.91 724.06,488.79 724.06,491.82 724.06,495.86 724.06,501.32 724.07,506.68 724.07,500.91 724.07,494.73 724.07,493.40 724.07,496.36 724.07,498.77 724.07,498.43 724.07,496.83 724.07,497.68 724.07,496.36 724.07,499.39 724.07,502.51 724.07,498.07 724.07,495.31 724.07,492.64 724.07,491.82 724.07,493.40 724.08,495.31 724.08,497.68 724.08,500.21 724.08,500.69 724.08,501.70 724.08,501.32 724.08,498.77 724.08,500.21 724.08,502.51 724.08,506.18 724.61,509.99" stroke-dasharray="3.6 3.6" stroke-width="3.6" stroke="#aaa" />
<g>
<circle cx="691.53" cy="128.18" r="1.6666666666666667" />
<circle cx="691.53" cy="499.09" r="1.6666666666666667" />
<circle cx="691.53" cy="128.18" r="1.6666666666666667" />
<circle cx="696.62" cy="508.05" r="1.6666666666666667" />
<circle cx="696.63" cy="508.13" r="1.6666666666666667" />
<circle cx="696.63" cy="507.74" r="1.6666666666666667" />
<circle cx="696.64" cy="508.19" r="1.6666666666666667" />
<circle cx="696.64" cy="509.12" r="1.6666666666666667" />
<circle cx="696.65" cy="508.99" r="1.6666666666666667" />
<circle cx="696.66" cy="508.65" r="1.6666666666666667" />
<circle cx="696.66" cy="508.30" r="1.6666666666666667" />
<circle cx="696.66" cy="507.54" r="1.6666666666666667" />
<circle cx="696.67" cy="506.29" r="1.6666666666666667" />
<circle cx="696.67" cy="506.90" r="1.6666666666666667" />
<circle cx="696.67" cy="507.71" r="1.6666666666666667" />
<circle cx="696.68" cy="508.00" r="1.6666666666666667" />
<circle cx="696.68" cy="508.04" r="1.6666666666666667" />
<circle cx="696.69" cy="508.85" r="1.6666666666666667" />
<circle cx="696.72" cy="509.77" r="1.6666666666666667" />
<circle cx="696.84" cy="509.94" r="1.6666666666666667" />
<circle cx="698.23" cy="509.99" r="1.6666666666666667" />
<circle cx="698.23" cy="499.09" r="1.6666666666666667" />
<circle cx="698.23" cy="494.73" r="1.6666666666666667" />
<circle cx="698.23" cy="493.40" r="1.6666666666666667" />
<circle cx="698.23" cy="500.21" r="1.6666666666666667" />
<circle cx="698.23" cy="503.64" r="1.6666666666666667" />
<circle cx="698.23" cy="504.03" r="1.6666666666666667" />
<circle cx="698.23" cy="501.70" r="1.6666666666666667" />
<circle cx="698.23" cy="499.68" r="1.6666666666666667" />
<circle cx="698.24" cy="498.43" r="1.6666666666666667" />
<circle cx="698.24" cy="498.43" r="1.6666666666666667" />
<circle cx="698.24" cy="495.86" r="1.6666666666666667" />
<circle cx="698.24" cy="494.09" r="1.6666666666666667" />
<circle cx="698.24" cy="497.27" r="1.6666666666666667" />
<circle cx="698.24" cy="503.53" r="1.6666666666666667" />
<circle cx="698.24" cy="504.98" r="1.6666666666666667" />
<circle cx="698.24" cy="504.13" r="1.6666666666666667" />
<circle cx="698.24" cy="504.13" r="1.6666666666666667" />
<circle cx="698.25" cy="506.06" r="1.6666666666666667" />
<circle cx="698.25" cy="505.56" r="1.6666666666666667" />
<circle cx="698.25" cy="506.43" r="1.6666666666666667" />
<circle cx="698.26" cy="508.90" r="1.6666666666666667" />
<circle cx="698.27" cy="509.46" r="1.6666666666666667" />
<circle cx="698.96" cy="509.99" r="1.6666666666666667" />
<circle cx="698.97" cy="509.43" r="1.6666666666666667" />
<circle cx="698.98" cy="509.24" r="1.6666666666666667" />
<circle cx="698.99" cy="509.08" r="1.6666666666666667" />
<circle cx="698.99" cy="508.94" r="1.6666666666666667" />
<circle cx="699.00" cy="508.79" r="1.6666666666666667" />
<circle cx="699.03" cy="509.73" r="1.6666666666666667" />
<circle cx="699.51" cy="509.98" r="1.6666666666666667" />
<circle cx="699.60" cy="509.92" r="1.6666666666666667" />
<circle cx="699.60" cy="509.06" r="1.6666666666666667" />
<circle cx="699.61" cy="508.93" r="1.6666666666666667" />
<circle cx="699.62" cy="509.00" r="1.6666666666666667" />
<circle cx="699.63" cy="508.94" r="1.6666666666666667" />
<circle cx="699.63" cy="508.90" r="1.6666666666666667" />
<circle cx="699.64" cy="508.65" r="1.6666666666666667" />
<circle cx="699.64" cy="508.81" r="1.6666666666666667" />
<circle cx="699.65" cy="509.27" r="1.6666666666666667" />
<circle cx="699.67" cy="509.50" r="1.6666666666666667" />
<circle cx="699.69" cy="509.58" r="1.6666666666666667" />
<circle cx="699.70" cy="509.51" r="1.6666666666666667" />
<circle cx="699.72" cy="509.40" r="1.6666666666666667" />
<circle cx="699.73" cy="509.43" r="1.6666666666666667" />
<circle cx="699.74" cy="509.26" r="1.6666666666666667" />
<circle cx="699.75" cy="509.40" r="1.6666666666666667" />
<circle cx="699.78" cy="509.76" r="1.6666666666666667" />
<circle cx="699.82" cy="509.78" r="1.6666666666666667" />
<circle cx="699.94" cy="509.94" r="1.6666666666666667" />
<circle cx="699.98" cy="509.82" r="1.6666666666666667" />
<circle cx="700.03" cy="509.84" r="1.6666666666666667" />
<circle cx="700.05" cy="509.58" r="1.6666666666666667" />
<circle cx="700.06" cy="509.44" r="1.6666666666666667" />
<circle cx="700.07" cy="509.45" r="1.6666666666666667" />
<circle cx="700.09" cy="509.41" r="1.6666666666666667" />
<circle cx="700.10" cy="509.60" r="1.6666666666666667" />
<circle cx="700.11" cy="509.02" r="1.6666666666666667" />
<circle cx="700.12" cy="508.85" r="1.6666666666666667" />
<circle cx="700.13" cy="509.13" r="1.6666666666666667" />
<circle cx="700.14" cy="509.43" r="1.6666666666666667" />
<circle cx="700.22" cy="509.91" r="1.6666666666666667" />
<circle cx="700.24" cy="509.53" r="1.6666666666666667" />
<circle cx="700.26" cy="509.66" r="1.6666666666666667" />
<circle cx="700.29" cy="509.73" r="1.6666666666666667" />
<circle cx="701.21" cy="509.99" r="1.6666666666666667" />
<circle cx="701.28" cy="509.90" r="1.6666666666666667" />
<circle cx="701.44" cy="509.95" r="1.6666666666666667" />
<circle cx="701.44" cy="507.42" r="1.6666666666666667" />
<circle cx="701.45" cy="505.34" r="1.6666666666666667" />
<circle cx="701.47" cy="509.63" r="1.6666666666666667" />
<circle cx="701.47" cy="504.55" r="1.6666666666666667" />
<circle cx="701.47" cy="496.83" r="1.6666666666666667" />
<circle cx="701.47" cy="493.40" r="1.6666666666666667" />
<circle cx="701.47" cy="498.77" r="1.6666666666666667" />
<circle cx="701.48" cy="508.76" r="1.6666666666666667" />
<circle cx="701.48" cy="508.30" r="1.6666666666666667" />
<circle cx="701.49" cy="508.38" r="1.6666666666666667" />
<circle cx="701.53" cy="509.82" r="1.6666666666666667" />
<circle cx="701.53" cy="507.75" r="1.6666666666666667" />
<circle cx="701.53" cy="506.87" r="1.6666666666666667" />
<circle cx="701.54" cy="507.61" r="1.6666666666666667" />
<circle cx="701.54" cy="507.61" r="1.6666666666666667" />
<circle cx="701.54" cy="508.10" r="1.6666666666666667" />
<circle cx="701.55" cy="508.07" r="1.6666666666666667" />
<circle cx="701.55" cy="508.10" r="1.6666666666666667" />
<circle cx="701.56" cy="508.24" r="1.6666666666666667" />
<circle cx="701.56" cy="508.58" r="1.6666666666666667" />
<circle cx="701.57" cy="508.97" r="1.6666666666666667" />
<circle cx="701.57" cy="508.67" r="1.6666666666666667" />
<circle cx="701.58" cy="508.88" r="1.6666666666666667" />
<circle cx="701.59" cy="508.88" r="1.6666666666666667" />
<circle cx="701.60" cy="509.57" r="1.6666666666666667" />
<circle cx="701.64" cy="509.80" r="1.6666666666666667" />
<circle cx="701.64" cy="506.82" r="1.6666666666666667" />
<circle cx="701.65" cy="505.17" r="1.6666666666666667" />
<circle cx="701.65" cy="503.74" r="1.6666666666666667" />
<circle cx="701.65" cy="501.52" r="1.6666666666666667" />
<circle cx="701.65" cy="503.06" r="1.6666666666666667" />
<circle cx="701.65" cy="503.18" r="1.6666666666666667" />
<circle cx="701.65" cy="500.91" r="1.6666666666666667" />
<circle cx="701.65" cy="500.45" r="1.6666666666666667" />
<circle cx="701.65" cy="504.03" r="1.6666666666666667" />
<circle cx="701.66" cy="507.17" r="1.6666666666666667" />
<circle cx="701.66" cy="508.58" r="1.6666666666666667" />
<circle cx="701.67" cy="508.89" r="1.6666666666666667" />
<circle cx="701.67" cy="508.55" r="1.6666666666666667" />
<circle cx="701.68" cy="509.17" r="1.6666666666666667" />
<circle cx="701.70" cy="509.59" r="1.6666666666666667" />
<circle cx="701.72" cy="509.55" r="1.6666666666666667" />
<circle cx="701.72" cy="508.73" r="1.6666666666666667" />
<circle cx="701.73" cy="508.66" r="1.6666666666666667" />
<circle cx="701.74" cy="509.19" r="1.6666666666666667" />
<circle cx="701.76" cy="509.66" r="1.6666666666666667" />
<circle cx="701.79" cy="509.71" r="1.6666666666666667" />
<circle cx="701.82" cy="509.78" r="1.6666666666666667" />
<circle cx="701.85" cy="509.73" r="1.6666666666666667" />
<circle cx="701.87" cy="509.54" r="1.6666666666666667" />
<circle cx="701.89" cy="509.74" r="1.6666666666666667" />
<circle cx="701.93" cy="509.79" r="1.6666666666666667" />
<circle cx="701.94" cy="509.33" r="1.6666666666666667" />
<circle cx="701.95" cy="508.95" r="1.6666666666666667" />
<circle cx="701.96" cy="509.08" r="1.6666666666666667" />
<circle cx="701.97" cy="509.41" r="1.6666666666666667" />
<circle cx="702.86" cy="509.99" r="1.6666666666666667" />
<circle cx="708.69" cy="503.84" r="1.6666666666666667" />
<circle cx="708.69" cy="500.21" r="1.6666666666666667" />
<circle cx="708.70" cy="500.21" r="1.6666666666666667" />
<circle cx="708.70" cy="497.68" r="1.6666666666666667" />
<circle cx="708.70" cy="492.64" r="1.6666666666666667" />
<circle cx="708.70" cy="496.36" r="1.6666666666666667" />
<circle cx="708.70" cy="508.08" r="1.6666666666666667" />
<circle cx="708.78" cy="509.90" r="1.6666666666666667" />
<circle cx="708.78" cy="494.09" r="1.6666666666666667" />
<circle cx="708.78" cy="490.91" r="1.6666666666666667" />
<circle cx="708.78" cy="496.36" r="1.6666666666666667" />
<circle cx="708.78" cy="489.90" r="1.6666666666666667" />
<circle cx="708.78" cy="491.82" r="1.6666666666666667" />
<circle cx="708.78" cy="492.64" r="1.6666666666666667" />
<circle cx="708.78" cy="482.73" r="1.6666666666666667" />
<circle cx="708.78" cy="484.55" r="1.6666666666666667" />
<circle cx="708.78" cy="487.54" r="1.6666666666666667" />
<circle cx="708.78" cy="489.90" r="1.6666666666666667" />
<circle cx="708.78" cy="494.73" r="1.6666666666666667" />
<circle cx="708.78" cy="501.70" r="1.6666666666666667" />
<circle cx="708.78" cy="506.95" r="1.6666666666666667" />
<circle cx="708.81" cy="509.71" r="1.6666666666666667" />
<circle cx="708.84" cy="509.72" r="1.6666666666666667" />
<circle cx="709.56" cy="509.99" r="1.6666666666666667" />
<circle cx="710.34" cy="509.99" r="1.6666666666666667" />
<circle cx="710.34" cy="499.39" r="1.6666666666666667" />
<circle cx="710.34" cy="482.73" r="1.6666666666666667" />
<circle cx="710.34" cy="482.73" r="1.6666666666666667" />
<circle cx="710.34" cy="475.29" r="1.6666666666666667" />
<circle cx="710.34" cy="471.82" r="1.6666666666666667" />
<circle cx="710.34" cy="480.63" r="1.6666666666666667" />
<circle cx="710.34" cy="482.73" r="1.6666666666666667" />
<circle cx="710.34" cy="475.29" r="1.6666666666666667" />
<circle cx="710.34" cy="471.82" r="1.6666666666666667" />
<circle cx="710.34" cy="475.29" r="1.6666666666666667" />
<circle cx="710.34" cy="482.73" r="1.6666666666666667" />
<circle cx="710.34" cy="484.55" r="1.6666666666666667" />
<circle cx="710.34" cy="487.54" r="1.6666666666666667" />
<circle cx="710.34" cy="488.79" r="1.6666666666666667" />
<circle cx="710.34" cy="491.82" r="1.6666666666666667" />
<circle cx="710.35" cy="504.13" r="1.6666666666666667" />
<circle cx="710.35" cy="508.13" r="1.6666666666666667" />
<circle cx="710.35" cy="503.74" r="1.6666666666666667" />
<circle cx="710.35" cy="504.70" r="1.6666666666666667" />
<circle cx="710.35" cy="497.68" r="1.6666666666666667" />
<circle cx="710.35" cy="495.86" r="1.6666666666666667" />
<circle cx="710.35" cy="492.64" r="1.6666666666666667" />
<circle cx="710.35" cy="489.90" r="1.6666666666666667" />
<circle cx="710.35" cy="489.90" r="1.6666666666666667" />
<circle cx="710.36" cy="487.54" r="1.6666666666666667" />
<circle cx="710.36" cy="484.55" r="1.6666666666666667" />
<circle cx="710.36" cy="486.14" r="1.6666666666666667" />
<circle cx="710.36" cy="494.09" r="1.6666666666666667" />
<circle cx="710.37" cy="509.27" r="1.6666666666666667" />
<circle cx="710.38" cy="509.20" r="1.6666666666666667" />
<circle cx="710.38" cy="506.74" r="1.6666666666666667" />
<circle cx="710.38" cy="499.09" r="1.6666666666666667" />
<circle cx="710.38" cy="503.06" r="1.6666666666666667" />
<circle cx="710.38" cy="500.21" r="1.6666666666666667" />
<circle cx="710.38" cy="467.58" r="1.6666666666666667" />
<circle cx="710.38" cy="433.64" r="1.6666666666666667" />
<circle cx="710.38" cy="455.45" r="1.6666666666666667" />
<circle cx="710.38" cy="455.45" r="1.6666666666666667" />
<circle cx="710.38" cy="433.64" r="1.6666666666666667" />
<circle cx="710.38" cy="446.36" r="1.6666666666666667" />
<circle cx="710.38" cy="446.36" r="1.6666666666666667" />
<circle cx="710.38" cy="471.82" r="1.6666666666666667" />
<circle cx="710.38" cy="480.63" r="1.6666666666666667" />
<circle cx="710.38" cy="475.29" r="1.6666666666666667" />
<circle cx="710.38" cy="471.82" r="1.6666666666666667" />
<circle cx="710.38" cy="475.29" r="1.6666666666666667" />
<circle cx="710.38" cy="471.82" r="1.6666666666666667" />
<circle cx="710.38" cy="478.18" r="1.6666666666666667" />
<circle cx="710.38" cy="482.73" r="1.6666666666666667" />
<circle cx="710.38" cy="480.63" r="1.6666666666666667" />
<circle cx="710.38" cy="462.27" r="1.6666666666666667" />
<circle cx="710.38" cy="467.58" r="1.6666666666666667" />
<circle cx="710.38" cy="471.82" r="1.6666666666666667" />
<circle cx="710.38" cy="467.58" r="1.6666666666666667" />
<circle cx="710.38" cy="455.45" r="1.6666666666666667" />
<circle cx="710.38" cy="475.29" r="1.6666666666666667" />
<circle cx="710.39" cy="480.63" r="1.6666666666666667" />
<circle cx="710.39" cy="488.79" r="1.6666666666666667" />
<circle cx="710.39" cy="491.82" r="1.6666666666666667" />
<circle cx="710.39" cy="494.09" r="1.6666666666666667" />
<circle cx="710.39" cy="487.54" r="1.6666666666666667" />
<circle cx="710.39" cy="484.55" r="1.6666666666666667" />
<circle cx="710.39" cy="505.29" r="1.6666666666666667" />
<circle cx="710.40" cy="508.98" r="1.6666666666666667" />
<circle cx="710.40" cy="508.98" r="1.6666666666666667" />
<circle cx="710.40" cy="504.84" r="1.6666666666666667" />
<circle cx="710.41" cy="504.70" r="1.6666666666666667" />
<circle cx="710.41" cy="502.66" r="1.6666666666666667" />
<circle cx="710.41" cy="504.70" r="1.6666666666666667" />
<circle cx="710.41" cy="506.06" r="1.6666666666666667" />
<circle cx="710.41" cy="508.11" r="1.6666666666666667" />
<circle cx="710.42" cy="507.64" r="1.6666666666666667" />
<circle cx="710.43" cy="509.53" r="1.6666666666666667" />
<circle cx="710.45" cy="509.63" r="1.6666666666666667" />
<circle cx="710.47" cy="509.45" r="1.6666666666666667" />
<circle cx="710.52" cy="509.85" r="1.6666666666666667" />
<circle cx="711.23" cy="509.99" r="1.6666666666666667" />
<circle cx="711.54" cy="509.98" r="1.6666666666666667" />
<circle cx="712.21" cy="509.99" r="1.6666666666666667" />
<circle cx="712.22" cy="509.31" r="1.6666666666666667" />
<circle cx="715.53" cy="508.56" r="1.6666666666666667" />
<circle cx="715.64" cy="509.93" r="1.6666666666666667" />
<circle cx="715.89" cy="509.97" r="1.6666666666666667" />
<circle cx="717.20" cy="509.99" r="1.6666666666666667" />
<circle cx="717.20" cy="507.15" r="1.6666666666666667" />
<circle cx="717.21" cy="504.70" r="1.6666666666666667" />
<circle cx="717.21" cy="502.36" r="1.6666666666666667" />
<circle cx="717.21" cy="499.09" r="1.6666666666666667" />
<circle cx="717.21" cy="490.91" r="1.6666666666666667" />
<circle cx="717.21" cy="493.40" r="1.6666666666666667" />
<circle cx="717.21" cy="495.86" r="1.6666666666666667" />
<circle cx="717.21" cy="498.77" r="1.6666666666666667" />
<circle cx="717.21" cy="498.43" r="1.6666666666666667" />
<circle cx="717.21" cy="482.73" r="1.6666666666666667" />
<circle cx="717.21" cy="487.54" r="1.6666666666666667" />
<circle cx="717.21" cy="482.73" r="1.6666666666666667" />
<circle cx="717.21" cy="490.91" r="1.6666666666666667" />
<circle cx="717.21" cy="487.54" r="1.6666666666666667" />
<circle cx="717.21" cy="490.91" r="1.6666666666666667" />
<circle cx="717.21" cy="491.82" r="1.6666666666666667" />
<circle cx="717.21" cy="492.64" r="1.6666666666666667" />
<circle cx="717.21" cy="488.79" r="1.6666666666666667" />
<circle cx="717.21" cy="491.82" r="1.6666666666666667" />
<circle cx="717.21" cy="495.31" r="1.6666666666666667" />
<circle cx="717.22" cy="498.77" r="1.6666666666666667" />
<circle cx="717.22" cy="500.69" r="1.6666666666666667" />
<circle cx="717.22" cy="504.77" r="1.6666666666666667" />
<circle cx="717.22" cy="503.06" r="1.6666666666666667" />
<circle cx="717.22" cy="491.82" r="1.6666666666666667" />
<circle cx="717.22" cy="492.64" r="1.6666666666666667" />
<circle cx="717.22" cy="493.40" r="1.6666666666666667" />
<circle cx="717.22" cy="488.79" r="1.6666666666666667" />
<circle cx="717.22" cy="490.91" r="1.6666666666666667" />
<circle cx="717.22" cy="494.73" r="1.6666666666666667" />
<circle cx="717.22" cy="499.09" r="1.6666666666666667" />
<circle cx="717.22" cy="503.94" r="1.6666666666666667" />
<circle cx="717.23" cy="505.98" r="1.6666666666666667" />
<circle cx="717.53" cy="509.97" r="1.6666666666666667" />
<circle cx="717.56" cy="509.75" r="1.6666666666666667" />
<circle cx="717.56" cy="508.08" r="1.6666666666666667" />
<circle cx="717.57" cy="508.77" r="1.6666666666666667" />
<circle cx="717.57" cy="506.22" r="1.6666666666666667" />
<circle cx="717.57" cy="503.06" r="1.6666666666666667" />
<circle cx="717.57" cy="505.76" r="1.6666666666666667" />
<circle cx="717.57" cy="502.05" r="1.6666666666666667" />
<circle cx="717.58" cy="506.56" r="1.6666666666666667" />
<circle cx="717.58" cy="506.10" r="1.6666666666666667" />
<circle cx="717.58" cy="505.34" r="1.6666666666666667" />
<circle cx="717.58" cy="500.21" r="1.6666666666666667" />
<circle cx="717.58" cy="498.77" r="1.6666666666666667" />
<circle cx="717.58" cy="490.91" r="1.6666666666666667" />
<circle cx="717.58" cy="480.63" r="1.6666666666666667" />
<circle cx="717.58" cy="484.55" r="1.6666666666666667" />
<circle cx="717.58" cy="482.73" r="1.6666666666666667" />
<circle cx="717.58" cy="484.55" r="1.6666666666666667" />
<circle cx="717.58" cy="487.54" r="1.6666666666666667" />
<circle cx="717.58" cy="503.74" r="1.6666666666666667" />
<circle cx="717.58" cy="499.09" r="1.6666666666666667" />
<circle cx="717.58" cy="489.90" r="1.6666666666666667" />
<circle cx="717.58" cy="486.14" r="1.6666666666666667" />
<circle cx="717.58" cy="489.90" r="1.6666666666666667" />
<circle cx="717.59" cy="494.09" r="1.6666666666666667" />
<circle cx="717.59" cy="498.07" r="1.6666666666666667" />
<circle cx="717.59" cy="501.70" r="1.6666666666666667" />
<circle cx="717.59" cy="502.51" r="1.6666666666666667" />
<circle cx="717.59" cy="494.09" r="1.6666666666666667" />
<circle cx="717.59" cy="495.31" r="1.6666666666666667" />
<circle cx="717.59" cy="495.86" r="1.6666666666666667" />
<circle cx="717.59" cy="493.40" r="1.6666666666666667" />
<circle cx="717.59" cy="498.77" r="1.6666666666666667" />
<circle cx="717.59" cy="493.40" r="1.6666666666666667" />
<circle cx="717.59" cy="489.90" r="1.6666666666666667" />
<circle cx="717.59" cy="500.21" r="1.6666666666666667" />
<circle cx="717.63" cy="509.77" r="1.6666666666666667" />
<circle cx="719.10" cy="509.99" r="1.6666666666666667" />
<circle cx="719.12" cy="509.71" r="1.6666666666666667" />
<circle cx="719.13" cy="509.24" r="1.6666666666666667" />
<circle cx="719.14" cy="507.90" r="1.6666666666666667" />
<circle cx="719.76" cy="509.99" r="1.6666666666666667" />
<circle cx="722.48" cy="500.21" r="1.6666666666666667" />
<circle cx="722.48" cy="495.86" r="1.6666666666666667" />
<circle cx="722.48" cy="499.95" r="1.6666666666666667" />
<circle cx="722.49" cy="508.13" r="1.6666666666666667" />
<circle cx="722.62" cy="509.94" r="1.6666666666666667" />
<circle cx="723.87" cy="509.99" r="1.6666666666666667" />
<circle cx="723.87" cy="505.76" r="1.6666666666666667" />
<circle cx="723.87" cy="504.84" r="1.6666666666666667" />
<circle cx="723.88" cy="508.19" r="1.6666666666666667" />
<circle cx="723.98" cy="509.93" r="1.6666666666666667" />
<circle cx="723.98" cy="487.54" r="1.6666666666666667" />
<circle cx="723.98" cy="488.79" r="1.6666666666666667" />
<circle cx="723.98" cy="478.18" r="1.6666666666666667" />
<circle cx="723.98" cy="471.82" r="1.6666666666666667" />
<circle cx="723.98" cy="480.63" r="1.6666666666666667" />
<circle cx="723.98" cy="480.63" r="1.6666666666666667" />
<circle cx="723.98" cy="486.14" r="1.6666666666666667" />
<circle cx="723.98" cy="487.54" r="1.6666666666666667" />
<circle cx="723.98" cy="488.79" r="1.6666666666666667" />
<circle cx="723.98" cy="494.73" r="1.6666666666666667" />
<circle cx="723.98" cy="501.12" r="1.6666666666666667" />
<circle cx="723.99" cy="504.84" r="1.6666666666666667" />
<circle cx="723.99" cy="508.19" r="1.6666666666666667" />
<circle cx="724.04" cy="509.84" r="1.6666666666666667" />
<circle cx="724.04" cy="498.43" r="1.6666666666666667" />
<circle cx="724.04" cy="503.64" r="1.6666666666666667" />
<circle cx="724.04" cy="504.91" r="1.6666666666666667" />
<circle cx="724.06" cy="509.60" r="1.6666666666666667" />
<circle cx="724.06" cy="505.85" r="1.6666666666666667" />
<circle cx="724.06" cy="498.77" r="1.6666666666666667" />
<circle cx="724.06" cy="490.91" r="1.6666666666666667" />
<circle cx="724.06" cy="488.79" r="1.6666666666666667" />
<circle cx="724.06" cy="491.82" r="1.6666666666666667" />
<circle cx="724.06" cy="495.86" r="1.6666666666666667" />
<circle cx="724.06" cy="501.32" r="1.6666666666666667" />
<circle cx="724.07" cy="506.68" r="1.6666666666666667" />
<circle cx="724.07" cy="500.91" r="1.6666666666666667" />
<circle cx="724.07" cy="494.73" r="1.6666666666666667" />
<circle cx="724.07" cy="493.40" r="1.6666666666666667" />
<circle cx="724.07" cy="496.36" r="1.6666666666666667" />
<circle cx="724.07" cy="498.77" r="1.6666666666666667" />
<circle cx="724.07" cy="498.43" r="1.6666666666666667" />
<circle cx="724.07" cy="496.83" r="1.6666666666666667" />
<circle cx="724.07" cy="497.68" r="1.6666666666666667" />
<circle cx="724.07" cy="496.36" r="1.6666666666666667" />
<circle cx="724.07" cy="499.39" r="1.6666666666666667" />
<circle cx="724.07" cy="502.51" r="1.6666666666666667" />
<circle cx="724.07" cy="498.07" r="1.6666666666666667" />
<circle cx="724.07" cy="495.31" r="1.6666666666666667" />
<circle cx="724.07" cy="492.64" r="1.6666666666666667" />
<circle cx="724.07" cy="491.82" r="1.6666666666666667" />
<circle cx="724.07" cy="493.40" r="1.6666666666666667" />
<circle cx="724.08" cy="495.31" r="1.6666666666666667" />
<circle cx="724.08" cy="497.68" r="1.6666666666666667" />
<circle cx="724.08" cy="500.21" r="1.6666666666666667" />
<circle cx="724.08" cy="500.69" r="1.6666666666666667" />
<circle cx="724.08" cy="501.70" r="1.6666666666666667" />
<circle cx="724.08" cy="501.32" r="1.6666666666666667" />
<circle cx="724.08" cy="498.77" r="1.6666666666666667" />
<circle cx="724.08" cy="500.21" r="1.6666666666666667" />
<circle cx="724.08" cy="502.51" r="1.6666666666666667" />
<circle cx="724.08" cy="506.18" r="1.6666666666666667" />
<circle cx="724.61" cy="509.99" r="1.6666666666666667" />
</g>
<g stroke="black">
<line x1="813.75" x2="813.75" y1="510.00" y2="520.00" />
<line x1="760.60" x2="760.60" y1="510.00" y2="520.00" />
<line x1="707.45" x2="707.45" y1="510.00" y2="520.00" />
<line x1="656.01" x2="656.01" y1="510.00" y2="520.00" />
<line x1="602.86" x2="602.86" y1="510.00" y2="520.00" />
<line x1="551.42" x2="551.42" y1="510.00" y2="520.00" />
<line x1="498.27" x2="498.27" y1="510.00" y2="520.00" />
<line x1="445.11" x2="445.11" y1="510.00" y2="520.00" />
<line x1="393.68" x2="393.68" y1="510.00" y2="520.00" />
<line x1="340.52" x2="340.52" y1="510.00" y2="520.00" />
<line x1="289.09" x2="289.09" y1="510.00" y2="520.00" />
<line x1="235.93" x2="235.93" y1="510.00" y2="520.00" />
<line x1="187.92" x2="187.92" y1="510.00" y2="520.00" />
<g fill="black" font-family="Arial, sans-serif" font-size="18.0" stroke="none" text-anchor="start" transform="translate(9.0 0.0)">
<text x="813.75" y="530.57">Feb</text>
<text x="760.60" y="530.57">Jan</text>
<text x="707.45" y="530.57">Dec</text>
<text x="656.01" y="530.57">Nov</text>
<text x="602.86" y="530.57">Oct</text>
<text x="551.42" y="530.57">Sep</text>
<text x="498.27" y="530.57">Aug</text>
<text x="445.11" y="530.57">Jul</text>
<text x="393.68" y="530.57">Jun</text>
<text x="340.52" y="530.57">May</text>
<text x="289.09" y="530.57">Apr</text>
<text x="235.93" y="530.57">Mar</text>
<text x="187.92" y="530.57">Feb</text>
</g>
<line x1="150.00" x2="850.00" y1="510.00" y2="510.00" />
</g>
<g stroke="black">
<line x1="150.00" x2="140.00" y1="510.00" y2="510.00" />
<line x1="150.00" x2="140.00" y1="465.81" y2="465.81" />
<line x1="150.00" x2="140.00" y1="421.62" y2="421.62" />
<line x1="150.00" x2="140.00" y1="377.42" y2="377.42" />
<line x1="150.00" x2="140.00" y1="333.23" y2="333.23" />
<line x1="150.00" x2="140.00" y1="289.04" y2="289.04" />
<line x1="150.00" x2="140.00" y1="244.85" y2="244.85" />
<line x1="150.00" x2="140.00" y1="200.66" y2="200.66" />
<line x1="150.00" x2="140.00" y1="156.46" y2="156.46" />
<line x1="150.00" x2="140.00" y1="112.27" y2="112.27" />
<g fill="black" font-family="Arial, sans-serif" font-size="18.0" stroke="none" text-anchor="end">
<text x="141.00" y="501.00">0</text>
<text x="141.00" y="456.81">10000</text>
<text x="141.00" y="412.62">20000</text>
<text x="141.00" y="368.42">30000</text>
<text x="141.00" y="324.23">40000</text>
<text x="141.00" y="280.04">50000</text>
<text x="141.00" y="235.85">60000</text>
<text x="141.00" y="191.66">70000</text>
<text x="141.00" y="147.46">80000</text>
<text x="141.00" y="103.27">90000</text>
</g>
<line x1="150.00" x2="150.00" y1="510.00" y2="90.00" />
</g>
</g>
</svg>