<?xml version="1.0"?>
<svg version="1.1" viewBox="0 0 1000 600" xmlns:xlink="http://www.w3.org/1999/xlink" xmlns="http://www.w3.org/2000/svg">
<g>
<g stroke-dasharray="3.6 7.2" stroke-width="0.72" stroke="#caa">
<line x1="828.41" x2="828.41" y1="510.00" y2="90.00" />
<line x1="785.75" x2="785.75" y1="510.00" y2="90.00" />
<line x1="741.68" x2="741.68" y1="510.00" y2="90.00" />
<line x1="700.44" x2="700.44" y1="510.00" y2="90.00" />
<line x1="656.36" x2="656.36" y1="510.00" y2="90.00" />
<line x1="612.28" x2="612.28" y1="510.00" y2="90.00" />
<line x1="569.63" x2="569.63" y1="510.00" y2="90.00" />
<line x1="525.55" x2="525.55" y1="510.00" y2="90.00" />
<line x1="482.89" x2="482.89" y1="510.00" y2="90.00" />
<line x1="438.81" x2="438.81" y1="510.00" y2="90.00" />
<line x1="394.73" x2="394.73" y1="510.00" y2="90.00" />
<line x1="352.08" x2="352.08" y1="510.00" y2="90.00" />
<line x1="308.00" x2="308.00" y1="510.00" y2="90.00" />
<line x1="265.34" x2="265.34" y1="510.00" y2="90.00" />
<line x1="221.26" x2="221.26" y1="510.00" y2="90.00" />
<line x1="181.45" x2="181.45" y1="510.00" y2="90.00" />
<line x1="150.00" x2="850.00" y1="510.00" y2="510.00" />
<line x1="150.00" x2="850.00" y1="216.29" y2="216.29" />
</g>
<g>
<text dominant-baseline="hanging" dx="-36.0" dy="18.0" fill="#0004" font-family="Arial, sans-serif" font-size="36" stroke="none" text-anchor="end" x="850.00" y="128.18">R15</text>
</g>
<g>
<text dominant-baseline="text-bottom" dy="-12.0" fill="black" font-family="Arial, sans-serif" font-size="18.0" font-style="italic" stroke="none" text-anchor="middle" x="500.00" y="90.00">Years 2023 to 2024</text>
</g>
<g>
<text dominant-baseline="hanging" dx="18.0" dy="18.0" fill="black" font-family="Arial, sans-serif" font-size="18.0" font-style="italic" stroke="none" text-anchor="beginning" text-orientation="sideways" x="150.00" y="90.00">log(Drips per day)</text>
</g>
<polyline fill="none" points="599.08,176.15 599.09,280.57 599.09,176.15 603.31,331.17 603.31,332.35 603.31,326.82 603.32,333.34 603.32,354.45 603.33,350.39 603.33,341.96 603.34,335.23 603.34,324.28 603.34,312.28 603.34,317.49 603.35,326.47 603.35,330.41 603.35,331.02 603.36,346.74 603.39,394.38 603.49,432.87 604.64,503.72 604.64,280.57 604.64,270.69 604.64,268.24 604.64,283.75 604.64,296.41 604.64,298.30 604.64,288.60 604.64,282.21 604.64,278.85 604.64,278.85 604.64,272.95 604.64,269.49 604.65,276.05 604.65,295.91 604.65,303.35 604.65,298.76 604.65,298.76 604.65,310.51 604.65,306.98 604.65,313.40 604.66,347.87 604.67,368.73 605.24,483.06 605.25,367.10 605.26,358.80 605.27,353.21 605.27,348.95 605.28,345.20 605.30,388.96 605.70,472.50 605.77,423.21 605.78,352.49 605.78,348.78 605.79,350.70 605.80,349.03 605.80,348.03 605.81,341.96 605.81,345.66 605.82,360.17 605.83,371.36 605.85,375.97 605.86,371.96 605.87,365.97 605.88,367.32 605.89,359.60 605.90,365.65 605.93,393.28 605.96,395.46 606.06,431.69 606.09,401.24 606.13,404.52 606.14,376.49 606.16,367.62 606.17,368.05 606.18,366.47 606.19,377.38 606.20,351.31 606.21,346.56 606.21,354.72 606.22,367.05 606.29,420.43 606.30,373.21 606.32,382.52 606.35,389.54 607.11,491.59 607.17,419.32 607.30,440.06 607.30,322.92 607.31,305.58 607.32,379.85 607.32,300.93 607.32,275.05 607.32,268.24 607.33,279.72 607.33,344.54 607.33,335.10 607.34,336.63 607.37,400.74 607.38,326.99 607.38,317.25 607.38,325.21 607.38,325.21 607.39,331.91 607.39,331.47 607.39,331.91 607.40,334.16 607.40,340.47 607.41,349.99 607.41,342.48 607.42,347.44 607.42,347.52 607.44,375.55 607.47,397.44 607.47,316.76 607.47,304.49 607.47,296.89 607.47,287.96 607.47,293.85 607.47,294.38 607.48,285.93 607.48,284.50 607.48,298.30 607.48,320.22 607.48,340.36 607.49,347.78 607.49,339.81 607.50,356.17 607.52,376.78 607.53,374.16 607.54,343.68 607.54,342.07 607.55,357.05 607.57,382.18 607.59,386.92 607.62,395.32 607.64,389.46 607.65,373.35 607.68,390.09 607.71,396.85 607.72,362.68 607.72,349.44 607.73,353.06 607.74,366.38 608.48,490.63 613.32,297.37 613.32,283.75 613.32,283.75 613.32,277.01 613.32,266.94 613.32,274.02 613.32,331.62 613.38,418.39 613.39,269.49 613.39,264.14 613.39,274.02 613.39,262.63 613.39,265.57 613.39,266.94 613.39,253.66 613.39,255.69 613.39,259.36 613.39,262.63 613.39,270.69 613.39,288.60 613.39,317.96 613.41,387.37 613.44,388.18 614.04,484.66 614.68,486.81 614.68,281.40 614.68,253.66 614.68,253.66 614.68,246.58 614.68,243.78 614.68,251.49 614.68,253.66 614.68,246.58 614.68,243.78 614.68,246.58 614.68,253.66 614.68,255.69 614.68,259.36 614.68,261.04 614.68,265.57 614.69,298.76 614.69,332.35 614.69,296.89 614.69,301.76 614.69,277.01 614.69,272.95 614.69,266.94 614.69,262.63 614.69,262.63 614.69,259.36 614.69,255.69 614.69,257.58 614.69,269.49 614.70,359.94 614.71,357.23 614.71,316.02 614.71,280.57 614.71,293.85 614.72,283.75 614.72,240.69 614.72,223.42 614.72,233.30 614.72,233.30 614.72,223.42 614.72,228.78 614.72,228.78 614.72,243.78 614.72,251.49 614.72,246.58 614.72,243.78 614.72,246.58 614.72,243.78 614.72,249.13 614.72,253.66 614.72,251.49 614.72,237.23 614.72,240.69 614.72,243.78 614.72,240.69 614.72,233.30 614.72,246.58 614.72,251.49 614.72,261.04 614.72,265.57 614.72,269.49 614.72,259.36 614.72,255.69 614.72,305.22 614.73,350.07 614.73,350.15 614.74,302.56 614.74,301.76 614.74,292.20 614.74,301.76 614.74,310.51 614.74,332.06 614.75,325.58 614.76,372.81 614.78,379.88 614.79,368.56 614.83,406.91 615.42,483.99 615.68,460.44 616.23,482.23 616.24,361.69 618.99,340.14 619.07,427.72 619.28,453.46 620.37,502.21 620.37,320.00 620.38,301.76 620.38,291.05 620.38,280.57 620.38,264.14 620.38,268.24 620.38,272.95 620.38,279.72 620.38,278.85 620.38,253.66 620.38,259.36 620.38,253.66 620.38,264.14 620.38,259.36 620.38,264.14 620.38,265.57 620.38,266.94 620.38,261.04 620.38,265.57 620.38,271.84 620.38,279.72 620.38,285.22 620.38,302.17 620.39,293.85 620.39,265.57 620.39,266.94 620.39,268.24 620.39,261.04 620.39,264.14 620.39,270.69 620.39,280.57 620.39,297.84 620.39,309.90 620.64,458.97 620.67,391.37 620.67,331.62 620.67,344.64 620.68,311.70 620.68,293.85 620.68,308.31 620.68,289.85 620.68,314.47 620.68,310.81 620.68,305.58 620.68,283.75 620.69,279.72 620.69,264.14 620.69,251.49 620.69,255.69 620.69,253.66 620.69,255.69 620.69,259.36 620.69,296.89 620.69,280.57 620.69,262.63 620.69,257.58 620.69,262.63 620.69,269.49 620.69,277.94 620.69,288.60 620.69,291.63 620.69,269.49 620.69,271.84 620.69,272.95 620.69,268.24 620.69,279.72 620.69,268.24 620.69,262.63 620.70,283.75 620.72,394.29 621.94,505.49 621.96,387.41 621.97,358.80 621.98,329.00 622.49,480.11 624.75,283.75 624.75,272.95 624.75,282.99 624.75,332.35 624.86,434.99 625.90,500.71 625.90,308.31 625.90,302.56 625.91,333.34 625.99,427.67 625.99,259.36 625.99,261.04 625.99,249.13 625.99,243.78 625.99,251.49 625.99,251.49 625.99,257.58 625.99,259.36 625.99,261.04 626.00,270.69 626.00,286.62 626.00,302.56 626.00,333.34 626.04,403.79 626.04,278.85 626.04,296.41 626.04,302.96 626.06,377.44 626.06,308.96 626.06,279.72 626.06,264.14 626.06,261.04 626.06,265.57 626.06,272.95 626.06,287.30 626.06,315.51 626.06,285.93 626.06,270.69 626.06,268.24 626.07,274.02 626.07,279.72 626.07,278.85 626.07,275.05 626.07,277.01 626.07,274.02 626.07,281.40 626.07,291.63 626.07,277.94 626.07,271.84 626.07,266.94 626.07,265.57 626.07,268.24 626.07,271.84 626.07,277.01 626.07,283.75 626.07,285.22 626.07,288.60 626.08,287.30 626.08,279.72 626.08,283.75 626.08,291.63 626.08,311.41 626.52,475.31" stroke-dasharray="3.6 3.6" stroke-width="3.6" stroke="#aaa" />
<g>
<circle cx="599.08" cy="176.15" r="1.6666666666666667" />
<circle cx="599.09" cy="280.57" r="1.6666666666666667" />
<circle cx="599.09" cy="176.15" r="1.6666666666666667" />
<circle cx="603.31" cy="331.17" r="1.6666666666666667" />
<circle cx="603.31" cy="332.35" r="1.6666666666666667" />
<circle cx="603.31" cy="326.82" r="1.6666666666666667" />
<circle cx="603.32" cy="333.34" r="1.6666666666666667" />
<circle cx="603.32" cy="354.45" r="1.6666666666666667" />
<circle cx="603.33" cy="350.39" r="1.6666666666666667" />
<circle cx="603.33" cy="341.96" r="1.6666666666666667" />
<circle cx="603.34" cy="335.23" r="1.6666666666666667" />
<circle cx="603.34" cy="324.28" r="1.6666666666666667" />
<circle cx="603.34" cy="312.28" r="1.6666666666666667" />
<circle cx="603.34" cy="317.49" r="1.6666666666666667" />
<circle cx="603.35" cy="326.47" r="1.6666666666666667" />
<circle cx="603.35" cy="330.41" r="1.6666666666666667" />
<circle cx="603.35" cy="331.02" r="1.6666666666666667" />
<circle cx="603.36" cy="346.74" r="1.6666666666666667" />
<circle cx="603.39" cy="394.38" r="1.6666666666666667" />
<circle cx="603.49" cy="432.87" r="1.6666666666666667" />
<circle cx="604.64" cy="503.72" r="1.6666666666666667" />
<circle cx="604.64" cy="280.57" r="1.6666666666666667" />
<circle cx="604.64" cy="270.69" r="1.6666666666666667" />
<circle cx="604.64" cy="268.24" r="1.6666666666666667" />
<circle cx="604.64" cy="283.75" r="1.6666666666666667" />
<circle cx="604.64" cy="296.41" r="1.6666666666666667" />
<circle cx="604.64" cy="298.30" r="1.6666666666666667" />
<circle cx="604.64" cy="288.60" r="1.6666666666666667" />
<circle cx="604.64" cy="282.21" r="1.6666666666666667" />
<circle cx="604.64" cy="278.85" r="1.6666666666666667" />
<circle cx="604.64" cy="278.85" r="1.6666666666666667" />
<circle cx="604.64" cy="272.95" r="1.6666666666666667" />
<circle cx="604.64" cy="269.49" r="1.6666666666666667" />
<circle cx="604.65" cy="276.05" r="1.6666666666666667" />
<circle cx="604.65" cy="295.91" r="1.6666666666666667" />
<circle cx="604.65" cy="303.35" r="1.6666666666666667" />
<circle cx="604.65" cy="298.76" r="1.6666666666666667" />
<circle cx="604.65" cy="298.76" r="1.6666666666666667" />
<circle cx="604.65" cy="310.51" r="1.6666666666666667" />
<circle cx="604.65" cy="306.98" r="1.6666666666666667" />
<circle cx="604.65" cy="313.40" r="1.6666666666666667" />
<circle cx="604.66" cy="347.87" r="1.6666666666666667" />
<circle cx="604.67" cy="368.73" r="1.6666666666666667" />
<circle cx="605.24" cy="483.06" r="1.6666666666666667" />
<circle cx="605.25" cy="367.10" r="1.6666666666666667" />
<circle cx="605.26" cy="358.80" r="1.6666666666666667" />
<circle cx="605.27" cy="353.21" r="1.6666666666666667" />
<circle cx="605.27" cy="348.95" r="1.6666666666666667" />
<circle cx="605.28" cy="345.20" r="1.6666666666666667" />
<circle cx="605.30" cy="388.96" r="1.6666666666666667" />
<circle cx="605.70" cy="472.50" r="1.6666666666666667" />
<circle cx="605.77" cy="423.21" r="1.6666666666666667" />
<circle cx="605.78" cy="352.49" r="1.6666666666666667" />
<circle cx="605.78" cy="348.78" r="1.6666666666666667" />
<circle cx="605.79" cy="350.70" r="1.6666666666666667" />
<circle cx="605.80" cy="349.03" r="1.6666666666666667" />
<circle cx="605.80" cy="348.03" r="1.6666666666666667" />
<circle cx="605.81" cy="341.96" r="1.6666666666666667" />
<circle cx="605.81" cy="345.66" r="1.6666666666666667" />
<circle cx="605.82" cy="360.17" r="1.6666666666666667" />
<circle cx="605.83" cy="371.36" r="1.6666666666666667" />
<circle cx="605.85" cy="375.97" r="1.6666666666666667" />
<circle cx="605.86" cy="371.96" r="1.6666666666666667" />
<circle cx="605.87" cy="365.97" r="1.6666666666666667" />
<circle cx="605.88" cy="367.32" r="1.6666666666666667" />
<circle cx="605.89" cy="359.60" r="1.6666666666666667" />
<circle cx="605.90" cy="365.65" r="1.6666666666666667" />
<circle cx="605.93" cy="393.28" r="1.6666666666666667" />
<circle cx="605.96" cy="395.46" r="1.6666666666666667" />
<circle cx="606.06" cy="431.69" r="1.6666666666666667" />
<circle cx="606.09" cy="401.24" r="1.6666666666666667" />
<circle cx="606.13" cy="404.52" r="1.6666666666666667" />
<circle cx="606.14" cy="376.49" r="1.6666666666666667" />
<circle cx="606.16" cy="367.62" r="1.6666666666666667" />
<circle cx="606.17" cy="368.05" r="1.6666666666666667" />
<circle cx="606.18" cy="366.47" r="1.6666666666666667" />
<circle cx="606.19" cy="377.38" r="1.6666666666666667" />
<circle cx="606.20" cy="351.31" r="1.6666666666666667" />
<circle cx="606.21" cy="346.56" r="1.6666666666666667" />
<circle cx="606.21" cy="354.72" r="1.6666666666666667" />
<circle cx="606.22" cy="367.05" r="1.6666666666666667" />
<circle cx="606.29" cy="420.43" r="1.6666666666666667" />
<circle cx="606.30" cy="373.21" r="1.6666666666666667" />
<circle cx="606.32" cy="382.52" r="1.6666666666666667" />
<circle cx="606.35" cy="389.54" r="1.6666666666666667" />
<circle cx="607.11" cy="491.59" r="1.6666666666666667" />
<circle cx="607.17" cy="419.32" r="1.6666666666666667" />
<circle cx="607.30" cy="440.06" r="1.6666666666666667" />
<circle cx="607.30" cy="322.92" r="1.6666666666666667" />
<circle cx="607.31" cy="305.58" r="1.6666666666666667" />
<circle cx="607.32" cy="379.85" r="1.6666666666666667" />
<circle cx="607.32" cy="300.93" r="1.6666666666666667" />
<circle cx="607.32" cy="275.05" r="1.6666666666666667" />
<circle cx="607.32" cy="268.24" r="1.6666666666666667" />
<circle cx="607.33" cy="279.72" r="1.6666666666666667" />
<circle cx="607.33" cy="344.54" r="1.6666666666666667" />
<circle cx="607.33" cy="335.10" r="1.6666666666666667" />
<circle cx="607.34" cy="336.63" r="1.6666666666666667" />
<circle cx="607.37" cy="400.74" r="1.6666666666666667" />
<circle cx="607.38" cy="326.99" r="1.6666666666666667" />
<circle cx="607.38" cy="317.25" r="1.6666666666666667" />
<circle cx="607.38" cy="325.21" r="1.6666666666666667" />
<circle cx="607.38" cy="325.21" r="1.6666666666666667" />
<circle cx="607.39" cy="331.91" r="1.6666666666666667" />
<circle cx="607.39" cy="331.47" r="1.6666666666666667" />
<circle cx="607.39" cy="331.91" r="1.6666666666666667" />
<circle cx="607.40" cy="334.16" r="1.6666666666666667" />
<circle cx="607.40" cy="340.47" r="1.6666666666666667" />
<circle cx="607.41" cy="349.99" r="1.6666666666666667" />
<circle cx="607.41" cy="342.48" r="1.6666666666666667" />
<circle cx="607.42" cy="347.44" r="1.6666666666666667" />
<circle cx="607.42" cy="347.52" r="1.6666666666666667" />
<circle cx="607.44" cy="375.55" r="1.6666666666666667" />
<circle cx="607.47" cy="397.44" r="1.6666666666666667" />
<circle cx="607.47" cy="316.76" r="1.6666666666666667" />
<circle cx="607.47" cy="304.49" r="1.6666666666666667" />
<circle cx="607.47" cy="296.89" r="1.6666666666666667" />
<circle cx="607.47" cy="287.96" r="1.6666666666666667" />
<circle cx="607.47" cy="293.85" r="1.6666666666666667" />
<circle cx="607.47" cy="294.38" r="1.6666666666666667" />
<circle cx="607.48" cy="285.93" r="1.6666666666666667" />
<circle cx="607.48" cy="284.50" r="1.6666666666666667" />
<circle cx="607.48" cy="298.30" r="1.6666666666666667" />
<circle cx="607.48" cy="320.22" r="1.6666666666666667" />
<circle cx="607.48" cy="340.36" r="1.6666666666666667" />
<circle cx="607.49" cy="347.78" r="1.6666666666666667" />
<circle cx="607.49" cy="339.81" r="1.6666666666666667" />
<circle cx="607.50" cy="356.17" r="1.6666666666666667" />
<circle cx="607.52" cy="376.78" r="1.6666666666666667" />
<circle cx="607.53" cy="374.16" r="1.6666666666666667" />
<circle cx="607.54" cy="343.68" r="1.6666666666666667" />
<circle cx="607.54" cy="342.07" r="1.6666666666666667" />
<circle cx="607.55" cy="357.05" r="1.6666666666666667" />
<circle cx="607.57" cy="382.18" r="1.6666666666666667" />
<circle cx="607.59" cy="386.92" r="1.6666666666666667" />
<circle cx="607.62" cy="395.32" r="1.6666666666666667" />
<circle cx="607.64" cy="389.46" r="1.6666666666666667" />
<circle cx="607.65" cy="373.35" r="1.6666666666666667" />
<circle cx="607.68" cy="390.09" r="1.6666666666666667" />
<circle cx="607.71" cy="396.85" r="1.6666666666666667" />
<circle cx="607.72" cy="362.68" r="1.6666666666666667" />
<circle cx="607.72" cy="349.44" r="1.6666666666666667" />
<circle cx="607.73" cy="353.06" r="1.6666666666666667" />
<circle cx="607.74" cy="366.38" r="1.6666666666666667" />
<circle cx="608.48" cy="490.63" r="1.6666666666666667" />
<circle cx="613.32" cy="297.37" r="1.6666666666666667" />
<circle cx="613.32" cy="283.75" r="1.6666666666666667" />
<circle cx="613.32" cy="283.75" r="1.6666666666666667" />
<circle cx="613.32" cy="277.01" r="1.6666666666666667" />
<circle cx="613.32" cy="266.94" r="1.6666666666666667" />
<circle cx="613.32" cy="274.02" r="1.6666666666666667" />
<circle cx="613.32" cy="331.62" r="1.6666666666666667" />
<circle cx="613.38" cy="418.39" r="1.6666666666666667" />
<circle cx="613.39" cy="269.49" r="1.6666666666666667" />
<circle cx="613.39" cy="264.14" r="1.6666666666666667" />
<circle cx="613.39" cy="274.02" r="1.6666666666666667" />
<circle cx="613.39" cy="262.63" r="1.6666666666666667" />
<circle cx="613.39" cy="265.57" r="1.6666666666666667" />
<circle cx="613.39" cy="266.94" r="1.6666666666666667" />
<circle cx="613.39" cy="253.66" r="1.6666666666666667" />
<circle cx="613.39" cy="255.69" r="1.6666666666666667" />
<circle cx="613.39" cy="259.36" r="1.6666666666666667" />
<circle cx="613.39" cy="262.63" r="1.6666666666666667" />
<circle cx="613.39" cy="270.69" r="1.6666666666666667" />
<circle cx="613.39" cy="288.60" r="1.6666666666666667" />
<circle cx="613.39" cy="317.96" r="1.6666666666666667" />
<circle cx="613.41" cy="387.37" r="1.6666666666666667" />
<circle cx="613.44" cy="388.18" r="1.6666666666666667" />
<circle cx="614.04" cy="484.66" r="1.6666666666666667" />
<circle cx="614.68" cy="486.81" r="1.6666666666666667" />
<circle cx="614.68" cy="281.40" r="1.6666666666666667" />
<circle cx="614.68" cy="253.66" r="1.6666666666666667" />
<circle cx="614.68" cy="253.66" r="1.6666666666666667" />
<circle cx="614.68" cy="246.58" r="1.6666666666666667" />
<circle cx="614.68" cy="243.78" r="1.6666666666666667" />
<circle cx="614.68" cy="251.49" r="1.6666666666666667" />
<circle cx="614.68" cy="253.66" r="1.6666666666666667" />
<circle cx="614.68" cy="246.58" r="1.6666666666666667" />
<circle cx="614.68" cy="243.78" r="1.6666666666666667" />
<circle cx="614.68" cy="246.58" r="1.6666666666666667" />
<circle cx="614.68" cy="253.66" r="1.6666666666666667" />
<circle cx="614.68" cy="255.69" r="1.6666666666666667" />
<circle cx="614.68" cy="259.36" r="1.6666666666666667" />
<circle cx="614.68" cy="261.04" r="1.6666666666666667" />
<circle cx="614.68" cy="265.57" r="1.6666666666666667" />
<circle cx="614.69" cy="298.76" r="1.6666666666666667" />
<circle cx="614.69" cy="332.35" r="1.6666666666666667" />
<circle cx="614.69" cy="296.89" r="1.6666666666666667" />
<circle cx="614.69" cy="301.76" r="1.6666666666666667" />
<circle cx="614.69" cy="277.01" r="1.6666666666666667" />
<circle cx="614.69" cy="272.95" r="1.6666666666666667" />
<circle cx="614.69" cy="266.94" r="1.6666666666666667" />
<circle cx="614.69" cy="262.63" r="1.6666666666666667" />
<circle cx="614.69" cy="262.63" r="1.6666666666666667" />
<circle cx="614.69" cy="259.36" r="1.6666666666666667" />
<circle cx="614.69" cy="255.69" r="1.6666666666666667" />
<circle cx="614.69" cy="257.58" r="1.6666666666666667" />
<circle cx="614.69" cy="269.49" r="1.6666666666666667" />
<circle cx="614.70" cy="359.94" r="1.6666666666666667" />
<circle cx="614.71" cy="357.23" r="1.6666666666666667" />
<circle cx="614.71" cy="316.02" r="1.6666666666666667" />
<circle cx="614.71" cy="280.57" r="1.6666666666666667" />
<circle cx="614.71" cy="293.85" r="1.6666666666666667" />
<circle cx="614.72" cy="283.75" r="1.6666666666666667" />
<circle cx="614.72" cy="240.69" r="1.6666666666666667" />
<circle cx="614.72" cy="223.42" r="1.6666666666666667" />
<circle cx="614.72" cy="233.30" r="1.6666666666666667" />
<circle cx="614.72" cy="233.30" r="1.6666666666666667" />
<circle cx="614.72" cy="223.42" r="1.6666666666666667" />
<circle cx="614.72" cy="228.78" r="1.6666666666666667" />
<circle cx="614.72" cy="228.78" r="1.6666666666666667" />
<circle cx="614.72" cy="243.78" r="1.6666666666666667" />
<circle cx="614.72" cy="251.49" r="1.6666666666666667" />
<circle cx="614.72" cy="246.58" r="1.6666666666666667" />
<circle cx="614.72" cy="243.78" r="1.6666666666666667" />
<circle cx="614.72" cy="246.58" r="1.6666666666666667" />
<circle cx="614.72" cy="243.78" r="1.6666666666666667" />
<circle cx="614.72" cy="249.13" r="1.6666666666666667" />
<circle cx="614.72" cy="253.66" r="1.6666666666666667" />
<circle cx="614.72" cy="251.49" r="1.6666666666666667" />
<circle cx="614.72" cy="237.23" r="1.6666666666666667" />
<circle cx="614.72" cy="240.69" r="1.6666666666666667" />
<circle cx="614.72" cy="243.78" r="1.6666666666666667" />
<circle cx="614.72" cy="240.69" r="1.6666666666666667" />
<circle cx="614.72" cy="233.30" r="1.6666666666666667" />
<circle cx="614.72" cy="246.58" r="1.6666666666666667" />
<circle cx="614.72" cy="251.49" r="1.6666666666666667" />
<circle cx="614.72" cy="261.04" r="1.6666666666666667" />
<circle cx="614.72" cy="265.57" r="1.6666666666666667" />
<circle cx="614.72" cy="269.49" r="1.6666666666666667" />
<circle cx="614.72" cy="259.36" r="1.6666666666666667" />
<circle cx="614.72" cy="255.69" r="1.6666666666666667" />
<circle cx="614.72" cy="305.22" r="1.6666666666666667" />
<circle cx="614.73" cy="350.07" r="1.6666666666666667" />
<circle cx="614.73" cy="350.15" r="1.6666666666666667" />
<circle cx="614.74" cy="302.56" r="1.6666666666666667" />
<circle cx="614.74" cy="301.76" r="1.6666666666666667" />
<circle cx="614.74" cy="292.20" r="1.6666666666666667" />
<circle cx="614.74" cy="301.76" r="1.6666666666666667" />
<circle cx="614.74" cy="310.51" r="1.6666666666666667" />
<circle cx="614.74" cy="332.06" r="1.6666666666666667" />
<circle cx="614.75" cy="325.58" r="1.6666666666666667" />
<circle cx="614.76" cy="372.81" r="1.6666666666666667" />
<circle cx="614.78" cy="379.88" r="1.6666666666666667" />
<circle cx="614.79" cy="368.56" r="1.6666666666666667" />
<circle cx="614.83" cy="406.91" r="1.6666666666666667" />
<circle cx="615.42" cy="483.99" r="1.6666666666666667" />
<circle cx="615.68" cy="460.44" r="1.6666666666666667" />
<circle cx="616.23" cy="482.23" r="1.6666666666666667" />
<circle cx="616.24" cy="361.69" r="1.6666666666666667" />
<circle cx="618.99" cy="340.14" r="1.6666666666666667" />
<circle cx="619.07" cy="427.72" r="1.6666666666666667" />
<circle cx="619.28" cy="453.46" r="1.6666666666666667" />
<circle cx="620.37" cy="502.21" r="1.6666666666666667" />
<circle cx="620.37" cy="320.00" r="1.6666666666666667" />
<circle cx="620.38" cy="301.76" r="1.6666666666666667" />
<circle cx="620.38" cy="291.05" r="1.6666666666666667" />
<circle cx="620.38" cy="280.57" r="1.6666666666666667" />
<circle cx="620.38" cy="264.14" r="1.6666666666666667" />
<circle cx="620.38" cy="268.24" r="1.6666666666666667" />
<circle cx="620.38" cy="272.95" r="1.6666666666666667" />
<circle cx="620.38" cy="279.72" r="1.6666666666666667" />
<circle cx="620.38" cy="278.85" r="1.6666666666666667" />
<circle cx="620.38" cy="253.66" r="1.6666666666666667" />
<circle cx="620.38" cy="259.36" r="1.6666666666666667" />
<circle cx="620.38" cy="253.66" r="1.6666666666666667" />
<circle cx="620.38" cy="264.14" r="1.6666666666666667" />
<circle cx="620.38" cy="259.36" r="1.6666666666666667" />
<circle cx="620.38" cy="264.14" r="1.6666666666666667" />
<circle cx="620.38" cy="265.57" r="1.6666666666666667" />
<circle cx="620.38" cy="266.94" r="1.6666666666666667" />
<circle cx="620.38" cy="261.04" r="1.6666666666666667" />
<circle cx="620.38" cy="265.57" r="1.6666666666666667" />
<circle cx="620.38" cy="271.84" r="1.6666666666666667" />
<circle cx="620.38" cy="279.72" r="1.6666666666666667" />
<circle cx="620.38" cy="285.22" r="1.6666666666666667" />
<circle cx="620.38" cy="302.17" r="1.6666666666666667" />
<circle cx="620.39" cy="293.85" r="1.6666666666666667" />
<circle cx="620.39" cy="265.57" r="1.6666666666666667" />
<circle cx="620.39" cy="266.94" r="1.6666666666666667" />
<circle cx="620.39" cy="268.24" r="1.6666666666666667" />
<circle cx="620.39" cy="261.04" r="1.6666666666666667" />
<circle cx="620.39" cy="264.14" r="1.6666666666666667" />
<circle cx="620.39" cy="270.69" r="1.6666666666666667" />
<circle cx="620.39" cy="280.57" r="1.6666666666666667" />
<circle cx="620.39" cy="297.84" r="1.6666666666666667" />
<circle cx="620.39" cy="309.90" r="1.6666666666666667" />
<circle cx="620.64" cy="458.97" r="1.6666666666666667" />
<circle cx="620.67" cy="391.37" r="1.6666666666666667" />
<circle cx="620.67" cy="331.62" r="1.6666666666666667" />
<circle cx="620.67" cy="344.64" r="1.6666666666666667" />
<circle cx="620.68" cy="311.70" r="1.6666666666666667" />
<circle cx="620.68" cy="293.85" r="1.6666666666666667" />
<circle cx="620.68" cy="308.31" r="1.6666666666666667" />
<circle cx="620.68" cy="289.85" r="1.6666666666666667" />
<circle cx="620.68" cy="314.47" r="1.6666666666666667" />
<circle cx="620.68" cy="310.81" r="1.6666666666666667" />
<circle cx="620.68" cy="305.58" r="1.6666666666666667" />
<circle cx="620.68" cy="283.75" r="1.6666666666666667" />
<circle cx="620.69" cy="279.72" r="1.6666666666666667" />
<circle cx="620.69" cy="264.14" r="1.6666666666666667" />
<circle cx="620.69" cy="251.49" r="1.6666666666666667" />
<circle cx="620.69" cy="255.69" r="1.6666666666666667" />
<circle cx="620.69" cy="253.66" r="1.6666666666666667" />
<circle cx="620.69" cy="255.69" r="1.6666666666666667" />
<circle cx="620.69" cy="259.36" r="1.6666666666666667" />
<circle cx="620.69" cy="296.89" r="1.6666666666666667" />
<circle cx="620.69" cy="280.57" r="1.6666666666666667" />
<circle cx="620.69" cy="262.63" r="1.6666666666666667" />
<circle cx="620.69" cy="257.58" r="1.6666666666666667" />
<circle cx="620.69" cy="262.63" r="1.6666666666666667" />
<circle cx="620.69" cy="269.49" r="1.6666666666666667" />
<circle cx="620.69" cy="277.94" r="1.6666666666666667" />
<circle cx="620.69" cy="288.60" r="1.6666666666666667" />
<circle cx="620.69" cy="291.63" r="1.6666666666666667" />
<circle cx="620.69" cy="269.49" r="1.6666666666666667" />
<circle cx="620.69" cy="271.84" r="1.6666666666666667" />
<circle cx="620.69" cy="272.95" r="1.6666666666666667" />
<circle cx="620.69" cy="268.24" r="1.6666666666666667" />
<circle cx="620.69" cy="279.72" r="1.6666666666666667" />
<circle cx="620.69" cy="268.24" r="1.6666666666666667" />
<circle cx="620.69" cy="262.63" r="1.6666666666666667" />
<circle cx="620.70" cy="283.75" r="1.6666666666666667" />
<circle cx="620.72" cy="394.29" r="1.6666666666666667" />
<circle cx="621.94" cy="505.49" r="1.6666666666666667" />
<circle cx="621.96" cy="387.41" r="1.6666666666666667" />
<circle cx="621.97" cy="358.80" r="1.6666666666666667" />
<circle cx="621.98" cy="329.00" r="1.6666666666666667" />
<circle cx="622.49" cy="480.11" r="1.6666666666666667" />
<circle cx="624.75" cy="283.75" r="1.6666666666666667" />
<circle cx="624.75" cy="272.95" r="1.6666666666666667" />
<circle cx="624.75" cy="282.99" r="1.6666666666666667" />
<circle cx="624.75" cy="332.35" r="1.6666666666666667" />
<circle cx="624.86" cy="434.99" r="1.6666666666666667" />
<circle cx="625.90" cy="500.71" r="1.6666666666666667" />
<circle cx="625.90" cy="308.31" r="1.6666666666666667" />
<circle cx="625.90" cy="302.56" r="1.6666666666666667" />
<circle cx="625.91" cy="333.34" r="1.6666666666666667" />
<circle cx="625.99" cy="427.67" r="1.6666666666666667" />
<circle cx="625.99" cy="259.36" r="1.6666666666666667" />
<circle cx="625.99" cy="261.04" r="1.6666666666666667" />
<circle cx="625.99" cy="249.13" r="1.6666666666666667" />
<circle cx="625.99" cy="243.78" r="1.6666666666666667" />
<circle cx="625.99" cy="251.49" r="1.6666666666666667" />
<circle cx="625.99" cy="251.49" r="1.6666666666666667" />
<circle cx="625.99" cy="257.58" r="1.6666666666666667" />
<circle cx="625.99" cy="259.36" r="1.6666666666666667" />
<circle cx="625.99" cy="261.04" r="1.6666666666666667" />
<circle cx="626.00" cy="270.69" r="1.6666666666666667" />
<circle cx="626.00" cy="286.62" r="1.6666666666666667" />
<circle cx="626.00" cy="302.56" r="1.6666666666666667" />
<circle cx="626.00" cy="333.34" r="1.6666666666666667" />
<circle cx="626.04" cy="403.79" r="1.6666666666666667" />
<circle cx="626.04" cy="278.85" r="1.6666666666666667" />
<circle cx="626.04" cy="296.41" r="1.6666666666666667" />
<circle cx="626.04" cy="302.96" r="1.6666666666666667" />
<circle cx="626.06" cy="377.44" r="1.6666666666666667" />
<circle cx="626.06" cy="308.96" r="1.6666666666666667" />
<circle cx="626.06" cy="279.72" r="1.6666666666666667" />
<circle cx="626.06" cy="264.14" r="1.6666666666666667" />
<circle cx="626.06" cy="261.04" r="1.6666666666666667" />
<circle cx="626.06" cy="265.57" r="1.6666666666666667" />
<circle cx="626.06" cy="272.95" r="1.6666666666666667" />
<circle cx="626.06" cy="287.30" r="1.6666666666666667" />
<circle cx="626.06" cy="315.51" r="1.6666666666666667" />
<circle cx="626.06" cy="285.93" r="1.6666666666666667" />
<circle cx="626.06" cy="270.69" r="1.6666666666666667" />
<circle cx="626.06" cy="268.24" r="1.6666666666666667" />
<circle cx="626.07" cy="274.02" r="1.6666666666666667" />
<circle cx="626.07" cy="279.72" r="1.6666666666666667" />
<circle cx="626.07" cy="278.85" r="1.6666666666666667" />
<circle cx="626.07" cy="275.05" r="1.6666666666666667" />
<circle cx="626.07" cy="277.01" r="1.6666666666666667" />
<circle cx="626.07" cy="274.02" r="1.6666666666666667" />
<circle cx="626.07" cy="281.40" r="1.6666666666666667" />
<circle cx="626.07" cy="291.63" r="1.6666666666666667" />
<circle cx="626.07" cy="277.94" r="1.6666666666666667" />
<circle cx="626.07" cy="271.84" r="1.6666666666666667" />
<circle cx="626.07" cy="266.94" r="1.6666666666666667" />
<circle cx="626.07" cy="265.57" r="1.6666666666666667" />
<circle cx="626.07" cy="268.24" r="1.6666666666666667" />
<circle cx="626.07" cy="271.84" r="1.6666666666666667" />
<circle cx="626.07" cy="277.01" r="1.6666666666666667" />
<circle cx="626.07" cy="283.75" r="1.6666666666666667" />
<circle cx="626.07" cy="285.22" r="1.6666666666666667" />
<circle cx="626.07" cy="288.60" r="1.6666666666666667" />
<circle cx="626.08" cy="287.30" r="1.6666666666666667" />
<circle cx="626.08" cy="279.72" r="1.6666666666666667" />
<circle cx="626.08" cy="283.75" r="1.6666666666666667" />
<circle cx="626.08" cy="291.63" r="1.6666666666666667" />
<circle cx="626.08" cy="311.41" r="1.6666666666666667" />
<circle cx="626.52" cy="475.31" r="1.6666666666666667" />
</g>
<g stroke="black">
<line x1="828.41" x2="828.41" y1="510.00" y2="520.00" />
<line x1="785.75" x2="785.75" y1="510.00" y2="520.00" />
<line x1="741.68" x2="741.68" y1="510.00" y2="520.00" />
<line x1="700.44" x2="700.44" y1="510.00" y2="520.00" />
<line x1="656.36" x2="656.36" y1="510.00" y2="520.00" />
<line x1="612.28" x2="612.28" y1="510.00" y2="520.00" />
<line x1="569.63" x2="569.63" y1="510.00" y2="520.00" />
<line x1="525.55" x2="525.55" y1="510.00" y2="520.00" />
<line x1="482.89" x2="482.89" y1="510.00" y2="520.00" />
<line x1="438.81" x2="438.81" y1="510.00" y2="520.00" />
<line x1="394.73" x2="394.73" y1="510.00" y2="520.00" />
<line x1="352.08" x2="352.08" y1="510.00" y2="520.00" />
<line x1="308.00" x2="308.00" y1="510.00" y2="520.00" />
<line x1="265.34" x2="265.34" y1="510.00" y2="520.00" />
<line x1="221.26" x2="221.26" y1="510.00" y2="520.00" />
<line x1="181.45" x2="181.45" y1="510.00" y2="520.00" />
<g fill="black" font-family="Arial, sans-serif" font-size="18.0" stroke="none" text-anchor="start" transform="translate(9.0 0.0)">
<text x="828.41" y="530.57">May</text>
<text x="785.75" y="530.57">Apr</text>
<text x="741.68" y="530.57">Mar</text>
<text x="700.44" y="530.57">Feb</text>
<text x="656.36" y="530.57">Jan</text>
<text x="612.28" y="530.57">Dec</text>
<text x="569.63" y="530.57">Nov</text>
<text x="525.55" y="530.57">Oct</text>
<text x="482.89" y="530.57">Sep</text>
<text x="438.81" y="530.57">Aug</text>
<text x="394.73" y="530.57">Jul</text>
<text x="352.08" y="530.57">Jun</text>
<text x="308.00" y="530.57">May</text>
<text x="265.34" y="530.57">Apr</text>
<text x="221.26" y="530.57">Mar</text>
<text x="181.45" y="530.57">Feb</text>
</g>
<line x1="150.00" x2="850.00" y1="510.00" y2="510.00" />
</g>
<g stroke="black">
<line x1="150.00" x2="138.00" y1="510.00" y2="510.00" />
<line x1="150.00" x2="138.00" y1="216.29" y2="216.29" />
<g fill="black" font-family="Arial, sans-serif" font-size="18.0" stroke="none" text-anchor="end">
<text x="141.00" y="501.00">0</text>
<text x="141.00" y="207.29">10</text>
</g>
<line x1="150.00" x2="150.00" y1="510.00" y2="90.00" />
</g>
</g>
</svg>