<?xml version="1.0"?>
<svg version="1.1" viewBox="0 0 1000 600" xmlns:xlink="http://www.w3.org/1999/xlink" xmlns="http://www.w3.org/2000/svg">
<g>
<g stroke-dasharray="3.6 7.2" stroke-width="0.72" stroke="#caa">
<line x1="813.75" x2="813.75" y1="510.00" y2="90.00" />
<line x1="760.60" x2="760.60" y1="510.00" y2="90.00" />
<line x1="707.45" x2="707.45" y1="510.00" y2="90.00" />
<line x1="656.01" x2="656.01" y1="510.00" y2="90.00" />
<line x1="602.86" x2="602.86" y1="510.00" y2="90.00" />
<line x1="551.42" x2="551.42" y1="510.00" y2="90.00" />
<line x1="498.27" x2="498.27" y1="510.00" y2="90.00" />
<line x1="445.11" x2="445.11" y1="510.00" y2="90.00" />
<line x1="393.68" x2="393.68" y1="510.00" y2="90.00" />
<line x1="340.52" x2="340.52" y1="510.00" y2="90.00" />
<line x1="289.09" x2="289.09" y1="510.00" y2="90.00" />
<line x1="235.93" x2="235.93" y1="510.00" y2="90.00" />
<line x1="187.92" x2="187.92" y1="510.00" y2="90.00" />
<line x1="150.00" x2="850.00" y1="510.00" y2="510.00" />
<line x1="150.00" x2="850.00" y1="216.29" y2="216.29" />
</g>
<g>
<text dominant-baseline="hanging" dx="-36.0" dy="18.0" fill="#0004" font-family="Arial, sans-serif" font-size="36" stroke="none" text-anchor="end" x="850.00" y="128.18">R15</text>
</g>
<g>
<text dominant-baseline="text-bottom" dy="-12.0" fill="black" font-family="Arial, sans-serif" font-size="18.0" font-style="italic" stroke="none" text-anchor="middle" x="500.00" y="90.00">Years 2023 to 2024</text>
</g>
<g>
<text dominant-baseline="central" dx="12.0" dy="12.0" fill="black" font-family="Arial, sans-serif" font-size="18.0" font-style="italic" stroke="none" text-anchor="middle" text-orientation="sideways" writing-mode="vertical-lr" x="850.00" y="300.00">log(Drips per day)</text>
</g>
<polyline fill="none" points="691.53,176.15 691.53,280.57 691.53,176.15 696.62,331.17 696.63,332.35 696.63,326.82 696.64,333.34 696.64,354.45 696.65,350.39 696.66,341.96 696.66,335.23 696.66,324.28 696.67,312.28 696.67,317.49 696.67,326.47 696.68,330.41 696.68,331.02 696.69,346.74 696.72,394.38 696.84,432.87 698.23,503.72 698.23,280.57 698.23,270.69 698.23,268.24 698.23,283.75 698.23,296.41 698.23,298.30 698.23,288.60 698.23,282.21 698.24,278.85 698.24,278.85 698.24,272.95 698.24,269.49 698.24,276.05 698.24,295.91 698.24,303.35 698.24,298.76 698.24,298.76 698.25,310.51 698.25,306.98 698.25,313.40 698.26,347.87 698.27,368.73 698.96,483.06 698.97,367.10 698.98,358.80 698.99,353.21 698.99,348.95 699.00,345.20 699.03,388.96 699.51,472.50 699.60,423.21 699.60,352.49 699.61,348.78 699.62,350.70 699.63,349.03 699.63,348.03 699.64,341.96 699.64,345.66 699.65,360.17 699.67,371.36 699.69,375.97 699.70,371.96 699.72,365.97 699.73,367.32 699.74,359.60 699.75,365.65 699.78,393.28 699.82,395.46 699.94,431.69 699.98,401.24 700.03,404.52 700.05,376.49 700.06,367.62 700.07,368.05 700.09,366.47 700.10,377.38 700.11,351.31 700.12,346.56 700.13,354.72 700.14,367.05 700.22,420.43 700.24,373.21 700.26,382.52 700.29,389.54 701.21,491.59 701.28,419.32 701.44,440.06 701.44,322.92 701.45,305.58 701.47,379.85 701.47,300.93 701.47,275.05 701.47,268.24 701.47,279.72 701.48,344.54 701.48,335.10 701.49,336.63 701.53,400.74 701.53,326.99 701.53,317.25 701.54,325.21 701.54,325.21 701.54,331.91 701.55,331.47 701.55,331.91 701.56,334.16 701.56,340.47 701.57,349.99 701.57,342.48 701.58,347.44 701.59,347.52 701.60,375.55 701.64,397.44 701.64,316.76 701.65,304.49 701.65,296.89 701.65,287.96 701.65,293.85 701.65,294.38 701.65,285.93 701.65,284.50 701.65,298.30 701.66,320.22 701.66,340.36 701.67,347.78 701.67,339.81 701.68,356.17 701.70,376.78 701.72,374.16 701.72,343.68 701.73,342.07 701.74,357.05 701.76,382.18 701.79,386.92 701.82,395.32 701.85,389.46 701.87,373.35 701.89,390.09 701.93,396.85 701.94,362.68 701.95,349.44 701.96,353.06 701.97,366.38 702.86,490.63 708.69,297.37 708.69,283.75 708.70,283.75 708.70,277.01 708.70,266.94 708.70,274.02 708.70,331.62 708.78,418.39 708.78,269.49 708.78,264.14 708.78,274.02 708.78,262.63 708.78,265.57 708.78,266.94 708.78,253.66 708.78,255.69 708.78,259.36 708.78,262.63 708.78,270.69 708.78,288.60 708.78,317.96 708.81,387.37 708.84,388.18 709.56,484.66 710.34,486.81 710.34,281.40 710.34,253.66 710.34,253.66 710.34,246.58 710.34,243.78 710.34,251.49 710.34,253.66 710.34,246.58 710.34,243.78 710.34,246.58 710.34,253.66 710.34,255.69 710.34,259.36 710.34,261.04 710.34,265.57 710.35,298.76 710.35,332.35 710.35,296.89 710.35,301.76 710.35,277.01 710.35,272.95 710.35,266.94 710.35,262.63 710.35,262.63 710.36,259.36 710.36,255.69 710.36,257.58 710.36,269.49 710.37,359.94 710.38,357.23 710.38,316.02 710.38,280.57 710.38,293.85 710.38,283.75 710.38,240.69 710.38,223.42 710.38,233.30 710.38,233.30 710.38,223.42 710.38,228.78 710.38,228.78 710.38,243.78 710.38,251.49 710.38,246.58 710.38,243.78 710.38,246.58 710.38,243.78 710.38,249.13 710.38,253.66 710.38,251.49 710.38,237.23 710.38,240.69 710.38,243.78 710.38,240.69 710.38,233.30 710.38,246.58 710.39,251.49 710.39,261.04 710.39,265.57 710.39,269.49 710.39,259.36 710.39,255.69 710.39,305.22 710.40,350.07 710.40,350.15 710.40,302.56 710.41,301.76 710.41,292.20 710.41,301.76 710.41,310.51 710.41,332.06 710.42,325.58 710.43,372.81 710.45,379.88 710.47,368.56 710.52,406.91 711.23,483.99 711.54,460.44 712.21,482.23 712.22,361.69 715.53,340.14 715.64,427.72 715.89,453.46 717.20,502.21 717.20,320.00 717.21,301.76 717.21,291.05 717.21,280.57 717.21,264.14 717.21,268.24 717.21,272.95 717.21,279.72 717.21,278.85 717.21,253.66 717.21,259.36 717.21,253.66 717.21,264.14 717.21,259.36 717.21,264.14 717.21,265.57 717.21,266.94 717.21,261.04 717.21,265.57 717.21,271.84 717.22,279.72 717.22,285.22 717.22,302.17 717.22,293.85 717.22,265.57 717.22,266.94 717.22,268.24 717.22,261.04 717.22,264.14 717.22,270.69 717.22,280.57 717.22,297.84 717.23,309.90 717.53,458.97 717.56,391.37 717.56,331.62 717.57,344.64 717.57,311.70 717.57,293.85 717.57,308.31 717.57,289.85 717.58,314.47 717.58,310.81 717.58,305.58 717.58,283.75 717.58,279.72 717.58,264.14 717.58,251.49 717.58,255.69 717.58,253.66 717.58,255.69 717.58,259.36 717.58,296.89 717.58,280.57 717.58,262.63 717.58,257.58 717.58,262.63 717.59,269.49 717.59,277.94 717.59,288.60 717.59,291.63 717.59,269.49 717.59,271.84 717.59,272.95 717.59,268.24 717.59,279.72 717.59,268.24 717.59,262.63 717.59,283.75 717.63,394.29 719.10,505.49 719.12,387.41 719.13,358.80 719.14,329.00 719.76,480.11 722.48,283.75 722.48,272.95 722.48,282.99 722.49,332.35 722.62,434.99 723.87,500.71 723.87,308.31 723.87,302.56 723.88,333.34 723.98,427.67 723.98,259.36 723.98,261.04 723.98,249.13 723.98,243.78 723.98,251.49 723.98,251.49 723.98,257.58 723.98,259.36 723.98,261.04 723.98,270.69 723.98,286.62 723.99,302.56 723.99,333.34 724.04,403.79 724.04,278.85 724.04,296.41 724.04,302.96 724.06,377.44 724.06,308.96 724.06,279.72 724.06,264.14 724.06,261.04 724.06,265.57 724.06,272.95 724.06,287.30 724.07,315.51 724.07,285.93 724.07,270.69 724.07,268.24 724.07,274.02 724.07,279.72 724.07,278.85 724.07,275.05 724.07,277.01 724.07,274.02 724.07,281.40 724.07,291.63 724.07,277.94 724.07,271.84 724.07,266.94 724.07,265.57 724.07,268.24 724.08,271.84 724.08,277.01 724.08,283.75 724.08,285.22 724.08,288.60 724.08,287.30 724.08,279.72 724.08,283.75 724.08,291.63 724.08,311.41 724.61,475.31" stroke-dasharray="3.6 3.6" stroke-width="3.6" stroke="#aaa" />
<g>
<circle cx="691.53" cy="176.15" r="1.6666666666666667" />
<circle cx="691.53" cy="280.57" r="1.6666666666666667" />
<circle cx="691.53" cy="176.15" r="1.6666666666666667" />
<circle cx="696.62" cy="331.17" r="1.6666666666666667" />
<circle cx="696.63" cy="332.35" r="1.6666666666666667" />
<circle cx="696.63" cy="326.82" r="1.6666666666666667" />
<circle cx="696.64" cy="333.34" r="1.6666666666666667" />
<circle cx="696.64" cy="354.45" r="1.6666666666666667" />
<circle cx="696.65" cy="350.39" r="1.6666666666666667" />
<circle cx="696.66" cy="341.96" r="1.6666666666666667" />
<circle cx="696.66" cy="335.23" r="1.6666666666666667" />
<circle cx="696.66" cy="324.28" r="1.6666666666666667" />
<circle cx="696.67" cy="312.28" r="1.6666666666666667" />
<circle cx="696.67" cy="317.49" r="1.6666666666666667" />
<circle cx="696.67" cy="326.47" r="1.6666666666666667" />
<circle cx="696.68" cy="330.41" r="1.6666666666666667" />
<circle cx="696.68" cy="331.02" r="1.6666666666666667" />
<circle cx="696.69" cy="346.74" r="1.6666666666666667" />
<circle cx="696.72" cy="394.38" r="1.6666666666666667" />
<circle cx="696.84" cy="432.87" r="1.6666666666666667" />
<circle cx="698.23" cy="503.72" r="1.6666666666666667" />
<circle cx="698.23" cy="280.57" r="1.6666666666666667" />
<circle cx="698.23" cy="270.69" r="1.6666666666666667" />
<circle cx="698.23" cy="268.24" r="1.6666666666666667" />
<circle cx="698.23" cy="283.75" r="1.6666666666666667" />
<circle cx="698.23" cy="296.41" r="1.6666666666666667" />
<circle cx="698.23" cy="298.30" r="1.6666666666666667" />
<circle cx="698.23" cy="288.60" r="1.6666666666666667" />
<circle cx="698.23" cy="282.21" r="1.6666666666666667" />
<circle cx="698.24" cy="278.85" r="1.6666666666666667" />
<circle cx="698.24" cy="278.85" r="1.6666666666666667" />
<circle cx="698.24" cy="272.95" r="1.6666666666666667" />
<circle cx="698.24" cy="269.49" r="1.6666666666666667" />
<circle cx="698.24" cy="276.05" r="1.6666666666666667" />
<circle cx="698.24" cy="295.91" r="1.6666666666666667" />
<circle cx="698.24" cy="303.35" r="1.6666666666666667" />
<circle cx="698.24" cy="298.76" r="1.6666666666666667" />
<circle cx="698.24" cy="298.76" r="1.6666666666666667" />
<circle cx="698.25" cy="310.51" r="1.6666666666666667" />
<circle cx="698.25" cy="306.98" r="1.6666666666666667" />
<circle cx="698.25" cy="313.40" r="1.6666666666666667" />
<circle cx="698.26" cy="347.87" r="1.6666666666666667" />
<circle cx="698.27" cy="368.73" r="1.6666666666666667" />
<circle cx="698.96" cy="483.06" r="1.6666666666666667" />
<circle cx="698.97" cy="367.10" r="1.6666666666666667" />
<circle cx="698.98" cy="358.80" r="1.6666666666666667" />
<circle cx="698.99" cy="353.21" r="1.6666666666666667" />
<circle cx="698.99" cy="348.95" r="1.6666666666666667" />
<circle cx="699.00" cy="345.20" r="1.6666666666666667" />
<circle cx="699.03" cy="388.96" r="1.6666666666666667" />
<circle cx="699.51" cy="472.50" r="1.6666666666666667" />
<circle cx="699.60" cy="423.21" r="1.6666666666666667" />
<circle cx="699.60" cy="352.49" r="1.6666666666666667" />
<circle cx="699.61" cy="348.78" r="1.6666666666666667" />
<circle cx="699.62" cy="350.70" r="1.6666666666666667" />
<circle cx="699.63" cy="349.03" r="1.6666666666666667" />
<circle cx="699.63" cy="348.03" r="1.6666666666666667" />
<circle cx="699.64" cy="341.96" r="1.6666666666666667" />
<circle cx="699.64" cy="345.66" r="1.6666666666666667" />
<circle cx="699.65" cy="360.17" r="1.6666666666666667" />
<circle cx="699.67" cy="371.36" r="1.6666666666666667" />
<circle cx="699.69" cy="375.97" r="1.6666666666666667" />
<circle cx="699.70" cy="371.96" r="1.6666666666666667" />
<circle cx="699.72" cy="365.97" r="1.6666666666666667" />
<circle cx="699.73" cy="367.32" r="1.6666666666666667" />
<circle cx="699.74" cy="359.60" r="1.6666666666666667" />
<circle cx="699.75" cy="365.65" r="1.6666666666666667" />
<circle cx="699.78" cy="393.28" r="1.6666666666666667" />
<circle cx="699.82" cy="395.46" r="1.6666666666666667" />
<circle cx="699.94" cy="431.69" r="1.6666666666666667" />
<circle cx="699.98" cy="401.24" r="1.6666666666666667" />
<circle cx="700.03" cy="404.52" r="1.6666666666666667" />
<circle cx="700.05" cy="376.49" r="1.6666666666666667" />
<circle cx="700.06" cy="367.62" r="1.6666666666666667" />
<circle cx="700.07" cy="368.05" r="1.6666666666666667" />
<circle cx="700.09" cy="366.47" r="1.6666666666666667" />
<circle cx="700.10" cy="377.38" r="1.6666666666666667" />
<circle cx="700.11" cy="351.31" r="1.6666666666666667" />
<circle cx="700.12" cy="346.56" r="1.6666666666666667" />
<circle cx="700.13" cy="354.72" r="1.6666666666666667" />
<circle cx="700.14" cy="367.05" r="1.6666666666666667" />
<circle cx="700.22" cy="420.43" r="1.6666666666666667" />
<circle cx="700.24" cy="373.21" r="1.6666666666666667" />
<circle cx="700.26" cy="382.52" r="1.6666666666666667" />
<circle cx="700.29" cy="389.54" r="1.6666666666666667" />
<circle cx="701.21" cy="491.59" r="1.6666666666666667" />
<circle cx="701.28" cy="419.32" r="1.6666666666666667" />
<circle cx="701.44" cy="440.06" r="1.6666666666666667" />
<circle cx="701.44" cy="322.92" r="1.6666666666666667" />
<circle cx="701.45" cy="305.58" r="1.6666666666666667" />
<circle cx="701.47" cy="379.85" r="1.6666666666666667" />
<circle cx="701.47" cy="300.93" r="1.6666666666666667" />
<circle cx="701.47" cy="275.05" r="1.6666666666666667" />
<circle cx="701.47" cy="268.24" r="1.6666666666666667" />
<circle cx="701.47" cy="279.72" r="1.6666666666666667" />
<circle cx="701.48" cy="344.54" r="1.6666666666666667" />
<circle cx="701.48" cy="335.10" r="1.6666666666666667" />
<circle cx="701.49" cy="336.63" r="1.6666666666666667" />
<circle cx="701.53" cy="400.74" r="1.6666666666666667" />
<circle cx="701.53" cy="326.99" r="1.6666666666666667" />
<circle cx="701.53" cy="317.25" r="1.6666666666666667" />
<circle cx="701.54" cy="325.21" r="1.6666666666666667" />
<circle cx="701.54" cy="325.21" r="1.6666666666666667" />
<circle cx="701.54" cy="331.91" r="1.6666666666666667" />
<circle cx="701.55" cy="331.47" r="1.6666666666666667" />
<circle cx="701.55" cy="331.91" r="1.6666666666666667" />
<circle cx="701.56" cy="334.16" r="1.6666666666666667" />
<circle cx="701.56" cy="340.47" r="1.6666666666666667" />
<circle cx="701.57" cy="349.99" r="1.6666666666666667" />
<circle cx="701.57" cy="342.48" r="1.6666666666666667" />
<circle cx="701.58" cy="347.44" r="1.6666666666666667" />
<circle cx="701.59" cy="347.52" r="1.6666666666666667" />
<circle cx="701.60" cy="375.55" r="1.6666666666666667" />
<circle cx="701.64" cy="397.44" r="1.6666666666666667" />
<circle cx="701.64" cy="316.76" r="1.6666666666666667" />
<circle cx="701.65" cy="304.49" r="1.6666666666666667" />
<circle cx="701.65" cy="296.89" r="1.6666666666666667" />
<circle cx="701.65" cy="287.96" r="1.6666666666666667" />
<circle cx="701.65" cy="293.85" r="1.6666666666666667" />
<circle cx="701.65" cy="294.38" r="1.6666666666666667" />
<circle cx="701.65" cy="285.93" r="1.6666666666666667" />
<circle cx="701.65" cy="284.50" r="1.6666666666666667" />
<circle cx="701.65" cy="298.30" r="1.6666666666666667" />
<circle cx="701.66" cy="320.22" r="1.6666666666666667" />
<circle cx="701.66" cy="340.36" r="1.6666666666666667" />
<circle cx="701.67" cy="347.78" r="1.6666666666666667" />
<circle cx="701.67" cy="339.81" r="1.6666666666666667" />
<circle cx="701.68" cy="356.17" r="1.6666666666666667" />
<circle cx="701.70" cy="376.78" r="1.6666666666666667" />
<circle cx="701.72" cy="374.16" r="1.6666666666666667" />
<circle cx="701.72" cy="343.68" r="1.6666666666666667" />
<circle cx="701.73" cy="342.07" r="1.6666666666666667" />
<circle cx="701.74" cy="357.05" r="1.6666666666666667" />
<circle cx="701.76" cy="382.18" r="1.6666666666666667" />
<circle cx="701.79" cy="386.92" r="1.6666666666666667" />
<circle cx="701.82" cy="395.32" r="1.6666666666666667" />
<circle cx="701.85" cy="389.46" r="1.6666666666666667" />
<circle cx="701.87" cy="373.35" r="1.6666666666666667" />
<circle cx="701.89" cy="390.09" r="1.6666666666666667" />
<circle cx="701.93" cy="396.85" r="1.6666666666666667" />
<circle cx="701.94" cy="362.68" r="1.6666666666666667" />
<circle cx="701.95" cy="349.44" r="1.6666666666666667" />
<circle cx="701.96" cy="353.06" r="1.6666666666666667" />
<circle cx="701.97" cy="366.38" r="1.6666666666666667" />
<circle cx="702.86" cy="490.63" r="1.6666666666666667" />
<circle cx="708.69" cy="297.37" r="1.6666666666666667" />
<circle cx="708.69" cy="283.75" r="1.6666666666666667" />
<circle cx="708.70" cy="283.75" r="1.6666666666666667" />
<circle cx="708.70" cy="277.01" r="1.6666666666666667" />
<circle cx="708.70" cy="266.94" r="1.6666666666666667" />
<circle cx="708.70" cy="274.02" r="1.6666666666666667" />
<circle cx="708.70" cy="331.62" r="1.6666666666666667" />
<circle cx="708.78" cy="418.39" r="1.6666666666666667" />
<circle cx="708.78" cy="269.49" r="1.6666666666666667" />
<circle cx="708.78" cy="264.14" r="1.6666666666666667" />
<circle cx="708.78" cy="274.02" r="1.6666666666666667" />
<circle cx="708.78" cy="262.63" r="1.6666666666666667" />
<circle cx="708.78" cy="265.57" r="1.6666666666666667" />
<circle cx="708.78" cy="266.94" r="1.6666666666666667" />
<circle cx="708.78" cy="253.66" r="1.6666666666666667" />
<circle cx="708.78" cy="255.69" r="1.6666666666666667" />
<circle cx="708.78" cy="259.36" r="1.6666666666666667" />
<circle cx="708.78" cy="262.63" r="1.6666666666666667" />
<circle cx="708.78" cy="270.69" r="1.6666666666666667" />
<circle cx="708.78" cy="288.60" r="1.6666666666666667" />
<circle cx="708.78" cy="317.96" r="1.6666666666666667" />
<circle cx="708.81" cy="387.37" r="1.6666666666666667" />
<circle cx="708.84" cy="388.18" r="1.6666666666666667" />
<circle cx="709.56" cy="484.66" r="1.6666666666666667" />
<circle cx="710.34" cy="486.81" r="1.6666666666666667" />
<circle cx="710.34" cy="281.40" r="1.6666666666666667" />
<circle cx="710.34" cy="253.66" r="1.6666666666666667" />
<circle cx="710.34" cy="253.66" r="1.6666666666666667" />
<circle cx="710.34" cy="246.58" r="1.6666666666666667" />
<circle cx="710.34" cy="243.78" r="1.6666666666666667" />
<circle cx="710.34" cy="251.49" r="1.6666666666666667" />
<circle cx="710.34" cy="253.66" r="1.6666666666666667" />
<circle cx="710.34" cy="246.58" r="1.6666666666666667" />
<circle cx="710.34" cy="243.78" r="1.6666666666666667" />
<circle cx="710.34" cy="246.58" r="1.6666666666666667" />
<circle cx="710.34" cy="253.66" r="1.6666666666666667" />
<circle cx="710.34" cy="255.69" r="1.6666666666666667" />
<circle cx="710.34" cy="259.36" r="1.6666666666666667" />
<circle cx="710.34" cy="261.04" r="1.6666666666666667" />
<circle cx="710.34" cy="265.57" r="1.6666666666666667" />
<circle cx="710.35" cy="298.76" r="1.6666666666666667" />
<circle cx="710.35" cy="332.35" r="1.6666666666666667" />
<circle cx="710.35" cy="296.89" r="1.6666666666666667" />
<circle cx="710.35" cy="301.76" r="1.6666666666666667" />
<circle cx="710.35" cy="277.01" r="1.6666666666666667" />
<circle cx="710.35" cy="272.95" r="1.6666666666666667" />
<circle cx="710.35" cy="266.94" r="1.6666666666666667" />
<circle cx="710.35" cy="262.63" r="1.6666666666666667" />
<circle cx="710.35" cy="262.63" r="1.6666666666666667" />
<circle cx="710.36" cy="259.36" r="1.6666666666666667" />
<circle cx="710.36" cy="255.69" r="1.6666666666666667" />
<circle cx="710.36" cy="257.58" r="1.6666666666666667" />
<circle cx="710.36" cy="269.49" r="1.6666666666666667" />
<circle cx="710.37" cy="359.94" r="1.6666666666666667" />
<circle cx="710.38" cy="357.23" r="1.6666666666666667" />
<circle cx="710.38" cy="316.02" r="1.6666666666666667" />
<circle cx="710.38" cy="280.57" r="1.6666666666666667" />
<circle cx="710.38" cy="293.85" r="1.6666666666666667" />
<circle cx="710.38" cy="283.75" r="1.6666666666666667" />
<circle cx="710.38" cy="240.69" r="1.6666666666666667" />
<circle cx="710.38" cy="223.42" r="1.6666666666666667" />
<circle cx="710.38" cy="233.30" r="1.6666666666666667" />
<circle cx="710.38" cy="233.30" r="1.6666666666666667" />
<circle cx="710.38" cy="223.42" r="1.6666666666666667" />
<circle cx="710.38" cy="228.78" r="1.6666666666666667" />
<circle cx="710.38" cy="228.78" r="1.6666666666666667" />
<circle cx="710.38" cy="243.78" r="1.6666666666666667" />
<circle cx="710.38" cy="251.49" r="1.6666666666666667" />
<circle cx="710.38" cy="246.58" r="1.6666666666666667" />
<circle cx="710.38" cy="243.78" r="1.6666666666666667" />
<circle cx="710.38" cy="246.58" r="1.6666666666666667" />
<circle cx="710.38" cy="243.78" r="1.6666666666666667" />
<circle cx="710.38" cy="249.13" r="1.6666666666666667" />
<circle cx="710.38" cy="253.66" r="1.6666666666666667" />
<circle cx="710.38" cy="251.49" r="1.6666666666666667" />
<circle cx="710.38" cy="237.23" r="1.6666666666666667" />
<circle cx="710.38" cy="240.69" r="1.6666666666666667" />
<circle cx="710.38" cy="243.78" r="1.6666666666666667" />
<circle cx="710.38" cy="240.69" r="1.6666666666666667" />
<circle cx="710.38" cy="233.30" r="1.6666666666666667" />
<circle cx="710.38" cy="246.58" r="1.6666666666666667" />
<circle cx="710.39" cy="251.49" r="1.6666666666666667" />
<circle cx="710.39" cy="261.04" r="1.6666666666666667" />
<circle cx="710.39" cy="265.57" r="1.6666666666666667" />
<circle cx="710.39" cy="269.49" r="1.6666666666666667" />
<circle cx="710.39" cy="259.36" r="1.6666666666666667" />
<circle cx="710.39" cy="255.69" r="1.6666666666666667" />
<circle cx="710.39" cy="305.22" r="1.6666666666666667" />
<circle cx="710.40" cy="350.07" r="1.6666666666666667" />
<circle cx="710.40" cy="350.15" r="1.6666666666666667" />
<circle cx="710.40" cy="302.56" r="1.6666666666666667" />
<circle cx="710.41" cy="301.76" r="1.6666666666666667" />
<circle cx="710.41" cy="292.20" r="1.6666666666666667" />
<circle cx="710.41" cy="301.76" r="1.6666666666666667" />
<circle cx="710.41" cy="310.51" r="1.6666666666666667" />
<circle cx="710.41" cy="332.06" r="1.6666666666666667" />
<circle cx="710.42" cy="325.58" r="1.6666666666666667" />
<circle cx="710.43" cy="372.81" r="1.6666666666666667" />
<circle cx="710.45" cy="379.88" r="1.6666666666666667" />
<circle cx="710.47" cy="368.56" r="1.6666666666666667" />
<circle cx="710.52" cy="406.91" r="1.6666666666666667" />
<circle cx="711.23" cy="483.99" r="1.6666666666666667" />
<circle cx="711.54" cy="460.44" r="1.6666666666666667" />
<circle cx="712.21" cy="482.23" r="1.6666666666666667" />
<circle cx="712.22" cy="361.69" r="1.6666666666666667" />
<circle cx="715.53" cy="340.14" r="1.6666666666666667" />
<circle cx="715.64" cy="427.72" r="1.6666666666666667" />
<circle cx="715.89" cy="453.46" r="1.6666666666666667" />
<circle cx="717.20" cy="502.21" r="1.6666666666666667" />
<circle cx="717.20" cy="320.00" r="1.6666666666666667" />
<circle cx="717.21" cy="301.76" r="1.6666666666666667" />
<circle cx="717.21" cy="291.05" r="1.6666666666666667" />
<circle cx="717.21" cy="280.57" r="1.6666666666666667" />
<circle cx="717.21" cy="264.14" r="1.6666666666666667" />
<circle cx="717.21" cy="268.24" r="1.6666666666666667" />
<circle cx="717.21" cy="272.95" r="1.6666666666666667" />
<circle cx="717.21" cy="279.72" r="1.6666666666666667" />
<circle cx="717.21" cy="278.85" r="1.6666666666666667" />
<circle cx="717.21" cy="253.66" r="1.6666666666666667" />
<circle cx="717.21" cy="259.36" r="1.6666666666666667" />
<circle cx="717.21" cy="253.66" r="1.6666666666666667" />
<circle cx="717.21" cy="264.14" r="1.6666666666666667" />
<circle cx="717.21" cy="259.36" r="1.6666666666666667" />
<circle cx="717.21" cy="264.14" r="1.6666666666666667" />
<circle cx="717.21" cy="265.57" r="1.6666666666666667" />
<circle cx="717.21" cy="266.94" r="1.6666666666666667" />
<circle cx="717.21" cy="261.04" r="1.6666666666666667" />
<circle cx="717.21" cy="265.57" r="1.6666666666666667" />
<circle cx="717.21" cy="271.84" r="1.6666666666666667" />
<circle cx="717.22" cy="279.72" r="1.6666666666666667" />
<circle cx="717.22" cy="285.22" r="1.6666666666666667" />
<circle cx="717.22" cy="302.17" r="1.6666666666666667" />
<circle cx="717.22" cy="293.85" r="1.6666666666666667" />
<circle cx="717.22" cy="265.57" r="1.6666666666666667" />
<circle cx="717.22" cy="266.94" r="1.6666666666666667" />
<circle cx="717.22" cy="268.24" r="1.6666666666666667" />
<circle cx="717.22" cy="261.04" r="1.6666666666666667" />
<circle cx="717.22" cy="264.14" r="1.6666666666666667" />
<circle cx="717.22" cy="270.69" r="1.6666666666666667" />
<circle cx="717.22" cy="280.57" r="1.6666666666666667" />
<circle cx="717.22" cy="297.84" r="1.6666666666666667" />
<circle cx="717.23" cy="309.90" r="1.6666666666666667" />
<circle cx="717.53" cy="458.97" r="1.6666666666666667" />
<circle cx="717.56" cy="391.37" r="1.6666666666666667" />
<circle cx="717.56" cy="331.62" r="1.6666666666666667" />
<circle cx="717.57" cy="344.64" r="1.6666666666666667" />
<circle cx="717.57" cy="311.70" r="1.6666666666666667" />
<circle cx="717.57" cy="293.85" r="1.6666666666666667" />
<circle cx="717.57" cy="308.31" r="1.6666666666666667" />
<circle cx="717.57" cy="289.85" r="1.6666666666666667" />
<circle cx="717.58" cy="314.47" r="1.6666666666666667" />
<circle cx="717.58" cy="310.81" r="1.6666666666666667" />
<circle cx="717.58" cy="305.58" r="1.6666666666666667" />
<circle cx="717.58" cy="283.75" r="1.6666666666666667" />
<circle cx="717.58" cy="279.72" r="1.6666666666666667" />
<circle cx="717.58" cy="264.14" r="1.6666666666666667" />
<circle cx="717.58" cy="251.49" r="1.6666666666666667" />
<circle cx="717.58" cy="255.69" r="1.6666666666666667" />
<circle cx="717.58" cy="253.66" r="1.6666666666666667" />
<circle cx="717.58" cy="255.69" r="1.6666666666666667" />
<circle cx="717.58" cy="259.36" r="1.6666666666666667" />
<circle cx="717.58" cy="296.89" r="1.6666666666666667" />
<circle cx="717.58" cy="280.57" r="1.6666666666666667" />
<circle cx="717.58" cy="262.63" r="1.6666666666666667" />
<circle cx="717.58" cy="257.58" r="1.6666666666666667" />
<circle cx="717.58" cy="262.63" r="1.6666666666666667" />
<circle cx="717.59" cy="269.49" r="1.6666666666666667" />
<circle cx="717.59" cy="277.94" r="1.6666666666666667" />
<circle cx="717.59" cy="288.60" r="1.6666666666666667" />
<circle cx="717.59" cy="291.63" r="1.6666666666666667" />
<circle cx="717.59" cy="269.49" r="1.6666666666666667" />
<circle cx="717.59" cy="271.84" r="1.6666666666666667" />
<circle cx="717.59" cy="272.95" r="1.6666666666666667" />
<circle cx="717.59" cy="268.24" r="1.6666666666666667" />
<circle cx="717.59" cy="279.72" r="1.6666666666666667" />
<circle cx="717.59" cy="268.24" r="1.6666666666666667" />
<circle cx="717.59" cy="262.63" r="1.6666666666666667" />
<circle cx="717.59" cy="283.75" r="1.6666666666666667" />
<circle cx="717.63" cy="394.29" r="1.6666666666666667" />
<circle cx="719.10" cy="505.49" r="1.6666666666666667" />
<circle cx="719.12" cy="387.41" r="1.6666666666666667" />
<circle cx="719.13" cy="358.80" r="1.6666666666666667" />
<circle cx="719.14" cy="329.00" r="1.6666666666666667" />
<circle cx="719.76" cy="480.11" r="1.6666666666666667" />
<circle cx="722.48" cy="283.75" r="1.6666666666666667" />
<circle cx="722.48" cy="272.95" r="1.6666666666666667" />
<circle cx="722.48" cy="282.99" r="1.6666666666666667" />
<circle cx="722.49" cy="332.35" r="1.6666666666666667" />
<circle cx="722.62" cy="434.99" r="1.6666666666666667" />
<circle cx="723.87" cy="500.71" r="1.6666666666666667" />
<circle cx="723.87" cy="308.31" r="1.6666666666666667" />
<circle cx="723.87" cy="302.56" r="1.6666666666666667" />
<circle cx="723.88" cy="333.34" r="1.6666666666666667" />
<circle cx="723.98" cy="427.67" r="1.6666666666666667" />
<circle cx="723.98" cy="259.36" r="1.6666666666666667" />
<circle cx="723.98" cy="261.04" r="1.6666666666666667" />
<circle cx="723.98" cy="249.13" r="1.6666666666666667" />
<circle cx="723.98" cy="243.78" r="1.6666666666666667" />
<circle cx="723.98" cy="251.49" r="1.6666666666666667" />
<circle cx="723.98" cy="251.49" r="1.6666666666666667" />
<circle cx="723.98" cy="257.58" r="1.6666666666666667" />
<circle cx="723.98" cy="259.36" r="1.6666666666666667" />
<circle cx="723.98" cy="261.04" r="1.6666666666666667" />
<circle cx="723.98" cy="270.69" r="1.6666666666666667" />
<circle cx="723.98" cy="286.62" r="1.6666666666666667" />
<circle cx="723.99" cy="302.56" r="1.6666666666666667" />
<circle cx="723.99" cy="333.34" r="1.6666666666666667" />
<circle cx="724.04" cy="403.79" r="1.6666666666666667" />
<circle cx="724.04" cy="278.85" r="1.6666666666666667" />
<circle cx="724.04" cy="296.41" r="1.6666666666666667" />
<circle cx="724.04" cy="302.96" r="1.6666666666666667" />
<circle cx="724.06" cy="377.44" r="1.6666666666666667" />
<circle cx="724.06" cy="308.96" r="1.6666666666666667" />
<circle cx="724.06" cy="279.72" r="1.6666666666666667" />
<circle cx="724.06" cy="264.14" r="1.6666666666666667" />
<circle cx="724.06" cy="261.04" r="1.6666666666666667" />
<circle cx="724.06" cy="265.57" r="1.6666666666666667" />
<circle cx="724.06" cy="272.95" r="1.6666666666666667" />
<circle cx="724.06" cy="287.30" r="1.6666666666666667" />
<circle cx="724.07" cy="315.51" r="1.6666666666666667" />
<circle cx="724.07" cy="285.93" r="1.6666666666666667" />
<circle cx="724.07" cy="270.69" r="1.6666666666666667" />
<circle cx="724.07" cy="268.24" r="1.6666666666666667" />
<circle cx="724.07" cy="274.02" r="1.6666666666666667" />
<circle cx="724.07" cy="279.72" r="1.6666666666666667" />
<circle cx="724.07" cy="278.85" r="1.6666666666666667" />
<circle cx="724.07" cy="275.05" r="1.6666666666666667" />
<circle cx="724.07" cy="277.01" r="1.6666666666666667" />
<circle cx="724.07" cy="274.02" r="1.6666666666666667" />
<circle cx="724.07" cy="281.40" r="1.6666666666666667" />
<circle cx="724.07" cy="291.63" r="1.6666666666666667" />
<circle cx="724.07" cy="277.94" r="1.6666666666666667" />
<circle cx="724.07" cy="271.84" r="1.6666666666666667" />
<circle cx="724.07" cy="266.94" r="1.6666666666666667" />
<circle cx="724.07" cy="265.57" r="1.6666666666666667" />
<circle cx="724.07" cy="268.24" r="1.6666666666666667" />
<circle cx="724.08" cy="271.84" r="1.6666666666666667" />
<circle cx="724.08" cy="277.01" r="1.6666666666666667" />
<circle cx="724.08" cy="283.75" r="1.6666666666666667" />
<circle cx="724.08" cy="285.22" r="1.6666666666666667" />
<circle cx="724.08" cy="288.60" r="1.6666666666666667" />
<circle cx="724.08" cy="287.30" r="1.6666666666666667" />
<circle cx="724.08" cy="279.72" r="1.6666666666666667" />
<circle cx="724.08" cy="283.75" r="1.6666666666666667" />
<circle cx="724.08" cy="291.63" r="1.6666666666666667" />
<circle cx="724.08" cy="311.41" r="1.6666666666666667" />
<circle cx="724.61" cy="475.31" r="1.6666666666666667" />
</g>
<g stroke="black">
<line x1="813.75" x2="813.75" y1="510.00" y2="520.00" />
<line x1="760.60" x2="760.60" y1="510.00" y2="520.00" />
<line x1="707.45" x2="707.45" y1="510.00" y2="520.00" />
<line x1="656.01" x2="656.01" y1="510.00" y2="520.00" />
<line x1="602.86" x2="602.86" y1="510.00" y2="520.00" />
<line x1="551.42" x2="551.42" y1="510.00" y2="520.00" />
<line x1="498.27" x2="498.27" y1="510.00" y2="520.00" />
<line x1="445.11" x2="445.11" y1="510.00" y2="520.00" />
<line x1="393.68" x2="393.68" y1="510.00" y2="520.00" />
<line x1="340.52" x2="340.52" y1="510.00" y2="520.00" />
<line x1="289.09" x2="289.09" y1="510.00" y2="520.00" />
<line x1="235.93" x2="235.93" y1="510.00" y2="520.00" />
<line x1="187.92" x2="187.92" y1="510.00" y2="520.00" />
<g fill="black" font-family="Arial, sans-serif" font-size="18.0" stroke="none" text-anchor="start" transform="translate(9.0 0.0)">
<text x="813.75" y="530.57">Feb</text>
<text x="760.60" y="530.57">Jan</text>
<text x="707.45" y="530.57">Dec</text>
<text x="656.01" y="530.57">Nov</text>
<text x="602.86" y="530.57">Oct</text>
<text x="551.42" y="530.57">Sep</text>
<text x="498.27" y="530.57">Aug</text>
<text x="445.11" y="530.57">Jul</text>
<text x="393.68" y="530.57">Jun</text>
<text x="340.52" y="530.57">May</text>
<text x="289.09" y="530.57">Apr</text>
<text x="235.93" y="530.57">Mar</text>
<text x="187.92" y="530.57">Feb</text>
</g>
<line x1="150.00" x2="850.00" y1="510.00" y2="510.00" />
</g>
<g stroke="black">
<line x1="150.00" x2="140.00" y1="510.00" y2="510.00" />
<line x1="150.00" x2="140.00" y1="216.29" y2="216.29" />
<g fill="black" font-family="Arial, sans-serif" font-size="18.0" stroke="none" text-anchor="end">
<text x="141.00" y="501.00">0</text>
<text x="141.00" y="207.29">10</text>
</g>
<line x1="150.00" x2="150.00" y1="510.00" y2="90.00" />
</g>
</g>
</svg>