<?xml version="1.0"?>
<svg version="1.1" viewBox="0 0 1000 600" xmlns:xlink="http://www.w3.org/1999/xlink" xmlns="http://www.w3.org/2000/svg">
<g>
<g stroke-dasharray="3.6 7.2" stroke-width="0.72" stroke="#caa">
<line x1="813.75" x2="813.75" y1="510.00" y2="90.00" />
<line x1="760.60" x2="760.60" y1="510.00" y2="90.00" />
<line x1="707.45" x2="707.45" y1="510.00" y2="90.00" />
<line x1="656.01" x2="656.01" y1="510.00" y2="90.00" />
<line x1="602.86" x2="602.86" y1="510.00" y2="90.00" />
<line x1="551.42" x2="551.42" y1="510.00" y2="90.00" />
<line x1="498.27" x2="498.27" y1="510.00" y2="90.00" />
<line x1="445.11" x2="445.11" y1="510.00" y2="90.00" />
<line x1="393.68" x2="393.68" y1="510.00" y2="90.00" />
<line x1="340.52" x2="340.52" y1="510.00" y2="90.00" />
<line x1="289.09" x2="289.09" y1="510.00" y2="90.00" />
<line x1="235.93" x2="235.93" y1="510.00" y2="90.00" />
<line x1="187.92" x2="187.92" y1="510.00" y2="90.00" />
<line x1="150.00" x2="850.00" y1="510.00" y2="510.00" />
<line x1="150.00" x2="850.00" y1="319.09" y2="319.09" />
<line x1="150.00" x2="850.00" y1="128.18" y2="128.18" />
</g>
<g>
<text dominant-baseline="hanging" dx="-36.0" dy="18.0" fill="#0004" font-family="Arial, sans-serif" font-size="36" stroke="none" text-anchor="end" x="850.00" y="128.18">R15</text>
</g>
<g>
<text dominant-baseline="text-bottom" dy="-12.0" fill="black" font-family="Arial, sans-serif" font-size="18.0" font-style="italic" stroke="none" text-anchor="middle" x="500.00" y="90.00">Days since start</text>
</g>
<g>
<text dominant-baseline="central" dx="12.0" dy="12.0" fill="black" font-family="Arial, sans-serif" font-size="18.0" font-style="italic" stroke="none" text-anchor="middle" text-orientation="sideways" writing-mode="vertical-lr" x="850.00" y="300.00">Drips per day</text>
</g>
<polyline fill="none" points="696.84,246.17 698.23,486.35 698.96,462.23 699.51,441.57 699.60,143.37 699.94,235.37 700.22,107.01 701.21,474.27 701.28,91.46 701.44,303.43 702.86,473.08 709.56,464.76 710.34,467.95 711.23,463.72 711.54,406.82 712.21,460.86 715.64,195.58 715.89,379.13 717.20,485.11 717.53,401.50 719.10,487.74 719.76,457.18 722.62,264.58 723.87,483.81 723.98,195.10 724.61,447.79" stroke-dasharray="3.6 3.6" stroke-width="3.6" stroke="#aaa" />
<g>
<circle cx="696.84" cy="246.17" r="1.6666666666666667" />
<circle cx="698.23" cy="486.35" r="1.6666666666666667" />
<circle cx="698.96" cy="462.23" r="1.6666666666666667" />
<circle cx="699.51" cy="441.57" r="1.6666666666666667" />
<circle cx="699.60" cy="143.37" r="1.6666666666666667" />
<circle cx="699.94" cy="235.37" r="1.6666666666666667" />
<circle cx="700.22" cy="107.01" r="1.6666666666666667" />
<circle cx="701.21" cy="474.27" r="1.6666666666666667" />
<circle cx="701.28" cy="91.46" r="1.6666666666666667" />
<circle cx="701.44" cy="303.43" r="1.6666666666666667" />
<circle cx="702.86" cy="473.08" r="1.6666666666666667" />
<circle cx="709.56" cy="464.76" r="1.6666666666666667" />
<circle cx="710.34" cy="467.95" r="1.6666666666666667" />
<circle cx="711.23" cy="463.72" r="1.6666666666666667" />
<circle cx="711.54" cy="406.82" r="1.6666666666666667" />
<circle cx="712.21" cy="460.86" r="1.6666666666666667" />
<circle cx="715.64" cy="195.58" r="1.6666666666666667" />
<circle cx="715.89" cy="379.13" r="1.6666666666666667" />
<circle cx="717.20" cy="485.11" r="1.6666666666666667" />
<circle cx="717.53" cy="401.50" r="1.6666666666666667" />
<circle cx="719.10" cy="487.74" r="1.6666666666666667" />
<circle cx="719.76" cy="457.18" r="1.6666666666666667" />
<circle cx="722.62" cy="264.58" r="1.6666666666666667" />
<circle cx="723.87" cy="483.81" r="1.6666666666666667" />
<circle cx="723.98" cy="195.10" r="1.6666666666666667" />
<circle cx="724.61" cy="447.79" r="1.6666666666666667" />
</g>
<g stroke="black">
<line x1="813.75" x2="813.75" y1="510.00" y2="520.00" />
<line x1="760.60" x2="760.60" y1="510.00" y2="520.00" />
<line x1="707.45" x2="707.45" y1="510.00" y2="520.00" />
<line x1="656.01" x2="656.01" y1="510.00" y2="520.00" />
<line x1="602.86" x2="602.86" y1="510.00" y2="520.00" />
<line x1="551.42" x2="551.42" y1="510.00" y2="520.00" />
<line x1="498.27" x2="498.27" y1="510.00" y2="520.00" />
<line x1="445.11" x2="445.11" y1="510.00" y2="520.00" />
<line x1="393.68" x2="393.68" y1="510.00" y2="520.00" />
<line x1="340.52" x2="340.52" y1="510.00" y2="520.00" />
<line x1="289.09" x2="289.09" y1="510.00" y2="520.00" />
<line x1="235.93" x2="235.93" y1="510.00" y2="520.00" />
<line x1="187.92" x2="187.92" y1="510.00" y2="520.00" />
<g fill="black" font-family="Arial, sans-serif" font-size="18.0" stroke="none" text-anchor="start" transform="translate(9.0 0.0)">
<text x="813.75" y="530.57">Feb</text>
<text x="760.60" y="530.57">Jan</text>
<text x="707.45" y="530.57">Dec</text>
<text x="656.01" y="530.57">Nov</text>
<text x="602.86" y="530.57">Oct</text>
<text x="551.42" y="530.57">Sep</text>
<text x="498.27" y="530.57">Aug</text>
<text x="445.11" y="530.57">Jul</text>
<text x="393.68" y="530.57">Jun</text>
<text x="340.52" y="530.57">May</text>
<text x="289.09" y="530.57">Apr</text>
<text x="235.93" y="530.57">Mar</text>
<text x="187.92" y="530.57">Feb</text>
</g>
<line x1="150.00" x2="850.00" y1="510.00" y2="510.00" />
</g>
<g stroke="black">
<line x1="150.00" x2="140.00" y1="510.00" y2="510.00" />
<line x1="150.00" x2="140.00" y1="319.09" y2="319.09" />
<line x1="150.00" x2="140.00" y1="128.18" y2="128.18" />
<g fill="black" font-family="Arial, sans-serif" font-size="18.0" stroke="none" text-anchor="end">
<text x="141.00" y="501.00">0</text>
<text x="141.00" y="310.09">10</text>
<text x="141.00" y="119.18">20</text>
</g>
<line x1="150.00" x2="150.00" y1="510.00" y2="90.00" />
</g>
</g>
</svg>