<?xml version="1.0"?>
<svg version="1.1" viewBox="0 0 1000 600" xmlns:xlink="http://www.w3.org/1999/xlink" xmlns="http://www.w3.org/2000/svg">
<g>
<g stroke-dasharray="3.6 7.2" stroke-width="0.72" stroke="#caa">
<line x1="813.75" x2="813.75" y1="510.00" y2="90.00" />
<line x1="760.60" x2="760.60" y1="510.00" y2="90.00" />
<line x1="707.45" x2="707.45" y1="510.00" y2="90.00" />
<line x1="656.01" x2="656.01" y1="510.00" y2="90.00" />
<line x1="602.86" x2="602.86" y1="510.00" y2="90.00" />
<line x1="551.42" x2="551.42" y1="510.00" y2="90.00" />
<line x1="498.27" x2="498.27" y1="510.00" y2="90.00" />
<line x1="445.11" x2="445.11" y1="510.00" y2="90.00" />
<line x1="393.68" x2="393.68" y1="510.00" y2="90.00" />
<line x1="340.52" x2="340.52" y1="510.00" y2="90.00" />
<line x1="289.09" x2="289.09" y1="510.00" y2="90.00" />
<line x1="235.93" x2="235.93" y1="510.00" y2="90.00" />
<line x1="187.92" x2="187.92" y1="510.00" y2="90.00" />
<line x1="150.00" x2="850.00" y1="510.00" y2="510.00" />
<line x1="150.00" x2="850.00" y1="319.09" y2="319.09" />
<line x1="150.00" x2="850.00" y1="128.18" y2="128.18" />
</g>
<g>
<text dominant-baseline="hanging" dx="-36.0" dy="18.0" fill="#0004" font-family="Arial, sans-serif" font-size="36" stroke="none" text-anchor="end" x="850.00" y="128.18">R16</text>
</g>
<g>
<text dominant-baseline="text-bottom" dy="-12.0" fill="black" font-family="Arial, sans-serif" font-size="18.0" font-style="italic" stroke="none" text-anchor="middle" x="500.00" y="90.00">Years 2023 to 2024</text>
</g>
<g>
<text dominant-baseline="central" dx="12.0" dy="12.0" fill="black" font-family="Arial, sans-serif" font-size="18.0" font-style="italic" stroke="none" text-anchor="middle" text-orientation="sideways" writing-mode="vertical-lr" x="850.00" y="300.00">Drips per day</text>
</g>
<polyline fill="none" points="611.49,439.51 611.93,435.14 612.45,447.29 612.85,428.33 613.37,446.84 613.77,429.65 614.29,446.47 614.71,432.85 615.25,449.28 615.68,432.87 616.19,445.46 616.59,429.74 617.07,441.11 617.49,432.55 617.99,444.28 618.38,427.22 618.89,445.81 619.28,425.65 619.76,441.01 620.17,430.21 620.67,445.50 621.11,434.42 621.60,443.21 622.01,430.57 622.53,446.84 622.97,436.60 623.51,449.27 623.92,428.90 624.43,446.76 624.86,432.84 625.35,443.28 625.76,430.44 626.30,448.80 626.71,431.04 627.22,445.42 627.63,431.57 628.17,448.90 628.60,433.82 629.15,450.33 629.61,438.94 630.13,447.68 630.58,436.26 631.09,446.27 631.57,441.14 632.07,444.53 632.53,438.89 633.07,449.41 633.49,432.47 634.02,448.69 634.50,440.92 635.03,448.13 635.50,440.85 636.02,447.13 636.50,442.03 637.03,448.44 637.49,437.95 661.20,382.39 661.54,411.61 661.83,397.45 662.16,411.51 662.43,389.46 662.77,411.93 663.06,397.09 663.40,416.09 663.67,386.58 664.00,409.67 664.26,385.31 664.59,410.15 664.84,382.08 665.16,405.86 665.44,393.96 665.77,411.20 666.06,397.39 666.40,414.45 666.70,398.69 667.03,410.70 667.32,399.56 667.65,409.36 667.92,390.17 668.27,416.73 668.55,390.77 668.89,413.46 669.16,391.94 669.50,412.72 669.80,401.15 670.15,417.27 670.43,390.42 670.75,407.11 671.00,379.40 671.32,407.90 671.62,402.17 671.99,420.38 672.24,383.75 672.57,410.27 672.81,373.79 673.16,415.99 673.46,401.33 673.82,417.48 674.08,383.40 674.41,411.45 674.68,390.88 675.02,413.23 675.28,382.01 675.60,408.42 675.86,386.90 676.19,410.50 676.47,392.12 676.81,412.75 677.08,389.37 677.42,415.16 677.70,392.02 678.03,410.02 678.28,378.00 678.58,400.87 678.83,379.15 679.12,397.05 679.35,369.57 679.62,390.96 679.87,378.55 680.15,389.70 680.35,351.34 680.60,378.62 680.80,345.70 681.05,378.33 681.25,349.05 681.51,384.22 681.72,353.64 681.97,378.86 682.17,341.93 682.40,368.42 682.59,341.46 682.82,368.23 683.03,349.23 683.28,381.47 683.49,349.53 683.75,388.49 683.94,336.99 684.19,378.23 684.39,344.03 684.64,377.36 684.84,348.35 685.08,373.15 685.28,344.82 685.52,376.44 685.72,342.36 685.97,379.59 686.17,350.88 686.42,377.65 686.64,358.72 686.89,379.34 687.09,349.92 687.35,383.82 687.55,348.16 687.82,387.79 688.04,357.54 688.28,375.00 688.50,360.23 688.76,384.18 688.97,357.74 689.25,391.75 689.46,357.60 689.74,389.43 689.95,355.31 690.22,391.12 690.46,370.93 690.72,386.71" stroke-dasharray="3.6 3.6" stroke-width="3.6" stroke="#aaa" />
<g>
<circle cx="611.49" cy="439.51" r="1.6666666666666667" />
<circle cx="611.93" cy="435.14" r="1.6666666666666667" />
<circle cx="612.45" cy="447.29" r="1.6666666666666667" />
<circle cx="612.85" cy="428.33" r="1.6666666666666667" />
<circle cx="613.37" cy="446.84" r="1.6666666666666667" />
<circle cx="613.77" cy="429.65" r="1.6666666666666667" />
<circle cx="614.29" cy="446.47" r="1.6666666666666667" />
<circle cx="614.71" cy="432.85" r="1.6666666666666667" />
<circle cx="615.25" cy="449.28" r="1.6666666666666667" />
<circle cx="615.68" cy="432.87" r="1.6666666666666667" />
<circle cx="616.19" cy="445.46" r="1.6666666666666667" />
<circle cx="616.59" cy="429.74" r="1.6666666666666667" />
<circle cx="617.07" cy="441.11" r="1.6666666666666667" />
<circle cx="617.49" cy="432.55" r="1.6666666666666667" />
<circle cx="617.99" cy="444.28" r="1.6666666666666667" />
<circle cx="618.38" cy="427.22" r="1.6666666666666667" />
<circle cx="618.89" cy="445.81" r="1.6666666666666667" />
<circle cx="619.28" cy="425.65" r="1.6666666666666667" />
<circle cx="619.76" cy="441.01" r="1.6666666666666667" />
<circle cx="620.17" cy="430.21" r="1.6666666666666667" />
<circle cx="620.67" cy="445.50" r="1.6666666666666667" />
<circle cx="621.11" cy="434.42" r="1.6666666666666667" />
<circle cx="621.60" cy="443.21" r="1.6666666666666667" />
<circle cx="622.01" cy="430.57" r="1.6666666666666667" />
<circle cx="622.53" cy="446.84" r="1.6666666666666667" />
<circle cx="622.97" cy="436.60" r="1.6666666666666667" />
<circle cx="623.51" cy="449.27" r="1.6666666666666667" />
<circle cx="623.92" cy="428.90" r="1.6666666666666667" />
<circle cx="624.43" cy="446.76" r="1.6666666666666667" />
<circle cx="624.86" cy="432.84" r="1.6666666666666667" />
<circle cx="625.35" cy="443.28" r="1.6666666666666667" />
<circle cx="625.76" cy="430.44" r="1.6666666666666667" />
<circle cx="626.30" cy="448.80" r="1.6666666666666667" />
<circle cx="626.71" cy="431.04" r="1.6666666666666667" />
<circle cx="627.22" cy="445.42" r="1.6666666666666667" />
<circle cx="627.63" cy="431.57" r="1.6666666666666667" />
<circle cx="628.17" cy="448.90" r="1.6666666666666667" />
<circle cx="628.60" cy="433.82" r="1.6666666666666667" />
<circle cx="629.15" cy="450.33" r="1.6666666666666667" />
<circle cx="629.61" cy="438.94" r="1.6666666666666667" />
<circle cx="630.13" cy="447.68" r="1.6666666666666667" />
<circle cx="630.58" cy="436.26" r="1.6666666666666667" />
<circle cx="631.09" cy="446.27" r="1.6666666666666667" />
<circle cx="631.57" cy="441.14" r="1.6666666666666667" />
<circle cx="632.07" cy="444.53" r="1.6666666666666667" />
<circle cx="632.53" cy="438.89" r="1.6666666666666667" />
<circle cx="633.07" cy="449.41" r="1.6666666666666667" />
<circle cx="633.49" cy="432.47" r="1.6666666666666667" />
<circle cx="634.02" cy="448.69" r="1.6666666666666667" />
<circle cx="634.50" cy="440.92" r="1.6666666666666667" />
<circle cx="635.03" cy="448.13" r="1.6666666666666667" />
<circle cx="635.50" cy="440.85" r="1.6666666666666667" />
<circle cx="636.02" cy="447.13" r="1.6666666666666667" />
<circle cx="636.50" cy="442.03" r="1.6666666666666667" />
<circle cx="637.03" cy="448.44" r="1.6666666666666667" />
<circle cx="637.49" cy="437.95" r="1.6666666666666667" />
<circle cx="661.20" cy="382.39" r="1.6666666666666667" />
<circle cx="661.54" cy="411.61" r="1.6666666666666667" />
<circle cx="661.83" cy="397.45" r="1.6666666666666667" />
<circle cx="662.16" cy="411.51" r="1.6666666666666667" />
<circle cx="662.43" cy="389.46" r="1.6666666666666667" />
<circle cx="662.77" cy="411.93" r="1.6666666666666667" />
<circle cx="663.06" cy="397.09" r="1.6666666666666667" />
<circle cx="663.40" cy="416.09" r="1.6666666666666667" />
<circle cx="663.67" cy="386.58" r="1.6666666666666667" />
<circle cx="664.00" cy="409.67" r="1.6666666666666667" />
<circle cx="664.26" cy="385.31" r="1.6666666666666667" />
<circle cx="664.59" cy="410.15" r="1.6666666666666667" />
<circle cx="664.84" cy="382.08" r="1.6666666666666667" />
<circle cx="665.16" cy="405.86" r="1.6666666666666667" />
<circle cx="665.44" cy="393.96" r="1.6666666666666667" />
<circle cx="665.77" cy="411.20" r="1.6666666666666667" />
<circle cx="666.06" cy="397.39" r="1.6666666666666667" />
<circle cx="666.40" cy="414.45" r="1.6666666666666667" />
<circle cx="666.70" cy="398.69" r="1.6666666666666667" />
<circle cx="667.03" cy="410.70" r="1.6666666666666667" />
<circle cx="667.32" cy="399.56" r="1.6666666666666667" />
<circle cx="667.65" cy="409.36" r="1.6666666666666667" />
<circle cx="667.92" cy="390.17" r="1.6666666666666667" />
<circle cx="668.27" cy="416.73" r="1.6666666666666667" />
<circle cx="668.55" cy="390.77" r="1.6666666666666667" />
<circle cx="668.89" cy="413.46" r="1.6666666666666667" />
<circle cx="669.16" cy="391.94" r="1.6666666666666667" />
<circle cx="669.50" cy="412.72" r="1.6666666666666667" />
<circle cx="669.80" cy="401.15" r="1.6666666666666667" />
<circle cx="670.15" cy="417.27" r="1.6666666666666667" />
<circle cx="670.43" cy="390.42" r="1.6666666666666667" />
<circle cx="670.75" cy="407.11" r="1.6666666666666667" />
<circle cx="671.00" cy="379.40" r="1.6666666666666667" />
<circle cx="671.32" cy="407.90" r="1.6666666666666667" />
<circle cx="671.62" cy="402.17" r="1.6666666666666667" />
<circle cx="671.99" cy="420.38" r="1.6666666666666667" />
<circle cx="672.24" cy="383.75" r="1.6666666666666667" />
<circle cx="672.57" cy="410.27" r="1.6666666666666667" />
<circle cx="672.81" cy="373.79" r="1.6666666666666667" />
<circle cx="673.16" cy="415.99" r="1.6666666666666667" />
<circle cx="673.46" cy="401.33" r="1.6666666666666667" />
<circle cx="673.82" cy="417.48" r="1.6666666666666667" />
<circle cx="674.08" cy="383.40" r="1.6666666666666667" />
<circle cx="674.41" cy="411.45" r="1.6666666666666667" />
<circle cx="674.68" cy="390.88" r="1.6666666666666667" />
<circle cx="675.02" cy="413.23" r="1.6666666666666667" />
<circle cx="675.28" cy="382.01" r="1.6666666666666667" />
<circle cx="675.60" cy="408.42" r="1.6666666666666667" />
<circle cx="675.86" cy="386.90" r="1.6666666666666667" />
<circle cx="676.19" cy="410.50" r="1.6666666666666667" />
<circle cx="676.47" cy="392.12" r="1.6666666666666667" />
<circle cx="676.81" cy="412.75" r="1.6666666666666667" />
<circle cx="677.08" cy="389.37" r="1.6666666666666667" />
<circle cx="677.42" cy="415.16" r="1.6666666666666667" />
<circle cx="677.70" cy="392.02" r="1.6666666666666667" />
<circle cx="678.03" cy="410.02" r="1.6666666666666667" />
<circle cx="678.28" cy="378.00" r="1.6666666666666667" />
<circle cx="678.58" cy="400.87" r="1.6666666666666667" />
<circle cx="678.83" cy="379.15" r="1.6666666666666667" />
<circle cx="679.12" cy="397.05" r="1.6666666666666667" />
<circle cx="679.35" cy="369.57" r="1.6666666666666667" />
<circle cx="679.62" cy="390.96" r="1.6666666666666667" />
<circle cx="679.87" cy="378.55" r="1.6666666666666667" />
<circle cx="680.15" cy="389.70" r="1.6666666666666667" />
<circle cx="680.35" cy="351.34" r="1.6666666666666667" />
<circle cx="680.60" cy="378.62" r="1.6666666666666667" />
<circle cx="680.80" cy="345.70" r="1.6666666666666667" />
<circle cx="681.05" cy="378.33" r="1.6666666666666667" />
<circle cx="681.25" cy="349.05" r="1.6666666666666667" />
<circle cx="681.51" cy="384.22" r="1.6666666666666667" />
<circle cx="681.72" cy="353.64" r="1.6666666666666667" />
<circle cx="681.97" cy="378.86" r="1.6666666666666667" />
<circle cx="682.17" cy="341.93" r="1.6666666666666667" />
<circle cx="682.40" cy="368.42" r="1.6666666666666667" />
<circle cx="682.59" cy="341.46" r="1.6666666666666667" />
<circle cx="682.82" cy="368.23" r="1.6666666666666667" />
<circle cx="683.03" cy="349.23" r="1.6666666666666667" />
<circle cx="683.28" cy="381.47" r="1.6666666666666667" />
<circle cx="683.49" cy="349.53" r="1.6666666666666667" />
<circle cx="683.75" cy="388.49" r="1.6666666666666667" />
<circle cx="683.94" cy="336.99" r="1.6666666666666667" />
<circle cx="684.19" cy="378.23" r="1.6666666666666667" />
<circle cx="684.39" cy="344.03" r="1.6666666666666667" />
<circle cx="684.64" cy="377.36" r="1.6666666666666667" />
<circle cx="684.84" cy="348.35" r="1.6666666666666667" />
<circle cx="685.08" cy="373.15" r="1.6666666666666667" />
<circle cx="685.28" cy="344.82" r="1.6666666666666667" />
<circle cx="685.52" cy="376.44" r="1.6666666666666667" />
<circle cx="685.72" cy="342.36" r="1.6666666666666667" />
<circle cx="685.97" cy="379.59" r="1.6666666666666667" />
<circle cx="686.17" cy="350.88" r="1.6666666666666667" />
<circle cx="686.42" cy="377.65" r="1.6666666666666667" />
<circle cx="686.64" cy="358.72" r="1.6666666666666667" />
<circle cx="686.89" cy="379.34" r="1.6666666666666667" />
<circle cx="687.09" cy="349.92" r="1.6666666666666667" />
<circle cx="687.35" cy="383.82" r="1.6666666666666667" />
<circle cx="687.55" cy="348.16" r="1.6666666666666667" />
<circle cx="687.82" cy="387.79" r="1.6666666666666667" />
<circle cx="688.04" cy="357.54" r="1.6666666666666667" />
<circle cx="688.28" cy="375.00" r="1.6666666666666667" />
<circle cx="688.50" cy="360.23" r="1.6666666666666667" />
<circle cx="688.76" cy="384.18" r="1.6666666666666667" />
<circle cx="688.97" cy="357.74" r="1.6666666666666667" />
<circle cx="689.25" cy="391.75" r="1.6666666666666667" />
<circle cx="689.46" cy="357.60" r="1.6666666666666667" />
<circle cx="689.74" cy="389.43" r="1.6666666666666667" />
<circle cx="689.95" cy="355.31" r="1.6666666666666667" />
<circle cx="690.22" cy="391.12" r="1.6666666666666667" />
<circle cx="690.46" cy="370.93" r="1.6666666666666667" />
<circle cx="690.72" cy="386.71" r="1.6666666666666667" />
</g>
<g stroke="black">
<line x1="813.75" x2="813.75" y1="510.00" y2="520.00" />
<line x1="760.60" x2="760.60" y1="510.00" y2="520.00" />
<line x1="707.45" x2="707.45" y1="510.00" y2="520.00" />
<line x1="656.01" x2="656.01" y1="510.00" y2="520.00" />
<line x1="602.86" x2="602.86" y1="510.00" y2="520.00" />
<line x1="551.42" x2="551.42" y1="510.00" y2="520.00" />
<line x1="498.27" x2="498.27" y1="510.00" y2="520.00" />
<line x1="445.11" x2="445.11" y1="510.00" y2="520.00" />
<line x1="393.68" x2="393.68" y1="510.00" y2="520.00" />
<line x1="340.52" x2="340.52" y1="510.00" y2="520.00" />
<line x1="289.09" x2="289.09" y1="510.00" y2="520.00" />
<line x1="235.93" x2="235.93" y1="510.00" y2="520.00" />
<line x1="187.92" x2="187.92" y1="510.00" y2="520.00" />
<g fill="black" font-family="Arial, sans-serif" font-size="18.0" stroke="none" text-anchor="start" transform="translate(9.0 0.0)">
<text x="813.75" y="530.57">Feb</text>
<text x="760.60" y="530.57">Jan</text>
<text x="707.45" y="530.57">Dec</text>
<text x="656.01" y="530.57">Nov</text>
<text x="602.86" y="530.57">Oct</text>
<text x="551.42" y="530.57">Sep</text>
<text x="498.27" y="530.57">Aug</text>
<text x="445.11" y="530.57">Jul</text>
<text x="393.68" y="530.57">Jun</text>
<text x="340.52" y="530.57">May</text>
<text x="289.09" y="530.57">Apr</text>
<text x="235.93" y="530.57">Mar</text>
<text x="187.92" y="530.57">Feb</text>
</g>
<line x1="150.00" x2="850.00" y1="510.00" y2="510.00" />
</g>
<g stroke="black">
<line x1="150.00" x2="140.00" y1="510.00" y2="510.00" />
<line x1="150.00" x2="140.00" y1="319.09" y2="319.09" />
<line x1="150.00" x2="140.00" y1="128.18" y2="128.18" />
<g fill="black" font-family="Arial, sans-serif" font-size="18.0" stroke="none" text-anchor="end">
<text x="141.00" y="501.00">0</text>
<text x="141.00" y="310.09">10</text>
<text x="141.00" y="119.18">20</text>
</g>
<line x1="150.00" x2="150.00" y1="510.00" y2="90.00" />
</g>
</g>
</svg>