<?xml version="1.0"?>
<svg version="1.1" viewBox="0 0 1000 600" xmlns:xlink="http://www.w3.org/1999/xlink" xmlns="http://www.w3.org/2000/svg">
<g>
<g stroke-dasharray="3.6 7.2" stroke-width="0.72" stroke="#caa">
<line x1="839.86" x2="839.86" y1="510.00" y2="90.00" />
<line x1="791.78" x2="791.78" y1="510.00" y2="90.00" />
<line x1="740.39" x2="740.39" y1="510.00" y2="90.00" />
<line x1="689.00" x2="689.00" y1="510.00" y2="90.00" />
<line x1="639.26" x2="639.26" y1="510.00" y2="90.00" />
<line x1="587.87" x2="587.87" y1="510.00" y2="90.00" />
<line x1="538.13" x2="538.13" y1="510.00" y2="90.00" />
<line x1="486.74" x2="486.74" y1="510.00" y2="90.00" />
<line x1="435.35" x2="435.35" y1="510.00" y2="90.00" />
<line x1="385.61" x2="385.61" y1="510.00" y2="90.00" />
<line x1="334.22" x2="334.22" y1="510.00" y2="90.00" />
<line x1="284.48" x2="284.48" y1="510.00" y2="90.00" />
<line x1="233.09" x2="233.09" y1="510.00" y2="90.00" />
<line x1="186.67" x2="186.67" y1="510.00" y2="90.00" />
<line x1="150.00" x2="850.00" y1="510.00" y2="510.00" />
<line x1="150.00" x2="850.00" y1="216.29" y2="216.29" />
</g>
<g>
<text dominant-baseline="hanging" dx="-36.0" dy="18.0" fill="#0004" font-family="Arial, sans-serif" font-size="36" stroke="none" text-anchor="end" x="850.00" y="128.18">R16</text>
</g>
<g>
<text dominant-baseline="text-bottom" dy="-12.0" fill="black" font-family="Arial, sans-serif" font-size="18.0" font-style="italic" stroke="none" text-anchor="middle" x="500.00" y="90.00">Years 2023 to 2024</text>
</g>
<g>
<text dominant-baseline="central" dx="12.0" dy="12.0" fill="black" font-family="Arial, sans-serif" font-size="18.0" font-style="italic" stroke="none" text-anchor="middle" text-orientation="sideways" writing-mode="vertical-lr" x="850.00" y="300.00">log(Drips per day)</text>
</g>
<polyline fill="none" points="596.21,471.63 596.64,469.87 597.14,475.07 597.53,467.31 598.03,474.86 598.42,467.79 598.92,474.69 599.33,468.98 599.85,476.02 600.26,468.99 600.75,474.23 601.15,467.82 601.61,472.31 602.02,468.87 602.50,473.69 602.88,466.91 603.37,474.38 603.75,466.36 604.21,472.27 604.60,467.99 605.09,474.24 605.51,469.59 605.99,473.22 606.39,468.13 606.89,474.86 607.32,470.44 607.84,476.01 608.23,467.52 608.73,474.82 609.14,468.98 609.61,473.25 610.01,468.08 610.53,475.79 610.93,468.30 611.42,474.21 611.82,468.50 612.34,475.83 612.76,469.35 613.29,476.53 613.73,471.40 614.24,475.25 614.67,470.31 615.17,474.60 615.63,472.32 616.11,473.80 616.55,471.38 617.08,476.08 617.48,468.84 618.00,475.73 618.46,472.23 618.97,475.47 619.43,472.20 619.93,475.00 620.40,472.70 620.91,475.61 621.35,470.99 644.28,454.20 644.60,461.84 644.89,457.89 645.21,461.81 645.47,455.88 645.79,461.94 646.07,457.80 646.41,463.21 646.67,455.18 646.98,461.27 647.24,454.88 647.55,461.41 647.80,454.13 648.10,460.17 648.38,457.00 648.70,461.72 648.98,457.88 649.31,462.70 649.59,458.22 649.91,461.57 650.20,458.45 650.51,461.18 650.78,456.05 651.12,463.41 651.38,456.20 651.71,462.40 651.98,456.49 652.30,462.17 652.59,458.87 652.94,463.58 653.20,456.11 653.51,460.53 653.75,453.52 654.06,460.75 654.35,459.15 654.71,464.58 654.96,454.52 655.27,461.44 655.51,452.29 655.84,463.18 656.13,458.92 656.48,463.65 656.73,454.44 657.05,461.79 657.31,456.22 657.64,462.33 657.89,454.11 658.20,460.90 658.46,455.26 658.77,461.51 659.04,456.53 659.37,462.18 659.63,455.86 659.96,462.92 660.23,456.51 660.55,461.37 660.79,453.21 661.08,458.80 661.32,453.47 661.60,457.79 661.83,451.39 662.09,456.24 662.33,453.33 662.60,455.93 662.80,447.81 663.04,453.35 663.23,446.78 663.47,453.28 663.67,447.38 663.92,454.63 664.12,448.23 664.36,453.40 664.55,446.11 664.77,451.15 664.96,446.03 665.18,451.11 665.38,447.42 665.63,453.99 665.83,447.47 666.09,455.64 666.27,445.26 666.51,453.26 666.70,446.48 666.94,453.07 667.13,447.26 667.37,452.15 667.56,446.62 667.79,452.86 667.98,446.19 668.23,453.56 668.42,447.72 668.66,453.13 668.87,449.20 669.11,453.51 669.31,447.54 669.56,454.53 669.76,447.22 670.02,455.47 670.23,448.98 670.46,452.55 670.67,449.50 670.92,454.62 671.13,449.02 671.40,456.44 671.61,448.99 671.87,455.87 672.07,448.55 672.34,456.28 672.57,451.68 672.82,455.21" stroke-dasharray="3.6 3.6" stroke-width="3.6" stroke="#aaa" />
<g>
<circle cx="596.21" cy="471.63" r="1.6666666666666667" />
<circle cx="596.64" cy="469.87" r="1.6666666666666667" />
<circle cx="597.14" cy="475.07" r="1.6666666666666667" />
<circle cx="597.53" cy="467.31" r="1.6666666666666667" />
<circle cx="598.03" cy="474.86" r="1.6666666666666667" />
<circle cx="598.42" cy="467.79" r="1.6666666666666667" />
<circle cx="598.92" cy="474.69" r="1.6666666666666667" />
<circle cx="599.33" cy="468.98" r="1.6666666666666667" />
<circle cx="599.85" cy="476.02" r="1.6666666666666667" />
<circle cx="600.26" cy="468.99" r="1.6666666666666667" />
<circle cx="600.75" cy="474.23" r="1.6666666666666667" />
<circle cx="601.15" cy="467.82" r="1.6666666666666667" />
<circle cx="601.61" cy="472.31" r="1.6666666666666667" />
<circle cx="602.02" cy="468.87" r="1.6666666666666667" />
<circle cx="602.50" cy="473.69" r="1.6666666666666667" />
<circle cx="602.88" cy="466.91" r="1.6666666666666667" />
<circle cx="603.37" cy="474.38" r="1.6666666666666667" />
<circle cx="603.75" cy="466.36" r="1.6666666666666667" />
<circle cx="604.21" cy="472.27" r="1.6666666666666667" />
<circle cx="604.60" cy="467.99" r="1.6666666666666667" />
<circle cx="605.09" cy="474.24" r="1.6666666666666667" />
<circle cx="605.51" cy="469.59" r="1.6666666666666667" />
<circle cx="605.99" cy="473.22" r="1.6666666666666667" />
<circle cx="606.39" cy="468.13" r="1.6666666666666667" />
<circle cx="606.89" cy="474.86" r="1.6666666666666667" />
<circle cx="607.32" cy="470.44" r="1.6666666666666667" />
<circle cx="607.84" cy="476.01" r="1.6666666666666667" />
<circle cx="608.23" cy="467.52" r="1.6666666666666667" />
<circle cx="608.73" cy="474.82" r="1.6666666666666667" />
<circle cx="609.14" cy="468.98" r="1.6666666666666667" />
<circle cx="609.61" cy="473.25" r="1.6666666666666667" />
<circle cx="610.01" cy="468.08" r="1.6666666666666667" />
<circle cx="610.53" cy="475.79" r="1.6666666666666667" />
<circle cx="610.93" cy="468.30" r="1.6666666666666667" />
<circle cx="611.42" cy="474.21" r="1.6666666666666667" />
<circle cx="611.82" cy="468.50" r="1.6666666666666667" />
<circle cx="612.34" cy="475.83" r="1.6666666666666667" />
<circle cx="612.76" cy="469.35" r="1.6666666666666667" />
<circle cx="613.29" cy="476.53" r="1.6666666666666667" />
<circle cx="613.73" cy="471.40" r="1.6666666666666667" />
<circle cx="614.24" cy="475.25" r="1.6666666666666667" />
<circle cx="614.67" cy="470.31" r="1.6666666666666667" />
<circle cx="615.17" cy="474.60" r="1.6666666666666667" />
<circle cx="615.63" cy="472.32" r="1.6666666666666667" />
<circle cx="616.11" cy="473.80" r="1.6666666666666667" />
<circle cx="616.55" cy="471.38" r="1.6666666666666667" />
<circle cx="617.08" cy="476.08" r="1.6666666666666667" />
<circle cx="617.48" cy="468.84" r="1.6666666666666667" />
<circle cx="618.00" cy="475.73" r="1.6666666666666667" />
<circle cx="618.46" cy="472.23" r="1.6666666666666667" />
<circle cx="618.97" cy="475.47" r="1.6666666666666667" />
<circle cx="619.43" cy="472.20" r="1.6666666666666667" />
<circle cx="619.93" cy="475.00" r="1.6666666666666667" />
<circle cx="620.40" cy="472.70" r="1.6666666666666667" />
<circle cx="620.91" cy="475.61" r="1.6666666666666667" />
<circle cx="621.35" cy="470.99" r="1.6666666666666667" />
<circle cx="644.28" cy="454.20" r="1.6666666666666667" />
<circle cx="644.60" cy="461.84" r="1.6666666666666667" />
<circle cx="644.89" cy="457.89" r="1.6666666666666667" />
<circle cx="645.21" cy="461.81" r="1.6666666666666667" />
<circle cx="645.47" cy="455.88" r="1.6666666666666667" />
<circle cx="645.79" cy="461.94" r="1.6666666666666667" />
<circle cx="646.07" cy="457.80" r="1.6666666666666667" />
<circle cx="646.41" cy="463.21" r="1.6666666666666667" />
<circle cx="646.67" cy="455.18" r="1.6666666666666667" />
<circle cx="646.98" cy="461.27" r="1.6666666666666667" />
<circle cx="647.24" cy="454.88" r="1.6666666666666667" />
<circle cx="647.55" cy="461.41" r="1.6666666666666667" />
<circle cx="647.80" cy="454.13" r="1.6666666666666667" />
<circle cx="648.10" cy="460.17" r="1.6666666666666667" />
<circle cx="648.38" cy="457.00" r="1.6666666666666667" />
<circle cx="648.70" cy="461.72" r="1.6666666666666667" />
<circle cx="648.98" cy="457.88" r="1.6666666666666667" />
<circle cx="649.31" cy="462.70" r="1.6666666666666667" />
<circle cx="649.59" cy="458.22" r="1.6666666666666667" />
<circle cx="649.91" cy="461.57" r="1.6666666666666667" />
<circle cx="650.20" cy="458.45" r="1.6666666666666667" />
<circle cx="650.51" cy="461.18" r="1.6666666666666667" />
<circle cx="650.78" cy="456.05" r="1.6666666666666667" />
<circle cx="651.12" cy="463.41" r="1.6666666666666667" />
<circle cx="651.38" cy="456.20" r="1.6666666666666667" />
<circle cx="651.71" cy="462.40" r="1.6666666666666667" />
<circle cx="651.98" cy="456.49" r="1.6666666666666667" />
<circle cx="652.30" cy="462.17" r="1.6666666666666667" />
<circle cx="652.59" cy="458.87" r="1.6666666666666667" />
<circle cx="652.94" cy="463.58" r="1.6666666666666667" />
<circle cx="653.20" cy="456.11" r="1.6666666666666667" />
<circle cx="653.51" cy="460.53" r="1.6666666666666667" />
<circle cx="653.75" cy="453.52" r="1.6666666666666667" />
<circle cx="654.06" cy="460.75" r="1.6666666666666667" />
<circle cx="654.35" cy="459.15" r="1.6666666666666667" />
<circle cx="654.71" cy="464.58" r="1.6666666666666667" />
<circle cx="654.96" cy="454.52" r="1.6666666666666667" />
<circle cx="655.27" cy="461.44" r="1.6666666666666667" />
<circle cx="655.51" cy="452.29" r="1.6666666666666667" />
<circle cx="655.84" cy="463.18" r="1.6666666666666667" />
<circle cx="656.13" cy="458.92" r="1.6666666666666667" />
<circle cx="656.48" cy="463.65" r="1.6666666666666667" />
<circle cx="656.73" cy="454.44" r="1.6666666666666667" />
<circle cx="657.05" cy="461.79" r="1.6666666666666667" />
<circle cx="657.31" cy="456.22" r="1.6666666666666667" />
<circle cx="657.64" cy="462.33" r="1.6666666666666667" />
<circle cx="657.89" cy="454.11" r="1.6666666666666667" />
<circle cx="658.20" cy="460.90" r="1.6666666666666667" />
<circle cx="658.46" cy="455.26" r="1.6666666666666667" />
<circle cx="658.77" cy="461.51" r="1.6666666666666667" />
<circle cx="659.04" cy="456.53" r="1.6666666666666667" />
<circle cx="659.37" cy="462.18" r="1.6666666666666667" />
<circle cx="659.63" cy="455.86" r="1.6666666666666667" />
<circle cx="659.96" cy="462.92" r="1.6666666666666667" />
<circle cx="660.23" cy="456.51" r="1.6666666666666667" />
<circle cx="660.55" cy="461.37" r="1.6666666666666667" />
<circle cx="660.79" cy="453.21" r="1.6666666666666667" />
<circle cx="661.08" cy="458.80" r="1.6666666666666667" />
<circle cx="661.32" cy="453.47" r="1.6666666666666667" />
<circle cx="661.60" cy="457.79" r="1.6666666666666667" />
<circle cx="661.83" cy="451.39" r="1.6666666666666667" />
<circle cx="662.09" cy="456.24" r="1.6666666666666667" />
<circle cx="662.33" cy="453.33" r="1.6666666666666667" />
<circle cx="662.60" cy="455.93" r="1.6666666666666667" />
<circle cx="662.80" cy="447.81" r="1.6666666666666667" />
<circle cx="663.04" cy="453.35" r="1.6666666666666667" />
<circle cx="663.23" cy="446.78" r="1.6666666666666667" />
<circle cx="663.47" cy="453.28" r="1.6666666666666667" />
<circle cx="663.67" cy="447.38" r="1.6666666666666667" />
<circle cx="663.92" cy="454.63" r="1.6666666666666667" />
<circle cx="664.12" cy="448.23" r="1.6666666666666667" />
<circle cx="664.36" cy="453.40" r="1.6666666666666667" />
<circle cx="664.55" cy="446.11" r="1.6666666666666667" />
<circle cx="664.77" cy="451.15" r="1.6666666666666667" />
<circle cx="664.96" cy="446.03" r="1.6666666666666667" />
<circle cx="665.18" cy="451.11" r="1.6666666666666667" />
<circle cx="665.38" cy="447.42" r="1.6666666666666667" />
<circle cx="665.63" cy="453.99" r="1.6666666666666667" />
<circle cx="665.83" cy="447.47" r="1.6666666666666667" />
<circle cx="666.09" cy="455.64" r="1.6666666666666667" />
<circle cx="666.27" cy="445.26" r="1.6666666666666667" />
<circle cx="666.51" cy="453.26" r="1.6666666666666667" />
<circle cx="666.70" cy="446.48" r="1.6666666666666667" />
<circle cx="666.94" cy="453.07" r="1.6666666666666667" />
<circle cx="667.13" cy="447.26" r="1.6666666666666667" />
<circle cx="667.37" cy="452.15" r="1.6666666666666667" />
<circle cx="667.56" cy="446.62" r="1.6666666666666667" />
<circle cx="667.79" cy="452.86" r="1.6666666666666667" />
<circle cx="667.98" cy="446.19" r="1.6666666666666667" />
<circle cx="668.23" cy="453.56" r="1.6666666666666667" />
<circle cx="668.42" cy="447.72" r="1.6666666666666667" />
<circle cx="668.66" cy="453.13" r="1.6666666666666667" />
<circle cx="668.87" cy="449.20" r="1.6666666666666667" />
<circle cx="669.11" cy="453.51" r="1.6666666666666667" />
<circle cx="669.31" cy="447.54" r="1.6666666666666667" />
<circle cx="669.56" cy="454.53" r="1.6666666666666667" />
<circle cx="669.76" cy="447.22" r="1.6666666666666667" />
<circle cx="670.02" cy="455.47" r="1.6666666666666667" />
<circle cx="670.23" cy="448.98" r="1.6666666666666667" />
<circle cx="670.46" cy="452.55" r="1.6666666666666667" />
<circle cx="670.67" cy="449.50" r="1.6666666666666667" />
<circle cx="670.92" cy="454.62" r="1.6666666666666667" />
<circle cx="671.13" cy="449.02" r="1.6666666666666667" />
<circle cx="671.40" cy="456.44" r="1.6666666666666667" />
<circle cx="671.61" cy="448.99" r="1.6666666666666667" />
<circle cx="671.87" cy="455.87" r="1.6666666666666667" />
<circle cx="672.07" cy="448.55" r="1.6666666666666667" />
<circle cx="672.34" cy="456.28" r="1.6666666666666667" />
<circle cx="672.57" cy="451.68" r="1.6666666666666667" />
<circle cx="672.82" cy="455.21" r="1.6666666666666667" />
</g>
<g stroke="black">
<line x1="839.86" x2="839.86" y1="510.00" y2="520.00" />
<line x1="791.78" x2="791.78" y1="510.00" y2="520.00" />
<line x1="740.39" x2="740.39" y1="510.00" y2="520.00" />
<line x1="689.00" x2="689.00" y1="510.00" y2="520.00" />
<line x1="639.26" x2="639.26" y1="510.00" y2="520.00" />
<line x1="587.87" x2="587.87" y1="510.00" y2="520.00" />
<line x1="538.13" x2="538.13" y1="510.00" y2="520.00" />
<line x1="486.74" x2="486.74" y1="510.00" y2="520.00" />
<line x1="435.35" x2="435.35" y1="510.00" y2="520.00" />
<line x1="385.61" x2="385.61" y1="510.00" y2="520.00" />
<line x1="334.22" x2="334.22" y1="510.00" y2="520.00" />
<line x1="284.48" x2="284.48" y1="510.00" y2="520.00" />
<line x1="233.09" x2="233.09" y1="510.00" y2="520.00" />
<line x1="186.67" x2="186.67" y1="510.00" y2="520.00" />
<g fill="black" font-family="Arial, sans-serif" font-size="18.0" stroke="none" text-anchor="start" transform="translate(9.0 0.0)">
<text x="839.86" y="530.57">Mar</text>
<text x="791.78" y="530.57">Feb</text>
<text x="740.39" y="530.57">Jan</text>
<text x="689.00" y="530.57">Dec</text>
<text x="639.26" y="530.57">Nov</text>
<text x="587.87" y="530.57">Oct</text>
<text x="538.13" y="530.57">Sep</text>
<text x="486.74" y="530.57">Aug</text>
<text x="435.35" y="530.57">Jul</text>
<text x="385.61" y="530.57">Jun</text>
<text x="334.22" y="530.57">May</text>
<text x="284.48" y="530.57">Apr</text>
<text x="233.09" y="530.57">Mar</text>
<text x="186.67" y="530.57">Feb</text>
</g>
<line x1="150.00" x2="850.00" y1="510.00" y2="510.00" />
</g>
<g stroke="black">
<line x1="150.00" x2="140.00" y1="510.00" y2="510.00" />
<line x1="150.00" x2="140.00" y1="216.29" y2="216.29" />
<g fill="black" font-family="Arial, sans-serif" font-size="18.0" stroke="none" text-anchor="end">
<text x="141.00" y="501.00">0</text>
<text x="141.00" y="207.29">10</text>
</g>
<line x1="150.00" x2="150.00" y1="510.00" y2="90.00" />
</g>
</g>
</svg>