<?xml version="1.0"?>
<svg version="1.1" viewBox="0 0 1000 600" xmlns:xlink="http://www.w3.org/1999/xlink" xmlns="http://www.w3.org/2000/svg">
<g>
<g stroke-dasharray="3.6 7.2" stroke-width="0.72" stroke="#caa">
<line x1="214.49" x2="214.49" y1="510.00" y2="90.00" />
<line x1="365.97" x2="365.97" y1="510.00" y2="90.00" />
<line x1="517.45" x2="517.45" y1="510.00" y2="90.00" />
<line x1="668.93" x2="668.93" y1="510.00" y2="90.00" />
<line x1="820.41" x2="820.41" y1="510.00" y2="90.00" />
<line x1="150.00" x2="850.00" y1="482.41" y2="482.41" />
<line x1="150.00" x2="850.00" y1="423.45" y2="423.45" />
<line x1="150.00" x2="850.00" y1="364.50" y2="364.50" />
<line x1="150.00" x2="850.00" y1="305.54" y2="305.54" />
<line x1="150.00" x2="850.00" y1="246.59" y2="246.59" />
<line x1="150.00" x2="850.00" y1="187.63" y2="187.63" />
<line x1="150.00" x2="850.00" y1="128.67" y2="128.67" />
</g>
<g>
<text dominant-baseline="hanging" dx="-36.0" dy="18.0" fill="#0004" font-family="Arial, sans-serif" font-size="36" stroke="none" text-anchor="end" x="850.00" y="125.00">R16</text>
</g>
<g>
<text dominant-baseline="text-bottom" dy="-12.0" fill="black" font-family="Arial, sans-serif" font-size="18.0" font-style="italic" stroke="none" text-anchor="middle" x="500.00" y="90.00">Days since start</text>
</g>
<g>
<text dominant-baseline="central" dx="12.0" dy="12.0" fill="black" font-family="Arial, sans-serif" font-size="18.0" font-style="italic" stroke="none" text-anchor="middle" text-orientation="sideways" writing-mode="vertical-lr" x="850.00" y="300.00">Drips per day</text>
</g>
<polyline fill="none" points="150.00,441.59 153.86,428.10 158.47,465.63 162.02,407.07 166.59,464.24 170.19,411.15 174.75,463.09 178.49,421.03 183.26,471.76 187.01,421.08 191.49,459.98 195.09,411.43 199.29,446.53 203.02,420.10 207.42,456.32 210.92,403.63 215.42,461.04 218.85,398.79 223.04,446.22 226.66,412.87 231.15,460.08 234.97,425.87 239.30,453.03 242.95,413.99 247.52,464.22 251.46,432.59 256.22,471.72 259.79,408.83 264.36,463.98 268.11,421.00 272.45,453.24 276.08,413.59 280.81,470.30 284.47,415.43 288.95,459.84 292.63,417.08 297.37,470.59 301.16,424.01 306.01,475.00 310.08,439.83 314.72,466.82 318.64,431.57 323.18,462.47 327.38,446.63 331.80,457.09 335.86,439.67 340.63,472.16 344.36,419.84 349.08,469.95 353.27,445.94 357.94,468.21 362.12,445.72 366.72,465.14 370.98,449.36 375.68,469.16 379.69,436.77 589.22,265.20 592.16,355.42 594.73,311.70 597.66,355.13 600.06,287.03 603.01,356.42 605.57,310.58 608.65,369.26 610.99,278.15 613.88,349.44 616.19,274.20 619.09,350.94 621.35,264.23 624.13,337.68 626.62,300.94 629.55,354.17 632.12,311.53 635.14,364.21 637.74,315.52 640.65,352.61 643.27,318.21 646.14,348.49 648.56,289.22 651.66,371.23 654.08,291.07 657.08,361.13 659.53,294.68 662.50,358.86 665.16,323.14 668.28,372.90 670.70,290.00 673.51,341.53 675.72,255.97 678.55,343.99 681.23,326.28 684.46,382.52 686.75,269.40 689.65,351.31 691.77,238.65 694.85,368.95 697.51,323.67 700.64,373.57 702.92,268.32 705.86,354.95 708.28,291.41 711.27,360.43 713.53,264.01 716.38,345.58 718.73,279.11 721.63,352.00 724.09,295.25 727.06,358.95 729.46,286.76 732.51,366.40 734.96,294.94 737.85,350.52 740.04,251.64 742.69,322.27 744.90,255.20 747.46,310.46 749.52,225.61 751.95,291.65 754.15,253.33 756.56,287.77 758.38,169.30 760.58,253.56 762.34,151.88 764.54,252.65 766.33,162.22 768.63,270.85 770.48,176.41 772.69,254.30 774.41,140.24 776.45,222.04 778.16,138.81 780.20,221.48 782.00,162.81 784.25,262.35 786.06,163.72 788.44,284.04 790.11,125.00 792.30,252.36 794.04,146.72 796.22,249.68 798.01,160.08 800.13,236.66 801.88,149.18 804.04,246.82 805.77,141.56 807.99,256.54 809.80,167.88 811.99,250.56 813.90,192.08 816.11,255.78 817.92,164.93 820.21,269.60 822.00,159.49 824.36,281.88 826.26,188.46 828.40,242.37 830.33,196.75 832.63,270.73 834.53,189.07 836.98,294.10 838.87,188.63 841.27,286.92 843.14,181.57 845.57,292.16 847.65,229.82 850.00,278.55" stroke-dasharray="3.6 3.6" stroke-width="3.6" stroke="#aaa" />
<g>
<circle cx="150.00" cy="441.59" r="1.6666666666666667" />
<circle cx="153.86" cy="428.10" r="1.6666666666666667" />
<circle cx="158.47" cy="465.63" r="1.6666666666666667" />
<circle cx="162.02" cy="407.07" r="1.6666666666666667" />
<circle cx="166.59" cy="464.24" r="1.6666666666666667" />
<circle cx="170.19" cy="411.15" r="1.6666666666666667" />
<circle cx="174.75" cy="463.09" r="1.6666666666666667" />
<circle cx="178.49" cy="421.03" r="1.6666666666666667" />
<circle cx="183.26" cy="471.76" r="1.6666666666666667" />
<circle cx="187.01" cy="421.08" r="1.6666666666666667" />
<circle cx="191.49" cy="459.98" r="1.6666666666666667" />
<circle cx="195.09" cy="411.43" r="1.6666666666666667" />
<circle cx="199.29" cy="446.53" r="1.6666666666666667" />
<circle cx="203.02" cy="420.10" r="1.6666666666666667" />
<circle cx="207.42" cy="456.32" r="1.6666666666666667" />
<circle cx="210.92" cy="403.63" r="1.6666666666666667" />
<circle cx="215.42" cy="461.04" r="1.6666666666666667" />
<circle cx="218.85" cy="398.79" r="1.6666666666666667" />
<circle cx="223.04" cy="446.22" r="1.6666666666666667" />
<circle cx="226.66" cy="412.87" r="1.6666666666666667" />
<circle cx="231.15" cy="460.08" r="1.6666666666666667" />
<circle cx="234.97" cy="425.87" r="1.6666666666666667" />
<circle cx="239.30" cy="453.03" r="1.6666666666666667" />
<circle cx="242.95" cy="413.99" r="1.6666666666666667" />
<circle cx="247.52" cy="464.22" r="1.6666666666666667" />
<circle cx="251.46" cy="432.59" r="1.6666666666666667" />
<circle cx="256.22" cy="471.72" r="1.6666666666666667" />
<circle cx="259.79" cy="408.83" r="1.6666666666666667" />
<circle cx="264.36" cy="463.98" r="1.6666666666666667" />
<circle cx="268.11" cy="421.00" r="1.6666666666666667" />
<circle cx="272.45" cy="453.24" r="1.6666666666666667" />
<circle cx="276.08" cy="413.59" r="1.6666666666666667" />
<circle cx="280.81" cy="470.30" r="1.6666666666666667" />
<circle cx="284.47" cy="415.43" r="1.6666666666666667" />
<circle cx="288.95" cy="459.84" r="1.6666666666666667" />
<circle cx="292.63" cy="417.08" r="1.6666666666666667" />
<circle cx="297.37" cy="470.59" r="1.6666666666666667" />
<circle cx="301.16" cy="424.01" r="1.6666666666666667" />
<circle cx="306.01" cy="475.00" r="1.6666666666666667" />
<circle cx="310.08" cy="439.83" r="1.6666666666666667" />
<circle cx="314.72" cy="466.82" r="1.6666666666666667" />
<circle cx="318.64" cy="431.57" r="1.6666666666666667" />
<circle cx="323.18" cy="462.47" r="1.6666666666666667" />
<circle cx="327.38" cy="446.63" r="1.6666666666666667" />
<circle cx="331.80" cy="457.09" r="1.6666666666666667" />
<circle cx="335.86" cy="439.67" r="1.6666666666666667" />
<circle cx="340.63" cy="472.16" r="1.6666666666666667" />
<circle cx="344.36" cy="419.84" r="1.6666666666666667" />
<circle cx="349.08" cy="469.95" r="1.6666666666666667" />
<circle cx="353.27" cy="445.94" r="1.6666666666666667" />
<circle cx="357.94" cy="468.21" r="1.6666666666666667" />
<circle cx="362.12" cy="445.72" r="1.6666666666666667" />
<circle cx="366.72" cy="465.14" r="1.6666666666666667" />
<circle cx="370.98" cy="449.36" r="1.6666666666666667" />
<circle cx="375.68" cy="469.16" r="1.6666666666666667" />
<circle cx="379.69" cy="436.77" r="1.6666666666666667" />
<circle cx="589.22" cy="265.20" r="1.6666666666666667" />
<circle cx="592.16" cy="355.42" r="1.6666666666666667" />
<circle cx="594.73" cy="311.70" r="1.6666666666666667" />
<circle cx="597.66" cy="355.13" r="1.6666666666666667" />
<circle cx="600.06" cy="287.03" r="1.6666666666666667" />
<circle cx="603.01" cy="356.42" r="1.6666666666666667" />
<circle cx="605.57" cy="310.58" r="1.6666666666666667" />
<circle cx="608.65" cy="369.26" r="1.6666666666666667" />
<circle cx="610.99" cy="278.15" r="1.6666666666666667" />
<circle cx="613.88" cy="349.44" r="1.6666666666666667" />
<circle cx="616.19" cy="274.20" r="1.6666666666666667" />
<circle cx="619.09" cy="350.94" r="1.6666666666666667" />
<circle cx="621.35" cy="264.23" r="1.6666666666666667" />
<circle cx="624.13" cy="337.68" r="1.6666666666666667" />
<circle cx="626.62" cy="300.94" r="1.6666666666666667" />
<circle cx="629.55" cy="354.17" r="1.6666666666666667" />
<circle cx="632.12" cy="311.53" r="1.6666666666666667" />
<circle cx="635.14" cy="364.21" r="1.6666666666666667" />
<circle cx="637.74" cy="315.52" r="1.6666666666666667" />
<circle cx="640.65" cy="352.61" r="1.6666666666666667" />
<circle cx="643.27" cy="318.21" r="1.6666666666666667" />
<circle cx="646.14" cy="348.49" r="1.6666666666666667" />
<circle cx="648.56" cy="289.22" r="1.6666666666666667" />
<circle cx="651.66" cy="371.23" r="1.6666666666666667" />
<circle cx="654.08" cy="291.07" r="1.6666666666666667" />
<circle cx="657.08" cy="361.13" r="1.6666666666666667" />
<circle cx="659.53" cy="294.68" r="1.6666666666666667" />
<circle cx="662.50" cy="358.86" r="1.6666666666666667" />
<circle cx="665.16" cy="323.14" r="1.6666666666666667" />
<circle cx="668.28" cy="372.90" r="1.6666666666666667" />
<circle cx="670.70" cy="290.00" r="1.6666666666666667" />
<circle cx="673.51" cy="341.53" r="1.6666666666666667" />
<circle cx="675.72" cy="255.97" r="1.6666666666666667" />
<circle cx="678.55" cy="343.99" r="1.6666666666666667" />
<circle cx="681.23" cy="326.28" r="1.6666666666666667" />
<circle cx="684.46" cy="382.52" r="1.6666666666666667" />
<circle cx="686.75" cy="269.40" r="1.6666666666666667" />
<circle cx="689.65" cy="351.31" r="1.6666666666666667" />
<circle cx="691.77" cy="238.65" r="1.6666666666666667" />
<circle cx="694.85" cy="368.95" r="1.6666666666666667" />
<circle cx="697.51" cy="323.67" r="1.6666666666666667" />
<circle cx="700.64" cy="373.57" r="1.6666666666666667" />
<circle cx="702.92" cy="268.32" r="1.6666666666666667" />
<circle cx="705.86" cy="354.95" r="1.6666666666666667" />
<circle cx="708.28" cy="291.41" r="1.6666666666666667" />
<circle cx="711.27" cy="360.43" r="1.6666666666666667" />
<circle cx="713.53" cy="264.01" r="1.6666666666666667" />
<circle cx="716.38" cy="345.58" r="1.6666666666666667" />
<circle cx="718.73" cy="279.11" r="1.6666666666666667" />
<circle cx="721.63" cy="352.00" r="1.6666666666666667" />
<circle cx="724.09" cy="295.25" r="1.6666666666666667" />
<circle cx="727.06" cy="358.95" r="1.6666666666666667" />
<circle cx="729.46" cy="286.76" r="1.6666666666666667" />
<circle cx="732.51" cy="366.40" r="1.6666666666666667" />
<circle cx="734.96" cy="294.94" r="1.6666666666666667" />
<circle cx="737.85" cy="350.52" r="1.6666666666666667" />
<circle cx="740.04" cy="251.64" r="1.6666666666666667" />
<circle cx="742.69" cy="322.27" r="1.6666666666666667" />
<circle cx="744.90" cy="255.20" r="1.6666666666666667" />
<circle cx="747.46" cy="310.46" r="1.6666666666666667" />
<circle cx="749.52" cy="225.61" r="1.6666666666666667" />
<circle cx="751.95" cy="291.65" r="1.6666666666666667" />
<circle cx="754.15" cy="253.33" r="1.6666666666666667" />
<circle cx="756.56" cy="287.77" r="1.6666666666666667" />
<circle cx="758.38" cy="169.30" r="1.6666666666666667" />
<circle cx="760.58" cy="253.56" r="1.6666666666666667" />
<circle cx="762.34" cy="151.88" r="1.6666666666666667" />
<circle cx="764.54" cy="252.65" r="1.6666666666666667" />
<circle cx="766.33" cy="162.22" r="1.6666666666666667" />
<circle cx="768.63" cy="270.85" r="1.6666666666666667" />
<circle cx="770.48" cy="176.41" r="1.6666666666666667" />
<circle cx="772.69" cy="254.30" r="1.6666666666666667" />
<circle cx="774.41" cy="140.24" r="1.6666666666666667" />
<circle cx="776.45" cy="222.04" r="1.6666666666666667" />
<circle cx="778.16" cy="138.81" r="1.6666666666666667" />
<circle cx="780.20" cy="221.48" r="1.6666666666666667" />
<circle cx="782.00" cy="162.81" r="1.6666666666666667" />
<circle cx="784.25" cy="262.35" r="1.6666666666666667" />
<circle cx="786.06" cy="163.72" r="1.6666666666666667" />
<circle cx="788.44" cy="284.04" r="1.6666666666666667" />
<circle cx="790.11" cy="125.00" r="1.6666666666666667" />
<circle cx="792.30" cy="252.36" r="1.6666666666666667" />
<circle cx="794.04" cy="146.72" r="1.6666666666666667" />
<circle cx="796.22" cy="249.68" r="1.6666666666666667" />
<circle cx="798.01" cy="160.08" r="1.6666666666666667" />
<circle cx="800.13" cy="236.66" r="1.6666666666666667" />
<circle cx="801.88" cy="149.18" r="1.6666666666666667" />
<circle cx="804.04" cy="246.82" r="1.6666666666666667" />
<circle cx="805.77" cy="141.56" r="1.6666666666666667" />
<circle cx="807.99" cy="256.54" r="1.6666666666666667" />
<circle cx="809.80" cy="167.88" r="1.6666666666666667" />
<circle cx="811.99" cy="250.56" r="1.6666666666666667" />
<circle cx="813.90" cy="192.08" r="1.6666666666666667" />
<circle cx="816.11" cy="255.78" r="1.6666666666666667" />
<circle cx="817.92" cy="164.93" r="1.6666666666666667" />
<circle cx="820.21" cy="269.60" r="1.6666666666666667" />
<circle cx="822.00" cy="159.49" r="1.6666666666666667" />
<circle cx="824.36" cy="281.88" r="1.6666666666666667" />
<circle cx="826.26" cy="188.46" r="1.6666666666666667" />
<circle cx="828.40" cy="242.37" r="1.6666666666666667" />
<circle cx="830.33" cy="196.75" r="1.6666666666666667" />
<circle cx="832.63" cy="270.73" r="1.6666666666666667" />
<circle cx="834.53" cy="189.07" r="1.6666666666666667" />
<circle cx="836.98" cy="294.10" r="1.6666666666666667" />
<circle cx="838.87" cy="188.63" r="1.6666666666666667" />
<circle cx="841.27" cy="286.92" r="1.6666666666666667" />
<circle cx="843.14" cy="181.57" r="1.6666666666666667" />
<circle cx="845.57" cy="292.16" r="1.6666666666666667" />
<circle cx="847.65" cy="229.82" r="1.6666666666666667" />
<circle cx="850.00" cy="278.55" r="1.6666666666666667" />
</g>
<g stroke="black">
<line x1="214.49" x2="214.49" y1="510.00" y2="520.00" />
<line x1="365.97" x2="365.97" y1="510.00" y2="520.00" />
<line x1="517.45" x2="517.45" y1="510.00" y2="520.00" />
<line x1="668.93" x2="668.93" y1="510.00" y2="520.00" />
<line x1="820.41" x2="820.41" y1="510.00" y2="520.00" />
<g fill="black" font-family="Arial, sans-serif" font-size="18.0" stroke="none" text-anchor="start" transform="translate(9.0 0.0)">
<text x="214.49" y="530.57">19640</text>
<text x="365.97" y="530.57">19650</text>
<text x="517.45" y="530.57">19660</text>
<text x="668.93" y="530.57">19670</text>
<text x="820.41" y="530.57">19680</text>
</g>
<line x1="150.00" x2="850.00" y1="510.00" y2="510.00" />
</g>
<g stroke="black">
<line x1="150.00" x2="140.00" y1="482.41" y2="482.41" />
<line x1="150.00" x2="140.00" y1="423.45" y2="423.45" />
<line x1="150.00" x2="140.00" y1="364.50" y2="364.50" />
<line x1="150.00" x2="140.00" y1="305.54" y2="305.54" />
<line x1="150.00" x2="140.00" y1="246.59" y2="246.59" />
<line x1="150.00" x2="140.00" y1="187.63" y2="187.63" />
<line x1="150.00" x2="140.00" y1="128.67" y2="128.67" />
<g fill="black" font-family="Arial, sans-serif" font-size="18.0" stroke="none" text-anchor="end">
<text x="141.00" y="473.41">3</text>
<text x="141.00" y="414.45">4</text>
<text x="141.00" y="355.50">5</text>
<text x="141.00" y="296.54">6</text>
<text x="141.00" y="237.59">7</text>
<text x="141.00" y="178.63">8</text>
<text x="141.00" y="119.67">9</text>
</g>
<line x1="150.00" x2="150.00" y1="510.00" y2="90.00" />
</g>
</g>
</svg>