<?xml version="1.0"?>
<svg version="1.1" viewBox="0 0 1000 600" xmlns:xlink="http://www.w3.org/1999/xlink" xmlns="http://www.w3.org/2000/svg">
<g>
<g stroke-dasharray="3.6 7.2" stroke-width="0.72" stroke="#caa">
<line x1="828.41" x2="828.41" y1="510.00" y2="90.00" />
<line x1="785.75" x2="785.75" y1="510.00" y2="90.00" />
<line x1="741.68" x2="741.68" y1="510.00" y2="90.00" />
<line x1="700.44" x2="700.44" y1="510.00" y2="90.00" />
<line x1="656.36" x2="656.36" y1="510.00" y2="90.00" />
<line x1="612.28" x2="612.28" y1="510.00" y2="90.00" />
<line x1="569.63" x2="569.63" y1="510.00" y2="90.00" />
<line x1="525.55" x2="525.55" y1="510.00" y2="90.00" />
<line x1="482.89" x2="482.89" y1="510.00" y2="90.00" />
<line x1="438.81" x2="438.81" y1="510.00" y2="90.00" />
<line x1="394.73" x2="394.73" y1="510.00" y2="90.00" />
<line x1="352.08" x2="352.08" y1="510.00" y2="90.00" />
<line x1="308.00" x2="308.00" y1="510.00" y2="90.00" />
<line x1="265.34" x2="265.34" y1="510.00" y2="90.00" />
<line x1="221.26" x2="221.26" y1="510.00" y2="90.00" />
<line x1="181.45" x2="181.45" y1="510.00" y2="90.00" />
<line x1="150.00" x2="850.00" y1="510.00" y2="510.00" />
<line x1="150.00" x2="850.00" y1="216.29" y2="216.29" />
</g>
<g>
<text dominant-baseline="hanging" dx="-36.0" dy="18.0" fill="#0004" font-family="Arial, sans-serif" font-size="36" stroke="none" text-anchor="end" x="850.00" y="128.18">R16</text>
</g>
<g>
<text dominant-baseline="text-bottom" dy="-12.0" fill="black" font-family="Arial, sans-serif" font-size="18.0" font-style="italic" stroke="none" text-anchor="middle" x="500.00" y="90.00">Years 2023 to 2024</text>
</g>
<g>
<text dominant-baseline="central" dx="12.0" dy="12.0" fill="black" font-family="Arial, sans-serif" font-size="18.0" font-style="italic" stroke="none" text-anchor="middle" text-orientation="sideways" writing-mode="vertical-lr" x="850.00" y="300.00">log(Drips per day)</text>
</g>
<polyline fill="none" points="532.71,471.63 533.07,469.87 533.50,475.07 533.83,467.31 534.26,474.86 534.60,467.79 535.03,474.69 535.38,468.98 535.83,476.02 536.18,468.99 536.60,474.23 536.94,467.82 537.33,472.31 537.68,468.87 538.10,473.69 538.42,466.91 538.85,474.38 539.17,466.36 539.56,472.27 539.90,467.99 540.32,474.24 540.68,469.59 541.09,473.22 541.43,468.13 541.86,474.86 542.23,470.44 542.68,476.01 543.01,467.52 543.44,474.82 543.79,468.98 544.20,473.25 544.54,468.08 544.98,475.79 545.33,468.30 545.75,474.21 546.09,468.50 546.54,475.83 546.90,469.35 547.35,476.53 547.73,471.40 548.17,475.25 548.54,470.31 548.96,474.60 549.36,472.32 549.77,473.80 550.15,471.38 550.60,476.08 550.95,468.84 551.39,475.73 551.79,472.23 552.22,475.47 552.62,472.20 553.05,475.00 553.45,472.70 553.89,475.61 554.27,470.99 573.93,454.20 574.21,461.84 574.45,457.89 574.73,461.81 574.95,455.88 575.23,461.94 575.47,457.80 575.76,463.21 575.98,455.18 576.25,461.27 576.47,454.88 576.74,461.41 576.95,454.13 577.21,460.17 577.45,457.00 577.72,461.72 577.96,457.88 578.24,462.70 578.49,458.22 578.76,461.57 579.01,458.45 579.28,461.18 579.50,456.05 579.80,463.41 580.02,456.20 580.30,462.40 580.53,456.49 580.81,462.17 581.06,458.87 581.36,463.58 581.58,456.11 581.85,460.53 582.05,453.52 582.32,460.75 582.57,459.15 582.87,464.58 583.09,454.52 583.36,461.44 583.56,452.29 583.85,463.18 584.10,458.92 584.39,463.65 584.61,454.44 584.88,461.79 585.11,456.22 585.39,462.33 585.60,454.11 585.87,460.90 586.09,455.26 586.36,461.51 586.59,456.53 586.87,462.18 586.89,379.90 586.89,312.28 586.89,300.93 586.89,282.21 586.89,278.85 586.89,277.01 586.89,268.24 586.90,269.49 586.90,278.85 586.90,274.02 586.90,269.49 586.90,264.14 586.90,259.36 586.90,261.04 586.90,257.58 586.90,255.69 586.90,255.69 586.90,253.66 586.90,251.49 586.90,253.66 586.90,251.49 586.90,251.49 586.90,249.13 586.90,251.49 586.90,251.49 586.90,251.49 586.90,251.49 586.90,249.13 586.90,253.66 586.90,251.49 586.90,249.13 586.90,253.66 586.90,253.66 586.90,249.13 586.90,251.49 586.90,251.49 586.90,251.49 586.90,251.49 586.90,253.66 586.90,253.66 586.90,253.66 586.90,251.49 586.90,253.66 586.90,255.69 586.90,257.58 586.90,259.36 586.91,257.58 586.91,257.58 586.91,259.36 586.91,261.04 586.91,264.14 586.91,266.94 586.91,271.84 586.91,274.02 586.91,279.72 586.91,315.51 587.10,450.60 587.38,462.92 587.61,456.51 587.89,461.37 588.09,453.21 588.34,458.80 588.55,453.47 588.79,457.79 588.98,451.39 589.21,456.24 589.42,453.33 589.64,455.93 589.81,447.81 590.02,453.35 590.18,446.78 590.39,453.28 590.56,447.38 590.78,454.63 590.95,448.23 591.16,453.40 591.32,446.11 591.51,451.15 591.67,446.03 591.86,451.11 592.03,447.42 592.24,453.99 592.41,447.47 592.63,455.64 592.79,445.26 593.00,453.26 593.16,446.48 593.37,453.07 593.53,447.26 593.73,452.15 593.90,446.62 594.10,452.86 594.26,446.19 594.47,453.56 594.64,447.72 594.84,453.13 595.02,449.20 595.23,453.51 595.40,447.54 595.62,454.53 595.78,447.22 596.01,455.47 596.18,448.98 596.39,452.55 596.57,449.50 596.78,454.62 596.96,449.02 597.19,456.44 597.37,448.99 597.59,455.87 597.77,448.55 598.00,456.28 598.19,451.68 598.41,455.21" stroke-dasharray="3.6 3.6" stroke-width="3.6" stroke="#aaa" />
<g>
<circle cx="532.71" cy="471.63" r="1.6666666666666667" />
<circle cx="533.07" cy="469.87" r="1.6666666666666667" />
<circle cx="533.50" cy="475.07" r="1.6666666666666667" />
<circle cx="533.83" cy="467.31" r="1.6666666666666667" />
<circle cx="534.26" cy="474.86" r="1.6666666666666667" />
<circle cx="534.60" cy="467.79" r="1.6666666666666667" />
<circle cx="535.03" cy="474.69" r="1.6666666666666667" />
<circle cx="535.38" cy="468.98" r="1.6666666666666667" />
<circle cx="535.83" cy="476.02" r="1.6666666666666667" />
<circle cx="536.18" cy="468.99" r="1.6666666666666667" />
<circle cx="536.60" cy="474.23" r="1.6666666666666667" />
<circle cx="536.94" cy="467.82" r="1.6666666666666667" />
<circle cx="537.33" cy="472.31" r="1.6666666666666667" />
<circle cx="537.68" cy="468.87" r="1.6666666666666667" />
<circle cx="538.10" cy="473.69" r="1.6666666666666667" />
<circle cx="538.42" cy="466.91" r="1.6666666666666667" />
<circle cx="538.85" cy="474.38" r="1.6666666666666667" />
<circle cx="539.17" cy="466.36" r="1.6666666666666667" />
<circle cx="539.56" cy="472.27" r="1.6666666666666667" />
<circle cx="539.90" cy="467.99" r="1.6666666666666667" />
<circle cx="540.32" cy="474.24" r="1.6666666666666667" />
<circle cx="540.68" cy="469.59" r="1.6666666666666667" />
<circle cx="541.09" cy="473.22" r="1.6666666666666667" />
<circle cx="541.43" cy="468.13" r="1.6666666666666667" />
<circle cx="541.86" cy="474.86" r="1.6666666666666667" />
<circle cx="542.23" cy="470.44" r="1.6666666666666667" />
<circle cx="542.68" cy="476.01" r="1.6666666666666667" />
<circle cx="543.01" cy="467.52" r="1.6666666666666667" />
<circle cx="543.44" cy="474.82" r="1.6666666666666667" />
<circle cx="543.79" cy="468.98" r="1.6666666666666667" />
<circle cx="544.20" cy="473.25" r="1.6666666666666667" />
<circle cx="544.54" cy="468.08" r="1.6666666666666667" />
<circle cx="544.98" cy="475.79" r="1.6666666666666667" />
<circle cx="545.33" cy="468.30" r="1.6666666666666667" />
<circle cx="545.75" cy="474.21" r="1.6666666666666667" />
<circle cx="546.09" cy="468.50" r="1.6666666666666667" />
<circle cx="546.54" cy="475.83" r="1.6666666666666667" />
<circle cx="546.90" cy="469.35" r="1.6666666666666667" />
<circle cx="547.35" cy="476.53" r="1.6666666666666667" />
<circle cx="547.73" cy="471.40" r="1.6666666666666667" />
<circle cx="548.17" cy="475.25" r="1.6666666666666667" />
<circle cx="548.54" cy="470.31" r="1.6666666666666667" />
<circle cx="548.96" cy="474.60" r="1.6666666666666667" />
<circle cx="549.36" cy="472.32" r="1.6666666666666667" />
<circle cx="549.77" cy="473.80" r="1.6666666666666667" />
<circle cx="550.15" cy="471.38" r="1.6666666666666667" />
<circle cx="550.60" cy="476.08" r="1.6666666666666667" />
<circle cx="550.95" cy="468.84" r="1.6666666666666667" />
<circle cx="551.39" cy="475.73" r="1.6666666666666667" />
<circle cx="551.79" cy="472.23" r="1.6666666666666667" />
<circle cx="552.22" cy="475.47" r="1.6666666666666667" />
<circle cx="552.62" cy="472.20" r="1.6666666666666667" />
<circle cx="553.05" cy="475.00" r="1.6666666666666667" />
<circle cx="553.45" cy="472.70" r="1.6666666666666667" />
<circle cx="553.89" cy="475.61" r="1.6666666666666667" />
<circle cx="554.27" cy="470.99" r="1.6666666666666667" />
<circle cx="573.93" cy="454.20" r="1.6666666666666667" />
<circle cx="574.21" cy="461.84" r="1.6666666666666667" />
<circle cx="574.45" cy="457.89" r="1.6666666666666667" />
<circle cx="574.73" cy="461.81" r="1.6666666666666667" />
<circle cx="574.95" cy="455.88" r="1.6666666666666667" />
<circle cx="575.23" cy="461.94" r="1.6666666666666667" />
<circle cx="575.47" cy="457.80" r="1.6666666666666667" />
<circle cx="575.76" cy="463.21" r="1.6666666666666667" />
<circle cx="575.98" cy="455.18" r="1.6666666666666667" />
<circle cx="576.25" cy="461.27" r="1.6666666666666667" />
<circle cx="576.47" cy="454.88" r="1.6666666666666667" />
<circle cx="576.74" cy="461.41" r="1.6666666666666667" />
<circle cx="576.95" cy="454.13" r="1.6666666666666667" />
<circle cx="577.21" cy="460.17" r="1.6666666666666667" />
<circle cx="577.45" cy="457.00" r="1.6666666666666667" />
<circle cx="577.72" cy="461.72" r="1.6666666666666667" />
<circle cx="577.96" cy="457.88" r="1.6666666666666667" />
<circle cx="578.24" cy="462.70" r="1.6666666666666667" />
<circle cx="578.49" cy="458.22" r="1.6666666666666667" />
<circle cx="578.76" cy="461.57" r="1.6666666666666667" />
<circle cx="579.01" cy="458.45" r="1.6666666666666667" />
<circle cx="579.28" cy="461.18" r="1.6666666666666667" />
<circle cx="579.50" cy="456.05" r="1.6666666666666667" />
<circle cx="579.80" cy="463.41" r="1.6666666666666667" />
<circle cx="580.02" cy="456.20" r="1.6666666666666667" />
<circle cx="580.30" cy="462.40" r="1.6666666666666667" />
<circle cx="580.53" cy="456.49" r="1.6666666666666667" />
<circle cx="580.81" cy="462.17" r="1.6666666666666667" />
<circle cx="581.06" cy="458.87" r="1.6666666666666667" />
<circle cx="581.36" cy="463.58" r="1.6666666666666667" />
<circle cx="581.58" cy="456.11" r="1.6666666666666667" />
<circle cx="581.85" cy="460.53" r="1.6666666666666667" />
<circle cx="582.05" cy="453.52" r="1.6666666666666667" />
<circle cx="582.32" cy="460.75" r="1.6666666666666667" />
<circle cx="582.57" cy="459.15" r="1.6666666666666667" />
<circle cx="582.87" cy="464.58" r="1.6666666666666667" />
<circle cx="583.09" cy="454.52" r="1.6666666666666667" />
<circle cx="583.36" cy="461.44" r="1.6666666666666667" />
<circle cx="583.56" cy="452.29" r="1.6666666666666667" />
<circle cx="583.85" cy="463.18" r="1.6666666666666667" />
<circle cx="584.10" cy="458.92" r="1.6666666666666667" />
<circle cx="584.39" cy="463.65" r="1.6666666666666667" />
<circle cx="584.61" cy="454.44" r="1.6666666666666667" />
<circle cx="584.88" cy="461.79" r="1.6666666666666667" />
<circle cx="585.11" cy="456.22" r="1.6666666666666667" />
<circle cx="585.39" cy="462.33" r="1.6666666666666667" />
<circle cx="585.60" cy="454.11" r="1.6666666666666667" />
<circle cx="585.87" cy="460.90" r="1.6666666666666667" />
<circle cx="586.09" cy="455.26" r="1.6666666666666667" />
<circle cx="586.36" cy="461.51" r="1.6666666666666667" />
<circle cx="586.59" cy="456.53" r="1.6666666666666667" />
<circle cx="586.87" cy="462.18" r="1.6666666666666667" />
<circle cx="586.89" cy="379.90" r="1.6666666666666667" />
<circle cx="586.89" cy="312.28" r="1.6666666666666667" />
<circle cx="586.89" cy="300.93" r="1.6666666666666667" />
<circle cx="586.89" cy="282.21" r="1.6666666666666667" />
<circle cx="586.89" cy="278.85" r="1.6666666666666667" />
<circle cx="586.89" cy="277.01" r="1.6666666666666667" />
<circle cx="586.89" cy="268.24" r="1.6666666666666667" />
<circle cx="586.90" cy="269.49" r="1.6666666666666667" />
<circle cx="586.90" cy="278.85" r="1.6666666666666667" />
<circle cx="586.90" cy="274.02" r="1.6666666666666667" />
<circle cx="586.90" cy="269.49" r="1.6666666666666667" />
<circle cx="586.90" cy="264.14" r="1.6666666666666667" />
<circle cx="586.90" cy="259.36" r="1.6666666666666667" />
<circle cx="586.90" cy="261.04" r="1.6666666666666667" />
<circle cx="586.90" cy="257.58" r="1.6666666666666667" />
<circle cx="586.90" cy="255.69" r="1.6666666666666667" />
<circle cx="586.90" cy="255.69" r="1.6666666666666667" />
<circle cx="586.90" cy="253.66" r="1.6666666666666667" />
<circle cx="586.90" cy="251.49" r="1.6666666666666667" />
<circle cx="586.90" cy="253.66" r="1.6666666666666667" />
<circle cx="586.90" cy="251.49" r="1.6666666666666667" />
<circle cx="586.90" cy="251.49" r="1.6666666666666667" />
<circle cx="586.90" cy="249.13" r="1.6666666666666667" />
<circle cx="586.90" cy="251.49" r="1.6666666666666667" />
<circle cx="586.90" cy="251.49" r="1.6666666666666667" />
<circle cx="586.90" cy="251.49" r="1.6666666666666667" />
<circle cx="586.90" cy="251.49" r="1.6666666666666667" />
<circle cx="586.90" cy="249.13" r="1.6666666666666667" />
<circle cx="586.90" cy="253.66" r="1.6666666666666667" />
<circle cx="586.90" cy="251.49" r="1.6666666666666667" />
<circle cx="586.90" cy="249.13" r="1.6666666666666667" />
<circle cx="586.90" cy="253.66" r="1.6666666666666667" />
<circle cx="586.90" cy="253.66" r="1.6666666666666667" />
<circle cx="586.90" cy="249.13" r="1.6666666666666667" />
<circle cx="586.90" cy="251.49" r="1.6666666666666667" />
<circle cx="586.90" cy="251.49" r="1.6666666666666667" />
<circle cx="586.90" cy="251.49" r="1.6666666666666667" />
<circle cx="586.90" cy="251.49" r="1.6666666666666667" />
<circle cx="586.90" cy="253.66" r="1.6666666666666667" />
<circle cx="586.90" cy="253.66" r="1.6666666666666667" />
<circle cx="586.90" cy="253.66" r="1.6666666666666667" />
<circle cx="586.90" cy="251.49" r="1.6666666666666667" />
<circle cx="586.90" cy="253.66" r="1.6666666666666667" />
<circle cx="586.90" cy="255.69" r="1.6666666666666667" />
<circle cx="586.90" cy="257.58" r="1.6666666666666667" />
<circle cx="586.90" cy="259.36" r="1.6666666666666667" />
<circle cx="586.91" cy="257.58" r="1.6666666666666667" />
<circle cx="586.91" cy="257.58" r="1.6666666666666667" />
<circle cx="586.91" cy="259.36" r="1.6666666666666667" />
<circle cx="586.91" cy="261.04" r="1.6666666666666667" />
<circle cx="586.91" cy="264.14" r="1.6666666666666667" />
<circle cx="586.91" cy="266.94" r="1.6666666666666667" />
<circle cx="586.91" cy="271.84" r="1.6666666666666667" />
<circle cx="586.91" cy="274.02" r="1.6666666666666667" />
<circle cx="586.91" cy="279.72" r="1.6666666666666667" />
<circle cx="586.91" cy="315.51" r="1.6666666666666667" />
<circle cx="587.10" cy="450.60" r="1.6666666666666667" />
<circle cx="587.38" cy="462.92" r="1.6666666666666667" />
<circle cx="587.61" cy="456.51" r="1.6666666666666667" />
<circle cx="587.89" cy="461.37" r="1.6666666666666667" />
<circle cx="588.09" cy="453.21" r="1.6666666666666667" />
<circle cx="588.34" cy="458.80" r="1.6666666666666667" />
<circle cx="588.55" cy="453.47" r="1.6666666666666667" />
<circle cx="588.79" cy="457.79" r="1.6666666666666667" />
<circle cx="588.98" cy="451.39" r="1.6666666666666667" />
<circle cx="589.21" cy="456.24" r="1.6666666666666667" />
<circle cx="589.42" cy="453.33" r="1.6666666666666667" />
<circle cx="589.64" cy="455.93" r="1.6666666666666667" />
<circle cx="589.81" cy="447.81" r="1.6666666666666667" />
<circle cx="590.02" cy="453.35" r="1.6666666666666667" />
<circle cx="590.18" cy="446.78" r="1.6666666666666667" />
<circle cx="590.39" cy="453.28" r="1.6666666666666667" />
<circle cx="590.56" cy="447.38" r="1.6666666666666667" />
<circle cx="590.78" cy="454.63" r="1.6666666666666667" />
<circle cx="590.95" cy="448.23" r="1.6666666666666667" />
<circle cx="591.16" cy="453.40" r="1.6666666666666667" />
<circle cx="591.32" cy="446.11" r="1.6666666666666667" />
<circle cx="591.51" cy="451.15" r="1.6666666666666667" />
<circle cx="591.67" cy="446.03" r="1.6666666666666667" />
<circle cx="591.86" cy="451.11" r="1.6666666666666667" />
<circle cx="592.03" cy="447.42" r="1.6666666666666667" />
<circle cx="592.24" cy="453.99" r="1.6666666666666667" />
<circle cx="592.41" cy="447.47" r="1.6666666666666667" />
<circle cx="592.63" cy="455.64" r="1.6666666666666667" />
<circle cx="592.79" cy="445.26" r="1.6666666666666667" />
<circle cx="593.00" cy="453.26" r="1.6666666666666667" />
<circle cx="593.16" cy="446.48" r="1.6666666666666667" />
<circle cx="593.37" cy="453.07" r="1.6666666666666667" />
<circle cx="593.53" cy="447.26" r="1.6666666666666667" />
<circle cx="593.73" cy="452.15" r="1.6666666666666667" />
<circle cx="593.90" cy="446.62" r="1.6666666666666667" />
<circle cx="594.10" cy="452.86" r="1.6666666666666667" />
<circle cx="594.26" cy="446.19" r="1.6666666666666667" />
<circle cx="594.47" cy="453.56" r="1.6666666666666667" />
<circle cx="594.64" cy="447.72" r="1.6666666666666667" />
<circle cx="594.84" cy="453.13" r="1.6666666666666667" />
<circle cx="595.02" cy="449.20" r="1.6666666666666667" />
<circle cx="595.23" cy="453.51" r="1.6666666666666667" />
<circle cx="595.40" cy="447.54" r="1.6666666666666667" />
<circle cx="595.62" cy="454.53" r="1.6666666666666667" />
<circle cx="595.78" cy="447.22" r="1.6666666666666667" />
<circle cx="596.01" cy="455.47" r="1.6666666666666667" />
<circle cx="596.18" cy="448.98" r="1.6666666666666667" />
<circle cx="596.39" cy="452.55" r="1.6666666666666667" />
<circle cx="596.57" cy="449.50" r="1.6666666666666667" />
<circle cx="596.78" cy="454.62" r="1.6666666666666667" />
<circle cx="596.96" cy="449.02" r="1.6666666666666667" />
<circle cx="597.19" cy="456.44" r="1.6666666666666667" />
<circle cx="597.37" cy="448.99" r="1.6666666666666667" />
<circle cx="597.59" cy="455.87" r="1.6666666666666667" />
<circle cx="597.77" cy="448.55" r="1.6666666666666667" />
<circle cx="598.00" cy="456.28" r="1.6666666666666667" />
<circle cx="598.19" cy="451.68" r="1.6666666666666667" />
<circle cx="598.41" cy="455.21" r="1.6666666666666667" />
</g>
<g stroke="black">
<line x1="828.41" x2="828.41" y1="510.00" y2="520.00" />
<line x1="785.75" x2="785.75" y1="510.00" y2="520.00" />
<line x1="741.68" x2="741.68" y1="510.00" y2="520.00" />
<line x1="700.44" x2="700.44" y1="510.00" y2="520.00" />
<line x1="656.36" x2="656.36" y1="510.00" y2="520.00" />
<line x1="612.28" x2="612.28" y1="510.00" y2="520.00" />
<line x1="569.63" x2="569.63" y1="510.00" y2="520.00" />
<line x1="525.55" x2="525.55" y1="510.00" y2="520.00" />
<line x1="482.89" x2="482.89" y1="510.00" y2="520.00" />
<line x1="438.81" x2="438.81" y1="510.00" y2="520.00" />
<line x1="394.73" x2="394.73" y1="510.00" y2="520.00" />
<line x1="352.08" x2="352.08" y1="510.00" y2="520.00" />
<line x1="308.00" x2="308.00" y1="510.00" y2="520.00" />
<line x1="265.34" x2="265.34" y1="510.00" y2="520.00" />
<line x1="221.26" x2="221.26" y1="510.00" y2="520.00" />
<line x1="181.45" x2="181.45" y1="510.00" y2="520.00" />
<g fill="black" font-family="Arial, sans-serif" font-size="18.0" stroke="none" text-anchor="start" transform="translate(9.0 0.0)">
<text x="828.41" y="530.57">May</text>
<text x="785.75" y="530.57">Apr</text>
<text x="741.68" y="530.57">Mar</text>
<text x="700.44" y="530.57">Feb</text>
<text x="656.36" y="530.57">Jan</text>
<text x="612.28" y="530.57">Dec</text>
<text x="569.63" y="530.57">Nov</text>
<text x="525.55" y="530.57">Oct</text>
<text x="482.89" y="530.57">Sep</text>
<text x="438.81" y="530.57">Aug</text>
<text x="394.73" y="530.57">Jul</text>
<text x="352.08" y="530.57">Jun</text>
<text x="308.00" y="530.57">May</text>
<text x="265.34" y="530.57">Apr</text>
<text x="221.26" y="530.57">Mar</text>
<text x="181.45" y="530.57">Feb</text>
</g>
<line x1="150.00" x2="850.00" y1="510.00" y2="510.00" />
</g>
<g stroke="black">
<line x1="150.00" x2="140.00" y1="510.00" y2="510.00" />
<line x1="150.00" x2="140.00" y1="216.29" y2="216.29" />
<g fill="black" font-family="Arial, sans-serif" font-size="18.0" stroke="none" text-anchor="end">
<text x="141.00" y="501.00">0</text>
<text x="141.00" y="207.29">10</text>
</g>
<line x1="150.00" x2="150.00" y1="510.00" y2="90.00" />
</g>
</g>
</svg>