<?xml version="1.0"?>
<svg version="1.1" viewBox="0 0 1000 600" xmlns:xlink="http://www.w3.org/1999/xlink" xmlns="http://www.w3.org/2000/svg">
<g>
<g stroke-dasharray="3.6 7.2" stroke-width="0.72" stroke="#caa">
<line x1="813.75" x2="813.75" y1="510.00" y2="90.00" />
<line x1="760.60" x2="760.60" y1="510.00" y2="90.00" />
<line x1="707.45" x2="707.45" y1="510.00" y2="90.00" />
<line x1="656.01" x2="656.01" y1="510.00" y2="90.00" />
<line x1="602.86" x2="602.86" y1="510.00" y2="90.00" />
<line x1="551.42" x2="551.42" y1="510.00" y2="90.00" />
<line x1="498.27" x2="498.27" y1="510.00" y2="90.00" />
<line x1="445.11" x2="445.11" y1="510.00" y2="90.00" />
<line x1="393.68" x2="393.68" y1="510.00" y2="90.00" />
<line x1="340.52" x2="340.52" y1="510.00" y2="90.00" />
<line x1="289.09" x2="289.09" y1="510.00" y2="90.00" />
<line x1="235.93" x2="235.93" y1="510.00" y2="90.00" />
<line x1="187.92" x2="187.92" y1="510.00" y2="90.00" />
<line x1="150.00" x2="850.00" y1="510.00" y2="510.00" />
<line x1="150.00" x2="850.00" y1="216.29" y2="216.29" />
</g>
<g>
<text dominant-baseline="hanging" dx="-36.0" dy="18.0" fill="#0004" font-family="Arial, sans-serif" font-size="36" stroke="none" text-anchor="end" x="850.00" y="128.18">R16</text>
</g>
<g>
<text dominant-baseline="text-bottom" dy="-12.0" fill="black" font-family="Arial, sans-serif" font-size="18.0" font-style="italic" stroke="none" text-anchor="middle" x="500.00" y="90.00">Years 2023 to 2024</text>
</g>
<g>
<text dominant-baseline="central" dx="12.0" dy="12.0" fill="black" font-family="Arial, sans-serif" font-size="18.0" font-style="italic" stroke="none" text-anchor="middle" text-orientation="sideways" writing-mode="vertical-lr" x="850.00" y="300.00">log(Drips per day)</text>
</g>
<polyline fill="none" points="611.49,471.63 611.93,469.87 612.45,475.07 612.85,467.31 613.37,474.86 613.77,467.79 614.29,474.69 614.71,468.98 615.25,476.02 615.68,468.99 616.19,474.23 616.59,467.82 617.07,472.31 617.49,468.87 617.99,473.69 618.38,466.91 618.89,474.38 619.28,466.36 619.76,472.27 620.17,467.99 620.67,474.24 621.11,469.59 621.60,473.22 622.01,468.13 622.53,474.86 622.97,470.44 623.51,476.01 623.92,467.52 624.43,474.82 624.86,468.98 625.35,473.25 625.76,468.08 626.30,475.79 626.71,468.30 627.22,474.21 627.63,468.50 628.17,475.83 628.60,469.35 629.15,476.53 629.61,471.40 630.13,475.25 630.58,470.31 631.09,474.60 631.57,472.32 632.07,473.80 632.53,471.38 633.07,476.08 633.49,468.84 634.02,475.73 634.50,472.23 635.03,475.47 635.50,472.20 636.02,475.00 636.50,472.70 637.03,475.61 637.49,470.99 661.20,454.20 661.54,461.84 661.83,457.89 662.16,461.81 662.43,455.88 662.77,461.94 663.06,457.80 663.40,463.21 663.67,455.18 664.00,461.27 664.26,454.88 664.59,461.41 664.84,454.13 665.16,460.17 665.44,457.00 665.77,461.72 666.06,457.88 666.40,462.70 666.70,458.22 667.03,461.57 667.32,458.45 667.65,461.18 667.92,456.05 668.27,463.41 668.55,456.20 668.89,462.40 669.16,456.49 669.50,462.17 669.80,458.87 670.15,463.58 670.43,456.11 670.75,460.53 671.00,453.52 671.32,460.75 671.62,459.15 671.99,464.58 672.24,454.52 672.57,461.44 672.81,452.29 673.16,463.18 673.46,458.92 673.82,463.65 674.08,454.44 674.41,461.79 674.68,456.22 675.02,462.33 675.28,454.11 675.60,460.90 675.86,455.26 676.19,461.51 676.47,456.53 676.81,462.18 677.08,455.86 677.42,462.92 677.70,456.51 678.03,461.37 678.28,453.21 678.58,458.80 678.83,453.47 679.12,457.79 679.35,451.39 679.62,456.24 679.87,453.33 680.15,455.93 680.35,447.81 680.60,453.35 680.80,446.78 681.05,453.28 681.25,447.38 681.51,454.63 681.72,448.23 681.97,453.40 682.17,446.11 682.40,451.15 682.59,446.03 682.82,451.11 683.03,447.42 683.28,453.99 683.49,447.47 683.75,455.64 683.94,445.26 684.19,453.26 684.39,446.48 684.64,453.07 684.84,447.26 685.08,452.15 685.28,446.62 685.52,452.86 685.72,446.19 685.97,453.56 686.17,447.72 686.42,453.13 686.64,449.20 686.89,453.51 687.09,447.54 687.35,454.53 687.55,447.22 687.82,455.47 688.04,448.98 688.28,452.55 688.50,449.50 688.76,454.62 688.97,449.02 689.25,456.44 689.46,448.99 689.74,455.87 689.95,448.55 690.22,456.28 690.46,451.68 690.72,455.21" stroke-dasharray="3.6 3.6" stroke-width="3.6" stroke="#aaa" />
<g>
<circle cx="611.49" cy="471.63" r="1.6666666666666667" />
<circle cx="611.93" cy="469.87" r="1.6666666666666667" />
<circle cx="612.45" cy="475.07" r="1.6666666666666667" />
<circle cx="612.85" cy="467.31" r="1.6666666666666667" />
<circle cx="613.37" cy="474.86" r="1.6666666666666667" />
<circle cx="613.77" cy="467.79" r="1.6666666666666667" />
<circle cx="614.29" cy="474.69" r="1.6666666666666667" />
<circle cx="614.71" cy="468.98" r="1.6666666666666667" />
<circle cx="615.25" cy="476.02" r="1.6666666666666667" />
<circle cx="615.68" cy="468.99" r="1.6666666666666667" />
<circle cx="616.19" cy="474.23" r="1.6666666666666667" />
<circle cx="616.59" cy="467.82" r="1.6666666666666667" />
<circle cx="617.07" cy="472.31" r="1.6666666666666667" />
<circle cx="617.49" cy="468.87" r="1.6666666666666667" />
<circle cx="617.99" cy="473.69" r="1.6666666666666667" />
<circle cx="618.38" cy="466.91" r="1.6666666666666667" />
<circle cx="618.89" cy="474.38" r="1.6666666666666667" />
<circle cx="619.28" cy="466.36" r="1.6666666666666667" />
<circle cx="619.76" cy="472.27" r="1.6666666666666667" />
<circle cx="620.17" cy="467.99" r="1.6666666666666667" />
<circle cx="620.67" cy="474.24" r="1.6666666666666667" />
<circle cx="621.11" cy="469.59" r="1.6666666666666667" />
<circle cx="621.60" cy="473.22" r="1.6666666666666667" />
<circle cx="622.01" cy="468.13" r="1.6666666666666667" />
<circle cx="622.53" cy="474.86" r="1.6666666666666667" />
<circle cx="622.97" cy="470.44" r="1.6666666666666667" />
<circle cx="623.51" cy="476.01" r="1.6666666666666667" />
<circle cx="623.92" cy="467.52" r="1.6666666666666667" />
<circle cx="624.43" cy="474.82" r="1.6666666666666667" />
<circle cx="624.86" cy="468.98" r="1.6666666666666667" />
<circle cx="625.35" cy="473.25" r="1.6666666666666667" />
<circle cx="625.76" cy="468.08" r="1.6666666666666667" />
<circle cx="626.30" cy="475.79" r="1.6666666666666667" />
<circle cx="626.71" cy="468.30" r="1.6666666666666667" />
<circle cx="627.22" cy="474.21" r="1.6666666666666667" />
<circle cx="627.63" cy="468.50" r="1.6666666666666667" />
<circle cx="628.17" cy="475.83" r="1.6666666666666667" />
<circle cx="628.60" cy="469.35" r="1.6666666666666667" />
<circle cx="629.15" cy="476.53" r="1.6666666666666667" />
<circle cx="629.61" cy="471.40" r="1.6666666666666667" />
<circle cx="630.13" cy="475.25" r="1.6666666666666667" />
<circle cx="630.58" cy="470.31" r="1.6666666666666667" />
<circle cx="631.09" cy="474.60" r="1.6666666666666667" />
<circle cx="631.57" cy="472.32" r="1.6666666666666667" />
<circle cx="632.07" cy="473.80" r="1.6666666666666667" />
<circle cx="632.53" cy="471.38" r="1.6666666666666667" />
<circle cx="633.07" cy="476.08" r="1.6666666666666667" />
<circle cx="633.49" cy="468.84" r="1.6666666666666667" />
<circle cx="634.02" cy="475.73" r="1.6666666666666667" />
<circle cx="634.50" cy="472.23" r="1.6666666666666667" />
<circle cx="635.03" cy="475.47" r="1.6666666666666667" />
<circle cx="635.50" cy="472.20" r="1.6666666666666667" />
<circle cx="636.02" cy="475.00" r="1.6666666666666667" />
<circle cx="636.50" cy="472.70" r="1.6666666666666667" />
<circle cx="637.03" cy="475.61" r="1.6666666666666667" />
<circle cx="637.49" cy="470.99" r="1.6666666666666667" />
<circle cx="661.20" cy="454.20" r="1.6666666666666667" />
<circle cx="661.54" cy="461.84" r="1.6666666666666667" />
<circle cx="661.83" cy="457.89" r="1.6666666666666667" />
<circle cx="662.16" cy="461.81" r="1.6666666666666667" />
<circle cx="662.43" cy="455.88" r="1.6666666666666667" />
<circle cx="662.77" cy="461.94" r="1.6666666666666667" />
<circle cx="663.06" cy="457.80" r="1.6666666666666667" />
<circle cx="663.40" cy="463.21" r="1.6666666666666667" />
<circle cx="663.67" cy="455.18" r="1.6666666666666667" />
<circle cx="664.00" cy="461.27" r="1.6666666666666667" />
<circle cx="664.26" cy="454.88" r="1.6666666666666667" />
<circle cx="664.59" cy="461.41" r="1.6666666666666667" />
<circle cx="664.84" cy="454.13" r="1.6666666666666667" />
<circle cx="665.16" cy="460.17" r="1.6666666666666667" />
<circle cx="665.44" cy="457.00" r="1.6666666666666667" />
<circle cx="665.77" cy="461.72" r="1.6666666666666667" />
<circle cx="666.06" cy="457.88" r="1.6666666666666667" />
<circle cx="666.40" cy="462.70" r="1.6666666666666667" />
<circle cx="666.70" cy="458.22" r="1.6666666666666667" />
<circle cx="667.03" cy="461.57" r="1.6666666666666667" />
<circle cx="667.32" cy="458.45" r="1.6666666666666667" />
<circle cx="667.65" cy="461.18" r="1.6666666666666667" />
<circle cx="667.92" cy="456.05" r="1.6666666666666667" />
<circle cx="668.27" cy="463.41" r="1.6666666666666667" />
<circle cx="668.55" cy="456.20" r="1.6666666666666667" />
<circle cx="668.89" cy="462.40" r="1.6666666666666667" />
<circle cx="669.16" cy="456.49" r="1.6666666666666667" />
<circle cx="669.50" cy="462.17" r="1.6666666666666667" />
<circle cx="669.80" cy="458.87" r="1.6666666666666667" />
<circle cx="670.15" cy="463.58" r="1.6666666666666667" />
<circle cx="670.43" cy="456.11" r="1.6666666666666667" />
<circle cx="670.75" cy="460.53" r="1.6666666666666667" />
<circle cx="671.00" cy="453.52" r="1.6666666666666667" />
<circle cx="671.32" cy="460.75" r="1.6666666666666667" />
<circle cx="671.62" cy="459.15" r="1.6666666666666667" />
<circle cx="671.99" cy="464.58" r="1.6666666666666667" />
<circle cx="672.24" cy="454.52" r="1.6666666666666667" />
<circle cx="672.57" cy="461.44" r="1.6666666666666667" />
<circle cx="672.81" cy="452.29" r="1.6666666666666667" />
<circle cx="673.16" cy="463.18" r="1.6666666666666667" />
<circle cx="673.46" cy="458.92" r="1.6666666666666667" />
<circle cx="673.82" cy="463.65" r="1.6666666666666667" />
<circle cx="674.08" cy="454.44" r="1.6666666666666667" />
<circle cx="674.41" cy="461.79" r="1.6666666666666667" />
<circle cx="674.68" cy="456.22" r="1.6666666666666667" />
<circle cx="675.02" cy="462.33" r="1.6666666666666667" />
<circle cx="675.28" cy="454.11" r="1.6666666666666667" />
<circle cx="675.60" cy="460.90" r="1.6666666666666667" />
<circle cx="675.86" cy="455.26" r="1.6666666666666667" />
<circle cx="676.19" cy="461.51" r="1.6666666666666667" />
<circle cx="676.47" cy="456.53" r="1.6666666666666667" />
<circle cx="676.81" cy="462.18" r="1.6666666666666667" />
<circle cx="677.08" cy="455.86" r="1.6666666666666667" />
<circle cx="677.42" cy="462.92" r="1.6666666666666667" />
<circle cx="677.70" cy="456.51" r="1.6666666666666667" />
<circle cx="678.03" cy="461.37" r="1.6666666666666667" />
<circle cx="678.28" cy="453.21" r="1.6666666666666667" />
<circle cx="678.58" cy="458.80" r="1.6666666666666667" />
<circle cx="678.83" cy="453.47" r="1.6666666666666667" />
<circle cx="679.12" cy="457.79" r="1.6666666666666667" />
<circle cx="679.35" cy="451.39" r="1.6666666666666667" />
<circle cx="679.62" cy="456.24" r="1.6666666666666667" />
<circle cx="679.87" cy="453.33" r="1.6666666666666667" />
<circle cx="680.15" cy="455.93" r="1.6666666666666667" />
<circle cx="680.35" cy="447.81" r="1.6666666666666667" />
<circle cx="680.60" cy="453.35" r="1.6666666666666667" />
<circle cx="680.80" cy="446.78" r="1.6666666666666667" />
<circle cx="681.05" cy="453.28" r="1.6666666666666667" />
<circle cx="681.25" cy="447.38" r="1.6666666666666667" />
<circle cx="681.51" cy="454.63" r="1.6666666666666667" />
<circle cx="681.72" cy="448.23" r="1.6666666666666667" />
<circle cx="681.97" cy="453.40" r="1.6666666666666667" />
<circle cx="682.17" cy="446.11" r="1.6666666666666667" />
<circle cx="682.40" cy="451.15" r="1.6666666666666667" />
<circle cx="682.59" cy="446.03" r="1.6666666666666667" />
<circle cx="682.82" cy="451.11" r="1.6666666666666667" />
<circle cx="683.03" cy="447.42" r="1.6666666666666667" />
<circle cx="683.28" cy="453.99" r="1.6666666666666667" />
<circle cx="683.49" cy="447.47" r="1.6666666666666667" />
<circle cx="683.75" cy="455.64" r="1.6666666666666667" />
<circle cx="683.94" cy="445.26" r="1.6666666666666667" />
<circle cx="684.19" cy="453.26" r="1.6666666666666667" />
<circle cx="684.39" cy="446.48" r="1.6666666666666667" />
<circle cx="684.64" cy="453.07" r="1.6666666666666667" />
<circle cx="684.84" cy="447.26" r="1.6666666666666667" />
<circle cx="685.08" cy="452.15" r="1.6666666666666667" />
<circle cx="685.28" cy="446.62" r="1.6666666666666667" />
<circle cx="685.52" cy="452.86" r="1.6666666666666667" />
<circle cx="685.72" cy="446.19" r="1.6666666666666667" />
<circle cx="685.97" cy="453.56" r="1.6666666666666667" />
<circle cx="686.17" cy="447.72" r="1.6666666666666667" />
<circle cx="686.42" cy="453.13" r="1.6666666666666667" />
<circle cx="686.64" cy="449.20" r="1.6666666666666667" />
<circle cx="686.89" cy="453.51" r="1.6666666666666667" />
<circle cx="687.09" cy="447.54" r="1.6666666666666667" />
<circle cx="687.35" cy="454.53" r="1.6666666666666667" />
<circle cx="687.55" cy="447.22" r="1.6666666666666667" />
<circle cx="687.82" cy="455.47" r="1.6666666666666667" />
<circle cx="688.04" cy="448.98" r="1.6666666666666667" />
<circle cx="688.28" cy="452.55" r="1.6666666666666667" />
<circle cx="688.50" cy="449.50" r="1.6666666666666667" />
<circle cx="688.76" cy="454.62" r="1.6666666666666667" />
<circle cx="688.97" cy="449.02" r="1.6666666666666667" />
<circle cx="689.25" cy="456.44" r="1.6666666666666667" />
<circle cx="689.46" cy="448.99" r="1.6666666666666667" />
<circle cx="689.74" cy="455.87" r="1.6666666666666667" />
<circle cx="689.95" cy="448.55" r="1.6666666666666667" />
<circle cx="690.22" cy="456.28" r="1.6666666666666667" />
<circle cx="690.46" cy="451.68" r="1.6666666666666667" />
<circle cx="690.72" cy="455.21" r="1.6666666666666667" />
</g>
<g stroke="black">
<line x1="813.75" x2="813.75" y1="510.00" y2="520.00" />
<line x1="760.60" x2="760.60" y1="510.00" y2="520.00" />
<line x1="707.45" x2="707.45" y1="510.00" y2="520.00" />
<line x1="656.01" x2="656.01" y1="510.00" y2="520.00" />
<line x1="602.86" x2="602.86" y1="510.00" y2="520.00" />
<line x1="551.42" x2="551.42" y1="510.00" y2="520.00" />
<line x1="498.27" x2="498.27" y1="510.00" y2="520.00" />
<line x1="445.11" x2="445.11" y1="510.00" y2="520.00" />
<line x1="393.68" x2="393.68" y1="510.00" y2="520.00" />
<line x1="340.52" x2="340.52" y1="510.00" y2="520.00" />
<line x1="289.09" x2="289.09" y1="510.00" y2="520.00" />
<line x1="235.93" x2="235.93" y1="510.00" y2="520.00" />
<line x1="187.92" x2="187.92" y1="510.00" y2="520.00" />
<g fill="black" font-family="Arial, sans-serif" font-size="18.0" stroke="none" text-anchor="start" transform="translate(9.0 0.0)">
<text x="813.75" y="530.57">Feb</text>
<text x="760.60" y="530.57">Jan</text>
<text x="707.45" y="530.57">Dec</text>
<text x="656.01" y="530.57">Nov</text>
<text x="602.86" y="530.57">Oct</text>
<text x="551.42" y="530.57">Sep</text>
<text x="498.27" y="530.57">Aug</text>
<text x="445.11" y="530.57">Jul</text>
<text x="393.68" y="530.57">Jun</text>
<text x="340.52" y="530.57">May</text>
<text x="289.09" y="530.57">Apr</text>
<text x="235.93" y="530.57">Mar</text>
<text x="187.92" y="530.57">Feb</text>
</g>
<line x1="150.00" x2="850.00" y1="510.00" y2="510.00" />
</g>
<g stroke="black">
<line x1="150.00" x2="140.00" y1="510.00" y2="510.00" />
<line x1="150.00" x2="140.00" y1="216.29" y2="216.29" />
<g fill="black" font-family="Arial, sans-serif" font-size="18.0" stroke="none" text-anchor="end">
<text x="141.00" y="501.00">0</text>
<text x="141.00" y="207.29">10</text>
</g>
<line x1="150.00" x2="150.00" y1="510.00" y2="90.00" />
</g>
</g>
</svg>