<?xml version="1.0"?>
<svg version="1.1" viewBox="0 0 1000 600" xmlns:xlink="http://www.w3.org/1999/xlink" xmlns="http://www.w3.org/2000/svg">
<g>
<g stroke-dasharray="3.6 7.2" stroke-width="0.72" stroke="#caa">
<line x1="654.97" x2="654.97" y1="510.00" y2="90.00" />
<line x1="150.00" x2="850.00" y1="510.00" y2="510.00" />
<line x1="150.00" x2="850.00" y1="244.85" y2="244.85" />
</g>
<g>
<text dominant-baseline="hanging" dx="-36.0" dy="18.0" fill="#0004" font-family="Arial, sans-serif" font-size="36" stroke="none" text-anchor="end" x="850.00" y="128.18">R19</text>
</g>
<g>
<text dominant-baseline="text-bottom" dy="-12.0" fill="black" font-family="Arial, sans-serif" font-size="18.0" font-style="italic" stroke="none" text-anchor="middle" x="500.00" y="90.00">Days since start</text>
</g>
<g>
<text dominant-baseline="central" dx="12.0" dy="12.0" fill="black" font-family="Arial, sans-serif" font-size="18.0" font-style="italic" stroke="none" text-anchor="middle" text-orientation="sideways" writing-mode="vertical-lr" x="850.00" y="300.00">Drips per day</text>
</g>
<polyline fill="none" points="150.00,494.09 150.13,498.01 150.34,502.61 150.39,480.63 150.44,479.45 150.49,476.31 150.55,486.62 150.66,494.93 150.73,489.36 150.79,484.83 150.90,495.68 167.69,509.91 205.43,509.96 205.48,480.63 205.53,474.20 205.53,319.09 205.54,280.91 205.55,280.91 205.55,280.91 205.56,333.78 205.57,375.24 205.58,346.36 205.59,366.82 205.61,389.43 205.63,425.15 205.67,476.80 215.90,509.85 215.91,428.18 215.93,375.24 215.93,301.73 215.94,346.36 215.95,382.73 215.97,382.73 215.99,428.18 216.02,463.25 216.07,481.72 216.14,485.63 216.39,503.83 216.63,503.56 216.75,497.88 216.86,496.03 216.98,497.13 217.09,495.41 217.18,492.90 217.26,489.55 217.33,488.98 217.41,489.55 217.50,492.90 217.59,494.09 217.67,490.42 217.76,492.24 217.84,490.42 217.94,495.12 218.04,493.98 218.11,488.98 218.18,488.39 218.24,483.97 218.33,492.51 218.43,493.87 218.55,497.20 218.73,501.70 227.76,509.83 402.95,500.98 403.07,496.60 403.17,495.41 403.36,501.64 404.89,508.99 405.79,508.29 405.98,502.21 407.91,509.20 408.11,502.31 408.52,506.24 408.59,487.54 408.64,482.73 408.71,486.62 408.77,484.55 408.84,487.54 408.91,487.97 409.13,503.20 412.78,509.58 497.39,500.49 497.51,497.27 500.63,509.50 501.38,507.96 568.57,451.26 568.59,444.55 568.62,449.71 568.64,455.45 568.67,457.93 568.71,467.58 568.74,465.94 568.78,467.58 568.82,473.05 568.87,478.18 568.91,465.08 568.94,464.18 568.99,482.06 569.05,482.73 569.09,465.94 569.11,438.41 569.13,433.64 569.15,442.62 569.18,448.08 569.20,454.12 569.24,462.27 569.26,456.72 569.29,456.72 569.33,469.81 569.39,483.36 569.44,478.62 569.48,469.81 569.51,465.08 569.55,470.50 569.64,493.03 569.91,504.20 570.00,492.64 570.91,508.31 571.12,502.41 571.24,497.27 571.38,498.77 571.63,503.87 572.01,505.98 592.21,509.92 623.69,509.95 623.72,446.36 623.76,475.81 673.39,509.97 673.43,477.73 673.50,487.32 673.55,474.20 673.60,483.97 673.67,487.09 673.84,500.76 673.90,485.37 673.93,455.45 673.96,449.71 673.98,456.72 674.02,466.78 674.04,405.87 674.05,405.87 674.07,410.39 674.08,400.91 674.09,389.43 674.11,395.45 674.13,431.00 674.15,442.62 674.16,414.54 674.18,410.39 674.20,421.89 674.21,400.91 674.22,382.73 674.24,389.43 674.25,346.36 674.25,319.09 674.26,301.73 674.27,357.27 674.28,333.78 674.30,428.18 674.31,395.45 674.32,333.78 674.33,319.09 674.34,301.73 674.35,319.09 674.35,301.73 674.36,319.09 674.37,346.36 674.38,333.78 674.39,333.78 674.40,319.09 674.41,346.36 674.41,319.09 674.42,333.78 674.43,357.27 674.44,319.09 674.45,319.09 674.45,255.45 674.46,223.63 674.47,301.73 674.48,319.09 674.48,333.78 674.49,319.09 674.50,333.78 674.51,301.73 674.52,333.78 674.53,346.36 674.54,346.36 674.54,301.73 674.55,301.73 674.56,280.91 674.56,182.73 674.57,255.45 674.57,223.63 674.58,223.63 674.58,182.73 674.59,128.18 674.59,182.73 674.60,223.63 674.60,128.18 674.61,255.45 674.61,223.63 674.62,223.63 674.63,255.45 674.63,280.91 674.64,301.73 674.65,301.73 674.65,319.09 674.66,346.36 674.67,357.27 674.69,395.45 674.71,421.89 674.73,455.45 674.77,471.82 674.85,490.59 674.89,471.82 675.00,495.86 675.52,507.01 679.07,509.56 683.04,509.61 730.22,509.97 730.27,481.00 730.29,433.64 730.32,436.10 730.34,442.62 730.35,346.36 730.36,414.54 730.38,410.39 730.40,428.18 730.42,418.36 730.44,433.64 730.44,319.09 730.45,333.78 730.46,319.09 730.47,319.09 730.48,357.27 730.50,421.89 730.51,395.45 730.52,389.43 730.54,414.54 730.55,395.45 730.57,395.45 730.58,418.36 730.60,421.89 730.62,425.15 730.64,448.08 730.67,454.12 730.70,462.27 730.73,457.93 730.76,456.72 730.80,469.09 730.85,481.36 730.89,471.17 730.93,463.25 730.95,454.12 730.98,449.71 731.00,442.62 731.02,440.58 731.05,449.71 731.09,468.35 731.12,462.27 731.16,474.76 731.24,488.59 731.47,503.55 733.58,509.27 789.91,509.97 789.95,465.94 789.98,463.25 790.00,433.64 790.03,456.72 790.05,442.62 790.08,448.08 790.13,482.06 790.18,478.62 790.27,492.38 790.39,497.62 790.59,502.10 790.63,471.82 790.64,375.24 790.65,346.36 790.66,346.36 790.67,357.27 790.68,346.36 790.69,319.09 790.70,346.36 790.70,333.78 790.71,280.91 790.72,319.09 790.73,366.82 790.74,357.27 790.75,366.82 790.76,375.24 790.77,333.78 790.78,375.24 790.79,389.43 790.81,405.87 790.83,410.39 790.85,436.10 790.87,442.62 790.89,421.89 790.91,436.10 790.94,462.27 790.98,471.17 791.02,474.76 791.07,474.76 791.15,490.25 791.29,499.44 791.43,499.14 791.55,496.98 791.64,491.82 791.73,493.03 791.88,499.54 792.17,504.75 792.83,507.68 793.35,507.00 793.73,505.91 793.92,501.88 794.13,502.73 794.38,503.86 794.59,502.54 794.92,505.43 795.24,505.06 795.69,506.58 796.27,507.35 796.76,506.84 797.22,506.67 798.07,508.18 798.44,505.84 799.14,507.79 805.36,509.75 846.66,509.96 846.69,451.26 846.70,410.39 846.72,414.54 846.73,389.43 846.75,414.54 846.76,400.91 846.78,410.39 846.79,382.73 846.82,452.73 846.83,389.43 846.85,431.00 846.86,382.73 846.87,319.09 846.88,301.73 846.88,319.09 846.89,280.91 846.90,301.73 846.90,223.63 846.91,319.09 846.92,280.91 846.92,280.91 846.93,280.91 846.94,223.63 846.94,223.63 846.95,255.45 846.95,223.63 846.96,280.91 846.97,255.45 846.97,280.91 846.98,255.45 846.99,280.91 846.99,255.45 847.00,182.73 847.00,255.45 847.01,255.45 847.01,255.45 847.02,223.63 847.03,255.45 847.03,301.73 847.04,301.73 847.05,357.27 847.06,301.73 847.07,357.27 847.08,319.09 847.09,382.73 847.10,382.73 847.12,400.91 847.13,410.39 847.14,389.43 847.15,301.73 847.16,301.73 847.17,333.78 847.18,319.09 847.18,280.91 847.19,301.73 847.20,333.78 847.20,280.91 847.21,301.73 847.22,333.78 847.23,255.45 847.23,280.91 847.24,280.91 847.25,333.78 847.26,346.36 847.27,346.36 847.28,382.73 847.29,366.82 847.30,357.27 847.31,375.24 847.33,410.39 847.34,395.45 847.35,389.43 847.36,346.36 847.37,301.73 847.38,366.82 847.39,280.91 847.40,366.82 847.41,357.27 847.42,346.36 847.43,375.24 847.44,375.24 847.46,395.45 847.47,395.45 847.48,389.43 847.49,382.73 847.51,382.73 847.52,414.54 847.54,410.39 847.55,405.87 847.57,400.91 847.58,410.39 847.60,400.91 847.61,414.54 847.63,400.91 847.64,400.91 847.66,410.39 847.68,428.18 847.70,442.62 847.72,436.10 847.74,444.55 847.76,440.58 847.79,454.12 847.82,455.45 847.84,418.36 847.86,433.64 847.88,440.58 847.91,451.26 847.93,436.10 847.94,418.36 847.97,440.58 847.99,436.10 848.03,473.64 848.12,493.52 850.00,509.18" stroke-dasharray="3.6 3.6" stroke-width="3.6" stroke="#aaa" />
<g>
<circle cx="150.00" cy="494.09" r="1.6666666666666667" />
<circle cx="150.13" cy="498.01" r="1.6666666666666667" />
<circle cx="150.34" cy="502.61" r="1.6666666666666667" />
<circle cx="150.39" cy="480.63" r="1.6666666666666667" />
<circle cx="150.44" cy="479.45" r="1.6666666666666667" />
<circle cx="150.49" cy="476.31" r="1.6666666666666667" />
<circle cx="150.55" cy="486.62" r="1.6666666666666667" />
<circle cx="150.66" cy="494.93" r="1.6666666666666667" />
<circle cx="150.73" cy="489.36" r="1.6666666666666667" />
<circle cx="150.79" cy="484.83" r="1.6666666666666667" />
<circle cx="150.90" cy="495.68" r="1.6666666666666667" />
<circle cx="167.69" cy="509.91" r="1.6666666666666667" />
<circle cx="205.43" cy="509.96" r="1.6666666666666667" />
<circle cx="205.48" cy="480.63" r="1.6666666666666667" />
<circle cx="205.53" cy="474.20" r="1.6666666666666667" />
<circle cx="205.53" cy="319.09" r="1.6666666666666667" />
<circle cx="205.54" cy="280.91" r="1.6666666666666667" />
<circle cx="205.55" cy="280.91" r="1.6666666666666667" />
<circle cx="205.55" cy="280.91" r="1.6666666666666667" />
<circle cx="205.56" cy="333.78" r="1.6666666666666667" />
<circle cx="205.57" cy="375.24" r="1.6666666666666667" />
<circle cx="205.58" cy="346.36" r="1.6666666666666667" />
<circle cx="205.59" cy="366.82" r="1.6666666666666667" />
<circle cx="205.61" cy="389.43" r="1.6666666666666667" />
<circle cx="205.63" cy="425.15" r="1.6666666666666667" />
<circle cx="205.67" cy="476.80" r="1.6666666666666667" />
<circle cx="215.90" cy="509.85" r="1.6666666666666667" />
<circle cx="215.91" cy="428.18" r="1.6666666666666667" />
<circle cx="215.93" cy="375.24" r="1.6666666666666667" />
<circle cx="215.93" cy="301.73" r="1.6666666666666667" />
<circle cx="215.94" cy="346.36" r="1.6666666666666667" />
<circle cx="215.95" cy="382.73" r="1.6666666666666667" />
<circle cx="215.97" cy="382.73" r="1.6666666666666667" />
<circle cx="215.99" cy="428.18" r="1.6666666666666667" />
<circle cx="216.02" cy="463.25" r="1.6666666666666667" />
<circle cx="216.07" cy="481.72" r="1.6666666666666667" />
<circle cx="216.14" cy="485.63" r="1.6666666666666667" />
<circle cx="216.39" cy="503.83" r="1.6666666666666667" />
<circle cx="216.63" cy="503.56" r="1.6666666666666667" />
<circle cx="216.75" cy="497.88" r="1.6666666666666667" />
<circle cx="216.86" cy="496.03" r="1.6666666666666667" />
<circle cx="216.98" cy="497.13" r="1.6666666666666667" />
<circle cx="217.09" cy="495.41" r="1.6666666666666667" />
<circle cx="217.18" cy="492.90" r="1.6666666666666667" />
<circle cx="217.26" cy="489.55" r="1.6666666666666667" />
<circle cx="217.33" cy="488.98" r="1.6666666666666667" />
<circle cx="217.41" cy="489.55" r="1.6666666666666667" />
<circle cx="217.50" cy="492.90" r="1.6666666666666667" />
<circle cx="217.59" cy="494.09" r="1.6666666666666667" />
<circle cx="217.67" cy="490.42" r="1.6666666666666667" />
<circle cx="217.76" cy="492.24" r="1.6666666666666667" />
<circle cx="217.84" cy="490.42" r="1.6666666666666667" />
<circle cx="217.94" cy="495.12" r="1.6666666666666667" />
<circle cx="218.04" cy="493.98" r="1.6666666666666667" />
<circle cx="218.11" cy="488.98" r="1.6666666666666667" />
<circle cx="218.18" cy="488.39" r="1.6666666666666667" />
<circle cx="218.24" cy="483.97" r="1.6666666666666667" />
<circle cx="218.33" cy="492.51" r="1.6666666666666667" />
<circle cx="218.43" cy="493.87" r="1.6666666666666667" />
<circle cx="218.55" cy="497.20" r="1.6666666666666667" />
<circle cx="218.73" cy="501.70" r="1.6666666666666667" />
<circle cx="227.76" cy="509.83" r="1.6666666666666667" />
<circle cx="402.95" cy="500.98" r="1.6666666666666667" />
<circle cx="403.07" cy="496.60" r="1.6666666666666667" />
<circle cx="403.17" cy="495.41" r="1.6666666666666667" />
<circle cx="403.36" cy="501.64" r="1.6666666666666667" />
<circle cx="404.89" cy="508.99" r="1.6666666666666667" />
<circle cx="405.79" cy="508.29" r="1.6666666666666667" />
<circle cx="405.98" cy="502.21" r="1.6666666666666667" />
<circle cx="407.91" cy="509.20" r="1.6666666666666667" />
<circle cx="408.11" cy="502.31" r="1.6666666666666667" />
<circle cx="408.52" cy="506.24" r="1.6666666666666667" />
<circle cx="408.59" cy="487.54" r="1.6666666666666667" />
<circle cx="408.64" cy="482.73" r="1.6666666666666667" />
<circle cx="408.71" cy="486.62" r="1.6666666666666667" />
<circle cx="408.77" cy="484.55" r="1.6666666666666667" />
<circle cx="408.84" cy="487.54" r="1.6666666666666667" />
<circle cx="408.91" cy="487.97" r="1.6666666666666667" />
<circle cx="409.13" cy="503.20" r="1.6666666666666667" />
<circle cx="412.78" cy="509.58" r="1.6666666666666667" />
<circle cx="497.39" cy="500.49" r="1.6666666666666667" />
<circle cx="497.51" cy="497.27" r="1.6666666666666667" />
<circle cx="500.63" cy="509.50" r="1.6666666666666667" />
<circle cx="501.38" cy="507.96" r="1.6666666666666667" />
<circle cx="568.57" cy="451.26" r="1.6666666666666667" />
<circle cx="568.59" cy="444.55" r="1.6666666666666667" />
<circle cx="568.62" cy="449.71" r="1.6666666666666667" />
<circle cx="568.64" cy="455.45" r="1.6666666666666667" />
<circle cx="568.67" cy="457.93" r="1.6666666666666667" />
<circle cx="568.71" cy="467.58" r="1.6666666666666667" />
<circle cx="568.74" cy="465.94" r="1.6666666666666667" />
<circle cx="568.78" cy="467.58" r="1.6666666666666667" />
<circle cx="568.82" cy="473.05" r="1.6666666666666667" />
<circle cx="568.87" cy="478.18" r="1.6666666666666667" />
<circle cx="568.91" cy="465.08" r="1.6666666666666667" />
<circle cx="568.94" cy="464.18" r="1.6666666666666667" />
<circle cx="568.99" cy="482.06" r="1.6666666666666667" />
<circle cx="569.05" cy="482.73" r="1.6666666666666667" />
<circle cx="569.09" cy="465.94" r="1.6666666666666667" />
<circle cx="569.11" cy="438.41" r="1.6666666666666667" />
<circle cx="569.13" cy="433.64" r="1.6666666666666667" />
<circle cx="569.15" cy="442.62" r="1.6666666666666667" />
<circle cx="569.18" cy="448.08" r="1.6666666666666667" />
<circle cx="569.20" cy="454.12" r="1.6666666666666667" />
<circle cx="569.24" cy="462.27" r="1.6666666666666667" />
<circle cx="569.26" cy="456.72" r="1.6666666666666667" />
<circle cx="569.29" cy="456.72" r="1.6666666666666667" />
<circle cx="569.33" cy="469.81" r="1.6666666666666667" />
<circle cx="569.39" cy="483.36" r="1.6666666666666667" />
<circle cx="569.44" cy="478.62" r="1.6666666666666667" />
<circle cx="569.48" cy="469.81" r="1.6666666666666667" />
<circle cx="569.51" cy="465.08" r="1.6666666666666667" />
<circle cx="569.55" cy="470.50" r="1.6666666666666667" />
<circle cx="569.64" cy="493.03" r="1.6666666666666667" />
<circle cx="569.91" cy="504.20" r="1.6666666666666667" />
<circle cx="570.00" cy="492.64" r="1.6666666666666667" />
<circle cx="570.91" cy="508.31" r="1.6666666666666667" />
<circle cx="571.12" cy="502.41" r="1.6666666666666667" />
<circle cx="571.24" cy="497.27" r="1.6666666666666667" />
<circle cx="571.38" cy="498.77" r="1.6666666666666667" />
<circle cx="571.63" cy="503.87" r="1.6666666666666667" />
<circle cx="572.01" cy="505.98" r="1.6666666666666667" />
<circle cx="592.21" cy="509.92" r="1.6666666666666667" />
<circle cx="623.69" cy="509.95" r="1.6666666666666667" />
<circle cx="623.72" cy="446.36" r="1.6666666666666667" />
<circle cx="623.76" cy="475.81" r="1.6666666666666667" />
<circle cx="673.39" cy="509.97" r="1.6666666666666667" />
<circle cx="673.43" cy="477.73" r="1.6666666666666667" />
<circle cx="673.50" cy="487.32" r="1.6666666666666667" />
<circle cx="673.55" cy="474.20" r="1.6666666666666667" />
<circle cx="673.60" cy="483.97" r="1.6666666666666667" />
<circle cx="673.67" cy="487.09" r="1.6666666666666667" />
<circle cx="673.84" cy="500.76" r="1.6666666666666667" />
<circle cx="673.90" cy="485.37" r="1.6666666666666667" />
<circle cx="673.93" cy="455.45" r="1.6666666666666667" />
<circle cx="673.96" cy="449.71" r="1.6666666666666667" />
<circle cx="673.98" cy="456.72" r="1.6666666666666667" />
<circle cx="674.02" cy="466.78" r="1.6666666666666667" />
<circle cx="674.04" cy="405.87" r="1.6666666666666667" />
<circle cx="674.05" cy="405.87" r="1.6666666666666667" />
<circle cx="674.07" cy="410.39" r="1.6666666666666667" />
<circle cx="674.08" cy="400.91" r="1.6666666666666667" />
<circle cx="674.09" cy="389.43" r="1.6666666666666667" />
<circle cx="674.11" cy="395.45" r="1.6666666666666667" />
<circle cx="674.13" cy="431.00" r="1.6666666666666667" />
<circle cx="674.15" cy="442.62" r="1.6666666666666667" />
<circle cx="674.16" cy="414.54" r="1.6666666666666667" />
<circle cx="674.18" cy="410.39" r="1.6666666666666667" />
<circle cx="674.20" cy="421.89" r="1.6666666666666667" />
<circle cx="674.21" cy="400.91" r="1.6666666666666667" />
<circle cx="674.22" cy="382.73" r="1.6666666666666667" />
<circle cx="674.24" cy="389.43" r="1.6666666666666667" />
<circle cx="674.25" cy="346.36" r="1.6666666666666667" />
<circle cx="674.25" cy="319.09" r="1.6666666666666667" />
<circle cx="674.26" cy="301.73" r="1.6666666666666667" />
<circle cx="674.27" cy="357.27" r="1.6666666666666667" />
<circle cx="674.28" cy="333.78" r="1.6666666666666667" />
<circle cx="674.30" cy="428.18" r="1.6666666666666667" />
<circle cx="674.31" cy="395.45" r="1.6666666666666667" />
<circle cx="674.32" cy="333.78" r="1.6666666666666667" />
<circle cx="674.33" cy="319.09" r="1.6666666666666667" />
<circle cx="674.34" cy="301.73" r="1.6666666666666667" />
<circle cx="674.35" cy="319.09" r="1.6666666666666667" />
<circle cx="674.35" cy="301.73" r="1.6666666666666667" />
<circle cx="674.36" cy="319.09" r="1.6666666666666667" />
<circle cx="674.37" cy="346.36" r="1.6666666666666667" />
<circle cx="674.38" cy="333.78" r="1.6666666666666667" />
<circle cx="674.39" cy="333.78" r="1.6666666666666667" />
<circle cx="674.40" cy="319.09" r="1.6666666666666667" />
<circle cx="674.41" cy="346.36" r="1.6666666666666667" />
<circle cx="674.41" cy="319.09" r="1.6666666666666667" />
<circle cx="674.42" cy="333.78" r="1.6666666666666667" />
<circle cx="674.43" cy="357.27" r="1.6666666666666667" />
<circle cx="674.44" cy="319.09" r="1.6666666666666667" />
<circle cx="674.45" cy="319.09" r="1.6666666666666667" />
<circle cx="674.45" cy="255.45" r="1.6666666666666667" />
<circle cx="674.46" cy="223.63" r="1.6666666666666667" />
<circle cx="674.47" cy="301.73" r="1.6666666666666667" />
<circle cx="674.48" cy="319.09" r="1.6666666666666667" />
<circle cx="674.48" cy="333.78" r="1.6666666666666667" />
<circle cx="674.49" cy="319.09" r="1.6666666666666667" />
<circle cx="674.50" cy="333.78" r="1.6666666666666667" />
<circle cx="674.51" cy="301.73" r="1.6666666666666667" />
<circle cx="674.52" cy="333.78" r="1.6666666666666667" />
<circle cx="674.53" cy="346.36" r="1.6666666666666667" />
<circle cx="674.54" cy="346.36" r="1.6666666666666667" />
<circle cx="674.54" cy="301.73" r="1.6666666666666667" />
<circle cx="674.55" cy="301.73" r="1.6666666666666667" />
<circle cx="674.56" cy="280.91" r="1.6666666666666667" />
<circle cx="674.56" cy="182.73" r="1.6666666666666667" />
<circle cx="674.57" cy="255.45" r="1.6666666666666667" />
<circle cx="674.57" cy="223.63" r="1.6666666666666667" />
<circle cx="674.58" cy="223.63" r="1.6666666666666667" />
<circle cx="674.58" cy="182.73" r="1.6666666666666667" />
<circle cx="674.59" cy="128.18" r="1.6666666666666667" />
<circle cx="674.59" cy="182.73" r="1.6666666666666667" />
<circle cx="674.60" cy="223.63" r="1.6666666666666667" />
<circle cx="674.60" cy="128.18" r="1.6666666666666667" />
<circle cx="674.61" cy="255.45" r="1.6666666666666667" />
<circle cx="674.61" cy="223.63" r="1.6666666666666667" />
<circle cx="674.62" cy="223.63" r="1.6666666666666667" />
<circle cx="674.63" cy="255.45" r="1.6666666666666667" />
<circle cx="674.63" cy="280.91" r="1.6666666666666667" />
<circle cx="674.64" cy="301.73" r="1.6666666666666667" />
<circle cx="674.65" cy="301.73" r="1.6666666666666667" />
<circle cx="674.65" cy="319.09" r="1.6666666666666667" />
<circle cx="674.66" cy="346.36" r="1.6666666666666667" />
<circle cx="674.67" cy="357.27" r="1.6666666666666667" />
<circle cx="674.69" cy="395.45" r="1.6666666666666667" />
<circle cx="674.71" cy="421.89" r="1.6666666666666667" />
<circle cx="674.73" cy="455.45" r="1.6666666666666667" />
<circle cx="674.77" cy="471.82" r="1.6666666666666667" />
<circle cx="674.85" cy="490.59" r="1.6666666666666667" />
<circle cx="674.89" cy="471.82" r="1.6666666666666667" />
<circle cx="675.00" cy="495.86" r="1.6666666666666667" />
<circle cx="675.52" cy="507.01" r="1.6666666666666667" />
<circle cx="679.07" cy="509.56" r="1.6666666666666667" />
<circle cx="683.04" cy="509.61" r="1.6666666666666667" />
<circle cx="730.22" cy="509.97" r="1.6666666666666667" />
<circle cx="730.27" cy="481.00" r="1.6666666666666667" />
<circle cx="730.29" cy="433.64" r="1.6666666666666667" />
<circle cx="730.32" cy="436.10" r="1.6666666666666667" />
<circle cx="730.34" cy="442.62" r="1.6666666666666667" />
<circle cx="730.35" cy="346.36" r="1.6666666666666667" />
<circle cx="730.36" cy="414.54" r="1.6666666666666667" />
<circle cx="730.38" cy="410.39" r="1.6666666666666667" />
<circle cx="730.40" cy="428.18" r="1.6666666666666667" />
<circle cx="730.42" cy="418.36" r="1.6666666666666667" />
<circle cx="730.44" cy="433.64" r="1.6666666666666667" />
<circle cx="730.44" cy="319.09" r="1.6666666666666667" />
<circle cx="730.45" cy="333.78" r="1.6666666666666667" />
<circle cx="730.46" cy="319.09" r="1.6666666666666667" />
<circle cx="730.47" cy="319.09" r="1.6666666666666667" />
<circle cx="730.48" cy="357.27" r="1.6666666666666667" />
<circle cx="730.50" cy="421.89" r="1.6666666666666667" />
<circle cx="730.51" cy="395.45" r="1.6666666666666667" />
<circle cx="730.52" cy="389.43" r="1.6666666666666667" />
<circle cx="730.54" cy="414.54" r="1.6666666666666667" />
<circle cx="730.55" cy="395.45" r="1.6666666666666667" />
<circle cx="730.57" cy="395.45" r="1.6666666666666667" />
<circle cx="730.58" cy="418.36" r="1.6666666666666667" />
<circle cx="730.60" cy="421.89" r="1.6666666666666667" />
<circle cx="730.62" cy="425.15" r="1.6666666666666667" />
<circle cx="730.64" cy="448.08" r="1.6666666666666667" />
<circle cx="730.67" cy="454.12" r="1.6666666666666667" />
<circle cx="730.70" cy="462.27" r="1.6666666666666667" />
<circle cx="730.73" cy="457.93" r="1.6666666666666667" />
<circle cx="730.76" cy="456.72" r="1.6666666666666667" />
<circle cx="730.80" cy="469.09" r="1.6666666666666667" />
<circle cx="730.85" cy="481.36" r="1.6666666666666667" />
<circle cx="730.89" cy="471.17" r="1.6666666666666667" />
<circle cx="730.93" cy="463.25" r="1.6666666666666667" />
<circle cx="730.95" cy="454.12" r="1.6666666666666667" />
<circle cx="730.98" cy="449.71" r="1.6666666666666667" />
<circle cx="731.00" cy="442.62" r="1.6666666666666667" />
<circle cx="731.02" cy="440.58" r="1.6666666666666667" />
<circle cx="731.05" cy="449.71" r="1.6666666666666667" />
<circle cx="731.09" cy="468.35" r="1.6666666666666667" />
<circle cx="731.12" cy="462.27" r="1.6666666666666667" />
<circle cx="731.16" cy="474.76" r="1.6666666666666667" />
<circle cx="731.24" cy="488.59" r="1.6666666666666667" />
<circle cx="731.47" cy="503.55" r="1.6666666666666667" />
<circle cx="733.58" cy="509.27" r="1.6666666666666667" />
<circle cx="789.91" cy="509.97" r="1.6666666666666667" />
<circle cx="789.95" cy="465.94" r="1.6666666666666667" />
<circle cx="789.98" cy="463.25" r="1.6666666666666667" />
<circle cx="790.00" cy="433.64" r="1.6666666666666667" />
<circle cx="790.03" cy="456.72" r="1.6666666666666667" />
<circle cx="790.05" cy="442.62" r="1.6666666666666667" />
<circle cx="790.08" cy="448.08" r="1.6666666666666667" />
<circle cx="790.13" cy="482.06" r="1.6666666666666667" />
<circle cx="790.18" cy="478.62" r="1.6666666666666667" />
<circle cx="790.27" cy="492.38" r="1.6666666666666667" />
<circle cx="790.39" cy="497.62" r="1.6666666666666667" />
<circle cx="790.59" cy="502.10" r="1.6666666666666667" />
<circle cx="790.63" cy="471.82" r="1.6666666666666667" />
<circle cx="790.64" cy="375.24" r="1.6666666666666667" />
<circle cx="790.65" cy="346.36" r="1.6666666666666667" />
<circle cx="790.66" cy="346.36" r="1.6666666666666667" />
<circle cx="790.67" cy="357.27" r="1.6666666666666667" />
<circle cx="790.68" cy="346.36" r="1.6666666666666667" />
<circle cx="790.69" cy="319.09" r="1.6666666666666667" />
<circle cx="790.70" cy="346.36" r="1.6666666666666667" />
<circle cx="790.70" cy="333.78" r="1.6666666666666667" />
<circle cx="790.71" cy="280.91" r="1.6666666666666667" />
<circle cx="790.72" cy="319.09" r="1.6666666666666667" />
<circle cx="790.73" cy="366.82" r="1.6666666666666667" />
<circle cx="790.74" cy="357.27" r="1.6666666666666667" />
<circle cx="790.75" cy="366.82" r="1.6666666666666667" />
<circle cx="790.76" cy="375.24" r="1.6666666666666667" />
<circle cx="790.77" cy="333.78" r="1.6666666666666667" />
<circle cx="790.78" cy="375.24" r="1.6666666666666667" />
<circle cx="790.79" cy="389.43" r="1.6666666666666667" />
<circle cx="790.81" cy="405.87" r="1.6666666666666667" />
<circle cx="790.83" cy="410.39" r="1.6666666666666667" />
<circle cx="790.85" cy="436.10" r="1.6666666666666667" />
<circle cx="790.87" cy="442.62" r="1.6666666666666667" />
<circle cx="790.89" cy="421.89" r="1.6666666666666667" />
<circle cx="790.91" cy="436.10" r="1.6666666666666667" />
<circle cx="790.94" cy="462.27" r="1.6666666666666667" />
<circle cx="790.98" cy="471.17" r="1.6666666666666667" />
<circle cx="791.02" cy="474.76" r="1.6666666666666667" />
<circle cx="791.07" cy="474.76" r="1.6666666666666667" />
<circle cx="791.15" cy="490.25" r="1.6666666666666667" />
<circle cx="791.29" cy="499.44" r="1.6666666666666667" />
<circle cx="791.43" cy="499.14" r="1.6666666666666667" />
<circle cx="791.55" cy="496.98" r="1.6666666666666667" />
<circle cx="791.64" cy="491.82" r="1.6666666666666667" />
<circle cx="791.73" cy="493.03" r="1.6666666666666667" />
<circle cx="791.88" cy="499.54" r="1.6666666666666667" />
<circle cx="792.17" cy="504.75" r="1.6666666666666667" />
<circle cx="792.83" cy="507.68" r="1.6666666666666667" />
<circle cx="793.35" cy="507.00" r="1.6666666666666667" />
<circle cx="793.73" cy="505.91" r="1.6666666666666667" />
<circle cx="793.92" cy="501.88" r="1.6666666666666667" />
<circle cx="794.13" cy="502.73" r="1.6666666666666667" />
<circle cx="794.38" cy="503.86" r="1.6666666666666667" />
<circle cx="794.59" cy="502.54" r="1.6666666666666667" />
<circle cx="794.92" cy="505.43" r="1.6666666666666667" />
<circle cx="795.24" cy="505.06" r="1.6666666666666667" />
<circle cx="795.69" cy="506.58" r="1.6666666666666667" />
<circle cx="796.27" cy="507.35" r="1.6666666666666667" />
<circle cx="796.76" cy="506.84" r="1.6666666666666667" />
<circle cx="797.22" cy="506.67" r="1.6666666666666667" />
<circle cx="798.07" cy="508.18" r="1.6666666666666667" />
<circle cx="798.44" cy="505.84" r="1.6666666666666667" />
<circle cx="799.14" cy="507.79" r="1.6666666666666667" />
<circle cx="805.36" cy="509.75" r="1.6666666666666667" />
<circle cx="846.66" cy="509.96" r="1.6666666666666667" />
<circle cx="846.69" cy="451.26" r="1.6666666666666667" />
<circle cx="846.70" cy="410.39" r="1.6666666666666667" />
<circle cx="846.72" cy="414.54" r="1.6666666666666667" />
<circle cx="846.73" cy="389.43" r="1.6666666666666667" />
<circle cx="846.75" cy="414.54" r="1.6666666666666667" />
<circle cx="846.76" cy="400.91" r="1.6666666666666667" />
<circle cx="846.78" cy="410.39" r="1.6666666666666667" />
<circle cx="846.79" cy="382.73" r="1.6666666666666667" />
<circle cx="846.82" cy="452.73" r="1.6666666666666667" />
<circle cx="846.83" cy="389.43" r="1.6666666666666667" />
<circle cx="846.85" cy="431.00" r="1.6666666666666667" />
<circle cx="846.86" cy="382.73" r="1.6666666666666667" />
<circle cx="846.87" cy="319.09" r="1.6666666666666667" />
<circle cx="846.88" cy="301.73" r="1.6666666666666667" />
<circle cx="846.88" cy="319.09" r="1.6666666666666667" />
<circle cx="846.89" cy="280.91" r="1.6666666666666667" />
<circle cx="846.90" cy="301.73" r="1.6666666666666667" />
<circle cx="846.90" cy="223.63" r="1.6666666666666667" />
<circle cx="846.91" cy="319.09" r="1.6666666666666667" />
<circle cx="846.92" cy="280.91" r="1.6666666666666667" />
<circle cx="846.92" cy="280.91" r="1.6666666666666667" />
<circle cx="846.93" cy="280.91" r="1.6666666666666667" />
<circle cx="846.94" cy="223.63" r="1.6666666666666667" />
<circle cx="846.94" cy="223.63" r="1.6666666666666667" />
<circle cx="846.95" cy="255.45" r="1.6666666666666667" />
<circle cx="846.95" cy="223.63" r="1.6666666666666667" />
<circle cx="846.96" cy="280.91" r="1.6666666666666667" />
<circle cx="846.97" cy="255.45" r="1.6666666666666667" />
<circle cx="846.97" cy="280.91" r="1.6666666666666667" />
<circle cx="846.98" cy="255.45" r="1.6666666666666667" />
<circle cx="846.99" cy="280.91" r="1.6666666666666667" />
<circle cx="846.99" cy="255.45" r="1.6666666666666667" />
<circle cx="847.00" cy="182.73" r="1.6666666666666667" />
<circle cx="847.00" cy="255.45" r="1.6666666666666667" />
<circle cx="847.01" cy="255.45" r="1.6666666666666667" />
<circle cx="847.01" cy="255.45" r="1.6666666666666667" />
<circle cx="847.02" cy="223.63" r="1.6666666666666667" />
<circle cx="847.03" cy="255.45" r="1.6666666666666667" />
<circle cx="847.03" cy="301.73" r="1.6666666666666667" />
<circle cx="847.04" cy="301.73" r="1.6666666666666667" />
<circle cx="847.05" cy="357.27" r="1.6666666666666667" />
<circle cx="847.06" cy="301.73" r="1.6666666666666667" />
<circle cx="847.07" cy="357.27" r="1.6666666666666667" />
<circle cx="847.08" cy="319.09" r="1.6666666666666667" />
<circle cx="847.09" cy="382.73" r="1.6666666666666667" />
<circle cx="847.10" cy="382.73" r="1.6666666666666667" />
<circle cx="847.12" cy="400.91" r="1.6666666666666667" />
<circle cx="847.13" cy="410.39" r="1.6666666666666667" />
<circle cx="847.14" cy="389.43" r="1.6666666666666667" />
<circle cx="847.15" cy="301.73" r="1.6666666666666667" />
<circle cx="847.16" cy="301.73" r="1.6666666666666667" />
<circle cx="847.17" cy="333.78" r="1.6666666666666667" />
<circle cx="847.18" cy="319.09" r="1.6666666666666667" />
<circle cx="847.18" cy="280.91" r="1.6666666666666667" />
<circle cx="847.19" cy="301.73" r="1.6666666666666667" />
<circle cx="847.20" cy="333.78" r="1.6666666666666667" />
<circle cx="847.20" cy="280.91" r="1.6666666666666667" />
<circle cx="847.21" cy="301.73" r="1.6666666666666667" />
<circle cx="847.22" cy="333.78" r="1.6666666666666667" />
<circle cx="847.23" cy="255.45" r="1.6666666666666667" />
<circle cx="847.23" cy="280.91" r="1.6666666666666667" />
<circle cx="847.24" cy="280.91" r="1.6666666666666667" />
<circle cx="847.25" cy="333.78" r="1.6666666666666667" />
<circle cx="847.26" cy="346.36" r="1.6666666666666667" />
<circle cx="847.27" cy="346.36" r="1.6666666666666667" />
<circle cx="847.28" cy="382.73" r="1.6666666666666667" />
<circle cx="847.29" cy="366.82" r="1.6666666666666667" />
<circle cx="847.30" cy="357.27" r="1.6666666666666667" />
<circle cx="847.31" cy="375.24" r="1.6666666666666667" />
<circle cx="847.33" cy="410.39" r="1.6666666666666667" />
<circle cx="847.34" cy="395.45" r="1.6666666666666667" />
<circle cx="847.35" cy="389.43" r="1.6666666666666667" />
<circle cx="847.36" cy="346.36" r="1.6666666666666667" />
<circle cx="847.37" cy="301.73" r="1.6666666666666667" />
<circle cx="847.38" cy="366.82" r="1.6666666666666667" />
<circle cx="847.39" cy="280.91" r="1.6666666666666667" />
<circle cx="847.40" cy="366.82" r="1.6666666666666667" />
<circle cx="847.41" cy="357.27" r="1.6666666666666667" />
<circle cx="847.42" cy="346.36" r="1.6666666666666667" />
<circle cx="847.43" cy="375.24" r="1.6666666666666667" />
<circle cx="847.44" cy="375.24" r="1.6666666666666667" />
<circle cx="847.46" cy="395.45" r="1.6666666666666667" />
<circle cx="847.47" cy="395.45" r="1.6666666666666667" />
<circle cx="847.48" cy="389.43" r="1.6666666666666667" />
<circle cx="847.49" cy="382.73" r="1.6666666666666667" />
<circle cx="847.51" cy="382.73" r="1.6666666666666667" />
<circle cx="847.52" cy="414.54" r="1.6666666666666667" />
<circle cx="847.54" cy="410.39" r="1.6666666666666667" />
<circle cx="847.55" cy="405.87" r="1.6666666666666667" />
<circle cx="847.57" cy="400.91" r="1.6666666666666667" />
<circle cx="847.58" cy="410.39" r="1.6666666666666667" />
<circle cx="847.60" cy="400.91" r="1.6666666666666667" />
<circle cx="847.61" cy="414.54" r="1.6666666666666667" />
<circle cx="847.63" cy="400.91" r="1.6666666666666667" />
<circle cx="847.64" cy="400.91" r="1.6666666666666667" />
<circle cx="847.66" cy="410.39" r="1.6666666666666667" />
<circle cx="847.68" cy="428.18" r="1.6666666666666667" />
<circle cx="847.70" cy="442.62" r="1.6666666666666667" />
<circle cx="847.72" cy="436.10" r="1.6666666666666667" />
<circle cx="847.74" cy="444.55" r="1.6666666666666667" />
<circle cx="847.76" cy="440.58" r="1.6666666666666667" />
<circle cx="847.79" cy="454.12" r="1.6666666666666667" />
<circle cx="847.82" cy="455.45" r="1.6666666666666667" />
<circle cx="847.84" cy="418.36" r="1.6666666666666667" />
<circle cx="847.86" cy="433.64" r="1.6666666666666667" />
<circle cx="847.88" cy="440.58" r="1.6666666666666667" />
<circle cx="847.91" cy="451.26" r="1.6666666666666667" />
<circle cx="847.93" cy="436.10" r="1.6666666666666667" />
<circle cx="847.94" cy="418.36" r="1.6666666666666667" />
<circle cx="847.97" cy="440.58" r="1.6666666666666667" />
<circle cx="847.99" cy="436.10" r="1.6666666666666667" />
<circle cx="848.03" cy="473.64" r="1.6666666666666667" />
<circle cx="848.12" cy="493.52" r="1.6666666666666667" />
<circle cx="850.00" cy="509.18" r="1.6666666666666667" />
</g>
<g stroke="black">
<line x1="654.97" x2="654.97" y1="510.00" y2="520.00" />
<g fill="black" font-family="Arial, sans-serif" font-size="18.0" stroke="none" text-anchor="start" transform="translate(9.0 0.0)">
<text x="654.97" y="530.57">19660</text>
</g>
<line x1="150.00" x2="850.00" y1="510.00" y2="510.00" />
</g>
<g stroke="black">
<line x1="150.00" x2="140.00" y1="510.00" y2="510.00" />
<line x1="150.00" x2="140.00" y1="244.85" y2="244.85" />
<g fill="black" font-family="Arial, sans-serif" font-size="18.0" stroke="none" text-anchor="end">
<text x="141.00" y="501.00">0</text>
<text x="141.00" y="235.85">10000</text>
</g>
<line x1="150.00" x2="150.00" y1="510.00" y2="90.00" />
</g>
</g>
</svg>