<?xml version="1.0"?>
<svg version="1.1" viewBox="0 0 1000 600" xmlns:xlink="http://www.w3.org/1999/xlink" xmlns="http://www.w3.org/2000/svg">
<g>
<g stroke-dasharray="3.6 7.2" stroke-width="0.72" stroke="#caa">
<line x1="828.41" x2="828.41" y1="510.00" y2="90.00" />
<line x1="785.75" x2="785.75" y1="510.00" y2="90.00" />
<line x1="741.68" x2="741.68" y1="510.00" y2="90.00" />
<line x1="700.44" x2="700.44" y1="510.00" y2="90.00" />
<line x1="656.36" x2="656.36" y1="510.00" y2="90.00" />
<line x1="612.28" x2="612.28" y1="510.00" y2="90.00" />
<line x1="569.63" x2="569.63" y1="510.00" y2="90.00" />
<line x1="525.55" x2="525.55" y1="510.00" y2="90.00" />
<line x1="482.89" x2="482.89" y1="510.00" y2="90.00" />
<line x1="438.81" x2="438.81" y1="510.00" y2="90.00" />
<line x1="394.73" x2="394.73" y1="510.00" y2="90.00" />
<line x1="352.08" x2="352.08" y1="510.00" y2="90.00" />
<line x1="308.00" x2="308.00" y1="510.00" y2="90.00" />
<line x1="265.34" x2="265.34" y1="510.00" y2="90.00" />
<line x1="221.26" x2="221.26" y1="510.00" y2="90.00" />
<line x1="181.45" x2="181.45" y1="510.00" y2="90.00" />
<line x1="150.00" x2="850.00" y1="510.00" y2="510.00" />
<line x1="150.00" x2="850.00" y1="216.29" y2="216.29" />
</g>
<g>
<text dominant-baseline="hanging" dx="-36.0" dy="18.0" fill="#0004" font-family="Arial, sans-serif" font-size="36" stroke="none" text-anchor="end" x="850.00" y="128.18">R19</text>
</g>
<g>
<text dominant-baseline="text-bottom" dy="-12.0" fill="black" font-family="Arial, sans-serif" font-size="18.0" font-style="italic" stroke="none" text-anchor="middle" x="500.00" y="90.00">Years 2023 to 2024</text>
</g>
<g>
<text dominant-baseline="hanging" dx="18.0" dy="18.0" fill="black" font-family="Arial, sans-serif" font-size="18.0" font-style="italic" stroke="none" text-anchor="beginning" text-orientation="sideways" x="150.00" y="90.00">log(Drips per day)</text>
</g>
<polyline fill="none" points="554.87,322.12 554.87,330.41 554.88,344.64 554.88,304.11 554.88,302.96 554.88,300.08 554.88,310.81 554.88,323.71 554.89,314.47 554.89,308.64 554.89,325.21 555.30,473.47 556.22,497.26 556.22,304.11 556.22,298.30 556.22,249.13 556.22,243.78 556.22,243.78 556.22,243.78 556.22,251.49 556.22,259.36 556.23,253.66 556.23,257.58 556.23,262.63 556.23,272.95 556.23,300.51 556.48,458.90 556.48,274.02 556.48,259.36 556.48,246.58 556.48,253.66 556.48,261.04 556.48,261.04 556.48,274.02 556.48,290.46 556.48,305.22 556.48,309.59 556.49,349.91 556.49,348.70 556.50,330.11 556.50,325.94 556.50,328.34 556.51,324.66 556.51,320.00 556.51,314.74 556.51,313.94 556.51,314.74 556.52,320.00 556.52,322.12 556.52,316.02 556.52,318.89 556.52,316.02 556.53,324.09 556.53,321.91 556.53,313.94 556.53,313.12 556.53,307.65 556.54,319.34 556.54,321.71 556.54,328.51 556.55,341.23 556.77,455.24 561.04,338.79 561.05,327.17 561.05,324.66 561.05,341.01 561.09,403.08 561.11,387.54 561.12,343.08 561.17,409.81 561.17,343.48 561.18,364.47 561.18,311.99 561.18,306.29 561.18,310.81 561.19,308.31 561.19,311.99 561.19,312.56 561.20,347.09 561.28,428.60 563.35,337.24 563.35,328.67 563.43,423.99 563.45,382.42 565.09,283.75 565.09,280.57 565.09,282.99 565.09,285.93 565.09,287.30 565.09,293.31 565.09,292.20 565.09,293.31 565.09,297.37 565.10,301.76 565.10,291.63 565.10,291.05 565.10,305.58 565.10,306.29 565.10,292.20 565.10,277.94 565.10,276.05 565.10,279.72 565.10,282.21 565.10,285.22 565.10,289.85 565.10,286.62 565.11,286.62 565.11,294.90 565.11,306.98 565.11,302.17 565.11,294.90 565.11,291.63 565.11,295.41 565.11,320.22 565.12,351.76 565.12,319.56 565.15,388.02 565.15,343.87 565.15,328.67 565.16,332.35 565.16,350.15 565.17,362.53 565.67,478.90 566.43,491.93 566.43,281.40 566.44,299.65 567.65,505.30 567.65,301.35 567.65,311.70 567.65,298.30 567.65,307.65 567.65,311.41 567.66,338.08 567.66,309.28 567.66,285.93 567.66,282.99 567.66,286.62 567.66,292.76 567.66,266.94 567.66,266.94 567.66,268.24 567.66,265.57 567.66,262.63 567.66,264.14 567.67,275.05 567.67,279.72 567.67,269.49 567.67,268.24 567.67,271.84 567.67,265.57 567.67,261.04 567.67,262.63 567.67,253.66 567.67,249.13 567.67,246.58 567.67,255.69 567.67,251.49 567.67,274.02 567.67,264.14 567.67,251.49 567.67,249.13 567.67,246.58 567.67,249.13 567.67,246.58 567.67,249.13 567.67,253.66 567.67,251.49 567.67,251.49 567.67,249.13 567.67,253.66 567.67,249.13 567.67,251.49 567.67,255.69 567.67,249.13 567.67,249.13 567.67,240.69 567.67,237.23 567.67,246.58 567.67,249.13 567.67,251.49 567.67,249.13 567.67,251.49 567.67,246.58 567.67,251.49 567.67,253.66 567.68,253.66 567.68,246.58 567.68,246.58 567.68,243.78 567.68,233.30 567.68,240.69 567.68,237.23 567.68,237.23 567.68,233.30 567.68,228.78 567.68,233.30 567.68,237.23 567.68,228.78 567.68,240.69 567.68,237.23 567.68,237.23 567.68,240.69 567.68,243.78 567.68,246.58 567.68,246.58 567.68,249.13 567.68,253.66 567.68,255.69 567.68,264.14 567.68,271.84 567.68,285.93 567.68,296.41 567.68,316.27 567.68,296.41 567.69,325.58 567.70,371.25 567.79,427.81 567.88,431.12 569.03,503.82 569.04,304.49 569.04,276.05 569.04,277.01 569.04,279.72 569.04,253.66 569.04,269.49 569.04,268.24 569.04,274.02 569.04,270.69 569.04,276.05 569.04,249.13 569.04,251.49 569.04,249.13 569.04,249.13 569.04,255.69 569.04,271.84 569.04,264.14 569.04,262.63 569.04,269.49 569.04,264.14 569.04,264.14 569.04,270.69 569.04,271.84 569.04,272.95 569.05,282.21 569.05,285.22 569.05,289.85 569.05,287.30 569.05,286.62 569.05,294.38 569.05,304.85 569.05,295.91 569.05,290.46 569.05,285.22 569.05,282.99 569.05,279.72 569.05,278.85 569.06,282.99 569.06,293.85 569.06,289.85 569.06,298.76 569.06,313.40 569.07,348.62 569.12,412.46 570.49,509.02 570.49,292.20 570.49,290.46 570.49,276.05 570.50,286.62 570.50,279.72 570.50,282.21 570.50,305.58 570.50,302.17 570.50,319.11 570.50,329.48 570.51,342.68 570.51,296.41 570.51,259.36 570.51,253.66 570.51,253.66 570.51,255.69 570.51,253.66 570.51,249.13 570.51,253.66 570.51,251.49 570.51,243.78 570.51,249.13 570.51,257.58 570.51,255.69 570.51,257.58 570.51,259.36 570.51,251.49 570.51,259.36 570.51,262.63 570.51,266.94 570.51,268.24 570.52,277.01 570.52,279.72 570.52,271.84 570.52,277.01 570.52,289.85 570.52,295.91 570.52,298.76 570.52,298.76 570.52,315.77 570.53,334.16 570.53,333.34 570.53,328.01 570.53,318.20 570.54,320.22 570.54,334.43 570.55,354.66 570.56,378.62 570.58,371.09 570.59,362.01 570.59,341.86 570.60,345.11 570.60,350.07 570.61,344.35 570.61,358.74 570.62,356.48 570.63,367.23 570.65,374.74 570.66,369.59 570.67,368.01 570.69,385.85 570.70,361.53 570.72,380.10 570.87,444.27 571.88,499.91 571.88,283.75 571.88,268.24 571.88,269.49 571.88,262.63 571.88,269.49 571.88,265.57 571.88,268.24 571.88,261.04 571.88,284.50 571.88,262.63 571.88,275.05 571.88,261.04 571.88,249.13 571.88,246.58 571.88,249.13 571.88,243.78 571.88,246.58 571.88,237.23 571.88,249.13 571.88,243.78 571.88,243.78 571.88,243.78 571.88,237.23 571.88,237.23 571.88,240.69 571.89,237.23 571.89,243.78 571.89,240.69 571.89,243.78 571.89,240.69 571.89,243.78 571.89,240.69 571.89,233.30 571.89,240.69 571.89,240.69 571.89,240.69 571.89,237.23 571.89,240.69 571.89,246.58 571.89,246.58 571.89,255.69 571.89,246.58 571.89,255.69 571.89,249.13 571.89,261.04 571.89,261.04 571.89,265.57 571.89,268.24 571.89,262.63 571.89,246.58 571.89,246.58 571.89,251.49 571.89,249.13 571.89,243.78 571.89,246.58 571.89,251.49 571.89,243.78 571.89,246.58 571.89,251.49 571.89,240.69 571.89,243.78 571.89,243.78 571.89,251.49 571.89,253.66 571.89,253.66 571.89,261.04 571.89,257.58 571.89,255.69 571.89,259.36 571.89,268.24 571.89,264.14 571.89,262.63 571.90,253.66 571.90,246.58 571.90,257.58 571.90,243.78 571.90,257.58 571.90,255.69 571.90,253.66 571.90,259.36 571.90,259.36 571.90,264.14 571.90,264.14 571.90,262.63 571.90,261.04 571.90,261.04 571.90,269.49 571.90,268.24 571.90,266.94 571.90,265.57 571.90,268.24 571.90,265.57 571.90,269.49 571.90,265.57 571.90,265.57 571.90,268.24 571.90,274.02 571.90,279.72 571.90,277.01 571.90,280.57 571.90,278.85 571.91,285.22 571.91,285.93 571.91,270.69 571.91,276.05 571.91,278.85 571.91,283.75 571.91,277.01 571.91,270.69 571.91,278.85 571.91,277.01 571.91,297.84 571.91,321.08 571.96,409.11" stroke-dasharray="3.6 3.6" stroke-width="3.6" stroke="#aaa" />
<g>
<circle cx="554.87" cy="322.12" r="1.6666666666666667" />
<circle cx="554.87" cy="330.41" r="1.6666666666666667" />
<circle cx="554.88" cy="344.64" r="1.6666666666666667" />
<circle cx="554.88" cy="304.11" r="1.6666666666666667" />
<circle cx="554.88" cy="302.96" r="1.6666666666666667" />
<circle cx="554.88" cy="300.08" r="1.6666666666666667" />
<circle cx="554.88" cy="310.81" r="1.6666666666666667" />
<circle cx="554.88" cy="323.71" r="1.6666666666666667" />
<circle cx="554.89" cy="314.47" r="1.6666666666666667" />
<circle cx="554.89" cy="308.64" r="1.6666666666666667" />
<circle cx="554.89" cy="325.21" r="1.6666666666666667" />
<circle cx="555.30" cy="473.47" r="1.6666666666666667" />
<circle cx="556.22" cy="497.26" r="1.6666666666666667" />
<circle cx="556.22" cy="304.11" r="1.6666666666666667" />
<circle cx="556.22" cy="298.30" r="1.6666666666666667" />
<circle cx="556.22" cy="249.13" r="1.6666666666666667" />
<circle cx="556.22" cy="243.78" r="1.6666666666666667" />
<circle cx="556.22" cy="243.78" r="1.6666666666666667" />
<circle cx="556.22" cy="243.78" r="1.6666666666666667" />
<circle cx="556.22" cy="251.49" r="1.6666666666666667" />
<circle cx="556.22" cy="259.36" r="1.6666666666666667" />
<circle cx="556.23" cy="253.66" r="1.6666666666666667" />
<circle cx="556.23" cy="257.58" r="1.6666666666666667" />
<circle cx="556.23" cy="262.63" r="1.6666666666666667" />
<circle cx="556.23" cy="272.95" r="1.6666666666666667" />
<circle cx="556.23" cy="300.51" r="1.6666666666666667" />
<circle cx="556.48" cy="458.90" r="1.6666666666666667" />
<circle cx="556.48" cy="274.02" r="1.6666666666666667" />
<circle cx="556.48" cy="259.36" r="1.6666666666666667" />
<circle cx="556.48" cy="246.58" r="1.6666666666666667" />
<circle cx="556.48" cy="253.66" r="1.6666666666666667" />
<circle cx="556.48" cy="261.04" r="1.6666666666666667" />
<circle cx="556.48" cy="261.04" r="1.6666666666666667" />
<circle cx="556.48" cy="274.02" r="1.6666666666666667" />
<circle cx="556.48" cy="290.46" r="1.6666666666666667" />
<circle cx="556.48" cy="305.22" r="1.6666666666666667" />
<circle cx="556.48" cy="309.59" r="1.6666666666666667" />
<circle cx="556.49" cy="349.91" r="1.6666666666666667" />
<circle cx="556.49" cy="348.70" r="1.6666666666666667" />
<circle cx="556.50" cy="330.11" r="1.6666666666666667" />
<circle cx="556.50" cy="325.94" r="1.6666666666666667" />
<circle cx="556.50" cy="328.34" r="1.6666666666666667" />
<circle cx="556.51" cy="324.66" r="1.6666666666666667" />
<circle cx="556.51" cy="320.00" r="1.6666666666666667" />
<circle cx="556.51" cy="314.74" r="1.6666666666666667" />
<circle cx="556.51" cy="313.94" r="1.6666666666666667" />
<circle cx="556.51" cy="314.74" r="1.6666666666666667" />
<circle cx="556.52" cy="320.00" r="1.6666666666666667" />
<circle cx="556.52" cy="322.12" r="1.6666666666666667" />
<circle cx="556.52" cy="316.02" r="1.6666666666666667" />
<circle cx="556.52" cy="318.89" r="1.6666666666666667" />
<circle cx="556.52" cy="316.02" r="1.6666666666666667" />
<circle cx="556.53" cy="324.09" r="1.6666666666666667" />
<circle cx="556.53" cy="321.91" r="1.6666666666666667" />
<circle cx="556.53" cy="313.94" r="1.6666666666666667" />
<circle cx="556.53" cy="313.12" r="1.6666666666666667" />
<circle cx="556.53" cy="307.65" r="1.6666666666666667" />
<circle cx="556.54" cy="319.34" r="1.6666666666666667" />
<circle cx="556.54" cy="321.71" r="1.6666666666666667" />
<circle cx="556.54" cy="328.51" r="1.6666666666666667" />
<circle cx="556.55" cy="341.23" r="1.6666666666666667" />
<circle cx="556.77" cy="455.24" r="1.6666666666666667" />
<circle cx="561.04" cy="338.79" r="1.6666666666666667" />
<circle cx="561.05" cy="327.17" r="1.6666666666666667" />
<circle cx="561.05" cy="324.66" r="1.6666666666666667" />
<circle cx="561.05" cy="341.01" r="1.6666666666666667" />
<circle cx="561.09" cy="403.08" r="1.6666666666666667" />
<circle cx="561.11" cy="387.54" r="1.6666666666666667" />
<circle cx="561.12" cy="343.08" r="1.6666666666666667" />
<circle cx="561.17" cy="409.81" r="1.6666666666666667" />
<circle cx="561.17" cy="343.48" r="1.6666666666666667" />
<circle cx="561.18" cy="364.47" r="1.6666666666666667" />
<circle cx="561.18" cy="311.99" r="1.6666666666666667" />
<circle cx="561.18" cy="306.29" r="1.6666666666666667" />
<circle cx="561.18" cy="310.81" r="1.6666666666666667" />
<circle cx="561.19" cy="308.31" r="1.6666666666666667" />
<circle cx="561.19" cy="311.99" r="1.6666666666666667" />
<circle cx="561.19" cy="312.56" r="1.6666666666666667" />
<circle cx="561.20" cy="347.09" r="1.6666666666666667" />
<circle cx="561.28" cy="428.60" r="1.6666666666666667" />
<circle cx="563.35" cy="337.24" r="1.6666666666666667" />
<circle cx="563.35" cy="328.67" r="1.6666666666666667" />
<circle cx="563.43" cy="423.99" r="1.6666666666666667" />
<circle cx="563.45" cy="382.42" r="1.6666666666666667" />
<circle cx="565.09" cy="283.75" r="1.6666666666666667" />
<circle cx="565.09" cy="280.57" r="1.6666666666666667" />
<circle cx="565.09" cy="282.99" r="1.6666666666666667" />
<circle cx="565.09" cy="285.93" r="1.6666666666666667" />
<circle cx="565.09" cy="287.30" r="1.6666666666666667" />
<circle cx="565.09" cy="293.31" r="1.6666666666666667" />
<circle cx="565.09" cy="292.20" r="1.6666666666666667" />
<circle cx="565.09" cy="293.31" r="1.6666666666666667" />
<circle cx="565.09" cy="297.37" r="1.6666666666666667" />
<circle cx="565.10" cy="301.76" r="1.6666666666666667" />
<circle cx="565.10" cy="291.63" r="1.6666666666666667" />
<circle cx="565.10" cy="291.05" r="1.6666666666666667" />
<circle cx="565.10" cy="305.58" r="1.6666666666666667" />
<circle cx="565.10" cy="306.29" r="1.6666666666666667" />
<circle cx="565.10" cy="292.20" r="1.6666666666666667" />
<circle cx="565.10" cy="277.94" r="1.6666666666666667" />
<circle cx="565.10" cy="276.05" r="1.6666666666666667" />
<circle cx="565.10" cy="279.72" r="1.6666666666666667" />
<circle cx="565.10" cy="282.21" r="1.6666666666666667" />
<circle cx="565.10" cy="285.22" r="1.6666666666666667" />
<circle cx="565.10" cy="289.85" r="1.6666666666666667" />
<circle cx="565.10" cy="286.62" r="1.6666666666666667" />
<circle cx="565.11" cy="286.62" r="1.6666666666666667" />
<circle cx="565.11" cy="294.90" r="1.6666666666666667" />
<circle cx="565.11" cy="306.98" r="1.6666666666666667" />
<circle cx="565.11" cy="302.17" r="1.6666666666666667" />
<circle cx="565.11" cy="294.90" r="1.6666666666666667" />
<circle cx="565.11" cy="291.63" r="1.6666666666666667" />
<circle cx="565.11" cy="295.41" r="1.6666666666666667" />
<circle cx="565.11" cy="320.22" r="1.6666666666666667" />
<circle cx="565.12" cy="351.76" r="1.6666666666666667" />
<circle cx="565.12" cy="319.56" r="1.6666666666666667" />
<circle cx="565.15" cy="388.02" r="1.6666666666666667" />
<circle cx="565.15" cy="343.87" r="1.6666666666666667" />
<circle cx="565.15" cy="328.67" r="1.6666666666666667" />
<circle cx="565.16" cy="332.35" r="1.6666666666666667" />
<circle cx="565.16" cy="350.15" r="1.6666666666666667" />
<circle cx="565.17" cy="362.53" r="1.6666666666666667" />
<circle cx="565.67" cy="478.90" r="1.6666666666666667" />
<circle cx="566.43" cy="491.93" r="1.6666666666666667" />
<circle cx="566.43" cy="281.40" r="1.6666666666666667" />
<circle cx="566.44" cy="299.65" r="1.6666666666666667" />
<circle cx="567.65" cy="505.30" r="1.6666666666666667" />
<circle cx="567.65" cy="301.35" r="1.6666666666666667" />
<circle cx="567.65" cy="311.70" r="1.6666666666666667" />
<circle cx="567.65" cy="298.30" r="1.6666666666666667" />
<circle cx="567.65" cy="307.65" r="1.6666666666666667" />
<circle cx="567.65" cy="311.41" r="1.6666666666666667" />
<circle cx="567.66" cy="338.08" r="1.6666666666666667" />
<circle cx="567.66" cy="309.28" r="1.6666666666666667" />
<circle cx="567.66" cy="285.93" r="1.6666666666666667" />
<circle cx="567.66" cy="282.99" r="1.6666666666666667" />
<circle cx="567.66" cy="286.62" r="1.6666666666666667" />
<circle cx="567.66" cy="292.76" r="1.6666666666666667" />
<circle cx="567.66" cy="266.94" r="1.6666666666666667" />
<circle cx="567.66" cy="266.94" r="1.6666666666666667" />
<circle cx="567.66" cy="268.24" r="1.6666666666666667" />
<circle cx="567.66" cy="265.57" r="1.6666666666666667" />
<circle cx="567.66" cy="262.63" r="1.6666666666666667" />
<circle cx="567.66" cy="264.14" r="1.6666666666666667" />
<circle cx="567.67" cy="275.05" r="1.6666666666666667" />
<circle cx="567.67" cy="279.72" r="1.6666666666666667" />
<circle cx="567.67" cy="269.49" r="1.6666666666666667" />
<circle cx="567.67" cy="268.24" r="1.6666666666666667" />
<circle cx="567.67" cy="271.84" r="1.6666666666666667" />
<circle cx="567.67" cy="265.57" r="1.6666666666666667" />
<circle cx="567.67" cy="261.04" r="1.6666666666666667" />
<circle cx="567.67" cy="262.63" r="1.6666666666666667" />
<circle cx="567.67" cy="253.66" r="1.6666666666666667" />
<circle cx="567.67" cy="249.13" r="1.6666666666666667" />
<circle cx="567.67" cy="246.58" r="1.6666666666666667" />
<circle cx="567.67" cy="255.69" r="1.6666666666666667" />
<circle cx="567.67" cy="251.49" r="1.6666666666666667" />
<circle cx="567.67" cy="274.02" r="1.6666666666666667" />
<circle cx="567.67" cy="264.14" r="1.6666666666666667" />
<circle cx="567.67" cy="251.49" r="1.6666666666666667" />
<circle cx="567.67" cy="249.13" r="1.6666666666666667" />
<circle cx="567.67" cy="246.58" r="1.6666666666666667" />
<circle cx="567.67" cy="249.13" r="1.6666666666666667" />
<circle cx="567.67" cy="246.58" r="1.6666666666666667" />
<circle cx="567.67" cy="249.13" r="1.6666666666666667" />
<circle cx="567.67" cy="253.66" r="1.6666666666666667" />
<circle cx="567.67" cy="251.49" r="1.6666666666666667" />
<circle cx="567.67" cy="251.49" r="1.6666666666666667" />
<circle cx="567.67" cy="249.13" r="1.6666666666666667" />
<circle cx="567.67" cy="253.66" r="1.6666666666666667" />
<circle cx="567.67" cy="249.13" r="1.6666666666666667" />
<circle cx="567.67" cy="251.49" r="1.6666666666666667" />
<circle cx="567.67" cy="255.69" r="1.6666666666666667" />
<circle cx="567.67" cy="249.13" r="1.6666666666666667" />
<circle cx="567.67" cy="249.13" r="1.6666666666666667" />
<circle cx="567.67" cy="240.69" r="1.6666666666666667" />
<circle cx="567.67" cy="237.23" r="1.6666666666666667" />
<circle cx="567.67" cy="246.58" r="1.6666666666666667" />
<circle cx="567.67" cy="249.13" r="1.6666666666666667" />
<circle cx="567.67" cy="251.49" r="1.6666666666666667" />
<circle cx="567.67" cy="249.13" r="1.6666666666666667" />
<circle cx="567.67" cy="251.49" r="1.6666666666666667" />
<circle cx="567.67" cy="246.58" r="1.6666666666666667" />
<circle cx="567.67" cy="251.49" r="1.6666666666666667" />
<circle cx="567.67" cy="253.66" r="1.6666666666666667" />
<circle cx="567.68" cy="253.66" r="1.6666666666666667" />
<circle cx="567.68" cy="246.58" r="1.6666666666666667" />
<circle cx="567.68" cy="246.58" r="1.6666666666666667" />
<circle cx="567.68" cy="243.78" r="1.6666666666666667" />
<circle cx="567.68" cy="233.30" r="1.6666666666666667" />
<circle cx="567.68" cy="240.69" r="1.6666666666666667" />
<circle cx="567.68" cy="237.23" r="1.6666666666666667" />
<circle cx="567.68" cy="237.23" r="1.6666666666666667" />
<circle cx="567.68" cy="233.30" r="1.6666666666666667" />
<circle cx="567.68" cy="228.78" r="1.6666666666666667" />
<circle cx="567.68" cy="233.30" r="1.6666666666666667" />
<circle cx="567.68" cy="237.23" r="1.6666666666666667" />
<circle cx="567.68" cy="228.78" r="1.6666666666666667" />
<circle cx="567.68" cy="240.69" r="1.6666666666666667" />
<circle cx="567.68" cy="237.23" r="1.6666666666666667" />
<circle cx="567.68" cy="237.23" r="1.6666666666666667" />
<circle cx="567.68" cy="240.69" r="1.6666666666666667" />
<circle cx="567.68" cy="243.78" r="1.6666666666666667" />
<circle cx="567.68" cy="246.58" r="1.6666666666666667" />
<circle cx="567.68" cy="246.58" r="1.6666666666666667" />
<circle cx="567.68" cy="249.13" r="1.6666666666666667" />
<circle cx="567.68" cy="253.66" r="1.6666666666666667" />
<circle cx="567.68" cy="255.69" r="1.6666666666666667" />
<circle cx="567.68" cy="264.14" r="1.6666666666666667" />
<circle cx="567.68" cy="271.84" r="1.6666666666666667" />
<circle cx="567.68" cy="285.93" r="1.6666666666666667" />
<circle cx="567.68" cy="296.41" r="1.6666666666666667" />
<circle cx="567.68" cy="316.27" r="1.6666666666666667" />
<circle cx="567.68" cy="296.41" r="1.6666666666666667" />
<circle cx="567.69" cy="325.58" r="1.6666666666666667" />
<circle cx="567.70" cy="371.25" r="1.6666666666666667" />
<circle cx="567.79" cy="427.81" r="1.6666666666666667" />
<circle cx="567.88" cy="431.12" r="1.6666666666666667" />
<circle cx="569.03" cy="503.82" r="1.6666666666666667" />
<circle cx="569.04" cy="304.49" r="1.6666666666666667" />
<circle cx="569.04" cy="276.05" r="1.6666666666666667" />
<circle cx="569.04" cy="277.01" r="1.6666666666666667" />
<circle cx="569.04" cy="279.72" r="1.6666666666666667" />
<circle cx="569.04" cy="253.66" r="1.6666666666666667" />
<circle cx="569.04" cy="269.49" r="1.6666666666666667" />
<circle cx="569.04" cy="268.24" r="1.6666666666666667" />
<circle cx="569.04" cy="274.02" r="1.6666666666666667" />
<circle cx="569.04" cy="270.69" r="1.6666666666666667" />
<circle cx="569.04" cy="276.05" r="1.6666666666666667" />
<circle cx="569.04" cy="249.13" r="1.6666666666666667" />
<circle cx="569.04" cy="251.49" r="1.6666666666666667" />
<circle cx="569.04" cy="249.13" r="1.6666666666666667" />
<circle cx="569.04" cy="249.13" r="1.6666666666666667" />
<circle cx="569.04" cy="255.69" r="1.6666666666666667" />
<circle cx="569.04" cy="271.84" r="1.6666666666666667" />
<circle cx="569.04" cy="264.14" r="1.6666666666666667" />
<circle cx="569.04" cy="262.63" r="1.6666666666666667" />
<circle cx="569.04" cy="269.49" r="1.6666666666666667" />
<circle cx="569.04" cy="264.14" r="1.6666666666666667" />
<circle cx="569.04" cy="264.14" r="1.6666666666666667" />
<circle cx="569.04" cy="270.69" r="1.6666666666666667" />
<circle cx="569.04" cy="271.84" r="1.6666666666666667" />
<circle cx="569.04" cy="272.95" r="1.6666666666666667" />
<circle cx="569.05" cy="282.21" r="1.6666666666666667" />
<circle cx="569.05" cy="285.22" r="1.6666666666666667" />
<circle cx="569.05" cy="289.85" r="1.6666666666666667" />
<circle cx="569.05" cy="287.30" r="1.6666666666666667" />
<circle cx="569.05" cy="286.62" r="1.6666666666666667" />
<circle cx="569.05" cy="294.38" r="1.6666666666666667" />
<circle cx="569.05" cy="304.85" r="1.6666666666666667" />
<circle cx="569.05" cy="295.91" r="1.6666666666666667" />
<circle cx="569.05" cy="290.46" r="1.6666666666666667" />
<circle cx="569.05" cy="285.22" r="1.6666666666666667" />
<circle cx="569.05" cy="282.99" r="1.6666666666666667" />
<circle cx="569.05" cy="279.72" r="1.6666666666666667" />
<circle cx="569.05" cy="278.85" r="1.6666666666666667" />
<circle cx="569.06" cy="282.99" r="1.6666666666666667" />
<circle cx="569.06" cy="293.85" r="1.6666666666666667" />
<circle cx="569.06" cy="289.85" r="1.6666666666666667" />
<circle cx="569.06" cy="298.76" r="1.6666666666666667" />
<circle cx="569.06" cy="313.40" r="1.6666666666666667" />
<circle cx="569.07" cy="348.62" r="1.6666666666666667" />
<circle cx="569.12" cy="412.46" r="1.6666666666666667" />
<circle cx="570.49" cy="509.02" r="1.6666666666666667" />
<circle cx="570.49" cy="292.20" r="1.6666666666666667" />
<circle cx="570.49" cy="290.46" r="1.6666666666666667" />
<circle cx="570.49" cy="276.05" r="1.6666666666666667" />
<circle cx="570.50" cy="286.62" r="1.6666666666666667" />
<circle cx="570.50" cy="279.72" r="1.6666666666666667" />
<circle cx="570.50" cy="282.21" r="1.6666666666666667" />
<circle cx="570.50" cy="305.58" r="1.6666666666666667" />
<circle cx="570.50" cy="302.17" r="1.6666666666666667" />
<circle cx="570.50" cy="319.11" r="1.6666666666666667" />
<circle cx="570.50" cy="329.48" r="1.6666666666666667" />
<circle cx="570.51" cy="342.68" r="1.6666666666666667" />
<circle cx="570.51" cy="296.41" r="1.6666666666666667" />
<circle cx="570.51" cy="259.36" r="1.6666666666666667" />
<circle cx="570.51" cy="253.66" r="1.6666666666666667" />
<circle cx="570.51" cy="253.66" r="1.6666666666666667" />
<circle cx="570.51" cy="255.69" r="1.6666666666666667" />
<circle cx="570.51" cy="253.66" r="1.6666666666666667" />
<circle cx="570.51" cy="249.13" r="1.6666666666666667" />
<circle cx="570.51" cy="253.66" r="1.6666666666666667" />
<circle cx="570.51" cy="251.49" r="1.6666666666666667" />
<circle cx="570.51" cy="243.78" r="1.6666666666666667" />
<circle cx="570.51" cy="249.13" r="1.6666666666666667" />
<circle cx="570.51" cy="257.58" r="1.6666666666666667" />
<circle cx="570.51" cy="255.69" r="1.6666666666666667" />
<circle cx="570.51" cy="257.58" r="1.6666666666666667" />
<circle cx="570.51" cy="259.36" r="1.6666666666666667" />
<circle cx="570.51" cy="251.49" r="1.6666666666666667" />
<circle cx="570.51" cy="259.36" r="1.6666666666666667" />
<circle cx="570.51" cy="262.63" r="1.6666666666666667" />
<circle cx="570.51" cy="266.94" r="1.6666666666666667" />
<circle cx="570.51" cy="268.24" r="1.6666666666666667" />
<circle cx="570.52" cy="277.01" r="1.6666666666666667" />
<circle cx="570.52" cy="279.72" r="1.6666666666666667" />
<circle cx="570.52" cy="271.84" r="1.6666666666666667" />
<circle cx="570.52" cy="277.01" r="1.6666666666666667" />
<circle cx="570.52" cy="289.85" r="1.6666666666666667" />
<circle cx="570.52" cy="295.91" r="1.6666666666666667" />
<circle cx="570.52" cy="298.76" r="1.6666666666666667" />
<circle cx="570.52" cy="298.76" r="1.6666666666666667" />
<circle cx="570.52" cy="315.77" r="1.6666666666666667" />
<circle cx="570.53" cy="334.16" r="1.6666666666666667" />
<circle cx="570.53" cy="333.34" r="1.6666666666666667" />
<circle cx="570.53" cy="328.01" r="1.6666666666666667" />
<circle cx="570.53" cy="318.20" r="1.6666666666666667" />
<circle cx="570.54" cy="320.22" r="1.6666666666666667" />
<circle cx="570.54" cy="334.43" r="1.6666666666666667" />
<circle cx="570.55" cy="354.66" r="1.6666666666666667" />
<circle cx="570.56" cy="378.62" r="1.6666666666666667" />
<circle cx="570.58" cy="371.09" r="1.6666666666666667" />
<circle cx="570.59" cy="362.01" r="1.6666666666666667" />
<circle cx="570.59" cy="341.86" r="1.6666666666666667" />
<circle cx="570.60" cy="345.11" r="1.6666666666666667" />
<circle cx="570.60" cy="350.07" r="1.6666666666666667" />
<circle cx="570.61" cy="344.35" r="1.6666666666666667" />
<circle cx="570.61" cy="358.74" r="1.6666666666666667" />
<circle cx="570.62" cy="356.48" r="1.6666666666666667" />
<circle cx="570.63" cy="367.23" r="1.6666666666666667" />
<circle cx="570.65" cy="374.74" r="1.6666666666666667" />
<circle cx="570.66" cy="369.59" r="1.6666666666666667" />
<circle cx="570.67" cy="368.01" r="1.6666666666666667" />
<circle cx="570.69" cy="385.85" r="1.6666666666666667" />
<circle cx="570.70" cy="361.53" r="1.6666666666666667" />
<circle cx="570.72" cy="380.10" r="1.6666666666666667" />
<circle cx="570.87" cy="444.27" r="1.6666666666666667" />
<circle cx="571.88" cy="499.91" r="1.6666666666666667" />
<circle cx="571.88" cy="283.75" r="1.6666666666666667" />
<circle cx="571.88" cy="268.24" r="1.6666666666666667" />
<circle cx="571.88" cy="269.49" r="1.6666666666666667" />
<circle cx="571.88" cy="262.63" r="1.6666666666666667" />
<circle cx="571.88" cy="269.49" r="1.6666666666666667" />
<circle cx="571.88" cy="265.57" r="1.6666666666666667" />
<circle cx="571.88" cy="268.24" r="1.6666666666666667" />
<circle cx="571.88" cy="261.04" r="1.6666666666666667" />
<circle cx="571.88" cy="284.50" r="1.6666666666666667" />
<circle cx="571.88" cy="262.63" r="1.6666666666666667" />
<circle cx="571.88" cy="275.05" r="1.6666666666666667" />
<circle cx="571.88" cy="261.04" r="1.6666666666666667" />
<circle cx="571.88" cy="249.13" r="1.6666666666666667" />
<circle cx="571.88" cy="246.58" r="1.6666666666666667" />
<circle cx="571.88" cy="249.13" r="1.6666666666666667" />
<circle cx="571.88" cy="243.78" r="1.6666666666666667" />
<circle cx="571.88" cy="246.58" r="1.6666666666666667" />
<circle cx="571.88" cy="237.23" r="1.6666666666666667" />
<circle cx="571.88" cy="249.13" r="1.6666666666666667" />
<circle cx="571.88" cy="243.78" r="1.6666666666666667" />
<circle cx="571.88" cy="243.78" r="1.6666666666666667" />
<circle cx="571.88" cy="243.78" r="1.6666666666666667" />
<circle cx="571.88" cy="237.23" r="1.6666666666666667" />
<circle cx="571.88" cy="237.23" r="1.6666666666666667" />
<circle cx="571.88" cy="240.69" r="1.6666666666666667" />
<circle cx="571.89" cy="237.23" r="1.6666666666666667" />
<circle cx="571.89" cy="243.78" r="1.6666666666666667" />
<circle cx="571.89" cy="240.69" r="1.6666666666666667" />
<circle cx="571.89" cy="243.78" r="1.6666666666666667" />
<circle cx="571.89" cy="240.69" r="1.6666666666666667" />
<circle cx="571.89" cy="243.78" r="1.6666666666666667" />
<circle cx="571.89" cy="240.69" r="1.6666666666666667" />
<circle cx="571.89" cy="233.30" r="1.6666666666666667" />
<circle cx="571.89" cy="240.69" r="1.6666666666666667" />
<circle cx="571.89" cy="240.69" r="1.6666666666666667" />
<circle cx="571.89" cy="240.69" r="1.6666666666666667" />
<circle cx="571.89" cy="237.23" r="1.6666666666666667" />
<circle cx="571.89" cy="240.69" r="1.6666666666666667" />
<circle cx="571.89" cy="246.58" r="1.6666666666666667" />
<circle cx="571.89" cy="246.58" r="1.6666666666666667" />
<circle cx="571.89" cy="255.69" r="1.6666666666666667" />
<circle cx="571.89" cy="246.58" r="1.6666666666666667" />
<circle cx="571.89" cy="255.69" r="1.6666666666666667" />
<circle cx="571.89" cy="249.13" r="1.6666666666666667" />
<circle cx="571.89" cy="261.04" r="1.6666666666666667" />
<circle cx="571.89" cy="261.04" r="1.6666666666666667" />
<circle cx="571.89" cy="265.57" r="1.6666666666666667" />
<circle cx="571.89" cy="268.24" r="1.6666666666666667" />
<circle cx="571.89" cy="262.63" r="1.6666666666666667" />
<circle cx="571.89" cy="246.58" r="1.6666666666666667" />
<circle cx="571.89" cy="246.58" r="1.6666666666666667" />
<circle cx="571.89" cy="251.49" r="1.6666666666666667" />
<circle cx="571.89" cy="249.13" r="1.6666666666666667" />
<circle cx="571.89" cy="243.78" r="1.6666666666666667" />
<circle cx="571.89" cy="246.58" r="1.6666666666666667" />
<circle cx="571.89" cy="251.49" r="1.6666666666666667" />
<circle cx="571.89" cy="243.78" r="1.6666666666666667" />
<circle cx="571.89" cy="246.58" r="1.6666666666666667" />
<circle cx="571.89" cy="251.49" r="1.6666666666666667" />
<circle cx="571.89" cy="240.69" r="1.6666666666666667" />
<circle cx="571.89" cy="243.78" r="1.6666666666666667" />
<circle cx="571.89" cy="243.78" r="1.6666666666666667" />
<circle cx="571.89" cy="251.49" r="1.6666666666666667" />
<circle cx="571.89" cy="253.66" r="1.6666666666666667" />
<circle cx="571.89" cy="253.66" r="1.6666666666666667" />
<circle cx="571.89" cy="261.04" r="1.6666666666666667" />
<circle cx="571.89" cy="257.58" r="1.6666666666666667" />
<circle cx="571.89" cy="255.69" r="1.6666666666666667" />
<circle cx="571.89" cy="259.36" r="1.6666666666666667" />
<circle cx="571.89" cy="268.24" r="1.6666666666666667" />
<circle cx="571.89" cy="264.14" r="1.6666666666666667" />
<circle cx="571.89" cy="262.63" r="1.6666666666666667" />
<circle cx="571.90" cy="253.66" r="1.6666666666666667" />
<circle cx="571.90" cy="246.58" r="1.6666666666666667" />
<circle cx="571.90" cy="257.58" r="1.6666666666666667" />
<circle cx="571.90" cy="243.78" r="1.6666666666666667" />
<circle cx="571.90" cy="257.58" r="1.6666666666666667" />
<circle cx="571.90" cy="255.69" r="1.6666666666666667" />
<circle cx="571.90" cy="253.66" r="1.6666666666666667" />
<circle cx="571.90" cy="259.36" r="1.6666666666666667" />
<circle cx="571.90" cy="259.36" r="1.6666666666666667" />
<circle cx="571.90" cy="264.14" r="1.6666666666666667" />
<circle cx="571.90" cy="264.14" r="1.6666666666666667" />
<circle cx="571.90" cy="262.63" r="1.6666666666666667" />
<circle cx="571.90" cy="261.04" r="1.6666666666666667" />
<circle cx="571.90" cy="261.04" r="1.6666666666666667" />
<circle cx="571.90" cy="269.49" r="1.6666666666666667" />
<circle cx="571.90" cy="268.24" r="1.6666666666666667" />
<circle cx="571.90" cy="266.94" r="1.6666666666666667" />
<circle cx="571.90" cy="265.57" r="1.6666666666666667" />
<circle cx="571.90" cy="268.24" r="1.6666666666666667" />
<circle cx="571.90" cy="265.57" r="1.6666666666666667" />
<circle cx="571.90" cy="269.49" r="1.6666666666666667" />
<circle cx="571.90" cy="265.57" r="1.6666666666666667" />
<circle cx="571.90" cy="265.57" r="1.6666666666666667" />
<circle cx="571.90" cy="268.24" r="1.6666666666666667" />
<circle cx="571.90" cy="274.02" r="1.6666666666666667" />
<circle cx="571.90" cy="279.72" r="1.6666666666666667" />
<circle cx="571.90" cy="277.01" r="1.6666666666666667" />
<circle cx="571.90" cy="280.57" r="1.6666666666666667" />
<circle cx="571.90" cy="278.85" r="1.6666666666666667" />
<circle cx="571.91" cy="285.22" r="1.6666666666666667" />
<circle cx="571.91" cy="285.93" r="1.6666666666666667" />
<circle cx="571.91" cy="270.69" r="1.6666666666666667" />
<circle cx="571.91" cy="276.05" r="1.6666666666666667" />
<circle cx="571.91" cy="278.85" r="1.6666666666666667" />
<circle cx="571.91" cy="283.75" r="1.6666666666666667" />
<circle cx="571.91" cy="277.01" r="1.6666666666666667" />
<circle cx="571.91" cy="270.69" r="1.6666666666666667" />
<circle cx="571.91" cy="278.85" r="1.6666666666666667" />
<circle cx="571.91" cy="277.01" r="1.6666666666666667" />
<circle cx="571.91" cy="297.84" r="1.6666666666666667" />
<circle cx="571.91" cy="321.08" r="1.6666666666666667" />
<circle cx="571.96" cy="409.11" r="1.6666666666666667" />
</g>
<g stroke="black">
<line x1="828.41" x2="828.41" y1="510.00" y2="520.00" />
<line x1="785.75" x2="785.75" y1="510.00" y2="520.00" />
<line x1="741.68" x2="741.68" y1="510.00" y2="520.00" />
<line x1="700.44" x2="700.44" y1="510.00" y2="520.00" />
<line x1="656.36" x2="656.36" y1="510.00" y2="520.00" />
<line x1="612.28" x2="612.28" y1="510.00" y2="520.00" />
<line x1="569.63" x2="569.63" y1="510.00" y2="520.00" />
<line x1="525.55" x2="525.55" y1="510.00" y2="520.00" />
<line x1="482.89" x2="482.89" y1="510.00" y2="520.00" />
<line x1="438.81" x2="438.81" y1="510.00" y2="520.00" />
<line x1="394.73" x2="394.73" y1="510.00" y2="520.00" />
<line x1="352.08" x2="352.08" y1="510.00" y2="520.00" />
<line x1="308.00" x2="308.00" y1="510.00" y2="520.00" />
<line x1="265.34" x2="265.34" y1="510.00" y2="520.00" />
<line x1="221.26" x2="221.26" y1="510.00" y2="520.00" />
<line x1="181.45" x2="181.45" y1="510.00" y2="520.00" />
<g fill="black" font-family="Arial, sans-serif" font-size="18.0" stroke="none" text-anchor="start" transform="translate(9.0 0.0)">
<text x="828.41" y="530.57">May</text>
<text x="785.75" y="530.57">Apr</text>
<text x="741.68" y="530.57">Mar</text>
<text x="700.44" y="530.57">Feb</text>
<text x="656.36" y="530.57">Jan</text>
<text x="612.28" y="530.57">Dec</text>
<text x="569.63" y="530.57">Nov</text>
<text x="525.55" y="530.57">Oct</text>
<text x="482.89" y="530.57">Sep</text>
<text x="438.81" y="530.57">Aug</text>
<text x="394.73" y="530.57">Jul</text>
<text x="352.08" y="530.57">Jun</text>
<text x="308.00" y="530.57">May</text>
<text x="265.34" y="530.57">Apr</text>
<text x="221.26" y="530.57">Mar</text>
<text x="181.45" y="530.57">Feb</text>
</g>
<line x1="150.00" x2="850.00" y1="510.00" y2="510.00" />
</g>
<g stroke="black">
<line x1="150.00" x2="138.00" y1="510.00" y2="510.00" />
<line x1="150.00" x2="138.00" y1="216.29" y2="216.29" />
<g fill="black" font-family="Arial, sans-serif" font-size="18.0" stroke="none" text-anchor="end">
<text x="141.00" y="501.00">0</text>
<text x="141.00" y="207.29">10</text>
</g>
<line x1="150.00" x2="150.00" y1="510.00" y2="90.00" />
</g>
</g>
</svg>