<?xml version="1.0"?>
<svg version="1.1" viewBox="0 0 1000 600" xmlns:xlink="http://www.w3.org/1999/xlink" xmlns="http://www.w3.org/2000/svg">
<g>
<g stroke-dasharray="3.6 7.2" stroke-width="0.72" stroke="#caa">
<line x1="839.86" x2="839.86" y1="510.00" y2="90.00" />
<line x1="791.78" x2="791.78" y1="510.00" y2="90.00" />
<line x1="740.39" x2="740.39" y1="510.00" y2="90.00" />
<line x1="689.00" x2="689.00" y1="510.00" y2="90.00" />
<line x1="639.26" x2="639.26" y1="510.00" y2="90.00" />
<line x1="587.87" x2="587.87" y1="510.00" y2="90.00" />
<line x1="538.13" x2="538.13" y1="510.00" y2="90.00" />
<line x1="486.74" x2="486.74" y1="510.00" y2="90.00" />
<line x1="435.35" x2="435.35" y1="510.00" y2="90.00" />
<line x1="385.61" x2="385.61" y1="510.00" y2="90.00" />
<line x1="334.22" x2="334.22" y1="510.00" y2="90.00" />
<line x1="284.48" x2="284.48" y1="510.00" y2="90.00" />
<line x1="233.09" x2="233.09" y1="510.00" y2="90.00" />
<line x1="186.67" x2="186.67" y1="510.00" y2="90.00" />
<line x1="150.00" x2="850.00" y1="510.00" y2="510.00" />
<line x1="150.00" x2="850.00" y1="216.29" y2="216.29" />
</g>
<g>
<text dominant-baseline="hanging" dx="-36.0" dy="18.0" fill="#0004" font-family="Arial, sans-serif" font-size="36" stroke="none" text-anchor="end" x="850.00" y="128.18">R19</text>
</g>
<g>
<text dominant-baseline="text-bottom" dy="-12.0" fill="black" font-family="Arial, sans-serif" font-size="18.0" font-style="italic" stroke="none" text-anchor="middle" x="500.00" y="90.00">Years 2023 to 2024</text>
</g>
<g>
<text dominant-baseline="central" dx="12.0" dy="12.0" fill="black" font-family="Arial, sans-serif" font-size="18.0" font-style="italic" stroke="none" text-anchor="middle" text-orientation="sideways" writing-mode="vertical-lr" x="850.00" y="300.00">log(Drips per day)</text>
</g>
<polyline fill="none" points="622.05,322.12 622.06,330.41 622.06,344.64 622.06,304.11 622.07,302.96 622.07,300.08 622.07,310.81 622.07,323.71 622.07,314.47 622.08,308.64 622.08,325.21 622.56,473.47 623.63,497.26 623.63,304.11 623.63,298.30 623.63,249.13 623.63,243.78 623.63,243.78 623.63,243.78 623.63,251.49 623.63,259.36 623.63,253.66 623.64,257.58 623.64,262.63 623.64,272.95 623.64,300.51 623.93,458.90 623.93,274.02 623.93,259.36 623.93,246.58 623.93,253.66 623.93,261.04 623.93,261.04 623.93,274.02 623.93,290.46 623.93,305.22 623.94,309.59 623.94,349.91 623.95,348.70 623.95,330.11 623.96,325.94 623.96,328.34 623.96,324.66 623.97,320.00 623.97,314.74 623.97,313.94 623.97,314.74 623.97,320.00 623.98,322.12 623.98,316.02 623.98,318.89 623.98,316.02 623.99,324.09 623.99,321.91 623.99,313.94 623.99,313.12 624.00,307.65 624.00,319.34 624.00,321.71 624.00,328.51 624.01,341.23 624.27,455.24 629.25,338.79 629.26,327.17 629.26,324.66 629.27,341.01 629.31,403.08 629.33,387.54 629.34,343.08 629.39,409.81 629.40,343.48 629.41,364.47 629.41,311.99 629.42,306.29 629.42,310.81 629.42,308.31 629.42,311.99 629.42,312.56 629.43,347.09 629.53,428.60 631.94,337.24 631.95,328.67 632.03,423.99 632.06,382.42 633.97,283.75 633.97,280.57 633.97,282.99 633.97,285.93 633.97,287.30 633.97,293.31 633.97,292.20 633.97,293.31 633.98,297.37 633.98,301.76 633.98,291.63 633.98,291.05 633.98,305.58 633.98,306.29 633.98,292.20 633.98,277.94 633.98,276.05 633.98,279.72 633.99,282.21 633.99,285.22 633.99,289.85 633.99,286.62 633.99,286.62 633.99,294.90 633.99,306.98 633.99,302.17 633.99,294.90 634.00,291.63 634.00,295.41 634.00,320.22 634.01,351.76 634.01,319.56 634.04,388.02 634.04,343.87 634.04,328.67 634.05,332.35 634.06,350.15 634.07,362.53 634.64,478.90 635.54,491.93 635.54,281.40 635.54,299.65 636.95,505.30 636.95,301.35 636.96,311.70 636.96,298.30 636.96,307.65 636.96,311.41 636.97,338.08 636.97,309.28 636.97,285.93 636.97,282.99 636.97,286.62 636.97,292.76 636.97,266.94 636.97,266.94 636.97,268.24 636.97,265.57 636.97,262.63 636.97,264.14 636.97,275.05 636.97,279.72 636.97,269.49 636.97,268.24 636.98,271.84 636.98,265.57 636.98,261.04 636.98,262.63 636.98,253.66 636.98,249.13 636.98,246.58 636.98,255.69 636.98,251.49 636.98,274.02 636.98,264.14 636.98,251.49 636.98,249.13 636.98,246.58 636.98,249.13 636.98,246.58 636.98,249.13 636.98,253.66 636.98,251.49 636.98,251.49 636.98,249.13 636.98,253.66 636.98,249.13 636.98,251.49 636.98,255.69 636.98,249.13 636.98,249.13 636.98,240.69 636.98,237.23 636.98,246.58 636.98,249.13 636.98,251.49 636.98,249.13 636.98,251.49 636.98,246.58 636.98,251.49 636.98,253.66 636.99,253.66 636.99,246.58 636.99,246.58 636.99,243.78 636.99,233.30 636.99,240.69 636.99,237.23 636.99,237.23 636.99,233.30 636.99,228.78 636.99,233.30 636.99,237.23 636.99,228.78 636.99,240.69 636.99,237.23 636.99,237.23 636.99,240.69 636.99,243.78 636.99,246.58 636.99,246.58 636.99,249.13 636.99,253.66 636.99,255.69 636.99,264.14 636.99,271.84 636.99,285.93 636.99,296.41 636.99,316.27 637.00,296.41 637.00,325.58 637.01,371.25 637.11,427.81 637.23,431.12 638.57,503.82 638.57,304.49 638.57,276.05 638.57,277.01 638.57,279.72 638.57,253.66 638.57,269.49 638.57,268.24 638.58,274.02 638.58,270.69 638.58,276.05 638.58,249.13 638.58,251.49 638.58,249.13 638.58,249.13 638.58,255.69 638.58,271.84 638.58,264.14 638.58,262.63 638.58,269.49 638.58,264.14 638.58,264.14 638.58,270.69 638.58,271.84 638.58,272.95 638.58,282.21 638.58,285.22 638.58,289.85 638.58,287.30 638.59,286.62 638.59,294.38 638.59,304.85 638.59,295.91 638.59,290.46 638.59,285.22 638.59,282.99 638.59,279.72 638.59,278.85 638.59,282.99 638.60,293.85 638.60,289.85 638.60,298.76 638.60,313.40 638.61,348.62 638.67,412.46 640.27,509.02 640.27,292.20 640.27,290.46 640.27,276.05 640.27,286.62 640.27,279.72 640.27,282.21 640.28,305.58 640.28,302.17 640.28,319.11 640.28,329.48 640.29,342.68 640.29,296.41 640.29,259.36 640.29,253.66 640.29,253.66 640.29,255.69 640.29,253.66 640.29,249.13 640.29,253.66 640.29,251.49 640.29,243.78 640.29,249.13 640.29,257.58 640.29,255.69 640.29,257.58 640.29,259.36 640.29,251.49 640.29,259.36 640.29,262.63 640.30,266.94 640.30,268.24 640.30,277.01 640.30,279.72 640.30,271.84 640.30,277.01 640.30,289.85 640.30,295.91 640.30,298.76 640.30,298.76 640.30,315.77 640.31,334.16 640.31,333.34 640.32,328.01 640.32,318.20 640.32,320.22 640.33,334.43 640.33,354.66 640.35,378.62 640.37,371.09 640.38,362.01 640.38,341.86 640.39,345.11 640.40,350.07 640.40,344.35 640.41,358.74 640.42,356.48 640.43,367.23 640.45,374.74 640.46,369.59 640.48,368.01 640.50,385.85 640.51,361.53 640.53,380.10 640.71,444.27 641.89,499.91 641.89,283.75 641.89,268.24 641.89,269.49 641.89,262.63 641.89,269.49 641.89,265.57 641.89,268.24 641.89,261.04 641.89,284.50 641.89,262.63 641.89,275.05 641.89,261.04 641.89,249.13 641.89,246.58 641.89,249.13 641.89,243.78 641.89,246.58 641.89,237.23 641.89,249.13 641.89,243.78 641.89,243.78 641.89,243.78 641.89,237.23 641.89,237.23 641.89,240.69 641.89,237.23 641.89,243.78 641.89,240.69 641.89,243.78 641.89,240.69 641.89,243.78 641.89,240.69 641.89,233.30 641.89,240.69 641.90,240.69 641.90,240.69 641.90,237.23 641.90,240.69 641.90,246.58 641.90,246.58 641.90,255.69 641.90,246.58 641.90,255.69 641.90,249.13 641.90,261.04 641.90,261.04 641.90,265.57 641.90,268.24 641.90,262.63 641.90,246.58 641.90,246.58 641.90,251.49 641.90,249.13 641.90,243.78 641.90,246.58 641.90,251.49 641.90,243.78 641.90,246.58 641.90,251.49 641.90,240.69 641.90,243.78 641.90,243.78 641.90,251.49 641.90,253.66 641.90,253.66 641.90,261.04 641.90,257.58 641.90,255.69 641.90,259.36 641.90,268.24 641.90,264.14 641.90,262.63 641.91,253.66 641.91,246.58 641.91,257.58 641.91,243.78 641.91,257.58 641.91,255.69 641.91,253.66 641.91,259.36 641.91,259.36 641.91,264.14 641.91,264.14 641.91,262.63 641.91,261.04 641.91,261.04 641.91,269.49 641.91,268.24 641.91,266.94 641.91,265.57 641.91,268.24 641.91,265.57 641.91,269.49 641.91,265.57 641.91,265.57 641.91,268.24 641.91,274.02 641.91,279.72 641.92,277.01 641.92,280.57 641.92,278.85 641.92,285.22 641.92,285.93 641.92,270.69 641.92,276.05 641.92,278.85 641.92,283.75 641.92,277.01 641.92,270.69 641.92,278.85 641.92,277.01 641.92,297.84 641.93,321.08 641.98,409.11" stroke-dasharray="3.6 3.6" stroke-width="3.6" stroke="#aaa" />
<g>
<circle cx="622.05" cy="322.12" r="1.6666666666666667" />
<circle cx="622.06" cy="330.41" r="1.6666666666666667" />
<circle cx="622.06" cy="344.64" r="1.6666666666666667" />
<circle cx="622.06" cy="304.11" r="1.6666666666666667" />
<circle cx="622.07" cy="302.96" r="1.6666666666666667" />
<circle cx="622.07" cy="300.08" r="1.6666666666666667" />
<circle cx="622.07" cy="310.81" r="1.6666666666666667" />
<circle cx="622.07" cy="323.71" r="1.6666666666666667" />
<circle cx="622.07" cy="314.47" r="1.6666666666666667" />
<circle cx="622.08" cy="308.64" r="1.6666666666666667" />
<circle cx="622.08" cy="325.21" r="1.6666666666666667" />
<circle cx="622.56" cy="473.47" r="1.6666666666666667" />
<circle cx="623.63" cy="497.26" r="1.6666666666666667" />
<circle cx="623.63" cy="304.11" r="1.6666666666666667" />
<circle cx="623.63" cy="298.30" r="1.6666666666666667" />
<circle cx="623.63" cy="249.13" r="1.6666666666666667" />
<circle cx="623.63" cy="243.78" r="1.6666666666666667" />
<circle cx="623.63" cy="243.78" r="1.6666666666666667" />
<circle cx="623.63" cy="243.78" r="1.6666666666666667" />
<circle cx="623.63" cy="251.49" r="1.6666666666666667" />
<circle cx="623.63" cy="259.36" r="1.6666666666666667" />
<circle cx="623.63" cy="253.66" r="1.6666666666666667" />
<circle cx="623.64" cy="257.58" r="1.6666666666666667" />
<circle cx="623.64" cy="262.63" r="1.6666666666666667" />
<circle cx="623.64" cy="272.95" r="1.6666666666666667" />
<circle cx="623.64" cy="300.51" r="1.6666666666666667" />
<circle cx="623.93" cy="458.90" r="1.6666666666666667" />
<circle cx="623.93" cy="274.02" r="1.6666666666666667" />
<circle cx="623.93" cy="259.36" r="1.6666666666666667" />
<circle cx="623.93" cy="246.58" r="1.6666666666666667" />
<circle cx="623.93" cy="253.66" r="1.6666666666666667" />
<circle cx="623.93" cy="261.04" r="1.6666666666666667" />
<circle cx="623.93" cy="261.04" r="1.6666666666666667" />
<circle cx="623.93" cy="274.02" r="1.6666666666666667" />
<circle cx="623.93" cy="290.46" r="1.6666666666666667" />
<circle cx="623.93" cy="305.22" r="1.6666666666666667" />
<circle cx="623.94" cy="309.59" r="1.6666666666666667" />
<circle cx="623.94" cy="349.91" r="1.6666666666666667" />
<circle cx="623.95" cy="348.70" r="1.6666666666666667" />
<circle cx="623.95" cy="330.11" r="1.6666666666666667" />
<circle cx="623.96" cy="325.94" r="1.6666666666666667" />
<circle cx="623.96" cy="328.34" r="1.6666666666666667" />
<circle cx="623.96" cy="324.66" r="1.6666666666666667" />
<circle cx="623.97" cy="320.00" r="1.6666666666666667" />
<circle cx="623.97" cy="314.74" r="1.6666666666666667" />
<circle cx="623.97" cy="313.94" r="1.6666666666666667" />
<circle cx="623.97" cy="314.74" r="1.6666666666666667" />
<circle cx="623.97" cy="320.00" r="1.6666666666666667" />
<circle cx="623.98" cy="322.12" r="1.6666666666666667" />
<circle cx="623.98" cy="316.02" r="1.6666666666666667" />
<circle cx="623.98" cy="318.89" r="1.6666666666666667" />
<circle cx="623.98" cy="316.02" r="1.6666666666666667" />
<circle cx="623.99" cy="324.09" r="1.6666666666666667" />
<circle cx="623.99" cy="321.91" r="1.6666666666666667" />
<circle cx="623.99" cy="313.94" r="1.6666666666666667" />
<circle cx="623.99" cy="313.12" r="1.6666666666666667" />
<circle cx="624.00" cy="307.65" r="1.6666666666666667" />
<circle cx="624.00" cy="319.34" r="1.6666666666666667" />
<circle cx="624.00" cy="321.71" r="1.6666666666666667" />
<circle cx="624.00" cy="328.51" r="1.6666666666666667" />
<circle cx="624.01" cy="341.23" r="1.6666666666666667" />
<circle cx="624.27" cy="455.24" r="1.6666666666666667" />
<circle cx="629.25" cy="338.79" r="1.6666666666666667" />
<circle cx="629.26" cy="327.17" r="1.6666666666666667" />
<circle cx="629.26" cy="324.66" r="1.6666666666666667" />
<circle cx="629.27" cy="341.01" r="1.6666666666666667" />
<circle cx="629.31" cy="403.08" r="1.6666666666666667" />
<circle cx="629.33" cy="387.54" r="1.6666666666666667" />
<circle cx="629.34" cy="343.08" r="1.6666666666666667" />
<circle cx="629.39" cy="409.81" r="1.6666666666666667" />
<circle cx="629.40" cy="343.48" r="1.6666666666666667" />
<circle cx="629.41" cy="364.47" r="1.6666666666666667" />
<circle cx="629.41" cy="311.99" r="1.6666666666666667" />
<circle cx="629.42" cy="306.29" r="1.6666666666666667" />
<circle cx="629.42" cy="310.81" r="1.6666666666666667" />
<circle cx="629.42" cy="308.31" r="1.6666666666666667" />
<circle cx="629.42" cy="311.99" r="1.6666666666666667" />
<circle cx="629.42" cy="312.56" r="1.6666666666666667" />
<circle cx="629.43" cy="347.09" r="1.6666666666666667" />
<circle cx="629.53" cy="428.60" r="1.6666666666666667" />
<circle cx="631.94" cy="337.24" r="1.6666666666666667" />
<circle cx="631.95" cy="328.67" r="1.6666666666666667" />
<circle cx="632.03" cy="423.99" r="1.6666666666666667" />
<circle cx="632.06" cy="382.42" r="1.6666666666666667" />
<circle cx="633.97" cy="283.75" r="1.6666666666666667" />
<circle cx="633.97" cy="280.57" r="1.6666666666666667" />
<circle cx="633.97" cy="282.99" r="1.6666666666666667" />
<circle cx="633.97" cy="285.93" r="1.6666666666666667" />
<circle cx="633.97" cy="287.30" r="1.6666666666666667" />
<circle cx="633.97" cy="293.31" r="1.6666666666666667" />
<circle cx="633.97" cy="292.20" r="1.6666666666666667" />
<circle cx="633.97" cy="293.31" r="1.6666666666666667" />
<circle cx="633.98" cy="297.37" r="1.6666666666666667" />
<circle cx="633.98" cy="301.76" r="1.6666666666666667" />
<circle cx="633.98" cy="291.63" r="1.6666666666666667" />
<circle cx="633.98" cy="291.05" r="1.6666666666666667" />
<circle cx="633.98" cy="305.58" r="1.6666666666666667" />
<circle cx="633.98" cy="306.29" r="1.6666666666666667" />
<circle cx="633.98" cy="292.20" r="1.6666666666666667" />
<circle cx="633.98" cy="277.94" r="1.6666666666666667" />
<circle cx="633.98" cy="276.05" r="1.6666666666666667" />
<circle cx="633.98" cy="279.72" r="1.6666666666666667" />
<circle cx="633.99" cy="282.21" r="1.6666666666666667" />
<circle cx="633.99" cy="285.22" r="1.6666666666666667" />
<circle cx="633.99" cy="289.85" r="1.6666666666666667" />
<circle cx="633.99" cy="286.62" r="1.6666666666666667" />
<circle cx="633.99" cy="286.62" r="1.6666666666666667" />
<circle cx="633.99" cy="294.90" r="1.6666666666666667" />
<circle cx="633.99" cy="306.98" r="1.6666666666666667" />
<circle cx="633.99" cy="302.17" r="1.6666666666666667" />
<circle cx="633.99" cy="294.90" r="1.6666666666666667" />
<circle cx="634.00" cy="291.63" r="1.6666666666666667" />
<circle cx="634.00" cy="295.41" r="1.6666666666666667" />
<circle cx="634.00" cy="320.22" r="1.6666666666666667" />
<circle cx="634.01" cy="351.76" r="1.6666666666666667" />
<circle cx="634.01" cy="319.56" r="1.6666666666666667" />
<circle cx="634.04" cy="388.02" r="1.6666666666666667" />
<circle cx="634.04" cy="343.87" r="1.6666666666666667" />
<circle cx="634.04" cy="328.67" r="1.6666666666666667" />
<circle cx="634.05" cy="332.35" r="1.6666666666666667" />
<circle cx="634.06" cy="350.15" r="1.6666666666666667" />
<circle cx="634.07" cy="362.53" r="1.6666666666666667" />
<circle cx="634.64" cy="478.90" r="1.6666666666666667" />
<circle cx="635.54" cy="491.93" r="1.6666666666666667" />
<circle cx="635.54" cy="281.40" r="1.6666666666666667" />
<circle cx="635.54" cy="299.65" r="1.6666666666666667" />
<circle cx="636.95" cy="505.30" r="1.6666666666666667" />
<circle cx="636.95" cy="301.35" r="1.6666666666666667" />
<circle cx="636.96" cy="311.70" r="1.6666666666666667" />
<circle cx="636.96" cy="298.30" r="1.6666666666666667" />
<circle cx="636.96" cy="307.65" r="1.6666666666666667" />
<circle cx="636.96" cy="311.41" r="1.6666666666666667" />
<circle cx="636.97" cy="338.08" r="1.6666666666666667" />
<circle cx="636.97" cy="309.28" r="1.6666666666666667" />
<circle cx="636.97" cy="285.93" r="1.6666666666666667" />
<circle cx="636.97" cy="282.99" r="1.6666666666666667" />
<circle cx="636.97" cy="286.62" r="1.6666666666666667" />
<circle cx="636.97" cy="292.76" r="1.6666666666666667" />
<circle cx="636.97" cy="266.94" r="1.6666666666666667" />
<circle cx="636.97" cy="266.94" r="1.6666666666666667" />
<circle cx="636.97" cy="268.24" r="1.6666666666666667" />
<circle cx="636.97" cy="265.57" r="1.6666666666666667" />
<circle cx="636.97" cy="262.63" r="1.6666666666666667" />
<circle cx="636.97" cy="264.14" r="1.6666666666666667" />
<circle cx="636.97" cy="275.05" r="1.6666666666666667" />
<circle cx="636.97" cy="279.72" r="1.6666666666666667" />
<circle cx="636.97" cy="269.49" r="1.6666666666666667" />
<circle cx="636.97" cy="268.24" r="1.6666666666666667" />
<circle cx="636.98" cy="271.84" r="1.6666666666666667" />
<circle cx="636.98" cy="265.57" r="1.6666666666666667" />
<circle cx="636.98" cy="261.04" r="1.6666666666666667" />
<circle cx="636.98" cy="262.63" r="1.6666666666666667" />
<circle cx="636.98" cy="253.66" r="1.6666666666666667" />
<circle cx="636.98" cy="249.13" r="1.6666666666666667" />
<circle cx="636.98" cy="246.58" r="1.6666666666666667" />
<circle cx="636.98" cy="255.69" r="1.6666666666666667" />
<circle cx="636.98" cy="251.49" r="1.6666666666666667" />
<circle cx="636.98" cy="274.02" r="1.6666666666666667" />
<circle cx="636.98" cy="264.14" r="1.6666666666666667" />
<circle cx="636.98" cy="251.49" r="1.6666666666666667" />
<circle cx="636.98" cy="249.13" r="1.6666666666666667" />
<circle cx="636.98" cy="246.58" r="1.6666666666666667" />
<circle cx="636.98" cy="249.13" r="1.6666666666666667" />
<circle cx="636.98" cy="246.58" r="1.6666666666666667" />
<circle cx="636.98" cy="249.13" r="1.6666666666666667" />
<circle cx="636.98" cy="253.66" r="1.6666666666666667" />
<circle cx="636.98" cy="251.49" r="1.6666666666666667" />
<circle cx="636.98" cy="251.49" r="1.6666666666666667" />
<circle cx="636.98" cy="249.13" r="1.6666666666666667" />
<circle cx="636.98" cy="253.66" r="1.6666666666666667" />
<circle cx="636.98" cy="249.13" r="1.6666666666666667" />
<circle cx="636.98" cy="251.49" r="1.6666666666666667" />
<circle cx="636.98" cy="255.69" r="1.6666666666666667" />
<circle cx="636.98" cy="249.13" r="1.6666666666666667" />
<circle cx="636.98" cy="249.13" r="1.6666666666666667" />
<circle cx="636.98" cy="240.69" r="1.6666666666666667" />
<circle cx="636.98" cy="237.23" r="1.6666666666666667" />
<circle cx="636.98" cy="246.58" r="1.6666666666666667" />
<circle cx="636.98" cy="249.13" r="1.6666666666666667" />
<circle cx="636.98" cy="251.49" r="1.6666666666666667" />
<circle cx="636.98" cy="249.13" r="1.6666666666666667" />
<circle cx="636.98" cy="251.49" r="1.6666666666666667" />
<circle cx="636.98" cy="246.58" r="1.6666666666666667" />
<circle cx="636.98" cy="251.49" r="1.6666666666666667" />
<circle cx="636.98" cy="253.66" r="1.6666666666666667" />
<circle cx="636.99" cy="253.66" r="1.6666666666666667" />
<circle cx="636.99" cy="246.58" r="1.6666666666666667" />
<circle cx="636.99" cy="246.58" r="1.6666666666666667" />
<circle cx="636.99" cy="243.78" r="1.6666666666666667" />
<circle cx="636.99" cy="233.30" r="1.6666666666666667" />
<circle cx="636.99" cy="240.69" r="1.6666666666666667" />
<circle cx="636.99" cy="237.23" r="1.6666666666666667" />
<circle cx="636.99" cy="237.23" r="1.6666666666666667" />
<circle cx="636.99" cy="233.30" r="1.6666666666666667" />
<circle cx="636.99" cy="228.78" r="1.6666666666666667" />
<circle cx="636.99" cy="233.30" r="1.6666666666666667" />
<circle cx="636.99" cy="237.23" r="1.6666666666666667" />
<circle cx="636.99" cy="228.78" r="1.6666666666666667" />
<circle cx="636.99" cy="240.69" r="1.6666666666666667" />
<circle cx="636.99" cy="237.23" r="1.6666666666666667" />
<circle cx="636.99" cy="237.23" r="1.6666666666666667" />
<circle cx="636.99" cy="240.69" r="1.6666666666666667" />
<circle cx="636.99" cy="243.78" r="1.6666666666666667" />
<circle cx="636.99" cy="246.58" r="1.6666666666666667" />
<circle cx="636.99" cy="246.58" r="1.6666666666666667" />
<circle cx="636.99" cy="249.13" r="1.6666666666666667" />
<circle cx="636.99" cy="253.66" r="1.6666666666666667" />
<circle cx="636.99" cy="255.69" r="1.6666666666666667" />
<circle cx="636.99" cy="264.14" r="1.6666666666666667" />
<circle cx="636.99" cy="271.84" r="1.6666666666666667" />
<circle cx="636.99" cy="285.93" r="1.6666666666666667" />
<circle cx="636.99" cy="296.41" r="1.6666666666666667" />
<circle cx="636.99" cy="316.27" r="1.6666666666666667" />
<circle cx="637.00" cy="296.41" r="1.6666666666666667" />
<circle cx="637.00" cy="325.58" r="1.6666666666666667" />
<circle cx="637.01" cy="371.25" r="1.6666666666666667" />
<circle cx="637.11" cy="427.81" r="1.6666666666666667" />
<circle cx="637.23" cy="431.12" r="1.6666666666666667" />
<circle cx="638.57" cy="503.82" r="1.6666666666666667" />
<circle cx="638.57" cy="304.49" r="1.6666666666666667" />
<circle cx="638.57" cy="276.05" r="1.6666666666666667" />
<circle cx="638.57" cy="277.01" r="1.6666666666666667" />
<circle cx="638.57" cy="279.72" r="1.6666666666666667" />
<circle cx="638.57" cy="253.66" r="1.6666666666666667" />
<circle cx="638.57" cy="269.49" r="1.6666666666666667" />
<circle cx="638.57" cy="268.24" r="1.6666666666666667" />
<circle cx="638.58" cy="274.02" r="1.6666666666666667" />
<circle cx="638.58" cy="270.69" r="1.6666666666666667" />
<circle cx="638.58" cy="276.05" r="1.6666666666666667" />
<circle cx="638.58" cy="249.13" r="1.6666666666666667" />
<circle cx="638.58" cy="251.49" r="1.6666666666666667" />
<circle cx="638.58" cy="249.13" r="1.6666666666666667" />
<circle cx="638.58" cy="249.13" r="1.6666666666666667" />
<circle cx="638.58" cy="255.69" r="1.6666666666666667" />
<circle cx="638.58" cy="271.84" r="1.6666666666666667" />
<circle cx="638.58" cy="264.14" r="1.6666666666666667" />
<circle cx="638.58" cy="262.63" r="1.6666666666666667" />
<circle cx="638.58" cy="269.49" r="1.6666666666666667" />
<circle cx="638.58" cy="264.14" r="1.6666666666666667" />
<circle cx="638.58" cy="264.14" r="1.6666666666666667" />
<circle cx="638.58" cy="270.69" r="1.6666666666666667" />
<circle cx="638.58" cy="271.84" r="1.6666666666666667" />
<circle cx="638.58" cy="272.95" r="1.6666666666666667" />
<circle cx="638.58" cy="282.21" r="1.6666666666666667" />
<circle cx="638.58" cy="285.22" r="1.6666666666666667" />
<circle cx="638.58" cy="289.85" r="1.6666666666666667" />
<circle cx="638.58" cy="287.30" r="1.6666666666666667" />
<circle cx="638.59" cy="286.62" r="1.6666666666666667" />
<circle cx="638.59" cy="294.38" r="1.6666666666666667" />
<circle cx="638.59" cy="304.85" r="1.6666666666666667" />
<circle cx="638.59" cy="295.91" r="1.6666666666666667" />
<circle cx="638.59" cy="290.46" r="1.6666666666666667" />
<circle cx="638.59" cy="285.22" r="1.6666666666666667" />
<circle cx="638.59" cy="282.99" r="1.6666666666666667" />
<circle cx="638.59" cy="279.72" r="1.6666666666666667" />
<circle cx="638.59" cy="278.85" r="1.6666666666666667" />
<circle cx="638.59" cy="282.99" r="1.6666666666666667" />
<circle cx="638.60" cy="293.85" r="1.6666666666666667" />
<circle cx="638.60" cy="289.85" r="1.6666666666666667" />
<circle cx="638.60" cy="298.76" r="1.6666666666666667" />
<circle cx="638.60" cy="313.40" r="1.6666666666666667" />
<circle cx="638.61" cy="348.62" r="1.6666666666666667" />
<circle cx="638.67" cy="412.46" r="1.6666666666666667" />
<circle cx="640.27" cy="509.02" r="1.6666666666666667" />
<circle cx="640.27" cy="292.20" r="1.6666666666666667" />
<circle cx="640.27" cy="290.46" r="1.6666666666666667" />
<circle cx="640.27" cy="276.05" r="1.6666666666666667" />
<circle cx="640.27" cy="286.62" r="1.6666666666666667" />
<circle cx="640.27" cy="279.72" r="1.6666666666666667" />
<circle cx="640.27" cy="282.21" r="1.6666666666666667" />
<circle cx="640.28" cy="305.58" r="1.6666666666666667" />
<circle cx="640.28" cy="302.17" r="1.6666666666666667" />
<circle cx="640.28" cy="319.11" r="1.6666666666666667" />
<circle cx="640.28" cy="329.48" r="1.6666666666666667" />
<circle cx="640.29" cy="342.68" r="1.6666666666666667" />
<circle cx="640.29" cy="296.41" r="1.6666666666666667" />
<circle cx="640.29" cy="259.36" r="1.6666666666666667" />
<circle cx="640.29" cy="253.66" r="1.6666666666666667" />
<circle cx="640.29" cy="253.66" r="1.6666666666666667" />
<circle cx="640.29" cy="255.69" r="1.6666666666666667" />
<circle cx="640.29" cy="253.66" r="1.6666666666666667" />
<circle cx="640.29" cy="249.13" r="1.6666666666666667" />
<circle cx="640.29" cy="253.66" r="1.6666666666666667" />
<circle cx="640.29" cy="251.49" r="1.6666666666666667" />
<circle cx="640.29" cy="243.78" r="1.6666666666666667" />
<circle cx="640.29" cy="249.13" r="1.6666666666666667" />
<circle cx="640.29" cy="257.58" r="1.6666666666666667" />
<circle cx="640.29" cy="255.69" r="1.6666666666666667" />
<circle cx="640.29" cy="257.58" r="1.6666666666666667" />
<circle cx="640.29" cy="259.36" r="1.6666666666666667" />
<circle cx="640.29" cy="251.49" r="1.6666666666666667" />
<circle cx="640.29" cy="259.36" r="1.6666666666666667" />
<circle cx="640.29" cy="262.63" r="1.6666666666666667" />
<circle cx="640.30" cy="266.94" r="1.6666666666666667" />
<circle cx="640.30" cy="268.24" r="1.6666666666666667" />
<circle cx="640.30" cy="277.01" r="1.6666666666666667" />
<circle cx="640.30" cy="279.72" r="1.6666666666666667" />
<circle cx="640.30" cy="271.84" r="1.6666666666666667" />
<circle cx="640.30" cy="277.01" r="1.6666666666666667" />
<circle cx="640.30" cy="289.85" r="1.6666666666666667" />
<circle cx="640.30" cy="295.91" r="1.6666666666666667" />
<circle cx="640.30" cy="298.76" r="1.6666666666666667" />
<circle cx="640.30" cy="298.76" r="1.6666666666666667" />
<circle cx="640.30" cy="315.77" r="1.6666666666666667" />
<circle cx="640.31" cy="334.16" r="1.6666666666666667" />
<circle cx="640.31" cy="333.34" r="1.6666666666666667" />
<circle cx="640.32" cy="328.01" r="1.6666666666666667" />
<circle cx="640.32" cy="318.20" r="1.6666666666666667" />
<circle cx="640.32" cy="320.22" r="1.6666666666666667" />
<circle cx="640.33" cy="334.43" r="1.6666666666666667" />
<circle cx="640.33" cy="354.66" r="1.6666666666666667" />
<circle cx="640.35" cy="378.62" r="1.6666666666666667" />
<circle cx="640.37" cy="371.09" r="1.6666666666666667" />
<circle cx="640.38" cy="362.01" r="1.6666666666666667" />
<circle cx="640.38" cy="341.86" r="1.6666666666666667" />
<circle cx="640.39" cy="345.11" r="1.6666666666666667" />
<circle cx="640.40" cy="350.07" r="1.6666666666666667" />
<circle cx="640.40" cy="344.35" r="1.6666666666666667" />
<circle cx="640.41" cy="358.74" r="1.6666666666666667" />
<circle cx="640.42" cy="356.48" r="1.6666666666666667" />
<circle cx="640.43" cy="367.23" r="1.6666666666666667" />
<circle cx="640.45" cy="374.74" r="1.6666666666666667" />
<circle cx="640.46" cy="369.59" r="1.6666666666666667" />
<circle cx="640.48" cy="368.01" r="1.6666666666666667" />
<circle cx="640.50" cy="385.85" r="1.6666666666666667" />
<circle cx="640.51" cy="361.53" r="1.6666666666666667" />
<circle cx="640.53" cy="380.10" r="1.6666666666666667" />
<circle cx="640.71" cy="444.27" r="1.6666666666666667" />
<circle cx="641.89" cy="499.91" r="1.6666666666666667" />
<circle cx="641.89" cy="283.75" r="1.6666666666666667" />
<circle cx="641.89" cy="268.24" r="1.6666666666666667" />
<circle cx="641.89" cy="269.49" r="1.6666666666666667" />
<circle cx="641.89" cy="262.63" r="1.6666666666666667" />
<circle cx="641.89" cy="269.49" r="1.6666666666666667" />
<circle cx="641.89" cy="265.57" r="1.6666666666666667" />
<circle cx="641.89" cy="268.24" r="1.6666666666666667" />
<circle cx="641.89" cy="261.04" r="1.6666666666666667" />
<circle cx="641.89" cy="284.50" r="1.6666666666666667" />
<circle cx="641.89" cy="262.63" r="1.6666666666666667" />
<circle cx="641.89" cy="275.05" r="1.6666666666666667" />
<circle cx="641.89" cy="261.04" r="1.6666666666666667" />
<circle cx="641.89" cy="249.13" r="1.6666666666666667" />
<circle cx="641.89" cy="246.58" r="1.6666666666666667" />
<circle cx="641.89" cy="249.13" r="1.6666666666666667" />
<circle cx="641.89" cy="243.78" r="1.6666666666666667" />
<circle cx="641.89" cy="246.58" r="1.6666666666666667" />
<circle cx="641.89" cy="237.23" r="1.6666666666666667" />
<circle cx="641.89" cy="249.13" r="1.6666666666666667" />
<circle cx="641.89" cy="243.78" r="1.6666666666666667" />
<circle cx="641.89" cy="243.78" r="1.6666666666666667" />
<circle cx="641.89" cy="243.78" r="1.6666666666666667" />
<circle cx="641.89" cy="237.23" r="1.6666666666666667" />
<circle cx="641.89" cy="237.23" r="1.6666666666666667" />
<circle cx="641.89" cy="240.69" r="1.6666666666666667" />
<circle cx="641.89" cy="237.23" r="1.6666666666666667" />
<circle cx="641.89" cy="243.78" r="1.6666666666666667" />
<circle cx="641.89" cy="240.69" r="1.6666666666666667" />
<circle cx="641.89" cy="243.78" r="1.6666666666666667" />
<circle cx="641.89" cy="240.69" r="1.6666666666666667" />
<circle cx="641.89" cy="243.78" r="1.6666666666666667" />
<circle cx="641.89" cy="240.69" r="1.6666666666666667" />
<circle cx="641.89" cy="233.30" r="1.6666666666666667" />
<circle cx="641.89" cy="240.69" r="1.6666666666666667" />
<circle cx="641.90" cy="240.69" r="1.6666666666666667" />
<circle cx="641.90" cy="240.69" r="1.6666666666666667" />
<circle cx="641.90" cy="237.23" r="1.6666666666666667" />
<circle cx="641.90" cy="240.69" r="1.6666666666666667" />
<circle cx="641.90" cy="246.58" r="1.6666666666666667" />
<circle cx="641.90" cy="246.58" r="1.6666666666666667" />
<circle cx="641.90" cy="255.69" r="1.6666666666666667" />
<circle cx="641.90" cy="246.58" r="1.6666666666666667" />
<circle cx="641.90" cy="255.69" r="1.6666666666666667" />
<circle cx="641.90" cy="249.13" r="1.6666666666666667" />
<circle cx="641.90" cy="261.04" r="1.6666666666666667" />
<circle cx="641.90" cy="261.04" r="1.6666666666666667" />
<circle cx="641.90" cy="265.57" r="1.6666666666666667" />
<circle cx="641.90" cy="268.24" r="1.6666666666666667" />
<circle cx="641.90" cy="262.63" r="1.6666666666666667" />
<circle cx="641.90" cy="246.58" r="1.6666666666666667" />
<circle cx="641.90" cy="246.58" r="1.6666666666666667" />
<circle cx="641.90" cy="251.49" r="1.6666666666666667" />
<circle cx="641.90" cy="249.13" r="1.6666666666666667" />
<circle cx="641.90" cy="243.78" r="1.6666666666666667" />
<circle cx="641.90" cy="246.58" r="1.6666666666666667" />
<circle cx="641.90" cy="251.49" r="1.6666666666666667" />
<circle cx="641.90" cy="243.78" r="1.6666666666666667" />
<circle cx="641.90" cy="246.58" r="1.6666666666666667" />
<circle cx="641.90" cy="251.49" r="1.6666666666666667" />
<circle cx="641.90" cy="240.69" r="1.6666666666666667" />
<circle cx="641.90" cy="243.78" r="1.6666666666666667" />
<circle cx="641.90" cy="243.78" r="1.6666666666666667" />
<circle cx="641.90" cy="251.49" r="1.6666666666666667" />
<circle cx="641.90" cy="253.66" r="1.6666666666666667" />
<circle cx="641.90" cy="253.66" r="1.6666666666666667" />
<circle cx="641.90" cy="261.04" r="1.6666666666666667" />
<circle cx="641.90" cy="257.58" r="1.6666666666666667" />
<circle cx="641.90" cy="255.69" r="1.6666666666666667" />
<circle cx="641.90" cy="259.36" r="1.6666666666666667" />
<circle cx="641.90" cy="268.24" r="1.6666666666666667" />
<circle cx="641.90" cy="264.14" r="1.6666666666666667" />
<circle cx="641.90" cy="262.63" r="1.6666666666666667" />
<circle cx="641.91" cy="253.66" r="1.6666666666666667" />
<circle cx="641.91" cy="246.58" r="1.6666666666666667" />
<circle cx="641.91" cy="257.58" r="1.6666666666666667" />
<circle cx="641.91" cy="243.78" r="1.6666666666666667" />
<circle cx="641.91" cy="257.58" r="1.6666666666666667" />
<circle cx="641.91" cy="255.69" r="1.6666666666666667" />
<circle cx="641.91" cy="253.66" r="1.6666666666666667" />
<circle cx="641.91" cy="259.36" r="1.6666666666666667" />
<circle cx="641.91" cy="259.36" r="1.6666666666666667" />
<circle cx="641.91" cy="264.14" r="1.6666666666666667" />
<circle cx="641.91" cy="264.14" r="1.6666666666666667" />
<circle cx="641.91" cy="262.63" r="1.6666666666666667" />
<circle cx="641.91" cy="261.04" r="1.6666666666666667" />
<circle cx="641.91" cy="261.04" r="1.6666666666666667" />
<circle cx="641.91" cy="269.49" r="1.6666666666666667" />
<circle cx="641.91" cy="268.24" r="1.6666666666666667" />
<circle cx="641.91" cy="266.94" r="1.6666666666666667" />
<circle cx="641.91" cy="265.57" r="1.6666666666666667" />
<circle cx="641.91" cy="268.24" r="1.6666666666666667" />
<circle cx="641.91" cy="265.57" r="1.6666666666666667" />
<circle cx="641.91" cy="269.49" r="1.6666666666666667" />
<circle cx="641.91" cy="265.57" r="1.6666666666666667" />
<circle cx="641.91" cy="265.57" r="1.6666666666666667" />
<circle cx="641.91" cy="268.24" r="1.6666666666666667" />
<circle cx="641.91" cy="274.02" r="1.6666666666666667" />
<circle cx="641.91" cy="279.72" r="1.6666666666666667" />
<circle cx="641.92" cy="277.01" r="1.6666666666666667" />
<circle cx="641.92" cy="280.57" r="1.6666666666666667" />
<circle cx="641.92" cy="278.85" r="1.6666666666666667" />
<circle cx="641.92" cy="285.22" r="1.6666666666666667" />
<circle cx="641.92" cy="285.93" r="1.6666666666666667" />
<circle cx="641.92" cy="270.69" r="1.6666666666666667" />
<circle cx="641.92" cy="276.05" r="1.6666666666666667" />
<circle cx="641.92" cy="278.85" r="1.6666666666666667" />
<circle cx="641.92" cy="283.75" r="1.6666666666666667" />
<circle cx="641.92" cy="277.01" r="1.6666666666666667" />
<circle cx="641.92" cy="270.69" r="1.6666666666666667" />
<circle cx="641.92" cy="278.85" r="1.6666666666666667" />
<circle cx="641.92" cy="277.01" r="1.6666666666666667" />
<circle cx="641.92" cy="297.84" r="1.6666666666666667" />
<circle cx="641.93" cy="321.08" r="1.6666666666666667" />
<circle cx="641.98" cy="409.11" r="1.6666666666666667" />
</g>
<g stroke="black">
<line x1="839.86" x2="839.86" y1="510.00" y2="520.00" />
<line x1="791.78" x2="791.78" y1="510.00" y2="520.00" />
<line x1="740.39" x2="740.39" y1="510.00" y2="520.00" />
<line x1="689.00" x2="689.00" y1="510.00" y2="520.00" />
<line x1="639.26" x2="639.26" y1="510.00" y2="520.00" />
<line x1="587.87" x2="587.87" y1="510.00" y2="520.00" />
<line x1="538.13" x2="538.13" y1="510.00" y2="520.00" />
<line x1="486.74" x2="486.74" y1="510.00" y2="520.00" />
<line x1="435.35" x2="435.35" y1="510.00" y2="520.00" />
<line x1="385.61" x2="385.61" y1="510.00" y2="520.00" />
<line x1="334.22" x2="334.22" y1="510.00" y2="520.00" />
<line x1="284.48" x2="284.48" y1="510.00" y2="520.00" />
<line x1="233.09" x2="233.09" y1="510.00" y2="520.00" />
<line x1="186.67" x2="186.67" y1="510.00" y2="520.00" />
<g fill="black" font-family="Arial, sans-serif" font-size="18.0" stroke="none" text-anchor="start" transform="translate(9.0 0.0)">
<text x="839.86" y="530.57">Mar</text>
<text x="791.78" y="530.57">Feb</text>
<text x="740.39" y="530.57">Jan</text>
<text x="689.00" y="530.57">Dec</text>
<text x="639.26" y="530.57">Nov</text>
<text x="587.87" y="530.57">Oct</text>
<text x="538.13" y="530.57">Sep</text>
<text x="486.74" y="530.57">Aug</text>
<text x="435.35" y="530.57">Jul</text>
<text x="385.61" y="530.57">Jun</text>
<text x="334.22" y="530.57">May</text>
<text x="284.48" y="530.57">Apr</text>
<text x="233.09" y="530.57">Mar</text>
<text x="186.67" y="530.57">Feb</text>
</g>
<line x1="150.00" x2="850.00" y1="510.00" y2="510.00" />
</g>
<g stroke="black">
<line x1="150.00" x2="140.00" y1="510.00" y2="510.00" />
<line x1="150.00" x2="140.00" y1="216.29" y2="216.29" />
<g fill="black" font-family="Arial, sans-serif" font-size="18.0" stroke="none" text-anchor="end">
<text x="141.00" y="501.00">0</text>
<text x="141.00" y="207.29">10</text>
</g>
<line x1="150.00" x2="150.00" y1="510.00" y2="90.00" />
</g>
</g>
</svg>