<?xml version="1.0"?>
<svg version="1.1" viewBox="0 0 1000 600" xmlns:xlink="http://www.w3.org/1999/xlink" xmlns="http://www.w3.org/2000/svg">
<g>
<g stroke-dasharray="3.6 7.2" stroke-width="0.72" stroke="#caa">
<line x1="813.75" x2="813.75" y1="510.00" y2="90.00" />
<line x1="760.60" x2="760.60" y1="510.00" y2="90.00" />
<line x1="707.45" x2="707.45" y1="510.00" y2="90.00" />
<line x1="656.01" x2="656.01" y1="510.00" y2="90.00" />
<line x1="602.86" x2="602.86" y1="510.00" y2="90.00" />
<line x1="551.42" x2="551.42" y1="510.00" y2="90.00" />
<line x1="498.27" x2="498.27" y1="510.00" y2="90.00" />
<line x1="445.11" x2="445.11" y1="510.00" y2="90.00" />
<line x1="393.68" x2="393.68" y1="510.00" y2="90.00" />
<line x1="340.52" x2="340.52" y1="510.00" y2="90.00" />
<line x1="289.09" x2="289.09" y1="510.00" y2="90.00" />
<line x1="235.93" x2="235.93" y1="510.00" y2="90.00" />
<line x1="187.92" x2="187.92" y1="510.00" y2="90.00" />
<line x1="150.00" x2="850.00" y1="510.00" y2="510.00" />
<line x1="150.00" x2="850.00" y1="244.85" y2="244.85" />
</g>
<g>
<text dominant-baseline="hanging" dx="-36.0" dy="18.0" fill="#0004" font-family="Arial, sans-serif" font-size="36" stroke="none" text-anchor="end" x="850.00" y="128.18">R19</text>
</g>
<g>
<text dominant-baseline="text-bottom" dy="-12.0" fill="black" font-family="Arial, sans-serif" font-size="18.0" font-style="italic" stroke="none" text-anchor="middle" x="500.00" y="90.00">Years 2023 to 2024</text>
</g>
<g>
<text dominant-baseline="central" dx="12.0" dy="12.0" fill="black" font-family="Arial, sans-serif" font-size="18.0" font-style="italic" stroke="none" text-anchor="middle" text-orientation="sideways" writing-mode="vertical-lr" x="850.00" y="300.00">Drips per day</text>
</g>
<polyline fill="none" points="638.21,494.09 638.22,498.01 638.22,502.61 638.23,480.63 638.23,479.45 638.23,476.31 638.23,486.62 638.23,494.93 638.24,489.36 638.24,484.83 638.24,495.68 638.73,509.91 639.85,509.96 639.85,480.63 639.85,474.20 639.85,319.09 639.85,280.91 639.85,280.91 639.85,280.91 639.85,333.78 639.85,375.24 639.85,346.36 639.85,366.82 639.85,389.43 639.85,425.15 639.85,476.80 640.15,509.85 640.15,428.18 640.15,375.24 640.15,301.74 640.16,346.36 640.16,382.73 640.16,382.73 640.16,428.18 640.16,463.25 640.16,481.72 640.16,485.63 640.17,503.83 640.18,503.56 640.18,497.88 640.18,496.03 640.19,497.13 640.19,495.41 640.19,492.90 640.19,489.55 640.20,488.98 640.20,489.55 640.20,492.90 640.20,494.09 640.21,490.42 640.21,492.24 640.21,490.42 640.21,495.12 640.22,493.98 640.22,488.98 640.22,488.39 640.22,483.97 640.23,492.51 640.23,493.87 640.23,497.20 640.24,501.70 640.50,509.83 645.66,500.98 645.66,496.60 645.67,495.41 645.67,501.64 645.72,508.99 645.74,508.29 645.75,502.21 645.81,509.20 645.81,502.31 645.83,506.24 645.83,487.54 645.83,482.73 645.83,486.62 645.83,484.55 645.83,487.54 645.84,487.97 645.84,503.20 645.95,509.58 648.44,500.49 648.45,497.27 648.54,509.50 648.56,507.96 650.54,451.26 650.54,444.55 650.54,449.71 650.54,455.45 650.54,457.93 650.54,467.58 650.54,465.94 650.54,467.58 650.54,473.05 650.55,478.18 650.55,465.08 650.55,464.18 650.55,482.06 650.55,482.73 650.55,465.94 650.55,438.41 650.55,433.64 650.55,442.62 650.56,448.08 650.56,454.12 650.56,462.27 650.56,456.72 650.56,456.72 650.56,469.81 650.56,483.36 650.56,478.62 650.56,469.81 650.57,465.08 650.57,470.50 650.57,493.03 650.58,504.20 650.58,492.64 650.61,508.31 650.61,502.41 650.62,497.27 650.62,498.77 650.63,503.87 650.64,505.98 651.23,509.92 652.16,509.95 652.16,446.36 652.16,475.81 653.62,509.97 653.63,477.73 653.63,487.32 653.63,474.20 653.63,483.97 653.63,487.09 653.64,500.76 653.64,485.37 653.64,455.45 653.64,449.71 653.64,456.72 653.64,466.78 653.64,405.87 653.64,405.87 653.64,410.40 653.64,400.91 653.64,389.43 653.64,395.45 653.65,431.00 653.65,442.62 653.65,414.55 653.65,410.40 653.65,421.89 653.65,400.91 653.65,382.73 653.65,389.43 653.65,346.36 653.65,319.09 653.65,301.74 653.65,357.27 653.65,333.78 653.65,428.18 653.65,395.45 653.65,333.78 653.65,319.09 653.65,301.74 653.65,319.09 653.65,301.74 653.65,319.09 653.65,346.36 653.65,333.78 653.65,333.78 653.65,319.09 653.65,346.36 653.65,319.09 653.65,333.78 653.65,357.27 653.65,319.09 653.65,319.09 653.66,255.45 653.66,223.64 653.66,301.74 653.66,319.09 653.66,333.78 653.66,319.09 653.66,333.78 653.66,301.74 653.66,333.78 653.66,346.36 653.66,346.36 653.66,301.74 653.66,301.74 653.66,280.91 653.66,182.73 653.66,255.45 653.66,223.64 653.66,223.64 653.66,182.73 653.66,128.18 653.66,182.73 653.66,223.64 653.66,128.18 653.66,255.45 653.66,223.64 653.66,223.64 653.66,255.45 653.66,280.91 653.66,301.74 653.66,301.74 653.66,319.09 653.66,346.36 653.66,357.27 653.66,395.45 653.66,421.89 653.66,455.45 653.66,471.82 653.67,490.59 653.67,471.82 653.67,495.86 653.69,507.01 653.79,509.56 653.91,509.61 655.30,509.97 655.30,481.00 655.30,433.64 655.30,436.10 655.30,442.62 655.30,346.36 655.30,414.55 655.30,410.40 655.30,428.18 655.30,418.36 655.30,433.64 655.30,319.09 655.30,333.78 655.30,319.09 655.30,319.09 655.30,357.27 655.31,421.89 655.31,395.45 655.31,389.43 655.31,414.55 655.31,395.45 655.31,395.45 655.31,418.36 655.31,421.89 655.31,425.15 655.31,448.08 655.31,454.12 655.31,462.27 655.31,457.93 655.31,456.72 655.31,469.09 655.32,481.36 655.32,471.17 655.32,463.25 655.32,454.12 655.32,449.71 655.32,442.62 655.32,440.58 655.32,449.71 655.32,468.35 655.32,462.27 655.32,474.76 655.33,488.59 655.33,503.55 655.40,509.27 657.05,509.97 657.06,465.94 657.06,463.25 657.06,433.64 657.06,456.72 657.06,442.62 657.06,448.08 657.06,482.06 657.06,478.62 657.06,492.38 657.07,497.62 657.07,502.10 657.08,471.82 657.08,375.24 657.08,346.36 657.08,346.36 657.08,357.27 657.08,346.36 657.08,319.09 657.08,346.36 657.08,333.78 657.08,280.91 657.08,319.09 657.08,366.82 657.08,357.27 657.08,366.82 657.08,375.24 657.08,333.78 657.08,375.24 657.08,389.43 657.08,405.87 657.08,410.40 657.08,436.10 657.08,442.62 657.08,421.89 657.08,436.10 657.08,462.27 657.09,471.17 657.09,474.76 657.09,474.76 657.09,490.25 657.10,499.44 657.10,499.14 657.10,496.98 657.11,491.82 657.11,493.03 657.11,499.54 657.12,504.75 657.14,507.68 657.16,507.00 657.17,505.91 657.17,501.88 657.18,502.73 657.19,503.86 657.19,502.54 657.20,505.43 657.21,505.06 657.22,506.58 657.24,507.35 657.26,506.84 657.27,506.67 657.29,508.18 657.31,505.84 657.33,507.79 657.51,509.75 658.73,509.96 658.73,451.26 658.73,410.40 658.73,414.55 658.73,389.43 658.73,414.55 658.73,400.91 658.73,410.40 658.73,382.73 658.73,452.73 658.73,389.43 658.73,431.00 658.73,382.73 658.73,319.09 658.73,301.74 658.73,319.09 658.73,280.91 658.73,301.74 658.73,223.64 658.73,319.09 658.73,280.91 658.73,280.91 658.73,280.91 658.73,223.64 658.73,223.64 658.73,255.45 658.73,223.64 658.73,280.91 658.73,255.45 658.73,280.91 658.73,255.45 658.73,280.91 658.74,255.45 658.74,182.73 658.74,255.45 658.74,255.45 658.74,255.45 658.74,223.64 658.74,255.45 658.74,301.74 658.74,301.74 658.74,357.27 658.74,301.74 658.74,357.27 658.74,319.09 658.74,382.73 658.74,382.73 658.74,400.91 658.74,410.40 658.74,389.43 658.74,301.74 658.74,301.74 658.74,333.78 658.74,319.09 658.74,280.91 658.74,301.74 658.74,333.78 658.74,280.91 658.74,301.74 658.74,333.78 658.74,255.45 658.74,280.91 658.74,280.91 658.74,333.78 658.74,346.36 658.74,346.36 658.74,382.73 658.74,366.82 658.74,357.27 658.74,375.24 658.74,410.40 658.75,395.45 658.75,389.43 658.75,346.36 658.75,301.74 658.75,366.82 658.75,280.91 658.75,366.82 658.75,357.27 658.75,346.36 658.75,375.24 658.75,375.24 658.75,395.45 658.75,395.45 658.75,389.43 658.75,382.73 658.75,382.73 658.75,414.55 658.75,410.40 658.75,405.87 658.75,400.91 658.75,410.40 658.75,400.91 658.75,414.55 658.75,400.91 658.75,400.91 658.75,410.40 658.76,428.18 658.76,442.62 658.76,436.10 658.76,444.55 658.76,440.58 658.76,454.12 658.76,455.45 658.76,418.36 658.76,433.64 658.76,440.58 658.76,451.26 658.76,436.10 658.76,418.36 658.76,440.58 658.76,436.10 658.77,473.64 658.77,493.52 658.82,509.18" stroke-dasharray="3.6 3.6" stroke-width="3.6" stroke="#aaa" />
<g>
<circle cx="638.21" cy="494.09" r="1.6666666666666667" />
<circle cx="638.22" cy="498.01" r="1.6666666666666667" />
<circle cx="638.22" cy="502.61" r="1.6666666666666667" />
<circle cx="638.23" cy="480.63" r="1.6666666666666667" />
<circle cx="638.23" cy="479.45" r="1.6666666666666667" />
<circle cx="638.23" cy="476.31" r="1.6666666666666667" />
<circle cx="638.23" cy="486.62" r="1.6666666666666667" />
<circle cx="638.23" cy="494.93" r="1.6666666666666667" />
<circle cx="638.24" cy="489.36" r="1.6666666666666667" />
<circle cx="638.24" cy="484.83" r="1.6666666666666667" />
<circle cx="638.24" cy="495.68" r="1.6666666666666667" />
<circle cx="638.73" cy="509.91" r="1.6666666666666667" />
<circle cx="639.85" cy="509.96" r="1.6666666666666667" />
<circle cx="639.85" cy="480.63" r="1.6666666666666667" />
<circle cx="639.85" cy="474.20" r="1.6666666666666667" />
<circle cx="639.85" cy="319.09" r="1.6666666666666667" />
<circle cx="639.85" cy="280.91" r="1.6666666666666667" />
<circle cx="639.85" cy="280.91" r="1.6666666666666667" />
<circle cx="639.85" cy="280.91" r="1.6666666666666667" />
<circle cx="639.85" cy="333.78" r="1.6666666666666667" />
<circle cx="639.85" cy="375.24" r="1.6666666666666667" />
<circle cx="639.85" cy="346.36" r="1.6666666666666667" />
<circle cx="639.85" cy="366.82" r="1.6666666666666667" />
<circle cx="639.85" cy="389.43" r="1.6666666666666667" />
<circle cx="639.85" cy="425.15" r="1.6666666666666667" />
<circle cx="639.85" cy="476.80" r="1.6666666666666667" />
<circle cx="640.15" cy="509.85" r="1.6666666666666667" />
<circle cx="640.15" cy="428.18" r="1.6666666666666667" />
<circle cx="640.15" cy="375.24" r="1.6666666666666667" />
<circle cx="640.15" cy="301.74" r="1.6666666666666667" />
<circle cx="640.16" cy="346.36" r="1.6666666666666667" />
<circle cx="640.16" cy="382.73" r="1.6666666666666667" />
<circle cx="640.16" cy="382.73" r="1.6666666666666667" />
<circle cx="640.16" cy="428.18" r="1.6666666666666667" />
<circle cx="640.16" cy="463.25" r="1.6666666666666667" />
<circle cx="640.16" cy="481.72" r="1.6666666666666667" />
<circle cx="640.16" cy="485.63" r="1.6666666666666667" />
<circle cx="640.17" cy="503.83" r="1.6666666666666667" />
<circle cx="640.18" cy="503.56" r="1.6666666666666667" />
<circle cx="640.18" cy="497.88" r="1.6666666666666667" />
<circle cx="640.18" cy="496.03" r="1.6666666666666667" />
<circle cx="640.19" cy="497.13" r="1.6666666666666667" />
<circle cx="640.19" cy="495.41" r="1.6666666666666667" />
<circle cx="640.19" cy="492.90" r="1.6666666666666667" />
<circle cx="640.19" cy="489.55" r="1.6666666666666667" />
<circle cx="640.20" cy="488.98" r="1.6666666666666667" />
<circle cx="640.20" cy="489.55" r="1.6666666666666667" />
<circle cx="640.20" cy="492.90" r="1.6666666666666667" />
<circle cx="640.20" cy="494.09" r="1.6666666666666667" />
<circle cx="640.21" cy="490.42" r="1.6666666666666667" />
<circle cx="640.21" cy="492.24" r="1.6666666666666667" />
<circle cx="640.21" cy="490.42" r="1.6666666666666667" />
<circle cx="640.21" cy="495.12" r="1.6666666666666667" />
<circle cx="640.22" cy="493.98" r="1.6666666666666667" />
<circle cx="640.22" cy="488.98" r="1.6666666666666667" />
<circle cx="640.22" cy="488.39" r="1.6666666666666667" />
<circle cx="640.22" cy="483.97" r="1.6666666666666667" />
<circle cx="640.23" cy="492.51" r="1.6666666666666667" />
<circle cx="640.23" cy="493.87" r="1.6666666666666667" />
<circle cx="640.23" cy="497.20" r="1.6666666666666667" />
<circle cx="640.24" cy="501.70" r="1.6666666666666667" />
<circle cx="640.50" cy="509.83" r="1.6666666666666667" />
<circle cx="645.66" cy="500.98" r="1.6666666666666667" />
<circle cx="645.66" cy="496.60" r="1.6666666666666667" />
<circle cx="645.67" cy="495.41" r="1.6666666666666667" />
<circle cx="645.67" cy="501.64" r="1.6666666666666667" />
<circle cx="645.72" cy="508.99" r="1.6666666666666667" />
<circle cx="645.74" cy="508.29" r="1.6666666666666667" />
<circle cx="645.75" cy="502.21" r="1.6666666666666667" />
<circle cx="645.81" cy="509.20" r="1.6666666666666667" />
<circle cx="645.81" cy="502.31" r="1.6666666666666667" />
<circle cx="645.83" cy="506.24" r="1.6666666666666667" />
<circle cx="645.83" cy="487.54" r="1.6666666666666667" />
<circle cx="645.83" cy="482.73" r="1.6666666666666667" />
<circle cx="645.83" cy="486.62" r="1.6666666666666667" />
<circle cx="645.83" cy="484.55" r="1.6666666666666667" />
<circle cx="645.83" cy="487.54" r="1.6666666666666667" />
<circle cx="645.84" cy="487.97" r="1.6666666666666667" />
<circle cx="645.84" cy="503.20" r="1.6666666666666667" />
<circle cx="645.95" cy="509.58" r="1.6666666666666667" />
<circle cx="648.44" cy="500.49" r="1.6666666666666667" />
<circle cx="648.45" cy="497.27" r="1.6666666666666667" />
<circle cx="648.54" cy="509.50" r="1.6666666666666667" />
<circle cx="648.56" cy="507.96" r="1.6666666666666667" />
<circle cx="650.54" cy="451.26" r="1.6666666666666667" />
<circle cx="650.54" cy="444.55" r="1.6666666666666667" />
<circle cx="650.54" cy="449.71" r="1.6666666666666667" />
<circle cx="650.54" cy="455.45" r="1.6666666666666667" />
<circle cx="650.54" cy="457.93" r="1.6666666666666667" />
<circle cx="650.54" cy="467.58" r="1.6666666666666667" />
<circle cx="650.54" cy="465.94" r="1.6666666666666667" />
<circle cx="650.54" cy="467.58" r="1.6666666666666667" />
<circle cx="650.54" cy="473.05" r="1.6666666666666667" />
<circle cx="650.55" cy="478.18" r="1.6666666666666667" />
<circle cx="650.55" cy="465.08" r="1.6666666666666667" />
<circle cx="650.55" cy="464.18" r="1.6666666666666667" />
<circle cx="650.55" cy="482.06" r="1.6666666666666667" />
<circle cx="650.55" cy="482.73" r="1.6666666666666667" />
<circle cx="650.55" cy="465.94" r="1.6666666666666667" />
<circle cx="650.55" cy="438.41" r="1.6666666666666667" />
<circle cx="650.55" cy="433.64" r="1.6666666666666667" />
<circle cx="650.55" cy="442.62" r="1.6666666666666667" />
<circle cx="650.56" cy="448.08" r="1.6666666666666667" />
<circle cx="650.56" cy="454.12" r="1.6666666666666667" />
<circle cx="650.56" cy="462.27" r="1.6666666666666667" />
<circle cx="650.56" cy="456.72" r="1.6666666666666667" />
<circle cx="650.56" cy="456.72" r="1.6666666666666667" />
<circle cx="650.56" cy="469.81" r="1.6666666666666667" />
<circle cx="650.56" cy="483.36" r="1.6666666666666667" />
<circle cx="650.56" cy="478.62" r="1.6666666666666667" />
<circle cx="650.56" cy="469.81" r="1.6666666666666667" />
<circle cx="650.57" cy="465.08" r="1.6666666666666667" />
<circle cx="650.57" cy="470.50" r="1.6666666666666667" />
<circle cx="650.57" cy="493.03" r="1.6666666666666667" />
<circle cx="650.58" cy="504.20" r="1.6666666666666667" />
<circle cx="650.58" cy="492.64" r="1.6666666666666667" />
<circle cx="650.61" cy="508.31" r="1.6666666666666667" />
<circle cx="650.61" cy="502.41" r="1.6666666666666667" />
<circle cx="650.62" cy="497.27" r="1.6666666666666667" />
<circle cx="650.62" cy="498.77" r="1.6666666666666667" />
<circle cx="650.63" cy="503.87" r="1.6666666666666667" />
<circle cx="650.64" cy="505.98" r="1.6666666666666667" />
<circle cx="651.23" cy="509.92" r="1.6666666666666667" />
<circle cx="652.16" cy="509.95" r="1.6666666666666667" />
<circle cx="652.16" cy="446.36" r="1.6666666666666667" />
<circle cx="652.16" cy="475.81" r="1.6666666666666667" />
<circle cx="653.62" cy="509.97" r="1.6666666666666667" />
<circle cx="653.63" cy="477.73" r="1.6666666666666667" />
<circle cx="653.63" cy="487.32" r="1.6666666666666667" />
<circle cx="653.63" cy="474.20" r="1.6666666666666667" />
<circle cx="653.63" cy="483.97" r="1.6666666666666667" />
<circle cx="653.63" cy="487.09" r="1.6666666666666667" />
<circle cx="653.64" cy="500.76" r="1.6666666666666667" />
<circle cx="653.64" cy="485.37" r="1.6666666666666667" />
<circle cx="653.64" cy="455.45" r="1.6666666666666667" />
<circle cx="653.64" cy="449.71" r="1.6666666666666667" />
<circle cx="653.64" cy="456.72" r="1.6666666666666667" />
<circle cx="653.64" cy="466.78" r="1.6666666666666667" />
<circle cx="653.64" cy="405.87" r="1.6666666666666667" />
<circle cx="653.64" cy="405.87" r="1.6666666666666667" />
<circle cx="653.64" cy="410.40" r="1.6666666666666667" />
<circle cx="653.64" cy="400.91" r="1.6666666666666667" />
<circle cx="653.64" cy="389.43" r="1.6666666666666667" />
<circle cx="653.64" cy="395.45" r="1.6666666666666667" />
<circle cx="653.65" cy="431.00" r="1.6666666666666667" />
<circle cx="653.65" cy="442.62" r="1.6666666666666667" />
<circle cx="653.65" cy="414.55" r="1.6666666666666667" />
<circle cx="653.65" cy="410.40" r="1.6666666666666667" />
<circle cx="653.65" cy="421.89" r="1.6666666666666667" />
<circle cx="653.65" cy="400.91" r="1.6666666666666667" />
<circle cx="653.65" cy="382.73" r="1.6666666666666667" />
<circle cx="653.65" cy="389.43" r="1.6666666666666667" />
<circle cx="653.65" cy="346.36" r="1.6666666666666667" />
<circle cx="653.65" cy="319.09" r="1.6666666666666667" />
<circle cx="653.65" cy="301.74" r="1.6666666666666667" />
<circle cx="653.65" cy="357.27" r="1.6666666666666667" />
<circle cx="653.65" cy="333.78" r="1.6666666666666667" />
<circle cx="653.65" cy="428.18" r="1.6666666666666667" />
<circle cx="653.65" cy="395.45" r="1.6666666666666667" />
<circle cx="653.65" cy="333.78" r="1.6666666666666667" />
<circle cx="653.65" cy="319.09" r="1.6666666666666667" />
<circle cx="653.65" cy="301.74" r="1.6666666666666667" />
<circle cx="653.65" cy="319.09" r="1.6666666666666667" />
<circle cx="653.65" cy="301.74" r="1.6666666666666667" />
<circle cx="653.65" cy="319.09" r="1.6666666666666667" />
<circle cx="653.65" cy="346.36" r="1.6666666666666667" />
<circle cx="653.65" cy="333.78" r="1.6666666666666667" />
<circle cx="653.65" cy="333.78" r="1.6666666666666667" />
<circle cx="653.65" cy="319.09" r="1.6666666666666667" />
<circle cx="653.65" cy="346.36" r="1.6666666666666667" />
<circle cx="653.65" cy="319.09" r="1.6666666666666667" />
<circle cx="653.65" cy="333.78" r="1.6666666666666667" />
<circle cx="653.65" cy="357.27" r="1.6666666666666667" />
<circle cx="653.65" cy="319.09" r="1.6666666666666667" />
<circle cx="653.65" cy="319.09" r="1.6666666666666667" />
<circle cx="653.66" cy="255.45" r="1.6666666666666667" />
<circle cx="653.66" cy="223.64" r="1.6666666666666667" />
<circle cx="653.66" cy="301.74" r="1.6666666666666667" />
<circle cx="653.66" cy="319.09" r="1.6666666666666667" />
<circle cx="653.66" cy="333.78" r="1.6666666666666667" />
<circle cx="653.66" cy="319.09" r="1.6666666666666667" />
<circle cx="653.66" cy="333.78" r="1.6666666666666667" />
<circle cx="653.66" cy="301.74" r="1.6666666666666667" />
<circle cx="653.66" cy="333.78" r="1.6666666666666667" />
<circle cx="653.66" cy="346.36" r="1.6666666666666667" />
<circle cx="653.66" cy="346.36" r="1.6666666666666667" />
<circle cx="653.66" cy="301.74" r="1.6666666666666667" />
<circle cx="653.66" cy="301.74" r="1.6666666666666667" />
<circle cx="653.66" cy="280.91" r="1.6666666666666667" />
<circle cx="653.66" cy="182.73" r="1.6666666666666667" />
<circle cx="653.66" cy="255.45" r="1.6666666666666667" />
<circle cx="653.66" cy="223.64" r="1.6666666666666667" />
<circle cx="653.66" cy="223.64" r="1.6666666666666667" />
<circle cx="653.66" cy="182.73" r="1.6666666666666667" />
<circle cx="653.66" cy="128.18" r="1.6666666666666667" />
<circle cx="653.66" cy="182.73" r="1.6666666666666667" />
<circle cx="653.66" cy="223.64" r="1.6666666666666667" />
<circle cx="653.66" cy="128.18" r="1.6666666666666667" />
<circle cx="653.66" cy="255.45" r="1.6666666666666667" />
<circle cx="653.66" cy="223.64" r="1.6666666666666667" />
<circle cx="653.66" cy="223.64" r="1.6666666666666667" />
<circle cx="653.66" cy="255.45" r="1.6666666666666667" />
<circle cx="653.66" cy="280.91" r="1.6666666666666667" />
<circle cx="653.66" cy="301.74" r="1.6666666666666667" />
<circle cx="653.66" cy="301.74" r="1.6666666666666667" />
<circle cx="653.66" cy="319.09" r="1.6666666666666667" />
<circle cx="653.66" cy="346.36" r="1.6666666666666667" />
<circle cx="653.66" cy="357.27" r="1.6666666666666667" />
<circle cx="653.66" cy="395.45" r="1.6666666666666667" />
<circle cx="653.66" cy="421.89" r="1.6666666666666667" />
<circle cx="653.66" cy="455.45" r="1.6666666666666667" />
<circle cx="653.66" cy="471.82" r="1.6666666666666667" />
<circle cx="653.67" cy="490.59" r="1.6666666666666667" />
<circle cx="653.67" cy="471.82" r="1.6666666666666667" />
<circle cx="653.67" cy="495.86" r="1.6666666666666667" />
<circle cx="653.69" cy="507.01" r="1.6666666666666667" />
<circle cx="653.79" cy="509.56" r="1.6666666666666667" />
<circle cx="653.91" cy="509.61" r="1.6666666666666667" />
<circle cx="655.30" cy="509.97" r="1.6666666666666667" />
<circle cx="655.30" cy="481.00" r="1.6666666666666667" />
<circle cx="655.30" cy="433.64" r="1.6666666666666667" />
<circle cx="655.30" cy="436.10" r="1.6666666666666667" />
<circle cx="655.30" cy="442.62" r="1.6666666666666667" />
<circle cx="655.30" cy="346.36" r="1.6666666666666667" />
<circle cx="655.30" cy="414.55" r="1.6666666666666667" />
<circle cx="655.30" cy="410.40" r="1.6666666666666667" />
<circle cx="655.30" cy="428.18" r="1.6666666666666667" />
<circle cx="655.30" cy="418.36" r="1.6666666666666667" />
<circle cx="655.30" cy="433.64" r="1.6666666666666667" />
<circle cx="655.30" cy="319.09" r="1.6666666666666667" />
<circle cx="655.30" cy="333.78" r="1.6666666666666667" />
<circle cx="655.30" cy="319.09" r="1.6666666666666667" />
<circle cx="655.30" cy="319.09" r="1.6666666666666667" />
<circle cx="655.30" cy="357.27" r="1.6666666666666667" />
<circle cx="655.31" cy="421.89" r="1.6666666666666667" />
<circle cx="655.31" cy="395.45" r="1.6666666666666667" />
<circle cx="655.31" cy="389.43" r="1.6666666666666667" />
<circle cx="655.31" cy="414.55" r="1.6666666666666667" />
<circle cx="655.31" cy="395.45" r="1.6666666666666667" />
<circle cx="655.31" cy="395.45" r="1.6666666666666667" />
<circle cx="655.31" cy="418.36" r="1.6666666666666667" />
<circle cx="655.31" cy="421.89" r="1.6666666666666667" />
<circle cx="655.31" cy="425.15" r="1.6666666666666667" />
<circle cx="655.31" cy="448.08" r="1.6666666666666667" />
<circle cx="655.31" cy="454.12" r="1.6666666666666667" />
<circle cx="655.31" cy="462.27" r="1.6666666666666667" />
<circle cx="655.31" cy="457.93" r="1.6666666666666667" />
<circle cx="655.31" cy="456.72" r="1.6666666666666667" />
<circle cx="655.31" cy="469.09" r="1.6666666666666667" />
<circle cx="655.32" cy="481.36" r="1.6666666666666667" />
<circle cx="655.32" cy="471.17" r="1.6666666666666667" />
<circle cx="655.32" cy="463.25" r="1.6666666666666667" />
<circle cx="655.32" cy="454.12" r="1.6666666666666667" />
<circle cx="655.32" cy="449.71" r="1.6666666666666667" />
<circle cx="655.32" cy="442.62" r="1.6666666666666667" />
<circle cx="655.32" cy="440.58" r="1.6666666666666667" />
<circle cx="655.32" cy="449.71" r="1.6666666666666667" />
<circle cx="655.32" cy="468.35" r="1.6666666666666667" />
<circle cx="655.32" cy="462.27" r="1.6666666666666667" />
<circle cx="655.32" cy="474.76" r="1.6666666666666667" />
<circle cx="655.33" cy="488.59" r="1.6666666666666667" />
<circle cx="655.33" cy="503.55" r="1.6666666666666667" />
<circle cx="655.40" cy="509.27" r="1.6666666666666667" />
<circle cx="657.05" cy="509.97" r="1.6666666666666667" />
<circle cx="657.06" cy="465.94" r="1.6666666666666667" />
<circle cx="657.06" cy="463.25" r="1.6666666666666667" />
<circle cx="657.06" cy="433.64" r="1.6666666666666667" />
<circle cx="657.06" cy="456.72" r="1.6666666666666667" />
<circle cx="657.06" cy="442.62" r="1.6666666666666667" />
<circle cx="657.06" cy="448.08" r="1.6666666666666667" />
<circle cx="657.06" cy="482.06" r="1.6666666666666667" />
<circle cx="657.06" cy="478.62" r="1.6666666666666667" />
<circle cx="657.06" cy="492.38" r="1.6666666666666667" />
<circle cx="657.07" cy="497.62" r="1.6666666666666667" />
<circle cx="657.07" cy="502.10" r="1.6666666666666667" />
<circle cx="657.08" cy="471.82" r="1.6666666666666667" />
<circle cx="657.08" cy="375.24" r="1.6666666666666667" />
<circle cx="657.08" cy="346.36" r="1.6666666666666667" />
<circle cx="657.08" cy="346.36" r="1.6666666666666667" />
<circle cx="657.08" cy="357.27" r="1.6666666666666667" />
<circle cx="657.08" cy="346.36" r="1.6666666666666667" />
<circle cx="657.08" cy="319.09" r="1.6666666666666667" />
<circle cx="657.08" cy="346.36" r="1.6666666666666667" />
<circle cx="657.08" cy="333.78" r="1.6666666666666667" />
<circle cx="657.08" cy="280.91" r="1.6666666666666667" />
<circle cx="657.08" cy="319.09" r="1.6666666666666667" />
<circle cx="657.08" cy="366.82" r="1.6666666666666667" />
<circle cx="657.08" cy="357.27" r="1.6666666666666667" />
<circle cx="657.08" cy="366.82" r="1.6666666666666667" />
<circle cx="657.08" cy="375.24" r="1.6666666666666667" />
<circle cx="657.08" cy="333.78" r="1.6666666666666667" />
<circle cx="657.08" cy="375.24" r="1.6666666666666667" />
<circle cx="657.08" cy="389.43" r="1.6666666666666667" />
<circle cx="657.08" cy="405.87" r="1.6666666666666667" />
<circle cx="657.08" cy="410.40" r="1.6666666666666667" />
<circle cx="657.08" cy="436.10" r="1.6666666666666667" />
<circle cx="657.08" cy="442.62" r="1.6666666666666667" />
<circle cx="657.08" cy="421.89" r="1.6666666666666667" />
<circle cx="657.08" cy="436.10" r="1.6666666666666667" />
<circle cx="657.08" cy="462.27" r="1.6666666666666667" />
<circle cx="657.09" cy="471.17" r="1.6666666666666667" />
<circle cx="657.09" cy="474.76" r="1.6666666666666667" />
<circle cx="657.09" cy="474.76" r="1.6666666666666667" />
<circle cx="657.09" cy="490.25" r="1.6666666666666667" />
<circle cx="657.10" cy="499.44" r="1.6666666666666667" />
<circle cx="657.10" cy="499.14" r="1.6666666666666667" />
<circle cx="657.10" cy="496.98" r="1.6666666666666667" />
<circle cx="657.11" cy="491.82" r="1.6666666666666667" />
<circle cx="657.11" cy="493.03" r="1.6666666666666667" />
<circle cx="657.11" cy="499.54" r="1.6666666666666667" />
<circle cx="657.12" cy="504.75" r="1.6666666666666667" />
<circle cx="657.14" cy="507.68" r="1.6666666666666667" />
<circle cx="657.16" cy="507.00" r="1.6666666666666667" />
<circle cx="657.17" cy="505.91" r="1.6666666666666667" />
<circle cx="657.17" cy="501.88" r="1.6666666666666667" />
<circle cx="657.18" cy="502.73" r="1.6666666666666667" />
<circle cx="657.19" cy="503.86" r="1.6666666666666667" />
<circle cx="657.19" cy="502.54" r="1.6666666666666667" />
<circle cx="657.20" cy="505.43" r="1.6666666666666667" />
<circle cx="657.21" cy="505.06" r="1.6666666666666667" />
<circle cx="657.22" cy="506.58" r="1.6666666666666667" />
<circle cx="657.24" cy="507.35" r="1.6666666666666667" />
<circle cx="657.26" cy="506.84" r="1.6666666666666667" />
<circle cx="657.27" cy="506.67" r="1.6666666666666667" />
<circle cx="657.29" cy="508.18" r="1.6666666666666667" />
<circle cx="657.31" cy="505.84" r="1.6666666666666667" />
<circle cx="657.33" cy="507.79" r="1.6666666666666667" />
<circle cx="657.51" cy="509.75" r="1.6666666666666667" />
<circle cx="658.73" cy="509.96" r="1.6666666666666667" />
<circle cx="658.73" cy="451.26" r="1.6666666666666667" />
<circle cx="658.73" cy="410.40" r="1.6666666666666667" />
<circle cx="658.73" cy="414.55" r="1.6666666666666667" />
<circle cx="658.73" cy="389.43" r="1.6666666666666667" />
<circle cx="658.73" cy="414.55" r="1.6666666666666667" />
<circle cx="658.73" cy="400.91" r="1.6666666666666667" />
<circle cx="658.73" cy="410.40" r="1.6666666666666667" />
<circle cx="658.73" cy="382.73" r="1.6666666666666667" />
<circle cx="658.73" cy="452.73" r="1.6666666666666667" />
<circle cx="658.73" cy="389.43" r="1.6666666666666667" />
<circle cx="658.73" cy="431.00" r="1.6666666666666667" />
<circle cx="658.73" cy="382.73" r="1.6666666666666667" />
<circle cx="658.73" cy="319.09" r="1.6666666666666667" />
<circle cx="658.73" cy="301.74" r="1.6666666666666667" />
<circle cx="658.73" cy="319.09" r="1.6666666666666667" />
<circle cx="658.73" cy="280.91" r="1.6666666666666667" />
<circle cx="658.73" cy="301.74" r="1.6666666666666667" />
<circle cx="658.73" cy="223.64" r="1.6666666666666667" />
<circle cx="658.73" cy="319.09" r="1.6666666666666667" />
<circle cx="658.73" cy="280.91" r="1.6666666666666667" />
<circle cx="658.73" cy="280.91" r="1.6666666666666667" />
<circle cx="658.73" cy="280.91" r="1.6666666666666667" />
<circle cx="658.73" cy="223.64" r="1.6666666666666667" />
<circle cx="658.73" cy="223.64" r="1.6666666666666667" />
<circle cx="658.73" cy="255.45" r="1.6666666666666667" />
<circle cx="658.73" cy="223.64" r="1.6666666666666667" />
<circle cx="658.73" cy="280.91" r="1.6666666666666667" />
<circle cx="658.73" cy="255.45" r="1.6666666666666667" />
<circle cx="658.73" cy="280.91" r="1.6666666666666667" />
<circle cx="658.73" cy="255.45" r="1.6666666666666667" />
<circle cx="658.73" cy="280.91" r="1.6666666666666667" />
<circle cx="658.74" cy="255.45" r="1.6666666666666667" />
<circle cx="658.74" cy="182.73" r="1.6666666666666667" />
<circle cx="658.74" cy="255.45" r="1.6666666666666667" />
<circle cx="658.74" cy="255.45" r="1.6666666666666667" />
<circle cx="658.74" cy="255.45" r="1.6666666666666667" />
<circle cx="658.74" cy="223.64" r="1.6666666666666667" />
<circle cx="658.74" cy="255.45" r="1.6666666666666667" />
<circle cx="658.74" cy="301.74" r="1.6666666666666667" />
<circle cx="658.74" cy="301.74" r="1.6666666666666667" />
<circle cx="658.74" cy="357.27" r="1.6666666666666667" />
<circle cx="658.74" cy="301.74" r="1.6666666666666667" />
<circle cx="658.74" cy="357.27" r="1.6666666666666667" />
<circle cx="658.74" cy="319.09" r="1.6666666666666667" />
<circle cx="658.74" cy="382.73" r="1.6666666666666667" />
<circle cx="658.74" cy="382.73" r="1.6666666666666667" />
<circle cx="658.74" cy="400.91" r="1.6666666666666667" />
<circle cx="658.74" cy="410.40" r="1.6666666666666667" />
<circle cx="658.74" cy="389.43" r="1.6666666666666667" />
<circle cx="658.74" cy="301.74" r="1.6666666666666667" />
<circle cx="658.74" cy="301.74" r="1.6666666666666667" />
<circle cx="658.74" cy="333.78" r="1.6666666666666667" />
<circle cx="658.74" cy="319.09" r="1.6666666666666667" />
<circle cx="658.74" cy="280.91" r="1.6666666666666667" />
<circle cx="658.74" cy="301.74" r="1.6666666666666667" />
<circle cx="658.74" cy="333.78" r="1.6666666666666667" />
<circle cx="658.74" cy="280.91" r="1.6666666666666667" />
<circle cx="658.74" cy="301.74" r="1.6666666666666667" />
<circle cx="658.74" cy="333.78" r="1.6666666666666667" />
<circle cx="658.74" cy="255.45" r="1.6666666666666667" />
<circle cx="658.74" cy="280.91" r="1.6666666666666667" />
<circle cx="658.74" cy="280.91" r="1.6666666666666667" />
<circle cx="658.74" cy="333.78" r="1.6666666666666667" />
<circle cx="658.74" cy="346.36" r="1.6666666666666667" />
<circle cx="658.74" cy="346.36" r="1.6666666666666667" />
<circle cx="658.74" cy="382.73" r="1.6666666666666667" />
<circle cx="658.74" cy="366.82" r="1.6666666666666667" />
<circle cx="658.74" cy="357.27" r="1.6666666666666667" />
<circle cx="658.74" cy="375.24" r="1.6666666666666667" />
<circle cx="658.74" cy="410.40" r="1.6666666666666667" />
<circle cx="658.75" cy="395.45" r="1.6666666666666667" />
<circle cx="658.75" cy="389.43" r="1.6666666666666667" />
<circle cx="658.75" cy="346.36" r="1.6666666666666667" />
<circle cx="658.75" cy="301.74" r="1.6666666666666667" />
<circle cx="658.75" cy="366.82" r="1.6666666666666667" />
<circle cx="658.75" cy="280.91" r="1.6666666666666667" />
<circle cx="658.75" cy="366.82" r="1.6666666666666667" />
<circle cx="658.75" cy="357.27" r="1.6666666666666667" />
<circle cx="658.75" cy="346.36" r="1.6666666666666667" />
<circle cx="658.75" cy="375.24" r="1.6666666666666667" />
<circle cx="658.75" cy="375.24" r="1.6666666666666667" />
<circle cx="658.75" cy="395.45" r="1.6666666666666667" />
<circle cx="658.75" cy="395.45" r="1.6666666666666667" />
<circle cx="658.75" cy="389.43" r="1.6666666666666667" />
<circle cx="658.75" cy="382.73" r="1.6666666666666667" />
<circle cx="658.75" cy="382.73" r="1.6666666666666667" />
<circle cx="658.75" cy="414.55" r="1.6666666666666667" />
<circle cx="658.75" cy="410.40" r="1.6666666666666667" />
<circle cx="658.75" cy="405.87" r="1.6666666666666667" />
<circle cx="658.75" cy="400.91" r="1.6666666666666667" />
<circle cx="658.75" cy="410.40" r="1.6666666666666667" />
<circle cx="658.75" cy="400.91" r="1.6666666666666667" />
<circle cx="658.75" cy="414.55" r="1.6666666666666667" />
<circle cx="658.75" cy="400.91" r="1.6666666666666667" />
<circle cx="658.75" cy="400.91" r="1.6666666666666667" />
<circle cx="658.75" cy="410.40" r="1.6666666666666667" />
<circle cx="658.76" cy="428.18" r="1.6666666666666667" />
<circle cx="658.76" cy="442.62" r="1.6666666666666667" />
<circle cx="658.76" cy="436.10" r="1.6666666666666667" />
<circle cx="658.76" cy="444.55" r="1.6666666666666667" />
<circle cx="658.76" cy="440.58" r="1.6666666666666667" />
<circle cx="658.76" cy="454.12" r="1.6666666666666667" />
<circle cx="658.76" cy="455.45" r="1.6666666666666667" />
<circle cx="658.76" cy="418.36" r="1.6666666666666667" />
<circle cx="658.76" cy="433.64" r="1.6666666666666667" />
<circle cx="658.76" cy="440.58" r="1.6666666666666667" />
<circle cx="658.76" cy="451.26" r="1.6666666666666667" />
<circle cx="658.76" cy="436.10" r="1.6666666666666667" />
<circle cx="658.76" cy="418.36" r="1.6666666666666667" />
<circle cx="658.76" cy="440.58" r="1.6666666666666667" />
<circle cx="658.76" cy="436.10" r="1.6666666666666667" />
<circle cx="658.77" cy="473.64" r="1.6666666666666667" />
<circle cx="658.77" cy="493.52" r="1.6666666666666667" />
<circle cx="658.82" cy="509.18" r="1.6666666666666667" />
</g>
<g stroke="black">
<line x1="813.75" x2="813.75" y1="510.00" y2="520.00" />
<line x1="760.60" x2="760.60" y1="510.00" y2="520.00" />
<line x1="707.45" x2="707.45" y1="510.00" y2="520.00" />
<line x1="656.01" x2="656.01" y1="510.00" y2="520.00" />
<line x1="602.86" x2="602.86" y1="510.00" y2="520.00" />
<line x1="551.42" x2="551.42" y1="510.00" y2="520.00" />
<line x1="498.27" x2="498.27" y1="510.00" y2="520.00" />
<line x1="445.11" x2="445.11" y1="510.00" y2="520.00" />
<line x1="393.68" x2="393.68" y1="510.00" y2="520.00" />
<line x1="340.52" x2="340.52" y1="510.00" y2="520.00" />
<line x1="289.09" x2="289.09" y1="510.00" y2="520.00" />
<line x1="235.93" x2="235.93" y1="510.00" y2="520.00" />
<line x1="187.92" x2="187.92" y1="510.00" y2="520.00" />
<g fill="black" font-family="Arial, sans-serif" font-size="18.0" stroke="none" text-anchor="start" transform="translate(9.0 0.0)">
<text x="813.75" y="530.57">Feb</text>
<text x="760.60" y="530.57">Jan</text>
<text x="707.45" y="530.57">Dec</text>
<text x="656.01" y="530.57">Nov</text>
<text x="602.86" y="530.57">Oct</text>
<text x="551.42" y="530.57">Sep</text>
<text x="498.27" y="530.57">Aug</text>
<text x="445.11" y="530.57">Jul</text>
<text x="393.68" y="530.57">Jun</text>
<text x="340.52" y="530.57">May</text>
<text x="289.09" y="530.57">Apr</text>
<text x="235.93" y="530.57">Mar</text>
<text x="187.92" y="530.57">Feb</text>
</g>
<line x1="150.00" x2="850.00" y1="510.00" y2="510.00" />
</g>
<g stroke="black">
<line x1="150.00" x2="140.00" y1="510.00" y2="510.00" />
<line x1="150.00" x2="140.00" y1="244.85" y2="244.85" />
<g fill="black" font-family="Arial, sans-serif" font-size="18.0" stroke="none" text-anchor="end">
<text x="141.00" y="501.00">0</text>
<text x="141.00" y="235.85">10000</text>
</g>
<line x1="150.00" x2="150.00" y1="510.00" y2="90.00" />
</g>
</g>
</svg>