<?xml version="1.0"?>
<svg version="1.1" viewBox="0 0 1000 600" xmlns:xlink="http://www.w3.org/1999/xlink" xmlns="http://www.w3.org/2000/svg">
<g>
<g stroke-dasharray="3.6 7.2" stroke-width="0.72" stroke="#caa">
<line x1="813.75" x2="813.75" y1="510.00" y2="90.00" />
<line x1="760.60" x2="760.60" y1="510.00" y2="90.00" />
<line x1="707.45" x2="707.45" y1="510.00" y2="90.00" />
<line x1="656.01" x2="656.01" y1="510.00" y2="90.00" />
<line x1="602.86" x2="602.86" y1="510.00" y2="90.00" />
<line x1="551.42" x2="551.42" y1="510.00" y2="90.00" />
<line x1="498.27" x2="498.27" y1="510.00" y2="90.00" />
<line x1="445.11" x2="445.11" y1="510.00" y2="90.00" />
<line x1="393.68" x2="393.68" y1="510.00" y2="90.00" />
<line x1="340.52" x2="340.52" y1="510.00" y2="90.00" />
<line x1="289.09" x2="289.09" y1="510.00" y2="90.00" />
<line x1="235.93" x2="235.93" y1="510.00" y2="90.00" />
<line x1="187.92" x2="187.92" y1="510.00" y2="90.00" />
<line x1="150.00" x2="850.00" y1="510.00" y2="510.00" />
<line x1="150.00" x2="850.00" y1="216.29" y2="216.29" />
</g>
<g>
<text dominant-baseline="hanging" dx="-36.0" dy="18.0" fill="#0004" font-family="Arial, sans-serif" font-size="36" stroke="none" text-anchor="end" x="850.00" y="128.18">R19</text>
</g>
<g>
<text dominant-baseline="text-bottom" dy="-12.0" fill="black" font-family="Arial, sans-serif" font-size="18.0" font-style="italic" stroke="none" text-anchor="middle" x="500.00" y="90.00">Years 2023 to 2024</text>
</g>
<g>
<text dominant-baseline="central" dx="12.0" dy="12.0" fill="black" font-family="Arial, sans-serif" font-size="18.0" font-style="italic" stroke="none" text-anchor="middle" text-orientation="sideways" writing-mode="vertical-lr" x="850.00" y="300.00">log(Drips per day)</text>
</g>
<polyline fill="none" points="638.21,322.12 638.22,330.41 638.22,344.64 638.23,304.11 638.23,302.96 638.23,300.08 638.23,310.81 638.23,323.71 638.24,314.47 638.24,308.64 638.24,325.21 638.73,473.47 639.85,497.26 639.85,304.11 639.85,298.30 639.85,249.13 639.85,243.78 639.85,243.78 639.85,243.78 639.85,251.49 639.85,259.36 639.85,253.66 639.85,257.58 639.85,262.63 639.85,272.95 639.85,300.51 640.15,458.90 640.15,274.02 640.15,259.36 640.15,246.58 640.16,253.66 640.16,261.04 640.16,261.04 640.16,274.02 640.16,290.46 640.16,305.22 640.16,309.59 640.17,349.91 640.18,348.70 640.18,330.11 640.18,325.94 640.19,328.34 640.19,324.66 640.19,320.00 640.19,314.74 640.20,313.94 640.20,314.74 640.20,320.00 640.20,322.12 640.21,316.02 640.21,318.89 640.21,316.02 640.21,324.09 640.22,321.91 640.22,313.94 640.22,313.12 640.22,307.65 640.23,319.34 640.23,321.71 640.23,328.51 640.24,341.23 640.50,455.24 645.66,338.79 645.66,327.17 645.67,324.66 645.67,341.01 645.72,403.08 645.74,387.54 645.75,343.08 645.81,409.81 645.81,343.48 645.83,364.47 645.83,311.99 645.83,306.29 645.83,310.81 645.83,308.31 645.83,311.99 645.84,312.56 645.84,347.09 645.95,428.60 648.44,337.24 648.45,328.67 648.54,423.99 648.56,382.42 650.54,283.75 650.54,280.57 650.54,282.99 650.54,285.93 650.54,287.30 650.54,293.31 650.54,292.20 650.54,293.31 650.54,297.37 650.55,301.76 650.55,291.63 650.55,291.05 650.55,305.58 650.55,306.29 650.55,292.20 650.55,277.94 650.55,276.05 650.55,279.72 650.56,282.21 650.56,285.22 650.56,289.85 650.56,286.62 650.56,286.62 650.56,294.90 650.56,306.98 650.56,302.17 650.56,294.90 650.57,291.63 650.57,295.41 650.57,320.22 650.58,351.76 650.58,319.56 650.61,388.02 650.61,343.87 650.62,328.67 650.62,332.35 650.63,350.15 650.64,362.53 651.23,478.90 652.16,491.93 652.16,281.40 652.16,299.65 653.62,505.30 653.63,301.35 653.63,311.70 653.63,298.30 653.63,307.65 653.63,311.41 653.64,338.08 653.64,309.28 653.64,285.93 653.64,282.99 653.64,286.62 653.64,292.76 653.64,266.94 653.64,266.94 653.64,268.24 653.64,265.57 653.64,262.63 653.64,264.14 653.65,275.05 653.65,279.72 653.65,269.49 653.65,268.24 653.65,271.84 653.65,265.57 653.65,261.04 653.65,262.63 653.65,253.66 653.65,249.13 653.65,246.58 653.65,255.69 653.65,251.49 653.65,274.02 653.65,264.14 653.65,251.49 653.65,249.13 653.65,246.58 653.65,249.13 653.65,246.58 653.65,249.13 653.65,253.66 653.65,251.49 653.65,251.49 653.65,249.13 653.65,253.66 653.65,249.13 653.65,251.49 653.65,255.69 653.65,249.13 653.65,249.13 653.66,240.69 653.66,237.23 653.66,246.58 653.66,249.13 653.66,251.49 653.66,249.13 653.66,251.49 653.66,246.58 653.66,251.49 653.66,253.66 653.66,253.66 653.66,246.58 653.66,246.58 653.66,243.78 653.66,233.30 653.66,240.69 653.66,237.23 653.66,237.23 653.66,233.30 653.66,228.78 653.66,233.30 653.66,237.23 653.66,228.78 653.66,240.69 653.66,237.23 653.66,237.23 653.66,240.69 653.66,243.78 653.66,246.58 653.66,246.58 653.66,249.13 653.66,253.66 653.66,255.69 653.66,264.14 653.66,271.84 653.66,285.93 653.66,296.41 653.67,316.27 653.67,296.41 653.67,325.58 653.69,371.25 653.79,427.81 653.91,431.12 655.30,503.82 655.30,304.49 655.30,276.05 655.30,277.01 655.30,279.72 655.30,253.66 655.30,269.49 655.30,268.24 655.30,274.02 655.30,270.69 655.30,276.05 655.30,249.13 655.30,251.49 655.30,249.13 655.30,249.13 655.30,255.69 655.31,271.84 655.31,264.14 655.31,262.63 655.31,269.49 655.31,264.14 655.31,264.14 655.31,270.69 655.31,271.84 655.31,272.95 655.31,282.21 655.31,285.22 655.31,289.85 655.31,287.30 655.31,286.62 655.31,294.38 655.32,304.85 655.32,295.91 655.32,290.46 655.32,285.22 655.32,282.99 655.32,279.72 655.32,278.85 655.32,282.99 655.32,293.85 655.32,289.85 655.32,298.76 655.33,313.40 655.33,348.62 655.40,412.46 657.05,509.02 657.06,292.20 657.06,290.46 657.06,276.05 657.06,286.62 657.06,279.72 657.06,282.21 657.06,305.58 657.06,302.17 657.06,319.11 657.07,329.48 657.07,342.68 657.08,296.41 657.08,259.36 657.08,253.66 657.08,253.66 657.08,255.69 657.08,253.66 657.08,249.13 657.08,253.66 657.08,251.49 657.08,243.78 657.08,249.13 657.08,257.58 657.08,255.69 657.08,257.58 657.08,259.36 657.08,251.49 657.08,259.36 657.08,262.63 657.08,266.94 657.08,268.24 657.08,277.01 657.08,279.72 657.08,271.84 657.08,277.01 657.08,289.85 657.09,295.91 657.09,298.76 657.09,298.76 657.09,315.77 657.10,334.16 657.10,333.34 657.10,328.01 657.11,318.20 657.11,320.22 657.11,334.43 657.12,354.66 657.14,378.62 657.16,371.09 657.17,362.01 657.17,341.86 657.18,345.11 657.19,350.07 657.19,344.35 657.20,358.74 657.21,356.48 657.22,367.23 657.24,374.74 657.26,369.59 657.27,368.01 657.29,385.85 657.31,361.53 657.33,380.10 657.51,444.27 658.73,499.91 658.73,283.75 658.73,268.24 658.73,269.49 658.73,262.63 658.73,269.49 658.73,265.57 658.73,268.24 658.73,261.04 658.73,284.50 658.73,262.63 658.73,275.05 658.73,261.04 658.73,249.13 658.73,246.58 658.73,249.13 658.73,243.78 658.73,246.58 658.73,237.23 658.73,249.13 658.73,243.78 658.73,243.78 658.73,243.78 658.73,237.23 658.73,237.23 658.73,240.69 658.73,237.23 658.73,243.78 658.73,240.69 658.73,243.78 658.73,240.69 658.73,243.78 658.74,240.69 658.74,233.30 658.74,240.69 658.74,240.69 658.74,240.69 658.74,237.23 658.74,240.69 658.74,246.58 658.74,246.58 658.74,255.69 658.74,246.58 658.74,255.69 658.74,249.13 658.74,261.04 658.74,261.04 658.74,265.57 658.74,268.24 658.74,262.63 658.74,246.58 658.74,246.58 658.74,251.49 658.74,249.13 658.74,243.78 658.74,246.58 658.74,251.49 658.74,243.78 658.74,246.58 658.74,251.49 658.74,240.69 658.74,243.78 658.74,243.78 658.74,251.49 658.74,253.66 658.74,253.66 658.74,261.04 658.74,257.58 658.74,255.69 658.74,259.36 658.74,268.24 658.75,264.14 658.75,262.63 658.75,253.66 658.75,246.58 658.75,257.58 658.75,243.78 658.75,257.58 658.75,255.69 658.75,253.66 658.75,259.36 658.75,259.36 658.75,264.14 658.75,264.14 658.75,262.63 658.75,261.04 658.75,261.04 658.75,269.49 658.75,268.24 658.75,266.94 658.75,265.57 658.75,268.24 658.75,265.57 658.75,269.49 658.75,265.57 658.75,265.57 658.75,268.24 658.76,274.02 658.76,279.72 658.76,277.01 658.76,280.57 658.76,278.85 658.76,285.22 658.76,285.93 658.76,270.69 658.76,276.05 658.76,278.85 658.76,283.75 658.76,277.01 658.76,270.69 658.76,278.85 658.76,277.01 658.77,297.84 658.77,321.08 658.82,409.11" stroke-dasharray="3.6 3.6" stroke-width="3.6" stroke="#aaa" />
<g>
<circle cx="638.21" cy="322.12" r="1.6666666666666667" />
<circle cx="638.22" cy="330.41" r="1.6666666666666667" />
<circle cx="638.22" cy="344.64" r="1.6666666666666667" />
<circle cx="638.23" cy="304.11" r="1.6666666666666667" />
<circle cx="638.23" cy="302.96" r="1.6666666666666667" />
<circle cx="638.23" cy="300.08" r="1.6666666666666667" />
<circle cx="638.23" cy="310.81" r="1.6666666666666667" />
<circle cx="638.23" cy="323.71" r="1.6666666666666667" />
<circle cx="638.24" cy="314.47" r="1.6666666666666667" />
<circle cx="638.24" cy="308.64" r="1.6666666666666667" />
<circle cx="638.24" cy="325.21" r="1.6666666666666667" />
<circle cx="638.73" cy="473.47" r="1.6666666666666667" />
<circle cx="639.85" cy="497.26" r="1.6666666666666667" />
<circle cx="639.85" cy="304.11" r="1.6666666666666667" />
<circle cx="639.85" cy="298.30" r="1.6666666666666667" />
<circle cx="639.85" cy="249.13" r="1.6666666666666667" />
<circle cx="639.85" cy="243.78" r="1.6666666666666667" />
<circle cx="639.85" cy="243.78" r="1.6666666666666667" />
<circle cx="639.85" cy="243.78" r="1.6666666666666667" />
<circle cx="639.85" cy="251.49" r="1.6666666666666667" />
<circle cx="639.85" cy="259.36" r="1.6666666666666667" />
<circle cx="639.85" cy="253.66" r="1.6666666666666667" />
<circle cx="639.85" cy="257.58" r="1.6666666666666667" />
<circle cx="639.85" cy="262.63" r="1.6666666666666667" />
<circle cx="639.85" cy="272.95" r="1.6666666666666667" />
<circle cx="639.85" cy="300.51" r="1.6666666666666667" />
<circle cx="640.15" cy="458.90" r="1.6666666666666667" />
<circle cx="640.15" cy="274.02" r="1.6666666666666667" />
<circle cx="640.15" cy="259.36" r="1.6666666666666667" />
<circle cx="640.15" cy="246.58" r="1.6666666666666667" />
<circle cx="640.16" cy="253.66" r="1.6666666666666667" />
<circle cx="640.16" cy="261.04" r="1.6666666666666667" />
<circle cx="640.16" cy="261.04" r="1.6666666666666667" />
<circle cx="640.16" cy="274.02" r="1.6666666666666667" />
<circle cx="640.16" cy="290.46" r="1.6666666666666667" />
<circle cx="640.16" cy="305.22" r="1.6666666666666667" />
<circle cx="640.16" cy="309.59" r="1.6666666666666667" />
<circle cx="640.17" cy="349.91" r="1.6666666666666667" />
<circle cx="640.18" cy="348.70" r="1.6666666666666667" />
<circle cx="640.18" cy="330.11" r="1.6666666666666667" />
<circle cx="640.18" cy="325.94" r="1.6666666666666667" />
<circle cx="640.19" cy="328.34" r="1.6666666666666667" />
<circle cx="640.19" cy="324.66" r="1.6666666666666667" />
<circle cx="640.19" cy="320.00" r="1.6666666666666667" />
<circle cx="640.19" cy="314.74" r="1.6666666666666667" />
<circle cx="640.20" cy="313.94" r="1.6666666666666667" />
<circle cx="640.20" cy="314.74" r="1.6666666666666667" />
<circle cx="640.20" cy="320.00" r="1.6666666666666667" />
<circle cx="640.20" cy="322.12" r="1.6666666666666667" />
<circle cx="640.21" cy="316.02" r="1.6666666666666667" />
<circle cx="640.21" cy="318.89" r="1.6666666666666667" />
<circle cx="640.21" cy="316.02" r="1.6666666666666667" />
<circle cx="640.21" cy="324.09" r="1.6666666666666667" />
<circle cx="640.22" cy="321.91" r="1.6666666666666667" />
<circle cx="640.22" cy="313.94" r="1.6666666666666667" />
<circle cx="640.22" cy="313.12" r="1.6666666666666667" />
<circle cx="640.22" cy="307.65" r="1.6666666666666667" />
<circle cx="640.23" cy="319.34" r="1.6666666666666667" />
<circle cx="640.23" cy="321.71" r="1.6666666666666667" />
<circle cx="640.23" cy="328.51" r="1.6666666666666667" />
<circle cx="640.24" cy="341.23" r="1.6666666666666667" />
<circle cx="640.50" cy="455.24" r="1.6666666666666667" />
<circle cx="645.66" cy="338.79" r="1.6666666666666667" />
<circle cx="645.66" cy="327.17" r="1.6666666666666667" />
<circle cx="645.67" cy="324.66" r="1.6666666666666667" />
<circle cx="645.67" cy="341.01" r="1.6666666666666667" />
<circle cx="645.72" cy="403.08" r="1.6666666666666667" />
<circle cx="645.74" cy="387.54" r="1.6666666666666667" />
<circle cx="645.75" cy="343.08" r="1.6666666666666667" />
<circle cx="645.81" cy="409.81" r="1.6666666666666667" />
<circle cx="645.81" cy="343.48" r="1.6666666666666667" />
<circle cx="645.83" cy="364.47" r="1.6666666666666667" />
<circle cx="645.83" cy="311.99" r="1.6666666666666667" />
<circle cx="645.83" cy="306.29" r="1.6666666666666667" />
<circle cx="645.83" cy="310.81" r="1.6666666666666667" />
<circle cx="645.83" cy="308.31" r="1.6666666666666667" />
<circle cx="645.83" cy="311.99" r="1.6666666666666667" />
<circle cx="645.84" cy="312.56" r="1.6666666666666667" />
<circle cx="645.84" cy="347.09" r="1.6666666666666667" />
<circle cx="645.95" cy="428.60" r="1.6666666666666667" />
<circle cx="648.44" cy="337.24" r="1.6666666666666667" />
<circle cx="648.45" cy="328.67" r="1.6666666666666667" />
<circle cx="648.54" cy="423.99" r="1.6666666666666667" />
<circle cx="648.56" cy="382.42" r="1.6666666666666667" />
<circle cx="650.54" cy="283.75" r="1.6666666666666667" />
<circle cx="650.54" cy="280.57" r="1.6666666666666667" />
<circle cx="650.54" cy="282.99" r="1.6666666666666667" />
<circle cx="650.54" cy="285.93" r="1.6666666666666667" />
<circle cx="650.54" cy="287.30" r="1.6666666666666667" />
<circle cx="650.54" cy="293.31" r="1.6666666666666667" />
<circle cx="650.54" cy="292.20" r="1.6666666666666667" />
<circle cx="650.54" cy="293.31" r="1.6666666666666667" />
<circle cx="650.54" cy="297.37" r="1.6666666666666667" />
<circle cx="650.55" cy="301.76" r="1.6666666666666667" />
<circle cx="650.55" cy="291.63" r="1.6666666666666667" />
<circle cx="650.55" cy="291.05" r="1.6666666666666667" />
<circle cx="650.55" cy="305.58" r="1.6666666666666667" />
<circle cx="650.55" cy="306.29" r="1.6666666666666667" />
<circle cx="650.55" cy="292.20" r="1.6666666666666667" />
<circle cx="650.55" cy="277.94" r="1.6666666666666667" />
<circle cx="650.55" cy="276.05" r="1.6666666666666667" />
<circle cx="650.55" cy="279.72" r="1.6666666666666667" />
<circle cx="650.56" cy="282.21" r="1.6666666666666667" />
<circle cx="650.56" cy="285.22" r="1.6666666666666667" />
<circle cx="650.56" cy="289.85" r="1.6666666666666667" />
<circle cx="650.56" cy="286.62" r="1.6666666666666667" />
<circle cx="650.56" cy="286.62" r="1.6666666666666667" />
<circle cx="650.56" cy="294.90" r="1.6666666666666667" />
<circle cx="650.56" cy="306.98" r="1.6666666666666667" />
<circle cx="650.56" cy="302.17" r="1.6666666666666667" />
<circle cx="650.56" cy="294.90" r="1.6666666666666667" />
<circle cx="650.57" cy="291.63" r="1.6666666666666667" />
<circle cx="650.57" cy="295.41" r="1.6666666666666667" />
<circle cx="650.57" cy="320.22" r="1.6666666666666667" />
<circle cx="650.58" cy="351.76" r="1.6666666666666667" />
<circle cx="650.58" cy="319.56" r="1.6666666666666667" />
<circle cx="650.61" cy="388.02" r="1.6666666666666667" />
<circle cx="650.61" cy="343.87" r="1.6666666666666667" />
<circle cx="650.62" cy="328.67" r="1.6666666666666667" />
<circle cx="650.62" cy="332.35" r="1.6666666666666667" />
<circle cx="650.63" cy="350.15" r="1.6666666666666667" />
<circle cx="650.64" cy="362.53" r="1.6666666666666667" />
<circle cx="651.23" cy="478.90" r="1.6666666666666667" />
<circle cx="652.16" cy="491.93" r="1.6666666666666667" />
<circle cx="652.16" cy="281.40" r="1.6666666666666667" />
<circle cx="652.16" cy="299.65" r="1.6666666666666667" />
<circle cx="653.62" cy="505.30" r="1.6666666666666667" />
<circle cx="653.63" cy="301.35" r="1.6666666666666667" />
<circle cx="653.63" cy="311.70" r="1.6666666666666667" />
<circle cx="653.63" cy="298.30" r="1.6666666666666667" />
<circle cx="653.63" cy="307.65" r="1.6666666666666667" />
<circle cx="653.63" cy="311.41" r="1.6666666666666667" />
<circle cx="653.64" cy="338.08" r="1.6666666666666667" />
<circle cx="653.64" cy="309.28" r="1.6666666666666667" />
<circle cx="653.64" cy="285.93" r="1.6666666666666667" />
<circle cx="653.64" cy="282.99" r="1.6666666666666667" />
<circle cx="653.64" cy="286.62" r="1.6666666666666667" />
<circle cx="653.64" cy="292.76" r="1.6666666666666667" />
<circle cx="653.64" cy="266.94" r="1.6666666666666667" />
<circle cx="653.64" cy="266.94" r="1.6666666666666667" />
<circle cx="653.64" cy="268.24" r="1.6666666666666667" />
<circle cx="653.64" cy="265.57" r="1.6666666666666667" />
<circle cx="653.64" cy="262.63" r="1.6666666666666667" />
<circle cx="653.64" cy="264.14" r="1.6666666666666667" />
<circle cx="653.65" cy="275.05" r="1.6666666666666667" />
<circle cx="653.65" cy="279.72" r="1.6666666666666667" />
<circle cx="653.65" cy="269.49" r="1.6666666666666667" />
<circle cx="653.65" cy="268.24" r="1.6666666666666667" />
<circle cx="653.65" cy="271.84" r="1.6666666666666667" />
<circle cx="653.65" cy="265.57" r="1.6666666666666667" />
<circle cx="653.65" cy="261.04" r="1.6666666666666667" />
<circle cx="653.65" cy="262.63" r="1.6666666666666667" />
<circle cx="653.65" cy="253.66" r="1.6666666666666667" />
<circle cx="653.65" cy="249.13" r="1.6666666666666667" />
<circle cx="653.65" cy="246.58" r="1.6666666666666667" />
<circle cx="653.65" cy="255.69" r="1.6666666666666667" />
<circle cx="653.65" cy="251.49" r="1.6666666666666667" />
<circle cx="653.65" cy="274.02" r="1.6666666666666667" />
<circle cx="653.65" cy="264.14" r="1.6666666666666667" />
<circle cx="653.65" cy="251.49" r="1.6666666666666667" />
<circle cx="653.65" cy="249.13" r="1.6666666666666667" />
<circle cx="653.65" cy="246.58" r="1.6666666666666667" />
<circle cx="653.65" cy="249.13" r="1.6666666666666667" />
<circle cx="653.65" cy="246.58" r="1.6666666666666667" />
<circle cx="653.65" cy="249.13" r="1.6666666666666667" />
<circle cx="653.65" cy="253.66" r="1.6666666666666667" />
<circle cx="653.65" cy="251.49" r="1.6666666666666667" />
<circle cx="653.65" cy="251.49" r="1.6666666666666667" />
<circle cx="653.65" cy="249.13" r="1.6666666666666667" />
<circle cx="653.65" cy="253.66" r="1.6666666666666667" />
<circle cx="653.65" cy="249.13" r="1.6666666666666667" />
<circle cx="653.65" cy="251.49" r="1.6666666666666667" />
<circle cx="653.65" cy="255.69" r="1.6666666666666667" />
<circle cx="653.65" cy="249.13" r="1.6666666666666667" />
<circle cx="653.65" cy="249.13" r="1.6666666666666667" />
<circle cx="653.66" cy="240.69" r="1.6666666666666667" />
<circle cx="653.66" cy="237.23" r="1.6666666666666667" />
<circle cx="653.66" cy="246.58" r="1.6666666666666667" />
<circle cx="653.66" cy="249.13" r="1.6666666666666667" />
<circle cx="653.66" cy="251.49" r="1.6666666666666667" />
<circle cx="653.66" cy="249.13" r="1.6666666666666667" />
<circle cx="653.66" cy="251.49" r="1.6666666666666667" />
<circle cx="653.66" cy="246.58" r="1.6666666666666667" />
<circle cx="653.66" cy="251.49" r="1.6666666666666667" />
<circle cx="653.66" cy="253.66" r="1.6666666666666667" />
<circle cx="653.66" cy="253.66" r="1.6666666666666667" />
<circle cx="653.66" cy="246.58" r="1.6666666666666667" />
<circle cx="653.66" cy="246.58" r="1.6666666666666667" />
<circle cx="653.66" cy="243.78" r="1.6666666666666667" />
<circle cx="653.66" cy="233.30" r="1.6666666666666667" />
<circle cx="653.66" cy="240.69" r="1.6666666666666667" />
<circle cx="653.66" cy="237.23" r="1.6666666666666667" />
<circle cx="653.66" cy="237.23" r="1.6666666666666667" />
<circle cx="653.66" cy="233.30" r="1.6666666666666667" />
<circle cx="653.66" cy="228.78" r="1.6666666666666667" />
<circle cx="653.66" cy="233.30" r="1.6666666666666667" />
<circle cx="653.66" cy="237.23" r="1.6666666666666667" />
<circle cx="653.66" cy="228.78" r="1.6666666666666667" />
<circle cx="653.66" cy="240.69" r="1.6666666666666667" />
<circle cx="653.66" cy="237.23" r="1.6666666666666667" />
<circle cx="653.66" cy="237.23" r="1.6666666666666667" />
<circle cx="653.66" cy="240.69" r="1.6666666666666667" />
<circle cx="653.66" cy="243.78" r="1.6666666666666667" />
<circle cx="653.66" cy="246.58" r="1.6666666666666667" />
<circle cx="653.66" cy="246.58" r="1.6666666666666667" />
<circle cx="653.66" cy="249.13" r="1.6666666666666667" />
<circle cx="653.66" cy="253.66" r="1.6666666666666667" />
<circle cx="653.66" cy="255.69" r="1.6666666666666667" />
<circle cx="653.66" cy="264.14" r="1.6666666666666667" />
<circle cx="653.66" cy="271.84" r="1.6666666666666667" />
<circle cx="653.66" cy="285.93" r="1.6666666666666667" />
<circle cx="653.66" cy="296.41" r="1.6666666666666667" />
<circle cx="653.67" cy="316.27" r="1.6666666666666667" />
<circle cx="653.67" cy="296.41" r="1.6666666666666667" />
<circle cx="653.67" cy="325.58" r="1.6666666666666667" />
<circle cx="653.69" cy="371.25" r="1.6666666666666667" />
<circle cx="653.79" cy="427.81" r="1.6666666666666667" />
<circle cx="653.91" cy="431.12" r="1.6666666666666667" />
<circle cx="655.30" cy="503.82" r="1.6666666666666667" />
<circle cx="655.30" cy="304.49" r="1.6666666666666667" />
<circle cx="655.30" cy="276.05" r="1.6666666666666667" />
<circle cx="655.30" cy="277.01" r="1.6666666666666667" />
<circle cx="655.30" cy="279.72" r="1.6666666666666667" />
<circle cx="655.30" cy="253.66" r="1.6666666666666667" />
<circle cx="655.30" cy="269.49" r="1.6666666666666667" />
<circle cx="655.30" cy="268.24" r="1.6666666666666667" />
<circle cx="655.30" cy="274.02" r="1.6666666666666667" />
<circle cx="655.30" cy="270.69" r="1.6666666666666667" />
<circle cx="655.30" cy="276.05" r="1.6666666666666667" />
<circle cx="655.30" cy="249.13" r="1.6666666666666667" />
<circle cx="655.30" cy="251.49" r="1.6666666666666667" />
<circle cx="655.30" cy="249.13" r="1.6666666666666667" />
<circle cx="655.30" cy="249.13" r="1.6666666666666667" />
<circle cx="655.30" cy="255.69" r="1.6666666666666667" />
<circle cx="655.31" cy="271.84" r="1.6666666666666667" />
<circle cx="655.31" cy="264.14" r="1.6666666666666667" />
<circle cx="655.31" cy="262.63" r="1.6666666666666667" />
<circle cx="655.31" cy="269.49" r="1.6666666666666667" />
<circle cx="655.31" cy="264.14" r="1.6666666666666667" />
<circle cx="655.31" cy="264.14" r="1.6666666666666667" />
<circle cx="655.31" cy="270.69" r="1.6666666666666667" />
<circle cx="655.31" cy="271.84" r="1.6666666666666667" />
<circle cx="655.31" cy="272.95" r="1.6666666666666667" />
<circle cx="655.31" cy="282.21" r="1.6666666666666667" />
<circle cx="655.31" cy="285.22" r="1.6666666666666667" />
<circle cx="655.31" cy="289.85" r="1.6666666666666667" />
<circle cx="655.31" cy="287.30" r="1.6666666666666667" />
<circle cx="655.31" cy="286.62" r="1.6666666666666667" />
<circle cx="655.31" cy="294.38" r="1.6666666666666667" />
<circle cx="655.32" cy="304.85" r="1.6666666666666667" />
<circle cx="655.32" cy="295.91" r="1.6666666666666667" />
<circle cx="655.32" cy="290.46" r="1.6666666666666667" />
<circle cx="655.32" cy="285.22" r="1.6666666666666667" />
<circle cx="655.32" cy="282.99" r="1.6666666666666667" />
<circle cx="655.32" cy="279.72" r="1.6666666666666667" />
<circle cx="655.32" cy="278.85" r="1.6666666666666667" />
<circle cx="655.32" cy="282.99" r="1.6666666666666667" />
<circle cx="655.32" cy="293.85" r="1.6666666666666667" />
<circle cx="655.32" cy="289.85" r="1.6666666666666667" />
<circle cx="655.32" cy="298.76" r="1.6666666666666667" />
<circle cx="655.33" cy="313.40" r="1.6666666666666667" />
<circle cx="655.33" cy="348.62" r="1.6666666666666667" />
<circle cx="655.40" cy="412.46" r="1.6666666666666667" />
<circle cx="657.05" cy="509.02" r="1.6666666666666667" />
<circle cx="657.06" cy="292.20" r="1.6666666666666667" />
<circle cx="657.06" cy="290.46" r="1.6666666666666667" />
<circle cx="657.06" cy="276.05" r="1.6666666666666667" />
<circle cx="657.06" cy="286.62" r="1.6666666666666667" />
<circle cx="657.06" cy="279.72" r="1.6666666666666667" />
<circle cx="657.06" cy="282.21" r="1.6666666666666667" />
<circle cx="657.06" cy="305.58" r="1.6666666666666667" />
<circle cx="657.06" cy="302.17" r="1.6666666666666667" />
<circle cx="657.06" cy="319.11" r="1.6666666666666667" />
<circle cx="657.07" cy="329.48" r="1.6666666666666667" />
<circle cx="657.07" cy="342.68" r="1.6666666666666667" />
<circle cx="657.08" cy="296.41" r="1.6666666666666667" />
<circle cx="657.08" cy="259.36" r="1.6666666666666667" />
<circle cx="657.08" cy="253.66" r="1.6666666666666667" />
<circle cx="657.08" cy="253.66" r="1.6666666666666667" />
<circle cx="657.08" cy="255.69" r="1.6666666666666667" />
<circle cx="657.08" cy="253.66" r="1.6666666666666667" />
<circle cx="657.08" cy="249.13" r="1.6666666666666667" />
<circle cx="657.08" cy="253.66" r="1.6666666666666667" />
<circle cx="657.08" cy="251.49" r="1.6666666666666667" />
<circle cx="657.08" cy="243.78" r="1.6666666666666667" />
<circle cx="657.08" cy="249.13" r="1.6666666666666667" />
<circle cx="657.08" cy="257.58" r="1.6666666666666667" />
<circle cx="657.08" cy="255.69" r="1.6666666666666667" />
<circle cx="657.08" cy="257.58" r="1.6666666666666667" />
<circle cx="657.08" cy="259.36" r="1.6666666666666667" />
<circle cx="657.08" cy="251.49" r="1.6666666666666667" />
<circle cx="657.08" cy="259.36" r="1.6666666666666667" />
<circle cx="657.08" cy="262.63" r="1.6666666666666667" />
<circle cx="657.08" cy="266.94" r="1.6666666666666667" />
<circle cx="657.08" cy="268.24" r="1.6666666666666667" />
<circle cx="657.08" cy="277.01" r="1.6666666666666667" />
<circle cx="657.08" cy="279.72" r="1.6666666666666667" />
<circle cx="657.08" cy="271.84" r="1.6666666666666667" />
<circle cx="657.08" cy="277.01" r="1.6666666666666667" />
<circle cx="657.08" cy="289.85" r="1.6666666666666667" />
<circle cx="657.09" cy="295.91" r="1.6666666666666667" />
<circle cx="657.09" cy="298.76" r="1.6666666666666667" />
<circle cx="657.09" cy="298.76" r="1.6666666666666667" />
<circle cx="657.09" cy="315.77" r="1.6666666666666667" />
<circle cx="657.10" cy="334.16" r="1.6666666666666667" />
<circle cx="657.10" cy="333.34" r="1.6666666666666667" />
<circle cx="657.10" cy="328.01" r="1.6666666666666667" />
<circle cx="657.11" cy="318.20" r="1.6666666666666667" />
<circle cx="657.11" cy="320.22" r="1.6666666666666667" />
<circle cx="657.11" cy="334.43" r="1.6666666666666667" />
<circle cx="657.12" cy="354.66" r="1.6666666666666667" />
<circle cx="657.14" cy="378.62" r="1.6666666666666667" />
<circle cx="657.16" cy="371.09" r="1.6666666666666667" />
<circle cx="657.17" cy="362.01" r="1.6666666666666667" />
<circle cx="657.17" cy="341.86" r="1.6666666666666667" />
<circle cx="657.18" cy="345.11" r="1.6666666666666667" />
<circle cx="657.19" cy="350.07" r="1.6666666666666667" />
<circle cx="657.19" cy="344.35" r="1.6666666666666667" />
<circle cx="657.20" cy="358.74" r="1.6666666666666667" />
<circle cx="657.21" cy="356.48" r="1.6666666666666667" />
<circle cx="657.22" cy="367.23" r="1.6666666666666667" />
<circle cx="657.24" cy="374.74" r="1.6666666666666667" />
<circle cx="657.26" cy="369.59" r="1.6666666666666667" />
<circle cx="657.27" cy="368.01" r="1.6666666666666667" />
<circle cx="657.29" cy="385.85" r="1.6666666666666667" />
<circle cx="657.31" cy="361.53" r="1.6666666666666667" />
<circle cx="657.33" cy="380.10" r="1.6666666666666667" />
<circle cx="657.51" cy="444.27" r="1.6666666666666667" />
<circle cx="658.73" cy="499.91" r="1.6666666666666667" />
<circle cx="658.73" cy="283.75" r="1.6666666666666667" />
<circle cx="658.73" cy="268.24" r="1.6666666666666667" />
<circle cx="658.73" cy="269.49" r="1.6666666666666667" />
<circle cx="658.73" cy="262.63" r="1.6666666666666667" />
<circle cx="658.73" cy="269.49" r="1.6666666666666667" />
<circle cx="658.73" cy="265.57" r="1.6666666666666667" />
<circle cx="658.73" cy="268.24" r="1.6666666666666667" />
<circle cx="658.73" cy="261.04" r="1.6666666666666667" />
<circle cx="658.73" cy="284.50" r="1.6666666666666667" />
<circle cx="658.73" cy="262.63" r="1.6666666666666667" />
<circle cx="658.73" cy="275.05" r="1.6666666666666667" />
<circle cx="658.73" cy="261.04" r="1.6666666666666667" />
<circle cx="658.73" cy="249.13" r="1.6666666666666667" />
<circle cx="658.73" cy="246.58" r="1.6666666666666667" />
<circle cx="658.73" cy="249.13" r="1.6666666666666667" />
<circle cx="658.73" cy="243.78" r="1.6666666666666667" />
<circle cx="658.73" cy="246.58" r="1.6666666666666667" />
<circle cx="658.73" cy="237.23" r="1.6666666666666667" />
<circle cx="658.73" cy="249.13" r="1.6666666666666667" />
<circle cx="658.73" cy="243.78" r="1.6666666666666667" />
<circle cx="658.73" cy="243.78" r="1.6666666666666667" />
<circle cx="658.73" cy="243.78" r="1.6666666666666667" />
<circle cx="658.73" cy="237.23" r="1.6666666666666667" />
<circle cx="658.73" cy="237.23" r="1.6666666666666667" />
<circle cx="658.73" cy="240.69" r="1.6666666666666667" />
<circle cx="658.73" cy="237.23" r="1.6666666666666667" />
<circle cx="658.73" cy="243.78" r="1.6666666666666667" />
<circle cx="658.73" cy="240.69" r="1.6666666666666667" />
<circle cx="658.73" cy="243.78" r="1.6666666666666667" />
<circle cx="658.73" cy="240.69" r="1.6666666666666667" />
<circle cx="658.73" cy="243.78" r="1.6666666666666667" />
<circle cx="658.74" cy="240.69" r="1.6666666666666667" />
<circle cx="658.74" cy="233.30" r="1.6666666666666667" />
<circle cx="658.74" cy="240.69" r="1.6666666666666667" />
<circle cx="658.74" cy="240.69" r="1.6666666666666667" />
<circle cx="658.74" cy="240.69" r="1.6666666666666667" />
<circle cx="658.74" cy="237.23" r="1.6666666666666667" />
<circle cx="658.74" cy="240.69" r="1.6666666666666667" />
<circle cx="658.74" cy="246.58" r="1.6666666666666667" />
<circle cx="658.74" cy="246.58" r="1.6666666666666667" />
<circle cx="658.74" cy="255.69" r="1.6666666666666667" />
<circle cx="658.74" cy="246.58" r="1.6666666666666667" />
<circle cx="658.74" cy="255.69" r="1.6666666666666667" />
<circle cx="658.74" cy="249.13" r="1.6666666666666667" />
<circle cx="658.74" cy="261.04" r="1.6666666666666667" />
<circle cx="658.74" cy="261.04" r="1.6666666666666667" />
<circle cx="658.74" cy="265.57" r="1.6666666666666667" />
<circle cx="658.74" cy="268.24" r="1.6666666666666667" />
<circle cx="658.74" cy="262.63" r="1.6666666666666667" />
<circle cx="658.74" cy="246.58" r="1.6666666666666667" />
<circle cx="658.74" cy="246.58" r="1.6666666666666667" />
<circle cx="658.74" cy="251.49" r="1.6666666666666667" />
<circle cx="658.74" cy="249.13" r="1.6666666666666667" />
<circle cx="658.74" cy="243.78" r="1.6666666666666667" />
<circle cx="658.74" cy="246.58" r="1.6666666666666667" />
<circle cx="658.74" cy="251.49" r="1.6666666666666667" />
<circle cx="658.74" cy="243.78" r="1.6666666666666667" />
<circle cx="658.74" cy="246.58" r="1.6666666666666667" />
<circle cx="658.74" cy="251.49" r="1.6666666666666667" />
<circle cx="658.74" cy="240.69" r="1.6666666666666667" />
<circle cx="658.74" cy="243.78" r="1.6666666666666667" />
<circle cx="658.74" cy="243.78" r="1.6666666666666667" />
<circle cx="658.74" cy="251.49" r="1.6666666666666667" />
<circle cx="658.74" cy="253.66" r="1.6666666666666667" />
<circle cx="658.74" cy="253.66" r="1.6666666666666667" />
<circle cx="658.74" cy="261.04" r="1.6666666666666667" />
<circle cx="658.74" cy="257.58" r="1.6666666666666667" />
<circle cx="658.74" cy="255.69" r="1.6666666666666667" />
<circle cx="658.74" cy="259.36" r="1.6666666666666667" />
<circle cx="658.74" cy="268.24" r="1.6666666666666667" />
<circle cx="658.75" cy="264.14" r="1.6666666666666667" />
<circle cx="658.75" cy="262.63" r="1.6666666666666667" />
<circle cx="658.75" cy="253.66" r="1.6666666666666667" />
<circle cx="658.75" cy="246.58" r="1.6666666666666667" />
<circle cx="658.75" cy="257.58" r="1.6666666666666667" />
<circle cx="658.75" cy="243.78" r="1.6666666666666667" />
<circle cx="658.75" cy="257.58" r="1.6666666666666667" />
<circle cx="658.75" cy="255.69" r="1.6666666666666667" />
<circle cx="658.75" cy="253.66" r="1.6666666666666667" />
<circle cx="658.75" cy="259.36" r="1.6666666666666667" />
<circle cx="658.75" cy="259.36" r="1.6666666666666667" />
<circle cx="658.75" cy="264.14" r="1.6666666666666667" />
<circle cx="658.75" cy="264.14" r="1.6666666666666667" />
<circle cx="658.75" cy="262.63" r="1.6666666666666667" />
<circle cx="658.75" cy="261.04" r="1.6666666666666667" />
<circle cx="658.75" cy="261.04" r="1.6666666666666667" />
<circle cx="658.75" cy="269.49" r="1.6666666666666667" />
<circle cx="658.75" cy="268.24" r="1.6666666666666667" />
<circle cx="658.75" cy="266.94" r="1.6666666666666667" />
<circle cx="658.75" cy="265.57" r="1.6666666666666667" />
<circle cx="658.75" cy="268.24" r="1.6666666666666667" />
<circle cx="658.75" cy="265.57" r="1.6666666666666667" />
<circle cx="658.75" cy="269.49" r="1.6666666666666667" />
<circle cx="658.75" cy="265.57" r="1.6666666666666667" />
<circle cx="658.75" cy="265.57" r="1.6666666666666667" />
<circle cx="658.75" cy="268.24" r="1.6666666666666667" />
<circle cx="658.76" cy="274.02" r="1.6666666666666667" />
<circle cx="658.76" cy="279.72" r="1.6666666666666667" />
<circle cx="658.76" cy="277.01" r="1.6666666666666667" />
<circle cx="658.76" cy="280.57" r="1.6666666666666667" />
<circle cx="658.76" cy="278.85" r="1.6666666666666667" />
<circle cx="658.76" cy="285.22" r="1.6666666666666667" />
<circle cx="658.76" cy="285.93" r="1.6666666666666667" />
<circle cx="658.76" cy="270.69" r="1.6666666666666667" />
<circle cx="658.76" cy="276.05" r="1.6666666666666667" />
<circle cx="658.76" cy="278.85" r="1.6666666666666667" />
<circle cx="658.76" cy="283.75" r="1.6666666666666667" />
<circle cx="658.76" cy="277.01" r="1.6666666666666667" />
<circle cx="658.76" cy="270.69" r="1.6666666666666667" />
<circle cx="658.76" cy="278.85" r="1.6666666666666667" />
<circle cx="658.76" cy="277.01" r="1.6666666666666667" />
<circle cx="658.77" cy="297.84" r="1.6666666666666667" />
<circle cx="658.77" cy="321.08" r="1.6666666666666667" />
<circle cx="658.82" cy="409.11" r="1.6666666666666667" />
</g>
<g stroke="black">
<line x1="813.75" x2="813.75" y1="510.00" y2="520.00" />
<line x1="760.60" x2="760.60" y1="510.00" y2="520.00" />
<line x1="707.45" x2="707.45" y1="510.00" y2="520.00" />
<line x1="656.01" x2="656.01" y1="510.00" y2="520.00" />
<line x1="602.86" x2="602.86" y1="510.00" y2="520.00" />
<line x1="551.42" x2="551.42" y1="510.00" y2="520.00" />
<line x1="498.27" x2="498.27" y1="510.00" y2="520.00" />
<line x1="445.11" x2="445.11" y1="510.00" y2="520.00" />
<line x1="393.68" x2="393.68" y1="510.00" y2="520.00" />
<line x1="340.52" x2="340.52" y1="510.00" y2="520.00" />
<line x1="289.09" x2="289.09" y1="510.00" y2="520.00" />
<line x1="235.93" x2="235.93" y1="510.00" y2="520.00" />
<line x1="187.92" x2="187.92" y1="510.00" y2="520.00" />
<g fill="black" font-family="Arial, sans-serif" font-size="18.0" stroke="none" text-anchor="start" transform="translate(9.0 0.0)">
<text x="813.75" y="530.57">Feb</text>
<text x="760.60" y="530.57">Jan</text>
<text x="707.45" y="530.57">Dec</text>
<text x="656.01" y="530.57">Nov</text>
<text x="602.86" y="530.57">Oct</text>
<text x="551.42" y="530.57">Sep</text>
<text x="498.27" y="530.57">Aug</text>
<text x="445.11" y="530.57">Jul</text>
<text x="393.68" y="530.57">Jun</text>
<text x="340.52" y="530.57">May</text>
<text x="289.09" y="530.57">Apr</text>
<text x="235.93" y="530.57">Mar</text>
<text x="187.92" y="530.57">Feb</text>
</g>
<line x1="150.00" x2="850.00" y1="510.00" y2="510.00" />
</g>
<g stroke="black">
<line x1="150.00" x2="140.00" y1="510.00" y2="510.00" />
<line x1="150.00" x2="140.00" y1="216.29" y2="216.29" />
<g fill="black" font-family="Arial, sans-serif" font-size="18.0" stroke="none" text-anchor="end">
<text x="141.00" y="501.00">0</text>
<text x="141.00" y="207.29">10</text>
</g>
<line x1="150.00" x2="150.00" y1="510.00" y2="90.00" />
</g>
</g>
</svg>