<?xml version="1.0"?>
<svg version="1.1" viewBox="0 0 1000 600" xmlns:xlink="http://www.w3.org/1999/xlink" xmlns="http://www.w3.org/2000/svg">
<g>
<g stroke-dasharray="3.6 7.2" stroke-width="0.72" stroke="#caa">
<line x1="216.65" x2="216.65" y1="510.00" y2="90.00" />
<line x1="418.20" x2="418.20" y1="510.00" y2="90.00" />
<line x1="619.75" x2="619.75" y1="510.00" y2="90.00" />
<line x1="821.30" x2="821.30" y1="510.00" y2="90.00" />
<line x1="150.00" x2="850.00" y1="510.00" y2="510.00" />
<line x1="150.00" x2="850.00" y1="465.81" y2="465.81" />
<line x1="150.00" x2="850.00" y1="421.62" y2="421.62" />
<line x1="150.00" x2="850.00" y1="377.42" y2="377.42" />
<line x1="150.00" x2="850.00" y1="333.23" y2="333.23" />
<line x1="150.00" x2="850.00" y1="289.04" y2="289.04" />
<line x1="150.00" x2="850.00" y1="244.85" y2="244.85" />
<line x1="150.00" x2="850.00" y1="200.66" y2="200.66" />
<line x1="150.00" x2="850.00" y1="156.46" y2="156.46" />
<line x1="150.00" x2="850.00" y1="112.27" y2="112.27" />
</g>
<g>
<text dominant-baseline="hanging" dx="-36.0" dy="18.0" fill="#0004" font-family="Arial, sans-serif" font-size="36" stroke="none" text-anchor="end" x="850.00" y="128.18">ThMuCH2Sh02PairTall</text>
</g>
<g>
<text dominant-baseline="text-bottom" dy="-12.0" fill="black" font-family="Arial, sans-serif" font-size="18.0" font-style="italic" stroke="none" text-anchor="middle" x="500.00" y="90.00">Days since start</text>
</g>
<g>
<text dominant-baseline="central" dx="12.0" dy="12.0" fill="black" font-family="Arial, sans-serif" font-size="18.0" font-style="italic" stroke="none" text-anchor="middle" text-orientation="sideways" writing-mode="vertical-lr" x="850.00" y="300.00">Drips per day</text>
</g>
<polyline fill="none" points="150.00,509.98 150.40,509.98 150.79,509.98 151.19,509.98 151.60,509.98 151.99,509.98 152.38,509.98 152.75,509.98 153.15,509.98 153.54,509.98 153.94,509.98 154.33,509.98 154.74,509.98 155.13,509.98 155.53,509.98 155.93,509.98 156.32,509.98 156.73,509.98 157.12,509.98 157.52,509.98 157.91,509.98 158.32,509.98 158.72,509.98 159.11,509.98 159.53,509.98 159.94,509.98 160.33,509.98 160.75,509.98 161.15,509.98 161.55,509.98 161.95,509.98 162.33,509.98 162.72,509.98 163.11,509.98 163.54,509.98 163.95,509.98 164.35,509.98 164.77,509.98 165.17,509.98 165.59,509.98 165.99,509.98 166.37,509.98 166.76,509.98 167.17,509.98 167.57,509.98 167.96,509.98 168.36,509.98 168.77,509.98 169.16,509.98 169.56,509.98 169.96,509.98 170.36,509.98 170.77,509.98 171.18,509.98 171.59,509.98 172.00,509.98 172.42,509.98 172.85,509.98 173.26,509.98 173.67,509.98 174.10,509.98 174.51,509.98 174.93,509.98 175.33,509.98 175.75,509.98 176.17,509.98 176.57,509.98 176.99,509.98 182.86,509.98 183.28,509.98 183.71,509.98 184.13,509.98 184.55,509.98 184.99,509.98 185.41,509.98 185.86,509.98 186.31,509.98 186.74,509.98 187.17,509.98 187.62,509.98 188.08,509.98 188.51,509.98 188.93,509.98 189.36,509.98 189.78,509.98 190.21,509.98 190.66,509.98 191.08,509.98 191.52,509.98 191.96,509.98 192.39,509.98 192.84,509.98 193.28,509.98 193.72,509.98 194.17,509.98 194.60,509.98 195.05,509.98 850.00,433.64 850.00,414.55 850.00,128.18 850.00,471.82" stroke-dasharray="3.6 3.6" stroke-width="3.6" stroke="#aaa" />
<g>
<circle cx="150.00" cy="509.98" r="1.6666666666666667" />
<circle cx="150.40" cy="509.98" r="1.6666666666666667" />
<circle cx="150.79" cy="509.98" r="1.6666666666666667" />
<circle cx="151.19" cy="509.98" r="1.6666666666666667" />
<circle cx="151.60" cy="509.98" r="1.6666666666666667" />
<circle cx="151.99" cy="509.98" r="1.6666666666666667" />
<circle cx="152.38" cy="509.98" r="1.6666666666666667" />
<circle cx="152.75" cy="509.98" r="1.6666666666666667" />
<circle cx="153.15" cy="509.98" r="1.6666666666666667" />
<circle cx="153.54" cy="509.98" r="1.6666666666666667" />
<circle cx="153.94" cy="509.98" r="1.6666666666666667" />
<circle cx="154.33" cy="509.98" r="1.6666666666666667" />
<circle cx="154.74" cy="509.98" r="1.6666666666666667" />
<circle cx="155.13" cy="509.98" r="1.6666666666666667" />
<circle cx="155.53" cy="509.98" r="1.6666666666666667" />
<circle cx="155.93" cy="509.98" r="1.6666666666666667" />
<circle cx="156.32" cy="509.98" r="1.6666666666666667" />
<circle cx="156.73" cy="509.98" r="1.6666666666666667" />
<circle cx="157.12" cy="509.98" r="1.6666666666666667" />
<circle cx="157.52" cy="509.98" r="1.6666666666666667" />
<circle cx="157.91" cy="509.98" r="1.6666666666666667" />
<circle cx="158.32" cy="509.98" r="1.6666666666666667" />
<circle cx="158.72" cy="509.98" r="1.6666666666666667" />
<circle cx="159.11" cy="509.98" r="1.6666666666666667" />
<circle cx="159.53" cy="509.98" r="1.6666666666666667" />
<circle cx="159.94" cy="509.98" r="1.6666666666666667" />
<circle cx="160.33" cy="509.98" r="1.6666666666666667" />
<circle cx="160.75" cy="509.98" r="1.6666666666666667" />
<circle cx="161.15" cy="509.98" r="1.6666666666666667" />
<circle cx="161.55" cy="509.98" r="1.6666666666666667" />
<circle cx="161.95" cy="509.98" r="1.6666666666666667" />
<circle cx="162.33" cy="509.98" r="1.6666666666666667" />
<circle cx="162.72" cy="509.98" r="1.6666666666666667" />
<circle cx="163.11" cy="509.98" r="1.6666666666666667" />
<circle cx="163.54" cy="509.98" r="1.6666666666666667" />
<circle cx="163.95" cy="509.98" r="1.6666666666666667" />
<circle cx="164.35" cy="509.98" r="1.6666666666666667" />
<circle cx="164.77" cy="509.98" r="1.6666666666666667" />
<circle cx="165.17" cy="509.98" r="1.6666666666666667" />
<circle cx="165.59" cy="509.98" r="1.6666666666666667" />
<circle cx="165.99" cy="509.98" r="1.6666666666666667" />
<circle cx="166.37" cy="509.98" r="1.6666666666666667" />
<circle cx="166.76" cy="509.98" r="1.6666666666666667" />
<circle cx="167.17" cy="509.98" r="1.6666666666666667" />
<circle cx="167.57" cy="509.98" r="1.6666666666666667" />
<circle cx="167.96" cy="509.98" r="1.6666666666666667" />
<circle cx="168.36" cy="509.98" r="1.6666666666666667" />
<circle cx="168.77" cy="509.98" r="1.6666666666666667" />
<circle cx="169.16" cy="509.98" r="1.6666666666666667" />
<circle cx="169.56" cy="509.98" r="1.6666666666666667" />
<circle cx="169.96" cy="509.98" r="1.6666666666666667" />
<circle cx="170.36" cy="509.98" r="1.6666666666666667" />
<circle cx="170.77" cy="509.98" r="1.6666666666666667" />
<circle cx="171.18" cy="509.98" r="1.6666666666666667" />
<circle cx="171.59" cy="509.98" r="1.6666666666666667" />
<circle cx="172.00" cy="509.98" r="1.6666666666666667" />
<circle cx="172.42" cy="509.98" r="1.6666666666666667" />
<circle cx="172.85" cy="509.98" r="1.6666666666666667" />
<circle cx="173.26" cy="509.98" r="1.6666666666666667" />
<circle cx="173.67" cy="509.98" r="1.6666666666666667" />
<circle cx="174.10" cy="509.98" r="1.6666666666666667" />
<circle cx="174.51" cy="509.98" r="1.6666666666666667" />
<circle cx="174.93" cy="509.98" r="1.6666666666666667" />
<circle cx="175.33" cy="509.98" r="1.6666666666666667" />
<circle cx="175.75" cy="509.98" r="1.6666666666666667" />
<circle cx="176.17" cy="509.98" r="1.6666666666666667" />
<circle cx="176.57" cy="509.98" r="1.6666666666666667" />
<circle cx="176.99" cy="509.98" r="1.6666666666666667" />
<circle cx="182.86" cy="509.98" r="1.6666666666666667" />
<circle cx="183.28" cy="509.98" r="1.6666666666666667" />
<circle cx="183.71" cy="509.98" r="1.6666666666666667" />
<circle cx="184.13" cy="509.98" r="1.6666666666666667" />
<circle cx="184.55" cy="509.98" r="1.6666666666666667" />
<circle cx="184.99" cy="509.98" r="1.6666666666666667" />
<circle cx="185.41" cy="509.98" r="1.6666666666666667" />
<circle cx="185.86" cy="509.98" r="1.6666666666666667" />
<circle cx="186.31" cy="509.98" r="1.6666666666666667" />
<circle cx="186.74" cy="509.98" r="1.6666666666666667" />
<circle cx="187.17" cy="509.98" r="1.6666666666666667" />
<circle cx="187.62" cy="509.98" r="1.6666666666666667" />
<circle cx="188.08" cy="509.98" r="1.6666666666666667" />
<circle cx="188.51" cy="509.98" r="1.6666666666666667" />
<circle cx="188.93" cy="509.98" r="1.6666666666666667" />
<circle cx="189.36" cy="509.98" r="1.6666666666666667" />
<circle cx="189.78" cy="509.98" r="1.6666666666666667" />
<circle cx="190.21" cy="509.98" r="1.6666666666666667" />
<circle cx="190.66" cy="509.98" r="1.6666666666666667" />
<circle cx="191.08" cy="509.98" r="1.6666666666666667" />
<circle cx="191.52" cy="509.98" r="1.6666666666666667" />
<circle cx="191.96" cy="509.98" r="1.6666666666666667" />
<circle cx="192.39" cy="509.98" r="1.6666666666666667" />
<circle cx="192.84" cy="509.98" r="1.6666666666666667" />
<circle cx="193.28" cy="509.98" r="1.6666666666666667" />
<circle cx="193.72" cy="509.98" r="1.6666666666666667" />
<circle cx="194.17" cy="509.98" r="1.6666666666666667" />
<circle cx="194.60" cy="509.98" r="1.6666666666666667" />
<circle cx="195.05" cy="509.98" r="1.6666666666666667" />
<circle cx="850.00" cy="433.64" r="1.6666666666666667" />
<circle cx="850.00" cy="414.55" r="1.6666666666666667" />
<circle cx="850.00" cy="128.18" r="1.6666666666666667" />
<circle cx="850.00" cy="471.82" r="1.6666666666666667" />
</g>
<g stroke="black">
<line x1="216.65" x2="216.65" y1="510.00" y2="520.00" />
<line x1="418.20" x2="418.20" y1="510.00" y2="520.00" />
<line x1="619.75" x2="619.75" y1="510.00" y2="520.00" />
<line x1="821.30" x2="821.30" y1="510.00" y2="520.00" />
<g fill="black" font-family="Arial, sans-serif" font-size="18.0" stroke="none" text-anchor="start" transform="translate(9.0 0.0)">
<text x="216.65" y="530.57">19400</text>
<text x="418.20" y="530.57">19500</text>
<text x="619.75" y="530.57">19600</text>
<text x="821.30" y="530.57">19700</text>
</g>
<line x1="150.00" x2="850.00" y1="510.00" y2="510.00" />
</g>
<g stroke="black">
<line x1="150.00" x2="140.00" y1="510.00" y2="510.00" />
<line x1="150.00" x2="140.00" y1="465.81" y2="465.81" />
<line x1="150.00" x2="140.00" y1="421.62" y2="421.62" />
<line x1="150.00" x2="140.00" y1="377.42" y2="377.42" />
<line x1="150.00" x2="140.00" y1="333.23" y2="333.23" />
<line x1="150.00" x2="140.00" y1="289.04" y2="289.04" />
<line x1="150.00" x2="140.00" y1="244.85" y2="244.85" />
<line x1="150.00" x2="140.00" y1="200.66" y2="200.66" />
<line x1="150.00" x2="140.00" y1="156.46" y2="156.46" />
<line x1="150.00" x2="140.00" y1="112.27" y2="112.27" />
<g fill="black" font-family="Arial, sans-serif" font-size="18.0" stroke="none" text-anchor="end">
<text x="141.00" y="501.00">0</text>
<text x="141.00" y="456.81">10000</text>
<text x="141.00" y="412.62">20000</text>
<text x="141.00" y="368.42">30000</text>
<text x="141.00" y="324.23">40000</text>
<text x="141.00" y="280.04">50000</text>
<text x="141.00" y="235.85">60000</text>
<text x="141.00" y="191.66">70000</text>
<text x="141.00" y="147.46">80000</text>
<text x="141.00" y="103.27">90000</text>
</g>
<line x1="150.00" x2="150.00" y1="510.00" y2="90.00" />
</g>
</g>
</svg>