<?xml version="1.0"?>
<svg version="1.1" viewBox="0 0 1000 600" xmlns:xlink="http://www.w3.org/1999/xlink" xmlns="http://www.w3.org/2000/svg">
<g>
<g stroke-dasharray="3.6 7.2" stroke-width="0.72" stroke="#caa">
<line x1="839.86" x2="839.86" y1="510.00" y2="90.00" />
<line x1="791.78" x2="791.78" y1="510.00" y2="90.00" />
<line x1="740.39" x2="740.39" y1="510.00" y2="90.00" />
<line x1="689.00" x2="689.00" y1="510.00" y2="90.00" />
<line x1="639.26" x2="639.26" y1="510.00" y2="90.00" />
<line x1="587.87" x2="587.87" y1="510.00" y2="90.00" />
<line x1="538.13" x2="538.13" y1="510.00" y2="90.00" />
<line x1="486.74" x2="486.74" y1="510.00" y2="90.00" />
<line x1="435.35" x2="435.35" y1="510.00" y2="90.00" />
<line x1="385.61" x2="385.61" y1="510.00" y2="90.00" />
<line x1="334.22" x2="334.22" y1="510.00" y2="90.00" />
<line x1="284.48" x2="284.48" y1="510.00" y2="90.00" />
<line x1="233.09" x2="233.09" y1="510.00" y2="90.00" />
<line x1="186.67" x2="186.67" y1="510.00" y2="90.00" />
<line x1="150.00" x2="850.00" y1="510.00" y2="510.00" />
<line x1="150.00" x2="850.00" y1="216.29" y2="216.29" />
</g>
<g>
<text dominant-baseline="hanging" dx="-36.0" dy="18.0" fill="#0004" font-family="Arial, sans-serif" font-size="36" stroke="none" text-anchor="end" x="850.00" y="128.18">ThMuCh1LongLizard</text>
</g>
<g>
<text dominant-baseline="text-bottom" dy="-12.0" fill="black" font-family="Arial, sans-serif" font-size="18.0" font-style="italic" stroke="none" text-anchor="middle" x="500.00" y="90.00">Years 2023 to 2024</text>
</g>
<g>
<text dominant-baseline="central" dx="12.0" dy="12.0" fill="black" font-family="Arial, sans-serif" font-size="18.0" font-style="italic" stroke="none" text-anchor="middle" text-orientation="sideways" writing-mode="vertical-lr" x="850.00" y="300.00">log(Drips per day)</text>
</g>
<polyline fill="none" points="150.27,456.21 150.54,456.65 150.80,456.52 151.08,457.04 151.35,457.14 151.62,456.37 151.89,456.65 152.15,456.35 152.43,457.12 152.48,405.31 178.00,486.55 178.79,488.22 179.55,487.24 180.38,489.44 181.21,489.72 181.89,483.75 182.51,481.44 183.20,484.22 183.83,481.34 184.50,483.48 185.25,486.68 185.97,485.64 186.67,484.41 187.41,486.56 188.21,488.59 188.91,484.40 189.68,487.50 190.45,487.71 191.15,484.38 191.93,488.16 192.57,481.69 193.30,485.99 193.95,482.60 194.67,485.67 195.41,486.24 196.11,484.60 196.86,486.81 197.66,488.48 219.15,384.00 219.15,257.58 219.15,261.04 219.15,272.95 219.15,259.36 219.19,405.51 219.19,237.23 219.19,216.87 219.19,196.51 219.19,176.15 219.19,176.15 219.19,176.15 219.19,176.15 219.19,176.15 219.19,176.15 219.19,176.15 219.19,176.15 219.19,176.15 219.19,176.15 219.20,176.15 219.20,176.15 219.20,176.15 219.20,176.15 219.20,176.15 219.20,176.15 219.20,176.15 219.20,176.15 219.20,176.15 219.20,176.15 219.20,176.15 219.20,176.15 219.20,176.15 219.20,176.15 219.20,176.15 219.20,176.15 219.20,176.15 219.20,176.15 219.20,176.15 219.20,176.15 219.20,176.15 219.20,176.15 219.20,176.15 219.20,176.15 219.20,176.15 219.20,176.15 219.20,176.15 219.20,176.15 219.20,176.15 219.20,176.15 219.20,176.15 219.20,176.15 219.20,176.15 219.20,176.15 219.20,176.15 219.20,176.15 219.20,176.15 219.20,176.15 219.20,176.15 219.20,176.15 219.20,176.15 219.20,176.15 219.20,176.15 219.20,176.15 219.20,176.15 219.20,176.15 219.20,176.15 219.20,176.15 219.20,176.15 219.20,176.15 219.20,176.15 219.20,176.15 219.20,176.15 219.20,176.15 219.20,176.15 219.20,176.15 219.20,176.15 219.20,176.15 219.20,196.51 219.20,176.15 219.20,176.15 219.20,176.15 219.20,176.15 219.20,176.15 219.20,176.15 219.20,176.15 219.20,176.15 219.20,176.15 219.20,176.15 219.20,176.15 219.20,176.15 219.20,176.15 219.20,176.15 219.20,176.15 219.20,176.15 219.20,176.15 219.20,176.15 219.20,176.15 219.20,176.15 219.20,176.15 219.20,176.15 219.20,176.15 219.20,176.15 219.20,176.15 219.20,176.15 219.20,176.15 219.20,176.15 219.20,176.15 219.20,176.15 219.20,176.15 219.20,176.15 219.20,176.15 219.20,176.15 219.20,176.15 219.20,176.15 219.20,176.15 219.20,176.15 219.20,176.15 219.20,176.15 219.20,176.15 219.20,176.15 219.20,176.15 219.20,176.15 219.20,176.15 219.20,176.15 219.20,176.15 219.20,176.15 219.20,176.15 219.20,176.15 219.20,176.15 219.20,176.15 219.20,176.15 219.20,176.15 219.20,176.15 219.20,176.15 219.20,176.15 219.20,176.15 219.20,176.15 219.20,176.15 219.20,176.15 219.20,257.58 219.20,176.15 219.20,176.15 219.20,176.15 219.20,176.15 219.20,176.15 219.20,176.15 219.20,176.15 219.20,176.15 219.20,176.15 219.20,176.15 219.20,176.15 219.20,176.15 219.20,176.15 219.20,176.15 219.20,176.15 219.20,176.15 219.20,176.15 219.20,176.15 219.20,176.15 219.20,176.15 219.20,176.15 219.20,176.15 219.20,176.15 219.20,176.15 219.20,176.15 219.20,176.15 219.20,176.15 219.20,176.15 219.20,176.15 219.20,176.15 219.20,176.15 219.20,176.15 219.20,176.15 219.20,176.15 219.20,176.15 219.20,176.15 219.20,176.15 219.20,176.15 219.20,176.15 219.20,176.15 219.20,176.15 219.20,176.15 219.20,176.15 219.20,176.15 219.20,176.15 219.20,176.15 219.20,176.15 219.20,176.15 219.20,176.15 219.20,176.15 219.20,176.15 219.20,176.15 219.20,176.15 219.20,176.15 219.20,176.15 219.20,176.15 219.20,176.15 219.20,176.15 219.20,176.15 219.20,176.15 219.20,176.15 219.20,176.15 219.20,176.15 219.20,176.15 219.20,176.15 219.20,176.15 219.20,176.15 219.20,176.15 219.20,176.15 219.20,176.15 219.20,176.15 219.20,176.15 219.20,176.15 219.20,176.15 219.20,176.15 219.20,176.15 219.20,176.15 219.20,176.15 219.20,176.15 219.20,176.15 219.20,176.15 219.20,176.15 219.20,176.15 219.20,176.15 219.20,176.15 219.20,176.15 219.20,176.15 219.20,176.15 219.20,176.15 219.20,176.15 219.20,176.15 219.20,176.15 219.20,176.15 219.20,176.15 219.20,176.15 219.20,176.15 219.20,176.15 219.20,176.15 219.20,176.15 219.20,176.15 219.20,176.15 219.20,176.15 219.20,176.15 219.20,176.15 219.20,176.15 219.20,176.15 219.20,176.15 219.20,176.15 219.20,176.15 219.20,176.15 219.20,176.15 219.20,176.15 219.20,176.15 219.20,176.15 219.20,176.15 219.20,176.15 219.20,176.15 219.20,176.15 219.20,176.15 219.20,176.15 219.20,176.15 219.20,176.15 219.20,176.15 219.20,176.15 219.20,176.15 219.20,176.15 219.20,176.15 219.20,176.15 219.20,176.15 219.20,176.15 219.20,176.15 219.20,176.15 219.20,176.15 219.20,176.15 219.20,176.15 219.20,176.15 219.20,176.15 219.20,257.58 219.20,176.15 219.20,176.15 219.20,176.15 219.20,176.15 219.20,176.15 219.20,176.15 219.20,176.15 219.20,176.15 219.20,176.15 219.20,176.15 219.20,257.58 219.20,176.15 219.20,176.15 219.20,176.15 219.20,176.15 219.20,176.15 219.20,176.15 219.20,176.15 219.20,176.15 219.20,176.15 219.20,176.15 219.20,176.15 219.20,176.15 219.20,176.15 219.20,176.15 219.20,176.15 219.20,176.15 219.20,176.15 219.20,176.15 219.20,176.15 219.20,176.15 219.20,176.15 219.20,176.15 219.20,176.15 219.20,176.15 219.20,176.15 219.20,176.15 219.20,176.15 219.20,176.15 219.20,176.15 219.20,176.15 219.20,176.15 219.20,176.15 219.20,176.15 219.20,176.15 219.20,176.15 219.20,176.15 219.20,176.15 219.20,176.15 219.20,176.15 219.20,176.15 219.20,176.15 219.20,176.15 219.20,176.15 219.20,176.15 219.20,176.15 219.20,176.15 219.20,176.15 219.20,176.15 219.20,176.15 219.20,176.15 219.20,176.15 219.20,176.15 219.20,176.15 219.20,176.15 219.20,176.15 219.20,176.15 219.20,176.15 219.20,176.15 219.20,176.15 219.20,176.15 219.20,176.15 219.20,176.15 219.20,176.15 219.20,176.15 219.20,176.15 219.20,176.15 219.20,176.15 219.20,176.15 219.20,176.15 219.20,176.15 219.20,176.15 219.20,176.15 219.20,176.15 219.20,176.15 219.20,176.15 219.20,176.15 219.20,176.15 219.20,176.15 219.20,176.15 219.20,176.15 219.20,176.15 219.20,176.15 219.20,176.15 219.20,176.15 219.20,176.15 219.20,176.15 219.20,176.15 219.20,176.15 219.20,176.15 219.20,176.15 219.20,176.15 219.20,176.15 219.20,176.15 219.20,176.15 219.20,176.15 219.20,257.58 219.20,176.15 219.20,176.15 219.20,176.15 219.20,176.15 219.20,176.15 219.20,176.15 219.20,176.15 219.20,176.15 219.20,176.15 219.20,176.15 219.20,176.15 219.20,176.15 219.20,176.15 219.20,176.15 219.20,176.15 219.20,176.15 219.20,176.15 219.20,176.15 219.20,176.15 219.20,176.15 219.20,176.15 219.20,176.15 219.20,176.15 219.20,176.15 219.20,176.15 219.20,176.15 219.20,176.15 219.20,176.15 219.20,176.15 219.20,176.15 219.20,176.15 219.20,176.15 219.20,176.15 219.20,176.15 219.20,176.15 219.20,176.15 219.20,176.15 219.20,176.15 219.20,176.15 219.20,196.51 219.20,176.15 219.20,176.15 219.20,176.15 219.20,176.15 219.20,257.58 219.20,176.15 219.20,176.15 219.20,176.15 219.21,314.74 219.21,176.15 219.21,176.15 219.21,176.15 219.21,176.15 219.21,176.15 219.21,176.15 219.21,176.15 219.21,176.15 219.21,176.15 219.21,176.15 219.21,176.15 219.21,176.15 219.21,176.15 219.21,176.15 219.21,176.15 219.21,176.15 219.21,176.15 219.21,176.15 219.21,176.15 219.21,176.15 219.21,176.15 219.21,176.15 219.21,176.15 219.21,176.15 219.21,176.15 219.21,176.15 219.21,176.15 219.21,176.15 219.21,176.15 219.21,176.15 219.21,176.15 219.21,176.15 219.21,176.15 219.21,176.15 219.21,176.15 219.21,176.15 219.21,176.15 219.21,176.15 219.21,176.15 219.21,176.15 219.21,176.15 219.21,176.15 219.21,176.15 219.21,176.15 219.21,176.15 219.21,176.15 219.21,176.15 219.21,176.15 219.21,176.15 219.21,176.15 219.21,176.15 219.21,176.15 219.21,176.15 219.21,176.15 219.21,176.15 219.21,176.15 219.21,176.15 219.21,176.15 219.21,176.15 219.21,176.15 219.21,176.15 219.21,176.15 219.21,176.15 219.21,176.15 219.21,176.15 219.21,176.15 219.21,176.15 219.21,176.15 219.21,176.15 219.21,176.15 219.21,176.15 219.21,176.15 219.21,176.15 219.21,176.15 219.21,176.15 219.21,176.15 219.21,176.15 219.21,176.15 219.21,176.15 219.21,176.15 219.21,176.15 219.21,176.15 219.21,176.15 219.21,176.15 219.21,176.15 219.21,176.15 219.21,176.15 219.21,176.15 219.21,176.15 219.21,176.15 219.21,176.15 219.21,176.15 219.21,176.15 219.21,176.15 219.21,176.15 219.21,176.15 219.21,176.15 219.21,176.15 219.21,176.15 219.21,176.15 219.21,176.15 219.21,176.15 219.21,176.15 219.21,176.15 219.21,176.15 219.21,176.15 219.21,176.15 219.21,176.15 219.21,176.15 219.21,176.15 219.21,176.15 219.21,176.15 219.21,176.15 219.21,176.15 219.21,176.15 219.21,176.15 219.21,176.15 219.21,176.15 219.21,176.15 219.21,176.15 219.21,176.15 219.21,176.15 219.21,176.15 219.21,176.15 219.21,176.15 219.21,176.15 219.21,176.15 219.21,176.15 219.21,176.15 219.21,176.15 219.21,176.15 219.21,176.15 219.21,176.15 219.21,176.15 219.21,176.15 219.21,176.15 219.21,176.15 219.21,176.15 219.21,176.15 219.21,176.15 219.21,176.15 219.21,176.15 219.21,176.15 219.21,176.15 219.21,176.15 219.21,176.15 219.21,176.15 219.21,176.15 219.21,176.15 219.21,176.15 219.21,176.15 219.21,176.15 219.21,176.15 219.21,176.15 219.21,176.15 219.21,176.15 219.21,176.15 219.21,176.15 219.21,176.15 219.21,176.15 219.21,176.15 219.21,176.15 219.21,176.15 219.21,176.15 219.21,176.15 219.21,176.15 219.21,176.15 219.21,176.15 219.21,176.15 219.21,176.15 219.21,176.15 219.21,176.15 219.21,176.15 219.21,176.15 219.21,176.15 219.21,176.15 219.21,176.15 219.21,176.15 219.21,176.15 219.21,176.15 219.21,176.15 219.21,176.15 219.21,176.15 219.21,176.15 219.21,176.15 219.21,176.15 219.21,257.58 219.21,176.15 219.21,176.15 219.21,176.15 219.21,176.15 219.21,176.15 219.21,176.15 219.21,176.15 219.21,176.15 219.21,176.15 219.21,176.15 219.21,176.15 219.21,176.15 219.21,176.15 219.21,176.15 219.24,388.75 219.24,276.05 219.24,299.20 219.24,328.34 219.26,381.32 219.26,253.66 219.26,208.42 219.26,176.15 219.26,237.23 219.27,348.62 219.58,460.49 219.80,451.26 220.03,451.59 220.25,450.88 220.47,450.47 220.69,450.51 220.89,448.75 221.11,450.80 221.34,451.11 221.55,449.94 221.78,451.27 221.99,450.10 222.22,451.38 222.45,452.00 222.68,451.82 222.91,451.96 223.12,449.98 223.34,450.89 223.57,451.66 223.80,451.43 224.03,452.33 224.25,450.61 224.47,451.50 224.71,453.18 224.94,451.39 225.17,452.35 225.39,449.84 225.62,452.53 225.86,452.78 226.10,453.57 226.34,453.01 226.57,452.59 226.81,452.42 227.03,451.67 227.27,453.01 227.51,452.67 227.74,452.08 227.98,453.45 228.21,452.42 228.45,453.36 228.69,452.91 228.94,453.98 229.19,454.25 229.44,454.55 229.68,453.64 229.92,453.72 230.17,453.46 230.42,454.67 230.68,455.74 230.94,455.69 231.20,455.68 231.46,455.06 231.72,456.42 231.99,456.60 232.26,456.25 232.52,455.25 232.76,454.21 233.03,456.12 233.30,456.85 233.56,455.70 233.81,454.65 234.08,456.36 234.34,456.02 234.60,455.65 234.87,455.81 235.12,454.94 235.39,456.53 235.65,455.77 235.90,454.52 236.16,455.53 236.42,456.12 236.68,455.52 236.95,456.12 237.20,454.49 237.46,455.19 237.73,456.66 238.00,457.08 238.26,455.76 238.52,455.76 238.80,457.39 239.07,457.08 239.33,455.38 239.61,457.44 239.88,456.80 240.14,456.17 240.42,456.84 240.69,456.77 240.95,456.54 241.23,456.84 241.48,455.31 241.76,457.34 242.03,457.24 242.31,457.79 242.58,456.61 242.85,456.31 243.13,457.27 243.40,457.68 243.68,457.71 243.97,458.18 244.24,457.32 244.52,457.54 244.80,457.67 245.08,457.15 245.35,457.74 245.64,458.20 245.92,457.38 246.20,457.91 246.47,457.50 246.65,443.57 246.82,444.38 247.01,446.06 247.17,440.88 247.33,441.15 247.49,440.84 247.57,423.02 247.59,370.43 247.61,383.75 247.80,446.51 247.85,408.58 585.89,439.97 586.14,453.85 586.27,435.92 586.49,450.08 586.64,439.78 586.84,447.58 587.02,444.86 587.23,450.21 587.40,442.94 587.61,448.57 587.78,444.38 587.99,448.19 588.15,442.47 588.37,450.06 588.55,444.83 588.78,452.21 588.97,446.19 589.20,451.57 589.40,448.00 589.64,453.12 589.81,443.49 590.02,449.56 590.19,443.62 590.42,451.99 590.61,445.68 590.83,450.36 591.02,446.33 591.24,451.55 591.43,446.15 591.66,451.70 591.84,445.77 592.08,452.54 592.27,445.89 592.51,453.70 592.71,448.29 592.97,454.78 593.19,451.73 593.45,455.32 593.66,449.20 593.89,452.49 594.11,450.16 594.36,454.44 594.60,452.72 594.83,452.53 595.74,492.30 595.96,450.47 596.28,461.90 596.51,452.42 596.81,459.25 597.03,451.17 597.32,458.30 597.56,453.72 597.84,457.38 598.08,453.27 598.35,457.60 598.60,453.96 598.88,457.98 599.11,451.51 599.42,461.12 599.66,452.76 599.95,459.07 600.20,454.77 600.50,459.22 600.73,452.15 601.00,456.49 601.24,452.98 601.50,456.58 601.75,454.44 602.04,458.28 602.29,454.38 602.61,461.42 602.84,452.77 603.16,461.76 603.44,456.91 603.73,459.09 604.00,456.96 604.29,459.05 604.57,457.16 604.85,458.51 605.17,460.87 605.45,458.02 605.74,459.04 606.01,457.04 606.31,459.32 606.58,456.74 606.85,457.22 607.16,460.46 607.44,457.59 607.73,459.12 608.01,457.13 608.34,463.09 608.61,456.61 608.93,461.36 609.17,454.01 609.50,461.80 609.76,455.80 610.06,459.72 610.30,454.19 610.60,458.90 610.86,456.40 611.17,460.96 611.45,457.45 611.76,461.02 612.00,452.87 612.32,461.31 612.55,452.44 612.87,461.31 613.12,454.39 613.45,462.69 613.70,454.89 613.99,458.26 614.24,454.51 614.52,458.25 614.80,457.94 615.08,457.55 615.33,454.45 615.61,458.07 615.87,455.54 616.16,457.91 616.42,456.36 616.73,460.45 616.98,454.38 617.25,456.57 617.49,454.10 617.79,459.21 618.04,454.45 618.32,458.28 618.56,452.38 618.84,458.17 619.06,450.01 619.33,457.10 619.55,451.12 619.87,461.04 620.10,452.85 620.40,460.00 620.66,454.84 620.95,458.87 621.18,451.56 621.47,458.93 621.93,472.63 622.18,454.15 622.48,459.43 622.75,457.03 623.04,459.35 623.32,456.85 623.61,459.70 623.88,456.10 624.19,461.17 624.44,453.69 624.75,461.40 625.00,454.03 625.31,460.59 625.58,456.47 625.88,460.00 626.15,456.37 626.46,460.87 626.71,454.45 627.00,459.28 627.25,453.95 627.54,458.83 627.79,454.49 628.10,460.94 628.35,453.80 628.63,458.66 628.89,455.49 629.17,456.87 629.44,456.91 629.75,461.00 630.00,454.38 630.29,458.38 630.55,455.74 630.86,460.99 631.10,453.44 631.42,461.82 631.68,455.66 632.00,461.37 632.25,454.18 632.54,458.72 632.77,452.54 633.09,461.91 633.37,457.69 633.69,461.10 633.96,457.05 634.27,460.71 634.53,455.85 634.85,461.45 635.13,458.00 635.44,460.49 635.68,453.59 636.03,463.82 636.29,456.12 636.61,461.99 636.86,454.55 637.18,461.30 637.44,456.11 637.75,459.91 638.03,457.79 638.33,460.19 638.61,457.69 638.87,455.83 639.10,451.82 639.43,462.44 639.68,454.03 639.99,461.31 640.25,455.42 640.58,463.01 640.83,454.23 641.15,461.79 641.42,455.87 641.73,460.63 641.97,454.33 642.28,460.47 642.56,457.68 642.89,462.81 644.03,499.04 644.28,454.20 644.60,461.84 644.89,457.89 645.21,461.81 645.47,455.88 645.79,461.94 646.07,457.80 646.41,463.21 646.67,455.18 646.98,461.27 647.24,454.88 647.55,461.41 647.80,454.13 648.10,460.17 648.38,457.00 648.70,461.72 648.98,457.88 649.31,462.70 649.59,458.22 649.91,461.57 650.20,458.45 650.51,461.18 650.78,456.05 651.12,463.41 651.38,456.20 651.71,462.40 651.98,456.49 652.30,462.17 652.59,458.87 652.94,463.58 653.20,456.11 653.51,460.53 653.75,453.52 654.06,460.75 654.35,459.15 654.71,464.58 654.96,454.52 655.27,461.44 655.51,452.29 655.84,463.18 656.13,458.92 656.48,463.65 656.73,454.44 657.05,461.79 657.31,456.22 657.64,462.33 657.89,454.11 658.20,460.90 658.46,455.26 658.77,461.51 659.04,456.53 659.37,462.18 659.63,455.86 659.96,462.92 660.23,456.51 660.55,461.37 660.79,453.21 661.08,458.80 661.32,453.47 661.60,457.79 661.83,451.39 662.09,456.24 662.33,453.33 662.60,455.93 662.80,447.81 663.04,453.35 663.23,446.78 663.47,453.28 663.67,447.38 663.92,454.63 664.12,448.23 664.36,453.40 664.55,446.11 664.77,451.15 664.96,446.03 665.18,451.11 665.38,447.42 665.63,453.99 665.83,447.47 666.09,455.64 666.27,445.26 666.51,453.26 666.70,446.48 666.94,453.07 667.13,447.26 667.37,452.15 667.56,446.62 667.79,452.86 667.98,446.19 668.23,453.56 668.42,447.72 668.66,453.13 668.87,449.20 669.11,453.51 669.31,447.54 669.56,454.53 669.76,447.22 670.02,455.47 670.23,448.98 670.46,452.55 670.67,449.50 670.92,454.62 671.13,449.02 671.40,456.44 671.61,448.99 671.87,455.87 672.07,448.55 672.34,456.28 672.57,451.68 672.82,455.21 726.74,469.75 727.22,473.87 727.57,464.57 728.05,473.56 728.45,467.64 728.95,474.84 729.32,466.02 729.80,473.87 730.16,464.88 730.60,471.42 731.00,467.71 731.46,472.28 731.84,466.89 732.27,470.26 732.65,466.97 733.10,471.40 733.53,470.86 733.97,471.18 734.33,464.61 734.78,471.74 735.17,467.75 735.72,477.23 736.11,467.85 736.60,474.37 737.00,467.92 737.51,475.40 737.94,470.56 738.46,475.63 738.94,473.69 739.45,475.21 739.80,464.81 740.31,475.57 740.75,470.66 741.24,474.15 741.63,467.83 742.12,474.29 742.50,466.63 742.99,473.95 743.39,468.42 743.87,473.29 744.33,472.43 744.80,472.90 745.26,472.67 745.74,473.32 746.63,491.70 747.06,470.85 747.56,474.86 747.97,468.43 748.42,471.97 748.84,469.44 749.37,476.58 749.79,469.77 750.30,475.48 750.71,469.02 751.23,475.98 751.66,469.87 752.13,473.40 752.59,471.99 753.02,470.70 753.45,470.43 753.97,475.45 754.33,465.22 754.78,472.04 755.21,469.95 755.68,473.25 756.09,468.66 756.50,469.38 756.92,469.34 757.42,474.71 757.82,468.39 758.27,471.67 758.64,466.21 759.10,472.21 759.51,468.87 759.97,472.61 760.40,470.04 760.89,474.72 761.29,467.84 761.77,473.37 762.25,473.83 762.70,471.94 763.17,473.09 763.65,473.41 764.08,470.54 764.57,474.03 765.00,470.29 765.49,474.34 765.89,468.07 766.38,474.02 766.79,469.08 767.23,470.83 767.62,467.82 768.11,474.19 768.46,464.25 768.93,473.26 769.30,466.05 769.80,474.42 770.21,469.21 770.75,476.79 771.15,468.41 771.59,471.12 771.97,466.36 772.43,472.32 772.81,466.90 773.30,474.28 773.69,467.50" stroke-dasharray="3.6 3.6" stroke-width="3.6" stroke="#aaa" />
<g>
<circle cx="150.27" cy="456.21" r="1.6666666666666667" />
<circle cx="150.54" cy="456.65" r="1.6666666666666667" />
<circle cx="150.80" cy="456.52" r="1.6666666666666667" />
<circle cx="151.08" cy="457.04" r="1.6666666666666667" />
<circle cx="151.35" cy="457.14" r="1.6666666666666667" />
<circle cx="151.62" cy="456.37" r="1.6666666666666667" />
<circle cx="151.89" cy="456.65" r="1.6666666666666667" />
<circle cx="152.15" cy="456.35" r="1.6666666666666667" />
<circle cx="152.43" cy="457.12" r="1.6666666666666667" />
<circle cx="152.48" cy="405.31" r="1.6666666666666667" />
<circle cx="178.00" cy="486.55" r="1.6666666666666667" />
<circle cx="178.79" cy="488.22" r="1.6666666666666667" />
<circle cx="179.55" cy="487.24" r="1.6666666666666667" />
<circle cx="180.38" cy="489.44" r="1.6666666666666667" />
<circle cx="181.21" cy="489.72" r="1.6666666666666667" />
<circle cx="181.89" cy="483.75" r="1.6666666666666667" />
<circle cx="182.51" cy="481.44" r="1.6666666666666667" />
<circle cx="183.20" cy="484.22" r="1.6666666666666667" />
<circle cx="183.83" cy="481.34" r="1.6666666666666667" />
<circle cx="184.50" cy="483.48" r="1.6666666666666667" />
<circle cx="185.25" cy="486.68" r="1.6666666666666667" />
<circle cx="185.97" cy="485.64" r="1.6666666666666667" />
<circle cx="186.67" cy="484.41" r="1.6666666666666667" />
<circle cx="187.41" cy="486.56" r="1.6666666666666667" />
<circle cx="188.21" cy="488.59" r="1.6666666666666667" />
<circle cx="188.91" cy="484.40" r="1.6666666666666667" />
<circle cx="189.68" cy="487.50" r="1.6666666666666667" />
<circle cx="190.45" cy="487.71" r="1.6666666666666667" />
<circle cx="191.15" cy="484.38" r="1.6666666666666667" />
<circle cx="191.93" cy="488.16" r="1.6666666666666667" />
<circle cx="192.57" cy="481.69" r="1.6666666666666667" />
<circle cx="193.30" cy="485.99" r="1.6666666666666667" />
<circle cx="193.95" cy="482.60" r="1.6666666666666667" />
<circle cx="194.67" cy="485.67" r="1.6666666666666667" />
<circle cx="195.41" cy="486.24" r="1.6666666666666667" />
<circle cx="196.11" cy="484.60" r="1.6666666666666667" />
<circle cx="196.86" cy="486.81" r="1.6666666666666667" />
<circle cx="197.66" cy="488.48" r="1.6666666666666667" />
<circle cx="219.15" cy="384.00" r="1.6666666666666667" />
<circle cx="219.15" cy="257.58" r="1.6666666666666667" />
<circle cx="219.15" cy="261.04" r="1.6666666666666667" />
<circle cx="219.15" cy="272.95" r="1.6666666666666667" />
<circle cx="219.15" cy="259.36" r="1.6666666666666667" />
<circle cx="219.19" cy="405.51" r="1.6666666666666667" />
<circle cx="219.19" cy="237.23" r="1.6666666666666667" />
<circle cx="219.19" cy="216.87" r="1.6666666666666667" />
<circle cx="219.19" cy="196.51" r="1.6666666666666667" />
<circle cx="219.19" cy="176.15" r="1.6666666666666667" />
<circle cx="219.19" cy="176.15" r="1.6666666666666667" />
<circle cx="219.19" cy="176.15" r="1.6666666666666667" />
<circle cx="219.19" cy="176.15" r="1.6666666666666667" />
<circle cx="219.19" cy="176.15" r="1.6666666666666667" />
<circle cx="219.19" cy="176.15" r="1.6666666666666667" />
<circle cx="219.19" cy="176.15" r="1.6666666666666667" />
<circle cx="219.19" cy="176.15" r="1.6666666666666667" />
<circle cx="219.19" cy="176.15" r="1.6666666666666667" />
<circle cx="219.19" cy="176.15" r="1.6666666666666667" />
<circle cx="219.20" cy="176.15" r="1.6666666666666667" />
<circle cx="219.20" cy="176.15" r="1.6666666666666667" />
<circle cx="219.20" cy="176.15" r="1.6666666666666667" />
<circle cx="219.20" cy="176.15" r="1.6666666666666667" />
<circle cx="219.20" cy="176.15" r="1.6666666666666667" />
<circle cx="219.20" cy="176.15" r="1.6666666666666667" />
<circle cx="219.20" cy="176.15" r="1.6666666666666667" />
<circle cx="219.20" cy="176.15" r="1.6666666666666667" />
<circle cx="219.20" cy="176.15" r="1.6666666666666667" />
<circle cx="219.20" cy="176.15" r="1.6666666666666667" />
<circle cx="219.20" cy="176.15" r="1.6666666666666667" />
<circle cx="219.20" cy="176.15" r="1.6666666666666667" />
<circle cx="219.20" cy="176.15" r="1.6666666666666667" />
<circle cx="219.20" cy="176.15" r="1.6666666666666667" />
<circle cx="219.20" cy="176.15" r="1.6666666666666667" />
<circle cx="219.20" cy="176.15" r="1.6666666666666667" />
<circle cx="219.20" cy="176.15" r="1.6666666666666667" />
<circle cx="219.20" cy="176.15" r="1.6666666666666667" />
<circle cx="219.20" cy="176.15" r="1.6666666666666667" />
<circle cx="219.20" cy="176.15" r="1.6666666666666667" />
<circle cx="219.20" cy="176.15" r="1.6666666666666667" />
<circle cx="219.20" cy="176.15" r="1.6666666666666667" />
<circle cx="219.20" cy="176.15" r="1.6666666666666667" />
<circle cx="219.20" cy="176.15" r="1.6666666666666667" />
<circle cx="219.20" cy="176.15" r="1.6666666666666667" />
<circle cx="219.20" cy="176.15" r="1.6666666666666667" />
<circle cx="219.20" cy="176.15" r="1.6666666666666667" />
<circle cx="219.20" cy="176.15" r="1.6666666666666667" />
<circle cx="219.20" cy="176.15" r="1.6666666666666667" />
<circle cx="219.20" cy="176.15" r="1.6666666666666667" />
<circle cx="219.20" cy="176.15" r="1.6666666666666667" />
<circle cx="219.20" cy="176.15" r="1.6666666666666667" />
<circle cx="219.20" cy="176.15" r="1.6666666666666667" />
<circle cx="219.20" cy="176.15" r="1.6666666666666667" />
<circle cx="219.20" cy="176.15" r="1.6666666666666667" />
<circle cx="219.20" cy="176.15" r="1.6666666666666667" />
<circle cx="219.20" cy="176.15" r="1.6666666666666667" />
<circle cx="219.20" cy="176.15" r="1.6666666666666667" />
<circle cx="219.20" cy="176.15" r="1.6666666666666667" />
<circle cx="219.20" cy="176.15" r="1.6666666666666667" />
<circle cx="219.20" cy="176.15" r="1.6666666666666667" />
<circle cx="219.20" cy="176.15" r="1.6666666666666667" />
<circle cx="219.20" cy="176.15" r="1.6666666666666667" />
<circle cx="219.20" cy="176.15" r="1.6666666666666667" />
<circle cx="219.20" cy="176.15" r="1.6666666666666667" />
<circle cx="219.20" cy="176.15" r="1.6666666666666667" />
<circle cx="219.20" cy="176.15" r="1.6666666666666667" />
<circle cx="219.20" cy="176.15" r="1.6666666666666667" />
<circle cx="219.20" cy="176.15" r="1.6666666666666667" />
<circle cx="219.20" cy="176.15" r="1.6666666666666667" />
<circle cx="219.20" cy="176.15" r="1.6666666666666667" />
<circle cx="219.20" cy="176.15" r="1.6666666666666667" />
<circle cx="219.20" cy="176.15" r="1.6666666666666667" />
<circle cx="219.20" cy="176.15" r="1.6666666666666667" />
<circle cx="219.20" cy="176.15" r="1.6666666666666667" />
<circle cx="219.20" cy="176.15" r="1.6666666666666667" />
<circle cx="219.20" cy="176.15" r="1.6666666666666667" />
<circle cx="219.20" cy="176.15" r="1.6666666666666667" />
<circle cx="219.20" cy="196.51" r="1.6666666666666667" />
<circle cx="219.20" cy="176.15" r="1.6666666666666667" />
<circle cx="219.20" cy="176.15" r="1.6666666666666667" />
<circle cx="219.20" cy="176.15" r="1.6666666666666667" />
<circle cx="219.20" cy="176.15" r="1.6666666666666667" />
<circle cx="219.20" cy="176.15" r="1.6666666666666667" />
<circle cx="219.20" cy="176.15" r="1.6666666666666667" />
<circle cx="219.20" cy="176.15" r="1.6666666666666667" />
<circle cx="219.20" cy="176.15" r="1.6666666666666667" />
<circle cx="219.20" cy="176.15" r="1.6666666666666667" />
<circle cx="219.20" cy="176.15" r="1.6666666666666667" />
<circle cx="219.20" cy="176.15" r="1.6666666666666667" />
<circle cx="219.20" cy="176.15" r="1.6666666666666667" />
<circle cx="219.20" cy="176.15" r="1.6666666666666667" />
<circle cx="219.20" cy="176.15" r="1.6666666666666667" />
<circle cx="219.20" cy="176.15" r="1.6666666666666667" />
<circle cx="219.20" cy="176.15" r="1.6666666666666667" />
<circle cx="219.20" cy="176.15" r="1.6666666666666667" />
<circle cx="219.20" cy="176.15" r="1.6666666666666667" />
<circle cx="219.20" cy="176.15" r="1.6666666666666667" />
<circle cx="219.20" cy="176.15" r="1.6666666666666667" />
<circle cx="219.20" cy="176.15" r="1.6666666666666667" />
<circle cx="219.20" cy="176.15" r="1.6666666666666667" />
<circle cx="219.20" cy="176.15" r="1.6666666666666667" />
<circle cx="219.20" cy="176.15" r="1.6666666666666667" />
<circle cx="219.20" cy="176.15" r="1.6666666666666667" />
<circle cx="219.20" cy="176.15" r="1.6666666666666667" />
<circle cx="219.20" cy="176.15" r="1.6666666666666667" />
<circle cx="219.20" cy="176.15" r="1.6666666666666667" />
<circle cx="219.20" cy="176.15" r="1.6666666666666667" />
<circle cx="219.20" cy="176.15" r="1.6666666666666667" />
<circle cx="219.20" cy="176.15" r="1.6666666666666667" />
<circle cx="219.20" cy="176.15" r="1.6666666666666667" />
<circle cx="219.20" cy="176.15" r="1.6666666666666667" />
<circle cx="219.20" cy="176.15" r="1.6666666666666667" />
<circle cx="219.20" cy="176.15" r="1.6666666666666667" />
<circle cx="219.20" cy="176.15" r="1.6666666666666667" />
<circle cx="219.20" cy="176.15" r="1.6666666666666667" />
<circle cx="219.20" cy="176.15" r="1.6666666666666667" />
<circle cx="219.20" cy="176.15" r="1.6666666666666667" />
<circle cx="219.20" cy="176.15" r="1.6666666666666667" />
<circle cx="219.20" cy="176.15" r="1.6666666666666667" />
<circle cx="219.20" cy="176.15" r="1.6666666666666667" />
<circle cx="219.20" cy="176.15" r="1.6666666666666667" />
<circle cx="219.20" cy="176.15" r="1.6666666666666667" />
<circle cx="219.20" cy="176.15" r="1.6666666666666667" />
<circle cx="219.20" cy="176.15" r="1.6666666666666667" />
<circle cx="219.20" cy="176.15" r="1.6666666666666667" />
<circle cx="219.20" cy="176.15" r="1.6666666666666667" />
<circle cx="219.20" cy="176.15" r="1.6666666666666667" />
<circle cx="219.20" cy="176.15" r="1.6666666666666667" />
<circle cx="219.20" cy="176.15" r="1.6666666666666667" />
<circle cx="219.20" cy="176.15" r="1.6666666666666667" />
<circle cx="219.20" cy="176.15" r="1.6666666666666667" />
<circle cx="219.20" cy="176.15" r="1.6666666666666667" />
<circle cx="219.20" cy="176.15" r="1.6666666666666667" />
<circle cx="219.20" cy="176.15" r="1.6666666666666667" />
<circle cx="219.20" cy="176.15" r="1.6666666666666667" />
<circle cx="219.20" cy="176.15" r="1.6666666666666667" />
<circle cx="219.20" cy="176.15" r="1.6666666666666667" />
<circle cx="219.20" cy="176.15" r="1.6666666666666667" />
<circle cx="219.20" cy="176.15" r="1.6666666666666667" />
<circle cx="219.20" cy="257.58" r="1.6666666666666667" />
<circle cx="219.20" cy="176.15" r="1.6666666666666667" />
<circle cx="219.20" cy="176.15" r="1.6666666666666667" />
<circle cx="219.20" cy="176.15" r="1.6666666666666667" />
<circle cx="219.20" cy="176.15" r="1.6666666666666667" />
<circle cx="219.20" cy="176.15" r="1.6666666666666667" />
<circle cx="219.20" cy="176.15" r="1.6666666666666667" />
<circle cx="219.20" cy="176.15" r="1.6666666666666667" />
<circle cx="219.20" cy="176.15" r="1.6666666666666667" />
<circle cx="219.20" cy="176.15" r="1.6666666666666667" />
<circle cx="219.20" cy="176.15" r="1.6666666666666667" />
<circle cx="219.20" cy="176.15" r="1.6666666666666667" />
<circle cx="219.20" cy="176.15" r="1.6666666666666667" />
<circle cx="219.20" cy="176.15" r="1.6666666666666667" />
<circle cx="219.20" cy="176.15" r="1.6666666666666667" />
<circle cx="219.20" cy="176.15" r="1.6666666666666667" />
<circle cx="219.20" cy="176.15" r="1.6666666666666667" />
<circle cx="219.20" cy="176.15" r="1.6666666666666667" />
<circle cx="219.20" cy="176.15" r="1.6666666666666667" />
<circle cx="219.20" cy="176.15" r="1.6666666666666667" />
<circle cx="219.20" cy="176.15" r="1.6666666666666667" />
<circle cx="219.20" cy="176.15" r="1.6666666666666667" />
<circle cx="219.20" cy="176.15" r="1.6666666666666667" />
<circle cx="219.20" cy="176.15" r="1.6666666666666667" />
<circle cx="219.20" cy="176.15" r="1.6666666666666667" />
<circle cx="219.20" cy="176.15" r="1.6666666666666667" />
<circle cx="219.20" cy="176.15" r="1.6666666666666667" />
<circle cx="219.20" cy="176.15" r="1.6666666666666667" />
<circle cx="219.20" cy="176.15" r="1.6666666666666667" />
<circle cx="219.20" cy="176.15" r="1.6666666666666667" />
<circle cx="219.20" cy="176.15" r="1.6666666666666667" />
<circle cx="219.20" cy="176.15" r="1.6666666666666667" />
<circle cx="219.20" cy="176.15" r="1.6666666666666667" />
<circle cx="219.20" cy="176.15" r="1.6666666666666667" />
<circle cx="219.20" cy="176.15" r="1.6666666666666667" />
<circle cx="219.20" cy="176.15" r="1.6666666666666667" />
<circle cx="219.20" cy="176.15" r="1.6666666666666667" />
<circle cx="219.20" cy="176.15" r="1.6666666666666667" />
<circle cx="219.20" cy="176.15" r="1.6666666666666667" />
<circle cx="219.20" cy="176.15" r="1.6666666666666667" />
<circle cx="219.20" cy="176.15" r="1.6666666666666667" />
<circle cx="219.20" cy="176.15" r="1.6666666666666667" />
<circle cx="219.20" cy="176.15" r="1.6666666666666667" />
<circle cx="219.20" cy="176.15" r="1.6666666666666667" />
<circle cx="219.20" cy="176.15" r="1.6666666666666667" />
<circle cx="219.20" cy="176.15" r="1.6666666666666667" />
<circle cx="219.20" cy="176.15" r="1.6666666666666667" />
<circle cx="219.20" cy="176.15" r="1.6666666666666667" />
<circle cx="219.20" cy="176.15" r="1.6666666666666667" />
<circle cx="219.20" cy="176.15" r="1.6666666666666667" />
<circle cx="219.20" cy="176.15" r="1.6666666666666667" />
<circle cx="219.20" cy="176.15" r="1.6666666666666667" />
<circle cx="219.20" cy="176.15" r="1.6666666666666667" />
<circle cx="219.20" cy="176.15" r="1.6666666666666667" />
<circle cx="219.20" cy="176.15" r="1.6666666666666667" />
<circle cx="219.20" cy="176.15" r="1.6666666666666667" />
<circle cx="219.20" cy="176.15" r="1.6666666666666667" />
<circle cx="219.20" cy="176.15" r="1.6666666666666667" />
<circle cx="219.20" cy="176.15" r="1.6666666666666667" />
<circle cx="219.20" cy="176.15" r="1.6666666666666667" />
<circle cx="219.20" cy="176.15" r="1.6666666666666667" />
<circle cx="219.20" cy="176.15" r="1.6666666666666667" />
<circle cx="219.20" cy="176.15" r="1.6666666666666667" />
<circle cx="219.20" cy="176.15" r="1.6666666666666667" />
<circle cx="219.20" cy="176.15" r="1.6666666666666667" />
<circle cx="219.20" cy="176.15" r="1.6666666666666667" />
<circle cx="219.20" cy="176.15" r="1.6666666666666667" />
<circle cx="219.20" cy="176.15" r="1.6666666666666667" />
<circle cx="219.20" cy="176.15" r="1.6666666666666667" />
<circle cx="219.20" cy="176.15" r="1.6666666666666667" />
<circle cx="219.20" cy="176.15" r="1.6666666666666667" />
<circle cx="219.20" cy="176.15" r="1.6666666666666667" />
<circle cx="219.20" cy="176.15" r="1.6666666666666667" />
<circle cx="219.20" cy="176.15" r="1.6666666666666667" />
<circle cx="219.20" cy="176.15" r="1.6666666666666667" />
<circle cx="219.20" cy="176.15" r="1.6666666666666667" />
<circle cx="219.20" cy="176.15" r="1.6666666666666667" />
<circle cx="219.20" cy="176.15" r="1.6666666666666667" />
<circle cx="219.20" cy="176.15" r="1.6666666666666667" />
<circle cx="219.20" cy="176.15" r="1.6666666666666667" />
<circle cx="219.20" cy="176.15" r="1.6666666666666667" />
<circle cx="219.20" cy="176.15" r="1.6666666666666667" />
<circle cx="219.20" cy="176.15" r="1.6666666666666667" />
<circle cx="219.20" cy="176.15" r="1.6666666666666667" />
<circle cx="219.20" cy="176.15" r="1.6666666666666667" />
<circle cx="219.20" cy="176.15" r="1.6666666666666667" />
<circle cx="219.20" cy="176.15" r="1.6666666666666667" />
<circle cx="219.20" cy="176.15" r="1.6666666666666667" />
<circle cx="219.20" cy="176.15" r="1.6666666666666667" />
<circle cx="219.20" cy="176.15" r="1.6666666666666667" />
<circle cx="219.20" cy="176.15" r="1.6666666666666667" />
<circle cx="219.20" cy="176.15" r="1.6666666666666667" />
<circle cx="219.20" cy="176.15" r="1.6666666666666667" />
<circle cx="219.20" cy="176.15" r="1.6666666666666667" />
<circle cx="219.20" cy="176.15" r="1.6666666666666667" />
<circle cx="219.20" cy="176.15" r="1.6666666666666667" />
<circle cx="219.20" cy="176.15" r="1.6666666666666667" />
<circle cx="219.20" cy="176.15" r="1.6666666666666667" />
<circle cx="219.20" cy="176.15" r="1.6666666666666667" />
<circle cx="219.20" cy="176.15" r="1.6666666666666667" />
<circle cx="219.20" cy="176.15" r="1.6666666666666667" />
<circle cx="219.20" cy="176.15" r="1.6666666666666667" />
<circle cx="219.20" cy="176.15" r="1.6666666666666667" />
<circle cx="219.20" cy="176.15" r="1.6666666666666667" />
<circle cx="219.20" cy="176.15" r="1.6666666666666667" />
<circle cx="219.20" cy="176.15" r="1.6666666666666667" />
<circle cx="219.20" cy="176.15" r="1.6666666666666667" />
<circle cx="219.20" cy="176.15" r="1.6666666666666667" />
<circle cx="219.20" cy="176.15" r="1.6666666666666667" />
<circle cx="219.20" cy="176.15" r="1.6666666666666667" />
<circle cx="219.20" cy="176.15" r="1.6666666666666667" />
<circle cx="219.20" cy="176.15" r="1.6666666666666667" />
<circle cx="219.20" cy="176.15" r="1.6666666666666667" />
<circle cx="219.20" cy="176.15" r="1.6666666666666667" />
<circle cx="219.20" cy="176.15" r="1.6666666666666667" />
<circle cx="219.20" cy="176.15" r="1.6666666666666667" />
<circle cx="219.20" cy="176.15" r="1.6666666666666667" />
<circle cx="219.20" cy="176.15" r="1.6666666666666667" />
<circle cx="219.20" cy="176.15" r="1.6666666666666667" />
<circle cx="219.20" cy="176.15" r="1.6666666666666667" />
<circle cx="219.20" cy="176.15" r="1.6666666666666667" />
<circle cx="219.20" cy="176.15" r="1.6666666666666667" />
<circle cx="219.20" cy="176.15" r="1.6666666666666667" />
<circle cx="219.20" cy="176.15" r="1.6666666666666667" />
<circle cx="219.20" cy="176.15" r="1.6666666666666667" />
<circle cx="219.20" cy="176.15" r="1.6666666666666667" />
<circle cx="219.20" cy="176.15" r="1.6666666666666667" />
<circle cx="219.20" cy="176.15" r="1.6666666666666667" />
<circle cx="219.20" cy="176.15" r="1.6666666666666667" />
<circle cx="219.20" cy="176.15" r="1.6666666666666667" />
<circle cx="219.20" cy="176.15" r="1.6666666666666667" />
<circle cx="219.20" cy="176.15" r="1.6666666666666667" />
<circle cx="219.20" cy="176.15" r="1.6666666666666667" />
<circle cx="219.20" cy="176.15" r="1.6666666666666667" />
<circle cx="219.20" cy="176.15" r="1.6666666666666667" />
<circle cx="219.20" cy="176.15" r="1.6666666666666667" />
<circle cx="219.20" cy="176.15" r="1.6666666666666667" />
<circle cx="219.20" cy="176.15" r="1.6666666666666667" />
<circle cx="219.20" cy="257.58" r="1.6666666666666667" />
<circle cx="219.20" cy="176.15" r="1.6666666666666667" />
<circle cx="219.20" cy="176.15" r="1.6666666666666667" />
<circle cx="219.20" cy="176.15" r="1.6666666666666667" />
<circle cx="219.20" cy="176.15" r="1.6666666666666667" />
<circle cx="219.20" cy="176.15" r="1.6666666666666667" />
<circle cx="219.20" cy="176.15" r="1.6666666666666667" />
<circle cx="219.20" cy="176.15" r="1.6666666666666667" />
<circle cx="219.20" cy="176.15" r="1.6666666666666667" />
<circle cx="219.20" cy="176.15" r="1.6666666666666667" />
<circle cx="219.20" cy="176.15" r="1.6666666666666667" />
<circle cx="219.20" cy="257.58" r="1.6666666666666667" />
<circle cx="219.20" cy="176.15" r="1.6666666666666667" />
<circle cx="219.20" cy="176.15" r="1.6666666666666667" />
<circle cx="219.20" cy="176.15" r="1.6666666666666667" />
<circle cx="219.20" cy="176.15" r="1.6666666666666667" />
<circle cx="219.20" cy="176.15" r="1.6666666666666667" />
<circle cx="219.20" cy="176.15" r="1.6666666666666667" />
<circle cx="219.20" cy="176.15" r="1.6666666666666667" />
<circle cx="219.20" cy="176.15" r="1.6666666666666667" />
<circle cx="219.20" cy="176.15" r="1.6666666666666667" />
<circle cx="219.20" cy="176.15" r="1.6666666666666667" />
<circle cx="219.20" cy="176.15" r="1.6666666666666667" />
<circle cx="219.20" cy="176.15" r="1.6666666666666667" />
<circle cx="219.20" cy="176.15" r="1.6666666666666667" />
<circle cx="219.20" cy="176.15" r="1.6666666666666667" />
<circle cx="219.20" cy="176.15" r="1.6666666666666667" />
<circle cx="219.20" cy="176.15" r="1.6666666666666667" />
<circle cx="219.20" cy="176.15" r="1.6666666666666667" />
<circle cx="219.20" cy="176.15" r="1.6666666666666667" />
<circle cx="219.20" cy="176.15" r="1.6666666666666667" />
<circle cx="219.20" cy="176.15" r="1.6666666666666667" />
<circle cx="219.20" cy="176.15" r="1.6666666666666667" />
<circle cx="219.20" cy="176.15" r="1.6666666666666667" />
<circle cx="219.20" cy="176.15" r="1.6666666666666667" />
<circle cx="219.20" cy="176.15" r="1.6666666666666667" />
<circle cx="219.20" cy="176.15" r="1.6666666666666667" />
<circle cx="219.20" cy="176.15" r="1.6666666666666667" />
<circle cx="219.20" cy="176.15" r="1.6666666666666667" />
<circle cx="219.20" cy="176.15" r="1.6666666666666667" />
<circle cx="219.20" cy="176.15" r="1.6666666666666667" />
<circle cx="219.20" cy="176.15" r="1.6666666666666667" />
<circle cx="219.20" cy="176.15" r="1.6666666666666667" />
<circle cx="219.20" cy="176.15" r="1.6666666666666667" />
<circle cx="219.20" cy="176.15" r="1.6666666666666667" />
<circle cx="219.20" cy="176.15" r="1.6666666666666667" />
<circle cx="219.20" cy="176.15" r="1.6666666666666667" />
<circle cx="219.20" cy="176.15" r="1.6666666666666667" />
<circle cx="219.20" cy="176.15" r="1.6666666666666667" />
<circle cx="219.20" cy="176.15" r="1.6666666666666667" />
<circle cx="219.20" cy="176.15" r="1.6666666666666667" />
<circle cx="219.20" cy="176.15" r="1.6666666666666667" />
<circle cx="219.20" cy="176.15" r="1.6666666666666667" />
<circle cx="219.20" cy="176.15" r="1.6666666666666667" />
<circle cx="219.20" cy="176.15" r="1.6666666666666667" />
<circle cx="219.20" cy="176.15" r="1.6666666666666667" />
<circle cx="219.20" cy="176.15" r="1.6666666666666667" />
<circle cx="219.20" cy="176.15" r="1.6666666666666667" />
<circle cx="219.20" cy="176.15" r="1.6666666666666667" />
<circle cx="219.20" cy="176.15" r="1.6666666666666667" />
<circle cx="219.20" cy="176.15" r="1.6666666666666667" />
<circle cx="219.20" cy="176.15" r="1.6666666666666667" />
<circle cx="219.20" cy="176.15" r="1.6666666666666667" />
<circle cx="219.20" cy="176.15" r="1.6666666666666667" />
<circle cx="219.20" cy="176.15" r="1.6666666666666667" />
<circle cx="219.20" cy="176.15" r="1.6666666666666667" />
<circle cx="219.20" cy="176.15" r="1.6666666666666667" />
<circle cx="219.20" cy="176.15" r="1.6666666666666667" />
<circle cx="219.20" cy="176.15" r="1.6666666666666667" />
<circle cx="219.20" cy="176.15" r="1.6666666666666667" />
<circle cx="219.20" cy="176.15" r="1.6666666666666667" />
<circle cx="219.20" cy="176.15" r="1.6666666666666667" />
<circle cx="219.20" cy="176.15" r="1.6666666666666667" />
<circle cx="219.20" cy="176.15" r="1.6666666666666667" />
<circle cx="219.20" cy="176.15" r="1.6666666666666667" />
<circle cx="219.20" cy="176.15" r="1.6666666666666667" />
<circle cx="219.20" cy="176.15" r="1.6666666666666667" />
<circle cx="219.20" cy="176.15" r="1.6666666666666667" />
<circle cx="219.20" cy="176.15" r="1.6666666666666667" />
<circle cx="219.20" cy="176.15" r="1.6666666666666667" />
<circle cx="219.20" cy="176.15" r="1.6666666666666667" />
<circle cx="219.20" cy="176.15" r="1.6666666666666667" />
<circle cx="219.20" cy="176.15" r="1.6666666666666667" />
<circle cx="219.20" cy="176.15" r="1.6666666666666667" />
<circle cx="219.20" cy="176.15" r="1.6666666666666667" />
<circle cx="219.20" cy="176.15" r="1.6666666666666667" />
<circle cx="219.20" cy="176.15" r="1.6666666666666667" />
<circle cx="219.20" cy="176.15" r="1.6666666666666667" />
<circle cx="219.20" cy="176.15" r="1.6666666666666667" />
<circle cx="219.20" cy="176.15" r="1.6666666666666667" />
<circle cx="219.20" cy="176.15" r="1.6666666666666667" />
<circle cx="219.20" cy="176.15" r="1.6666666666666667" />
<circle cx="219.20" cy="176.15" r="1.6666666666666667" />
<circle cx="219.20" cy="176.15" r="1.6666666666666667" />
<circle cx="219.20" cy="176.15" r="1.6666666666666667" />
<circle cx="219.20" cy="176.15" r="1.6666666666666667" />
<circle cx="219.20" cy="176.15" r="1.6666666666666667" />
<circle cx="219.20" cy="176.15" r="1.6666666666666667" />
<circle cx="219.20" cy="176.15" r="1.6666666666666667" />
<circle cx="219.20" cy="176.15" r="1.6666666666666667" />
<circle cx="219.20" cy="176.15" r="1.6666666666666667" />
<circle cx="219.20" cy="176.15" r="1.6666666666666667" />
<circle cx="219.20" cy="176.15" r="1.6666666666666667" />
<circle cx="219.20" cy="176.15" r="1.6666666666666667" />
<circle cx="219.20" cy="176.15" r="1.6666666666666667" />
<circle cx="219.20" cy="176.15" r="1.6666666666666667" />
<circle cx="219.20" cy="176.15" r="1.6666666666666667" />
<circle cx="219.20" cy="257.58" r="1.6666666666666667" />
<circle cx="219.20" cy="176.15" r="1.6666666666666667" />
<circle cx="219.20" cy="176.15" r="1.6666666666666667" />
<circle cx="219.20" cy="176.15" r="1.6666666666666667" />
<circle cx="219.20" cy="176.15" r="1.6666666666666667" />
<circle cx="219.20" cy="176.15" r="1.6666666666666667" />
<circle cx="219.20" cy="176.15" r="1.6666666666666667" />
<circle cx="219.20" cy="176.15" r="1.6666666666666667" />
<circle cx="219.20" cy="176.15" r="1.6666666666666667" />
<circle cx="219.20" cy="176.15" r="1.6666666666666667" />
<circle cx="219.20" cy="176.15" r="1.6666666666666667" />
<circle cx="219.20" cy="176.15" r="1.6666666666666667" />
<circle cx="219.20" cy="176.15" r="1.6666666666666667" />
<circle cx="219.20" cy="176.15" r="1.6666666666666667" />
<circle cx="219.20" cy="176.15" r="1.6666666666666667" />
<circle cx="219.20" cy="176.15" r="1.6666666666666667" />
<circle cx="219.20" cy="176.15" r="1.6666666666666667" />
<circle cx="219.20" cy="176.15" r="1.6666666666666667" />
<circle cx="219.20" cy="176.15" r="1.6666666666666667" />
<circle cx="219.20" cy="176.15" r="1.6666666666666667" />
<circle cx="219.20" cy="176.15" r="1.6666666666666667" />
<circle cx="219.20" cy="176.15" r="1.6666666666666667" />
<circle cx="219.20" cy="176.15" r="1.6666666666666667" />
<circle cx="219.20" cy="176.15" r="1.6666666666666667" />
<circle cx="219.20" cy="176.15" r="1.6666666666666667" />
<circle cx="219.20" cy="176.15" r="1.6666666666666667" />
<circle cx="219.20" cy="176.15" r="1.6666666666666667" />
<circle cx="219.20" cy="176.15" r="1.6666666666666667" />
<circle cx="219.20" cy="176.15" r="1.6666666666666667" />
<circle cx="219.20" cy="176.15" r="1.6666666666666667" />
<circle cx="219.20" cy="176.15" r="1.6666666666666667" />
<circle cx="219.20" cy="176.15" r="1.6666666666666667" />
<circle cx="219.20" cy="176.15" r="1.6666666666666667" />
<circle cx="219.20" cy="176.15" r="1.6666666666666667" />
<circle cx="219.20" cy="176.15" r="1.6666666666666667" />
<circle cx="219.20" cy="176.15" r="1.6666666666666667" />
<circle cx="219.20" cy="176.15" r="1.6666666666666667" />
<circle cx="219.20" cy="176.15" r="1.6666666666666667" />
<circle cx="219.20" cy="176.15" r="1.6666666666666667" />
<circle cx="219.20" cy="176.15" r="1.6666666666666667" />
<circle cx="219.20" cy="196.51" r="1.6666666666666667" />
<circle cx="219.20" cy="176.15" r="1.6666666666666667" />
<circle cx="219.20" cy="176.15" r="1.6666666666666667" />
<circle cx="219.20" cy="176.15" r="1.6666666666666667" />
<circle cx="219.20" cy="176.15" r="1.6666666666666667" />
<circle cx="219.20" cy="257.58" r="1.6666666666666667" />
<circle cx="219.20" cy="176.15" r="1.6666666666666667" />
<circle cx="219.20" cy="176.15" r="1.6666666666666667" />
<circle cx="219.20" cy="176.15" r="1.6666666666666667" />
<circle cx="219.21" cy="314.74" r="1.6666666666666667" />
<circle cx="219.21" cy="176.15" r="1.6666666666666667" />
<circle cx="219.21" cy="176.15" r="1.6666666666666667" />
<circle cx="219.21" cy="176.15" r="1.6666666666666667" />
<circle cx="219.21" cy="176.15" r="1.6666666666666667" />
<circle cx="219.21" cy="176.15" r="1.6666666666666667" />
<circle cx="219.21" cy="176.15" r="1.6666666666666667" />
<circle cx="219.21" cy="176.15" r="1.6666666666666667" />
<circle cx="219.21" cy="176.15" r="1.6666666666666667" />
<circle cx="219.21" cy="176.15" r="1.6666666666666667" />
<circle cx="219.21" cy="176.15" r="1.6666666666666667" />
<circle cx="219.21" cy="176.15" r="1.6666666666666667" />
<circle cx="219.21" cy="176.15" r="1.6666666666666667" />
<circle cx="219.21" cy="176.15" r="1.6666666666666667" />
<circle cx="219.21" cy="176.15" r="1.6666666666666667" />
<circle cx="219.21" cy="176.15" r="1.6666666666666667" />
<circle cx="219.21" cy="176.15" r="1.6666666666666667" />
<circle cx="219.21" cy="176.15" r="1.6666666666666667" />
<circle cx="219.21" cy="176.15" r="1.6666666666666667" />
<circle cx="219.21" cy="176.15" r="1.6666666666666667" />
<circle cx="219.21" cy="176.15" r="1.6666666666666667" />
<circle cx="219.21" cy="176.15" r="1.6666666666666667" />
<circle cx="219.21" cy="176.15" r="1.6666666666666667" />
<circle cx="219.21" cy="176.15" r="1.6666666666666667" />
<circle cx="219.21" cy="176.15" r="1.6666666666666667" />
<circle cx="219.21" cy="176.15" r="1.6666666666666667" />
<circle cx="219.21" cy="176.15" r="1.6666666666666667" />
<circle cx="219.21" cy="176.15" r="1.6666666666666667" />
<circle cx="219.21" cy="176.15" r="1.6666666666666667" />
<circle cx="219.21" cy="176.15" r="1.6666666666666667" />
<circle cx="219.21" cy="176.15" r="1.6666666666666667" />
<circle cx="219.21" cy="176.15" r="1.6666666666666667" />
<circle cx="219.21" cy="176.15" r="1.6666666666666667" />
<circle cx="219.21" cy="176.15" r="1.6666666666666667" />
<circle cx="219.21" cy="176.15" r="1.6666666666666667" />
<circle cx="219.21" cy="176.15" r="1.6666666666666667" />
<circle cx="219.21" cy="176.15" r="1.6666666666666667" />
<circle cx="219.21" cy="176.15" r="1.6666666666666667" />
<circle cx="219.21" cy="176.15" r="1.6666666666666667" />
<circle cx="219.21" cy="176.15" r="1.6666666666666667" />
<circle cx="219.21" cy="176.15" r="1.6666666666666667" />
<circle cx="219.21" cy="176.15" r="1.6666666666666667" />
<circle cx="219.21" cy="176.15" r="1.6666666666666667" />
<circle cx="219.21" cy="176.15" r="1.6666666666666667" />
<circle cx="219.21" cy="176.15" r="1.6666666666666667" />
<circle cx="219.21" cy="176.15" r="1.6666666666666667" />
<circle cx="219.21" cy="176.15" r="1.6666666666666667" />
<circle cx="219.21" cy="176.15" r="1.6666666666666667" />
<circle cx="219.21" cy="176.15" r="1.6666666666666667" />
<circle cx="219.21" cy="176.15" r="1.6666666666666667" />
<circle cx="219.21" cy="176.15" r="1.6666666666666667" />
<circle cx="219.21" cy="176.15" r="1.6666666666666667" />
<circle cx="219.21" cy="176.15" r="1.6666666666666667" />
<circle cx="219.21" cy="176.15" r="1.6666666666666667" />
<circle cx="219.21" cy="176.15" r="1.6666666666666667" />
<circle cx="219.21" cy="176.15" r="1.6666666666666667" />
<circle cx="219.21" cy="176.15" r="1.6666666666666667" />
<circle cx="219.21" cy="176.15" r="1.6666666666666667" />
<circle cx="219.21" cy="176.15" r="1.6666666666666667" />
<circle cx="219.21" cy="176.15" r="1.6666666666666667" />
<circle cx="219.21" cy="176.15" r="1.6666666666666667" />
<circle cx="219.21" cy="176.15" r="1.6666666666666667" />
<circle cx="219.21" cy="176.15" r="1.6666666666666667" />
<circle cx="219.21" cy="176.15" r="1.6666666666666667" />
<circle cx="219.21" cy="176.15" r="1.6666666666666667" />
<circle cx="219.21" cy="176.15" r="1.6666666666666667" />
<circle cx="219.21" cy="176.15" r="1.6666666666666667" />
<circle cx="219.21" cy="176.15" r="1.6666666666666667" />
<circle cx="219.21" cy="176.15" r="1.6666666666666667" />
<circle cx="219.21" cy="176.15" r="1.6666666666666667" />
<circle cx="219.21" cy="176.15" r="1.6666666666666667" />
<circle cx="219.21" cy="176.15" r="1.6666666666666667" />
<circle cx="219.21" cy="176.15" r="1.6666666666666667" />
<circle cx="219.21" cy="176.15" r="1.6666666666666667" />
<circle cx="219.21" cy="176.15" r="1.6666666666666667" />
<circle cx="219.21" cy="176.15" r="1.6666666666666667" />
<circle cx="219.21" cy="176.15" r="1.6666666666666667" />
<circle cx="219.21" cy="176.15" r="1.6666666666666667" />
<circle cx="219.21" cy="176.15" r="1.6666666666666667" />
<circle cx="219.21" cy="176.15" r="1.6666666666666667" />
<circle cx="219.21" cy="176.15" r="1.6666666666666667" />
<circle cx="219.21" cy="176.15" r="1.6666666666666667" />
<circle cx="219.21" cy="176.15" r="1.6666666666666667" />
<circle cx="219.21" cy="176.15" r="1.6666666666666667" />
<circle cx="219.21" cy="176.15" r="1.6666666666666667" />
<circle cx="219.21" cy="176.15" r="1.6666666666666667" />
<circle cx="219.21" cy="176.15" r="1.6666666666666667" />
<circle cx="219.21" cy="176.15" r="1.6666666666666667" />
<circle cx="219.21" cy="176.15" r="1.6666666666666667" />
<circle cx="219.21" cy="176.15" r="1.6666666666666667" />
<circle cx="219.21" cy="176.15" r="1.6666666666666667" />
<circle cx="219.21" cy="176.15" r="1.6666666666666667" />
<circle cx="219.21" cy="176.15" r="1.6666666666666667" />
<circle cx="219.21" cy="176.15" r="1.6666666666666667" />
<circle cx="219.21" cy="176.15" r="1.6666666666666667" />
<circle cx="219.21" cy="176.15" r="1.6666666666666667" />
<circle cx="219.21" cy="176.15" r="1.6666666666666667" />
<circle cx="219.21" cy="176.15" r="1.6666666666666667" />
<circle cx="219.21" cy="176.15" r="1.6666666666666667" />
<circle cx="219.21" cy="176.15" r="1.6666666666666667" />
<circle cx="219.21" cy="176.15" r="1.6666666666666667" />
<circle cx="219.21" cy="176.15" r="1.6666666666666667" />
<circle cx="219.21" cy="176.15" r="1.6666666666666667" />
<circle cx="219.21" cy="176.15" r="1.6666666666666667" />
<circle cx="219.21" cy="176.15" r="1.6666666666666667" />
<circle cx="219.21" cy="176.15" r="1.6666666666666667" />
<circle cx="219.21" cy="176.15" r="1.6666666666666667" />
<circle cx="219.21" cy="176.15" r="1.6666666666666667" />
<circle cx="219.21" cy="176.15" r="1.6666666666666667" />
<circle cx="219.21" cy="176.15" r="1.6666666666666667" />
<circle cx="219.21" cy="176.15" r="1.6666666666666667" />
<circle cx="219.21" cy="176.15" r="1.6666666666666667" />
<circle cx="219.21" cy="176.15" r="1.6666666666666667" />
<circle cx="219.21" cy="176.15" r="1.6666666666666667" />
<circle cx="219.21" cy="176.15" r="1.6666666666666667" />
<circle cx="219.21" cy="176.15" r="1.6666666666666667" />
<circle cx="219.21" cy="176.15" r="1.6666666666666667" />
<circle cx="219.21" cy="176.15" r="1.6666666666666667" />
<circle cx="219.21" cy="176.15" r="1.6666666666666667" />
<circle cx="219.21" cy="176.15" r="1.6666666666666667" />
<circle cx="219.21" cy="176.15" r="1.6666666666666667" />
<circle cx="219.21" cy="176.15" r="1.6666666666666667" />
<circle cx="219.21" cy="176.15" r="1.6666666666666667" />
<circle cx="219.21" cy="176.15" r="1.6666666666666667" />
<circle cx="219.21" cy="176.15" r="1.6666666666666667" />
<circle cx="219.21" cy="176.15" r="1.6666666666666667" />
<circle cx="219.21" cy="176.15" r="1.6666666666666667" />
<circle cx="219.21" cy="176.15" r="1.6666666666666667" />
<circle cx="219.21" cy="176.15" r="1.6666666666666667" />
<circle cx="219.21" cy="176.15" r="1.6666666666666667" />
<circle cx="219.21" cy="176.15" r="1.6666666666666667" />
<circle cx="219.21" cy="176.15" r="1.6666666666666667" />
<circle cx="219.21" cy="176.15" r="1.6666666666666667" />
<circle cx="219.21" cy="176.15" r="1.6666666666666667" />
<circle cx="219.21" cy="176.15" r="1.6666666666666667" />
<circle cx="219.21" cy="176.15" r="1.6666666666666667" />
<circle cx="219.21" cy="176.15" r="1.6666666666666667" />
<circle cx="219.21" cy="176.15" r="1.6666666666666667" />
<circle cx="219.21" cy="176.15" r="1.6666666666666667" />
<circle cx="219.21" cy="176.15" r="1.6666666666666667" />
<circle cx="219.21" cy="176.15" r="1.6666666666666667" />
<circle cx="219.21" cy="176.15" r="1.6666666666666667" />
<circle cx="219.21" cy="176.15" r="1.6666666666666667" />
<circle cx="219.21" cy="176.15" r="1.6666666666666667" />
<circle cx="219.21" cy="176.15" r="1.6666666666666667" />
<circle cx="219.21" cy="176.15" r="1.6666666666666667" />
<circle cx="219.21" cy="176.15" r="1.6666666666666667" />
<circle cx="219.21" cy="176.15" r="1.6666666666666667" />
<circle cx="219.21" cy="176.15" r="1.6666666666666667" />
<circle cx="219.21" cy="176.15" r="1.6666666666666667" />
<circle cx="219.21" cy="176.15" r="1.6666666666666667" />
<circle cx="219.21" cy="176.15" r="1.6666666666666667" />
<circle cx="219.21" cy="176.15" r="1.6666666666666667" />
<circle cx="219.21" cy="176.15" r="1.6666666666666667" />
<circle cx="219.21" cy="176.15" r="1.6666666666666667" />
<circle cx="219.21" cy="176.15" r="1.6666666666666667" />
<circle cx="219.21" cy="176.15" r="1.6666666666666667" />
<circle cx="219.21" cy="176.15" r="1.6666666666666667" />
<circle cx="219.21" cy="176.15" r="1.6666666666666667" />
<circle cx="219.21" cy="176.15" r="1.6666666666666667" />
<circle cx="219.21" cy="176.15" r="1.6666666666666667" />
<circle cx="219.21" cy="176.15" r="1.6666666666666667" />
<circle cx="219.21" cy="176.15" r="1.6666666666666667" />
<circle cx="219.21" cy="176.15" r="1.6666666666666667" />
<circle cx="219.21" cy="176.15" r="1.6666666666666667" />
<circle cx="219.21" cy="176.15" r="1.6666666666666667" />
<circle cx="219.21" cy="176.15" r="1.6666666666666667" />
<circle cx="219.21" cy="176.15" r="1.6666666666666667" />
<circle cx="219.21" cy="176.15" r="1.6666666666666667" />
<circle cx="219.21" cy="176.15" r="1.6666666666666667" />
<circle cx="219.21" cy="176.15" r="1.6666666666666667" />
<circle cx="219.21" cy="176.15" r="1.6666666666666667" />
<circle cx="219.21" cy="176.15" r="1.6666666666666667" />
<circle cx="219.21" cy="176.15" r="1.6666666666666667" />
<circle cx="219.21" cy="176.15" r="1.6666666666666667" />
<circle cx="219.21" cy="176.15" r="1.6666666666666667" />
<circle cx="219.21" cy="176.15" r="1.6666666666666667" />
<circle cx="219.21" cy="176.15" r="1.6666666666666667" />
<circle cx="219.21" cy="176.15" r="1.6666666666666667" />
<circle cx="219.21" cy="176.15" r="1.6666666666666667" />
<circle cx="219.21" cy="176.15" r="1.6666666666666667" />
<circle cx="219.21" cy="176.15" r="1.6666666666666667" />
<circle cx="219.21" cy="176.15" r="1.6666666666666667" />
<circle cx="219.21" cy="176.15" r="1.6666666666666667" />
<circle cx="219.21" cy="176.15" r="1.6666666666666667" />
<circle cx="219.21" cy="176.15" r="1.6666666666666667" />
<circle cx="219.21" cy="176.15" r="1.6666666666666667" />
<circle cx="219.21" cy="257.58" r="1.6666666666666667" />
<circle cx="219.21" cy="176.15" r="1.6666666666666667" />
<circle cx="219.21" cy="176.15" r="1.6666666666666667" />
<circle cx="219.21" cy="176.15" r="1.6666666666666667" />
<circle cx="219.21" cy="176.15" r="1.6666666666666667" />
<circle cx="219.21" cy="176.15" r="1.6666666666666667" />
<circle cx="219.21" cy="176.15" r="1.6666666666666667" />
<circle cx="219.21" cy="176.15" r="1.6666666666666667" />
<circle cx="219.21" cy="176.15" r="1.6666666666666667" />
<circle cx="219.21" cy="176.15" r="1.6666666666666667" />
<circle cx="219.21" cy="176.15" r="1.6666666666666667" />
<circle cx="219.21" cy="176.15" r="1.6666666666666667" />
<circle cx="219.21" cy="176.15" r="1.6666666666666667" />
<circle cx="219.21" cy="176.15" r="1.6666666666666667" />
<circle cx="219.21" cy="176.15" r="1.6666666666666667" />
<circle cx="219.24" cy="388.75" r="1.6666666666666667" />
<circle cx="219.24" cy="276.05" r="1.6666666666666667" />
<circle cx="219.24" cy="299.20" r="1.6666666666666667" />
<circle cx="219.24" cy="328.34" r="1.6666666666666667" />
<circle cx="219.26" cy="381.32" r="1.6666666666666667" />
<circle cx="219.26" cy="253.66" r="1.6666666666666667" />
<circle cx="219.26" cy="208.42" r="1.6666666666666667" />
<circle cx="219.26" cy="176.15" r="1.6666666666666667" />
<circle cx="219.26" cy="237.23" r="1.6666666666666667" />
<circle cx="219.27" cy="348.62" r="1.6666666666666667" />
<circle cx="219.58" cy="460.49" r="1.6666666666666667" />
<circle cx="219.80" cy="451.26" r="1.6666666666666667" />
<circle cx="220.03" cy="451.59" r="1.6666666666666667" />
<circle cx="220.25" cy="450.88" r="1.6666666666666667" />
<circle cx="220.47" cy="450.47" r="1.6666666666666667" />
<circle cx="220.69" cy="450.51" r="1.6666666666666667" />
<circle cx="220.89" cy="448.75" r="1.6666666666666667" />
<circle cx="221.11" cy="450.80" r="1.6666666666666667" />
<circle cx="221.34" cy="451.11" r="1.6666666666666667" />
<circle cx="221.55" cy="449.94" r="1.6666666666666667" />
<circle cx="221.78" cy="451.27" r="1.6666666666666667" />
<circle cx="221.99" cy="450.10" r="1.6666666666666667" />
<circle cx="222.22" cy="451.38" r="1.6666666666666667" />
<circle cx="222.45" cy="452.00" r="1.6666666666666667" />
<circle cx="222.68" cy="451.82" r="1.6666666666666667" />
<circle cx="222.91" cy="451.96" r="1.6666666666666667" />
<circle cx="223.12" cy="449.98" r="1.6666666666666667" />
<circle cx="223.34" cy="450.89" r="1.6666666666666667" />
<circle cx="223.57" cy="451.66" r="1.6666666666666667" />
<circle cx="223.80" cy="451.43" r="1.6666666666666667" />
<circle cx="224.03" cy="452.33" r="1.6666666666666667" />
<circle cx="224.25" cy="450.61" r="1.6666666666666667" />
<circle cx="224.47" cy="451.50" r="1.6666666666666667" />
<circle cx="224.71" cy="453.18" r="1.6666666666666667" />
<circle cx="224.94" cy="451.39" r="1.6666666666666667" />
<circle cx="225.17" cy="452.35" r="1.6666666666666667" />
<circle cx="225.39" cy="449.84" r="1.6666666666666667" />
<circle cx="225.62" cy="452.53" r="1.6666666666666667" />
<circle cx="225.86" cy="452.78" r="1.6666666666666667" />
<circle cx="226.10" cy="453.57" r="1.6666666666666667" />
<circle cx="226.34" cy="453.01" r="1.6666666666666667" />
<circle cx="226.57" cy="452.59" r="1.6666666666666667" />
<circle cx="226.81" cy="452.42" r="1.6666666666666667" />
<circle cx="227.03" cy="451.67" r="1.6666666666666667" />
<circle cx="227.27" cy="453.01" r="1.6666666666666667" />
<circle cx="227.51" cy="452.67" r="1.6666666666666667" />
<circle cx="227.74" cy="452.08" r="1.6666666666666667" />
<circle cx="227.98" cy="453.45" r="1.6666666666666667" />
<circle cx="228.21" cy="452.42" r="1.6666666666666667" />
<circle cx="228.45" cy="453.36" r="1.6666666666666667" />
<circle cx="228.69" cy="452.91" r="1.6666666666666667" />
<circle cx="228.94" cy="453.98" r="1.6666666666666667" />
<circle cx="229.19" cy="454.25" r="1.6666666666666667" />
<circle cx="229.44" cy="454.55" r="1.6666666666666667" />
<circle cx="229.68" cy="453.64" r="1.6666666666666667" />
<circle cx="229.92" cy="453.72" r="1.6666666666666667" />
<circle cx="230.17" cy="453.46" r="1.6666666666666667" />
<circle cx="230.42" cy="454.67" r="1.6666666666666667" />
<circle cx="230.68" cy="455.74" r="1.6666666666666667" />
<circle cx="230.94" cy="455.69" r="1.6666666666666667" />
<circle cx="231.20" cy="455.68" r="1.6666666666666667" />
<circle cx="231.46" cy="455.06" r="1.6666666666666667" />
<circle cx="231.72" cy="456.42" r="1.6666666666666667" />
<circle cx="231.99" cy="456.60" r="1.6666666666666667" />
<circle cx="232.26" cy="456.25" r="1.6666666666666667" />
<circle cx="232.52" cy="455.25" r="1.6666666666666667" />
<circle cx="232.76" cy="454.21" r="1.6666666666666667" />
<circle cx="233.03" cy="456.12" r="1.6666666666666667" />
<circle cx="233.30" cy="456.85" r="1.6666666666666667" />
<circle cx="233.56" cy="455.70" r="1.6666666666666667" />
<circle cx="233.81" cy="454.65" r="1.6666666666666667" />
<circle cx="234.08" cy="456.36" r="1.6666666666666667" />
<circle cx="234.34" cy="456.02" r="1.6666666666666667" />
<circle cx="234.60" cy="455.65" r="1.6666666666666667" />
<circle cx="234.87" cy="455.81" r="1.6666666666666667" />
<circle cx="235.12" cy="454.94" r="1.6666666666666667" />
<circle cx="235.39" cy="456.53" r="1.6666666666666667" />
<circle cx="235.65" cy="455.77" r="1.6666666666666667" />
<circle cx="235.90" cy="454.52" r="1.6666666666666667" />
<circle cx="236.16" cy="455.53" r="1.6666666666666667" />
<circle cx="236.42" cy="456.12" r="1.6666666666666667" />
<circle cx="236.68" cy="455.52" r="1.6666666666666667" />
<circle cx="236.95" cy="456.12" r="1.6666666666666667" />
<circle cx="237.20" cy="454.49" r="1.6666666666666667" />
<circle cx="237.46" cy="455.19" r="1.6666666666666667" />
<circle cx="237.73" cy="456.66" r="1.6666666666666667" />
<circle cx="238.00" cy="457.08" r="1.6666666666666667" />
<circle cx="238.26" cy="455.76" r="1.6666666666666667" />
<circle cx="238.52" cy="455.76" r="1.6666666666666667" />
<circle cx="238.80" cy="457.39" r="1.6666666666666667" />
<circle cx="239.07" cy="457.08" r="1.6666666666666667" />
<circle cx="239.33" cy="455.38" r="1.6666666666666667" />
<circle cx="239.61" cy="457.44" r="1.6666666666666667" />
<circle cx="239.88" cy="456.80" r="1.6666666666666667" />
<circle cx="240.14" cy="456.17" r="1.6666666666666667" />
<circle cx="240.42" cy="456.84" r="1.6666666666666667" />
<circle cx="240.69" cy="456.77" r="1.6666666666666667" />
<circle cx="240.95" cy="456.54" r="1.6666666666666667" />
<circle cx="241.23" cy="456.84" r="1.6666666666666667" />
<circle cx="241.48" cy="455.31" r="1.6666666666666667" />
<circle cx="241.76" cy="457.34" r="1.6666666666666667" />
<circle cx="242.03" cy="457.24" r="1.6666666666666667" />
<circle cx="242.31" cy="457.79" r="1.6666666666666667" />
<circle cx="242.58" cy="456.61" r="1.6666666666666667" />
<circle cx="242.85" cy="456.31" r="1.6666666666666667" />
<circle cx="243.13" cy="457.27" r="1.6666666666666667" />
<circle cx="243.40" cy="457.68" r="1.6666666666666667" />
<circle cx="243.68" cy="457.71" r="1.6666666666666667" />
<circle cx="243.97" cy="458.18" r="1.6666666666666667" />
<circle cx="244.24" cy="457.32" r="1.6666666666666667" />
<circle cx="244.52" cy="457.54" r="1.6666666666666667" />
<circle cx="244.80" cy="457.67" r="1.6666666666666667" />
<circle cx="245.08" cy="457.15" r="1.6666666666666667" />
<circle cx="245.35" cy="457.74" r="1.6666666666666667" />
<circle cx="245.64" cy="458.20" r="1.6666666666666667" />
<circle cx="245.92" cy="457.38" r="1.6666666666666667" />
<circle cx="246.20" cy="457.91" r="1.6666666666666667" />
<circle cx="246.47" cy="457.50" r="1.6666666666666667" />
<circle cx="246.65" cy="443.57" r="1.6666666666666667" />
<circle cx="246.82" cy="444.38" r="1.6666666666666667" />
<circle cx="247.01" cy="446.06" r="1.6666666666666667" />
<circle cx="247.17" cy="440.88" r="1.6666666666666667" />
<circle cx="247.33" cy="441.15" r="1.6666666666666667" />
<circle cx="247.49" cy="440.84" r="1.6666666666666667" />
<circle cx="247.57" cy="423.02" r="1.6666666666666667" />
<circle cx="247.59" cy="370.43" r="1.6666666666666667" />
<circle cx="247.61" cy="383.75" r="1.6666666666666667" />
<circle cx="247.80" cy="446.51" r="1.6666666666666667" />
<circle cx="247.85" cy="408.58" r="1.6666666666666667" />
<circle cx="585.89" cy="439.97" r="1.6666666666666667" />
<circle cx="586.14" cy="453.85" r="1.6666666666666667" />
<circle cx="586.27" cy="435.92" r="1.6666666666666667" />
<circle cx="586.49" cy="450.08" r="1.6666666666666667" />
<circle cx="586.64" cy="439.78" r="1.6666666666666667" />
<circle cx="586.84" cy="447.58" r="1.6666666666666667" />
<circle cx="587.02" cy="444.86" r="1.6666666666666667" />
<circle cx="587.23" cy="450.21" r="1.6666666666666667" />
<circle cx="587.40" cy="442.94" r="1.6666666666666667" />
<circle cx="587.61" cy="448.57" r="1.6666666666666667" />
<circle cx="587.78" cy="444.38" r="1.6666666666666667" />
<circle cx="587.99" cy="448.19" r="1.6666666666666667" />
<circle cx="588.15" cy="442.47" r="1.6666666666666667" />
<circle cx="588.37" cy="450.06" r="1.6666666666666667" />
<circle cx="588.55" cy="444.83" r="1.6666666666666667" />
<circle cx="588.78" cy="452.21" r="1.6666666666666667" />
<circle cx="588.97" cy="446.19" r="1.6666666666666667" />
<circle cx="589.20" cy="451.57" r="1.6666666666666667" />
<circle cx="589.40" cy="448.00" r="1.6666666666666667" />
<circle cx="589.64" cy="453.12" r="1.6666666666666667" />
<circle cx="589.81" cy="443.49" r="1.6666666666666667" />
<circle cx="590.02" cy="449.56" r="1.6666666666666667" />
<circle cx="590.19" cy="443.62" r="1.6666666666666667" />
<circle cx="590.42" cy="451.99" r="1.6666666666666667" />
<circle cx="590.61" cy="445.68" r="1.6666666666666667" />
<circle cx="590.83" cy="450.36" r="1.6666666666666667" />
<circle cx="591.02" cy="446.33" r="1.6666666666666667" />
<circle cx="591.24" cy="451.55" r="1.6666666666666667" />
<circle cx="591.43" cy="446.15" r="1.6666666666666667" />
<circle cx="591.66" cy="451.70" r="1.6666666666666667" />
<circle cx="591.84" cy="445.77" r="1.6666666666666667" />
<circle cx="592.08" cy="452.54" r="1.6666666666666667" />
<circle cx="592.27" cy="445.89" r="1.6666666666666667" />
<circle cx="592.51" cy="453.70" r="1.6666666666666667" />
<circle cx="592.71" cy="448.29" r="1.6666666666666667" />
<circle cx="592.97" cy="454.78" r="1.6666666666666667" />
<circle cx="593.19" cy="451.73" r="1.6666666666666667" />
<circle cx="593.45" cy="455.32" r="1.6666666666666667" />
<circle cx="593.66" cy="449.20" r="1.6666666666666667" />
<circle cx="593.89" cy="452.49" r="1.6666666666666667" />
<circle cx="594.11" cy="450.16" r="1.6666666666666667" />
<circle cx="594.36" cy="454.44" r="1.6666666666666667" />
<circle cx="594.60" cy="452.72" r="1.6666666666666667" />
<circle cx="594.83" cy="452.53" r="1.6666666666666667" />
<circle cx="595.74" cy="492.30" r="1.6666666666666667" />
<circle cx="595.96" cy="450.47" r="1.6666666666666667" />
<circle cx="596.28" cy="461.90" r="1.6666666666666667" />
<circle cx="596.51" cy="452.42" r="1.6666666666666667" />
<circle cx="596.81" cy="459.25" r="1.6666666666666667" />
<circle cx="597.03" cy="451.17" r="1.6666666666666667" />
<circle cx="597.32" cy="458.30" r="1.6666666666666667" />
<circle cx="597.56" cy="453.72" r="1.6666666666666667" />
<circle cx="597.84" cy="457.38" r="1.6666666666666667" />
<circle cx="598.08" cy="453.27" r="1.6666666666666667" />
<circle cx="598.35" cy="457.60" r="1.6666666666666667" />
<circle cx="598.60" cy="453.96" r="1.6666666666666667" />
<circle cx="598.88" cy="457.98" r="1.6666666666666667" />
<circle cx="599.11" cy="451.51" r="1.6666666666666667" />
<circle cx="599.42" cy="461.12" r="1.6666666666666667" />
<circle cx="599.66" cy="452.76" r="1.6666666666666667" />
<circle cx="599.95" cy="459.07" r="1.6666666666666667" />
<circle cx="600.20" cy="454.77" r="1.6666666666666667" />
<circle cx="600.50" cy="459.22" r="1.6666666666666667" />
<circle cx="600.73" cy="452.15" r="1.6666666666666667" />
<circle cx="601.00" cy="456.49" r="1.6666666666666667" />
<circle cx="601.24" cy="452.98" r="1.6666666666666667" />
<circle cx="601.50" cy="456.58" r="1.6666666666666667" />
<circle cx="601.75" cy="454.44" r="1.6666666666666667" />
<circle cx="602.04" cy="458.28" r="1.6666666666666667" />
<circle cx="602.29" cy="454.38" r="1.6666666666666667" />
<circle cx="602.61" cy="461.42" r="1.6666666666666667" />
<circle cx="602.84" cy="452.77" r="1.6666666666666667" />
<circle cx="603.16" cy="461.76" r="1.6666666666666667" />
<circle cx="603.44" cy="456.91" r="1.6666666666666667" />
<circle cx="603.73" cy="459.09" r="1.6666666666666667" />
<circle cx="604.00" cy="456.96" r="1.6666666666666667" />
<circle cx="604.29" cy="459.05" r="1.6666666666666667" />
<circle cx="604.57" cy="457.16" r="1.6666666666666667" />
<circle cx="604.85" cy="458.51" r="1.6666666666666667" />
<circle cx="605.17" cy="460.87" r="1.6666666666666667" />
<circle cx="605.45" cy="458.02" r="1.6666666666666667" />
<circle cx="605.74" cy="459.04" r="1.6666666666666667" />
<circle cx="606.01" cy="457.04" r="1.6666666666666667" />
<circle cx="606.31" cy="459.32" r="1.6666666666666667" />
<circle cx="606.58" cy="456.74" r="1.6666666666666667" />
<circle cx="606.85" cy="457.22" r="1.6666666666666667" />
<circle cx="607.16" cy="460.46" r="1.6666666666666667" />
<circle cx="607.44" cy="457.59" r="1.6666666666666667" />
<circle cx="607.73" cy="459.12" r="1.6666666666666667" />
<circle cx="608.01" cy="457.13" r="1.6666666666666667" />
<circle cx="608.34" cy="463.09" r="1.6666666666666667" />
<circle cx="608.61" cy="456.61" r="1.6666666666666667" />
<circle cx="608.93" cy="461.36" r="1.6666666666666667" />
<circle cx="609.17" cy="454.01" r="1.6666666666666667" />
<circle cx="609.50" cy="461.80" r="1.6666666666666667" />
<circle cx="609.76" cy="455.80" r="1.6666666666666667" />
<circle cx="610.06" cy="459.72" r="1.6666666666666667" />
<circle cx="610.30" cy="454.19" r="1.6666666666666667" />
<circle cx="610.60" cy="458.90" r="1.6666666666666667" />
<circle cx="610.86" cy="456.40" r="1.6666666666666667" />
<circle cx="611.17" cy="460.96" r="1.6666666666666667" />
<circle cx="611.45" cy="457.45" r="1.6666666666666667" />
<circle cx="611.76" cy="461.02" r="1.6666666666666667" />
<circle cx="612.00" cy="452.87" r="1.6666666666666667" />
<circle cx="612.32" cy="461.31" r="1.6666666666666667" />
<circle cx="612.55" cy="452.44" r="1.6666666666666667" />
<circle cx="612.87" cy="461.31" r="1.6666666666666667" />
<circle cx="613.12" cy="454.39" r="1.6666666666666667" />
<circle cx="613.45" cy="462.69" r="1.6666666666666667" />
<circle cx="613.70" cy="454.89" r="1.6666666666666667" />
<circle cx="613.99" cy="458.26" r="1.6666666666666667" />
<circle cx="614.24" cy="454.51" r="1.6666666666666667" />
<circle cx="614.52" cy="458.25" r="1.6666666666666667" />
<circle cx="614.80" cy="457.94" r="1.6666666666666667" />
<circle cx="615.08" cy="457.55" r="1.6666666666666667" />
<circle cx="615.33" cy="454.45" r="1.6666666666666667" />
<circle cx="615.61" cy="458.07" r="1.6666666666666667" />
<circle cx="615.87" cy="455.54" r="1.6666666666666667" />
<circle cx="616.16" cy="457.91" r="1.6666666666666667" />
<circle cx="616.42" cy="456.36" r="1.6666666666666667" />
<circle cx="616.73" cy="460.45" r="1.6666666666666667" />
<circle cx="616.98" cy="454.38" r="1.6666666666666667" />
<circle cx="617.25" cy="456.57" r="1.6666666666666667" />
<circle cx="617.49" cy="454.10" r="1.6666666666666667" />
<circle cx="617.79" cy="459.21" r="1.6666666666666667" />
<circle cx="618.04" cy="454.45" r="1.6666666666666667" />
<circle cx="618.32" cy="458.28" r="1.6666666666666667" />
<circle cx="618.56" cy="452.38" r="1.6666666666666667" />
<circle cx="618.84" cy="458.17" r="1.6666666666666667" />
<circle cx="619.06" cy="450.01" r="1.6666666666666667" />
<circle cx="619.33" cy="457.10" r="1.6666666666666667" />
<circle cx="619.55" cy="451.12" r="1.6666666666666667" />
<circle cx="619.87" cy="461.04" r="1.6666666666666667" />
<circle cx="620.10" cy="452.85" r="1.6666666666666667" />
<circle cx="620.40" cy="460.00" r="1.6666666666666667" />
<circle cx="620.66" cy="454.84" r="1.6666666666666667" />
<circle cx="620.95" cy="458.87" r="1.6666666666666667" />
<circle cx="621.18" cy="451.56" r="1.6666666666666667" />
<circle cx="621.47" cy="458.93" r="1.6666666666666667" />
<circle cx="621.93" cy="472.63" r="1.6666666666666667" />
<circle cx="622.18" cy="454.15" r="1.6666666666666667" />
<circle cx="622.48" cy="459.43" r="1.6666666666666667" />
<circle cx="622.75" cy="457.03" r="1.6666666666666667" />
<circle cx="623.04" cy="459.35" r="1.6666666666666667" />
<circle cx="623.32" cy="456.85" r="1.6666666666666667" />
<circle cx="623.61" cy="459.70" r="1.6666666666666667" />
<circle cx="623.88" cy="456.10" r="1.6666666666666667" />
<circle cx="624.19" cy="461.17" r="1.6666666666666667" />
<circle cx="624.44" cy="453.69" r="1.6666666666666667" />
<circle cx="624.75" cy="461.40" r="1.6666666666666667" />
<circle cx="625.00" cy="454.03" r="1.6666666666666667" />
<circle cx="625.31" cy="460.59" r="1.6666666666666667" />
<circle cx="625.58" cy="456.47" r="1.6666666666666667" />
<circle cx="625.88" cy="460.00" r="1.6666666666666667" />
<circle cx="626.15" cy="456.37" r="1.6666666666666667" />
<circle cx="626.46" cy="460.87" r="1.6666666666666667" />
<circle cx="626.71" cy="454.45" r="1.6666666666666667" />
<circle cx="627.00" cy="459.28" r="1.6666666666666667" />
<circle cx="627.25" cy="453.95" r="1.6666666666666667" />
<circle cx="627.54" cy="458.83" r="1.6666666666666667" />
<circle cx="627.79" cy="454.49" r="1.6666666666666667" />
<circle cx="628.10" cy="460.94" r="1.6666666666666667" />
<circle cx="628.35" cy="453.80" r="1.6666666666666667" />
<circle cx="628.63" cy="458.66" r="1.6666666666666667" />
<circle cx="628.89" cy="455.49" r="1.6666666666666667" />
<circle cx="629.17" cy="456.87" r="1.6666666666666667" />
<circle cx="629.44" cy="456.91" r="1.6666666666666667" />
<circle cx="629.75" cy="461.00" r="1.6666666666666667" />
<circle cx="630.00" cy="454.38" r="1.6666666666666667" />
<circle cx="630.29" cy="458.38" r="1.6666666666666667" />
<circle cx="630.55" cy="455.74" r="1.6666666666666667" />
<circle cx="630.86" cy="460.99" r="1.6666666666666667" />
<circle cx="631.10" cy="453.44" r="1.6666666666666667" />
<circle cx="631.42" cy="461.82" r="1.6666666666666667" />
<circle cx="631.68" cy="455.66" r="1.6666666666666667" />
<circle cx="632.00" cy="461.37" r="1.6666666666666667" />
<circle cx="632.25" cy="454.18" r="1.6666666666666667" />
<circle cx="632.54" cy="458.72" r="1.6666666666666667" />
<circle cx="632.77" cy="452.54" r="1.6666666666666667" />
<circle cx="633.09" cy="461.91" r="1.6666666666666667" />
<circle cx="633.37" cy="457.69" r="1.6666666666666667" />
<circle cx="633.69" cy="461.10" r="1.6666666666666667" />
<circle cx="633.96" cy="457.05" r="1.6666666666666667" />
<circle cx="634.27" cy="460.71" r="1.6666666666666667" />
<circle cx="634.53" cy="455.85" r="1.6666666666666667" />
<circle cx="634.85" cy="461.45" r="1.6666666666666667" />
<circle cx="635.13" cy="458.00" r="1.6666666666666667" />
<circle cx="635.44" cy="460.49" r="1.6666666666666667" />
<circle cx="635.68" cy="453.59" r="1.6666666666666667" />
<circle cx="636.03" cy="463.82" r="1.6666666666666667" />
<circle cx="636.29" cy="456.12" r="1.6666666666666667" />
<circle cx="636.61" cy="461.99" r="1.6666666666666667" />
<circle cx="636.86" cy="454.55" r="1.6666666666666667" />
<circle cx="637.18" cy="461.30" r="1.6666666666666667" />
<circle cx="637.44" cy="456.11" r="1.6666666666666667" />
<circle cx="637.75" cy="459.91" r="1.6666666666666667" />
<circle cx="638.03" cy="457.79" r="1.6666666666666667" />
<circle cx="638.33" cy="460.19" r="1.6666666666666667" />
<circle cx="638.61" cy="457.69" r="1.6666666666666667" />
<circle cx="638.87" cy="455.83" r="1.6666666666666667" />
<circle cx="639.10" cy="451.82" r="1.6666666666666667" />
<circle cx="639.43" cy="462.44" r="1.6666666666666667" />
<circle cx="639.68" cy="454.03" r="1.6666666666666667" />
<circle cx="639.99" cy="461.31" r="1.6666666666666667" />
<circle cx="640.25" cy="455.42" r="1.6666666666666667" />
<circle cx="640.58" cy="463.01" r="1.6666666666666667" />
<circle cx="640.83" cy="454.23" r="1.6666666666666667" />
<circle cx="641.15" cy="461.79" r="1.6666666666666667" />
<circle cx="641.42" cy="455.87" r="1.6666666666666667" />
<circle cx="641.73" cy="460.63" r="1.6666666666666667" />
<circle cx="641.97" cy="454.33" r="1.6666666666666667" />
<circle cx="642.28" cy="460.47" r="1.6666666666666667" />
<circle cx="642.56" cy="457.68" r="1.6666666666666667" />
<circle cx="642.89" cy="462.81" r="1.6666666666666667" />
<circle cx="644.03" cy="499.04" r="1.6666666666666667" />
<circle cx="644.28" cy="454.20" r="1.6666666666666667" />
<circle cx="644.60" cy="461.84" r="1.6666666666666667" />
<circle cx="644.89" cy="457.89" r="1.6666666666666667" />
<circle cx="645.21" cy="461.81" r="1.6666666666666667" />
<circle cx="645.47" cy="455.88" r="1.6666666666666667" />
<circle cx="645.79" cy="461.94" r="1.6666666666666667" />
<circle cx="646.07" cy="457.80" r="1.6666666666666667" />
<circle cx="646.41" cy="463.21" r="1.6666666666666667" />
<circle cx="646.67" cy="455.18" r="1.6666666666666667" />
<circle cx="646.98" cy="461.27" r="1.6666666666666667" />
<circle cx="647.24" cy="454.88" r="1.6666666666666667" />
<circle cx="647.55" cy="461.41" r="1.6666666666666667" />
<circle cx="647.80" cy="454.13" r="1.6666666666666667" />
<circle cx="648.10" cy="460.17" r="1.6666666666666667" />
<circle cx="648.38" cy="457.00" r="1.6666666666666667" />
<circle cx="648.70" cy="461.72" r="1.6666666666666667" />
<circle cx="648.98" cy="457.88" r="1.6666666666666667" />
<circle cx="649.31" cy="462.70" r="1.6666666666666667" />
<circle cx="649.59" cy="458.22" r="1.6666666666666667" />
<circle cx="649.91" cy="461.57" r="1.6666666666666667" />
<circle cx="650.20" cy="458.45" r="1.6666666666666667" />
<circle cx="650.51" cy="461.18" r="1.6666666666666667" />
<circle cx="650.78" cy="456.05" r="1.6666666666666667" />
<circle cx="651.12" cy="463.41" r="1.6666666666666667" />
<circle cx="651.38" cy="456.20" r="1.6666666666666667" />
<circle cx="651.71" cy="462.40" r="1.6666666666666667" />
<circle cx="651.98" cy="456.49" r="1.6666666666666667" />
<circle cx="652.30" cy="462.17" r="1.6666666666666667" />
<circle cx="652.59" cy="458.87" r="1.6666666666666667" />
<circle cx="652.94" cy="463.58" r="1.6666666666666667" />
<circle cx="653.20" cy="456.11" r="1.6666666666666667" />
<circle cx="653.51" cy="460.53" r="1.6666666666666667" />
<circle cx="653.75" cy="453.52" r="1.6666666666666667" />
<circle cx="654.06" cy="460.75" r="1.6666666666666667" />
<circle cx="654.35" cy="459.15" r="1.6666666666666667" />
<circle cx="654.71" cy="464.58" r="1.6666666666666667" />
<circle cx="654.96" cy="454.52" r="1.6666666666666667" />
<circle cx="655.27" cy="461.44" r="1.6666666666666667" />
<circle cx="655.51" cy="452.29" r="1.6666666666666667" />
<circle cx="655.84" cy="463.18" r="1.6666666666666667" />
<circle cx="656.13" cy="458.92" r="1.6666666666666667" />
<circle cx="656.48" cy="463.65" r="1.6666666666666667" />
<circle cx="656.73" cy="454.44" r="1.6666666666666667" />
<circle cx="657.05" cy="461.79" r="1.6666666666666667" />
<circle cx="657.31" cy="456.22" r="1.6666666666666667" />
<circle cx="657.64" cy="462.33" r="1.6666666666666667" />
<circle cx="657.89" cy="454.11" r="1.6666666666666667" />
<circle cx="658.20" cy="460.90" r="1.6666666666666667" />
<circle cx="658.46" cy="455.26" r="1.6666666666666667" />
<circle cx="658.77" cy="461.51" r="1.6666666666666667" />
<circle cx="659.04" cy="456.53" r="1.6666666666666667" />
<circle cx="659.37" cy="462.18" r="1.6666666666666667" />
<circle cx="659.63" cy="455.86" r="1.6666666666666667" />
<circle cx="659.96" cy="462.92" r="1.6666666666666667" />
<circle cx="660.23" cy="456.51" r="1.6666666666666667" />
<circle cx="660.55" cy="461.37" r="1.6666666666666667" />
<circle cx="660.79" cy="453.21" r="1.6666666666666667" />
<circle cx="661.08" cy="458.80" r="1.6666666666666667" />
<circle cx="661.32" cy="453.47" r="1.6666666666666667" />
<circle cx="661.60" cy="457.79" r="1.6666666666666667" />
<circle cx="661.83" cy="451.39" r="1.6666666666666667" />
<circle cx="662.09" cy="456.24" r="1.6666666666666667" />
<circle cx="662.33" cy="453.33" r="1.6666666666666667" />
<circle cx="662.60" cy="455.93" r="1.6666666666666667" />
<circle cx="662.80" cy="447.81" r="1.6666666666666667" />
<circle cx="663.04" cy="453.35" r="1.6666666666666667" />
<circle cx="663.23" cy="446.78" r="1.6666666666666667" />
<circle cx="663.47" cy="453.28" r="1.6666666666666667" />
<circle cx="663.67" cy="447.38" r="1.6666666666666667" />
<circle cx="663.92" cy="454.63" r="1.6666666666666667" />
<circle cx="664.12" cy="448.23" r="1.6666666666666667" />
<circle cx="664.36" cy="453.40" r="1.6666666666666667" />
<circle cx="664.55" cy="446.11" r="1.6666666666666667" />
<circle cx="664.77" cy="451.15" r="1.6666666666666667" />
<circle cx="664.96" cy="446.03" r="1.6666666666666667" />
<circle cx="665.18" cy="451.11" r="1.6666666666666667" />
<circle cx="665.38" cy="447.42" r="1.6666666666666667" />
<circle cx="665.63" cy="453.99" r="1.6666666666666667" />
<circle cx="665.83" cy="447.47" r="1.6666666666666667" />
<circle cx="666.09" cy="455.64" r="1.6666666666666667" />
<circle cx="666.27" cy="445.26" r="1.6666666666666667" />
<circle cx="666.51" cy="453.26" r="1.6666666666666667" />
<circle cx="666.70" cy="446.48" r="1.6666666666666667" />
<circle cx="666.94" cy="453.07" r="1.6666666666666667" />
<circle cx="667.13" cy="447.26" r="1.6666666666666667" />
<circle cx="667.37" cy="452.15" r="1.6666666666666667" />
<circle cx="667.56" cy="446.62" r="1.6666666666666667" />
<circle cx="667.79" cy="452.86" r="1.6666666666666667" />
<circle cx="667.98" cy="446.19" r="1.6666666666666667" />
<circle cx="668.23" cy="453.56" r="1.6666666666666667" />
<circle cx="668.42" cy="447.72" r="1.6666666666666667" />
<circle cx="668.66" cy="453.13" r="1.6666666666666667" />
<circle cx="668.87" cy="449.20" r="1.6666666666666667" />
<circle cx="669.11" cy="453.51" r="1.6666666666666667" />
<circle cx="669.31" cy="447.54" r="1.6666666666666667" />
<circle cx="669.56" cy="454.53" r="1.6666666666666667" />
<circle cx="669.76" cy="447.22" r="1.6666666666666667" />
<circle cx="670.02" cy="455.47" r="1.6666666666666667" />
<circle cx="670.23" cy="448.98" r="1.6666666666666667" />
<circle cx="670.46" cy="452.55" r="1.6666666666666667" />
<circle cx="670.67" cy="449.50" r="1.6666666666666667" />
<circle cx="670.92" cy="454.62" r="1.6666666666666667" />
<circle cx="671.13" cy="449.02" r="1.6666666666666667" />
<circle cx="671.40" cy="456.44" r="1.6666666666666667" />
<circle cx="671.61" cy="448.99" r="1.6666666666666667" />
<circle cx="671.87" cy="455.87" r="1.6666666666666667" />
<circle cx="672.07" cy="448.55" r="1.6666666666666667" />
<circle cx="672.34" cy="456.28" r="1.6666666666666667" />
<circle cx="672.57" cy="451.68" r="1.6666666666666667" />
<circle cx="672.82" cy="455.21" r="1.6666666666666667" />
<circle cx="726.74" cy="469.75" r="1.6666666666666667" />
<circle cx="727.22" cy="473.87" r="1.6666666666666667" />
<circle cx="727.57" cy="464.57" r="1.6666666666666667" />
<circle cx="728.05" cy="473.56" r="1.6666666666666667" />
<circle cx="728.45" cy="467.64" r="1.6666666666666667" />
<circle cx="728.95" cy="474.84" r="1.6666666666666667" />
<circle cx="729.32" cy="466.02" r="1.6666666666666667" />
<circle cx="729.80" cy="473.87" r="1.6666666666666667" />
<circle cx="730.16" cy="464.88" r="1.6666666666666667" />
<circle cx="730.60" cy="471.42" r="1.6666666666666667" />
<circle cx="731.00" cy="467.71" r="1.6666666666666667" />
<circle cx="731.46" cy="472.28" r="1.6666666666666667" />
<circle cx="731.84" cy="466.89" r="1.6666666666666667" />
<circle cx="732.27" cy="470.26" r="1.6666666666666667" />
<circle cx="732.65" cy="466.97" r="1.6666666666666667" />
<circle cx="733.10" cy="471.40" r="1.6666666666666667" />
<circle cx="733.53" cy="470.86" r="1.6666666666666667" />
<circle cx="733.97" cy="471.18" r="1.6666666666666667" />
<circle cx="734.33" cy="464.61" r="1.6666666666666667" />
<circle cx="734.78" cy="471.74" r="1.6666666666666667" />
<circle cx="735.17" cy="467.75" r="1.6666666666666667" />
<circle cx="735.72" cy="477.23" r="1.6666666666666667" />
<circle cx="736.11" cy="467.85" r="1.6666666666666667" />
<circle cx="736.60" cy="474.37" r="1.6666666666666667" />
<circle cx="737.00" cy="467.92" r="1.6666666666666667" />
<circle cx="737.51" cy="475.40" r="1.6666666666666667" />
<circle cx="737.94" cy="470.56" r="1.6666666666666667" />
<circle cx="738.46" cy="475.63" r="1.6666666666666667" />
<circle cx="738.94" cy="473.69" r="1.6666666666666667" />
<circle cx="739.45" cy="475.21" r="1.6666666666666667" />
<circle cx="739.80" cy="464.81" r="1.6666666666666667" />
<circle cx="740.31" cy="475.57" r="1.6666666666666667" />
<circle cx="740.75" cy="470.66" r="1.6666666666666667" />
<circle cx="741.24" cy="474.15" r="1.6666666666666667" />
<circle cx="741.63" cy="467.83" r="1.6666666666666667" />
<circle cx="742.12" cy="474.29" r="1.6666666666666667" />
<circle cx="742.50" cy="466.63" r="1.6666666666666667" />
<circle cx="742.99" cy="473.95" r="1.6666666666666667" />
<circle cx="743.39" cy="468.42" r="1.6666666666666667" />
<circle cx="743.87" cy="473.29" r="1.6666666666666667" />
<circle cx="744.33" cy="472.43" r="1.6666666666666667" />
<circle cx="744.80" cy="472.90" r="1.6666666666666667" />
<circle cx="745.26" cy="472.67" r="1.6666666666666667" />
<circle cx="745.74" cy="473.32" r="1.6666666666666667" />
<circle cx="746.63" cy="491.70" r="1.6666666666666667" />
<circle cx="747.06" cy="470.85" r="1.6666666666666667" />
<circle cx="747.56" cy="474.86" r="1.6666666666666667" />
<circle cx="747.97" cy="468.43" r="1.6666666666666667" />
<circle cx="748.42" cy="471.97" r="1.6666666666666667" />
<circle cx="748.84" cy="469.44" r="1.6666666666666667" />
<circle cx="749.37" cy="476.58" r="1.6666666666666667" />
<circle cx="749.79" cy="469.77" r="1.6666666666666667" />
<circle cx="750.30" cy="475.48" r="1.6666666666666667" />
<circle cx="750.71" cy="469.02" r="1.6666666666666667" />
<circle cx="751.23" cy="475.98" r="1.6666666666666667" />
<circle cx="751.66" cy="469.87" r="1.6666666666666667" />
<circle cx="752.13" cy="473.40" r="1.6666666666666667" />
<circle cx="752.59" cy="471.99" r="1.6666666666666667" />
<circle cx="753.02" cy="470.70" r="1.6666666666666667" />
<circle cx="753.45" cy="470.43" r="1.6666666666666667" />
<circle cx="753.97" cy="475.45" r="1.6666666666666667" />
<circle cx="754.33" cy="465.22" r="1.6666666666666667" />
<circle cx="754.78" cy="472.04" r="1.6666666666666667" />
<circle cx="755.21" cy="469.95" r="1.6666666666666667" />
<circle cx="755.68" cy="473.25" r="1.6666666666666667" />
<circle cx="756.09" cy="468.66" r="1.6666666666666667" />
<circle cx="756.50" cy="469.38" r="1.6666666666666667" />
<circle cx="756.92" cy="469.34" r="1.6666666666666667" />
<circle cx="757.42" cy="474.71" r="1.6666666666666667" />
<circle cx="757.82" cy="468.39" r="1.6666666666666667" />
<circle cx="758.27" cy="471.67" r="1.6666666666666667" />
<circle cx="758.64" cy="466.21" r="1.6666666666666667" />
<circle cx="759.10" cy="472.21" r="1.6666666666666667" />
<circle cx="759.51" cy="468.87" r="1.6666666666666667" />
<circle cx="759.97" cy="472.61" r="1.6666666666666667" />
<circle cx="760.40" cy="470.04" r="1.6666666666666667" />
<circle cx="760.89" cy="474.72" r="1.6666666666666667" />
<circle cx="761.29" cy="467.84" r="1.6666666666666667" />
<circle cx="761.77" cy="473.37" r="1.6666666666666667" />
<circle cx="762.25" cy="473.83" r="1.6666666666666667" />
<circle cx="762.70" cy="471.94" r="1.6666666666666667" />
<circle cx="763.17" cy="473.09" r="1.6666666666666667" />
<circle cx="763.65" cy="473.41" r="1.6666666666666667" />
<circle cx="764.08" cy="470.54" r="1.6666666666666667" />
<circle cx="764.57" cy="474.03" r="1.6666666666666667" />
<circle cx="765.00" cy="470.29" r="1.6666666666666667" />
<circle cx="765.49" cy="474.34" r="1.6666666666666667" />
<circle cx="765.89" cy="468.07" r="1.6666666666666667" />
<circle cx="766.38" cy="474.02" r="1.6666666666666667" />
<circle cx="766.79" cy="469.08" r="1.6666666666666667" />
<circle cx="767.23" cy="470.83" r="1.6666666666666667" />
<circle cx="767.62" cy="467.82" r="1.6666666666666667" />
<circle cx="768.11" cy="474.19" r="1.6666666666666667" />
<circle cx="768.46" cy="464.25" r="1.6666666666666667" />
<circle cx="768.93" cy="473.26" r="1.6666666666666667" />
<circle cx="769.30" cy="466.05" r="1.6666666666666667" />
<circle cx="769.80" cy="474.42" r="1.6666666666666667" />
<circle cx="770.21" cy="469.21" r="1.6666666666666667" />
<circle cx="770.75" cy="476.79" r="1.6666666666666667" />
<circle cx="771.15" cy="468.41" r="1.6666666666666667" />
<circle cx="771.59" cy="471.12" r="1.6666666666666667" />
<circle cx="771.97" cy="466.36" r="1.6666666666666667" />
<circle cx="772.43" cy="472.32" r="1.6666666666666667" />
<circle cx="772.81" cy="466.90" r="1.6666666666666667" />
<circle cx="773.30" cy="474.28" r="1.6666666666666667" />
<circle cx="773.69" cy="467.50" r="1.6666666666666667" />
</g>
<g stroke="black">
<line x1="839.86" x2="839.86" y1="510.00" y2="520.00" />
<line x1="791.78" x2="791.78" y1="510.00" y2="520.00" />
<line x1="740.39" x2="740.39" y1="510.00" y2="520.00" />
<line x1="689.00" x2="689.00" y1="510.00" y2="520.00" />
<line x1="639.26" x2="639.26" y1="510.00" y2="520.00" />
<line x1="587.87" x2="587.87" y1="510.00" y2="520.00" />
<line x1="538.13" x2="538.13" y1="510.00" y2="520.00" />
<line x1="486.74" x2="486.74" y1="510.00" y2="520.00" />
<line x1="435.35" x2="435.35" y1="510.00" y2="520.00" />
<line x1="385.61" x2="385.61" y1="510.00" y2="520.00" />
<line x1="334.22" x2="334.22" y1="510.00" y2="520.00" />
<line x1="284.48" x2="284.48" y1="510.00" y2="520.00" />
<line x1="233.09" x2="233.09" y1="510.00" y2="520.00" />
<line x1="186.67" x2="186.67" y1="510.00" y2="520.00" />
<g fill="black" font-family="Arial, sans-serif" font-size="18.0" stroke="none" text-anchor="start" transform="translate(9.0 0.0)">
<text x="839.86" y="530.57">Mar</text>
<text x="791.78" y="530.57">Feb</text>
<text x="740.39" y="530.57">Jan</text>
<text x="689.00" y="530.57">Dec</text>
<text x="639.26" y="530.57">Nov</text>
<text x="587.87" y="530.57">Oct</text>
<text x="538.13" y="530.57">Sep</text>
<text x="486.74" y="530.57">Aug</text>
<text x="435.35" y="530.57">Jul</text>
<text x="385.61" y="530.57">Jun</text>
<text x="334.22" y="530.57">May</text>
<text x="284.48" y="530.57">Apr</text>
<text x="233.09" y="530.57">Mar</text>
<text x="186.67" y="530.57">Feb</text>
</g>
<line x1="150.00" x2="850.00" y1="510.00" y2="510.00" />
</g>
<g stroke="black">
<line x1="150.00" x2="140.00" y1="510.00" y2="510.00" />
<line x1="150.00" x2="140.00" y1="216.29" y2="216.29" />
<g fill="black" font-family="Arial, sans-serif" font-size="18.0" stroke="none" text-anchor="end">
<text x="141.00" y="501.00">0</text>
<text x="141.00" y="207.29">10</text>
</g>
<line x1="150.00" x2="150.00" y1="510.00" y2="90.00" />
</g>
</g>
</svg>