<?xml version="1.0"?>
<svg version="1.1" viewBox="0 0 1000 600" xmlns:xlink="http://www.w3.org/1999/xlink" xmlns="http://www.w3.org/2000/svg">
<g>
<g stroke-dasharray="3.6 7.2" stroke-width="0.72" stroke="#caa">
<line x1="839.86" x2="839.86" y1="510.00" y2="90.00" />
<line x1="791.78" x2="791.78" y1="510.00" y2="90.00" />
<line x1="740.39" x2="740.39" y1="510.00" y2="90.00" />
<line x1="689.00" x2="689.00" y1="510.00" y2="90.00" />
<line x1="639.26" x2="639.26" y1="510.00" y2="90.00" />
<line x1="587.87" x2="587.87" y1="510.00" y2="90.00" />
<line x1="538.13" x2="538.13" y1="510.00" y2="90.00" />
<line x1="486.74" x2="486.74" y1="510.00" y2="90.00" />
<line x1="435.35" x2="435.35" y1="510.00" y2="90.00" />
<line x1="385.61" x2="385.61" y1="510.00" y2="90.00" />
<line x1="334.22" x2="334.22" y1="510.00" y2="90.00" />
<line x1="284.48" x2="284.48" y1="510.00" y2="90.00" />
<line x1="233.09" x2="233.09" y1="510.00" y2="90.00" />
<line x1="186.67" x2="186.67" y1="510.00" y2="90.00" />
<line x1="150.00" x2="850.00" y1="510.00" y2="510.00" />
<line x1="150.00" x2="850.00" y1="216.29" y2="216.29" />
</g>
<g>
<text dominant-baseline="hanging" dx="-36.0" dy="18.0" fill="#0004" font-family="Arial, sans-serif" font-size="36" stroke="none" text-anchor="end" x="850.00" y="128.18">ThMuCH2Sh02PairTall</text>
</g>
<g>
<text dominant-baseline="text-bottom" dy="-12.0" fill="black" font-family="Arial, sans-serif" font-size="18.0" font-style="italic" stroke="none" text-anchor="middle" x="500.00" y="90.00">Years 2023 to 2024</text>
</g>
<g>
<text dominant-baseline="central" dx="12.0" dy="12.0" fill="black" font-family="Arial, sans-serif" font-size="18.0" font-style="italic" stroke="none" text-anchor="middle" text-orientation="sideways" writing-mode="vertical-lr" x="850.00" y="300.00">log(Drips per day)</text>
</g>
<polyline fill="none" points="150.56,462.29 150.89,462.30 151.21,462.21 151.54,462.19 151.87,463.05 152.20,462.32 152.52,461.48 152.83,460.33 153.15,462.01 153.48,462.48 153.81,462.45 154.13,461.81 154.46,462.56 154.78,462.14 155.11,462.68 155.44,462.24 155.76,461.90 156.09,462.83 156.42,462.08 156.75,462.40 157.07,461.91 157.40,462.99 157.73,462.47 158.06,462.35 158.40,463.77 158.74,463.28 159.06,461.36 159.40,463.75 159.73,462.87 160.06,462.21 160.39,462.50 160.70,461.33 161.03,461.94 161.35,461.64 161.70,464.34 162.03,463.23 162.37,463.03 162.71,463.44 163.04,462.87 163.38,463.75 163.71,462.50 164.03,461.19 164.35,461.95 164.68,462.64 165.01,462.71 165.34,461.97 165.66,462.37 166.00,462.93 166.32,461.83 166.65,462.57 166.98,462.84 167.31,462.61 167.65,462.93 167.98,462.99 168.32,463.40 168.66,463.39 169.00,463.72 169.36,464.79 169.70,463.37 170.03,462.82 170.38,464.80 170.72,463.26 171.07,463.95 171.40,462.73 171.74,463.51 172.08,463.83 172.42,462.99 172.76,463.46 177.59,464.50 177.93,463.92 178.29,464.54 178.64,464.40 178.98,464.05 179.34,464.71 179.69,464.52 180.06,465.43 180.43,466.15 180.78,464.40 181.13,464.74 181.51,466.07 181.88,466.47 182.24,465.00 182.59,463.90 182.94,464.61 183.28,463.98 183.64,464.52 184.01,465.78 184.36,464.36 184.71,465.02 185.07,465.03 185.43,465.20 185.80,465.72 186.16,465.52 186.52,465.11 186.89,465.73 187.25,465.07 187.61,465.41 726.35,223.42 726.35,216.87 726.35,176.15 726.35,243.78" stroke-dasharray="3.6 3.6" stroke-width="3.6" stroke="#aaa" />
<g>
<circle cx="150.56" cy="462.29" r="1.6666666666666667" />
<circle cx="150.89" cy="462.30" r="1.6666666666666667" />
<circle cx="151.21" cy="462.21" r="1.6666666666666667" />
<circle cx="151.54" cy="462.19" r="1.6666666666666667" />
<circle cx="151.87" cy="463.05" r="1.6666666666666667" />
<circle cx="152.20" cy="462.32" r="1.6666666666666667" />
<circle cx="152.52" cy="461.48" r="1.6666666666666667" />
<circle cx="152.83" cy="460.33" r="1.6666666666666667" />
<circle cx="153.15" cy="462.01" r="1.6666666666666667" />
<circle cx="153.48" cy="462.48" r="1.6666666666666667" />
<circle cx="153.81" cy="462.45" r="1.6666666666666667" />
<circle cx="154.13" cy="461.81" r="1.6666666666666667" />
<circle cx="154.46" cy="462.56" r="1.6666666666666667" />
<circle cx="154.78" cy="462.14" r="1.6666666666666667" />
<circle cx="155.11" cy="462.68" r="1.6666666666666667" />
<circle cx="155.44" cy="462.24" r="1.6666666666666667" />
<circle cx="155.76" cy="461.90" r="1.6666666666666667" />
<circle cx="156.09" cy="462.83" r="1.6666666666666667" />
<circle cx="156.42" cy="462.08" r="1.6666666666666667" />
<circle cx="156.75" cy="462.40" r="1.6666666666666667" />
<circle cx="157.07" cy="461.91" r="1.6666666666666667" />
<circle cx="157.40" cy="462.99" r="1.6666666666666667" />
<circle cx="157.73" cy="462.47" r="1.6666666666666667" />
<circle cx="158.06" cy="462.35" r="1.6666666666666667" />
<circle cx="158.40" cy="463.77" r="1.6666666666666667" />
<circle cx="158.74" cy="463.28" r="1.6666666666666667" />
<circle cx="159.06" cy="461.36" r="1.6666666666666667" />
<circle cx="159.40" cy="463.75" r="1.6666666666666667" />
<circle cx="159.73" cy="462.87" r="1.6666666666666667" />
<circle cx="160.06" cy="462.21" r="1.6666666666666667" />
<circle cx="160.39" cy="462.50" r="1.6666666666666667" />
<circle cx="160.70" cy="461.33" r="1.6666666666666667" />
<circle cx="161.03" cy="461.94" r="1.6666666666666667" />
<circle cx="161.35" cy="461.64" r="1.6666666666666667" />
<circle cx="161.70" cy="464.34" r="1.6666666666666667" />
<circle cx="162.03" cy="463.23" r="1.6666666666666667" />
<circle cx="162.37" cy="463.03" r="1.6666666666666667" />
<circle cx="162.71" cy="463.44" r="1.6666666666666667" />
<circle cx="163.04" cy="462.87" r="1.6666666666666667" />
<circle cx="163.38" cy="463.75" r="1.6666666666666667" />
<circle cx="163.71" cy="462.50" r="1.6666666666666667" />
<circle cx="164.03" cy="461.19" r="1.6666666666666667" />
<circle cx="164.35" cy="461.95" r="1.6666666666666667" />
<circle cx="164.68" cy="462.64" r="1.6666666666666667" />
<circle cx="165.01" cy="462.71" r="1.6666666666666667" />
<circle cx="165.34" cy="461.97" r="1.6666666666666667" />
<circle cx="165.66" cy="462.37" r="1.6666666666666667" />
<circle cx="166.00" cy="462.93" r="1.6666666666666667" />
<circle cx="166.32" cy="461.83" r="1.6666666666666667" />
<circle cx="166.65" cy="462.57" r="1.6666666666666667" />
<circle cx="166.98" cy="462.84" r="1.6666666666666667" />
<circle cx="167.31" cy="462.61" r="1.6666666666666667" />
<circle cx="167.65" cy="462.93" r="1.6666666666666667" />
<circle cx="167.98" cy="462.99" r="1.6666666666666667" />
<circle cx="168.32" cy="463.40" r="1.6666666666666667" />
<circle cx="168.66" cy="463.39" r="1.6666666666666667" />
<circle cx="169.00" cy="463.72" r="1.6666666666666667" />
<circle cx="169.36" cy="464.79" r="1.6666666666666667" />
<circle cx="169.70" cy="463.37" r="1.6666666666666667" />
<circle cx="170.03" cy="462.82" r="1.6666666666666667" />
<circle cx="170.38" cy="464.80" r="1.6666666666666667" />
<circle cx="170.72" cy="463.26" r="1.6666666666666667" />
<circle cx="171.07" cy="463.95" r="1.6666666666666667" />
<circle cx="171.40" cy="462.73" r="1.6666666666666667" />
<circle cx="171.74" cy="463.51" r="1.6666666666666667" />
<circle cx="172.08" cy="463.83" r="1.6666666666666667" />
<circle cx="172.42" cy="462.99" r="1.6666666666666667" />
<circle cx="172.76" cy="463.46" r="1.6666666666666667" />
<circle cx="177.59" cy="464.50" r="1.6666666666666667" />
<circle cx="177.93" cy="463.92" r="1.6666666666666667" />
<circle cx="178.29" cy="464.54" r="1.6666666666666667" />
<circle cx="178.64" cy="464.40" r="1.6666666666666667" />
<circle cx="178.98" cy="464.05" r="1.6666666666666667" />
<circle cx="179.34" cy="464.71" r="1.6666666666666667" />
<circle cx="179.69" cy="464.52" r="1.6666666666666667" />
<circle cx="180.06" cy="465.43" r="1.6666666666666667" />
<circle cx="180.43" cy="466.15" r="1.6666666666666667" />
<circle cx="180.78" cy="464.40" r="1.6666666666666667" />
<circle cx="181.13" cy="464.74" r="1.6666666666666667" />
<circle cx="181.51" cy="466.07" r="1.6666666666666667" />
<circle cx="181.88" cy="466.47" r="1.6666666666666667" />
<circle cx="182.24" cy="465.00" r="1.6666666666666667" />
<circle cx="182.59" cy="463.90" r="1.6666666666666667" />
<circle cx="182.94" cy="464.61" r="1.6666666666666667" />
<circle cx="183.28" cy="463.98" r="1.6666666666666667" />
<circle cx="183.64" cy="464.52" r="1.6666666666666667" />
<circle cx="184.01" cy="465.78" r="1.6666666666666667" />
<circle cx="184.36" cy="464.36" r="1.6666666666666667" />
<circle cx="184.71" cy="465.02" r="1.6666666666666667" />
<circle cx="185.07" cy="465.03" r="1.6666666666666667" />
<circle cx="185.43" cy="465.20" r="1.6666666666666667" />
<circle cx="185.80" cy="465.72" r="1.6666666666666667" />
<circle cx="186.16" cy="465.52" r="1.6666666666666667" />
<circle cx="186.52" cy="465.11" r="1.6666666666666667" />
<circle cx="186.89" cy="465.73" r="1.6666666666666667" />
<circle cx="187.25" cy="465.07" r="1.6666666666666667" />
<circle cx="187.61" cy="465.41" r="1.6666666666666667" />
<circle cx="726.35" cy="223.42" r="1.6666666666666667" />
<circle cx="726.35" cy="216.87" r="1.6666666666666667" />
<circle cx="726.35" cy="176.15" r="1.6666666666666667" />
<circle cx="726.35" cy="243.78" r="1.6666666666666667" />
</g>
<g stroke="black">
<line x1="839.86" x2="839.86" y1="510.00" y2="520.00" />
<line x1="791.78" x2="791.78" y1="510.00" y2="520.00" />
<line x1="740.39" x2="740.39" y1="510.00" y2="520.00" />
<line x1="689.00" x2="689.00" y1="510.00" y2="520.00" />
<line x1="639.26" x2="639.26" y1="510.00" y2="520.00" />
<line x1="587.87" x2="587.87" y1="510.00" y2="520.00" />
<line x1="538.13" x2="538.13" y1="510.00" y2="520.00" />
<line x1="486.74" x2="486.74" y1="510.00" y2="520.00" />
<line x1="435.35" x2="435.35" y1="510.00" y2="520.00" />
<line x1="385.61" x2="385.61" y1="510.00" y2="520.00" />
<line x1="334.22" x2="334.22" y1="510.00" y2="520.00" />
<line x1="284.48" x2="284.48" y1="510.00" y2="520.00" />
<line x1="233.09" x2="233.09" y1="510.00" y2="520.00" />
<line x1="186.67" x2="186.67" y1="510.00" y2="520.00" />
<g fill="black" font-family="Arial, sans-serif" font-size="18.0" stroke="none" text-anchor="start" transform="translate(9.0 0.0)">
<text x="839.86" y="530.57">Mar</text>
<text x="791.78" y="530.57">Feb</text>
<text x="740.39" y="530.57">Jan</text>
<text x="689.00" y="530.57">Dec</text>
<text x="639.26" y="530.57">Nov</text>
<text x="587.87" y="530.57">Oct</text>
<text x="538.13" y="530.57">Sep</text>
<text x="486.74" y="530.57">Aug</text>
<text x="435.35" y="530.57">Jul</text>
<text x="385.61" y="530.57">Jun</text>
<text x="334.22" y="530.57">May</text>
<text x="284.48" y="530.57">Apr</text>
<text x="233.09" y="530.57">Mar</text>
<text x="186.67" y="530.57">Feb</text>
</g>
<line x1="150.00" x2="850.00" y1="510.00" y2="510.00" />
</g>
<g stroke="black">
<line x1="150.00" x2="140.00" y1="510.00" y2="510.00" />
<line x1="150.00" x2="140.00" y1="216.29" y2="216.29" />
<g fill="black" font-family="Arial, sans-serif" font-size="18.0" stroke="none" text-anchor="end">
<text x="141.00" y="501.00">0</text>
<text x="141.00" y="207.29">10</text>
</g>
<line x1="150.00" x2="150.00" y1="510.00" y2="90.00" />
</g>
</g>
</svg>