<?xml version="1.0"?>
<svg version="1.1" viewBox="0 0 1000 600" xmlns:xlink="http://www.w3.org/1999/xlink" xmlns="http://www.w3.org/2000/svg">
<g>
<g stroke-dasharray="3.6 7.2" stroke-width="0.72" stroke="#caa">
<line x1="813.75" x2="813.75" y1="510.00" y2="90.00" />
<line x1="760.60" x2="760.60" y1="510.00" y2="90.00" />
<line x1="707.45" x2="707.45" y1="510.00" y2="90.00" />
<line x1="656.01" x2="656.01" y1="510.00" y2="90.00" />
<line x1="602.86" x2="602.86" y1="510.00" y2="90.00" />
<line x1="551.42" x2="551.42" y1="510.00" y2="90.00" />
<line x1="498.27" x2="498.27" y1="510.00" y2="90.00" />
<line x1="445.11" x2="445.11" y1="510.00" y2="90.00" />
<line x1="393.68" x2="393.68" y1="510.00" y2="90.00" />
<line x1="340.52" x2="340.52" y1="510.00" y2="90.00" />
<line x1="289.09" x2="289.09" y1="510.00" y2="90.00" />
<line x1="235.93" x2="235.93" y1="510.00" y2="90.00" />
<line x1="187.92" x2="187.92" y1="510.00" y2="90.00" />
<line x1="150.00" x2="850.00" y1="510.00" y2="510.00" />
<line x1="150.00" x2="850.00" y1="216.29" y2="216.29" />
</g>
<g>
<text dominant-baseline="hanging" dx="-36.0" dy="18.0" fill="#0004" font-family="Arial, sans-serif" font-size="36" stroke="none" text-anchor="end" x="850.00" y="128.18">ThMuCh1LongLizard</text>
</g>
<g>
<text dominant-baseline="text-bottom" dy="-12.0" fill="black" font-family="Arial, sans-serif" font-size="18.0" font-style="italic" stroke="none" text-anchor="middle" x="500.00" y="90.00">Years 2023 to 2024</text>
</g>
<g>
<text dominant-baseline="central" dx="12.0" dy="12.0" fill="black" font-family="Arial, sans-serif" font-size="18.0" font-style="italic" stroke="none" text-anchor="middle" text-orientation="sideways" writing-mode="vertical-lr" x="850.00" y="300.00">log(Drips per day)</text>
</g>
<polyline fill="none" points="150.27,456.21 150.55,456.65 150.83,456.52 151.11,457.04 151.40,457.14 151.67,456.37 151.95,456.65 152.23,456.35 152.51,457.12 152.56,405.31 178.96,486.55 179.78,488.22 180.57,487.24 181.42,489.44 182.28,489.72 182.98,483.75 183.63,481.44 184.34,484.22 184.99,481.34 185.68,483.48 186.46,486.68 187.20,485.64 187.92,484.41 188.69,486.56 189.52,488.59 190.24,484.40 191.04,487.50 191.84,487.71 192.55,484.38 193.37,488.16 194.02,481.69 194.78,485.99 195.46,482.60 196.20,485.67 196.97,486.24 197.69,484.60 198.47,486.81 199.29,488.48 221.51,384.00 221.51,257.58 221.51,261.04 221.51,272.95 221.51,259.36 221.56,405.51 221.56,237.23 221.56,216.87 221.56,196.51 221.56,176.15 221.56,176.15 221.56,176.15 221.56,176.15 221.56,176.15 221.56,176.15 221.56,176.15 221.56,176.15 221.56,176.15 221.56,176.15 221.56,176.15 221.56,176.15 221.56,176.15 221.56,176.15 221.56,176.15 221.56,176.15 221.56,176.15 221.56,176.15 221.56,176.15 221.56,176.15 221.56,176.15 221.56,176.15 221.56,176.15 221.56,176.15 221.56,176.15 221.56,176.15 221.56,176.15 221.56,176.15 221.56,176.15 221.56,176.15 221.56,176.15 221.56,176.15 221.56,176.15 221.56,176.15 221.56,176.15 221.56,176.15 221.56,176.15 221.56,176.15 221.56,176.15 221.56,176.15 221.56,176.15 221.56,176.15 221.56,176.15 221.56,176.15 221.56,176.15 221.56,176.15 221.56,176.15 221.56,176.15 221.56,176.15 221.56,176.15 221.56,176.15 221.56,176.15 221.56,176.15 221.56,176.15 221.56,176.15 221.56,176.15 221.56,176.15 221.56,176.15 221.56,176.15 221.56,176.15 221.56,176.15 221.56,176.15 221.56,176.15 221.57,176.15 221.57,176.15 221.57,176.15 221.57,176.15 221.57,176.15 221.57,196.51 221.57,176.15 221.57,176.15 221.57,176.15 221.57,176.15 221.57,176.15 221.57,176.15 221.57,176.15 221.57,176.15 221.57,176.15 221.57,176.15 221.57,176.15 221.57,176.15 221.57,176.15 221.57,176.15 221.57,176.15 221.57,176.15 221.57,176.15 221.57,176.15 221.57,176.15 221.57,176.15 221.57,176.15 221.57,176.15 221.57,176.15 221.57,176.15 221.57,176.15 221.57,176.15 221.57,176.15 221.57,176.15 221.57,176.15 221.57,176.15 221.57,176.15 221.57,176.15 221.57,176.15 221.57,176.15 221.57,176.15 221.57,176.15 221.57,176.15 221.57,176.15 221.57,176.15 221.57,176.15 221.57,176.15 221.57,176.15 221.57,176.15 221.57,176.15 221.57,176.15 221.57,176.15 221.57,176.15 221.57,176.15 221.57,176.15 221.57,176.15 221.57,176.15 221.57,176.15 221.57,176.15 221.57,176.15 221.57,176.15 221.57,176.15 221.57,176.15 221.57,176.15 221.57,176.15 221.57,176.15 221.57,176.15 221.57,257.58 221.57,176.15 221.57,176.15 221.57,176.15 221.57,176.15 221.57,176.15 221.57,176.15 221.57,176.15 221.57,176.15 221.57,176.15 221.57,176.15 221.57,176.15 221.57,176.15 221.57,176.15 221.57,176.15 221.57,176.15 221.57,176.15 221.57,176.15 221.57,176.15 221.57,176.15 221.57,176.15 221.57,176.15 221.57,176.15 221.57,176.15 221.57,176.15 221.57,176.15 221.57,176.15 221.57,176.15 221.57,176.15 221.57,176.15 221.57,176.15 221.57,176.15 221.57,176.15 221.57,176.15 221.57,176.15 221.57,176.15 221.57,176.15 221.57,176.15 221.57,176.15 221.57,176.15 221.57,176.15 221.57,176.15 221.57,176.15 221.57,176.15 221.57,176.15 221.57,176.15 221.57,176.15 221.57,176.15 221.57,176.15 221.57,176.15 221.57,176.15 221.57,176.15 221.57,176.15 221.57,176.15 221.57,176.15 221.57,176.15 221.57,176.15 221.57,176.15 221.57,176.15 221.57,176.15 221.57,176.15 221.57,176.15 221.57,176.15 221.57,176.15 221.57,176.15 221.57,176.15 221.57,176.15 221.57,176.15 221.57,176.15 221.57,176.15 221.57,176.15 221.57,176.15 221.57,176.15 221.57,176.15 221.57,176.15 221.57,176.15 221.57,176.15 221.57,176.15 221.57,176.15 221.57,176.15 221.57,176.15 221.57,176.15 221.57,176.15 221.57,176.15 221.57,176.15 221.57,176.15 221.57,176.15 221.57,176.15 221.57,176.15 221.57,176.15 221.57,176.15 221.57,176.15 221.57,176.15 221.57,176.15 221.57,176.15 221.57,176.15 221.57,176.15 221.57,176.15 221.57,176.15 221.57,176.15 221.57,176.15 221.57,176.15 221.57,176.15 221.57,176.15 221.57,176.15 221.57,176.15 221.57,176.15 221.57,176.15 221.57,176.15 221.57,176.15 221.57,176.15 221.57,176.15 221.57,176.15 221.57,176.15 221.57,176.15 221.57,176.15 221.57,176.15 221.57,176.15 221.57,176.15 221.57,176.15 221.57,176.15 221.57,176.15 221.57,176.15 221.57,176.15 221.57,176.15 221.57,176.15 221.57,176.15 221.57,176.15 221.57,176.15 221.57,176.15 221.57,176.15 221.57,176.15 221.57,176.15 221.57,176.15 221.57,176.15 221.57,176.15 221.57,176.15 221.57,176.15 221.57,257.58 221.57,176.15 221.57,176.15 221.57,176.15 221.57,176.15 221.57,176.15 221.57,176.15 221.57,176.15 221.57,176.15 221.57,176.15 221.57,176.15 221.57,257.58 221.57,176.15 221.57,176.15 221.57,176.15 221.57,176.15 221.57,176.15 221.57,176.15 221.57,176.15 221.57,176.15 221.57,176.15 221.57,176.15 221.57,176.15 221.57,176.15 221.57,176.15 221.57,176.15 221.57,176.15 221.57,176.15 221.57,176.15 221.57,176.15 221.57,176.15 221.57,176.15 221.57,176.15 221.57,176.15 221.57,176.15 221.57,176.15 221.57,176.15 221.57,176.15 221.57,176.15 221.57,176.15 221.57,176.15 221.57,176.15 221.57,176.15 221.57,176.15 221.57,176.15 221.57,176.15 221.57,176.15 221.57,176.15 221.57,176.15 221.57,176.15 221.57,176.15 221.57,176.15 221.57,176.15 221.57,176.15 221.57,176.15 221.57,176.15 221.57,176.15 221.57,176.15 221.57,176.15 221.57,176.15 221.57,176.15 221.57,176.15 221.57,176.15 221.57,176.15 221.57,176.15 221.57,176.15 221.57,176.15 221.57,176.15 221.57,176.15 221.57,176.15 221.57,176.15 221.57,176.15 221.57,176.15 221.57,176.15 221.57,176.15 221.57,176.15 221.57,176.15 221.57,176.15 221.57,176.15 221.57,176.15 221.57,176.15 221.57,176.15 221.57,176.15 221.57,176.15 221.57,176.15 221.57,176.15 221.57,176.15 221.57,176.15 221.57,176.15 221.57,176.15 221.57,176.15 221.57,176.15 221.57,176.15 221.57,176.15 221.57,176.15 221.57,176.15 221.57,176.15 221.57,176.15 221.57,176.15 221.57,176.15 221.57,176.15 221.57,176.15 221.57,176.15 221.57,176.15 221.57,176.15 221.57,176.15 221.57,176.15 221.57,257.58 221.57,176.15 221.57,176.15 221.57,176.15 221.57,176.15 221.57,176.15 221.57,176.15 221.57,176.15 221.57,176.15 221.57,176.15 221.57,176.15 221.57,176.15 221.57,176.15 221.57,176.15 221.57,176.15 221.57,176.15 221.57,176.15 221.57,176.15 221.57,176.15 221.57,176.15 221.57,176.15 221.57,176.15 221.57,176.15 221.57,176.15 221.57,176.15 221.57,176.15 221.57,176.15 221.57,176.15 221.57,176.15 221.57,176.15 221.57,176.15 221.57,176.15 221.57,176.15 221.57,176.15 221.57,176.15 221.57,176.15 221.57,176.15 221.57,176.15 221.57,176.15 221.57,176.15 221.57,196.51 221.57,176.15 221.57,176.15 221.57,176.15 221.57,176.15 221.57,257.58 221.57,176.15 221.57,176.15 221.57,176.15 221.58,314.74 221.58,176.15 221.58,176.15 221.58,176.15 221.58,176.15 221.58,176.15 221.58,176.15 221.58,176.15 221.58,176.15 221.58,176.15 221.58,176.15 221.58,176.15 221.58,176.15 221.58,176.15 221.58,176.15 221.58,176.15 221.58,176.15 221.58,176.15 221.58,176.15 221.58,176.15 221.58,176.15 221.58,176.15 221.58,176.15 221.58,176.15 221.58,176.15 221.58,176.15 221.58,176.15 221.58,176.15 221.58,176.15 221.58,176.15 221.58,176.15 221.58,176.15 221.58,176.15 221.58,176.15 221.58,176.15 221.58,176.15 221.58,176.15 221.58,176.15 221.58,176.15 221.58,176.15 221.58,176.15 221.58,176.15 221.58,176.15 221.58,176.15 221.58,176.15 221.58,176.15 221.58,176.15 221.58,176.15 221.58,176.15 221.58,176.15 221.58,176.15 221.58,176.15 221.58,176.15 221.58,176.15 221.58,176.15 221.58,176.15 221.58,176.15 221.58,176.15 221.58,176.15 221.58,176.15 221.58,176.15 221.58,176.15 221.58,176.15 221.58,176.15 221.58,176.15 221.58,176.15 221.58,176.15 221.58,176.15 221.58,176.15 221.58,176.15 221.58,176.15 221.58,176.15 221.58,176.15 221.58,176.15 221.58,176.15 221.58,176.15 221.58,176.15 221.58,176.15 221.58,176.15 221.58,176.15 221.58,176.15 221.58,176.15 221.58,176.15 221.58,176.15 221.58,176.15 221.58,176.15 221.58,176.15 221.58,176.15 221.58,176.15 221.58,176.15 221.58,176.15 221.58,176.15 221.58,176.15 221.58,176.15 221.58,176.15 221.58,176.15 221.58,176.15 221.58,176.15 221.58,176.15 221.58,176.15 221.58,176.15 221.58,176.15 221.58,176.15 221.58,176.15 221.58,176.15 221.58,176.15 221.58,176.15 221.58,176.15 221.58,176.15 221.58,176.15 221.58,176.15 221.58,176.15 221.58,176.15 221.58,176.15 221.58,176.15 221.58,176.15 221.58,176.15 221.58,176.15 221.58,176.15 221.58,176.15 221.58,176.15 221.58,176.15 221.58,176.15 221.58,176.15 221.58,176.15 221.58,176.15 221.58,176.15 221.58,176.15 221.58,176.15 221.58,176.15 221.58,176.15 221.58,176.15 221.58,176.15 221.58,176.15 221.58,176.15 221.58,176.15 221.58,176.15 221.58,176.15 221.58,176.15 221.58,176.15 221.58,176.15 221.58,176.15 221.58,176.15 221.58,176.15 221.58,176.15 221.58,176.15 221.58,176.15 221.58,176.15 221.58,176.15 221.58,176.15 221.58,176.15 221.58,176.15 221.58,176.15 221.58,176.15 221.58,176.15 221.58,176.15 221.58,176.15 221.58,176.15 221.58,176.15 221.58,176.15 221.58,176.15 221.58,176.15 221.58,176.15 221.58,176.15 221.58,176.15 221.58,176.15 221.58,176.15 221.58,176.15 221.58,176.15 221.58,176.15 221.58,176.15 221.58,176.15 221.58,176.15 221.58,176.15 221.58,176.15 221.58,176.15 221.58,176.15 221.58,176.15 221.58,176.15 221.58,176.15 221.58,176.15 221.58,176.15 221.58,176.15 221.58,176.15 221.58,176.15 221.58,176.15 221.58,176.15 221.58,257.58 221.58,176.15 221.58,176.15 221.58,176.15 221.58,176.15 221.58,176.15 221.58,176.15 221.58,176.15 221.58,176.15 221.58,176.15 221.58,176.15 221.58,176.15 221.58,176.15 221.58,176.15 221.58,176.15 221.61,388.75 221.61,276.05 221.61,299.20 221.61,328.34 221.63,381.32 221.63,253.66 221.64,208.42 221.64,176.15 221.64,237.23 221.64,348.62 221.96,460.49 222.19,451.26 222.43,451.59 222.66,450.88 222.88,450.47 223.11,450.51 223.32,448.75 223.55,450.80 223.78,451.11 224.00,449.94 224.23,451.27 224.46,450.10 224.69,451.38 224.93,452.00 225.16,451.82 225.40,451.96 225.62,449.98 225.85,450.89 226.09,451.66 226.32,451.43 226.56,452.33 226.79,450.61 227.02,451.50 227.27,453.18 227.50,451.39 227.75,452.35 227.97,449.84 228.21,452.53 228.45,452.78 228.70,453.57 228.95,453.01 229.19,452.59 229.43,452.42 229.67,451.67 229.92,453.01 230.16,452.67 230.40,452.08 230.65,453.45 230.89,452.42 231.14,453.36 231.38,452.91 231.64,453.98 231.90,454.25 232.16,454.55 232.41,453.64 232.66,453.72 232.91,453.46 233.17,454.67 233.44,455.74 233.71,455.69 233.98,455.68 234.24,455.06 234.52,456.42 234.80,456.60 235.07,456.25 235.34,455.25 235.60,454.21 235.87,456.12 236.15,456.85 236.42,455.70 236.68,454.65 236.96,456.36 237.23,456.02 237.50,455.65 237.77,455.81 238.03,454.94 238.31,456.53 238.58,455.77 238.84,454.52 239.11,455.53 239.38,456.12 239.65,455.52 239.93,456.12 240.19,454.49 240.45,455.19 240.73,456.66 241.01,457.08 241.28,455.76 241.55,455.76 241.84,457.39 242.12,457.08 242.39,455.38 242.68,457.44 242.96,456.80 243.23,456.17 243.51,456.84 243.79,456.77 244.07,456.54 244.35,456.84 244.62,455.31 244.90,457.34 245.19,457.24 245.47,457.79 245.75,456.61 246.03,456.31 246.31,457.27 246.60,457.68 246.89,457.71 247.19,458.18 247.47,457.32 247.76,457.54 248.05,457.67 248.33,457.15 248.62,457.74 248.91,458.20 249.20,457.38 249.49,457.91 249.78,457.50 249.96,443.57 250.14,444.38 250.33,446.06 250.50,440.88 250.66,441.15 250.82,440.84 250.91,423.02 250.93,370.43 250.95,383.75 251.15,446.51 251.20,408.58 600.82,439.97 601.07,453.85 601.21,435.92 601.43,450.08 601.59,439.78 601.79,447.58 601.98,444.86 602.20,450.21 602.38,442.94 602.59,448.57 602.77,444.38 602.98,448.19 603.15,442.47 603.38,450.06 603.56,444.83 603.80,452.21 604.00,446.19 604.23,451.57 604.44,448.00 604.69,453.12 604.86,443.49 605.08,449.56 605.26,443.62 605.50,451.99 605.69,445.68 605.92,450.36 606.11,446.33 606.35,451.55 606.54,446.15 606.78,451.70 606.97,445.77 607.21,452.54 607.41,445.89 607.66,453.70 607.87,448.29 608.13,454.78 608.37,451.73 608.63,455.32 608.85,449.20 609.09,452.49 609.31,450.16 609.57,454.44 609.82,452.72 610.06,452.53 611.00,492.30 611.22,450.47 611.56,461.90 611.80,452.42 612.10,459.25 612.33,451.17 612.63,458.30 612.88,453.72 613.17,457.38 613.42,453.27 613.70,457.60 613.96,453.96 614.25,457.98 614.48,451.51 614.81,461.12 615.05,452.76 615.36,459.07 615.62,454.77 615.92,459.22 616.16,452.15 616.44,456.49 616.68,452.98 616.96,456.58 617.22,454.44 617.52,458.28 617.77,454.38 618.10,461.42 618.35,452.77 618.68,461.76 618.96,456.91 619.26,459.09 619.54,456.96 619.85,459.05 620.13,457.16 620.43,458.51 620.75,460.87 621.04,458.02 621.34,459.04 621.63,457.04 621.93,459.32 622.21,456.74 622.49,457.22 622.81,460.46 623.10,457.59 623.40,459.12 623.69,457.13 624.03,463.09 624.31,456.61 624.64,461.36 624.89,454.01 625.23,461.80 625.50,455.80 625.81,459.72 626.06,454.19 626.36,458.90 626.64,456.40 626.96,460.96 627.25,457.45 627.57,461.02 627.82,452.87 628.15,461.31 628.39,452.44 628.71,461.31 628.97,454.39 629.31,462.69 629.58,454.89 629.87,458.26 630.13,454.51 630.43,458.25 630.72,457.94 631.00,457.55 631.26,454.45 631.56,458.07 631.82,455.54 632.11,457.91 632.39,456.36 632.71,460.45 632.97,454.38 633.24,456.57 633.50,454.10 633.80,459.21 634.06,454.45 634.36,458.28 634.60,452.38 634.89,458.17 635.11,450.01 635.40,457.10 635.63,451.12 635.95,461.04 636.20,452.85 636.51,460.00 636.77,454.84 637.07,458.87 637.31,451.56 637.61,458.93 638.09,472.63 638.34,454.15 638.65,459.43 638.93,457.03 639.24,459.35 639.52,456.85 639.83,459.70 640.10,456.10 640.43,461.17 640.68,453.69 641.01,461.40 641.26,454.03 641.58,460.59 641.86,456.47 642.17,460.00 642.45,456.37 642.77,460.87 643.03,454.45 643.33,459.28 643.59,453.95 643.89,458.83 644.15,454.49 644.47,460.94 644.72,453.80 645.02,458.66 645.29,455.49 645.57,456.87 645.85,456.91 646.17,461.00 646.43,454.38 646.73,458.38 647.00,455.74 647.32,460.99 647.57,453.44 647.90,461.82 648.17,455.66 648.50,461.37 648.76,454.18 649.06,458.72 649.30,452.54 649.63,461.91 649.92,457.69 650.25,461.10 650.53,457.05 650.85,460.71 651.12,455.85 651.45,461.45 651.74,458.00 652.06,460.49 652.31,453.59 652.66,463.82 652.94,456.12 653.27,461.99 653.53,454.55 653.86,461.30 654.13,456.11 654.44,459.91 654.73,457.79 655.05,460.19 655.34,457.69 655.61,455.83 655.85,451.82 656.18,462.44 656.44,454.03 656.77,461.31 657.03,455.42 657.38,463.01 657.64,454.23 657.97,461.79 658.24,455.87 658.56,460.63 658.82,454.33 659.13,460.47 659.42,457.68 659.77,462.81 660.95,499.04 661.20,454.20 661.54,461.84 661.83,457.89 662.16,461.81 662.43,455.88 662.77,461.94 663.06,457.80 663.40,463.21 663.67,455.18 664.00,461.27 664.26,454.88 664.59,461.41 664.84,454.13 665.16,460.17 665.44,457.00 665.77,461.72 666.06,457.88 666.40,462.70 666.70,458.22 667.03,461.57 667.32,458.45 667.65,461.18 667.92,456.05 668.27,463.41 668.55,456.20 668.89,462.40 669.16,456.49 669.50,462.17 669.80,458.87 670.15,463.58 670.43,456.11 670.75,460.53 671.00,453.52 671.32,460.75 671.62,459.15 671.99,464.58 672.24,454.52 672.57,461.44 672.81,452.29 673.16,463.18 673.46,458.92 673.82,463.65 674.08,454.44 674.41,461.79 674.68,456.22 675.02,462.33 675.28,454.11 675.60,460.90 675.86,455.26 676.19,461.51 676.47,456.53 676.81,462.18 677.08,455.86 677.42,462.92 677.70,456.51 678.03,461.37 678.28,453.21 678.58,458.80 678.83,453.47 679.12,457.79 679.35,451.39 679.62,456.24 679.87,453.33 680.15,455.93 680.35,447.81 680.60,453.35 680.80,446.78 681.05,453.28 681.25,447.38 681.51,454.63 681.72,448.23 681.97,453.40 682.17,446.11 682.40,451.15 682.59,446.03 682.82,451.11 683.03,447.42 683.28,453.99 683.49,447.47 683.75,455.64 683.94,445.26 684.19,453.26 684.39,446.48 684.64,453.07 684.84,447.26 685.08,452.15 685.28,446.62 685.52,452.86 685.72,446.19 685.97,453.56 686.17,447.72 686.42,453.13 686.64,449.20 686.89,453.51 687.09,447.54 687.35,454.53 687.55,447.22 687.82,455.47 688.04,448.98 688.28,452.55 688.50,449.50 688.76,454.62 688.97,449.02 689.25,456.44 689.46,448.99 689.74,455.87 689.95,448.55 690.22,456.28 690.46,451.68 690.72,455.21 746.48,469.75 746.98,473.87 747.35,464.57 747.84,473.56 748.25,467.64 748.77,474.84 749.15,466.02 749.65,473.87 750.02,464.88 750.48,471.42 750.89,467.71 751.36,472.28 751.76,466.89 752.20,470.26 752.60,466.97 753.06,471.40 753.51,470.86 753.97,471.18 754.33,464.61 754.80,471.74 755.21,467.75 755.77,477.23 756.18,467.85 756.69,474.37 757.10,467.92 757.62,475.40 758.07,470.56 758.60,475.63 759.10,473.69 759.63,475.21 759.99,464.81 760.52,475.57 760.97,470.66 761.48,474.15 761.89,467.83 762.40,474.29 762.79,466.63 763.29,473.95 763.71,468.42 764.20,473.29 764.67,472.43 765.16,472.90 765.64,472.67 766.13,473.32 767.05,491.70 767.50,470.85 768.02,474.86 768.44,468.43 768.91,471.97 769.34,469.44 769.89,476.58 770.32,469.77 770.85,475.48 771.28,469.02 771.82,475.98 772.25,469.87 772.75,473.40 773.22,471.99 773.67,470.70 774.11,470.43 774.64,475.45 775.02,465.22 775.49,472.04 775.92,469.95 776.42,473.25 776.84,468.66 777.27,469.38 777.69,469.34 778.21,474.71 778.63,468.39 779.09,471.67 779.48,466.21 779.95,472.21 780.37,468.87 780.85,472.61 781.29,470.04 781.81,474.72 782.22,467.84 782.71,473.37 783.21,473.83 783.68,471.94 784.17,473.09 784.66,473.41 785.11,470.54 785.61,474.03 786.06,470.29 786.56,474.34 786.98,468.07 787.48,474.02 787.91,469.08 788.36,470.83 788.76,467.82 789.27,474.19 789.63,464.25 790.12,473.26 790.51,466.05 791.02,474.42 791.45,469.21 792.00,476.79 792.41,468.41 792.87,471.12 793.26,466.36 793.73,472.32 794.13,466.90 794.64,474.28 795.04,467.50" stroke-dasharray="3.6 3.6" stroke-width="3.6" stroke="#aaa" />
<g>
<circle cx="150.27" cy="456.21" r="1.6666666666666667" />
<circle cx="150.55" cy="456.65" r="1.6666666666666667" />
<circle cx="150.83" cy="456.52" r="1.6666666666666667" />
<circle cx="151.11" cy="457.04" r="1.6666666666666667" />
<circle cx="151.40" cy="457.14" r="1.6666666666666667" />
<circle cx="151.67" cy="456.37" r="1.6666666666666667" />
<circle cx="151.95" cy="456.65" r="1.6666666666666667" />
<circle cx="152.23" cy="456.35" r="1.6666666666666667" />
<circle cx="152.51" cy="457.12" r="1.6666666666666667" />
<circle cx="152.56" cy="405.31" r="1.6666666666666667" />
<circle cx="178.96" cy="486.55" r="1.6666666666666667" />
<circle cx="179.78" cy="488.22" r="1.6666666666666667" />
<circle cx="180.57" cy="487.24" r="1.6666666666666667" />
<circle cx="181.42" cy="489.44" r="1.6666666666666667" />
<circle cx="182.28" cy="489.72" r="1.6666666666666667" />
<circle cx="182.98" cy="483.75" r="1.6666666666666667" />
<circle cx="183.63" cy="481.44" r="1.6666666666666667" />
<circle cx="184.34" cy="484.22" r="1.6666666666666667" />
<circle cx="184.99" cy="481.34" r="1.6666666666666667" />
<circle cx="185.68" cy="483.48" r="1.6666666666666667" />
<circle cx="186.46" cy="486.68" r="1.6666666666666667" />
<circle cx="187.20" cy="485.64" r="1.6666666666666667" />
<circle cx="187.92" cy="484.41" r="1.6666666666666667" />
<circle cx="188.69" cy="486.56" r="1.6666666666666667" />
<circle cx="189.52" cy="488.59" r="1.6666666666666667" />
<circle cx="190.24" cy="484.40" r="1.6666666666666667" />
<circle cx="191.04" cy="487.50" r="1.6666666666666667" />
<circle cx="191.84" cy="487.71" r="1.6666666666666667" />
<circle cx="192.55" cy="484.38" r="1.6666666666666667" />
<circle cx="193.37" cy="488.16" r="1.6666666666666667" />
<circle cx="194.02" cy="481.69" r="1.6666666666666667" />
<circle cx="194.78" cy="485.99" r="1.6666666666666667" />
<circle cx="195.46" cy="482.60" r="1.6666666666666667" />
<circle cx="196.20" cy="485.67" r="1.6666666666666667" />
<circle cx="196.97" cy="486.24" r="1.6666666666666667" />
<circle cx="197.69" cy="484.60" r="1.6666666666666667" />
<circle cx="198.47" cy="486.81" r="1.6666666666666667" />
<circle cx="199.29" cy="488.48" r="1.6666666666666667" />
<circle cx="221.51" cy="384.00" r="1.6666666666666667" />
<circle cx="221.51" cy="257.58" r="1.6666666666666667" />
<circle cx="221.51" cy="261.04" r="1.6666666666666667" />
<circle cx="221.51" cy="272.95" r="1.6666666666666667" />
<circle cx="221.51" cy="259.36" r="1.6666666666666667" />
<circle cx="221.56" cy="405.51" r="1.6666666666666667" />
<circle cx="221.56" cy="237.23" r="1.6666666666666667" />
<circle cx="221.56" cy="216.87" r="1.6666666666666667" />
<circle cx="221.56" cy="196.51" r="1.6666666666666667" />
<circle cx="221.56" cy="176.15" r="1.6666666666666667" />
<circle cx="221.56" cy="176.15" r="1.6666666666666667" />
<circle cx="221.56" cy="176.15" r="1.6666666666666667" />
<circle cx="221.56" cy="176.15" r="1.6666666666666667" />
<circle cx="221.56" cy="176.15" r="1.6666666666666667" />
<circle cx="221.56" cy="176.15" r="1.6666666666666667" />
<circle cx="221.56" cy="176.15" r="1.6666666666666667" />
<circle cx="221.56" cy="176.15" r="1.6666666666666667" />
<circle cx="221.56" cy="176.15" r="1.6666666666666667" />
<circle cx="221.56" cy="176.15" r="1.6666666666666667" />
<circle cx="221.56" cy="176.15" r="1.6666666666666667" />
<circle cx="221.56" cy="176.15" r="1.6666666666666667" />
<circle cx="221.56" cy="176.15" r="1.6666666666666667" />
<circle cx="221.56" cy="176.15" r="1.6666666666666667" />
<circle cx="221.56" cy="176.15" r="1.6666666666666667" />
<circle cx="221.56" cy="176.15" r="1.6666666666666667" />
<circle cx="221.56" cy="176.15" r="1.6666666666666667" />
<circle cx="221.56" cy="176.15" r="1.6666666666666667" />
<circle cx="221.56" cy="176.15" r="1.6666666666666667" />
<circle cx="221.56" cy="176.15" r="1.6666666666666667" />
<circle cx="221.56" cy="176.15" r="1.6666666666666667" />
<circle cx="221.56" cy="176.15" r="1.6666666666666667" />
<circle cx="221.56" cy="176.15" r="1.6666666666666667" />
<circle cx="221.56" cy="176.15" r="1.6666666666666667" />
<circle cx="221.56" cy="176.15" r="1.6666666666666667" />
<circle cx="221.56" cy="176.15" r="1.6666666666666667" />
<circle cx="221.56" cy="176.15" r="1.6666666666666667" />
<circle cx="221.56" cy="176.15" r="1.6666666666666667" />
<circle cx="221.56" cy="176.15" r="1.6666666666666667" />
<circle cx="221.56" cy="176.15" r="1.6666666666666667" />
<circle cx="221.56" cy="176.15" r="1.6666666666666667" />
<circle cx="221.56" cy="176.15" r="1.6666666666666667" />
<circle cx="221.56" cy="176.15" r="1.6666666666666667" />
<circle cx="221.56" cy="176.15" r="1.6666666666666667" />
<circle cx="221.56" cy="176.15" r="1.6666666666666667" />
<circle cx="221.56" cy="176.15" r="1.6666666666666667" />
<circle cx="221.56" cy="176.15" r="1.6666666666666667" />
<circle cx="221.56" cy="176.15" r="1.6666666666666667" />
<circle cx="221.56" cy="176.15" r="1.6666666666666667" />
<circle cx="221.56" cy="176.15" r="1.6666666666666667" />
<circle cx="221.56" cy="176.15" r="1.6666666666666667" />
<circle cx="221.56" cy="176.15" r="1.6666666666666667" />
<circle cx="221.56" cy="176.15" r="1.6666666666666667" />
<circle cx="221.56" cy="176.15" r="1.6666666666666667" />
<circle cx="221.56" cy="176.15" r="1.6666666666666667" />
<circle cx="221.56" cy="176.15" r="1.6666666666666667" />
<circle cx="221.56" cy="176.15" r="1.6666666666666667" />
<circle cx="221.56" cy="176.15" r="1.6666666666666667" />
<circle cx="221.56" cy="176.15" r="1.6666666666666667" />
<circle cx="221.56" cy="176.15" r="1.6666666666666667" />
<circle cx="221.56" cy="176.15" r="1.6666666666666667" />
<circle cx="221.56" cy="176.15" r="1.6666666666666667" />
<circle cx="221.56" cy="176.15" r="1.6666666666666667" />
<circle cx="221.56" cy="176.15" r="1.6666666666666667" />
<circle cx="221.56" cy="176.15" r="1.6666666666666667" />
<circle cx="221.56" cy="176.15" r="1.6666666666666667" />
<circle cx="221.56" cy="176.15" r="1.6666666666666667" />
<circle cx="221.56" cy="176.15" r="1.6666666666666667" />
<circle cx="221.56" cy="176.15" r="1.6666666666666667" />
<circle cx="221.56" cy="176.15" r="1.6666666666666667" />
<circle cx="221.56" cy="176.15" r="1.6666666666666667" />
<circle cx="221.56" cy="176.15" r="1.6666666666666667" />
<circle cx="221.56" cy="176.15" r="1.6666666666666667" />
<circle cx="221.57" cy="176.15" r="1.6666666666666667" />
<circle cx="221.57" cy="176.15" r="1.6666666666666667" />
<circle cx="221.57" cy="176.15" r="1.6666666666666667" />
<circle cx="221.57" cy="176.15" r="1.6666666666666667" />
<circle cx="221.57" cy="176.15" r="1.6666666666666667" />
<circle cx="221.57" cy="196.51" r="1.6666666666666667" />
<circle cx="221.57" cy="176.15" r="1.6666666666666667" />
<circle cx="221.57" cy="176.15" r="1.6666666666666667" />
<circle cx="221.57" cy="176.15" r="1.6666666666666667" />
<circle cx="221.57" cy="176.15" r="1.6666666666666667" />
<circle cx="221.57" cy="176.15" r="1.6666666666666667" />
<circle cx="221.57" cy="176.15" r="1.6666666666666667" />
<circle cx="221.57" cy="176.15" r="1.6666666666666667" />
<circle cx="221.57" cy="176.15" r="1.6666666666666667" />
<circle cx="221.57" cy="176.15" r="1.6666666666666667" />
<circle cx="221.57" cy="176.15" r="1.6666666666666667" />
<circle cx="221.57" cy="176.15" r="1.6666666666666667" />
<circle cx="221.57" cy="176.15" r="1.6666666666666667" />
<circle cx="221.57" cy="176.15" r="1.6666666666666667" />
<circle cx="221.57" cy="176.15" r="1.6666666666666667" />
<circle cx="221.57" cy="176.15" r="1.6666666666666667" />
<circle cx="221.57" cy="176.15" r="1.6666666666666667" />
<circle cx="221.57" cy="176.15" r="1.6666666666666667" />
<circle cx="221.57" cy="176.15" r="1.6666666666666667" />
<circle cx="221.57" cy="176.15" r="1.6666666666666667" />
<circle cx="221.57" cy="176.15" r="1.6666666666666667" />
<circle cx="221.57" cy="176.15" r="1.6666666666666667" />
<circle cx="221.57" cy="176.15" r="1.6666666666666667" />
<circle cx="221.57" cy="176.15" r="1.6666666666666667" />
<circle cx="221.57" cy="176.15" r="1.6666666666666667" />
<circle cx="221.57" cy="176.15" r="1.6666666666666667" />
<circle cx="221.57" cy="176.15" r="1.6666666666666667" />
<circle cx="221.57" cy="176.15" r="1.6666666666666667" />
<circle cx="221.57" cy="176.15" r="1.6666666666666667" />
<circle cx="221.57" cy="176.15" r="1.6666666666666667" />
<circle cx="221.57" cy="176.15" r="1.6666666666666667" />
<circle cx="221.57" cy="176.15" r="1.6666666666666667" />
<circle cx="221.57" cy="176.15" r="1.6666666666666667" />
<circle cx="221.57" cy="176.15" r="1.6666666666666667" />
<circle cx="221.57" cy="176.15" r="1.6666666666666667" />
<circle cx="221.57" cy="176.15" r="1.6666666666666667" />
<circle cx="221.57" cy="176.15" r="1.6666666666666667" />
<circle cx="221.57" cy="176.15" r="1.6666666666666667" />
<circle cx="221.57" cy="176.15" r="1.6666666666666667" />
<circle cx="221.57" cy="176.15" r="1.6666666666666667" />
<circle cx="221.57" cy="176.15" r="1.6666666666666667" />
<circle cx="221.57" cy="176.15" r="1.6666666666666667" />
<circle cx="221.57" cy="176.15" r="1.6666666666666667" />
<circle cx="221.57" cy="176.15" r="1.6666666666666667" />
<circle cx="221.57" cy="176.15" r="1.6666666666666667" />
<circle cx="221.57" cy="176.15" r="1.6666666666666667" />
<circle cx="221.57" cy="176.15" r="1.6666666666666667" />
<circle cx="221.57" cy="176.15" r="1.6666666666666667" />
<circle cx="221.57" cy="176.15" r="1.6666666666666667" />
<circle cx="221.57" cy="176.15" r="1.6666666666666667" />
<circle cx="221.57" cy="176.15" r="1.6666666666666667" />
<circle cx="221.57" cy="176.15" r="1.6666666666666667" />
<circle cx="221.57" cy="176.15" r="1.6666666666666667" />
<circle cx="221.57" cy="176.15" r="1.6666666666666667" />
<circle cx="221.57" cy="176.15" r="1.6666666666666667" />
<circle cx="221.57" cy="176.15" r="1.6666666666666667" />
<circle cx="221.57" cy="176.15" r="1.6666666666666667" />
<circle cx="221.57" cy="176.15" r="1.6666666666666667" />
<circle cx="221.57" cy="176.15" r="1.6666666666666667" />
<circle cx="221.57" cy="176.15" r="1.6666666666666667" />
<circle cx="221.57" cy="176.15" r="1.6666666666666667" />
<circle cx="221.57" cy="176.15" r="1.6666666666666667" />
<circle cx="221.57" cy="257.58" r="1.6666666666666667" />
<circle cx="221.57" cy="176.15" r="1.6666666666666667" />
<circle cx="221.57" cy="176.15" r="1.6666666666666667" />
<circle cx="221.57" cy="176.15" r="1.6666666666666667" />
<circle cx="221.57" cy="176.15" r="1.6666666666666667" />
<circle cx="221.57" cy="176.15" r="1.6666666666666667" />
<circle cx="221.57" cy="176.15" r="1.6666666666666667" />
<circle cx="221.57" cy="176.15" r="1.6666666666666667" />
<circle cx="221.57" cy="176.15" r="1.6666666666666667" />
<circle cx="221.57" cy="176.15" r="1.6666666666666667" />
<circle cx="221.57" cy="176.15" r="1.6666666666666667" />
<circle cx="221.57" cy="176.15" r="1.6666666666666667" />
<circle cx="221.57" cy="176.15" r="1.6666666666666667" />
<circle cx="221.57" cy="176.15" r="1.6666666666666667" />
<circle cx="221.57" cy="176.15" r="1.6666666666666667" />
<circle cx="221.57" cy="176.15" r="1.6666666666666667" />
<circle cx="221.57" cy="176.15" r="1.6666666666666667" />
<circle cx="221.57" cy="176.15" r="1.6666666666666667" />
<circle cx="221.57" cy="176.15" r="1.6666666666666667" />
<circle cx="221.57" cy="176.15" r="1.6666666666666667" />
<circle cx="221.57" cy="176.15" r="1.6666666666666667" />
<circle cx="221.57" cy="176.15" r="1.6666666666666667" />
<circle cx="221.57" cy="176.15" r="1.6666666666666667" />
<circle cx="221.57" cy="176.15" r="1.6666666666666667" />
<circle cx="221.57" cy="176.15" r="1.6666666666666667" />
<circle cx="221.57" cy="176.15" r="1.6666666666666667" />
<circle cx="221.57" cy="176.15" r="1.6666666666666667" />
<circle cx="221.57" cy="176.15" r="1.6666666666666667" />
<circle cx="221.57" cy="176.15" r="1.6666666666666667" />
<circle cx="221.57" cy="176.15" r="1.6666666666666667" />
<circle cx="221.57" cy="176.15" r="1.6666666666666667" />
<circle cx="221.57" cy="176.15" r="1.6666666666666667" />
<circle cx="221.57" cy="176.15" r="1.6666666666666667" />
<circle cx="221.57" cy="176.15" r="1.6666666666666667" />
<circle cx="221.57" cy="176.15" r="1.6666666666666667" />
<circle cx="221.57" cy="176.15" r="1.6666666666666667" />
<circle cx="221.57" cy="176.15" r="1.6666666666666667" />
<circle cx="221.57" cy="176.15" r="1.6666666666666667" />
<circle cx="221.57" cy="176.15" r="1.6666666666666667" />
<circle cx="221.57" cy="176.15" r="1.6666666666666667" />
<circle cx="221.57" cy="176.15" r="1.6666666666666667" />
<circle cx="221.57" cy="176.15" r="1.6666666666666667" />
<circle cx="221.57" cy="176.15" r="1.6666666666666667" />
<circle cx="221.57" cy="176.15" r="1.6666666666666667" />
<circle cx="221.57" cy="176.15" r="1.6666666666666667" />
<circle cx="221.57" cy="176.15" r="1.6666666666666667" />
<circle cx="221.57" cy="176.15" r="1.6666666666666667" />
<circle cx="221.57" cy="176.15" r="1.6666666666666667" />
<circle cx="221.57" cy="176.15" r="1.6666666666666667" />
<circle cx="221.57" cy="176.15" r="1.6666666666666667" />
<circle cx="221.57" cy="176.15" r="1.6666666666666667" />
<circle cx="221.57" cy="176.15" r="1.6666666666666667" />
<circle cx="221.57" cy="176.15" r="1.6666666666666667" />
<circle cx="221.57" cy="176.15" r="1.6666666666666667" />
<circle cx="221.57" cy="176.15" r="1.6666666666666667" />
<circle cx="221.57" cy="176.15" r="1.6666666666666667" />
<circle cx="221.57" cy="176.15" r="1.6666666666666667" />
<circle cx="221.57" cy="176.15" r="1.6666666666666667" />
<circle cx="221.57" cy="176.15" r="1.6666666666666667" />
<circle cx="221.57" cy="176.15" r="1.6666666666666667" />
<circle cx="221.57" cy="176.15" r="1.6666666666666667" />
<circle cx="221.57" cy="176.15" r="1.6666666666666667" />
<circle cx="221.57" cy="176.15" r="1.6666666666666667" />
<circle cx="221.57" cy="176.15" r="1.6666666666666667" />
<circle cx="221.57" cy="176.15" r="1.6666666666666667" />
<circle cx="221.57" cy="176.15" r="1.6666666666666667" />
<circle cx="221.57" cy="176.15" r="1.6666666666666667" />
<circle cx="221.57" cy="176.15" r="1.6666666666666667" />
<circle cx="221.57" cy="176.15" r="1.6666666666666667" />
<circle cx="221.57" cy="176.15" r="1.6666666666666667" />
<circle cx="221.57" cy="176.15" r="1.6666666666666667" />
<circle cx="221.57" cy="176.15" r="1.6666666666666667" />
<circle cx="221.57" cy="176.15" r="1.6666666666666667" />
<circle cx="221.57" cy="176.15" r="1.6666666666666667" />
<circle cx="221.57" cy="176.15" r="1.6666666666666667" />
<circle cx="221.57" cy="176.15" r="1.6666666666666667" />
<circle cx="221.57" cy="176.15" r="1.6666666666666667" />
<circle cx="221.57" cy="176.15" r="1.6666666666666667" />
<circle cx="221.57" cy="176.15" r="1.6666666666666667" />
<circle cx="221.57" cy="176.15" r="1.6666666666666667" />
<circle cx="221.57" cy="176.15" r="1.6666666666666667" />
<circle cx="221.57" cy="176.15" r="1.6666666666666667" />
<circle cx="221.57" cy="176.15" r="1.6666666666666667" />
<circle cx="221.57" cy="176.15" r="1.6666666666666667" />
<circle cx="221.57" cy="176.15" r="1.6666666666666667" />
<circle cx="221.57" cy="176.15" r="1.6666666666666667" />
<circle cx="221.57" cy="176.15" r="1.6666666666666667" />
<circle cx="221.57" cy="176.15" r="1.6666666666666667" />
<circle cx="221.57" cy="176.15" r="1.6666666666666667" />
<circle cx="221.57" cy="176.15" r="1.6666666666666667" />
<circle cx="221.57" cy="176.15" r="1.6666666666666667" />
<circle cx="221.57" cy="176.15" r="1.6666666666666667" />
<circle cx="221.57" cy="176.15" r="1.6666666666666667" />
<circle cx="221.57" cy="176.15" r="1.6666666666666667" />
<circle cx="221.57" cy="176.15" r="1.6666666666666667" />
<circle cx="221.57" cy="176.15" r="1.6666666666666667" />
<circle cx="221.57" cy="176.15" r="1.6666666666666667" />
<circle cx="221.57" cy="176.15" r="1.6666666666666667" />
<circle cx="221.57" cy="176.15" r="1.6666666666666667" />
<circle cx="221.57" cy="176.15" r="1.6666666666666667" />
<circle cx="221.57" cy="176.15" r="1.6666666666666667" />
<circle cx="221.57" cy="176.15" r="1.6666666666666667" />
<circle cx="221.57" cy="176.15" r="1.6666666666666667" />
<circle cx="221.57" cy="176.15" r="1.6666666666666667" />
<circle cx="221.57" cy="176.15" r="1.6666666666666667" />
<circle cx="221.57" cy="176.15" r="1.6666666666666667" />
<circle cx="221.57" cy="176.15" r="1.6666666666666667" />
<circle cx="221.57" cy="176.15" r="1.6666666666666667" />
<circle cx="221.57" cy="176.15" r="1.6666666666666667" />
<circle cx="221.57" cy="176.15" r="1.6666666666666667" />
<circle cx="221.57" cy="176.15" r="1.6666666666666667" />
<circle cx="221.57" cy="176.15" r="1.6666666666666667" />
<circle cx="221.57" cy="176.15" r="1.6666666666666667" />
<circle cx="221.57" cy="176.15" r="1.6666666666666667" />
<circle cx="221.57" cy="176.15" r="1.6666666666666667" />
<circle cx="221.57" cy="176.15" r="1.6666666666666667" />
<circle cx="221.57" cy="176.15" r="1.6666666666666667" />
<circle cx="221.57" cy="176.15" r="1.6666666666666667" />
<circle cx="221.57" cy="176.15" r="1.6666666666666667" />
<circle cx="221.57" cy="176.15" r="1.6666666666666667" />
<circle cx="221.57" cy="176.15" r="1.6666666666666667" />
<circle cx="221.57" cy="176.15" r="1.6666666666666667" />
<circle cx="221.57" cy="176.15" r="1.6666666666666667" />
<circle cx="221.57" cy="176.15" r="1.6666666666666667" />
<circle cx="221.57" cy="176.15" r="1.6666666666666667" />
<circle cx="221.57" cy="176.15" r="1.6666666666666667" />
<circle cx="221.57" cy="176.15" r="1.6666666666666667" />
<circle cx="221.57" cy="176.15" r="1.6666666666666667" />
<circle cx="221.57" cy="176.15" r="1.6666666666666667" />
<circle cx="221.57" cy="176.15" r="1.6666666666666667" />
<circle cx="221.57" cy="176.15" r="1.6666666666666667" />
<circle cx="221.57" cy="176.15" r="1.6666666666666667" />
<circle cx="221.57" cy="176.15" r="1.6666666666666667" />
<circle cx="221.57" cy="176.15" r="1.6666666666666667" />
<circle cx="221.57" cy="176.15" r="1.6666666666666667" />
<circle cx="221.57" cy="176.15" r="1.6666666666666667" />
<circle cx="221.57" cy="176.15" r="1.6666666666666667" />
<circle cx="221.57" cy="176.15" r="1.6666666666666667" />
<circle cx="221.57" cy="257.58" r="1.6666666666666667" />
<circle cx="221.57" cy="176.15" r="1.6666666666666667" />
<circle cx="221.57" cy="176.15" r="1.6666666666666667" />
<circle cx="221.57" cy="176.15" r="1.6666666666666667" />
<circle cx="221.57" cy="176.15" r="1.6666666666666667" />
<circle cx="221.57" cy="176.15" r="1.6666666666666667" />
<circle cx="221.57" cy="176.15" r="1.6666666666666667" />
<circle cx="221.57" cy="176.15" r="1.6666666666666667" />
<circle cx="221.57" cy="176.15" r="1.6666666666666667" />
<circle cx="221.57" cy="176.15" r="1.6666666666666667" />
<circle cx="221.57" cy="176.15" r="1.6666666666666667" />
<circle cx="221.57" cy="257.58" r="1.6666666666666667" />
<circle cx="221.57" cy="176.15" r="1.6666666666666667" />
<circle cx="221.57" cy="176.15" r="1.6666666666666667" />
<circle cx="221.57" cy="176.15" r="1.6666666666666667" />
<circle cx="221.57" cy="176.15" r="1.6666666666666667" />
<circle cx="221.57" cy="176.15" r="1.6666666666666667" />
<circle cx="221.57" cy="176.15" r="1.6666666666666667" />
<circle cx="221.57" cy="176.15" r="1.6666666666666667" />
<circle cx="221.57" cy="176.15" r="1.6666666666666667" />
<circle cx="221.57" cy="176.15" r="1.6666666666666667" />
<circle cx="221.57" cy="176.15" r="1.6666666666666667" />
<circle cx="221.57" cy="176.15" r="1.6666666666666667" />
<circle cx="221.57" cy="176.15" r="1.6666666666666667" />
<circle cx="221.57" cy="176.15" r="1.6666666666666667" />
<circle cx="221.57" cy="176.15" r="1.6666666666666667" />
<circle cx="221.57" cy="176.15" r="1.6666666666666667" />
<circle cx="221.57" cy="176.15" r="1.6666666666666667" />
<circle cx="221.57" cy="176.15" r="1.6666666666666667" />
<circle cx="221.57" cy="176.15" r="1.6666666666666667" />
<circle cx="221.57" cy="176.15" r="1.6666666666666667" />
<circle cx="221.57" cy="176.15" r="1.6666666666666667" />
<circle cx="221.57" cy="176.15" r="1.6666666666666667" />
<circle cx="221.57" cy="176.15" r="1.6666666666666667" />
<circle cx="221.57" cy="176.15" r="1.6666666666666667" />
<circle cx="221.57" cy="176.15" r="1.6666666666666667" />
<circle cx="221.57" cy="176.15" r="1.6666666666666667" />
<circle cx="221.57" cy="176.15" r="1.6666666666666667" />
<circle cx="221.57" cy="176.15" r="1.6666666666666667" />
<circle cx="221.57" cy="176.15" r="1.6666666666666667" />
<circle cx="221.57" cy="176.15" r="1.6666666666666667" />
<circle cx="221.57" cy="176.15" r="1.6666666666666667" />
<circle cx="221.57" cy="176.15" r="1.6666666666666667" />
<circle cx="221.57" cy="176.15" r="1.6666666666666667" />
<circle cx="221.57" cy="176.15" r="1.6666666666666667" />
<circle cx="221.57" cy="176.15" r="1.6666666666666667" />
<circle cx="221.57" cy="176.15" r="1.6666666666666667" />
<circle cx="221.57" cy="176.15" r="1.6666666666666667" />
<circle cx="221.57" cy="176.15" r="1.6666666666666667" />
<circle cx="221.57" cy="176.15" r="1.6666666666666667" />
<circle cx="221.57" cy="176.15" r="1.6666666666666667" />
<circle cx="221.57" cy="176.15" r="1.6666666666666667" />
<circle cx="221.57" cy="176.15" r="1.6666666666666667" />
<circle cx="221.57" cy="176.15" r="1.6666666666666667" />
<circle cx="221.57" cy="176.15" r="1.6666666666666667" />
<circle cx="221.57" cy="176.15" r="1.6666666666666667" />
<circle cx="221.57" cy="176.15" r="1.6666666666666667" />
<circle cx="221.57" cy="176.15" r="1.6666666666666667" />
<circle cx="221.57" cy="176.15" r="1.6666666666666667" />
<circle cx="221.57" cy="176.15" r="1.6666666666666667" />
<circle cx="221.57" cy="176.15" r="1.6666666666666667" />
<circle cx="221.57" cy="176.15" r="1.6666666666666667" />
<circle cx="221.57" cy="176.15" r="1.6666666666666667" />
<circle cx="221.57" cy="176.15" r="1.6666666666666667" />
<circle cx="221.57" cy="176.15" r="1.6666666666666667" />
<circle cx="221.57" cy="176.15" r="1.6666666666666667" />
<circle cx="221.57" cy="176.15" r="1.6666666666666667" />
<circle cx="221.57" cy="176.15" r="1.6666666666666667" />
<circle cx="221.57" cy="176.15" r="1.6666666666666667" />
<circle cx="221.57" cy="176.15" r="1.6666666666666667" />
<circle cx="221.57" cy="176.15" r="1.6666666666666667" />
<circle cx="221.57" cy="176.15" r="1.6666666666666667" />
<circle cx="221.57" cy="176.15" r="1.6666666666666667" />
<circle cx="221.57" cy="176.15" r="1.6666666666666667" />
<circle cx="221.57" cy="176.15" r="1.6666666666666667" />
<circle cx="221.57" cy="176.15" r="1.6666666666666667" />
<circle cx="221.57" cy="176.15" r="1.6666666666666667" />
<circle cx="221.57" cy="176.15" r="1.6666666666666667" />
<circle cx="221.57" cy="176.15" r="1.6666666666666667" />
<circle cx="221.57" cy="176.15" r="1.6666666666666667" />
<circle cx="221.57" cy="176.15" r="1.6666666666666667" />
<circle cx="221.57" cy="176.15" r="1.6666666666666667" />
<circle cx="221.57" cy="176.15" r="1.6666666666666667" />
<circle cx="221.57" cy="176.15" r="1.6666666666666667" />
<circle cx="221.57" cy="176.15" r="1.6666666666666667" />
<circle cx="221.57" cy="176.15" r="1.6666666666666667" />
<circle cx="221.57" cy="176.15" r="1.6666666666666667" />
<circle cx="221.57" cy="176.15" r="1.6666666666666667" />
<circle cx="221.57" cy="176.15" r="1.6666666666666667" />
<circle cx="221.57" cy="176.15" r="1.6666666666666667" />
<circle cx="221.57" cy="176.15" r="1.6666666666666667" />
<circle cx="221.57" cy="176.15" r="1.6666666666666667" />
<circle cx="221.57" cy="176.15" r="1.6666666666666667" />
<circle cx="221.57" cy="176.15" r="1.6666666666666667" />
<circle cx="221.57" cy="176.15" r="1.6666666666666667" />
<circle cx="221.57" cy="176.15" r="1.6666666666666667" />
<circle cx="221.57" cy="176.15" r="1.6666666666666667" />
<circle cx="221.57" cy="176.15" r="1.6666666666666667" />
<circle cx="221.57" cy="176.15" r="1.6666666666666667" />
<circle cx="221.57" cy="176.15" r="1.6666666666666667" />
<circle cx="221.57" cy="176.15" r="1.6666666666666667" />
<circle cx="221.57" cy="176.15" r="1.6666666666666667" />
<circle cx="221.57" cy="176.15" r="1.6666666666666667" />
<circle cx="221.57" cy="176.15" r="1.6666666666666667" />
<circle cx="221.57" cy="176.15" r="1.6666666666666667" />
<circle cx="221.57" cy="176.15" r="1.6666666666666667" />
<circle cx="221.57" cy="176.15" r="1.6666666666666667" />
<circle cx="221.57" cy="257.58" r="1.6666666666666667" />
<circle cx="221.57" cy="176.15" r="1.6666666666666667" />
<circle cx="221.57" cy="176.15" r="1.6666666666666667" />
<circle cx="221.57" cy="176.15" r="1.6666666666666667" />
<circle cx="221.57" cy="176.15" r="1.6666666666666667" />
<circle cx="221.57" cy="176.15" r="1.6666666666666667" />
<circle cx="221.57" cy="176.15" r="1.6666666666666667" />
<circle cx="221.57" cy="176.15" r="1.6666666666666667" />
<circle cx="221.57" cy="176.15" r="1.6666666666666667" />
<circle cx="221.57" cy="176.15" r="1.6666666666666667" />
<circle cx="221.57" cy="176.15" r="1.6666666666666667" />
<circle cx="221.57" cy="176.15" r="1.6666666666666667" />
<circle cx="221.57" cy="176.15" r="1.6666666666666667" />
<circle cx="221.57" cy="176.15" r="1.6666666666666667" />
<circle cx="221.57" cy="176.15" r="1.6666666666666667" />
<circle cx="221.57" cy="176.15" r="1.6666666666666667" />
<circle cx="221.57" cy="176.15" r="1.6666666666666667" />
<circle cx="221.57" cy="176.15" r="1.6666666666666667" />
<circle cx="221.57" cy="176.15" r="1.6666666666666667" />
<circle cx="221.57" cy="176.15" r="1.6666666666666667" />
<circle cx="221.57" cy="176.15" r="1.6666666666666667" />
<circle cx="221.57" cy="176.15" r="1.6666666666666667" />
<circle cx="221.57" cy="176.15" r="1.6666666666666667" />
<circle cx="221.57" cy="176.15" r="1.6666666666666667" />
<circle cx="221.57" cy="176.15" r="1.6666666666666667" />
<circle cx="221.57" cy="176.15" r="1.6666666666666667" />
<circle cx="221.57" cy="176.15" r="1.6666666666666667" />
<circle cx="221.57" cy="176.15" r="1.6666666666666667" />
<circle cx="221.57" cy="176.15" r="1.6666666666666667" />
<circle cx="221.57" cy="176.15" r="1.6666666666666667" />
<circle cx="221.57" cy="176.15" r="1.6666666666666667" />
<circle cx="221.57" cy="176.15" r="1.6666666666666667" />
<circle cx="221.57" cy="176.15" r="1.6666666666666667" />
<circle cx="221.57" cy="176.15" r="1.6666666666666667" />
<circle cx="221.57" cy="176.15" r="1.6666666666666667" />
<circle cx="221.57" cy="176.15" r="1.6666666666666667" />
<circle cx="221.57" cy="176.15" r="1.6666666666666667" />
<circle cx="221.57" cy="176.15" r="1.6666666666666667" />
<circle cx="221.57" cy="176.15" r="1.6666666666666667" />
<circle cx="221.57" cy="176.15" r="1.6666666666666667" />
<circle cx="221.57" cy="196.51" r="1.6666666666666667" />
<circle cx="221.57" cy="176.15" r="1.6666666666666667" />
<circle cx="221.57" cy="176.15" r="1.6666666666666667" />
<circle cx="221.57" cy="176.15" r="1.6666666666666667" />
<circle cx="221.57" cy="176.15" r="1.6666666666666667" />
<circle cx="221.57" cy="257.58" r="1.6666666666666667" />
<circle cx="221.57" cy="176.15" r="1.6666666666666667" />
<circle cx="221.57" cy="176.15" r="1.6666666666666667" />
<circle cx="221.57" cy="176.15" r="1.6666666666666667" />
<circle cx="221.58" cy="314.74" r="1.6666666666666667" />
<circle cx="221.58" cy="176.15" r="1.6666666666666667" />
<circle cx="221.58" cy="176.15" r="1.6666666666666667" />
<circle cx="221.58" cy="176.15" r="1.6666666666666667" />
<circle cx="221.58" cy="176.15" r="1.6666666666666667" />
<circle cx="221.58" cy="176.15" r="1.6666666666666667" />
<circle cx="221.58" cy="176.15" r="1.6666666666666667" />
<circle cx="221.58" cy="176.15" r="1.6666666666666667" />
<circle cx="221.58" cy="176.15" r="1.6666666666666667" />
<circle cx="221.58" cy="176.15" r="1.6666666666666667" />
<circle cx="221.58" cy="176.15" r="1.6666666666666667" />
<circle cx="221.58" cy="176.15" r="1.6666666666666667" />
<circle cx="221.58" cy="176.15" r="1.6666666666666667" />
<circle cx="221.58" cy="176.15" r="1.6666666666666667" />
<circle cx="221.58" cy="176.15" r="1.6666666666666667" />
<circle cx="221.58" cy="176.15" r="1.6666666666666667" />
<circle cx="221.58" cy="176.15" r="1.6666666666666667" />
<circle cx="221.58" cy="176.15" r="1.6666666666666667" />
<circle cx="221.58" cy="176.15" r="1.6666666666666667" />
<circle cx="221.58" cy="176.15" r="1.6666666666666667" />
<circle cx="221.58" cy="176.15" r="1.6666666666666667" />
<circle cx="221.58" cy="176.15" r="1.6666666666666667" />
<circle cx="221.58" cy="176.15" r="1.6666666666666667" />
<circle cx="221.58" cy="176.15" r="1.6666666666666667" />
<circle cx="221.58" cy="176.15" r="1.6666666666666667" />
<circle cx="221.58" cy="176.15" r="1.6666666666666667" />
<circle cx="221.58" cy="176.15" r="1.6666666666666667" />
<circle cx="221.58" cy="176.15" r="1.6666666666666667" />
<circle cx="221.58" cy="176.15" r="1.6666666666666667" />
<circle cx="221.58" cy="176.15" r="1.6666666666666667" />
<circle cx="221.58" cy="176.15" r="1.6666666666666667" />
<circle cx="221.58" cy="176.15" r="1.6666666666666667" />
<circle cx="221.58" cy="176.15" r="1.6666666666666667" />
<circle cx="221.58" cy="176.15" r="1.6666666666666667" />
<circle cx="221.58" cy="176.15" r="1.6666666666666667" />
<circle cx="221.58" cy="176.15" r="1.6666666666666667" />
<circle cx="221.58" cy="176.15" r="1.6666666666666667" />
<circle cx="221.58" cy="176.15" r="1.6666666666666667" />
<circle cx="221.58" cy="176.15" r="1.6666666666666667" />
<circle cx="221.58" cy="176.15" r="1.6666666666666667" />
<circle cx="221.58" cy="176.15" r="1.6666666666666667" />
<circle cx="221.58" cy="176.15" r="1.6666666666666667" />
<circle cx="221.58" cy="176.15" r="1.6666666666666667" />
<circle cx="221.58" cy="176.15" r="1.6666666666666667" />
<circle cx="221.58" cy="176.15" r="1.6666666666666667" />
<circle cx="221.58" cy="176.15" r="1.6666666666666667" />
<circle cx="221.58" cy="176.15" r="1.6666666666666667" />
<circle cx="221.58" cy="176.15" r="1.6666666666666667" />
<circle cx="221.58" cy="176.15" r="1.6666666666666667" />
<circle cx="221.58" cy="176.15" r="1.6666666666666667" />
<circle cx="221.58" cy="176.15" r="1.6666666666666667" />
<circle cx="221.58" cy="176.15" r="1.6666666666666667" />
<circle cx="221.58" cy="176.15" r="1.6666666666666667" />
<circle cx="221.58" cy="176.15" r="1.6666666666666667" />
<circle cx="221.58" cy="176.15" r="1.6666666666666667" />
<circle cx="221.58" cy="176.15" r="1.6666666666666667" />
<circle cx="221.58" cy="176.15" r="1.6666666666666667" />
<circle cx="221.58" cy="176.15" r="1.6666666666666667" />
<circle cx="221.58" cy="176.15" r="1.6666666666666667" />
<circle cx="221.58" cy="176.15" r="1.6666666666666667" />
<circle cx="221.58" cy="176.15" r="1.6666666666666667" />
<circle cx="221.58" cy="176.15" r="1.6666666666666667" />
<circle cx="221.58" cy="176.15" r="1.6666666666666667" />
<circle cx="221.58" cy="176.15" r="1.6666666666666667" />
<circle cx="221.58" cy="176.15" r="1.6666666666666667" />
<circle cx="221.58" cy="176.15" r="1.6666666666666667" />
<circle cx="221.58" cy="176.15" r="1.6666666666666667" />
<circle cx="221.58" cy="176.15" r="1.6666666666666667" />
<circle cx="221.58" cy="176.15" r="1.6666666666666667" />
<circle cx="221.58" cy="176.15" r="1.6666666666666667" />
<circle cx="221.58" cy="176.15" r="1.6666666666666667" />
<circle cx="221.58" cy="176.15" r="1.6666666666666667" />
<circle cx="221.58" cy="176.15" r="1.6666666666666667" />
<circle cx="221.58" cy="176.15" r="1.6666666666666667" />
<circle cx="221.58" cy="176.15" r="1.6666666666666667" />
<circle cx="221.58" cy="176.15" r="1.6666666666666667" />
<circle cx="221.58" cy="176.15" r="1.6666666666666667" />
<circle cx="221.58" cy="176.15" r="1.6666666666666667" />
<circle cx="221.58" cy="176.15" r="1.6666666666666667" />
<circle cx="221.58" cy="176.15" r="1.6666666666666667" />
<circle cx="221.58" cy="176.15" r="1.6666666666666667" />
<circle cx="221.58" cy="176.15" r="1.6666666666666667" />
<circle cx="221.58" cy="176.15" r="1.6666666666666667" />
<circle cx="221.58" cy="176.15" r="1.6666666666666667" />
<circle cx="221.58" cy="176.15" r="1.6666666666666667" />
<circle cx="221.58" cy="176.15" r="1.6666666666666667" />
<circle cx="221.58" cy="176.15" r="1.6666666666666667" />
<circle cx="221.58" cy="176.15" r="1.6666666666666667" />
<circle cx="221.58" cy="176.15" r="1.6666666666666667" />
<circle cx="221.58" cy="176.15" r="1.6666666666666667" />
<circle cx="221.58" cy="176.15" r="1.6666666666666667" />
<circle cx="221.58" cy="176.15" r="1.6666666666666667" />
<circle cx="221.58" cy="176.15" r="1.6666666666666667" />
<circle cx="221.58" cy="176.15" r="1.6666666666666667" />
<circle cx="221.58" cy="176.15" r="1.6666666666666667" />
<circle cx="221.58" cy="176.15" r="1.6666666666666667" />
<circle cx="221.58" cy="176.15" r="1.6666666666666667" />
<circle cx="221.58" cy="176.15" r="1.6666666666666667" />
<circle cx="221.58" cy="176.15" r="1.6666666666666667" />
<circle cx="221.58" cy="176.15" r="1.6666666666666667" />
<circle cx="221.58" cy="176.15" r="1.6666666666666667" />
<circle cx="221.58" cy="176.15" r="1.6666666666666667" />
<circle cx="221.58" cy="176.15" r="1.6666666666666667" />
<circle cx="221.58" cy="176.15" r="1.6666666666666667" />
<circle cx="221.58" cy="176.15" r="1.6666666666666667" />
<circle cx="221.58" cy="176.15" r="1.6666666666666667" />
<circle cx="221.58" cy="176.15" r="1.6666666666666667" />
<circle cx="221.58" cy="176.15" r="1.6666666666666667" />
<circle cx="221.58" cy="176.15" r="1.6666666666666667" />
<circle cx="221.58" cy="176.15" r="1.6666666666666667" />
<circle cx="221.58" cy="176.15" r="1.6666666666666667" />
<circle cx="221.58" cy="176.15" r="1.6666666666666667" />
<circle cx="221.58" cy="176.15" r="1.6666666666666667" />
<circle cx="221.58" cy="176.15" r="1.6666666666666667" />
<circle cx="221.58" cy="176.15" r="1.6666666666666667" />
<circle cx="221.58" cy="176.15" r="1.6666666666666667" />
<circle cx="221.58" cy="176.15" r="1.6666666666666667" />
<circle cx="221.58" cy="176.15" r="1.6666666666666667" />
<circle cx="221.58" cy="176.15" r="1.6666666666666667" />
<circle cx="221.58" cy="176.15" r="1.6666666666666667" />
<circle cx="221.58" cy="176.15" r="1.6666666666666667" />
<circle cx="221.58" cy="176.15" r="1.6666666666666667" />
<circle cx="221.58" cy="176.15" r="1.6666666666666667" />
<circle cx="221.58" cy="176.15" r="1.6666666666666667" />
<circle cx="221.58" cy="176.15" r="1.6666666666666667" />
<circle cx="221.58" cy="176.15" r="1.6666666666666667" />
<circle cx="221.58" cy="176.15" r="1.6666666666666667" />
<circle cx="221.58" cy="176.15" r="1.6666666666666667" />
<circle cx="221.58" cy="176.15" r="1.6666666666666667" />
<circle cx="221.58" cy="176.15" r="1.6666666666666667" />
<circle cx="221.58" cy="176.15" r="1.6666666666666667" />
<circle cx="221.58" cy="176.15" r="1.6666666666666667" />
<circle cx="221.58" cy="176.15" r="1.6666666666666667" />
<circle cx="221.58" cy="176.15" r="1.6666666666666667" />
<circle cx="221.58" cy="176.15" r="1.6666666666666667" />
<circle cx="221.58" cy="176.15" r="1.6666666666666667" />
<circle cx="221.58" cy="176.15" r="1.6666666666666667" />
<circle cx="221.58" cy="176.15" r="1.6666666666666667" />
<circle cx="221.58" cy="176.15" r="1.6666666666666667" />
<circle cx="221.58" cy="176.15" r="1.6666666666666667" />
<circle cx="221.58" cy="176.15" r="1.6666666666666667" />
<circle cx="221.58" cy="176.15" r="1.6666666666666667" />
<circle cx="221.58" cy="176.15" r="1.6666666666666667" />
<circle cx="221.58" cy="176.15" r="1.6666666666666667" />
<circle cx="221.58" cy="176.15" r="1.6666666666666667" />
<circle cx="221.58" cy="176.15" r="1.6666666666666667" />
<circle cx="221.58" cy="176.15" r="1.6666666666666667" />
<circle cx="221.58" cy="176.15" r="1.6666666666666667" />
<circle cx="221.58" cy="176.15" r="1.6666666666666667" />
<circle cx="221.58" cy="176.15" r="1.6666666666666667" />
<circle cx="221.58" cy="176.15" r="1.6666666666666667" />
<circle cx="221.58" cy="176.15" r="1.6666666666666667" />
<circle cx="221.58" cy="176.15" r="1.6666666666666667" />
<circle cx="221.58" cy="176.15" r="1.6666666666666667" />
<circle cx="221.58" cy="176.15" r="1.6666666666666667" />
<circle cx="221.58" cy="176.15" r="1.6666666666666667" />
<circle cx="221.58" cy="176.15" r="1.6666666666666667" />
<circle cx="221.58" cy="176.15" r="1.6666666666666667" />
<circle cx="221.58" cy="176.15" r="1.6666666666666667" />
<circle cx="221.58" cy="176.15" r="1.6666666666666667" />
<circle cx="221.58" cy="176.15" r="1.6666666666666667" />
<circle cx="221.58" cy="176.15" r="1.6666666666666667" />
<circle cx="221.58" cy="176.15" r="1.6666666666666667" />
<circle cx="221.58" cy="176.15" r="1.6666666666666667" />
<circle cx="221.58" cy="176.15" r="1.6666666666666667" />
<circle cx="221.58" cy="176.15" r="1.6666666666666667" />
<circle cx="221.58" cy="176.15" r="1.6666666666666667" />
<circle cx="221.58" cy="176.15" r="1.6666666666666667" />
<circle cx="221.58" cy="176.15" r="1.6666666666666667" />
<circle cx="221.58" cy="176.15" r="1.6666666666666667" />
<circle cx="221.58" cy="176.15" r="1.6666666666666667" />
<circle cx="221.58" cy="176.15" r="1.6666666666666667" />
<circle cx="221.58" cy="176.15" r="1.6666666666666667" />
<circle cx="221.58" cy="176.15" r="1.6666666666666667" />
<circle cx="221.58" cy="176.15" r="1.6666666666666667" />
<circle cx="221.58" cy="176.15" r="1.6666666666666667" />
<circle cx="221.58" cy="176.15" r="1.6666666666666667" />
<circle cx="221.58" cy="176.15" r="1.6666666666666667" />
<circle cx="221.58" cy="176.15" r="1.6666666666666667" />
<circle cx="221.58" cy="176.15" r="1.6666666666666667" />
<circle cx="221.58" cy="176.15" r="1.6666666666666667" />
<circle cx="221.58" cy="176.15" r="1.6666666666666667" />
<circle cx="221.58" cy="176.15" r="1.6666666666666667" />
<circle cx="221.58" cy="176.15" r="1.6666666666666667" />
<circle cx="221.58" cy="176.15" r="1.6666666666666667" />
<circle cx="221.58" cy="176.15" r="1.6666666666666667" />
<circle cx="221.58" cy="176.15" r="1.6666666666666667" />
<circle cx="221.58" cy="257.58" r="1.6666666666666667" />
<circle cx="221.58" cy="176.15" r="1.6666666666666667" />
<circle cx="221.58" cy="176.15" r="1.6666666666666667" />
<circle cx="221.58" cy="176.15" r="1.6666666666666667" />
<circle cx="221.58" cy="176.15" r="1.6666666666666667" />
<circle cx="221.58" cy="176.15" r="1.6666666666666667" />
<circle cx="221.58" cy="176.15" r="1.6666666666666667" />
<circle cx="221.58" cy="176.15" r="1.6666666666666667" />
<circle cx="221.58" cy="176.15" r="1.6666666666666667" />
<circle cx="221.58" cy="176.15" r="1.6666666666666667" />
<circle cx="221.58" cy="176.15" r="1.6666666666666667" />
<circle cx="221.58" cy="176.15" r="1.6666666666666667" />
<circle cx="221.58" cy="176.15" r="1.6666666666666667" />
<circle cx="221.58" cy="176.15" r="1.6666666666666667" />
<circle cx="221.58" cy="176.15" r="1.6666666666666667" />
<circle cx="221.61" cy="388.75" r="1.6666666666666667" />
<circle cx="221.61" cy="276.05" r="1.6666666666666667" />
<circle cx="221.61" cy="299.20" r="1.6666666666666667" />
<circle cx="221.61" cy="328.34" r="1.6666666666666667" />
<circle cx="221.63" cy="381.32" r="1.6666666666666667" />
<circle cx="221.63" cy="253.66" r="1.6666666666666667" />
<circle cx="221.64" cy="208.42" r="1.6666666666666667" />
<circle cx="221.64" cy="176.15" r="1.6666666666666667" />
<circle cx="221.64" cy="237.23" r="1.6666666666666667" />
<circle cx="221.64" cy="348.62" r="1.6666666666666667" />
<circle cx="221.96" cy="460.49" r="1.6666666666666667" />
<circle cx="222.19" cy="451.26" r="1.6666666666666667" />
<circle cx="222.43" cy="451.59" r="1.6666666666666667" />
<circle cx="222.66" cy="450.88" r="1.6666666666666667" />
<circle cx="222.88" cy="450.47" r="1.6666666666666667" />
<circle cx="223.11" cy="450.51" r="1.6666666666666667" />
<circle cx="223.32" cy="448.75" r="1.6666666666666667" />
<circle cx="223.55" cy="450.80" r="1.6666666666666667" />
<circle cx="223.78" cy="451.11" r="1.6666666666666667" />
<circle cx="224.00" cy="449.94" r="1.6666666666666667" />
<circle cx="224.23" cy="451.27" r="1.6666666666666667" />
<circle cx="224.46" cy="450.10" r="1.6666666666666667" />
<circle cx="224.69" cy="451.38" r="1.6666666666666667" />
<circle cx="224.93" cy="452.00" r="1.6666666666666667" />
<circle cx="225.16" cy="451.82" r="1.6666666666666667" />
<circle cx="225.40" cy="451.96" r="1.6666666666666667" />
<circle cx="225.62" cy="449.98" r="1.6666666666666667" />
<circle cx="225.85" cy="450.89" r="1.6666666666666667" />
<circle cx="226.09" cy="451.66" r="1.6666666666666667" />
<circle cx="226.32" cy="451.43" r="1.6666666666666667" />
<circle cx="226.56" cy="452.33" r="1.6666666666666667" />
<circle cx="226.79" cy="450.61" r="1.6666666666666667" />
<circle cx="227.02" cy="451.50" r="1.6666666666666667" />
<circle cx="227.27" cy="453.18" r="1.6666666666666667" />
<circle cx="227.50" cy="451.39" r="1.6666666666666667" />
<circle cx="227.75" cy="452.35" r="1.6666666666666667" />
<circle cx="227.97" cy="449.84" r="1.6666666666666667" />
<circle cx="228.21" cy="452.53" r="1.6666666666666667" />
<circle cx="228.45" cy="452.78" r="1.6666666666666667" />
<circle cx="228.70" cy="453.57" r="1.6666666666666667" />
<circle cx="228.95" cy="453.01" r="1.6666666666666667" />
<circle cx="229.19" cy="452.59" r="1.6666666666666667" />
<circle cx="229.43" cy="452.42" r="1.6666666666666667" />
<circle cx="229.67" cy="451.67" r="1.6666666666666667" />
<circle cx="229.92" cy="453.01" r="1.6666666666666667" />
<circle cx="230.16" cy="452.67" r="1.6666666666666667" />
<circle cx="230.40" cy="452.08" r="1.6666666666666667" />
<circle cx="230.65" cy="453.45" r="1.6666666666666667" />
<circle cx="230.89" cy="452.42" r="1.6666666666666667" />
<circle cx="231.14" cy="453.36" r="1.6666666666666667" />
<circle cx="231.38" cy="452.91" r="1.6666666666666667" />
<circle cx="231.64" cy="453.98" r="1.6666666666666667" />
<circle cx="231.90" cy="454.25" r="1.6666666666666667" />
<circle cx="232.16" cy="454.55" r="1.6666666666666667" />
<circle cx="232.41" cy="453.64" r="1.6666666666666667" />
<circle cx="232.66" cy="453.72" r="1.6666666666666667" />
<circle cx="232.91" cy="453.46" r="1.6666666666666667" />
<circle cx="233.17" cy="454.67" r="1.6666666666666667" />
<circle cx="233.44" cy="455.74" r="1.6666666666666667" />
<circle cx="233.71" cy="455.69" r="1.6666666666666667" />
<circle cx="233.98" cy="455.68" r="1.6666666666666667" />
<circle cx="234.24" cy="455.06" r="1.6666666666666667" />
<circle cx="234.52" cy="456.42" r="1.6666666666666667" />
<circle cx="234.80" cy="456.60" r="1.6666666666666667" />
<circle cx="235.07" cy="456.25" r="1.6666666666666667" />
<circle cx="235.34" cy="455.25" r="1.6666666666666667" />
<circle cx="235.60" cy="454.21" r="1.6666666666666667" />
<circle cx="235.87" cy="456.12" r="1.6666666666666667" />
<circle cx="236.15" cy="456.85" r="1.6666666666666667" />
<circle cx="236.42" cy="455.70" r="1.6666666666666667" />
<circle cx="236.68" cy="454.65" r="1.6666666666666667" />
<circle cx="236.96" cy="456.36" r="1.6666666666666667" />
<circle cx="237.23" cy="456.02" r="1.6666666666666667" />
<circle cx="237.50" cy="455.65" r="1.6666666666666667" />
<circle cx="237.77" cy="455.81" r="1.6666666666666667" />
<circle cx="238.03" cy="454.94" r="1.6666666666666667" />
<circle cx="238.31" cy="456.53" r="1.6666666666666667" />
<circle cx="238.58" cy="455.77" r="1.6666666666666667" />
<circle cx="238.84" cy="454.52" r="1.6666666666666667" />
<circle cx="239.11" cy="455.53" r="1.6666666666666667" />
<circle cx="239.38" cy="456.12" r="1.6666666666666667" />
<circle cx="239.65" cy="455.52" r="1.6666666666666667" />
<circle cx="239.93" cy="456.12" r="1.6666666666666667" />
<circle cx="240.19" cy="454.49" r="1.6666666666666667" />
<circle cx="240.45" cy="455.19" r="1.6666666666666667" />
<circle cx="240.73" cy="456.66" r="1.6666666666666667" />
<circle cx="241.01" cy="457.08" r="1.6666666666666667" />
<circle cx="241.28" cy="455.76" r="1.6666666666666667" />
<circle cx="241.55" cy="455.76" r="1.6666666666666667" />
<circle cx="241.84" cy="457.39" r="1.6666666666666667" />
<circle cx="242.12" cy="457.08" r="1.6666666666666667" />
<circle cx="242.39" cy="455.38" r="1.6666666666666667" />
<circle cx="242.68" cy="457.44" r="1.6666666666666667" />
<circle cx="242.96" cy="456.80" r="1.6666666666666667" />
<circle cx="243.23" cy="456.17" r="1.6666666666666667" />
<circle cx="243.51" cy="456.84" r="1.6666666666666667" />
<circle cx="243.79" cy="456.77" r="1.6666666666666667" />
<circle cx="244.07" cy="456.54" r="1.6666666666666667" />
<circle cx="244.35" cy="456.84" r="1.6666666666666667" />
<circle cx="244.62" cy="455.31" r="1.6666666666666667" />
<circle cx="244.90" cy="457.34" r="1.6666666666666667" />
<circle cx="245.19" cy="457.24" r="1.6666666666666667" />
<circle cx="245.47" cy="457.79" r="1.6666666666666667" />
<circle cx="245.75" cy="456.61" r="1.6666666666666667" />
<circle cx="246.03" cy="456.31" r="1.6666666666666667" />
<circle cx="246.31" cy="457.27" r="1.6666666666666667" />
<circle cx="246.60" cy="457.68" r="1.6666666666666667" />
<circle cx="246.89" cy="457.71" r="1.6666666666666667" />
<circle cx="247.19" cy="458.18" r="1.6666666666666667" />
<circle cx="247.47" cy="457.32" r="1.6666666666666667" />
<circle cx="247.76" cy="457.54" r="1.6666666666666667" />
<circle cx="248.05" cy="457.67" r="1.6666666666666667" />
<circle cx="248.33" cy="457.15" r="1.6666666666666667" />
<circle cx="248.62" cy="457.74" r="1.6666666666666667" />
<circle cx="248.91" cy="458.20" r="1.6666666666666667" />
<circle cx="249.20" cy="457.38" r="1.6666666666666667" />
<circle cx="249.49" cy="457.91" r="1.6666666666666667" />
<circle cx="249.78" cy="457.50" r="1.6666666666666667" />
<circle cx="249.96" cy="443.57" r="1.6666666666666667" />
<circle cx="250.14" cy="444.38" r="1.6666666666666667" />
<circle cx="250.33" cy="446.06" r="1.6666666666666667" />
<circle cx="250.50" cy="440.88" r="1.6666666666666667" />
<circle cx="250.66" cy="441.15" r="1.6666666666666667" />
<circle cx="250.82" cy="440.84" r="1.6666666666666667" />
<circle cx="250.91" cy="423.02" r="1.6666666666666667" />
<circle cx="250.93" cy="370.43" r="1.6666666666666667" />
<circle cx="250.95" cy="383.75" r="1.6666666666666667" />
<circle cx="251.15" cy="446.51" r="1.6666666666666667" />
<circle cx="251.20" cy="408.58" r="1.6666666666666667" />
<circle cx="600.82" cy="439.97" r="1.6666666666666667" />
<circle cx="601.07" cy="453.85" r="1.6666666666666667" />
<circle cx="601.21" cy="435.92" r="1.6666666666666667" />
<circle cx="601.43" cy="450.08" r="1.6666666666666667" />
<circle cx="601.59" cy="439.78" r="1.6666666666666667" />
<circle cx="601.79" cy="447.58" r="1.6666666666666667" />
<circle cx="601.98" cy="444.86" r="1.6666666666666667" />
<circle cx="602.20" cy="450.21" r="1.6666666666666667" />
<circle cx="602.38" cy="442.94" r="1.6666666666666667" />
<circle cx="602.59" cy="448.57" r="1.6666666666666667" />
<circle cx="602.77" cy="444.38" r="1.6666666666666667" />
<circle cx="602.98" cy="448.19" r="1.6666666666666667" />
<circle cx="603.15" cy="442.47" r="1.6666666666666667" />
<circle cx="603.38" cy="450.06" r="1.6666666666666667" />
<circle cx="603.56" cy="444.83" r="1.6666666666666667" />
<circle cx="603.80" cy="452.21" r="1.6666666666666667" />
<circle cx="604.00" cy="446.19" r="1.6666666666666667" />
<circle cx="604.23" cy="451.57" r="1.6666666666666667" />
<circle cx="604.44" cy="448.00" r="1.6666666666666667" />
<circle cx="604.69" cy="453.12" r="1.6666666666666667" />
<circle cx="604.86" cy="443.49" r="1.6666666666666667" />
<circle cx="605.08" cy="449.56" r="1.6666666666666667" />
<circle cx="605.26" cy="443.62" r="1.6666666666666667" />
<circle cx="605.50" cy="451.99" r="1.6666666666666667" />
<circle cx="605.69" cy="445.68" r="1.6666666666666667" />
<circle cx="605.92" cy="450.36" r="1.6666666666666667" />
<circle cx="606.11" cy="446.33" r="1.6666666666666667" />
<circle cx="606.35" cy="451.55" r="1.6666666666666667" />
<circle cx="606.54" cy="446.15" r="1.6666666666666667" />
<circle cx="606.78" cy="451.70" r="1.6666666666666667" />
<circle cx="606.97" cy="445.77" r="1.6666666666666667" />
<circle cx="607.21" cy="452.54" r="1.6666666666666667" />
<circle cx="607.41" cy="445.89" r="1.6666666666666667" />
<circle cx="607.66" cy="453.70" r="1.6666666666666667" />
<circle cx="607.87" cy="448.29" r="1.6666666666666667" />
<circle cx="608.13" cy="454.78" r="1.6666666666666667" />
<circle cx="608.37" cy="451.73" r="1.6666666666666667" />
<circle cx="608.63" cy="455.32" r="1.6666666666666667" />
<circle cx="608.85" cy="449.20" r="1.6666666666666667" />
<circle cx="609.09" cy="452.49" r="1.6666666666666667" />
<circle cx="609.31" cy="450.16" r="1.6666666666666667" />
<circle cx="609.57" cy="454.44" r="1.6666666666666667" />
<circle cx="609.82" cy="452.72" r="1.6666666666666667" />
<circle cx="610.06" cy="452.53" r="1.6666666666666667" />
<circle cx="611.00" cy="492.30" r="1.6666666666666667" />
<circle cx="611.22" cy="450.47" r="1.6666666666666667" />
<circle cx="611.56" cy="461.90" r="1.6666666666666667" />
<circle cx="611.80" cy="452.42" r="1.6666666666666667" />
<circle cx="612.10" cy="459.25" r="1.6666666666666667" />
<circle cx="612.33" cy="451.17" r="1.6666666666666667" />
<circle cx="612.63" cy="458.30" r="1.6666666666666667" />
<circle cx="612.88" cy="453.72" r="1.6666666666666667" />
<circle cx="613.17" cy="457.38" r="1.6666666666666667" />
<circle cx="613.42" cy="453.27" r="1.6666666666666667" />
<circle cx="613.70" cy="457.60" r="1.6666666666666667" />
<circle cx="613.96" cy="453.96" r="1.6666666666666667" />
<circle cx="614.25" cy="457.98" r="1.6666666666666667" />
<circle cx="614.48" cy="451.51" r="1.6666666666666667" />
<circle cx="614.81" cy="461.12" r="1.6666666666666667" />
<circle cx="615.05" cy="452.76" r="1.6666666666666667" />
<circle cx="615.36" cy="459.07" r="1.6666666666666667" />
<circle cx="615.62" cy="454.77" r="1.6666666666666667" />
<circle cx="615.92" cy="459.22" r="1.6666666666666667" />
<circle cx="616.16" cy="452.15" r="1.6666666666666667" />
<circle cx="616.44" cy="456.49" r="1.6666666666666667" />
<circle cx="616.68" cy="452.98" r="1.6666666666666667" />
<circle cx="616.96" cy="456.58" r="1.6666666666666667" />
<circle cx="617.22" cy="454.44" r="1.6666666666666667" />
<circle cx="617.52" cy="458.28" r="1.6666666666666667" />
<circle cx="617.77" cy="454.38" r="1.6666666666666667" />
<circle cx="618.10" cy="461.42" r="1.6666666666666667" />
<circle cx="618.35" cy="452.77" r="1.6666666666666667" />
<circle cx="618.68" cy="461.76" r="1.6666666666666667" />
<circle cx="618.96" cy="456.91" r="1.6666666666666667" />
<circle cx="619.26" cy="459.09" r="1.6666666666666667" />
<circle cx="619.54" cy="456.96" r="1.6666666666666667" />
<circle cx="619.85" cy="459.05" r="1.6666666666666667" />
<circle cx="620.13" cy="457.16" r="1.6666666666666667" />
<circle cx="620.43" cy="458.51" r="1.6666666666666667" />
<circle cx="620.75" cy="460.87" r="1.6666666666666667" />
<circle cx="621.04" cy="458.02" r="1.6666666666666667" />
<circle cx="621.34" cy="459.04" r="1.6666666666666667" />
<circle cx="621.63" cy="457.04" r="1.6666666666666667" />
<circle cx="621.93" cy="459.32" r="1.6666666666666667" />
<circle cx="622.21" cy="456.74" r="1.6666666666666667" />
<circle cx="622.49" cy="457.22" r="1.6666666666666667" />
<circle cx="622.81" cy="460.46" r="1.6666666666666667" />
<circle cx="623.10" cy="457.59" r="1.6666666666666667" />
<circle cx="623.40" cy="459.12" r="1.6666666666666667" />
<circle cx="623.69" cy="457.13" r="1.6666666666666667" />
<circle cx="624.03" cy="463.09" r="1.6666666666666667" />
<circle cx="624.31" cy="456.61" r="1.6666666666666667" />
<circle cx="624.64" cy="461.36" r="1.6666666666666667" />
<circle cx="624.89" cy="454.01" r="1.6666666666666667" />
<circle cx="625.23" cy="461.80" r="1.6666666666666667" />
<circle cx="625.50" cy="455.80" r="1.6666666666666667" />
<circle cx="625.81" cy="459.72" r="1.6666666666666667" />
<circle cx="626.06" cy="454.19" r="1.6666666666666667" />
<circle cx="626.36" cy="458.90" r="1.6666666666666667" />
<circle cx="626.64" cy="456.40" r="1.6666666666666667" />
<circle cx="626.96" cy="460.96" r="1.6666666666666667" />
<circle cx="627.25" cy="457.45" r="1.6666666666666667" />
<circle cx="627.57" cy="461.02" r="1.6666666666666667" />
<circle cx="627.82" cy="452.87" r="1.6666666666666667" />
<circle cx="628.15" cy="461.31" r="1.6666666666666667" />
<circle cx="628.39" cy="452.44" r="1.6666666666666667" />
<circle cx="628.71" cy="461.31" r="1.6666666666666667" />
<circle cx="628.97" cy="454.39" r="1.6666666666666667" />
<circle cx="629.31" cy="462.69" r="1.6666666666666667" />
<circle cx="629.58" cy="454.89" r="1.6666666666666667" />
<circle cx="629.87" cy="458.26" r="1.6666666666666667" />
<circle cx="630.13" cy="454.51" r="1.6666666666666667" />
<circle cx="630.43" cy="458.25" r="1.6666666666666667" />
<circle cx="630.72" cy="457.94" r="1.6666666666666667" />
<circle cx="631.00" cy="457.55" r="1.6666666666666667" />
<circle cx="631.26" cy="454.45" r="1.6666666666666667" />
<circle cx="631.56" cy="458.07" r="1.6666666666666667" />
<circle cx="631.82" cy="455.54" r="1.6666666666666667" />
<circle cx="632.11" cy="457.91" r="1.6666666666666667" />
<circle cx="632.39" cy="456.36" r="1.6666666666666667" />
<circle cx="632.71" cy="460.45" r="1.6666666666666667" />
<circle cx="632.97" cy="454.38" r="1.6666666666666667" />
<circle cx="633.24" cy="456.57" r="1.6666666666666667" />
<circle cx="633.50" cy="454.10" r="1.6666666666666667" />
<circle cx="633.80" cy="459.21" r="1.6666666666666667" />
<circle cx="634.06" cy="454.45" r="1.6666666666666667" />
<circle cx="634.36" cy="458.28" r="1.6666666666666667" />
<circle cx="634.60" cy="452.38" r="1.6666666666666667" />
<circle cx="634.89" cy="458.17" r="1.6666666666666667" />
<circle cx="635.11" cy="450.01" r="1.6666666666666667" />
<circle cx="635.40" cy="457.10" r="1.6666666666666667" />
<circle cx="635.63" cy="451.12" r="1.6666666666666667" />
<circle cx="635.95" cy="461.04" r="1.6666666666666667" />
<circle cx="636.20" cy="452.85" r="1.6666666666666667" />
<circle cx="636.51" cy="460.00" r="1.6666666666666667" />
<circle cx="636.77" cy="454.84" r="1.6666666666666667" />
<circle cx="637.07" cy="458.87" r="1.6666666666666667" />
<circle cx="637.31" cy="451.56" r="1.6666666666666667" />
<circle cx="637.61" cy="458.93" r="1.6666666666666667" />
<circle cx="638.09" cy="472.63" r="1.6666666666666667" />
<circle cx="638.34" cy="454.15" r="1.6666666666666667" />
<circle cx="638.65" cy="459.43" r="1.6666666666666667" />
<circle cx="638.93" cy="457.03" r="1.6666666666666667" />
<circle cx="639.24" cy="459.35" r="1.6666666666666667" />
<circle cx="639.52" cy="456.85" r="1.6666666666666667" />
<circle cx="639.83" cy="459.70" r="1.6666666666666667" />
<circle cx="640.10" cy="456.10" r="1.6666666666666667" />
<circle cx="640.43" cy="461.17" r="1.6666666666666667" />
<circle cx="640.68" cy="453.69" r="1.6666666666666667" />
<circle cx="641.01" cy="461.40" r="1.6666666666666667" />
<circle cx="641.26" cy="454.03" r="1.6666666666666667" />
<circle cx="641.58" cy="460.59" r="1.6666666666666667" />
<circle cx="641.86" cy="456.47" r="1.6666666666666667" />
<circle cx="642.17" cy="460.00" r="1.6666666666666667" />
<circle cx="642.45" cy="456.37" r="1.6666666666666667" />
<circle cx="642.77" cy="460.87" r="1.6666666666666667" />
<circle cx="643.03" cy="454.45" r="1.6666666666666667" />
<circle cx="643.33" cy="459.28" r="1.6666666666666667" />
<circle cx="643.59" cy="453.95" r="1.6666666666666667" />
<circle cx="643.89" cy="458.83" r="1.6666666666666667" />
<circle cx="644.15" cy="454.49" r="1.6666666666666667" />
<circle cx="644.47" cy="460.94" r="1.6666666666666667" />
<circle cx="644.72" cy="453.80" r="1.6666666666666667" />
<circle cx="645.02" cy="458.66" r="1.6666666666666667" />
<circle cx="645.29" cy="455.49" r="1.6666666666666667" />
<circle cx="645.57" cy="456.87" r="1.6666666666666667" />
<circle cx="645.85" cy="456.91" r="1.6666666666666667" />
<circle cx="646.17" cy="461.00" r="1.6666666666666667" />
<circle cx="646.43" cy="454.38" r="1.6666666666666667" />
<circle cx="646.73" cy="458.38" r="1.6666666666666667" />
<circle cx="647.00" cy="455.74" r="1.6666666666666667" />
<circle cx="647.32" cy="460.99" r="1.6666666666666667" />
<circle cx="647.57" cy="453.44" r="1.6666666666666667" />
<circle cx="647.90" cy="461.82" r="1.6666666666666667" />
<circle cx="648.17" cy="455.66" r="1.6666666666666667" />
<circle cx="648.50" cy="461.37" r="1.6666666666666667" />
<circle cx="648.76" cy="454.18" r="1.6666666666666667" />
<circle cx="649.06" cy="458.72" r="1.6666666666666667" />
<circle cx="649.30" cy="452.54" r="1.6666666666666667" />
<circle cx="649.63" cy="461.91" r="1.6666666666666667" />
<circle cx="649.92" cy="457.69" r="1.6666666666666667" />
<circle cx="650.25" cy="461.10" r="1.6666666666666667" />
<circle cx="650.53" cy="457.05" r="1.6666666666666667" />
<circle cx="650.85" cy="460.71" r="1.6666666666666667" />
<circle cx="651.12" cy="455.85" r="1.6666666666666667" />
<circle cx="651.45" cy="461.45" r="1.6666666666666667" />
<circle cx="651.74" cy="458.00" r="1.6666666666666667" />
<circle cx="652.06" cy="460.49" r="1.6666666666666667" />
<circle cx="652.31" cy="453.59" r="1.6666666666666667" />
<circle cx="652.66" cy="463.82" r="1.6666666666666667" />
<circle cx="652.94" cy="456.12" r="1.6666666666666667" />
<circle cx="653.27" cy="461.99" r="1.6666666666666667" />
<circle cx="653.53" cy="454.55" r="1.6666666666666667" />
<circle cx="653.86" cy="461.30" r="1.6666666666666667" />
<circle cx="654.13" cy="456.11" r="1.6666666666666667" />
<circle cx="654.44" cy="459.91" r="1.6666666666666667" />
<circle cx="654.73" cy="457.79" r="1.6666666666666667" />
<circle cx="655.05" cy="460.19" r="1.6666666666666667" />
<circle cx="655.34" cy="457.69" r="1.6666666666666667" />
<circle cx="655.61" cy="455.83" r="1.6666666666666667" />
<circle cx="655.85" cy="451.82" r="1.6666666666666667" />
<circle cx="656.18" cy="462.44" r="1.6666666666666667" />
<circle cx="656.44" cy="454.03" r="1.6666666666666667" />
<circle cx="656.77" cy="461.31" r="1.6666666666666667" />
<circle cx="657.03" cy="455.42" r="1.6666666666666667" />
<circle cx="657.38" cy="463.01" r="1.6666666666666667" />
<circle cx="657.64" cy="454.23" r="1.6666666666666667" />
<circle cx="657.97" cy="461.79" r="1.6666666666666667" />
<circle cx="658.24" cy="455.87" r="1.6666666666666667" />
<circle cx="658.56" cy="460.63" r="1.6666666666666667" />
<circle cx="658.82" cy="454.33" r="1.6666666666666667" />
<circle cx="659.13" cy="460.47" r="1.6666666666666667" />
<circle cx="659.42" cy="457.68" r="1.6666666666666667" />
<circle cx="659.77" cy="462.81" r="1.6666666666666667" />
<circle cx="660.95" cy="499.04" r="1.6666666666666667" />
<circle cx="661.20" cy="454.20" r="1.6666666666666667" />
<circle cx="661.54" cy="461.84" r="1.6666666666666667" />
<circle cx="661.83" cy="457.89" r="1.6666666666666667" />
<circle cx="662.16" cy="461.81" r="1.6666666666666667" />
<circle cx="662.43" cy="455.88" r="1.6666666666666667" />
<circle cx="662.77" cy="461.94" r="1.6666666666666667" />
<circle cx="663.06" cy="457.80" r="1.6666666666666667" />
<circle cx="663.40" cy="463.21" r="1.6666666666666667" />
<circle cx="663.67" cy="455.18" r="1.6666666666666667" />
<circle cx="664.00" cy="461.27" r="1.6666666666666667" />
<circle cx="664.26" cy="454.88" r="1.6666666666666667" />
<circle cx="664.59" cy="461.41" r="1.6666666666666667" />
<circle cx="664.84" cy="454.13" r="1.6666666666666667" />
<circle cx="665.16" cy="460.17" r="1.6666666666666667" />
<circle cx="665.44" cy="457.00" r="1.6666666666666667" />
<circle cx="665.77" cy="461.72" r="1.6666666666666667" />
<circle cx="666.06" cy="457.88" r="1.6666666666666667" />
<circle cx="666.40" cy="462.70" r="1.6666666666666667" />
<circle cx="666.70" cy="458.22" r="1.6666666666666667" />
<circle cx="667.03" cy="461.57" r="1.6666666666666667" />
<circle cx="667.32" cy="458.45" r="1.6666666666666667" />
<circle cx="667.65" cy="461.18" r="1.6666666666666667" />
<circle cx="667.92" cy="456.05" r="1.6666666666666667" />
<circle cx="668.27" cy="463.41" r="1.6666666666666667" />
<circle cx="668.55" cy="456.20" r="1.6666666666666667" />
<circle cx="668.89" cy="462.40" r="1.6666666666666667" />
<circle cx="669.16" cy="456.49" r="1.6666666666666667" />
<circle cx="669.50" cy="462.17" r="1.6666666666666667" />
<circle cx="669.80" cy="458.87" r="1.6666666666666667" />
<circle cx="670.15" cy="463.58" r="1.6666666666666667" />
<circle cx="670.43" cy="456.11" r="1.6666666666666667" />
<circle cx="670.75" cy="460.53" r="1.6666666666666667" />
<circle cx="671.00" cy="453.52" r="1.6666666666666667" />
<circle cx="671.32" cy="460.75" r="1.6666666666666667" />
<circle cx="671.62" cy="459.15" r="1.6666666666666667" />
<circle cx="671.99" cy="464.58" r="1.6666666666666667" />
<circle cx="672.24" cy="454.52" r="1.6666666666666667" />
<circle cx="672.57" cy="461.44" r="1.6666666666666667" />
<circle cx="672.81" cy="452.29" r="1.6666666666666667" />
<circle cx="673.16" cy="463.18" r="1.6666666666666667" />
<circle cx="673.46" cy="458.92" r="1.6666666666666667" />
<circle cx="673.82" cy="463.65" r="1.6666666666666667" />
<circle cx="674.08" cy="454.44" r="1.6666666666666667" />
<circle cx="674.41" cy="461.79" r="1.6666666666666667" />
<circle cx="674.68" cy="456.22" r="1.6666666666666667" />
<circle cx="675.02" cy="462.33" r="1.6666666666666667" />
<circle cx="675.28" cy="454.11" r="1.6666666666666667" />
<circle cx="675.60" cy="460.90" r="1.6666666666666667" />
<circle cx="675.86" cy="455.26" r="1.6666666666666667" />
<circle cx="676.19" cy="461.51" r="1.6666666666666667" />
<circle cx="676.47" cy="456.53" r="1.6666666666666667" />
<circle cx="676.81" cy="462.18" r="1.6666666666666667" />
<circle cx="677.08" cy="455.86" r="1.6666666666666667" />
<circle cx="677.42" cy="462.92" r="1.6666666666666667" />
<circle cx="677.70" cy="456.51" r="1.6666666666666667" />
<circle cx="678.03" cy="461.37" r="1.6666666666666667" />
<circle cx="678.28" cy="453.21" r="1.6666666666666667" />
<circle cx="678.58" cy="458.80" r="1.6666666666666667" />
<circle cx="678.83" cy="453.47" r="1.6666666666666667" />
<circle cx="679.12" cy="457.79" r="1.6666666666666667" />
<circle cx="679.35" cy="451.39" r="1.6666666666666667" />
<circle cx="679.62" cy="456.24" r="1.6666666666666667" />
<circle cx="679.87" cy="453.33" r="1.6666666666666667" />
<circle cx="680.15" cy="455.93" r="1.6666666666666667" />
<circle cx="680.35" cy="447.81" r="1.6666666666666667" />
<circle cx="680.60" cy="453.35" r="1.6666666666666667" />
<circle cx="680.80" cy="446.78" r="1.6666666666666667" />
<circle cx="681.05" cy="453.28" r="1.6666666666666667" />
<circle cx="681.25" cy="447.38" r="1.6666666666666667" />
<circle cx="681.51" cy="454.63" r="1.6666666666666667" />
<circle cx="681.72" cy="448.23" r="1.6666666666666667" />
<circle cx="681.97" cy="453.40" r="1.6666666666666667" />
<circle cx="682.17" cy="446.11" r="1.6666666666666667" />
<circle cx="682.40" cy="451.15" r="1.6666666666666667" />
<circle cx="682.59" cy="446.03" r="1.6666666666666667" />
<circle cx="682.82" cy="451.11" r="1.6666666666666667" />
<circle cx="683.03" cy="447.42" r="1.6666666666666667" />
<circle cx="683.28" cy="453.99" r="1.6666666666666667" />
<circle cx="683.49" cy="447.47" r="1.6666666666666667" />
<circle cx="683.75" cy="455.64" r="1.6666666666666667" />
<circle cx="683.94" cy="445.26" r="1.6666666666666667" />
<circle cx="684.19" cy="453.26" r="1.6666666666666667" />
<circle cx="684.39" cy="446.48" r="1.6666666666666667" />
<circle cx="684.64" cy="453.07" r="1.6666666666666667" />
<circle cx="684.84" cy="447.26" r="1.6666666666666667" />
<circle cx="685.08" cy="452.15" r="1.6666666666666667" />
<circle cx="685.28" cy="446.62" r="1.6666666666666667" />
<circle cx="685.52" cy="452.86" r="1.6666666666666667" />
<circle cx="685.72" cy="446.19" r="1.6666666666666667" />
<circle cx="685.97" cy="453.56" r="1.6666666666666667" />
<circle cx="686.17" cy="447.72" r="1.6666666666666667" />
<circle cx="686.42" cy="453.13" r="1.6666666666666667" />
<circle cx="686.64" cy="449.20" r="1.6666666666666667" />
<circle cx="686.89" cy="453.51" r="1.6666666666666667" />
<circle cx="687.09" cy="447.54" r="1.6666666666666667" />
<circle cx="687.35" cy="454.53" r="1.6666666666666667" />
<circle cx="687.55" cy="447.22" r="1.6666666666666667" />
<circle cx="687.82" cy="455.47" r="1.6666666666666667" />
<circle cx="688.04" cy="448.98" r="1.6666666666666667" />
<circle cx="688.28" cy="452.55" r="1.6666666666666667" />
<circle cx="688.50" cy="449.50" r="1.6666666666666667" />
<circle cx="688.76" cy="454.62" r="1.6666666666666667" />
<circle cx="688.97" cy="449.02" r="1.6666666666666667" />
<circle cx="689.25" cy="456.44" r="1.6666666666666667" />
<circle cx="689.46" cy="448.99" r="1.6666666666666667" />
<circle cx="689.74" cy="455.87" r="1.6666666666666667" />
<circle cx="689.95" cy="448.55" r="1.6666666666666667" />
<circle cx="690.22" cy="456.28" r="1.6666666666666667" />
<circle cx="690.46" cy="451.68" r="1.6666666666666667" />
<circle cx="690.72" cy="455.21" r="1.6666666666666667" />
<circle cx="746.48" cy="469.75" r="1.6666666666666667" />
<circle cx="746.98" cy="473.87" r="1.6666666666666667" />
<circle cx="747.35" cy="464.57" r="1.6666666666666667" />
<circle cx="747.84" cy="473.56" r="1.6666666666666667" />
<circle cx="748.25" cy="467.64" r="1.6666666666666667" />
<circle cx="748.77" cy="474.84" r="1.6666666666666667" />
<circle cx="749.15" cy="466.02" r="1.6666666666666667" />
<circle cx="749.65" cy="473.87" r="1.6666666666666667" />
<circle cx="750.02" cy="464.88" r="1.6666666666666667" />
<circle cx="750.48" cy="471.42" r="1.6666666666666667" />
<circle cx="750.89" cy="467.71" r="1.6666666666666667" />
<circle cx="751.36" cy="472.28" r="1.6666666666666667" />
<circle cx="751.76" cy="466.89" r="1.6666666666666667" />
<circle cx="752.20" cy="470.26" r="1.6666666666666667" />
<circle cx="752.60" cy="466.97" r="1.6666666666666667" />
<circle cx="753.06" cy="471.40" r="1.6666666666666667" />
<circle cx="753.51" cy="470.86" r="1.6666666666666667" />
<circle cx="753.97" cy="471.18" r="1.6666666666666667" />
<circle cx="754.33" cy="464.61" r="1.6666666666666667" />
<circle cx="754.80" cy="471.74" r="1.6666666666666667" />
<circle cx="755.21" cy="467.75" r="1.6666666666666667" />
<circle cx="755.77" cy="477.23" r="1.6666666666666667" />
<circle cx="756.18" cy="467.85" r="1.6666666666666667" />
<circle cx="756.69" cy="474.37" r="1.6666666666666667" />
<circle cx="757.10" cy="467.92" r="1.6666666666666667" />
<circle cx="757.62" cy="475.40" r="1.6666666666666667" />
<circle cx="758.07" cy="470.56" r="1.6666666666666667" />
<circle cx="758.60" cy="475.63" r="1.6666666666666667" />
<circle cx="759.10" cy="473.69" r="1.6666666666666667" />
<circle cx="759.63" cy="475.21" r="1.6666666666666667" />
<circle cx="759.99" cy="464.81" r="1.6666666666666667" />
<circle cx="760.52" cy="475.57" r="1.6666666666666667" />
<circle cx="760.97" cy="470.66" r="1.6666666666666667" />
<circle cx="761.48" cy="474.15" r="1.6666666666666667" />
<circle cx="761.89" cy="467.83" r="1.6666666666666667" />
<circle cx="762.40" cy="474.29" r="1.6666666666666667" />
<circle cx="762.79" cy="466.63" r="1.6666666666666667" />
<circle cx="763.29" cy="473.95" r="1.6666666666666667" />
<circle cx="763.71" cy="468.42" r="1.6666666666666667" />
<circle cx="764.20" cy="473.29" r="1.6666666666666667" />
<circle cx="764.67" cy="472.43" r="1.6666666666666667" />
<circle cx="765.16" cy="472.90" r="1.6666666666666667" />
<circle cx="765.64" cy="472.67" r="1.6666666666666667" />
<circle cx="766.13" cy="473.32" r="1.6666666666666667" />
<circle cx="767.05" cy="491.70" r="1.6666666666666667" />
<circle cx="767.50" cy="470.85" r="1.6666666666666667" />
<circle cx="768.02" cy="474.86" r="1.6666666666666667" />
<circle cx="768.44" cy="468.43" r="1.6666666666666667" />
<circle cx="768.91" cy="471.97" r="1.6666666666666667" />
<circle cx="769.34" cy="469.44" r="1.6666666666666667" />
<circle cx="769.89" cy="476.58" r="1.6666666666666667" />
<circle cx="770.32" cy="469.77" r="1.6666666666666667" />
<circle cx="770.85" cy="475.48" r="1.6666666666666667" />
<circle cx="771.28" cy="469.02" r="1.6666666666666667" />
<circle cx="771.82" cy="475.98" r="1.6666666666666667" />
<circle cx="772.25" cy="469.87" r="1.6666666666666667" />
<circle cx="772.75" cy="473.40" r="1.6666666666666667" />
<circle cx="773.22" cy="471.99" r="1.6666666666666667" />
<circle cx="773.67" cy="470.70" r="1.6666666666666667" />
<circle cx="774.11" cy="470.43" r="1.6666666666666667" />
<circle cx="774.64" cy="475.45" r="1.6666666666666667" />
<circle cx="775.02" cy="465.22" r="1.6666666666666667" />
<circle cx="775.49" cy="472.04" r="1.6666666666666667" />
<circle cx="775.92" cy="469.95" r="1.6666666666666667" />
<circle cx="776.42" cy="473.25" r="1.6666666666666667" />
<circle cx="776.84" cy="468.66" r="1.6666666666666667" />
<circle cx="777.27" cy="469.38" r="1.6666666666666667" />
<circle cx="777.69" cy="469.34" r="1.6666666666666667" />
<circle cx="778.21" cy="474.71" r="1.6666666666666667" />
<circle cx="778.63" cy="468.39" r="1.6666666666666667" />
<circle cx="779.09" cy="471.67" r="1.6666666666666667" />
<circle cx="779.48" cy="466.21" r="1.6666666666666667" />
<circle cx="779.95" cy="472.21" r="1.6666666666666667" />
<circle cx="780.37" cy="468.87" r="1.6666666666666667" />
<circle cx="780.85" cy="472.61" r="1.6666666666666667" />
<circle cx="781.29" cy="470.04" r="1.6666666666666667" />
<circle cx="781.81" cy="474.72" r="1.6666666666666667" />
<circle cx="782.22" cy="467.84" r="1.6666666666666667" />
<circle cx="782.71" cy="473.37" r="1.6666666666666667" />
<circle cx="783.21" cy="473.83" r="1.6666666666666667" />
<circle cx="783.68" cy="471.94" r="1.6666666666666667" />
<circle cx="784.17" cy="473.09" r="1.6666666666666667" />
<circle cx="784.66" cy="473.41" r="1.6666666666666667" />
<circle cx="785.11" cy="470.54" r="1.6666666666666667" />
<circle cx="785.61" cy="474.03" r="1.6666666666666667" />
<circle cx="786.06" cy="470.29" r="1.6666666666666667" />
<circle cx="786.56" cy="474.34" r="1.6666666666666667" />
<circle cx="786.98" cy="468.07" r="1.6666666666666667" />
<circle cx="787.48" cy="474.02" r="1.6666666666666667" />
<circle cx="787.91" cy="469.08" r="1.6666666666666667" />
<circle cx="788.36" cy="470.83" r="1.6666666666666667" />
<circle cx="788.76" cy="467.82" r="1.6666666666666667" />
<circle cx="789.27" cy="474.19" r="1.6666666666666667" />
<circle cx="789.63" cy="464.25" r="1.6666666666666667" />
<circle cx="790.12" cy="473.26" r="1.6666666666666667" />
<circle cx="790.51" cy="466.05" r="1.6666666666666667" />
<circle cx="791.02" cy="474.42" r="1.6666666666666667" />
<circle cx="791.45" cy="469.21" r="1.6666666666666667" />
<circle cx="792.00" cy="476.79" r="1.6666666666666667" />
<circle cx="792.41" cy="468.41" r="1.6666666666666667" />
<circle cx="792.87" cy="471.12" r="1.6666666666666667" />
<circle cx="793.26" cy="466.36" r="1.6666666666666667" />
<circle cx="793.73" cy="472.32" r="1.6666666666666667" />
<circle cx="794.13" cy="466.90" r="1.6666666666666667" />
<circle cx="794.64" cy="474.28" r="1.6666666666666667" />
<circle cx="795.04" cy="467.50" r="1.6666666666666667" />
</g>
<g stroke="black">
<line x1="813.75" x2="813.75" y1="510.00" y2="520.00" />
<line x1="760.60" x2="760.60" y1="510.00" y2="520.00" />
<line x1="707.45" x2="707.45" y1="510.00" y2="520.00" />
<line x1="656.01" x2="656.01" y1="510.00" y2="520.00" />
<line x1="602.86" x2="602.86" y1="510.00" y2="520.00" />
<line x1="551.42" x2="551.42" y1="510.00" y2="520.00" />
<line x1="498.27" x2="498.27" y1="510.00" y2="520.00" />
<line x1="445.11" x2="445.11" y1="510.00" y2="520.00" />
<line x1="393.68" x2="393.68" y1="510.00" y2="520.00" />
<line x1="340.52" x2="340.52" y1="510.00" y2="520.00" />
<line x1="289.09" x2="289.09" y1="510.00" y2="520.00" />
<line x1="235.93" x2="235.93" y1="510.00" y2="520.00" />
<line x1="187.92" x2="187.92" y1="510.00" y2="520.00" />
<g fill="black" font-family="Arial, sans-serif" font-size="18.0" stroke="none" text-anchor="start" transform="translate(9.0 0.0)">
<text x="813.75" y="530.57">Feb</text>
<text x="760.60" y="530.57">Jan</text>
<text x="707.45" y="530.57">Dec</text>
<text x="656.01" y="530.57">Nov</text>
<text x="602.86" y="530.57">Oct</text>
<text x="551.42" y="530.57">Sep</text>
<text x="498.27" y="530.57">Aug</text>
<text x="445.11" y="530.57">Jul</text>
<text x="393.68" y="530.57">Jun</text>
<text x="340.52" y="530.57">May</text>
<text x="289.09" y="530.57">Apr</text>
<text x="235.93" y="530.57">Mar</text>
<text x="187.92" y="530.57">Feb</text>
</g>
<line x1="150.00" x2="850.00" y1="510.00" y2="510.00" />
</g>
<g stroke="black">
<line x1="150.00" x2="140.00" y1="510.00" y2="510.00" />
<line x1="150.00" x2="140.00" y1="216.29" y2="216.29" />
<g fill="black" font-family="Arial, sans-serif" font-size="18.0" stroke="none" text-anchor="end">
<text x="141.00" y="501.00">0</text>
<text x="141.00" y="207.29">10</text>
</g>
<line x1="150.00" x2="150.00" y1="510.00" y2="90.00" />
</g>
</g>
</svg>