<?xml version="1.0"?>
<svg version="1.1" viewBox="0 0 1000 600" xmlns:xlink="http://www.w3.org/1999/xlink" xmlns="http://www.w3.org/2000/svg">
<g>
<g stroke-dasharray="3.6 7.2" stroke-width="0.72" stroke="#caa">
<line x1="294.63" x2="294.63" y1="510.00" y2="90.00" />
<line x1="510.08" x2="510.08" y1="510.00" y2="90.00" />
<line x1="725.52" x2="725.52" y1="510.00" y2="90.00" />
<line x1="150.00" x2="850.00" y1="510.00" y2="510.00" />
<line x1="150.00" x2="850.00" y1="465.81" y2="465.81" />
<line x1="150.00" x2="850.00" y1="421.62" y2="421.62" />
<line x1="150.00" x2="850.00" y1="377.42" y2="377.42" />
<line x1="150.00" x2="850.00" y1="333.23" y2="333.23" />
<line x1="150.00" x2="850.00" y1="289.04" y2="289.04" />
<line x1="150.00" x2="850.00" y1="244.85" y2="244.85" />
<line x1="150.00" x2="850.00" y1="200.66" y2="200.66" />
<line x1="150.00" x2="850.00" y1="156.46" y2="156.46" />
<line x1="150.00" x2="850.00" y1="112.27" y2="112.27" />
</g>
<g>
<text dominant-baseline="hanging" dx="-36.0" dy="18.0" fill="#0004" font-family="Arial, sans-serif" font-size="36" stroke="none" text-anchor="end" x="850.00" y="128.18">ThMuCh1LongLizard</text>
</g>
<g>
<text dominant-baseline="text-bottom" dy="-12.0" fill="black" font-family="Arial, sans-serif" font-size="18.0" font-style="italic" stroke="none" text-anchor="middle" x="500.00" y="90.00">Days since start</text>
</g>
<g>
<text dominant-baseline="central" dx="12.0" dy="12.0" fill="black" font-family="Arial, sans-serif" font-size="18.0" font-style="italic" stroke="none" text-anchor="middle" text-orientation="sideways" writing-mode="vertical-lr" x="850.00" y="300.00">Drips per day</text>
</g>
<polyline fill="none" points="150.00,509.97 150.30,509.97 150.60,509.97 150.91,509.97 151.22,509.97 151.52,509.97 151.82,509.97 152.12,509.97 152.43,509.97 152.48,509.84 181.14,509.99 182.03,509.99 182.89,509.99 183.81,509.99 184.74,509.99 185.51,509.99 186.21,509.99 186.98,509.99 187.68,509.99 188.44,509.99 189.28,509.99 190.09,509.99 190.87,509.99 191.71,509.99 192.61,509.99 193.39,509.99 194.25,509.99 195.12,509.99 195.90,509.99 196.79,509.99 197.50,509.99 198.32,509.99 199.05,509.99 199.86,509.99 200.69,509.99 201.48,509.99 202.32,509.99 203.22,509.99 227.34,509.68 227.34,486.14 227.34,488.79 227.34,495.86 227.34,487.54 227.40,509.84 227.40,462.27 227.40,414.55 227.40,319.09 227.40,128.18 227.40,128.18 227.40,128.18 227.40,128.18 227.40,128.18 227.40,128.18 227.40,128.18 227.40,128.18 227.40,128.18 227.40,128.18 227.40,128.18 227.40,128.18 227.40,128.18 227.40,128.18 227.40,128.18 227.40,128.18 227.40,128.18 227.40,128.18 227.40,128.18 227.40,128.18 227.40,128.18 227.40,128.18 227.40,128.18 227.40,128.18 227.40,128.18 227.40,128.18 227.40,128.18 227.40,128.18 227.40,128.18 227.40,128.18 227.40,128.18 227.40,128.18 227.40,128.18 227.40,128.18 227.40,128.18 227.40,128.18 227.40,128.18 227.40,128.18 227.40,128.18 227.40,128.18 227.40,128.18 227.40,128.18 227.40,128.18 227.40,128.18 227.40,128.18 227.40,128.18 227.40,128.18 227.40,128.18 227.40,128.18 227.40,128.18 227.40,128.18 227.40,128.18 227.40,128.18 227.40,128.18 227.40,128.18 227.40,128.18 227.40,128.18 227.40,128.18 227.40,128.18 227.40,128.18 227.40,128.18 227.40,128.18 227.40,128.18 227.40,128.18 227.40,128.18 227.40,128.18 227.40,128.18 227.40,128.18 227.40,319.09 227.40,128.18 227.40,128.18 227.40,128.18 227.40,128.18 227.40,128.18 227.40,128.18 227.40,128.18 227.40,128.18 227.40,128.18 227.40,128.18 227.40,128.18 227.40,128.18 227.40,128.18 227.40,128.18 227.40,128.18 227.40,128.18 227.40,128.18 227.40,128.18 227.40,128.18 227.40,128.18 227.40,128.18 227.40,128.18 227.40,128.18 227.40,128.18 227.40,128.18 227.40,128.18 227.40,128.18 227.40,128.18 227.40,128.18 227.40,128.18 227.40,128.18 227.40,128.18 227.40,128.18 227.40,128.18 227.40,128.18 227.40,128.18 227.40,128.18 227.40,128.18 227.40,128.18 227.40,128.18 227.40,128.18 227.40,128.18 227.40,128.18 227.40,128.18 227.40,128.18 227.40,128.18 227.40,128.18 227.40,128.18 227.40,128.18 227.40,128.18 227.40,128.18 227.40,128.18 227.40,128.18 227.40,128.18 227.40,128.18 227.40,128.18 227.40,128.18 227.40,128.18 227.40,128.18 227.40,128.18 227.40,128.18 227.40,486.14 227.40,128.18 227.40,128.18 227.40,128.18 227.40,128.18 227.40,128.18 227.40,128.18 227.40,128.18 227.40,128.18 227.40,128.18 227.40,128.18 227.40,128.18 227.40,128.18 227.40,128.18 227.40,128.18 227.40,128.18 227.40,128.18 227.40,128.18 227.40,128.18 227.40,128.18 227.40,128.18 227.40,128.18 227.40,128.18 227.40,128.18 227.40,128.18 227.40,128.18 227.40,128.18 227.40,128.18 227.40,128.18 227.40,128.18 227.40,128.18 227.40,128.18 227.40,128.18 227.40,128.18 227.40,128.18 227.40,128.18 227.40,128.18 227.40,128.18 227.40,128.18 227.40,128.18 227.40,128.18 227.40,128.18 227.40,128.18 227.40,128.18 227.40,128.18 227.40,128.18 227.40,128.18 227.40,128.18 227.40,128.18 227.40,128.18 227.40,128.18 227.40,128.18 227.40,128.18 227.40,128.18 227.40,128.18 227.40,128.18 227.40,128.18 227.40,128.18 227.40,128.18 227.40,128.18 227.40,128.18 227.40,128.18 227.40,128.18 227.40,128.18 227.40,128.18 227.40,128.18 227.40,128.18 227.40,128.18 227.40,128.18 227.40,128.18 227.40,128.18 227.40,128.18 227.40,128.18 227.40,128.18 227.40,128.18 227.40,128.18 227.40,128.18 227.40,128.18 227.40,128.18 227.40,128.18 227.40,128.18 227.40,128.18 227.40,128.18 227.40,128.18 227.40,128.18 227.40,128.18 227.40,128.18 227.40,128.18 227.40,128.18 227.40,128.18 227.40,128.18 227.40,128.18 227.40,128.18 227.40,128.18 227.40,128.18 227.40,128.18 227.40,128.18 227.40,128.18 227.40,128.18 227.40,128.18 227.40,128.18 227.40,128.18 227.40,128.18 227.40,128.18 227.40,128.18 227.40,128.18 227.40,128.18 227.40,128.18 227.40,128.18 227.40,128.18 227.40,128.18 227.40,128.18 227.40,128.18 227.40,128.18 227.40,128.18 227.40,128.18 227.40,128.18 227.40,128.18 227.40,128.18 227.40,128.18 227.40,128.18 227.40,128.18 227.40,128.18 227.40,128.18 227.40,128.18 227.40,128.18 227.40,128.18 227.40,128.18 227.40,128.18 227.40,128.18 227.40,128.18 227.40,128.18 227.40,128.18 227.40,128.18 227.40,128.18 227.40,128.18 227.40,128.18 227.40,128.18 227.40,486.14 227.40,128.18 227.40,128.18 227.40,128.18 227.40,128.18 227.40,128.18 227.40,128.18 227.40,128.18 227.40,128.18 227.40,128.18 227.40,128.18 227.40,486.14 227.40,128.18 227.40,128.18 227.40,128.18 227.40,128.18 227.40,128.18 227.40,128.18 227.40,128.18 227.40,128.18 227.40,128.18 227.40,128.18 227.40,128.18 227.40,128.18 227.40,128.18 227.40,128.18 227.40,128.18 227.40,128.18 227.40,128.18 227.40,128.18 227.40,128.18 227.40,128.18 227.40,128.18 227.40,128.18 227.40,128.18 227.40,128.18 227.40,128.18 227.40,128.18 227.40,128.18 227.40,128.18 227.40,128.18 227.40,128.18 227.40,128.18 227.40,128.18 227.40,128.18 227.40,128.18 227.40,128.18 227.40,128.18 227.40,128.18 227.40,128.18 227.40,128.18 227.40,128.18 227.40,128.18 227.40,128.18 227.40,128.18 227.40,128.18 227.40,128.18 227.40,128.18 227.40,128.18 227.40,128.18 227.40,128.18 227.40,128.18 227.40,128.18 227.40,128.18 227.40,128.18 227.40,128.18 227.40,128.18 227.40,128.18 227.40,128.18 227.40,128.18 227.40,128.18 227.40,128.18 227.40,128.18 227.40,128.18 227.40,128.18 227.40,128.18 227.40,128.18 227.40,128.18 227.40,128.18 227.40,128.18 227.40,128.18 227.40,128.18 227.40,128.18 227.40,128.18 227.40,128.18 227.40,128.18 227.40,128.18 227.40,128.18 227.40,128.18 227.40,128.18 227.40,128.18 227.40,128.18 227.40,128.18 227.40,128.18 227.40,128.18 227.40,128.18 227.40,128.18 227.40,128.18 227.40,128.18 227.40,128.18 227.40,128.18 227.40,128.18 227.40,128.18 227.40,128.18 227.40,128.18 227.40,128.18 227.41,128.18 227.41,486.14 227.41,128.18 227.41,128.18 227.41,128.18 227.41,128.18 227.41,128.18 227.41,128.18 227.41,128.18 227.41,128.18 227.41,128.18 227.41,128.18 227.41,128.18 227.41,128.18 227.41,128.18 227.41,128.18 227.41,128.18 227.41,128.18 227.41,128.18 227.41,128.18 227.41,128.18 227.41,128.18 227.41,128.18 227.41,128.18 227.41,128.18 227.41,128.18 227.41,128.18 227.41,128.18 227.41,128.18 227.41,128.18 227.41,128.18 227.41,128.18 227.41,128.18 227.41,128.18 227.41,128.18 227.41,128.18 227.41,128.18 227.41,128.18 227.41,128.18 227.41,128.18 227.41,128.18 227.41,319.09 227.41,128.18 227.41,128.18 227.41,128.18 227.41,128.18 227.41,486.14 227.41,128.18 227.41,128.18 227.41,128.18 227.41,506.59 227.41,128.18 227.41,128.18 227.41,128.18 227.41,128.18 227.41,128.18 227.41,128.18 227.41,128.18 227.41,128.18 227.41,128.18 227.41,128.18 227.41,128.18 227.41,128.18 227.41,128.18 227.41,128.18 227.41,128.18 227.41,128.18 227.41,128.18 227.41,128.18 227.41,128.18 227.41,128.18 227.41,128.18 227.41,128.18 227.41,128.18 227.41,128.18 227.41,128.18 227.41,128.18 227.41,128.18 227.41,128.18 227.41,128.18 227.41,128.18 227.41,128.18 227.41,128.18 227.41,128.18 227.41,128.18 227.41,128.18 227.41,128.18 227.41,128.18 227.41,128.18 227.41,128.18 227.41,128.18 227.41,128.18 227.41,128.18 227.41,128.18 227.41,128.18 227.41,128.18 227.41,128.18 227.41,128.18 227.41,128.18 227.41,128.18 227.41,128.18 227.41,128.18 227.41,128.18 227.41,128.18 227.41,128.18 227.41,128.18 227.41,128.18 227.41,128.18 227.41,128.18 227.41,128.18 227.41,128.18 227.41,128.18 227.41,128.18 227.41,128.18 227.41,128.18 227.41,128.18 227.41,128.18 227.41,128.18 227.41,128.18 227.41,128.18 227.41,128.18 227.41,128.18 227.41,128.18 227.41,128.18 227.41,128.18 227.41,128.18 227.41,128.18 227.41,128.18 227.41,128.18 227.41,128.18 227.41,128.18 227.41,128.18 227.41,128.18 227.41,128.18 227.41,128.18 227.41,128.18 227.41,128.18 227.41,128.18 227.41,128.18 227.41,128.18 227.41,128.18 227.41,128.18 227.41,128.18 227.41,128.18 227.41,128.18 227.41,128.18 227.41,128.18 227.41,128.18 227.41,128.18 227.41,128.18 227.41,128.18 227.41,128.18 227.41,128.18 227.41,128.18 227.41,128.18 227.41,128.18 227.41,128.18 227.41,128.18 227.41,128.18 227.41,128.18 227.41,128.18 227.41,128.18 227.41,128.18 227.41,128.18 227.41,128.18 227.41,128.18 227.41,128.18 227.41,128.18 227.41,128.18 227.41,128.18 227.41,128.18 227.41,128.18 227.41,128.18 227.41,128.18 227.41,128.18 227.41,128.18 227.41,128.18 227.41,128.18 227.41,128.18 227.41,128.18 227.41,128.18 227.41,128.18 227.41,128.18 227.41,128.18 227.41,128.18 227.41,128.18 227.41,128.18 227.41,128.18 227.41,128.18 227.41,128.18 227.41,128.18 227.41,128.18 227.41,128.18 227.41,128.18 227.41,128.18 227.41,128.18 227.41,128.18 227.41,128.18 227.41,128.18 227.41,128.18 227.41,128.18 227.41,128.18 227.41,128.18 227.41,128.18 227.41,128.18 227.41,128.18 227.41,128.18 227.41,128.18 227.41,128.18 227.41,128.18 227.41,128.18 227.41,128.18 227.41,128.18 227.41,128.18 227.41,128.18 227.41,128.18 227.41,128.18 227.41,128.18 227.41,128.18 227.41,128.18 227.41,128.18 227.41,128.18 227.41,128.18 227.41,128.18 227.41,128.18 227.41,128.18 227.41,128.18 227.41,128.18 227.41,128.18 227.41,128.18 227.41,128.18 227.41,128.18 227.41,128.18 227.41,128.18 227.41,128.18 227.41,128.18 227.41,128.18 227.41,486.14 227.41,128.18 227.41,128.18 227.41,128.18 227.41,128.18 227.41,128.18 227.41,128.18 227.41,128.18 227.41,128.18 227.41,128.18 227.41,128.18 227.41,128.18 227.41,128.18 227.41,128.18 227.41,128.18 227.44,509.73 227.44,497.27 227.45,504.21 227.45,507.85 227.47,509.65 227.47,482.73 227.47,382.73 227.47,128.18 227.47,462.27 227.48,508.92 227.83,509.98 228.08,509.97 228.33,509.97 228.58,509.97 228.83,509.97 229.07,509.97 229.30,509.96 229.55,509.97 229.80,509.97 230.04,509.97 230.30,509.97 230.54,509.97 230.79,509.97 231.05,509.97 231.31,509.97 231.56,509.97 231.80,509.97 232.05,509.97 232.31,509.97 232.56,509.97 232.82,509.97 233.07,509.97 233.32,509.97 233.59,509.97 233.85,509.97 234.11,509.97 234.35,509.97 234.61,509.97 234.88,509.97 235.15,509.97 235.42,509.97 235.68,509.97 235.94,509.97 236.20,509.97 236.46,509.97 236.73,509.97 236.99,509.97 237.26,509.97 237.52,509.97 237.79,509.97 238.06,509.97 238.33,509.97 238.61,509.97 238.90,509.97 239.17,509.97 239.44,509.97 239.71,509.97 240.00,509.97 240.29,509.97 240.58,509.97 240.88,509.97 241.16,509.97 241.46,509.97 241.77,509.97 242.06,509.97 242.35,509.97 242.63,509.97 242.93,509.97 243.23,509.97 243.53,509.97 243.81,509.97 244.11,509.97 244.41,509.97 244.70,509.97 244.99,509.97 245.28,509.97 245.58,509.97 245.87,509.97 246.15,509.97 246.45,509.97 246.74,509.97 247.03,509.97 247.33,509.97 247.61,509.97 247.90,509.97 248.20,509.97 248.51,509.97 248.80,509.97 249.10,509.97 249.41,509.97 249.72,509.97 250.01,509.97 250.32,509.97 250.62,509.97 250.92,509.97 251.22,509.97 251.53,509.97 251.83,509.97 252.13,509.97 252.42,509.97 252.73,509.97 253.04,509.97 253.36,509.97 253.66,509.97 253.96,509.97 254.27,509.97 254.58,509.97 254.89,509.97 255.21,509.97 255.52,509.97 255.83,509.97 256.15,509.97 256.46,509.97 256.77,509.97 257.09,509.97 257.40,509.97 257.71,509.97 258.03,509.97 258.22,509.96 258.42,509.96 258.63,509.96 258.81,509.95 258.99,509.95 259.16,509.95 259.26,509.91 259.28,509.49 259.30,509.67 259.51,509.96 259.57,509.86 639.14,509.95 639.41,509.97 639.56,509.94 639.80,509.97 639.97,509.95 640.20,509.96 640.40,509.96 640.64,509.97 640.83,509.96 641.06,509.96 641.26,509.96 641.49,509.96 641.67,509.96 641.92,509.97 642.12,509.96 642.38,509.97 642.59,509.96 642.84,509.97 643.07,509.96 643.34,509.97 643.53,509.96 643.77,509.97 643.96,509.96 644.22,509.97 644.43,509.96 644.68,509.97 644.89,509.96 645.14,509.97 645.35,509.96 645.61,509.97 645.82,509.96 646.08,509.97 646.29,509.96 646.57,509.97 646.79,509.96 647.08,509.97 647.33,509.97 647.62,509.97 647.86,509.96 648.12,509.97 648.36,509.97 648.64,509.97 648.91,509.97 649.17,509.97 650.19,509.99 650.44,509.97 650.80,509.98 651.06,509.97 651.39,509.98 651.64,509.97 651.96,509.97 652.24,509.97 652.55,509.97 652.82,509.97 653.13,509.97 653.40,509.97 653.72,509.97 653.98,509.97 654.33,509.98 654.59,509.97 654.92,509.97 655.21,509.97 655.54,509.98 655.80,509.97 656.10,509.97 656.36,509.97 656.67,509.97 656.95,509.97 657.27,509.97 657.55,509.97 657.90,509.98 658.17,509.97 658.53,509.98 658.83,509.97 659.16,509.97 659.47,509.97 659.80,509.97 660.10,509.97 660.43,509.97 660.78,509.98 661.09,509.97 661.42,509.97 661.73,509.97 662.06,509.98 662.36,509.97 662.67,509.97 663.02,509.98 663.33,509.97 663.66,509.98 663.97,509.97 664.34,509.98 664.65,509.97 665.00,509.98 665.28,509.97 665.64,509.98 665.93,509.97 666.27,509.98 666.55,509.97 666.87,509.97 667.17,509.97 667.52,509.98 667.84,509.97 668.19,509.98 668.45,509.97 668.81,509.98 669.07,509.97 669.42,509.98 669.70,509.97 670.08,509.98 670.36,509.97 670.68,509.97 670.96,509.97 671.28,509.97 671.60,509.97 671.91,509.97 672.19,509.97 672.51,509.97 672.80,509.97 673.12,509.97 673.42,509.97 673.76,509.98 674.04,509.97 674.34,509.97 674.62,509.97 674.95,509.98 675.23,509.97 675.55,509.97 675.81,509.97 676.13,509.97 676.37,509.97 676.68,509.97 676.93,509.97 677.28,509.98 677.55,509.97 677.89,509.98 678.17,509.97 678.50,509.97 678.75,509.97 679.08,509.97 679.60,509.98 679.88,509.97 680.21,509.98 680.52,509.97 680.85,509.98 681.16,509.97 681.49,509.98 681.79,509.97 682.14,509.98 682.42,509.97 682.77,509.98 683.05,509.97 683.39,509.98 683.70,509.97 684.03,509.98 684.33,509.97 684.68,509.98 684.96,509.97 685.30,509.98 685.57,509.97 685.90,509.97 686.18,509.97 686.53,509.98 686.80,509.97 687.13,509.97 687.42,509.97 687.72,509.97 688.03,509.97 688.38,509.98 688.66,509.97 688.98,509.97 689.28,509.97 689.63,509.98 689.90,509.97 690.26,509.98 690.55,509.97 690.91,509.98 691.18,509.97 691.51,509.97 691.77,509.97 692.13,509.98 692.45,509.97 692.80,509.98 693.11,509.97 693.45,509.98 693.75,509.97 694.11,509.98 694.42,509.97 694.77,509.98 695.04,509.97 695.43,509.98 695.72,509.97 696.09,509.98 696.37,509.97 696.72,509.98 697.02,509.97 697.36,509.98 697.67,509.97 698.02,509.98 698.33,509.97 698.62,509.97 698.88,509.97 699.25,509.98 699.53,509.97 699.88,509.98 700.17,509.97 700.55,509.98 700.82,509.97 701.19,509.98 701.48,509.97 701.83,509.98 702.11,509.97 702.45,509.98 702.76,509.97 703.14,509.98 704.42,509.99 704.70,509.97 705.06,509.98 705.38,509.97 705.74,509.98 706.03,509.97 706.39,509.98 706.71,509.97 707.09,509.98 707.37,509.97 707.73,509.98 708.01,509.97 708.37,509.98 708.65,509.97 708.99,509.98 709.29,509.97 709.65,509.98 709.97,509.97 710.34,509.98 710.66,509.97 711.02,509.98 711.34,509.97 711.69,509.98 711.99,509.97 712.37,509.98 712.67,509.97 713.04,509.98 713.34,509.97 713.70,509.98 714.03,509.97 714.41,509.98 714.71,509.97 715.06,509.98 715.33,509.97 715.68,509.98 716.01,509.98 716.40,509.98 716.68,509.97 717.04,509.98 717.30,509.97 717.68,509.98 718.01,509.97 718.39,509.98 718.67,509.97 719.03,509.98 719.33,509.97 719.70,509.98 719.97,509.97 720.32,509.98 720.61,509.97 720.97,509.98 721.27,509.97 721.64,509.98 721.93,509.97 722.31,509.98 722.61,509.97 722.96,509.98 723.23,509.97 723.56,509.97 723.83,509.97 724.14,509.97 724.40,509.97 724.70,509.97 724.97,509.97 725.26,509.97 725.49,509.96 725.76,509.97 725.97,509.96 726.24,509.97 726.46,509.96 726.75,509.97 726.97,509.96 727.24,509.97 727.46,509.96 727.71,509.97 727.92,509.96 728.17,509.97 728.39,509.96 728.67,509.97 728.89,509.96 729.18,509.97 729.39,509.96 729.65,509.97 729.87,509.96 730.14,509.97 730.36,509.96 730.62,509.97 730.83,509.96 731.10,509.97 731.31,509.96 731.58,509.97 731.81,509.96 732.07,509.97 732.31,509.96 732.58,509.97 732.80,509.96 733.08,509.97 733.30,509.96 733.59,509.97 733.83,509.96 734.09,509.97 734.33,509.97 734.61,509.97 734.84,509.96 735.14,509.97 735.38,509.96 735.67,509.97 735.90,509.96 736.20,509.97 736.46,509.97 736.75,509.97 797.28,509.98 797.83,509.98 798.22,509.98 798.76,509.98 799.20,509.98 799.76,509.99 800.18,509.98 800.72,509.98 801.12,509.98 801.62,509.98 802.06,509.98 802.58,509.98 803.01,509.98 803.49,509.98 803.92,509.98 804.42,509.98 804.91,509.98 805.41,509.98 805.80,509.98 806.31,509.98 806.75,509.98 807.36,509.99 807.81,509.98 808.36,509.99 808.80,509.98 809.38,509.99 809.86,509.98 810.44,509.99 810.98,509.98 811.55,509.99 811.95,509.98 812.53,509.99 813.01,509.98 813.56,509.99 814.01,509.98 814.56,509.99 814.98,509.98 815.53,509.98 815.98,509.98 816.51,509.98 817.03,509.98 817.56,509.98 818.08,509.98 818.61,509.98 819.61,509.99 820.10,509.98 820.67,509.99 821.12,509.98 821.63,509.98 822.10,509.98 822.69,509.99 823.17,509.98 823.74,509.99 824.20,509.98 824.79,509.99 825.26,509.98 825.80,509.98 826.31,509.98 826.80,509.98 827.28,509.98 827.85,509.99 828.26,509.98 828.77,509.98 829.25,509.98 829.78,509.98 830.23,509.98 830.70,509.98 831.17,509.98 831.73,509.99 832.18,509.98 832.68,509.98 833.10,509.98 833.62,509.98 834.08,509.98 834.60,509.98 835.07,509.98 835.63,509.99 836.08,509.98 836.61,509.98 837.16,509.98 837.66,509.98 838.19,509.98 838.73,509.98 839.22,509.98 839.76,509.98 840.24,509.98 840.80,509.99 841.24,509.98 841.79,509.98 842.25,509.98 842.74,509.98 843.19,509.98 843.74,509.99 844.13,509.98 844.66,509.98 845.08,509.98 845.63,509.99 846.10,509.98 846.70,509.99 847.15,509.98 847.64,509.98 848.07,509.98 848.58,509.98 849.01,509.98 849.56,509.99 850.00,509.98" stroke-dasharray="3.6 3.6" stroke-width="3.6" stroke="#aaa" />
<g>
<circle cx="150.00" cy="509.97" r="1.6666666666666667" />
<circle cx="150.30" cy="509.97" r="1.6666666666666667" />
<circle cx="150.60" cy="509.97" r="1.6666666666666667" />
<circle cx="150.91" cy="509.97" r="1.6666666666666667" />
<circle cx="151.22" cy="509.97" r="1.6666666666666667" />
<circle cx="151.52" cy="509.97" r="1.6666666666666667" />
<circle cx="151.82" cy="509.97" r="1.6666666666666667" />
<circle cx="152.12" cy="509.97" r="1.6666666666666667" />
<circle cx="152.43" cy="509.97" r="1.6666666666666667" />
<circle cx="152.48" cy="509.84" r="1.6666666666666667" />
<circle cx="181.14" cy="509.99" r="1.6666666666666667" />
<circle cx="182.03" cy="509.99" r="1.6666666666666667" />
<circle cx="182.89" cy="509.99" r="1.6666666666666667" />
<circle cx="183.81" cy="509.99" r="1.6666666666666667" />
<circle cx="184.74" cy="509.99" r="1.6666666666666667" />
<circle cx="185.51" cy="509.99" r="1.6666666666666667" />
<circle cx="186.21" cy="509.99" r="1.6666666666666667" />
<circle cx="186.98" cy="509.99" r="1.6666666666666667" />
<circle cx="187.68" cy="509.99" r="1.6666666666666667" />
<circle cx="188.44" cy="509.99" r="1.6666666666666667" />
<circle cx="189.28" cy="509.99" r="1.6666666666666667" />
<circle cx="190.09" cy="509.99" r="1.6666666666666667" />
<circle cx="190.87" cy="509.99" r="1.6666666666666667" />
<circle cx="191.71" cy="509.99" r="1.6666666666666667" />
<circle cx="192.61" cy="509.99" r="1.6666666666666667" />
<circle cx="193.39" cy="509.99" r="1.6666666666666667" />
<circle cx="194.25" cy="509.99" r="1.6666666666666667" />
<circle cx="195.12" cy="509.99" r="1.6666666666666667" />
<circle cx="195.90" cy="509.99" r="1.6666666666666667" />
<circle cx="196.79" cy="509.99" r="1.6666666666666667" />
<circle cx="197.50" cy="509.99" r="1.6666666666666667" />
<circle cx="198.32" cy="509.99" r="1.6666666666666667" />
<circle cx="199.05" cy="509.99" r="1.6666666666666667" />
<circle cx="199.86" cy="509.99" r="1.6666666666666667" />
<circle cx="200.69" cy="509.99" r="1.6666666666666667" />
<circle cx="201.48" cy="509.99" r="1.6666666666666667" />
<circle cx="202.32" cy="509.99" r="1.6666666666666667" />
<circle cx="203.22" cy="509.99" r="1.6666666666666667" />
<circle cx="227.34" cy="509.68" r="1.6666666666666667" />
<circle cx="227.34" cy="486.14" r="1.6666666666666667" />
<circle cx="227.34" cy="488.79" r="1.6666666666666667" />
<circle cx="227.34" cy="495.86" r="1.6666666666666667" />
<circle cx="227.34" cy="487.54" r="1.6666666666666667" />
<circle cx="227.40" cy="509.84" r="1.6666666666666667" />
<circle cx="227.40" cy="462.27" r="1.6666666666666667" />
<circle cx="227.40" cy="414.55" r="1.6666666666666667" />
<circle cx="227.40" cy="319.09" r="1.6666666666666667" />
<circle cx="227.40" cy="128.18" r="1.6666666666666667" />
<circle cx="227.40" cy="128.18" r="1.6666666666666667" />
<circle cx="227.40" cy="128.18" r="1.6666666666666667" />
<circle cx="227.40" cy="128.18" r="1.6666666666666667" />
<circle cx="227.40" cy="128.18" r="1.6666666666666667" />
<circle cx="227.40" cy="128.18" r="1.6666666666666667" />
<circle cx="227.40" cy="128.18" r="1.6666666666666667" />
<circle cx="227.40" cy="128.18" r="1.6666666666666667" />
<circle cx="227.40" cy="128.18" r="1.6666666666666667" />
<circle cx="227.40" cy="128.18" r="1.6666666666666667" />
<circle cx="227.40" cy="128.18" r="1.6666666666666667" />
<circle cx="227.40" cy="128.18" r="1.6666666666666667" />
<circle cx="227.40" cy="128.18" r="1.6666666666666667" />
<circle cx="227.40" cy="128.18" r="1.6666666666666667" />
<circle cx="227.40" cy="128.18" r="1.6666666666666667" />
<circle cx="227.40" cy="128.18" r="1.6666666666666667" />
<circle cx="227.40" cy="128.18" r="1.6666666666666667" />
<circle cx="227.40" cy="128.18" r="1.6666666666666667" />
<circle cx="227.40" cy="128.18" r="1.6666666666666667" />
<circle cx="227.40" cy="128.18" r="1.6666666666666667" />
<circle cx="227.40" cy="128.18" r="1.6666666666666667" />
<circle cx="227.40" cy="128.18" r="1.6666666666666667" />
<circle cx="227.40" cy="128.18" r="1.6666666666666667" />
<circle cx="227.40" cy="128.18" r="1.6666666666666667" />
<circle cx="227.40" cy="128.18" r="1.6666666666666667" />
<circle cx="227.40" cy="128.18" r="1.6666666666666667" />
<circle cx="227.40" cy="128.18" r="1.6666666666666667" />
<circle cx="227.40" cy="128.18" r="1.6666666666666667" />
<circle cx="227.40" cy="128.18" r="1.6666666666666667" />
<circle cx="227.40" cy="128.18" r="1.6666666666666667" />
<circle cx="227.40" cy="128.18" r="1.6666666666666667" />
<circle cx="227.40" cy="128.18" r="1.6666666666666667" />
<circle cx="227.40" cy="128.18" r="1.6666666666666667" />
<circle cx="227.40" cy="128.18" r="1.6666666666666667" />
<circle cx="227.40" cy="128.18" r="1.6666666666666667" />
<circle cx="227.40" cy="128.18" r="1.6666666666666667" />
<circle cx="227.40" cy="128.18" r="1.6666666666666667" />
<circle cx="227.40" cy="128.18" r="1.6666666666666667" />
<circle cx="227.40" cy="128.18" r="1.6666666666666667" />
<circle cx="227.40" cy="128.18" r="1.6666666666666667" />
<circle cx="227.40" cy="128.18" r="1.6666666666666667" />
<circle cx="227.40" cy="128.18" r="1.6666666666666667" />
<circle cx="227.40" cy="128.18" r="1.6666666666666667" />
<circle cx="227.40" cy="128.18" r="1.6666666666666667" />
<circle cx="227.40" cy="128.18" r="1.6666666666666667" />
<circle cx="227.40" cy="128.18" r="1.6666666666666667" />
<circle cx="227.40" cy="128.18" r="1.6666666666666667" />
<circle cx="227.40" cy="128.18" r="1.6666666666666667" />
<circle cx="227.40" cy="128.18" r="1.6666666666666667" />
<circle cx="227.40" cy="128.18" r="1.6666666666666667" />
<circle cx="227.40" cy="128.18" r="1.6666666666666667" />
<circle cx="227.40" cy="128.18" r="1.6666666666666667" />
<circle cx="227.40" cy="128.18" r="1.6666666666666667" />
<circle cx="227.40" cy="128.18" r="1.6666666666666667" />
<circle cx="227.40" cy="128.18" r="1.6666666666666667" />
<circle cx="227.40" cy="128.18" r="1.6666666666666667" />
<circle cx="227.40" cy="128.18" r="1.6666666666666667" />
<circle cx="227.40" cy="128.18" r="1.6666666666666667" />
<circle cx="227.40" cy="128.18" r="1.6666666666666667" />
<circle cx="227.40" cy="128.18" r="1.6666666666666667" />
<circle cx="227.40" cy="128.18" r="1.6666666666666667" />
<circle cx="227.40" cy="128.18" r="1.6666666666666667" />
<circle cx="227.40" cy="128.18" r="1.6666666666666667" />
<circle cx="227.40" cy="128.18" r="1.6666666666666667" />
<circle cx="227.40" cy="128.18" r="1.6666666666666667" />
<circle cx="227.40" cy="128.18" r="1.6666666666666667" />
<circle cx="227.40" cy="128.18" r="1.6666666666666667" />
<circle cx="227.40" cy="128.18" r="1.6666666666666667" />
<circle cx="227.40" cy="319.09" r="1.6666666666666667" />
<circle cx="227.40" cy="128.18" r="1.6666666666666667" />
<circle cx="227.40" cy="128.18" r="1.6666666666666667" />
<circle cx="227.40" cy="128.18" r="1.6666666666666667" />
<circle cx="227.40" cy="128.18" r="1.6666666666666667" />
<circle cx="227.40" cy="128.18" r="1.6666666666666667" />
<circle cx="227.40" cy="128.18" r="1.6666666666666667" />
<circle cx="227.40" cy="128.18" r="1.6666666666666667" />
<circle cx="227.40" cy="128.18" r="1.6666666666666667" />
<circle cx="227.40" cy="128.18" r="1.6666666666666667" />
<circle cx="227.40" cy="128.18" r="1.6666666666666667" />
<circle cx="227.40" cy="128.18" r="1.6666666666666667" />
<circle cx="227.40" cy="128.18" r="1.6666666666666667" />
<circle cx="227.40" cy="128.18" r="1.6666666666666667" />
<circle cx="227.40" cy="128.18" r="1.6666666666666667" />
<circle cx="227.40" cy="128.18" r="1.6666666666666667" />
<circle cx="227.40" cy="128.18" r="1.6666666666666667" />
<circle cx="227.40" cy="128.18" r="1.6666666666666667" />
<circle cx="227.40" cy="128.18" r="1.6666666666666667" />
<circle cx="227.40" cy="128.18" r="1.6666666666666667" />
<circle cx="227.40" cy="128.18" r="1.6666666666666667" />
<circle cx="227.40" cy="128.18" r="1.6666666666666667" />
<circle cx="227.40" cy="128.18" r="1.6666666666666667" />
<circle cx="227.40" cy="128.18" r="1.6666666666666667" />
<circle cx="227.40" cy="128.18" r="1.6666666666666667" />
<circle cx="227.40" cy="128.18" r="1.6666666666666667" />
<circle cx="227.40" cy="128.18" r="1.6666666666666667" />
<circle cx="227.40" cy="128.18" r="1.6666666666666667" />
<circle cx="227.40" cy="128.18" r="1.6666666666666667" />
<circle cx="227.40" cy="128.18" r="1.6666666666666667" />
<circle cx="227.40" cy="128.18" r="1.6666666666666667" />
<circle cx="227.40" cy="128.18" r="1.6666666666666667" />
<circle cx="227.40" cy="128.18" r="1.6666666666666667" />
<circle cx="227.40" cy="128.18" r="1.6666666666666667" />
<circle cx="227.40" cy="128.18" r="1.6666666666666667" />
<circle cx="227.40" cy="128.18" r="1.6666666666666667" />
<circle cx="227.40" cy="128.18" r="1.6666666666666667" />
<circle cx="227.40" cy="128.18" r="1.6666666666666667" />
<circle cx="227.40" cy="128.18" r="1.6666666666666667" />
<circle cx="227.40" cy="128.18" r="1.6666666666666667" />
<circle cx="227.40" cy="128.18" r="1.6666666666666667" />
<circle cx="227.40" cy="128.18" r="1.6666666666666667" />
<circle cx="227.40" cy="128.18" r="1.6666666666666667" />
<circle cx="227.40" cy="128.18" r="1.6666666666666667" />
<circle cx="227.40" cy="128.18" r="1.6666666666666667" />
<circle cx="227.40" cy="128.18" r="1.6666666666666667" />
<circle cx="227.40" cy="128.18" r="1.6666666666666667" />
<circle cx="227.40" cy="128.18" r="1.6666666666666667" />
<circle cx="227.40" cy="128.18" r="1.6666666666666667" />
<circle cx="227.40" cy="128.18" r="1.6666666666666667" />
<circle cx="227.40" cy="128.18" r="1.6666666666666667" />
<circle cx="227.40" cy="128.18" r="1.6666666666666667" />
<circle cx="227.40" cy="128.18" r="1.6666666666666667" />
<circle cx="227.40" cy="128.18" r="1.6666666666666667" />
<circle cx="227.40" cy="128.18" r="1.6666666666666667" />
<circle cx="227.40" cy="128.18" r="1.6666666666666667" />
<circle cx="227.40" cy="128.18" r="1.6666666666666667" />
<circle cx="227.40" cy="128.18" r="1.6666666666666667" />
<circle cx="227.40" cy="128.18" r="1.6666666666666667" />
<circle cx="227.40" cy="128.18" r="1.6666666666666667" />
<circle cx="227.40" cy="128.18" r="1.6666666666666667" />
<circle cx="227.40" cy="128.18" r="1.6666666666666667" />
<circle cx="227.40" cy="486.14" r="1.6666666666666667" />
<circle cx="227.40" cy="128.18" r="1.6666666666666667" />
<circle cx="227.40" cy="128.18" r="1.6666666666666667" />
<circle cx="227.40" cy="128.18" r="1.6666666666666667" />
<circle cx="227.40" cy="128.18" r="1.6666666666666667" />
<circle cx="227.40" cy="128.18" r="1.6666666666666667" />
<circle cx="227.40" cy="128.18" r="1.6666666666666667" />
<circle cx="227.40" cy="128.18" r="1.6666666666666667" />
<circle cx="227.40" cy="128.18" r="1.6666666666666667" />
<circle cx="227.40" cy="128.18" r="1.6666666666666667" />
<circle cx="227.40" cy="128.18" r="1.6666666666666667" />
<circle cx="227.40" cy="128.18" r="1.6666666666666667" />
<circle cx="227.40" cy="128.18" r="1.6666666666666667" />
<circle cx="227.40" cy="128.18" r="1.6666666666666667" />
<circle cx="227.40" cy="128.18" r="1.6666666666666667" />
<circle cx="227.40" cy="128.18" r="1.6666666666666667" />
<circle cx="227.40" cy="128.18" r="1.6666666666666667" />
<circle cx="227.40" cy="128.18" r="1.6666666666666667" />
<circle cx="227.40" cy="128.18" r="1.6666666666666667" />
<circle cx="227.40" cy="128.18" r="1.6666666666666667" />
<circle cx="227.40" cy="128.18" r="1.6666666666666667" />
<circle cx="227.40" cy="128.18" r="1.6666666666666667" />
<circle cx="227.40" cy="128.18" r="1.6666666666666667" />
<circle cx="227.40" cy="128.18" r="1.6666666666666667" />
<circle cx="227.40" cy="128.18" r="1.6666666666666667" />
<circle cx="227.40" cy="128.18" r="1.6666666666666667" />
<circle cx="227.40" cy="128.18" r="1.6666666666666667" />
<circle cx="227.40" cy="128.18" r="1.6666666666666667" />
<circle cx="227.40" cy="128.18" r="1.6666666666666667" />
<circle cx="227.40" cy="128.18" r="1.6666666666666667" />
<circle cx="227.40" cy="128.18" r="1.6666666666666667" />
<circle cx="227.40" cy="128.18" r="1.6666666666666667" />
<circle cx="227.40" cy="128.18" r="1.6666666666666667" />
<circle cx="227.40" cy="128.18" r="1.6666666666666667" />
<circle cx="227.40" cy="128.18" r="1.6666666666666667" />
<circle cx="227.40" cy="128.18" r="1.6666666666666667" />
<circle cx="227.40" cy="128.18" r="1.6666666666666667" />
<circle cx="227.40" cy="128.18" r="1.6666666666666667" />
<circle cx="227.40" cy="128.18" r="1.6666666666666667" />
<circle cx="227.40" cy="128.18" r="1.6666666666666667" />
<circle cx="227.40" cy="128.18" r="1.6666666666666667" />
<circle cx="227.40" cy="128.18" r="1.6666666666666667" />
<circle cx="227.40" cy="128.18" r="1.6666666666666667" />
<circle cx="227.40" cy="128.18" r="1.6666666666666667" />
<circle cx="227.40" cy="128.18" r="1.6666666666666667" />
<circle cx="227.40" cy="128.18" r="1.6666666666666667" />
<circle cx="227.40" cy="128.18" r="1.6666666666666667" />
<circle cx="227.40" cy="128.18" r="1.6666666666666667" />
<circle cx="227.40" cy="128.18" r="1.6666666666666667" />
<circle cx="227.40" cy="128.18" r="1.6666666666666667" />
<circle cx="227.40" cy="128.18" r="1.6666666666666667" />
<circle cx="227.40" cy="128.18" r="1.6666666666666667" />
<circle cx="227.40" cy="128.18" r="1.6666666666666667" />
<circle cx="227.40" cy="128.18" r="1.6666666666666667" />
<circle cx="227.40" cy="128.18" r="1.6666666666666667" />
<circle cx="227.40" cy="128.18" r="1.6666666666666667" />
<circle cx="227.40" cy="128.18" r="1.6666666666666667" />
<circle cx="227.40" cy="128.18" r="1.6666666666666667" />
<circle cx="227.40" cy="128.18" r="1.6666666666666667" />
<circle cx="227.40" cy="128.18" r="1.6666666666666667" />
<circle cx="227.40" cy="128.18" r="1.6666666666666667" />
<circle cx="227.40" cy="128.18" r="1.6666666666666667" />
<circle cx="227.40" cy="128.18" r="1.6666666666666667" />
<circle cx="227.40" cy="128.18" r="1.6666666666666667" />
<circle cx="227.40" cy="128.18" r="1.6666666666666667" />
<circle cx="227.40" cy="128.18" r="1.6666666666666667" />
<circle cx="227.40" cy="128.18" r="1.6666666666666667" />
<circle cx="227.40" cy="128.18" r="1.6666666666666667" />
<circle cx="227.40" cy="128.18" r="1.6666666666666667" />
<circle cx="227.40" cy="128.18" r="1.6666666666666667" />
<circle cx="227.40" cy="128.18" r="1.6666666666666667" />
<circle cx="227.40" cy="128.18" r="1.6666666666666667" />
<circle cx="227.40" cy="128.18" r="1.6666666666666667" />
<circle cx="227.40" cy="128.18" r="1.6666666666666667" />
<circle cx="227.40" cy="128.18" r="1.6666666666666667" />
<circle cx="227.40" cy="128.18" r="1.6666666666666667" />
<circle cx="227.40" cy="128.18" r="1.6666666666666667" />
<circle cx="227.40" cy="128.18" r="1.6666666666666667" />
<circle cx="227.40" cy="128.18" r="1.6666666666666667" />
<circle cx="227.40" cy="128.18" r="1.6666666666666667" />
<circle cx="227.40" cy="128.18" r="1.6666666666666667" />
<circle cx="227.40" cy="128.18" r="1.6666666666666667" />
<circle cx="227.40" cy="128.18" r="1.6666666666666667" />
<circle cx="227.40" cy="128.18" r="1.6666666666666667" />
<circle cx="227.40" cy="128.18" r="1.6666666666666667" />
<circle cx="227.40" cy="128.18" r="1.6666666666666667" />
<circle cx="227.40" cy="128.18" r="1.6666666666666667" />
<circle cx="227.40" cy="128.18" r="1.6666666666666667" />
<circle cx="227.40" cy="128.18" r="1.6666666666666667" />
<circle cx="227.40" cy="128.18" r="1.6666666666666667" />
<circle cx="227.40" cy="128.18" r="1.6666666666666667" />
<circle cx="227.40" cy="128.18" r="1.6666666666666667" />
<circle cx="227.40" cy="128.18" r="1.6666666666666667" />
<circle cx="227.40" cy="128.18" r="1.6666666666666667" />
<circle cx="227.40" cy="128.18" r="1.6666666666666667" />
<circle cx="227.40" cy="128.18" r="1.6666666666666667" />
<circle cx="227.40" cy="128.18" r="1.6666666666666667" />
<circle cx="227.40" cy="128.18" r="1.6666666666666667" />
<circle cx="227.40" cy="128.18" r="1.6666666666666667" />
<circle cx="227.40" cy="128.18" r="1.6666666666666667" />
<circle cx="227.40" cy="128.18" r="1.6666666666666667" />
<circle cx="227.40" cy="128.18" r="1.6666666666666667" />
<circle cx="227.40" cy="128.18" r="1.6666666666666667" />
<circle cx="227.40" cy="128.18" r="1.6666666666666667" />
<circle cx="227.40" cy="128.18" r="1.6666666666666667" />
<circle cx="227.40" cy="128.18" r="1.6666666666666667" />
<circle cx="227.40" cy="128.18" r="1.6666666666666667" />
<circle cx="227.40" cy="128.18" r="1.6666666666666667" />
<circle cx="227.40" cy="128.18" r="1.6666666666666667" />
<circle cx="227.40" cy="128.18" r="1.6666666666666667" />
<circle cx="227.40" cy="128.18" r="1.6666666666666667" />
<circle cx="227.40" cy="128.18" r="1.6666666666666667" />
<circle cx="227.40" cy="128.18" r="1.6666666666666667" />
<circle cx="227.40" cy="128.18" r="1.6666666666666667" />
<circle cx="227.40" cy="128.18" r="1.6666666666666667" />
<circle cx="227.40" cy="128.18" r="1.6666666666666667" />
<circle cx="227.40" cy="128.18" r="1.6666666666666667" />
<circle cx="227.40" cy="128.18" r="1.6666666666666667" />
<circle cx="227.40" cy="128.18" r="1.6666666666666667" />
<circle cx="227.40" cy="128.18" r="1.6666666666666667" />
<circle cx="227.40" cy="128.18" r="1.6666666666666667" />
<circle cx="227.40" cy="128.18" r="1.6666666666666667" />
<circle cx="227.40" cy="128.18" r="1.6666666666666667" />
<circle cx="227.40" cy="128.18" r="1.6666666666666667" />
<circle cx="227.40" cy="128.18" r="1.6666666666666667" />
<circle cx="227.40" cy="128.18" r="1.6666666666666667" />
<circle cx="227.40" cy="128.18" r="1.6666666666666667" />
<circle cx="227.40" cy="128.18" r="1.6666666666666667" />
<circle cx="227.40" cy="128.18" r="1.6666666666666667" />
<circle cx="227.40" cy="128.18" r="1.6666666666666667" />
<circle cx="227.40" cy="128.18" r="1.6666666666666667" />
<circle cx="227.40" cy="128.18" r="1.6666666666666667" />
<circle cx="227.40" cy="128.18" r="1.6666666666666667" />
<circle cx="227.40" cy="128.18" r="1.6666666666666667" />
<circle cx="227.40" cy="128.18" r="1.6666666666666667" />
<circle cx="227.40" cy="128.18" r="1.6666666666666667" />
<circle cx="227.40" cy="128.18" r="1.6666666666666667" />
<circle cx="227.40" cy="128.18" r="1.6666666666666667" />
<circle cx="227.40" cy="486.14" r="1.6666666666666667" />
<circle cx="227.40" cy="128.18" r="1.6666666666666667" />
<circle cx="227.40" cy="128.18" r="1.6666666666666667" />
<circle cx="227.40" cy="128.18" r="1.6666666666666667" />
<circle cx="227.40" cy="128.18" r="1.6666666666666667" />
<circle cx="227.40" cy="128.18" r="1.6666666666666667" />
<circle cx="227.40" cy="128.18" r="1.6666666666666667" />
<circle cx="227.40" cy="128.18" r="1.6666666666666667" />
<circle cx="227.40" cy="128.18" r="1.6666666666666667" />
<circle cx="227.40" cy="128.18" r="1.6666666666666667" />
<circle cx="227.40" cy="128.18" r="1.6666666666666667" />
<circle cx="227.40" cy="486.14" r="1.6666666666666667" />
<circle cx="227.40" cy="128.18" r="1.6666666666666667" />
<circle cx="227.40" cy="128.18" r="1.6666666666666667" />
<circle cx="227.40" cy="128.18" r="1.6666666666666667" />
<circle cx="227.40" cy="128.18" r="1.6666666666666667" />
<circle cx="227.40" cy="128.18" r="1.6666666666666667" />
<circle cx="227.40" cy="128.18" r="1.6666666666666667" />
<circle cx="227.40" cy="128.18" r="1.6666666666666667" />
<circle cx="227.40" cy="128.18" r="1.6666666666666667" />
<circle cx="227.40" cy="128.18" r="1.6666666666666667" />
<circle cx="227.40" cy="128.18" r="1.6666666666666667" />
<circle cx="227.40" cy="128.18" r="1.6666666666666667" />
<circle cx="227.40" cy="128.18" r="1.6666666666666667" />
<circle cx="227.40" cy="128.18" r="1.6666666666666667" />
<circle cx="227.40" cy="128.18" r="1.6666666666666667" />
<circle cx="227.40" cy="128.18" r="1.6666666666666667" />
<circle cx="227.40" cy="128.18" r="1.6666666666666667" />
<circle cx="227.40" cy="128.18" r="1.6666666666666667" />
<circle cx="227.40" cy="128.18" r="1.6666666666666667" />
<circle cx="227.40" cy="128.18" r="1.6666666666666667" />
<circle cx="227.40" cy="128.18" r="1.6666666666666667" />
<circle cx="227.40" cy="128.18" r="1.6666666666666667" />
<circle cx="227.40" cy="128.18" r="1.6666666666666667" />
<circle cx="227.40" cy="128.18" r="1.6666666666666667" />
<circle cx="227.40" cy="128.18" r="1.6666666666666667" />
<circle cx="227.40" cy="128.18" r="1.6666666666666667" />
<circle cx="227.40" cy="128.18" r="1.6666666666666667" />
<circle cx="227.40" cy="128.18" r="1.6666666666666667" />
<circle cx="227.40" cy="128.18" r="1.6666666666666667" />
<circle cx="227.40" cy="128.18" r="1.6666666666666667" />
<circle cx="227.40" cy="128.18" r="1.6666666666666667" />
<circle cx="227.40" cy="128.18" r="1.6666666666666667" />
<circle cx="227.40" cy="128.18" r="1.6666666666666667" />
<circle cx="227.40" cy="128.18" r="1.6666666666666667" />
<circle cx="227.40" cy="128.18" r="1.6666666666666667" />
<circle cx="227.40" cy="128.18" r="1.6666666666666667" />
<circle cx="227.40" cy="128.18" r="1.6666666666666667" />
<circle cx="227.40" cy="128.18" r="1.6666666666666667" />
<circle cx="227.40" cy="128.18" r="1.6666666666666667" />
<circle cx="227.40" cy="128.18" r="1.6666666666666667" />
<circle cx="227.40" cy="128.18" r="1.6666666666666667" />
<circle cx="227.40" cy="128.18" r="1.6666666666666667" />
<circle cx="227.40" cy="128.18" r="1.6666666666666667" />
<circle cx="227.40" cy="128.18" r="1.6666666666666667" />
<circle cx="227.40" cy="128.18" r="1.6666666666666667" />
<circle cx="227.40" cy="128.18" r="1.6666666666666667" />
<circle cx="227.40" cy="128.18" r="1.6666666666666667" />
<circle cx="227.40" cy="128.18" r="1.6666666666666667" />
<circle cx="227.40" cy="128.18" r="1.6666666666666667" />
<circle cx="227.40" cy="128.18" r="1.6666666666666667" />
<circle cx="227.40" cy="128.18" r="1.6666666666666667" />
<circle cx="227.40" cy="128.18" r="1.6666666666666667" />
<circle cx="227.40" cy="128.18" r="1.6666666666666667" />
<circle cx="227.40" cy="128.18" r="1.6666666666666667" />
<circle cx="227.40" cy="128.18" r="1.6666666666666667" />
<circle cx="227.40" cy="128.18" r="1.6666666666666667" />
<circle cx="227.40" cy="128.18" r="1.6666666666666667" />
<circle cx="227.40" cy="128.18" r="1.6666666666666667" />
<circle cx="227.40" cy="128.18" r="1.6666666666666667" />
<circle cx="227.40" cy="128.18" r="1.6666666666666667" />
<circle cx="227.40" cy="128.18" r="1.6666666666666667" />
<circle cx="227.40" cy="128.18" r="1.6666666666666667" />
<circle cx="227.40" cy="128.18" r="1.6666666666666667" />
<circle cx="227.40" cy="128.18" r="1.6666666666666667" />
<circle cx="227.40" cy="128.18" r="1.6666666666666667" />
<circle cx="227.40" cy="128.18" r="1.6666666666666667" />
<circle cx="227.40" cy="128.18" r="1.6666666666666667" />
<circle cx="227.40" cy="128.18" r="1.6666666666666667" />
<circle cx="227.40" cy="128.18" r="1.6666666666666667" />
<circle cx="227.40" cy="128.18" r="1.6666666666666667" />
<circle cx="227.40" cy="128.18" r="1.6666666666666667" />
<circle cx="227.40" cy="128.18" r="1.6666666666666667" />
<circle cx="227.40" cy="128.18" r="1.6666666666666667" />
<circle cx="227.40" cy="128.18" r="1.6666666666666667" />
<circle cx="227.40" cy="128.18" r="1.6666666666666667" />
<circle cx="227.40" cy="128.18" r="1.6666666666666667" />
<circle cx="227.40" cy="128.18" r="1.6666666666666667" />
<circle cx="227.40" cy="128.18" r="1.6666666666666667" />
<circle cx="227.40" cy="128.18" r="1.6666666666666667" />
<circle cx="227.40" cy="128.18" r="1.6666666666666667" />
<circle cx="227.40" cy="128.18" r="1.6666666666666667" />
<circle cx="227.40" cy="128.18" r="1.6666666666666667" />
<circle cx="227.40" cy="128.18" r="1.6666666666666667" />
<circle cx="227.40" cy="128.18" r="1.6666666666666667" />
<circle cx="227.40" cy="128.18" r="1.6666666666666667" />
<circle cx="227.40" cy="128.18" r="1.6666666666666667" />
<circle cx="227.40" cy="128.18" r="1.6666666666666667" />
<circle cx="227.40" cy="128.18" r="1.6666666666666667" />
<circle cx="227.40" cy="128.18" r="1.6666666666666667" />
<circle cx="227.40" cy="128.18" r="1.6666666666666667" />
<circle cx="227.40" cy="128.18" r="1.6666666666666667" />
<circle cx="227.40" cy="128.18" r="1.6666666666666667" />
<circle cx="227.40" cy="128.18" r="1.6666666666666667" />
<circle cx="227.40" cy="128.18" r="1.6666666666666667" />
<circle cx="227.40" cy="128.18" r="1.6666666666666667" />
<circle cx="227.41" cy="128.18" r="1.6666666666666667" />
<circle cx="227.41" cy="486.14" r="1.6666666666666667" />
<circle cx="227.41" cy="128.18" r="1.6666666666666667" />
<circle cx="227.41" cy="128.18" r="1.6666666666666667" />
<circle cx="227.41" cy="128.18" r="1.6666666666666667" />
<circle cx="227.41" cy="128.18" r="1.6666666666666667" />
<circle cx="227.41" cy="128.18" r="1.6666666666666667" />
<circle cx="227.41" cy="128.18" r="1.6666666666666667" />
<circle cx="227.41" cy="128.18" r="1.6666666666666667" />
<circle cx="227.41" cy="128.18" r="1.6666666666666667" />
<circle cx="227.41" cy="128.18" r="1.6666666666666667" />
<circle cx="227.41" cy="128.18" r="1.6666666666666667" />
<circle cx="227.41" cy="128.18" r="1.6666666666666667" />
<circle cx="227.41" cy="128.18" r="1.6666666666666667" />
<circle cx="227.41" cy="128.18" r="1.6666666666666667" />
<circle cx="227.41" cy="128.18" r="1.6666666666666667" />
<circle cx="227.41" cy="128.18" r="1.6666666666666667" />
<circle cx="227.41" cy="128.18" r="1.6666666666666667" />
<circle cx="227.41" cy="128.18" r="1.6666666666666667" />
<circle cx="227.41" cy="128.18" r="1.6666666666666667" />
<circle cx="227.41" cy="128.18" r="1.6666666666666667" />
<circle cx="227.41" cy="128.18" r="1.6666666666666667" />
<circle cx="227.41" cy="128.18" r="1.6666666666666667" />
<circle cx="227.41" cy="128.18" r="1.6666666666666667" />
<circle cx="227.41" cy="128.18" r="1.6666666666666667" />
<circle cx="227.41" cy="128.18" r="1.6666666666666667" />
<circle cx="227.41" cy="128.18" r="1.6666666666666667" />
<circle cx="227.41" cy="128.18" r="1.6666666666666667" />
<circle cx="227.41" cy="128.18" r="1.6666666666666667" />
<circle cx="227.41" cy="128.18" r="1.6666666666666667" />
<circle cx="227.41" cy="128.18" r="1.6666666666666667" />
<circle cx="227.41" cy="128.18" r="1.6666666666666667" />
<circle cx="227.41" cy="128.18" r="1.6666666666666667" />
<circle cx="227.41" cy="128.18" r="1.6666666666666667" />
<circle cx="227.41" cy="128.18" r="1.6666666666666667" />
<circle cx="227.41" cy="128.18" r="1.6666666666666667" />
<circle cx="227.41" cy="128.18" r="1.6666666666666667" />
<circle cx="227.41" cy="128.18" r="1.6666666666666667" />
<circle cx="227.41" cy="128.18" r="1.6666666666666667" />
<circle cx="227.41" cy="128.18" r="1.6666666666666667" />
<circle cx="227.41" cy="128.18" r="1.6666666666666667" />
<circle cx="227.41" cy="319.09" r="1.6666666666666667" />
<circle cx="227.41" cy="128.18" r="1.6666666666666667" />
<circle cx="227.41" cy="128.18" r="1.6666666666666667" />
<circle cx="227.41" cy="128.18" r="1.6666666666666667" />
<circle cx="227.41" cy="128.18" r="1.6666666666666667" />
<circle cx="227.41" cy="486.14" r="1.6666666666666667" />
<circle cx="227.41" cy="128.18" r="1.6666666666666667" />
<circle cx="227.41" cy="128.18" r="1.6666666666666667" />
<circle cx="227.41" cy="128.18" r="1.6666666666666667" />
<circle cx="227.41" cy="506.59" r="1.6666666666666667" />
<circle cx="227.41" cy="128.18" r="1.6666666666666667" />
<circle cx="227.41" cy="128.18" r="1.6666666666666667" />
<circle cx="227.41" cy="128.18" r="1.6666666666666667" />
<circle cx="227.41" cy="128.18" r="1.6666666666666667" />
<circle cx="227.41" cy="128.18" r="1.6666666666666667" />
<circle cx="227.41" cy="128.18" r="1.6666666666666667" />
<circle cx="227.41" cy="128.18" r="1.6666666666666667" />
<circle cx="227.41" cy="128.18" r="1.6666666666666667" />
<circle cx="227.41" cy="128.18" r="1.6666666666666667" />
<circle cx="227.41" cy="128.18" r="1.6666666666666667" />
<circle cx="227.41" cy="128.18" r="1.6666666666666667" />
<circle cx="227.41" cy="128.18" r="1.6666666666666667" />
<circle cx="227.41" cy="128.18" r="1.6666666666666667" />
<circle cx="227.41" cy="128.18" r="1.6666666666666667" />
<circle cx="227.41" cy="128.18" r="1.6666666666666667" />
<circle cx="227.41" cy="128.18" r="1.6666666666666667" />
<circle cx="227.41" cy="128.18" r="1.6666666666666667" />
<circle cx="227.41" cy="128.18" r="1.6666666666666667" />
<circle cx="227.41" cy="128.18" r="1.6666666666666667" />
<circle cx="227.41" cy="128.18" r="1.6666666666666667" />
<circle cx="227.41" cy="128.18" r="1.6666666666666667" />
<circle cx="227.41" cy="128.18" r="1.6666666666666667" />
<circle cx="227.41" cy="128.18" r="1.6666666666666667" />
<circle cx="227.41" cy="128.18" r="1.6666666666666667" />
<circle cx="227.41" cy="128.18" r="1.6666666666666667" />
<circle cx="227.41" cy="128.18" r="1.6666666666666667" />
<circle cx="227.41" cy="128.18" r="1.6666666666666667" />
<circle cx="227.41" cy="128.18" r="1.6666666666666667" />
<circle cx="227.41" cy="128.18" r="1.6666666666666667" />
<circle cx="227.41" cy="128.18" r="1.6666666666666667" />
<circle cx="227.41" cy="128.18" r="1.6666666666666667" />
<circle cx="227.41" cy="128.18" r="1.6666666666666667" />
<circle cx="227.41" cy="128.18" r="1.6666666666666667" />
<circle cx="227.41" cy="128.18" r="1.6666666666666667" />
<circle cx="227.41" cy="128.18" r="1.6666666666666667" />
<circle cx="227.41" cy="128.18" r="1.6666666666666667" />
<circle cx="227.41" cy="128.18" r="1.6666666666666667" />
<circle cx="227.41" cy="128.18" r="1.6666666666666667" />
<circle cx="227.41" cy="128.18" r="1.6666666666666667" />
<circle cx="227.41" cy="128.18" r="1.6666666666666667" />
<circle cx="227.41" cy="128.18" r="1.6666666666666667" />
<circle cx="227.41" cy="128.18" r="1.6666666666666667" />
<circle cx="227.41" cy="128.18" r="1.6666666666666667" />
<circle cx="227.41" cy="128.18" r="1.6666666666666667" />
<circle cx="227.41" cy="128.18" r="1.6666666666666667" />
<circle cx="227.41" cy="128.18" r="1.6666666666666667" />
<circle cx="227.41" cy="128.18" r="1.6666666666666667" />
<circle cx="227.41" cy="128.18" r="1.6666666666666667" />
<circle cx="227.41" cy="128.18" r="1.6666666666666667" />
<circle cx="227.41" cy="128.18" r="1.6666666666666667" />
<circle cx="227.41" cy="128.18" r="1.6666666666666667" />
<circle cx="227.41" cy="128.18" r="1.6666666666666667" />
<circle cx="227.41" cy="128.18" r="1.6666666666666667" />
<circle cx="227.41" cy="128.18" r="1.6666666666666667" />
<circle cx="227.41" cy="128.18" r="1.6666666666666667" />
<circle cx="227.41" cy="128.18" r="1.6666666666666667" />
<circle cx="227.41" cy="128.18" r="1.6666666666666667" />
<circle cx="227.41" cy="128.18" r="1.6666666666666667" />
<circle cx="227.41" cy="128.18" r="1.6666666666666667" />
<circle cx="227.41" cy="128.18" r="1.6666666666666667" />
<circle cx="227.41" cy="128.18" r="1.6666666666666667" />
<circle cx="227.41" cy="128.18" r="1.6666666666666667" />
<circle cx="227.41" cy="128.18" r="1.6666666666666667" />
<circle cx="227.41" cy="128.18" r="1.6666666666666667" />
<circle cx="227.41" cy="128.18" r="1.6666666666666667" />
<circle cx="227.41" cy="128.18" r="1.6666666666666667" />
<circle cx="227.41" cy="128.18" r="1.6666666666666667" />
<circle cx="227.41" cy="128.18" r="1.6666666666666667" />
<circle cx="227.41" cy="128.18" r="1.6666666666666667" />
<circle cx="227.41" cy="128.18" r="1.6666666666666667" />
<circle cx="227.41" cy="128.18" r="1.6666666666666667" />
<circle cx="227.41" cy="128.18" r="1.6666666666666667" />
<circle cx="227.41" cy="128.18" r="1.6666666666666667" />
<circle cx="227.41" cy="128.18" r="1.6666666666666667" />
<circle cx="227.41" cy="128.18" r="1.6666666666666667" />
<circle cx="227.41" cy="128.18" r="1.6666666666666667" />
<circle cx="227.41" cy="128.18" r="1.6666666666666667" />
<circle cx="227.41" cy="128.18" r="1.6666666666666667" />
<circle cx="227.41" cy="128.18" r="1.6666666666666667" />
<circle cx="227.41" cy="128.18" r="1.6666666666666667" />
<circle cx="227.41" cy="128.18" r="1.6666666666666667" />
<circle cx="227.41" cy="128.18" r="1.6666666666666667" />
<circle cx="227.41" cy="128.18" r="1.6666666666666667" />
<circle cx="227.41" cy="128.18" r="1.6666666666666667" />
<circle cx="227.41" cy="128.18" r="1.6666666666666667" />
<circle cx="227.41" cy="128.18" r="1.6666666666666667" />
<circle cx="227.41" cy="128.18" r="1.6666666666666667" />
<circle cx="227.41" cy="128.18" r="1.6666666666666667" />
<circle cx="227.41" cy="128.18" r="1.6666666666666667" />
<circle cx="227.41" cy="128.18" r="1.6666666666666667" />
<circle cx="227.41" cy="128.18" r="1.6666666666666667" />
<circle cx="227.41" cy="128.18" r="1.6666666666666667" />
<circle cx="227.41" cy="128.18" r="1.6666666666666667" />
<circle cx="227.41" cy="128.18" r="1.6666666666666667" />
<circle cx="227.41" cy="128.18" r="1.6666666666666667" />
<circle cx="227.41" cy="128.18" r="1.6666666666666667" />
<circle cx="227.41" cy="128.18" r="1.6666666666666667" />
<circle cx="227.41" cy="128.18" r="1.6666666666666667" />
<circle cx="227.41" cy="128.18" r="1.6666666666666667" />
<circle cx="227.41" cy="128.18" r="1.6666666666666667" />
<circle cx="227.41" cy="128.18" r="1.6666666666666667" />
<circle cx="227.41" cy="128.18" r="1.6666666666666667" />
<circle cx="227.41" cy="128.18" r="1.6666666666666667" />
<circle cx="227.41" cy="128.18" r="1.6666666666666667" />
<circle cx="227.41" cy="128.18" r="1.6666666666666667" />
<circle cx="227.41" cy="128.18" r="1.6666666666666667" />
<circle cx="227.41" cy="128.18" r="1.6666666666666667" />
<circle cx="227.41" cy="128.18" r="1.6666666666666667" />
<circle cx="227.41" cy="128.18" r="1.6666666666666667" />
<circle cx="227.41" cy="128.18" r="1.6666666666666667" />
<circle cx="227.41" cy="128.18" r="1.6666666666666667" />
<circle cx="227.41" cy="128.18" r="1.6666666666666667" />
<circle cx="227.41" cy="128.18" r="1.6666666666666667" />
<circle cx="227.41" cy="128.18" r="1.6666666666666667" />
<circle cx="227.41" cy="128.18" r="1.6666666666666667" />
<circle cx="227.41" cy="128.18" r="1.6666666666666667" />
<circle cx="227.41" cy="128.18" r="1.6666666666666667" />
<circle cx="227.41" cy="128.18" r="1.6666666666666667" />
<circle cx="227.41" cy="128.18" r="1.6666666666666667" />
<circle cx="227.41" cy="128.18" r="1.6666666666666667" />
<circle cx="227.41" cy="128.18" r="1.6666666666666667" />
<circle cx="227.41" cy="128.18" r="1.6666666666666667" />
<circle cx="227.41" cy="128.18" r="1.6666666666666667" />
<circle cx="227.41" cy="128.18" r="1.6666666666666667" />
<circle cx="227.41" cy="128.18" r="1.6666666666666667" />
<circle cx="227.41" cy="128.18" r="1.6666666666666667" />
<circle cx="227.41" cy="128.18" r="1.6666666666666667" />
<circle cx="227.41" cy="128.18" r="1.6666666666666667" />
<circle cx="227.41" cy="128.18" r="1.6666666666666667" />
<circle cx="227.41" cy="128.18" r="1.6666666666666667" />
<circle cx="227.41" cy="128.18" r="1.6666666666666667" />
<circle cx="227.41" cy="128.18" r="1.6666666666666667" />
<circle cx="227.41" cy="128.18" r="1.6666666666666667" />
<circle cx="227.41" cy="128.18" r="1.6666666666666667" />
<circle cx="227.41" cy="128.18" r="1.6666666666666667" />
<circle cx="227.41" cy="128.18" r="1.6666666666666667" />
<circle cx="227.41" cy="128.18" r="1.6666666666666667" />
<circle cx="227.41" cy="128.18" r="1.6666666666666667" />
<circle cx="227.41" cy="128.18" r="1.6666666666666667" />
<circle cx="227.41" cy="128.18" r="1.6666666666666667" />
<circle cx="227.41" cy="128.18" r="1.6666666666666667" />
<circle cx="227.41" cy="128.18" r="1.6666666666666667" />
<circle cx="227.41" cy="128.18" r="1.6666666666666667" />
<circle cx="227.41" cy="128.18" r="1.6666666666666667" />
<circle cx="227.41" cy="128.18" r="1.6666666666666667" />
<circle cx="227.41" cy="128.18" r="1.6666666666666667" />
<circle cx="227.41" cy="128.18" r="1.6666666666666667" />
<circle cx="227.41" cy="128.18" r="1.6666666666666667" />
<circle cx="227.41" cy="128.18" r="1.6666666666666667" />
<circle cx="227.41" cy="128.18" r="1.6666666666666667" />
<circle cx="227.41" cy="128.18" r="1.6666666666666667" />
<circle cx="227.41" cy="128.18" r="1.6666666666666667" />
<circle cx="227.41" cy="128.18" r="1.6666666666666667" />
<circle cx="227.41" cy="128.18" r="1.6666666666666667" />
<circle cx="227.41" cy="128.18" r="1.6666666666666667" />
<circle cx="227.41" cy="128.18" r="1.6666666666666667" />
<circle cx="227.41" cy="128.18" r="1.6666666666666667" />
<circle cx="227.41" cy="128.18" r="1.6666666666666667" />
<circle cx="227.41" cy="128.18" r="1.6666666666666667" />
<circle cx="227.41" cy="128.18" r="1.6666666666666667" />
<circle cx="227.41" cy="128.18" r="1.6666666666666667" />
<circle cx="227.41" cy="128.18" r="1.6666666666666667" />
<circle cx="227.41" cy="128.18" r="1.6666666666666667" />
<circle cx="227.41" cy="128.18" r="1.6666666666666667" />
<circle cx="227.41" cy="128.18" r="1.6666666666666667" />
<circle cx="227.41" cy="128.18" r="1.6666666666666667" />
<circle cx="227.41" cy="128.18" r="1.6666666666666667" />
<circle cx="227.41" cy="128.18" r="1.6666666666666667" />
<circle cx="227.41" cy="128.18" r="1.6666666666666667" />
<circle cx="227.41" cy="128.18" r="1.6666666666666667" />
<circle cx="227.41" cy="128.18" r="1.6666666666666667" />
<circle cx="227.41" cy="128.18" r="1.6666666666666667" />
<circle cx="227.41" cy="128.18" r="1.6666666666666667" />
<circle cx="227.41" cy="128.18" r="1.6666666666666667" />
<circle cx="227.41" cy="128.18" r="1.6666666666666667" />
<circle cx="227.41" cy="128.18" r="1.6666666666666667" />
<circle cx="227.41" cy="128.18" r="1.6666666666666667" />
<circle cx="227.41" cy="128.18" r="1.6666666666666667" />
<circle cx="227.41" cy="128.18" r="1.6666666666666667" />
<circle cx="227.41" cy="128.18" r="1.6666666666666667" />
<circle cx="227.41" cy="128.18" r="1.6666666666666667" />
<circle cx="227.41" cy="128.18" r="1.6666666666666667" />
<circle cx="227.41" cy="128.18" r="1.6666666666666667" />
<circle cx="227.41" cy="128.18" r="1.6666666666666667" />
<circle cx="227.41" cy="128.18" r="1.6666666666666667" />
<circle cx="227.41" cy="128.18" r="1.6666666666666667" />
<circle cx="227.41" cy="486.14" r="1.6666666666666667" />
<circle cx="227.41" cy="128.18" r="1.6666666666666667" />
<circle cx="227.41" cy="128.18" r="1.6666666666666667" />
<circle cx="227.41" cy="128.18" r="1.6666666666666667" />
<circle cx="227.41" cy="128.18" r="1.6666666666666667" />
<circle cx="227.41" cy="128.18" r="1.6666666666666667" />
<circle cx="227.41" cy="128.18" r="1.6666666666666667" />
<circle cx="227.41" cy="128.18" r="1.6666666666666667" />
<circle cx="227.41" cy="128.18" r="1.6666666666666667" />
<circle cx="227.41" cy="128.18" r="1.6666666666666667" />
<circle cx="227.41" cy="128.18" r="1.6666666666666667" />
<circle cx="227.41" cy="128.18" r="1.6666666666666667" />
<circle cx="227.41" cy="128.18" r="1.6666666666666667" />
<circle cx="227.41" cy="128.18" r="1.6666666666666667" />
<circle cx="227.41" cy="128.18" r="1.6666666666666667" />
<circle cx="227.44" cy="509.73" r="1.6666666666666667" />
<circle cx="227.44" cy="497.27" r="1.6666666666666667" />
<circle cx="227.45" cy="504.21" r="1.6666666666666667" />
<circle cx="227.45" cy="507.85" r="1.6666666666666667" />
<circle cx="227.47" cy="509.65" r="1.6666666666666667" />
<circle cx="227.47" cy="482.73" r="1.6666666666666667" />
<circle cx="227.47" cy="382.73" r="1.6666666666666667" />
<circle cx="227.47" cy="128.18" r="1.6666666666666667" />
<circle cx="227.47" cy="462.27" r="1.6666666666666667" />
<circle cx="227.48" cy="508.92" r="1.6666666666666667" />
<circle cx="227.83" cy="509.98" r="1.6666666666666667" />
<circle cx="228.08" cy="509.97" r="1.6666666666666667" />
<circle cx="228.33" cy="509.97" r="1.6666666666666667" />
<circle cx="228.58" cy="509.97" r="1.6666666666666667" />
<circle cx="228.83" cy="509.97" r="1.6666666666666667" />
<circle cx="229.07" cy="509.97" r="1.6666666666666667" />
<circle cx="229.30" cy="509.96" r="1.6666666666666667" />
<circle cx="229.55" cy="509.97" r="1.6666666666666667" />
<circle cx="229.80" cy="509.97" r="1.6666666666666667" />
<circle cx="230.04" cy="509.97" r="1.6666666666666667" />
<circle cx="230.30" cy="509.97" r="1.6666666666666667" />
<circle cx="230.54" cy="509.97" r="1.6666666666666667" />
<circle cx="230.79" cy="509.97" r="1.6666666666666667" />
<circle cx="231.05" cy="509.97" r="1.6666666666666667" />
<circle cx="231.31" cy="509.97" r="1.6666666666666667" />
<circle cx="231.56" cy="509.97" r="1.6666666666666667" />
<circle cx="231.80" cy="509.97" r="1.6666666666666667" />
<circle cx="232.05" cy="509.97" r="1.6666666666666667" />
<circle cx="232.31" cy="509.97" r="1.6666666666666667" />
<circle cx="232.56" cy="509.97" r="1.6666666666666667" />
<circle cx="232.82" cy="509.97" r="1.6666666666666667" />
<circle cx="233.07" cy="509.97" r="1.6666666666666667" />
<circle cx="233.32" cy="509.97" r="1.6666666666666667" />
<circle cx="233.59" cy="509.97" r="1.6666666666666667" />
<circle cx="233.85" cy="509.97" r="1.6666666666666667" />
<circle cx="234.11" cy="509.97" r="1.6666666666666667" />
<circle cx="234.35" cy="509.97" r="1.6666666666666667" />
<circle cx="234.61" cy="509.97" r="1.6666666666666667" />
<circle cx="234.88" cy="509.97" r="1.6666666666666667" />
<circle cx="235.15" cy="509.97" r="1.6666666666666667" />
<circle cx="235.42" cy="509.97" r="1.6666666666666667" />
<circle cx="235.68" cy="509.97" r="1.6666666666666667" />
<circle cx="235.94" cy="509.97" r="1.6666666666666667" />
<circle cx="236.20" cy="509.97" r="1.6666666666666667" />
<circle cx="236.46" cy="509.97" r="1.6666666666666667" />
<circle cx="236.73" cy="509.97" r="1.6666666666666667" />
<circle cx="236.99" cy="509.97" r="1.6666666666666667" />
<circle cx="237.26" cy="509.97" r="1.6666666666666667" />
<circle cx="237.52" cy="509.97" r="1.6666666666666667" />
<circle cx="237.79" cy="509.97" r="1.6666666666666667" />
<circle cx="238.06" cy="509.97" r="1.6666666666666667" />
<circle cx="238.33" cy="509.97" r="1.6666666666666667" />
<circle cx="238.61" cy="509.97" r="1.6666666666666667" />
<circle cx="238.90" cy="509.97" r="1.6666666666666667" />
<circle cx="239.17" cy="509.97" r="1.6666666666666667" />
<circle cx="239.44" cy="509.97" r="1.6666666666666667" />
<circle cx="239.71" cy="509.97" r="1.6666666666666667" />
<circle cx="240.00" cy="509.97" r="1.6666666666666667" />
<circle cx="240.29" cy="509.97" r="1.6666666666666667" />
<circle cx="240.58" cy="509.97" r="1.6666666666666667" />
<circle cx="240.88" cy="509.97" r="1.6666666666666667" />
<circle cx="241.16" cy="509.97" r="1.6666666666666667" />
<circle cx="241.46" cy="509.97" r="1.6666666666666667" />
<circle cx="241.77" cy="509.97" r="1.6666666666666667" />
<circle cx="242.06" cy="509.97" r="1.6666666666666667" />
<circle cx="242.35" cy="509.97" r="1.6666666666666667" />
<circle cx="242.63" cy="509.97" r="1.6666666666666667" />
<circle cx="242.93" cy="509.97" r="1.6666666666666667" />
<circle cx="243.23" cy="509.97" r="1.6666666666666667" />
<circle cx="243.53" cy="509.97" r="1.6666666666666667" />
<circle cx="243.81" cy="509.97" r="1.6666666666666667" />
<circle cx="244.11" cy="509.97" r="1.6666666666666667" />
<circle cx="244.41" cy="509.97" r="1.6666666666666667" />
<circle cx="244.70" cy="509.97" r="1.6666666666666667" />
<circle cx="244.99" cy="509.97" r="1.6666666666666667" />
<circle cx="245.28" cy="509.97" r="1.6666666666666667" />
<circle cx="245.58" cy="509.97" r="1.6666666666666667" />
<circle cx="245.87" cy="509.97" r="1.6666666666666667" />
<circle cx="246.15" cy="509.97" r="1.6666666666666667" />
<circle cx="246.45" cy="509.97" r="1.6666666666666667" />
<circle cx="246.74" cy="509.97" r="1.6666666666666667" />
<circle cx="247.03" cy="509.97" r="1.6666666666666667" />
<circle cx="247.33" cy="509.97" r="1.6666666666666667" />
<circle cx="247.61" cy="509.97" r="1.6666666666666667" />
<circle cx="247.90" cy="509.97" r="1.6666666666666667" />
<circle cx="248.20" cy="509.97" r="1.6666666666666667" />
<circle cx="248.51" cy="509.97" r="1.6666666666666667" />
<circle cx="248.80" cy="509.97" r="1.6666666666666667" />
<circle cx="249.10" cy="509.97" r="1.6666666666666667" />
<circle cx="249.41" cy="509.97" r="1.6666666666666667" />
<circle cx="249.72" cy="509.97" r="1.6666666666666667" />
<circle cx="250.01" cy="509.97" r="1.6666666666666667" />
<circle cx="250.32" cy="509.97" r="1.6666666666666667" />
<circle cx="250.62" cy="509.97" r="1.6666666666666667" />
<circle cx="250.92" cy="509.97" r="1.6666666666666667" />
<circle cx="251.22" cy="509.97" r="1.6666666666666667" />
<circle cx="251.53" cy="509.97" r="1.6666666666666667" />
<circle cx="251.83" cy="509.97" r="1.6666666666666667" />
<circle cx="252.13" cy="509.97" r="1.6666666666666667" />
<circle cx="252.42" cy="509.97" r="1.6666666666666667" />
<circle cx="252.73" cy="509.97" r="1.6666666666666667" />
<circle cx="253.04" cy="509.97" r="1.6666666666666667" />
<circle cx="253.36" cy="509.97" r="1.6666666666666667" />
<circle cx="253.66" cy="509.97" r="1.6666666666666667" />
<circle cx="253.96" cy="509.97" r="1.6666666666666667" />
<circle cx="254.27" cy="509.97" r="1.6666666666666667" />
<circle cx="254.58" cy="509.97" r="1.6666666666666667" />
<circle cx="254.89" cy="509.97" r="1.6666666666666667" />
<circle cx="255.21" cy="509.97" r="1.6666666666666667" />
<circle cx="255.52" cy="509.97" r="1.6666666666666667" />
<circle cx="255.83" cy="509.97" r="1.6666666666666667" />
<circle cx="256.15" cy="509.97" r="1.6666666666666667" />
<circle cx="256.46" cy="509.97" r="1.6666666666666667" />
<circle cx="256.77" cy="509.97" r="1.6666666666666667" />
<circle cx="257.09" cy="509.97" r="1.6666666666666667" />
<circle cx="257.40" cy="509.97" r="1.6666666666666667" />
<circle cx="257.71" cy="509.97" r="1.6666666666666667" />
<circle cx="258.03" cy="509.97" r="1.6666666666666667" />
<circle cx="258.22" cy="509.96" r="1.6666666666666667" />
<circle cx="258.42" cy="509.96" r="1.6666666666666667" />
<circle cx="258.63" cy="509.96" r="1.6666666666666667" />
<circle cx="258.81" cy="509.95" r="1.6666666666666667" />
<circle cx="258.99" cy="509.95" r="1.6666666666666667" />
<circle cx="259.16" cy="509.95" r="1.6666666666666667" />
<circle cx="259.26" cy="509.91" r="1.6666666666666667" />
<circle cx="259.28" cy="509.49" r="1.6666666666666667" />
<circle cx="259.30" cy="509.67" r="1.6666666666666667" />
<circle cx="259.51" cy="509.96" r="1.6666666666666667" />
<circle cx="259.57" cy="509.86" r="1.6666666666666667" />
<circle cx="639.14" cy="509.95" r="1.6666666666666667" />
<circle cx="639.41" cy="509.97" r="1.6666666666666667" />
<circle cx="639.56" cy="509.94" r="1.6666666666666667" />
<circle cx="639.80" cy="509.97" r="1.6666666666666667" />
<circle cx="639.97" cy="509.95" r="1.6666666666666667" />
<circle cx="640.20" cy="509.96" r="1.6666666666666667" />
<circle cx="640.40" cy="509.96" r="1.6666666666666667" />
<circle cx="640.64" cy="509.97" r="1.6666666666666667" />
<circle cx="640.83" cy="509.96" r="1.6666666666666667" />
<circle cx="641.06" cy="509.96" r="1.6666666666666667" />
<circle cx="641.26" cy="509.96" r="1.6666666666666667" />
<circle cx="641.49" cy="509.96" r="1.6666666666666667" />
<circle cx="641.67" cy="509.96" r="1.6666666666666667" />
<circle cx="641.92" cy="509.97" r="1.6666666666666667" />
<circle cx="642.12" cy="509.96" r="1.6666666666666667" />
<circle cx="642.38" cy="509.97" r="1.6666666666666667" />
<circle cx="642.59" cy="509.96" r="1.6666666666666667" />
<circle cx="642.84" cy="509.97" r="1.6666666666666667" />
<circle cx="643.07" cy="509.96" r="1.6666666666666667" />
<circle cx="643.34" cy="509.97" r="1.6666666666666667" />
<circle cx="643.53" cy="509.96" r="1.6666666666666667" />
<circle cx="643.77" cy="509.97" r="1.6666666666666667" />
<circle cx="643.96" cy="509.96" r="1.6666666666666667" />
<circle cx="644.22" cy="509.97" r="1.6666666666666667" />
<circle cx="644.43" cy="509.96" r="1.6666666666666667" />
<circle cx="644.68" cy="509.97" r="1.6666666666666667" />
<circle cx="644.89" cy="509.96" r="1.6666666666666667" />
<circle cx="645.14" cy="509.97" r="1.6666666666666667" />
<circle cx="645.35" cy="509.96" r="1.6666666666666667" />
<circle cx="645.61" cy="509.97" r="1.6666666666666667" />
<circle cx="645.82" cy="509.96" r="1.6666666666666667" />
<circle cx="646.08" cy="509.97" r="1.6666666666666667" />
<circle cx="646.29" cy="509.96" r="1.6666666666666667" />
<circle cx="646.57" cy="509.97" r="1.6666666666666667" />
<circle cx="646.79" cy="509.96" r="1.6666666666666667" />
<circle cx="647.08" cy="509.97" r="1.6666666666666667" />
<circle cx="647.33" cy="509.97" r="1.6666666666666667" />
<circle cx="647.62" cy="509.97" r="1.6666666666666667" />
<circle cx="647.86" cy="509.96" r="1.6666666666666667" />
<circle cx="648.12" cy="509.97" r="1.6666666666666667" />
<circle cx="648.36" cy="509.97" r="1.6666666666666667" />
<circle cx="648.64" cy="509.97" r="1.6666666666666667" />
<circle cx="648.91" cy="509.97" r="1.6666666666666667" />
<circle cx="649.17" cy="509.97" r="1.6666666666666667" />
<circle cx="650.19" cy="509.99" r="1.6666666666666667" />
<circle cx="650.44" cy="509.97" r="1.6666666666666667" />
<circle cx="650.80" cy="509.98" r="1.6666666666666667" />
<circle cx="651.06" cy="509.97" r="1.6666666666666667" />
<circle cx="651.39" cy="509.98" r="1.6666666666666667" />
<circle cx="651.64" cy="509.97" r="1.6666666666666667" />
<circle cx="651.96" cy="509.97" r="1.6666666666666667" />
<circle cx="652.24" cy="509.97" r="1.6666666666666667" />
<circle cx="652.55" cy="509.97" r="1.6666666666666667" />
<circle cx="652.82" cy="509.97" r="1.6666666666666667" />
<circle cx="653.13" cy="509.97" r="1.6666666666666667" />
<circle cx="653.40" cy="509.97" r="1.6666666666666667" />
<circle cx="653.72" cy="509.97" r="1.6666666666666667" />
<circle cx="653.98" cy="509.97" r="1.6666666666666667" />
<circle cx="654.33" cy="509.98" r="1.6666666666666667" />
<circle cx="654.59" cy="509.97" r="1.6666666666666667" />
<circle cx="654.92" cy="509.97" r="1.6666666666666667" />
<circle cx="655.21" cy="509.97" r="1.6666666666666667" />
<circle cx="655.54" cy="509.98" r="1.6666666666666667" />
<circle cx="655.80" cy="509.97" r="1.6666666666666667" />
<circle cx="656.10" cy="509.97" r="1.6666666666666667" />
<circle cx="656.36" cy="509.97" r="1.6666666666666667" />
<circle cx="656.67" cy="509.97" r="1.6666666666666667" />
<circle cx="656.95" cy="509.97" r="1.6666666666666667" />
<circle cx="657.27" cy="509.97" r="1.6666666666666667" />
<circle cx="657.55" cy="509.97" r="1.6666666666666667" />
<circle cx="657.90" cy="509.98" r="1.6666666666666667" />
<circle cx="658.17" cy="509.97" r="1.6666666666666667" />
<circle cx="658.53" cy="509.98" r="1.6666666666666667" />
<circle cx="658.83" cy="509.97" r="1.6666666666666667" />
<circle cx="659.16" cy="509.97" r="1.6666666666666667" />
<circle cx="659.47" cy="509.97" r="1.6666666666666667" />
<circle cx="659.80" cy="509.97" r="1.6666666666666667" />
<circle cx="660.10" cy="509.97" r="1.6666666666666667" />
<circle cx="660.43" cy="509.97" r="1.6666666666666667" />
<circle cx="660.78" cy="509.98" r="1.6666666666666667" />
<circle cx="661.09" cy="509.97" r="1.6666666666666667" />
<circle cx="661.42" cy="509.97" r="1.6666666666666667" />
<circle cx="661.73" cy="509.97" r="1.6666666666666667" />
<circle cx="662.06" cy="509.98" r="1.6666666666666667" />
<circle cx="662.36" cy="509.97" r="1.6666666666666667" />
<circle cx="662.67" cy="509.97" r="1.6666666666666667" />
<circle cx="663.02" cy="509.98" r="1.6666666666666667" />
<circle cx="663.33" cy="509.97" r="1.6666666666666667" />
<circle cx="663.66" cy="509.98" r="1.6666666666666667" />
<circle cx="663.97" cy="509.97" r="1.6666666666666667" />
<circle cx="664.34" cy="509.98" r="1.6666666666666667" />
<circle cx="664.65" cy="509.97" r="1.6666666666666667" />
<circle cx="665.00" cy="509.98" r="1.6666666666666667" />
<circle cx="665.28" cy="509.97" r="1.6666666666666667" />
<circle cx="665.64" cy="509.98" r="1.6666666666666667" />
<circle cx="665.93" cy="509.97" r="1.6666666666666667" />
<circle cx="666.27" cy="509.98" r="1.6666666666666667" />
<circle cx="666.55" cy="509.97" r="1.6666666666666667" />
<circle cx="666.87" cy="509.97" r="1.6666666666666667" />
<circle cx="667.17" cy="509.97" r="1.6666666666666667" />
<circle cx="667.52" cy="509.98" r="1.6666666666666667" />
<circle cx="667.84" cy="509.97" r="1.6666666666666667" />
<circle cx="668.19" cy="509.98" r="1.6666666666666667" />
<circle cx="668.45" cy="509.97" r="1.6666666666666667" />
<circle cx="668.81" cy="509.98" r="1.6666666666666667" />
<circle cx="669.07" cy="509.97" r="1.6666666666666667" />
<circle cx="669.42" cy="509.98" r="1.6666666666666667" />
<circle cx="669.70" cy="509.97" r="1.6666666666666667" />
<circle cx="670.08" cy="509.98" r="1.6666666666666667" />
<circle cx="670.36" cy="509.97" r="1.6666666666666667" />
<circle cx="670.68" cy="509.97" r="1.6666666666666667" />
<circle cx="670.96" cy="509.97" r="1.6666666666666667" />
<circle cx="671.28" cy="509.97" r="1.6666666666666667" />
<circle cx="671.60" cy="509.97" r="1.6666666666666667" />
<circle cx="671.91" cy="509.97" r="1.6666666666666667" />
<circle cx="672.19" cy="509.97" r="1.6666666666666667" />
<circle cx="672.51" cy="509.97" r="1.6666666666666667" />
<circle cx="672.80" cy="509.97" r="1.6666666666666667" />
<circle cx="673.12" cy="509.97" r="1.6666666666666667" />
<circle cx="673.42" cy="509.97" r="1.6666666666666667" />
<circle cx="673.76" cy="509.98" r="1.6666666666666667" />
<circle cx="674.04" cy="509.97" r="1.6666666666666667" />
<circle cx="674.34" cy="509.97" r="1.6666666666666667" />
<circle cx="674.62" cy="509.97" r="1.6666666666666667" />
<circle cx="674.95" cy="509.98" r="1.6666666666666667" />
<circle cx="675.23" cy="509.97" r="1.6666666666666667" />
<circle cx="675.55" cy="509.97" r="1.6666666666666667" />
<circle cx="675.81" cy="509.97" r="1.6666666666666667" />
<circle cx="676.13" cy="509.97" r="1.6666666666666667" />
<circle cx="676.37" cy="509.97" r="1.6666666666666667" />
<circle cx="676.68" cy="509.97" r="1.6666666666666667" />
<circle cx="676.93" cy="509.97" r="1.6666666666666667" />
<circle cx="677.28" cy="509.98" r="1.6666666666666667" />
<circle cx="677.55" cy="509.97" r="1.6666666666666667" />
<circle cx="677.89" cy="509.98" r="1.6666666666666667" />
<circle cx="678.17" cy="509.97" r="1.6666666666666667" />
<circle cx="678.50" cy="509.97" r="1.6666666666666667" />
<circle cx="678.75" cy="509.97" r="1.6666666666666667" />
<circle cx="679.08" cy="509.97" r="1.6666666666666667" />
<circle cx="679.60" cy="509.98" r="1.6666666666666667" />
<circle cx="679.88" cy="509.97" r="1.6666666666666667" />
<circle cx="680.21" cy="509.98" r="1.6666666666666667" />
<circle cx="680.52" cy="509.97" r="1.6666666666666667" />
<circle cx="680.85" cy="509.98" r="1.6666666666666667" />
<circle cx="681.16" cy="509.97" r="1.6666666666666667" />
<circle cx="681.49" cy="509.98" r="1.6666666666666667" />
<circle cx="681.79" cy="509.97" r="1.6666666666666667" />
<circle cx="682.14" cy="509.98" r="1.6666666666666667" />
<circle cx="682.42" cy="509.97" r="1.6666666666666667" />
<circle cx="682.77" cy="509.98" r="1.6666666666666667" />
<circle cx="683.05" cy="509.97" r="1.6666666666666667" />
<circle cx="683.39" cy="509.98" r="1.6666666666666667" />
<circle cx="683.70" cy="509.97" r="1.6666666666666667" />
<circle cx="684.03" cy="509.98" r="1.6666666666666667" />
<circle cx="684.33" cy="509.97" r="1.6666666666666667" />
<circle cx="684.68" cy="509.98" r="1.6666666666666667" />
<circle cx="684.96" cy="509.97" r="1.6666666666666667" />
<circle cx="685.30" cy="509.98" r="1.6666666666666667" />
<circle cx="685.57" cy="509.97" r="1.6666666666666667" />
<circle cx="685.90" cy="509.97" r="1.6666666666666667" />
<circle cx="686.18" cy="509.97" r="1.6666666666666667" />
<circle cx="686.53" cy="509.98" r="1.6666666666666667" />
<circle cx="686.80" cy="509.97" r="1.6666666666666667" />
<circle cx="687.13" cy="509.97" r="1.6666666666666667" />
<circle cx="687.42" cy="509.97" r="1.6666666666666667" />
<circle cx="687.72" cy="509.97" r="1.6666666666666667" />
<circle cx="688.03" cy="509.97" r="1.6666666666666667" />
<circle cx="688.38" cy="509.98" r="1.6666666666666667" />
<circle cx="688.66" cy="509.97" r="1.6666666666666667" />
<circle cx="688.98" cy="509.97" r="1.6666666666666667" />
<circle cx="689.28" cy="509.97" r="1.6666666666666667" />
<circle cx="689.63" cy="509.98" r="1.6666666666666667" />
<circle cx="689.90" cy="509.97" r="1.6666666666666667" />
<circle cx="690.26" cy="509.98" r="1.6666666666666667" />
<circle cx="690.55" cy="509.97" r="1.6666666666666667" />
<circle cx="690.91" cy="509.98" r="1.6666666666666667" />
<circle cx="691.18" cy="509.97" r="1.6666666666666667" />
<circle cx="691.51" cy="509.97" r="1.6666666666666667" />
<circle cx="691.77" cy="509.97" r="1.6666666666666667" />
<circle cx="692.13" cy="509.98" r="1.6666666666666667" />
<circle cx="692.45" cy="509.97" r="1.6666666666666667" />
<circle cx="692.80" cy="509.98" r="1.6666666666666667" />
<circle cx="693.11" cy="509.97" r="1.6666666666666667" />
<circle cx="693.45" cy="509.98" r="1.6666666666666667" />
<circle cx="693.75" cy="509.97" r="1.6666666666666667" />
<circle cx="694.11" cy="509.98" r="1.6666666666666667" />
<circle cx="694.42" cy="509.97" r="1.6666666666666667" />
<circle cx="694.77" cy="509.98" r="1.6666666666666667" />
<circle cx="695.04" cy="509.97" r="1.6666666666666667" />
<circle cx="695.43" cy="509.98" r="1.6666666666666667" />
<circle cx="695.72" cy="509.97" r="1.6666666666666667" />
<circle cx="696.09" cy="509.98" r="1.6666666666666667" />
<circle cx="696.37" cy="509.97" r="1.6666666666666667" />
<circle cx="696.72" cy="509.98" r="1.6666666666666667" />
<circle cx="697.02" cy="509.97" r="1.6666666666666667" />
<circle cx="697.36" cy="509.98" r="1.6666666666666667" />
<circle cx="697.67" cy="509.97" r="1.6666666666666667" />
<circle cx="698.02" cy="509.98" r="1.6666666666666667" />
<circle cx="698.33" cy="509.97" r="1.6666666666666667" />
<circle cx="698.62" cy="509.97" r="1.6666666666666667" />
<circle cx="698.88" cy="509.97" r="1.6666666666666667" />
<circle cx="699.25" cy="509.98" r="1.6666666666666667" />
<circle cx="699.53" cy="509.97" r="1.6666666666666667" />
<circle cx="699.88" cy="509.98" r="1.6666666666666667" />
<circle cx="700.17" cy="509.97" r="1.6666666666666667" />
<circle cx="700.55" cy="509.98" r="1.6666666666666667" />
<circle cx="700.82" cy="509.97" r="1.6666666666666667" />
<circle cx="701.19" cy="509.98" r="1.6666666666666667" />
<circle cx="701.48" cy="509.97" r="1.6666666666666667" />
<circle cx="701.83" cy="509.98" r="1.6666666666666667" />
<circle cx="702.11" cy="509.97" r="1.6666666666666667" />
<circle cx="702.45" cy="509.98" r="1.6666666666666667" />
<circle cx="702.76" cy="509.97" r="1.6666666666666667" />
<circle cx="703.14" cy="509.98" r="1.6666666666666667" />
<circle cx="704.42" cy="509.99" r="1.6666666666666667" />
<circle cx="704.70" cy="509.97" r="1.6666666666666667" />
<circle cx="705.06" cy="509.98" r="1.6666666666666667" />
<circle cx="705.38" cy="509.97" r="1.6666666666666667" />
<circle cx="705.74" cy="509.98" r="1.6666666666666667" />
<circle cx="706.03" cy="509.97" r="1.6666666666666667" />
<circle cx="706.39" cy="509.98" r="1.6666666666666667" />
<circle cx="706.71" cy="509.97" r="1.6666666666666667" />
<circle cx="707.09" cy="509.98" r="1.6666666666666667" />
<circle cx="707.37" cy="509.97" r="1.6666666666666667" />
<circle cx="707.73" cy="509.98" r="1.6666666666666667" />
<circle cx="708.01" cy="509.97" r="1.6666666666666667" />
<circle cx="708.37" cy="509.98" r="1.6666666666666667" />
<circle cx="708.65" cy="509.97" r="1.6666666666666667" />
<circle cx="708.99" cy="509.98" r="1.6666666666666667" />
<circle cx="709.29" cy="509.97" r="1.6666666666666667" />
<circle cx="709.65" cy="509.98" r="1.6666666666666667" />
<circle cx="709.97" cy="509.97" r="1.6666666666666667" />
<circle cx="710.34" cy="509.98" r="1.6666666666666667" />
<circle cx="710.66" cy="509.97" r="1.6666666666666667" />
<circle cx="711.02" cy="509.98" r="1.6666666666666667" />
<circle cx="711.34" cy="509.97" r="1.6666666666666667" />
<circle cx="711.69" cy="509.98" r="1.6666666666666667" />
<circle cx="711.99" cy="509.97" r="1.6666666666666667" />
<circle cx="712.37" cy="509.98" r="1.6666666666666667" />
<circle cx="712.67" cy="509.97" r="1.6666666666666667" />
<circle cx="713.04" cy="509.98" r="1.6666666666666667" />
<circle cx="713.34" cy="509.97" r="1.6666666666666667" />
<circle cx="713.70" cy="509.98" r="1.6666666666666667" />
<circle cx="714.03" cy="509.97" r="1.6666666666666667" />
<circle cx="714.41" cy="509.98" r="1.6666666666666667" />
<circle cx="714.71" cy="509.97" r="1.6666666666666667" />
<circle cx="715.06" cy="509.98" r="1.6666666666666667" />
<circle cx="715.33" cy="509.97" r="1.6666666666666667" />
<circle cx="715.68" cy="509.98" r="1.6666666666666667" />
<circle cx="716.01" cy="509.98" r="1.6666666666666667" />
<circle cx="716.40" cy="509.98" r="1.6666666666666667" />
<circle cx="716.68" cy="509.97" r="1.6666666666666667" />
<circle cx="717.04" cy="509.98" r="1.6666666666666667" />
<circle cx="717.30" cy="509.97" r="1.6666666666666667" />
<circle cx="717.68" cy="509.98" r="1.6666666666666667" />
<circle cx="718.01" cy="509.97" r="1.6666666666666667" />
<circle cx="718.39" cy="509.98" r="1.6666666666666667" />
<circle cx="718.67" cy="509.97" r="1.6666666666666667" />
<circle cx="719.03" cy="509.98" r="1.6666666666666667" />
<circle cx="719.33" cy="509.97" r="1.6666666666666667" />
<circle cx="719.70" cy="509.98" r="1.6666666666666667" />
<circle cx="719.97" cy="509.97" r="1.6666666666666667" />
<circle cx="720.32" cy="509.98" r="1.6666666666666667" />
<circle cx="720.61" cy="509.97" r="1.6666666666666667" />
<circle cx="720.97" cy="509.98" r="1.6666666666666667" />
<circle cx="721.27" cy="509.97" r="1.6666666666666667" />
<circle cx="721.64" cy="509.98" r="1.6666666666666667" />
<circle cx="721.93" cy="509.97" r="1.6666666666666667" />
<circle cx="722.31" cy="509.98" r="1.6666666666666667" />
<circle cx="722.61" cy="509.97" r="1.6666666666666667" />
<circle cx="722.96" cy="509.98" r="1.6666666666666667" />
<circle cx="723.23" cy="509.97" r="1.6666666666666667" />
<circle cx="723.56" cy="509.97" r="1.6666666666666667" />
<circle cx="723.83" cy="509.97" r="1.6666666666666667" />
<circle cx="724.14" cy="509.97" r="1.6666666666666667" />
<circle cx="724.40" cy="509.97" r="1.6666666666666667" />
<circle cx="724.70" cy="509.97" r="1.6666666666666667" />
<circle cx="724.97" cy="509.97" r="1.6666666666666667" />
<circle cx="725.26" cy="509.97" r="1.6666666666666667" />
<circle cx="725.49" cy="509.96" r="1.6666666666666667" />
<circle cx="725.76" cy="509.97" r="1.6666666666666667" />
<circle cx="725.97" cy="509.96" r="1.6666666666666667" />
<circle cx="726.24" cy="509.97" r="1.6666666666666667" />
<circle cx="726.46" cy="509.96" r="1.6666666666666667" />
<circle cx="726.75" cy="509.97" r="1.6666666666666667" />
<circle cx="726.97" cy="509.96" r="1.6666666666666667" />
<circle cx="727.24" cy="509.97" r="1.6666666666666667" />
<circle cx="727.46" cy="509.96" r="1.6666666666666667" />
<circle cx="727.71" cy="509.97" r="1.6666666666666667" />
<circle cx="727.92" cy="509.96" r="1.6666666666666667" />
<circle cx="728.17" cy="509.97" r="1.6666666666666667" />
<circle cx="728.39" cy="509.96" r="1.6666666666666667" />
<circle cx="728.67" cy="509.97" r="1.6666666666666667" />
<circle cx="728.89" cy="509.96" r="1.6666666666666667" />
<circle cx="729.18" cy="509.97" r="1.6666666666666667" />
<circle cx="729.39" cy="509.96" r="1.6666666666666667" />
<circle cx="729.65" cy="509.97" r="1.6666666666666667" />
<circle cx="729.87" cy="509.96" r="1.6666666666666667" />
<circle cx="730.14" cy="509.97" r="1.6666666666666667" />
<circle cx="730.36" cy="509.96" r="1.6666666666666667" />
<circle cx="730.62" cy="509.97" r="1.6666666666666667" />
<circle cx="730.83" cy="509.96" r="1.6666666666666667" />
<circle cx="731.10" cy="509.97" r="1.6666666666666667" />
<circle cx="731.31" cy="509.96" r="1.6666666666666667" />
<circle cx="731.58" cy="509.97" r="1.6666666666666667" />
<circle cx="731.81" cy="509.96" r="1.6666666666666667" />
<circle cx="732.07" cy="509.97" r="1.6666666666666667" />
<circle cx="732.31" cy="509.96" r="1.6666666666666667" />
<circle cx="732.58" cy="509.97" r="1.6666666666666667" />
<circle cx="732.80" cy="509.96" r="1.6666666666666667" />
<circle cx="733.08" cy="509.97" r="1.6666666666666667" />
<circle cx="733.30" cy="509.96" r="1.6666666666666667" />
<circle cx="733.59" cy="509.97" r="1.6666666666666667" />
<circle cx="733.83" cy="509.96" r="1.6666666666666667" />
<circle cx="734.09" cy="509.97" r="1.6666666666666667" />
<circle cx="734.33" cy="509.97" r="1.6666666666666667" />
<circle cx="734.61" cy="509.97" r="1.6666666666666667" />
<circle cx="734.84" cy="509.96" r="1.6666666666666667" />
<circle cx="735.14" cy="509.97" r="1.6666666666666667" />
<circle cx="735.38" cy="509.96" r="1.6666666666666667" />
<circle cx="735.67" cy="509.97" r="1.6666666666666667" />
<circle cx="735.90" cy="509.96" r="1.6666666666666667" />
<circle cx="736.20" cy="509.97" r="1.6666666666666667" />
<circle cx="736.46" cy="509.97" r="1.6666666666666667" />
<circle cx="736.75" cy="509.97" r="1.6666666666666667" />
<circle cx="797.28" cy="509.98" r="1.6666666666666667" />
<circle cx="797.83" cy="509.98" r="1.6666666666666667" />
<circle cx="798.22" cy="509.98" r="1.6666666666666667" />
<circle cx="798.76" cy="509.98" r="1.6666666666666667" />
<circle cx="799.20" cy="509.98" r="1.6666666666666667" />
<circle cx="799.76" cy="509.99" r="1.6666666666666667" />
<circle cx="800.18" cy="509.98" r="1.6666666666666667" />
<circle cx="800.72" cy="509.98" r="1.6666666666666667" />
<circle cx="801.12" cy="509.98" r="1.6666666666666667" />
<circle cx="801.62" cy="509.98" r="1.6666666666666667" />
<circle cx="802.06" cy="509.98" r="1.6666666666666667" />
<circle cx="802.58" cy="509.98" r="1.6666666666666667" />
<circle cx="803.01" cy="509.98" r="1.6666666666666667" />
<circle cx="803.49" cy="509.98" r="1.6666666666666667" />
<circle cx="803.92" cy="509.98" r="1.6666666666666667" />
<circle cx="804.42" cy="509.98" r="1.6666666666666667" />
<circle cx="804.91" cy="509.98" r="1.6666666666666667" />
<circle cx="805.41" cy="509.98" r="1.6666666666666667" />
<circle cx="805.80" cy="509.98" r="1.6666666666666667" />
<circle cx="806.31" cy="509.98" r="1.6666666666666667" />
<circle cx="806.75" cy="509.98" r="1.6666666666666667" />
<circle cx="807.36" cy="509.99" r="1.6666666666666667" />
<circle cx="807.81" cy="509.98" r="1.6666666666666667" />
<circle cx="808.36" cy="509.99" r="1.6666666666666667" />
<circle cx="808.80" cy="509.98" r="1.6666666666666667" />
<circle cx="809.38" cy="509.99" r="1.6666666666666667" />
<circle cx="809.86" cy="509.98" r="1.6666666666666667" />
<circle cx="810.44" cy="509.99" r="1.6666666666666667" />
<circle cx="810.98" cy="509.98" r="1.6666666666666667" />
<circle cx="811.55" cy="509.99" r="1.6666666666666667" />
<circle cx="811.95" cy="509.98" r="1.6666666666666667" />
<circle cx="812.53" cy="509.99" r="1.6666666666666667" />
<circle cx="813.01" cy="509.98" r="1.6666666666666667" />
<circle cx="813.56" cy="509.99" r="1.6666666666666667" />
<circle cx="814.01" cy="509.98" r="1.6666666666666667" />
<circle cx="814.56" cy="509.99" r="1.6666666666666667" />
<circle cx="814.98" cy="509.98" r="1.6666666666666667" />
<circle cx="815.53" cy="509.98" r="1.6666666666666667" />
<circle cx="815.98" cy="509.98" r="1.6666666666666667" />
<circle cx="816.51" cy="509.98" r="1.6666666666666667" />
<circle cx="817.03" cy="509.98" r="1.6666666666666667" />
<circle cx="817.56" cy="509.98" r="1.6666666666666667" />
<circle cx="818.08" cy="509.98" r="1.6666666666666667" />
<circle cx="818.61" cy="509.98" r="1.6666666666666667" />
<circle cx="819.61" cy="509.99" r="1.6666666666666667" />
<circle cx="820.10" cy="509.98" r="1.6666666666666667" />
<circle cx="820.67" cy="509.99" r="1.6666666666666667" />
<circle cx="821.12" cy="509.98" r="1.6666666666666667" />
<circle cx="821.63" cy="509.98" r="1.6666666666666667" />
<circle cx="822.10" cy="509.98" r="1.6666666666666667" />
<circle cx="822.69" cy="509.99" r="1.6666666666666667" />
<circle cx="823.17" cy="509.98" r="1.6666666666666667" />
<circle cx="823.74" cy="509.99" r="1.6666666666666667" />
<circle cx="824.20" cy="509.98" r="1.6666666666666667" />
<circle cx="824.79" cy="509.99" r="1.6666666666666667" />
<circle cx="825.26" cy="509.98" r="1.6666666666666667" />
<circle cx="825.80" cy="509.98" r="1.6666666666666667" />
<circle cx="826.31" cy="509.98" r="1.6666666666666667" />
<circle cx="826.80" cy="509.98" r="1.6666666666666667" />
<circle cx="827.28" cy="509.98" r="1.6666666666666667" />
<circle cx="827.85" cy="509.99" r="1.6666666666666667" />
<circle cx="828.26" cy="509.98" r="1.6666666666666667" />
<circle cx="828.77" cy="509.98" r="1.6666666666666667" />
<circle cx="829.25" cy="509.98" r="1.6666666666666667" />
<circle cx="829.78" cy="509.98" r="1.6666666666666667" />
<circle cx="830.23" cy="509.98" r="1.6666666666666667" />
<circle cx="830.70" cy="509.98" r="1.6666666666666667" />
<circle cx="831.17" cy="509.98" r="1.6666666666666667" />
<circle cx="831.73" cy="509.99" r="1.6666666666666667" />
<circle cx="832.18" cy="509.98" r="1.6666666666666667" />
<circle cx="832.68" cy="509.98" r="1.6666666666666667" />
<circle cx="833.10" cy="509.98" r="1.6666666666666667" />
<circle cx="833.62" cy="509.98" r="1.6666666666666667" />
<circle cx="834.08" cy="509.98" r="1.6666666666666667" />
<circle cx="834.60" cy="509.98" r="1.6666666666666667" />
<circle cx="835.07" cy="509.98" r="1.6666666666666667" />
<circle cx="835.63" cy="509.99" r="1.6666666666666667" />
<circle cx="836.08" cy="509.98" r="1.6666666666666667" />
<circle cx="836.61" cy="509.98" r="1.6666666666666667" />
<circle cx="837.16" cy="509.98" r="1.6666666666666667" />
<circle cx="837.66" cy="509.98" r="1.6666666666666667" />
<circle cx="838.19" cy="509.98" r="1.6666666666666667" />
<circle cx="838.73" cy="509.98" r="1.6666666666666667" />
<circle cx="839.22" cy="509.98" r="1.6666666666666667" />
<circle cx="839.76" cy="509.98" r="1.6666666666666667" />
<circle cx="840.24" cy="509.98" r="1.6666666666666667" />
<circle cx="840.80" cy="509.99" r="1.6666666666666667" />
<circle cx="841.24" cy="509.98" r="1.6666666666666667" />
<circle cx="841.79" cy="509.98" r="1.6666666666666667" />
<circle cx="842.25" cy="509.98" r="1.6666666666666667" />
<circle cx="842.74" cy="509.98" r="1.6666666666666667" />
<circle cx="843.19" cy="509.98" r="1.6666666666666667" />
<circle cx="843.74" cy="509.99" r="1.6666666666666667" />
<circle cx="844.13" cy="509.98" r="1.6666666666666667" />
<circle cx="844.66" cy="509.98" r="1.6666666666666667" />
<circle cx="845.08" cy="509.98" r="1.6666666666666667" />
<circle cx="845.63" cy="509.99" r="1.6666666666666667" />
<circle cx="846.10" cy="509.98" r="1.6666666666666667" />
<circle cx="846.70" cy="509.99" r="1.6666666666666667" />
<circle cx="847.15" cy="509.98" r="1.6666666666666667" />
<circle cx="847.64" cy="509.98" r="1.6666666666666667" />
<circle cx="848.07" cy="509.98" r="1.6666666666666667" />
<circle cx="848.58" cy="509.98" r="1.6666666666666667" />
<circle cx="849.01" cy="509.98" r="1.6666666666666667" />
<circle cx="849.56" cy="509.99" r="1.6666666666666667" />
<circle cx="850.00" cy="509.98" r="1.6666666666666667" />
</g>
<g stroke="black">
<line x1="294.63" x2="294.63" y1="510.00" y2="520.00" />
<line x1="510.08" x2="510.08" y1="510.00" y2="520.00" />
<line x1="725.52" x2="725.52" y1="510.00" y2="520.00" />
<g fill="black" font-family="Arial, sans-serif" font-size="18.0" stroke="none" text-anchor="start" transform="translate(9.0 0.0)">
<text x="294.63" y="530.57">28Mar'23</text>
<text x="510.08" y="530.57">22Jul'23</text>
<text x="725.52" y="530.57">14Nov'23</text>
</g>
<line x1="150.00" x2="850.00" y1="510.00" y2="510.00" />
</g>
<g stroke="black">
<line x1="150.00" x2="140.00" y1="510.00" y2="510.00" />
<line x1="150.00" x2="140.00" y1="465.81" y2="465.81" />
<line x1="150.00" x2="140.00" y1="421.62" y2="421.62" />
<line x1="150.00" x2="140.00" y1="377.42" y2="377.42" />
<line x1="150.00" x2="140.00" y1="333.23" y2="333.23" />
<line x1="150.00" x2="140.00" y1="289.04" y2="289.04" />
<line x1="150.00" x2="140.00" y1="244.85" y2="244.85" />
<line x1="150.00" x2="140.00" y1="200.66" y2="200.66" />
<line x1="150.00" x2="140.00" y1="156.46" y2="156.46" />
<line x1="150.00" x2="140.00" y1="112.27" y2="112.27" />
<g fill="black" font-family="Arial, sans-serif" font-size="18.0" stroke="none" text-anchor="end">
<text x="141.00" y="501.00">0</text>
<text x="141.00" y="456.81">10000</text>
<text x="141.00" y="412.62">20000</text>
<text x="141.00" y="368.42">30000</text>
<text x="141.00" y="324.23">40000</text>
<text x="141.00" y="280.04">50000</text>
<text x="141.00" y="235.85">60000</text>
<text x="141.00" y="191.66">70000</text>
<text x="141.00" y="147.46">80000</text>
<text x="141.00" y="103.27">90000</text>
</g>
<line x1="150.00" x2="150.00" y1="510.00" y2="90.00" />
</g>
</g>
</svg>