<?xml version="1.0"?>
<svg version="1.1" viewBox="0 0 1000 600" xmlns:xlink="http://www.w3.org/1999/xlink" xmlns="http://www.w3.org/2000/svg">
<g>
<g stroke-dasharray="3.6 7.2" stroke-width="0.72" stroke="#caa">
<line x1="813.75" x2="813.75" y1="510.00" y2="90.00" />
<line x1="760.60" x2="760.60" y1="510.00" y2="90.00" />
<line x1="707.45" x2="707.45" y1="510.00" y2="90.00" />
<line x1="656.01" x2="656.01" y1="510.00" y2="90.00" />
<line x1="602.86" x2="602.86" y1="510.00" y2="90.00" />
<line x1="551.42" x2="551.42" y1="510.00" y2="90.00" />
<line x1="498.27" x2="498.27" y1="510.00" y2="90.00" />
<line x1="445.11" x2="445.11" y1="510.00" y2="90.00" />
<line x1="393.68" x2="393.68" y1="510.00" y2="90.00" />
<line x1="340.52" x2="340.52" y1="510.00" y2="90.00" />
<line x1="289.09" x2="289.09" y1="510.00" y2="90.00" />
<line x1="235.93" x2="235.93" y1="510.00" y2="90.00" />
<line x1="187.92" x2="187.92" y1="510.00" y2="90.00" />
<line x1="150.00" x2="850.00" y1="510.00" y2="510.00" />
<line x1="150.00" x2="850.00" y1="465.81" y2="465.81" />
<line x1="150.00" x2="850.00" y1="421.62" y2="421.62" />
<line x1="150.00" x2="850.00" y1="377.42" y2="377.42" />
<line x1="150.00" x2="850.00" y1="333.23" y2="333.23" />
<line x1="150.00" x2="850.00" y1="289.04" y2="289.04" />
<line x1="150.00" x2="850.00" y1="244.85" y2="244.85" />
<line x1="150.00" x2="850.00" y1="200.66" y2="200.66" />
<line x1="150.00" x2="850.00" y1="156.46" y2="156.46" />
<line x1="150.00" x2="850.00" y1="112.27" y2="112.27" />
</g>
<g>
<text dominant-baseline="hanging" dx="-36.0" dy="18.0" fill="#0004" font-family="Arial, sans-serif" font-size="36" stroke="none" text-anchor="end" x="850.00" y="128.18">ThMuCH2Sh02PairTall</text>
</g>
<g>
<text dominant-baseline="text-bottom" dy="-12.0" fill="black" font-family="Arial, sans-serif" font-size="18.0" font-style="italic" stroke="none" text-anchor="middle" x="500.00" y="90.00">Years 2023 to 2024</text>
</g>
<g>
<text dominant-baseline="central" dx="12.0" dy="12.0" fill="black" font-family="Arial, sans-serif" font-size="18.0" font-style="italic" stroke="none" text-anchor="middle" text-orientation="sideways" writing-mode="vertical-lr" x="850.00" y="300.00">Drips per day</text>
</g>
<polyline fill="none" points="150.58,509.98 150.92,509.98 151.26,509.98 151.59,509.98 151.94,509.98 152.28,509.98 152.61,509.98 152.92,509.98 153.26,509.98 153.60,509.98 153.94,509.98 154.27,509.98 154.61,509.98 154.95,509.98 155.29,509.98 155.63,509.98 155.96,509.98 156.30,509.98 156.64,509.98 156.98,509.98 157.31,509.98 157.66,509.98 158.00,509.98 158.33,509.98 158.69,509.98 159.04,509.98 159.37,509.98 159.72,509.98 160.07,509.98 160.40,509.98 160.74,509.98 161.07,509.98 161.40,509.98 161.73,509.98 162.10,509.98 162.45,509.98 162.79,509.98 163.14,509.98 163.49,509.98 163.84,509.98 164.18,509.98 164.51,509.98 164.84,509.98 165.18,509.98 165.53,509.98 165.86,509.98 166.20,509.98 166.55,509.98 166.88,509.98 167.22,509.98 167.56,509.98 167.90,509.98 168.25,509.98 168.60,509.98 168.95,509.98 169.30,509.98 169.65,509.98 170.02,509.98 170.37,509.98 170.71,509.98 171.08,509.98 171.43,509.98 171.79,509.98 172.13,509.98 172.48,509.98 172.84,509.98 173.19,509.98 173.54,509.98 178.53,509.98 178.89,509.98 179.26,509.98 179.62,509.98 179.98,509.98 180.34,509.98 180.71,509.98 181.08,509.98 181.47,509.98 181.83,509.98 182.20,509.98 182.58,509.98 182.97,509.98 183.34,509.98 183.70,509.98 184.07,509.98 184.42,509.98 184.79,509.98 185.17,509.98 185.53,509.98 185.90,509.98 186.27,509.98 186.65,509.98 187.03,509.98 187.40,509.98 187.77,509.98 188.15,509.98 188.53,509.98 188.90,509.98 746.08,433.64 746.08,414.55 746.08,128.18 746.08,471.82" stroke-dasharray="3.6 3.6" stroke-width="3.6" stroke="#aaa" />
<g>
<circle cx="150.58" cy="509.98" r="1.6666666666666667" />
<circle cx="150.92" cy="509.98" r="1.6666666666666667" />
<circle cx="151.26" cy="509.98" r="1.6666666666666667" />
<circle cx="151.59" cy="509.98" r="1.6666666666666667" />
<circle cx="151.94" cy="509.98" r="1.6666666666666667" />
<circle cx="152.28" cy="509.98" r="1.6666666666666667" />
<circle cx="152.61" cy="509.98" r="1.6666666666666667" />
<circle cx="152.92" cy="509.98" r="1.6666666666666667" />
<circle cx="153.26" cy="509.98" r="1.6666666666666667" />
<circle cx="153.60" cy="509.98" r="1.6666666666666667" />
<circle cx="153.94" cy="509.98" r="1.6666666666666667" />
<circle cx="154.27" cy="509.98" r="1.6666666666666667" />
<circle cx="154.61" cy="509.98" r="1.6666666666666667" />
<circle cx="154.95" cy="509.98" r="1.6666666666666667" />
<circle cx="155.29" cy="509.98" r="1.6666666666666667" />
<circle cx="155.63" cy="509.98" r="1.6666666666666667" />
<circle cx="155.96" cy="509.98" r="1.6666666666666667" />
<circle cx="156.30" cy="509.98" r="1.6666666666666667" />
<circle cx="156.64" cy="509.98" r="1.6666666666666667" />
<circle cx="156.98" cy="509.98" r="1.6666666666666667" />
<circle cx="157.31" cy="509.98" r="1.6666666666666667" />
<circle cx="157.66" cy="509.98" r="1.6666666666666667" />
<circle cx="158.00" cy="509.98" r="1.6666666666666667" />
<circle cx="158.33" cy="509.98" r="1.6666666666666667" />
<circle cx="158.69" cy="509.98" r="1.6666666666666667" />
<circle cx="159.04" cy="509.98" r="1.6666666666666667" />
<circle cx="159.37" cy="509.98" r="1.6666666666666667" />
<circle cx="159.72" cy="509.98" r="1.6666666666666667" />
<circle cx="160.07" cy="509.98" r="1.6666666666666667" />
<circle cx="160.40" cy="509.98" r="1.6666666666666667" />
<circle cx="160.74" cy="509.98" r="1.6666666666666667" />
<circle cx="161.07" cy="509.98" r="1.6666666666666667" />
<circle cx="161.40" cy="509.98" r="1.6666666666666667" />
<circle cx="161.73" cy="509.98" r="1.6666666666666667" />
<circle cx="162.10" cy="509.98" r="1.6666666666666667" />
<circle cx="162.45" cy="509.98" r="1.6666666666666667" />
<circle cx="162.79" cy="509.98" r="1.6666666666666667" />
<circle cx="163.14" cy="509.98" r="1.6666666666666667" />
<circle cx="163.49" cy="509.98" r="1.6666666666666667" />
<circle cx="163.84" cy="509.98" r="1.6666666666666667" />
<circle cx="164.18" cy="509.98" r="1.6666666666666667" />
<circle cx="164.51" cy="509.98" r="1.6666666666666667" />
<circle cx="164.84" cy="509.98" r="1.6666666666666667" />
<circle cx="165.18" cy="509.98" r="1.6666666666666667" />
<circle cx="165.53" cy="509.98" r="1.6666666666666667" />
<circle cx="165.86" cy="509.98" r="1.6666666666666667" />
<circle cx="166.20" cy="509.98" r="1.6666666666666667" />
<circle cx="166.55" cy="509.98" r="1.6666666666666667" />
<circle cx="166.88" cy="509.98" r="1.6666666666666667" />
<circle cx="167.22" cy="509.98" r="1.6666666666666667" />
<circle cx="167.56" cy="509.98" r="1.6666666666666667" />
<circle cx="167.90" cy="509.98" r="1.6666666666666667" />
<circle cx="168.25" cy="509.98" r="1.6666666666666667" />
<circle cx="168.60" cy="509.98" r="1.6666666666666667" />
<circle cx="168.95" cy="509.98" r="1.6666666666666667" />
<circle cx="169.30" cy="509.98" r="1.6666666666666667" />
<circle cx="169.65" cy="509.98" r="1.6666666666666667" />
<circle cx="170.02" cy="509.98" r="1.6666666666666667" />
<circle cx="170.37" cy="509.98" r="1.6666666666666667" />
<circle cx="170.71" cy="509.98" r="1.6666666666666667" />
<circle cx="171.08" cy="509.98" r="1.6666666666666667" />
<circle cx="171.43" cy="509.98" r="1.6666666666666667" />
<circle cx="171.79" cy="509.98" r="1.6666666666666667" />
<circle cx="172.13" cy="509.98" r="1.6666666666666667" />
<circle cx="172.48" cy="509.98" r="1.6666666666666667" />
<circle cx="172.84" cy="509.98" r="1.6666666666666667" />
<circle cx="173.19" cy="509.98" r="1.6666666666666667" />
<circle cx="173.54" cy="509.98" r="1.6666666666666667" />
<circle cx="178.53" cy="509.98" r="1.6666666666666667" />
<circle cx="178.89" cy="509.98" r="1.6666666666666667" />
<circle cx="179.26" cy="509.98" r="1.6666666666666667" />
<circle cx="179.62" cy="509.98" r="1.6666666666666667" />
<circle cx="179.98" cy="509.98" r="1.6666666666666667" />
<circle cx="180.34" cy="509.98" r="1.6666666666666667" />
<circle cx="180.71" cy="509.98" r="1.6666666666666667" />
<circle cx="181.08" cy="509.98" r="1.6666666666666667" />
<circle cx="181.47" cy="509.98" r="1.6666666666666667" />
<circle cx="181.83" cy="509.98" r="1.6666666666666667" />
<circle cx="182.20" cy="509.98" r="1.6666666666666667" />
<circle cx="182.58" cy="509.98" r="1.6666666666666667" />
<circle cx="182.97" cy="509.98" r="1.6666666666666667" />
<circle cx="183.34" cy="509.98" r="1.6666666666666667" />
<circle cx="183.70" cy="509.98" r="1.6666666666666667" />
<circle cx="184.07" cy="509.98" r="1.6666666666666667" />
<circle cx="184.42" cy="509.98" r="1.6666666666666667" />
<circle cx="184.79" cy="509.98" r="1.6666666666666667" />
<circle cx="185.17" cy="509.98" r="1.6666666666666667" />
<circle cx="185.53" cy="509.98" r="1.6666666666666667" />
<circle cx="185.90" cy="509.98" r="1.6666666666666667" />
<circle cx="186.27" cy="509.98" r="1.6666666666666667" />
<circle cx="186.65" cy="509.98" r="1.6666666666666667" />
<circle cx="187.03" cy="509.98" r="1.6666666666666667" />
<circle cx="187.40" cy="509.98" r="1.6666666666666667" />
<circle cx="187.77" cy="509.98" r="1.6666666666666667" />
<circle cx="188.15" cy="509.98" r="1.6666666666666667" />
<circle cx="188.53" cy="509.98" r="1.6666666666666667" />
<circle cx="188.90" cy="509.98" r="1.6666666666666667" />
<circle cx="746.08" cy="433.64" r="1.6666666666666667" />
<circle cx="746.08" cy="414.55" r="1.6666666666666667" />
<circle cx="746.08" cy="128.18" r="1.6666666666666667" />
<circle cx="746.08" cy="471.82" r="1.6666666666666667" />
</g>
<g stroke="black">
<line x1="813.75" x2="813.75" y1="510.00" y2="520.00" />
<line x1="760.60" x2="760.60" y1="510.00" y2="520.00" />
<line x1="707.45" x2="707.45" y1="510.00" y2="520.00" />
<line x1="656.01" x2="656.01" y1="510.00" y2="520.00" />
<line x1="602.86" x2="602.86" y1="510.00" y2="520.00" />
<line x1="551.42" x2="551.42" y1="510.00" y2="520.00" />
<line x1="498.27" x2="498.27" y1="510.00" y2="520.00" />
<line x1="445.11" x2="445.11" y1="510.00" y2="520.00" />
<line x1="393.68" x2="393.68" y1="510.00" y2="520.00" />
<line x1="340.52" x2="340.52" y1="510.00" y2="520.00" />
<line x1="289.09" x2="289.09" y1="510.00" y2="520.00" />
<line x1="235.93" x2="235.93" y1="510.00" y2="520.00" />
<line x1="187.92" x2="187.92" y1="510.00" y2="520.00" />
<g fill="black" font-family="Arial, sans-serif" font-size="18.0" stroke="none" text-anchor="start" transform="translate(9.0 0.0)">
<text x="813.75" y="530.57">Feb</text>
<text x="760.60" y="530.57">Jan</text>
<text x="707.45" y="530.57">Dec</text>
<text x="656.01" y="530.57">Nov</text>
<text x="602.86" y="530.57">Oct</text>
<text x="551.42" y="530.57">Sep</text>
<text x="498.27" y="530.57">Aug</text>
<text x="445.11" y="530.57">Jul</text>
<text x="393.68" y="530.57">Jun</text>
<text x="340.52" y="530.57">May</text>
<text x="289.09" y="530.57">Apr</text>
<text x="235.93" y="530.57">Mar</text>
<text x="187.92" y="530.57">Feb</text>
</g>
<line x1="150.00" x2="850.00" y1="510.00" y2="510.00" />
</g>
<g stroke="black">
<line x1="150.00" x2="140.00" y1="510.00" y2="510.00" />
<line x1="150.00" x2="140.00" y1="465.81" y2="465.81" />
<line x1="150.00" x2="140.00" y1="421.62" y2="421.62" />
<line x1="150.00" x2="140.00" y1="377.42" y2="377.42" />
<line x1="150.00" x2="140.00" y1="333.23" y2="333.23" />
<line x1="150.00" x2="140.00" y1="289.04" y2="289.04" />
<line x1="150.00" x2="140.00" y1="244.85" y2="244.85" />
<line x1="150.00" x2="140.00" y1="200.66" y2="200.66" />
<line x1="150.00" x2="140.00" y1="156.46" y2="156.46" />
<line x1="150.00" x2="140.00" y1="112.27" y2="112.27" />
<g fill="black" font-family="Arial, sans-serif" font-size="18.0" stroke="none" text-anchor="end">
<text x="141.00" y="501.00">0</text>
<text x="141.00" y="456.81">10000</text>
<text x="141.00" y="412.62">20000</text>
<text x="141.00" y="368.42">30000</text>
<text x="141.00" y="324.23">40000</text>
<text x="141.00" y="280.04">50000</text>
<text x="141.00" y="235.85">60000</text>
<text x="141.00" y="191.66">70000</text>
<text x="141.00" y="147.46">80000</text>
<text x="141.00" y="103.27">90000</text>
</g>
<line x1="150.00" x2="150.00" y1="510.00" y2="90.00" />
</g>
</g>
</svg>