<?xml version="1.0"?>
<svg version="1.1" viewBox="0 0 1000 600" xmlns:xlink="http://www.w3.org/1999/xlink" xmlns="http://www.w3.org/2000/svg">
<g>
<g>
<g>
<text dominant-baseline="hanging" dx="-18.0" dy="18.0" fill="#0088" font-family="Arial, sans-serif" font-size="18.0" font-style="italic" stroke="none" text-anchor="end" text-orientation="sideways" x="950.00" y="30.00">d18O</text>
</g>
<g>
<g>
<text dominant-baseline="central" fill="#8008" font-size="26.666666666666668" stroke="none" text-anchor="middle" tooltip="Vial    :EMPTY
Date: 2023-06-12
Comment: It&apos;s been raining but sidechamber is dry-ish" x="330.46" y="189.91">I</text>
<title>Vial    :EMPTY
Date: 2023-06-12
Comment: It's been raining but sidechamber is dry-ish</title>
</g>
<g>
<text dominant-baseline="central" fill="#8008" font-size="26.666666666666668" stroke="none" text-anchor="middle" tooltip="Vial    :EMPTY
Date: 2023-06-26
Comment: Still no water at all. Nong sent video" x="356.05" y="189.91">I</text>
<title>Vial    :EMPTY
Date: 2023-06-26
Comment: Still no water at all. Nong sent video</title>
</g>
<g>
<text dominant-baseline="central" fill="#8008" font-size="26.666666666666668" stroke="none" text-anchor="middle" tooltip="Vial    :EMPTY
Date: 2023-07-05
Comment: No water again - See photo" x="372.50" y="189.91">I</text>
<title>Vial    :EMPTY
Date: 2023-07-05
Comment: No water again - See photo</title>
</g>
<g>
<text dominant-baseline="central" fill="#8008" font-size="26.666666666666668" stroke="none" text-anchor="middle" tooltip="Vial    :EMPTY
Date: 2023-07-20
Comment: No water again - See photo" x="399.93" y="189.91">I</text>
<title>Vial    :EMPTY
Date: 2023-07-20
Comment: No water again - See photo</title>
</g>
<g>
<text dominant-baseline="central" fill="#8008" font-size="26.666666666666668" stroke="none" text-anchor="middle" tooltip="Vial    
Date: 2023-09-29
Comment: Note:
- This had: `:RG02` and `X` (see pics)
- Installed `:RG06`, which was outside before, but now had legs added
- No pic showing `:R11` and `:RG86` at the same time" x="529.72" y="189.91">I</text>
<title>Vial    
Date: 2023-09-29
Comment: Note:
- This had: `:RG02` and `X` (see pics)
- Installed `:RG06`, which was outside before, but now had legs added
- No pic showing `:R11` and `:RG86` at the same time</title>
</g>
<g>
<text dominant-baseline="central" fill="#8008" font-size="26.666666666666668" stroke="none" text-anchor="middle" tooltip="Vial    :AASZ
Date: 2023-11-03
Comment: Nong say : &apos;Less water&apos;" x="593.71" y="189.91">I</text>
<title>Vial    :AASZ
Date: 2023-11-03
Comment: Nong say : 'Less water'</title>
</g>
<g>
<text dominant-baseline="central" fill="#8008" font-size="26.666666666666668" stroke="none" text-anchor="middle" tooltip="Vial    :AEVW
Date: 2023-11-21
Comment: Rat bite cable! So probably missing data" x="626.62" y="189.91">I</text>
<title>Vial    :AEVW
Date: 2023-11-21
Comment: Rat bite cable! So probably missing data</title>
</g>
<g>
<text dominant-baseline="central" fill="#8008" font-size="26.666666666666668" stroke="none" text-anchor="middle" tooltip="Vial    :AYYB
Date: 2023-12-12
Comment: Gauge replaced b/c of previous rat bite" x="665.01" y="189.91">I</text>
<title>Vial    :AYYB
Date: 2023-12-12
Comment: Gauge replaced b/c of previous rat bite</title>
</g>
<g>
<text dominant-baseline="central" fill="#8008" font-size="26.666666666666668" stroke="none" text-anchor="middle" tooltip="Vial    :ADKN
Date: 2023-12-23
Comment: Rat bites the cable again! Nong fixes it" x="685.12" y="189.91">I</text>
<title>Vial    :ADKN
Date: 2023-12-23
Comment: Rat bites the cable again! Nong fixes it</title>
</g>
<g>
<text dominant-baseline="central" fill="#8008" font-size="26.666666666666668" stroke="none" text-anchor="middle" tooltip="Vial    :AVXC
Date: 2024-01-04
Comment: " x="707.05" y="189.91">I</text>
<title>Vial    :AVXC
Date: 2024-01-04
Comment: </title>
</g>
<g>
<text dominant-baseline="central" fill="#8008" font-size="26.666666666666668" stroke="none" text-anchor="middle" tooltip="Vial    :AGTC
Date: 2024-01-21
Comment: " x="738.13" y="189.91">I</text>
<title>Vial    :AGTC
Date: 2024-01-21
Comment: </title>
</g>
<g>
<text dominant-baseline="central" fill="#8008" font-size="26.666666666666668" stroke="none" text-anchor="middle" tooltip="Vial    :AZWT
Date: 2024-02-06
Comment: Very little water" x="767.38" y="189.91">I</text>
<title>Vial    :AZWT
Date: 2024-02-06
Comment: Very little water</title>
</g>
<g>
<text dominant-baseline="central" fill="#8008" font-size="26.666666666666668" stroke="none" text-anchor="middle" tooltip="Vial    :ANQB
Date: 2024-02-22
Comment: " x="796.63" y="189.91">I</text>
<title>Vial    :ANQB
Date: 2024-02-22
Comment: </title>
</g>
<g>
<text dominant-baseline="central" fill="#8008" font-size="26.666666666666668" stroke="none" text-anchor="middle" tooltip="Vial    :AEPE
Date: 2024-03-07
Comment: " x="822.23" y="189.91">I</text>
<title>Vial    :AEPE
Date: 2024-03-07
Comment: </title>
</g>
<g>
<text dominant-baseline="central" fill="#8008" font-size="26.666666666666668" stroke="none" text-anchor="middle" tooltip="Vial    :AUVH
Date: 2024-03-29
Comment: Empty File!!" x="862.45" y="189.91">I</text>
<title>Vial    :AUVH
Date: 2024-03-29
Comment: Empty File!!</title>
</g>
<g>
<text dominant-baseline="central" fill="#8008" font-size="26.666666666666668" stroke="none" text-anchor="middle" tooltip="Vial    :AMDM
Date: 2024-04-16
Comment: SD Card file was sent twice! But one of them was empty" x="895.35" y="189.91">I</text>
<title>Vial    :AMDM
Date: 2024-04-16
Comment: SD Card file was sent twice! But one of them was empty</title>
</g>
<g>
<text dominant-baseline="central" fill="#8008" font-size="26.666666666666668" stroke="none" text-anchor="middle" tooltip="Vial    :AELB
Date: 2024-04-27
Comment: SD Card file doesn&apos;t read!!" x="915.46" y="189.91">I</text>
<title>Vial    :AELB
Date: 2024-04-27
Comment: SD Card file doesn't read!!</title>
</g>
</g>
<polyline fill="none" points="569.94,374.99 540.69,275.93 513.27,353.41 484.02,348.46 458.43,308.77 423.69,287.71 306.69,251.96 282.92,284.39 266.47,259.03 242.70,243.92 218.94,259.13 202.49,280.35 184.20,300.26 165.92,306.53 140.33,310.32 125.70,315.89 78.17,325.83" stroke-dasharray="3.6 3.6" stroke-width="3.6" stroke="#0084" />
<g>
<g>
<circle cx="78.17" cy="325.83" fill="#0088" r="3.3333333333333335" stroke="#0088" tooltip="Vial    :AFTC
Date: 2023-01-25
Comment: " />
<title>Vial    :AFTC
Date: 2023-01-25
Comment: </title>
</g>
<g>
<circle cx="125.70" cy="315.89" fill="#0088" r="3.3333333333333335" stroke="#0088" tooltip="Vial    :ACET
Date: 2023-02-20
Comment: " />
<title>Vial    :ACET
Date: 2023-02-20
Comment: </title>
</g>
<g>
<circle cx="140.33" cy="310.32" fill="#0088" r="3.3333333333333335" stroke="#0088" tooltip="Vial    :ADWW
Date: 2023-02-28
Comment: " />
<title>Vial    :ADWW
Date: 2023-02-28
Comment: </title>
</g>
<g>
<circle cx="165.92" cy="306.53" fill="#0088" r="3.3333333333333335" stroke="#0088" tooltip="Vial    :AVYG
Date: 2023-03-14
Comment: " />
<title>Vial    :AVYG
Date: 2023-03-14
Comment: </title>
</g>
<g>
<circle cx="184.20" cy="300.26" fill="#0088" r="3.3333333333333335" stroke="#0088" tooltip="Vial    :ARBS
Date: 2023-03-24
Comment: " />
<title>Vial    :ARBS
Date: 2023-03-24
Comment: </title>
</g>
<g>
<circle cx="202.49" cy="280.35" fill="#0088" r="3.3333333333333335" stroke="#0088" tooltip="Vial    :AGDX
Date: 2023-04-03
Comment: " />
<title>Vial    :AGDX
Date: 2023-04-03
Comment: </title>
</g>
<g>
<circle cx="218.94" cy="259.13" fill="#0088" r="3.3333333333333335" stroke="#0088" tooltip="Vial    :ALLH
Date: 2023-04-12
Comment: " />
<title>Vial    :ALLH
Date: 2023-04-12
Comment: </title>
</g>
<g>
<circle cx="242.70" cy="243.92" fill="#0088" r="3.3333333333333335" stroke="#0088" tooltip="Vial    :ALRR
Date: 2023-04-25
Comment: " />
<title>Vial    :ALRR
Date: 2023-04-25
Comment: </title>
</g>
<g>
<circle cx="266.47" cy="259.03" fill="#0088" r="3.3333333333333335" stroke="#0088" tooltip="Vial    :AENE
Date: 2023-05-08
Comment: " />
<title>Vial    :AENE
Date: 2023-05-08
Comment: </title>
</g>
<g>
<circle cx="282.92" cy="284.39" fill="#0088" r="3.3333333333333335" stroke="#0088" tooltip="Vial    :AREC
Date: 2023-05-17
Comment: " />
<title>Vial    :AREC
Date: 2023-05-17
Comment: </title>
</g>
<g>
<circle cx="306.69" cy="251.96" fill="#0088" r="3.3333333333333335" stroke="#0088" tooltip="Vial    :ASHS
Date: 2023-05-30
Comment: " />
<title>Vial    :ASHS
Date: 2023-05-30
Comment: </title>
</g>
<g>
<circle cx="423.69" cy="287.71" fill="#0088" r="3.3333333333333335" stroke="#0088" tooltip="Vial    :AGWM
Date: 2023-08-02
Comment: Water is finally back! Pic of stalagtite" />
<title>Vial    :AGWM
Date: 2023-08-02
Comment: Water is finally back! Pic of stalagtite</title>
</g>
<g>
<circle cx="458.43" cy="308.77" fill="#0088" r="3.3333333333333335" stroke="#0088" tooltip="Vial    :AALY
Date: 2023-08-21
Comment: Water is finally back! Pic of stalagtite" />
<title>Vial    :AALY
Date: 2023-08-21
Comment: Water is finally back! Pic of stalagtite</title>
</g>
<g>
<circle cx="484.02" cy="348.46" fill="#0088" r="3.3333333333333335" stroke="#0088" tooltip="Vial    :AZXA
Date: 2023-09-04
Comment: " />
<title>Vial    :AZXA
Date: 2023-09-04
Comment: </title>
</g>
<g>
<circle cx="513.27" cy="353.41" fill="#0088" r="3.3333333333333335" stroke="#0088" tooltip="Vial    :ABBP
Date: 2023-09-20
Comment: " />
<title>Vial    :ABBP
Date: 2023-09-20
Comment: </title>
</g>
<g>
<circle cx="540.69" cy="275.93" fill="#0088" r="3.3333333333333335" stroke="#0088" tooltip="Vial    :APGR
Date: 2023-10-05
Comment: " />
<title>Vial    :APGR
Date: 2023-10-05
Comment: </title>
</g>
<g>
<circle cx="569.94" cy="374.99" fill="#0088" r="3.3333333333333335" stroke="#0088" tooltip="Vial    :APUL
Date: 2023-10-21
Comment: " />
<title>Vial    :APUL
Date: 2023-10-21
Comment: </title>
</g>
</g>
<g stroke="#0088">
<line x1="922.24" x2="922.24" y1="30.00" y2="30.00" />
<line x1="867.40" x2="867.40" y1="30.00" y2="30.00" />
<line x1="810.73" x2="810.73" y1="30.00" y2="30.00" />
<line x1="757.71" x2="757.71" y1="30.00" y2="30.00" />
<line x1="701.04" x2="701.04" y1="30.00" y2="30.00" />
<line x1="644.36" x2="644.36" y1="30.00" y2="30.00" />
<line x1="589.52" x2="589.52" y1="30.00" y2="30.00" />
<line x1="532.85" x2="532.85" y1="30.00" y2="30.00" />
<line x1="478.00" x2="478.00" y1="30.00" y2="30.00" />
<line x1="421.33" x2="421.33" y1="30.00" y2="30.00" />
<line x1="364.66" x2="364.66" y1="30.00" y2="30.00" />
<line x1="309.81" x2="309.81" y1="30.00" y2="30.00" />
<line x1="253.14" x2="253.14" y1="30.00" y2="30.00" />
<line x1="198.30" x2="198.30" y1="30.00" y2="30.00" />
<line x1="141.62" x2="141.62" y1="30.00" y2="30.00" />
<line x1="90.44" x2="90.44" y1="30.00" y2="30.00" />
<g fill="none" font-family="Arial, sans-serif" font-size="18.0" stroke="none" text-anchor="start" transform="translate(9.0 0.0)">
<text x="922.24" y="23.74">May</text>
<text x="867.40" y="23.74">Apr</text>
<text x="810.73" y="23.74">Mar</text>
<text x="757.71" y="23.74">Feb</text>
<text x="701.04" y="23.74">Jan</text>
<text x="644.36" y="23.74">Dec</text>
<text x="589.52" y="23.74">Nov</text>
<text x="532.85" y="23.74">Oct</text>
<text x="478.00" y="23.74">Sep</text>
<text x="421.33" y="23.74">Aug</text>
<text x="364.66" y="23.74">Jul</text>
<text x="309.81" y="23.74">Jun</text>
<text x="253.14" y="23.74">May</text>
<text x="198.30" y="23.74">Apr</text>
<text x="141.62" y="23.74">Mar</text>
<text x="90.44" y="23.74">Feb</text>
</g>
<line x1="50.00" x2="950.00" y1="30.00" y2="30.00" />
</g>
<g stroke="#0088">
<line x1="950.00" x2="962.00" y1="488.92" y2="488.92" />
<line x1="950.00" x2="962.00" y1="189.91" y2="189.91" />
<g fill="#0088" font-family="Arial, sans-serif" font-size="18.0" stroke="none" text-anchor="beginning">
<text x="959.00" y="479.92">-10</text>
<text x="959.00" y="180.91">0</text>
</g>
<line x1="950.00" x2="950.00" y1="570.00" y2="30.00" />
</g>
</g>
<g>
<g stroke-dasharray="3.6 7.2" stroke-width="0.72" stroke="#caa">
<line x1="922.24" x2="922.24" y1="570.00" y2="30.00" />
<line x1="867.40" x2="867.40" y1="570.00" y2="30.00" />
<line x1="810.73" x2="810.73" y1="570.00" y2="30.00" />
<line x1="757.71" x2="757.71" y1="570.00" y2="30.00" />
<line x1="701.04" x2="701.04" y1="570.00" y2="30.00" />
<line x1="644.36" x2="644.36" y1="570.00" y2="30.00" />
<line x1="589.52" x2="589.52" y1="570.00" y2="30.00" />
<line x1="532.85" x2="532.85" y1="570.00" y2="30.00" />
<line x1="478.00" x2="478.00" y1="570.00" y2="30.00" />
<line x1="421.33" x2="421.33" y1="570.00" y2="30.00" />
<line x1="364.66" x2="364.66" y1="570.00" y2="30.00" />
<line x1="309.81" x2="309.81" y1="570.00" y2="30.00" />
<line x1="253.14" x2="253.14" y1="570.00" y2="30.00" />
<line x1="198.30" x2="198.30" y1="570.00" y2="30.00" />
<line x1="141.62" x2="141.62" y1="570.00" y2="30.00" />
<line x1="90.44" x2="90.44" y1="570.00" y2="30.00" />
<line x1="50.00" x2="950.00" y1="570.00" y2="570.00" />
<line x1="50.00" x2="950.00" y1="192.38" y2="192.38" />
</g>
<g>
<text dominant-baseline="hanging" dx="-36.0" dy="18.0" fill="#0004" font-family="Arial, sans-serif" font-size="36" stroke="none" text-anchor="end" x="950.00" y="79.09">ThMuCh0ConjoinedBottom</text>
</g>
<g>
<text dominant-baseline="text-bottom" dy="-12.0" fill="black" font-family="Arial, sans-serif" font-size="18.0" font-style="italic" stroke="none" text-anchor="middle" x="500.00" y="30.00">Years 2023 to 2024</text>
</g>
<g>
<text dominant-baseline="hanging" dx="18.0" dy="18.0" fill="black" font-family="Arial, sans-serif" font-size="18.0" font-style="italic" stroke="none" text-anchor="beginning" text-orientation="sideways" x="50.00" y="30.00">log(Drips per day)</text>
</g>
<polyline fill="none" points="50.23,473.42 50.38,473.41 50.53,476.48 50.68,475.84 50.83,474.60 50.97,473.65 51.12,474.94 51.26,474.53 51.41,475.39 51.56,476.25 51.71,474.11 51.86,475.37 52.00,473.40 52.15,475.71 52.30,476.69 52.46,476.79 52.61,475.63 52.76,475.21 52.90,474.41 79.70,485.29 79.89,484.28 80.08,484.50 80.27,484.39 80.46,483.81 80.65,485.66 80.84,484.54 81.03,483.36 81.21,483.87 81.39,482.64 81.58,483.46 81.76,483.09 81.94,482.35 82.12,483.28 105.31,490.99 531.04,518.92 531.43,511.59 531.89,517.89 532.19,501.90 532.64,517.27 532.96,503.78 533.39,515.51 533.67,498.47 534.08,514.04 534.42,506.52 534.86,515.74 535.20,506.72 535.63,515.46 535.97,506.90 536.42,516.47 536.80,511.34 537.30,520.36 537.71,513.59 538.24,523.55 538.67,515.32 539.20,523.22 539.64,516.36 540.17,523.21 540.59,514.82 541.56,545.70 542.05,520.67 542.52,518.40 543.07,525.09 543.50,515.11 544.05,524.82 544.49,515.73 545.04,524.60 545.49,517.26 546.06,526.31 546.52,517.27 547.06,524.01 547.49,515.77 548.00,521.54 548.45,517.12 548.98,523.32 549.40,514.60 549.95,524.21 550.36,513.89 550.87,521.48 551.30,515.99 551.84,524.02 552.31,518.04 552.83,522.71 553.27,516.17 553.82,524.82 554.30,519.14 554.87,526.30 555.30,515.38 555.85,524.77 556.30,517.26 556.83,522.75 557.27,516.10 557.84,526.01 558.28,516.39 558.82,523.98 559.26,516.64 559.84,526.07 560.29,517.74 560.88,526.96 561.37,520.37 561.93,525.32 562.40,518.97 562.95,524.48 563.46,521.56 563.99,523.46 564.48,520.34 565.06,526.39 565.51,517.08 566.08,525.94 566.58,521.44 567.15,525.60 567.65,521.40 568.21,525.00 568.72,522.05 569.29,525.79 569.77,519.85 570.75,546.26 571.22,518.93 571.85,529.72 572.34,520.54 666.03,491.35 666.26,493.05 666.50,492.60 666.74,493.01 666.99,494.84 667.22,492.59 667.46,493.45 667.70,493.02 667.95,493.99 668.19,494.23 668.43,493.06 668.67,493.09 668.91,493.51 669.15,493.88 669.39,493.13 669.63,492.86 669.89,495.99 670.13,494.31 670.37,492.86 670.62,494.37 670.87,494.79 671.11,493.51 671.36,495.04 685.78,487.73 685.99,488.68 686.22,491.56 686.44,489.95 686.66,490.70 686.89,490.36 687.10,489.22 687.32,489.71 687.53,488.78 687.75,489.60 687.96,488.81 688.18,489.61 688.40,489.54 688.62,490.97 688.85,490.58 689.07,490.77 689.29,490.42 689.51,488.95 689.72,489.88 689.95,490.42 690.17,490.24 690.38,489.06 690.61,490.80 690.83,490.78 691.04,488.03 691.25,488.36 691.46,488.79 691.68,488.83 691.89,488.91 692.10,488.87 692.32,490.14 692.53,487.29 692.74,489.21 692.96,489.22 693.17,488.66 693.38,487.95 693.59,488.98 693.81,489.06 694.03,490.54 694.25,489.91 694.46,489.22 694.68,488.98 694.89,488.38 695.10,488.74 695.32,489.49 695.53,489.49 695.76,490.41 695.97,489.35 696.19,488.72 696.40,488.56 696.61,489.38 696.82,487.72 697.04,489.21 697.24,487.95 697.45,488.25 697.66,487.90 697.88,488.96 698.09,489.24 698.31,490.08 698.53,489.33 698.74,488.71 698.96,489.95 699.18,490.17 699.40,489.95 699.61,488.71 699.83,489.65 700.05,490.37 700.27,489.97 700.49,489.46 700.71,490.21 700.93,490.09 701.15,489.74 701.36,489.09 701.58,489.40 701.80,490.62 702.02,489.61 702.23,489.16 702.45,489.96 702.67,490.31 702.89,489.10 703.10,488.65 703.31,488.52 703.53,489.17 703.74,488.94 703.96,489.29 704.16,486.76 704.37,488.19 704.57,487.66 704.79,488.98 705.00,488.31 705.21,488.93 705.43,489.95 705.65,489.07 705.86,488.47 706.07,489.11 706.28,488.53 706.50,490.24 706.72,489.49 706.94,489.97 707.80,541.68 708.03,490.71 708.24,489.11 708.46,488.95 708.67,488.82 708.89,489.81 709.11,489.91 709.33,489.89 709.55,490.07 709.76,489.21 709.99,490.68 710.20,489.63 710.42,490.34 710.64,489.59 710.86,488.99 711.07,489.66 711.29,489.07 711.50,488.06 711.72,490.74 711.94,490.16 712.16,490.17 712.38,489.85 712.61,491.26 712.83,490.86 713.05,490.03 713.27,488.98 713.47,487.27 713.68,487.45 713.88,486.92 714.09,487.49 714.29,486.86 714.48,485.94 714.69,487.05 714.88,485.54 715.08,485.10 715.28,486.94 715.48,487.31 715.69,486.71 715.89,487.27 716.09,486.32 716.30,487.57 716.50,487.53 716.70,486.79 716.90,486.33 717.12,489.44 717.34,490.43 717.56,490.01 717.78,489.70 718.00,489.58 718.22,491.02 718.44,490.05 718.66,490.07 718.88,489.42 719.10,489.87 719.32,490.26 719.54,490.20 719.76,490.80 720.00,491.92 720.22,491.46 720.44,489.94 720.66,490.12 720.89,491.26 721.11,490.33 721.33,489.36 721.56,491.61 721.78,490.91 722.01,491.59 722.24,491.68 722.47,490.97 722.69,491.18 722.92,490.94 723.15,491.36 723.38,491.41 723.61,491.75 723.84,491.92 724.06,490.76 724.29,491.49 724.51,490.89 724.74,491.04 724.97,492.00 725.20,490.68 725.42,491.28 725.66,492.54 725.88,489.52 726.10,490.38 726.33,491.46 726.55,490.23 726.78,492.11 727.01,492.15 727.25,493.43 727.49,493.31 727.72,490.62 727.94,490.94 728.17,491.81 728.41,492.39 728.63,490.82 728.86,491.60 729.10,492.89 729.33,491.52 729.56,492.18 729.79,492.31 730.02,491.98 730.25,491.37 730.47,490.12 730.69,490.26 730.92,491.79 731.16,493.47 731.40,491.93 731.63,491.86 731.86,492.47 732.09,491.93 732.32,491.50 732.54,490.42 732.77,491.07 733.01,493.19 733.24,492.40 733.48,492.34 733.71,492.85 733.95,493.11 734.19,493.45 734.43,492.64 734.67,493.81 734.90,491.95 735.13,490.43 735.36,491.65 735.58,491.19 735.82,493.11 736.05,492.22 736.29,492.18 736.54,494.93 736.78,493.21 737.01,492.44 737.25,493.94 737.50,493.39 737.74,493.67 737.98,493.55 738.94,545.74 739.18,492.76 739.42,493.69 739.66,493.54 739.90,493.97 740.15,494.56 740.40,493.89 740.63,492.76 740.87,493.17 741.12,494.39 741.36,493.96 741.60,493.12 741.85,495.23 742.11,495.45 742.35,494.00 742.59,493.67 742.84,494.90 743.08,493.16 743.33,494.39 743.57,492.73 743.80,492.98 744.05,494.28 744.29,493.27 744.53,494.06 744.78,494.78 745.04,495.10 745.28,494.20 745.53,495.36 745.79,495.05 746.05,496.25 746.30,495.11 746.55,495.49 746.80,495.02 747.05,495.03 747.30,494.58 747.55,495.43 747.81,494.92 748.05,494.38 748.30,494.82 748.55,495.25 748.80,494.91 749.06,495.39 749.31,495.58 749.57,495.48 749.81,493.53 750.05,493.91 750.30,495.03 750.56,495.38 750.81,495.03 751.06,495.97 751.32,495.55 751.57,495.51 751.82,494.60 752.07,494.47 752.32,495.71 752.59,496.39 752.84,495.81 753.10,495.86 753.35,495.10 753.60,494.85 753.85,495.68 754.11,495.16 754.36,495.50 754.62,496.42 754.88,496.20 755.13,494.26 755.38,494.89 755.62,494.45 755.88,496.20 756.14,495.50 756.40,496.39 756.66,497.35 756.92,494.96 757.17,494.89 757.42,496.14 757.68,496.32 757.94,495.97 758.21,497.26 758.47,496.75 758.73,496.32 758.99,495.73 759.24,496.03 759.50,496.56 759.76,496.35 760.03,497.10 760.30,497.33 760.55,495.87 760.81,496.14 761.07,495.95 761.32,495.59 761.58,495.58 761.84,496.82 762.11,497.67 762.37,496.13 762.64,497.07 762.90,497.10 763.18,499.10 763.45,498.37 763.74,499.30 764.01,498.97 764.28,497.88 764.56,498.59 764.83,498.25 765.11,498.24 765.38,497.47 765.65,499.04 765.93,497.90 766.19,497.15 766.45,496.85 766.72,496.89 767.00,498.91 767.28,498.99 768.09,539.62 768.36,498.00 768.63,497.63 768.91,498.13 769.18,497.78 769.46,499.49 769.72,496.58 769.99,497.62 770.27,499.29 770.54,498.00 770.82,498.67 771.09,498.52 771.38,500.43 771.65,497.17 771.92,498.39 772.21,499.41 772.48,498.10 772.76,499.11 773.03,498.35 773.31,498.47 773.58,498.23 773.85,497.44 774.13,499.12 774.40,498.02 774.69,499.99 774.97,500.11 775.26,500.10 775.54,499.79 775.83,499.91 776.12,500.48 776.41,500.02 776.69,499.21 776.98,500.29 777.26,499.86 777.55,500.01 777.84,500.28 778.12,500.04 778.41,500.55 778.70,500.52 778.99,499.38 779.27,499.64 779.57,501.46 779.86,500.18 780.15,501.48 780.44,500.48 780.73,499.85 781.01,498.96 781.30,500.49 781.59,500.36 781.87,500.11 782.17,501.18 782.46,500.79 782.75,499.76 783.04,500.44 783.33,500.83 783.62,500.67 783.92,501.48 784.21,500.63 784.50,500.58 784.80,502.25 785.11,502.85 785.41,501.75 785.72,502.32 786.02,502.37 786.32,501.90 786.63,502.84 786.94,502.87 787.24,501.90 787.55,502.75 787.86,502.68 788.17,502.73 788.47,502.14 788.78,503.53 789.09,502.85 789.40,503.31 789.73,504.26 790.03,502.50 790.34,503.10 790.66,504.01 790.97,502.85 791.28,503.58 791.60,503.56 791.91,503.65 792.24,505.01 792.55,503.29 792.86,503.10 793.18,504.22 793.50,503.63 793.81,502.95 794.13,503.77 794.44,504.00 794.75,502.30 795.07,504.44 795.39,503.51 795.71,504.63 796.03,504.26 796.36,504.88 797.33,546.36 797.68,506.67 798.01,506.39 798.34,504.97 798.68,506.51 799.02,506.36 799.36,506.45 799.70,506.35 800.05,507.27 800.40,507.79 800.74,507.00 801.09,507.10 801.43,507.19 801.79,507.81 802.13,507.25 802.49,508.05 802.83,507.02 803.19,508.15 803.54,507.87 803.89,507.05 804.24,507.92 804.58,506.99 804.95,508.70 805.31,509.47 805.67,508.34 806.03,508.93 806.39,508.36 806.75,508.07 807.10,508.32 807.46,508.39 807.81,507.63 808.17,508.39 808.54,509.80 808.92,510.93 809.29,509.32 809.67,510.81 810.04,509.74 810.41,510.08 810.80,511.21 811.19,511.92 811.58,511.03 811.97,511.67 812.38,514.03 812.79,513.30 813.19,512.68 813.59,512.32 813.99,513.13 814.42,515.33 814.82,512.86 815.23,513.22 815.63,513.00 816.11,519.24 816.52,513.50 816.92,512.87 817.33,512.99 817.84,522.25 818.27,515.26 818.70,515.22 819.12,514.75 819.65,522.73 820.08,515.86 820.53,516.71 821.00,518.59 821.47,518.62 821.91,516.34" stroke-dasharray="3.6 3.6" stroke-width="3.6" stroke="none" />
<g>
<circle cx="50.23" cy="473.42" fill="#0002" r="1.6666666666666667" stroke="none" />
<circle cx="50.38" cy="473.41" fill="#0002" r="1.6666666666666667" stroke="none" />
<circle cx="50.53" cy="476.48" fill="#0002" r="1.6666666666666667" stroke="none" />
<circle cx="50.68" cy="475.84" fill="#0002" r="1.6666666666666667" stroke="none" />
<circle cx="50.83" cy="474.60" fill="#0002" r="1.6666666666666667" stroke="none" />
<circle cx="50.97" cy="473.65" fill="#0002" r="1.6666666666666667" stroke="none" />
<circle cx="51.12" cy="474.94" fill="#0002" r="1.6666666666666667" stroke="none" />
<circle cx="51.26" cy="474.53" fill="#0002" r="1.6666666666666667" stroke="none" />
<circle cx="51.41" cy="475.39" fill="#0002" r="1.6666666666666667" stroke="none" />
<circle cx="51.56" cy="476.25" fill="#0002" r="1.6666666666666667" stroke="none" />
<circle cx="51.71" cy="474.11" fill="#0002" r="1.6666666666666667" stroke="none" />
<circle cx="51.86" cy="475.37" fill="#0002" r="1.6666666666666667" stroke="none" />
<circle cx="52.00" cy="473.40" fill="#0002" r="1.6666666666666667" stroke="none" />
<circle cx="52.15" cy="475.71" fill="#0002" r="1.6666666666666667" stroke="none" />
<circle cx="52.30" cy="476.69" fill="#0002" r="1.6666666666666667" stroke="none" />
<circle cx="52.46" cy="476.79" fill="#0002" r="1.6666666666666667" stroke="none" />
<circle cx="52.61" cy="475.63" fill="#0002" r="1.6666666666666667" stroke="none" />
<circle cx="52.76" cy="475.21" fill="#0002" r="1.6666666666666667" stroke="none" />
<circle cx="52.90" cy="474.41" fill="#0002" r="1.6666666666666667" stroke="none" />
<circle cx="79.70" cy="485.29" fill="#0002" r="1.6666666666666667" stroke="none" />
<circle cx="79.89" cy="484.28" fill="#0002" r="1.6666666666666667" stroke="none" />
<circle cx="80.08" cy="484.50" fill="#0002" r="1.6666666666666667" stroke="none" />
<circle cx="80.27" cy="484.39" fill="#0002" r="1.6666666666666667" stroke="none" />
<circle cx="80.46" cy="483.81" fill="#0002" r="1.6666666666666667" stroke="none" />
<circle cx="80.65" cy="485.66" fill="#0002" r="1.6666666666666667" stroke="none" />
<circle cx="80.84" cy="484.54" fill="#0002" r="1.6666666666666667" stroke="none" />
<circle cx="81.03" cy="483.36" fill="#0002" r="1.6666666666666667" stroke="none" />
<circle cx="81.21" cy="483.87" fill="#0002" r="1.6666666666666667" stroke="none" />
<circle cx="81.39" cy="482.64" fill="#0002" r="1.6666666666666667" stroke="none" />
<circle cx="81.58" cy="483.46" fill="#0002" r="1.6666666666666667" stroke="none" />
<circle cx="81.76" cy="483.09" fill="#0002" r="1.6666666666666667" stroke="none" />
<circle cx="81.94" cy="482.35" fill="#0002" r="1.6666666666666667" stroke="none" />
<circle cx="82.12" cy="483.28" fill="#0002" r="1.6666666666666667" stroke="none" />
<circle cx="105.31" cy="490.99" fill="#0002" r="1.6666666666666667" stroke="none" />
<circle cx="531.04" cy="518.92" fill="#0002" r="1.6666666666666667" stroke="none" />
<circle cx="531.43" cy="511.59" fill="#0002" r="1.6666666666666667" stroke="none" />
<circle cx="531.89" cy="517.89" fill="#0002" r="1.6666666666666667" stroke="none" />
<circle cx="532.19" cy="501.90" fill="#0002" r="1.6666666666666667" stroke="none" />
<circle cx="532.64" cy="517.27" fill="#0002" r="1.6666666666666667" stroke="none" />
<circle cx="532.96" cy="503.78" fill="#0002" r="1.6666666666666667" stroke="none" />
<circle cx="533.39" cy="515.51" fill="#0002" r="1.6666666666666667" stroke="none" />
<circle cx="533.67" cy="498.47" fill="#0002" r="1.6666666666666667" stroke="none" />
<circle cx="534.08" cy="514.04" fill="#0002" r="1.6666666666666667" stroke="none" />
<circle cx="534.42" cy="506.52" fill="#0002" r="1.6666666666666667" stroke="none" />
<circle cx="534.86" cy="515.74" fill="#0002" r="1.6666666666666667" stroke="none" />
<circle cx="535.20" cy="506.72" fill="#0002" r="1.6666666666666667" stroke="none" />
<circle cx="535.63" cy="515.46" fill="#0002" r="1.6666666666666667" stroke="none" />
<circle cx="535.97" cy="506.90" fill="#0002" r="1.6666666666666667" stroke="none" />
<circle cx="536.42" cy="516.47" fill="#0002" r="1.6666666666666667" stroke="none" />
<circle cx="536.80" cy="511.34" fill="#0002" r="1.6666666666666667" stroke="none" />
<circle cx="537.30" cy="520.36" fill="#0002" r="1.6666666666666667" stroke="none" />
<circle cx="537.71" cy="513.59" fill="#0002" r="1.6666666666666667" stroke="none" />
<circle cx="538.24" cy="523.55" fill="#0002" r="1.6666666666666667" stroke="none" />
<circle cx="538.67" cy="515.32" fill="#0002" r="1.6666666666666667" stroke="none" />
<circle cx="539.20" cy="523.22" fill="#0002" r="1.6666666666666667" stroke="none" />
<circle cx="539.64" cy="516.36" fill="#0002" r="1.6666666666666667" stroke="none" />
<circle cx="540.17" cy="523.21" fill="#0002" r="1.6666666666666667" stroke="none" />
<circle cx="540.59" cy="514.82" fill="#0002" r="1.6666666666666667" stroke="none" />
<circle cx="541.56" cy="545.70" fill="#0002" r="1.6666666666666667" stroke="none" />
<circle cx="542.05" cy="520.67" fill="#0002" r="1.6666666666666667" stroke="none" />
<circle cx="542.52" cy="518.40" fill="#0002" r="1.6666666666666667" stroke="none" />
<circle cx="543.07" cy="525.09" fill="#0002" r="1.6666666666666667" stroke="none" />
<circle cx="543.50" cy="515.11" fill="#0002" r="1.6666666666666667" stroke="none" />
<circle cx="544.05" cy="524.82" fill="#0002" r="1.6666666666666667" stroke="none" />
<circle cx="544.49" cy="515.73" fill="#0002" r="1.6666666666666667" stroke="none" />
<circle cx="545.04" cy="524.60" fill="#0002" r="1.6666666666666667" stroke="none" />
<circle cx="545.49" cy="517.26" fill="#0002" r="1.6666666666666667" stroke="none" />
<circle cx="546.06" cy="526.31" fill="#0002" r="1.6666666666666667" stroke="none" />
<circle cx="546.52" cy="517.27" fill="#0002" r="1.6666666666666667" stroke="none" />
<circle cx="547.06" cy="524.01" fill="#0002" r="1.6666666666666667" stroke="none" />
<circle cx="547.49" cy="515.77" fill="#0002" r="1.6666666666666667" stroke="none" />
<circle cx="548.00" cy="521.54" fill="#0002" r="1.6666666666666667" stroke="none" />
<circle cx="548.45" cy="517.12" fill="#0002" r="1.6666666666666667" stroke="none" />
<circle cx="548.98" cy="523.32" fill="#0002" r="1.6666666666666667" stroke="none" />
<circle cx="549.40" cy="514.60" fill="#0002" r="1.6666666666666667" stroke="none" />
<circle cx="549.95" cy="524.21" fill="#0002" r="1.6666666666666667" stroke="none" />
<circle cx="550.36" cy="513.89" fill="#0002" r="1.6666666666666667" stroke="none" />
<circle cx="550.87" cy="521.48" fill="#0002" r="1.6666666666666667" stroke="none" />
<circle cx="551.30" cy="515.99" fill="#0002" r="1.6666666666666667" stroke="none" />
<circle cx="551.84" cy="524.02" fill="#0002" r="1.6666666666666667" stroke="none" />
<circle cx="552.31" cy="518.04" fill="#0002" r="1.6666666666666667" stroke="none" />
<circle cx="552.83" cy="522.71" fill="#0002" r="1.6666666666666667" stroke="none" />
<circle cx="553.27" cy="516.17" fill="#0002" r="1.6666666666666667" stroke="none" />
<circle cx="553.82" cy="524.82" fill="#0002" r="1.6666666666666667" stroke="none" />
<circle cx="554.30" cy="519.14" fill="#0002" r="1.6666666666666667" stroke="none" />
<circle cx="554.87" cy="526.30" fill="#0002" r="1.6666666666666667" stroke="none" />
<circle cx="555.30" cy="515.38" fill="#0002" r="1.6666666666666667" stroke="none" />
<circle cx="555.85" cy="524.77" fill="#0002" r="1.6666666666666667" stroke="none" />
<circle cx="556.30" cy="517.26" fill="#0002" r="1.6666666666666667" stroke="none" />
<circle cx="556.83" cy="522.75" fill="#0002" r="1.6666666666666667" stroke="none" />
<circle cx="557.27" cy="516.10" fill="#0002" r="1.6666666666666667" stroke="none" />
<circle cx="557.84" cy="526.01" fill="#0002" r="1.6666666666666667" stroke="none" />
<circle cx="558.28" cy="516.39" fill="#0002" r="1.6666666666666667" stroke="none" />
<circle cx="558.82" cy="523.98" fill="#0002" r="1.6666666666666667" stroke="none" />
<circle cx="559.26" cy="516.64" fill="#0002" r="1.6666666666666667" stroke="none" />
<circle cx="559.84" cy="526.07" fill="#0002" r="1.6666666666666667" stroke="none" />
<circle cx="560.29" cy="517.74" fill="#0002" r="1.6666666666666667" stroke="none" />
<circle cx="560.88" cy="526.96" fill="#0002" r="1.6666666666666667" stroke="none" />
<circle cx="561.37" cy="520.37" fill="#0002" r="1.6666666666666667" stroke="none" />
<circle cx="561.93" cy="525.32" fill="#0002" r="1.6666666666666667" stroke="none" />
<circle cx="562.40" cy="518.97" fill="#0002" r="1.6666666666666667" stroke="none" />
<circle cx="562.95" cy="524.48" fill="#0002" r="1.6666666666666667" stroke="none" />
<circle cx="563.46" cy="521.56" fill="#0002" r="1.6666666666666667" stroke="none" />
<circle cx="563.99" cy="523.46" fill="#0002" r="1.6666666666666667" stroke="none" />
<circle cx="564.48" cy="520.34" fill="#0002" r="1.6666666666666667" stroke="none" />
<circle cx="565.06" cy="526.39" fill="#0002" r="1.6666666666666667" stroke="none" />
<circle cx="565.51" cy="517.08" fill="#0002" r="1.6666666666666667" stroke="none" />
<circle cx="566.08" cy="525.94" fill="#0002" r="1.6666666666666667" stroke="none" />
<circle cx="566.58" cy="521.44" fill="#0002" r="1.6666666666666667" stroke="none" />
<circle cx="567.15" cy="525.60" fill="#0002" r="1.6666666666666667" stroke="none" />
<circle cx="567.65" cy="521.40" fill="#0002" r="1.6666666666666667" stroke="none" />
<circle cx="568.21" cy="525.00" fill="#0002" r="1.6666666666666667" stroke="none" />
<circle cx="568.72" cy="522.05" fill="#0002" r="1.6666666666666667" stroke="none" />
<circle cx="569.29" cy="525.79" fill="#0002" r="1.6666666666666667" stroke="none" />
<circle cx="569.77" cy="519.85" fill="#0002" r="1.6666666666666667" stroke="none" />
<circle cx="570.75" cy="546.26" fill="#0002" r="1.6666666666666667" stroke="none" />
<circle cx="571.22" cy="518.93" fill="#0002" r="1.6666666666666667" stroke="none" />
<circle cx="571.85" cy="529.72" fill="#0002" r="1.6666666666666667" stroke="none" />
<circle cx="572.34" cy="520.54" fill="#0002" r="1.6666666666666667" stroke="none" />
<circle cx="666.03" cy="491.35" fill="#0002" r="1.6666666666666667" stroke="none" />
<circle cx="666.26" cy="493.05" fill="#0002" r="1.6666666666666667" stroke="none" />
<circle cx="666.50" cy="492.60" fill="#0002" r="1.6666666666666667" stroke="none" />
<circle cx="666.74" cy="493.01" fill="#0002" r="1.6666666666666667" stroke="none" />
<circle cx="666.99" cy="494.84" fill="#0002" r="1.6666666666666667" stroke="none" />
<circle cx="667.22" cy="492.59" fill="#0002" r="1.6666666666666667" stroke="none" />
<circle cx="667.46" cy="493.45" fill="#0002" r="1.6666666666666667" stroke="none" />
<circle cx="667.70" cy="493.02" fill="#0002" r="1.6666666666666667" stroke="none" />
<circle cx="667.95" cy="493.99" fill="#0002" r="1.6666666666666667" stroke="none" />
<circle cx="668.19" cy="494.23" fill="#0002" r="1.6666666666666667" stroke="none" />
<circle cx="668.43" cy="493.06" fill="#0002" r="1.6666666666666667" stroke="none" />
<circle cx="668.67" cy="493.09" fill="#0002" r="1.6666666666666667" stroke="none" />
<circle cx="668.91" cy="493.51" fill="#0002" r="1.6666666666666667" stroke="none" />
<circle cx="669.15" cy="493.88" fill="#0002" r="1.6666666666666667" stroke="none" />
<circle cx="669.39" cy="493.13" fill="#0002" r="1.6666666666666667" stroke="none" />
<circle cx="669.63" cy="492.86" fill="#0002" r="1.6666666666666667" stroke="none" />
<circle cx="669.89" cy="495.99" fill="#0002" r="1.6666666666666667" stroke="none" />
<circle cx="670.13" cy="494.31" fill="#0002" r="1.6666666666666667" stroke="none" />
<circle cx="670.37" cy="492.86" fill="#0002" r="1.6666666666666667" stroke="none" />
<circle cx="670.62" cy="494.37" fill="#0002" r="1.6666666666666667" stroke="none" />
<circle cx="670.87" cy="494.79" fill="#0002" r="1.6666666666666667" stroke="none" />
<circle cx="671.11" cy="493.51" fill="#0002" r="1.6666666666666667" stroke="none" />
<circle cx="671.36" cy="495.04" fill="#0002" r="1.6666666666666667" stroke="none" />
<circle cx="685.78" cy="487.73" fill="#0002" r="1.6666666666666667" stroke="none" />
<circle cx="685.99" cy="488.68" fill="#0002" r="1.6666666666666667" stroke="none" />
<circle cx="686.22" cy="491.56" fill="#0002" r="1.6666666666666667" stroke="none" />
<circle cx="686.44" cy="489.95" fill="#0002" r="1.6666666666666667" stroke="none" />
<circle cx="686.66" cy="490.70" fill="#0002" r="1.6666666666666667" stroke="none" />
<circle cx="686.89" cy="490.36" fill="#0002" r="1.6666666666666667" stroke="none" />
<circle cx="687.10" cy="489.22" fill="#0002" r="1.6666666666666667" stroke="none" />
<circle cx="687.32" cy="489.71" fill="#0002" r="1.6666666666666667" stroke="none" />
<circle cx="687.53" cy="488.78" fill="#0002" r="1.6666666666666667" stroke="none" />
<circle cx="687.75" cy="489.60" fill="#0002" r="1.6666666666666667" stroke="none" />
<circle cx="687.96" cy="488.81" fill="#0002" r="1.6666666666666667" stroke="none" />
<circle cx="688.18" cy="489.61" fill="#0002" r="1.6666666666666667" stroke="none" />
<circle cx="688.40" cy="489.54" fill="#0002" r="1.6666666666666667" stroke="none" />
<circle cx="688.62" cy="490.97" fill="#0002" r="1.6666666666666667" stroke="none" />
<circle cx="688.85" cy="490.58" fill="#0002" r="1.6666666666666667" stroke="none" />
<circle cx="689.07" cy="490.77" fill="#0002" r="1.6666666666666667" stroke="none" />
<circle cx="689.29" cy="490.42" fill="#0002" r="1.6666666666666667" stroke="none" />
<circle cx="689.51" cy="488.95" fill="#0002" r="1.6666666666666667" stroke="none" />
<circle cx="689.72" cy="489.88" fill="#0002" r="1.6666666666666667" stroke="none" />
<circle cx="689.95" cy="490.42" fill="#0002" r="1.6666666666666667" stroke="none" />
<circle cx="690.17" cy="490.24" fill="#0002" r="1.6666666666666667" stroke="none" />
<circle cx="690.38" cy="489.06" fill="#0002" r="1.6666666666666667" stroke="none" />
<circle cx="690.61" cy="490.80" fill="#0002" r="1.6666666666666667" stroke="none" />
<circle cx="690.83" cy="490.78" fill="#0002" r="1.6666666666666667" stroke="none" />
<circle cx="691.04" cy="488.03" fill="#0002" r="1.6666666666666667" stroke="none" />
<circle cx="691.25" cy="488.36" fill="#0002" r="1.6666666666666667" stroke="none" />
<circle cx="691.46" cy="488.79" fill="#0002" r="1.6666666666666667" stroke="none" />
<circle cx="691.68" cy="488.83" fill="#0002" r="1.6666666666666667" stroke="none" />
<circle cx="691.89" cy="488.91" fill="#0002" r="1.6666666666666667" stroke="none" />
<circle cx="692.10" cy="488.87" fill="#0002" r="1.6666666666666667" stroke="none" />
<circle cx="692.32" cy="490.14" fill="#0002" r="1.6666666666666667" stroke="none" />
<circle cx="692.53" cy="487.29" fill="#0002" r="1.6666666666666667" stroke="none" />
<circle cx="692.74" cy="489.21" fill="#0002" r="1.6666666666666667" stroke="none" />
<circle cx="692.96" cy="489.22" fill="#0002" r="1.6666666666666667" stroke="none" />
<circle cx="693.17" cy="488.66" fill="#0002" r="1.6666666666666667" stroke="none" />
<circle cx="693.38" cy="487.95" fill="#0002" r="1.6666666666666667" stroke="none" />
<circle cx="693.59" cy="488.98" fill="#0002" r="1.6666666666666667" stroke="none" />
<circle cx="693.81" cy="489.06" fill="#0002" r="1.6666666666666667" stroke="none" />
<circle cx="694.03" cy="490.54" fill="#0002" r="1.6666666666666667" stroke="none" />
<circle cx="694.25" cy="489.91" fill="#0002" r="1.6666666666666667" stroke="none" />
<circle cx="694.46" cy="489.22" fill="#0002" r="1.6666666666666667" stroke="none" />
<circle cx="694.68" cy="488.98" fill="#0002" r="1.6666666666666667" stroke="none" />
<circle cx="694.89" cy="488.38" fill="#0002" r="1.6666666666666667" stroke="none" />
<circle cx="695.10" cy="488.74" fill="#0002" r="1.6666666666666667" stroke="none" />
<circle cx="695.32" cy="489.49" fill="#0002" r="1.6666666666666667" stroke="none" />
<circle cx="695.53" cy="489.49" fill="#0002" r="1.6666666666666667" stroke="none" />
<circle cx="695.76" cy="490.41" fill="#0002" r="1.6666666666666667" stroke="none" />
<circle cx="695.97" cy="489.35" fill="#0002" r="1.6666666666666667" stroke="none" />
<circle cx="696.19" cy="488.72" fill="#0002" r="1.6666666666666667" stroke="none" />
<circle cx="696.40" cy="488.56" fill="#0002" r="1.6666666666666667" stroke="none" />
<circle cx="696.61" cy="489.38" fill="#0002" r="1.6666666666666667" stroke="none" />
<circle cx="696.82" cy="487.72" fill="#0002" r="1.6666666666666667" stroke="none" />
<circle cx="697.04" cy="489.21" fill="#0002" r="1.6666666666666667" stroke="none" />
<circle cx="697.24" cy="487.95" fill="#0002" r="1.6666666666666667" stroke="none" />
<circle cx="697.45" cy="488.25" fill="#0002" r="1.6666666666666667" stroke="none" />
<circle cx="697.66" cy="487.90" fill="#0002" r="1.6666666666666667" stroke="none" />
<circle cx="697.88" cy="488.96" fill="#0002" r="1.6666666666666667" stroke="none" />
<circle cx="698.09" cy="489.24" fill="#0002" r="1.6666666666666667" stroke="none" />
<circle cx="698.31" cy="490.08" fill="#0002" r="1.6666666666666667" stroke="none" />
<circle cx="698.53" cy="489.33" fill="#0002" r="1.6666666666666667" stroke="none" />
<circle cx="698.74" cy="488.71" fill="#0002" r="1.6666666666666667" stroke="none" />
<circle cx="698.96" cy="489.95" fill="#0002" r="1.6666666666666667" stroke="none" />
<circle cx="699.18" cy="490.17" fill="#0002" r="1.6666666666666667" stroke="none" />
<circle cx="699.40" cy="489.95" fill="#0002" r="1.6666666666666667" stroke="none" />
<circle cx="699.61" cy="488.71" fill="#0002" r="1.6666666666666667" stroke="none" />
<circle cx="699.83" cy="489.65" fill="#0002" r="1.6666666666666667" stroke="none" />
<circle cx="700.05" cy="490.37" fill="#0002" r="1.6666666666666667" stroke="none" />
<circle cx="700.27" cy="489.97" fill="#0002" r="1.6666666666666667" stroke="none" />
<circle cx="700.49" cy="489.46" fill="#0002" r="1.6666666666666667" stroke="none" />
<circle cx="700.71" cy="490.21" fill="#0002" r="1.6666666666666667" stroke="none" />
<circle cx="700.93" cy="490.09" fill="#0002" r="1.6666666666666667" stroke="none" />
<circle cx="701.15" cy="489.74" fill="#0002" r="1.6666666666666667" stroke="none" />
<circle cx="701.36" cy="489.09" fill="#0002" r="1.6666666666666667" stroke="none" />
<circle cx="701.58" cy="489.40" fill="#0002" r="1.6666666666666667" stroke="none" />
<circle cx="701.80" cy="490.62" fill="#0002" r="1.6666666666666667" stroke="none" />
<circle cx="702.02" cy="489.61" fill="#0002" r="1.6666666666666667" stroke="none" />
<circle cx="702.23" cy="489.16" fill="#0002" r="1.6666666666666667" stroke="none" />
<circle cx="702.45" cy="489.96" fill="#0002" r="1.6666666666666667" stroke="none" />
<circle cx="702.67" cy="490.31" fill="#0002" r="1.6666666666666667" stroke="none" />
<circle cx="702.89" cy="489.10" fill="#0002" r="1.6666666666666667" stroke="none" />
<circle cx="703.10" cy="488.65" fill="#0002" r="1.6666666666666667" stroke="none" />
<circle cx="703.31" cy="488.52" fill="#0002" r="1.6666666666666667" stroke="none" />
<circle cx="703.53" cy="489.17" fill="#0002" r="1.6666666666666667" stroke="none" />
<circle cx="703.74" cy="488.94" fill="#0002" r="1.6666666666666667" stroke="none" />
<circle cx="703.96" cy="489.29" fill="#0002" r="1.6666666666666667" stroke="none" />
<circle cx="704.16" cy="486.76" fill="#0002" r="1.6666666666666667" stroke="none" />
<circle cx="704.37" cy="488.19" fill="#0002" r="1.6666666666666667" stroke="none" />
<circle cx="704.57" cy="487.66" fill="#0002" r="1.6666666666666667" stroke="none" />
<circle cx="704.79" cy="488.98" fill="#0002" r="1.6666666666666667" stroke="none" />
<circle cx="705.00" cy="488.31" fill="#0002" r="1.6666666666666667" stroke="none" />
<circle cx="705.21" cy="488.93" fill="#0002" r="1.6666666666666667" stroke="none" />
<circle cx="705.43" cy="489.95" fill="#0002" r="1.6666666666666667" stroke="none" />
<circle cx="705.65" cy="489.07" fill="#0002" r="1.6666666666666667" stroke="none" />
<circle cx="705.86" cy="488.47" fill="#0002" r="1.6666666666666667" stroke="none" />
<circle cx="706.07" cy="489.11" fill="#0002" r="1.6666666666666667" stroke="none" />
<circle cx="706.28" cy="488.53" fill="#0002" r="1.6666666666666667" stroke="none" />
<circle cx="706.50" cy="490.24" fill="#0002" r="1.6666666666666667" stroke="none" />
<circle cx="706.72" cy="489.49" fill="#0002" r="1.6666666666666667" stroke="none" />
<circle cx="706.94" cy="489.97" fill="#0002" r="1.6666666666666667" stroke="none" />
<circle cx="707.80" cy="541.68" fill="#0002" r="1.6666666666666667" stroke="none" />
<circle cx="708.03" cy="490.71" fill="#0002" r="1.6666666666666667" stroke="none" />
<circle cx="708.24" cy="489.11" fill="#0002" r="1.6666666666666667" stroke="none" />
<circle cx="708.46" cy="488.95" fill="#0002" r="1.6666666666666667" stroke="none" />
<circle cx="708.67" cy="488.82" fill="#0002" r="1.6666666666666667" stroke="none" />
<circle cx="708.89" cy="489.81" fill="#0002" r="1.6666666666666667" stroke="none" />
<circle cx="709.11" cy="489.91" fill="#0002" r="1.6666666666666667" stroke="none" />
<circle cx="709.33" cy="489.89" fill="#0002" r="1.6666666666666667" stroke="none" />
<circle cx="709.55" cy="490.07" fill="#0002" r="1.6666666666666667" stroke="none" />
<circle cx="709.76" cy="489.21" fill="#0002" r="1.6666666666666667" stroke="none" />
<circle cx="709.99" cy="490.68" fill="#0002" r="1.6666666666666667" stroke="none" />
<circle cx="710.20" cy="489.63" fill="#0002" r="1.6666666666666667" stroke="none" />
<circle cx="710.42" cy="490.34" fill="#0002" r="1.6666666666666667" stroke="none" />
<circle cx="710.64" cy="489.59" fill="#0002" r="1.6666666666666667" stroke="none" />
<circle cx="710.86" cy="488.99" fill="#0002" r="1.6666666666666667" stroke="none" />
<circle cx="711.07" cy="489.66" fill="#0002" r="1.6666666666666667" stroke="none" />
<circle cx="711.29" cy="489.07" fill="#0002" r="1.6666666666666667" stroke="none" />
<circle cx="711.50" cy="488.06" fill="#0002" r="1.6666666666666667" stroke="none" />
<circle cx="711.72" cy="490.74" fill="#0002" r="1.6666666666666667" stroke="none" />
<circle cx="711.94" cy="490.16" fill="#0002" r="1.6666666666666667" stroke="none" />
<circle cx="712.16" cy="490.17" fill="#0002" r="1.6666666666666667" stroke="none" />
<circle cx="712.38" cy="489.85" fill="#0002" r="1.6666666666666667" stroke="none" />
<circle cx="712.61" cy="491.26" fill="#0002" r="1.6666666666666667" stroke="none" />
<circle cx="712.83" cy="490.86" fill="#0002" r="1.6666666666666667" stroke="none" />
<circle cx="713.05" cy="490.03" fill="#0002" r="1.6666666666666667" stroke="none" />
<circle cx="713.27" cy="488.98" fill="#0002" r="1.6666666666666667" stroke="none" />
<circle cx="713.47" cy="487.27" fill="#0002" r="1.6666666666666667" stroke="none" />
<circle cx="713.68" cy="487.45" fill="#0002" r="1.6666666666666667" stroke="none" />
<circle cx="713.88" cy="486.92" fill="#0002" r="1.6666666666666667" stroke="none" />
<circle cx="714.09" cy="487.49" fill="#0002" r="1.6666666666666667" stroke="none" />
<circle cx="714.29" cy="486.86" fill="#0002" r="1.6666666666666667" stroke="none" />
<circle cx="714.48" cy="485.94" fill="#0002" r="1.6666666666666667" stroke="none" />
<circle cx="714.69" cy="487.05" fill="#0002" r="1.6666666666666667" stroke="none" />
<circle cx="714.88" cy="485.54" fill="#0002" r="1.6666666666666667" stroke="none" />
<circle cx="715.08" cy="485.10" fill="#0002" r="1.6666666666666667" stroke="none" />
<circle cx="715.28" cy="486.94" fill="#0002" r="1.6666666666666667" stroke="none" />
<circle cx="715.48" cy="487.31" fill="#0002" r="1.6666666666666667" stroke="none" />
<circle cx="715.69" cy="486.71" fill="#0002" r="1.6666666666666667" stroke="none" />
<circle cx="715.89" cy="487.27" fill="#0002" r="1.6666666666666667" stroke="none" />
<circle cx="716.09" cy="486.32" fill="#0002" r="1.6666666666666667" stroke="none" />
<circle cx="716.30" cy="487.57" fill="#0002" r="1.6666666666666667" stroke="none" />
<circle cx="716.50" cy="487.53" fill="#0002" r="1.6666666666666667" stroke="none" />
<circle cx="716.70" cy="486.79" fill="#0002" r="1.6666666666666667" stroke="none" />
<circle cx="716.90" cy="486.33" fill="#0002" r="1.6666666666666667" stroke="none" />
<circle cx="717.12" cy="489.44" fill="#0002" r="1.6666666666666667" stroke="none" />
<circle cx="717.34" cy="490.43" fill="#0002" r="1.6666666666666667" stroke="none" />
<circle cx="717.56" cy="490.01" fill="#0002" r="1.6666666666666667" stroke="none" />
<circle cx="717.78" cy="489.70" fill="#0002" r="1.6666666666666667" stroke="none" />
<circle cx="718.00" cy="489.58" fill="#0002" r="1.6666666666666667" stroke="none" />
<circle cx="718.22" cy="491.02" fill="#0002" r="1.6666666666666667" stroke="none" />
<circle cx="718.44" cy="490.05" fill="#0002" r="1.6666666666666667" stroke="none" />
<circle cx="718.66" cy="490.07" fill="#0002" r="1.6666666666666667" stroke="none" />
<circle cx="718.88" cy="489.42" fill="#0002" r="1.6666666666666667" stroke="none" />
<circle cx="719.10" cy="489.87" fill="#0002" r="1.6666666666666667" stroke="none" />
<circle cx="719.32" cy="490.26" fill="#0002" r="1.6666666666666667" stroke="none" />
<circle cx="719.54" cy="490.20" fill="#0002" r="1.6666666666666667" stroke="none" />
<circle cx="719.76" cy="490.80" fill="#0002" r="1.6666666666666667" stroke="none" />
<circle cx="720.00" cy="491.92" fill="#0002" r="1.6666666666666667" stroke="none" />
<circle cx="720.22" cy="491.46" fill="#0002" r="1.6666666666666667" stroke="none" />
<circle cx="720.44" cy="489.94" fill="#0002" r="1.6666666666666667" stroke="none" />
<circle cx="720.66" cy="490.12" fill="#0002" r="1.6666666666666667" stroke="none" />
<circle cx="720.89" cy="491.26" fill="#0002" r="1.6666666666666667" stroke="none" />
<circle cx="721.11" cy="490.33" fill="#0002" r="1.6666666666666667" stroke="none" />
<circle cx="721.33" cy="489.36" fill="#0002" r="1.6666666666666667" stroke="none" />
<circle cx="721.56" cy="491.61" fill="#0002" r="1.6666666666666667" stroke="none" />
<circle cx="721.78" cy="490.91" fill="#0002" r="1.6666666666666667" stroke="none" />
<circle cx="722.01" cy="491.59" fill="#0002" r="1.6666666666666667" stroke="none" />
<circle cx="722.24" cy="491.68" fill="#0002" r="1.6666666666666667" stroke="none" />
<circle cx="722.47" cy="490.97" fill="#0002" r="1.6666666666666667" stroke="none" />
<circle cx="722.69" cy="491.18" fill="#0002" r="1.6666666666666667" stroke="none" />
<circle cx="722.92" cy="490.94" fill="#0002" r="1.6666666666666667" stroke="none" />
<circle cx="723.15" cy="491.36" fill="#0002" r="1.6666666666666667" stroke="none" />
<circle cx="723.38" cy="491.41" fill="#0002" r="1.6666666666666667" stroke="none" />
<circle cx="723.61" cy="491.75" fill="#0002" r="1.6666666666666667" stroke="none" />
<circle cx="723.84" cy="491.92" fill="#0002" r="1.6666666666666667" stroke="none" />
<circle cx="724.06" cy="490.76" fill="#0002" r="1.6666666666666667" stroke="none" />
<circle cx="724.29" cy="491.49" fill="#0002" r="1.6666666666666667" stroke="none" />
<circle cx="724.51" cy="490.89" fill="#0002" r="1.6666666666666667" stroke="none" />
<circle cx="724.74" cy="491.04" fill="#0002" r="1.6666666666666667" stroke="none" />
<circle cx="724.97" cy="492.00" fill="#0002" r="1.6666666666666667" stroke="none" />
<circle cx="725.20" cy="490.68" fill="#0002" r="1.6666666666666667" stroke="none" />
<circle cx="725.42" cy="491.28" fill="#0002" r="1.6666666666666667" stroke="none" />
<circle cx="725.66" cy="492.54" fill="#0002" r="1.6666666666666667" stroke="none" />
<circle cx="725.88" cy="489.52" fill="#0002" r="1.6666666666666667" stroke="none" />
<circle cx="726.10" cy="490.38" fill="#0002" r="1.6666666666666667" stroke="none" />
<circle cx="726.33" cy="491.46" fill="#0002" r="1.6666666666666667" stroke="none" />
<circle cx="726.55" cy="490.23" fill="#0002" r="1.6666666666666667" stroke="none" />
<circle cx="726.78" cy="492.11" fill="#0002" r="1.6666666666666667" stroke="none" />
<circle cx="727.01" cy="492.15" fill="#0002" r="1.6666666666666667" stroke="none" />
<circle cx="727.25" cy="493.43" fill="#0002" r="1.6666666666666667" stroke="none" />
<circle cx="727.49" cy="493.31" fill="#0002" r="1.6666666666666667" stroke="none" />
<circle cx="727.72" cy="490.62" fill="#0002" r="1.6666666666666667" stroke="none" />
<circle cx="727.94" cy="490.94" fill="#0002" r="1.6666666666666667" stroke="none" />
<circle cx="728.17" cy="491.81" fill="#0002" r="1.6666666666666667" stroke="none" />
<circle cx="728.41" cy="492.39" fill="#0002" r="1.6666666666666667" stroke="none" />
<circle cx="728.63" cy="490.82" fill="#0002" r="1.6666666666666667" stroke="none" />
<circle cx="728.86" cy="491.60" fill="#0002" r="1.6666666666666667" stroke="none" />
<circle cx="729.10" cy="492.89" fill="#0002" r="1.6666666666666667" stroke="none" />
<circle cx="729.33" cy="491.52" fill="#0002" r="1.6666666666666667" stroke="none" />
<circle cx="729.56" cy="492.18" fill="#0002" r="1.6666666666666667" stroke="none" />
<circle cx="729.79" cy="492.31" fill="#0002" r="1.6666666666666667" stroke="none" />
<circle cx="730.02" cy="491.98" fill="#0002" r="1.6666666666666667" stroke="none" />
<circle cx="730.25" cy="491.37" fill="#0002" r="1.6666666666666667" stroke="none" />
<circle cx="730.47" cy="490.12" fill="#0002" r="1.6666666666666667" stroke="none" />
<circle cx="730.69" cy="490.26" fill="#0002" r="1.6666666666666667" stroke="none" />
<circle cx="730.92" cy="491.79" fill="#0002" r="1.6666666666666667" stroke="none" />
<circle cx="731.16" cy="493.47" fill="#0002" r="1.6666666666666667" stroke="none" />
<circle cx="731.40" cy="491.93" fill="#0002" r="1.6666666666666667" stroke="none" />
<circle cx="731.63" cy="491.86" fill="#0002" r="1.6666666666666667" stroke="none" />
<circle cx="731.86" cy="492.47" fill="#0002" r="1.6666666666666667" stroke="none" />
<circle cx="732.09" cy="491.93" fill="#0002" r="1.6666666666666667" stroke="none" />
<circle cx="732.32" cy="491.50" fill="#0002" r="1.6666666666666667" stroke="none" />
<circle cx="732.54" cy="490.42" fill="#0002" r="1.6666666666666667" stroke="none" />
<circle cx="732.77" cy="491.07" fill="#0002" r="1.6666666666666667" stroke="none" />
<circle cx="733.01" cy="493.19" fill="#0002" r="1.6666666666666667" stroke="none" />
<circle cx="733.24" cy="492.40" fill="#0002" r="1.6666666666666667" stroke="none" />
<circle cx="733.48" cy="492.34" fill="#0002" r="1.6666666666666667" stroke="none" />
<circle cx="733.71" cy="492.85" fill="#0002" r="1.6666666666666667" stroke="none" />
<circle cx="733.95" cy="493.11" fill="#0002" r="1.6666666666666667" stroke="none" />
<circle cx="734.19" cy="493.45" fill="#0002" r="1.6666666666666667" stroke="none" />
<circle cx="734.43" cy="492.64" fill="#0002" r="1.6666666666666667" stroke="none" />
<circle cx="734.67" cy="493.81" fill="#0002" r="1.6666666666666667" stroke="none" />
<circle cx="734.90" cy="491.95" fill="#0002" r="1.6666666666666667" stroke="none" />
<circle cx="735.13" cy="490.43" fill="#0002" r="1.6666666666666667" stroke="none" />
<circle cx="735.36" cy="491.65" fill="#0002" r="1.6666666666666667" stroke="none" />
<circle cx="735.58" cy="491.19" fill="#0002" r="1.6666666666666667" stroke="none" />
<circle cx="735.82" cy="493.11" fill="#0002" r="1.6666666666666667" stroke="none" />
<circle cx="736.05" cy="492.22" fill="#0002" r="1.6666666666666667" stroke="none" />
<circle cx="736.29" cy="492.18" fill="#0002" r="1.6666666666666667" stroke="none" />
<circle cx="736.54" cy="494.93" fill="#0002" r="1.6666666666666667" stroke="none" />
<circle cx="736.78" cy="493.21" fill="#0002" r="1.6666666666666667" stroke="none" />
<circle cx="737.01" cy="492.44" fill="#0002" r="1.6666666666666667" stroke="none" />
<circle cx="737.25" cy="493.94" fill="#0002" r="1.6666666666666667" stroke="none" />
<circle cx="737.50" cy="493.39" fill="#0002" r="1.6666666666666667" stroke="none" />
<circle cx="737.74" cy="493.67" fill="#0002" r="1.6666666666666667" stroke="none" />
<circle cx="737.98" cy="493.55" fill="#0002" r="1.6666666666666667" stroke="none" />
<circle cx="738.94" cy="545.74" fill="#0002" r="1.6666666666666667" stroke="none" />
<circle cx="739.18" cy="492.76" fill="#0002" r="1.6666666666666667" stroke="none" />
<circle cx="739.42" cy="493.69" fill="#0002" r="1.6666666666666667" stroke="none" />
<circle cx="739.66" cy="493.54" fill="#0002" r="1.6666666666666667" stroke="none" />
<circle cx="739.90" cy="493.97" fill="#0002" r="1.6666666666666667" stroke="none" />
<circle cx="740.15" cy="494.56" fill="#0002" r="1.6666666666666667" stroke="none" />
<circle cx="740.40" cy="493.89" fill="#0002" r="1.6666666666666667" stroke="none" />
<circle cx="740.63" cy="492.76" fill="#0002" r="1.6666666666666667" stroke="none" />
<circle cx="740.87" cy="493.17" fill="#0002" r="1.6666666666666667" stroke="none" />
<circle cx="741.12" cy="494.39" fill="#0002" r="1.6666666666666667" stroke="none" />
<circle cx="741.36" cy="493.96" fill="#0002" r="1.6666666666666667" stroke="none" />
<circle cx="741.60" cy="493.12" fill="#0002" r="1.6666666666666667" stroke="none" />
<circle cx="741.85" cy="495.23" fill="#0002" r="1.6666666666666667" stroke="none" />
<circle cx="742.11" cy="495.45" fill="#0002" r="1.6666666666666667" stroke="none" />
<circle cx="742.35" cy="494.00" fill="#0002" r="1.6666666666666667" stroke="none" />
<circle cx="742.59" cy="493.67" fill="#0002" r="1.6666666666666667" stroke="none" />
<circle cx="742.84" cy="494.90" fill="#0002" r="1.6666666666666667" stroke="none" />
<circle cx="743.08" cy="493.16" fill="#0002" r="1.6666666666666667" stroke="none" />
<circle cx="743.33" cy="494.39" fill="#0002" r="1.6666666666666667" stroke="none" />
<circle cx="743.57" cy="492.73" fill="#0002" r="1.6666666666666667" stroke="none" />
<circle cx="743.80" cy="492.98" fill="#0002" r="1.6666666666666667" stroke="none" />
<circle cx="744.05" cy="494.28" fill="#0002" r="1.6666666666666667" stroke="none" />
<circle cx="744.29" cy="493.27" fill="#0002" r="1.6666666666666667" stroke="none" />
<circle cx="744.53" cy="494.06" fill="#0002" r="1.6666666666666667" stroke="none" />
<circle cx="744.78" cy="494.78" fill="#0002" r="1.6666666666666667" stroke="none" />
<circle cx="745.04" cy="495.10" fill="#0002" r="1.6666666666666667" stroke="none" />
<circle cx="745.28" cy="494.20" fill="#0002" r="1.6666666666666667" stroke="none" />
<circle cx="745.53" cy="495.36" fill="#0002" r="1.6666666666666667" stroke="none" />
<circle cx="745.79" cy="495.05" fill="#0002" r="1.6666666666666667" stroke="none" />
<circle cx="746.05" cy="496.25" fill="#0002" r="1.6666666666666667" stroke="none" />
<circle cx="746.30" cy="495.11" fill="#0002" r="1.6666666666666667" stroke="none" />
<circle cx="746.55" cy="495.49" fill="#0002" r="1.6666666666666667" stroke="none" />
<circle cx="746.80" cy="495.02" fill="#0002" r="1.6666666666666667" stroke="none" />
<circle cx="747.05" cy="495.03" fill="#0002" r="1.6666666666666667" stroke="none" />
<circle cx="747.30" cy="494.58" fill="#0002" r="1.6666666666666667" stroke="none" />
<circle cx="747.55" cy="495.43" fill="#0002" r="1.6666666666666667" stroke="none" />
<circle cx="747.81" cy="494.92" fill="#0002" r="1.6666666666666667" stroke="none" />
<circle cx="748.05" cy="494.38" fill="#0002" r="1.6666666666666667" stroke="none" />
<circle cx="748.30" cy="494.82" fill="#0002" r="1.6666666666666667" stroke="none" />
<circle cx="748.55" cy="495.25" fill="#0002" r="1.6666666666666667" stroke="none" />
<circle cx="748.80" cy="494.91" fill="#0002" r="1.6666666666666667" stroke="none" />
<circle cx="749.06" cy="495.39" fill="#0002" r="1.6666666666666667" stroke="none" />
<circle cx="749.31" cy="495.58" fill="#0002" r="1.6666666666666667" stroke="none" />
<circle cx="749.57" cy="495.48" fill="#0002" r="1.6666666666666667" stroke="none" />
<circle cx="749.81" cy="493.53" fill="#0002" r="1.6666666666666667" stroke="none" />
<circle cx="750.05" cy="493.91" fill="#0002" r="1.6666666666666667" stroke="none" />
<circle cx="750.30" cy="495.03" fill="#0002" r="1.6666666666666667" stroke="none" />
<circle cx="750.56" cy="495.38" fill="#0002" r="1.6666666666666667" stroke="none" />
<circle cx="750.81" cy="495.03" fill="#0002" r="1.6666666666666667" stroke="none" />
<circle cx="751.06" cy="495.97" fill="#0002" r="1.6666666666666667" stroke="none" />
<circle cx="751.32" cy="495.55" fill="#0002" r="1.6666666666666667" stroke="none" />
<circle cx="751.57" cy="495.51" fill="#0002" r="1.6666666666666667" stroke="none" />
<circle cx="751.82" cy="494.60" fill="#0002" r="1.6666666666666667" stroke="none" />
<circle cx="752.07" cy="494.47" fill="#0002" r="1.6666666666666667" stroke="none" />
<circle cx="752.32" cy="495.71" fill="#0002" r="1.6666666666666667" stroke="none" />
<circle cx="752.59" cy="496.39" fill="#0002" r="1.6666666666666667" stroke="none" />
<circle cx="752.84" cy="495.81" fill="#0002" r="1.6666666666666667" stroke="none" />
<circle cx="753.10" cy="495.86" fill="#0002" r="1.6666666666666667" stroke="none" />
<circle cx="753.35" cy="495.10" fill="#0002" r="1.6666666666666667" stroke="none" />
<circle cx="753.60" cy="494.85" fill="#0002" r="1.6666666666666667" stroke="none" />
<circle cx="753.85" cy="495.68" fill="#0002" r="1.6666666666666667" stroke="none" />
<circle cx="754.11" cy="495.16" fill="#0002" r="1.6666666666666667" stroke="none" />
<circle cx="754.36" cy="495.50" fill="#0002" r="1.6666666666666667" stroke="none" />
<circle cx="754.62" cy="496.42" fill="#0002" r="1.6666666666666667" stroke="none" />
<circle cx="754.88" cy="496.20" fill="#0002" r="1.6666666666666667" stroke="none" />
<circle cx="755.13" cy="494.26" fill="#0002" r="1.6666666666666667" stroke="none" />
<circle cx="755.38" cy="494.89" fill="#0002" r="1.6666666666666667" stroke="none" />
<circle cx="755.62" cy="494.45" fill="#0002" r="1.6666666666666667" stroke="none" />
<circle cx="755.88" cy="496.20" fill="#0002" r="1.6666666666666667" stroke="none" />
<circle cx="756.14" cy="495.50" fill="#0002" r="1.6666666666666667" stroke="none" />
<circle cx="756.40" cy="496.39" fill="#0002" r="1.6666666666666667" stroke="none" />
<circle cx="756.66" cy="497.35" fill="#0002" r="1.6666666666666667" stroke="none" />
<circle cx="756.92" cy="494.96" fill="#0002" r="1.6666666666666667" stroke="none" />
<circle cx="757.17" cy="494.89" fill="#0002" r="1.6666666666666667" stroke="none" />
<circle cx="757.42" cy="496.14" fill="#0002" r="1.6666666666666667" stroke="none" />
<circle cx="757.68" cy="496.32" fill="#0002" r="1.6666666666666667" stroke="none" />
<circle cx="757.94" cy="495.97" fill="#0002" r="1.6666666666666667" stroke="none" />
<circle cx="758.21" cy="497.26" fill="#0002" r="1.6666666666666667" stroke="none" />
<circle cx="758.47" cy="496.75" fill="#0002" r="1.6666666666666667" stroke="none" />
<circle cx="758.73" cy="496.32" fill="#0002" r="1.6666666666666667" stroke="none" />
<circle cx="758.99" cy="495.73" fill="#0002" r="1.6666666666666667" stroke="none" />
<circle cx="759.24" cy="496.03" fill="#0002" r="1.6666666666666667" stroke="none" />
<circle cx="759.50" cy="496.56" fill="#0002" r="1.6666666666666667" stroke="none" />
<circle cx="759.76" cy="496.35" fill="#0002" r="1.6666666666666667" stroke="none" />
<circle cx="760.03" cy="497.10" fill="#0002" r="1.6666666666666667" stroke="none" />
<circle cx="760.30" cy="497.33" fill="#0002" r="1.6666666666666667" stroke="none" />
<circle cx="760.55" cy="495.87" fill="#0002" r="1.6666666666666667" stroke="none" />
<circle cx="760.81" cy="496.14" fill="#0002" r="1.6666666666666667" stroke="none" />
<circle cx="761.07" cy="495.95" fill="#0002" r="1.6666666666666667" stroke="none" />
<circle cx="761.32" cy="495.59" fill="#0002" r="1.6666666666666667" stroke="none" />
<circle cx="761.58" cy="495.58" fill="#0002" r="1.6666666666666667" stroke="none" />
<circle cx="761.84" cy="496.82" fill="#0002" r="1.6666666666666667" stroke="none" />
<circle cx="762.11" cy="497.67" fill="#0002" r="1.6666666666666667" stroke="none" />
<circle cx="762.37" cy="496.13" fill="#0002" r="1.6666666666666667" stroke="none" />
<circle cx="762.64" cy="497.07" fill="#0002" r="1.6666666666666667" stroke="none" />
<circle cx="762.90" cy="497.10" fill="#0002" r="1.6666666666666667" stroke="none" />
<circle cx="763.18" cy="499.10" fill="#0002" r="1.6666666666666667" stroke="none" />
<circle cx="763.45" cy="498.37" fill="#0002" r="1.6666666666666667" stroke="none" />
<circle cx="763.74" cy="499.30" fill="#0002" r="1.6666666666666667" stroke="none" />
<circle cx="764.01" cy="498.97" fill="#0002" r="1.6666666666666667" stroke="none" />
<circle cx="764.28" cy="497.88" fill="#0002" r="1.6666666666666667" stroke="none" />
<circle cx="764.56" cy="498.59" fill="#0002" r="1.6666666666666667" stroke="none" />
<circle cx="764.83" cy="498.25" fill="#0002" r="1.6666666666666667" stroke="none" />
<circle cx="765.11" cy="498.24" fill="#0002" r="1.6666666666666667" stroke="none" />
<circle cx="765.38" cy="497.47" fill="#0002" r="1.6666666666666667" stroke="none" />
<circle cx="765.65" cy="499.04" fill="#0002" r="1.6666666666666667" stroke="none" />
<circle cx="765.93" cy="497.90" fill="#0002" r="1.6666666666666667" stroke="none" />
<circle cx="766.19" cy="497.15" fill="#0002" r="1.6666666666666667" stroke="none" />
<circle cx="766.45" cy="496.85" fill="#0002" r="1.6666666666666667" stroke="none" />
<circle cx="766.72" cy="496.89" fill="#0002" r="1.6666666666666667" stroke="none" />
<circle cx="767.00" cy="498.91" fill="#0002" r="1.6666666666666667" stroke="none" />
<circle cx="767.28" cy="498.99" fill="#0002" r="1.6666666666666667" stroke="none" />
<circle cx="768.09" cy="539.62" fill="#0002" r="1.6666666666666667" stroke="none" />
<circle cx="768.36" cy="498.00" fill="#0002" r="1.6666666666666667" stroke="none" />
<circle cx="768.63" cy="497.63" fill="#0002" r="1.6666666666666667" stroke="none" />
<circle cx="768.91" cy="498.13" fill="#0002" r="1.6666666666666667" stroke="none" />
<circle cx="769.18" cy="497.78" fill="#0002" r="1.6666666666666667" stroke="none" />
<circle cx="769.46" cy="499.49" fill="#0002" r="1.6666666666666667" stroke="none" />
<circle cx="769.72" cy="496.58" fill="#0002" r="1.6666666666666667" stroke="none" />
<circle cx="769.99" cy="497.62" fill="#0002" r="1.6666666666666667" stroke="none" />
<circle cx="770.27" cy="499.29" fill="#0002" r="1.6666666666666667" stroke="none" />
<circle cx="770.54" cy="498.00" fill="#0002" r="1.6666666666666667" stroke="none" />
<circle cx="770.82" cy="498.67" fill="#0002" r="1.6666666666666667" stroke="none" />
<circle cx="771.09" cy="498.52" fill="#0002" r="1.6666666666666667" stroke="none" />
<circle cx="771.38" cy="500.43" fill="#0002" r="1.6666666666666667" stroke="none" />
<circle cx="771.65" cy="497.17" fill="#0002" r="1.6666666666666667" stroke="none" />
<circle cx="771.92" cy="498.39" fill="#0002" r="1.6666666666666667" stroke="none" />
<circle cx="772.21" cy="499.41" fill="#0002" r="1.6666666666666667" stroke="none" />
<circle cx="772.48" cy="498.10" fill="#0002" r="1.6666666666666667" stroke="none" />
<circle cx="772.76" cy="499.11" fill="#0002" r="1.6666666666666667" stroke="none" />
<circle cx="773.03" cy="498.35" fill="#0002" r="1.6666666666666667" stroke="none" />
<circle cx="773.31" cy="498.47" fill="#0002" r="1.6666666666666667" stroke="none" />
<circle cx="773.58" cy="498.23" fill="#0002" r="1.6666666666666667" stroke="none" />
<circle cx="773.85" cy="497.44" fill="#0002" r="1.6666666666666667" stroke="none" />
<circle cx="774.13" cy="499.12" fill="#0002" r="1.6666666666666667" stroke="none" />
<circle cx="774.40" cy="498.02" fill="#0002" r="1.6666666666666667" stroke="none" />
<circle cx="774.69" cy="499.99" fill="#0002" r="1.6666666666666667" stroke="none" />
<circle cx="774.97" cy="500.11" fill="#0002" r="1.6666666666666667" stroke="none" />
<circle cx="775.26" cy="500.10" fill="#0002" r="1.6666666666666667" stroke="none" />
<circle cx="775.54" cy="499.79" fill="#0002" r="1.6666666666666667" stroke="none" />
<circle cx="775.83" cy="499.91" fill="#0002" r="1.6666666666666667" stroke="none" />
<circle cx="776.12" cy="500.48" fill="#0002" r="1.6666666666666667" stroke="none" />
<circle cx="776.41" cy="500.02" fill="#0002" r="1.6666666666666667" stroke="none" />
<circle cx="776.69" cy="499.21" fill="#0002" r="1.6666666666666667" stroke="none" />
<circle cx="776.98" cy="500.29" fill="#0002" r="1.6666666666666667" stroke="none" />
<circle cx="777.26" cy="499.86" fill="#0002" r="1.6666666666666667" stroke="none" />
<circle cx="777.55" cy="500.01" fill="#0002" r="1.6666666666666667" stroke="none" />
<circle cx="777.84" cy="500.28" fill="#0002" r="1.6666666666666667" stroke="none" />
<circle cx="778.12" cy="500.04" fill="#0002" r="1.6666666666666667" stroke="none" />
<circle cx="778.41" cy="500.55" fill="#0002" r="1.6666666666666667" stroke="none" />
<circle cx="778.70" cy="500.52" fill="#0002" r="1.6666666666666667" stroke="none" />
<circle cx="778.99" cy="499.38" fill="#0002" r="1.6666666666666667" stroke="none" />
<circle cx="779.27" cy="499.64" fill="#0002" r="1.6666666666666667" stroke="none" />
<circle cx="779.57" cy="501.46" fill="#0002" r="1.6666666666666667" stroke="none" />
<circle cx="779.86" cy="500.18" fill="#0002" r="1.6666666666666667" stroke="none" />
<circle cx="780.15" cy="501.48" fill="#0002" r="1.6666666666666667" stroke="none" />
<circle cx="780.44" cy="500.48" fill="#0002" r="1.6666666666666667" stroke="none" />
<circle cx="780.73" cy="499.85" fill="#0002" r="1.6666666666666667" stroke="none" />
<circle cx="781.01" cy="498.96" fill="#0002" r="1.6666666666666667" stroke="none" />
<circle cx="781.30" cy="500.49" fill="#0002" r="1.6666666666666667" stroke="none" />
<circle cx="781.59" cy="500.36" fill="#0002" r="1.6666666666666667" stroke="none" />
<circle cx="781.87" cy="500.11" fill="#0002" r="1.6666666666666667" stroke="none" />
<circle cx="782.17" cy="501.18" fill="#0002" r="1.6666666666666667" stroke="none" />
<circle cx="782.46" cy="500.79" fill="#0002" r="1.6666666666666667" stroke="none" />
<circle cx="782.75" cy="499.76" fill="#0002" r="1.6666666666666667" stroke="none" />
<circle cx="783.04" cy="500.44" fill="#0002" r="1.6666666666666667" stroke="none" />
<circle cx="783.33" cy="500.83" fill="#0002" r="1.6666666666666667" stroke="none" />
<circle cx="783.62" cy="500.67" fill="#0002" r="1.6666666666666667" stroke="none" />
<circle cx="783.92" cy="501.48" fill="#0002" r="1.6666666666666667" stroke="none" />
<circle cx="784.21" cy="500.63" fill="#0002" r="1.6666666666666667" stroke="none" />
<circle cx="784.50" cy="500.58" fill="#0002" r="1.6666666666666667" stroke="none" />
<circle cx="784.80" cy="502.25" fill="#0002" r="1.6666666666666667" stroke="none" />
<circle cx="785.11" cy="502.85" fill="#0002" r="1.6666666666666667" stroke="none" />
<circle cx="785.41" cy="501.75" fill="#0002" r="1.6666666666666667" stroke="none" />
<circle cx="785.72" cy="502.32" fill="#0002" r="1.6666666666666667" stroke="none" />
<circle cx="786.02" cy="502.37" fill="#0002" r="1.6666666666666667" stroke="none" />
<circle cx="786.32" cy="501.90" fill="#0002" r="1.6666666666666667" stroke="none" />
<circle cx="786.63" cy="502.84" fill="#0002" r="1.6666666666666667" stroke="none" />
<circle cx="786.94" cy="502.87" fill="#0002" r="1.6666666666666667" stroke="none" />
<circle cx="787.24" cy="501.90" fill="#0002" r="1.6666666666666667" stroke="none" />
<circle cx="787.55" cy="502.75" fill="#0002" r="1.6666666666666667" stroke="none" />
<circle cx="787.86" cy="502.68" fill="#0002" r="1.6666666666666667" stroke="none" />
<circle cx="788.17" cy="502.73" fill="#0002" r="1.6666666666666667" stroke="none" />
<circle cx="788.47" cy="502.14" fill="#0002" r="1.6666666666666667" stroke="none" />
<circle cx="788.78" cy="503.53" fill="#0002" r="1.6666666666666667" stroke="none" />
<circle cx="789.09" cy="502.85" fill="#0002" r="1.6666666666666667" stroke="none" />
<circle cx="789.40" cy="503.31" fill="#0002" r="1.6666666666666667" stroke="none" />
<circle cx="789.73" cy="504.26" fill="#0002" r="1.6666666666666667" stroke="none" />
<circle cx="790.03" cy="502.50" fill="#0002" r="1.6666666666666667" stroke="none" />
<circle cx="790.34" cy="503.10" fill="#0002" r="1.6666666666666667" stroke="none" />
<circle cx="790.66" cy="504.01" fill="#0002" r="1.6666666666666667" stroke="none" />
<circle cx="790.97" cy="502.85" fill="#0002" r="1.6666666666666667" stroke="none" />
<circle cx="791.28" cy="503.58" fill="#0002" r="1.6666666666666667" stroke="none" />
<circle cx="791.60" cy="503.56" fill="#0002" r="1.6666666666666667" stroke="none" />
<circle cx="791.91" cy="503.65" fill="#0002" r="1.6666666666666667" stroke="none" />
<circle cx="792.24" cy="505.01" fill="#0002" r="1.6666666666666667" stroke="none" />
<circle cx="792.55" cy="503.29" fill="#0002" r="1.6666666666666667" stroke="none" />
<circle cx="792.86" cy="503.10" fill="#0002" r="1.6666666666666667" stroke="none" />
<circle cx="793.18" cy="504.22" fill="#0002" r="1.6666666666666667" stroke="none" />
<circle cx="793.50" cy="503.63" fill="#0002" r="1.6666666666666667" stroke="none" />
<circle cx="793.81" cy="502.95" fill="#0002" r="1.6666666666666667" stroke="none" />
<circle cx="794.13" cy="503.77" fill="#0002" r="1.6666666666666667" stroke="none" />
<circle cx="794.44" cy="504.00" fill="#0002" r="1.6666666666666667" stroke="none" />
<circle cx="794.75" cy="502.30" fill="#0002" r="1.6666666666666667" stroke="none" />
<circle cx="795.07" cy="504.44" fill="#0002" r="1.6666666666666667" stroke="none" />
<circle cx="795.39" cy="503.51" fill="#0002" r="1.6666666666666667" stroke="none" />
<circle cx="795.71" cy="504.63" fill="#0002" r="1.6666666666666667" stroke="none" />
<circle cx="796.03" cy="504.26" fill="#0002" r="1.6666666666666667" stroke="none" />
<circle cx="796.36" cy="504.88" fill="#0002" r="1.6666666666666667" stroke="none" />
<circle cx="797.33" cy="546.36" fill="#0002" r="1.6666666666666667" stroke="none" />
<circle cx="797.68" cy="506.67" fill="#0002" r="1.6666666666666667" stroke="none" />
<circle cx="798.01" cy="506.39" fill="#0002" r="1.6666666666666667" stroke="none" />
<circle cx="798.34" cy="504.97" fill="#0002" r="1.6666666666666667" stroke="none" />
<circle cx="798.68" cy="506.51" fill="#0002" r="1.6666666666666667" stroke="none" />
<circle cx="799.02" cy="506.36" fill="#0002" r="1.6666666666666667" stroke="none" />
<circle cx="799.36" cy="506.45" fill="#0002" r="1.6666666666666667" stroke="none" />
<circle cx="799.70" cy="506.35" fill="#0002" r="1.6666666666666667" stroke="none" />
<circle cx="800.05" cy="507.27" fill="#0002" r="1.6666666666666667" stroke="none" />
<circle cx="800.40" cy="507.79" fill="#0002" r="1.6666666666666667" stroke="none" />
<circle cx="800.74" cy="507.00" fill="#0002" r="1.6666666666666667" stroke="none" />
<circle cx="801.09" cy="507.10" fill="#0002" r="1.6666666666666667" stroke="none" />
<circle cx="801.43" cy="507.19" fill="#0002" r="1.6666666666666667" stroke="none" />
<circle cx="801.79" cy="507.81" fill="#0002" r="1.6666666666666667" stroke="none" />
<circle cx="802.13" cy="507.25" fill="#0002" r="1.6666666666666667" stroke="none" />
<circle cx="802.49" cy="508.05" fill="#0002" r="1.6666666666666667" stroke="none" />
<circle cx="802.83" cy="507.02" fill="#0002" r="1.6666666666666667" stroke="none" />
<circle cx="803.19" cy="508.15" fill="#0002" r="1.6666666666666667" stroke="none" />
<circle cx="803.54" cy="507.87" fill="#0002" r="1.6666666666666667" stroke="none" />
<circle cx="803.89" cy="507.05" fill="#0002" r="1.6666666666666667" stroke="none" />
<circle cx="804.24" cy="507.92" fill="#0002" r="1.6666666666666667" stroke="none" />
<circle cx="804.58" cy="506.99" fill="#0002" r="1.6666666666666667" stroke="none" />
<circle cx="804.95" cy="508.70" fill="#0002" r="1.6666666666666667" stroke="none" />
<circle cx="805.31" cy="509.47" fill="#0002" r="1.6666666666666667" stroke="none" />
<circle cx="805.67" cy="508.34" fill="#0002" r="1.6666666666666667" stroke="none" />
<circle cx="806.03" cy="508.93" fill="#0002" r="1.6666666666666667" stroke="none" />
<circle cx="806.39" cy="508.36" fill="#0002" r="1.6666666666666667" stroke="none" />
<circle cx="806.75" cy="508.07" fill="#0002" r="1.6666666666666667" stroke="none" />
<circle cx="807.10" cy="508.32" fill="#0002" r="1.6666666666666667" stroke="none" />
<circle cx="807.46" cy="508.39" fill="#0002" r="1.6666666666666667" stroke="none" />
<circle cx="807.81" cy="507.63" fill="#0002" r="1.6666666666666667" stroke="none" />
<circle cx="808.17" cy="508.39" fill="#0002" r="1.6666666666666667" stroke="none" />
<circle cx="808.54" cy="509.80" fill="#0002" r="1.6666666666666667" stroke="none" />
<circle cx="808.92" cy="510.93" fill="#0002" r="1.6666666666666667" stroke="none" />
<circle cx="809.29" cy="509.32" fill="#0002" r="1.6666666666666667" stroke="none" />
<circle cx="809.67" cy="510.81" fill="#0002" r="1.6666666666666667" stroke="none" />
<circle cx="810.04" cy="509.74" fill="#0002" r="1.6666666666666667" stroke="none" />
<circle cx="810.41" cy="510.08" fill="#0002" r="1.6666666666666667" stroke="none" />
<circle cx="810.80" cy="511.21" fill="#0002" r="1.6666666666666667" stroke="none" />
<circle cx="811.19" cy="511.92" fill="#0002" r="1.6666666666666667" stroke="none" />
<circle cx="811.58" cy="511.03" fill="#0002" r="1.6666666666666667" stroke="none" />
<circle cx="811.97" cy="511.67" fill="#0002" r="1.6666666666666667" stroke="none" />
<circle cx="812.38" cy="514.03" fill="#0002" r="1.6666666666666667" stroke="none" />
<circle cx="812.79" cy="513.30" fill="#0002" r="1.6666666666666667" stroke="none" />
<circle cx="813.19" cy="512.68" fill="#0002" r="1.6666666666666667" stroke="none" />
<circle cx="813.59" cy="512.32" fill="#0002" r="1.6666666666666667" stroke="none" />
<circle cx="813.99" cy="513.13" fill="#0002" r="1.6666666666666667" stroke="none" />
<circle cx="814.42" cy="515.33" fill="#0002" r="1.6666666666666667" stroke="none" />
<circle cx="814.82" cy="512.86" fill="#0002" r="1.6666666666666667" stroke="none" />
<circle cx="815.23" cy="513.22" fill="#0002" r="1.6666666666666667" stroke="none" />
<circle cx="815.63" cy="513.00" fill="#0002" r="1.6666666666666667" stroke="none" />
<circle cx="816.11" cy="519.24" fill="#0002" r="1.6666666666666667" stroke="none" />
<circle cx="816.52" cy="513.50" fill="#0002" r="1.6666666666666667" stroke="none" />
<circle cx="816.92" cy="512.87" fill="#0002" r="1.6666666666666667" stroke="none" />
<circle cx="817.33" cy="512.99" fill="#0002" r="1.6666666666666667" stroke="none" />
<circle cx="817.84" cy="522.25" fill="#0002" r="1.6666666666666667" stroke="none" />
<circle cx="818.27" cy="515.26" fill="#0002" r="1.6666666666666667" stroke="none" />
<circle cx="818.70" cy="515.22" fill="#0002" r="1.6666666666666667" stroke="none" />
<circle cx="819.12" cy="514.75" fill="#0002" r="1.6666666666666667" stroke="none" />
<circle cx="819.65" cy="522.73" fill="#0002" r="1.6666666666666667" stroke="none" />
<circle cx="820.08" cy="515.86" fill="#0002" r="1.6666666666666667" stroke="none" />
<circle cx="820.53" cy="516.71" fill="#0002" r="1.6666666666666667" stroke="none" />
<circle cx="821.00" cy="518.59" fill="#0002" r="1.6666666666666667" stroke="none" />
<circle cx="821.47" cy="518.62" fill="#0002" r="1.6666666666666667" stroke="none" />
<circle cx="821.91" cy="516.34" fill="#0002" r="1.6666666666666667" stroke="none" />
</g>
<g stroke="black">
<line x1="922.24" x2="922.24" y1="570.00" y2="580.00" />
<line x1="867.40" x2="867.40" y1="570.00" y2="580.00" />
<line x1="810.73" x2="810.73" y1="570.00" y2="580.00" />
<line x1="757.71" x2="757.71" y1="570.00" y2="580.00" />
<line x1="701.04" x2="701.04" y1="570.00" y2="580.00" />
<line x1="644.36" x2="644.36" y1="570.00" y2="580.00" />
<line x1="589.52" x2="589.52" y1="570.00" y2="580.00" />
<line x1="532.85" x2="532.85" y1="570.00" y2="580.00" />
<line x1="478.00" x2="478.00" y1="570.00" y2="580.00" />
<line x1="421.33" x2="421.33" y1="570.00" y2="580.00" />
<line x1="364.66" x2="364.66" y1="570.00" y2="580.00" />
<line x1="309.81" x2="309.81" y1="570.00" y2="580.00" />
<line x1="253.14" x2="253.14" y1="570.00" y2="580.00" />
<line x1="198.30" x2="198.30" y1="570.00" y2="580.00" />
<line x1="141.62" x2="141.62" y1="570.00" y2="580.00" />
<line x1="90.44" x2="90.44" y1="570.00" y2="580.00" />
<g fill="black" font-family="Arial, sans-serif" font-size="18.0" stroke="none" text-anchor="start" transform="translate(9.0 0.0)">
<text x="922.24" y="590.57">May</text>
<text x="867.40" y="590.57">Apr</text>
<text x="810.73" y="590.57">Mar</text>
<text x="757.71" y="590.57">Feb</text>
<text x="701.04" y="590.57">Jan</text>
<text x="644.36" y="590.57">Dec</text>
<text x="589.52" y="590.57">Nov</text>
<text x="532.85" y="590.57">Oct</text>
<text x="478.00" y="590.57">Sep</text>
<text x="421.33" y="590.57">Aug</text>
<text x="364.66" y="590.57">Jul</text>
<text x="309.81" y="590.57">Jun</text>
<text x="253.14" y="590.57">May</text>
<text x="198.30" y="590.57">Apr</text>
<text x="141.62" y="590.57">Mar</text>
<text x="90.44" y="590.57">Feb</text>
</g>
<line x1="50.00" x2="950.00" y1="570.00" y2="570.00" />
</g>
<g stroke="black">
<line x1="50.00" x2="38.00" y1="570.00" y2="570.00" />
<line x1="50.00" x2="38.00" y1="192.38" y2="192.38" />
<g fill="black" font-family="Arial, sans-serif" font-size="18.0" stroke="none" text-anchor="end">
<text x="41.00" y="561.00">0</text>
<text x="41.00" y="183.38">10</text>
</g>
<line x1="50.00" x2="50.00" y1="570.00" y2="30.00" />
</g>
</g>
</g>
</svg>