<?xml version="1.0"?>
<svg version="1.1" viewBox="0 0 1000 600" xmlns:xlink="http://www.w3.org/1999/xlink" xmlns="http://www.w3.org/2000/svg">
<g>
<g stroke-dasharray="3.6 7.2" stroke-width="0.72" stroke="#caa">
<line x1="813.75" x2="813.75" y1="510.00" y2="90.00" />
<line x1="760.60" x2="760.60" y1="510.00" y2="90.00" />
<line x1="707.45" x2="707.45" y1="510.00" y2="90.00" />
<line x1="656.01" x2="656.01" y1="510.00" y2="90.00" />
<line x1="602.86" x2="602.86" y1="510.00" y2="90.00" />
<line x1="551.42" x2="551.42" y1="510.00" y2="90.00" />
<line x1="498.27" x2="498.27" y1="510.00" y2="90.00" />
<line x1="445.11" x2="445.11" y1="510.00" y2="90.00" />
<line x1="393.68" x2="393.68" y1="510.00" y2="90.00" />
<line x1="340.52" x2="340.52" y1="510.00" y2="90.00" />
<line x1="289.09" x2="289.09" y1="510.00" y2="90.00" />
<line x1="235.93" x2="235.93" y1="510.00" y2="90.00" />
<line x1="187.92" x2="187.92" y1="510.00" y2="90.00" />
<line x1="150.00" x2="850.00" y1="510.00" y2="510.00" />
<line x1="150.00" x2="850.00" y1="319.09" y2="319.09" />
<line x1="150.00" x2="850.00" y1="128.18" y2="128.18" />
</g>
<g>
<text dominant-baseline="hanging" dx="-36.0" dy="18.0" fill="#0004" font-family="Arial, sans-serif" font-size="36" stroke="none" text-anchor="end" x="850.00" y="128.18">ThMuCh1LongLizard</text>
</g>
<g>
<text dominant-baseline="text-bottom" dy="-12.0" fill="black" font-family="Arial, sans-serif" font-size="18.0" font-style="italic" stroke="none" text-anchor="middle" x="500.00" y="90.00">Days since start</text>
</g>
<g>
<text dominant-baseline="central" dx="12.0" dy="12.0" fill="black" font-family="Arial, sans-serif" font-size="18.0" font-style="italic" stroke="none" text-anchor="middle" text-orientation="sideways" writing-mode="vertical-lr" x="850.00" y="300.00">Drips per day</text>
</g>
<polyline fill="none" points="150.27,390.84 150.55,392.58 150.83,392.06 151.11,394.15 151.40,394.52 151.67,391.49 151.95,392.58 152.23,391.39 152.51,394.45 178.96,467.58 179.78,469.93 180.57,468.56 181.42,471.55 182.28,471.92 182.98,463.33 183.63,459.52 184.34,464.08 184.99,459.34 185.68,462.90 186.46,467.77 187.20,466.24 187.92,464.38 188.69,467.60 189.52,470.43 190.24,464.36 191.04,468.93 191.84,469.22 192.55,464.33 193.37,469.84 194.02,459.94 194.78,466.76 195.46,461.48 196.20,466.29 196.97,467.13 197.69,464.67 198.47,467.96 199.29,470.27 221.96,406.98 222.19,368.94 222.43,370.50 222.66,367.12 222.88,365.09 223.11,365.30 223.32,356.38 223.55,366.69 223.78,368.21 224.00,362.48 224.23,369.00 224.46,363.24 224.69,369.51 224.93,372.44 225.16,371.61 225.40,372.25 225.62,362.64 225.85,367.17 226.09,370.83 226.32,369.74 226.56,373.97 226.79,365.78 227.02,370.11 227.27,377.85 227.50,369.59 227.75,374.09 227.97,361.93 228.21,374.91 228.45,376.06 228.70,379.62 228.95,377.09 229.19,375.21 229.43,374.42 229.67,370.91 229.92,377.10 230.16,375.57 230.40,372.81 230.65,379.08 230.89,374.40 231.14,378.66 231.38,376.67 231.64,381.40 231.90,382.59 232.16,383.89 232.41,379.93 232.66,380.25 232.91,379.14 233.17,384.40 233.44,388.89 233.71,388.69 233.98,388.64 234.24,386.05 234.52,391.67 234.80,392.41 235.07,390.97 235.34,386.84 235.60,382.41 235.87,390.44 236.15,393.41 236.42,388.75 236.68,384.34 236.96,391.45 237.23,390.06 237.50,388.51 237.77,389.21 238.03,385.54 238.31,392.10 238.58,389.02 238.84,383.76 239.11,388.02 239.38,390.44 239.65,388.00 239.93,390.47 240.19,383.65 240.45,386.61 240.73,392.65 241.01,394.30 241.28,388.98 241.55,388.98 241.84,395.49 242.12,394.28 242.39,387.40 242.68,395.72 242.96,393.20 243.23,390.67 243.51,393.34 243.79,393.08 244.07,392.16 244.35,393.35 244.62,387.12 244.90,395.32 245.19,394.94 245.47,397.06 245.75,392.42 246.03,391.22 246.31,395.03 246.60,396.65 246.89,396.76 247.19,398.56 247.47,395.26 247.76,396.08 248.05,396.59 248.33,394.58 248.62,396.85 248.91,398.63 249.20,395.49 249.49,397.51 249.78,395.93 249.96,326.75 250.14,331.74 250.33,341.64 250.50,309.14 250.66,311.01 250.82,308.90 250.91,140.99 251.15,344.16 600.82,302.81 601.07,380.84 601.21,272.16 601.43,363.17 601.59,301.45 601.79,350.11 601.98,334.62 602.20,363.81 602.38,322.75 602.59,355.41 602.77,331.68 602.98,353.40 603.15,319.71 603.38,363.04 603.56,334.40 603.80,373.44 604.00,342.39 604.23,370.42 604.44,352.38 604.69,377.61 604.86,326.20 605.08,360.54 605.26,327.03 605.50,372.38 605.69,339.44 605.92,364.56 606.11,343.19 606.35,370.35 606.54,342.12 606.78,371.02 606.97,339.95 607.21,374.95 607.41,340.63 607.66,380.18 607.87,353.95 608.13,384.87 608.37,371.19 608.63,387.16 608.85,358.70 609.09,374.74 609.31,363.54 609.57,383.43 609.82,375.77 610.06,374.90 611.00,475.12 611.22,365.08 611.56,411.79 611.80,374.41 612.10,402.55 612.33,368.49 612.63,399.00 612.88,380.25 613.17,395.46 613.42,378.25 613.70,396.32 613.96,381.35 614.25,397.80 614.48,370.13 614.81,409.15 615.05,375.97 615.36,401.88 615.62,384.83 615.92,402.43 616.16,373.15 616.44,391.95 616.68,376.98 616.96,392.30 617.22,383.40 617.52,398.94 617.77,383.17 618.10,410.20 618.35,376.00 618.68,411.35 618.96,393.64 619.26,401.96 619.54,393.82 619.85,401.80 620.13,394.62 620.43,399.79 620.75,408.31 621.04,397.94 621.34,401.77 621.63,394.16 621.93,402.79 622.21,392.94 622.49,394.83 622.81,406.86 623.10,396.28 623.40,402.04 623.69,394.51 624.03,415.72 624.31,392.45 624.64,409.97 624.89,381.56 625.23,411.48 625.50,389.13 625.81,404.23 626.06,382.33 626.36,401.25 626.64,391.57 626.96,408.60 627.25,395.76 627.57,408.84 627.82,376.45 628.15,409.81 628.39,374.49 628.71,409.81 628.97,383.19 629.31,414.41 629.58,385.36 629.87,398.87 630.13,383.73 630.43,398.83 630.72,397.65 631.00,396.12 631.26,383.44 631.56,398.13 631.82,388.07 632.11,397.52 632.39,391.44 632.71,406.83 632.97,383.14 633.24,392.28 633.50,381.94 633.80,402.39 634.06,383.45 634.36,398.93 634.60,374.20 634.89,398.51 635.11,362.81 635.40,394.37 635.63,368.27 635.95,408.88 636.20,376.37 636.51,405.24 636.77,385.12 637.07,401.15 637.31,370.38 637.61,401.37 638.09,441.85 638.34,382.17 638.65,403.20 638.93,394.11 639.24,402.92 639.52,393.40 639.83,404.18 640.10,390.39 640.43,409.36 640.68,380.16 641.01,410.12 641.26,381.66 641.58,407.35 641.86,391.86 642.17,405.25 642.45,391.46 642.77,408.32 643.03,383.44 643.33,402.65 643.59,381.31 643.89,401.00 644.15,383.63 644.47,408.56 644.72,380.61 645.02,400.37 645.29,387.85 645.57,393.46 645.85,393.62 646.17,408.74 646.43,383.16 646.73,399.31 647.00,388.89 647.32,408.73 647.57,379.04 647.90,411.54 648.17,388.56 648.50,410.03 648.76,382.30 649.06,400.58 649.30,374.95 649.63,411.85 649.92,396.69 650.25,409.10 650.53,394.18 650.85,407.75 651.12,389.35 651.45,410.30 651.74,397.88 652.06,406.99 652.31,379.68 652.66,418.01 652.94,390.45 653.27,412.10 653.53,383.88 653.86,409.79 654.13,390.40 654.44,404.93 654.73,397.07 655.05,405.93 655.34,396.66 655.61,389.27 655.85,371.61 656.18,413.61 656.44,381.64 656.77,409.83 657.03,387.59 657.38,415.44 657.64,382.49 657.97,411.44 658.24,389.43 658.56,407.47 658.82,382.96 659.13,406.90 659.42,396.64 659.77,414.80 660.95,482.27 661.20,382.39 661.54,411.61 661.83,397.45 662.16,411.51 662.43,389.46 662.77,411.93 663.06,397.09 663.40,416.09 663.67,386.58 664.00,409.67 664.26,385.31 664.59,410.15 664.84,382.08 665.16,405.86 665.44,393.96 665.77,411.20 666.06,397.39 666.40,414.45 666.70,398.69 667.03,410.70 667.32,399.56 667.65,409.36 667.92,390.17 668.27,416.73 668.55,390.77 668.89,413.46 669.16,391.94 669.50,412.72 669.80,401.15 670.15,417.27 670.43,390.42 670.75,407.11 671.00,379.40 671.32,407.90 671.62,402.17 671.99,420.38 672.24,383.75 672.57,410.27 672.81,373.79 673.16,415.99 673.46,401.33 673.82,417.48 674.08,383.40 674.41,411.45 674.68,390.88 675.02,413.23 675.28,382.01 675.60,408.42 675.86,386.90 676.19,410.50 676.47,392.12 676.81,412.75 677.08,389.37 677.42,415.16 677.70,392.02 678.03,410.02 678.28,378.00 678.58,400.87 678.83,379.15 679.12,397.05 679.35,369.57 679.62,390.96 679.87,378.55 680.15,389.70 680.35,351.34 680.60,378.62 680.80,345.70 681.05,378.33 681.25,349.05 681.51,384.22 681.72,353.64 681.97,378.86 682.17,341.93 682.40,368.42 682.59,341.46 682.82,368.23 683.03,349.23 683.28,381.47 683.49,349.53 683.75,388.49 683.94,336.99 684.19,378.23 684.39,344.03 684.64,377.36 684.84,348.35 685.08,373.15 685.28,344.82 685.52,376.44 685.72,342.36 685.97,379.59 686.17,350.88 686.42,377.65 686.64,358.72 686.89,379.34 687.09,349.92 687.35,383.82 687.55,348.16 687.82,387.79 688.04,357.54 688.28,375.00 688.50,360.23 688.76,384.18 688.97,357.74 689.25,391.75 689.46,357.60 689.74,389.43 689.95,355.31 690.22,391.12 690.46,370.93 690.72,386.71 746.48,434.85 746.98,444.67 747.35,420.35 747.84,443.98 748.25,429.25 748.77,446.79 749.15,424.66 749.65,444.67 750.02,421.28 750.48,439.00 750.89,429.42 751.36,441.04 751.76,427.15 752.20,436.12 752.60,427.37 753.06,438.95 753.51,437.63 753.97,438.41 754.33,420.46 754.80,439.77 755.21,429.55 755.77,451.75 756.18,429.82 756.69,445.78 757.10,430.01 757.62,448.00 758.07,436.89 758.60,448.48 759.10,444.28 759.63,447.58 759.99,421.08 760.52,448.34 760.97,437.14 761.48,445.29 761.89,429.76 762.40,445.61 762.79,426.43 763.29,444.86 763.71,431.35 764.20,443.37 764.67,441.40 765.16,442.48 765.64,441.95 766.13,443.44 767.05,474.40 767.50,437.61 768.02,446.85 768.44,431.37 768.91,440.31 769.34,434.04 769.89,450.43 770.32,434.90 770.85,448.16 771.28,432.96 771.82,449.21 772.25,435.15 772.75,443.62 773.22,440.36 773.67,437.23 774.11,436.57 774.64,448.10 775.02,422.30 775.49,440.48 775.92,435.34 776.42,443.29 776.84,432.01 777.27,433.90 777.69,433.80 778.21,446.52 778.63,431.28 779.09,439.59 779.48,425.21 779.95,440.88 780.37,432.55 780.85,441.82 781.29,435.57 781.81,446.54 782.22,429.79 782.71,443.55 783.21,444.59 783.68,440.23 784.17,442.91 784.66,443.64 785.11,436.83 785.61,445.02 786.06,436.22 786.56,445.72 786.98,430.42 787.48,445.01 787.91,433.11 788.36,437.56 788.76,429.73 789.27,445.38 789.63,419.37 790.12,443.30 790.51,424.75 791.02,445.88 791.45,433.46 792.00,450.85 792.41,431.34 792.87,438.26 793.26,425.65 793.73,441.14 794.13,427.17 794.64,445.58 795.04,428.87" stroke-dasharray="3.6 3.6" stroke-width="3.6" stroke="#aaa" />
<g>
<circle cx="150.27" cy="390.84" r="1.6666666666666667" />
<circle cx="150.55" cy="392.58" r="1.6666666666666667" />
<circle cx="150.83" cy="392.06" r="1.6666666666666667" />
<circle cx="151.11" cy="394.15" r="1.6666666666666667" />
<circle cx="151.40" cy="394.52" r="1.6666666666666667" />
<circle cx="151.67" cy="391.49" r="1.6666666666666667" />
<circle cx="151.95" cy="392.58" r="1.6666666666666667" />
<circle cx="152.23" cy="391.39" r="1.6666666666666667" />
<circle cx="152.51" cy="394.45" r="1.6666666666666667" />
<circle cx="178.96" cy="467.58" r="1.6666666666666667" />
<circle cx="179.78" cy="469.93" r="1.6666666666666667" />
<circle cx="180.57" cy="468.56" r="1.6666666666666667" />
<circle cx="181.42" cy="471.55" r="1.6666666666666667" />
<circle cx="182.28" cy="471.92" r="1.6666666666666667" />
<circle cx="182.98" cy="463.33" r="1.6666666666666667" />
<circle cx="183.63" cy="459.52" r="1.6666666666666667" />
<circle cx="184.34" cy="464.08" r="1.6666666666666667" />
<circle cx="184.99" cy="459.34" r="1.6666666666666667" />
<circle cx="185.68" cy="462.90" r="1.6666666666666667" />
<circle cx="186.46" cy="467.77" r="1.6666666666666667" />
<circle cx="187.20" cy="466.24" r="1.6666666666666667" />
<circle cx="187.92" cy="464.38" r="1.6666666666666667" />
<circle cx="188.69" cy="467.60" r="1.6666666666666667" />
<circle cx="189.52" cy="470.43" r="1.6666666666666667" />
<circle cx="190.24" cy="464.36" r="1.6666666666666667" />
<circle cx="191.04" cy="468.93" r="1.6666666666666667" />
<circle cx="191.84" cy="469.22" r="1.6666666666666667" />
<circle cx="192.55" cy="464.33" r="1.6666666666666667" />
<circle cx="193.37" cy="469.84" r="1.6666666666666667" />
<circle cx="194.02" cy="459.94" r="1.6666666666666667" />
<circle cx="194.78" cy="466.76" r="1.6666666666666667" />
<circle cx="195.46" cy="461.48" r="1.6666666666666667" />
<circle cx="196.20" cy="466.29" r="1.6666666666666667" />
<circle cx="196.97" cy="467.13" r="1.6666666666666667" />
<circle cx="197.69" cy="464.67" r="1.6666666666666667" />
<circle cx="198.47" cy="467.96" r="1.6666666666666667" />
<circle cx="199.29" cy="470.27" r="1.6666666666666667" />
<circle cx="221.96" cy="406.98" r="1.6666666666666667" />
<circle cx="222.19" cy="368.94" r="1.6666666666666667" />
<circle cx="222.43" cy="370.50" r="1.6666666666666667" />
<circle cx="222.66" cy="367.12" r="1.6666666666666667" />
<circle cx="222.88" cy="365.09" r="1.6666666666666667" />
<circle cx="223.11" cy="365.30" r="1.6666666666666667" />
<circle cx="223.32" cy="356.38" r="1.6666666666666667" />
<circle cx="223.55" cy="366.69" r="1.6666666666666667" />
<circle cx="223.78" cy="368.21" r="1.6666666666666667" />
<circle cx="224.00" cy="362.48" r="1.6666666666666667" />
<circle cx="224.23" cy="369.00" r="1.6666666666666667" />
<circle cx="224.46" cy="363.24" r="1.6666666666666667" />
<circle cx="224.69" cy="369.51" r="1.6666666666666667" />
<circle cx="224.93" cy="372.44" r="1.6666666666666667" />
<circle cx="225.16" cy="371.61" r="1.6666666666666667" />
<circle cx="225.40" cy="372.25" r="1.6666666666666667" />
<circle cx="225.62" cy="362.64" r="1.6666666666666667" />
<circle cx="225.85" cy="367.17" r="1.6666666666666667" />
<circle cx="226.09" cy="370.83" r="1.6666666666666667" />
<circle cx="226.32" cy="369.74" r="1.6666666666666667" />
<circle cx="226.56" cy="373.97" r="1.6666666666666667" />
<circle cx="226.79" cy="365.78" r="1.6666666666666667" />
<circle cx="227.02" cy="370.11" r="1.6666666666666667" />
<circle cx="227.27" cy="377.85" r="1.6666666666666667" />
<circle cx="227.50" cy="369.59" r="1.6666666666666667" />
<circle cx="227.75" cy="374.09" r="1.6666666666666667" />
<circle cx="227.97" cy="361.93" r="1.6666666666666667" />
<circle cx="228.21" cy="374.91" r="1.6666666666666667" />
<circle cx="228.45" cy="376.06" r="1.6666666666666667" />
<circle cx="228.70" cy="379.62" r="1.6666666666666667" />
<circle cx="228.95" cy="377.09" r="1.6666666666666667" />
<circle cx="229.19" cy="375.21" r="1.6666666666666667" />
<circle cx="229.43" cy="374.42" r="1.6666666666666667" />
<circle cx="229.67" cy="370.91" r="1.6666666666666667" />
<circle cx="229.92" cy="377.10" r="1.6666666666666667" />
<circle cx="230.16" cy="375.57" r="1.6666666666666667" />
<circle cx="230.40" cy="372.81" r="1.6666666666666667" />
<circle cx="230.65" cy="379.08" r="1.6666666666666667" />
<circle cx="230.89" cy="374.40" r="1.6666666666666667" />
<circle cx="231.14" cy="378.66" r="1.6666666666666667" />
<circle cx="231.38" cy="376.67" r="1.6666666666666667" />
<circle cx="231.64" cy="381.40" r="1.6666666666666667" />
<circle cx="231.90" cy="382.59" r="1.6666666666666667" />
<circle cx="232.16" cy="383.89" r="1.6666666666666667" />
<circle cx="232.41" cy="379.93" r="1.6666666666666667" />
<circle cx="232.66" cy="380.25" r="1.6666666666666667" />
<circle cx="232.91" cy="379.14" r="1.6666666666666667" />
<circle cx="233.17" cy="384.40" r="1.6666666666666667" />
<circle cx="233.44" cy="388.89" r="1.6666666666666667" />
<circle cx="233.71" cy="388.69" r="1.6666666666666667" />
<circle cx="233.98" cy="388.64" r="1.6666666666666667" />
<circle cx="234.24" cy="386.05" r="1.6666666666666667" />
<circle cx="234.52" cy="391.67" r="1.6666666666666667" />
<circle cx="234.80" cy="392.41" r="1.6666666666666667" />
<circle cx="235.07" cy="390.97" r="1.6666666666666667" />
<circle cx="235.34" cy="386.84" r="1.6666666666666667" />
<circle cx="235.60" cy="382.41" r="1.6666666666666667" />
<circle cx="235.87" cy="390.44" r="1.6666666666666667" />
<circle cx="236.15" cy="393.41" r="1.6666666666666667" />
<circle cx="236.42" cy="388.75" r="1.6666666666666667" />
<circle cx="236.68" cy="384.34" r="1.6666666666666667" />
<circle cx="236.96" cy="391.45" r="1.6666666666666667" />
<circle cx="237.23" cy="390.06" r="1.6666666666666667" />
<circle cx="237.50" cy="388.51" r="1.6666666666666667" />
<circle cx="237.77" cy="389.21" r="1.6666666666666667" />
<circle cx="238.03" cy="385.54" r="1.6666666666666667" />
<circle cx="238.31" cy="392.10" r="1.6666666666666667" />
<circle cx="238.58" cy="389.02" r="1.6666666666666667" />
<circle cx="238.84" cy="383.76" r="1.6666666666666667" />
<circle cx="239.11" cy="388.02" r="1.6666666666666667" />
<circle cx="239.38" cy="390.44" r="1.6666666666666667" />
<circle cx="239.65" cy="388.00" r="1.6666666666666667" />
<circle cx="239.93" cy="390.47" r="1.6666666666666667" />
<circle cx="240.19" cy="383.65" r="1.6666666666666667" />
<circle cx="240.45" cy="386.61" r="1.6666666666666667" />
<circle cx="240.73" cy="392.65" r="1.6666666666666667" />
<circle cx="241.01" cy="394.30" r="1.6666666666666667" />
<circle cx="241.28" cy="388.98" r="1.6666666666666667" />
<circle cx="241.55" cy="388.98" r="1.6666666666666667" />
<circle cx="241.84" cy="395.49" r="1.6666666666666667" />
<circle cx="242.12" cy="394.28" r="1.6666666666666667" />
<circle cx="242.39" cy="387.40" r="1.6666666666666667" />
<circle cx="242.68" cy="395.72" r="1.6666666666666667" />
<circle cx="242.96" cy="393.20" r="1.6666666666666667" />
<circle cx="243.23" cy="390.67" r="1.6666666666666667" />
<circle cx="243.51" cy="393.34" r="1.6666666666666667" />
<circle cx="243.79" cy="393.08" r="1.6666666666666667" />
<circle cx="244.07" cy="392.16" r="1.6666666666666667" />
<circle cx="244.35" cy="393.35" r="1.6666666666666667" />
<circle cx="244.62" cy="387.12" r="1.6666666666666667" />
<circle cx="244.90" cy="395.32" r="1.6666666666666667" />
<circle cx="245.19" cy="394.94" r="1.6666666666666667" />
<circle cx="245.47" cy="397.06" r="1.6666666666666667" />
<circle cx="245.75" cy="392.42" r="1.6666666666666667" />
<circle cx="246.03" cy="391.22" r="1.6666666666666667" />
<circle cx="246.31" cy="395.03" r="1.6666666666666667" />
<circle cx="246.60" cy="396.65" r="1.6666666666666667" />
<circle cx="246.89" cy="396.76" r="1.6666666666666667" />
<circle cx="247.19" cy="398.56" r="1.6666666666666667" />
<circle cx="247.47" cy="395.26" r="1.6666666666666667" />
<circle cx="247.76" cy="396.08" r="1.6666666666666667" />
<circle cx="248.05" cy="396.59" r="1.6666666666666667" />
<circle cx="248.33" cy="394.58" r="1.6666666666666667" />
<circle cx="248.62" cy="396.85" r="1.6666666666666667" />
<circle cx="248.91" cy="398.63" r="1.6666666666666667" />
<circle cx="249.20" cy="395.49" r="1.6666666666666667" />
<circle cx="249.49" cy="397.51" r="1.6666666666666667" />
<circle cx="249.78" cy="395.93" r="1.6666666666666667" />
<circle cx="249.96" cy="326.75" r="1.6666666666666667" />
<circle cx="250.14" cy="331.74" r="1.6666666666666667" />
<circle cx="250.33" cy="341.64" r="1.6666666666666667" />
<circle cx="250.50" cy="309.14" r="1.6666666666666667" />
<circle cx="250.66" cy="311.01" r="1.6666666666666667" />
<circle cx="250.82" cy="308.90" r="1.6666666666666667" />
<circle cx="250.91" cy="140.99" r="1.6666666666666667" />
<circle cx="251.15" cy="344.16" r="1.6666666666666667" />
<circle cx="600.82" cy="302.81" r="1.6666666666666667" />
<circle cx="601.07" cy="380.84" r="1.6666666666666667" />
<circle cx="601.21" cy="272.16" r="1.6666666666666667" />
<circle cx="601.43" cy="363.17" r="1.6666666666666667" />
<circle cx="601.59" cy="301.45" r="1.6666666666666667" />
<circle cx="601.79" cy="350.11" r="1.6666666666666667" />
<circle cx="601.98" cy="334.62" r="1.6666666666666667" />
<circle cx="602.20" cy="363.81" r="1.6666666666666667" />
<circle cx="602.38" cy="322.75" r="1.6666666666666667" />
<circle cx="602.59" cy="355.41" r="1.6666666666666667" />
<circle cx="602.77" cy="331.68" r="1.6666666666666667" />
<circle cx="602.98" cy="353.40" r="1.6666666666666667" />
<circle cx="603.15" cy="319.71" r="1.6666666666666667" />
<circle cx="603.38" cy="363.04" r="1.6666666666666667" />
<circle cx="603.56" cy="334.40" r="1.6666666666666667" />
<circle cx="603.80" cy="373.44" r="1.6666666666666667" />
<circle cx="604.00" cy="342.39" r="1.6666666666666667" />
<circle cx="604.23" cy="370.42" r="1.6666666666666667" />
<circle cx="604.44" cy="352.38" r="1.6666666666666667" />
<circle cx="604.69" cy="377.61" r="1.6666666666666667" />
<circle cx="604.86" cy="326.20" r="1.6666666666666667" />
<circle cx="605.08" cy="360.54" r="1.6666666666666667" />
<circle cx="605.26" cy="327.03" r="1.6666666666666667" />
<circle cx="605.50" cy="372.38" r="1.6666666666666667" />
<circle cx="605.69" cy="339.44" r="1.6666666666666667" />
<circle cx="605.92" cy="364.56" r="1.6666666666666667" />
<circle cx="606.11" cy="343.19" r="1.6666666666666667" />
<circle cx="606.35" cy="370.35" r="1.6666666666666667" />
<circle cx="606.54" cy="342.12" r="1.6666666666666667" />
<circle cx="606.78" cy="371.02" r="1.6666666666666667" />
<circle cx="606.97" cy="339.95" r="1.6666666666666667" />
<circle cx="607.21" cy="374.95" r="1.6666666666666667" />
<circle cx="607.41" cy="340.63" r="1.6666666666666667" />
<circle cx="607.66" cy="380.18" r="1.6666666666666667" />
<circle cx="607.87" cy="353.95" r="1.6666666666666667" />
<circle cx="608.13" cy="384.87" r="1.6666666666666667" />
<circle cx="608.37" cy="371.19" r="1.6666666666666667" />
<circle cx="608.63" cy="387.16" r="1.6666666666666667" />
<circle cx="608.85" cy="358.70" r="1.6666666666666667" />
<circle cx="609.09" cy="374.74" r="1.6666666666666667" />
<circle cx="609.31" cy="363.54" r="1.6666666666666667" />
<circle cx="609.57" cy="383.43" r="1.6666666666666667" />
<circle cx="609.82" cy="375.77" r="1.6666666666666667" />
<circle cx="610.06" cy="374.90" r="1.6666666666666667" />
<circle cx="611.00" cy="475.12" r="1.6666666666666667" />
<circle cx="611.22" cy="365.08" r="1.6666666666666667" />
<circle cx="611.56" cy="411.79" r="1.6666666666666667" />
<circle cx="611.80" cy="374.41" r="1.6666666666666667" />
<circle cx="612.10" cy="402.55" r="1.6666666666666667" />
<circle cx="612.33" cy="368.49" r="1.6666666666666667" />
<circle cx="612.63" cy="399.00" r="1.6666666666666667" />
<circle cx="612.88" cy="380.25" r="1.6666666666666667" />
<circle cx="613.17" cy="395.46" r="1.6666666666666667" />
<circle cx="613.42" cy="378.25" r="1.6666666666666667" />
<circle cx="613.70" cy="396.32" r="1.6666666666666667" />
<circle cx="613.96" cy="381.35" r="1.6666666666666667" />
<circle cx="614.25" cy="397.80" r="1.6666666666666667" />
<circle cx="614.48" cy="370.13" r="1.6666666666666667" />
<circle cx="614.81" cy="409.15" r="1.6666666666666667" />
<circle cx="615.05" cy="375.97" r="1.6666666666666667" />
<circle cx="615.36" cy="401.88" r="1.6666666666666667" />
<circle cx="615.62" cy="384.83" r="1.6666666666666667" />
<circle cx="615.92" cy="402.43" r="1.6666666666666667" />
<circle cx="616.16" cy="373.15" r="1.6666666666666667" />
<circle cx="616.44" cy="391.95" r="1.6666666666666667" />
<circle cx="616.68" cy="376.98" r="1.6666666666666667" />
<circle cx="616.96" cy="392.30" r="1.6666666666666667" />
<circle cx="617.22" cy="383.40" r="1.6666666666666667" />
<circle cx="617.52" cy="398.94" r="1.6666666666666667" />
<circle cx="617.77" cy="383.17" r="1.6666666666666667" />
<circle cx="618.10" cy="410.20" r="1.6666666666666667" />
<circle cx="618.35" cy="376.00" r="1.6666666666666667" />
<circle cx="618.68" cy="411.35" r="1.6666666666666667" />
<circle cx="618.96" cy="393.64" r="1.6666666666666667" />
<circle cx="619.26" cy="401.96" r="1.6666666666666667" />
<circle cx="619.54" cy="393.82" r="1.6666666666666667" />
<circle cx="619.85" cy="401.80" r="1.6666666666666667" />
<circle cx="620.13" cy="394.62" r="1.6666666666666667" />
<circle cx="620.43" cy="399.79" r="1.6666666666666667" />
<circle cx="620.75" cy="408.31" r="1.6666666666666667" />
<circle cx="621.04" cy="397.94" r="1.6666666666666667" />
<circle cx="621.34" cy="401.77" r="1.6666666666666667" />
<circle cx="621.63" cy="394.16" r="1.6666666666666667" />
<circle cx="621.93" cy="402.79" r="1.6666666666666667" />
<circle cx="622.21" cy="392.94" r="1.6666666666666667" />
<circle cx="622.49" cy="394.83" r="1.6666666666666667" />
<circle cx="622.81" cy="406.86" r="1.6666666666666667" />
<circle cx="623.10" cy="396.28" r="1.6666666666666667" />
<circle cx="623.40" cy="402.04" r="1.6666666666666667" />
<circle cx="623.69" cy="394.51" r="1.6666666666666667" />
<circle cx="624.03" cy="415.72" r="1.6666666666666667" />
<circle cx="624.31" cy="392.45" r="1.6666666666666667" />
<circle cx="624.64" cy="409.97" r="1.6666666666666667" />
<circle cx="624.89" cy="381.56" r="1.6666666666666667" />
<circle cx="625.23" cy="411.48" r="1.6666666666666667" />
<circle cx="625.50" cy="389.13" r="1.6666666666666667" />
<circle cx="625.81" cy="404.23" r="1.6666666666666667" />
<circle cx="626.06" cy="382.33" r="1.6666666666666667" />
<circle cx="626.36" cy="401.25" r="1.6666666666666667" />
<circle cx="626.64" cy="391.57" r="1.6666666666666667" />
<circle cx="626.96" cy="408.60" r="1.6666666666666667" />
<circle cx="627.25" cy="395.76" r="1.6666666666666667" />
<circle cx="627.57" cy="408.84" r="1.6666666666666667" />
<circle cx="627.82" cy="376.45" r="1.6666666666666667" />
<circle cx="628.15" cy="409.81" r="1.6666666666666667" />
<circle cx="628.39" cy="374.49" r="1.6666666666666667" />
<circle cx="628.71" cy="409.81" r="1.6666666666666667" />
<circle cx="628.97" cy="383.19" r="1.6666666666666667" />
<circle cx="629.31" cy="414.41" r="1.6666666666666667" />
<circle cx="629.58" cy="385.36" r="1.6666666666666667" />
<circle cx="629.87" cy="398.87" r="1.6666666666666667" />
<circle cx="630.13" cy="383.73" r="1.6666666666666667" />
<circle cx="630.43" cy="398.83" r="1.6666666666666667" />
<circle cx="630.72" cy="397.65" r="1.6666666666666667" />
<circle cx="631.00" cy="396.12" r="1.6666666666666667" />
<circle cx="631.26" cy="383.44" r="1.6666666666666667" />
<circle cx="631.56" cy="398.13" r="1.6666666666666667" />
<circle cx="631.82" cy="388.07" r="1.6666666666666667" />
<circle cx="632.11" cy="397.52" r="1.6666666666666667" />
<circle cx="632.39" cy="391.44" r="1.6666666666666667" />
<circle cx="632.71" cy="406.83" r="1.6666666666666667" />
<circle cx="632.97" cy="383.14" r="1.6666666666666667" />
<circle cx="633.24" cy="392.28" r="1.6666666666666667" />
<circle cx="633.50" cy="381.94" r="1.6666666666666667" />
<circle cx="633.80" cy="402.39" r="1.6666666666666667" />
<circle cx="634.06" cy="383.45" r="1.6666666666666667" />
<circle cx="634.36" cy="398.93" r="1.6666666666666667" />
<circle cx="634.60" cy="374.20" r="1.6666666666666667" />
<circle cx="634.89" cy="398.51" r="1.6666666666666667" />
<circle cx="635.11" cy="362.81" r="1.6666666666666667" />
<circle cx="635.40" cy="394.37" r="1.6666666666666667" />
<circle cx="635.63" cy="368.27" r="1.6666666666666667" />
<circle cx="635.95" cy="408.88" r="1.6666666666666667" />
<circle cx="636.20" cy="376.37" r="1.6666666666666667" />
<circle cx="636.51" cy="405.24" r="1.6666666666666667" />
<circle cx="636.77" cy="385.12" r="1.6666666666666667" />
<circle cx="637.07" cy="401.15" r="1.6666666666666667" />
<circle cx="637.31" cy="370.38" r="1.6666666666666667" />
<circle cx="637.61" cy="401.37" r="1.6666666666666667" />
<circle cx="638.09" cy="441.85" r="1.6666666666666667" />
<circle cx="638.34" cy="382.17" r="1.6666666666666667" />
<circle cx="638.65" cy="403.20" r="1.6666666666666667" />
<circle cx="638.93" cy="394.11" r="1.6666666666666667" />
<circle cx="639.24" cy="402.92" r="1.6666666666666667" />
<circle cx="639.52" cy="393.40" r="1.6666666666666667" />
<circle cx="639.83" cy="404.18" r="1.6666666666666667" />
<circle cx="640.10" cy="390.39" r="1.6666666666666667" />
<circle cx="640.43" cy="409.36" r="1.6666666666666667" />
<circle cx="640.68" cy="380.16" r="1.6666666666666667" />
<circle cx="641.01" cy="410.12" r="1.6666666666666667" />
<circle cx="641.26" cy="381.66" r="1.6666666666666667" />
<circle cx="641.58" cy="407.35" r="1.6666666666666667" />
<circle cx="641.86" cy="391.86" r="1.6666666666666667" />
<circle cx="642.17" cy="405.25" r="1.6666666666666667" />
<circle cx="642.45" cy="391.46" r="1.6666666666666667" />
<circle cx="642.77" cy="408.32" r="1.6666666666666667" />
<circle cx="643.03" cy="383.44" r="1.6666666666666667" />
<circle cx="643.33" cy="402.65" r="1.6666666666666667" />
<circle cx="643.59" cy="381.31" r="1.6666666666666667" />
<circle cx="643.89" cy="401.00" r="1.6666666666666667" />
<circle cx="644.15" cy="383.63" r="1.6666666666666667" />
<circle cx="644.47" cy="408.56" r="1.6666666666666667" />
<circle cx="644.72" cy="380.61" r="1.6666666666666667" />
<circle cx="645.02" cy="400.37" r="1.6666666666666667" />
<circle cx="645.29" cy="387.85" r="1.6666666666666667" />
<circle cx="645.57" cy="393.46" r="1.6666666666666667" />
<circle cx="645.85" cy="393.62" r="1.6666666666666667" />
<circle cx="646.17" cy="408.74" r="1.6666666666666667" />
<circle cx="646.43" cy="383.16" r="1.6666666666666667" />
<circle cx="646.73" cy="399.31" r="1.6666666666666667" />
<circle cx="647.00" cy="388.89" r="1.6666666666666667" />
<circle cx="647.32" cy="408.73" r="1.6666666666666667" />
<circle cx="647.57" cy="379.04" r="1.6666666666666667" />
<circle cx="647.90" cy="411.54" r="1.6666666666666667" />
<circle cx="648.17" cy="388.56" r="1.6666666666666667" />
<circle cx="648.50" cy="410.03" r="1.6666666666666667" />
<circle cx="648.76" cy="382.30" r="1.6666666666666667" />
<circle cx="649.06" cy="400.58" r="1.6666666666666667" />
<circle cx="649.30" cy="374.95" r="1.6666666666666667" />
<circle cx="649.63" cy="411.85" r="1.6666666666666667" />
<circle cx="649.92" cy="396.69" r="1.6666666666666667" />
<circle cx="650.25" cy="409.10" r="1.6666666666666667" />
<circle cx="650.53" cy="394.18" r="1.6666666666666667" />
<circle cx="650.85" cy="407.75" r="1.6666666666666667" />
<circle cx="651.12" cy="389.35" r="1.6666666666666667" />
<circle cx="651.45" cy="410.30" r="1.6666666666666667" />
<circle cx="651.74" cy="397.88" r="1.6666666666666667" />
<circle cx="652.06" cy="406.99" r="1.6666666666666667" />
<circle cx="652.31" cy="379.68" r="1.6666666666666667" />
<circle cx="652.66" cy="418.01" r="1.6666666666666667" />
<circle cx="652.94" cy="390.45" r="1.6666666666666667" />
<circle cx="653.27" cy="412.10" r="1.6666666666666667" />
<circle cx="653.53" cy="383.88" r="1.6666666666666667" />
<circle cx="653.86" cy="409.79" r="1.6666666666666667" />
<circle cx="654.13" cy="390.40" r="1.6666666666666667" />
<circle cx="654.44" cy="404.93" r="1.6666666666666667" />
<circle cx="654.73" cy="397.07" r="1.6666666666666667" />
<circle cx="655.05" cy="405.93" r="1.6666666666666667" />
<circle cx="655.34" cy="396.66" r="1.6666666666666667" />
<circle cx="655.61" cy="389.27" r="1.6666666666666667" />
<circle cx="655.85" cy="371.61" r="1.6666666666666667" />
<circle cx="656.18" cy="413.61" r="1.6666666666666667" />
<circle cx="656.44" cy="381.64" r="1.6666666666666667" />
<circle cx="656.77" cy="409.83" r="1.6666666666666667" />
<circle cx="657.03" cy="387.59" r="1.6666666666666667" />
<circle cx="657.38" cy="415.44" r="1.6666666666666667" />
<circle cx="657.64" cy="382.49" r="1.6666666666666667" />
<circle cx="657.97" cy="411.44" r="1.6666666666666667" />
<circle cx="658.24" cy="389.43" r="1.6666666666666667" />
<circle cx="658.56" cy="407.47" r="1.6666666666666667" />
<circle cx="658.82" cy="382.96" r="1.6666666666666667" />
<circle cx="659.13" cy="406.90" r="1.6666666666666667" />
<circle cx="659.42" cy="396.64" r="1.6666666666666667" />
<circle cx="659.77" cy="414.80" r="1.6666666666666667" />
<circle cx="660.95" cy="482.27" r="1.6666666666666667" />
<circle cx="661.20" cy="382.39" r="1.6666666666666667" />
<circle cx="661.54" cy="411.61" r="1.6666666666666667" />
<circle cx="661.83" cy="397.45" r="1.6666666666666667" />
<circle cx="662.16" cy="411.51" r="1.6666666666666667" />
<circle cx="662.43" cy="389.46" r="1.6666666666666667" />
<circle cx="662.77" cy="411.93" r="1.6666666666666667" />
<circle cx="663.06" cy="397.09" r="1.6666666666666667" />
<circle cx="663.40" cy="416.09" r="1.6666666666666667" />
<circle cx="663.67" cy="386.58" r="1.6666666666666667" />
<circle cx="664.00" cy="409.67" r="1.6666666666666667" />
<circle cx="664.26" cy="385.31" r="1.6666666666666667" />
<circle cx="664.59" cy="410.15" r="1.6666666666666667" />
<circle cx="664.84" cy="382.08" r="1.6666666666666667" />
<circle cx="665.16" cy="405.86" r="1.6666666666666667" />
<circle cx="665.44" cy="393.96" r="1.6666666666666667" />
<circle cx="665.77" cy="411.20" r="1.6666666666666667" />
<circle cx="666.06" cy="397.39" r="1.6666666666666667" />
<circle cx="666.40" cy="414.45" r="1.6666666666666667" />
<circle cx="666.70" cy="398.69" r="1.6666666666666667" />
<circle cx="667.03" cy="410.70" r="1.6666666666666667" />
<circle cx="667.32" cy="399.56" r="1.6666666666666667" />
<circle cx="667.65" cy="409.36" r="1.6666666666666667" />
<circle cx="667.92" cy="390.17" r="1.6666666666666667" />
<circle cx="668.27" cy="416.73" r="1.6666666666666667" />
<circle cx="668.55" cy="390.77" r="1.6666666666666667" />
<circle cx="668.89" cy="413.46" r="1.6666666666666667" />
<circle cx="669.16" cy="391.94" r="1.6666666666666667" />
<circle cx="669.50" cy="412.72" r="1.6666666666666667" />
<circle cx="669.80" cy="401.15" r="1.6666666666666667" />
<circle cx="670.15" cy="417.27" r="1.6666666666666667" />
<circle cx="670.43" cy="390.42" r="1.6666666666666667" />
<circle cx="670.75" cy="407.11" r="1.6666666666666667" />
<circle cx="671.00" cy="379.40" r="1.6666666666666667" />
<circle cx="671.32" cy="407.90" r="1.6666666666666667" />
<circle cx="671.62" cy="402.17" r="1.6666666666666667" />
<circle cx="671.99" cy="420.38" r="1.6666666666666667" />
<circle cx="672.24" cy="383.75" r="1.6666666666666667" />
<circle cx="672.57" cy="410.27" r="1.6666666666666667" />
<circle cx="672.81" cy="373.79" r="1.6666666666666667" />
<circle cx="673.16" cy="415.99" r="1.6666666666666667" />
<circle cx="673.46" cy="401.33" r="1.6666666666666667" />
<circle cx="673.82" cy="417.48" r="1.6666666666666667" />
<circle cx="674.08" cy="383.40" r="1.6666666666666667" />
<circle cx="674.41" cy="411.45" r="1.6666666666666667" />
<circle cx="674.68" cy="390.88" r="1.6666666666666667" />
<circle cx="675.02" cy="413.23" r="1.6666666666666667" />
<circle cx="675.28" cy="382.01" r="1.6666666666666667" />
<circle cx="675.60" cy="408.42" r="1.6666666666666667" />
<circle cx="675.86" cy="386.90" r="1.6666666666666667" />
<circle cx="676.19" cy="410.50" r="1.6666666666666667" />
<circle cx="676.47" cy="392.12" r="1.6666666666666667" />
<circle cx="676.81" cy="412.75" r="1.6666666666666667" />
<circle cx="677.08" cy="389.37" r="1.6666666666666667" />
<circle cx="677.42" cy="415.16" r="1.6666666666666667" />
<circle cx="677.70" cy="392.02" r="1.6666666666666667" />
<circle cx="678.03" cy="410.02" r="1.6666666666666667" />
<circle cx="678.28" cy="378.00" r="1.6666666666666667" />
<circle cx="678.58" cy="400.87" r="1.6666666666666667" />
<circle cx="678.83" cy="379.15" r="1.6666666666666667" />
<circle cx="679.12" cy="397.05" r="1.6666666666666667" />
<circle cx="679.35" cy="369.57" r="1.6666666666666667" />
<circle cx="679.62" cy="390.96" r="1.6666666666666667" />
<circle cx="679.87" cy="378.55" r="1.6666666666666667" />
<circle cx="680.15" cy="389.70" r="1.6666666666666667" />
<circle cx="680.35" cy="351.34" r="1.6666666666666667" />
<circle cx="680.60" cy="378.62" r="1.6666666666666667" />
<circle cx="680.80" cy="345.70" r="1.6666666666666667" />
<circle cx="681.05" cy="378.33" r="1.6666666666666667" />
<circle cx="681.25" cy="349.05" r="1.6666666666666667" />
<circle cx="681.51" cy="384.22" r="1.6666666666666667" />
<circle cx="681.72" cy="353.64" r="1.6666666666666667" />
<circle cx="681.97" cy="378.86" r="1.6666666666666667" />
<circle cx="682.17" cy="341.93" r="1.6666666666666667" />
<circle cx="682.40" cy="368.42" r="1.6666666666666667" />
<circle cx="682.59" cy="341.46" r="1.6666666666666667" />
<circle cx="682.82" cy="368.23" r="1.6666666666666667" />
<circle cx="683.03" cy="349.23" r="1.6666666666666667" />
<circle cx="683.28" cy="381.47" r="1.6666666666666667" />
<circle cx="683.49" cy="349.53" r="1.6666666666666667" />
<circle cx="683.75" cy="388.49" r="1.6666666666666667" />
<circle cx="683.94" cy="336.99" r="1.6666666666666667" />
<circle cx="684.19" cy="378.23" r="1.6666666666666667" />
<circle cx="684.39" cy="344.03" r="1.6666666666666667" />
<circle cx="684.64" cy="377.36" r="1.6666666666666667" />
<circle cx="684.84" cy="348.35" r="1.6666666666666667" />
<circle cx="685.08" cy="373.15" r="1.6666666666666667" />
<circle cx="685.28" cy="344.82" r="1.6666666666666667" />
<circle cx="685.52" cy="376.44" r="1.6666666666666667" />
<circle cx="685.72" cy="342.36" r="1.6666666666666667" />
<circle cx="685.97" cy="379.59" r="1.6666666666666667" />
<circle cx="686.17" cy="350.88" r="1.6666666666666667" />
<circle cx="686.42" cy="377.65" r="1.6666666666666667" />
<circle cx="686.64" cy="358.72" r="1.6666666666666667" />
<circle cx="686.89" cy="379.34" r="1.6666666666666667" />
<circle cx="687.09" cy="349.92" r="1.6666666666666667" />
<circle cx="687.35" cy="383.82" r="1.6666666666666667" />
<circle cx="687.55" cy="348.16" r="1.6666666666666667" />
<circle cx="687.82" cy="387.79" r="1.6666666666666667" />
<circle cx="688.04" cy="357.54" r="1.6666666666666667" />
<circle cx="688.28" cy="375.00" r="1.6666666666666667" />
<circle cx="688.50" cy="360.23" r="1.6666666666666667" />
<circle cx="688.76" cy="384.18" r="1.6666666666666667" />
<circle cx="688.97" cy="357.74" r="1.6666666666666667" />
<circle cx="689.25" cy="391.75" r="1.6666666666666667" />
<circle cx="689.46" cy="357.60" r="1.6666666666666667" />
<circle cx="689.74" cy="389.43" r="1.6666666666666667" />
<circle cx="689.95" cy="355.31" r="1.6666666666666667" />
<circle cx="690.22" cy="391.12" r="1.6666666666666667" />
<circle cx="690.46" cy="370.93" r="1.6666666666666667" />
<circle cx="690.72" cy="386.71" r="1.6666666666666667" />
<circle cx="746.48" cy="434.85" r="1.6666666666666667" />
<circle cx="746.98" cy="444.67" r="1.6666666666666667" />
<circle cx="747.35" cy="420.35" r="1.6666666666666667" />
<circle cx="747.84" cy="443.98" r="1.6666666666666667" />
<circle cx="748.25" cy="429.25" r="1.6666666666666667" />
<circle cx="748.77" cy="446.79" r="1.6666666666666667" />
<circle cx="749.15" cy="424.66" r="1.6666666666666667" />
<circle cx="749.65" cy="444.67" r="1.6666666666666667" />
<circle cx="750.02" cy="421.28" r="1.6666666666666667" />
<circle cx="750.48" cy="439.00" r="1.6666666666666667" />
<circle cx="750.89" cy="429.42" r="1.6666666666666667" />
<circle cx="751.36" cy="441.04" r="1.6666666666666667" />
<circle cx="751.76" cy="427.15" r="1.6666666666666667" />
<circle cx="752.20" cy="436.12" r="1.6666666666666667" />
<circle cx="752.60" cy="427.37" r="1.6666666666666667" />
<circle cx="753.06" cy="438.95" r="1.6666666666666667" />
<circle cx="753.51" cy="437.63" r="1.6666666666666667" />
<circle cx="753.97" cy="438.41" r="1.6666666666666667" />
<circle cx="754.33" cy="420.46" r="1.6666666666666667" />
<circle cx="754.80" cy="439.77" r="1.6666666666666667" />
<circle cx="755.21" cy="429.55" r="1.6666666666666667" />
<circle cx="755.77" cy="451.75" r="1.6666666666666667" />
<circle cx="756.18" cy="429.82" r="1.6666666666666667" />
<circle cx="756.69" cy="445.78" r="1.6666666666666667" />
<circle cx="757.10" cy="430.01" r="1.6666666666666667" />
<circle cx="757.62" cy="448.00" r="1.6666666666666667" />
<circle cx="758.07" cy="436.89" r="1.6666666666666667" />
<circle cx="758.60" cy="448.48" r="1.6666666666666667" />
<circle cx="759.10" cy="444.28" r="1.6666666666666667" />
<circle cx="759.63" cy="447.58" r="1.6666666666666667" />
<circle cx="759.99" cy="421.08" r="1.6666666666666667" />
<circle cx="760.52" cy="448.34" r="1.6666666666666667" />
<circle cx="760.97" cy="437.14" r="1.6666666666666667" />
<circle cx="761.48" cy="445.29" r="1.6666666666666667" />
<circle cx="761.89" cy="429.76" r="1.6666666666666667" />
<circle cx="762.40" cy="445.61" r="1.6666666666666667" />
<circle cx="762.79" cy="426.43" r="1.6666666666666667" />
<circle cx="763.29" cy="444.86" r="1.6666666666666667" />
<circle cx="763.71" cy="431.35" r="1.6666666666666667" />
<circle cx="764.20" cy="443.37" r="1.6666666666666667" />
<circle cx="764.67" cy="441.40" r="1.6666666666666667" />
<circle cx="765.16" cy="442.48" r="1.6666666666666667" />
<circle cx="765.64" cy="441.95" r="1.6666666666666667" />
<circle cx="766.13" cy="443.44" r="1.6666666666666667" />
<circle cx="767.05" cy="474.40" r="1.6666666666666667" />
<circle cx="767.50" cy="437.61" r="1.6666666666666667" />
<circle cx="768.02" cy="446.85" r="1.6666666666666667" />
<circle cx="768.44" cy="431.37" r="1.6666666666666667" />
<circle cx="768.91" cy="440.31" r="1.6666666666666667" />
<circle cx="769.34" cy="434.04" r="1.6666666666666667" />
<circle cx="769.89" cy="450.43" r="1.6666666666666667" />
<circle cx="770.32" cy="434.90" r="1.6666666666666667" />
<circle cx="770.85" cy="448.16" r="1.6666666666666667" />
<circle cx="771.28" cy="432.96" r="1.6666666666666667" />
<circle cx="771.82" cy="449.21" r="1.6666666666666667" />
<circle cx="772.25" cy="435.15" r="1.6666666666666667" />
<circle cx="772.75" cy="443.62" r="1.6666666666666667" />
<circle cx="773.22" cy="440.36" r="1.6666666666666667" />
<circle cx="773.67" cy="437.23" r="1.6666666666666667" />
<circle cx="774.11" cy="436.57" r="1.6666666666666667" />
<circle cx="774.64" cy="448.10" r="1.6666666666666667" />
<circle cx="775.02" cy="422.30" r="1.6666666666666667" />
<circle cx="775.49" cy="440.48" r="1.6666666666666667" />
<circle cx="775.92" cy="435.34" r="1.6666666666666667" />
<circle cx="776.42" cy="443.29" r="1.6666666666666667" />
<circle cx="776.84" cy="432.01" r="1.6666666666666667" />
<circle cx="777.27" cy="433.90" r="1.6666666666666667" />
<circle cx="777.69" cy="433.80" r="1.6666666666666667" />
<circle cx="778.21" cy="446.52" r="1.6666666666666667" />
<circle cx="778.63" cy="431.28" r="1.6666666666666667" />
<circle cx="779.09" cy="439.59" r="1.6666666666666667" />
<circle cx="779.48" cy="425.21" r="1.6666666666666667" />
<circle cx="779.95" cy="440.88" r="1.6666666666666667" />
<circle cx="780.37" cy="432.55" r="1.6666666666666667" />
<circle cx="780.85" cy="441.82" r="1.6666666666666667" />
<circle cx="781.29" cy="435.57" r="1.6666666666666667" />
<circle cx="781.81" cy="446.54" r="1.6666666666666667" />
<circle cx="782.22" cy="429.79" r="1.6666666666666667" />
<circle cx="782.71" cy="443.55" r="1.6666666666666667" />
<circle cx="783.21" cy="444.59" r="1.6666666666666667" />
<circle cx="783.68" cy="440.23" r="1.6666666666666667" />
<circle cx="784.17" cy="442.91" r="1.6666666666666667" />
<circle cx="784.66" cy="443.64" r="1.6666666666666667" />
<circle cx="785.11" cy="436.83" r="1.6666666666666667" />
<circle cx="785.61" cy="445.02" r="1.6666666666666667" />
<circle cx="786.06" cy="436.22" r="1.6666666666666667" />
<circle cx="786.56" cy="445.72" r="1.6666666666666667" />
<circle cx="786.98" cy="430.42" r="1.6666666666666667" />
<circle cx="787.48" cy="445.01" r="1.6666666666666667" />
<circle cx="787.91" cy="433.11" r="1.6666666666666667" />
<circle cx="788.36" cy="437.56" r="1.6666666666666667" />
<circle cx="788.76" cy="429.73" r="1.6666666666666667" />
<circle cx="789.27" cy="445.38" r="1.6666666666666667" />
<circle cx="789.63" cy="419.37" r="1.6666666666666667" />
<circle cx="790.12" cy="443.30" r="1.6666666666666667" />
<circle cx="790.51" cy="424.75" r="1.6666666666666667" />
<circle cx="791.02" cy="445.88" r="1.6666666666666667" />
<circle cx="791.45" cy="433.46" r="1.6666666666666667" />
<circle cx="792.00" cy="450.85" r="1.6666666666666667" />
<circle cx="792.41" cy="431.34" r="1.6666666666666667" />
<circle cx="792.87" cy="438.26" r="1.6666666666666667" />
<circle cx="793.26" cy="425.65" r="1.6666666666666667" />
<circle cx="793.73" cy="441.14" r="1.6666666666666667" />
<circle cx="794.13" cy="427.17" r="1.6666666666666667" />
<circle cx="794.64" cy="445.58" r="1.6666666666666667" />
<circle cx="795.04" cy="428.87" r="1.6666666666666667" />
</g>
<g stroke="black">
<line x1="813.75" x2="813.75" y1="510.00" y2="520.00" />
<line x1="760.60" x2="760.60" y1="510.00" y2="520.00" />
<line x1="707.45" x2="707.45" y1="510.00" y2="520.00" />
<line x1="656.01" x2="656.01" y1="510.00" y2="520.00" />
<line x1="602.86" x2="602.86" y1="510.00" y2="520.00" />
<line x1="551.42" x2="551.42" y1="510.00" y2="520.00" />
<line x1="498.27" x2="498.27" y1="510.00" y2="520.00" />
<line x1="445.11" x2="445.11" y1="510.00" y2="520.00" />
<line x1="393.68" x2="393.68" y1="510.00" y2="520.00" />
<line x1="340.52" x2="340.52" y1="510.00" y2="520.00" />
<line x1="289.09" x2="289.09" y1="510.00" y2="520.00" />
<line x1="235.93" x2="235.93" y1="510.00" y2="520.00" />
<line x1="187.92" x2="187.92" y1="510.00" y2="520.00" />
<g fill="black" font-family="Arial, sans-serif" font-size="18.0" stroke="none" text-anchor="start" transform="translate(9.0 0.0)">
<text x="813.75" y="530.57">Feb</text>
<text x="760.60" y="530.57">Jan</text>
<text x="707.45" y="530.57">Dec</text>
<text x="656.01" y="530.57">Nov</text>
<text x="602.86" y="530.57">Oct</text>
<text x="551.42" y="530.57">Sep</text>
<text x="498.27" y="530.57">Aug</text>
<text x="445.11" y="530.57">Jul</text>
<text x="393.68" y="530.57">Jun</text>
<text x="340.52" y="530.57">May</text>
<text x="289.09" y="530.57">Apr</text>
<text x="235.93" y="530.57">Mar</text>
<text x="187.92" y="530.57">Feb</text>
</g>
<line x1="150.00" x2="850.00" y1="510.00" y2="510.00" />
</g>
<g stroke="black">
<line x1="150.00" x2="140.00" y1="510.00" y2="510.00" />
<line x1="150.00" x2="140.00" y1="319.09" y2="319.09" />
<line x1="150.00" x2="140.00" y1="128.18" y2="128.18" />
<g fill="black" font-family="Arial, sans-serif" font-size="18.0" stroke="none" text-anchor="end">
<text x="141.00" y="501.00">0</text>
<text x="141.00" y="310.09">10</text>
<text x="141.00" y="119.18">20</text>
</g>
<line x1="150.00" x2="150.00" y1="510.00" y2="90.00" />
</g>
</g>
</svg>