<?xml version="1.0"?>
<svg version="1.1" viewBox="0 0 1000 600" xmlns:xlink="http://www.w3.org/1999/xlink" xmlns="http://www.w3.org/2000/svg">
<g>
<g stroke-dasharray="3.6 7.2" stroke-width="0.72" stroke="#caa">
<line x1="813.75" x2="813.75" y1="510.00" y2="90.00" />
<line x1="760.60" x2="760.60" y1="510.00" y2="90.00" />
<line x1="707.45" x2="707.45" y1="510.00" y2="90.00" />
<line x1="656.01" x2="656.01" y1="510.00" y2="90.00" />
<line x1="602.86" x2="602.86" y1="510.00" y2="90.00" />
<line x1="551.42" x2="551.42" y1="510.00" y2="90.00" />
<line x1="498.27" x2="498.27" y1="510.00" y2="90.00" />
<line x1="445.11" x2="445.11" y1="510.00" y2="90.00" />
<line x1="393.68" x2="393.68" y1="510.00" y2="90.00" />
<line x1="340.52" x2="340.52" y1="510.00" y2="90.00" />
<line x1="289.09" x2="289.09" y1="510.00" y2="90.00" />
<line x1="235.93" x2="235.93" y1="510.00" y2="90.00" />
<line x1="187.92" x2="187.92" y1="510.00" y2="90.00" />
<line x1="150.00" x2="850.00" y1="510.00" y2="510.00" />
<line x1="150.00" x2="850.00" y1="216.29" y2="216.29" />
</g>
<g>
<text dominant-baseline="hanging" dx="-36.0" dy="18.0" fill="#0004" font-family="Arial, sans-serif" font-size="36" stroke="none" text-anchor="end" x="850.00" y="128.18">ThMuCH2Sh02PairTall</text>
</g>
<g>
<text dominant-baseline="text-bottom" dy="-12.0" fill="black" font-family="Arial, sans-serif" font-size="18.0" font-style="italic" stroke="none" text-anchor="middle" x="500.00" y="90.00">Years 2023 to 2024</text>
</g>
<g>
<text dominant-baseline="central" dx="12.0" dy="12.0" fill="black" font-family="Arial, sans-serif" font-size="18.0" font-style="italic" stroke="none" text-anchor="middle" text-orientation="sideways" writing-mode="vertical-lr" x="850.00" y="300.00">log(Drips per day)</text>
</g>
<polyline fill="none" points="150.58,462.29 150.92,462.30 151.26,462.21 151.59,462.19 151.94,463.05 152.28,462.32 152.61,461.48 152.92,460.33 153.26,462.01 153.60,462.48 153.94,462.45 154.27,461.81 154.61,462.56 154.95,462.14 155.29,462.68 155.63,462.24 155.96,461.90 156.30,462.83 156.64,462.08 156.98,462.40 157.31,461.91 157.66,462.99 158.00,462.47 158.33,462.35 158.69,463.77 159.04,463.28 159.37,461.36 159.72,463.75 160.07,462.87 160.40,462.21 160.74,462.50 161.07,461.33 161.40,461.94 161.73,461.64 162.10,464.34 162.45,463.23 162.79,463.03 163.14,463.44 163.49,462.87 163.84,463.75 164.18,462.50 164.51,461.19 164.84,461.95 165.18,462.64 165.53,462.71 165.86,461.97 166.20,462.37 166.55,462.93 166.88,461.83 167.22,462.57 167.56,462.84 167.90,462.61 168.25,462.93 168.60,462.99 168.95,463.40 169.30,463.39 169.65,463.72 170.02,464.79 170.37,463.37 170.71,462.82 171.08,464.80 171.43,463.26 171.79,463.95 172.13,462.73 172.48,463.51 172.84,463.83 173.19,462.99 173.54,463.46 178.53,464.50 178.89,463.92 179.26,464.54 179.62,464.40 179.98,464.05 180.34,464.71 180.71,464.52 181.08,465.43 181.47,466.15 181.83,464.40 182.20,464.74 182.58,466.07 182.97,466.47 183.34,465.00 183.70,463.90 184.07,464.61 184.42,463.98 184.79,464.52 185.17,465.78 185.53,464.36 185.90,465.02 186.27,465.03 186.65,465.20 187.03,465.72 187.40,465.52 187.77,465.11 188.15,465.73 188.53,465.07 188.90,465.41 746.08,223.42 746.08,216.87 746.08,176.15 746.08,243.78" stroke-dasharray="3.6 3.6" stroke-width="3.6" stroke="#aaa" />
<g>
<circle cx="150.58" cy="462.29" r="1.6666666666666667" />
<circle cx="150.92" cy="462.30" r="1.6666666666666667" />
<circle cx="151.26" cy="462.21" r="1.6666666666666667" />
<circle cx="151.59" cy="462.19" r="1.6666666666666667" />
<circle cx="151.94" cy="463.05" r="1.6666666666666667" />
<circle cx="152.28" cy="462.32" r="1.6666666666666667" />
<circle cx="152.61" cy="461.48" r="1.6666666666666667" />
<circle cx="152.92" cy="460.33" r="1.6666666666666667" />
<circle cx="153.26" cy="462.01" r="1.6666666666666667" />
<circle cx="153.60" cy="462.48" r="1.6666666666666667" />
<circle cx="153.94" cy="462.45" r="1.6666666666666667" />
<circle cx="154.27" cy="461.81" r="1.6666666666666667" />
<circle cx="154.61" cy="462.56" r="1.6666666666666667" />
<circle cx="154.95" cy="462.14" r="1.6666666666666667" />
<circle cx="155.29" cy="462.68" r="1.6666666666666667" />
<circle cx="155.63" cy="462.24" r="1.6666666666666667" />
<circle cx="155.96" cy="461.90" r="1.6666666666666667" />
<circle cx="156.30" cy="462.83" r="1.6666666666666667" />
<circle cx="156.64" cy="462.08" r="1.6666666666666667" />
<circle cx="156.98" cy="462.40" r="1.6666666666666667" />
<circle cx="157.31" cy="461.91" r="1.6666666666666667" />
<circle cx="157.66" cy="462.99" r="1.6666666666666667" />
<circle cx="158.00" cy="462.47" r="1.6666666666666667" />
<circle cx="158.33" cy="462.35" r="1.6666666666666667" />
<circle cx="158.69" cy="463.77" r="1.6666666666666667" />
<circle cx="159.04" cy="463.28" r="1.6666666666666667" />
<circle cx="159.37" cy="461.36" r="1.6666666666666667" />
<circle cx="159.72" cy="463.75" r="1.6666666666666667" />
<circle cx="160.07" cy="462.87" r="1.6666666666666667" />
<circle cx="160.40" cy="462.21" r="1.6666666666666667" />
<circle cx="160.74" cy="462.50" r="1.6666666666666667" />
<circle cx="161.07" cy="461.33" r="1.6666666666666667" />
<circle cx="161.40" cy="461.94" r="1.6666666666666667" />
<circle cx="161.73" cy="461.64" r="1.6666666666666667" />
<circle cx="162.10" cy="464.34" r="1.6666666666666667" />
<circle cx="162.45" cy="463.23" r="1.6666666666666667" />
<circle cx="162.79" cy="463.03" r="1.6666666666666667" />
<circle cx="163.14" cy="463.44" r="1.6666666666666667" />
<circle cx="163.49" cy="462.87" r="1.6666666666666667" />
<circle cx="163.84" cy="463.75" r="1.6666666666666667" />
<circle cx="164.18" cy="462.50" r="1.6666666666666667" />
<circle cx="164.51" cy="461.19" r="1.6666666666666667" />
<circle cx="164.84" cy="461.95" r="1.6666666666666667" />
<circle cx="165.18" cy="462.64" r="1.6666666666666667" />
<circle cx="165.53" cy="462.71" r="1.6666666666666667" />
<circle cx="165.86" cy="461.97" r="1.6666666666666667" />
<circle cx="166.20" cy="462.37" r="1.6666666666666667" />
<circle cx="166.55" cy="462.93" r="1.6666666666666667" />
<circle cx="166.88" cy="461.83" r="1.6666666666666667" />
<circle cx="167.22" cy="462.57" r="1.6666666666666667" />
<circle cx="167.56" cy="462.84" r="1.6666666666666667" />
<circle cx="167.90" cy="462.61" r="1.6666666666666667" />
<circle cx="168.25" cy="462.93" r="1.6666666666666667" />
<circle cx="168.60" cy="462.99" r="1.6666666666666667" />
<circle cx="168.95" cy="463.40" r="1.6666666666666667" />
<circle cx="169.30" cy="463.39" r="1.6666666666666667" />
<circle cx="169.65" cy="463.72" r="1.6666666666666667" />
<circle cx="170.02" cy="464.79" r="1.6666666666666667" />
<circle cx="170.37" cy="463.37" r="1.6666666666666667" />
<circle cx="170.71" cy="462.82" r="1.6666666666666667" />
<circle cx="171.08" cy="464.80" r="1.6666666666666667" />
<circle cx="171.43" cy="463.26" r="1.6666666666666667" />
<circle cx="171.79" cy="463.95" r="1.6666666666666667" />
<circle cx="172.13" cy="462.73" r="1.6666666666666667" />
<circle cx="172.48" cy="463.51" r="1.6666666666666667" />
<circle cx="172.84" cy="463.83" r="1.6666666666666667" />
<circle cx="173.19" cy="462.99" r="1.6666666666666667" />
<circle cx="173.54" cy="463.46" r="1.6666666666666667" />
<circle cx="178.53" cy="464.50" r="1.6666666666666667" />
<circle cx="178.89" cy="463.92" r="1.6666666666666667" />
<circle cx="179.26" cy="464.54" r="1.6666666666666667" />
<circle cx="179.62" cy="464.40" r="1.6666666666666667" />
<circle cx="179.98" cy="464.05" r="1.6666666666666667" />
<circle cx="180.34" cy="464.71" r="1.6666666666666667" />
<circle cx="180.71" cy="464.52" r="1.6666666666666667" />
<circle cx="181.08" cy="465.43" r="1.6666666666666667" />
<circle cx="181.47" cy="466.15" r="1.6666666666666667" />
<circle cx="181.83" cy="464.40" r="1.6666666666666667" />
<circle cx="182.20" cy="464.74" r="1.6666666666666667" />
<circle cx="182.58" cy="466.07" r="1.6666666666666667" />
<circle cx="182.97" cy="466.47" r="1.6666666666666667" />
<circle cx="183.34" cy="465.00" r="1.6666666666666667" />
<circle cx="183.70" cy="463.90" r="1.6666666666666667" />
<circle cx="184.07" cy="464.61" r="1.6666666666666667" />
<circle cx="184.42" cy="463.98" r="1.6666666666666667" />
<circle cx="184.79" cy="464.52" r="1.6666666666666667" />
<circle cx="185.17" cy="465.78" r="1.6666666666666667" />
<circle cx="185.53" cy="464.36" r="1.6666666666666667" />
<circle cx="185.90" cy="465.02" r="1.6666666666666667" />
<circle cx="186.27" cy="465.03" r="1.6666666666666667" />
<circle cx="186.65" cy="465.20" r="1.6666666666666667" />
<circle cx="187.03" cy="465.72" r="1.6666666666666667" />
<circle cx="187.40" cy="465.52" r="1.6666666666666667" />
<circle cx="187.77" cy="465.11" r="1.6666666666666667" />
<circle cx="188.15" cy="465.73" r="1.6666666666666667" />
<circle cx="188.53" cy="465.07" r="1.6666666666666667" />
<circle cx="188.90" cy="465.41" r="1.6666666666666667" />
<circle cx="746.08" cy="223.42" r="1.6666666666666667" />
<circle cx="746.08" cy="216.87" r="1.6666666666666667" />
<circle cx="746.08" cy="176.15" r="1.6666666666666667" />
<circle cx="746.08" cy="243.78" r="1.6666666666666667" />
</g>
<g stroke="black">
<line x1="813.75" x2="813.75" y1="510.00" y2="520.00" />
<line x1="760.60" x2="760.60" y1="510.00" y2="520.00" />
<line x1="707.45" x2="707.45" y1="510.00" y2="520.00" />
<line x1="656.01" x2="656.01" y1="510.00" y2="520.00" />
<line x1="602.86" x2="602.86" y1="510.00" y2="520.00" />
<line x1="551.42" x2="551.42" y1="510.00" y2="520.00" />
<line x1="498.27" x2="498.27" y1="510.00" y2="520.00" />
<line x1="445.11" x2="445.11" y1="510.00" y2="520.00" />
<line x1="393.68" x2="393.68" y1="510.00" y2="520.00" />
<line x1="340.52" x2="340.52" y1="510.00" y2="520.00" />
<line x1="289.09" x2="289.09" y1="510.00" y2="520.00" />
<line x1="235.93" x2="235.93" y1="510.00" y2="520.00" />
<line x1="187.92" x2="187.92" y1="510.00" y2="520.00" />
<g fill="black" font-family="Arial, sans-serif" font-size="18.0" stroke="none" text-anchor="start" transform="translate(9.0 0.0)">
<text x="813.75" y="530.57">Feb</text>
<text x="760.60" y="530.57">Jan</text>
<text x="707.45" y="530.57">Dec</text>
<text x="656.01" y="530.57">Nov</text>
<text x="602.86" y="530.57">Oct</text>
<text x="551.42" y="530.57">Sep</text>
<text x="498.27" y="530.57">Aug</text>
<text x="445.11" y="530.57">Jul</text>
<text x="393.68" y="530.57">Jun</text>
<text x="340.52" y="530.57">May</text>
<text x="289.09" y="530.57">Apr</text>
<text x="235.93" y="530.57">Mar</text>
<text x="187.92" y="530.57">Feb</text>
</g>
<line x1="150.00" x2="850.00" y1="510.00" y2="510.00" />
</g>
<g stroke="black">
<line x1="150.00" x2="140.00" y1="510.00" y2="510.00" />
<line x1="150.00" x2="140.00" y1="216.29" y2="216.29" />
<g fill="black" font-family="Arial, sans-serif" font-size="18.0" stroke="none" text-anchor="end">
<text x="141.00" y="501.00">0</text>
<text x="141.00" y="207.29">10</text>
</g>
<line x1="150.00" x2="150.00" y1="510.00" y2="90.00" />
</g>
</g>
</svg>