<?xml version="1.0"?>
<svg version="1.1" viewBox="0 0 1000 600" xmlns:xlink="http://www.w3.org/1999/xlink" xmlns="http://www.w3.org/2000/svg">
<g>
<g stroke-dasharray="3.6 7.2" stroke-width="0.72" stroke="#caa">
<line x1="813.75" x2="813.75" y1="510.00" y2="90.00" />
<line x1="760.60" x2="760.60" y1="510.00" y2="90.00" />
<line x1="707.45" x2="707.45" y1="510.00" y2="90.00" />
<line x1="656.01" x2="656.01" y1="510.00" y2="90.00" />
<line x1="602.86" x2="602.86" y1="510.00" y2="90.00" />
<line x1="551.42" x2="551.42" y1="510.00" y2="90.00" />
<line x1="498.27" x2="498.27" y1="510.00" y2="90.00" />
<line x1="445.11" x2="445.11" y1="510.00" y2="90.00" />
<line x1="393.68" x2="393.68" y1="510.00" y2="90.00" />
<line x1="340.52" x2="340.52" y1="510.00" y2="90.00" />
<line x1="289.09" x2="289.09" y1="510.00" y2="90.00" />
<line x1="235.93" x2="235.93" y1="510.00" y2="90.00" />
<line x1="187.92" x2="187.92" y1="510.00" y2="90.00" />
<line x1="150.00" x2="850.00" y1="510.00" y2="510.00" />
<line x1="150.00" x2="850.00" y1="319.09" y2="319.09" />
<line x1="150.00" x2="850.00" y1="128.18" y2="128.18" />
</g>
<g>
<text dominant-baseline="hanging" dx="-36.0" dy="18.0" fill="#0004" font-family="Arial, sans-serif" font-size="36" stroke="none" text-anchor="end" x="850.00" y="128.18">ThMuOutsideWasp</text>
</g>
<g>
<text dominant-baseline="text-bottom" dy="-12.0" fill="black" font-family="Arial, sans-serif" font-size="18.0" font-style="italic" stroke="none" text-anchor="middle" x="500.00" y="90.00">Days since start</text>
</g>
<g>
<text dominant-baseline="central" dx="12.0" dy="12.0" fill="black" font-family="Arial, sans-serif" font-size="18.0" font-style="italic" stroke="none" text-anchor="middle" text-orientation="sideways" writing-mode="vertical-lr" x="850.00" y="300.00">Drips per day</text>
</g>
<polyline fill="none" points="175.08,461.27 176.12,478.57 177.43,484.73 177.68,357.15 209.10,409.44 219.19,100.30 219.65,426.26 288.11,452.00 288.46,418.00 297.91,367.55 298.46,450.46 301.45,246.80 301.92,440.85 308.69,438.16 309.08,426.79 327.28,440.13 327.79,445.72 328.49,463.48 329.28,454.70 330.13,471.58 330.23,110.23 330.68,401.40 331.01,410.63 332.18,482.03 332.66,426.53 333.74,479.58 334.63,473.35 335.37,465.82 336.20,470.52 337.16,475.88 337.76,449.10 338.31,450.78 338.86,450.10 339.52,440.53 340.49,476.37 340.63,113.97 340.80,290.77 341.51,463.40 347.37,471.70 347.63,379.03 348.26,457.53 356.34,164.42 357.24,473.92 364.86,309.46 365.32,438.80 365.85,449.14 366.48,458.05 366.91,431.86 367.48,453.25 371.04,487.51 371.23,332.03 372.26,474.96 372.71,437.38 374.27,488.95 378.36,164.64 378.59,365.16 379.20,456.83 384.72,488.55 384.97,263.56 385.29,407.86 385.48,315.99 386.00,446.43 386.58,453.98 386.69,207.63 387.00,392.31 387.22,347.99 387.49,321.71 387.64,278.30 389.64,288.48 389.74,183.05 390.21,434.23 390.57,380.50 391.61,474.87 391.96,349.05 392.10,228.52 392.42,209.66 392.79,406.92 393.27,419.64 393.53,377.36 393.78,226.20 393.92,196.77 394.49,386.28 394.81,381.00 395.05,320.39 395.67,384.79 396.30,456.19 396.66,418.48 397.78,480.67 397.93,285.86 398.12,337.75 398.33,358.92 398.50,285.86 399.06,451.63 401.27,342.61 402.00,459.24 402.15,263.96 403.31,481.72 403.51,288.21 403.83,404.71 404.03,343.44 405.04,476.46 406.56,481.49 409.75,486.39 409.97,364.33 410.47,443.87 411.22,442.91 411.79,451.64 412.86,479.32 413.52,451.53 413.80,393.27 413.92,230.05 414.97,478.40 423.78,473.34 425.47,489.80 425.94,440.36 426.97,476.83 436.50,300.97 437.24,465.44 476.63,287.22 477.08,414.42 477.20,230.05 477.70,419.51 478.04,216.66 478.63,312.06 479.15,442.17 479.36,351.43 480.57,482.94 480.76,328.24 480.91,135.80 481.77,240.61 481.90,133.67 482.19,198.13 482.65,439.06 482.79,224.82 482.91,146.52 483.08,130.99 483.28,311.27 483.86,425.18 484.29,434.64 485.13,463.29 485.46,411.59 485.65,310.24 485.78,213.02 486.11,285.68 486.99,472.20 487.71,464.19 488.03,409.05 488.55,440.25 488.90,416.66 489.57,446.40 492.75,479.31 493.04,304.64 495.84,230.62 496.62,465.45 496.72,156.12 497.77,477.95 498.11,379.10 498.97,471.05 499.48,441.84 499.60,233.71 500.11,389.09" stroke-dasharray="3.6 3.6" stroke-width="3.6" stroke="#aaa" />
<g>
<circle cx="175.08" cy="461.27" r="1.6666666666666667" />
<circle cx="176.12" cy="478.57" r="1.6666666666666667" />
<circle cx="177.43" cy="484.73" r="1.6666666666666667" />
<circle cx="177.68" cy="357.15" r="1.6666666666666667" />
<circle cx="209.10" cy="409.44" r="1.6666666666666667" />
<circle cx="219.19" cy="100.30" r="1.6666666666666667" />
<circle cx="219.65" cy="426.26" r="1.6666666666666667" />
<circle cx="288.11" cy="452.00" r="1.6666666666666667" />
<circle cx="288.46" cy="418.00" r="1.6666666666666667" />
<circle cx="297.91" cy="367.55" r="1.6666666666666667" />
<circle cx="298.46" cy="450.46" r="1.6666666666666667" />
<circle cx="301.45" cy="246.80" r="1.6666666666666667" />
<circle cx="301.92" cy="440.85" r="1.6666666666666667" />
<circle cx="308.69" cy="438.16" r="1.6666666666666667" />
<circle cx="309.08" cy="426.79" r="1.6666666666666667" />
<circle cx="327.28" cy="440.13" r="1.6666666666666667" />
<circle cx="327.79" cy="445.72" r="1.6666666666666667" />
<circle cx="328.49" cy="463.48" r="1.6666666666666667" />
<circle cx="329.28" cy="454.70" r="1.6666666666666667" />
<circle cx="330.13" cy="471.58" r="1.6666666666666667" />
<circle cx="330.23" cy="110.23" r="1.6666666666666667" />
<circle cx="330.68" cy="401.40" r="1.6666666666666667" />
<circle cx="331.01" cy="410.63" r="1.6666666666666667" />
<circle cx="332.18" cy="482.03" r="1.6666666666666667" />
<circle cx="332.66" cy="426.53" r="1.6666666666666667" />
<circle cx="333.74" cy="479.58" r="1.6666666666666667" />
<circle cx="334.63" cy="473.35" r="1.6666666666666667" />
<circle cx="335.37" cy="465.82" r="1.6666666666666667" />
<circle cx="336.20" cy="470.52" r="1.6666666666666667" />
<circle cx="337.16" cy="475.88" r="1.6666666666666667" />
<circle cx="337.76" cy="449.10" r="1.6666666666666667" />
<circle cx="338.31" cy="450.78" r="1.6666666666666667" />
<circle cx="338.86" cy="450.10" r="1.6666666666666667" />
<circle cx="339.52" cy="440.53" r="1.6666666666666667" />
<circle cx="340.49" cy="476.37" r="1.6666666666666667" />
<circle cx="340.63" cy="113.97" r="1.6666666666666667" />
<circle cx="340.80" cy="290.77" r="1.6666666666666667" />
<circle cx="341.51" cy="463.40" r="1.6666666666666667" />
<circle cx="347.37" cy="471.70" r="1.6666666666666667" />
<circle cx="347.63" cy="379.03" r="1.6666666666666667" />
<circle cx="348.26" cy="457.53" r="1.6666666666666667" />
<circle cx="356.34" cy="164.42" r="1.6666666666666667" />
<circle cx="357.24" cy="473.92" r="1.6666666666666667" />
<circle cx="364.86" cy="309.46" r="1.6666666666666667" />
<circle cx="365.32" cy="438.80" r="1.6666666666666667" />
<circle cx="365.85" cy="449.14" r="1.6666666666666667" />
<circle cx="366.48" cy="458.05" r="1.6666666666666667" />
<circle cx="366.91" cy="431.86" r="1.6666666666666667" />
<circle cx="367.48" cy="453.25" r="1.6666666666666667" />
<circle cx="371.04" cy="487.51" r="1.6666666666666667" />
<circle cx="371.23" cy="332.03" r="1.6666666666666667" />
<circle cx="372.26" cy="474.96" r="1.6666666666666667" />
<circle cx="372.71" cy="437.38" r="1.6666666666666667" />
<circle cx="374.27" cy="488.95" r="1.6666666666666667" />
<circle cx="378.36" cy="164.64" r="1.6666666666666667" />
<circle cx="378.59" cy="365.16" r="1.6666666666666667" />
<circle cx="379.20" cy="456.83" r="1.6666666666666667" />
<circle cx="384.72" cy="488.55" r="1.6666666666666667" />
<circle cx="384.97" cy="263.56" r="1.6666666666666667" />
<circle cx="385.29" cy="407.86" r="1.6666666666666667" />
<circle cx="385.48" cy="315.99" r="1.6666666666666667" />
<circle cx="386.00" cy="446.43" r="1.6666666666666667" />
<circle cx="386.58" cy="453.98" r="1.6666666666666667" />
<circle cx="386.69" cy="207.63" r="1.6666666666666667" />
<circle cx="387.00" cy="392.31" r="1.6666666666666667" />
<circle cx="387.22" cy="347.99" r="1.6666666666666667" />
<circle cx="387.49" cy="321.71" r="1.6666666666666667" />
<circle cx="387.64" cy="278.30" r="1.6666666666666667" />
<circle cx="389.64" cy="288.48" r="1.6666666666666667" />
<circle cx="389.74" cy="183.05" r="1.6666666666666667" />
<circle cx="390.21" cy="434.23" r="1.6666666666666667" />
<circle cx="390.57" cy="380.50" r="1.6666666666666667" />
<circle cx="391.61" cy="474.87" r="1.6666666666666667" />
<circle cx="391.96" cy="349.05" r="1.6666666666666667" />
<circle cx="392.10" cy="228.52" r="1.6666666666666667" />
<circle cx="392.42" cy="209.66" r="1.6666666666666667" />
<circle cx="392.79" cy="406.92" r="1.6666666666666667" />
<circle cx="393.27" cy="419.64" r="1.6666666666666667" />
<circle cx="393.53" cy="377.36" r="1.6666666666666667" />
<circle cx="393.78" cy="226.20" r="1.6666666666666667" />
<circle cx="393.92" cy="196.77" r="1.6666666666666667" />
<circle cx="394.49" cy="386.28" r="1.6666666666666667" />
<circle cx="394.81" cy="381.00" r="1.6666666666666667" />
<circle cx="395.05" cy="320.39" r="1.6666666666666667" />
<circle cx="395.67" cy="384.79" r="1.6666666666666667" />
<circle cx="396.30" cy="456.19" r="1.6666666666666667" />
<circle cx="396.66" cy="418.48" r="1.6666666666666667" />
<circle cx="397.78" cy="480.67" r="1.6666666666666667" />
<circle cx="397.93" cy="285.86" r="1.6666666666666667" />
<circle cx="398.12" cy="337.75" r="1.6666666666666667" />
<circle cx="398.33" cy="358.92" r="1.6666666666666667" />
<circle cx="398.50" cy="285.86" r="1.6666666666666667" />
<circle cx="399.06" cy="451.63" r="1.6666666666666667" />
<circle cx="401.27" cy="342.61" r="1.6666666666666667" />
<circle cx="402.00" cy="459.24" r="1.6666666666666667" />
<circle cx="402.15" cy="263.96" r="1.6666666666666667" />
<circle cx="403.31" cy="481.72" r="1.6666666666666667" />
<circle cx="403.51" cy="288.21" r="1.6666666666666667" />
<circle cx="403.83" cy="404.71" r="1.6666666666666667" />
<circle cx="404.03" cy="343.44" r="1.6666666666666667" />
<circle cx="405.04" cy="476.46" r="1.6666666666666667" />
<circle cx="406.56" cy="481.49" r="1.6666666666666667" />
<circle cx="409.75" cy="486.39" r="1.6666666666666667" />
<circle cx="409.97" cy="364.33" r="1.6666666666666667" />
<circle cx="410.47" cy="443.87" r="1.6666666666666667" />
<circle cx="411.22" cy="442.91" r="1.6666666666666667" />
<circle cx="411.79" cy="451.64" r="1.6666666666666667" />
<circle cx="412.86" cy="479.32" r="1.6666666666666667" />
<circle cx="413.52" cy="451.53" r="1.6666666666666667" />
<circle cx="413.80" cy="393.27" r="1.6666666666666667" />
<circle cx="413.92" cy="230.05" r="1.6666666666666667" />
<circle cx="414.97" cy="478.40" r="1.6666666666666667" />
<circle cx="423.78" cy="473.34" r="1.6666666666666667" />
<circle cx="425.47" cy="489.80" r="1.6666666666666667" />
<circle cx="425.94" cy="440.36" r="1.6666666666666667" />
<circle cx="426.97" cy="476.83" r="1.6666666666666667" />
<circle cx="436.50" cy="300.97" r="1.6666666666666667" />
<circle cx="437.24" cy="465.44" r="1.6666666666666667" />
<circle cx="476.63" cy="287.22" r="1.6666666666666667" />
<circle cx="477.08" cy="414.42" r="1.6666666666666667" />
<circle cx="477.20" cy="230.05" r="1.6666666666666667" />
<circle cx="477.70" cy="419.51" r="1.6666666666666667" />
<circle cx="478.04" cy="216.66" r="1.6666666666666667" />
<circle cx="478.63" cy="312.06" r="1.6666666666666667" />
<circle cx="479.15" cy="442.17" r="1.6666666666666667" />
<circle cx="479.36" cy="351.43" r="1.6666666666666667" />
<circle cx="480.57" cy="482.94" r="1.6666666666666667" />
<circle cx="480.76" cy="328.24" r="1.6666666666666667" />
<circle cx="480.91" cy="135.80" r="1.6666666666666667" />
<circle cx="481.77" cy="240.61" r="1.6666666666666667" />
<circle cx="481.90" cy="133.67" r="1.6666666666666667" />
<circle cx="482.19" cy="198.13" r="1.6666666666666667" />
<circle cx="482.65" cy="439.06" r="1.6666666666666667" />
<circle cx="482.79" cy="224.82" r="1.6666666666666667" />
<circle cx="482.91" cy="146.52" r="1.6666666666666667" />
<circle cx="483.08" cy="130.99" r="1.6666666666666667" />
<circle cx="483.28" cy="311.27" r="1.6666666666666667" />
<circle cx="483.86" cy="425.18" r="1.6666666666666667" />
<circle cx="484.29" cy="434.64" r="1.6666666666666667" />
<circle cx="485.13" cy="463.29" r="1.6666666666666667" />
<circle cx="485.46" cy="411.59" r="1.6666666666666667" />
<circle cx="485.65" cy="310.24" r="1.6666666666666667" />
<circle cx="485.78" cy="213.02" r="1.6666666666666667" />
<circle cx="486.11" cy="285.68" r="1.6666666666666667" />
<circle cx="486.99" cy="472.20" r="1.6666666666666667" />
<circle cx="487.71" cy="464.19" r="1.6666666666666667" />
<circle cx="488.03" cy="409.05" r="1.6666666666666667" />
<circle cx="488.55" cy="440.25" r="1.6666666666666667" />
<circle cx="488.90" cy="416.66" r="1.6666666666666667" />
<circle cx="489.57" cy="446.40" r="1.6666666666666667" />
<circle cx="492.75" cy="479.31" r="1.6666666666666667" />
<circle cx="493.04" cy="304.64" r="1.6666666666666667" />
<circle cx="495.84" cy="230.62" r="1.6666666666666667" />
<circle cx="496.62" cy="465.45" r="1.6666666666666667" />
<circle cx="496.72" cy="156.12" r="1.6666666666666667" />
<circle cx="497.77" cy="477.95" r="1.6666666666666667" />
<circle cx="498.11" cy="379.10" r="1.6666666666666667" />
<circle cx="498.97" cy="471.05" r="1.6666666666666667" />
<circle cx="499.48" cy="441.84" r="1.6666666666666667" />
<circle cx="499.60" cy="233.71" r="1.6666666666666667" />
<circle cx="500.11" cy="389.09" r="1.6666666666666667" />
</g>
<g stroke="black">
<line x1="813.75" x2="813.75" y1="510.00" y2="520.00" />
<line x1="760.60" x2="760.60" y1="510.00" y2="520.00" />
<line x1="707.45" x2="707.45" y1="510.00" y2="520.00" />
<line x1="656.01" x2="656.01" y1="510.00" y2="520.00" />
<line x1="602.86" x2="602.86" y1="510.00" y2="520.00" />
<line x1="551.42" x2="551.42" y1="510.00" y2="520.00" />
<line x1="498.27" x2="498.27" y1="510.00" y2="520.00" />
<line x1="445.11" x2="445.11" y1="510.00" y2="520.00" />
<line x1="393.68" x2="393.68" y1="510.00" y2="520.00" />
<line x1="340.52" x2="340.52" y1="510.00" y2="520.00" />
<line x1="289.09" x2="289.09" y1="510.00" y2="520.00" />
<line x1="235.93" x2="235.93" y1="510.00" y2="520.00" />
<line x1="187.92" x2="187.92" y1="510.00" y2="520.00" />
<g fill="black" font-family="Arial, sans-serif" font-size="18.0" stroke="none" text-anchor="start" transform="translate(9.0 0.0)">
<text x="813.75" y="530.57">Feb</text>
<text x="760.60" y="530.57">Jan</text>
<text x="707.45" y="530.57">Dec</text>
<text x="656.01" y="530.57">Nov</text>
<text x="602.86" y="530.57">Oct</text>
<text x="551.42" y="530.57">Sep</text>
<text x="498.27" y="530.57">Aug</text>
<text x="445.11" y="530.57">Jul</text>
<text x="393.68" y="530.57">Jun</text>
<text x="340.52" y="530.57">May</text>
<text x="289.09" y="530.57">Apr</text>
<text x="235.93" y="530.57">Mar</text>
<text x="187.92" y="530.57">Feb</text>
</g>
<line x1="150.00" x2="850.00" y1="510.00" y2="510.00" />
</g>
<g stroke="black">
<line x1="150.00" x2="140.00" y1="510.00" y2="510.00" />
<line x1="150.00" x2="140.00" y1="319.09" y2="319.09" />
<line x1="150.00" x2="140.00" y1="128.18" y2="128.18" />
<g fill="black" font-family="Arial, sans-serif" font-size="18.0" stroke="none" text-anchor="end">
<text x="141.00" y="501.00">0</text>
<text x="141.00" y="310.09">10</text>
<text x="141.00" y="119.18">20</text>
</g>
<line x1="150.00" x2="150.00" y1="510.00" y2="90.00" />
</g>
</g>
</svg>