<?xml version="1.0"?>
<svg version="1.1" viewBox="0 0 1000 600" xmlns:xlink="http://www.w3.org/1999/xlink" xmlns="http://www.w3.org/2000/svg">
<g>
<g stroke-dasharray="3.6 7.2" stroke-width="0.72" stroke="#caa">
<line x1="813.75" x2="813.75" y1="510.00" y2="90.00" />
<line x1="760.60" x2="760.60" y1="510.00" y2="90.00" />
<line x1="707.45" x2="707.45" y1="510.00" y2="90.00" />
<line x1="656.01" x2="656.01" y1="510.00" y2="90.00" />
<line x1="602.86" x2="602.86" y1="510.00" y2="90.00" />
<line x1="551.42" x2="551.42" y1="510.00" y2="90.00" />
<line x1="498.27" x2="498.27" y1="510.00" y2="90.00" />
<line x1="445.11" x2="445.11" y1="510.00" y2="90.00" />
<line x1="393.68" x2="393.68" y1="510.00" y2="90.00" />
<line x1="340.52" x2="340.52" y1="510.00" y2="90.00" />
<line x1="289.09" x2="289.09" y1="510.00" y2="90.00" />
<line x1="235.93" x2="235.93" y1="510.00" y2="90.00" />
<line x1="187.92" x2="187.92" y1="510.00" y2="90.00" />
<line x1="150.00" x2="850.00" y1="510.00" y2="510.00" />
<line x1="150.00" x2="850.00" y1="319.09" y2="319.09" />
<line x1="150.00" x2="850.00" y1="128.18" y2="128.18" />
</g>
<g>
<text dominant-baseline="hanging" dx="-36.0" dy="18.0" fill="#0004" font-family="Arial, sans-serif" font-size="36" stroke="none" text-anchor="end" x="850.00" y="128.18">ThMuCH2Sh02PairTall</text>
</g>
<g>
<text dominant-baseline="text-bottom" dy="-12.0" fill="black" font-family="Arial, sans-serif" font-size="18.0" font-style="italic" stroke="none" text-anchor="middle" x="500.00" y="90.00">Days since start</text>
</g>
<g>
<text dominant-baseline="central" dx="12.0" dy="12.0" fill="black" font-family="Arial, sans-serif" font-size="18.0" font-style="italic" stroke="none" text-anchor="middle" text-orientation="sideways" writing-mode="vertical-lr" x="850.00" y="300.00">Drips per day</text>
</g>
<polyline fill="none" points="150.58,413.10 150.92,413.15 151.26,412.84 151.59,412.78 151.94,415.58 152.28,413.20 152.61,410.40 152.92,406.42 153.26,412.17 153.60,413.73 153.94,413.65 154.27,411.50 154.61,413.98 154.95,412.62 155.29,414.39 155.63,412.94 155.96,411.81 156.30,414.89 156.64,412.42 156.98,413.47 157.31,411.85 157.66,415.37 158.00,413.68 158.33,413.29 158.69,417.88 159.04,416.30 159.37,410.00 159.72,417.79 160.07,415.01 160.40,412.85 160.74,413.79 161.07,409.88 161.40,411.93 161.73,410.95 162.10,419.63 162.45,416.14 162.79,415.52 163.14,416.83 163.49,414.99 163.84,417.80 164.18,413.79 164.51,409.39 164.84,411.98 165.18,414.26 165.53,414.50 165.86,412.03 166.20,413.37 166.55,415.19 166.88,411.56 167.22,414.04 167.56,414.90 167.90,414.15 168.25,415.21 168.60,415.39 168.95,416.70 169.30,416.68 169.65,417.71 170.02,421.00 170.37,416.61 170.71,414.84 171.08,421.04 171.43,416.25 171.79,418.42 172.13,414.56 172.48,417.04 172.84,418.05 173.19,415.37 173.54,416.91 178.53,420.14 178.89,418.33 179.26,420.25 179.62,419.82 179.98,418.74 180.34,420.77 180.71,420.20 181.08,422.94 181.47,425.05 181.83,419.83 182.20,420.85 182.58,424.81 182.97,425.97 183.34,421.64 183.70,418.27 184.07,420.46 184.42,418.52 184.79,420.18 185.17,423.95 185.53,419.70 185.90,421.70 186.27,421.74 186.65,422.24 187.03,423.77 187.40,423.20 187.77,421.96 188.15,423.82 188.53,421.86 188.90,422.86" stroke-dasharray="3.6 3.6" stroke-width="3.6" stroke="#aaa" />
<g>
<circle cx="150.58" cy="413.10" r="1.6666666666666667" />
<circle cx="150.92" cy="413.15" r="1.6666666666666667" />
<circle cx="151.26" cy="412.84" r="1.6666666666666667" />
<circle cx="151.59" cy="412.78" r="1.6666666666666667" />
<circle cx="151.94" cy="415.58" r="1.6666666666666667" />
<circle cx="152.28" cy="413.20" r="1.6666666666666667" />
<circle cx="152.61" cy="410.40" r="1.6666666666666667" />
<circle cx="152.92" cy="406.42" r="1.6666666666666667" />
<circle cx="153.26" cy="412.17" r="1.6666666666666667" />
<circle cx="153.60" cy="413.73" r="1.6666666666666667" />
<circle cx="153.94" cy="413.65" r="1.6666666666666667" />
<circle cx="154.27" cy="411.50" r="1.6666666666666667" />
<circle cx="154.61" cy="413.98" r="1.6666666666666667" />
<circle cx="154.95" cy="412.62" r="1.6666666666666667" />
<circle cx="155.29" cy="414.39" r="1.6666666666666667" />
<circle cx="155.63" cy="412.94" r="1.6666666666666667" />
<circle cx="155.96" cy="411.81" r="1.6666666666666667" />
<circle cx="156.30" cy="414.89" r="1.6666666666666667" />
<circle cx="156.64" cy="412.42" r="1.6666666666666667" />
<circle cx="156.98" cy="413.47" r="1.6666666666666667" />
<circle cx="157.31" cy="411.85" r="1.6666666666666667" />
<circle cx="157.66" cy="415.37" r="1.6666666666666667" />
<circle cx="158.00" cy="413.68" r="1.6666666666666667" />
<circle cx="158.33" cy="413.29" r="1.6666666666666667" />
<circle cx="158.69" cy="417.88" r="1.6666666666666667" />
<circle cx="159.04" cy="416.30" r="1.6666666666666667" />
<circle cx="159.37" cy="410.00" r="1.6666666666666667" />
<circle cx="159.72" cy="417.79" r="1.6666666666666667" />
<circle cx="160.07" cy="415.01" r="1.6666666666666667" />
<circle cx="160.40" cy="412.85" r="1.6666666666666667" />
<circle cx="160.74" cy="413.79" r="1.6666666666666667" />
<circle cx="161.07" cy="409.88" r="1.6666666666666667" />
<circle cx="161.40" cy="411.93" r="1.6666666666666667" />
<circle cx="161.73" cy="410.95" r="1.6666666666666667" />
<circle cx="162.10" cy="419.63" r="1.6666666666666667" />
<circle cx="162.45" cy="416.14" r="1.6666666666666667" />
<circle cx="162.79" cy="415.52" r="1.6666666666666667" />
<circle cx="163.14" cy="416.83" r="1.6666666666666667" />
<circle cx="163.49" cy="414.99" r="1.6666666666666667" />
<circle cx="163.84" cy="417.80" r="1.6666666666666667" />
<circle cx="164.18" cy="413.79" r="1.6666666666666667" />
<circle cx="164.51" cy="409.39" r="1.6666666666666667" />
<circle cx="164.84" cy="411.98" r="1.6666666666666667" />
<circle cx="165.18" cy="414.26" r="1.6666666666666667" />
<circle cx="165.53" cy="414.50" r="1.6666666666666667" />
<circle cx="165.86" cy="412.03" r="1.6666666666666667" />
<circle cx="166.20" cy="413.37" r="1.6666666666666667" />
<circle cx="166.55" cy="415.19" r="1.6666666666666667" />
<circle cx="166.88" cy="411.56" r="1.6666666666666667" />
<circle cx="167.22" cy="414.04" r="1.6666666666666667" />
<circle cx="167.56" cy="414.90" r="1.6666666666666667" />
<circle cx="167.90" cy="414.15" r="1.6666666666666667" />
<circle cx="168.25" cy="415.21" r="1.6666666666666667" />
<circle cx="168.60" cy="415.39" r="1.6666666666666667" />
<circle cx="168.95" cy="416.70" r="1.6666666666666667" />
<circle cx="169.30" cy="416.68" r="1.6666666666666667" />
<circle cx="169.65" cy="417.71" r="1.6666666666666667" />
<circle cx="170.02" cy="421.00" r="1.6666666666666667" />
<circle cx="170.37" cy="416.61" r="1.6666666666666667" />
<circle cx="170.71" cy="414.84" r="1.6666666666666667" />
<circle cx="171.08" cy="421.04" r="1.6666666666666667" />
<circle cx="171.43" cy="416.25" r="1.6666666666666667" />
<circle cx="171.79" cy="418.42" r="1.6666666666666667" />
<circle cx="172.13" cy="414.56" r="1.6666666666666667" />
<circle cx="172.48" cy="417.04" r="1.6666666666666667" />
<circle cx="172.84" cy="418.05" r="1.6666666666666667" />
<circle cx="173.19" cy="415.37" r="1.6666666666666667" />
<circle cx="173.54" cy="416.91" r="1.6666666666666667" />
<circle cx="178.53" cy="420.14" r="1.6666666666666667" />
<circle cx="178.89" cy="418.33" r="1.6666666666666667" />
<circle cx="179.26" cy="420.25" r="1.6666666666666667" />
<circle cx="179.62" cy="419.82" r="1.6666666666666667" />
<circle cx="179.98" cy="418.74" r="1.6666666666666667" />
<circle cx="180.34" cy="420.77" r="1.6666666666666667" />
<circle cx="180.71" cy="420.20" r="1.6666666666666667" />
<circle cx="181.08" cy="422.94" r="1.6666666666666667" />
<circle cx="181.47" cy="425.05" r="1.6666666666666667" />
<circle cx="181.83" cy="419.83" r="1.6666666666666667" />
<circle cx="182.20" cy="420.85" r="1.6666666666666667" />
<circle cx="182.58" cy="424.81" r="1.6666666666666667" />
<circle cx="182.97" cy="425.97" r="1.6666666666666667" />
<circle cx="183.34" cy="421.64" r="1.6666666666666667" />
<circle cx="183.70" cy="418.27" r="1.6666666666666667" />
<circle cx="184.07" cy="420.46" r="1.6666666666666667" />
<circle cx="184.42" cy="418.52" r="1.6666666666666667" />
<circle cx="184.79" cy="420.18" r="1.6666666666666667" />
<circle cx="185.17" cy="423.95" r="1.6666666666666667" />
<circle cx="185.53" cy="419.70" r="1.6666666666666667" />
<circle cx="185.90" cy="421.70" r="1.6666666666666667" />
<circle cx="186.27" cy="421.74" r="1.6666666666666667" />
<circle cx="186.65" cy="422.24" r="1.6666666666666667" />
<circle cx="187.03" cy="423.77" r="1.6666666666666667" />
<circle cx="187.40" cy="423.20" r="1.6666666666666667" />
<circle cx="187.77" cy="421.96" r="1.6666666666666667" />
<circle cx="188.15" cy="423.82" r="1.6666666666666667" />
<circle cx="188.53" cy="421.86" r="1.6666666666666667" />
<circle cx="188.90" cy="422.86" r="1.6666666666666667" />
</g>
<g stroke="black">
<line x1="813.75" x2="813.75" y1="510.00" y2="520.00" />
<line x1="760.60" x2="760.60" y1="510.00" y2="520.00" />
<line x1="707.45" x2="707.45" y1="510.00" y2="520.00" />
<line x1="656.01" x2="656.01" y1="510.00" y2="520.00" />
<line x1="602.86" x2="602.86" y1="510.00" y2="520.00" />
<line x1="551.42" x2="551.42" y1="510.00" y2="520.00" />
<line x1="498.27" x2="498.27" y1="510.00" y2="520.00" />
<line x1="445.11" x2="445.11" y1="510.00" y2="520.00" />
<line x1="393.68" x2="393.68" y1="510.00" y2="520.00" />
<line x1="340.52" x2="340.52" y1="510.00" y2="520.00" />
<line x1="289.09" x2="289.09" y1="510.00" y2="520.00" />
<line x1="235.93" x2="235.93" y1="510.00" y2="520.00" />
<line x1="187.92" x2="187.92" y1="510.00" y2="520.00" />
<g fill="black" font-family="Arial, sans-serif" font-size="18.0" stroke="none" text-anchor="start" transform="translate(9.0 0.0)">
<text x="813.75" y="530.57">Feb</text>
<text x="760.60" y="530.57">Jan</text>
<text x="707.45" y="530.57">Dec</text>
<text x="656.01" y="530.57">Nov</text>
<text x="602.86" y="530.57">Oct</text>
<text x="551.42" y="530.57">Sep</text>
<text x="498.27" y="530.57">Aug</text>
<text x="445.11" y="530.57">Jul</text>
<text x="393.68" y="530.57">Jun</text>
<text x="340.52" y="530.57">May</text>
<text x="289.09" y="530.57">Apr</text>
<text x="235.93" y="530.57">Mar</text>
<text x="187.92" y="530.57">Feb</text>
</g>
<line x1="150.00" x2="850.00" y1="510.00" y2="510.00" />
</g>
<g stroke="black">
<line x1="150.00" x2="140.00" y1="510.00" y2="510.00" />
<line x1="150.00" x2="140.00" y1="319.09" y2="319.09" />
<line x1="150.00" x2="140.00" y1="128.18" y2="128.18" />
<g fill="black" font-family="Arial, sans-serif" font-size="18.0" stroke="none" text-anchor="end">
<text x="141.00" y="501.00">0</text>
<text x="141.00" y="310.09">10</text>
<text x="141.00" y="119.18">20</text>
</g>
<line x1="150.00" x2="150.00" y1="510.00" y2="90.00" />
</g>
</g>
</svg>