<?xml version="1.0"?>
<svg version="1.1" viewBox="0 0 1000 600" xmlns:xlink="http://www.w3.org/1999/xlink" xmlns="http://www.w3.org/2000/svg">
<g>
<g>
<g>
<text dominant-baseline="hanging" dx="-18.0" dy="18.0" fill="#0088" font-family="Arial, sans-serif" font-size="18.0" font-style="italic" stroke="none" text-anchor="end" text-orientation="sideways" x="850.00" y="90.00">d18O</text>
</g>
<polyline fill="none" points="554.40,333.74 531.65,337.37 510.32,325.34 487.57,328.45 467.66,312.56 440.65,311.05 422.16,323.30 400.84,316.42 388.04,316.69 368.13,315.25 349.65,259.43 331.16,319.75 318.37,312.29 299.88,304.29 281.40,308.16 268.60,322.38 254.38,316.72 240.16,318.39 220.26,318.26 208.88,320.79 171.91,318.96" stroke-dasharray="3.6 3.6" stroke-width="3.6" stroke="#0084" />
<g>
<g>
<circle cx="171.91" cy="318.96" fill="#0088" r="3.3333333333333335" stroke="#0088" tooltip="Date: 2023-01-25
Comment: " />
<title>Date: 2023-01-25
Comment: </title>
</g>
<g>
<circle cx="208.88" cy="320.79" fill="#0088" r="3.3333333333333335" stroke="#0088" tooltip="Date: 2023-02-20
Comment: " />
<title>Date: 2023-02-20
Comment: </title>
</g>
<g>
<circle cx="220.26" cy="318.26" fill="#0088" r="3.3333333333333335" stroke="#0088" tooltip="Date: 2023-02-28
Comment: " />
<title>Date: 2023-02-28
Comment: </title>
</g>
<g>
<circle cx="240.16" cy="318.39" fill="#0088" r="3.3333333333333335" stroke="#0088" tooltip="Date: 2023-03-14
Comment: " />
<title>Date: 2023-03-14
Comment: </title>
</g>
<g>
<circle cx="254.38" cy="316.72" fill="#0088" r="3.3333333333333335" stroke="#0088" tooltip="Date: 2023-03-24
Comment: " />
<title>Date: 2023-03-24
Comment: </title>
</g>
<g>
<circle cx="268.60" cy="322.38" fill="#0088" r="3.3333333333333335" stroke="#0088" tooltip="Date: 2023-04-03
Comment: " />
<title>Date: 2023-04-03
Comment: </title>
</g>
<g>
<circle cx="281.40" cy="308.16" fill="#0088" r="3.3333333333333335" stroke="#0088" tooltip="Date: 2023-04-12
Comment: " />
<title>Date: 2023-04-12
Comment: </title>
</g>
<g>
<circle cx="299.88" cy="304.29" fill="#0088" r="3.3333333333333335" stroke="#0088" tooltip="Date: 2023-04-25
Comment: " />
<title>Date: 2023-04-25
Comment: </title>
</g>
<g>
<circle cx="318.37" cy="312.29" fill="#0088" r="3.3333333333333335" stroke="#0088" tooltip="Date: 2023-05-08
Comment: " />
<title>Date: 2023-05-08
Comment: </title>
</g>
<g>
<circle cx="331.16" cy="319.75" fill="#0088" r="3.3333333333333335" stroke="#0088" tooltip="Date: 2023-05-17
Comment: " />
<title>Date: 2023-05-17
Comment: </title>
</g>
<g>
<circle cx="349.65" cy="259.43" fill="#0088" r="3.3333333333333335" stroke="#0088" tooltip="Date: 2023-05-30
Comment: " />
<title>Date: 2023-05-30
Comment: </title>
</g>
<g>
<circle cx="368.13" cy="315.25" fill="#0088" r="3.3333333333333335" stroke="#0088" tooltip="Date: 2023-06-12
Comment: " />
<title>Date: 2023-06-12
Comment: </title>
</g>
<g>
<circle cx="388.04" cy="316.69" fill="#0088" r="3.3333333333333335" stroke="#0088" tooltip="Date: 2023-06-26
Comment: " />
<title>Date: 2023-06-26
Comment: </title>
</g>
<g>
<circle cx="400.84" cy="316.42" fill="#0088" r="3.3333333333333335" stroke="#0088" tooltip="Date: 2023-07-05
Comment: " />
<title>Date: 2023-07-05
Comment: </title>
</g>
<g>
<circle cx="422.16" cy="323.30" fill="#0088" r="3.3333333333333335" stroke="#0088" tooltip="Date: 2023-07-20
Comment: " />
<title>Date: 2023-07-20
Comment: </title>
</g>
<g>
<circle cx="440.65" cy="311.05" fill="#0088" r="3.3333333333333335" stroke="#0088" tooltip="Date: 2023-08-02
Comment: " />
<title>Date: 2023-08-02
Comment: </title>
</g>
<g>
<circle cx="467.66" cy="312.56" fill="#0088" r="3.3333333333333335" stroke="#0088" tooltip="Date: 2023-08-21
Comment: " />
<title>Date: 2023-08-21
Comment: </title>
</g>
<g>
<circle cx="487.57" cy="328.45" fill="#0088" r="3.3333333333333335" stroke="#0088" tooltip="Date: 2023-09-04
Comment: " />
<title>Date: 2023-09-04
Comment: </title>
</g>
<g>
<circle cx="510.32" cy="325.34" fill="#0088" r="3.3333333333333335" stroke="#0088" tooltip="Date: 2023-09-20
Comment: " />
<title>Date: 2023-09-20
Comment: </title>
</g>
<g>
<circle cx="531.65" cy="337.37" fill="#0088" r="3.3333333333333335" stroke="#0088" tooltip="Date: 2023-10-05
Comment: Note:
- Transparent Lid/Cover replaced
- Now it&apos;s a narrower green funnel 
- Pics show bottle `:C` is attached
- Gauge confirmed to have no-num" />
<title>Date: 2023-10-05
Comment: Note:
- Transparent Lid/Cover replaced
- Now it's a narrower green funnel 
- Pics show bottle `:C` is attached
- Gauge confirmed to have no-num</title>
</g>
<g>
<circle cx="554.40" cy="333.74" fill="#0088" r="3.3333333333333335" stroke="#0088" tooltip="Date: 2023-10-21
Comment: " />
<title>Date: 2023-10-21
Comment: </title>
</g>
</g>
<g stroke="#0088">
<line x1="828.41" x2="828.41" y1="90.00" y2="90.00" />
<line x1="785.75" x2="785.75" y1="90.00" y2="90.00" />
<line x1="741.68" x2="741.68" y1="90.00" y2="90.00" />
<line x1="700.44" x2="700.44" y1="90.00" y2="90.00" />
<line x1="656.36" x2="656.36" y1="90.00" y2="90.00" />
<line x1="612.28" x2="612.28" y1="90.00" y2="90.00" />
<line x1="569.63" x2="569.63" y1="90.00" y2="90.00" />
<line x1="525.55" x2="525.55" y1="90.00" y2="90.00" />
<line x1="482.89" x2="482.89" y1="90.00" y2="90.00" />
<line x1="438.81" x2="438.81" y1="90.00" y2="90.00" />
<line x1="394.73" x2="394.73" y1="90.00" y2="90.00" />
<line x1="352.08" x2="352.08" y1="90.00" y2="90.00" />
<line x1="308.00" x2="308.00" y1="90.00" y2="90.00" />
<line x1="265.34" x2="265.34" y1="90.00" y2="90.00" />
<line x1="221.26" x2="221.26" y1="90.00" y2="90.00" />
<line x1="181.45" x2="181.45" y1="90.00" y2="90.00" />
<g fill="none" font-family="Arial, sans-serif" font-size="18.0" stroke="none" text-anchor="start" transform="translate(9.0 0.0)">
<text x="828.41" y="83.74">May</text>
<text x="785.75" y="83.74">Apr</text>
<text x="741.68" y="83.74">Mar</text>
<text x="700.44" y="83.74">Feb</text>
<text x="656.36" y="83.74">Jan</text>
<text x="612.28" y="83.74">Dec</text>
<text x="569.63" y="83.74">Nov</text>
<text x="525.55" y="83.74">Oct</text>
<text x="482.89" y="83.74">Sep</text>
<text x="438.81" y="83.74">Aug</text>
<text x="394.73" y="83.74">Jul</text>
<text x="352.08" y="83.74">Jun</text>
<text x="308.00" y="83.74">May</text>
<text x="265.34" y="83.74">Apr</text>
<text x="221.26" y="83.74">Mar</text>
<text x="181.45" y="83.74">Feb</text>
</g>
<line x1="150.00" x2="850.00" y1="90.00" y2="90.00" />
</g>
<g stroke="#0088">
<line x1="850.00" x2="862.00" y1="446.94" y2="446.94" />
<line x1="850.00" x2="862.00" y1="214.37" y2="214.37" />
<g fill="#0088" font-family="Arial, sans-serif" font-size="18.0" stroke="none" text-anchor="beginning">
<text x="859.00" y="437.94">-10</text>
<text x="859.00" y="205.37">0</text>
</g>
<line x1="850.00" x2="850.00" y1="510.00" y2="90.00" />
</g>
</g>
<g>
<g stroke-dasharray="3.6 7.2" stroke-width="0.72" stroke="#caa">
<line x1="828.41" x2="828.41" y1="510.00" y2="90.00" />
<line x1="785.75" x2="785.75" y1="510.00" y2="90.00" />
<line x1="741.68" x2="741.68" y1="510.00" y2="90.00" />
<line x1="700.44" x2="700.44" y1="510.00" y2="90.00" />
<line x1="656.36" x2="656.36" y1="510.00" y2="90.00" />
<line x1="612.28" x2="612.28" y1="510.00" y2="90.00" />
<line x1="569.63" x2="569.63" y1="510.00" y2="90.00" />
<line x1="525.55" x2="525.55" y1="510.00" y2="90.00" />
<line x1="482.89" x2="482.89" y1="510.00" y2="90.00" />
<line x1="438.81" x2="438.81" y1="510.00" y2="90.00" />
<line x1="394.73" x2="394.73" y1="510.00" y2="90.00" />
<line x1="352.08" x2="352.08" y1="510.00" y2="90.00" />
<line x1="308.00" x2="308.00" y1="510.00" y2="90.00" />
<line x1="265.34" x2="265.34" y1="510.00" y2="90.00" />
<line x1="221.26" x2="221.26" y1="510.00" y2="90.00" />
<line x1="181.45" x2="181.45" y1="510.00" y2="90.00" />
<line x1="150.00" x2="850.00" y1="510.00" y2="510.00" />
<line x1="150.00" x2="850.00" y1="216.29" y2="216.29" />
</g>
<g>
<text dominant-baseline="hanging" dx="-36.0" dy="18.0" fill="#0004" font-family="Arial, sans-serif" font-size="36" stroke="none" text-anchor="end" x="850.00" y="128.18">ThMuCH2Sh02PairTall</text>
</g>
<g>
<text dominant-baseline="text-bottom" dy="-12.0" fill="black" font-family="Arial, sans-serif" font-size="18.0" font-style="italic" stroke="none" text-anchor="middle" x="500.00" y="90.00">Years 2023 to 2024</text>
</g>
<g>
<text dominant-baseline="hanging" dx="18.0" dy="18.0" fill="black" font-family="Arial, sans-serif" font-size="18.0" font-style="italic" stroke="none" text-anchor="beginning" text-orientation="sideways" x="150.00" y="90.00">log(Drips per day)</text>
</g>
<polyline fill="none" points="150.48,462.29 150.76,462.30 151.04,462.21 151.32,462.19 151.61,463.05 151.89,462.32 152.16,461.48 152.42,460.33 152.70,462.01 152.98,462.48 153.26,462.45 153.54,461.81 153.82,462.56 154.10,462.14 154.39,462.68 154.66,462.24 154.94,461.90 155.23,462.83 155.50,462.08 155.79,462.40 156.06,461.91 156.35,462.99 156.63,462.47 156.91,462.35 157.21,463.77 157.50,463.28 157.77,461.36 158.06,463.75 158.35,462.87 158.63,462.21 158.91,462.50 159.18,461.33 159.46,461.94 159.73,461.64 160.03,464.34 160.32,463.23 160.61,463.03 160.90,463.44 161.19,462.87 161.48,463.75 161.76,462.50 162.03,461.19 162.31,461.95 162.59,462.64 162.88,462.71 163.15,461.97 163.43,462.37 163.72,462.93 164.00,461.83 164.28,462.57 164.56,462.84 164.85,462.61 165.13,462.93 165.42,462.99 165.71,463.40 166.00,463.39 166.30,463.72 166.60,464.79 166.89,463.37 167.18,462.82 167.48,464.80 167.77,463.26 168.07,463.95 168.35,462.73 168.65,463.51 168.94,463.83 169.23,462.99 169.52,463.46 173.66,464.50 173.96,463.92 174.26,464.54 174.56,464.40 174.86,464.05 175.16,464.71 175.47,464.52 175.78,465.43 176.10,466.15 176.40,464.40 176.70,464.74 177.02,466.07 177.34,466.47 177.65,465.00 177.95,463.90 178.25,464.61 178.55,463.98 178.85,464.52 179.17,465.78 179.47,464.36 179.77,465.02 180.08,465.03 180.39,465.20 180.71,465.72 181.02,465.52 181.33,465.11 181.64,465.73 181.95,465.07 182.26,465.41 644.32,223.42 644.32,216.87 644.32,176.15 644.32,243.78" stroke-dasharray="3.6 3.6" stroke-width="3.6" stroke="none" />
<g>
<circle cx="150.48" cy="462.29" fill="#0002" r="1.6666666666666667" stroke="none" />
<circle cx="150.76" cy="462.30" fill="#0002" r="1.6666666666666667" stroke="none" />
<circle cx="151.04" cy="462.21" fill="#0002" r="1.6666666666666667" stroke="none" />
<circle cx="151.32" cy="462.19" fill="#0002" r="1.6666666666666667" stroke="none" />
<circle cx="151.61" cy="463.05" fill="#0002" r="1.6666666666666667" stroke="none" />
<circle cx="151.89" cy="462.32" fill="#0002" r="1.6666666666666667" stroke="none" />
<circle cx="152.16" cy="461.48" fill="#0002" r="1.6666666666666667" stroke="none" />
<circle cx="152.42" cy="460.33" fill="#0002" r="1.6666666666666667" stroke="none" />
<circle cx="152.70" cy="462.01" fill="#0002" r="1.6666666666666667" stroke="none" />
<circle cx="152.98" cy="462.48" fill="#0002" r="1.6666666666666667" stroke="none" />
<circle cx="153.26" cy="462.45" fill="#0002" r="1.6666666666666667" stroke="none" />
<circle cx="153.54" cy="461.81" fill="#0002" r="1.6666666666666667" stroke="none" />
<circle cx="153.82" cy="462.56" fill="#0002" r="1.6666666666666667" stroke="none" />
<circle cx="154.10" cy="462.14" fill="#0002" r="1.6666666666666667" stroke="none" />
<circle cx="154.39" cy="462.68" fill="#0002" r="1.6666666666666667" stroke="none" />
<circle cx="154.66" cy="462.24" fill="#0002" r="1.6666666666666667" stroke="none" />
<circle cx="154.94" cy="461.90" fill="#0002" r="1.6666666666666667" stroke="none" />
<circle cx="155.23" cy="462.83" fill="#0002" r="1.6666666666666667" stroke="none" />
<circle cx="155.50" cy="462.08" fill="#0002" r="1.6666666666666667" stroke="none" />
<circle cx="155.79" cy="462.40" fill="#0002" r="1.6666666666666667" stroke="none" />
<circle cx="156.06" cy="461.91" fill="#0002" r="1.6666666666666667" stroke="none" />
<circle cx="156.35" cy="462.99" fill="#0002" r="1.6666666666666667" stroke="none" />
<circle cx="156.63" cy="462.47" fill="#0002" r="1.6666666666666667" stroke="none" />
<circle cx="156.91" cy="462.35" fill="#0002" r="1.6666666666666667" stroke="none" />
<circle cx="157.21" cy="463.77" fill="#0002" r="1.6666666666666667" stroke="none" />
<circle cx="157.50" cy="463.28" fill="#0002" r="1.6666666666666667" stroke="none" />
<circle cx="157.77" cy="461.36" fill="#0002" r="1.6666666666666667" stroke="none" />
<circle cx="158.06" cy="463.75" fill="#0002" r="1.6666666666666667" stroke="none" />
<circle cx="158.35" cy="462.87" fill="#0002" r="1.6666666666666667" stroke="none" />
<circle cx="158.63" cy="462.21" fill="#0002" r="1.6666666666666667" stroke="none" />
<circle cx="158.91" cy="462.50" fill="#0002" r="1.6666666666666667" stroke="none" />
<circle cx="159.18" cy="461.33" fill="#0002" r="1.6666666666666667" stroke="none" />
<circle cx="159.46" cy="461.94" fill="#0002" r="1.6666666666666667" stroke="none" />
<circle cx="159.73" cy="461.64" fill="#0002" r="1.6666666666666667" stroke="none" />
<circle cx="160.03" cy="464.34" fill="#0002" r="1.6666666666666667" stroke="none" />
<circle cx="160.32" cy="463.23" fill="#0002" r="1.6666666666666667" stroke="none" />
<circle cx="160.61" cy="463.03" fill="#0002" r="1.6666666666666667" stroke="none" />
<circle cx="160.90" cy="463.44" fill="#0002" r="1.6666666666666667" stroke="none" />
<circle cx="161.19" cy="462.87" fill="#0002" r="1.6666666666666667" stroke="none" />
<circle cx="161.48" cy="463.75" fill="#0002" r="1.6666666666666667" stroke="none" />
<circle cx="161.76" cy="462.50" fill="#0002" r="1.6666666666666667" stroke="none" />
<circle cx="162.03" cy="461.19" fill="#0002" r="1.6666666666666667" stroke="none" />
<circle cx="162.31" cy="461.95" fill="#0002" r="1.6666666666666667" stroke="none" />
<circle cx="162.59" cy="462.64" fill="#0002" r="1.6666666666666667" stroke="none" />
<circle cx="162.88" cy="462.71" fill="#0002" r="1.6666666666666667" stroke="none" />
<circle cx="163.15" cy="461.97" fill="#0002" r="1.6666666666666667" stroke="none" />
<circle cx="163.43" cy="462.37" fill="#0002" r="1.6666666666666667" stroke="none" />
<circle cx="163.72" cy="462.93" fill="#0002" r="1.6666666666666667" stroke="none" />
<circle cx="164.00" cy="461.83" fill="#0002" r="1.6666666666666667" stroke="none" />
<circle cx="164.28" cy="462.57" fill="#0002" r="1.6666666666666667" stroke="none" />
<circle cx="164.56" cy="462.84" fill="#0002" r="1.6666666666666667" stroke="none" />
<circle cx="164.85" cy="462.61" fill="#0002" r="1.6666666666666667" stroke="none" />
<circle cx="165.13" cy="462.93" fill="#0002" r="1.6666666666666667" stroke="none" />
<circle cx="165.42" cy="462.99" fill="#0002" r="1.6666666666666667" stroke="none" />
<circle cx="165.71" cy="463.40" fill="#0002" r="1.6666666666666667" stroke="none" />
<circle cx="166.00" cy="463.39" fill="#0002" r="1.6666666666666667" stroke="none" />
<circle cx="166.30" cy="463.72" fill="#0002" r="1.6666666666666667" stroke="none" />
<circle cx="166.60" cy="464.79" fill="#0002" r="1.6666666666666667" stroke="none" />
<circle cx="166.89" cy="463.37" fill="#0002" r="1.6666666666666667" stroke="none" />
<circle cx="167.18" cy="462.82" fill="#0002" r="1.6666666666666667" stroke="none" />
<circle cx="167.48" cy="464.80" fill="#0002" r="1.6666666666666667" stroke="none" />
<circle cx="167.77" cy="463.26" fill="#0002" r="1.6666666666666667" stroke="none" />
<circle cx="168.07" cy="463.95" fill="#0002" r="1.6666666666666667" stroke="none" />
<circle cx="168.35" cy="462.73" fill="#0002" r="1.6666666666666667" stroke="none" />
<circle cx="168.65" cy="463.51" fill="#0002" r="1.6666666666666667" stroke="none" />
<circle cx="168.94" cy="463.83" fill="#0002" r="1.6666666666666667" stroke="none" />
<circle cx="169.23" cy="462.99" fill="#0002" r="1.6666666666666667" stroke="none" />
<circle cx="169.52" cy="463.46" fill="#0002" r="1.6666666666666667" stroke="none" />
<circle cx="173.66" cy="464.50" fill="#0002" r="1.6666666666666667" stroke="none" />
<circle cx="173.96" cy="463.92" fill="#0002" r="1.6666666666666667" stroke="none" />
<circle cx="174.26" cy="464.54" fill="#0002" r="1.6666666666666667" stroke="none" />
<circle cx="174.56" cy="464.40" fill="#0002" r="1.6666666666666667" stroke="none" />
<circle cx="174.86" cy="464.05" fill="#0002" r="1.6666666666666667" stroke="none" />
<circle cx="175.16" cy="464.71" fill="#0002" r="1.6666666666666667" stroke="none" />
<circle cx="175.47" cy="464.52" fill="#0002" r="1.6666666666666667" stroke="none" />
<circle cx="175.78" cy="465.43" fill="#0002" r="1.6666666666666667" stroke="none" />
<circle cx="176.10" cy="466.15" fill="#0002" r="1.6666666666666667" stroke="none" />
<circle cx="176.40" cy="464.40" fill="#0002" r="1.6666666666666667" stroke="none" />
<circle cx="176.70" cy="464.74" fill="#0002" r="1.6666666666666667" stroke="none" />
<circle cx="177.02" cy="466.07" fill="#0002" r="1.6666666666666667" stroke="none" />
<circle cx="177.34" cy="466.47" fill="#0002" r="1.6666666666666667" stroke="none" />
<circle cx="177.65" cy="465.00" fill="#0002" r="1.6666666666666667" stroke="none" />
<circle cx="177.95" cy="463.90" fill="#0002" r="1.6666666666666667" stroke="none" />
<circle cx="178.25" cy="464.61" fill="#0002" r="1.6666666666666667" stroke="none" />
<circle cx="178.55" cy="463.98" fill="#0002" r="1.6666666666666667" stroke="none" />
<circle cx="178.85" cy="464.52" fill="#0002" r="1.6666666666666667" stroke="none" />
<circle cx="179.17" cy="465.78" fill="#0002" r="1.6666666666666667" stroke="none" />
<circle cx="179.47" cy="464.36" fill="#0002" r="1.6666666666666667" stroke="none" />
<circle cx="179.77" cy="465.02" fill="#0002" r="1.6666666666666667" stroke="none" />
<circle cx="180.08" cy="465.03" fill="#0002" r="1.6666666666666667" stroke="none" />
<circle cx="180.39" cy="465.20" fill="#0002" r="1.6666666666666667" stroke="none" />
<circle cx="180.71" cy="465.72" fill="#0002" r="1.6666666666666667" stroke="none" />
<circle cx="181.02" cy="465.52" fill="#0002" r="1.6666666666666667" stroke="none" />
<circle cx="181.33" cy="465.11" fill="#0002" r="1.6666666666666667" stroke="none" />
<circle cx="181.64" cy="465.73" fill="#0002" r="1.6666666666666667" stroke="none" />
<circle cx="181.95" cy="465.07" fill="#0002" r="1.6666666666666667" stroke="none" />
<circle cx="182.26" cy="465.41" fill="#0002" r="1.6666666666666667" stroke="none" />
<circle cx="644.32" cy="223.42" fill="#0002" r="1.6666666666666667" stroke="none" />
<circle cx="644.32" cy="216.87" fill="#0002" r="1.6666666666666667" stroke="none" />
<circle cx="644.32" cy="176.15" fill="#0002" r="1.6666666666666667" stroke="none" />
<circle cx="644.32" cy="243.78" fill="#0002" r="1.6666666666666667" stroke="none" />
</g>
<g stroke="black">
<line x1="828.41" x2="828.41" y1="510.00" y2="520.00" />
<line x1="785.75" x2="785.75" y1="510.00" y2="520.00" />
<line x1="741.68" x2="741.68" y1="510.00" y2="520.00" />
<line x1="700.44" x2="700.44" y1="510.00" y2="520.00" />
<line x1="656.36" x2="656.36" y1="510.00" y2="520.00" />
<line x1="612.28" x2="612.28" y1="510.00" y2="520.00" />
<line x1="569.63" x2="569.63" y1="510.00" y2="520.00" />
<line x1="525.55" x2="525.55" y1="510.00" y2="520.00" />
<line x1="482.89" x2="482.89" y1="510.00" y2="520.00" />
<line x1="438.81" x2="438.81" y1="510.00" y2="520.00" />
<line x1="394.73" x2="394.73" y1="510.00" y2="520.00" />
<line x1="352.08" x2="352.08" y1="510.00" y2="520.00" />
<line x1="308.00" x2="308.00" y1="510.00" y2="520.00" />
<line x1="265.34" x2="265.34" y1="510.00" y2="520.00" />
<line x1="221.26" x2="221.26" y1="510.00" y2="520.00" />
<line x1="181.45" x2="181.45" y1="510.00" y2="520.00" />
<g fill="black" font-family="Arial, sans-serif" font-size="18.0" stroke="none" text-anchor="start" transform="translate(9.0 0.0)">
<text x="828.41" y="530.57">May</text>
<text x="785.75" y="530.57">Apr</text>
<text x="741.68" y="530.57">Mar</text>
<text x="700.44" y="530.57">Feb</text>
<text x="656.36" y="530.57">Jan</text>
<text x="612.28" y="530.57">Dec</text>
<text x="569.63" y="530.57">Nov</text>
<text x="525.55" y="530.57">Oct</text>
<text x="482.89" y="530.57">Sep</text>
<text x="438.81" y="530.57">Aug</text>
<text x="394.73" y="530.57">Jul</text>
<text x="352.08" y="530.57">Jun</text>
<text x="308.00" y="530.57">May</text>
<text x="265.34" y="530.57">Apr</text>
<text x="221.26" y="530.57">Mar</text>
<text x="181.45" y="530.57">Feb</text>
</g>
<line x1="150.00" x2="850.00" y1="510.00" y2="510.00" />
</g>
<g stroke="black">
<line x1="150.00" x2="138.00" y1="510.00" y2="510.00" />
<line x1="150.00" x2="138.00" y1="216.29" y2="216.29" />
<g fill="black" font-family="Arial, sans-serif" font-size="18.0" stroke="none" text-anchor="end">
<text x="141.00" y="501.00">0</text>
<text x="141.00" y="207.29">10</text>
</g>
<line x1="150.00" x2="150.00" y1="510.00" y2="90.00" />
</g>
</g>
</g>
</svg>