<?xml version="1.0"?>
<svg version="1.1" viewBox="0 0 1000 600" xmlns:xlink="http://www.w3.org/1999/xlink" xmlns="http://www.w3.org/2000/svg">
<g>
<g stroke-dasharray="3.6 7.2" stroke-width="0.72" stroke="#caa">
<line x1="813.75" x2="813.75" y1="510.00" y2="90.00" />
<line x1="760.60" x2="760.60" y1="510.00" y2="90.00" />
<line x1="707.45" x2="707.45" y1="510.00" y2="90.00" />
<line x1="656.01" x2="656.01" y1="510.00" y2="90.00" />
<line x1="602.86" x2="602.86" y1="510.00" y2="90.00" />
<line x1="551.42" x2="551.42" y1="510.00" y2="90.00" />
<line x1="498.27" x2="498.27" y1="510.00" y2="90.00" />
<line x1="445.11" x2="445.11" y1="510.00" y2="90.00" />
<line x1="393.68" x2="393.68" y1="510.00" y2="90.00" />
<line x1="340.52" x2="340.52" y1="510.00" y2="90.00" />
<line x1="289.09" x2="289.09" y1="510.00" y2="90.00" />
<line x1="235.93" x2="235.93" y1="510.00" y2="90.00" />
<line x1="187.92" x2="187.92" y1="510.00" y2="90.00" />
<line x1="150.00" x2="850.00" y1="510.00" y2="510.00" />
<line x1="150.00" x2="850.00" y1="465.81" y2="465.81" />
<line x1="150.00" x2="850.00" y1="421.62" y2="421.62" />
<line x1="150.00" x2="850.00" y1="377.42" y2="377.42" />
<line x1="150.00" x2="850.00" y1="333.23" y2="333.23" />
<line x1="150.00" x2="850.00" y1="289.04" y2="289.04" />
<line x1="150.00" x2="850.00" y1="244.85" y2="244.85" />
<line x1="150.00" x2="850.00" y1="200.66" y2="200.66" />
<line x1="150.00" x2="850.00" y1="156.46" y2="156.46" />
<line x1="150.00" x2="850.00" y1="112.27" y2="112.27" />
</g>
<g>
<text dominant-baseline="hanging" dx="-36.0" dy="18.0" fill="#0004" font-family="Arial, sans-serif" font-size="36" stroke="none" text-anchor="end" x="850.00" y="128.18">ThMuCh1LongLizard</text>
</g>
<g>
<text dominant-baseline="text-bottom" dy="-12.0" fill="black" font-family="Arial, sans-serif" font-size="18.0" font-style="italic" stroke="none" text-anchor="middle" x="500.00" y="90.00">Years 2023 to 2024</text>
</g>
<g>
<text dominant-baseline="central" dx="12.0" dy="12.0" fill="black" font-family="Arial, sans-serif" font-size="18.0" font-style="italic" stroke="none" text-anchor="middle" text-orientation="sideways" writing-mode="vertical-lr" x="850.00" y="300.00">Drips per day</text>
</g>
<polyline fill="none" points="150.27,509.97 150.55,509.97 150.83,509.97 151.11,509.97 151.40,509.97 151.67,509.97 151.95,509.97 152.23,509.97 152.51,509.97 152.56,509.84 178.96,509.99 179.78,509.99 180.57,509.99 181.42,509.99 182.28,509.99 182.98,509.99 183.63,509.99 184.34,509.99 184.99,509.99 185.68,509.99 186.46,509.99 187.20,509.99 187.92,509.99 188.69,509.99 189.52,509.99 190.24,509.99 191.04,509.99 191.84,509.99 192.55,509.99 193.37,509.99 194.02,509.99 194.78,509.99 195.46,509.99 196.20,509.99 196.97,509.99 197.69,509.99 198.47,509.99 199.29,509.99 221.51,509.68 221.51,486.14 221.51,488.79 221.51,495.86 221.51,487.54 221.56,509.84 221.56,462.27 221.56,414.55 221.56,319.09 221.56,128.18 221.56,128.18 221.56,128.18 221.56,128.18 221.56,128.18 221.56,128.18 221.56,128.18 221.56,128.18 221.56,128.18 221.56,128.18 221.56,128.18 221.56,128.18 221.56,128.18 221.56,128.18 221.56,128.18 221.56,128.18 221.56,128.18 221.56,128.18 221.56,128.18 221.56,128.18 221.56,128.18 221.56,128.18 221.56,128.18 221.56,128.18 221.56,128.18 221.56,128.18 221.56,128.18 221.56,128.18 221.56,128.18 221.56,128.18 221.56,128.18 221.56,128.18 221.56,128.18 221.56,128.18 221.56,128.18 221.56,128.18 221.56,128.18 221.56,128.18 221.56,128.18 221.56,128.18 221.56,128.18 221.56,128.18 221.56,128.18 221.56,128.18 221.56,128.18 221.56,128.18 221.56,128.18 221.56,128.18 221.56,128.18 221.56,128.18 221.56,128.18 221.56,128.18 221.56,128.18 221.56,128.18 221.56,128.18 221.56,128.18 221.56,128.18 221.56,128.18 221.56,128.18 221.56,128.18 221.56,128.18 221.56,128.18 221.56,128.18 221.57,128.18 221.57,128.18 221.57,128.18 221.57,128.18 221.57,128.18 221.57,319.09 221.57,128.18 221.57,128.18 221.57,128.18 221.57,128.18 221.57,128.18 221.57,128.18 221.57,128.18 221.57,128.18 221.57,128.18 221.57,128.18 221.57,128.18 221.57,128.18 221.57,128.18 221.57,128.18 221.57,128.18 221.57,128.18 221.57,128.18 221.57,128.18 221.57,128.18 221.57,128.18 221.57,128.18 221.57,128.18 221.57,128.18 221.57,128.18 221.57,128.18 221.57,128.18 221.57,128.18 221.57,128.18 221.57,128.18 221.57,128.18 221.57,128.18 221.57,128.18 221.57,128.18 221.57,128.18 221.57,128.18 221.57,128.18 221.57,128.18 221.57,128.18 221.57,128.18 221.57,128.18 221.57,128.18 221.57,128.18 221.57,128.18 221.57,128.18 221.57,128.18 221.57,128.18 221.57,128.18 221.57,128.18 221.57,128.18 221.57,128.18 221.57,128.18 221.57,128.18 221.57,128.18 221.57,128.18 221.57,128.18 221.57,128.18 221.57,128.18 221.57,128.18 221.57,128.18 221.57,128.18 221.57,128.18 221.57,486.14 221.57,128.18 221.57,128.18 221.57,128.18 221.57,128.18 221.57,128.18 221.57,128.18 221.57,128.18 221.57,128.18 221.57,128.18 221.57,128.18 221.57,128.18 221.57,128.18 221.57,128.18 221.57,128.18 221.57,128.18 221.57,128.18 221.57,128.18 221.57,128.18 221.57,128.18 221.57,128.18 221.57,128.18 221.57,128.18 221.57,128.18 221.57,128.18 221.57,128.18 221.57,128.18 221.57,128.18 221.57,128.18 221.57,128.18 221.57,128.18 221.57,128.18 221.57,128.18 221.57,128.18 221.57,128.18 221.57,128.18 221.57,128.18 221.57,128.18 221.57,128.18 221.57,128.18 221.57,128.18 221.57,128.18 221.57,128.18 221.57,128.18 221.57,128.18 221.57,128.18 221.57,128.18 221.57,128.18 221.57,128.18 221.57,128.18 221.57,128.18 221.57,128.18 221.57,128.18 221.57,128.18 221.57,128.18 221.57,128.18 221.57,128.18 221.57,128.18 221.57,128.18 221.57,128.18 221.57,128.18 221.57,128.18 221.57,128.18 221.57,128.18 221.57,128.18 221.57,128.18 221.57,128.18 221.57,128.18 221.57,128.18 221.57,128.18 221.57,128.18 221.57,128.18 221.57,128.18 221.57,128.18 221.57,128.18 221.57,128.18 221.57,128.18 221.57,128.18 221.57,128.18 221.57,128.18 221.57,128.18 221.57,128.18 221.57,128.18 221.57,128.18 221.57,128.18 221.57,128.18 221.57,128.18 221.57,128.18 221.57,128.18 221.57,128.18 221.57,128.18 221.57,128.18 221.57,128.18 221.57,128.18 221.57,128.18 221.57,128.18 221.57,128.18 221.57,128.18 221.57,128.18 221.57,128.18 221.57,128.18 221.57,128.18 221.57,128.18 221.57,128.18 221.57,128.18 221.57,128.18 221.57,128.18 221.57,128.18 221.57,128.18 221.57,128.18 221.57,128.18 221.57,128.18 221.57,128.18 221.57,128.18 221.57,128.18 221.57,128.18 221.57,128.18 221.57,128.18 221.57,128.18 221.57,128.18 221.57,128.18 221.57,128.18 221.57,128.18 221.57,128.18 221.57,128.18 221.57,128.18 221.57,128.18 221.57,128.18 221.57,128.18 221.57,128.18 221.57,128.18 221.57,128.18 221.57,128.18 221.57,128.18 221.57,128.18 221.57,128.18 221.57,128.18 221.57,128.18 221.57,486.14 221.57,128.18 221.57,128.18 221.57,128.18 221.57,128.18 221.57,128.18 221.57,128.18 221.57,128.18 221.57,128.18 221.57,128.18 221.57,128.18 221.57,486.14 221.57,128.18 221.57,128.18 221.57,128.18 221.57,128.18 221.57,128.18 221.57,128.18 221.57,128.18 221.57,128.18 221.57,128.18 221.57,128.18 221.57,128.18 221.57,128.18 221.57,128.18 221.57,128.18 221.57,128.18 221.57,128.18 221.57,128.18 221.57,128.18 221.57,128.18 221.57,128.18 221.57,128.18 221.57,128.18 221.57,128.18 221.57,128.18 221.57,128.18 221.57,128.18 221.57,128.18 221.57,128.18 221.57,128.18 221.57,128.18 221.57,128.18 221.57,128.18 221.57,128.18 221.57,128.18 221.57,128.18 221.57,128.18 221.57,128.18 221.57,128.18 221.57,128.18 221.57,128.18 221.57,128.18 221.57,128.18 221.57,128.18 221.57,128.18 221.57,128.18 221.57,128.18 221.57,128.18 221.57,128.18 221.57,128.18 221.57,128.18 221.57,128.18 221.57,128.18 221.57,128.18 221.57,128.18 221.57,128.18 221.57,128.18 221.57,128.18 221.57,128.18 221.57,128.18 221.57,128.18 221.57,128.18 221.57,128.18 221.57,128.18 221.57,128.18 221.57,128.18 221.57,128.18 221.57,128.18 221.57,128.18 221.57,128.18 221.57,128.18 221.57,128.18 221.57,128.18 221.57,128.18 221.57,128.18 221.57,128.18 221.57,128.18 221.57,128.18 221.57,128.18 221.57,128.18 221.57,128.18 221.57,128.18 221.57,128.18 221.57,128.18 221.57,128.18 221.57,128.18 221.57,128.18 221.57,128.18 221.57,128.18 221.57,128.18 221.57,128.18 221.57,128.18 221.57,128.18 221.57,128.18 221.57,128.18 221.57,128.18 221.57,486.14 221.57,128.18 221.57,128.18 221.57,128.18 221.57,128.18 221.57,128.18 221.57,128.18 221.57,128.18 221.57,128.18 221.57,128.18 221.57,128.18 221.57,128.18 221.57,128.18 221.57,128.18 221.57,128.18 221.57,128.18 221.57,128.18 221.57,128.18 221.57,128.18 221.57,128.18 221.57,128.18 221.57,128.18 221.57,128.18 221.57,128.18 221.57,128.18 221.57,128.18 221.57,128.18 221.57,128.18 221.57,128.18 221.57,128.18 221.57,128.18 221.57,128.18 221.57,128.18 221.57,128.18 221.57,128.18 221.57,128.18 221.57,128.18 221.57,128.18 221.57,128.18 221.57,128.18 221.57,319.09 221.57,128.18 221.57,128.18 221.57,128.18 221.57,128.18 221.57,486.14 221.57,128.18 221.57,128.18 221.57,128.18 221.58,506.59 221.58,128.18 221.58,128.18 221.58,128.18 221.58,128.18 221.58,128.18 221.58,128.18 221.58,128.18 221.58,128.18 221.58,128.18 221.58,128.18 221.58,128.18 221.58,128.18 221.58,128.18 221.58,128.18 221.58,128.18 221.58,128.18 221.58,128.18 221.58,128.18 221.58,128.18 221.58,128.18 221.58,128.18 221.58,128.18 221.58,128.18 221.58,128.18 221.58,128.18 221.58,128.18 221.58,128.18 221.58,128.18 221.58,128.18 221.58,128.18 221.58,128.18 221.58,128.18 221.58,128.18 221.58,128.18 221.58,128.18 221.58,128.18 221.58,128.18 221.58,128.18 221.58,128.18 221.58,128.18 221.58,128.18 221.58,128.18 221.58,128.18 221.58,128.18 221.58,128.18 221.58,128.18 221.58,128.18 221.58,128.18 221.58,128.18 221.58,128.18 221.58,128.18 221.58,128.18 221.58,128.18 221.58,128.18 221.58,128.18 221.58,128.18 221.58,128.18 221.58,128.18 221.58,128.18 221.58,128.18 221.58,128.18 221.58,128.18 221.58,128.18 221.58,128.18 221.58,128.18 221.58,128.18 221.58,128.18 221.58,128.18 221.58,128.18 221.58,128.18 221.58,128.18 221.58,128.18 221.58,128.18 221.58,128.18 221.58,128.18 221.58,128.18 221.58,128.18 221.58,128.18 221.58,128.18 221.58,128.18 221.58,128.18 221.58,128.18 221.58,128.18 221.58,128.18 221.58,128.18 221.58,128.18 221.58,128.18 221.58,128.18 221.58,128.18 221.58,128.18 221.58,128.18 221.58,128.18 221.58,128.18 221.58,128.18 221.58,128.18 221.58,128.18 221.58,128.18 221.58,128.18 221.58,128.18 221.58,128.18 221.58,128.18 221.58,128.18 221.58,128.18 221.58,128.18 221.58,128.18 221.58,128.18 221.58,128.18 221.58,128.18 221.58,128.18 221.58,128.18 221.58,128.18 221.58,128.18 221.58,128.18 221.58,128.18 221.58,128.18 221.58,128.18 221.58,128.18 221.58,128.18 221.58,128.18 221.58,128.18 221.58,128.18 221.58,128.18 221.58,128.18 221.58,128.18 221.58,128.18 221.58,128.18 221.58,128.18 221.58,128.18 221.58,128.18 221.58,128.18 221.58,128.18 221.58,128.18 221.58,128.18 221.58,128.18 221.58,128.18 221.58,128.18 221.58,128.18 221.58,128.18 221.58,128.18 221.58,128.18 221.58,128.18 221.58,128.18 221.58,128.18 221.58,128.18 221.58,128.18 221.58,128.18 221.58,128.18 221.58,128.18 221.58,128.18 221.58,128.18 221.58,128.18 221.58,128.18 221.58,128.18 221.58,128.18 221.58,128.18 221.58,128.18 221.58,128.18 221.58,128.18 221.58,128.18 221.58,128.18 221.58,128.18 221.58,128.18 221.58,128.18 221.58,128.18 221.58,128.18 221.58,128.18 221.58,128.18 221.58,128.18 221.58,128.18 221.58,128.18 221.58,128.18 221.58,128.18 221.58,128.18 221.58,128.18 221.58,128.18 221.58,128.18 221.58,128.18 221.58,128.18 221.58,128.18 221.58,128.18 221.58,128.18 221.58,128.18 221.58,128.18 221.58,128.18 221.58,128.18 221.58,128.18 221.58,486.14 221.58,128.18 221.58,128.18 221.58,128.18 221.58,128.18 221.58,128.18 221.58,128.18 221.58,128.18 221.58,128.18 221.58,128.18 221.58,128.18 221.58,128.18 221.58,128.18 221.58,128.18 221.58,128.18 221.61,509.73 221.61,497.27 221.61,504.21 221.61,507.85 221.63,509.65 221.63,482.73 221.64,382.73 221.64,128.18 221.64,462.27 221.64,508.92 221.96,509.98 222.19,509.97 222.43,509.97 222.66,509.97 222.88,509.97 223.11,509.97 223.32,509.96 223.55,509.97 223.78,509.97 224.00,509.97 224.23,509.97 224.46,509.97 224.69,509.97 224.93,509.97 225.16,509.97 225.40,509.97 225.62,509.97 225.85,509.97 226.09,509.97 226.32,509.97 226.56,509.97 226.79,509.97 227.02,509.97 227.27,509.97 227.50,509.97 227.75,509.97 227.97,509.97 228.21,509.97 228.45,509.97 228.70,509.97 228.95,509.97 229.19,509.97 229.43,509.97 229.67,509.97 229.92,509.97 230.16,509.97 230.40,509.97 230.65,509.97 230.89,509.97 231.14,509.97 231.38,509.97 231.64,509.97 231.90,509.97 232.16,509.97 232.41,509.97 232.66,509.97 232.91,509.97 233.17,509.97 233.44,509.97 233.71,509.97 233.98,509.97 234.24,509.97 234.52,509.97 234.80,509.97 235.07,509.97 235.34,509.97 235.60,509.97 235.87,509.97 236.15,509.97 236.42,509.97 236.68,509.97 236.96,509.97 237.23,509.97 237.50,509.97 237.77,509.97 238.03,509.97 238.31,509.97 238.58,509.97 238.84,509.97 239.11,509.97 239.38,509.97 239.65,509.97 239.93,509.97 240.19,509.97 240.45,509.97 240.73,509.97 241.01,509.97 241.28,509.97 241.55,509.97 241.84,509.97 242.12,509.97 242.39,509.97 242.68,509.97 242.96,509.97 243.23,509.97 243.51,509.97 243.79,509.97 244.07,509.97 244.35,509.97 244.62,509.97 244.90,509.97 245.19,509.97 245.47,509.97 245.75,509.97 246.03,509.97 246.31,509.97 246.60,509.97 246.89,509.97 247.19,509.97 247.47,509.97 247.76,509.97 248.05,509.97 248.33,509.97 248.62,509.97 248.91,509.97 249.20,509.97 249.49,509.97 249.78,509.97 249.96,509.96 250.14,509.96 250.33,509.96 250.50,509.95 250.66,509.95 250.82,509.95 250.91,509.91 250.93,509.49 250.95,509.67 251.15,509.96 251.20,509.86 600.82,509.95 601.07,509.97 601.21,509.94 601.43,509.97 601.59,509.95 601.79,509.96 601.98,509.96 602.20,509.97 602.38,509.96 602.59,509.96 602.77,509.96 602.98,509.96 603.15,509.96 603.38,509.97 603.56,509.96 603.80,509.97 604.00,509.96 604.23,509.97 604.44,509.96 604.69,509.97 604.86,509.96 605.08,509.97 605.26,509.96 605.50,509.97 605.69,509.96 605.92,509.97 606.11,509.96 606.35,509.97 606.54,509.96 606.78,509.97 606.97,509.96 607.21,509.97 607.41,509.96 607.66,509.97 607.87,509.96 608.13,509.97 608.37,509.97 608.63,509.97 608.85,509.96 609.09,509.97 609.31,509.97 609.57,509.97 609.82,509.97 610.06,509.97 611.00,509.99 611.22,509.97 611.56,509.98 611.80,509.97 612.10,509.98 612.33,509.97 612.63,509.97 612.88,509.97 613.17,509.97 613.42,509.97 613.70,509.97 613.96,509.97 614.25,509.97 614.48,509.97 614.81,509.98 615.05,509.97 615.36,509.97 615.62,509.97 615.92,509.98 616.16,509.97 616.44,509.97 616.68,509.97 616.96,509.97 617.22,509.97 617.52,509.97 617.77,509.97 618.10,509.98 618.35,509.97 618.68,509.98 618.96,509.97 619.26,509.97 619.54,509.97 619.85,509.97 620.13,509.97 620.43,509.97 620.75,509.98 621.04,509.97 621.34,509.97 621.63,509.97 621.93,509.98 622.21,509.97 622.49,509.97 622.81,509.98 623.10,509.97 623.40,509.98 623.69,509.97 624.03,509.98 624.31,509.97 624.64,509.98 624.89,509.97 625.23,509.98 625.50,509.97 625.81,509.98 626.06,509.97 626.36,509.97 626.64,509.97 626.96,509.98 627.25,509.97 627.57,509.98 627.82,509.97 628.15,509.98 628.39,509.97 628.71,509.98 628.97,509.97 629.31,509.98 629.58,509.97 629.87,509.97 630.13,509.97 630.43,509.97 630.72,509.97 631.00,509.97 631.26,509.97 631.56,509.97 631.82,509.97 632.11,509.97 632.39,509.97 632.71,509.98 632.97,509.97 633.24,509.97 633.50,509.97 633.80,509.98 634.06,509.97 634.36,509.97 634.60,509.97 634.89,509.97 635.11,509.97 635.40,509.97 635.63,509.97 635.95,509.98 636.20,509.97 636.51,509.98 636.77,509.97 637.07,509.97 637.31,509.97 637.61,509.97 638.09,509.98 638.34,509.97 638.65,509.98 638.93,509.97 639.24,509.98 639.52,509.97 639.83,509.98 640.10,509.97 640.43,509.98 640.68,509.97 641.01,509.98 641.26,509.97 641.58,509.98 641.86,509.97 642.17,509.98 642.45,509.97 642.77,509.98 643.03,509.97 643.33,509.98 643.59,509.97 643.89,509.97 644.15,509.97 644.47,509.98 644.72,509.97 645.02,509.97 645.29,509.97 645.57,509.97 645.85,509.97 646.17,509.98 646.43,509.97 646.73,509.97 647.00,509.97 647.32,509.98 647.57,509.97 647.90,509.98 648.17,509.97 648.50,509.98 648.76,509.97 649.06,509.97 649.30,509.97 649.63,509.98 649.92,509.97 650.25,509.98 650.53,509.97 650.85,509.98 651.12,509.97 651.45,509.98 651.74,509.97 652.06,509.98 652.31,509.97 652.66,509.98 652.94,509.97 653.27,509.98 653.53,509.97 653.86,509.98 654.13,509.97 654.44,509.98 654.73,509.97 655.05,509.98 655.34,509.97 655.61,509.97 655.85,509.97 656.18,509.98 656.44,509.97 656.77,509.98 657.03,509.97 657.38,509.98 657.64,509.97 657.97,509.98 658.24,509.97 658.56,509.98 658.82,509.97 659.13,509.98 659.42,509.97 659.77,509.98 660.95,509.99 661.20,509.97 661.54,509.98 661.83,509.97 662.16,509.98 662.43,509.97 662.77,509.98 663.06,509.97 663.40,509.98 663.67,509.97 664.00,509.98 664.26,509.97 664.59,509.98 664.84,509.97 665.16,509.98 665.44,509.97 665.77,509.98 666.06,509.97 666.40,509.98 666.70,509.97 667.03,509.98 667.32,509.97 667.65,509.98 667.92,509.97 668.27,509.98 668.55,509.97 668.89,509.98 669.16,509.97 669.50,509.98 669.80,509.97 670.15,509.98 670.43,509.97 670.75,509.98 671.00,509.97 671.32,509.98 671.62,509.98 671.99,509.98 672.24,509.97 672.57,509.98 672.81,509.97 673.16,509.98 673.46,509.97 673.82,509.98 674.08,509.97 674.41,509.98 674.68,509.97 675.02,509.98 675.28,509.97 675.60,509.98 675.86,509.97 676.19,509.98 676.47,509.97 676.81,509.98 677.08,509.97 677.42,509.98 677.70,509.97 678.03,509.98 678.28,509.97 678.58,509.97 678.83,509.97 679.12,509.97 679.35,509.97 679.62,509.97 679.87,509.97 680.15,509.97 680.35,509.96 680.60,509.97 680.80,509.96 681.05,509.97 681.25,509.96 681.51,509.97 681.72,509.96 681.97,509.97 682.17,509.96 682.40,509.97 682.59,509.96 682.82,509.97 683.03,509.96 683.28,509.97 683.49,509.96 683.75,509.97 683.94,509.96 684.19,509.97 684.39,509.96 684.64,509.97 684.84,509.96 685.08,509.97 685.28,509.96 685.52,509.97 685.72,509.96 685.97,509.97 686.17,509.96 686.42,509.97 686.64,509.96 686.89,509.97 687.09,509.96 687.35,509.97 687.55,509.96 687.82,509.97 688.04,509.96 688.28,509.97 688.50,509.97 688.76,509.97 688.97,509.96 689.25,509.97 689.46,509.96 689.74,509.97 689.95,509.96 690.22,509.97 690.46,509.97 690.72,509.97 746.48,509.98 746.98,509.98 747.35,509.98 747.84,509.98 748.25,509.98 748.77,509.99 749.15,509.98 749.65,509.98 750.02,509.98 750.48,509.98 750.89,509.98 751.36,509.98 751.76,509.98 752.20,509.98 752.60,509.98 753.06,509.98 753.51,509.98 753.97,509.98 754.33,509.98 754.80,509.98 755.21,509.98 755.77,509.99 756.18,509.98 756.69,509.99 757.10,509.98 757.62,509.99 758.07,509.98 758.60,509.99 759.10,509.98 759.63,509.99 759.99,509.98 760.52,509.99 760.97,509.98 761.48,509.99 761.89,509.98 762.40,509.99 762.79,509.98 763.29,509.98 763.71,509.98 764.20,509.98 764.67,509.98 765.16,509.98 765.64,509.98 766.13,509.98 767.05,509.99 767.50,509.98 768.02,509.99 768.44,509.98 768.91,509.98 769.34,509.98 769.89,509.99 770.32,509.98 770.85,509.99 771.28,509.98 771.82,509.99 772.25,509.98 772.75,509.98 773.22,509.98 773.67,509.98 774.11,509.98 774.64,509.99 775.02,509.98 775.49,509.98 775.92,509.98 776.42,509.98 776.84,509.98 777.27,509.98 777.69,509.98 778.21,509.99 778.63,509.98 779.09,509.98 779.48,509.98 779.95,509.98 780.37,509.98 780.85,509.98 781.29,509.98 781.81,509.99 782.22,509.98 782.71,509.98 783.21,509.98 783.68,509.98 784.17,509.98 784.66,509.98 785.11,509.98 785.61,509.98 786.06,509.98 786.56,509.99 786.98,509.98 787.48,509.98 787.91,509.98 788.36,509.98 788.76,509.98 789.27,509.99 789.63,509.98 790.12,509.98 790.51,509.98 791.02,509.99 791.45,509.98 792.00,509.99 792.41,509.98 792.87,509.98 793.26,509.98 793.73,509.98 794.13,509.98 794.64,509.99 795.04,509.98" stroke-dasharray="3.6 3.6" stroke-width="3.6" stroke="#aaa" />
<g>
<circle cx="150.27" cy="509.97" r="1.6666666666666667" />
<circle cx="150.55" cy="509.97" r="1.6666666666666667" />
<circle cx="150.83" cy="509.97" r="1.6666666666666667" />
<circle cx="151.11" cy="509.97" r="1.6666666666666667" />
<circle cx="151.40" cy="509.97" r="1.6666666666666667" />
<circle cx="151.67" cy="509.97" r="1.6666666666666667" />
<circle cx="151.95" cy="509.97" r="1.6666666666666667" />
<circle cx="152.23" cy="509.97" r="1.6666666666666667" />
<circle cx="152.51" cy="509.97" r="1.6666666666666667" />
<circle cx="152.56" cy="509.84" r="1.6666666666666667" />
<circle cx="178.96" cy="509.99" r="1.6666666666666667" />
<circle cx="179.78" cy="509.99" r="1.6666666666666667" />
<circle cx="180.57" cy="509.99" r="1.6666666666666667" />
<circle cx="181.42" cy="509.99" r="1.6666666666666667" />
<circle cx="182.28" cy="509.99" r="1.6666666666666667" />
<circle cx="182.98" cy="509.99" r="1.6666666666666667" />
<circle cx="183.63" cy="509.99" r="1.6666666666666667" />
<circle cx="184.34" cy="509.99" r="1.6666666666666667" />
<circle cx="184.99" cy="509.99" r="1.6666666666666667" />
<circle cx="185.68" cy="509.99" r="1.6666666666666667" />
<circle cx="186.46" cy="509.99" r="1.6666666666666667" />
<circle cx="187.20" cy="509.99" r="1.6666666666666667" />
<circle cx="187.92" cy="509.99" r="1.6666666666666667" />
<circle cx="188.69" cy="509.99" r="1.6666666666666667" />
<circle cx="189.52" cy="509.99" r="1.6666666666666667" />
<circle cx="190.24" cy="509.99" r="1.6666666666666667" />
<circle cx="191.04" cy="509.99" r="1.6666666666666667" />
<circle cx="191.84" cy="509.99" r="1.6666666666666667" />
<circle cx="192.55" cy="509.99" r="1.6666666666666667" />
<circle cx="193.37" cy="509.99" r="1.6666666666666667" />
<circle cx="194.02" cy="509.99" r="1.6666666666666667" />
<circle cx="194.78" cy="509.99" r="1.6666666666666667" />
<circle cx="195.46" cy="509.99" r="1.6666666666666667" />
<circle cx="196.20" cy="509.99" r="1.6666666666666667" />
<circle cx="196.97" cy="509.99" r="1.6666666666666667" />
<circle cx="197.69" cy="509.99" r="1.6666666666666667" />
<circle cx="198.47" cy="509.99" r="1.6666666666666667" />
<circle cx="199.29" cy="509.99" r="1.6666666666666667" />
<circle cx="221.51" cy="509.68" r="1.6666666666666667" />
<circle cx="221.51" cy="486.14" r="1.6666666666666667" />
<circle cx="221.51" cy="488.79" r="1.6666666666666667" />
<circle cx="221.51" cy="495.86" r="1.6666666666666667" />
<circle cx="221.51" cy="487.54" r="1.6666666666666667" />
<circle cx="221.56" cy="509.84" r="1.6666666666666667" />
<circle cx="221.56" cy="462.27" r="1.6666666666666667" />
<circle cx="221.56" cy="414.55" r="1.6666666666666667" />
<circle cx="221.56" cy="319.09" r="1.6666666666666667" />
<circle cx="221.56" cy="128.18" r="1.6666666666666667" />
<circle cx="221.56" cy="128.18" r="1.6666666666666667" />
<circle cx="221.56" cy="128.18" r="1.6666666666666667" />
<circle cx="221.56" cy="128.18" r="1.6666666666666667" />
<circle cx="221.56" cy="128.18" r="1.6666666666666667" />
<circle cx="221.56" cy="128.18" r="1.6666666666666667" />
<circle cx="221.56" cy="128.18" r="1.6666666666666667" />
<circle cx="221.56" cy="128.18" r="1.6666666666666667" />
<circle cx="221.56" cy="128.18" r="1.6666666666666667" />
<circle cx="221.56" cy="128.18" r="1.6666666666666667" />
<circle cx="221.56" cy="128.18" r="1.6666666666666667" />
<circle cx="221.56" cy="128.18" r="1.6666666666666667" />
<circle cx="221.56" cy="128.18" r="1.6666666666666667" />
<circle cx="221.56" cy="128.18" r="1.6666666666666667" />
<circle cx="221.56" cy="128.18" r="1.6666666666666667" />
<circle cx="221.56" cy="128.18" r="1.6666666666666667" />
<circle cx="221.56" cy="128.18" r="1.6666666666666667" />
<circle cx="221.56" cy="128.18" r="1.6666666666666667" />
<circle cx="221.56" cy="128.18" r="1.6666666666666667" />
<circle cx="221.56" cy="128.18" r="1.6666666666666667" />
<circle cx="221.56" cy="128.18" r="1.6666666666666667" />
<circle cx="221.56" cy="128.18" r="1.6666666666666667" />
<circle cx="221.56" cy="128.18" r="1.6666666666666667" />
<circle cx="221.56" cy="128.18" r="1.6666666666666667" />
<circle cx="221.56" cy="128.18" r="1.6666666666666667" />
<circle cx="221.56" cy="128.18" r="1.6666666666666667" />
<circle cx="221.56" cy="128.18" r="1.6666666666666667" />
<circle cx="221.56" cy="128.18" r="1.6666666666666667" />
<circle cx="221.56" cy="128.18" r="1.6666666666666667" />
<circle cx="221.56" cy="128.18" r="1.6666666666666667" />
<circle cx="221.56" cy="128.18" r="1.6666666666666667" />
<circle cx="221.56" cy="128.18" r="1.6666666666666667" />
<circle cx="221.56" cy="128.18" r="1.6666666666666667" />
<circle cx="221.56" cy="128.18" r="1.6666666666666667" />
<circle cx="221.56" cy="128.18" r="1.6666666666666667" />
<circle cx="221.56" cy="128.18" r="1.6666666666666667" />
<circle cx="221.56" cy="128.18" r="1.6666666666666667" />
<circle cx="221.56" cy="128.18" r="1.6666666666666667" />
<circle cx="221.56" cy="128.18" r="1.6666666666666667" />
<circle cx="221.56" cy="128.18" r="1.6666666666666667" />
<circle cx="221.56" cy="128.18" r="1.6666666666666667" />
<circle cx="221.56" cy="128.18" r="1.6666666666666667" />
<circle cx="221.56" cy="128.18" r="1.6666666666666667" />
<circle cx="221.56" cy="128.18" r="1.6666666666666667" />
<circle cx="221.56" cy="128.18" r="1.6666666666666667" />
<circle cx="221.56" cy="128.18" r="1.6666666666666667" />
<circle cx="221.56" cy="128.18" r="1.6666666666666667" />
<circle cx="221.56" cy="128.18" r="1.6666666666666667" />
<circle cx="221.56" cy="128.18" r="1.6666666666666667" />
<circle cx="221.56" cy="128.18" r="1.6666666666666667" />
<circle cx="221.56" cy="128.18" r="1.6666666666666667" />
<circle cx="221.56" cy="128.18" r="1.6666666666666667" />
<circle cx="221.56" cy="128.18" r="1.6666666666666667" />
<circle cx="221.56" cy="128.18" r="1.6666666666666667" />
<circle cx="221.56" cy="128.18" r="1.6666666666666667" />
<circle cx="221.56" cy="128.18" r="1.6666666666666667" />
<circle cx="221.56" cy="128.18" r="1.6666666666666667" />
<circle cx="221.56" cy="128.18" r="1.6666666666666667" />
<circle cx="221.56" cy="128.18" r="1.6666666666666667" />
<circle cx="221.56" cy="128.18" r="1.6666666666666667" />
<circle cx="221.56" cy="128.18" r="1.6666666666666667" />
<circle cx="221.56" cy="128.18" r="1.6666666666666667" />
<circle cx="221.56" cy="128.18" r="1.6666666666666667" />
<circle cx="221.57" cy="128.18" r="1.6666666666666667" />
<circle cx="221.57" cy="128.18" r="1.6666666666666667" />
<circle cx="221.57" cy="128.18" r="1.6666666666666667" />
<circle cx="221.57" cy="128.18" r="1.6666666666666667" />
<circle cx="221.57" cy="128.18" r="1.6666666666666667" />
<circle cx="221.57" cy="319.09" r="1.6666666666666667" />
<circle cx="221.57" cy="128.18" r="1.6666666666666667" />
<circle cx="221.57" cy="128.18" r="1.6666666666666667" />
<circle cx="221.57" cy="128.18" r="1.6666666666666667" />
<circle cx="221.57" cy="128.18" r="1.6666666666666667" />
<circle cx="221.57" cy="128.18" r="1.6666666666666667" />
<circle cx="221.57" cy="128.18" r="1.6666666666666667" />
<circle cx="221.57" cy="128.18" r="1.6666666666666667" />
<circle cx="221.57" cy="128.18" r="1.6666666666666667" />
<circle cx="221.57" cy="128.18" r="1.6666666666666667" />
<circle cx="221.57" cy="128.18" r="1.6666666666666667" />
<circle cx="221.57" cy="128.18" r="1.6666666666666667" />
<circle cx="221.57" cy="128.18" r="1.6666666666666667" />
<circle cx="221.57" cy="128.18" r="1.6666666666666667" />
<circle cx="221.57" cy="128.18" r="1.6666666666666667" />
<circle cx="221.57" cy="128.18" r="1.6666666666666667" />
<circle cx="221.57" cy="128.18" r="1.6666666666666667" />
<circle cx="221.57" cy="128.18" r="1.6666666666666667" />
<circle cx="221.57" cy="128.18" r="1.6666666666666667" />
<circle cx="221.57" cy="128.18" r="1.6666666666666667" />
<circle cx="221.57" cy="128.18" r="1.6666666666666667" />
<circle cx="221.57" cy="128.18" r="1.6666666666666667" />
<circle cx="221.57" cy="128.18" r="1.6666666666666667" />
<circle cx="221.57" cy="128.18" r="1.6666666666666667" />
<circle cx="221.57" cy="128.18" r="1.6666666666666667" />
<circle cx="221.57" cy="128.18" r="1.6666666666666667" />
<circle cx="221.57" cy="128.18" r="1.6666666666666667" />
<circle cx="221.57" cy="128.18" r="1.6666666666666667" />
<circle cx="221.57" cy="128.18" r="1.6666666666666667" />
<circle cx="221.57" cy="128.18" r="1.6666666666666667" />
<circle cx="221.57" cy="128.18" r="1.6666666666666667" />
<circle cx="221.57" cy="128.18" r="1.6666666666666667" />
<circle cx="221.57" cy="128.18" r="1.6666666666666667" />
<circle cx="221.57" cy="128.18" r="1.6666666666666667" />
<circle cx="221.57" cy="128.18" r="1.6666666666666667" />
<circle cx="221.57" cy="128.18" r="1.6666666666666667" />
<circle cx="221.57" cy="128.18" r="1.6666666666666667" />
<circle cx="221.57" cy="128.18" r="1.6666666666666667" />
<circle cx="221.57" cy="128.18" r="1.6666666666666667" />
<circle cx="221.57" cy="128.18" r="1.6666666666666667" />
<circle cx="221.57" cy="128.18" r="1.6666666666666667" />
<circle cx="221.57" cy="128.18" r="1.6666666666666667" />
<circle cx="221.57" cy="128.18" r="1.6666666666666667" />
<circle cx="221.57" cy="128.18" r="1.6666666666666667" />
<circle cx="221.57" cy="128.18" r="1.6666666666666667" />
<circle cx="221.57" cy="128.18" r="1.6666666666666667" />
<circle cx="221.57" cy="128.18" r="1.6666666666666667" />
<circle cx="221.57" cy="128.18" r="1.6666666666666667" />
<circle cx="221.57" cy="128.18" r="1.6666666666666667" />
<circle cx="221.57" cy="128.18" r="1.6666666666666667" />
<circle cx="221.57" cy="128.18" r="1.6666666666666667" />
<circle cx="221.57" cy="128.18" r="1.6666666666666667" />
<circle cx="221.57" cy="128.18" r="1.6666666666666667" />
<circle cx="221.57" cy="128.18" r="1.6666666666666667" />
<circle cx="221.57" cy="128.18" r="1.6666666666666667" />
<circle cx="221.57" cy="128.18" r="1.6666666666666667" />
<circle cx="221.57" cy="128.18" r="1.6666666666666667" />
<circle cx="221.57" cy="128.18" r="1.6666666666666667" />
<circle cx="221.57" cy="128.18" r="1.6666666666666667" />
<circle cx="221.57" cy="128.18" r="1.6666666666666667" />
<circle cx="221.57" cy="128.18" r="1.6666666666666667" />
<circle cx="221.57" cy="128.18" r="1.6666666666666667" />
<circle cx="221.57" cy="486.14" r="1.6666666666666667" />
<circle cx="221.57" cy="128.18" r="1.6666666666666667" />
<circle cx="221.57" cy="128.18" r="1.6666666666666667" />
<circle cx="221.57" cy="128.18" r="1.6666666666666667" />
<circle cx="221.57" cy="128.18" r="1.6666666666666667" />
<circle cx="221.57" cy="128.18" r="1.6666666666666667" />
<circle cx="221.57" cy="128.18" r="1.6666666666666667" />
<circle cx="221.57" cy="128.18" r="1.6666666666666667" />
<circle cx="221.57" cy="128.18" r="1.6666666666666667" />
<circle cx="221.57" cy="128.18" r="1.6666666666666667" />
<circle cx="221.57" cy="128.18" r="1.6666666666666667" />
<circle cx="221.57" cy="128.18" r="1.6666666666666667" />
<circle cx="221.57" cy="128.18" r="1.6666666666666667" />
<circle cx="221.57" cy="128.18" r="1.6666666666666667" />
<circle cx="221.57" cy="128.18" r="1.6666666666666667" />
<circle cx="221.57" cy="128.18" r="1.6666666666666667" />
<circle cx="221.57" cy="128.18" r="1.6666666666666667" />
<circle cx="221.57" cy="128.18" r="1.6666666666666667" />
<circle cx="221.57" cy="128.18" r="1.6666666666666667" />
<circle cx="221.57" cy="128.18" r="1.6666666666666667" />
<circle cx="221.57" cy="128.18" r="1.6666666666666667" />
<circle cx="221.57" cy="128.18" r="1.6666666666666667" />
<circle cx="221.57" cy="128.18" r="1.6666666666666667" />
<circle cx="221.57" cy="128.18" r="1.6666666666666667" />
<circle cx="221.57" cy="128.18" r="1.6666666666666667" />
<circle cx="221.57" cy="128.18" r="1.6666666666666667" />
<circle cx="221.57" cy="128.18" r="1.6666666666666667" />
<circle cx="221.57" cy="128.18" r="1.6666666666666667" />
<circle cx="221.57" cy="128.18" r="1.6666666666666667" />
<circle cx="221.57" cy="128.18" r="1.6666666666666667" />
<circle cx="221.57" cy="128.18" r="1.6666666666666667" />
<circle cx="221.57" cy="128.18" r="1.6666666666666667" />
<circle cx="221.57" cy="128.18" r="1.6666666666666667" />
<circle cx="221.57" cy="128.18" r="1.6666666666666667" />
<circle cx="221.57" cy="128.18" r="1.6666666666666667" />
<circle cx="221.57" cy="128.18" r="1.6666666666666667" />
<circle cx="221.57" cy="128.18" r="1.6666666666666667" />
<circle cx="221.57" cy="128.18" r="1.6666666666666667" />
<circle cx="221.57" cy="128.18" r="1.6666666666666667" />
<circle cx="221.57" cy="128.18" r="1.6666666666666667" />
<circle cx="221.57" cy="128.18" r="1.6666666666666667" />
<circle cx="221.57" cy="128.18" r="1.6666666666666667" />
<circle cx="221.57" cy="128.18" r="1.6666666666666667" />
<circle cx="221.57" cy="128.18" r="1.6666666666666667" />
<circle cx="221.57" cy="128.18" r="1.6666666666666667" />
<circle cx="221.57" cy="128.18" r="1.6666666666666667" />
<circle cx="221.57" cy="128.18" r="1.6666666666666667" />
<circle cx="221.57" cy="128.18" r="1.6666666666666667" />
<circle cx="221.57" cy="128.18" r="1.6666666666666667" />
<circle cx="221.57" cy="128.18" r="1.6666666666666667" />
<circle cx="221.57" cy="128.18" r="1.6666666666666667" />
<circle cx="221.57" cy="128.18" r="1.6666666666666667" />
<circle cx="221.57" cy="128.18" r="1.6666666666666667" />
<circle cx="221.57" cy="128.18" r="1.6666666666666667" />
<circle cx="221.57" cy="128.18" r="1.6666666666666667" />
<circle cx="221.57" cy="128.18" r="1.6666666666666667" />
<circle cx="221.57" cy="128.18" r="1.6666666666666667" />
<circle cx="221.57" cy="128.18" r="1.6666666666666667" />
<circle cx="221.57" cy="128.18" r="1.6666666666666667" />
<circle cx="221.57" cy="128.18" r="1.6666666666666667" />
<circle cx="221.57" cy="128.18" r="1.6666666666666667" />
<circle cx="221.57" cy="128.18" r="1.6666666666666667" />
<circle cx="221.57" cy="128.18" r="1.6666666666666667" />
<circle cx="221.57" cy="128.18" r="1.6666666666666667" />
<circle cx="221.57" cy="128.18" r="1.6666666666666667" />
<circle cx="221.57" cy="128.18" r="1.6666666666666667" />
<circle cx="221.57" cy="128.18" r="1.6666666666666667" />
<circle cx="221.57" cy="128.18" r="1.6666666666666667" />
<circle cx="221.57" cy="128.18" r="1.6666666666666667" />
<circle cx="221.57" cy="128.18" r="1.6666666666666667" />
<circle cx="221.57" cy="128.18" r="1.6666666666666667" />
<circle cx="221.57" cy="128.18" r="1.6666666666666667" />
<circle cx="221.57" cy="128.18" r="1.6666666666666667" />
<circle cx="221.57" cy="128.18" r="1.6666666666666667" />
<circle cx="221.57" cy="128.18" r="1.6666666666666667" />
<circle cx="221.57" cy="128.18" r="1.6666666666666667" />
<circle cx="221.57" cy="128.18" r="1.6666666666666667" />
<circle cx="221.57" cy="128.18" r="1.6666666666666667" />
<circle cx="221.57" cy="128.18" r="1.6666666666666667" />
<circle cx="221.57" cy="128.18" r="1.6666666666666667" />
<circle cx="221.57" cy="128.18" r="1.6666666666666667" />
<circle cx="221.57" cy="128.18" r="1.6666666666666667" />
<circle cx="221.57" cy="128.18" r="1.6666666666666667" />
<circle cx="221.57" cy="128.18" r="1.6666666666666667" />
<circle cx="221.57" cy="128.18" r="1.6666666666666667" />
<circle cx="221.57" cy="128.18" r="1.6666666666666667" />
<circle cx="221.57" cy="128.18" r="1.6666666666666667" />
<circle cx="221.57" cy="128.18" r="1.6666666666666667" />
<circle cx="221.57" cy="128.18" r="1.6666666666666667" />
<circle cx="221.57" cy="128.18" r="1.6666666666666667" />
<circle cx="221.57" cy="128.18" r="1.6666666666666667" />
<circle cx="221.57" cy="128.18" r="1.6666666666666667" />
<circle cx="221.57" cy="128.18" r="1.6666666666666667" />
<circle cx="221.57" cy="128.18" r="1.6666666666666667" />
<circle cx="221.57" cy="128.18" r="1.6666666666666667" />
<circle cx="221.57" cy="128.18" r="1.6666666666666667" />
<circle cx="221.57" cy="128.18" r="1.6666666666666667" />
<circle cx="221.57" cy="128.18" r="1.6666666666666667" />
<circle cx="221.57" cy="128.18" r="1.6666666666666667" />
<circle cx="221.57" cy="128.18" r="1.6666666666666667" />
<circle cx="221.57" cy="128.18" r="1.6666666666666667" />
<circle cx="221.57" cy="128.18" r="1.6666666666666667" />
<circle cx="221.57" cy="128.18" r="1.6666666666666667" />
<circle cx="221.57" cy="128.18" r="1.6666666666666667" />
<circle cx="221.57" cy="128.18" r="1.6666666666666667" />
<circle cx="221.57" cy="128.18" r="1.6666666666666667" />
<circle cx="221.57" cy="128.18" r="1.6666666666666667" />
<circle cx="221.57" cy="128.18" r="1.6666666666666667" />
<circle cx="221.57" cy="128.18" r="1.6666666666666667" />
<circle cx="221.57" cy="128.18" r="1.6666666666666667" />
<circle cx="221.57" cy="128.18" r="1.6666666666666667" />
<circle cx="221.57" cy="128.18" r="1.6666666666666667" />
<circle cx="221.57" cy="128.18" r="1.6666666666666667" />
<circle cx="221.57" cy="128.18" r="1.6666666666666667" />
<circle cx="221.57" cy="128.18" r="1.6666666666666667" />
<circle cx="221.57" cy="128.18" r="1.6666666666666667" />
<circle cx="221.57" cy="128.18" r="1.6666666666666667" />
<circle cx="221.57" cy="128.18" r="1.6666666666666667" />
<circle cx="221.57" cy="128.18" r="1.6666666666666667" />
<circle cx="221.57" cy="128.18" r="1.6666666666666667" />
<circle cx="221.57" cy="128.18" r="1.6666666666666667" />
<circle cx="221.57" cy="128.18" r="1.6666666666666667" />
<circle cx="221.57" cy="128.18" r="1.6666666666666667" />
<circle cx="221.57" cy="128.18" r="1.6666666666666667" />
<circle cx="221.57" cy="128.18" r="1.6666666666666667" />
<circle cx="221.57" cy="128.18" r="1.6666666666666667" />
<circle cx="221.57" cy="128.18" r="1.6666666666666667" />
<circle cx="221.57" cy="128.18" r="1.6666666666666667" />
<circle cx="221.57" cy="128.18" r="1.6666666666666667" />
<circle cx="221.57" cy="128.18" r="1.6666666666666667" />
<circle cx="221.57" cy="128.18" r="1.6666666666666667" />
<circle cx="221.57" cy="128.18" r="1.6666666666666667" />
<circle cx="221.57" cy="128.18" r="1.6666666666666667" />
<circle cx="221.57" cy="128.18" r="1.6666666666666667" />
<circle cx="221.57" cy="128.18" r="1.6666666666666667" />
<circle cx="221.57" cy="128.18" r="1.6666666666666667" />
<circle cx="221.57" cy="128.18" r="1.6666666666666667" />
<circle cx="221.57" cy="128.18" r="1.6666666666666667" />
<circle cx="221.57" cy="486.14" r="1.6666666666666667" />
<circle cx="221.57" cy="128.18" r="1.6666666666666667" />
<circle cx="221.57" cy="128.18" r="1.6666666666666667" />
<circle cx="221.57" cy="128.18" r="1.6666666666666667" />
<circle cx="221.57" cy="128.18" r="1.6666666666666667" />
<circle cx="221.57" cy="128.18" r="1.6666666666666667" />
<circle cx="221.57" cy="128.18" r="1.6666666666666667" />
<circle cx="221.57" cy="128.18" r="1.6666666666666667" />
<circle cx="221.57" cy="128.18" r="1.6666666666666667" />
<circle cx="221.57" cy="128.18" r="1.6666666666666667" />
<circle cx="221.57" cy="128.18" r="1.6666666666666667" />
<circle cx="221.57" cy="486.14" r="1.6666666666666667" />
<circle cx="221.57" cy="128.18" r="1.6666666666666667" />
<circle cx="221.57" cy="128.18" r="1.6666666666666667" />
<circle cx="221.57" cy="128.18" r="1.6666666666666667" />
<circle cx="221.57" cy="128.18" r="1.6666666666666667" />
<circle cx="221.57" cy="128.18" r="1.6666666666666667" />
<circle cx="221.57" cy="128.18" r="1.6666666666666667" />
<circle cx="221.57" cy="128.18" r="1.6666666666666667" />
<circle cx="221.57" cy="128.18" r="1.6666666666666667" />
<circle cx="221.57" cy="128.18" r="1.6666666666666667" />
<circle cx="221.57" cy="128.18" r="1.6666666666666667" />
<circle cx="221.57" cy="128.18" r="1.6666666666666667" />
<circle cx="221.57" cy="128.18" r="1.6666666666666667" />
<circle cx="221.57" cy="128.18" r="1.6666666666666667" />
<circle cx="221.57" cy="128.18" r="1.6666666666666667" />
<circle cx="221.57" cy="128.18" r="1.6666666666666667" />
<circle cx="221.57" cy="128.18" r="1.6666666666666667" />
<circle cx="221.57" cy="128.18" r="1.6666666666666667" />
<circle cx="221.57" cy="128.18" r="1.6666666666666667" />
<circle cx="221.57" cy="128.18" r="1.6666666666666667" />
<circle cx="221.57" cy="128.18" r="1.6666666666666667" />
<circle cx="221.57" cy="128.18" r="1.6666666666666667" />
<circle cx="221.57" cy="128.18" r="1.6666666666666667" />
<circle cx="221.57" cy="128.18" r="1.6666666666666667" />
<circle cx="221.57" cy="128.18" r="1.6666666666666667" />
<circle cx="221.57" cy="128.18" r="1.6666666666666667" />
<circle cx="221.57" cy="128.18" r="1.6666666666666667" />
<circle cx="221.57" cy="128.18" r="1.6666666666666667" />
<circle cx="221.57" cy="128.18" r="1.6666666666666667" />
<circle cx="221.57" cy="128.18" r="1.6666666666666667" />
<circle cx="221.57" cy="128.18" r="1.6666666666666667" />
<circle cx="221.57" cy="128.18" r="1.6666666666666667" />
<circle cx="221.57" cy="128.18" r="1.6666666666666667" />
<circle cx="221.57" cy="128.18" r="1.6666666666666667" />
<circle cx="221.57" cy="128.18" r="1.6666666666666667" />
<circle cx="221.57" cy="128.18" r="1.6666666666666667" />
<circle cx="221.57" cy="128.18" r="1.6666666666666667" />
<circle cx="221.57" cy="128.18" r="1.6666666666666667" />
<circle cx="221.57" cy="128.18" r="1.6666666666666667" />
<circle cx="221.57" cy="128.18" r="1.6666666666666667" />
<circle cx="221.57" cy="128.18" r="1.6666666666666667" />
<circle cx="221.57" cy="128.18" r="1.6666666666666667" />
<circle cx="221.57" cy="128.18" r="1.6666666666666667" />
<circle cx="221.57" cy="128.18" r="1.6666666666666667" />
<circle cx="221.57" cy="128.18" r="1.6666666666666667" />
<circle cx="221.57" cy="128.18" r="1.6666666666666667" />
<circle cx="221.57" cy="128.18" r="1.6666666666666667" />
<circle cx="221.57" cy="128.18" r="1.6666666666666667" />
<circle cx="221.57" cy="128.18" r="1.6666666666666667" />
<circle cx="221.57" cy="128.18" r="1.6666666666666667" />
<circle cx="221.57" cy="128.18" r="1.6666666666666667" />
<circle cx="221.57" cy="128.18" r="1.6666666666666667" />
<circle cx="221.57" cy="128.18" r="1.6666666666666667" />
<circle cx="221.57" cy="128.18" r="1.6666666666666667" />
<circle cx="221.57" cy="128.18" r="1.6666666666666667" />
<circle cx="221.57" cy="128.18" r="1.6666666666666667" />
<circle cx="221.57" cy="128.18" r="1.6666666666666667" />
<circle cx="221.57" cy="128.18" r="1.6666666666666667" />
<circle cx="221.57" cy="128.18" r="1.6666666666666667" />
<circle cx="221.57" cy="128.18" r="1.6666666666666667" />
<circle cx="221.57" cy="128.18" r="1.6666666666666667" />
<circle cx="221.57" cy="128.18" r="1.6666666666666667" />
<circle cx="221.57" cy="128.18" r="1.6666666666666667" />
<circle cx="221.57" cy="128.18" r="1.6666666666666667" />
<circle cx="221.57" cy="128.18" r="1.6666666666666667" />
<circle cx="221.57" cy="128.18" r="1.6666666666666667" />
<circle cx="221.57" cy="128.18" r="1.6666666666666667" />
<circle cx="221.57" cy="128.18" r="1.6666666666666667" />
<circle cx="221.57" cy="128.18" r="1.6666666666666667" />
<circle cx="221.57" cy="128.18" r="1.6666666666666667" />
<circle cx="221.57" cy="128.18" r="1.6666666666666667" />
<circle cx="221.57" cy="128.18" r="1.6666666666666667" />
<circle cx="221.57" cy="128.18" r="1.6666666666666667" />
<circle cx="221.57" cy="128.18" r="1.6666666666666667" />
<circle cx="221.57" cy="128.18" r="1.6666666666666667" />
<circle cx="221.57" cy="128.18" r="1.6666666666666667" />
<circle cx="221.57" cy="128.18" r="1.6666666666666667" />
<circle cx="221.57" cy="128.18" r="1.6666666666666667" />
<circle cx="221.57" cy="128.18" r="1.6666666666666667" />
<circle cx="221.57" cy="128.18" r="1.6666666666666667" />
<circle cx="221.57" cy="128.18" r="1.6666666666666667" />
<circle cx="221.57" cy="128.18" r="1.6666666666666667" />
<circle cx="221.57" cy="128.18" r="1.6666666666666667" />
<circle cx="221.57" cy="128.18" r="1.6666666666666667" />
<circle cx="221.57" cy="128.18" r="1.6666666666666667" />
<circle cx="221.57" cy="128.18" r="1.6666666666666667" />
<circle cx="221.57" cy="128.18" r="1.6666666666666667" />
<circle cx="221.57" cy="128.18" r="1.6666666666666667" />
<circle cx="221.57" cy="128.18" r="1.6666666666666667" />
<circle cx="221.57" cy="128.18" r="1.6666666666666667" />
<circle cx="221.57" cy="128.18" r="1.6666666666666667" />
<circle cx="221.57" cy="128.18" r="1.6666666666666667" />
<circle cx="221.57" cy="128.18" r="1.6666666666666667" />
<circle cx="221.57" cy="128.18" r="1.6666666666666667" />
<circle cx="221.57" cy="128.18" r="1.6666666666666667" />
<circle cx="221.57" cy="128.18" r="1.6666666666666667" />
<circle cx="221.57" cy="486.14" r="1.6666666666666667" />
<circle cx="221.57" cy="128.18" r="1.6666666666666667" />
<circle cx="221.57" cy="128.18" r="1.6666666666666667" />
<circle cx="221.57" cy="128.18" r="1.6666666666666667" />
<circle cx="221.57" cy="128.18" r="1.6666666666666667" />
<circle cx="221.57" cy="128.18" r="1.6666666666666667" />
<circle cx="221.57" cy="128.18" r="1.6666666666666667" />
<circle cx="221.57" cy="128.18" r="1.6666666666666667" />
<circle cx="221.57" cy="128.18" r="1.6666666666666667" />
<circle cx="221.57" cy="128.18" r="1.6666666666666667" />
<circle cx="221.57" cy="128.18" r="1.6666666666666667" />
<circle cx="221.57" cy="128.18" r="1.6666666666666667" />
<circle cx="221.57" cy="128.18" r="1.6666666666666667" />
<circle cx="221.57" cy="128.18" r="1.6666666666666667" />
<circle cx="221.57" cy="128.18" r="1.6666666666666667" />
<circle cx="221.57" cy="128.18" r="1.6666666666666667" />
<circle cx="221.57" cy="128.18" r="1.6666666666666667" />
<circle cx="221.57" cy="128.18" r="1.6666666666666667" />
<circle cx="221.57" cy="128.18" r="1.6666666666666667" />
<circle cx="221.57" cy="128.18" r="1.6666666666666667" />
<circle cx="221.57" cy="128.18" r="1.6666666666666667" />
<circle cx="221.57" cy="128.18" r="1.6666666666666667" />
<circle cx="221.57" cy="128.18" r="1.6666666666666667" />
<circle cx="221.57" cy="128.18" r="1.6666666666666667" />
<circle cx="221.57" cy="128.18" r="1.6666666666666667" />
<circle cx="221.57" cy="128.18" r="1.6666666666666667" />
<circle cx="221.57" cy="128.18" r="1.6666666666666667" />
<circle cx="221.57" cy="128.18" r="1.6666666666666667" />
<circle cx="221.57" cy="128.18" r="1.6666666666666667" />
<circle cx="221.57" cy="128.18" r="1.6666666666666667" />
<circle cx="221.57" cy="128.18" r="1.6666666666666667" />
<circle cx="221.57" cy="128.18" r="1.6666666666666667" />
<circle cx="221.57" cy="128.18" r="1.6666666666666667" />
<circle cx="221.57" cy="128.18" r="1.6666666666666667" />
<circle cx="221.57" cy="128.18" r="1.6666666666666667" />
<circle cx="221.57" cy="128.18" r="1.6666666666666667" />
<circle cx="221.57" cy="128.18" r="1.6666666666666667" />
<circle cx="221.57" cy="128.18" r="1.6666666666666667" />
<circle cx="221.57" cy="128.18" r="1.6666666666666667" />
<circle cx="221.57" cy="128.18" r="1.6666666666666667" />
<circle cx="221.57" cy="319.09" r="1.6666666666666667" />
<circle cx="221.57" cy="128.18" r="1.6666666666666667" />
<circle cx="221.57" cy="128.18" r="1.6666666666666667" />
<circle cx="221.57" cy="128.18" r="1.6666666666666667" />
<circle cx="221.57" cy="128.18" r="1.6666666666666667" />
<circle cx="221.57" cy="486.14" r="1.6666666666666667" />
<circle cx="221.57" cy="128.18" r="1.6666666666666667" />
<circle cx="221.57" cy="128.18" r="1.6666666666666667" />
<circle cx="221.57" cy="128.18" r="1.6666666666666667" />
<circle cx="221.58" cy="506.59" r="1.6666666666666667" />
<circle cx="221.58" cy="128.18" r="1.6666666666666667" />
<circle cx="221.58" cy="128.18" r="1.6666666666666667" />
<circle cx="221.58" cy="128.18" r="1.6666666666666667" />
<circle cx="221.58" cy="128.18" r="1.6666666666666667" />
<circle cx="221.58" cy="128.18" r="1.6666666666666667" />
<circle cx="221.58" cy="128.18" r="1.6666666666666667" />
<circle cx="221.58" cy="128.18" r="1.6666666666666667" />
<circle cx="221.58" cy="128.18" r="1.6666666666666667" />
<circle cx="221.58" cy="128.18" r="1.6666666666666667" />
<circle cx="221.58" cy="128.18" r="1.6666666666666667" />
<circle cx="221.58" cy="128.18" r="1.6666666666666667" />
<circle cx="221.58" cy="128.18" r="1.6666666666666667" />
<circle cx="221.58" cy="128.18" r="1.6666666666666667" />
<circle cx="221.58" cy="128.18" r="1.6666666666666667" />
<circle cx="221.58" cy="128.18" r="1.6666666666666667" />
<circle cx="221.58" cy="128.18" r="1.6666666666666667" />
<circle cx="221.58" cy="128.18" r="1.6666666666666667" />
<circle cx="221.58" cy="128.18" r="1.6666666666666667" />
<circle cx="221.58" cy="128.18" r="1.6666666666666667" />
<circle cx="221.58" cy="128.18" r="1.6666666666666667" />
<circle cx="221.58" cy="128.18" r="1.6666666666666667" />
<circle cx="221.58" cy="128.18" r="1.6666666666666667" />
<circle cx="221.58" cy="128.18" r="1.6666666666666667" />
<circle cx="221.58" cy="128.18" r="1.6666666666666667" />
<circle cx="221.58" cy="128.18" r="1.6666666666666667" />
<circle cx="221.58" cy="128.18" r="1.6666666666666667" />
<circle cx="221.58" cy="128.18" r="1.6666666666666667" />
<circle cx="221.58" cy="128.18" r="1.6666666666666667" />
<circle cx="221.58" cy="128.18" r="1.6666666666666667" />
<circle cx="221.58" cy="128.18" r="1.6666666666666667" />
<circle cx="221.58" cy="128.18" r="1.6666666666666667" />
<circle cx="221.58" cy="128.18" r="1.6666666666666667" />
<circle cx="221.58" cy="128.18" r="1.6666666666666667" />
<circle cx="221.58" cy="128.18" r="1.6666666666666667" />
<circle cx="221.58" cy="128.18" r="1.6666666666666667" />
<circle cx="221.58" cy="128.18" r="1.6666666666666667" />
<circle cx="221.58" cy="128.18" r="1.6666666666666667" />
<circle cx="221.58" cy="128.18" r="1.6666666666666667" />
<circle cx="221.58" cy="128.18" r="1.6666666666666667" />
<circle cx="221.58" cy="128.18" r="1.6666666666666667" />
<circle cx="221.58" cy="128.18" r="1.6666666666666667" />
<circle cx="221.58" cy="128.18" r="1.6666666666666667" />
<circle cx="221.58" cy="128.18" r="1.6666666666666667" />
<circle cx="221.58" cy="128.18" r="1.6666666666666667" />
<circle cx="221.58" cy="128.18" r="1.6666666666666667" />
<circle cx="221.58" cy="128.18" r="1.6666666666666667" />
<circle cx="221.58" cy="128.18" r="1.6666666666666667" />
<circle cx="221.58" cy="128.18" r="1.6666666666666667" />
<circle cx="221.58" cy="128.18" r="1.6666666666666667" />
<circle cx="221.58" cy="128.18" r="1.6666666666666667" />
<circle cx="221.58" cy="128.18" r="1.6666666666666667" />
<circle cx="221.58" cy="128.18" r="1.6666666666666667" />
<circle cx="221.58" cy="128.18" r="1.6666666666666667" />
<circle cx="221.58" cy="128.18" r="1.6666666666666667" />
<circle cx="221.58" cy="128.18" r="1.6666666666666667" />
<circle cx="221.58" cy="128.18" r="1.6666666666666667" />
<circle cx="221.58" cy="128.18" r="1.6666666666666667" />
<circle cx="221.58" cy="128.18" r="1.6666666666666667" />
<circle cx="221.58" cy="128.18" r="1.6666666666666667" />
<circle cx="221.58" cy="128.18" r="1.6666666666666667" />
<circle cx="221.58" cy="128.18" r="1.6666666666666667" />
<circle cx="221.58" cy="128.18" r="1.6666666666666667" />
<circle cx="221.58" cy="128.18" r="1.6666666666666667" />
<circle cx="221.58" cy="128.18" r="1.6666666666666667" />
<circle cx="221.58" cy="128.18" r="1.6666666666666667" />
<circle cx="221.58" cy="128.18" r="1.6666666666666667" />
<circle cx="221.58" cy="128.18" r="1.6666666666666667" />
<circle cx="221.58" cy="128.18" r="1.6666666666666667" />
<circle cx="221.58" cy="128.18" r="1.6666666666666667" />
<circle cx="221.58" cy="128.18" r="1.6666666666666667" />
<circle cx="221.58" cy="128.18" r="1.6666666666666667" />
<circle cx="221.58" cy="128.18" r="1.6666666666666667" />
<circle cx="221.58" cy="128.18" r="1.6666666666666667" />
<circle cx="221.58" cy="128.18" r="1.6666666666666667" />
<circle cx="221.58" cy="128.18" r="1.6666666666666667" />
<circle cx="221.58" cy="128.18" r="1.6666666666666667" />
<circle cx="221.58" cy="128.18" r="1.6666666666666667" />
<circle cx="221.58" cy="128.18" r="1.6666666666666667" />
<circle cx="221.58" cy="128.18" r="1.6666666666666667" />
<circle cx="221.58" cy="128.18" r="1.6666666666666667" />
<circle cx="221.58" cy="128.18" r="1.6666666666666667" />
<circle cx="221.58" cy="128.18" r="1.6666666666666667" />
<circle cx="221.58" cy="128.18" r="1.6666666666666667" />
<circle cx="221.58" cy="128.18" r="1.6666666666666667" />
<circle cx="221.58" cy="128.18" r="1.6666666666666667" />
<circle cx="221.58" cy="128.18" r="1.6666666666666667" />
<circle cx="221.58" cy="128.18" r="1.6666666666666667" />
<circle cx="221.58" cy="128.18" r="1.6666666666666667" />
<circle cx="221.58" cy="128.18" r="1.6666666666666667" />
<circle cx="221.58" cy="128.18" r="1.6666666666666667" />
<circle cx="221.58" cy="128.18" r="1.6666666666666667" />
<circle cx="221.58" cy="128.18" r="1.6666666666666667" />
<circle cx="221.58" cy="128.18" r="1.6666666666666667" />
<circle cx="221.58" cy="128.18" r="1.6666666666666667" />
<circle cx="221.58" cy="128.18" r="1.6666666666666667" />
<circle cx="221.58" cy="128.18" r="1.6666666666666667" />
<circle cx="221.58" cy="128.18" r="1.6666666666666667" />
<circle cx="221.58" cy="128.18" r="1.6666666666666667" />
<circle cx="221.58" cy="128.18" r="1.6666666666666667" />
<circle cx="221.58" cy="128.18" r="1.6666666666666667" />
<circle cx="221.58" cy="128.18" r="1.6666666666666667" />
<circle cx="221.58" cy="128.18" r="1.6666666666666667" />
<circle cx="221.58" cy="128.18" r="1.6666666666666667" />
<circle cx="221.58" cy="128.18" r="1.6666666666666667" />
<circle cx="221.58" cy="128.18" r="1.6666666666666667" />
<circle cx="221.58" cy="128.18" r="1.6666666666666667" />
<circle cx="221.58" cy="128.18" r="1.6666666666666667" />
<circle cx="221.58" cy="128.18" r="1.6666666666666667" />
<circle cx="221.58" cy="128.18" r="1.6666666666666667" />
<circle cx="221.58" cy="128.18" r="1.6666666666666667" />
<circle cx="221.58" cy="128.18" r="1.6666666666666667" />
<circle cx="221.58" cy="128.18" r="1.6666666666666667" />
<circle cx="221.58" cy="128.18" r="1.6666666666666667" />
<circle cx="221.58" cy="128.18" r="1.6666666666666667" />
<circle cx="221.58" cy="128.18" r="1.6666666666666667" />
<circle cx="221.58" cy="128.18" r="1.6666666666666667" />
<circle cx="221.58" cy="128.18" r="1.6666666666666667" />
<circle cx="221.58" cy="128.18" r="1.6666666666666667" />
<circle cx="221.58" cy="128.18" r="1.6666666666666667" />
<circle cx="221.58" cy="128.18" r="1.6666666666666667" />
<circle cx="221.58" cy="128.18" r="1.6666666666666667" />
<circle cx="221.58" cy="128.18" r="1.6666666666666667" />
<circle cx="221.58" cy="128.18" r="1.6666666666666667" />
<circle cx="221.58" cy="128.18" r="1.6666666666666667" />
<circle cx="221.58" cy="128.18" r="1.6666666666666667" />
<circle cx="221.58" cy="128.18" r="1.6666666666666667" />
<circle cx="221.58" cy="128.18" r="1.6666666666666667" />
<circle cx="221.58" cy="128.18" r="1.6666666666666667" />
<circle cx="221.58" cy="128.18" r="1.6666666666666667" />
<circle cx="221.58" cy="128.18" r="1.6666666666666667" />
<circle cx="221.58" cy="128.18" r="1.6666666666666667" />
<circle cx="221.58" cy="128.18" r="1.6666666666666667" />
<circle cx="221.58" cy="128.18" r="1.6666666666666667" />
<circle cx="221.58" cy="128.18" r="1.6666666666666667" />
<circle cx="221.58" cy="128.18" r="1.6666666666666667" />
<circle cx="221.58" cy="128.18" r="1.6666666666666667" />
<circle cx="221.58" cy="128.18" r="1.6666666666666667" />
<circle cx="221.58" cy="128.18" r="1.6666666666666667" />
<circle cx="221.58" cy="128.18" r="1.6666666666666667" />
<circle cx="221.58" cy="128.18" r="1.6666666666666667" />
<circle cx="221.58" cy="128.18" r="1.6666666666666667" />
<circle cx="221.58" cy="128.18" r="1.6666666666666667" />
<circle cx="221.58" cy="128.18" r="1.6666666666666667" />
<circle cx="221.58" cy="128.18" r="1.6666666666666667" />
<circle cx="221.58" cy="128.18" r="1.6666666666666667" />
<circle cx="221.58" cy="128.18" r="1.6666666666666667" />
<circle cx="221.58" cy="128.18" r="1.6666666666666667" />
<circle cx="221.58" cy="128.18" r="1.6666666666666667" />
<circle cx="221.58" cy="128.18" r="1.6666666666666667" />
<circle cx="221.58" cy="128.18" r="1.6666666666666667" />
<circle cx="221.58" cy="128.18" r="1.6666666666666667" />
<circle cx="221.58" cy="128.18" r="1.6666666666666667" />
<circle cx="221.58" cy="128.18" r="1.6666666666666667" />
<circle cx="221.58" cy="128.18" r="1.6666666666666667" />
<circle cx="221.58" cy="128.18" r="1.6666666666666667" />
<circle cx="221.58" cy="128.18" r="1.6666666666666667" />
<circle cx="221.58" cy="128.18" r="1.6666666666666667" />
<circle cx="221.58" cy="128.18" r="1.6666666666666667" />
<circle cx="221.58" cy="128.18" r="1.6666666666666667" />
<circle cx="221.58" cy="128.18" r="1.6666666666666667" />
<circle cx="221.58" cy="128.18" r="1.6666666666666667" />
<circle cx="221.58" cy="128.18" r="1.6666666666666667" />
<circle cx="221.58" cy="128.18" r="1.6666666666666667" />
<circle cx="221.58" cy="128.18" r="1.6666666666666667" />
<circle cx="221.58" cy="128.18" r="1.6666666666666667" />
<circle cx="221.58" cy="128.18" r="1.6666666666666667" />
<circle cx="221.58" cy="128.18" r="1.6666666666666667" />
<circle cx="221.58" cy="128.18" r="1.6666666666666667" />
<circle cx="221.58" cy="128.18" r="1.6666666666666667" />
<circle cx="221.58" cy="128.18" r="1.6666666666666667" />
<circle cx="221.58" cy="128.18" r="1.6666666666666667" />
<circle cx="221.58" cy="128.18" r="1.6666666666666667" />
<circle cx="221.58" cy="128.18" r="1.6666666666666667" />
<circle cx="221.58" cy="128.18" r="1.6666666666666667" />
<circle cx="221.58" cy="128.18" r="1.6666666666666667" />
<circle cx="221.58" cy="128.18" r="1.6666666666666667" />
<circle cx="221.58" cy="128.18" r="1.6666666666666667" />
<circle cx="221.58" cy="128.18" r="1.6666666666666667" />
<circle cx="221.58" cy="128.18" r="1.6666666666666667" />
<circle cx="221.58" cy="128.18" r="1.6666666666666667" />
<circle cx="221.58" cy="128.18" r="1.6666666666666667" />
<circle cx="221.58" cy="128.18" r="1.6666666666666667" />
<circle cx="221.58" cy="128.18" r="1.6666666666666667" />
<circle cx="221.58" cy="128.18" r="1.6666666666666667" />
<circle cx="221.58" cy="128.18" r="1.6666666666666667" />
<circle cx="221.58" cy="128.18" r="1.6666666666666667" />
<circle cx="221.58" cy="486.14" r="1.6666666666666667" />
<circle cx="221.58" cy="128.18" r="1.6666666666666667" />
<circle cx="221.58" cy="128.18" r="1.6666666666666667" />
<circle cx="221.58" cy="128.18" r="1.6666666666666667" />
<circle cx="221.58" cy="128.18" r="1.6666666666666667" />
<circle cx="221.58" cy="128.18" r="1.6666666666666667" />
<circle cx="221.58" cy="128.18" r="1.6666666666666667" />
<circle cx="221.58" cy="128.18" r="1.6666666666666667" />
<circle cx="221.58" cy="128.18" r="1.6666666666666667" />
<circle cx="221.58" cy="128.18" r="1.6666666666666667" />
<circle cx="221.58" cy="128.18" r="1.6666666666666667" />
<circle cx="221.58" cy="128.18" r="1.6666666666666667" />
<circle cx="221.58" cy="128.18" r="1.6666666666666667" />
<circle cx="221.58" cy="128.18" r="1.6666666666666667" />
<circle cx="221.58" cy="128.18" r="1.6666666666666667" />
<circle cx="221.61" cy="509.73" r="1.6666666666666667" />
<circle cx="221.61" cy="497.27" r="1.6666666666666667" />
<circle cx="221.61" cy="504.21" r="1.6666666666666667" />
<circle cx="221.61" cy="507.85" r="1.6666666666666667" />
<circle cx="221.63" cy="509.65" r="1.6666666666666667" />
<circle cx="221.63" cy="482.73" r="1.6666666666666667" />
<circle cx="221.64" cy="382.73" r="1.6666666666666667" />
<circle cx="221.64" cy="128.18" r="1.6666666666666667" />
<circle cx="221.64" cy="462.27" r="1.6666666666666667" />
<circle cx="221.64" cy="508.92" r="1.6666666666666667" />
<circle cx="221.96" cy="509.98" r="1.6666666666666667" />
<circle cx="222.19" cy="509.97" r="1.6666666666666667" />
<circle cx="222.43" cy="509.97" r="1.6666666666666667" />
<circle cx="222.66" cy="509.97" r="1.6666666666666667" />
<circle cx="222.88" cy="509.97" r="1.6666666666666667" />
<circle cx="223.11" cy="509.97" r="1.6666666666666667" />
<circle cx="223.32" cy="509.96" r="1.6666666666666667" />
<circle cx="223.55" cy="509.97" r="1.6666666666666667" />
<circle cx="223.78" cy="509.97" r="1.6666666666666667" />
<circle cx="224.00" cy="509.97" r="1.6666666666666667" />
<circle cx="224.23" cy="509.97" r="1.6666666666666667" />
<circle cx="224.46" cy="509.97" r="1.6666666666666667" />
<circle cx="224.69" cy="509.97" r="1.6666666666666667" />
<circle cx="224.93" cy="509.97" r="1.6666666666666667" />
<circle cx="225.16" cy="509.97" r="1.6666666666666667" />
<circle cx="225.40" cy="509.97" r="1.6666666666666667" />
<circle cx="225.62" cy="509.97" r="1.6666666666666667" />
<circle cx="225.85" cy="509.97" r="1.6666666666666667" />
<circle cx="226.09" cy="509.97" r="1.6666666666666667" />
<circle cx="226.32" cy="509.97" r="1.6666666666666667" />
<circle cx="226.56" cy="509.97" r="1.6666666666666667" />
<circle cx="226.79" cy="509.97" r="1.6666666666666667" />
<circle cx="227.02" cy="509.97" r="1.6666666666666667" />
<circle cx="227.27" cy="509.97" r="1.6666666666666667" />
<circle cx="227.50" cy="509.97" r="1.6666666666666667" />
<circle cx="227.75" cy="509.97" r="1.6666666666666667" />
<circle cx="227.97" cy="509.97" r="1.6666666666666667" />
<circle cx="228.21" cy="509.97" r="1.6666666666666667" />
<circle cx="228.45" cy="509.97" r="1.6666666666666667" />
<circle cx="228.70" cy="509.97" r="1.6666666666666667" />
<circle cx="228.95" cy="509.97" r="1.6666666666666667" />
<circle cx="229.19" cy="509.97" r="1.6666666666666667" />
<circle cx="229.43" cy="509.97" r="1.6666666666666667" />
<circle cx="229.67" cy="509.97" r="1.6666666666666667" />
<circle cx="229.92" cy="509.97" r="1.6666666666666667" />
<circle cx="230.16" cy="509.97" r="1.6666666666666667" />
<circle cx="230.40" cy="509.97" r="1.6666666666666667" />
<circle cx="230.65" cy="509.97" r="1.6666666666666667" />
<circle cx="230.89" cy="509.97" r="1.6666666666666667" />
<circle cx="231.14" cy="509.97" r="1.6666666666666667" />
<circle cx="231.38" cy="509.97" r="1.6666666666666667" />
<circle cx="231.64" cy="509.97" r="1.6666666666666667" />
<circle cx="231.90" cy="509.97" r="1.6666666666666667" />
<circle cx="232.16" cy="509.97" r="1.6666666666666667" />
<circle cx="232.41" cy="509.97" r="1.6666666666666667" />
<circle cx="232.66" cy="509.97" r="1.6666666666666667" />
<circle cx="232.91" cy="509.97" r="1.6666666666666667" />
<circle cx="233.17" cy="509.97" r="1.6666666666666667" />
<circle cx="233.44" cy="509.97" r="1.6666666666666667" />
<circle cx="233.71" cy="509.97" r="1.6666666666666667" />
<circle cx="233.98" cy="509.97" r="1.6666666666666667" />
<circle cx="234.24" cy="509.97" r="1.6666666666666667" />
<circle cx="234.52" cy="509.97" r="1.6666666666666667" />
<circle cx="234.80" cy="509.97" r="1.6666666666666667" />
<circle cx="235.07" cy="509.97" r="1.6666666666666667" />
<circle cx="235.34" cy="509.97" r="1.6666666666666667" />
<circle cx="235.60" cy="509.97" r="1.6666666666666667" />
<circle cx="235.87" cy="509.97" r="1.6666666666666667" />
<circle cx="236.15" cy="509.97" r="1.6666666666666667" />
<circle cx="236.42" cy="509.97" r="1.6666666666666667" />
<circle cx="236.68" cy="509.97" r="1.6666666666666667" />
<circle cx="236.96" cy="509.97" r="1.6666666666666667" />
<circle cx="237.23" cy="509.97" r="1.6666666666666667" />
<circle cx="237.50" cy="509.97" r="1.6666666666666667" />
<circle cx="237.77" cy="509.97" r="1.6666666666666667" />
<circle cx="238.03" cy="509.97" r="1.6666666666666667" />
<circle cx="238.31" cy="509.97" r="1.6666666666666667" />
<circle cx="238.58" cy="509.97" r="1.6666666666666667" />
<circle cx="238.84" cy="509.97" r="1.6666666666666667" />
<circle cx="239.11" cy="509.97" r="1.6666666666666667" />
<circle cx="239.38" cy="509.97" r="1.6666666666666667" />
<circle cx="239.65" cy="509.97" r="1.6666666666666667" />
<circle cx="239.93" cy="509.97" r="1.6666666666666667" />
<circle cx="240.19" cy="509.97" r="1.6666666666666667" />
<circle cx="240.45" cy="509.97" r="1.6666666666666667" />
<circle cx="240.73" cy="509.97" r="1.6666666666666667" />
<circle cx="241.01" cy="509.97" r="1.6666666666666667" />
<circle cx="241.28" cy="509.97" r="1.6666666666666667" />
<circle cx="241.55" cy="509.97" r="1.6666666666666667" />
<circle cx="241.84" cy="509.97" r="1.6666666666666667" />
<circle cx="242.12" cy="509.97" r="1.6666666666666667" />
<circle cx="242.39" cy="509.97" r="1.6666666666666667" />
<circle cx="242.68" cy="509.97" r="1.6666666666666667" />
<circle cx="242.96" cy="509.97" r="1.6666666666666667" />
<circle cx="243.23" cy="509.97" r="1.6666666666666667" />
<circle cx="243.51" cy="509.97" r="1.6666666666666667" />
<circle cx="243.79" cy="509.97" r="1.6666666666666667" />
<circle cx="244.07" cy="509.97" r="1.6666666666666667" />
<circle cx="244.35" cy="509.97" r="1.6666666666666667" />
<circle cx="244.62" cy="509.97" r="1.6666666666666667" />
<circle cx="244.90" cy="509.97" r="1.6666666666666667" />
<circle cx="245.19" cy="509.97" r="1.6666666666666667" />
<circle cx="245.47" cy="509.97" r="1.6666666666666667" />
<circle cx="245.75" cy="509.97" r="1.6666666666666667" />
<circle cx="246.03" cy="509.97" r="1.6666666666666667" />
<circle cx="246.31" cy="509.97" r="1.6666666666666667" />
<circle cx="246.60" cy="509.97" r="1.6666666666666667" />
<circle cx="246.89" cy="509.97" r="1.6666666666666667" />
<circle cx="247.19" cy="509.97" r="1.6666666666666667" />
<circle cx="247.47" cy="509.97" r="1.6666666666666667" />
<circle cx="247.76" cy="509.97" r="1.6666666666666667" />
<circle cx="248.05" cy="509.97" r="1.6666666666666667" />
<circle cx="248.33" cy="509.97" r="1.6666666666666667" />
<circle cx="248.62" cy="509.97" r="1.6666666666666667" />
<circle cx="248.91" cy="509.97" r="1.6666666666666667" />
<circle cx="249.20" cy="509.97" r="1.6666666666666667" />
<circle cx="249.49" cy="509.97" r="1.6666666666666667" />
<circle cx="249.78" cy="509.97" r="1.6666666666666667" />
<circle cx="249.96" cy="509.96" r="1.6666666666666667" />
<circle cx="250.14" cy="509.96" r="1.6666666666666667" />
<circle cx="250.33" cy="509.96" r="1.6666666666666667" />
<circle cx="250.50" cy="509.95" r="1.6666666666666667" />
<circle cx="250.66" cy="509.95" r="1.6666666666666667" />
<circle cx="250.82" cy="509.95" r="1.6666666666666667" />
<circle cx="250.91" cy="509.91" r="1.6666666666666667" />
<circle cx="250.93" cy="509.49" r="1.6666666666666667" />
<circle cx="250.95" cy="509.67" r="1.6666666666666667" />
<circle cx="251.15" cy="509.96" r="1.6666666666666667" />
<circle cx="251.20" cy="509.86" r="1.6666666666666667" />
<circle cx="600.82" cy="509.95" r="1.6666666666666667" />
<circle cx="601.07" cy="509.97" r="1.6666666666666667" />
<circle cx="601.21" cy="509.94" r="1.6666666666666667" />
<circle cx="601.43" cy="509.97" r="1.6666666666666667" />
<circle cx="601.59" cy="509.95" r="1.6666666666666667" />
<circle cx="601.79" cy="509.96" r="1.6666666666666667" />
<circle cx="601.98" cy="509.96" r="1.6666666666666667" />
<circle cx="602.20" cy="509.97" r="1.6666666666666667" />
<circle cx="602.38" cy="509.96" r="1.6666666666666667" />
<circle cx="602.59" cy="509.96" r="1.6666666666666667" />
<circle cx="602.77" cy="509.96" r="1.6666666666666667" />
<circle cx="602.98" cy="509.96" r="1.6666666666666667" />
<circle cx="603.15" cy="509.96" r="1.6666666666666667" />
<circle cx="603.38" cy="509.97" r="1.6666666666666667" />
<circle cx="603.56" cy="509.96" r="1.6666666666666667" />
<circle cx="603.80" cy="509.97" r="1.6666666666666667" />
<circle cx="604.00" cy="509.96" r="1.6666666666666667" />
<circle cx="604.23" cy="509.97" r="1.6666666666666667" />
<circle cx="604.44" cy="509.96" r="1.6666666666666667" />
<circle cx="604.69" cy="509.97" r="1.6666666666666667" />
<circle cx="604.86" cy="509.96" r="1.6666666666666667" />
<circle cx="605.08" cy="509.97" r="1.6666666666666667" />
<circle cx="605.26" cy="509.96" r="1.6666666666666667" />
<circle cx="605.50" cy="509.97" r="1.6666666666666667" />
<circle cx="605.69" cy="509.96" r="1.6666666666666667" />
<circle cx="605.92" cy="509.97" r="1.6666666666666667" />
<circle cx="606.11" cy="509.96" r="1.6666666666666667" />
<circle cx="606.35" cy="509.97" r="1.6666666666666667" />
<circle cx="606.54" cy="509.96" r="1.6666666666666667" />
<circle cx="606.78" cy="509.97" r="1.6666666666666667" />
<circle cx="606.97" cy="509.96" r="1.6666666666666667" />
<circle cx="607.21" cy="509.97" r="1.6666666666666667" />
<circle cx="607.41" cy="509.96" r="1.6666666666666667" />
<circle cx="607.66" cy="509.97" r="1.6666666666666667" />
<circle cx="607.87" cy="509.96" r="1.6666666666666667" />
<circle cx="608.13" cy="509.97" r="1.6666666666666667" />
<circle cx="608.37" cy="509.97" r="1.6666666666666667" />
<circle cx="608.63" cy="509.97" r="1.6666666666666667" />
<circle cx="608.85" cy="509.96" r="1.6666666666666667" />
<circle cx="609.09" cy="509.97" r="1.6666666666666667" />
<circle cx="609.31" cy="509.97" r="1.6666666666666667" />
<circle cx="609.57" cy="509.97" r="1.6666666666666667" />
<circle cx="609.82" cy="509.97" r="1.6666666666666667" />
<circle cx="610.06" cy="509.97" r="1.6666666666666667" />
<circle cx="611.00" cy="509.99" r="1.6666666666666667" />
<circle cx="611.22" cy="509.97" r="1.6666666666666667" />
<circle cx="611.56" cy="509.98" r="1.6666666666666667" />
<circle cx="611.80" cy="509.97" r="1.6666666666666667" />
<circle cx="612.10" cy="509.98" r="1.6666666666666667" />
<circle cx="612.33" cy="509.97" r="1.6666666666666667" />
<circle cx="612.63" cy="509.97" r="1.6666666666666667" />
<circle cx="612.88" cy="509.97" r="1.6666666666666667" />
<circle cx="613.17" cy="509.97" r="1.6666666666666667" />
<circle cx="613.42" cy="509.97" r="1.6666666666666667" />
<circle cx="613.70" cy="509.97" r="1.6666666666666667" />
<circle cx="613.96" cy="509.97" r="1.6666666666666667" />
<circle cx="614.25" cy="509.97" r="1.6666666666666667" />
<circle cx="614.48" cy="509.97" r="1.6666666666666667" />
<circle cx="614.81" cy="509.98" r="1.6666666666666667" />
<circle cx="615.05" cy="509.97" r="1.6666666666666667" />
<circle cx="615.36" cy="509.97" r="1.6666666666666667" />
<circle cx="615.62" cy="509.97" r="1.6666666666666667" />
<circle cx="615.92" cy="509.98" r="1.6666666666666667" />
<circle cx="616.16" cy="509.97" r="1.6666666666666667" />
<circle cx="616.44" cy="509.97" r="1.6666666666666667" />
<circle cx="616.68" cy="509.97" r="1.6666666666666667" />
<circle cx="616.96" cy="509.97" r="1.6666666666666667" />
<circle cx="617.22" cy="509.97" r="1.6666666666666667" />
<circle cx="617.52" cy="509.97" r="1.6666666666666667" />
<circle cx="617.77" cy="509.97" r="1.6666666666666667" />
<circle cx="618.10" cy="509.98" r="1.6666666666666667" />
<circle cx="618.35" cy="509.97" r="1.6666666666666667" />
<circle cx="618.68" cy="509.98" r="1.6666666666666667" />
<circle cx="618.96" cy="509.97" r="1.6666666666666667" />
<circle cx="619.26" cy="509.97" r="1.6666666666666667" />
<circle cx="619.54" cy="509.97" r="1.6666666666666667" />
<circle cx="619.85" cy="509.97" r="1.6666666666666667" />
<circle cx="620.13" cy="509.97" r="1.6666666666666667" />
<circle cx="620.43" cy="509.97" r="1.6666666666666667" />
<circle cx="620.75" cy="509.98" r="1.6666666666666667" />
<circle cx="621.04" cy="509.97" r="1.6666666666666667" />
<circle cx="621.34" cy="509.97" r="1.6666666666666667" />
<circle cx="621.63" cy="509.97" r="1.6666666666666667" />
<circle cx="621.93" cy="509.98" r="1.6666666666666667" />
<circle cx="622.21" cy="509.97" r="1.6666666666666667" />
<circle cx="622.49" cy="509.97" r="1.6666666666666667" />
<circle cx="622.81" cy="509.98" r="1.6666666666666667" />
<circle cx="623.10" cy="509.97" r="1.6666666666666667" />
<circle cx="623.40" cy="509.98" r="1.6666666666666667" />
<circle cx="623.69" cy="509.97" r="1.6666666666666667" />
<circle cx="624.03" cy="509.98" r="1.6666666666666667" />
<circle cx="624.31" cy="509.97" r="1.6666666666666667" />
<circle cx="624.64" cy="509.98" r="1.6666666666666667" />
<circle cx="624.89" cy="509.97" r="1.6666666666666667" />
<circle cx="625.23" cy="509.98" r="1.6666666666666667" />
<circle cx="625.50" cy="509.97" r="1.6666666666666667" />
<circle cx="625.81" cy="509.98" r="1.6666666666666667" />
<circle cx="626.06" cy="509.97" r="1.6666666666666667" />
<circle cx="626.36" cy="509.97" r="1.6666666666666667" />
<circle cx="626.64" cy="509.97" r="1.6666666666666667" />
<circle cx="626.96" cy="509.98" r="1.6666666666666667" />
<circle cx="627.25" cy="509.97" r="1.6666666666666667" />
<circle cx="627.57" cy="509.98" r="1.6666666666666667" />
<circle cx="627.82" cy="509.97" r="1.6666666666666667" />
<circle cx="628.15" cy="509.98" r="1.6666666666666667" />
<circle cx="628.39" cy="509.97" r="1.6666666666666667" />
<circle cx="628.71" cy="509.98" r="1.6666666666666667" />
<circle cx="628.97" cy="509.97" r="1.6666666666666667" />
<circle cx="629.31" cy="509.98" r="1.6666666666666667" />
<circle cx="629.58" cy="509.97" r="1.6666666666666667" />
<circle cx="629.87" cy="509.97" r="1.6666666666666667" />
<circle cx="630.13" cy="509.97" r="1.6666666666666667" />
<circle cx="630.43" cy="509.97" r="1.6666666666666667" />
<circle cx="630.72" cy="509.97" r="1.6666666666666667" />
<circle cx="631.00" cy="509.97" r="1.6666666666666667" />
<circle cx="631.26" cy="509.97" r="1.6666666666666667" />
<circle cx="631.56" cy="509.97" r="1.6666666666666667" />
<circle cx="631.82" cy="509.97" r="1.6666666666666667" />
<circle cx="632.11" cy="509.97" r="1.6666666666666667" />
<circle cx="632.39" cy="509.97" r="1.6666666666666667" />
<circle cx="632.71" cy="509.98" r="1.6666666666666667" />
<circle cx="632.97" cy="509.97" r="1.6666666666666667" />
<circle cx="633.24" cy="509.97" r="1.6666666666666667" />
<circle cx="633.50" cy="509.97" r="1.6666666666666667" />
<circle cx="633.80" cy="509.98" r="1.6666666666666667" />
<circle cx="634.06" cy="509.97" r="1.6666666666666667" />
<circle cx="634.36" cy="509.97" r="1.6666666666666667" />
<circle cx="634.60" cy="509.97" r="1.6666666666666667" />
<circle cx="634.89" cy="509.97" r="1.6666666666666667" />
<circle cx="635.11" cy="509.97" r="1.6666666666666667" />
<circle cx="635.40" cy="509.97" r="1.6666666666666667" />
<circle cx="635.63" cy="509.97" r="1.6666666666666667" />
<circle cx="635.95" cy="509.98" r="1.6666666666666667" />
<circle cx="636.20" cy="509.97" r="1.6666666666666667" />
<circle cx="636.51" cy="509.98" r="1.6666666666666667" />
<circle cx="636.77" cy="509.97" r="1.6666666666666667" />
<circle cx="637.07" cy="509.97" r="1.6666666666666667" />
<circle cx="637.31" cy="509.97" r="1.6666666666666667" />
<circle cx="637.61" cy="509.97" r="1.6666666666666667" />
<circle cx="638.09" cy="509.98" r="1.6666666666666667" />
<circle cx="638.34" cy="509.97" r="1.6666666666666667" />
<circle cx="638.65" cy="509.98" r="1.6666666666666667" />
<circle cx="638.93" cy="509.97" r="1.6666666666666667" />
<circle cx="639.24" cy="509.98" r="1.6666666666666667" />
<circle cx="639.52" cy="509.97" r="1.6666666666666667" />
<circle cx="639.83" cy="509.98" r="1.6666666666666667" />
<circle cx="640.10" cy="509.97" r="1.6666666666666667" />
<circle cx="640.43" cy="509.98" r="1.6666666666666667" />
<circle cx="640.68" cy="509.97" r="1.6666666666666667" />
<circle cx="641.01" cy="509.98" r="1.6666666666666667" />
<circle cx="641.26" cy="509.97" r="1.6666666666666667" />
<circle cx="641.58" cy="509.98" r="1.6666666666666667" />
<circle cx="641.86" cy="509.97" r="1.6666666666666667" />
<circle cx="642.17" cy="509.98" r="1.6666666666666667" />
<circle cx="642.45" cy="509.97" r="1.6666666666666667" />
<circle cx="642.77" cy="509.98" r="1.6666666666666667" />
<circle cx="643.03" cy="509.97" r="1.6666666666666667" />
<circle cx="643.33" cy="509.98" r="1.6666666666666667" />
<circle cx="643.59" cy="509.97" r="1.6666666666666667" />
<circle cx="643.89" cy="509.97" r="1.6666666666666667" />
<circle cx="644.15" cy="509.97" r="1.6666666666666667" />
<circle cx="644.47" cy="509.98" r="1.6666666666666667" />
<circle cx="644.72" cy="509.97" r="1.6666666666666667" />
<circle cx="645.02" cy="509.97" r="1.6666666666666667" />
<circle cx="645.29" cy="509.97" r="1.6666666666666667" />
<circle cx="645.57" cy="509.97" r="1.6666666666666667" />
<circle cx="645.85" cy="509.97" r="1.6666666666666667" />
<circle cx="646.17" cy="509.98" r="1.6666666666666667" />
<circle cx="646.43" cy="509.97" r="1.6666666666666667" />
<circle cx="646.73" cy="509.97" r="1.6666666666666667" />
<circle cx="647.00" cy="509.97" r="1.6666666666666667" />
<circle cx="647.32" cy="509.98" r="1.6666666666666667" />
<circle cx="647.57" cy="509.97" r="1.6666666666666667" />
<circle cx="647.90" cy="509.98" r="1.6666666666666667" />
<circle cx="648.17" cy="509.97" r="1.6666666666666667" />
<circle cx="648.50" cy="509.98" r="1.6666666666666667" />
<circle cx="648.76" cy="509.97" r="1.6666666666666667" />
<circle cx="649.06" cy="509.97" r="1.6666666666666667" />
<circle cx="649.30" cy="509.97" r="1.6666666666666667" />
<circle cx="649.63" cy="509.98" r="1.6666666666666667" />
<circle cx="649.92" cy="509.97" r="1.6666666666666667" />
<circle cx="650.25" cy="509.98" r="1.6666666666666667" />
<circle cx="650.53" cy="509.97" r="1.6666666666666667" />
<circle cx="650.85" cy="509.98" r="1.6666666666666667" />
<circle cx="651.12" cy="509.97" r="1.6666666666666667" />
<circle cx="651.45" cy="509.98" r="1.6666666666666667" />
<circle cx="651.74" cy="509.97" r="1.6666666666666667" />
<circle cx="652.06" cy="509.98" r="1.6666666666666667" />
<circle cx="652.31" cy="509.97" r="1.6666666666666667" />
<circle cx="652.66" cy="509.98" r="1.6666666666666667" />
<circle cx="652.94" cy="509.97" r="1.6666666666666667" />
<circle cx="653.27" cy="509.98" r="1.6666666666666667" />
<circle cx="653.53" cy="509.97" r="1.6666666666666667" />
<circle cx="653.86" cy="509.98" r="1.6666666666666667" />
<circle cx="654.13" cy="509.97" r="1.6666666666666667" />
<circle cx="654.44" cy="509.98" r="1.6666666666666667" />
<circle cx="654.73" cy="509.97" r="1.6666666666666667" />
<circle cx="655.05" cy="509.98" r="1.6666666666666667" />
<circle cx="655.34" cy="509.97" r="1.6666666666666667" />
<circle cx="655.61" cy="509.97" r="1.6666666666666667" />
<circle cx="655.85" cy="509.97" r="1.6666666666666667" />
<circle cx="656.18" cy="509.98" r="1.6666666666666667" />
<circle cx="656.44" cy="509.97" r="1.6666666666666667" />
<circle cx="656.77" cy="509.98" r="1.6666666666666667" />
<circle cx="657.03" cy="509.97" r="1.6666666666666667" />
<circle cx="657.38" cy="509.98" r="1.6666666666666667" />
<circle cx="657.64" cy="509.97" r="1.6666666666666667" />
<circle cx="657.97" cy="509.98" r="1.6666666666666667" />
<circle cx="658.24" cy="509.97" r="1.6666666666666667" />
<circle cx="658.56" cy="509.98" r="1.6666666666666667" />
<circle cx="658.82" cy="509.97" r="1.6666666666666667" />
<circle cx="659.13" cy="509.98" r="1.6666666666666667" />
<circle cx="659.42" cy="509.97" r="1.6666666666666667" />
<circle cx="659.77" cy="509.98" r="1.6666666666666667" />
<circle cx="660.95" cy="509.99" r="1.6666666666666667" />
<circle cx="661.20" cy="509.97" r="1.6666666666666667" />
<circle cx="661.54" cy="509.98" r="1.6666666666666667" />
<circle cx="661.83" cy="509.97" r="1.6666666666666667" />
<circle cx="662.16" cy="509.98" r="1.6666666666666667" />
<circle cx="662.43" cy="509.97" r="1.6666666666666667" />
<circle cx="662.77" cy="509.98" r="1.6666666666666667" />
<circle cx="663.06" cy="509.97" r="1.6666666666666667" />
<circle cx="663.40" cy="509.98" r="1.6666666666666667" />
<circle cx="663.67" cy="509.97" r="1.6666666666666667" />
<circle cx="664.00" cy="509.98" r="1.6666666666666667" />
<circle cx="664.26" cy="509.97" r="1.6666666666666667" />
<circle cx="664.59" cy="509.98" r="1.6666666666666667" />
<circle cx="664.84" cy="509.97" r="1.6666666666666667" />
<circle cx="665.16" cy="509.98" r="1.6666666666666667" />
<circle cx="665.44" cy="509.97" r="1.6666666666666667" />
<circle cx="665.77" cy="509.98" r="1.6666666666666667" />
<circle cx="666.06" cy="509.97" r="1.6666666666666667" />
<circle cx="666.40" cy="509.98" r="1.6666666666666667" />
<circle cx="666.70" cy="509.97" r="1.6666666666666667" />
<circle cx="667.03" cy="509.98" r="1.6666666666666667" />
<circle cx="667.32" cy="509.97" r="1.6666666666666667" />
<circle cx="667.65" cy="509.98" r="1.6666666666666667" />
<circle cx="667.92" cy="509.97" r="1.6666666666666667" />
<circle cx="668.27" cy="509.98" r="1.6666666666666667" />
<circle cx="668.55" cy="509.97" r="1.6666666666666667" />
<circle cx="668.89" cy="509.98" r="1.6666666666666667" />
<circle cx="669.16" cy="509.97" r="1.6666666666666667" />
<circle cx="669.50" cy="509.98" r="1.6666666666666667" />
<circle cx="669.80" cy="509.97" r="1.6666666666666667" />
<circle cx="670.15" cy="509.98" r="1.6666666666666667" />
<circle cx="670.43" cy="509.97" r="1.6666666666666667" />
<circle cx="670.75" cy="509.98" r="1.6666666666666667" />
<circle cx="671.00" cy="509.97" r="1.6666666666666667" />
<circle cx="671.32" cy="509.98" r="1.6666666666666667" />
<circle cx="671.62" cy="509.98" r="1.6666666666666667" />
<circle cx="671.99" cy="509.98" r="1.6666666666666667" />
<circle cx="672.24" cy="509.97" r="1.6666666666666667" />
<circle cx="672.57" cy="509.98" r="1.6666666666666667" />
<circle cx="672.81" cy="509.97" r="1.6666666666666667" />
<circle cx="673.16" cy="509.98" r="1.6666666666666667" />
<circle cx="673.46" cy="509.97" r="1.6666666666666667" />
<circle cx="673.82" cy="509.98" r="1.6666666666666667" />
<circle cx="674.08" cy="509.97" r="1.6666666666666667" />
<circle cx="674.41" cy="509.98" r="1.6666666666666667" />
<circle cx="674.68" cy="509.97" r="1.6666666666666667" />
<circle cx="675.02" cy="509.98" r="1.6666666666666667" />
<circle cx="675.28" cy="509.97" r="1.6666666666666667" />
<circle cx="675.60" cy="509.98" r="1.6666666666666667" />
<circle cx="675.86" cy="509.97" r="1.6666666666666667" />
<circle cx="676.19" cy="509.98" r="1.6666666666666667" />
<circle cx="676.47" cy="509.97" r="1.6666666666666667" />
<circle cx="676.81" cy="509.98" r="1.6666666666666667" />
<circle cx="677.08" cy="509.97" r="1.6666666666666667" />
<circle cx="677.42" cy="509.98" r="1.6666666666666667" />
<circle cx="677.70" cy="509.97" r="1.6666666666666667" />
<circle cx="678.03" cy="509.98" r="1.6666666666666667" />
<circle cx="678.28" cy="509.97" r="1.6666666666666667" />
<circle cx="678.58" cy="509.97" r="1.6666666666666667" />
<circle cx="678.83" cy="509.97" r="1.6666666666666667" />
<circle cx="679.12" cy="509.97" r="1.6666666666666667" />
<circle cx="679.35" cy="509.97" r="1.6666666666666667" />
<circle cx="679.62" cy="509.97" r="1.6666666666666667" />
<circle cx="679.87" cy="509.97" r="1.6666666666666667" />
<circle cx="680.15" cy="509.97" r="1.6666666666666667" />
<circle cx="680.35" cy="509.96" r="1.6666666666666667" />
<circle cx="680.60" cy="509.97" r="1.6666666666666667" />
<circle cx="680.80" cy="509.96" r="1.6666666666666667" />
<circle cx="681.05" cy="509.97" r="1.6666666666666667" />
<circle cx="681.25" cy="509.96" r="1.6666666666666667" />
<circle cx="681.51" cy="509.97" r="1.6666666666666667" />
<circle cx="681.72" cy="509.96" r="1.6666666666666667" />
<circle cx="681.97" cy="509.97" r="1.6666666666666667" />
<circle cx="682.17" cy="509.96" r="1.6666666666666667" />
<circle cx="682.40" cy="509.97" r="1.6666666666666667" />
<circle cx="682.59" cy="509.96" r="1.6666666666666667" />
<circle cx="682.82" cy="509.97" r="1.6666666666666667" />
<circle cx="683.03" cy="509.96" r="1.6666666666666667" />
<circle cx="683.28" cy="509.97" r="1.6666666666666667" />
<circle cx="683.49" cy="509.96" r="1.6666666666666667" />
<circle cx="683.75" cy="509.97" r="1.6666666666666667" />
<circle cx="683.94" cy="509.96" r="1.6666666666666667" />
<circle cx="684.19" cy="509.97" r="1.6666666666666667" />
<circle cx="684.39" cy="509.96" r="1.6666666666666667" />
<circle cx="684.64" cy="509.97" r="1.6666666666666667" />
<circle cx="684.84" cy="509.96" r="1.6666666666666667" />
<circle cx="685.08" cy="509.97" r="1.6666666666666667" />
<circle cx="685.28" cy="509.96" r="1.6666666666666667" />
<circle cx="685.52" cy="509.97" r="1.6666666666666667" />
<circle cx="685.72" cy="509.96" r="1.6666666666666667" />
<circle cx="685.97" cy="509.97" r="1.6666666666666667" />
<circle cx="686.17" cy="509.96" r="1.6666666666666667" />
<circle cx="686.42" cy="509.97" r="1.6666666666666667" />
<circle cx="686.64" cy="509.96" r="1.6666666666666667" />
<circle cx="686.89" cy="509.97" r="1.6666666666666667" />
<circle cx="687.09" cy="509.96" r="1.6666666666666667" />
<circle cx="687.35" cy="509.97" r="1.6666666666666667" />
<circle cx="687.55" cy="509.96" r="1.6666666666666667" />
<circle cx="687.82" cy="509.97" r="1.6666666666666667" />
<circle cx="688.04" cy="509.96" r="1.6666666666666667" />
<circle cx="688.28" cy="509.97" r="1.6666666666666667" />
<circle cx="688.50" cy="509.97" r="1.6666666666666667" />
<circle cx="688.76" cy="509.97" r="1.6666666666666667" />
<circle cx="688.97" cy="509.96" r="1.6666666666666667" />
<circle cx="689.25" cy="509.97" r="1.6666666666666667" />
<circle cx="689.46" cy="509.96" r="1.6666666666666667" />
<circle cx="689.74" cy="509.97" r="1.6666666666666667" />
<circle cx="689.95" cy="509.96" r="1.6666666666666667" />
<circle cx="690.22" cy="509.97" r="1.6666666666666667" />
<circle cx="690.46" cy="509.97" r="1.6666666666666667" />
<circle cx="690.72" cy="509.97" r="1.6666666666666667" />
<circle cx="746.48" cy="509.98" r="1.6666666666666667" />
<circle cx="746.98" cy="509.98" r="1.6666666666666667" />
<circle cx="747.35" cy="509.98" r="1.6666666666666667" />
<circle cx="747.84" cy="509.98" r="1.6666666666666667" />
<circle cx="748.25" cy="509.98" r="1.6666666666666667" />
<circle cx="748.77" cy="509.99" r="1.6666666666666667" />
<circle cx="749.15" cy="509.98" r="1.6666666666666667" />
<circle cx="749.65" cy="509.98" r="1.6666666666666667" />
<circle cx="750.02" cy="509.98" r="1.6666666666666667" />
<circle cx="750.48" cy="509.98" r="1.6666666666666667" />
<circle cx="750.89" cy="509.98" r="1.6666666666666667" />
<circle cx="751.36" cy="509.98" r="1.6666666666666667" />
<circle cx="751.76" cy="509.98" r="1.6666666666666667" />
<circle cx="752.20" cy="509.98" r="1.6666666666666667" />
<circle cx="752.60" cy="509.98" r="1.6666666666666667" />
<circle cx="753.06" cy="509.98" r="1.6666666666666667" />
<circle cx="753.51" cy="509.98" r="1.6666666666666667" />
<circle cx="753.97" cy="509.98" r="1.6666666666666667" />
<circle cx="754.33" cy="509.98" r="1.6666666666666667" />
<circle cx="754.80" cy="509.98" r="1.6666666666666667" />
<circle cx="755.21" cy="509.98" r="1.6666666666666667" />
<circle cx="755.77" cy="509.99" r="1.6666666666666667" />
<circle cx="756.18" cy="509.98" r="1.6666666666666667" />
<circle cx="756.69" cy="509.99" r="1.6666666666666667" />
<circle cx="757.10" cy="509.98" r="1.6666666666666667" />
<circle cx="757.62" cy="509.99" r="1.6666666666666667" />
<circle cx="758.07" cy="509.98" r="1.6666666666666667" />
<circle cx="758.60" cy="509.99" r="1.6666666666666667" />
<circle cx="759.10" cy="509.98" r="1.6666666666666667" />
<circle cx="759.63" cy="509.99" r="1.6666666666666667" />
<circle cx="759.99" cy="509.98" r="1.6666666666666667" />
<circle cx="760.52" cy="509.99" r="1.6666666666666667" />
<circle cx="760.97" cy="509.98" r="1.6666666666666667" />
<circle cx="761.48" cy="509.99" r="1.6666666666666667" />
<circle cx="761.89" cy="509.98" r="1.6666666666666667" />
<circle cx="762.40" cy="509.99" r="1.6666666666666667" />
<circle cx="762.79" cy="509.98" r="1.6666666666666667" />
<circle cx="763.29" cy="509.98" r="1.6666666666666667" />
<circle cx="763.71" cy="509.98" r="1.6666666666666667" />
<circle cx="764.20" cy="509.98" r="1.6666666666666667" />
<circle cx="764.67" cy="509.98" r="1.6666666666666667" />
<circle cx="765.16" cy="509.98" r="1.6666666666666667" />
<circle cx="765.64" cy="509.98" r="1.6666666666666667" />
<circle cx="766.13" cy="509.98" r="1.6666666666666667" />
<circle cx="767.05" cy="509.99" r="1.6666666666666667" />
<circle cx="767.50" cy="509.98" r="1.6666666666666667" />
<circle cx="768.02" cy="509.99" r="1.6666666666666667" />
<circle cx="768.44" cy="509.98" r="1.6666666666666667" />
<circle cx="768.91" cy="509.98" r="1.6666666666666667" />
<circle cx="769.34" cy="509.98" r="1.6666666666666667" />
<circle cx="769.89" cy="509.99" r="1.6666666666666667" />
<circle cx="770.32" cy="509.98" r="1.6666666666666667" />
<circle cx="770.85" cy="509.99" r="1.6666666666666667" />
<circle cx="771.28" cy="509.98" r="1.6666666666666667" />
<circle cx="771.82" cy="509.99" r="1.6666666666666667" />
<circle cx="772.25" cy="509.98" r="1.6666666666666667" />
<circle cx="772.75" cy="509.98" r="1.6666666666666667" />
<circle cx="773.22" cy="509.98" r="1.6666666666666667" />
<circle cx="773.67" cy="509.98" r="1.6666666666666667" />
<circle cx="774.11" cy="509.98" r="1.6666666666666667" />
<circle cx="774.64" cy="509.99" r="1.6666666666666667" />
<circle cx="775.02" cy="509.98" r="1.6666666666666667" />
<circle cx="775.49" cy="509.98" r="1.6666666666666667" />
<circle cx="775.92" cy="509.98" r="1.6666666666666667" />
<circle cx="776.42" cy="509.98" r="1.6666666666666667" />
<circle cx="776.84" cy="509.98" r="1.6666666666666667" />
<circle cx="777.27" cy="509.98" r="1.6666666666666667" />
<circle cx="777.69" cy="509.98" r="1.6666666666666667" />
<circle cx="778.21" cy="509.99" r="1.6666666666666667" />
<circle cx="778.63" cy="509.98" r="1.6666666666666667" />
<circle cx="779.09" cy="509.98" r="1.6666666666666667" />
<circle cx="779.48" cy="509.98" r="1.6666666666666667" />
<circle cx="779.95" cy="509.98" r="1.6666666666666667" />
<circle cx="780.37" cy="509.98" r="1.6666666666666667" />
<circle cx="780.85" cy="509.98" r="1.6666666666666667" />
<circle cx="781.29" cy="509.98" r="1.6666666666666667" />
<circle cx="781.81" cy="509.99" r="1.6666666666666667" />
<circle cx="782.22" cy="509.98" r="1.6666666666666667" />
<circle cx="782.71" cy="509.98" r="1.6666666666666667" />
<circle cx="783.21" cy="509.98" r="1.6666666666666667" />
<circle cx="783.68" cy="509.98" r="1.6666666666666667" />
<circle cx="784.17" cy="509.98" r="1.6666666666666667" />
<circle cx="784.66" cy="509.98" r="1.6666666666666667" />
<circle cx="785.11" cy="509.98" r="1.6666666666666667" />
<circle cx="785.61" cy="509.98" r="1.6666666666666667" />
<circle cx="786.06" cy="509.98" r="1.6666666666666667" />
<circle cx="786.56" cy="509.99" r="1.6666666666666667" />
<circle cx="786.98" cy="509.98" r="1.6666666666666667" />
<circle cx="787.48" cy="509.98" r="1.6666666666666667" />
<circle cx="787.91" cy="509.98" r="1.6666666666666667" />
<circle cx="788.36" cy="509.98" r="1.6666666666666667" />
<circle cx="788.76" cy="509.98" r="1.6666666666666667" />
<circle cx="789.27" cy="509.99" r="1.6666666666666667" />
<circle cx="789.63" cy="509.98" r="1.6666666666666667" />
<circle cx="790.12" cy="509.98" r="1.6666666666666667" />
<circle cx="790.51" cy="509.98" r="1.6666666666666667" />
<circle cx="791.02" cy="509.99" r="1.6666666666666667" />
<circle cx="791.45" cy="509.98" r="1.6666666666666667" />
<circle cx="792.00" cy="509.99" r="1.6666666666666667" />
<circle cx="792.41" cy="509.98" r="1.6666666666666667" />
<circle cx="792.87" cy="509.98" r="1.6666666666666667" />
<circle cx="793.26" cy="509.98" r="1.6666666666666667" />
<circle cx="793.73" cy="509.98" r="1.6666666666666667" />
<circle cx="794.13" cy="509.98" r="1.6666666666666667" />
<circle cx="794.64" cy="509.99" r="1.6666666666666667" />
<circle cx="795.04" cy="509.98" r="1.6666666666666667" />
</g>
<g stroke="black">
<line x1="813.75" x2="813.75" y1="510.00" y2="520.00" />
<line x1="760.60" x2="760.60" y1="510.00" y2="520.00" />
<line x1="707.45" x2="707.45" y1="510.00" y2="520.00" />
<line x1="656.01" x2="656.01" y1="510.00" y2="520.00" />
<line x1="602.86" x2="602.86" y1="510.00" y2="520.00" />
<line x1="551.42" x2="551.42" y1="510.00" y2="520.00" />
<line x1="498.27" x2="498.27" y1="510.00" y2="520.00" />
<line x1="445.11" x2="445.11" y1="510.00" y2="520.00" />
<line x1="393.68" x2="393.68" y1="510.00" y2="520.00" />
<line x1="340.52" x2="340.52" y1="510.00" y2="520.00" />
<line x1="289.09" x2="289.09" y1="510.00" y2="520.00" />
<line x1="235.93" x2="235.93" y1="510.00" y2="520.00" />
<line x1="187.92" x2="187.92" y1="510.00" y2="520.00" />
<g fill="black" font-family="Arial, sans-serif" font-size="18.0" stroke="none" text-anchor="start" transform="translate(9.0 0.0)">
<text x="813.75" y="530.57">Feb</text>
<text x="760.60" y="530.57">Jan</text>
<text x="707.45" y="530.57">Dec</text>
<text x="656.01" y="530.57">Nov</text>
<text x="602.86" y="530.57">Oct</text>
<text x="551.42" y="530.57">Sep</text>
<text x="498.27" y="530.57">Aug</text>
<text x="445.11" y="530.57">Jul</text>
<text x="393.68" y="530.57">Jun</text>
<text x="340.52" y="530.57">May</text>
<text x="289.09" y="530.57">Apr</text>
<text x="235.93" y="530.57">Mar</text>
<text x="187.92" y="530.57">Feb</text>
</g>
<line x1="150.00" x2="850.00" y1="510.00" y2="510.00" />
</g>
<g stroke="black">
<line x1="150.00" x2="140.00" y1="510.00" y2="510.00" />
<line x1="150.00" x2="140.00" y1="465.81" y2="465.81" />
<line x1="150.00" x2="140.00" y1="421.62" y2="421.62" />
<line x1="150.00" x2="140.00" y1="377.42" y2="377.42" />
<line x1="150.00" x2="140.00" y1="333.23" y2="333.23" />
<line x1="150.00" x2="140.00" y1="289.04" y2="289.04" />
<line x1="150.00" x2="140.00" y1="244.85" y2="244.85" />
<line x1="150.00" x2="140.00" y1="200.66" y2="200.66" />
<line x1="150.00" x2="140.00" y1="156.46" y2="156.46" />
<line x1="150.00" x2="140.00" y1="112.27" y2="112.27" />
<g fill="black" font-family="Arial, sans-serif" font-size="18.0" stroke="none" text-anchor="end">
<text x="141.00" y="501.00">0</text>
<text x="141.00" y="456.81">10000</text>
<text x="141.00" y="412.62">20000</text>
<text x="141.00" y="368.42">30000</text>
<text x="141.00" y="324.23">40000</text>
<text x="141.00" y="280.04">50000</text>
<text x="141.00" y="235.85">60000</text>
<text x="141.00" y="191.66">70000</text>
<text x="141.00" y="147.46">80000</text>
<text x="141.00" y="103.27">90000</text>
</g>
<line x1="150.00" x2="150.00" y1="510.00" y2="90.00" />
</g>
</g>
</svg>