<?xml version="1.0"?>
<svg version="1.1" viewBox="0 0 1000 600" xmlns:xlink="http://www.w3.org/1999/xlink" xmlns="http://www.w3.org/2000/svg">
<g>
<g>
<g>
<text dominant-baseline="hanging" dx="-18.0" dy="18.0" fill="#0088" font-family="Arial, sans-serif" font-size="18.0" font-style="italic" stroke="none" text-anchor="end" text-orientation="sideways" x="950.00" y="30.00">d18O</text>
</g>
<g>
<g>
<text dominant-baseline="central" fill="#8008" font-size="26.666666666666668" stroke="none" text-anchor="middle" tooltip="Date: 2023-09-29
Comment: Note:
- Wasn&apos;t monitored before
- New gauge installed (with legs)
- A bit tricky b/c at the edge
- Not enough tubing to connect water collector
- `:R19` connected" x="529.72" y="189.91">I</text>
<title>Date: 2023-09-29
Comment: Note:
- Wasn't monitored before
- New gauge installed (with legs)
- A bit tricky b/c at the edge
- Not enough tubing to connect water collector
- `:R19` connected</title>
</g>
<g>
<text dominant-baseline="central" fill="#8008" font-size="26.666666666666668" stroke="none" text-anchor="middle" tooltip="Date: 2023-10-21
Comment: Note:
- no bottle attached
- notes say `:R15`, but unclear how it could have been already attached" x="569.94" y="189.91">I</text>
<title>Date: 2023-10-21
Comment: Note:
- no bottle attached
- notes say `:R15`, but unclear how it could have been already attached</title>
</g>
<g>
<text dominant-baseline="central" fill="#8008" font-size="26.666666666666668" stroke="none" text-anchor="middle" tooltip="Date: 2023-11-03
Comment: Nong: `Just installed the bottle`" x="593.71" y="189.91">I</text>
<title>Date: 2023-11-03
Comment: Nong: `Just installed the bottle`</title>
</g>
<g>
<text dominant-baseline="central" fill="#8008" font-size="26.666666666666668" stroke="none" text-anchor="middle" tooltip="Date: 2023-11-21
Comment: Nong: `Just installed the bottle` - little water" x="626.62" y="189.91">I</text>
<title>Date: 2023-11-21
Comment: Nong: `Just installed the bottle` - little water</title>
</g>
<g>
<text dominant-baseline="central" fill="#8008" font-size="26.666666666666668" stroke="none" text-anchor="middle" tooltip="Date: 2023-12-12
Comment: " x="665.01" y="189.91">I</text>
<title>Date: 2023-12-12
Comment: </title>
</g>
<g>
<text dominant-baseline="central" fill="#8008" font-size="26.666666666666668" stroke="none" text-anchor="middle" tooltip="Date: 2023-12-23
Comment: " x="685.12" y="189.91">I</text>
<title>Date: 2023-12-23
Comment: </title>
</g>
<g>
<text dominant-baseline="central" fill="#8008" font-size="26.666666666666668" stroke="none" text-anchor="middle" tooltip="Date: 2024-01-04
Comment: " x="707.05" y="189.91">I</text>
<title>Date: 2024-01-04
Comment: </title>
</g>
<g>
<text dominant-baseline="central" fill="#8008" font-size="26.666666666666668" stroke="none" text-anchor="middle" tooltip="Date: 2024-01-21
Comment: " x="738.13" y="189.91">I</text>
<title>Date: 2024-01-21
Comment: </title>
</g>
<g>
<text dominant-baseline="central" fill="#8008" font-size="26.666666666666668" stroke="none" text-anchor="middle" tooltip="Date: 2024-02-06
Comment: TODO: Logger not changed! Still `:R15` Ask Nong" x="767.38" y="189.91">I</text>
<title>Date: 2024-02-06
Comment: TODO: Logger not changed! Still `:R15` Ask Nong</title>
</g>
<g>
<text dominant-baseline="central" fill="#8008" font-size="26.666666666666668" stroke="none" text-anchor="middle" tooltip="Date: 2024-02-22
Comment: " x="796.63" y="189.91">I</text>
<title>Date: 2024-02-22
Comment: </title>
</g>
<g>
<text dominant-baseline="central" fill="#8008" font-size="26.666666666666668" stroke="none" text-anchor="middle" tooltip="Date: 2024-03-07
Comment: " x="822.23" y="189.91">I</text>
<title>Date: 2024-03-07
Comment: </title>
</g>
<g>
<text dominant-baseline="central" fill="#8008" font-size="26.666666666666668" stroke="none" text-anchor="middle" tooltip="Date: 2024-03-29
Comment: " x="862.45" y="189.91">I</text>
<title>Date: 2024-03-29
Comment: </title>
</g>
<g>
<text dominant-baseline="central" fill="#8008" font-size="26.666666666666668" stroke="none" text-anchor="middle" tooltip="Date: 2024-04-16
Comment: " x="895.35" y="189.91">I</text>
<title>Date: 2024-04-16
Comment: </title>
</g>
<g>
<text dominant-baseline="central" fill="#8008" font-size="26.666666666666668" stroke="none" text-anchor="middle" tooltip="Date: 2024-04-27
Comment: SD Card doesn&apos;t read!!
Weird.. last time it was the same logger. Maybe he didn&apos;t change it" x="915.46" y="189.91">I</text>
<title>Date: 2024-04-27
Comment: SD Card doesn't read!!
Weird.. last time it was the same logger. Maybe he didn't change it</title>
</g>
</g>
<polyline fill="none" points="" stroke-dasharray="3.6 3.6" stroke-width="3.6" stroke="#0084" />
<g>
</g>
<g stroke="#0088">
<line x1="922.24" x2="922.24" y1="30.00" y2="30.00" />
<line x1="867.40" x2="867.40" y1="30.00" y2="30.00" />
<line x1="810.73" x2="810.73" y1="30.00" y2="30.00" />
<line x1="757.71" x2="757.71" y1="30.00" y2="30.00" />
<line x1="701.04" x2="701.04" y1="30.00" y2="30.00" />
<line x1="644.36" x2="644.36" y1="30.00" y2="30.00" />
<line x1="589.52" x2="589.52" y1="30.00" y2="30.00" />
<line x1="532.85" x2="532.85" y1="30.00" y2="30.00" />
<line x1="478.00" x2="478.00" y1="30.00" y2="30.00" />
<line x1="421.33" x2="421.33" y1="30.00" y2="30.00" />
<line x1="364.66" x2="364.66" y1="30.00" y2="30.00" />
<line x1="309.81" x2="309.81" y1="30.00" y2="30.00" />
<line x1="253.14" x2="253.14" y1="30.00" y2="30.00" />
<line x1="198.30" x2="198.30" y1="30.00" y2="30.00" />
<line x1="141.62" x2="141.62" y1="30.00" y2="30.00" />
<line x1="90.44" x2="90.44" y1="30.00" y2="30.00" />
<g fill="none" font-family="Arial, sans-serif" font-size="18.0" stroke="none" text-anchor="start" transform="translate(9.0 0.0)">
<text x="922.24" y="23.74">May</text>
<text x="867.40" y="23.74">Apr</text>
<text x="810.73" y="23.74">Mar</text>
<text x="757.71" y="23.74">Feb</text>
<text x="701.04" y="23.74">Jan</text>
<text x="644.36" y="23.74">Dec</text>
<text x="589.52" y="23.74">Nov</text>
<text x="532.85" y="23.74">Oct</text>
<text x="478.00" y="23.74">Sep</text>
<text x="421.33" y="23.74">Aug</text>
<text x="364.66" y="23.74">Jul</text>
<text x="309.81" y="23.74">Jun</text>
<text x="253.14" y="23.74">May</text>
<text x="198.30" y="23.74">Apr</text>
<text x="141.62" y="23.74">Mar</text>
<text x="90.44" y="23.74">Feb</text>
</g>
<line x1="50.00" x2="950.00" y1="30.00" y2="30.00" />
</g>
<g stroke="#0088">
<line x1="950.00" x2="962.00" y1="488.92" y2="488.92" />
<line x1="950.00" x2="962.00" y1="189.91" y2="189.91" />
<g fill="#0088" font-family="Arial, sans-serif" font-size="18.0" stroke="none" text-anchor="beginning">
<text x="959.00" y="479.92">-10</text>
<text x="959.00" y="180.91">0</text>
</g>
<line x1="950.00" x2="950.00" y1="570.00" y2="30.00" />
</g>
</g>
<g>
<g stroke-dasharray="3.6 7.2" stroke-width="0.72" stroke="#caa">
<line x1="922.24" x2="922.24" y1="570.00" y2="30.00" />
<line x1="867.40" x2="867.40" y1="570.00" y2="30.00" />
<line x1="810.73" x2="810.73" y1="570.00" y2="30.00" />
<line x1="757.71" x2="757.71" y1="570.00" y2="30.00" />
<line x1="701.04" x2="701.04" y1="570.00" y2="30.00" />
<line x1="644.36" x2="644.36" y1="570.00" y2="30.00" />
<line x1="589.52" x2="589.52" y1="570.00" y2="30.00" />
<line x1="532.85" x2="532.85" y1="570.00" y2="30.00" />
<line x1="478.00" x2="478.00" y1="570.00" y2="30.00" />
<line x1="421.33" x2="421.33" y1="570.00" y2="30.00" />
<line x1="364.66" x2="364.66" y1="570.00" y2="30.00" />
<line x1="309.81" x2="309.81" y1="570.00" y2="30.00" />
<line x1="253.14" x2="253.14" y1="570.00" y2="30.00" />
<line x1="198.30" x2="198.30" y1="570.00" y2="30.00" />
<line x1="141.62" x2="141.62" y1="570.00" y2="30.00" />
<line x1="90.44" x2="90.44" y1="570.00" y2="30.00" />
<line x1="50.00" x2="950.00" y1="570.00" y2="570.00" />
<line x1="50.00" x2="950.00" y1="192.38" y2="192.38" />
</g>
<g>
<text dominant-baseline="hanging" dx="-36.0" dy="18.0" fill="#0004" font-family="Arial, sans-serif" font-size="36" stroke="none" text-anchor="end" x="950.00" y="79.09">ThMuCh2Sh01BrownTop</text>
</g>
<g>
<text dominant-baseline="text-bottom" dy="-12.0" fill="black" font-family="Arial, sans-serif" font-size="18.0" font-style="italic" stroke="none" text-anchor="middle" x="500.00" y="30.00">Years 2023 to 2024</text>
</g>
<g>
<text dominant-baseline="hanging" dx="18.0" dy="18.0" fill="black" font-family="Arial, sans-serif" font-size="18.0" font-style="italic" stroke="none" text-anchor="beginning" text-orientation="sideways" x="50.00" y="30.00">log(Drips per day)</text>
</g>
<polyline fill="none" points="" stroke-dasharray="3.6 3.6" stroke-width="3.6" stroke="none" />
<g>
</g>
<g stroke="black">
<line x1="922.24" x2="922.24" y1="570.00" y2="580.00" />
<line x1="867.40" x2="867.40" y1="570.00" y2="580.00" />
<line x1="810.73" x2="810.73" y1="570.00" y2="580.00" />
<line x1="757.71" x2="757.71" y1="570.00" y2="580.00" />
<line x1="701.04" x2="701.04" y1="570.00" y2="580.00" />
<line x1="644.36" x2="644.36" y1="570.00" y2="580.00" />
<line x1="589.52" x2="589.52" y1="570.00" y2="580.00" />
<line x1="532.85" x2="532.85" y1="570.00" y2="580.00" />
<line x1="478.00" x2="478.00" y1="570.00" y2="580.00" />
<line x1="421.33" x2="421.33" y1="570.00" y2="580.00" />
<line x1="364.66" x2="364.66" y1="570.00" y2="580.00" />
<line x1="309.81" x2="309.81" y1="570.00" y2="580.00" />
<line x1="253.14" x2="253.14" y1="570.00" y2="580.00" />
<line x1="198.30" x2="198.30" y1="570.00" y2="580.00" />
<line x1="141.62" x2="141.62" y1="570.00" y2="580.00" />
<line x1="90.44" x2="90.44" y1="570.00" y2="580.00" />
<g fill="black" font-family="Arial, sans-serif" font-size="18.0" stroke="none" text-anchor="start" transform="translate(9.0 0.0)">
<text x="922.24" y="590.57">May</text>
<text x="867.40" y="590.57">Apr</text>
<text x="810.73" y="590.57">Mar</text>
<text x="757.71" y="590.57">Feb</text>
<text x="701.04" y="590.57">Jan</text>
<text x="644.36" y="590.57">Dec</text>
<text x="589.52" y="590.57">Nov</text>
<text x="532.85" y="590.57">Oct</text>
<text x="478.00" y="590.57">Sep</text>
<text x="421.33" y="590.57">Aug</text>
<text x="364.66" y="590.57">Jul</text>
<text x="309.81" y="590.57">Jun</text>
<text x="253.14" y="590.57">May</text>
<text x="198.30" y="590.57">Apr</text>
<text x="141.62" y="590.57">Mar</text>
<text x="90.44" y="590.57">Feb</text>
</g>
<line x1="50.00" x2="950.00" y1="570.00" y2="570.00" />
</g>
<g stroke="black">
<line x1="50.00" x2="38.00" y1="570.00" y2="570.00" />
<line x1="50.00" x2="38.00" y1="192.38" y2="192.38" />
<g fill="black" font-family="Arial, sans-serif" font-size="18.0" stroke="none" text-anchor="end">
<text x="41.00" y="561.00">0</text>
<text x="41.00" y="183.38">10</text>
</g>
<line x1="50.00" x2="50.00" y1="570.00" y2="30.00" />
</g>
</g>
</g>
</svg>