<?xml version="1.0"?>
<svg version="1.1" viewBox="0 0 1000 600" xmlns:xlink="http://www.w3.org/1999/xlink" xmlns="http://www.w3.org/2000/svg">
<g>
<g>
<g>
<text dominant-baseline="hanging" dx="-18.0" dy="18.0" fill="#0088" font-family="Arial, sans-serif" font-size="18.0" font-style="italic" stroke="none" text-anchor="end" text-orientation="sideways" x="950.00" y="30.00">d18O</text>
</g>
<g>
<g>
<text dominant-baseline="central" fill="#8008" font-size="26.666666666666668" stroke="none" text-anchor="middle" tooltip="Vial    
Date: 2023-09-29
Comment: Note:
- Had rain gauge `:RG01` before
- Now has no-num new gauge
- Had crumbled clay in funnel
- Seems to be connected to `:B` (in pic next time)
- ADDED: I think `:B` was moved from `Sh1` to `Sh0`
- `:R12` connected" x="365.75" y="189.91">I</text>
<title>Vial    
Date: 2023-09-29
Comment: Note:
- Had rain gauge `:RG01` before
- Now has no-num new gauge
- Had crumbled clay in funnel
- Seems to be connected to `:B` (in pic next time)
- ADDED: I think `:B` was moved from `Sh1` to `Sh0`
- `:R12` connected</title>
</g>
<g>
<text dominant-baseline="central" fill="#8008" font-size="26.666666666666668" stroke="none" text-anchor="middle" tooltip="Vial    :NONE
Date: 2024-06-17
Comment: Not in the images.. Not sure why" vial="NONE" x="667.67" y="189.91">A</text>
<title>Vial    :NONE
Date: 2024-06-17
Comment: Not in the images.. Not sure why</title>
</g>
<g>
<text dominant-baseline="central" fill="#8008" font-size="26.666666666666668" stroke="none" text-anchor="middle" tooltip="Vial    :EMPTY
Date: 2024-07-06
Comment: No Water. Maybe issue with cone alignment. Nong adjusted" vial="EMPTY" x="689.56" y="189.91">D</text>
<title>Vial    :EMPTY
Date: 2024-07-06
Comment: No Water. Maybe issue with cone alignment. Nong adjusted</title>
</g>
<g>
<text dominant-baseline="central" fill="#8008" font-size="26.666666666666668" stroke="none" text-anchor="middle" tooltip="Vial    :EMPTY
Date: 2024-07-25
Comment: No Water? Unclear. Pic says cone is aligned. Maybe was misaligned" vial="EMPTY" x="711.46" y="189.91">D</text>
<title>Vial    :EMPTY
Date: 2024-07-25
Comment: No Water? Unclear. Pic says cone is aligned. Maybe was misaligned</title>
</g>
<g>
<text dominant-baseline="central" fill="#8008" font-size="26.666666666666668" stroke="none" text-anchor="middle" tooltip="Vial    :EMPTY
Date: 2024-09-10
Comment: No Water? Unclear. Pic says cone is aligned. Maybe was misaligned" vial="EMPTY" x="765.62" y="189.91">D</text>
<title>Vial    :EMPTY
Date: 2024-09-10
Comment: No Water? Unclear. Pic says cone is aligned. Maybe was misaligned</title>
</g>
</g>
<polyline fill="none" points="675.74,349.00" stroke-dasharray="3.6 3.6" stroke-width="3.6" stroke="#0804" />
<polyline fill="none" points="648.08,334.06 630.79,327.76 608.90,317.40 596.22,309.10 575.48,309.20 550.13,313.98 533.99,314.36 515.56,315.20 497.12,313.84 477.53,319.78 463.70,315.52 451.02,325.23 426.82,320.40 406.08,322.05 391.10,340.85 372.66,340.70" stroke-dasharray="3.6 3.6" stroke-width="3.6" stroke="#0804" />
<g>
<g>
<circle cx="372.66" cy="340.70" fill="#0088" r="3.3333333333333335" stroke="#0088" tooltip="Vial    :AUNG
Date: 2023-10-05
Comment: " vial="AUNG" />
<title>Vial    :AUNG
Date: 2023-10-05
Comment: </title>
</g>
<g>
<circle cx="391.10" cy="340.85" fill="#0088" r="3.3333333333333335" stroke="#0088" tooltip="Vial    :ADPF
Date: 2023-10-21
Comment: " vial="ADPF" />
<title>Vial    :ADPF
Date: 2023-10-21
Comment: </title>
</g>
<g>
<circle cx="406.08" cy="322.05" fill="#0088" r="3.3333333333333335" stroke="#0088" tooltip="Vial    :AURB
Date: 2023-11-03
Comment: " vial="AURB" />
<title>Vial    :AURB
Date: 2023-11-03
Comment: </title>
</g>
<g>
<circle cx="426.82" cy="320.40" fill="#0088" r="3.3333333333333335" stroke="#0088" tooltip="Vial    :AEYG
Date: 2023-11-21
Comment: " vial="AEYG" />
<title>Vial    :AEYG
Date: 2023-11-21
Comment: </title>
</g>
<g>
<circle cx="451.02" cy="325.23" fill="#0088" r="3.3333333333333335" stroke="#0088" tooltip="Vial    :AHRY
Date: 2023-12-12
Comment: " vial="AHRY" />
<title>Vial    :AHRY
Date: 2023-12-12
Comment: </title>
</g>
<g>
<circle cx="463.70" cy="315.52" fill="#0088" r="3.3333333333333335" stroke="#0088" tooltip="Vial    :AGQJ
Date: 2023-12-23
Comment: " vial="AGQJ" />
<title>Vial    :AGQJ
Date: 2023-12-23
Comment: </title>
</g>
<g>
<circle cx="477.53" cy="319.78" fill="#0088" r="3.3333333333333335" stroke="#0088" tooltip="Vial    :ARWT
Date: 2024-01-04
Comment: SD card maybe corrupted ??" vial="ARWT" />
<title>Vial    :ARWT
Date: 2024-01-04
Comment: SD card maybe corrupted ??</title>
</g>
<g>
<circle cx="497.12" cy="313.84" fill="#0088" r="3.3333333333333335" stroke="#0088" tooltip="Vial    :ARQC
Date: 2024-01-21
Comment: " vial="ARQC" />
<title>Vial    :ARQC
Date: 2024-01-21
Comment: </title>
</g>
<g>
<circle cx="515.56" cy="315.20" fill="#0088" r="3.3333333333333335" stroke="#0088" tooltip="Vial    :AQAQ
Date: 2024-02-06
Comment: " vial="AQAQ" />
<title>Vial    :AQAQ
Date: 2024-02-06
Comment: </title>
</g>
<g>
<circle cx="533.99" cy="314.36" fill="#0088" r="3.3333333333333335" stroke="#0088" tooltip="Vial    :AFLS
Date: 2024-02-22
Comment: Rat bite! Nong wasn&apos;t able to fix it though" vial="AFLS" />
<title>Vial    :AFLS
Date: 2024-02-22
Comment: Rat bite! Nong wasn't able to fix it though</title>
</g>
<g>
<circle cx="550.13" cy="313.98" fill="#0088" r="3.3333333333333335" stroke="#0088" tooltip="Vial    :AHHB
Date: 2024-03-07
Comment: Rat bitten wire was fixed" vial="AHHB" />
<title>Vial    :AHHB
Date: 2024-03-07
Comment: Rat bitten wire was fixed</title>
</g>
<g>
<circle cx="575.48" cy="309.20" fill="#0088" r="3.3333333333333335" stroke="#0088" tooltip="Vial    :AMWY
Date: 2024-03-29
Comment: " vial="AMWY" />
<title>Vial    :AMWY
Date: 2024-03-29
Comment: </title>
</g>
<g>
<circle cx="596.22" cy="309.10" fill="#0088" r="3.3333333333333335" stroke="#0088" tooltip="Vial    :ATAY
Date: 2024-04-16
Comment: " vial="ATAY" />
<title>Vial    :ATAY
Date: 2024-04-16
Comment: </title>
</g>
<g>
<circle cx="608.90" cy="317.40" fill="#0088" r="3.3333333333333335" stroke="#0088" tooltip="Vial    :AHVP
Date: 2024-04-27
Comment: No logger! B/c wire is broken (from last time)" vial="AHVP" />
<title>Vial    :AHVP
Date: 2024-04-27
Comment: No logger! B/c wire is broken (from last time)</title>
</g>
<g>
<circle cx="630.79" cy="327.76" fill="#0088" r="3.3333333333333335" stroke="#0088" tooltip="Vial    :APSP
Date: 2024-05-16
Comment: " vial="APSP" />
<title>Vial    :APSP
Date: 2024-05-16
Comment: </title>
</g>
<g>
<circle cx="648.08" cy="334.06" fill="#0088" r="3.3333333333333335" stroke="#0088" tooltip="Vial    :ADNM
Date: 2024-05-31
Comment: " vial="ADNM" />
<title>Vial    :ADNM
Date: 2024-05-31
Comment: </title>
</g>
<g>
<circle cx="675.74" cy="349.00" fill="#0088" r="3.3333333333333335" stroke="#0088" tooltip="Vial    :APTW
Date: 2024-06-24
Comment: " vial="APTW" />
<title>Vial    :APTW
Date: 2024-06-24
Comment: </title>
</g>
</g>
<g stroke="#0088">
<line x1="931.23" x2="931.23" y1="30.00" y2="30.00" />
<line x1="895.50" x2="895.50" y1="30.00" y2="30.00" />
<line x1="859.78" x2="859.78" y1="30.00" y2="30.00" />
<line x1="825.21" x2="825.21" y1="30.00" y2="30.00" />
<line x1="789.48" x2="789.48" y1="30.00" y2="30.00" />
<line x1="754.91" x2="754.91" y1="30.00" y2="30.00" />
<line x1="719.19" x2="719.19" y1="30.00" y2="30.00" />
<line x1="683.47" x2="683.47" y1="30.00" y2="30.00" />
<line x1="648.90" x2="648.90" y1="30.00" y2="30.00" />
<line x1="613.17" x2="613.17" y1="30.00" y2="30.00" />
<line x1="578.60" x2="578.60" y1="30.00" y2="30.00" />
<line x1="542.88" x2="542.88" y1="30.00" y2="30.00" />
<line x1="509.46" x2="509.46" y1="30.00" y2="30.00" />
<line x1="473.74" x2="473.74" y1="30.00" y2="30.00" />
<line x1="438.01" x2="438.01" y1="30.00" y2="30.00" />
<line x1="403.44" x2="403.44" y1="30.00" y2="30.00" />
<line x1="367.72" x2="367.72" y1="30.00" y2="30.00" />
<line x1="333.15" x2="333.15" y1="30.00" y2="30.00" />
<line x1="297.42" x2="297.42" y1="30.00" y2="30.00" />
<line x1="261.70" x2="261.70" y1="30.00" y2="30.00" />
<line x1="227.13" x2="227.13" y1="30.00" y2="30.00" />
<line x1="191.41" x2="191.41" y1="30.00" y2="30.00" />
<line x1="156.83" x2="156.83" y1="30.00" y2="30.00" />
<line x1="121.11" x2="121.11" y1="30.00" y2="30.00" />
<line x1="88.84" x2="88.84" y1="30.00" y2="30.00" />
<line x1="53.12" x2="53.12" y1="30.00" y2="30.00" />
<g fill="none" font-family="Arial, sans-serif" font-size="18.0" stroke="none" text-anchor="start" transform="translate(9.0 0.0)">
<text x="931.23" y="23.74">Feb</text>
<text x="895.50" y="23.74">Jan</text>
<text x="859.78" y="23.74">Dec</text>
<text x="825.21" y="23.74">Nov</text>
<text x="789.48" y="23.74">Oct</text>
<text x="754.91" y="23.74">Sep</text>
<text x="719.19" y="23.74">Aug</text>
<text x="683.47" y="23.74">Jul</text>
<text x="648.90" y="23.74">Jun</text>
<text x="613.17" y="23.74">May</text>
<text x="578.60" y="23.74">Apr</text>
<text x="542.88" y="23.74">Mar</text>
<text x="509.46" y="23.74">Feb</text>
<text x="473.74" y="23.74">Jan</text>
<text x="438.01" y="23.74">Dec</text>
<text x="403.44" y="23.74">Nov</text>
<text x="367.72" y="23.74">Oct</text>
<text x="333.15" y="23.74">Sep</text>
<text x="297.42" y="23.74">Aug</text>
<text x="261.70" y="23.74">Jul</text>
<text x="227.13" y="23.74">Jun</text>
<text x="191.41" y="23.74">May</text>
<text x="156.83" y="23.74">Apr</text>
<text x="121.11" y="23.74">Mar</text>
<text x="88.84" y="23.74">Feb</text>
<text x="53.12" y="23.74">Jan</text>
</g>
<line x1="50.00" x2="950.00" y1="30.00" y2="30.00" />
</g>
<g stroke="#0088">
<line x1="950.00" x2="962.00" y1="488.92" y2="488.92" />
<line x1="950.00" x2="962.00" y1="189.91" y2="189.91" />
<g fill="#0088" font-family="Arial, sans-serif" font-size="18.0" stroke="none" text-anchor="beginning">
<text x="959.00" y="479.92">-10</text>
<text x="959.00" y="180.91">0</text>
</g>
<line x1="950.00" x2="950.00" y1="570.00" y2="30.00" />
</g>
</g>
<g>
<g stroke-dasharray="3.6 7.2" stroke-width="0.72" stroke="#caa">
<line x1="892.89" x2="892.89" y1="546.00" y2="54.00" />
<line x1="860.35" x2="860.35" y1="546.00" y2="54.00" />
<line x1="827.80" x2="827.80" y1="546.00" y2="54.00" />
<line x1="796.30" x2="796.30" y1="546.00" y2="54.00" />
<line x1="763.75" x2="763.75" y1="546.00" y2="54.00" />
<line x1="732.25" x2="732.25" y1="546.00" y2="54.00" />
<line x1="699.71" x2="699.71" y1="546.00" y2="54.00" />
<line x1="667.16" x2="667.16" y1="546.00" y2="54.00" />
<line x1="635.66" x2="635.66" y1="546.00" y2="54.00" />
<line x1="603.11" x2="603.11" y1="546.00" y2="54.00" />
<line x1="571.61" x2="571.61" y1="546.00" y2="54.00" />
<line x1="539.07" x2="539.07" y1="546.00" y2="54.00" />
<line x1="508.62" x2="508.62" y1="546.00" y2="54.00" />
<line x1="476.07" x2="476.07" y1="546.00" y2="54.00" />
<line x1="443.52" x2="443.52" y1="546.00" y2="54.00" />
<line x1="412.02" x2="412.02" y1="546.00" y2="54.00" />
<line x1="379.48" x2="379.48" y1="546.00" y2="54.00" />
<line x1="347.98" x2="347.98" y1="546.00" y2="54.00" />
<line x1="315.43" x2="315.43" y1="546.00" y2="54.00" />
<line x1="282.88" x2="282.88" y1="546.00" y2="54.00" />
<line x1="251.38" x2="251.38" y1="546.00" y2="54.00" />
<line x1="218.84" x2="218.84" y1="546.00" y2="54.00" />
<line x1="187.34" x2="187.34" y1="546.00" y2="54.00" />
<line x1="154.79" x2="154.79" y1="546.00" y2="54.00" />
<line x1="125.39" x2="125.39" y1="546.00" y2="54.00" />
<line x1="92.84" x2="92.84" y1="546.00" y2="54.00" />
<line x1="90.00" x2="910.00" y1="546.00" y2="546.00" />
<line x1="90.00" x2="910.00" y1="201.94" y2="201.94" />
</g>
<g>
<text dominant-baseline="hanging" dx="-36.0" dy="18.0" fill="#0004" font-family="Arial, sans-serif" font-size="36" stroke="none" text-anchor="end" x="910.00" y="98.73">ThMuCh2Sh01Thumb</text>
</g>
<g>
<text dominant-baseline="text-bottom" dy="0" fill="black" font-family="Arial, sans-serif" font-size="18.0" font-style="italic" stroke="none" text-anchor="middle" x="500.00" y="54.00">Years 2022 to 2025</text>
</g>
<g>
<text dominant-baseline="hanging" dx="18.0" dy="18.0" fill="black" font-family="Arial, sans-serif" font-size="18.0" font-style="italic" stroke="none" text-anchor="beginning" text-orientation="sideways" x="90.00" y="54.00">log(Drips per day)</text>
</g>
<polyline fill="none" points="" stroke-dasharray="3.6 3.6" stroke-width="3.6" stroke="none" />
<g>
</g>
<g stroke="black">
<line x1="892.89" x2="892.89" y1="546.00" y2="556.00" />
<line x1="860.35" x2="860.35" y1="546.00" y2="556.00" />
<line x1="827.80" x2="827.80" y1="546.00" y2="556.00" />
<line x1="796.30" x2="796.30" y1="546.00" y2="556.00" />
<line x1="763.75" x2="763.75" y1="546.00" y2="556.00" />
<line x1="732.25" x2="732.25" y1="546.00" y2="556.00" />
<line x1="699.71" x2="699.71" y1="546.00" y2="556.00" />
<line x1="667.16" x2="667.16" y1="546.00" y2="556.00" />
<line x1="635.66" x2="635.66" y1="546.00" y2="556.00" />
<line x1="603.11" x2="603.11" y1="546.00" y2="556.00" />
<line x1="571.61" x2="571.61" y1="546.00" y2="556.00" />
<line x1="539.07" x2="539.07" y1="546.00" y2="556.00" />
<line x1="508.62" x2="508.62" y1="546.00" y2="556.00" />
<line x1="476.07" x2="476.07" y1="546.00" y2="556.00" />
<line x1="443.52" x2="443.52" y1="546.00" y2="556.00" />
<line x1="412.02" x2="412.02" y1="546.00" y2="556.00" />
<line x1="379.48" x2="379.48" y1="546.00" y2="556.00" />
<line x1="347.98" x2="347.98" y1="546.00" y2="556.00" />
<line x1="315.43" x2="315.43" y1="546.00" y2="556.00" />
<line x1="282.88" x2="282.88" y1="546.00" y2="556.00" />
<line x1="251.38" x2="251.38" y1="546.00" y2="556.00" />
<line x1="218.84" x2="218.84" y1="546.00" y2="556.00" />
<line x1="187.34" x2="187.34" y1="546.00" y2="556.00" />
<line x1="154.79" x2="154.79" y1="546.00" y2="556.00" />
<line x1="125.39" x2="125.39" y1="546.00" y2="556.00" />
<line x1="92.84" x2="92.84" y1="546.00" y2="556.00" />
<g fill="black" font-family="Arial, sans-serif" font-size="18.0" stroke="none" text-anchor="start" transform="translate(9.0 0.0)">
<text x="892.89" y="566.57">Feb</text>
<text x="860.35" y="566.57">Jan</text>
<text x="827.80" y="566.57">Dec</text>
<text x="796.30" y="566.57">Nov</text>
<text x="763.75" y="566.57">Oct</text>
<text x="732.25" y="566.57">Sep</text>
<text x="699.71" y="566.57">Aug</text>
<text x="667.16" y="566.57">Jul</text>
<text x="635.66" y="566.57">Jun</text>
<text x="603.11" y="566.57">May</text>
<text x="571.61" y="566.57">Apr</text>
<text x="539.07" y="566.57">Mar</text>
<text x="508.62" y="566.57">Feb</text>
<text x="476.07" y="566.57">Jan</text>
<text x="443.52" y="566.57">Dec</text>
<text x="412.02" y="566.57">Nov</text>
<text x="379.48" y="566.57">Oct</text>
<text x="347.98" y="566.57">Sep</text>
<text x="315.43" y="566.57">Aug</text>
<text x="282.88" y="566.57">Jul</text>
<text x="251.38" y="566.57">Jun</text>
<text x="218.84" y="566.57">May</text>
<text x="187.34" y="566.57">Apr</text>
<text x="154.79" y="566.57">Mar</text>
<text x="125.39" y="566.57">Feb</text>
<text x="92.84" y="566.57">Jan</text>
</g>
<line x1="90.00" x2="910.00" y1="546.00" y2="546.00" />
</g>
<g stroke="black">
<line x1="90.00" x2="78.00" y1="546.00" y2="546.00" />
<line x1="90.00" x2="78.00" y1="201.94" y2="201.94" />
<g fill="black" font-family="Arial, sans-serif" font-size="18.0" stroke="none" text-anchor="end">
<text x="81.00" y="537.00">0</text>
<text x="81.00" y="192.94">10</text>
</g>
<line x1="90.00" x2="90.00" y1="546.00" y2="54.00" />
</g>
</g>
</g>
</svg>