<?xml version="1.0"?>
<svg version="1.1" viewBox="0 0 1000 600" xmlns:xlink="http://www.w3.org/1999/xlink" xmlns="http://www.w3.org/2000/svg">
<g>
<g stroke-dasharray="3.6 7.2" stroke-width="0.72" stroke="#caa">
<line x1="813.75" x2="813.75" y1="510.00" y2="90.00" />
<line x1="760.60" x2="760.60" y1="510.00" y2="90.00" />
<line x1="707.45" x2="707.45" y1="510.00" y2="90.00" />
<line x1="656.01" x2="656.01" y1="510.00" y2="90.00" />
<line x1="602.86" x2="602.86" y1="510.00" y2="90.00" />
<line x1="551.42" x2="551.42" y1="510.00" y2="90.00" />
<line x1="498.27" x2="498.27" y1="510.00" y2="90.00" />
<line x1="445.11" x2="445.11" y1="510.00" y2="90.00" />
<line x1="393.68" x2="393.68" y1="510.00" y2="90.00" />
<line x1="340.52" x2="340.52" y1="510.00" y2="90.00" />
<line x1="289.09" x2="289.09" y1="510.00" y2="90.00" />
<line x1="235.93" x2="235.93" y1="510.00" y2="90.00" />
<line x1="187.92" x2="187.92" y1="510.00" y2="90.00" />
<line x1="150.00" x2="850.00" y1="510.00" y2="510.00" />
<line x1="150.00" x2="850.00" y1="319.09" y2="319.09" />
<line x1="150.00" x2="850.00" y1="128.18" y2="128.18" />
</g>
<g>
<text dominant-baseline="hanging" dx="-36.0" dy="18.0" fill="#0004" font-family="Arial, sans-serif" font-size="36" stroke="none" text-anchor="end" x="850.00" y="128.18">ThMuCh0ConjoinedBottom</text>
</g>
<g>
<text dominant-baseline="text-bottom" dy="-12.0" fill="black" font-family="Arial, sans-serif" font-size="18.0" font-style="italic" stroke="none" text-anchor="middle" x="500.00" y="90.00">Years 2023 to 2024</text>
</g>
<g>
<text dominant-baseline="central" dx="12.0" dy="12.0" fill="black" font-family="Arial, sans-serif" font-size="18.0" font-style="italic" stroke="none" text-anchor="middle" text-orientation="sideways" writing-mode="vertical-lr" x="850.00" y="300.00">Drips per day</text>
</g>
<polyline fill="none" points="150.22,263.67 150.35,263.56 150.50,282.83 150.64,278.92 150.77,271.23 150.91,265.13 151.05,273.38 151.18,270.78 151.32,276.13 151.47,281.45 151.60,268.11 151.74,276.03 151.87,263.48 152.02,278.14 152.16,284.08 152.31,284.66 152.45,277.62 152.59,275.03 152.72,270.01 177.86,330.09 178.03,325.21 178.21,326.28 178.39,325.74 178.56,322.90 178.75,331.83 178.93,326.50 179.10,320.65 179.27,323.22 179.44,317.04 179.62,321.17 179.79,319.29 179.96,315.51 180.13,320.25 201.87,355.28 601.16,436.17 601.53,420.34 601.96,434.11 602.24,394.11 602.67,432.87 602.96,399.74 603.37,429.18 603.63,383.09 604.02,425.98 604.34,407.46 604.74,429.68 605.06,408.00 605.47,429.07 605.79,408.49 606.21,431.21 606.57,419.75 607.03,438.92 607.41,424.96 607.92,444.68 608.32,428.78 608.82,444.11 609.23,430.97 609.73,444.08 610.12,427.70 611.02,473.67 611.49,439.51 611.93,435.14 612.45,447.29 612.85,428.33 613.37,446.84 613.77,429.65 614.29,446.47 614.71,432.85 615.25,449.28 615.68,432.87 616.19,445.46 616.59,429.74 617.07,441.11 617.49,432.55 617.99,444.28 618.38,427.22 618.89,445.81 619.28,425.65 619.76,441.01 620.17,430.21 620.67,445.50 621.11,434.42 621.60,443.21 622.01,430.57 622.53,446.84 622.97,436.60 623.51,449.27 623.92,428.90 624.43,446.76 624.86,432.84 625.35,443.28 625.76,430.44 626.30,448.80 626.71,431.04 627.22,445.42 627.63,431.57 628.17,448.90 628.60,433.82 629.15,450.33 629.61,438.94 630.13,447.68 630.58,436.26 631.09,446.27 631.57,441.14 632.07,444.53 632.53,438.89 633.07,449.41 633.49,432.47 634.02,448.69 634.50,440.92 635.03,448.13 635.50,440.85 636.02,447.13 636.50,442.03 637.03,448.44 637.49,437.95 638.40,474.20 638.85,436.19 639.44,454.53 639.90,439.26 727.76,356.75 727.99,363.50 728.21,361.75 728.43,363.36 728.67,370.29 728.89,361.71 729.11,365.07 729.34,363.39 729.56,367.13 729.80,368.00 730.02,363.56 730.24,363.65 730.47,365.27 730.70,366.69 730.92,363.82 731.14,362.78 731.38,374.48 731.62,368.31 731.84,362.77 732.07,368.55 732.30,370.11 732.53,365.29 732.77,371.03 746.29,341.34 746.49,345.55 746.70,357.61 746.91,350.99 747.12,354.10 747.33,352.70 747.53,347.89 747.74,349.98 747.93,345.96 748.14,349.48 748.34,346.12 748.54,349.53 748.75,349.23 748.96,355.19 749.17,353.62 749.38,354.41 749.59,352.92 749.79,346.72 749.99,350.68 750.20,352.95 750.41,352.17 750.61,347.19 750.82,354.52 751.03,354.42 751.22,342.70 751.42,344.13 751.62,346.02 751.82,346.18 752.02,346.54 752.22,346.36 752.43,351.76 752.62,339.36 752.82,347.81 753.02,347.89 753.22,345.45 753.42,342.34 753.62,346.83 753.82,347.17 754.03,353.45 754.23,350.82 754.44,347.86 754.64,346.83 754.83,344.21 755.03,345.78 755.24,349.03 755.44,349.05 755.65,352.91 755.85,348.45 756.05,345.70 756.25,345.01 756.45,348.57 756.65,341.29 756.85,347.83 757.04,342.34 757.24,343.64 757.44,342.12 757.64,346.75 757.84,347.96 758.04,351.52 758.25,348.35 758.45,345.65 758.65,350.97 758.86,351.92 759.06,350.99 759.26,345.65 759.47,349.72 759.68,352.74 759.88,351.05 760.09,348.92 760.29,352.05 760.50,351.55 760.70,350.11 760.91,347.32 761.11,348.65 761.32,353.76 761.52,349.53 761.72,347.60 761.93,351.03 762.14,352.47 762.34,347.35 762.54,345.40 762.74,344.84 762.94,347.65 763.14,346.66 763.34,348.16 763.53,336.97 763.72,343.41 763.92,341.05 764.12,346.83 764.32,343.93 764.52,346.62 764.72,350.99 764.92,347.22 765.12,344.62 765.32,347.40 765.52,344.87 765.73,352.17 765.93,349.01 766.14,351.06 766.95,469.59 767.16,354.16 767.36,347.41 767.56,346.69 767.76,346.15 767.96,350.39 768.17,350.82 768.38,350.74 768.58,351.46 768.78,347.84 768.99,354.04 769.20,349.61 769.41,352.61 769.61,349.44 769.81,346.90 770.01,349.75 770.22,347.22 770.41,342.80 770.62,354.29 770.83,351.87 771.04,351.90 771.24,350.54 771.45,356.39 771.67,354.77 771.87,351.32 772.07,346.82 772.26,339.30 772.46,340.09 772.65,337.68 772.84,340.27 773.03,337.41 773.21,333.17 773.40,338.27 773.59,331.29 773.77,329.18 773.96,337.79 774.15,339.48 774.34,336.72 774.53,339.27 774.72,334.92 774.91,340.62 775.10,340.46 775.29,337.10 775.48,334.95 775.68,348.79 775.89,352.97 776.10,351.23 776.30,349.91 776.51,349.41 776.72,355.41 776.93,351.41 777.13,351.46 777.33,348.72 777.54,350.63 777.75,352.28 777.95,352.04 778.17,354.52 778.38,359.05 778.60,357.20 778.80,350.94 779.01,351.67 779.22,356.39 779.43,352.56 779.63,348.48 779.85,357.82 780.06,354.98 780.27,357.72 780.49,358.10 780.70,355.22 780.91,356.08 781.12,355.08 781.34,356.79 781.55,357.02 781.77,358.38 781.99,359.06 782.20,354.35 782.41,357.33 782.62,354.90 782.83,355.51 783.05,359.36 783.26,354.01 783.47,356.49 783.69,361.51 783.90,349.14 784.11,352.79 784.32,357.20 784.53,352.16 784.74,359.80 784.96,359.97 785.19,364.99 785.41,364.51 785.62,353.79 785.83,355.11 786.05,358.62 786.27,360.94 786.48,354.60 786.70,357.78 786.92,362.90 787.13,357.44 787.35,360.09 787.57,360.59 787.79,359.31 788.00,356.85 788.21,351.67 788.42,352.28 788.63,358.52 788.86,365.12 789.07,359.09 789.29,358.81 789.51,361.24 789.73,359.12 789.94,357.37 790.15,352.94 790.36,355.63 790.59,364.07 790.81,360.96 791.03,360.71 791.25,362.73 791.47,363.73 791.70,365.07 791.92,361.91 792.15,366.42 792.36,359.17 792.57,353.00 792.79,357.99 793.00,356.12 793.22,363.76 793.44,360.25 793.66,360.10 793.90,370.63 794.12,364.12 794.34,361.13 794.57,366.91 794.80,364.84 795.02,365.89 795.25,365.45 796.15,473.71 796.37,362.40 796.60,365.97 796.83,365.40 797.05,367.02 797.29,369.26 797.52,366.73 797.74,362.40 797.96,363.99 798.19,368.61 798.42,367.00 798.65,363.78 798.88,371.73 799.12,372.53 799.35,367.15 799.58,365.91 799.81,370.52 800.04,363.95 800.27,368.60 800.49,362.28 800.71,363.25 800.94,368.20 801.17,364.38 801.40,367.38 801.63,370.06 801.87,371.24 802.10,367.92 802.34,372.19 802.57,371.08 802.81,375.39 803.05,371.29 803.29,372.68 803.52,370.95 803.76,371.00 803.99,369.33 804.23,372.47 804.46,370.58 804.70,368.57 804.93,370.23 805.17,371.79 805.40,370.56 805.64,372.33 805.88,372.99 806.12,372.65 806.34,365.37 806.57,366.79 806.81,370.99 807.04,372.29 807.28,371.00 807.52,374.40 807.76,372.91 808.00,372.76 808.23,369.41 808.46,368.90 808.70,373.46 808.95,375.92 809.19,373.82 809.43,374.03 809.66,371.25 809.90,370.31 810.14,373.35 810.38,371.48 810.61,372.72 810.86,376.01 811.10,375.24 811.33,368.14 811.57,370.46 811.80,368.85 812.04,375.22 812.28,372.73 812.52,375.92 812.77,379.28 813.01,370.75 813.24,370.49 813.49,375.01 813.73,375.65 813.97,374.42 814.22,378.98 814.47,377.19 814.71,375.66 814.95,373.56 815.19,374.61 815.44,376.51 815.68,375.76 815.93,378.41 816.18,379.22 816.42,374.06 816.66,375.03 816.91,374.33 817.14,373.02 817.38,373.00 817.63,377.44 817.88,380.38 818.13,375.00 818.37,378.29 818.62,378.40 818.88,385.18 819.14,382.75 819.41,385.84 819.67,384.78 819.92,381.10 820.18,383.49 820.44,382.34 820.69,382.31 820.94,379.69 821.21,385.01 821.46,381.16 821.71,378.59 821.96,377.55 822.20,377.67 822.46,384.58 822.73,384.84 823.49,467.32 823.75,381.52 824.00,380.25 824.26,381.94 824.51,380.76 824.77,386.48 825.02,376.57 825.27,380.22 825.53,385.81 825.79,381.50 826.05,383.76 826.31,383.27 826.58,389.51 826.83,378.64 827.09,382.84 827.35,386.21 827.61,381.86 827.87,385.24 828.12,382.70 828.38,383.09 828.64,382.29 828.89,379.58 829.15,385.28 829.41,381.56 829.68,388.09 829.95,388.50 830.21,388.46 830.48,387.45 830.75,387.85 831.02,389.69 831.29,388.22 831.55,385.56 831.82,389.06 832.09,387.67 832.36,388.18 832.63,389.05 832.90,388.28 833.17,389.91 833.44,389.81 833.71,386.10 833.98,386.97 834.25,392.76 834.52,388.73 834.80,392.83 835.08,389.68 835.34,387.65 835.60,384.72 835.88,389.71 836.15,389.28 836.42,388.50 836.69,391.87 836.97,390.66 837.24,387.35 837.51,389.53 837.78,390.79 838.06,390.28 838.33,392.83 838.61,390.16 838.88,390.00 839.17,395.18 839.46,396.98 839.74,393.64 840.02,395.40 840.31,395.56 840.59,394.11 840.88,396.95 841.17,397.06 841.45,394.12 841.74,396.68 842.03,396.49 842.32,396.63 842.60,394.85 842.90,399.00 843.19,396.99 843.48,398.36 843.78,401.13 844.07,395.95 844.36,397.73 844.66,400.40 844.95,396.98 845.24,399.16 845.54,399.11 845.83,399.36 846.14,403.28 846.43,398.31 846.73,397.75 847.03,401.02 847.32,399.31 847.61,397.28 847.91,399.72 848.21,400.39 848.49,395.33 848.80,401.65 849.09,398.95 849.39,402.20 849.69,401.15 850.00,402.91" stroke-dasharray="3.6 3.6" stroke-width="3.6" stroke="#aaa" />
<g>
<circle cx="150.22" cy="263.67" r="1.6666666666666667" />
<circle cx="150.35" cy="263.56" r="1.6666666666666667" />
<circle cx="150.50" cy="282.83" r="1.6666666666666667" />
<circle cx="150.64" cy="278.92" r="1.6666666666666667" />
<circle cx="150.77" cy="271.23" r="1.6666666666666667" />
<circle cx="150.91" cy="265.13" r="1.6666666666666667" />
<circle cx="151.05" cy="273.38" r="1.6666666666666667" />
<circle cx="151.18" cy="270.78" r="1.6666666666666667" />
<circle cx="151.32" cy="276.13" r="1.6666666666666667" />
<circle cx="151.47" cy="281.45" r="1.6666666666666667" />
<circle cx="151.60" cy="268.11" r="1.6666666666666667" />
<circle cx="151.74" cy="276.03" r="1.6666666666666667" />
<circle cx="151.87" cy="263.48" r="1.6666666666666667" />
<circle cx="152.02" cy="278.14" r="1.6666666666666667" />
<circle cx="152.16" cy="284.08" r="1.6666666666666667" />
<circle cx="152.31" cy="284.66" r="1.6666666666666667" />
<circle cx="152.45" cy="277.62" r="1.6666666666666667" />
<circle cx="152.59" cy="275.03" r="1.6666666666666667" />
<circle cx="152.72" cy="270.01" r="1.6666666666666667" />
<circle cx="177.86" cy="330.09" r="1.6666666666666667" />
<circle cx="178.03" cy="325.21" r="1.6666666666666667" />
<circle cx="178.21" cy="326.28" r="1.6666666666666667" />
<circle cx="178.39" cy="325.74" r="1.6666666666666667" />
<circle cx="178.56" cy="322.90" r="1.6666666666666667" />
<circle cx="178.75" cy="331.83" r="1.6666666666666667" />
<circle cx="178.93" cy="326.50" r="1.6666666666666667" />
<circle cx="179.10" cy="320.65" r="1.6666666666666667" />
<circle cx="179.27" cy="323.22" r="1.6666666666666667" />
<circle cx="179.44" cy="317.04" r="1.6666666666666667" />
<circle cx="179.62" cy="321.17" r="1.6666666666666667" />
<circle cx="179.79" cy="319.29" r="1.6666666666666667" />
<circle cx="179.96" cy="315.51" r="1.6666666666666667" />
<circle cx="180.13" cy="320.25" r="1.6666666666666667" />
<circle cx="201.87" cy="355.28" r="1.6666666666666667" />
<circle cx="601.16" cy="436.17" r="1.6666666666666667" />
<circle cx="601.53" cy="420.34" r="1.6666666666666667" />
<circle cx="601.96" cy="434.11" r="1.6666666666666667" />
<circle cx="602.24" cy="394.11" r="1.6666666666666667" />
<circle cx="602.67" cy="432.87" r="1.6666666666666667" />
<circle cx="602.96" cy="399.74" r="1.6666666666666667" />
<circle cx="603.37" cy="429.18" r="1.6666666666666667" />
<circle cx="603.63" cy="383.09" r="1.6666666666666667" />
<circle cx="604.02" cy="425.98" r="1.6666666666666667" />
<circle cx="604.34" cy="407.46" r="1.6666666666666667" />
<circle cx="604.74" cy="429.68" r="1.6666666666666667" />
<circle cx="605.06" cy="408.00" r="1.6666666666666667" />
<circle cx="605.47" cy="429.07" r="1.6666666666666667" />
<circle cx="605.79" cy="408.49" r="1.6666666666666667" />
<circle cx="606.21" cy="431.21" r="1.6666666666666667" />
<circle cx="606.57" cy="419.75" r="1.6666666666666667" />
<circle cx="607.03" cy="438.92" r="1.6666666666666667" />
<circle cx="607.41" cy="424.96" r="1.6666666666666667" />
<circle cx="607.92" cy="444.68" r="1.6666666666666667" />
<circle cx="608.32" cy="428.78" r="1.6666666666666667" />
<circle cx="608.82" cy="444.11" r="1.6666666666666667" />
<circle cx="609.23" cy="430.97" r="1.6666666666666667" />
<circle cx="609.73" cy="444.08" r="1.6666666666666667" />
<circle cx="610.12" cy="427.70" r="1.6666666666666667" />
<circle cx="611.02" cy="473.67" r="1.6666666666666667" />
<circle cx="611.49" cy="439.51" r="1.6666666666666667" />
<circle cx="611.93" cy="435.14" r="1.6666666666666667" />
<circle cx="612.45" cy="447.29" r="1.6666666666666667" />
<circle cx="612.85" cy="428.33" r="1.6666666666666667" />
<circle cx="613.37" cy="446.84" r="1.6666666666666667" />
<circle cx="613.77" cy="429.65" r="1.6666666666666667" />
<circle cx="614.29" cy="446.47" r="1.6666666666666667" />
<circle cx="614.71" cy="432.85" r="1.6666666666666667" />
<circle cx="615.25" cy="449.28" r="1.6666666666666667" />
<circle cx="615.68" cy="432.87" r="1.6666666666666667" />
<circle cx="616.19" cy="445.46" r="1.6666666666666667" />
<circle cx="616.59" cy="429.74" r="1.6666666666666667" />
<circle cx="617.07" cy="441.11" r="1.6666666666666667" />
<circle cx="617.49" cy="432.55" r="1.6666666666666667" />
<circle cx="617.99" cy="444.28" r="1.6666666666666667" />
<circle cx="618.38" cy="427.22" r="1.6666666666666667" />
<circle cx="618.89" cy="445.81" r="1.6666666666666667" />
<circle cx="619.28" cy="425.65" r="1.6666666666666667" />
<circle cx="619.76" cy="441.01" r="1.6666666666666667" />
<circle cx="620.17" cy="430.21" r="1.6666666666666667" />
<circle cx="620.67" cy="445.50" r="1.6666666666666667" />
<circle cx="621.11" cy="434.42" r="1.6666666666666667" />
<circle cx="621.60" cy="443.21" r="1.6666666666666667" />
<circle cx="622.01" cy="430.57" r="1.6666666666666667" />
<circle cx="622.53" cy="446.84" r="1.6666666666666667" />
<circle cx="622.97" cy="436.60" r="1.6666666666666667" />
<circle cx="623.51" cy="449.27" r="1.6666666666666667" />
<circle cx="623.92" cy="428.90" r="1.6666666666666667" />
<circle cx="624.43" cy="446.76" r="1.6666666666666667" />
<circle cx="624.86" cy="432.84" r="1.6666666666666667" />
<circle cx="625.35" cy="443.28" r="1.6666666666666667" />
<circle cx="625.76" cy="430.44" r="1.6666666666666667" />
<circle cx="626.30" cy="448.80" r="1.6666666666666667" />
<circle cx="626.71" cy="431.04" r="1.6666666666666667" />
<circle cx="627.22" cy="445.42" r="1.6666666666666667" />
<circle cx="627.63" cy="431.57" r="1.6666666666666667" />
<circle cx="628.17" cy="448.90" r="1.6666666666666667" />
<circle cx="628.60" cy="433.82" r="1.6666666666666667" />
<circle cx="629.15" cy="450.33" r="1.6666666666666667" />
<circle cx="629.61" cy="438.94" r="1.6666666666666667" />
<circle cx="630.13" cy="447.68" r="1.6666666666666667" />
<circle cx="630.58" cy="436.26" r="1.6666666666666667" />
<circle cx="631.09" cy="446.27" r="1.6666666666666667" />
<circle cx="631.57" cy="441.14" r="1.6666666666666667" />
<circle cx="632.07" cy="444.53" r="1.6666666666666667" />
<circle cx="632.53" cy="438.89" r="1.6666666666666667" />
<circle cx="633.07" cy="449.41" r="1.6666666666666667" />
<circle cx="633.49" cy="432.47" r="1.6666666666666667" />
<circle cx="634.02" cy="448.69" r="1.6666666666666667" />
<circle cx="634.50" cy="440.92" r="1.6666666666666667" />
<circle cx="635.03" cy="448.13" r="1.6666666666666667" />
<circle cx="635.50" cy="440.85" r="1.6666666666666667" />
<circle cx="636.02" cy="447.13" r="1.6666666666666667" />
<circle cx="636.50" cy="442.03" r="1.6666666666666667" />
<circle cx="637.03" cy="448.44" r="1.6666666666666667" />
<circle cx="637.49" cy="437.95" r="1.6666666666666667" />
<circle cx="638.40" cy="474.20" r="1.6666666666666667" />
<circle cx="638.85" cy="436.19" r="1.6666666666666667" />
<circle cx="639.44" cy="454.53" r="1.6666666666666667" />
<circle cx="639.90" cy="439.26" r="1.6666666666666667" />
<circle cx="727.76" cy="356.75" r="1.6666666666666667" />
<circle cx="727.99" cy="363.50" r="1.6666666666666667" />
<circle cx="728.21" cy="361.75" r="1.6666666666666667" />
<circle cx="728.43" cy="363.36" r="1.6666666666666667" />
<circle cx="728.67" cy="370.29" r="1.6666666666666667" />
<circle cx="728.89" cy="361.71" r="1.6666666666666667" />
<circle cx="729.11" cy="365.07" r="1.6666666666666667" />
<circle cx="729.34" cy="363.39" r="1.6666666666666667" />
<circle cx="729.56" cy="367.13" r="1.6666666666666667" />
<circle cx="729.80" cy="368.00" r="1.6666666666666667" />
<circle cx="730.02" cy="363.56" r="1.6666666666666667" />
<circle cx="730.24" cy="363.65" r="1.6666666666666667" />
<circle cx="730.47" cy="365.27" r="1.6666666666666667" />
<circle cx="730.70" cy="366.69" r="1.6666666666666667" />
<circle cx="730.92" cy="363.82" r="1.6666666666666667" />
<circle cx="731.14" cy="362.78" r="1.6666666666666667" />
<circle cx="731.38" cy="374.48" r="1.6666666666666667" />
<circle cx="731.62" cy="368.31" r="1.6666666666666667" />
<circle cx="731.84" cy="362.77" r="1.6666666666666667" />
<circle cx="732.07" cy="368.55" r="1.6666666666666667" />
<circle cx="732.30" cy="370.11" r="1.6666666666666667" />
<circle cx="732.53" cy="365.29" r="1.6666666666666667" />
<circle cx="732.77" cy="371.03" r="1.6666666666666667" />
<circle cx="746.29" cy="341.34" r="1.6666666666666667" />
<circle cx="746.49" cy="345.55" r="1.6666666666666667" />
<circle cx="746.70" cy="357.61" r="1.6666666666666667" />
<circle cx="746.91" cy="350.99" r="1.6666666666666667" />
<circle cx="747.12" cy="354.10" r="1.6666666666666667" />
<circle cx="747.33" cy="352.70" r="1.6666666666666667" />
<circle cx="747.53" cy="347.89" r="1.6666666666666667" />
<circle cx="747.74" cy="349.98" r="1.6666666666666667" />
<circle cx="747.93" cy="345.96" r="1.6666666666666667" />
<circle cx="748.14" cy="349.48" r="1.6666666666666667" />
<circle cx="748.34" cy="346.12" r="1.6666666666666667" />
<circle cx="748.54" cy="349.53" r="1.6666666666666667" />
<circle cx="748.75" cy="349.23" r="1.6666666666666667" />
<circle cx="748.96" cy="355.19" r="1.6666666666666667" />
<circle cx="749.17" cy="353.62" r="1.6666666666666667" />
<circle cx="749.38" cy="354.41" r="1.6666666666666667" />
<circle cx="749.59" cy="352.92" r="1.6666666666666667" />
<circle cx="749.79" cy="346.72" r="1.6666666666666667" />
<circle cx="749.99" cy="350.68" r="1.6666666666666667" />
<circle cx="750.20" cy="352.95" r="1.6666666666666667" />
<circle cx="750.41" cy="352.17" r="1.6666666666666667" />
<circle cx="750.61" cy="347.19" r="1.6666666666666667" />
<circle cx="750.82" cy="354.52" r="1.6666666666666667" />
<circle cx="751.03" cy="354.42" r="1.6666666666666667" />
<circle cx="751.22" cy="342.70" r="1.6666666666666667" />
<circle cx="751.42" cy="344.13" r="1.6666666666666667" />
<circle cx="751.62" cy="346.02" r="1.6666666666666667" />
<circle cx="751.82" cy="346.18" r="1.6666666666666667" />
<circle cx="752.02" cy="346.54" r="1.6666666666666667" />
<circle cx="752.22" cy="346.36" r="1.6666666666666667" />
<circle cx="752.43" cy="351.76" r="1.6666666666666667" />
<circle cx="752.62" cy="339.36" r="1.6666666666666667" />
<circle cx="752.82" cy="347.81" r="1.6666666666666667" />
<circle cx="753.02" cy="347.89" r="1.6666666666666667" />
<circle cx="753.22" cy="345.45" r="1.6666666666666667" />
<circle cx="753.42" cy="342.34" r="1.6666666666666667" />
<circle cx="753.62" cy="346.83" r="1.6666666666666667" />
<circle cx="753.82" cy="347.17" r="1.6666666666666667" />
<circle cx="754.03" cy="353.45" r="1.6666666666666667" />
<circle cx="754.23" cy="350.82" r="1.6666666666666667" />
<circle cx="754.44" cy="347.86" r="1.6666666666666667" />
<circle cx="754.64" cy="346.83" r="1.6666666666666667" />
<circle cx="754.83" cy="344.21" r="1.6666666666666667" />
<circle cx="755.03" cy="345.78" r="1.6666666666666667" />
<circle cx="755.24" cy="349.03" r="1.6666666666666667" />
<circle cx="755.44" cy="349.05" r="1.6666666666666667" />
<circle cx="755.65" cy="352.91" r="1.6666666666666667" />
<circle cx="755.85" cy="348.45" r="1.6666666666666667" />
<circle cx="756.05" cy="345.70" r="1.6666666666666667" />
<circle cx="756.25" cy="345.01" r="1.6666666666666667" />
<circle cx="756.45" cy="348.57" r="1.6666666666666667" />
<circle cx="756.65" cy="341.29" r="1.6666666666666667" />
<circle cx="756.85" cy="347.83" r="1.6666666666666667" />
<circle cx="757.04" cy="342.34" r="1.6666666666666667" />
<circle cx="757.24" cy="343.64" r="1.6666666666666667" />
<circle cx="757.44" cy="342.12" r="1.6666666666666667" />
<circle cx="757.64" cy="346.75" r="1.6666666666666667" />
<circle cx="757.84" cy="347.96" r="1.6666666666666667" />
<circle cx="758.04" cy="351.52" r="1.6666666666666667" />
<circle cx="758.25" cy="348.35" r="1.6666666666666667" />
<circle cx="758.45" cy="345.65" r="1.6666666666666667" />
<circle cx="758.65" cy="350.97" r="1.6666666666666667" />
<circle cx="758.86" cy="351.92" r="1.6666666666666667" />
<circle cx="759.06" cy="350.99" r="1.6666666666666667" />
<circle cx="759.26" cy="345.65" r="1.6666666666666667" />
<circle cx="759.47" cy="349.72" r="1.6666666666666667" />
<circle cx="759.68" cy="352.74" r="1.6666666666666667" />
<circle cx="759.88" cy="351.05" r="1.6666666666666667" />
<circle cx="760.09" cy="348.92" r="1.6666666666666667" />
<circle cx="760.29" cy="352.05" r="1.6666666666666667" />
<circle cx="760.50" cy="351.55" r="1.6666666666666667" />
<circle cx="760.70" cy="350.11" r="1.6666666666666667" />
<circle cx="760.91" cy="347.32" r="1.6666666666666667" />
<circle cx="761.11" cy="348.65" r="1.6666666666666667" />
<circle cx="761.32" cy="353.76" r="1.6666666666666667" />
<circle cx="761.52" cy="349.53" r="1.6666666666666667" />
<circle cx="761.72" cy="347.60" r="1.6666666666666667" />
<circle cx="761.93" cy="351.03" r="1.6666666666666667" />
<circle cx="762.14" cy="352.47" r="1.6666666666666667" />
<circle cx="762.34" cy="347.35" r="1.6666666666666667" />
<circle cx="762.54" cy="345.40" r="1.6666666666666667" />
<circle cx="762.74" cy="344.84" r="1.6666666666666667" />
<circle cx="762.94" cy="347.65" r="1.6666666666666667" />
<circle cx="763.14" cy="346.66" r="1.6666666666666667" />
<circle cx="763.34" cy="348.16" r="1.6666666666666667" />
<circle cx="763.53" cy="336.97" r="1.6666666666666667" />
<circle cx="763.72" cy="343.41" r="1.6666666666666667" />
<circle cx="763.92" cy="341.05" r="1.6666666666666667" />
<circle cx="764.12" cy="346.83" r="1.6666666666666667" />
<circle cx="764.32" cy="343.93" r="1.6666666666666667" />
<circle cx="764.52" cy="346.62" r="1.6666666666666667" />
<circle cx="764.72" cy="350.99" r="1.6666666666666667" />
<circle cx="764.92" cy="347.22" r="1.6666666666666667" />
<circle cx="765.12" cy="344.62" r="1.6666666666666667" />
<circle cx="765.32" cy="347.40" r="1.6666666666666667" />
<circle cx="765.52" cy="344.87" r="1.6666666666666667" />
<circle cx="765.73" cy="352.17" r="1.6666666666666667" />
<circle cx="765.93" cy="349.01" r="1.6666666666666667" />
<circle cx="766.14" cy="351.06" r="1.6666666666666667" />
<circle cx="766.95" cy="469.59" r="1.6666666666666667" />
<circle cx="767.16" cy="354.16" r="1.6666666666666667" />
<circle cx="767.36" cy="347.41" r="1.6666666666666667" />
<circle cx="767.56" cy="346.69" r="1.6666666666666667" />
<circle cx="767.76" cy="346.15" r="1.6666666666666667" />
<circle cx="767.96" cy="350.39" r="1.6666666666666667" />
<circle cx="768.17" cy="350.82" r="1.6666666666666667" />
<circle cx="768.38" cy="350.74" r="1.6666666666666667" />
<circle cx="768.58" cy="351.46" r="1.6666666666666667" />
<circle cx="768.78" cy="347.84" r="1.6666666666666667" />
<circle cx="768.99" cy="354.04" r="1.6666666666666667" />
<circle cx="769.20" cy="349.61" r="1.6666666666666667" />
<circle cx="769.41" cy="352.61" r="1.6666666666666667" />
<circle cx="769.61" cy="349.44" r="1.6666666666666667" />
<circle cx="769.81" cy="346.90" r="1.6666666666666667" />
<circle cx="770.01" cy="349.75" r="1.6666666666666667" />
<circle cx="770.22" cy="347.22" r="1.6666666666666667" />
<circle cx="770.41" cy="342.80" r="1.6666666666666667" />
<circle cx="770.62" cy="354.29" r="1.6666666666666667" />
<circle cx="770.83" cy="351.87" r="1.6666666666666667" />
<circle cx="771.04" cy="351.90" r="1.6666666666666667" />
<circle cx="771.24" cy="350.54" r="1.6666666666666667" />
<circle cx="771.45" cy="356.39" r="1.6666666666666667" />
<circle cx="771.67" cy="354.77" r="1.6666666666666667" />
<circle cx="771.87" cy="351.32" r="1.6666666666666667" />
<circle cx="772.07" cy="346.82" r="1.6666666666666667" />
<circle cx="772.26" cy="339.30" r="1.6666666666666667" />
<circle cx="772.46" cy="340.09" r="1.6666666666666667" />
<circle cx="772.65" cy="337.68" r="1.6666666666666667" />
<circle cx="772.84" cy="340.27" r="1.6666666666666667" />
<circle cx="773.03" cy="337.41" r="1.6666666666666667" />
<circle cx="773.21" cy="333.17" r="1.6666666666666667" />
<circle cx="773.40" cy="338.27" r="1.6666666666666667" />
<circle cx="773.59" cy="331.29" r="1.6666666666666667" />
<circle cx="773.77" cy="329.18" r="1.6666666666666667" />
<circle cx="773.96" cy="337.79" r="1.6666666666666667" />
<circle cx="774.15" cy="339.48" r="1.6666666666666667" />
<circle cx="774.34" cy="336.72" r="1.6666666666666667" />
<circle cx="774.53" cy="339.27" r="1.6666666666666667" />
<circle cx="774.72" cy="334.92" r="1.6666666666666667" />
<circle cx="774.91" cy="340.62" r="1.6666666666666667" />
<circle cx="775.10" cy="340.46" r="1.6666666666666667" />
<circle cx="775.29" cy="337.10" r="1.6666666666666667" />
<circle cx="775.48" cy="334.95" r="1.6666666666666667" />
<circle cx="775.68" cy="348.79" r="1.6666666666666667" />
<circle cx="775.89" cy="352.97" r="1.6666666666666667" />
<circle cx="776.10" cy="351.23" r="1.6666666666666667" />
<circle cx="776.30" cy="349.91" r="1.6666666666666667" />
<circle cx="776.51" cy="349.41" r="1.6666666666666667" />
<circle cx="776.72" cy="355.41" r="1.6666666666666667" />
<circle cx="776.93" cy="351.41" r="1.6666666666666667" />
<circle cx="777.13" cy="351.46" r="1.6666666666666667" />
<circle cx="777.33" cy="348.72" r="1.6666666666666667" />
<circle cx="777.54" cy="350.63" r="1.6666666666666667" />
<circle cx="777.75" cy="352.28" r="1.6666666666666667" />
<circle cx="777.95" cy="352.04" r="1.6666666666666667" />
<circle cx="778.17" cy="354.52" r="1.6666666666666667" />
<circle cx="778.38" cy="359.05" r="1.6666666666666667" />
<circle cx="778.60" cy="357.20" r="1.6666666666666667" />
<circle cx="778.80" cy="350.94" r="1.6666666666666667" />
<circle cx="779.01" cy="351.67" r="1.6666666666666667" />
<circle cx="779.22" cy="356.39" r="1.6666666666666667" />
<circle cx="779.43" cy="352.56" r="1.6666666666666667" />
<circle cx="779.63" cy="348.48" r="1.6666666666666667" />
<circle cx="779.85" cy="357.82" r="1.6666666666666667" />
<circle cx="780.06" cy="354.98" r="1.6666666666666667" />
<circle cx="780.27" cy="357.72" r="1.6666666666666667" />
<circle cx="780.49" cy="358.10" r="1.6666666666666667" />
<circle cx="780.70" cy="355.22" r="1.6666666666666667" />
<circle cx="780.91" cy="356.08" r="1.6666666666666667" />
<circle cx="781.12" cy="355.08" r="1.6666666666666667" />
<circle cx="781.34" cy="356.79" r="1.6666666666666667" />
<circle cx="781.55" cy="357.02" r="1.6666666666666667" />
<circle cx="781.77" cy="358.38" r="1.6666666666666667" />
<circle cx="781.99" cy="359.06" r="1.6666666666666667" />
<circle cx="782.20" cy="354.35" r="1.6666666666666667" />
<circle cx="782.41" cy="357.33" r="1.6666666666666667" />
<circle cx="782.62" cy="354.90" r="1.6666666666666667" />
<circle cx="782.83" cy="355.51" r="1.6666666666666667" />
<circle cx="783.05" cy="359.36" r="1.6666666666666667" />
<circle cx="783.26" cy="354.01" r="1.6666666666666667" />
<circle cx="783.47" cy="356.49" r="1.6666666666666667" />
<circle cx="783.69" cy="361.51" r="1.6666666666666667" />
<circle cx="783.90" cy="349.14" r="1.6666666666666667" />
<circle cx="784.11" cy="352.79" r="1.6666666666666667" />
<circle cx="784.32" cy="357.20" r="1.6666666666666667" />
<circle cx="784.53" cy="352.16" r="1.6666666666666667" />
<circle cx="784.74" cy="359.80" r="1.6666666666666667" />
<circle cx="784.96" cy="359.97" r="1.6666666666666667" />
<circle cx="785.19" cy="364.99" r="1.6666666666666667" />
<circle cx="785.41" cy="364.51" r="1.6666666666666667" />
<circle cx="785.62" cy="353.79" r="1.6666666666666667" />
<circle cx="785.83" cy="355.11" r="1.6666666666666667" />
<circle cx="786.05" cy="358.62" r="1.6666666666666667" />
<circle cx="786.27" cy="360.94" r="1.6666666666666667" />
<circle cx="786.48" cy="354.60" r="1.6666666666666667" />
<circle cx="786.70" cy="357.78" r="1.6666666666666667" />
<circle cx="786.92" cy="362.90" r="1.6666666666666667" />
<circle cx="787.13" cy="357.44" r="1.6666666666666667" />
<circle cx="787.35" cy="360.09" r="1.6666666666666667" />
<circle cx="787.57" cy="360.59" r="1.6666666666666667" />
<circle cx="787.79" cy="359.31" r="1.6666666666666667" />
<circle cx="788.00" cy="356.85" r="1.6666666666666667" />
<circle cx="788.21" cy="351.67" r="1.6666666666666667" />
<circle cx="788.42" cy="352.28" r="1.6666666666666667" />
<circle cx="788.63" cy="358.52" r="1.6666666666666667" />
<circle cx="788.86" cy="365.12" r="1.6666666666666667" />
<circle cx="789.07" cy="359.09" r="1.6666666666666667" />
<circle cx="789.29" cy="358.81" r="1.6666666666666667" />
<circle cx="789.51" cy="361.24" r="1.6666666666666667" />
<circle cx="789.73" cy="359.12" r="1.6666666666666667" />
<circle cx="789.94" cy="357.37" r="1.6666666666666667" />
<circle cx="790.15" cy="352.94" r="1.6666666666666667" />
<circle cx="790.36" cy="355.63" r="1.6666666666666667" />
<circle cx="790.59" cy="364.07" r="1.6666666666666667" />
<circle cx="790.81" cy="360.96" r="1.6666666666666667" />
<circle cx="791.03" cy="360.71" r="1.6666666666666667" />
<circle cx="791.25" cy="362.73" r="1.6666666666666667" />
<circle cx="791.47" cy="363.73" r="1.6666666666666667" />
<circle cx="791.70" cy="365.07" r="1.6666666666666667" />
<circle cx="791.92" cy="361.91" r="1.6666666666666667" />
<circle cx="792.15" cy="366.42" r="1.6666666666666667" />
<circle cx="792.36" cy="359.17" r="1.6666666666666667" />
<circle cx="792.57" cy="353.00" r="1.6666666666666667" />
<circle cx="792.79" cy="357.99" r="1.6666666666666667" />
<circle cx="793.00" cy="356.12" r="1.6666666666666667" />
<circle cx="793.22" cy="363.76" r="1.6666666666666667" />
<circle cx="793.44" cy="360.25" r="1.6666666666666667" />
<circle cx="793.66" cy="360.10" r="1.6666666666666667" />
<circle cx="793.90" cy="370.63" r="1.6666666666666667" />
<circle cx="794.12" cy="364.12" r="1.6666666666666667" />
<circle cx="794.34" cy="361.13" r="1.6666666666666667" />
<circle cx="794.57" cy="366.91" r="1.6666666666666667" />
<circle cx="794.80" cy="364.84" r="1.6666666666666667" />
<circle cx="795.02" cy="365.89" r="1.6666666666666667" />
<circle cx="795.25" cy="365.45" r="1.6666666666666667" />
<circle cx="796.15" cy="473.71" r="1.6666666666666667" />
<circle cx="796.37" cy="362.40" r="1.6666666666666667" />
<circle cx="796.60" cy="365.97" r="1.6666666666666667" />
<circle cx="796.83" cy="365.40" r="1.6666666666666667" />
<circle cx="797.05" cy="367.02" r="1.6666666666666667" />
<circle cx="797.29" cy="369.26" r="1.6666666666666667" />
<circle cx="797.52" cy="366.73" r="1.6666666666666667" />
<circle cx="797.74" cy="362.40" r="1.6666666666666667" />
<circle cx="797.96" cy="363.99" r="1.6666666666666667" />
<circle cx="798.19" cy="368.61" r="1.6666666666666667" />
<circle cx="798.42" cy="367.00" r="1.6666666666666667" />
<circle cx="798.65" cy="363.78" r="1.6666666666666667" />
<circle cx="798.88" cy="371.73" r="1.6666666666666667" />
<circle cx="799.12" cy="372.53" r="1.6666666666666667" />
<circle cx="799.35" cy="367.15" r="1.6666666666666667" />
<circle cx="799.58" cy="365.91" r="1.6666666666666667" />
<circle cx="799.81" cy="370.52" r="1.6666666666666667" />
<circle cx="800.04" cy="363.95" r="1.6666666666666667" />
<circle cx="800.27" cy="368.60" r="1.6666666666666667" />
<circle cx="800.49" cy="362.28" r="1.6666666666666667" />
<circle cx="800.71" cy="363.25" r="1.6666666666666667" />
<circle cx="800.94" cy="368.20" r="1.6666666666666667" />
<circle cx="801.17" cy="364.38" r="1.6666666666666667" />
<circle cx="801.40" cy="367.38" r="1.6666666666666667" />
<circle cx="801.63" cy="370.06" r="1.6666666666666667" />
<circle cx="801.87" cy="371.24" r="1.6666666666666667" />
<circle cx="802.10" cy="367.92" r="1.6666666666666667" />
<circle cx="802.34" cy="372.19" r="1.6666666666666667" />
<circle cx="802.57" cy="371.08" r="1.6666666666666667" />
<circle cx="802.81" cy="375.39" r="1.6666666666666667" />
<circle cx="803.05" cy="371.29" r="1.6666666666666667" />
<circle cx="803.29" cy="372.68" r="1.6666666666666667" />
<circle cx="803.52" cy="370.95" r="1.6666666666666667" />
<circle cx="803.76" cy="371.00" r="1.6666666666666667" />
<circle cx="803.99" cy="369.33" r="1.6666666666666667" />
<circle cx="804.23" cy="372.47" r="1.6666666666666667" />
<circle cx="804.46" cy="370.58" r="1.6666666666666667" />
<circle cx="804.70" cy="368.57" r="1.6666666666666667" />
<circle cx="804.93" cy="370.23" r="1.6666666666666667" />
<circle cx="805.17" cy="371.79" r="1.6666666666666667" />
<circle cx="805.40" cy="370.56" r="1.6666666666666667" />
<circle cx="805.64" cy="372.33" r="1.6666666666666667" />
<circle cx="805.88" cy="372.99" r="1.6666666666666667" />
<circle cx="806.12" cy="372.65" r="1.6666666666666667" />
<circle cx="806.34" cy="365.37" r="1.6666666666666667" />
<circle cx="806.57" cy="366.79" r="1.6666666666666667" />
<circle cx="806.81" cy="370.99" r="1.6666666666666667" />
<circle cx="807.04" cy="372.29" r="1.6666666666666667" />
<circle cx="807.28" cy="371.00" r="1.6666666666666667" />
<circle cx="807.52" cy="374.40" r="1.6666666666666667" />
<circle cx="807.76" cy="372.91" r="1.6666666666666667" />
<circle cx="808.00" cy="372.76" r="1.6666666666666667" />
<circle cx="808.23" cy="369.41" r="1.6666666666666667" />
<circle cx="808.46" cy="368.90" r="1.6666666666666667" />
<circle cx="808.70" cy="373.46" r="1.6666666666666667" />
<circle cx="808.95" cy="375.92" r="1.6666666666666667" />
<circle cx="809.19" cy="373.82" r="1.6666666666666667" />
<circle cx="809.43" cy="374.03" r="1.6666666666666667" />
<circle cx="809.66" cy="371.25" r="1.6666666666666667" />
<circle cx="809.90" cy="370.31" r="1.6666666666666667" />
<circle cx="810.14" cy="373.35" r="1.6666666666666667" />
<circle cx="810.38" cy="371.48" r="1.6666666666666667" />
<circle cx="810.61" cy="372.72" r="1.6666666666666667" />
<circle cx="810.86" cy="376.01" r="1.6666666666666667" />
<circle cx="811.10" cy="375.24" r="1.6666666666666667" />
<circle cx="811.33" cy="368.14" r="1.6666666666666667" />
<circle cx="811.57" cy="370.46" r="1.6666666666666667" />
<circle cx="811.80" cy="368.85" r="1.6666666666666667" />
<circle cx="812.04" cy="375.22" r="1.6666666666666667" />
<circle cx="812.28" cy="372.73" r="1.6666666666666667" />
<circle cx="812.52" cy="375.92" r="1.6666666666666667" />
<circle cx="812.77" cy="379.28" r="1.6666666666666667" />
<circle cx="813.01" cy="370.75" r="1.6666666666666667" />
<circle cx="813.24" cy="370.49" r="1.6666666666666667" />
<circle cx="813.49" cy="375.01" r="1.6666666666666667" />
<circle cx="813.73" cy="375.65" r="1.6666666666666667" />
<circle cx="813.97" cy="374.42" r="1.6666666666666667" />
<circle cx="814.22" cy="378.98" r="1.6666666666666667" />
<circle cx="814.47" cy="377.19" r="1.6666666666666667" />
<circle cx="814.71" cy="375.66" r="1.6666666666666667" />
<circle cx="814.95" cy="373.56" r="1.6666666666666667" />
<circle cx="815.19" cy="374.61" r="1.6666666666666667" />
<circle cx="815.44" cy="376.51" r="1.6666666666666667" />
<circle cx="815.68" cy="375.76" r="1.6666666666666667" />
<circle cx="815.93" cy="378.41" r="1.6666666666666667" />
<circle cx="816.18" cy="379.22" r="1.6666666666666667" />
<circle cx="816.42" cy="374.06" r="1.6666666666666667" />
<circle cx="816.66" cy="375.03" r="1.6666666666666667" />
<circle cx="816.91" cy="374.33" r="1.6666666666666667" />
<circle cx="817.14" cy="373.02" r="1.6666666666666667" />
<circle cx="817.38" cy="373.00" r="1.6666666666666667" />
<circle cx="817.63" cy="377.44" r="1.6666666666666667" />
<circle cx="817.88" cy="380.38" r="1.6666666666666667" />
<circle cx="818.13" cy="375.00" r="1.6666666666666667" />
<circle cx="818.37" cy="378.29" r="1.6666666666666667" />
<circle cx="818.62" cy="378.40" r="1.6666666666666667" />
<circle cx="818.88" cy="385.18" r="1.6666666666666667" />
<circle cx="819.14" cy="382.75" r="1.6666666666666667" />
<circle cx="819.41" cy="385.84" r="1.6666666666666667" />
<circle cx="819.67" cy="384.78" r="1.6666666666666667" />
<circle cx="819.92" cy="381.10" r="1.6666666666666667" />
<circle cx="820.18" cy="383.49" r="1.6666666666666667" />
<circle cx="820.44" cy="382.34" r="1.6666666666666667" />
<circle cx="820.69" cy="382.31" r="1.6666666666666667" />
<circle cx="820.94" cy="379.69" r="1.6666666666666667" />
<circle cx="821.21" cy="385.01" r="1.6666666666666667" />
<circle cx="821.46" cy="381.16" r="1.6666666666666667" />
<circle cx="821.71" cy="378.59" r="1.6666666666666667" />
<circle cx="821.96" cy="377.55" r="1.6666666666666667" />
<circle cx="822.20" cy="377.67" r="1.6666666666666667" />
<circle cx="822.46" cy="384.58" r="1.6666666666666667" />
<circle cx="822.73" cy="384.84" r="1.6666666666666667" />
<circle cx="823.49" cy="467.32" r="1.6666666666666667" />
<circle cx="823.75" cy="381.52" r="1.6666666666666667" />
<circle cx="824.00" cy="380.25" r="1.6666666666666667" />
<circle cx="824.26" cy="381.94" r="1.6666666666666667" />
<circle cx="824.51" cy="380.76" r="1.6666666666666667" />
<circle cx="824.77" cy="386.48" r="1.6666666666666667" />
<circle cx="825.02" cy="376.57" r="1.6666666666666667" />
<circle cx="825.27" cy="380.22" r="1.6666666666666667" />
<circle cx="825.53" cy="385.81" r="1.6666666666666667" />
<circle cx="825.79" cy="381.50" r="1.6666666666666667" />
<circle cx="826.05" cy="383.76" r="1.6666666666666667" />
<circle cx="826.31" cy="383.27" r="1.6666666666666667" />
<circle cx="826.58" cy="389.51" r="1.6666666666666667" />
<circle cx="826.83" cy="378.64" r="1.6666666666666667" />
<circle cx="827.09" cy="382.84" r="1.6666666666666667" />
<circle cx="827.35" cy="386.21" r="1.6666666666666667" />
<circle cx="827.61" cy="381.86" r="1.6666666666666667" />
<circle cx="827.87" cy="385.24" r="1.6666666666666667" />
<circle cx="828.12" cy="382.70" r="1.6666666666666667" />
<circle cx="828.38" cy="383.09" r="1.6666666666666667" />
<circle cx="828.64" cy="382.29" r="1.6666666666666667" />
<circle cx="828.89" cy="379.58" r="1.6666666666666667" />
<circle cx="829.15" cy="385.28" r="1.6666666666666667" />
<circle cx="829.41" cy="381.56" r="1.6666666666666667" />
<circle cx="829.68" cy="388.09" r="1.6666666666666667" />
<circle cx="829.95" cy="388.50" r="1.6666666666666667" />
<circle cx="830.21" cy="388.46" r="1.6666666666666667" />
<circle cx="830.48" cy="387.45" r="1.6666666666666667" />
<circle cx="830.75" cy="387.85" r="1.6666666666666667" />
<circle cx="831.02" cy="389.69" r="1.6666666666666667" />
<circle cx="831.29" cy="388.22" r="1.6666666666666667" />
<circle cx="831.55" cy="385.56" r="1.6666666666666667" />
<circle cx="831.82" cy="389.06" r="1.6666666666666667" />
<circle cx="832.09" cy="387.67" r="1.6666666666666667" />
<circle cx="832.36" cy="388.18" r="1.6666666666666667" />
<circle cx="832.63" cy="389.05" r="1.6666666666666667" />
<circle cx="832.90" cy="388.28" r="1.6666666666666667" />
<circle cx="833.17" cy="389.91" r="1.6666666666666667" />
<circle cx="833.44" cy="389.81" r="1.6666666666666667" />
<circle cx="833.71" cy="386.10" r="1.6666666666666667" />
<circle cx="833.98" cy="386.97" r="1.6666666666666667" />
<circle cx="834.25" cy="392.76" r="1.6666666666666667" />
<circle cx="834.52" cy="388.73" r="1.6666666666666667" />
<circle cx="834.80" cy="392.83" r="1.6666666666666667" />
<circle cx="835.08" cy="389.68" r="1.6666666666666667" />
<circle cx="835.34" cy="387.65" r="1.6666666666666667" />
<circle cx="835.60" cy="384.72" r="1.6666666666666667" />
<circle cx="835.88" cy="389.71" r="1.6666666666666667" />
<circle cx="836.15" cy="389.28" r="1.6666666666666667" />
<circle cx="836.42" cy="388.50" r="1.6666666666666667" />
<circle cx="836.69" cy="391.87" r="1.6666666666666667" />
<circle cx="836.97" cy="390.66" r="1.6666666666666667" />
<circle cx="837.24" cy="387.35" r="1.6666666666666667" />
<circle cx="837.51" cy="389.53" r="1.6666666666666667" />
<circle cx="837.78" cy="390.79" r="1.6666666666666667" />
<circle cx="838.06" cy="390.28" r="1.6666666666666667" />
<circle cx="838.33" cy="392.83" r="1.6666666666666667" />
<circle cx="838.61" cy="390.16" r="1.6666666666666667" />
<circle cx="838.88" cy="390.00" r="1.6666666666666667" />
<circle cx="839.17" cy="395.18" r="1.6666666666666667" />
<circle cx="839.46" cy="396.98" r="1.6666666666666667" />
<circle cx="839.74" cy="393.64" r="1.6666666666666667" />
<circle cx="840.02" cy="395.40" r="1.6666666666666667" />
<circle cx="840.31" cy="395.56" r="1.6666666666666667" />
<circle cx="840.59" cy="394.11" r="1.6666666666666667" />
<circle cx="840.88" cy="396.95" r="1.6666666666666667" />
<circle cx="841.17" cy="397.06" r="1.6666666666666667" />
<circle cx="841.45" cy="394.12" r="1.6666666666666667" />
<circle cx="841.74" cy="396.68" r="1.6666666666666667" />
<circle cx="842.03" cy="396.49" r="1.6666666666666667" />
<circle cx="842.32" cy="396.63" r="1.6666666666666667" />
<circle cx="842.60" cy="394.85" r="1.6666666666666667" />
<circle cx="842.90" cy="399.00" r="1.6666666666666667" />
<circle cx="843.19" cy="396.99" r="1.6666666666666667" />
<circle cx="843.48" cy="398.36" r="1.6666666666666667" />
<circle cx="843.78" cy="401.13" r="1.6666666666666667" />
<circle cx="844.07" cy="395.95" r="1.6666666666666667" />
<circle cx="844.36" cy="397.73" r="1.6666666666666667" />
<circle cx="844.66" cy="400.40" r="1.6666666666666667" />
<circle cx="844.95" cy="396.98" r="1.6666666666666667" />
<circle cx="845.24" cy="399.16" r="1.6666666666666667" />
<circle cx="845.54" cy="399.11" r="1.6666666666666667" />
<circle cx="845.83" cy="399.36" r="1.6666666666666667" />
<circle cx="846.14" cy="403.28" r="1.6666666666666667" />
<circle cx="846.43" cy="398.31" r="1.6666666666666667" />
<circle cx="846.73" cy="397.75" r="1.6666666666666667" />
<circle cx="847.03" cy="401.02" r="1.6666666666666667" />
<circle cx="847.32" cy="399.31" r="1.6666666666666667" />
<circle cx="847.61" cy="397.28" r="1.6666666666666667" />
<circle cx="847.91" cy="399.72" r="1.6666666666666667" />
<circle cx="848.21" cy="400.39" r="1.6666666666666667" />
<circle cx="848.49" cy="395.33" r="1.6666666666666667" />
<circle cx="848.80" cy="401.65" r="1.6666666666666667" />
<circle cx="849.09" cy="398.95" r="1.6666666666666667" />
<circle cx="849.39" cy="402.20" r="1.6666666666666667" />
<circle cx="849.69" cy="401.15" r="1.6666666666666667" />
<circle cx="850.00" cy="402.91" r="1.6666666666666667" />
</g>
<g stroke="black">
<line x1="813.75" x2="813.75" y1="510.00" y2="520.00" />
<line x1="760.60" x2="760.60" y1="510.00" y2="520.00" />
<line x1="707.45" x2="707.45" y1="510.00" y2="520.00" />
<line x1="656.01" x2="656.01" y1="510.00" y2="520.00" />
<line x1="602.86" x2="602.86" y1="510.00" y2="520.00" />
<line x1="551.42" x2="551.42" y1="510.00" y2="520.00" />
<line x1="498.27" x2="498.27" y1="510.00" y2="520.00" />
<line x1="445.11" x2="445.11" y1="510.00" y2="520.00" />
<line x1="393.68" x2="393.68" y1="510.00" y2="520.00" />
<line x1="340.52" x2="340.52" y1="510.00" y2="520.00" />
<line x1="289.09" x2="289.09" y1="510.00" y2="520.00" />
<line x1="235.93" x2="235.93" y1="510.00" y2="520.00" />
<line x1="187.92" x2="187.92" y1="510.00" y2="520.00" />
<g fill="black" font-family="Arial, sans-serif" font-size="18.0" stroke="none" text-anchor="start" transform="translate(9.0 0.0)">
<text x="813.75" y="530.57">Feb</text>
<text x="760.60" y="530.57">Jan</text>
<text x="707.45" y="530.57">Dec</text>
<text x="656.01" y="530.57">Nov</text>
<text x="602.86" y="530.57">Oct</text>
<text x="551.42" y="530.57">Sep</text>
<text x="498.27" y="530.57">Aug</text>
<text x="445.11" y="530.57">Jul</text>
<text x="393.68" y="530.57">Jun</text>
<text x="340.52" y="530.57">May</text>
<text x="289.09" y="530.57">Apr</text>
<text x="235.93" y="530.57">Mar</text>
<text x="187.92" y="530.57">Feb</text>
</g>
<line x1="150.00" x2="850.00" y1="510.00" y2="510.00" />
</g>
<g stroke="black">
<line x1="150.00" x2="140.00" y1="510.00" y2="510.00" />
<line x1="150.00" x2="140.00" y1="319.09" y2="319.09" />
<line x1="150.00" x2="140.00" y1="128.18" y2="128.18" />
<g fill="black" font-family="Arial, sans-serif" font-size="18.0" stroke="none" text-anchor="end">
<text x="141.00" y="501.00">0</text>
<text x="141.00" y="310.09">10</text>
<text x="141.00" y="119.18">20</text>
</g>
<line x1="150.00" x2="150.00" y1="510.00" y2="90.00" />
</g>
</g>
</svg>