<?xml version="1.0"?>
<svg version="1.1" viewBox="0 0 1000 600" xmlns:xlink="http://www.w3.org/1999/xlink" xmlns="http://www.w3.org/2000/svg">
<g>
<g stroke-dasharray="3.6 7.2" stroke-width="0.72" stroke="#caa">
<line x1="209.40" x2="209.40" y1="510.00" y2="90.00" />
<line x1="387.87" x2="387.87" y1="510.00" y2="90.00" />
<line x1="566.34" x2="566.34" y1="510.00" y2="90.00" />
<line x1="744.81" x2="744.81" y1="510.00" y2="90.00" />
<line x1="150.00" x2="850.00" y1="217.36" y2="217.36" />
</g>
<g>
<text dominant-baseline="hanging" dx="-36.0" dy="18.0" fill="#0004" font-family="Arial, sans-serif" font-size="36" stroke="none" text-anchor="end" x="850.00" y="125.00">ThMuCh0ConjoinedBottom</text>
</g>
<g>
<text dominant-baseline="text-bottom" dy="-12.0" fill="black" font-family="Arial, sans-serif" font-size="18.0" font-style="italic" stroke="none" text-anchor="middle" x="500.00" y="90.00">Days since start</text>
</g>
<g>
<text dominant-baseline="central" dx="12.0" dy="12.0" fill="black" font-family="Arial, sans-serif" font-size="18.0" font-style="italic" stroke="none" text-anchor="middle" text-orientation="sideways" writing-mode="vertical-lr" x="850.00" y="300.00">Drips per day</text>
</g>
<polyline fill="none" points="150.00,125.31 150.14,125.12 150.29,157.14 150.44,150.64 150.58,137.86 150.72,127.74 150.86,141.45 151.00,137.11 151.15,146.02 151.30,154.84 151.44,132.69 151.59,145.85 151.72,125.00 151.87,149.35 152.02,159.21 152.17,160.18 152.32,148.48 152.46,144.19 152.61,135.84 178.77,235.63 178.95,227.52 179.14,229.30 179.32,228.42 179.50,223.69 179.69,238.53 179.88,229.68 180.06,219.95 180.24,224.22 180.42,213.95 180.60,220.81 180.78,217.69 180.95,211.42 181.13,219.30 203.77,277.47 619.38,411.82 619.76,385.53 620.21,408.41 620.50,341.97 620.94,406.34 621.25,351.32 621.68,400.22 621.94,323.66 622.35,394.90 622.68,364.14 623.11,401.04 623.44,365.04 623.86,400.03 624.20,365.85 624.63,403.60 625.01,384.55 625.49,416.40 625.89,393.21 626.41,425.96 626.83,399.55 627.34,425.02 627.78,403.19 628.29,424.97 628.71,397.76 629.64,474.11 630.13,417.37 630.58,410.12 631.13,430.30 631.54,398.81 632.08,429.55 632.51,401.00 633.04,428.94 633.48,406.31 634.05,433.60 634.49,406.34 635.02,427.26 635.44,401.15 635.93,420.03 636.37,405.81 636.89,425.30 637.30,396.96 637.84,427.83 638.24,394.35 638.73,419.86 639.16,401.92 639.69,427.32 640.14,408.92 640.65,423.52 641.08,402.53 641.62,429.55 642.08,412.53 642.64,433.58 643.06,399.75 643.60,429.41 644.04,406.30 644.55,423.64 644.98,402.31 645.54,432.81 645.97,403.30 646.50,427.19 646.93,404.19 647.49,432.97 647.94,407.92 648.51,435.34 648.99,416.43 649.53,430.94 650.00,411.98 650.53,428.60 651.03,420.08 651.55,425.71 652.03,416.34 652.59,433.81 653.03,405.67 653.58,432.63 654.08,419.71 654.63,431.69 655.12,419.59 655.66,430.04 656.16,421.55 656.72,432.20 657.19,414.78 658.14,475.00 658.60,411.86 659.22,442.33 659.70,416.95 751.16,279.91 751.39,291.12 751.62,288.22 751.85,290.89 752.09,302.40 752.32,288.15 752.56,293.73 752.79,290.95 753.03,297.15 753.27,298.60 753.50,291.23 753.74,291.38 753.97,294.07 754.21,296.43 754.44,291.66 754.67,289.93 754.92,309.36 755.17,299.11 755.40,289.91 755.64,299.51 755.88,302.10 756.12,294.09 756.36,303.63 770.44,254.33 770.65,261.31 770.87,281.34 771.09,270.34 771.30,275.51 771.52,273.19 771.73,265.20 771.94,268.67 772.15,261.99 772.36,267.85 772.57,262.26 772.78,267.92 773.00,267.43 773.22,277.33 773.43,274.72 773.65,276.02 773.87,273.56 774.08,263.25 774.29,269.83 774.51,273.61 774.73,272.31 774.93,264.03 775.15,276.22 775.37,276.04 775.58,256.57 775.78,258.95 775.99,262.10 776.20,262.37 776.41,262.96 776.61,262.66 776.83,271.63 777.03,251.02 777.24,265.07 777.45,265.20 777.66,261.14 777.86,255.98 778.07,263.44 778.28,264.00 778.50,274.43 778.71,270.06 778.92,265.15 779.13,263.44 779.33,259.08 779.54,261.69 779.75,267.09 779.96,267.12 780.18,273.53 780.39,266.12 780.60,261.55 780.81,260.41 781.02,266.33 781.22,254.24 781.43,265.09 781.63,255.98 781.84,258.14 782.04,255.61 782.25,263.31 782.46,265.31 782.67,271.23 782.89,265.97 783.09,261.47 783.31,270.31 783.52,271.88 783.74,270.34 783.94,261.47 784.16,268.24 784.37,273.26 784.59,270.44 784.80,266.91 785.01,272.11 785.23,271.28 785.44,268.88 785.65,264.24 785.86,266.46 786.08,274.94 786.29,267.92 786.50,264.72 786.72,270.42 786.93,272.81 787.14,264.30 787.35,261.06 787.56,260.13 787.77,264.80 787.98,263.15 788.19,265.65 788.38,247.07 788.59,257.75 788.79,253.84 789.00,263.44 789.20,258.61 789.41,263.09 789.63,270.34 789.84,264.08 790.04,259.77 790.25,264.38 790.46,260.19 790.67,272.31 790.88,267.07 791.10,270.47 791.94,467.33 792.16,275.61 792.37,264.40 792.58,263.20 792.79,262.31 793.00,269.34 793.21,270.06 793.43,269.93 793.64,271.13 793.85,265.12 794.07,275.41 794.28,268.05 794.50,273.04 794.71,267.77 794.92,263.55 795.13,268.29 795.34,264.08 795.55,256.74 795.77,275.83 795.98,271.81 796.20,271.86 796.41,269.60 796.63,279.32 796.85,276.63 797.07,270.90 797.28,263.42 797.48,250.93 797.68,252.25 797.87,248.24 798.07,252.54 798.27,247.79 798.46,240.75 798.66,249.22 798.85,237.63 799.04,234.12 799.24,248.42 799.44,251.23 799.64,246.64 799.84,250.88 800.03,243.65 800.23,253.12 800.43,252.86 800.63,247.28 800.82,243.71 801.04,266.70 801.25,273.63 801.47,270.75 801.68,268.55 801.89,267.72 802.11,277.69 802.33,271.05 802.54,271.13 802.75,266.57 802.97,269.75 803.18,272.49 803.40,272.09 803.62,276.22 803.84,283.73 804.07,280.66 804.28,270.26 804.50,271.48 804.72,279.32 804.93,272.96 805.15,266.18 805.37,281.69 805.59,276.97 805.81,281.53 806.04,282.16 806.26,277.38 806.48,278.79 806.70,277.14 806.92,279.98 807.14,280.36 807.37,282.62 807.59,283.75 807.81,275.92 808.04,280.88 808.26,276.85 808.48,277.86 808.70,284.26 808.92,275.36 809.14,279.48 809.37,287.82 809.58,267.27 809.80,273.34 810.02,280.66 810.24,272.29 810.47,284.99 810.69,285.26 810.93,293.61 811.16,292.80 811.38,274.99 811.60,277.19 811.83,283.02 812.05,286.88 812.27,276.34 812.50,281.63 812.73,290.13 812.95,281.06 813.18,285.46 813.41,286.30 813.63,284.17 813.86,280.08 814.07,271.48 814.29,272.49 814.51,282.86 814.75,293.82 814.97,283.80 815.20,283.34 815.43,287.37 815.65,283.85 815.88,280.95 816.09,273.58 816.31,278.05 816.55,292.07 816.78,286.90 817.00,286.50 817.24,289.84 817.47,291.51 817.70,293.73 817.93,288.48 818.17,295.97 818.40,283.94 818.61,273.68 818.84,281.97 819.06,278.87 819.29,291.56 819.52,285.73 819.75,285.48 819.99,302.97 820.23,292.16 820.45,287.19 820.69,296.78 820.93,293.35 821.16,295.10 821.40,294.37 822.34,474.17 822.57,289.29 822.81,295.22 823.04,294.28 823.28,296.97 823.52,300.70 823.76,296.49 823.99,289.29 824.22,291.94 824.46,299.61 824.70,296.95 824.94,291.60 825.18,304.79 825.43,306.13 825.67,297.19 825.91,295.12 826.15,302.79 826.38,291.88 826.62,299.59 826.85,289.10 827.09,290.71 827.33,298.93 827.56,292.58 827.80,297.56 828.04,302.02 828.29,303.98 828.53,298.46 828.78,305.56 829.02,303.71 829.27,310.88 829.52,304.06 829.77,306.38 830.01,303.49 830.26,303.59 830.50,300.81 830.75,306.02 830.99,302.89 831.23,299.55 831.48,302.30 831.72,304.89 831.97,302.85 832.22,305.79 832.46,306.89 832.71,306.32 832.95,294.24 833.19,296.60 833.43,303.57 833.68,305.73 833.92,303.59 834.17,309.23 834.42,306.76 834.67,306.51 834.91,300.93 835.16,300.10 835.40,307.66 835.66,311.75 835.91,308.26 836.16,308.61 836.41,304.00 836.65,302.44 836.90,307.49 837.14,304.39 837.39,306.43 837.65,311.90 837.90,310.63 838.14,298.83 838.38,302.69 838.63,300.01 838.88,310.59 839.13,306.45 839.38,311.75 839.64,317.33 839.89,303.16 840.13,302.73 840.38,310.24 840.64,311.30 840.89,309.26 841.15,316.83 841.40,313.87 841.66,311.32 841.91,307.83 842.16,309.58 842.41,312.73 842.67,311.48 842.93,315.89 843.19,317.23 843.44,308.67 843.69,310.28 843.94,309.12 844.19,306.95 844.44,306.91 844.70,314.28 844.96,319.16 845.21,310.22 845.47,315.68 845.73,315.88 846.00,327.14 846.27,323.09 846.54,328.23 846.82,326.46 847.08,320.35 847.35,324.33 847.62,322.42 847.88,322.37 848.15,318.02 848.42,326.86 848.68,320.45 848.94,316.19 849.20,314.45 849.46,314.67 849.73,326.13 850.00,326.57" stroke-dasharray="3.6 3.6" stroke-width="3.6" stroke="#aaa" />
<g>
<circle cx="150.00" cy="125.31" r="1.6666666666666667" />
<circle cx="150.14" cy="125.12" r="1.6666666666666667" />
<circle cx="150.29" cy="157.14" r="1.6666666666666667" />
<circle cx="150.44" cy="150.64" r="1.6666666666666667" />
<circle cx="150.58" cy="137.86" r="1.6666666666666667" />
<circle cx="150.72" cy="127.74" r="1.6666666666666667" />
<circle cx="150.86" cy="141.45" r="1.6666666666666667" />
<circle cx="151.00" cy="137.11" r="1.6666666666666667" />
<circle cx="151.15" cy="146.02" r="1.6666666666666667" />
<circle cx="151.30" cy="154.84" r="1.6666666666666667" />
<circle cx="151.44" cy="132.69" r="1.6666666666666667" />
<circle cx="151.59" cy="145.85" r="1.6666666666666667" />
<circle cx="151.72" cy="125.00" r="1.6666666666666667" />
<circle cx="151.87" cy="149.35" r="1.6666666666666667" />
<circle cx="152.02" cy="159.21" r="1.6666666666666667" />
<circle cx="152.17" cy="160.18" r="1.6666666666666667" />
<circle cx="152.32" cy="148.48" r="1.6666666666666667" />
<circle cx="152.46" cy="144.19" r="1.6666666666666667" />
<circle cx="152.61" cy="135.84" r="1.6666666666666667" />
<circle cx="178.77" cy="235.63" r="1.6666666666666667" />
<circle cx="178.95" cy="227.52" r="1.6666666666666667" />
<circle cx="179.14" cy="229.30" r="1.6666666666666667" />
<circle cx="179.32" cy="228.42" r="1.6666666666666667" />
<circle cx="179.50" cy="223.69" r="1.6666666666666667" />
<circle cx="179.69" cy="238.53" r="1.6666666666666667" />
<circle cx="179.88" cy="229.68" r="1.6666666666666667" />
<circle cx="180.06" cy="219.95" r="1.6666666666666667" />
<circle cx="180.24" cy="224.22" r="1.6666666666666667" />
<circle cx="180.42" cy="213.95" r="1.6666666666666667" />
<circle cx="180.60" cy="220.81" r="1.6666666666666667" />
<circle cx="180.78" cy="217.69" r="1.6666666666666667" />
<circle cx="180.95" cy="211.42" r="1.6666666666666667" />
<circle cx="181.13" cy="219.30" r="1.6666666666666667" />
<circle cx="203.77" cy="277.47" r="1.6666666666666667" />
<circle cx="619.38" cy="411.82" r="1.6666666666666667" />
<circle cx="619.76" cy="385.53" r="1.6666666666666667" />
<circle cx="620.21" cy="408.41" r="1.6666666666666667" />
<circle cx="620.50" cy="341.97" r="1.6666666666666667" />
<circle cx="620.94" cy="406.34" r="1.6666666666666667" />
<circle cx="621.25" cy="351.32" r="1.6666666666666667" />
<circle cx="621.68" cy="400.22" r="1.6666666666666667" />
<circle cx="621.94" cy="323.66" r="1.6666666666666667" />
<circle cx="622.35" cy="394.90" r="1.6666666666666667" />
<circle cx="622.68" cy="364.14" r="1.6666666666666667" />
<circle cx="623.11" cy="401.04" r="1.6666666666666667" />
<circle cx="623.44" cy="365.04" r="1.6666666666666667" />
<circle cx="623.86" cy="400.03" r="1.6666666666666667" />
<circle cx="624.20" cy="365.85" r="1.6666666666666667" />
<circle cx="624.63" cy="403.60" r="1.6666666666666667" />
<circle cx="625.01" cy="384.55" r="1.6666666666666667" />
<circle cx="625.49" cy="416.40" r="1.6666666666666667" />
<circle cx="625.89" cy="393.21" r="1.6666666666666667" />
<circle cx="626.41" cy="425.96" r="1.6666666666666667" />
<circle cx="626.83" cy="399.55" r="1.6666666666666667" />
<circle cx="627.34" cy="425.02" r="1.6666666666666667" />
<circle cx="627.78" cy="403.19" r="1.6666666666666667" />
<circle cx="628.29" cy="424.97" r="1.6666666666666667" />
<circle cx="628.71" cy="397.76" r="1.6666666666666667" />
<circle cx="629.64" cy="474.11" r="1.6666666666666667" />
<circle cx="630.13" cy="417.37" r="1.6666666666666667" />
<circle cx="630.58" cy="410.12" r="1.6666666666666667" />
<circle cx="631.13" cy="430.30" r="1.6666666666666667" />
<circle cx="631.54" cy="398.81" r="1.6666666666666667" />
<circle cx="632.08" cy="429.55" r="1.6666666666666667" />
<circle cx="632.51" cy="401.00" r="1.6666666666666667" />
<circle cx="633.04" cy="428.94" r="1.6666666666666667" />
<circle cx="633.48" cy="406.31" r="1.6666666666666667" />
<circle cx="634.05" cy="433.60" r="1.6666666666666667" />
<circle cx="634.49" cy="406.34" r="1.6666666666666667" />
<circle cx="635.02" cy="427.26" r="1.6666666666666667" />
<circle cx="635.44" cy="401.15" r="1.6666666666666667" />
<circle cx="635.93" cy="420.03" r="1.6666666666666667" />
<circle cx="636.37" cy="405.81" r="1.6666666666666667" />
<circle cx="636.89" cy="425.30" r="1.6666666666666667" />
<circle cx="637.30" cy="396.96" r="1.6666666666666667" />
<circle cx="637.84" cy="427.83" r="1.6666666666666667" />
<circle cx="638.24" cy="394.35" r="1.6666666666666667" />
<circle cx="638.73" cy="419.86" r="1.6666666666666667" />
<circle cx="639.16" cy="401.92" r="1.6666666666666667" />
<circle cx="639.69" cy="427.32" r="1.6666666666666667" />
<circle cx="640.14" cy="408.92" r="1.6666666666666667" />
<circle cx="640.65" cy="423.52" r="1.6666666666666667" />
<circle cx="641.08" cy="402.53" r="1.6666666666666667" />
<circle cx="641.62" cy="429.55" r="1.6666666666666667" />
<circle cx="642.08" cy="412.53" r="1.6666666666666667" />
<circle cx="642.64" cy="433.58" r="1.6666666666666667" />
<circle cx="643.06" cy="399.75" r="1.6666666666666667" />
<circle cx="643.60" cy="429.41" r="1.6666666666666667" />
<circle cx="644.04" cy="406.30" r="1.6666666666666667" />
<circle cx="644.55" cy="423.64" r="1.6666666666666667" />
<circle cx="644.98" cy="402.31" r="1.6666666666666667" />
<circle cx="645.54" cy="432.81" r="1.6666666666666667" />
<circle cx="645.97" cy="403.30" r="1.6666666666666667" />
<circle cx="646.50" cy="427.19" r="1.6666666666666667" />
<circle cx="646.93" cy="404.19" r="1.6666666666666667" />
<circle cx="647.49" cy="432.97" r="1.6666666666666667" />
<circle cx="647.94" cy="407.92" r="1.6666666666666667" />
<circle cx="648.51" cy="435.34" r="1.6666666666666667" />
<circle cx="648.99" cy="416.43" r="1.6666666666666667" />
<circle cx="649.53" cy="430.94" r="1.6666666666666667" />
<circle cx="650.00" cy="411.98" r="1.6666666666666667" />
<circle cx="650.53" cy="428.60" r="1.6666666666666667" />
<circle cx="651.03" cy="420.08" r="1.6666666666666667" />
<circle cx="651.55" cy="425.71" r="1.6666666666666667" />
<circle cx="652.03" cy="416.34" r="1.6666666666666667" />
<circle cx="652.59" cy="433.81" r="1.6666666666666667" />
<circle cx="653.03" cy="405.67" r="1.6666666666666667" />
<circle cx="653.58" cy="432.63" r="1.6666666666666667" />
<circle cx="654.08" cy="419.71" r="1.6666666666666667" />
<circle cx="654.63" cy="431.69" r="1.6666666666666667" />
<circle cx="655.12" cy="419.59" r="1.6666666666666667" />
<circle cx="655.66" cy="430.04" r="1.6666666666666667" />
<circle cx="656.16" cy="421.55" r="1.6666666666666667" />
<circle cx="656.72" cy="432.20" r="1.6666666666666667" />
<circle cx="657.19" cy="414.78" r="1.6666666666666667" />
<circle cx="658.14" cy="475.00" r="1.6666666666666667" />
<circle cx="658.60" cy="411.86" r="1.6666666666666667" />
<circle cx="659.22" cy="442.33" r="1.6666666666666667" />
<circle cx="659.70" cy="416.95" r="1.6666666666666667" />
<circle cx="751.16" cy="279.91" r="1.6666666666666667" />
<circle cx="751.39" cy="291.12" r="1.6666666666666667" />
<circle cx="751.62" cy="288.22" r="1.6666666666666667" />
<circle cx="751.85" cy="290.89" r="1.6666666666666667" />
<circle cx="752.09" cy="302.40" r="1.6666666666666667" />
<circle cx="752.32" cy="288.15" r="1.6666666666666667" />
<circle cx="752.56" cy="293.73" r="1.6666666666666667" />
<circle cx="752.79" cy="290.95" r="1.6666666666666667" />
<circle cx="753.03" cy="297.15" r="1.6666666666666667" />
<circle cx="753.27" cy="298.60" r="1.6666666666666667" />
<circle cx="753.50" cy="291.23" r="1.6666666666666667" />
<circle cx="753.74" cy="291.38" r="1.6666666666666667" />
<circle cx="753.97" cy="294.07" r="1.6666666666666667" />
<circle cx="754.21" cy="296.43" r="1.6666666666666667" />
<circle cx="754.44" cy="291.66" r="1.6666666666666667" />
<circle cx="754.67" cy="289.93" r="1.6666666666666667" />
<circle cx="754.92" cy="309.36" r="1.6666666666666667" />
<circle cx="755.17" cy="299.11" r="1.6666666666666667" />
<circle cx="755.40" cy="289.91" r="1.6666666666666667" />
<circle cx="755.64" cy="299.51" r="1.6666666666666667" />
<circle cx="755.88" cy="302.10" r="1.6666666666666667" />
<circle cx="756.12" cy="294.09" r="1.6666666666666667" />
<circle cx="756.36" cy="303.63" r="1.6666666666666667" />
<circle cx="770.44" cy="254.33" r="1.6666666666666667" />
<circle cx="770.65" cy="261.31" r="1.6666666666666667" />
<circle cx="770.87" cy="281.34" r="1.6666666666666667" />
<circle cx="771.09" cy="270.34" r="1.6666666666666667" />
<circle cx="771.30" cy="275.51" r="1.6666666666666667" />
<circle cx="771.52" cy="273.19" r="1.6666666666666667" />
<circle cx="771.73" cy="265.20" r="1.6666666666666667" />
<circle cx="771.94" cy="268.67" r="1.6666666666666667" />
<circle cx="772.15" cy="261.99" r="1.6666666666666667" />
<circle cx="772.36" cy="267.85" r="1.6666666666666667" />
<circle cx="772.57" cy="262.26" r="1.6666666666666667" />
<circle cx="772.78" cy="267.92" r="1.6666666666666667" />
<circle cx="773.00" cy="267.43" r="1.6666666666666667" />
<circle cx="773.22" cy="277.33" r="1.6666666666666667" />
<circle cx="773.43" cy="274.72" r="1.6666666666666667" />
<circle cx="773.65" cy="276.02" r="1.6666666666666667" />
<circle cx="773.87" cy="273.56" r="1.6666666666666667" />
<circle cx="774.08" cy="263.25" r="1.6666666666666667" />
<circle cx="774.29" cy="269.83" r="1.6666666666666667" />
<circle cx="774.51" cy="273.61" r="1.6666666666666667" />
<circle cx="774.73" cy="272.31" r="1.6666666666666667" />
<circle cx="774.93" cy="264.03" r="1.6666666666666667" />
<circle cx="775.15" cy="276.22" r="1.6666666666666667" />
<circle cx="775.37" cy="276.04" r="1.6666666666666667" />
<circle cx="775.58" cy="256.57" r="1.6666666666666667" />
<circle cx="775.78" cy="258.95" r="1.6666666666666667" />
<circle cx="775.99" cy="262.10" r="1.6666666666666667" />
<circle cx="776.20" cy="262.37" r="1.6666666666666667" />
<circle cx="776.41" cy="262.96" r="1.6666666666666667" />
<circle cx="776.61" cy="262.66" r="1.6666666666666667" />
<circle cx="776.83" cy="271.63" r="1.6666666666666667" />
<circle cx="777.03" cy="251.02" r="1.6666666666666667" />
<circle cx="777.24" cy="265.07" r="1.6666666666666667" />
<circle cx="777.45" cy="265.20" r="1.6666666666666667" />
<circle cx="777.66" cy="261.14" r="1.6666666666666667" />
<circle cx="777.86" cy="255.98" r="1.6666666666666667" />
<circle cx="778.07" cy="263.44" r="1.6666666666666667" />
<circle cx="778.28" cy="264.00" r="1.6666666666666667" />
<circle cx="778.50" cy="274.43" r="1.6666666666666667" />
<circle cx="778.71" cy="270.06" r="1.6666666666666667" />
<circle cx="778.92" cy="265.15" r="1.6666666666666667" />
<circle cx="779.13" cy="263.44" r="1.6666666666666667" />
<circle cx="779.33" cy="259.08" r="1.6666666666666667" />
<circle cx="779.54" cy="261.69" r="1.6666666666666667" />
<circle cx="779.75" cy="267.09" r="1.6666666666666667" />
<circle cx="779.96" cy="267.12" r="1.6666666666666667" />
<circle cx="780.18" cy="273.53" r="1.6666666666666667" />
<circle cx="780.39" cy="266.12" r="1.6666666666666667" />
<circle cx="780.60" cy="261.55" r="1.6666666666666667" />
<circle cx="780.81" cy="260.41" r="1.6666666666666667" />
<circle cx="781.02" cy="266.33" r="1.6666666666666667" />
<circle cx="781.22" cy="254.24" r="1.6666666666666667" />
<circle cx="781.43" cy="265.09" r="1.6666666666666667" />
<circle cx="781.63" cy="255.98" r="1.6666666666666667" />
<circle cx="781.84" cy="258.14" r="1.6666666666666667" />
<circle cx="782.04" cy="255.61" r="1.6666666666666667" />
<circle cx="782.25" cy="263.31" r="1.6666666666666667" />
<circle cx="782.46" cy="265.31" r="1.6666666666666667" />
<circle cx="782.67" cy="271.23" r="1.6666666666666667" />
<circle cx="782.89" cy="265.97" r="1.6666666666666667" />
<circle cx="783.09" cy="261.47" r="1.6666666666666667" />
<circle cx="783.31" cy="270.31" r="1.6666666666666667" />
<circle cx="783.52" cy="271.88" r="1.6666666666666667" />
<circle cx="783.74" cy="270.34" r="1.6666666666666667" />
<circle cx="783.94" cy="261.47" r="1.6666666666666667" />
<circle cx="784.16" cy="268.24" r="1.6666666666666667" />
<circle cx="784.37" cy="273.26" r="1.6666666666666667" />
<circle cx="784.59" cy="270.44" r="1.6666666666666667" />
<circle cx="784.80" cy="266.91" r="1.6666666666666667" />
<circle cx="785.01" cy="272.11" r="1.6666666666666667" />
<circle cx="785.23" cy="271.28" r="1.6666666666666667" />
<circle cx="785.44" cy="268.88" r="1.6666666666666667" />
<circle cx="785.65" cy="264.24" r="1.6666666666666667" />
<circle cx="785.86" cy="266.46" r="1.6666666666666667" />
<circle cx="786.08" cy="274.94" r="1.6666666666666667" />
<circle cx="786.29" cy="267.92" r="1.6666666666666667" />
<circle cx="786.50" cy="264.72" r="1.6666666666666667" />
<circle cx="786.72" cy="270.42" r="1.6666666666666667" />
<circle cx="786.93" cy="272.81" r="1.6666666666666667" />
<circle cx="787.14" cy="264.30" r="1.6666666666666667" />
<circle cx="787.35" cy="261.06" r="1.6666666666666667" />
<circle cx="787.56" cy="260.13" r="1.6666666666666667" />
<circle cx="787.77" cy="264.80" r="1.6666666666666667" />
<circle cx="787.98" cy="263.15" r="1.6666666666666667" />
<circle cx="788.19" cy="265.65" r="1.6666666666666667" />
<circle cx="788.38" cy="247.07" r="1.6666666666666667" />
<circle cx="788.59" cy="257.75" r="1.6666666666666667" />
<circle cx="788.79" cy="253.84" r="1.6666666666666667" />
<circle cx="789.00" cy="263.44" r="1.6666666666666667" />
<circle cx="789.20" cy="258.61" r="1.6666666666666667" />
<circle cx="789.41" cy="263.09" r="1.6666666666666667" />
<circle cx="789.63" cy="270.34" r="1.6666666666666667" />
<circle cx="789.84" cy="264.08" r="1.6666666666666667" />
<circle cx="790.04" cy="259.77" r="1.6666666666666667" />
<circle cx="790.25" cy="264.38" r="1.6666666666666667" />
<circle cx="790.46" cy="260.19" r="1.6666666666666667" />
<circle cx="790.67" cy="272.31" r="1.6666666666666667" />
<circle cx="790.88" cy="267.07" r="1.6666666666666667" />
<circle cx="791.10" cy="270.47" r="1.6666666666666667" />
<circle cx="791.94" cy="467.33" r="1.6666666666666667" />
<circle cx="792.16" cy="275.61" r="1.6666666666666667" />
<circle cx="792.37" cy="264.40" r="1.6666666666666667" />
<circle cx="792.58" cy="263.20" r="1.6666666666666667" />
<circle cx="792.79" cy="262.31" r="1.6666666666666667" />
<circle cx="793.00" cy="269.34" r="1.6666666666666667" />
<circle cx="793.21" cy="270.06" r="1.6666666666666667" />
<circle cx="793.43" cy="269.93" r="1.6666666666666667" />
<circle cx="793.64" cy="271.13" r="1.6666666666666667" />
<circle cx="793.85" cy="265.12" r="1.6666666666666667" />
<circle cx="794.07" cy="275.41" r="1.6666666666666667" />
<circle cx="794.28" cy="268.05" r="1.6666666666666667" />
<circle cx="794.50" cy="273.04" r="1.6666666666666667" />
<circle cx="794.71" cy="267.77" r="1.6666666666666667" />
<circle cx="794.92" cy="263.55" r="1.6666666666666667" />
<circle cx="795.13" cy="268.29" r="1.6666666666666667" />
<circle cx="795.34" cy="264.08" r="1.6666666666666667" />
<circle cx="795.55" cy="256.74" r="1.6666666666666667" />
<circle cx="795.77" cy="275.83" r="1.6666666666666667" />
<circle cx="795.98" cy="271.81" r="1.6666666666666667" />
<circle cx="796.20" cy="271.86" r="1.6666666666666667" />
<circle cx="796.41" cy="269.60" r="1.6666666666666667" />
<circle cx="796.63" cy="279.32" r="1.6666666666666667" />
<circle cx="796.85" cy="276.63" r="1.6666666666666667" />
<circle cx="797.07" cy="270.90" r="1.6666666666666667" />
<circle cx="797.28" cy="263.42" r="1.6666666666666667" />
<circle cx="797.48" cy="250.93" r="1.6666666666666667" />
<circle cx="797.68" cy="252.25" r="1.6666666666666667" />
<circle cx="797.87" cy="248.24" r="1.6666666666666667" />
<circle cx="798.07" cy="252.54" r="1.6666666666666667" />
<circle cx="798.27" cy="247.79" r="1.6666666666666667" />
<circle cx="798.46" cy="240.75" r="1.6666666666666667" />
<circle cx="798.66" cy="249.22" r="1.6666666666666667" />
<circle cx="798.85" cy="237.63" r="1.6666666666666667" />
<circle cx="799.04" cy="234.12" r="1.6666666666666667" />
<circle cx="799.24" cy="248.42" r="1.6666666666666667" />
<circle cx="799.44" cy="251.23" r="1.6666666666666667" />
<circle cx="799.64" cy="246.64" r="1.6666666666666667" />
<circle cx="799.84" cy="250.88" r="1.6666666666666667" />
<circle cx="800.03" cy="243.65" r="1.6666666666666667" />
<circle cx="800.23" cy="253.12" r="1.6666666666666667" />
<circle cx="800.43" cy="252.86" r="1.6666666666666667" />
<circle cx="800.63" cy="247.28" r="1.6666666666666667" />
<circle cx="800.82" cy="243.71" r="1.6666666666666667" />
<circle cx="801.04" cy="266.70" r="1.6666666666666667" />
<circle cx="801.25" cy="273.63" r="1.6666666666666667" />
<circle cx="801.47" cy="270.75" r="1.6666666666666667" />
<circle cx="801.68" cy="268.55" r="1.6666666666666667" />
<circle cx="801.89" cy="267.72" r="1.6666666666666667" />
<circle cx="802.11" cy="277.69" r="1.6666666666666667" />
<circle cx="802.33" cy="271.05" r="1.6666666666666667" />
<circle cx="802.54" cy="271.13" r="1.6666666666666667" />
<circle cx="802.75" cy="266.57" r="1.6666666666666667" />
<circle cx="802.97" cy="269.75" r="1.6666666666666667" />
<circle cx="803.18" cy="272.49" r="1.6666666666666667" />
<circle cx="803.40" cy="272.09" r="1.6666666666666667" />
<circle cx="803.62" cy="276.22" r="1.6666666666666667" />
<circle cx="803.84" cy="283.73" r="1.6666666666666667" />
<circle cx="804.07" cy="280.66" r="1.6666666666666667" />
<circle cx="804.28" cy="270.26" r="1.6666666666666667" />
<circle cx="804.50" cy="271.48" r="1.6666666666666667" />
<circle cx="804.72" cy="279.32" r="1.6666666666666667" />
<circle cx="804.93" cy="272.96" r="1.6666666666666667" />
<circle cx="805.15" cy="266.18" r="1.6666666666666667" />
<circle cx="805.37" cy="281.69" r="1.6666666666666667" />
<circle cx="805.59" cy="276.97" r="1.6666666666666667" />
<circle cx="805.81" cy="281.53" r="1.6666666666666667" />
<circle cx="806.04" cy="282.16" r="1.6666666666666667" />
<circle cx="806.26" cy="277.38" r="1.6666666666666667" />
<circle cx="806.48" cy="278.79" r="1.6666666666666667" />
<circle cx="806.70" cy="277.14" r="1.6666666666666667" />
<circle cx="806.92" cy="279.98" r="1.6666666666666667" />
<circle cx="807.14" cy="280.36" r="1.6666666666666667" />
<circle cx="807.37" cy="282.62" r="1.6666666666666667" />
<circle cx="807.59" cy="283.75" r="1.6666666666666667" />
<circle cx="807.81" cy="275.92" r="1.6666666666666667" />
<circle cx="808.04" cy="280.88" r="1.6666666666666667" />
<circle cx="808.26" cy="276.85" r="1.6666666666666667" />
<circle cx="808.48" cy="277.86" r="1.6666666666666667" />
<circle cx="808.70" cy="284.26" r="1.6666666666666667" />
<circle cx="808.92" cy="275.36" r="1.6666666666666667" />
<circle cx="809.14" cy="279.48" r="1.6666666666666667" />
<circle cx="809.37" cy="287.82" r="1.6666666666666667" />
<circle cx="809.58" cy="267.27" r="1.6666666666666667" />
<circle cx="809.80" cy="273.34" r="1.6666666666666667" />
<circle cx="810.02" cy="280.66" r="1.6666666666666667" />
<circle cx="810.24" cy="272.29" r="1.6666666666666667" />
<circle cx="810.47" cy="284.99" r="1.6666666666666667" />
<circle cx="810.69" cy="285.26" r="1.6666666666666667" />
<circle cx="810.93" cy="293.61" r="1.6666666666666667" />
<circle cx="811.16" cy="292.80" r="1.6666666666666667" />
<circle cx="811.38" cy="274.99" r="1.6666666666666667" />
<circle cx="811.60" cy="277.19" r="1.6666666666666667" />
<circle cx="811.83" cy="283.02" r="1.6666666666666667" />
<circle cx="812.05" cy="286.88" r="1.6666666666666667" />
<circle cx="812.27" cy="276.34" r="1.6666666666666667" />
<circle cx="812.50" cy="281.63" r="1.6666666666666667" />
<circle cx="812.73" cy="290.13" r="1.6666666666666667" />
<circle cx="812.95" cy="281.06" r="1.6666666666666667" />
<circle cx="813.18" cy="285.46" r="1.6666666666666667" />
<circle cx="813.41" cy="286.30" r="1.6666666666666667" />
<circle cx="813.63" cy="284.17" r="1.6666666666666667" />
<circle cx="813.86" cy="280.08" r="1.6666666666666667" />
<circle cx="814.07" cy="271.48" r="1.6666666666666667" />
<circle cx="814.29" cy="272.49" r="1.6666666666666667" />
<circle cx="814.51" cy="282.86" r="1.6666666666666667" />
<circle cx="814.75" cy="293.82" r="1.6666666666666667" />
<circle cx="814.97" cy="283.80" r="1.6666666666666667" />
<circle cx="815.20" cy="283.34" r="1.6666666666666667" />
<circle cx="815.43" cy="287.37" r="1.6666666666666667" />
<circle cx="815.65" cy="283.85" r="1.6666666666666667" />
<circle cx="815.88" cy="280.95" r="1.6666666666666667" />
<circle cx="816.09" cy="273.58" r="1.6666666666666667" />
<circle cx="816.31" cy="278.05" r="1.6666666666666667" />
<circle cx="816.55" cy="292.07" r="1.6666666666666667" />
<circle cx="816.78" cy="286.90" r="1.6666666666666667" />
<circle cx="817.00" cy="286.50" r="1.6666666666666667" />
<circle cx="817.24" cy="289.84" r="1.6666666666666667" />
<circle cx="817.47" cy="291.51" r="1.6666666666666667" />
<circle cx="817.70" cy="293.73" r="1.6666666666666667" />
<circle cx="817.93" cy="288.48" r="1.6666666666666667" />
<circle cx="818.17" cy="295.97" r="1.6666666666666667" />
<circle cx="818.40" cy="283.94" r="1.6666666666666667" />
<circle cx="818.61" cy="273.68" r="1.6666666666666667" />
<circle cx="818.84" cy="281.97" r="1.6666666666666667" />
<circle cx="819.06" cy="278.87" r="1.6666666666666667" />
<circle cx="819.29" cy="291.56" r="1.6666666666666667" />
<circle cx="819.52" cy="285.73" r="1.6666666666666667" />
<circle cx="819.75" cy="285.48" r="1.6666666666666667" />
<circle cx="819.99" cy="302.97" r="1.6666666666666667" />
<circle cx="820.23" cy="292.16" r="1.6666666666666667" />
<circle cx="820.45" cy="287.19" r="1.6666666666666667" />
<circle cx="820.69" cy="296.78" r="1.6666666666666667" />
<circle cx="820.93" cy="293.35" r="1.6666666666666667" />
<circle cx="821.16" cy="295.10" r="1.6666666666666667" />
<circle cx="821.40" cy="294.37" r="1.6666666666666667" />
<circle cx="822.34" cy="474.17" r="1.6666666666666667" />
<circle cx="822.57" cy="289.29" r="1.6666666666666667" />
<circle cx="822.81" cy="295.22" r="1.6666666666666667" />
<circle cx="823.04" cy="294.28" r="1.6666666666666667" />
<circle cx="823.28" cy="296.97" r="1.6666666666666667" />
<circle cx="823.52" cy="300.70" r="1.6666666666666667" />
<circle cx="823.76" cy="296.49" r="1.6666666666666667" />
<circle cx="823.99" cy="289.29" r="1.6666666666666667" />
<circle cx="824.22" cy="291.94" r="1.6666666666666667" />
<circle cx="824.46" cy="299.61" r="1.6666666666666667" />
<circle cx="824.70" cy="296.95" r="1.6666666666666667" />
<circle cx="824.94" cy="291.60" r="1.6666666666666667" />
<circle cx="825.18" cy="304.79" r="1.6666666666666667" />
<circle cx="825.43" cy="306.13" r="1.6666666666666667" />
<circle cx="825.67" cy="297.19" r="1.6666666666666667" />
<circle cx="825.91" cy="295.12" r="1.6666666666666667" />
<circle cx="826.15" cy="302.79" r="1.6666666666666667" />
<circle cx="826.38" cy="291.88" r="1.6666666666666667" />
<circle cx="826.62" cy="299.59" r="1.6666666666666667" />
<circle cx="826.85" cy="289.10" r="1.6666666666666667" />
<circle cx="827.09" cy="290.71" r="1.6666666666666667" />
<circle cx="827.33" cy="298.93" r="1.6666666666666667" />
<circle cx="827.56" cy="292.58" r="1.6666666666666667" />
<circle cx="827.80" cy="297.56" r="1.6666666666666667" />
<circle cx="828.04" cy="302.02" r="1.6666666666666667" />
<circle cx="828.29" cy="303.98" r="1.6666666666666667" />
<circle cx="828.53" cy="298.46" r="1.6666666666666667" />
<circle cx="828.78" cy="305.56" r="1.6666666666666667" />
<circle cx="829.02" cy="303.71" r="1.6666666666666667" />
<circle cx="829.27" cy="310.88" r="1.6666666666666667" />
<circle cx="829.52" cy="304.06" r="1.6666666666666667" />
<circle cx="829.77" cy="306.38" r="1.6666666666666667" />
<circle cx="830.01" cy="303.49" r="1.6666666666666667" />
<circle cx="830.26" cy="303.59" r="1.6666666666666667" />
<circle cx="830.50" cy="300.81" r="1.6666666666666667" />
<circle cx="830.75" cy="306.02" r="1.6666666666666667" />
<circle cx="830.99" cy="302.89" r="1.6666666666666667" />
<circle cx="831.23" cy="299.55" r="1.6666666666666667" />
<circle cx="831.48" cy="302.30" r="1.6666666666666667" />
<circle cx="831.72" cy="304.89" r="1.6666666666666667" />
<circle cx="831.97" cy="302.85" r="1.6666666666666667" />
<circle cx="832.22" cy="305.79" r="1.6666666666666667" />
<circle cx="832.46" cy="306.89" r="1.6666666666666667" />
<circle cx="832.71" cy="306.32" r="1.6666666666666667" />
<circle cx="832.95" cy="294.24" r="1.6666666666666667" />
<circle cx="833.19" cy="296.60" r="1.6666666666666667" />
<circle cx="833.43" cy="303.57" r="1.6666666666666667" />
<circle cx="833.68" cy="305.73" r="1.6666666666666667" />
<circle cx="833.92" cy="303.59" r="1.6666666666666667" />
<circle cx="834.17" cy="309.23" r="1.6666666666666667" />
<circle cx="834.42" cy="306.76" r="1.6666666666666667" />
<circle cx="834.67" cy="306.51" r="1.6666666666666667" />
<circle cx="834.91" cy="300.93" r="1.6666666666666667" />
<circle cx="835.16" cy="300.10" r="1.6666666666666667" />
<circle cx="835.40" cy="307.66" r="1.6666666666666667" />
<circle cx="835.66" cy="311.75" r="1.6666666666666667" />
<circle cx="835.91" cy="308.26" r="1.6666666666666667" />
<circle cx="836.16" cy="308.61" r="1.6666666666666667" />
<circle cx="836.41" cy="304.00" r="1.6666666666666667" />
<circle cx="836.65" cy="302.44" r="1.6666666666666667" />
<circle cx="836.90" cy="307.49" r="1.6666666666666667" />
<circle cx="837.14" cy="304.39" r="1.6666666666666667" />
<circle cx="837.39" cy="306.43" r="1.6666666666666667" />
<circle cx="837.65" cy="311.90" r="1.6666666666666667" />
<circle cx="837.90" cy="310.63" r="1.6666666666666667" />
<circle cx="838.14" cy="298.83" r="1.6666666666666667" />
<circle cx="838.38" cy="302.69" r="1.6666666666666667" />
<circle cx="838.63" cy="300.01" r="1.6666666666666667" />
<circle cx="838.88" cy="310.59" r="1.6666666666666667" />
<circle cx="839.13" cy="306.45" r="1.6666666666666667" />
<circle cx="839.38" cy="311.75" r="1.6666666666666667" />
<circle cx="839.64" cy="317.33" r="1.6666666666666667" />
<circle cx="839.89" cy="303.16" r="1.6666666666666667" />
<circle cx="840.13" cy="302.73" r="1.6666666666666667" />
<circle cx="840.38" cy="310.24" r="1.6666666666666667" />
<circle cx="840.64" cy="311.30" r="1.6666666666666667" />
<circle cx="840.89" cy="309.26" r="1.6666666666666667" />
<circle cx="841.15" cy="316.83" r="1.6666666666666667" />
<circle cx="841.40" cy="313.87" r="1.6666666666666667" />
<circle cx="841.66" cy="311.32" r="1.6666666666666667" />
<circle cx="841.91" cy="307.83" r="1.6666666666666667" />
<circle cx="842.16" cy="309.58" r="1.6666666666666667" />
<circle cx="842.41" cy="312.73" r="1.6666666666666667" />
<circle cx="842.67" cy="311.48" r="1.6666666666666667" />
<circle cx="842.93" cy="315.89" r="1.6666666666666667" />
<circle cx="843.19" cy="317.23" r="1.6666666666666667" />
<circle cx="843.44" cy="308.67" r="1.6666666666666667" />
<circle cx="843.69" cy="310.28" r="1.6666666666666667" />
<circle cx="843.94" cy="309.12" r="1.6666666666666667" />
<circle cx="844.19" cy="306.95" r="1.6666666666666667" />
<circle cx="844.44" cy="306.91" r="1.6666666666666667" />
<circle cx="844.70" cy="314.28" r="1.6666666666666667" />
<circle cx="844.96" cy="319.16" r="1.6666666666666667" />
<circle cx="845.21" cy="310.22" r="1.6666666666666667" />
<circle cx="845.47" cy="315.68" r="1.6666666666666667" />
<circle cx="845.73" cy="315.88" r="1.6666666666666667" />
<circle cx="846.00" cy="327.14" r="1.6666666666666667" />
<circle cx="846.27" cy="323.09" r="1.6666666666666667" />
<circle cx="846.54" cy="328.23" r="1.6666666666666667" />
<circle cx="846.82" cy="326.46" r="1.6666666666666667" />
<circle cx="847.08" cy="320.35" r="1.6666666666666667" />
<circle cx="847.35" cy="324.33" r="1.6666666666666667" />
<circle cx="847.62" cy="322.42" r="1.6666666666666667" />
<circle cx="847.88" cy="322.37" r="1.6666666666666667" />
<circle cx="848.15" cy="318.02" r="1.6666666666666667" />
<circle cx="848.42" cy="326.86" r="1.6666666666666667" />
<circle cx="848.68" cy="320.45" r="1.6666666666666667" />
<circle cx="848.94" cy="316.19" r="1.6666666666666667" />
<circle cx="849.20" cy="314.45" r="1.6666666666666667" />
<circle cx="849.46" cy="314.67" r="1.6666666666666667" />
<circle cx="849.73" cy="326.13" r="1.6666666666666667" />
<circle cx="850.00" cy="326.57" r="1.6666666666666667" />
</g>
<g stroke="black">
<line x1="209.40" x2="209.40" y1="510.00" y2="520.00" />
<line x1="387.87" x2="387.87" y1="510.00" y2="520.00" />
<line x1="566.34" x2="566.34" y1="510.00" y2="520.00" />
<line x1="744.81" x2="744.81" y1="510.00" y2="520.00" />
<g fill="black" font-family="Arial, sans-serif" font-size="18.0" stroke="none" text-anchor="start" transform="translate(9.0 0.0)">
<text x="209.40" y="530.57">19400</text>
<text x="387.87" y="530.57">19500</text>
<text x="566.34" y="530.57">19600</text>
<text x="744.81" y="530.57">19700</text>
</g>
<line x1="150.00" x2="850.00" y1="510.00" y2="510.00" />
</g>
<g stroke="black">
<line x1="150.00" x2="140.00" y1="217.36" y2="217.36" />
<g fill="black" font-family="Arial, sans-serif" font-size="18.0" stroke="none" text-anchor="end">
<text x="141.00" y="208.36">10</text>
</g>
<line x1="150.00" x2="150.00" y1="510.00" y2="90.00" />
</g>
</g>
</svg>