<?xml version="1.0"?>
<svg version="1.1" viewBox="0 0 1000 600" xmlns:xlink="http://www.w3.org/1999/xlink" xmlns="http://www.w3.org/2000/svg">
<g>
<g>
<g>
<text dominant-baseline="hanging" dx="-18.0" dy="18.0" fill="#0088" font-family="Arial, sans-serif" font-size="18.0" font-style="italic" stroke="none" text-anchor="end" text-orientation="sideways" x="950.00" y="30.00">d18O</text>
</g>
<g>
<g>
<text dominant-baseline="central" fill="#8008" font-size="26.666666666666668" stroke="none" text-anchor="middle" tooltip="Vial    
Date: 2023-09-29
Comment: Note:
- Raplacing raing gauge `:RG04` (see pics)
- No water collected?" x="365.75" y="189.91">I</text>
<title>Vial    
Date: 2023-09-29
Comment: Note:
- Raplacing raing gauge `:RG04` (see pics)
- No water collected?</title>
</g>
<g>
<text dominant-baseline="central" fill="#8008" font-size="26.666666666666668" stroke="none" text-anchor="middle" tooltip="Vial    :AWKN
Date: 2024-02-22
Comment: " vial="AWKN" x="533.99" y="189.91">A</text>
<title>Vial    :AWKN
Date: 2024-02-22
Comment: </title>
</g>
<g>
<text dominant-baseline="central" fill="#8008" font-size="26.666666666666668" stroke="none" text-anchor="middle" tooltip="Vial    :NONE
Date: 2024-06-17
Comment: Not in the images.. Not sure why" vial="NONE" x="667.67" y="189.91">A</text>
<title>Vial    :NONE
Date: 2024-06-17
Comment: Not in the images.. Not sure why</title>
</g>
<g>
<text dominant-baseline="central" fill="#8008" font-size="26.666666666666668" stroke="none" text-anchor="middle" tooltip="Vial    :NONE
Date: 2024-06-24
Comment: Missing.." vial="NONE" x="675.74" y="189.91">A</text>
<title>Vial    :NONE
Date: 2024-06-24
Comment: Missing..</title>
</g>
<g>
<text dominant-baseline="central" fill="#8008" font-size="26.666666666666668" stroke="none" text-anchor="middle" tooltip="Vial    :NONE
Date: 2024-07-06
Comment: Missing.." vial="NONE" x="689.56" y="189.91">A</text>
<title>Vial    :NONE
Date: 2024-07-06
Comment: Missing..</title>
</g>
</g>
<polyline fill="none" points="648.08,353.11 630.79,317.11 608.90,250.12 596.22,307.78 575.48,295.04 550.13,301.60" stroke-dasharray="3.6 3.6" stroke-width="3.6" stroke="#0804" />
<polyline fill="none" points="515.56,304.62 497.12,307.74 477.53,312.46 463.70,317.58 451.02,305.56 426.82,338.77 406.08,341.04 391.10,343.38 372.66,348.05" stroke-dasharray="3.6 3.6" stroke-width="3.6" stroke="#0804" />
<polyline fill="none" points="355.38,332.57 336.94,336.58 320.81,316.15 298.91,314.20 283.93,329.95 266.65,321.11 256.27,321.45 240.14,319.61 225.16,247.84 210.18,325.39 199.81,315.80 184.83,305.51 169.85,310.49 159.48,328.78 147.95,321.50 136.43,323.65 120.29,323.47 111.08,326.72 81.11,324.38 62.68,246.53 50.00,334.30" stroke-dasharray="3.6 3.6" stroke-width="3.6" stroke="#0804" />
<g>
<g>
<circle cx="50.00" cy="334.30" fill="#0088" r="3.3333333333333335" stroke="#0088" tooltip="Vial    :APUJ
Date: 2022-12-29
Comment: Notes:
2022-11-24 :: `RG04` installed " vial="APUJ" />
<title>Vial    :APUJ
Date: 2022-12-29
Comment: Notes:
2022-11-24 :: `RG04` installed </title>
</g>
<g>
<circle cx="62.68" cy="246.53" fill="#0088" r="3.3333333333333335" stroke="#0088" tooltip="Vial    :ASWM
Date: 2023-01-09
Comment: " vial="ASWM" />
<title>Vial    :ASWM
Date: 2023-01-09
Comment: </title>
</g>
<g>
<circle cx="81.11" cy="324.38" fill="#0088" r="3.3333333333333335" stroke="#0088" tooltip="Vial    :AWHM
Date: 2023-01-25
Comment: " vial="AWHM" />
<title>Vial    :AWHM
Date: 2023-01-25
Comment: </title>
</g>
<g>
<circle cx="111.08" cy="326.72" fill="#0088" r="3.3333333333333335" stroke="#0088" tooltip="Vial    :AZAX
Date: 2023-02-20
Comment: " vial="AZAX" />
<title>Vial    :AZAX
Date: 2023-02-20
Comment: </title>
</g>
<g>
<circle cx="120.29" cy="323.47" fill="#0088" r="3.3333333333333335" stroke="#0088" tooltip="Vial    :AAVS
Date: 2023-02-28
Comment: " vial="AAVS" />
<title>Vial    :AAVS
Date: 2023-02-28
Comment: </title>
</g>
<g>
<circle cx="136.43" cy="323.65" fill="#0088" r="3.3333333333333335" stroke="#0088" tooltip="Vial    :AWZS
Date: 2023-03-14
Comment: " vial="AWZS" />
<title>Vial    :AWZS
Date: 2023-03-14
Comment: </title>
</g>
<g>
<circle cx="147.95" cy="321.50" fill="#0088" r="3.3333333333333335" stroke="#0088" tooltip="Vial    :AGWT
Date: 2023-03-24
Comment: " vial="AGWT" />
<title>Vial    :AGWT
Date: 2023-03-24
Comment: </title>
</g>
<g>
<circle cx="159.48" cy="328.78" fill="#0088" r="3.3333333333333335" stroke="#0088" tooltip="Vial    :ACLW
Date: 2023-04-03
Comment: " vial="ACLW" />
<title>Vial    :ACLW
Date: 2023-04-03
Comment: </title>
</g>
<g>
<circle cx="169.85" cy="310.49" fill="#0088" r="3.3333333333333335" stroke="#0088" tooltip="Vial    :AAEM
Date: 2023-04-12
Comment: " vial="AAEM" />
<title>Vial    :AAEM
Date: 2023-04-12
Comment: </title>
</g>
<g>
<circle cx="184.83" cy="305.51" fill="#0088" r="3.3333333333333335" stroke="#0088" tooltip="Vial    :AQFK
Date: 2023-04-25
Comment: " vial="AQFK" />
<title>Vial    :AQFK
Date: 2023-04-25
Comment: </title>
</g>
<g>
<circle cx="199.81" cy="315.80" fill="#0088" r="3.3333333333333335" stroke="#0088" tooltip="Vial    :AFQH
Date: 2023-05-08
Comment: " vial="AFQH" />
<title>Vial    :AFQH
Date: 2023-05-08
Comment: </title>
</g>
<g>
<circle cx="210.18" cy="325.39" fill="#0088" r="3.3333333333333335" stroke="#0088" tooltip="Vial    :AYFP
Date: 2023-05-17
Comment: " vial="AYFP" />
<title>Vial    :AYFP
Date: 2023-05-17
Comment: </title>
</g>
<g>
<circle cx="225.16" cy="247.84" fill="#0088" r="3.3333333333333335" stroke="#0088" tooltip="Vial    :AQEX
Date: 2023-05-30
Comment: " vial="AQEX" />
<title>Vial    :AQEX
Date: 2023-05-30
Comment: </title>
</g>
<g>
<circle cx="240.14" cy="319.61" fill="#0088" r="3.3333333333333335" stroke="#0088" tooltip="Vial    :AWRW
Date: 2023-06-12
Comment: " vial="AWRW" />
<title>Vial    :AWRW
Date: 2023-06-12
Comment: </title>
</g>
<g>
<circle cx="256.27" cy="321.45" fill="#0088" r="3.3333333333333335" stroke="#0088" tooltip="Vial    :AJBL
Date: 2023-06-26
Comment: " vial="AJBL" />
<title>Vial    :AJBL
Date: 2023-06-26
Comment: </title>
</g>
<g>
<circle cx="266.65" cy="321.11" fill="#0088" r="3.3333333333333335" stroke="#0088" tooltip="Vial    :APKN
Date: 2023-07-05
Comment: " vial="APKN" />
<title>Vial    :APKN
Date: 2023-07-05
Comment: </title>
</g>
<g>
<circle cx="283.93" cy="329.95" fill="#0088" r="3.3333333333333335" stroke="#0088" tooltip="Vial    :AFBC
Date: 2023-07-20
Comment: " vial="AFBC" />
<title>Vial    :AFBC
Date: 2023-07-20
Comment: </title>
</g>
<g>
<circle cx="298.91" cy="314.20" fill="#0088" r="3.3333333333333335" stroke="#0088" tooltip="Vial    :AYER
Date: 2023-08-02
Comment: " vial="AYER" />
<title>Vial    :AYER
Date: 2023-08-02
Comment: </title>
</g>
<g>
<circle cx="320.81" cy="316.15" fill="#0088" r="3.3333333333333335" stroke="#0088" tooltip="Vial    :ADBM
Date: 2023-08-21
Comment: " vial="ADBM" />
<title>Vial    :ADBM
Date: 2023-08-21
Comment: </title>
</g>
<g>
<circle cx="336.94" cy="336.58" fill="#0088" r="3.3333333333333335" stroke="#0088" tooltip="Vial    :ARFP
Date: 2023-09-04
Comment: " vial="ARFP" />
<title>Vial    :ARFP
Date: 2023-09-04
Comment: </title>
</g>
<g>
<circle cx="355.38" cy="332.57" fill="#0088" r="3.3333333333333335" stroke="#0088" tooltip="Vial    :AHHT
Date: 2023-09-20
Comment: " vial="AHHT" />
<title>Vial    :AHHT
Date: 2023-09-20
Comment: </title>
</g>
<g>
<circle cx="372.66" cy="348.05" fill="#0088" r="3.3333333333333335" stroke="#0088" tooltip="Vial    :AUSZ
Date: 2023-10-05
Comment: Note:
- Transparent Lid/Cover replaced
- Now it&apos;s a narrower green funnel 
- Pics show bottle `:C` is attached
- Gauge confirmed to have no-num" vial="AUSZ" />
<title>Vial    :AUSZ
Date: 2023-10-05
Comment: Note:
- Transparent Lid/Cover replaced
- Now it's a narrower green funnel 
- Pics show bottle `:C` is attached
- Gauge confirmed to have no-num</title>
</g>
<g>
<circle cx="391.10" cy="343.38" fill="#0088" r="3.3333333333333335" stroke="#0088" tooltip="Vial    :AYNS
Date: 2023-10-21
Comment: " vial="AYNS" />
<title>Vial    :AYNS
Date: 2023-10-21
Comment: </title>
</g>
<g>
<circle cx="406.08" cy="341.04" fill="#0088" r="3.3333333333333335" stroke="#0088" tooltip="Vial    :ASNN
Date: 2023-11-03
Comment: " vial="ASNN" />
<title>Vial    :ASNN
Date: 2023-11-03
Comment: </title>
</g>
<g>
<circle cx="426.82" cy="338.77" fill="#0088" r="3.3333333333333335" stroke="#0088" tooltip="Vial    :AKXF
Date: 2023-11-21
Comment: " vial="AKXF" />
<title>Vial    :AKXF
Date: 2023-11-21
Comment: </title>
</g>
<g>
<circle cx="451.02" cy="305.56" fill="#0088" r="3.3333333333333335" stroke="#0088" tooltip="Vial    :AQLK
Date: 2023-12-12
Comment: " vial="AQLK" />
<title>Vial    :AQLK
Date: 2023-12-12
Comment: </title>
</g>
<g>
<circle cx="463.70" cy="317.58" fill="#0088" r="3.3333333333333335" stroke="#0088" tooltip="Vial    :ABER
Date: 2023-12-23
Comment: " vial="ABER" />
<title>Vial    :ABER
Date: 2023-12-23
Comment: </title>
</g>
<g>
<circle cx="477.53" cy="312.46" fill="#0088" r="3.3333333333333335" stroke="#0088" tooltip="Vial    :ATEJ
Date: 2024-01-04
Comment: " vial="ATEJ" />
<title>Vial    :ATEJ
Date: 2024-01-04
Comment: </title>
</g>
<g>
<circle cx="497.12" cy="307.74" fill="#0088" r="3.3333333333333335" stroke="#0088" tooltip="Vial    :AVNL
Date: 2024-01-21
Comment: " vial="AVNL" />
<title>Vial    :AVNL
Date: 2024-01-21
Comment: </title>
</g>
<g>
<circle cx="515.56" cy="304.62" fill="#0088" r="3.3333333333333335" stroke="#0088" tooltip="Vial    :AFBW
Date: 2024-02-06
Comment: " vial="AFBW" />
<title>Vial    :AFBW
Date: 2024-02-06
Comment: </title>
</g>
<g>
<circle cx="550.13" cy="301.60" fill="#0088" r="3.3333333333333335" stroke="#0088" tooltip="Vial    :AXHS
Date: 2024-03-07
Comment: " vial="AXHS" />
<title>Vial    :AXHS
Date: 2024-03-07
Comment: </title>
</g>
<g>
<circle cx="575.48" cy="295.04" fill="#0088" r="3.3333333333333335" stroke="#0088" tooltip="Vial    :AZAJ
Date: 2024-03-29
Comment: " vial="AZAJ" />
<title>Vial    :AZAJ
Date: 2024-03-29
Comment: </title>
</g>
<g>
<circle cx="596.22" cy="307.78" fill="#0088" r="3.3333333333333335" stroke="#0088" tooltip="Vial    :AHPD
Date: 2024-04-16
Comment: " vial="AHPD" />
<title>Vial    :AHPD
Date: 2024-04-16
Comment: </title>
</g>
<g>
<circle cx="608.90" cy="250.12" fill="#0088" r="3.3333333333333335" stroke="#0088" tooltip="Vial    :AZUG
Date: 2024-04-27
Comment: " vial="AZUG" />
<title>Vial    :AZUG
Date: 2024-04-27
Comment: </title>
</g>
<g>
<circle cx="630.79" cy="317.11" fill="#0088" r="3.3333333333333335" stroke="#0088" tooltip="Vial    :AJML
Date: 2024-05-16
Comment: memory card can&apos;t read (On top of last time&apos;s three that had issues - R03 R19 (empty file) R06 (no file)" vial="AJML" />
<title>Vial    :AJML
Date: 2024-05-16
Comment: memory card can't read (On top of last time's three that had issues - R03 R19 (empty file) R06 (no file)</title>
</g>
<g>
<circle cx="648.08" cy="353.11" fill="#0088" r="3.3333333333333335" stroke="#0088" tooltip="Vial    :AHKX
Date: 2024-05-31
Comment: " vial="AHKX" />
<title>Vial    :AHKX
Date: 2024-05-31
Comment: </title>
</g>
</g>
<g stroke="#0088">
<line x1="931.23" x2="931.23" y1="30.00" y2="30.00" />
<line x1="895.50" x2="895.50" y1="30.00" y2="30.00" />
<line x1="859.78" x2="859.78" y1="30.00" y2="30.00" />
<line x1="825.21" x2="825.21" y1="30.00" y2="30.00" />
<line x1="789.48" x2="789.48" y1="30.00" y2="30.00" />
<line x1="754.91" x2="754.91" y1="30.00" y2="30.00" />
<line x1="719.19" x2="719.19" y1="30.00" y2="30.00" />
<line x1="683.47" x2="683.47" y1="30.00" y2="30.00" />
<line x1="648.90" x2="648.90" y1="30.00" y2="30.00" />
<line x1="613.17" x2="613.17" y1="30.00" y2="30.00" />
<line x1="578.60" x2="578.60" y1="30.00" y2="30.00" />
<line x1="542.88" x2="542.88" y1="30.00" y2="30.00" />
<line x1="509.46" x2="509.46" y1="30.00" y2="30.00" />
<line x1="473.74" x2="473.74" y1="30.00" y2="30.00" />
<line x1="438.01" x2="438.01" y1="30.00" y2="30.00" />
<line x1="403.44" x2="403.44" y1="30.00" y2="30.00" />
<line x1="367.72" x2="367.72" y1="30.00" y2="30.00" />
<line x1="333.15" x2="333.15" y1="30.00" y2="30.00" />
<line x1="297.42" x2="297.42" y1="30.00" y2="30.00" />
<line x1="261.70" x2="261.70" y1="30.00" y2="30.00" />
<line x1="227.13" x2="227.13" y1="30.00" y2="30.00" />
<line x1="191.41" x2="191.41" y1="30.00" y2="30.00" />
<line x1="156.83" x2="156.83" y1="30.00" y2="30.00" />
<line x1="121.11" x2="121.11" y1="30.00" y2="30.00" />
<line x1="88.84" x2="88.84" y1="30.00" y2="30.00" />
<line x1="53.12" x2="53.12" y1="30.00" y2="30.00" />
<g fill="none" font-family="Arial, sans-serif" font-size="18.0" stroke="none" text-anchor="start" transform="translate(9.0 0.0)">
<text x="931.23" y="23.74">Feb</text>
<text x="895.50" y="23.74">Jan</text>
<text x="859.78" y="23.74">Dec</text>
<text x="825.21" y="23.74">Nov</text>
<text x="789.48" y="23.74">Oct</text>
<text x="754.91" y="23.74">Sep</text>
<text x="719.19" y="23.74">Aug</text>
<text x="683.47" y="23.74">Jul</text>
<text x="648.90" y="23.74">Jun</text>
<text x="613.17" y="23.74">May</text>
<text x="578.60" y="23.74">Apr</text>
<text x="542.88" y="23.74">Mar</text>
<text x="509.46" y="23.74">Feb</text>
<text x="473.74" y="23.74">Jan</text>
<text x="438.01" y="23.74">Dec</text>
<text x="403.44" y="23.74">Nov</text>
<text x="367.72" y="23.74">Oct</text>
<text x="333.15" y="23.74">Sep</text>
<text x="297.42" y="23.74">Aug</text>
<text x="261.70" y="23.74">Jul</text>
<text x="227.13" y="23.74">Jun</text>
<text x="191.41" y="23.74">May</text>
<text x="156.83" y="23.74">Apr</text>
<text x="121.11" y="23.74">Mar</text>
<text x="88.84" y="23.74">Feb</text>
<text x="53.12" y="23.74">Jan</text>
</g>
<line x1="50.00" x2="950.00" y1="30.00" y2="30.00" />
</g>
<g stroke="#0088">
<line x1="950.00" x2="962.00" y1="488.92" y2="488.92" />
<line x1="950.00" x2="962.00" y1="189.91" y2="189.91" />
<g fill="#0088" font-family="Arial, sans-serif" font-size="18.0" stroke="none" text-anchor="beginning">
<text x="959.00" y="479.92">-10</text>
<text x="959.00" y="180.91">0</text>
</g>
<line x1="950.00" x2="950.00" y1="570.00" y2="30.00" />
</g>
</g>
<g>
<g stroke-dasharray="3.6 7.2" stroke-width="0.72" stroke="#caa">
<line x1="892.89" x2="892.89" y1="546.00" y2="54.00" />
<line x1="860.35" x2="860.35" y1="546.00" y2="54.00" />
<line x1="827.80" x2="827.80" y1="546.00" y2="54.00" />
<line x1="796.30" x2="796.30" y1="546.00" y2="54.00" />
<line x1="763.75" x2="763.75" y1="546.00" y2="54.00" />
<line x1="732.25" x2="732.25" y1="546.00" y2="54.00" />
<line x1="699.71" x2="699.71" y1="546.00" y2="54.00" />
<line x1="667.16" x2="667.16" y1="546.00" y2="54.00" />
<line x1="635.66" x2="635.66" y1="546.00" y2="54.00" />
<line x1="603.11" x2="603.11" y1="546.00" y2="54.00" />
<line x1="571.61" x2="571.61" y1="546.00" y2="54.00" />
<line x1="539.07" x2="539.07" y1="546.00" y2="54.00" />
<line x1="508.62" x2="508.62" y1="546.00" y2="54.00" />
<line x1="476.07" x2="476.07" y1="546.00" y2="54.00" />
<line x1="443.52" x2="443.52" y1="546.00" y2="54.00" />
<line x1="412.02" x2="412.02" y1="546.00" y2="54.00" />
<line x1="379.48" x2="379.48" y1="546.00" y2="54.00" />
<line x1="347.98" x2="347.98" y1="546.00" y2="54.00" />
<line x1="315.43" x2="315.43" y1="546.00" y2="54.00" />
<line x1="282.88" x2="282.88" y1="546.00" y2="54.00" />
<line x1="251.38" x2="251.38" y1="546.00" y2="54.00" />
<line x1="218.84" x2="218.84" y1="546.00" y2="54.00" />
<line x1="187.34" x2="187.34" y1="546.00" y2="54.00" />
<line x1="154.79" x2="154.79" y1="546.00" y2="54.00" />
<line x1="125.39" x2="125.39" y1="546.00" y2="54.00" />
<line x1="92.84" x2="92.84" y1="546.00" y2="54.00" />
<line x1="90.00" x2="910.00" y1="546.00" y2="546.00" />
<line x1="90.00" x2="910.00" y1="201.94" y2="201.94" />
</g>
<g>
<text dominant-baseline="hanging" dx="-36.0" dy="18.0" fill="#0004" font-family="Arial, sans-serif" font-size="36" stroke="none" text-anchor="end" x="910.00" y="98.73">ThMuCH2Sh02PairTall</text>
</g>
<g>
<text dominant-baseline="text-bottom" dy="0" fill="black" font-family="Arial, sans-serif" font-size="18.0" font-style="italic" stroke="none" text-anchor="middle" x="500.00" y="54.00">Years 2022 to 2025</text>
</g>
<g>
<text dominant-baseline="hanging" dx="18.0" dy="18.0" fill="black" font-family="Arial, sans-serif" font-size="18.0" font-style="italic" stroke="none" text-anchor="beginning" text-orientation="sideways" x="90.00" y="54.00">log(Drips per day)</text>
</g>
<polyline fill="none" points="102.52,490.11 102.73,490.13 102.94,490.02 103.14,490.00 103.36,491.00 103.56,490.15 103.76,489.16 103.96,487.82 104.16,489.78 104.37,490.33 104.58,490.30 104.78,489.54 104.99,490.42 105.20,489.94 105.41,490.57 105.61,490.05 105.82,489.66 106.03,490.75 106.23,489.87 106.44,490.24 106.65,489.67 106.86,490.93 107.07,490.32 107.27,490.18 107.49,491.85 107.70,491.27 107.90,489.03 108.12,491.82 108.33,490.79 108.54,490.02 108.75,490.36 108.95,488.98 109.15,489.70 109.35,489.35 109.58,492.51 109.79,491.21 110.00,490.98 110.22,491.46 110.43,490.79 110.65,491.82 110.85,490.35 111.05,488.82 111.26,489.71 111.47,490.52 111.68,490.61 111.88,489.73 112.09,490.20 112.30,490.86 112.50,489.57 112.71,490.44 112.92,490.75 113.13,490.48 113.34,490.87 113.56,490.93 113.77,491.41 113.99,491.40 114.20,491.79 114.43,493.04 114.64,491.38 114.85,490.73 115.08,493.05 115.29,491.25 115.51,492.05 115.72,490.63 115.94,491.54 116.16,491.91 116.37,490.93 116.58,491.49 119.64,492.70 119.86,492.02 120.08,492.75 120.31,492.58 120.53,492.17 120.75,492.95 120.97,492.73 121.20,493.79 121.44,494.64 121.66,492.59 121.89,492.98 122.12,494.54 122.36,495.01 122.59,493.28 122.81,491.99 123.03,492.83 123.25,492.09 123.47,492.72 123.70,494.20 123.93,492.54 124.15,493.31 124.38,493.32 124.61,493.52 124.84,494.12 125.07,493.89 125.30,493.41 125.53,494.14 125.76,493.37 125.99,493.76 467.18,210.29 467.18,202.62 467.18,154.92 467.18,234.14" stroke-dasharray="3.6 3.6" stroke-width="3.6" stroke="none" />
<g>
<circle cx="102.52" cy="490.11" fill="#0002" r="1.6666666666666667" stroke="none" />
<circle cx="102.73" cy="490.13" fill="#0002" r="1.6666666666666667" stroke="none" />
<circle cx="102.94" cy="490.02" fill="#0002" r="1.6666666666666667" stroke="none" />
<circle cx="103.14" cy="490.00" fill="#0002" r="1.6666666666666667" stroke="none" />
<circle cx="103.36" cy="491.00" fill="#0002" r="1.6666666666666667" stroke="none" />
<circle cx="103.56" cy="490.15" fill="#0002" r="1.6666666666666667" stroke="none" />
<circle cx="103.76" cy="489.16" fill="#0002" r="1.6666666666666667" stroke="none" />
<circle cx="103.96" cy="487.82" fill="#0002" r="1.6666666666666667" stroke="none" />
<circle cx="104.16" cy="489.78" fill="#0002" r="1.6666666666666667" stroke="none" />
<circle cx="104.37" cy="490.33" fill="#0002" r="1.6666666666666667" stroke="none" />
<circle cx="104.58" cy="490.30" fill="#0002" r="1.6666666666666667" stroke="none" />
<circle cx="104.78" cy="489.54" fill="#0002" r="1.6666666666666667" stroke="none" />
<circle cx="104.99" cy="490.42" fill="#0002" r="1.6666666666666667" stroke="none" />
<circle cx="105.20" cy="489.94" fill="#0002" r="1.6666666666666667" stroke="none" />
<circle cx="105.41" cy="490.57" fill="#0002" r="1.6666666666666667" stroke="none" />
<circle cx="105.61" cy="490.05" fill="#0002" r="1.6666666666666667" stroke="none" />
<circle cx="105.82" cy="489.66" fill="#0002" r="1.6666666666666667" stroke="none" />
<circle cx="106.03" cy="490.75" fill="#0002" r="1.6666666666666667" stroke="none" />
<circle cx="106.23" cy="489.87" fill="#0002" r="1.6666666666666667" stroke="none" />
<circle cx="106.44" cy="490.24" fill="#0002" r="1.6666666666666667" stroke="none" />
<circle cx="106.65" cy="489.67" fill="#0002" r="1.6666666666666667" stroke="none" />
<circle cx="106.86" cy="490.93" fill="#0002" r="1.6666666666666667" stroke="none" />
<circle cx="107.07" cy="490.32" fill="#0002" r="1.6666666666666667" stroke="none" />
<circle cx="107.27" cy="490.18" fill="#0002" r="1.6666666666666667" stroke="none" />
<circle cx="107.49" cy="491.85" fill="#0002" r="1.6666666666666667" stroke="none" />
<circle cx="107.70" cy="491.27" fill="#0002" r="1.6666666666666667" stroke="none" />
<circle cx="107.90" cy="489.03" fill="#0002" r="1.6666666666666667" stroke="none" />
<circle cx="108.12" cy="491.82" fill="#0002" r="1.6666666666666667" stroke="none" />
<circle cx="108.33" cy="490.79" fill="#0002" r="1.6666666666666667" stroke="none" />
<circle cx="108.54" cy="490.02" fill="#0002" r="1.6666666666666667" stroke="none" />
<circle cx="108.75" cy="490.36" fill="#0002" r="1.6666666666666667" stroke="none" />
<circle cx="108.95" cy="488.98" fill="#0002" r="1.6666666666666667" stroke="none" />
<circle cx="109.15" cy="489.70" fill="#0002" r="1.6666666666666667" stroke="none" />
<circle cx="109.35" cy="489.35" fill="#0002" r="1.6666666666666667" stroke="none" />
<circle cx="109.58" cy="492.51" fill="#0002" r="1.6666666666666667" stroke="none" />
<circle cx="109.79" cy="491.21" fill="#0002" r="1.6666666666666667" stroke="none" />
<circle cx="110.00" cy="490.98" fill="#0002" r="1.6666666666666667" stroke="none" />
<circle cx="110.22" cy="491.46" fill="#0002" r="1.6666666666666667" stroke="none" />
<circle cx="110.43" cy="490.79" fill="#0002" r="1.6666666666666667" stroke="none" />
<circle cx="110.65" cy="491.82" fill="#0002" r="1.6666666666666667" stroke="none" />
<circle cx="110.85" cy="490.35" fill="#0002" r="1.6666666666666667" stroke="none" />
<circle cx="111.05" cy="488.82" fill="#0002" r="1.6666666666666667" stroke="none" />
<circle cx="111.26" cy="489.71" fill="#0002" r="1.6666666666666667" stroke="none" />
<circle cx="111.47" cy="490.52" fill="#0002" r="1.6666666666666667" stroke="none" />
<circle cx="111.68" cy="490.61" fill="#0002" r="1.6666666666666667" stroke="none" />
<circle cx="111.88" cy="489.73" fill="#0002" r="1.6666666666666667" stroke="none" />
<circle cx="112.09" cy="490.20" fill="#0002" r="1.6666666666666667" stroke="none" />
<circle cx="112.30" cy="490.86" fill="#0002" r="1.6666666666666667" stroke="none" />
<circle cx="112.50" cy="489.57" fill="#0002" r="1.6666666666666667" stroke="none" />
<circle cx="112.71" cy="490.44" fill="#0002" r="1.6666666666666667" stroke="none" />
<circle cx="112.92" cy="490.75" fill="#0002" r="1.6666666666666667" stroke="none" />
<circle cx="113.13" cy="490.48" fill="#0002" r="1.6666666666666667" stroke="none" />
<circle cx="113.34" cy="490.87" fill="#0002" r="1.6666666666666667" stroke="none" />
<circle cx="113.56" cy="490.93" fill="#0002" r="1.6666666666666667" stroke="none" />
<circle cx="113.77" cy="491.41" fill="#0002" r="1.6666666666666667" stroke="none" />
<circle cx="113.99" cy="491.40" fill="#0002" r="1.6666666666666667" stroke="none" />
<circle cx="114.20" cy="491.79" fill="#0002" r="1.6666666666666667" stroke="none" />
<circle cx="114.43" cy="493.04" fill="#0002" r="1.6666666666666667" stroke="none" />
<circle cx="114.64" cy="491.38" fill="#0002" r="1.6666666666666667" stroke="none" />
<circle cx="114.85" cy="490.73" fill="#0002" r="1.6666666666666667" stroke="none" />
<circle cx="115.08" cy="493.05" fill="#0002" r="1.6666666666666667" stroke="none" />
<circle cx="115.29" cy="491.25" fill="#0002" r="1.6666666666666667" stroke="none" />
<circle cx="115.51" cy="492.05" fill="#0002" r="1.6666666666666667" stroke="none" />
<circle cx="115.72" cy="490.63" fill="#0002" r="1.6666666666666667" stroke="none" />
<circle cx="115.94" cy="491.54" fill="#0002" r="1.6666666666666667" stroke="none" />
<circle cx="116.16" cy="491.91" fill="#0002" r="1.6666666666666667" stroke="none" />
<circle cx="116.37" cy="490.93" fill="#0002" r="1.6666666666666667" stroke="none" />
<circle cx="116.58" cy="491.49" fill="#0002" r="1.6666666666666667" stroke="none" />
<circle cx="119.64" cy="492.70" fill="#0002" r="1.6666666666666667" stroke="none" />
<circle cx="119.86" cy="492.02" fill="#0002" r="1.6666666666666667" stroke="none" />
<circle cx="120.08" cy="492.75" fill="#0002" r="1.6666666666666667" stroke="none" />
<circle cx="120.31" cy="492.58" fill="#0002" r="1.6666666666666667" stroke="none" />
<circle cx="120.53" cy="492.17" fill="#0002" r="1.6666666666666667" stroke="none" />
<circle cx="120.75" cy="492.95" fill="#0002" r="1.6666666666666667" stroke="none" />
<circle cx="120.97" cy="492.73" fill="#0002" r="1.6666666666666667" stroke="none" />
<circle cx="121.20" cy="493.79" fill="#0002" r="1.6666666666666667" stroke="none" />
<circle cx="121.44" cy="494.64" fill="#0002" r="1.6666666666666667" stroke="none" />
<circle cx="121.66" cy="492.59" fill="#0002" r="1.6666666666666667" stroke="none" />
<circle cx="121.89" cy="492.98" fill="#0002" r="1.6666666666666667" stroke="none" />
<circle cx="122.12" cy="494.54" fill="#0002" r="1.6666666666666667" stroke="none" />
<circle cx="122.36" cy="495.01" fill="#0002" r="1.6666666666666667" stroke="none" />
<circle cx="122.59" cy="493.28" fill="#0002" r="1.6666666666666667" stroke="none" />
<circle cx="122.81" cy="491.99" fill="#0002" r="1.6666666666666667" stroke="none" />
<circle cx="123.03" cy="492.83" fill="#0002" r="1.6666666666666667" stroke="none" />
<circle cx="123.25" cy="492.09" fill="#0002" r="1.6666666666666667" stroke="none" />
<circle cx="123.47" cy="492.72" fill="#0002" r="1.6666666666666667" stroke="none" />
<circle cx="123.70" cy="494.20" fill="#0002" r="1.6666666666666667" stroke="none" />
<circle cx="123.93" cy="492.54" fill="#0002" r="1.6666666666666667" stroke="none" />
<circle cx="124.15" cy="493.31" fill="#0002" r="1.6666666666666667" stroke="none" />
<circle cx="124.38" cy="493.32" fill="#0002" r="1.6666666666666667" stroke="none" />
<circle cx="124.61" cy="493.52" fill="#0002" r="1.6666666666666667" stroke="none" />
<circle cx="124.84" cy="494.12" fill="#0002" r="1.6666666666666667" stroke="none" />
<circle cx="125.07" cy="493.89" fill="#0002" r="1.6666666666666667" stroke="none" />
<circle cx="125.30" cy="493.41" fill="#0002" r="1.6666666666666667" stroke="none" />
<circle cx="125.53" cy="494.14" fill="#0002" r="1.6666666666666667" stroke="none" />
<circle cx="125.76" cy="493.37" fill="#0002" r="1.6666666666666667" stroke="none" />
<circle cx="125.99" cy="493.76" fill="#0002" r="1.6666666666666667" stroke="none" />
<circle cx="467.18" cy="210.29" fill="#0002" r="1.6666666666666667" stroke="none" />
<circle cx="467.18" cy="202.62" fill="#0002" r="1.6666666666666667" stroke="none" />
<circle cx="467.18" cy="154.92" fill="#0002" r="1.6666666666666667" stroke="none" />
<circle cx="467.18" cy="234.14" fill="#0002" r="1.6666666666666667" stroke="none" />
</g>
<g stroke="black">
<line x1="892.89" x2="892.89" y1="546.00" y2="556.00" />
<line x1="860.35" x2="860.35" y1="546.00" y2="556.00" />
<line x1="827.80" x2="827.80" y1="546.00" y2="556.00" />
<line x1="796.30" x2="796.30" y1="546.00" y2="556.00" />
<line x1="763.75" x2="763.75" y1="546.00" y2="556.00" />
<line x1="732.25" x2="732.25" y1="546.00" y2="556.00" />
<line x1="699.71" x2="699.71" y1="546.00" y2="556.00" />
<line x1="667.16" x2="667.16" y1="546.00" y2="556.00" />
<line x1="635.66" x2="635.66" y1="546.00" y2="556.00" />
<line x1="603.11" x2="603.11" y1="546.00" y2="556.00" />
<line x1="571.61" x2="571.61" y1="546.00" y2="556.00" />
<line x1="539.07" x2="539.07" y1="546.00" y2="556.00" />
<line x1="508.62" x2="508.62" y1="546.00" y2="556.00" />
<line x1="476.07" x2="476.07" y1="546.00" y2="556.00" />
<line x1="443.52" x2="443.52" y1="546.00" y2="556.00" />
<line x1="412.02" x2="412.02" y1="546.00" y2="556.00" />
<line x1="379.48" x2="379.48" y1="546.00" y2="556.00" />
<line x1="347.98" x2="347.98" y1="546.00" y2="556.00" />
<line x1="315.43" x2="315.43" y1="546.00" y2="556.00" />
<line x1="282.88" x2="282.88" y1="546.00" y2="556.00" />
<line x1="251.38" x2="251.38" y1="546.00" y2="556.00" />
<line x1="218.84" x2="218.84" y1="546.00" y2="556.00" />
<line x1="187.34" x2="187.34" y1="546.00" y2="556.00" />
<line x1="154.79" x2="154.79" y1="546.00" y2="556.00" />
<line x1="125.39" x2="125.39" y1="546.00" y2="556.00" />
<line x1="92.84" x2="92.84" y1="546.00" y2="556.00" />
<g fill="black" font-family="Arial, sans-serif" font-size="18.0" stroke="none" text-anchor="start" transform="translate(9.0 0.0)">
<text x="892.89" y="566.57">Feb</text>
<text x="860.35" y="566.57">Jan</text>
<text x="827.80" y="566.57">Dec</text>
<text x="796.30" y="566.57">Nov</text>
<text x="763.75" y="566.57">Oct</text>
<text x="732.25" y="566.57">Sep</text>
<text x="699.71" y="566.57">Aug</text>
<text x="667.16" y="566.57">Jul</text>
<text x="635.66" y="566.57">Jun</text>
<text x="603.11" y="566.57">May</text>
<text x="571.61" y="566.57">Apr</text>
<text x="539.07" y="566.57">Mar</text>
<text x="508.62" y="566.57">Feb</text>
<text x="476.07" y="566.57">Jan</text>
<text x="443.52" y="566.57">Dec</text>
<text x="412.02" y="566.57">Nov</text>
<text x="379.48" y="566.57">Oct</text>
<text x="347.98" y="566.57">Sep</text>
<text x="315.43" y="566.57">Aug</text>
<text x="282.88" y="566.57">Jul</text>
<text x="251.38" y="566.57">Jun</text>
<text x="218.84" y="566.57">May</text>
<text x="187.34" y="566.57">Apr</text>
<text x="154.79" y="566.57">Mar</text>
<text x="125.39" y="566.57">Feb</text>
<text x="92.84" y="566.57">Jan</text>
</g>
<line x1="90.00" x2="910.00" y1="546.00" y2="546.00" />
</g>
<g stroke="black">
<line x1="90.00" x2="78.00" y1="546.00" y2="546.00" />
<line x1="90.00" x2="78.00" y1="201.94" y2="201.94" />
<g fill="black" font-family="Arial, sans-serif" font-size="18.0" stroke="none" text-anchor="end">
<text x="81.00" y="537.00">0</text>
<text x="81.00" y="192.94">10</text>
</g>
<line x1="90.00" x2="90.00" y1="546.00" y2="54.00" />
</g>
</g>
</g>
</svg>