<?xml version="1.0"?>
<svg version="1.1" viewBox="0 0 1000 600" xmlns:xlink="http://www.w3.org/1999/xlink" xmlns="http://www.w3.org/2000/svg">
<g>
<g stroke-dasharray="3.6 7.2" stroke-width="0.72" stroke="#caa">
<line x1="839.86" x2="839.86" y1="510.00" y2="90.00" />
<line x1="791.78" x2="791.78" y1="510.00" y2="90.00" />
<line x1="740.39" x2="740.39" y1="510.00" y2="90.00" />
<line x1="689.00" x2="689.00" y1="510.00" y2="90.00" />
<line x1="639.26" x2="639.26" y1="510.00" y2="90.00" />
<line x1="587.87" x2="587.87" y1="510.00" y2="90.00" />
<line x1="538.13" x2="538.13" y1="510.00" y2="90.00" />
<line x1="486.74" x2="486.74" y1="510.00" y2="90.00" />
<line x1="435.35" x2="435.35" y1="510.00" y2="90.00" />
<line x1="385.61" x2="385.61" y1="510.00" y2="90.00" />
<line x1="334.22" x2="334.22" y1="510.00" y2="90.00" />
<line x1="284.48" x2="284.48" y1="510.00" y2="90.00" />
<line x1="233.09" x2="233.09" y1="510.00" y2="90.00" />
<line x1="186.67" x2="186.67" y1="510.00" y2="90.00" />
<line x1="150.00" x2="850.00" y1="510.00" y2="510.00" />
<line x1="150.00" x2="850.00" y1="216.29" y2="216.29" />
</g>
<g>
<text dominant-baseline="hanging" dx="-36.0" dy="18.0" fill="#0004" font-family="Arial, sans-serif" font-size="36" stroke="none" text-anchor="end" x="850.00" y="128.18">ThMuCh0ConjoinedBottom</text>
</g>
<g>
<text dominant-baseline="text-bottom" dy="-12.0" fill="black" font-family="Arial, sans-serif" font-size="18.0" font-style="italic" stroke="none" text-anchor="middle" x="500.00" y="90.00">Years 2023 to 2024</text>
</g>
<g>
<text dominant-baseline="central" dx="12.0" dy="12.0" fill="black" font-family="Arial, sans-serif" font-size="18.0" font-style="italic" stroke="none" text-anchor="middle" text-orientation="sideways" writing-mode="vertical-lr" x="850.00" y="300.00">log(Drips per day)</text>
</g>
<polyline fill="none" points="150.21,434.89 150.34,434.87 150.48,437.26 150.62,436.76 150.75,435.80 150.88,435.06 151.01,436.07 151.14,435.75 151.28,436.41 151.42,437.09 151.55,435.42 151.68,436.40 151.81,434.86 151.95,436.66 152.09,437.43 152.23,437.50 152.37,436.60 152.50,436.27 152.63,435.65 176.93,444.11 177.10,443.33 177.28,443.50 177.45,443.41 177.62,442.96 177.80,444.40 177.97,443.53 178.14,442.61 178.30,443.01 178.47,442.06 178.64,442.69 178.80,442.40 178.97,441.83 179.13,442.55 200.16,448.55 586.23,470.27 586.58,464.57 587.00,469.47 587.27,457.03 587.68,468.99 587.97,458.50 588.36,467.62 588.61,454.36 588.99,466.48 589.30,460.63 589.69,467.80 590.00,460.78 590.39,467.58 590.70,460.92 591.10,468.37 591.46,464.38 591.90,471.39 592.27,466.12 592.76,473.87 593.15,467.47 593.63,473.62 594.03,468.28 594.51,473.60 594.89,467.08 595.76,491.10 596.21,471.63 596.64,469.87 597.14,475.07 597.53,467.31 598.03,474.86 598.42,467.79 598.92,474.69 599.33,468.98 599.85,476.02 600.26,468.99 600.75,474.23 601.15,467.82 601.61,472.31 602.02,468.87 602.50,473.69 602.88,466.91 603.37,474.38 603.75,466.36 604.21,472.27 604.60,467.99 605.09,474.24 605.51,469.59 605.99,473.22 606.39,468.13 606.89,474.86 607.32,470.44 607.84,476.01 608.23,467.52 608.73,474.82 609.14,468.98 609.61,473.25 610.01,468.08 610.53,475.79 610.93,468.30 611.42,474.21 611.82,468.50 612.34,475.83 612.76,469.35 613.29,476.53 613.73,471.40 614.24,475.25 614.67,470.31 615.17,474.60 615.63,472.32 616.11,473.80 616.55,471.38 617.08,476.08 617.48,468.84 618.00,475.73 618.46,472.23 618.97,475.47 619.43,472.20 619.93,475.00 620.40,472.70 620.91,475.61 621.35,470.99 622.24,491.54 622.66,470.28 623.23,478.67 623.68,471.53 708.64,448.82 708.85,450.15 709.07,449.80 709.28,450.12 709.51,451.54 709.72,449.79 709.94,450.46 710.16,450.13 710.38,450.88 710.60,451.06 710.82,450.16 711.03,450.18 711.25,450.51 711.47,450.80 711.69,450.21 711.91,450.00 712.14,452.44 712.36,451.13 712.58,450.00 712.80,451.18 713.03,451.50 713.25,450.51 713.47,451.70 726.55,446.01 726.74,446.75 726.95,448.99 727.15,447.74 727.35,448.32 727.56,448.06 727.75,447.17 727.95,447.56 728.14,446.83 728.34,447.46 728.53,446.86 728.73,447.47 728.93,447.42 729.13,448.53 729.33,448.23 729.54,448.38 729.74,448.10 729.93,446.96 730.13,447.68 730.33,448.11 730.53,447.96 730.73,447.05 730.93,448.40 731.13,448.38 731.32,446.25 731.51,446.50 731.71,446.84 731.90,446.87 732.09,446.93 732.29,446.90 732.49,447.88 732.67,445.67 732.87,447.16 733.06,447.17 733.26,446.74 733.44,446.19 733.64,446.98 733.83,447.04 734.03,448.20 734.23,447.71 734.43,447.17 734.62,446.98 734.81,446.51 735.01,446.79 735.20,447.38 735.40,447.38 735.60,448.10 735.80,447.28 735.99,446.78 736.18,446.66 736.38,447.30 736.56,446.00 736.76,447.16 736.95,446.19 737.14,446.41 737.33,446.15 737.52,446.97 737.72,447.19 737.92,447.84 738.11,447.26 738.30,446.77 738.50,447.74 738.70,447.91 738.90,447.74 739.10,446.77 739.29,447.51 739.49,448.07 739.69,447.75 739.89,447.36 740.09,447.94 740.29,447.85 740.49,447.58 740.68,447.07 740.88,447.31 741.08,448.26 741.28,447.47 741.47,447.12 741.67,447.75 741.87,448.02 742.07,447.08 742.26,446.73 742.45,446.63 742.65,447.13 742.84,446.95 743.04,447.22 743.22,445.26 743.41,446.37 743.60,445.96 743.79,446.98 743.98,446.46 744.17,446.95 744.37,447.74 744.57,447.05 744.76,446.59 744.95,447.09 745.15,446.63 745.35,447.96 745.54,447.38 745.74,447.75 746.53,487.97 746.73,448.33 746.92,447.09 747.12,446.96 747.31,446.86 747.51,447.63 747.71,447.71 747.91,447.70 748.11,447.83 748.30,447.17 748.50,448.31 748.70,447.49 748.90,448.04 749.10,447.46 749.29,447.00 749.49,447.51 749.69,447.05 749.87,446.27 750.08,448.36 750.28,447.90 750.48,447.91 750.68,447.66 750.88,448.76 751.09,448.45 751.29,447.80 751.48,446.98 751.67,445.66 751.85,445.79 752.04,445.38 752.22,445.82 752.41,445.33 752.58,444.62 752.77,445.48 752.95,444.31 753.12,443.97 753.30,445.40 753.49,445.69 753.67,445.22 753.86,445.65 754.04,444.91 754.23,445.89 754.41,445.86 754.60,445.28 754.78,444.92 754.97,447.34 755.17,448.11 755.37,447.79 755.57,447.54 755.77,447.45 755.97,448.57 756.17,447.82 756.37,447.83 756.57,447.32 756.77,447.68 756.97,447.98 757.17,447.94 757.37,448.40 757.58,449.27 757.79,448.91 757.99,447.73 758.19,447.87 758.39,448.76 758.59,448.03 758.79,447.28 759.00,449.03 759.20,448.49 759.41,449.01 759.62,449.09 759.82,448.53 760.03,448.70 760.23,448.51 760.44,448.83 760.65,448.88 760.86,449.14 761.06,449.27 761.27,448.37 761.48,448.94 761.68,448.47 761.88,448.59 762.09,449.33 762.30,448.30 762.50,448.78 762.72,449.75 762.91,447.40 763.11,448.08 763.32,448.91 763.52,447.96 763.73,449.42 763.94,449.45 764.16,450.45 764.38,450.35 764.58,448.26 764.79,448.51 765.00,449.19 765.21,449.64 765.41,448.42 765.62,449.02 765.83,450.03 766.04,448.96 766.25,449.47 766.47,449.57 766.68,449.32 766.88,448.84 767.08,447.87 767.28,447.98 767.49,449.17 767.71,450.47 767.92,449.28 768.13,449.22 768.34,449.70 768.55,449.28 768.76,448.94 768.96,448.10 769.17,448.61 769.38,450.26 769.59,449.64 769.81,449.59 770.02,449.99 770.24,450.19 770.46,450.46 770.67,449.83 770.89,450.74 771.10,449.29 771.30,448.11 771.51,449.06 771.72,448.70 771.93,450.20 772.14,449.50 772.35,449.48 772.58,451.61 772.80,450.27 773.01,449.68 773.23,450.84 773.45,450.42 773.67,450.63 773.89,450.54 774.76,491.13 774.98,449.93 775.20,450.65 775.41,450.53 775.64,450.86 775.86,451.33 776.08,450.80 776.30,449.93 776.51,450.25 776.74,451.19 776.96,450.86 777.17,450.21 777.40,451.85 777.63,452.02 777.86,450.89 778.07,450.63 778.30,451.59 778.52,450.24 778.74,451.19 778.96,449.90 779.17,450.10 779.40,451.11 779.61,450.32 779.83,450.94 780.06,451.49 780.29,451.74 780.51,451.05 780.74,451.94 780.97,451.71 781.20,452.64 781.43,451.75 781.66,452.05 781.89,451.68 782.12,451.69 782.34,451.34 782.57,452.00 782.80,451.60 783.02,451.18 783.25,451.53 783.48,451.86 783.71,451.60 783.94,451.97 784.17,452.12 784.40,452.04 784.62,450.53 784.84,450.82 785.07,451.69 785.30,451.97 785.52,451.69 785.76,452.42 785.99,452.10 786.22,452.07 786.44,451.36 786.67,451.25 786.90,452.22 787.14,452.75 787.37,452.29 787.60,452.34 787.83,451.74 788.05,451.55 788.29,452.19 788.51,451.79 788.75,452.06 788.98,452.77 789.22,452.60 789.44,451.09 789.67,451.58 789.89,451.24 790.13,452.60 790.36,452.06 790.59,452.75 790.83,453.49 791.06,451.64 791.29,451.58 791.52,452.55 791.76,452.69 791.99,452.42 792.23,453.43 792.47,453.03 792.71,452.69 792.94,452.24 793.17,452.46 793.41,452.88 793.65,452.71 793.89,453.30 794.13,453.48 794.36,452.35 794.60,452.56 794.83,452.40 795.06,452.12 795.29,452.12 795.53,453.08 795.77,453.74 796.01,452.55 796.25,453.27 796.49,453.30 796.74,454.85 796.99,454.28 797.25,455.01 797.50,454.76 797.74,453.91 797.99,454.46 798.24,454.19 798.49,454.19 798.73,453.59 798.99,454.81 799.23,453.92 799.47,453.34 799.71,453.11 799.95,453.14 800.20,454.71 800.46,454.77 801.20,486.37 801.44,454.00 801.69,453.72 801.94,454.10 802.18,453.83 802.44,455.16 802.67,452.89 802.92,453.71 803.17,455.00 803.42,454.00 803.67,454.52 803.92,454.41 804.18,455.89 804.42,453.35 804.67,454.31 804.93,455.10 805.17,454.08 805.43,454.87 805.68,454.27 805.93,454.36 806.17,454.18 806.42,453.56 806.67,454.87 806.92,454.01 807.18,455.54 807.44,455.64 807.70,455.63 807.96,455.39 808.22,455.49 808.48,455.93 808.74,455.57 808.99,454.94 809.25,455.78 809.51,455.44 809.77,455.57 810.03,455.78 810.29,455.59 810.56,455.99 810.82,455.96 811.08,455.07 811.33,455.28 811.60,456.69 811.86,455.70 812.13,456.71 812.40,455.93 812.66,455.44 812.91,454.74 813.17,455.94 813.43,455.83 813.70,455.64 813.96,456.47 814.23,456.17 814.49,455.37 814.75,455.89 815.01,456.20 815.28,456.08 815.55,456.71 815.81,456.05 816.08,456.01 816.35,457.31 816.63,457.77 816.90,456.91 817.18,457.36 817.46,457.40 817.73,457.03 818.01,457.76 818.29,457.79 818.56,457.03 818.84,457.69 819.12,457.64 819.40,457.68 819.68,457.22 819.96,458.30 820.24,457.77 820.52,458.13 820.82,458.87 821.09,457.50 821.37,457.96 821.66,458.67 821.94,457.77 822.23,458.34 822.51,458.33 822.80,458.39 823.10,459.45 823.38,458.12 823.66,457.97 823.95,458.84 824.24,458.38 824.52,457.85 824.81,458.49 825.10,458.67 825.37,457.34 825.66,459.01 825.95,458.28 826.24,459.16 826.53,458.87 826.83,459.35 827.71,491.62 828.02,460.74 828.33,460.53 828.63,459.42 828.94,460.62 829.24,460.50 829.55,460.57 829.86,460.49 830.17,461.21 830.49,461.62 830.81,461.00 831.12,461.08 831.43,461.15 831.75,461.63 832.07,461.19 832.39,461.82 832.70,461.02 833.02,461.89 833.34,461.68 833.66,461.04 833.98,461.72 834.29,461.00 834.62,462.33 834.95,462.92 835.28,462.04 835.60,462.50 835.93,462.06 836.25,461.83 836.57,462.02 836.90,462.08 837.22,461.49 837.54,462.08 837.88,463.18 838.22,464.05 838.56,462.80 838.90,463.96 839.24,463.13 839.58,463.40 839.93,464.28 840.28,464.83 840.63,464.14 840.98,464.63 841.36,466.46 841.73,465.90 842.09,465.42 842.45,465.14 842.82,465.77 843.21,467.48 843.58,465.56 843.94,465.84 844.31,465.67 844.74,470.52 845.11,466.05 845.48,465.56 845.85,465.66 846.31,472.86 846.70,467.42 847.09,467.40 847.48,467.03 847.95,473.24 848.35,467.89 848.75,468.55 849.17,470.02 849.60,470.03 850.00,468.27" stroke-dasharray="3.6 3.6" stroke-width="3.6" stroke="#aaa" />
<g>
<circle cx="150.21" cy="434.89" r="1.6666666666666667" />
<circle cx="150.34" cy="434.87" r="1.6666666666666667" />
<circle cx="150.48" cy="437.26" r="1.6666666666666667" />
<circle cx="150.62" cy="436.76" r="1.6666666666666667" />
<circle cx="150.75" cy="435.80" r="1.6666666666666667" />
<circle cx="150.88" cy="435.06" r="1.6666666666666667" />
<circle cx="151.01" cy="436.07" r="1.6666666666666667" />
<circle cx="151.14" cy="435.75" r="1.6666666666666667" />
<circle cx="151.28" cy="436.41" r="1.6666666666666667" />
<circle cx="151.42" cy="437.09" r="1.6666666666666667" />
<circle cx="151.55" cy="435.42" r="1.6666666666666667" />
<circle cx="151.68" cy="436.40" r="1.6666666666666667" />
<circle cx="151.81" cy="434.86" r="1.6666666666666667" />
<circle cx="151.95" cy="436.66" r="1.6666666666666667" />
<circle cx="152.09" cy="437.43" r="1.6666666666666667" />
<circle cx="152.23" cy="437.50" r="1.6666666666666667" />
<circle cx="152.37" cy="436.60" r="1.6666666666666667" />
<circle cx="152.50" cy="436.27" r="1.6666666666666667" />
<circle cx="152.63" cy="435.65" r="1.6666666666666667" />
<circle cx="176.93" cy="444.11" r="1.6666666666666667" />
<circle cx="177.10" cy="443.33" r="1.6666666666666667" />
<circle cx="177.28" cy="443.50" r="1.6666666666666667" />
<circle cx="177.45" cy="443.41" r="1.6666666666666667" />
<circle cx="177.62" cy="442.96" r="1.6666666666666667" />
<circle cx="177.80" cy="444.40" r="1.6666666666666667" />
<circle cx="177.97" cy="443.53" r="1.6666666666666667" />
<circle cx="178.14" cy="442.61" r="1.6666666666666667" />
<circle cx="178.30" cy="443.01" r="1.6666666666666667" />
<circle cx="178.47" cy="442.06" r="1.6666666666666667" />
<circle cx="178.64" cy="442.69" r="1.6666666666666667" />
<circle cx="178.80" cy="442.40" r="1.6666666666666667" />
<circle cx="178.97" cy="441.83" r="1.6666666666666667" />
<circle cx="179.13" cy="442.55" r="1.6666666666666667" />
<circle cx="200.16" cy="448.55" r="1.6666666666666667" />
<circle cx="586.23" cy="470.27" r="1.6666666666666667" />
<circle cx="586.58" cy="464.57" r="1.6666666666666667" />
<circle cx="587.00" cy="469.47" r="1.6666666666666667" />
<circle cx="587.27" cy="457.03" r="1.6666666666666667" />
<circle cx="587.68" cy="468.99" r="1.6666666666666667" />
<circle cx="587.97" cy="458.50" r="1.6666666666666667" />
<circle cx="588.36" cy="467.62" r="1.6666666666666667" />
<circle cx="588.61" cy="454.36" r="1.6666666666666667" />
<circle cx="588.99" cy="466.48" r="1.6666666666666667" />
<circle cx="589.30" cy="460.63" r="1.6666666666666667" />
<circle cx="589.69" cy="467.80" r="1.6666666666666667" />
<circle cx="590.00" cy="460.78" r="1.6666666666666667" />
<circle cx="590.39" cy="467.58" r="1.6666666666666667" />
<circle cx="590.70" cy="460.92" r="1.6666666666666667" />
<circle cx="591.10" cy="468.37" r="1.6666666666666667" />
<circle cx="591.46" cy="464.38" r="1.6666666666666667" />
<circle cx="591.90" cy="471.39" r="1.6666666666666667" />
<circle cx="592.27" cy="466.12" r="1.6666666666666667" />
<circle cx="592.76" cy="473.87" r="1.6666666666666667" />
<circle cx="593.15" cy="467.47" r="1.6666666666666667" />
<circle cx="593.63" cy="473.62" r="1.6666666666666667" />
<circle cx="594.03" cy="468.28" r="1.6666666666666667" />
<circle cx="594.51" cy="473.60" r="1.6666666666666667" />
<circle cx="594.89" cy="467.08" r="1.6666666666666667" />
<circle cx="595.76" cy="491.10" r="1.6666666666666667" />
<circle cx="596.21" cy="471.63" r="1.6666666666666667" />
<circle cx="596.64" cy="469.87" r="1.6666666666666667" />
<circle cx="597.14" cy="475.07" r="1.6666666666666667" />
<circle cx="597.53" cy="467.31" r="1.6666666666666667" />
<circle cx="598.03" cy="474.86" r="1.6666666666666667" />
<circle cx="598.42" cy="467.79" r="1.6666666666666667" />
<circle cx="598.92" cy="474.69" r="1.6666666666666667" />
<circle cx="599.33" cy="468.98" r="1.6666666666666667" />
<circle cx="599.85" cy="476.02" r="1.6666666666666667" />
<circle cx="600.26" cy="468.99" r="1.6666666666666667" />
<circle cx="600.75" cy="474.23" r="1.6666666666666667" />
<circle cx="601.15" cy="467.82" r="1.6666666666666667" />
<circle cx="601.61" cy="472.31" r="1.6666666666666667" />
<circle cx="602.02" cy="468.87" r="1.6666666666666667" />
<circle cx="602.50" cy="473.69" r="1.6666666666666667" />
<circle cx="602.88" cy="466.91" r="1.6666666666666667" />
<circle cx="603.37" cy="474.38" r="1.6666666666666667" />
<circle cx="603.75" cy="466.36" r="1.6666666666666667" />
<circle cx="604.21" cy="472.27" r="1.6666666666666667" />
<circle cx="604.60" cy="467.99" r="1.6666666666666667" />
<circle cx="605.09" cy="474.24" r="1.6666666666666667" />
<circle cx="605.51" cy="469.59" r="1.6666666666666667" />
<circle cx="605.99" cy="473.22" r="1.6666666666666667" />
<circle cx="606.39" cy="468.13" r="1.6666666666666667" />
<circle cx="606.89" cy="474.86" r="1.6666666666666667" />
<circle cx="607.32" cy="470.44" r="1.6666666666666667" />
<circle cx="607.84" cy="476.01" r="1.6666666666666667" />
<circle cx="608.23" cy="467.52" r="1.6666666666666667" />
<circle cx="608.73" cy="474.82" r="1.6666666666666667" />
<circle cx="609.14" cy="468.98" r="1.6666666666666667" />
<circle cx="609.61" cy="473.25" r="1.6666666666666667" />
<circle cx="610.01" cy="468.08" r="1.6666666666666667" />
<circle cx="610.53" cy="475.79" r="1.6666666666666667" />
<circle cx="610.93" cy="468.30" r="1.6666666666666667" />
<circle cx="611.42" cy="474.21" r="1.6666666666666667" />
<circle cx="611.82" cy="468.50" r="1.6666666666666667" />
<circle cx="612.34" cy="475.83" r="1.6666666666666667" />
<circle cx="612.76" cy="469.35" r="1.6666666666666667" />
<circle cx="613.29" cy="476.53" r="1.6666666666666667" />
<circle cx="613.73" cy="471.40" r="1.6666666666666667" />
<circle cx="614.24" cy="475.25" r="1.6666666666666667" />
<circle cx="614.67" cy="470.31" r="1.6666666666666667" />
<circle cx="615.17" cy="474.60" r="1.6666666666666667" />
<circle cx="615.63" cy="472.32" r="1.6666666666666667" />
<circle cx="616.11" cy="473.80" r="1.6666666666666667" />
<circle cx="616.55" cy="471.38" r="1.6666666666666667" />
<circle cx="617.08" cy="476.08" r="1.6666666666666667" />
<circle cx="617.48" cy="468.84" r="1.6666666666666667" />
<circle cx="618.00" cy="475.73" r="1.6666666666666667" />
<circle cx="618.46" cy="472.23" r="1.6666666666666667" />
<circle cx="618.97" cy="475.47" r="1.6666666666666667" />
<circle cx="619.43" cy="472.20" r="1.6666666666666667" />
<circle cx="619.93" cy="475.00" r="1.6666666666666667" />
<circle cx="620.40" cy="472.70" r="1.6666666666666667" />
<circle cx="620.91" cy="475.61" r="1.6666666666666667" />
<circle cx="621.35" cy="470.99" r="1.6666666666666667" />
<circle cx="622.24" cy="491.54" r="1.6666666666666667" />
<circle cx="622.66" cy="470.28" r="1.6666666666666667" />
<circle cx="623.23" cy="478.67" r="1.6666666666666667" />
<circle cx="623.68" cy="471.53" r="1.6666666666666667" />
<circle cx="708.64" cy="448.82" r="1.6666666666666667" />
<circle cx="708.85" cy="450.15" r="1.6666666666666667" />
<circle cx="709.07" cy="449.80" r="1.6666666666666667" />
<circle cx="709.28" cy="450.12" r="1.6666666666666667" />
<circle cx="709.51" cy="451.54" r="1.6666666666666667" />
<circle cx="709.72" cy="449.79" r="1.6666666666666667" />
<circle cx="709.94" cy="450.46" r="1.6666666666666667" />
<circle cx="710.16" cy="450.13" r="1.6666666666666667" />
<circle cx="710.38" cy="450.88" r="1.6666666666666667" />
<circle cx="710.60" cy="451.06" r="1.6666666666666667" />
<circle cx="710.82" cy="450.16" r="1.6666666666666667" />
<circle cx="711.03" cy="450.18" r="1.6666666666666667" />
<circle cx="711.25" cy="450.51" r="1.6666666666666667" />
<circle cx="711.47" cy="450.80" r="1.6666666666666667" />
<circle cx="711.69" cy="450.21" r="1.6666666666666667" />
<circle cx="711.91" cy="450.00" r="1.6666666666666667" />
<circle cx="712.14" cy="452.44" r="1.6666666666666667" />
<circle cx="712.36" cy="451.13" r="1.6666666666666667" />
<circle cx="712.58" cy="450.00" r="1.6666666666666667" />
<circle cx="712.80" cy="451.18" r="1.6666666666666667" />
<circle cx="713.03" cy="451.50" r="1.6666666666666667" />
<circle cx="713.25" cy="450.51" r="1.6666666666666667" />
<circle cx="713.47" cy="451.70" r="1.6666666666666667" />
<circle cx="726.55" cy="446.01" r="1.6666666666666667" />
<circle cx="726.74" cy="446.75" r="1.6666666666666667" />
<circle cx="726.95" cy="448.99" r="1.6666666666666667" />
<circle cx="727.15" cy="447.74" r="1.6666666666666667" />
<circle cx="727.35" cy="448.32" r="1.6666666666666667" />
<circle cx="727.56" cy="448.06" r="1.6666666666666667" />
<circle cx="727.75" cy="447.17" r="1.6666666666666667" />
<circle cx="727.95" cy="447.56" r="1.6666666666666667" />
<circle cx="728.14" cy="446.83" r="1.6666666666666667" />
<circle cx="728.34" cy="447.46" r="1.6666666666666667" />
<circle cx="728.53" cy="446.86" r="1.6666666666666667" />
<circle cx="728.73" cy="447.47" r="1.6666666666666667" />
<circle cx="728.93" cy="447.42" r="1.6666666666666667" />
<circle cx="729.13" cy="448.53" r="1.6666666666666667" />
<circle cx="729.33" cy="448.23" r="1.6666666666666667" />
<circle cx="729.54" cy="448.38" r="1.6666666666666667" />
<circle cx="729.74" cy="448.10" r="1.6666666666666667" />
<circle cx="729.93" cy="446.96" r="1.6666666666666667" />
<circle cx="730.13" cy="447.68" r="1.6666666666666667" />
<circle cx="730.33" cy="448.11" r="1.6666666666666667" />
<circle cx="730.53" cy="447.96" r="1.6666666666666667" />
<circle cx="730.73" cy="447.05" r="1.6666666666666667" />
<circle cx="730.93" cy="448.40" r="1.6666666666666667" />
<circle cx="731.13" cy="448.38" r="1.6666666666666667" />
<circle cx="731.32" cy="446.25" r="1.6666666666666667" />
<circle cx="731.51" cy="446.50" r="1.6666666666666667" />
<circle cx="731.71" cy="446.84" r="1.6666666666666667" />
<circle cx="731.90" cy="446.87" r="1.6666666666666667" />
<circle cx="732.09" cy="446.93" r="1.6666666666666667" />
<circle cx="732.29" cy="446.90" r="1.6666666666666667" />
<circle cx="732.49" cy="447.88" r="1.6666666666666667" />
<circle cx="732.67" cy="445.67" r="1.6666666666666667" />
<circle cx="732.87" cy="447.16" r="1.6666666666666667" />
<circle cx="733.06" cy="447.17" r="1.6666666666666667" />
<circle cx="733.26" cy="446.74" r="1.6666666666666667" />
<circle cx="733.44" cy="446.19" r="1.6666666666666667" />
<circle cx="733.64" cy="446.98" r="1.6666666666666667" />
<circle cx="733.83" cy="447.04" r="1.6666666666666667" />
<circle cx="734.03" cy="448.20" r="1.6666666666666667" />
<circle cx="734.23" cy="447.71" r="1.6666666666666667" />
<circle cx="734.43" cy="447.17" r="1.6666666666666667" />
<circle cx="734.62" cy="446.98" r="1.6666666666666667" />
<circle cx="734.81" cy="446.51" r="1.6666666666666667" />
<circle cx="735.01" cy="446.79" r="1.6666666666666667" />
<circle cx="735.20" cy="447.38" r="1.6666666666666667" />
<circle cx="735.40" cy="447.38" r="1.6666666666666667" />
<circle cx="735.60" cy="448.10" r="1.6666666666666667" />
<circle cx="735.80" cy="447.28" r="1.6666666666666667" />
<circle cx="735.99" cy="446.78" r="1.6666666666666667" />
<circle cx="736.18" cy="446.66" r="1.6666666666666667" />
<circle cx="736.38" cy="447.30" r="1.6666666666666667" />
<circle cx="736.56" cy="446.00" r="1.6666666666666667" />
<circle cx="736.76" cy="447.16" r="1.6666666666666667" />
<circle cx="736.95" cy="446.19" r="1.6666666666666667" />
<circle cx="737.14" cy="446.41" r="1.6666666666666667" />
<circle cx="737.33" cy="446.15" r="1.6666666666666667" />
<circle cx="737.52" cy="446.97" r="1.6666666666666667" />
<circle cx="737.72" cy="447.19" r="1.6666666666666667" />
<circle cx="737.92" cy="447.84" r="1.6666666666666667" />
<circle cx="738.11" cy="447.26" r="1.6666666666666667" />
<circle cx="738.30" cy="446.77" r="1.6666666666666667" />
<circle cx="738.50" cy="447.74" r="1.6666666666666667" />
<circle cx="738.70" cy="447.91" r="1.6666666666666667" />
<circle cx="738.90" cy="447.74" r="1.6666666666666667" />
<circle cx="739.10" cy="446.77" r="1.6666666666666667" />
<circle cx="739.29" cy="447.51" r="1.6666666666666667" />
<circle cx="739.49" cy="448.07" r="1.6666666666666667" />
<circle cx="739.69" cy="447.75" r="1.6666666666666667" />
<circle cx="739.89" cy="447.36" r="1.6666666666666667" />
<circle cx="740.09" cy="447.94" r="1.6666666666666667" />
<circle cx="740.29" cy="447.85" r="1.6666666666666667" />
<circle cx="740.49" cy="447.58" r="1.6666666666666667" />
<circle cx="740.68" cy="447.07" r="1.6666666666666667" />
<circle cx="740.88" cy="447.31" r="1.6666666666666667" />
<circle cx="741.08" cy="448.26" r="1.6666666666666667" />
<circle cx="741.28" cy="447.47" r="1.6666666666666667" />
<circle cx="741.47" cy="447.12" r="1.6666666666666667" />
<circle cx="741.67" cy="447.75" r="1.6666666666666667" />
<circle cx="741.87" cy="448.02" r="1.6666666666666667" />
<circle cx="742.07" cy="447.08" r="1.6666666666666667" />
<circle cx="742.26" cy="446.73" r="1.6666666666666667" />
<circle cx="742.45" cy="446.63" r="1.6666666666666667" />
<circle cx="742.65" cy="447.13" r="1.6666666666666667" />
<circle cx="742.84" cy="446.95" r="1.6666666666666667" />
<circle cx="743.04" cy="447.22" r="1.6666666666666667" />
<circle cx="743.22" cy="445.26" r="1.6666666666666667" />
<circle cx="743.41" cy="446.37" r="1.6666666666666667" />
<circle cx="743.60" cy="445.96" r="1.6666666666666667" />
<circle cx="743.79" cy="446.98" r="1.6666666666666667" />
<circle cx="743.98" cy="446.46" r="1.6666666666666667" />
<circle cx="744.17" cy="446.95" r="1.6666666666666667" />
<circle cx="744.37" cy="447.74" r="1.6666666666666667" />
<circle cx="744.57" cy="447.05" r="1.6666666666666667" />
<circle cx="744.76" cy="446.59" r="1.6666666666666667" />
<circle cx="744.95" cy="447.09" r="1.6666666666666667" />
<circle cx="745.15" cy="446.63" r="1.6666666666666667" />
<circle cx="745.35" cy="447.96" r="1.6666666666666667" />
<circle cx="745.54" cy="447.38" r="1.6666666666666667" />
<circle cx="745.74" cy="447.75" r="1.6666666666666667" />
<circle cx="746.53" cy="487.97" r="1.6666666666666667" />
<circle cx="746.73" cy="448.33" r="1.6666666666666667" />
<circle cx="746.92" cy="447.09" r="1.6666666666666667" />
<circle cx="747.12" cy="446.96" r="1.6666666666666667" />
<circle cx="747.31" cy="446.86" r="1.6666666666666667" />
<circle cx="747.51" cy="447.63" r="1.6666666666666667" />
<circle cx="747.71" cy="447.71" r="1.6666666666666667" />
<circle cx="747.91" cy="447.70" r="1.6666666666666667" />
<circle cx="748.11" cy="447.83" r="1.6666666666666667" />
<circle cx="748.30" cy="447.17" r="1.6666666666666667" />
<circle cx="748.50" cy="448.31" r="1.6666666666666667" />
<circle cx="748.70" cy="447.49" r="1.6666666666666667" />
<circle cx="748.90" cy="448.04" r="1.6666666666666667" />
<circle cx="749.10" cy="447.46" r="1.6666666666666667" />
<circle cx="749.29" cy="447.00" r="1.6666666666666667" />
<circle cx="749.49" cy="447.51" r="1.6666666666666667" />
<circle cx="749.69" cy="447.05" r="1.6666666666666667" />
<circle cx="749.87" cy="446.27" r="1.6666666666666667" />
<circle cx="750.08" cy="448.36" r="1.6666666666666667" />
<circle cx="750.28" cy="447.90" r="1.6666666666666667" />
<circle cx="750.48" cy="447.91" r="1.6666666666666667" />
<circle cx="750.68" cy="447.66" r="1.6666666666666667" />
<circle cx="750.88" cy="448.76" r="1.6666666666666667" />
<circle cx="751.09" cy="448.45" r="1.6666666666666667" />
<circle cx="751.29" cy="447.80" r="1.6666666666666667" />
<circle cx="751.48" cy="446.98" r="1.6666666666666667" />
<circle cx="751.67" cy="445.66" r="1.6666666666666667" />
<circle cx="751.85" cy="445.79" r="1.6666666666666667" />
<circle cx="752.04" cy="445.38" r="1.6666666666666667" />
<circle cx="752.22" cy="445.82" r="1.6666666666666667" />
<circle cx="752.41" cy="445.33" r="1.6666666666666667" />
<circle cx="752.58" cy="444.62" r="1.6666666666666667" />
<circle cx="752.77" cy="445.48" r="1.6666666666666667" />
<circle cx="752.95" cy="444.31" r="1.6666666666666667" />
<circle cx="753.12" cy="443.97" r="1.6666666666666667" />
<circle cx="753.30" cy="445.40" r="1.6666666666666667" />
<circle cx="753.49" cy="445.69" r="1.6666666666666667" />
<circle cx="753.67" cy="445.22" r="1.6666666666666667" />
<circle cx="753.86" cy="445.65" r="1.6666666666666667" />
<circle cx="754.04" cy="444.91" r="1.6666666666666667" />
<circle cx="754.23" cy="445.89" r="1.6666666666666667" />
<circle cx="754.41" cy="445.86" r="1.6666666666666667" />
<circle cx="754.60" cy="445.28" r="1.6666666666666667" />
<circle cx="754.78" cy="444.92" r="1.6666666666666667" />
<circle cx="754.97" cy="447.34" r="1.6666666666666667" />
<circle cx="755.17" cy="448.11" r="1.6666666666666667" />
<circle cx="755.37" cy="447.79" r="1.6666666666666667" />
<circle cx="755.57" cy="447.54" r="1.6666666666666667" />
<circle cx="755.77" cy="447.45" r="1.6666666666666667" />
<circle cx="755.97" cy="448.57" r="1.6666666666666667" />
<circle cx="756.17" cy="447.82" r="1.6666666666666667" />
<circle cx="756.37" cy="447.83" r="1.6666666666666667" />
<circle cx="756.57" cy="447.32" r="1.6666666666666667" />
<circle cx="756.77" cy="447.68" r="1.6666666666666667" />
<circle cx="756.97" cy="447.98" r="1.6666666666666667" />
<circle cx="757.17" cy="447.94" r="1.6666666666666667" />
<circle cx="757.37" cy="448.40" r="1.6666666666666667" />
<circle cx="757.58" cy="449.27" r="1.6666666666666667" />
<circle cx="757.79" cy="448.91" r="1.6666666666666667" />
<circle cx="757.99" cy="447.73" r="1.6666666666666667" />
<circle cx="758.19" cy="447.87" r="1.6666666666666667" />
<circle cx="758.39" cy="448.76" r="1.6666666666666667" />
<circle cx="758.59" cy="448.03" r="1.6666666666666667" />
<circle cx="758.79" cy="447.28" r="1.6666666666666667" />
<circle cx="759.00" cy="449.03" r="1.6666666666666667" />
<circle cx="759.20" cy="448.49" r="1.6666666666666667" />
<circle cx="759.41" cy="449.01" r="1.6666666666666667" />
<circle cx="759.62" cy="449.09" r="1.6666666666666667" />
<circle cx="759.82" cy="448.53" r="1.6666666666666667" />
<circle cx="760.03" cy="448.70" r="1.6666666666666667" />
<circle cx="760.23" cy="448.51" r="1.6666666666666667" />
<circle cx="760.44" cy="448.83" r="1.6666666666666667" />
<circle cx="760.65" cy="448.88" r="1.6666666666666667" />
<circle cx="760.86" cy="449.14" r="1.6666666666666667" />
<circle cx="761.06" cy="449.27" r="1.6666666666666667" />
<circle cx="761.27" cy="448.37" r="1.6666666666666667" />
<circle cx="761.48" cy="448.94" r="1.6666666666666667" />
<circle cx="761.68" cy="448.47" r="1.6666666666666667" />
<circle cx="761.88" cy="448.59" r="1.6666666666666667" />
<circle cx="762.09" cy="449.33" r="1.6666666666666667" />
<circle cx="762.30" cy="448.30" r="1.6666666666666667" />
<circle cx="762.50" cy="448.78" r="1.6666666666666667" />
<circle cx="762.72" cy="449.75" r="1.6666666666666667" />
<circle cx="762.91" cy="447.40" r="1.6666666666666667" />
<circle cx="763.11" cy="448.08" r="1.6666666666666667" />
<circle cx="763.32" cy="448.91" r="1.6666666666666667" />
<circle cx="763.52" cy="447.96" r="1.6666666666666667" />
<circle cx="763.73" cy="449.42" r="1.6666666666666667" />
<circle cx="763.94" cy="449.45" r="1.6666666666666667" />
<circle cx="764.16" cy="450.45" r="1.6666666666666667" />
<circle cx="764.38" cy="450.35" r="1.6666666666666667" />
<circle cx="764.58" cy="448.26" r="1.6666666666666667" />
<circle cx="764.79" cy="448.51" r="1.6666666666666667" />
<circle cx="765.00" cy="449.19" r="1.6666666666666667" />
<circle cx="765.21" cy="449.64" r="1.6666666666666667" />
<circle cx="765.41" cy="448.42" r="1.6666666666666667" />
<circle cx="765.62" cy="449.02" r="1.6666666666666667" />
<circle cx="765.83" cy="450.03" r="1.6666666666666667" />
<circle cx="766.04" cy="448.96" r="1.6666666666666667" />
<circle cx="766.25" cy="449.47" r="1.6666666666666667" />
<circle cx="766.47" cy="449.57" r="1.6666666666666667" />
<circle cx="766.68" cy="449.32" r="1.6666666666666667" />
<circle cx="766.88" cy="448.84" r="1.6666666666666667" />
<circle cx="767.08" cy="447.87" r="1.6666666666666667" />
<circle cx="767.28" cy="447.98" r="1.6666666666666667" />
<circle cx="767.49" cy="449.17" r="1.6666666666666667" />
<circle cx="767.71" cy="450.47" r="1.6666666666666667" />
<circle cx="767.92" cy="449.28" r="1.6666666666666667" />
<circle cx="768.13" cy="449.22" r="1.6666666666666667" />
<circle cx="768.34" cy="449.70" r="1.6666666666666667" />
<circle cx="768.55" cy="449.28" r="1.6666666666666667" />
<circle cx="768.76" cy="448.94" r="1.6666666666666667" />
<circle cx="768.96" cy="448.10" r="1.6666666666666667" />
<circle cx="769.17" cy="448.61" r="1.6666666666666667" />
<circle cx="769.38" cy="450.26" r="1.6666666666666667" />
<circle cx="769.59" cy="449.64" r="1.6666666666666667" />
<circle cx="769.81" cy="449.59" r="1.6666666666666667" />
<circle cx="770.02" cy="449.99" r="1.6666666666666667" />
<circle cx="770.24" cy="450.19" r="1.6666666666666667" />
<circle cx="770.46" cy="450.46" r="1.6666666666666667" />
<circle cx="770.67" cy="449.83" r="1.6666666666666667" />
<circle cx="770.89" cy="450.74" r="1.6666666666666667" />
<circle cx="771.10" cy="449.29" r="1.6666666666666667" />
<circle cx="771.30" cy="448.11" r="1.6666666666666667" />
<circle cx="771.51" cy="449.06" r="1.6666666666666667" />
<circle cx="771.72" cy="448.70" r="1.6666666666666667" />
<circle cx="771.93" cy="450.20" r="1.6666666666666667" />
<circle cx="772.14" cy="449.50" r="1.6666666666666667" />
<circle cx="772.35" cy="449.48" r="1.6666666666666667" />
<circle cx="772.58" cy="451.61" r="1.6666666666666667" />
<circle cx="772.80" cy="450.27" r="1.6666666666666667" />
<circle cx="773.01" cy="449.68" r="1.6666666666666667" />
<circle cx="773.23" cy="450.84" r="1.6666666666666667" />
<circle cx="773.45" cy="450.42" r="1.6666666666666667" />
<circle cx="773.67" cy="450.63" r="1.6666666666666667" />
<circle cx="773.89" cy="450.54" r="1.6666666666666667" />
<circle cx="774.76" cy="491.13" r="1.6666666666666667" />
<circle cx="774.98" cy="449.93" r="1.6666666666666667" />
<circle cx="775.20" cy="450.65" r="1.6666666666666667" />
<circle cx="775.41" cy="450.53" r="1.6666666666666667" />
<circle cx="775.64" cy="450.86" r="1.6666666666666667" />
<circle cx="775.86" cy="451.33" r="1.6666666666666667" />
<circle cx="776.08" cy="450.80" r="1.6666666666666667" />
<circle cx="776.30" cy="449.93" r="1.6666666666666667" />
<circle cx="776.51" cy="450.25" r="1.6666666666666667" />
<circle cx="776.74" cy="451.19" r="1.6666666666666667" />
<circle cx="776.96" cy="450.86" r="1.6666666666666667" />
<circle cx="777.17" cy="450.21" r="1.6666666666666667" />
<circle cx="777.40" cy="451.85" r="1.6666666666666667" />
<circle cx="777.63" cy="452.02" r="1.6666666666666667" />
<circle cx="777.86" cy="450.89" r="1.6666666666666667" />
<circle cx="778.07" cy="450.63" r="1.6666666666666667" />
<circle cx="778.30" cy="451.59" r="1.6666666666666667" />
<circle cx="778.52" cy="450.24" r="1.6666666666666667" />
<circle cx="778.74" cy="451.19" r="1.6666666666666667" />
<circle cx="778.96" cy="449.90" r="1.6666666666666667" />
<circle cx="779.17" cy="450.10" r="1.6666666666666667" />
<circle cx="779.40" cy="451.11" r="1.6666666666666667" />
<circle cx="779.61" cy="450.32" r="1.6666666666666667" />
<circle cx="779.83" cy="450.94" r="1.6666666666666667" />
<circle cx="780.06" cy="451.49" r="1.6666666666666667" />
<circle cx="780.29" cy="451.74" r="1.6666666666666667" />
<circle cx="780.51" cy="451.05" r="1.6666666666666667" />
<circle cx="780.74" cy="451.94" r="1.6666666666666667" />
<circle cx="780.97" cy="451.71" r="1.6666666666666667" />
<circle cx="781.20" cy="452.64" r="1.6666666666666667" />
<circle cx="781.43" cy="451.75" r="1.6666666666666667" />
<circle cx="781.66" cy="452.05" r="1.6666666666666667" />
<circle cx="781.89" cy="451.68" r="1.6666666666666667" />
<circle cx="782.12" cy="451.69" r="1.6666666666666667" />
<circle cx="782.34" cy="451.34" r="1.6666666666666667" />
<circle cx="782.57" cy="452.00" r="1.6666666666666667" />
<circle cx="782.80" cy="451.60" r="1.6666666666666667" />
<circle cx="783.02" cy="451.18" r="1.6666666666666667" />
<circle cx="783.25" cy="451.53" r="1.6666666666666667" />
<circle cx="783.48" cy="451.86" r="1.6666666666666667" />
<circle cx="783.71" cy="451.60" r="1.6666666666666667" />
<circle cx="783.94" cy="451.97" r="1.6666666666666667" />
<circle cx="784.17" cy="452.12" r="1.6666666666666667" />
<circle cx="784.40" cy="452.04" r="1.6666666666666667" />
<circle cx="784.62" cy="450.53" r="1.6666666666666667" />
<circle cx="784.84" cy="450.82" r="1.6666666666666667" />
<circle cx="785.07" cy="451.69" r="1.6666666666666667" />
<circle cx="785.30" cy="451.97" r="1.6666666666666667" />
<circle cx="785.52" cy="451.69" r="1.6666666666666667" />
<circle cx="785.76" cy="452.42" r="1.6666666666666667" />
<circle cx="785.99" cy="452.10" r="1.6666666666666667" />
<circle cx="786.22" cy="452.07" r="1.6666666666666667" />
<circle cx="786.44" cy="451.36" r="1.6666666666666667" />
<circle cx="786.67" cy="451.25" r="1.6666666666666667" />
<circle cx="786.90" cy="452.22" r="1.6666666666666667" />
<circle cx="787.14" cy="452.75" r="1.6666666666666667" />
<circle cx="787.37" cy="452.29" r="1.6666666666666667" />
<circle cx="787.60" cy="452.34" r="1.6666666666666667" />
<circle cx="787.83" cy="451.74" r="1.6666666666666667" />
<circle cx="788.05" cy="451.55" r="1.6666666666666667" />
<circle cx="788.29" cy="452.19" r="1.6666666666666667" />
<circle cx="788.51" cy="451.79" r="1.6666666666666667" />
<circle cx="788.75" cy="452.06" r="1.6666666666666667" />
<circle cx="788.98" cy="452.77" r="1.6666666666666667" />
<circle cx="789.22" cy="452.60" r="1.6666666666666667" />
<circle cx="789.44" cy="451.09" r="1.6666666666666667" />
<circle cx="789.67" cy="451.58" r="1.6666666666666667" />
<circle cx="789.89" cy="451.24" r="1.6666666666666667" />
<circle cx="790.13" cy="452.60" r="1.6666666666666667" />
<circle cx="790.36" cy="452.06" r="1.6666666666666667" />
<circle cx="790.59" cy="452.75" r="1.6666666666666667" />
<circle cx="790.83" cy="453.49" r="1.6666666666666667" />
<circle cx="791.06" cy="451.64" r="1.6666666666666667" />
<circle cx="791.29" cy="451.58" r="1.6666666666666667" />
<circle cx="791.52" cy="452.55" r="1.6666666666666667" />
<circle cx="791.76" cy="452.69" r="1.6666666666666667" />
<circle cx="791.99" cy="452.42" r="1.6666666666666667" />
<circle cx="792.23" cy="453.43" r="1.6666666666666667" />
<circle cx="792.47" cy="453.03" r="1.6666666666666667" />
<circle cx="792.71" cy="452.69" r="1.6666666666666667" />
<circle cx="792.94" cy="452.24" r="1.6666666666666667" />
<circle cx="793.17" cy="452.46" r="1.6666666666666667" />
<circle cx="793.41" cy="452.88" r="1.6666666666666667" />
<circle cx="793.65" cy="452.71" r="1.6666666666666667" />
<circle cx="793.89" cy="453.30" r="1.6666666666666667" />
<circle cx="794.13" cy="453.48" r="1.6666666666666667" />
<circle cx="794.36" cy="452.35" r="1.6666666666666667" />
<circle cx="794.60" cy="452.56" r="1.6666666666666667" />
<circle cx="794.83" cy="452.40" r="1.6666666666666667" />
<circle cx="795.06" cy="452.12" r="1.6666666666666667" />
<circle cx="795.29" cy="452.12" r="1.6666666666666667" />
<circle cx="795.53" cy="453.08" r="1.6666666666666667" />
<circle cx="795.77" cy="453.74" r="1.6666666666666667" />
<circle cx="796.01" cy="452.55" r="1.6666666666666667" />
<circle cx="796.25" cy="453.27" r="1.6666666666666667" />
<circle cx="796.49" cy="453.30" r="1.6666666666666667" />
<circle cx="796.74" cy="454.85" r="1.6666666666666667" />
<circle cx="796.99" cy="454.28" r="1.6666666666666667" />
<circle cx="797.25" cy="455.01" r="1.6666666666666667" />
<circle cx="797.50" cy="454.76" r="1.6666666666666667" />
<circle cx="797.74" cy="453.91" r="1.6666666666666667" />
<circle cx="797.99" cy="454.46" r="1.6666666666666667" />
<circle cx="798.24" cy="454.19" r="1.6666666666666667" />
<circle cx="798.49" cy="454.19" r="1.6666666666666667" />
<circle cx="798.73" cy="453.59" r="1.6666666666666667" />
<circle cx="798.99" cy="454.81" r="1.6666666666666667" />
<circle cx="799.23" cy="453.92" r="1.6666666666666667" />
<circle cx="799.47" cy="453.34" r="1.6666666666666667" />
<circle cx="799.71" cy="453.11" r="1.6666666666666667" />
<circle cx="799.95" cy="453.14" r="1.6666666666666667" />
<circle cx="800.20" cy="454.71" r="1.6666666666666667" />
<circle cx="800.46" cy="454.77" r="1.6666666666666667" />
<circle cx="801.20" cy="486.37" r="1.6666666666666667" />
<circle cx="801.44" cy="454.00" r="1.6666666666666667" />
<circle cx="801.69" cy="453.72" r="1.6666666666666667" />
<circle cx="801.94" cy="454.10" r="1.6666666666666667" />
<circle cx="802.18" cy="453.83" r="1.6666666666666667" />
<circle cx="802.44" cy="455.16" r="1.6666666666666667" />
<circle cx="802.67" cy="452.89" r="1.6666666666666667" />
<circle cx="802.92" cy="453.71" r="1.6666666666666667" />
<circle cx="803.17" cy="455.00" r="1.6666666666666667" />
<circle cx="803.42" cy="454.00" r="1.6666666666666667" />
<circle cx="803.67" cy="454.52" r="1.6666666666666667" />
<circle cx="803.92" cy="454.41" r="1.6666666666666667" />
<circle cx="804.18" cy="455.89" r="1.6666666666666667" />
<circle cx="804.42" cy="453.35" r="1.6666666666666667" />
<circle cx="804.67" cy="454.31" r="1.6666666666666667" />
<circle cx="804.93" cy="455.10" r="1.6666666666666667" />
<circle cx="805.17" cy="454.08" r="1.6666666666666667" />
<circle cx="805.43" cy="454.87" r="1.6666666666666667" />
<circle cx="805.68" cy="454.27" r="1.6666666666666667" />
<circle cx="805.93" cy="454.36" r="1.6666666666666667" />
<circle cx="806.17" cy="454.18" r="1.6666666666666667" />
<circle cx="806.42" cy="453.56" r="1.6666666666666667" />
<circle cx="806.67" cy="454.87" r="1.6666666666666667" />
<circle cx="806.92" cy="454.01" r="1.6666666666666667" />
<circle cx="807.18" cy="455.54" r="1.6666666666666667" />
<circle cx="807.44" cy="455.64" r="1.6666666666666667" />
<circle cx="807.70" cy="455.63" r="1.6666666666666667" />
<circle cx="807.96" cy="455.39" r="1.6666666666666667" />
<circle cx="808.22" cy="455.49" r="1.6666666666666667" />
<circle cx="808.48" cy="455.93" r="1.6666666666666667" />
<circle cx="808.74" cy="455.57" r="1.6666666666666667" />
<circle cx="808.99" cy="454.94" r="1.6666666666666667" />
<circle cx="809.25" cy="455.78" r="1.6666666666666667" />
<circle cx="809.51" cy="455.44" r="1.6666666666666667" />
<circle cx="809.77" cy="455.57" r="1.6666666666666667" />
<circle cx="810.03" cy="455.78" r="1.6666666666666667" />
<circle cx="810.29" cy="455.59" r="1.6666666666666667" />
<circle cx="810.56" cy="455.99" r="1.6666666666666667" />
<circle cx="810.82" cy="455.96" r="1.6666666666666667" />
<circle cx="811.08" cy="455.07" r="1.6666666666666667" />
<circle cx="811.33" cy="455.28" r="1.6666666666666667" />
<circle cx="811.60" cy="456.69" r="1.6666666666666667" />
<circle cx="811.86" cy="455.70" r="1.6666666666666667" />
<circle cx="812.13" cy="456.71" r="1.6666666666666667" />
<circle cx="812.40" cy="455.93" r="1.6666666666666667" />
<circle cx="812.66" cy="455.44" r="1.6666666666666667" />
<circle cx="812.91" cy="454.74" r="1.6666666666666667" />
<circle cx="813.17" cy="455.94" r="1.6666666666666667" />
<circle cx="813.43" cy="455.83" r="1.6666666666666667" />
<circle cx="813.70" cy="455.64" r="1.6666666666666667" />
<circle cx="813.96" cy="456.47" r="1.6666666666666667" />
<circle cx="814.23" cy="456.17" r="1.6666666666666667" />
<circle cx="814.49" cy="455.37" r="1.6666666666666667" />
<circle cx="814.75" cy="455.89" r="1.6666666666666667" />
<circle cx="815.01" cy="456.20" r="1.6666666666666667" />
<circle cx="815.28" cy="456.08" r="1.6666666666666667" />
<circle cx="815.55" cy="456.71" r="1.6666666666666667" />
<circle cx="815.81" cy="456.05" r="1.6666666666666667" />
<circle cx="816.08" cy="456.01" r="1.6666666666666667" />
<circle cx="816.35" cy="457.31" r="1.6666666666666667" />
<circle cx="816.63" cy="457.77" r="1.6666666666666667" />
<circle cx="816.90" cy="456.91" r="1.6666666666666667" />
<circle cx="817.18" cy="457.36" r="1.6666666666666667" />
<circle cx="817.46" cy="457.40" r="1.6666666666666667" />
<circle cx="817.73" cy="457.03" r="1.6666666666666667" />
<circle cx="818.01" cy="457.76" r="1.6666666666666667" />
<circle cx="818.29" cy="457.79" r="1.6666666666666667" />
<circle cx="818.56" cy="457.03" r="1.6666666666666667" />
<circle cx="818.84" cy="457.69" r="1.6666666666666667" />
<circle cx="819.12" cy="457.64" r="1.6666666666666667" />
<circle cx="819.40" cy="457.68" r="1.6666666666666667" />
<circle cx="819.68" cy="457.22" r="1.6666666666666667" />
<circle cx="819.96" cy="458.30" r="1.6666666666666667" />
<circle cx="820.24" cy="457.77" r="1.6666666666666667" />
<circle cx="820.52" cy="458.13" r="1.6666666666666667" />
<circle cx="820.82" cy="458.87" r="1.6666666666666667" />
<circle cx="821.09" cy="457.50" r="1.6666666666666667" />
<circle cx="821.37" cy="457.96" r="1.6666666666666667" />
<circle cx="821.66" cy="458.67" r="1.6666666666666667" />
<circle cx="821.94" cy="457.77" r="1.6666666666666667" />
<circle cx="822.23" cy="458.34" r="1.6666666666666667" />
<circle cx="822.51" cy="458.33" r="1.6666666666666667" />
<circle cx="822.80" cy="458.39" r="1.6666666666666667" />
<circle cx="823.10" cy="459.45" r="1.6666666666666667" />
<circle cx="823.38" cy="458.12" r="1.6666666666666667" />
<circle cx="823.66" cy="457.97" r="1.6666666666666667" />
<circle cx="823.95" cy="458.84" r="1.6666666666666667" />
<circle cx="824.24" cy="458.38" r="1.6666666666666667" />
<circle cx="824.52" cy="457.85" r="1.6666666666666667" />
<circle cx="824.81" cy="458.49" r="1.6666666666666667" />
<circle cx="825.10" cy="458.67" r="1.6666666666666667" />
<circle cx="825.37" cy="457.34" r="1.6666666666666667" />
<circle cx="825.66" cy="459.01" r="1.6666666666666667" />
<circle cx="825.95" cy="458.28" r="1.6666666666666667" />
<circle cx="826.24" cy="459.16" r="1.6666666666666667" />
<circle cx="826.53" cy="458.87" r="1.6666666666666667" />
<circle cx="826.83" cy="459.35" r="1.6666666666666667" />
<circle cx="827.71" cy="491.62" r="1.6666666666666667" />
<circle cx="828.02" cy="460.74" r="1.6666666666666667" />
<circle cx="828.33" cy="460.53" r="1.6666666666666667" />
<circle cx="828.63" cy="459.42" r="1.6666666666666667" />
<circle cx="828.94" cy="460.62" r="1.6666666666666667" />
<circle cx="829.24" cy="460.50" r="1.6666666666666667" />
<circle cx="829.55" cy="460.57" r="1.6666666666666667" />
<circle cx="829.86" cy="460.49" r="1.6666666666666667" />
<circle cx="830.17" cy="461.21" r="1.6666666666666667" />
<circle cx="830.49" cy="461.62" r="1.6666666666666667" />
<circle cx="830.81" cy="461.00" r="1.6666666666666667" />
<circle cx="831.12" cy="461.08" r="1.6666666666666667" />
<circle cx="831.43" cy="461.15" r="1.6666666666666667" />
<circle cx="831.75" cy="461.63" r="1.6666666666666667" />
<circle cx="832.07" cy="461.19" r="1.6666666666666667" />
<circle cx="832.39" cy="461.82" r="1.6666666666666667" />
<circle cx="832.70" cy="461.02" r="1.6666666666666667" />
<circle cx="833.02" cy="461.89" r="1.6666666666666667" />
<circle cx="833.34" cy="461.68" r="1.6666666666666667" />
<circle cx="833.66" cy="461.04" r="1.6666666666666667" />
<circle cx="833.98" cy="461.72" r="1.6666666666666667" />
<circle cx="834.29" cy="461.00" r="1.6666666666666667" />
<circle cx="834.62" cy="462.33" r="1.6666666666666667" />
<circle cx="834.95" cy="462.92" r="1.6666666666666667" />
<circle cx="835.28" cy="462.04" r="1.6666666666666667" />
<circle cx="835.60" cy="462.50" r="1.6666666666666667" />
<circle cx="835.93" cy="462.06" r="1.6666666666666667" />
<circle cx="836.25" cy="461.83" r="1.6666666666666667" />
<circle cx="836.57" cy="462.02" r="1.6666666666666667" />
<circle cx="836.90" cy="462.08" r="1.6666666666666667" />
<circle cx="837.22" cy="461.49" r="1.6666666666666667" />
<circle cx="837.54" cy="462.08" r="1.6666666666666667" />
<circle cx="837.88" cy="463.18" r="1.6666666666666667" />
<circle cx="838.22" cy="464.05" r="1.6666666666666667" />
<circle cx="838.56" cy="462.80" r="1.6666666666666667" />
<circle cx="838.90" cy="463.96" r="1.6666666666666667" />
<circle cx="839.24" cy="463.13" r="1.6666666666666667" />
<circle cx="839.58" cy="463.40" r="1.6666666666666667" />
<circle cx="839.93" cy="464.28" r="1.6666666666666667" />
<circle cx="840.28" cy="464.83" r="1.6666666666666667" />
<circle cx="840.63" cy="464.14" r="1.6666666666666667" />
<circle cx="840.98" cy="464.63" r="1.6666666666666667" />
<circle cx="841.36" cy="466.46" r="1.6666666666666667" />
<circle cx="841.73" cy="465.90" r="1.6666666666666667" />
<circle cx="842.09" cy="465.42" r="1.6666666666666667" />
<circle cx="842.45" cy="465.14" r="1.6666666666666667" />
<circle cx="842.82" cy="465.77" r="1.6666666666666667" />
<circle cx="843.21" cy="467.48" r="1.6666666666666667" />
<circle cx="843.58" cy="465.56" r="1.6666666666666667" />
<circle cx="843.94" cy="465.84" r="1.6666666666666667" />
<circle cx="844.31" cy="465.67" r="1.6666666666666667" />
<circle cx="844.74" cy="470.52" r="1.6666666666666667" />
<circle cx="845.11" cy="466.05" r="1.6666666666666667" />
<circle cx="845.48" cy="465.56" r="1.6666666666666667" />
<circle cx="845.85" cy="465.66" r="1.6666666666666667" />
<circle cx="846.31" cy="472.86" r="1.6666666666666667" />
<circle cx="846.70" cy="467.42" r="1.6666666666666667" />
<circle cx="847.09" cy="467.40" r="1.6666666666666667" />
<circle cx="847.48" cy="467.03" r="1.6666666666666667" />
<circle cx="847.95" cy="473.24" r="1.6666666666666667" />
<circle cx="848.35" cy="467.89" r="1.6666666666666667" />
<circle cx="848.75" cy="468.55" r="1.6666666666666667" />
<circle cx="849.17" cy="470.02" r="1.6666666666666667" />
<circle cx="849.60" cy="470.03" r="1.6666666666666667" />
<circle cx="850.00" cy="468.27" r="1.6666666666666667" />
</g>
<g stroke="black">
<line x1="839.86" x2="839.86" y1="510.00" y2="520.00" />
<line x1="791.78" x2="791.78" y1="510.00" y2="520.00" />
<line x1="740.39" x2="740.39" y1="510.00" y2="520.00" />
<line x1="689.00" x2="689.00" y1="510.00" y2="520.00" />
<line x1="639.26" x2="639.26" y1="510.00" y2="520.00" />
<line x1="587.87" x2="587.87" y1="510.00" y2="520.00" />
<line x1="538.13" x2="538.13" y1="510.00" y2="520.00" />
<line x1="486.74" x2="486.74" y1="510.00" y2="520.00" />
<line x1="435.35" x2="435.35" y1="510.00" y2="520.00" />
<line x1="385.61" x2="385.61" y1="510.00" y2="520.00" />
<line x1="334.22" x2="334.22" y1="510.00" y2="520.00" />
<line x1="284.48" x2="284.48" y1="510.00" y2="520.00" />
<line x1="233.09" x2="233.09" y1="510.00" y2="520.00" />
<line x1="186.67" x2="186.67" y1="510.00" y2="520.00" />
<g fill="black" font-family="Arial, sans-serif" font-size="18.0" stroke="none" text-anchor="start" transform="translate(9.0 0.0)">
<text x="839.86" y="530.57">Mar</text>
<text x="791.78" y="530.57">Feb</text>
<text x="740.39" y="530.57">Jan</text>
<text x="689.00" y="530.57">Dec</text>
<text x="639.26" y="530.57">Nov</text>
<text x="587.87" y="530.57">Oct</text>
<text x="538.13" y="530.57">Sep</text>
<text x="486.74" y="530.57">Aug</text>
<text x="435.35" y="530.57">Jul</text>
<text x="385.61" y="530.57">Jun</text>
<text x="334.22" y="530.57">May</text>
<text x="284.48" y="530.57">Apr</text>
<text x="233.09" y="530.57">Mar</text>
<text x="186.67" y="530.57">Feb</text>
</g>
<line x1="150.00" x2="850.00" y1="510.00" y2="510.00" />
</g>
<g stroke="black">
<line x1="150.00" x2="140.00" y1="510.00" y2="510.00" />
<line x1="150.00" x2="140.00" y1="216.29" y2="216.29" />
<g fill="black" font-family="Arial, sans-serif" font-size="18.0" stroke="none" text-anchor="end">
<text x="141.00" y="501.00">0</text>
<text x="141.00" y="207.29">10</text>
</g>
<line x1="150.00" x2="150.00" y1="510.00" y2="90.00" />
</g>
</g>
</svg>