<?xml version="1.0"?>
<svg version="1.1" viewBox="0 0 1000 600" xmlns:xlink="http://www.w3.org/1999/xlink" xmlns="http://www.w3.org/2000/svg">
<g>
<g stroke-dasharray="3.6 7.2" stroke-width="0.72" stroke="#caa">
<line x1="813.75" x2="813.75" y1="510.00" y2="90.00" />
<line x1="760.60" x2="760.60" y1="510.00" y2="90.00" />
<line x1="707.45" x2="707.45" y1="510.00" y2="90.00" />
<line x1="656.01" x2="656.01" y1="510.00" y2="90.00" />
<line x1="602.86" x2="602.86" y1="510.00" y2="90.00" />
<line x1="551.42" x2="551.42" y1="510.00" y2="90.00" />
<line x1="498.27" x2="498.27" y1="510.00" y2="90.00" />
<line x1="445.11" x2="445.11" y1="510.00" y2="90.00" />
<line x1="393.68" x2="393.68" y1="510.00" y2="90.00" />
<line x1="340.52" x2="340.52" y1="510.00" y2="90.00" />
<line x1="289.09" x2="289.09" y1="510.00" y2="90.00" />
<line x1="235.93" x2="235.93" y1="510.00" y2="90.00" />
<line x1="187.92" x2="187.92" y1="510.00" y2="90.00" />
<line x1="150.00" x2="850.00" y1="510.00" y2="510.00" />
<line x1="150.00" x2="850.00" y1="216.29" y2="216.29" />
</g>
<g>
<text dominant-baseline="hanging" dx="-36.0" dy="18.0" fill="#0004" font-family="Arial, sans-serif" font-size="36" stroke="none" text-anchor="end" x="850.00" y="128.18">ThMuCh0ConjoinedBottom</text>
</g>
<g>
<text dominant-baseline="text-bottom" dy="-12.0" fill="black" font-family="Arial, sans-serif" font-size="18.0" font-style="italic" stroke="none" text-anchor="middle" x="500.00" y="90.00">Years 2023 to 2024</text>
</g>
<g>
<text dominant-baseline="central" dx="12.0" dy="12.0" fill="black" font-family="Arial, sans-serif" font-size="18.0" font-style="italic" stroke="none" text-anchor="middle" text-orientation="sideways" writing-mode="vertical-lr" x="850.00" y="300.00">log(Drips per day)</text>
</g>
<polyline fill="none" points="150.22,434.89 150.35,434.87 150.50,437.26 150.64,436.76 150.77,435.80 150.91,435.06 151.05,436.07 151.18,435.75 151.32,436.41 151.47,437.09 151.60,435.42 151.74,436.40 151.87,434.86 152.02,436.66 152.16,437.43 152.31,437.50 152.45,436.60 152.59,436.27 152.72,435.65 177.86,444.11 178.03,443.33 178.21,443.50 178.39,443.41 178.56,442.96 178.75,444.40 178.93,443.53 179.10,442.61 179.27,443.01 179.44,442.06 179.62,442.69 179.79,442.40 179.96,441.83 180.13,442.55 201.87,448.55 601.16,470.27 601.53,464.57 601.96,469.47 602.24,457.03 602.67,468.99 602.96,458.50 603.37,467.62 603.63,454.36 604.02,466.48 604.34,460.63 604.74,467.80 605.06,460.78 605.47,467.58 605.79,460.92 606.21,468.37 606.57,464.38 607.03,471.39 607.41,466.12 607.92,473.87 608.32,467.47 608.82,473.62 609.23,468.28 609.73,473.60 610.12,467.08 611.02,491.10 611.49,471.63 611.93,469.87 612.45,475.07 612.85,467.31 613.37,474.86 613.77,467.79 614.29,474.69 614.71,468.98 615.25,476.02 615.68,468.99 616.19,474.23 616.59,467.82 617.07,472.31 617.49,468.87 617.99,473.69 618.38,466.91 618.89,474.38 619.28,466.36 619.76,472.27 620.17,467.99 620.67,474.24 621.11,469.59 621.60,473.22 622.01,468.13 622.53,474.86 622.97,470.44 623.51,476.01 623.92,467.52 624.43,474.82 624.86,468.98 625.35,473.25 625.76,468.08 626.30,475.79 626.71,468.30 627.22,474.21 627.63,468.50 628.17,475.83 628.60,469.35 629.15,476.53 629.61,471.40 630.13,475.25 630.58,470.31 631.09,474.60 631.57,472.32 632.07,473.80 632.53,471.38 633.07,476.08 633.49,468.84 634.02,475.73 634.50,472.23 635.03,475.47 635.50,472.20 636.02,475.00 636.50,472.70 637.03,475.61 637.49,470.99 638.40,491.54 638.85,470.28 639.44,478.67 639.90,471.53 727.76,448.82 727.99,450.15 728.21,449.80 728.43,450.12 728.67,451.54 728.89,449.79 729.11,450.46 729.34,450.13 729.56,450.88 729.80,451.06 730.02,450.16 730.24,450.18 730.47,450.51 730.70,450.80 730.92,450.21 731.14,450.00 731.38,452.44 731.62,451.13 731.84,450.00 732.07,451.18 732.30,451.50 732.53,450.51 732.77,451.70 746.29,446.01 746.49,446.75 746.70,448.99 746.91,447.74 747.12,448.32 747.33,448.06 747.53,447.17 747.74,447.56 747.93,446.83 748.14,447.46 748.34,446.86 748.54,447.47 748.75,447.42 748.96,448.53 749.17,448.23 749.38,448.38 749.59,448.10 749.79,446.96 749.99,447.68 750.20,448.11 750.41,447.96 750.61,447.05 750.82,448.40 751.03,448.38 751.22,446.25 751.42,446.50 751.62,446.84 751.82,446.87 752.02,446.93 752.22,446.90 752.43,447.88 752.62,445.67 752.82,447.16 753.02,447.17 753.22,446.74 753.42,446.19 753.62,446.98 753.82,447.04 754.03,448.20 754.23,447.71 754.44,447.17 754.64,446.98 754.83,446.51 755.03,446.79 755.24,447.38 755.44,447.38 755.65,448.10 755.85,447.28 756.05,446.78 756.25,446.66 756.45,447.30 756.65,446.00 756.85,447.16 757.04,446.19 757.24,446.41 757.44,446.15 757.64,446.97 757.84,447.19 758.04,447.84 758.25,447.26 758.45,446.77 758.65,447.74 758.86,447.91 759.06,447.74 759.26,446.77 759.47,447.51 759.68,448.07 759.88,447.75 760.09,447.36 760.29,447.94 760.50,447.85 760.70,447.58 760.91,447.07 761.11,447.31 761.32,448.26 761.52,447.47 761.72,447.12 761.93,447.75 762.14,448.02 762.34,447.08 762.54,446.73 762.74,446.63 762.94,447.13 763.14,446.95 763.34,447.22 763.53,445.26 763.72,446.37 763.92,445.96 764.12,446.98 764.32,446.46 764.52,446.95 764.72,447.74 764.92,447.05 765.12,446.59 765.32,447.09 765.52,446.63 765.73,447.96 765.93,447.38 766.14,447.75 766.95,487.97 767.16,448.33 767.36,447.09 767.56,446.96 767.76,446.86 767.96,447.63 768.17,447.71 768.38,447.70 768.58,447.83 768.78,447.17 768.99,448.31 769.20,447.49 769.41,448.04 769.61,447.46 769.81,447.00 770.01,447.51 770.22,447.05 770.41,446.27 770.62,448.36 770.83,447.90 771.04,447.91 771.24,447.66 771.45,448.76 771.67,448.45 771.87,447.80 772.07,446.98 772.26,445.66 772.46,445.79 772.65,445.38 772.84,445.82 773.03,445.33 773.21,444.62 773.40,445.48 773.59,444.31 773.77,443.97 773.96,445.40 774.15,445.69 774.34,445.22 774.53,445.65 774.72,444.91 774.91,445.89 775.10,445.86 775.29,445.28 775.48,444.92 775.68,447.34 775.89,448.11 776.10,447.79 776.30,447.54 776.51,447.45 776.72,448.57 776.93,447.82 777.13,447.83 777.33,447.32 777.54,447.68 777.75,447.98 777.95,447.94 778.17,448.40 778.38,449.27 778.60,448.91 778.80,447.73 779.01,447.87 779.22,448.76 779.43,448.03 779.63,447.28 779.85,449.03 780.06,448.49 780.27,449.01 780.49,449.09 780.70,448.53 780.91,448.70 781.12,448.51 781.34,448.83 781.55,448.88 781.77,449.14 781.99,449.27 782.20,448.37 782.41,448.94 782.62,448.47 782.83,448.59 783.05,449.33 783.26,448.30 783.47,448.78 783.69,449.75 783.90,447.40 784.11,448.08 784.32,448.91 784.53,447.96 784.74,449.42 784.96,449.45 785.19,450.45 785.41,450.35 785.62,448.26 785.83,448.51 786.05,449.19 786.27,449.64 786.48,448.42 786.70,449.02 786.92,450.03 787.13,448.96 787.35,449.47 787.57,449.57 787.79,449.32 788.00,448.84 788.21,447.87 788.42,447.98 788.63,449.17 788.86,450.47 789.07,449.28 789.29,449.22 789.51,449.70 789.73,449.28 789.94,448.94 790.15,448.10 790.36,448.61 790.59,450.26 790.81,449.64 791.03,449.59 791.25,449.99 791.47,450.19 791.70,450.46 791.92,449.83 792.15,450.74 792.36,449.29 792.57,448.11 792.79,449.06 793.00,448.70 793.22,450.20 793.44,449.50 793.66,449.48 793.90,451.61 794.12,450.27 794.34,449.68 794.57,450.84 794.80,450.42 795.02,450.63 795.25,450.54 796.15,491.13 796.37,449.93 796.60,450.65 796.83,450.53 797.05,450.86 797.29,451.33 797.52,450.80 797.74,449.93 797.96,450.25 798.19,451.19 798.42,450.86 798.65,450.21 798.88,451.85 799.12,452.02 799.35,450.89 799.58,450.63 799.81,451.59 800.04,450.24 800.27,451.19 800.49,449.90 800.71,450.10 800.94,451.11 801.17,450.32 801.40,450.94 801.63,451.49 801.87,451.74 802.10,451.05 802.34,451.94 802.57,451.71 802.81,452.64 803.05,451.75 803.29,452.05 803.52,451.68 803.76,451.69 803.99,451.34 804.23,452.00 804.46,451.60 804.70,451.18 804.93,451.53 805.17,451.86 805.40,451.60 805.64,451.97 805.88,452.12 806.12,452.04 806.34,450.53 806.57,450.82 806.81,451.69 807.04,451.97 807.28,451.69 807.52,452.42 807.76,452.10 808.00,452.07 808.23,451.36 808.46,451.25 808.70,452.22 808.95,452.75 809.19,452.29 809.43,452.34 809.66,451.74 809.90,451.55 810.14,452.19 810.38,451.79 810.61,452.06 810.86,452.77 811.10,452.60 811.33,451.09 811.57,451.58 811.80,451.24 812.04,452.60 812.28,452.06 812.52,452.75 812.77,453.49 813.01,451.64 813.24,451.58 813.49,452.55 813.73,452.69 813.97,452.42 814.22,453.43 814.47,453.03 814.71,452.69 814.95,452.24 815.19,452.46 815.44,452.88 815.68,452.71 815.93,453.30 816.18,453.48 816.42,452.35 816.66,452.56 816.91,452.40 817.14,452.12 817.38,452.12 817.63,453.08 817.88,453.74 818.13,452.55 818.37,453.27 818.62,453.30 818.88,454.85 819.14,454.28 819.41,455.01 819.67,454.76 819.92,453.91 820.18,454.46 820.44,454.19 820.69,454.19 820.94,453.59 821.21,454.81 821.46,453.92 821.71,453.34 821.96,453.11 822.20,453.14 822.46,454.71 822.73,454.77 823.49,486.37 823.75,454.00 824.00,453.72 824.26,454.10 824.51,453.83 824.77,455.16 825.02,452.89 825.27,453.71 825.53,455.00 825.79,454.00 826.05,454.52 826.31,454.41 826.58,455.89 826.83,453.35 827.09,454.31 827.35,455.10 827.61,454.08 827.87,454.87 828.12,454.27 828.38,454.36 828.64,454.18 828.89,453.56 829.15,454.87 829.41,454.01 829.68,455.54 829.95,455.64 830.21,455.63 830.48,455.39 830.75,455.49 831.02,455.93 831.29,455.57 831.55,454.94 831.82,455.78 832.09,455.44 832.36,455.57 832.63,455.78 832.90,455.59 833.17,455.99 833.44,455.96 833.71,455.07 833.98,455.28 834.25,456.69 834.52,455.70 834.80,456.71 835.08,455.93 835.34,455.44 835.60,454.74 835.88,455.94 836.15,455.83 836.42,455.64 836.69,456.47 836.97,456.17 837.24,455.37 837.51,455.89 837.78,456.20 838.06,456.08 838.33,456.71 838.61,456.05 838.88,456.01 839.17,457.31 839.46,457.77 839.74,456.91 840.02,457.36 840.31,457.40 840.59,457.03 840.88,457.76 841.17,457.79 841.45,457.03 841.74,457.69 842.03,457.64 842.32,457.68 842.60,457.22 842.90,458.30 843.19,457.77 843.48,458.13 843.78,458.87 844.07,457.50 844.36,457.96 844.66,458.67 844.95,457.77 845.24,458.34 845.54,458.33 845.83,458.39 846.14,459.45 846.43,458.12 846.73,457.97 847.03,458.84 847.32,458.38 847.61,457.85 847.91,458.49 848.21,458.67 848.49,457.34 848.80,459.01 849.09,458.28 849.39,459.16 849.69,458.87 850.00,459.35" stroke-dasharray="3.6 3.6" stroke-width="3.6" stroke="#aaa" />
<g>
<circle cx="150.22" cy="434.89" r="1.6666666666666667" />
<circle cx="150.35" cy="434.87" r="1.6666666666666667" />
<circle cx="150.50" cy="437.26" r="1.6666666666666667" />
<circle cx="150.64" cy="436.76" r="1.6666666666666667" />
<circle cx="150.77" cy="435.80" r="1.6666666666666667" />
<circle cx="150.91" cy="435.06" r="1.6666666666666667" />
<circle cx="151.05" cy="436.07" r="1.6666666666666667" />
<circle cx="151.18" cy="435.75" r="1.6666666666666667" />
<circle cx="151.32" cy="436.41" r="1.6666666666666667" />
<circle cx="151.47" cy="437.09" r="1.6666666666666667" />
<circle cx="151.60" cy="435.42" r="1.6666666666666667" />
<circle cx="151.74" cy="436.40" r="1.6666666666666667" />
<circle cx="151.87" cy="434.86" r="1.6666666666666667" />
<circle cx="152.02" cy="436.66" r="1.6666666666666667" />
<circle cx="152.16" cy="437.43" r="1.6666666666666667" />
<circle cx="152.31" cy="437.50" r="1.6666666666666667" />
<circle cx="152.45" cy="436.60" r="1.6666666666666667" />
<circle cx="152.59" cy="436.27" r="1.6666666666666667" />
<circle cx="152.72" cy="435.65" r="1.6666666666666667" />
<circle cx="177.86" cy="444.11" r="1.6666666666666667" />
<circle cx="178.03" cy="443.33" r="1.6666666666666667" />
<circle cx="178.21" cy="443.50" r="1.6666666666666667" />
<circle cx="178.39" cy="443.41" r="1.6666666666666667" />
<circle cx="178.56" cy="442.96" r="1.6666666666666667" />
<circle cx="178.75" cy="444.40" r="1.6666666666666667" />
<circle cx="178.93" cy="443.53" r="1.6666666666666667" />
<circle cx="179.10" cy="442.61" r="1.6666666666666667" />
<circle cx="179.27" cy="443.01" r="1.6666666666666667" />
<circle cx="179.44" cy="442.06" r="1.6666666666666667" />
<circle cx="179.62" cy="442.69" r="1.6666666666666667" />
<circle cx="179.79" cy="442.40" r="1.6666666666666667" />
<circle cx="179.96" cy="441.83" r="1.6666666666666667" />
<circle cx="180.13" cy="442.55" r="1.6666666666666667" />
<circle cx="201.87" cy="448.55" r="1.6666666666666667" />
<circle cx="601.16" cy="470.27" r="1.6666666666666667" />
<circle cx="601.53" cy="464.57" r="1.6666666666666667" />
<circle cx="601.96" cy="469.47" r="1.6666666666666667" />
<circle cx="602.24" cy="457.03" r="1.6666666666666667" />
<circle cx="602.67" cy="468.99" r="1.6666666666666667" />
<circle cx="602.96" cy="458.50" r="1.6666666666666667" />
<circle cx="603.37" cy="467.62" r="1.6666666666666667" />
<circle cx="603.63" cy="454.36" r="1.6666666666666667" />
<circle cx="604.02" cy="466.48" r="1.6666666666666667" />
<circle cx="604.34" cy="460.63" r="1.6666666666666667" />
<circle cx="604.74" cy="467.80" r="1.6666666666666667" />
<circle cx="605.06" cy="460.78" r="1.6666666666666667" />
<circle cx="605.47" cy="467.58" r="1.6666666666666667" />
<circle cx="605.79" cy="460.92" r="1.6666666666666667" />
<circle cx="606.21" cy="468.37" r="1.6666666666666667" />
<circle cx="606.57" cy="464.38" r="1.6666666666666667" />
<circle cx="607.03" cy="471.39" r="1.6666666666666667" />
<circle cx="607.41" cy="466.12" r="1.6666666666666667" />
<circle cx="607.92" cy="473.87" r="1.6666666666666667" />
<circle cx="608.32" cy="467.47" r="1.6666666666666667" />
<circle cx="608.82" cy="473.62" r="1.6666666666666667" />
<circle cx="609.23" cy="468.28" r="1.6666666666666667" />
<circle cx="609.73" cy="473.60" r="1.6666666666666667" />
<circle cx="610.12" cy="467.08" r="1.6666666666666667" />
<circle cx="611.02" cy="491.10" r="1.6666666666666667" />
<circle cx="611.49" cy="471.63" r="1.6666666666666667" />
<circle cx="611.93" cy="469.87" r="1.6666666666666667" />
<circle cx="612.45" cy="475.07" r="1.6666666666666667" />
<circle cx="612.85" cy="467.31" r="1.6666666666666667" />
<circle cx="613.37" cy="474.86" r="1.6666666666666667" />
<circle cx="613.77" cy="467.79" r="1.6666666666666667" />
<circle cx="614.29" cy="474.69" r="1.6666666666666667" />
<circle cx="614.71" cy="468.98" r="1.6666666666666667" />
<circle cx="615.25" cy="476.02" r="1.6666666666666667" />
<circle cx="615.68" cy="468.99" r="1.6666666666666667" />
<circle cx="616.19" cy="474.23" r="1.6666666666666667" />
<circle cx="616.59" cy="467.82" r="1.6666666666666667" />
<circle cx="617.07" cy="472.31" r="1.6666666666666667" />
<circle cx="617.49" cy="468.87" r="1.6666666666666667" />
<circle cx="617.99" cy="473.69" r="1.6666666666666667" />
<circle cx="618.38" cy="466.91" r="1.6666666666666667" />
<circle cx="618.89" cy="474.38" r="1.6666666666666667" />
<circle cx="619.28" cy="466.36" r="1.6666666666666667" />
<circle cx="619.76" cy="472.27" r="1.6666666666666667" />
<circle cx="620.17" cy="467.99" r="1.6666666666666667" />
<circle cx="620.67" cy="474.24" r="1.6666666666666667" />
<circle cx="621.11" cy="469.59" r="1.6666666666666667" />
<circle cx="621.60" cy="473.22" r="1.6666666666666667" />
<circle cx="622.01" cy="468.13" r="1.6666666666666667" />
<circle cx="622.53" cy="474.86" r="1.6666666666666667" />
<circle cx="622.97" cy="470.44" r="1.6666666666666667" />
<circle cx="623.51" cy="476.01" r="1.6666666666666667" />
<circle cx="623.92" cy="467.52" r="1.6666666666666667" />
<circle cx="624.43" cy="474.82" r="1.6666666666666667" />
<circle cx="624.86" cy="468.98" r="1.6666666666666667" />
<circle cx="625.35" cy="473.25" r="1.6666666666666667" />
<circle cx="625.76" cy="468.08" r="1.6666666666666667" />
<circle cx="626.30" cy="475.79" r="1.6666666666666667" />
<circle cx="626.71" cy="468.30" r="1.6666666666666667" />
<circle cx="627.22" cy="474.21" r="1.6666666666666667" />
<circle cx="627.63" cy="468.50" r="1.6666666666666667" />
<circle cx="628.17" cy="475.83" r="1.6666666666666667" />
<circle cx="628.60" cy="469.35" r="1.6666666666666667" />
<circle cx="629.15" cy="476.53" r="1.6666666666666667" />
<circle cx="629.61" cy="471.40" r="1.6666666666666667" />
<circle cx="630.13" cy="475.25" r="1.6666666666666667" />
<circle cx="630.58" cy="470.31" r="1.6666666666666667" />
<circle cx="631.09" cy="474.60" r="1.6666666666666667" />
<circle cx="631.57" cy="472.32" r="1.6666666666666667" />
<circle cx="632.07" cy="473.80" r="1.6666666666666667" />
<circle cx="632.53" cy="471.38" r="1.6666666666666667" />
<circle cx="633.07" cy="476.08" r="1.6666666666666667" />
<circle cx="633.49" cy="468.84" r="1.6666666666666667" />
<circle cx="634.02" cy="475.73" r="1.6666666666666667" />
<circle cx="634.50" cy="472.23" r="1.6666666666666667" />
<circle cx="635.03" cy="475.47" r="1.6666666666666667" />
<circle cx="635.50" cy="472.20" r="1.6666666666666667" />
<circle cx="636.02" cy="475.00" r="1.6666666666666667" />
<circle cx="636.50" cy="472.70" r="1.6666666666666667" />
<circle cx="637.03" cy="475.61" r="1.6666666666666667" />
<circle cx="637.49" cy="470.99" r="1.6666666666666667" />
<circle cx="638.40" cy="491.54" r="1.6666666666666667" />
<circle cx="638.85" cy="470.28" r="1.6666666666666667" />
<circle cx="639.44" cy="478.67" r="1.6666666666666667" />
<circle cx="639.90" cy="471.53" r="1.6666666666666667" />
<circle cx="727.76" cy="448.82" r="1.6666666666666667" />
<circle cx="727.99" cy="450.15" r="1.6666666666666667" />
<circle cx="728.21" cy="449.80" r="1.6666666666666667" />
<circle cx="728.43" cy="450.12" r="1.6666666666666667" />
<circle cx="728.67" cy="451.54" r="1.6666666666666667" />
<circle cx="728.89" cy="449.79" r="1.6666666666666667" />
<circle cx="729.11" cy="450.46" r="1.6666666666666667" />
<circle cx="729.34" cy="450.13" r="1.6666666666666667" />
<circle cx="729.56" cy="450.88" r="1.6666666666666667" />
<circle cx="729.80" cy="451.06" r="1.6666666666666667" />
<circle cx="730.02" cy="450.16" r="1.6666666666666667" />
<circle cx="730.24" cy="450.18" r="1.6666666666666667" />
<circle cx="730.47" cy="450.51" r="1.6666666666666667" />
<circle cx="730.70" cy="450.80" r="1.6666666666666667" />
<circle cx="730.92" cy="450.21" r="1.6666666666666667" />
<circle cx="731.14" cy="450.00" r="1.6666666666666667" />
<circle cx="731.38" cy="452.44" r="1.6666666666666667" />
<circle cx="731.62" cy="451.13" r="1.6666666666666667" />
<circle cx="731.84" cy="450.00" r="1.6666666666666667" />
<circle cx="732.07" cy="451.18" r="1.6666666666666667" />
<circle cx="732.30" cy="451.50" r="1.6666666666666667" />
<circle cx="732.53" cy="450.51" r="1.6666666666666667" />
<circle cx="732.77" cy="451.70" r="1.6666666666666667" />
<circle cx="746.29" cy="446.01" r="1.6666666666666667" />
<circle cx="746.49" cy="446.75" r="1.6666666666666667" />
<circle cx="746.70" cy="448.99" r="1.6666666666666667" />
<circle cx="746.91" cy="447.74" r="1.6666666666666667" />
<circle cx="747.12" cy="448.32" r="1.6666666666666667" />
<circle cx="747.33" cy="448.06" r="1.6666666666666667" />
<circle cx="747.53" cy="447.17" r="1.6666666666666667" />
<circle cx="747.74" cy="447.56" r="1.6666666666666667" />
<circle cx="747.93" cy="446.83" r="1.6666666666666667" />
<circle cx="748.14" cy="447.46" r="1.6666666666666667" />
<circle cx="748.34" cy="446.86" r="1.6666666666666667" />
<circle cx="748.54" cy="447.47" r="1.6666666666666667" />
<circle cx="748.75" cy="447.42" r="1.6666666666666667" />
<circle cx="748.96" cy="448.53" r="1.6666666666666667" />
<circle cx="749.17" cy="448.23" r="1.6666666666666667" />
<circle cx="749.38" cy="448.38" r="1.6666666666666667" />
<circle cx="749.59" cy="448.10" r="1.6666666666666667" />
<circle cx="749.79" cy="446.96" r="1.6666666666666667" />
<circle cx="749.99" cy="447.68" r="1.6666666666666667" />
<circle cx="750.20" cy="448.11" r="1.6666666666666667" />
<circle cx="750.41" cy="447.96" r="1.6666666666666667" />
<circle cx="750.61" cy="447.05" r="1.6666666666666667" />
<circle cx="750.82" cy="448.40" r="1.6666666666666667" />
<circle cx="751.03" cy="448.38" r="1.6666666666666667" />
<circle cx="751.22" cy="446.25" r="1.6666666666666667" />
<circle cx="751.42" cy="446.50" r="1.6666666666666667" />
<circle cx="751.62" cy="446.84" r="1.6666666666666667" />
<circle cx="751.82" cy="446.87" r="1.6666666666666667" />
<circle cx="752.02" cy="446.93" r="1.6666666666666667" />
<circle cx="752.22" cy="446.90" r="1.6666666666666667" />
<circle cx="752.43" cy="447.88" r="1.6666666666666667" />
<circle cx="752.62" cy="445.67" r="1.6666666666666667" />
<circle cx="752.82" cy="447.16" r="1.6666666666666667" />
<circle cx="753.02" cy="447.17" r="1.6666666666666667" />
<circle cx="753.22" cy="446.74" r="1.6666666666666667" />
<circle cx="753.42" cy="446.19" r="1.6666666666666667" />
<circle cx="753.62" cy="446.98" r="1.6666666666666667" />
<circle cx="753.82" cy="447.04" r="1.6666666666666667" />
<circle cx="754.03" cy="448.20" r="1.6666666666666667" />
<circle cx="754.23" cy="447.71" r="1.6666666666666667" />
<circle cx="754.44" cy="447.17" r="1.6666666666666667" />
<circle cx="754.64" cy="446.98" r="1.6666666666666667" />
<circle cx="754.83" cy="446.51" r="1.6666666666666667" />
<circle cx="755.03" cy="446.79" r="1.6666666666666667" />
<circle cx="755.24" cy="447.38" r="1.6666666666666667" />
<circle cx="755.44" cy="447.38" r="1.6666666666666667" />
<circle cx="755.65" cy="448.10" r="1.6666666666666667" />
<circle cx="755.85" cy="447.28" r="1.6666666666666667" />
<circle cx="756.05" cy="446.78" r="1.6666666666666667" />
<circle cx="756.25" cy="446.66" r="1.6666666666666667" />
<circle cx="756.45" cy="447.30" r="1.6666666666666667" />
<circle cx="756.65" cy="446.00" r="1.6666666666666667" />
<circle cx="756.85" cy="447.16" r="1.6666666666666667" />
<circle cx="757.04" cy="446.19" r="1.6666666666666667" />
<circle cx="757.24" cy="446.41" r="1.6666666666666667" />
<circle cx="757.44" cy="446.15" r="1.6666666666666667" />
<circle cx="757.64" cy="446.97" r="1.6666666666666667" />
<circle cx="757.84" cy="447.19" r="1.6666666666666667" />
<circle cx="758.04" cy="447.84" r="1.6666666666666667" />
<circle cx="758.25" cy="447.26" r="1.6666666666666667" />
<circle cx="758.45" cy="446.77" r="1.6666666666666667" />
<circle cx="758.65" cy="447.74" r="1.6666666666666667" />
<circle cx="758.86" cy="447.91" r="1.6666666666666667" />
<circle cx="759.06" cy="447.74" r="1.6666666666666667" />
<circle cx="759.26" cy="446.77" r="1.6666666666666667" />
<circle cx="759.47" cy="447.51" r="1.6666666666666667" />
<circle cx="759.68" cy="448.07" r="1.6666666666666667" />
<circle cx="759.88" cy="447.75" r="1.6666666666666667" />
<circle cx="760.09" cy="447.36" r="1.6666666666666667" />
<circle cx="760.29" cy="447.94" r="1.6666666666666667" />
<circle cx="760.50" cy="447.85" r="1.6666666666666667" />
<circle cx="760.70" cy="447.58" r="1.6666666666666667" />
<circle cx="760.91" cy="447.07" r="1.6666666666666667" />
<circle cx="761.11" cy="447.31" r="1.6666666666666667" />
<circle cx="761.32" cy="448.26" r="1.6666666666666667" />
<circle cx="761.52" cy="447.47" r="1.6666666666666667" />
<circle cx="761.72" cy="447.12" r="1.6666666666666667" />
<circle cx="761.93" cy="447.75" r="1.6666666666666667" />
<circle cx="762.14" cy="448.02" r="1.6666666666666667" />
<circle cx="762.34" cy="447.08" r="1.6666666666666667" />
<circle cx="762.54" cy="446.73" r="1.6666666666666667" />
<circle cx="762.74" cy="446.63" r="1.6666666666666667" />
<circle cx="762.94" cy="447.13" r="1.6666666666666667" />
<circle cx="763.14" cy="446.95" r="1.6666666666666667" />
<circle cx="763.34" cy="447.22" r="1.6666666666666667" />
<circle cx="763.53" cy="445.26" r="1.6666666666666667" />
<circle cx="763.72" cy="446.37" r="1.6666666666666667" />
<circle cx="763.92" cy="445.96" r="1.6666666666666667" />
<circle cx="764.12" cy="446.98" r="1.6666666666666667" />
<circle cx="764.32" cy="446.46" r="1.6666666666666667" />
<circle cx="764.52" cy="446.95" r="1.6666666666666667" />
<circle cx="764.72" cy="447.74" r="1.6666666666666667" />
<circle cx="764.92" cy="447.05" r="1.6666666666666667" />
<circle cx="765.12" cy="446.59" r="1.6666666666666667" />
<circle cx="765.32" cy="447.09" r="1.6666666666666667" />
<circle cx="765.52" cy="446.63" r="1.6666666666666667" />
<circle cx="765.73" cy="447.96" r="1.6666666666666667" />
<circle cx="765.93" cy="447.38" r="1.6666666666666667" />
<circle cx="766.14" cy="447.75" r="1.6666666666666667" />
<circle cx="766.95" cy="487.97" r="1.6666666666666667" />
<circle cx="767.16" cy="448.33" r="1.6666666666666667" />
<circle cx="767.36" cy="447.09" r="1.6666666666666667" />
<circle cx="767.56" cy="446.96" r="1.6666666666666667" />
<circle cx="767.76" cy="446.86" r="1.6666666666666667" />
<circle cx="767.96" cy="447.63" r="1.6666666666666667" />
<circle cx="768.17" cy="447.71" r="1.6666666666666667" />
<circle cx="768.38" cy="447.70" r="1.6666666666666667" />
<circle cx="768.58" cy="447.83" r="1.6666666666666667" />
<circle cx="768.78" cy="447.17" r="1.6666666666666667" />
<circle cx="768.99" cy="448.31" r="1.6666666666666667" />
<circle cx="769.20" cy="447.49" r="1.6666666666666667" />
<circle cx="769.41" cy="448.04" r="1.6666666666666667" />
<circle cx="769.61" cy="447.46" r="1.6666666666666667" />
<circle cx="769.81" cy="447.00" r="1.6666666666666667" />
<circle cx="770.01" cy="447.51" r="1.6666666666666667" />
<circle cx="770.22" cy="447.05" r="1.6666666666666667" />
<circle cx="770.41" cy="446.27" r="1.6666666666666667" />
<circle cx="770.62" cy="448.36" r="1.6666666666666667" />
<circle cx="770.83" cy="447.90" r="1.6666666666666667" />
<circle cx="771.04" cy="447.91" r="1.6666666666666667" />
<circle cx="771.24" cy="447.66" r="1.6666666666666667" />
<circle cx="771.45" cy="448.76" r="1.6666666666666667" />
<circle cx="771.67" cy="448.45" r="1.6666666666666667" />
<circle cx="771.87" cy="447.80" r="1.6666666666666667" />
<circle cx="772.07" cy="446.98" r="1.6666666666666667" />
<circle cx="772.26" cy="445.66" r="1.6666666666666667" />
<circle cx="772.46" cy="445.79" r="1.6666666666666667" />
<circle cx="772.65" cy="445.38" r="1.6666666666666667" />
<circle cx="772.84" cy="445.82" r="1.6666666666666667" />
<circle cx="773.03" cy="445.33" r="1.6666666666666667" />
<circle cx="773.21" cy="444.62" r="1.6666666666666667" />
<circle cx="773.40" cy="445.48" r="1.6666666666666667" />
<circle cx="773.59" cy="444.31" r="1.6666666666666667" />
<circle cx="773.77" cy="443.97" r="1.6666666666666667" />
<circle cx="773.96" cy="445.40" r="1.6666666666666667" />
<circle cx="774.15" cy="445.69" r="1.6666666666666667" />
<circle cx="774.34" cy="445.22" r="1.6666666666666667" />
<circle cx="774.53" cy="445.65" r="1.6666666666666667" />
<circle cx="774.72" cy="444.91" r="1.6666666666666667" />
<circle cx="774.91" cy="445.89" r="1.6666666666666667" />
<circle cx="775.10" cy="445.86" r="1.6666666666666667" />
<circle cx="775.29" cy="445.28" r="1.6666666666666667" />
<circle cx="775.48" cy="444.92" r="1.6666666666666667" />
<circle cx="775.68" cy="447.34" r="1.6666666666666667" />
<circle cx="775.89" cy="448.11" r="1.6666666666666667" />
<circle cx="776.10" cy="447.79" r="1.6666666666666667" />
<circle cx="776.30" cy="447.54" r="1.6666666666666667" />
<circle cx="776.51" cy="447.45" r="1.6666666666666667" />
<circle cx="776.72" cy="448.57" r="1.6666666666666667" />
<circle cx="776.93" cy="447.82" r="1.6666666666666667" />
<circle cx="777.13" cy="447.83" r="1.6666666666666667" />
<circle cx="777.33" cy="447.32" r="1.6666666666666667" />
<circle cx="777.54" cy="447.68" r="1.6666666666666667" />
<circle cx="777.75" cy="447.98" r="1.6666666666666667" />
<circle cx="777.95" cy="447.94" r="1.6666666666666667" />
<circle cx="778.17" cy="448.40" r="1.6666666666666667" />
<circle cx="778.38" cy="449.27" r="1.6666666666666667" />
<circle cx="778.60" cy="448.91" r="1.6666666666666667" />
<circle cx="778.80" cy="447.73" r="1.6666666666666667" />
<circle cx="779.01" cy="447.87" r="1.6666666666666667" />
<circle cx="779.22" cy="448.76" r="1.6666666666666667" />
<circle cx="779.43" cy="448.03" r="1.6666666666666667" />
<circle cx="779.63" cy="447.28" r="1.6666666666666667" />
<circle cx="779.85" cy="449.03" r="1.6666666666666667" />
<circle cx="780.06" cy="448.49" r="1.6666666666666667" />
<circle cx="780.27" cy="449.01" r="1.6666666666666667" />
<circle cx="780.49" cy="449.09" r="1.6666666666666667" />
<circle cx="780.70" cy="448.53" r="1.6666666666666667" />
<circle cx="780.91" cy="448.70" r="1.6666666666666667" />
<circle cx="781.12" cy="448.51" r="1.6666666666666667" />
<circle cx="781.34" cy="448.83" r="1.6666666666666667" />
<circle cx="781.55" cy="448.88" r="1.6666666666666667" />
<circle cx="781.77" cy="449.14" r="1.6666666666666667" />
<circle cx="781.99" cy="449.27" r="1.6666666666666667" />
<circle cx="782.20" cy="448.37" r="1.6666666666666667" />
<circle cx="782.41" cy="448.94" r="1.6666666666666667" />
<circle cx="782.62" cy="448.47" r="1.6666666666666667" />
<circle cx="782.83" cy="448.59" r="1.6666666666666667" />
<circle cx="783.05" cy="449.33" r="1.6666666666666667" />
<circle cx="783.26" cy="448.30" r="1.6666666666666667" />
<circle cx="783.47" cy="448.78" r="1.6666666666666667" />
<circle cx="783.69" cy="449.75" r="1.6666666666666667" />
<circle cx="783.90" cy="447.40" r="1.6666666666666667" />
<circle cx="784.11" cy="448.08" r="1.6666666666666667" />
<circle cx="784.32" cy="448.91" r="1.6666666666666667" />
<circle cx="784.53" cy="447.96" r="1.6666666666666667" />
<circle cx="784.74" cy="449.42" r="1.6666666666666667" />
<circle cx="784.96" cy="449.45" r="1.6666666666666667" />
<circle cx="785.19" cy="450.45" r="1.6666666666666667" />
<circle cx="785.41" cy="450.35" r="1.6666666666666667" />
<circle cx="785.62" cy="448.26" r="1.6666666666666667" />
<circle cx="785.83" cy="448.51" r="1.6666666666666667" />
<circle cx="786.05" cy="449.19" r="1.6666666666666667" />
<circle cx="786.27" cy="449.64" r="1.6666666666666667" />
<circle cx="786.48" cy="448.42" r="1.6666666666666667" />
<circle cx="786.70" cy="449.02" r="1.6666666666666667" />
<circle cx="786.92" cy="450.03" r="1.6666666666666667" />
<circle cx="787.13" cy="448.96" r="1.6666666666666667" />
<circle cx="787.35" cy="449.47" r="1.6666666666666667" />
<circle cx="787.57" cy="449.57" r="1.6666666666666667" />
<circle cx="787.79" cy="449.32" r="1.6666666666666667" />
<circle cx="788.00" cy="448.84" r="1.6666666666666667" />
<circle cx="788.21" cy="447.87" r="1.6666666666666667" />
<circle cx="788.42" cy="447.98" r="1.6666666666666667" />
<circle cx="788.63" cy="449.17" r="1.6666666666666667" />
<circle cx="788.86" cy="450.47" r="1.6666666666666667" />
<circle cx="789.07" cy="449.28" r="1.6666666666666667" />
<circle cx="789.29" cy="449.22" r="1.6666666666666667" />
<circle cx="789.51" cy="449.70" r="1.6666666666666667" />
<circle cx="789.73" cy="449.28" r="1.6666666666666667" />
<circle cx="789.94" cy="448.94" r="1.6666666666666667" />
<circle cx="790.15" cy="448.10" r="1.6666666666666667" />
<circle cx="790.36" cy="448.61" r="1.6666666666666667" />
<circle cx="790.59" cy="450.26" r="1.6666666666666667" />
<circle cx="790.81" cy="449.64" r="1.6666666666666667" />
<circle cx="791.03" cy="449.59" r="1.6666666666666667" />
<circle cx="791.25" cy="449.99" r="1.6666666666666667" />
<circle cx="791.47" cy="450.19" r="1.6666666666666667" />
<circle cx="791.70" cy="450.46" r="1.6666666666666667" />
<circle cx="791.92" cy="449.83" r="1.6666666666666667" />
<circle cx="792.15" cy="450.74" r="1.6666666666666667" />
<circle cx="792.36" cy="449.29" r="1.6666666666666667" />
<circle cx="792.57" cy="448.11" r="1.6666666666666667" />
<circle cx="792.79" cy="449.06" r="1.6666666666666667" />
<circle cx="793.00" cy="448.70" r="1.6666666666666667" />
<circle cx="793.22" cy="450.20" r="1.6666666666666667" />
<circle cx="793.44" cy="449.50" r="1.6666666666666667" />
<circle cx="793.66" cy="449.48" r="1.6666666666666667" />
<circle cx="793.90" cy="451.61" r="1.6666666666666667" />
<circle cx="794.12" cy="450.27" r="1.6666666666666667" />
<circle cx="794.34" cy="449.68" r="1.6666666666666667" />
<circle cx="794.57" cy="450.84" r="1.6666666666666667" />
<circle cx="794.80" cy="450.42" r="1.6666666666666667" />
<circle cx="795.02" cy="450.63" r="1.6666666666666667" />
<circle cx="795.25" cy="450.54" r="1.6666666666666667" />
<circle cx="796.15" cy="491.13" r="1.6666666666666667" />
<circle cx="796.37" cy="449.93" r="1.6666666666666667" />
<circle cx="796.60" cy="450.65" r="1.6666666666666667" />
<circle cx="796.83" cy="450.53" r="1.6666666666666667" />
<circle cx="797.05" cy="450.86" r="1.6666666666666667" />
<circle cx="797.29" cy="451.33" r="1.6666666666666667" />
<circle cx="797.52" cy="450.80" r="1.6666666666666667" />
<circle cx="797.74" cy="449.93" r="1.6666666666666667" />
<circle cx="797.96" cy="450.25" r="1.6666666666666667" />
<circle cx="798.19" cy="451.19" r="1.6666666666666667" />
<circle cx="798.42" cy="450.86" r="1.6666666666666667" />
<circle cx="798.65" cy="450.21" r="1.6666666666666667" />
<circle cx="798.88" cy="451.85" r="1.6666666666666667" />
<circle cx="799.12" cy="452.02" r="1.6666666666666667" />
<circle cx="799.35" cy="450.89" r="1.6666666666666667" />
<circle cx="799.58" cy="450.63" r="1.6666666666666667" />
<circle cx="799.81" cy="451.59" r="1.6666666666666667" />
<circle cx="800.04" cy="450.24" r="1.6666666666666667" />
<circle cx="800.27" cy="451.19" r="1.6666666666666667" />
<circle cx="800.49" cy="449.90" r="1.6666666666666667" />
<circle cx="800.71" cy="450.10" r="1.6666666666666667" />
<circle cx="800.94" cy="451.11" r="1.6666666666666667" />
<circle cx="801.17" cy="450.32" r="1.6666666666666667" />
<circle cx="801.40" cy="450.94" r="1.6666666666666667" />
<circle cx="801.63" cy="451.49" r="1.6666666666666667" />
<circle cx="801.87" cy="451.74" r="1.6666666666666667" />
<circle cx="802.10" cy="451.05" r="1.6666666666666667" />
<circle cx="802.34" cy="451.94" r="1.6666666666666667" />
<circle cx="802.57" cy="451.71" r="1.6666666666666667" />
<circle cx="802.81" cy="452.64" r="1.6666666666666667" />
<circle cx="803.05" cy="451.75" r="1.6666666666666667" />
<circle cx="803.29" cy="452.05" r="1.6666666666666667" />
<circle cx="803.52" cy="451.68" r="1.6666666666666667" />
<circle cx="803.76" cy="451.69" r="1.6666666666666667" />
<circle cx="803.99" cy="451.34" r="1.6666666666666667" />
<circle cx="804.23" cy="452.00" r="1.6666666666666667" />
<circle cx="804.46" cy="451.60" r="1.6666666666666667" />
<circle cx="804.70" cy="451.18" r="1.6666666666666667" />
<circle cx="804.93" cy="451.53" r="1.6666666666666667" />
<circle cx="805.17" cy="451.86" r="1.6666666666666667" />
<circle cx="805.40" cy="451.60" r="1.6666666666666667" />
<circle cx="805.64" cy="451.97" r="1.6666666666666667" />
<circle cx="805.88" cy="452.12" r="1.6666666666666667" />
<circle cx="806.12" cy="452.04" r="1.6666666666666667" />
<circle cx="806.34" cy="450.53" r="1.6666666666666667" />
<circle cx="806.57" cy="450.82" r="1.6666666666666667" />
<circle cx="806.81" cy="451.69" r="1.6666666666666667" />
<circle cx="807.04" cy="451.97" r="1.6666666666666667" />
<circle cx="807.28" cy="451.69" r="1.6666666666666667" />
<circle cx="807.52" cy="452.42" r="1.6666666666666667" />
<circle cx="807.76" cy="452.10" r="1.6666666666666667" />
<circle cx="808.00" cy="452.07" r="1.6666666666666667" />
<circle cx="808.23" cy="451.36" r="1.6666666666666667" />
<circle cx="808.46" cy="451.25" r="1.6666666666666667" />
<circle cx="808.70" cy="452.22" r="1.6666666666666667" />
<circle cx="808.95" cy="452.75" r="1.6666666666666667" />
<circle cx="809.19" cy="452.29" r="1.6666666666666667" />
<circle cx="809.43" cy="452.34" r="1.6666666666666667" />
<circle cx="809.66" cy="451.74" r="1.6666666666666667" />
<circle cx="809.90" cy="451.55" r="1.6666666666666667" />
<circle cx="810.14" cy="452.19" r="1.6666666666666667" />
<circle cx="810.38" cy="451.79" r="1.6666666666666667" />
<circle cx="810.61" cy="452.06" r="1.6666666666666667" />
<circle cx="810.86" cy="452.77" r="1.6666666666666667" />
<circle cx="811.10" cy="452.60" r="1.6666666666666667" />
<circle cx="811.33" cy="451.09" r="1.6666666666666667" />
<circle cx="811.57" cy="451.58" r="1.6666666666666667" />
<circle cx="811.80" cy="451.24" r="1.6666666666666667" />
<circle cx="812.04" cy="452.60" r="1.6666666666666667" />
<circle cx="812.28" cy="452.06" r="1.6666666666666667" />
<circle cx="812.52" cy="452.75" r="1.6666666666666667" />
<circle cx="812.77" cy="453.49" r="1.6666666666666667" />
<circle cx="813.01" cy="451.64" r="1.6666666666666667" />
<circle cx="813.24" cy="451.58" r="1.6666666666666667" />
<circle cx="813.49" cy="452.55" r="1.6666666666666667" />
<circle cx="813.73" cy="452.69" r="1.6666666666666667" />
<circle cx="813.97" cy="452.42" r="1.6666666666666667" />
<circle cx="814.22" cy="453.43" r="1.6666666666666667" />
<circle cx="814.47" cy="453.03" r="1.6666666666666667" />
<circle cx="814.71" cy="452.69" r="1.6666666666666667" />
<circle cx="814.95" cy="452.24" r="1.6666666666666667" />
<circle cx="815.19" cy="452.46" r="1.6666666666666667" />
<circle cx="815.44" cy="452.88" r="1.6666666666666667" />
<circle cx="815.68" cy="452.71" r="1.6666666666666667" />
<circle cx="815.93" cy="453.30" r="1.6666666666666667" />
<circle cx="816.18" cy="453.48" r="1.6666666666666667" />
<circle cx="816.42" cy="452.35" r="1.6666666666666667" />
<circle cx="816.66" cy="452.56" r="1.6666666666666667" />
<circle cx="816.91" cy="452.40" r="1.6666666666666667" />
<circle cx="817.14" cy="452.12" r="1.6666666666666667" />
<circle cx="817.38" cy="452.12" r="1.6666666666666667" />
<circle cx="817.63" cy="453.08" r="1.6666666666666667" />
<circle cx="817.88" cy="453.74" r="1.6666666666666667" />
<circle cx="818.13" cy="452.55" r="1.6666666666666667" />
<circle cx="818.37" cy="453.27" r="1.6666666666666667" />
<circle cx="818.62" cy="453.30" r="1.6666666666666667" />
<circle cx="818.88" cy="454.85" r="1.6666666666666667" />
<circle cx="819.14" cy="454.28" r="1.6666666666666667" />
<circle cx="819.41" cy="455.01" r="1.6666666666666667" />
<circle cx="819.67" cy="454.76" r="1.6666666666666667" />
<circle cx="819.92" cy="453.91" r="1.6666666666666667" />
<circle cx="820.18" cy="454.46" r="1.6666666666666667" />
<circle cx="820.44" cy="454.19" r="1.6666666666666667" />
<circle cx="820.69" cy="454.19" r="1.6666666666666667" />
<circle cx="820.94" cy="453.59" r="1.6666666666666667" />
<circle cx="821.21" cy="454.81" r="1.6666666666666667" />
<circle cx="821.46" cy="453.92" r="1.6666666666666667" />
<circle cx="821.71" cy="453.34" r="1.6666666666666667" />
<circle cx="821.96" cy="453.11" r="1.6666666666666667" />
<circle cx="822.20" cy="453.14" r="1.6666666666666667" />
<circle cx="822.46" cy="454.71" r="1.6666666666666667" />
<circle cx="822.73" cy="454.77" r="1.6666666666666667" />
<circle cx="823.49" cy="486.37" r="1.6666666666666667" />
<circle cx="823.75" cy="454.00" r="1.6666666666666667" />
<circle cx="824.00" cy="453.72" r="1.6666666666666667" />
<circle cx="824.26" cy="454.10" r="1.6666666666666667" />
<circle cx="824.51" cy="453.83" r="1.6666666666666667" />
<circle cx="824.77" cy="455.16" r="1.6666666666666667" />
<circle cx="825.02" cy="452.89" r="1.6666666666666667" />
<circle cx="825.27" cy="453.71" r="1.6666666666666667" />
<circle cx="825.53" cy="455.00" r="1.6666666666666667" />
<circle cx="825.79" cy="454.00" r="1.6666666666666667" />
<circle cx="826.05" cy="454.52" r="1.6666666666666667" />
<circle cx="826.31" cy="454.41" r="1.6666666666666667" />
<circle cx="826.58" cy="455.89" r="1.6666666666666667" />
<circle cx="826.83" cy="453.35" r="1.6666666666666667" />
<circle cx="827.09" cy="454.31" r="1.6666666666666667" />
<circle cx="827.35" cy="455.10" r="1.6666666666666667" />
<circle cx="827.61" cy="454.08" r="1.6666666666666667" />
<circle cx="827.87" cy="454.87" r="1.6666666666666667" />
<circle cx="828.12" cy="454.27" r="1.6666666666666667" />
<circle cx="828.38" cy="454.36" r="1.6666666666666667" />
<circle cx="828.64" cy="454.18" r="1.6666666666666667" />
<circle cx="828.89" cy="453.56" r="1.6666666666666667" />
<circle cx="829.15" cy="454.87" r="1.6666666666666667" />
<circle cx="829.41" cy="454.01" r="1.6666666666666667" />
<circle cx="829.68" cy="455.54" r="1.6666666666666667" />
<circle cx="829.95" cy="455.64" r="1.6666666666666667" />
<circle cx="830.21" cy="455.63" r="1.6666666666666667" />
<circle cx="830.48" cy="455.39" r="1.6666666666666667" />
<circle cx="830.75" cy="455.49" r="1.6666666666666667" />
<circle cx="831.02" cy="455.93" r="1.6666666666666667" />
<circle cx="831.29" cy="455.57" r="1.6666666666666667" />
<circle cx="831.55" cy="454.94" r="1.6666666666666667" />
<circle cx="831.82" cy="455.78" r="1.6666666666666667" />
<circle cx="832.09" cy="455.44" r="1.6666666666666667" />
<circle cx="832.36" cy="455.57" r="1.6666666666666667" />
<circle cx="832.63" cy="455.78" r="1.6666666666666667" />
<circle cx="832.90" cy="455.59" r="1.6666666666666667" />
<circle cx="833.17" cy="455.99" r="1.6666666666666667" />
<circle cx="833.44" cy="455.96" r="1.6666666666666667" />
<circle cx="833.71" cy="455.07" r="1.6666666666666667" />
<circle cx="833.98" cy="455.28" r="1.6666666666666667" />
<circle cx="834.25" cy="456.69" r="1.6666666666666667" />
<circle cx="834.52" cy="455.70" r="1.6666666666666667" />
<circle cx="834.80" cy="456.71" r="1.6666666666666667" />
<circle cx="835.08" cy="455.93" r="1.6666666666666667" />
<circle cx="835.34" cy="455.44" r="1.6666666666666667" />
<circle cx="835.60" cy="454.74" r="1.6666666666666667" />
<circle cx="835.88" cy="455.94" r="1.6666666666666667" />
<circle cx="836.15" cy="455.83" r="1.6666666666666667" />
<circle cx="836.42" cy="455.64" r="1.6666666666666667" />
<circle cx="836.69" cy="456.47" r="1.6666666666666667" />
<circle cx="836.97" cy="456.17" r="1.6666666666666667" />
<circle cx="837.24" cy="455.37" r="1.6666666666666667" />
<circle cx="837.51" cy="455.89" r="1.6666666666666667" />
<circle cx="837.78" cy="456.20" r="1.6666666666666667" />
<circle cx="838.06" cy="456.08" r="1.6666666666666667" />
<circle cx="838.33" cy="456.71" r="1.6666666666666667" />
<circle cx="838.61" cy="456.05" r="1.6666666666666667" />
<circle cx="838.88" cy="456.01" r="1.6666666666666667" />
<circle cx="839.17" cy="457.31" r="1.6666666666666667" />
<circle cx="839.46" cy="457.77" r="1.6666666666666667" />
<circle cx="839.74" cy="456.91" r="1.6666666666666667" />
<circle cx="840.02" cy="457.36" r="1.6666666666666667" />
<circle cx="840.31" cy="457.40" r="1.6666666666666667" />
<circle cx="840.59" cy="457.03" r="1.6666666666666667" />
<circle cx="840.88" cy="457.76" r="1.6666666666666667" />
<circle cx="841.17" cy="457.79" r="1.6666666666666667" />
<circle cx="841.45" cy="457.03" r="1.6666666666666667" />
<circle cx="841.74" cy="457.69" r="1.6666666666666667" />
<circle cx="842.03" cy="457.64" r="1.6666666666666667" />
<circle cx="842.32" cy="457.68" r="1.6666666666666667" />
<circle cx="842.60" cy="457.22" r="1.6666666666666667" />
<circle cx="842.90" cy="458.30" r="1.6666666666666667" />
<circle cx="843.19" cy="457.77" r="1.6666666666666667" />
<circle cx="843.48" cy="458.13" r="1.6666666666666667" />
<circle cx="843.78" cy="458.87" r="1.6666666666666667" />
<circle cx="844.07" cy="457.50" r="1.6666666666666667" />
<circle cx="844.36" cy="457.96" r="1.6666666666666667" />
<circle cx="844.66" cy="458.67" r="1.6666666666666667" />
<circle cx="844.95" cy="457.77" r="1.6666666666666667" />
<circle cx="845.24" cy="458.34" r="1.6666666666666667" />
<circle cx="845.54" cy="458.33" r="1.6666666666666667" />
<circle cx="845.83" cy="458.39" r="1.6666666666666667" />
<circle cx="846.14" cy="459.45" r="1.6666666666666667" />
<circle cx="846.43" cy="458.12" r="1.6666666666666667" />
<circle cx="846.73" cy="457.97" r="1.6666666666666667" />
<circle cx="847.03" cy="458.84" r="1.6666666666666667" />
<circle cx="847.32" cy="458.38" r="1.6666666666666667" />
<circle cx="847.61" cy="457.85" r="1.6666666666666667" />
<circle cx="847.91" cy="458.49" r="1.6666666666666667" />
<circle cx="848.21" cy="458.67" r="1.6666666666666667" />
<circle cx="848.49" cy="457.34" r="1.6666666666666667" />
<circle cx="848.80" cy="459.01" r="1.6666666666666667" />
<circle cx="849.09" cy="458.28" r="1.6666666666666667" />
<circle cx="849.39" cy="459.16" r="1.6666666666666667" />
<circle cx="849.69" cy="458.87" r="1.6666666666666667" />
<circle cx="850.00" cy="459.35" r="1.6666666666666667" />
</g>
<g stroke="black">
<line x1="813.75" x2="813.75" y1="510.00" y2="520.00" />
<line x1="760.60" x2="760.60" y1="510.00" y2="520.00" />
<line x1="707.45" x2="707.45" y1="510.00" y2="520.00" />
<line x1="656.01" x2="656.01" y1="510.00" y2="520.00" />
<line x1="602.86" x2="602.86" y1="510.00" y2="520.00" />
<line x1="551.42" x2="551.42" y1="510.00" y2="520.00" />
<line x1="498.27" x2="498.27" y1="510.00" y2="520.00" />
<line x1="445.11" x2="445.11" y1="510.00" y2="520.00" />
<line x1="393.68" x2="393.68" y1="510.00" y2="520.00" />
<line x1="340.52" x2="340.52" y1="510.00" y2="520.00" />
<line x1="289.09" x2="289.09" y1="510.00" y2="520.00" />
<line x1="235.93" x2="235.93" y1="510.00" y2="520.00" />
<line x1="187.92" x2="187.92" y1="510.00" y2="520.00" />
<g fill="black" font-family="Arial, sans-serif" font-size="18.0" stroke="none" text-anchor="start" transform="translate(9.0 0.0)">
<text x="813.75" y="530.57">Feb</text>
<text x="760.60" y="530.57">Jan</text>
<text x="707.45" y="530.57">Dec</text>
<text x="656.01" y="530.57">Nov</text>
<text x="602.86" y="530.57">Oct</text>
<text x="551.42" y="530.57">Sep</text>
<text x="498.27" y="530.57">Aug</text>
<text x="445.11" y="530.57">Jul</text>
<text x="393.68" y="530.57">Jun</text>
<text x="340.52" y="530.57">May</text>
<text x="289.09" y="530.57">Apr</text>
<text x="235.93" y="530.57">Mar</text>
<text x="187.92" y="530.57">Feb</text>
</g>
<line x1="150.00" x2="850.00" y1="510.00" y2="510.00" />
</g>
<g stroke="black">
<line x1="150.00" x2="140.00" y1="510.00" y2="510.00" />
<line x1="150.00" x2="140.00" y1="216.29" y2="216.29" />
<g fill="black" font-family="Arial, sans-serif" font-size="18.0" stroke="none" text-anchor="end">
<text x="141.00" y="501.00">0</text>
<text x="141.00" y="207.29">10</text>
</g>
<line x1="150.00" x2="150.00" y1="510.00" y2="90.00" />
</g>
</g>
</svg>