<?xml version="1.0"?>
<svg version="1.1" viewBox="0 0 1000 600" xmlns:xlink="http://www.w3.org/1999/xlink" xmlns="http://www.w3.org/2000/svg">
<g>
<g stroke-dasharray="3.6 7.2" stroke-width="0.72" stroke="#caa">
<line x1="828.41" x2="828.41" y1="510.00" y2="90.00" />
<line x1="785.75" x2="785.75" y1="510.00" y2="90.00" />
<line x1="741.68" x2="741.68" y1="510.00" y2="90.00" />
<line x1="700.44" x2="700.44" y1="510.00" y2="90.00" />
<line x1="656.36" x2="656.36" y1="510.00" y2="90.00" />
<line x1="612.28" x2="612.28" y1="510.00" y2="90.00" />
<line x1="569.63" x2="569.63" y1="510.00" y2="90.00" />
<line x1="525.55" x2="525.55" y1="510.00" y2="90.00" />
<line x1="482.89" x2="482.89" y1="510.00" y2="90.00" />
<line x1="438.81" x2="438.81" y1="510.00" y2="90.00" />
<line x1="394.73" x2="394.73" y1="510.00" y2="90.00" />
<line x1="352.08" x2="352.08" y1="510.00" y2="90.00" />
<line x1="308.00" x2="308.00" y1="510.00" y2="90.00" />
<line x1="265.34" x2="265.34" y1="510.00" y2="90.00" />
<line x1="221.26" x2="221.26" y1="510.00" y2="90.00" />
<line x1="181.45" x2="181.45" y1="510.00" y2="90.00" />
<line x1="150.00" x2="850.00" y1="510.00" y2="510.00" />
<line x1="150.00" x2="850.00" y1="216.29" y2="216.29" />
</g>
<g>
<text dominant-baseline="hanging" dx="-36.0" dy="18.0" fill="#0004" font-family="Arial, sans-serif" font-size="36" stroke="none" text-anchor="end" x="850.00" y="128.18">ThMuCh0ConjoinedBottom</text>
</g>
<g>
<text dominant-baseline="text-bottom" dy="-12.0" fill="black" font-family="Arial, sans-serif" font-size="18.0" font-style="italic" stroke="none" text-anchor="middle" x="500.00" y="90.00">Years 2023 to 2024</text>
</g>
<g>
<text dominant-baseline="central" dx="12.0" dy="12.0" fill="black" font-family="Arial, sans-serif" font-size="18.0" font-style="italic" stroke="none" text-anchor="middle" text-orientation="sideways" writing-mode="vertical-lr" x="850.00" y="300.00">log(Drips per day)</text>
</g>
<polyline fill="none" points="150.18,434.89 150.29,434.87 150.41,437.26 150.53,436.76 150.64,435.80 150.75,435.06 150.87,436.07 150.98,435.75 151.10,436.41 151.22,437.09 151.33,435.42 151.44,436.40 151.55,434.86 151.67,436.66 151.79,437.43 151.91,437.50 152.03,436.60 152.14,436.27 152.26,435.65 173.10,444.11 173.25,443.33 173.39,443.50 173.54,443.41 173.69,442.96 173.84,444.40 173.99,443.53 174.13,442.61 174.28,443.01 174.42,442.06 174.56,442.69 174.70,442.40 174.84,441.83 174.99,442.55 193.02,448.55 524.14,470.27 524.45,464.57 524.80,469.47 525.04,457.03 525.39,468.99 525.64,458.50 525.97,467.62 526.19,454.36 526.51,466.48 526.77,460.63 527.11,467.80 527.38,460.78 527.71,467.58 527.98,460.92 528.32,468.37 528.63,464.38 529.01,471.39 529.33,466.12 529.74,473.87 530.08,467.47 530.49,473.62 530.83,468.28 531.24,473.60 531.57,467.08 532.32,491.10 532.71,471.63 533.07,469.87 533.50,475.07 533.83,467.31 534.26,474.86 534.60,467.79 535.03,474.69 535.38,468.98 535.83,476.02 536.18,468.99 536.60,474.23 536.94,467.82 537.33,472.31 537.68,468.87 538.10,473.69 538.42,466.91 538.85,474.38 539.17,466.36 539.56,472.27 539.90,467.99 540.32,474.24 540.68,469.59 541.09,473.22 541.43,468.13 541.86,474.86 542.23,470.44 542.68,476.01 543.01,467.52 543.44,474.82 543.79,468.98 544.20,473.25 544.54,468.08 544.98,475.79 545.33,468.30 545.75,474.21 546.09,468.50 546.54,475.83 546.90,469.35 547.35,476.53 547.73,471.40 548.17,475.25 548.54,470.31 548.96,474.60 549.36,472.32 549.77,473.80 550.15,471.38 550.60,476.08 550.95,468.84 551.39,475.73 551.79,472.23 552.22,475.47 552.62,472.20 553.05,475.00 553.45,472.70 553.89,475.61 554.27,470.99 555.02,491.54 555.39,470.28 555.88,478.67 556.27,471.53 629.13,448.82 629.32,450.15 629.50,449.80 629.68,450.12 629.88,451.54 630.06,449.79 630.25,450.46 630.43,450.13 630.62,450.88 630.82,451.06 631.00,450.16 631.19,450.18 631.37,450.51 631.56,450.80 631.75,450.21 631.93,450.00 632.13,452.44 632.32,451.13 632.51,450.00 632.70,451.18 632.90,451.50 633.08,450.51 633.28,451.70 644.49,446.01 644.66,446.75 644.84,448.99 645.01,447.74 645.18,448.32 645.36,448.06 645.52,447.17 645.69,447.56 645.86,446.83 646.03,447.46 646.19,446.86 646.36,447.47 646.53,447.42 646.71,448.53 646.88,448.23 647.05,448.38 647.23,448.10 647.39,446.96 647.56,447.68 647.74,448.11 647.91,447.96 648.08,447.05 648.25,448.40 648.42,448.38 648.59,446.25 648.75,446.50 648.92,446.84 649.08,446.87 649.25,446.93 649.41,446.90 649.58,447.88 649.74,445.67 649.91,447.16 650.08,447.17 650.24,446.74 650.41,446.19 650.57,446.98 650.74,447.04 650.91,448.20 651.08,447.71 651.25,447.17 651.42,446.98 651.58,446.51 651.75,446.79 651.91,447.38 652.08,447.38 652.26,448.10 652.42,447.28 652.59,446.78 652.75,446.66 652.92,447.30 653.08,446.00 653.25,447.16 653.41,446.19 653.57,446.41 653.74,446.15 653.90,446.97 654.07,447.19 654.24,447.84 654.41,447.26 654.57,446.77 654.75,447.74 654.92,447.91 655.09,447.74 655.25,446.77 655.42,447.51 655.59,448.07 655.77,447.75 655.93,447.36 656.11,447.94 656.28,447.85 656.45,447.58 656.61,447.07 656.78,447.31 656.96,448.26 657.13,447.47 657.29,447.12 657.46,447.75 657.64,448.02 657.80,447.08 657.97,446.73 658.13,446.63 658.30,447.13 658.46,446.95 658.63,447.22 658.79,445.26 658.95,446.37 659.11,445.96 659.28,446.98 659.44,446.46 659.61,446.95 659.78,447.74 659.95,447.05 660.11,446.59 660.28,447.09 660.44,446.63 660.61,447.96 660.78,447.38 660.95,447.75 661.63,487.97 661.80,448.33 661.97,447.09 662.13,446.96 662.30,446.86 662.47,447.63 662.64,447.71 662.81,447.70 662.98,447.83 663.15,447.17 663.32,448.31 663.49,447.49 663.66,448.04 663.83,447.46 664.00,447.00 664.17,447.51 664.34,447.05 664.50,446.27 664.67,448.36 664.84,447.90 665.02,447.91 665.19,447.66 665.36,448.76 665.54,448.45 665.71,447.80 665.87,446.98 666.03,445.66 666.19,445.79 666.35,445.38 666.51,445.82 666.67,445.33 666.82,444.62 666.98,445.48 667.13,444.31 667.28,443.97 667.44,445.40 667.60,445.69 667.76,445.22 667.91,445.65 668.07,444.91 668.23,445.89 668.39,445.86 668.55,445.28 668.70,444.92 668.87,447.34 669.04,448.11 669.21,447.79 669.38,447.54 669.55,447.45 669.73,448.57 669.90,447.82 670.07,447.83 670.24,447.32 670.41,447.68 670.58,447.98 670.75,447.94 670.93,448.40 671.11,449.27 671.29,448.91 671.46,447.73 671.63,447.87 671.80,448.76 671.98,448.03 672.14,447.28 672.32,449.03 672.50,448.49 672.68,449.01 672.85,449.09 673.03,448.53 673.21,448.70 673.38,448.51 673.56,448.83 673.74,448.88 673.92,449.14 674.10,449.27 674.27,448.37 674.45,448.94 674.62,448.47 674.80,448.59 674.98,449.33 675.15,448.30 675.33,448.78 675.51,449.75 675.68,447.40 675.85,448.08 676.03,448.91 676.20,447.96 676.38,449.42 676.56,449.45 676.75,450.45 676.94,450.35 677.11,448.26 677.29,448.51 677.47,449.19 677.65,449.64 677.82,448.42 678.00,449.02 678.19,450.03 678.36,448.96 678.55,449.47 678.73,449.57 678.91,449.32 679.08,448.84 679.26,447.87 679.43,447.98 679.61,449.17 679.79,450.47 679.97,449.28 680.15,449.22 680.34,449.70 680.52,449.28 680.69,448.94 680.87,448.10 681.04,448.61 681.23,450.26 681.41,449.64 681.59,449.59 681.78,449.99 681.96,450.19 682.15,450.46 682.33,449.83 682.52,450.74 682.70,449.29 682.88,448.11 683.05,449.06 683.23,448.70 683.42,450.20 683.60,449.50 683.78,449.48 683.97,451.61 684.16,450.27 684.34,449.68 684.53,450.84 684.72,450.42 684.91,450.63 685.09,450.54 685.84,491.13 686.03,449.93 686.21,450.65 686.40,450.53 686.59,450.86 686.79,451.33 686.97,450.80 687.16,449.93 687.34,450.25 687.54,451.19 687.73,450.86 687.91,450.21 688.11,451.85 688.31,452.02 688.50,450.89 688.68,450.63 688.88,451.59 689.06,450.24 689.26,451.19 689.44,449.90 689.63,450.10 689.82,451.11 690.00,450.32 690.19,450.94 690.39,451.49 690.58,451.74 690.77,451.05 690.97,451.94 691.17,451.71 691.37,452.64 691.56,451.75 691.76,452.05 691.96,451.68 692.15,451.69 692.35,451.34 692.54,452.00 692.74,451.60 692.93,451.18 693.12,451.53 693.32,451.86 693.51,451.60 693.71,451.97 693.91,452.12 694.11,452.04 694.30,450.53 694.48,450.82 694.68,451.69 694.88,451.97 695.07,451.69 695.27,452.42 695.47,452.10 695.67,452.07 695.86,451.36 696.05,451.25 696.25,452.22 696.46,452.75 696.65,452.29 696.85,452.34 697.05,451.74 697.24,451.55 697.44,452.19 697.64,451.79 697.84,452.06 698.04,452.77 698.24,452.60 698.43,451.09 698.63,451.58 698.82,451.24 699.02,452.60 699.22,452.06 699.42,452.75 699.63,453.49 699.82,451.64 700.02,451.58 700.22,452.55 700.42,452.69 700.62,452.42 700.83,453.43 701.03,453.03 701.23,452.69 701.43,452.24 701.63,452.46 701.84,452.88 702.04,452.71 702.25,453.30 702.45,453.48 702.65,452.35 702.85,452.56 703.05,452.40 703.25,452.12 703.45,452.12 703.66,453.08 703.86,453.74 704.07,452.55 704.27,453.27 704.48,453.30 704.70,454.85 704.91,454.28 705.13,455.01 705.34,454.76 705.55,453.91 705.77,454.46 705.98,454.19 706.19,454.19 706.40,453.59 706.62,454.81 706.83,453.92 707.04,453.34 707.24,453.11 707.45,453.14 707.66,454.71 707.88,454.77 708.52,486.37 708.73,454.00 708.94,453.72 709.15,454.10 709.36,453.83 709.58,455.16 709.78,452.89 709.99,453.71 710.21,455.00 710.42,454.00 710.64,454.52 710.85,454.41 711.08,455.89 711.28,453.35 711.50,454.31 711.72,455.10 711.93,454.08 712.14,454.87 712.36,454.27 712.57,454.36 712.78,454.18 712.99,453.56 713.21,454.87 713.42,454.01 713.64,455.54 713.87,455.64 714.09,455.63 714.31,455.39 714.53,455.49 714.76,455.93 714.98,455.57 715.20,454.94 715.43,455.78 715.65,455.44 715.87,455.57 716.10,455.78 716.32,455.59 716.54,455.99 716.77,455.96 716.99,455.07 717.21,455.28 717.44,456.69 717.67,455.70 717.90,456.71 718.12,455.93 718.34,455.44 718.56,454.74 718.79,455.94 719.01,455.83 719.23,455.64 719.46,456.47 719.69,456.17 719.91,455.37 720.14,455.89 720.37,456.20 720.59,456.08 720.82,456.71 721.05,456.05 721.28,456.01 721.51,457.31 721.75,457.77 721.99,456.91 722.22,457.36 722.46,457.40 722.70,457.03 722.94,457.76 723.18,457.79 723.41,457.03 723.65,457.69 723.89,457.64 724.13,457.68 724.36,457.22 724.61,458.30 724.85,457.77 725.09,458.13 725.34,458.87 725.58,457.50 725.82,457.96 726.07,458.67 726.31,457.77 726.55,458.34 726.80,458.33 727.04,458.39 727.30,459.45 727.54,458.12 727.78,457.97 728.03,458.84 728.28,458.38 728.52,457.85 728.77,458.49 729.01,458.67 729.25,457.34 729.50,459.01 729.74,458.28 730.00,459.16 730.25,458.87 730.50,459.35 731.26,491.62 731.53,460.74 731.79,460.53 732.04,459.42 732.31,460.62 732.57,460.50 732.84,460.57 733.10,460.49 733.37,461.21 733.64,461.62 733.91,461.00 734.18,461.08 734.45,461.15 734.72,461.63 734.99,461.19 735.27,461.82 735.54,461.02 735.81,461.89 736.09,461.68 736.36,461.04 736.63,461.72 736.90,461.00 737.18,462.33 737.47,462.92 737.74,462.04 738.03,462.50 738.30,462.06 738.58,461.83 738.86,462.02 739.14,462.08 739.41,461.49 739.69,462.08 739.98,463.18 740.27,464.05 740.56,462.80 740.85,463.96 741.14,463.13 741.43,463.40 741.73,464.28 742.04,464.83 742.34,464.14 742.64,464.63 742.96,466.46 743.28,465.90 743.59,465.42 743.90,465.14 744.22,465.77 744.55,467.48 744.86,465.56 745.18,465.84 745.49,465.67 745.86,470.52 746.18,466.05 746.50,465.56 746.81,465.66 747.21,472.86 747.55,467.42 747.88,467.40 748.21,467.03 748.61,473.24 748.95,467.89 749.30,468.55 749.66,470.02 750.03,470.03 750.37,468.27" stroke-dasharray="3.6 3.6" stroke-width="3.6" stroke="#aaa" />
<g>
<circle cx="150.18" cy="434.89" r="1.6666666666666667" />
<circle cx="150.29" cy="434.87" r="1.6666666666666667" />
<circle cx="150.41" cy="437.26" r="1.6666666666666667" />
<circle cx="150.53" cy="436.76" r="1.6666666666666667" />
<circle cx="150.64" cy="435.80" r="1.6666666666666667" />
<circle cx="150.75" cy="435.06" r="1.6666666666666667" />
<circle cx="150.87" cy="436.07" r="1.6666666666666667" />
<circle cx="150.98" cy="435.75" r="1.6666666666666667" />
<circle cx="151.10" cy="436.41" r="1.6666666666666667" />
<circle cx="151.22" cy="437.09" r="1.6666666666666667" />
<circle cx="151.33" cy="435.42" r="1.6666666666666667" />
<circle cx="151.44" cy="436.40" r="1.6666666666666667" />
<circle cx="151.55" cy="434.86" r="1.6666666666666667" />
<circle cx="151.67" cy="436.66" r="1.6666666666666667" />
<circle cx="151.79" cy="437.43" r="1.6666666666666667" />
<circle cx="151.91" cy="437.50" r="1.6666666666666667" />
<circle cx="152.03" cy="436.60" r="1.6666666666666667" />
<circle cx="152.14" cy="436.27" r="1.6666666666666667" />
<circle cx="152.26" cy="435.65" r="1.6666666666666667" />
<circle cx="173.10" cy="444.11" r="1.6666666666666667" />
<circle cx="173.25" cy="443.33" r="1.6666666666666667" />
<circle cx="173.39" cy="443.50" r="1.6666666666666667" />
<circle cx="173.54" cy="443.41" r="1.6666666666666667" />
<circle cx="173.69" cy="442.96" r="1.6666666666666667" />
<circle cx="173.84" cy="444.40" r="1.6666666666666667" />
<circle cx="173.99" cy="443.53" r="1.6666666666666667" />
<circle cx="174.13" cy="442.61" r="1.6666666666666667" />
<circle cx="174.28" cy="443.01" r="1.6666666666666667" />
<circle cx="174.42" cy="442.06" r="1.6666666666666667" />
<circle cx="174.56" cy="442.69" r="1.6666666666666667" />
<circle cx="174.70" cy="442.40" r="1.6666666666666667" />
<circle cx="174.84" cy="441.83" r="1.6666666666666667" />
<circle cx="174.99" cy="442.55" r="1.6666666666666667" />
<circle cx="193.02" cy="448.55" r="1.6666666666666667" />
<circle cx="524.14" cy="470.27" r="1.6666666666666667" />
<circle cx="524.45" cy="464.57" r="1.6666666666666667" />
<circle cx="524.80" cy="469.47" r="1.6666666666666667" />
<circle cx="525.04" cy="457.03" r="1.6666666666666667" />
<circle cx="525.39" cy="468.99" r="1.6666666666666667" />
<circle cx="525.64" cy="458.50" r="1.6666666666666667" />
<circle cx="525.97" cy="467.62" r="1.6666666666666667" />
<circle cx="526.19" cy="454.36" r="1.6666666666666667" />
<circle cx="526.51" cy="466.48" r="1.6666666666666667" />
<circle cx="526.77" cy="460.63" r="1.6666666666666667" />
<circle cx="527.11" cy="467.80" r="1.6666666666666667" />
<circle cx="527.38" cy="460.78" r="1.6666666666666667" />
<circle cx="527.71" cy="467.58" r="1.6666666666666667" />
<circle cx="527.98" cy="460.92" r="1.6666666666666667" />
<circle cx="528.32" cy="468.37" r="1.6666666666666667" />
<circle cx="528.63" cy="464.38" r="1.6666666666666667" />
<circle cx="529.01" cy="471.39" r="1.6666666666666667" />
<circle cx="529.33" cy="466.12" r="1.6666666666666667" />
<circle cx="529.74" cy="473.87" r="1.6666666666666667" />
<circle cx="530.08" cy="467.47" r="1.6666666666666667" />
<circle cx="530.49" cy="473.62" r="1.6666666666666667" />
<circle cx="530.83" cy="468.28" r="1.6666666666666667" />
<circle cx="531.24" cy="473.60" r="1.6666666666666667" />
<circle cx="531.57" cy="467.08" r="1.6666666666666667" />
<circle cx="532.32" cy="491.10" r="1.6666666666666667" />
<circle cx="532.71" cy="471.63" r="1.6666666666666667" />
<circle cx="533.07" cy="469.87" r="1.6666666666666667" />
<circle cx="533.50" cy="475.07" r="1.6666666666666667" />
<circle cx="533.83" cy="467.31" r="1.6666666666666667" />
<circle cx="534.26" cy="474.86" r="1.6666666666666667" />
<circle cx="534.60" cy="467.79" r="1.6666666666666667" />
<circle cx="535.03" cy="474.69" r="1.6666666666666667" />
<circle cx="535.38" cy="468.98" r="1.6666666666666667" />
<circle cx="535.83" cy="476.02" r="1.6666666666666667" />
<circle cx="536.18" cy="468.99" r="1.6666666666666667" />
<circle cx="536.60" cy="474.23" r="1.6666666666666667" />
<circle cx="536.94" cy="467.82" r="1.6666666666666667" />
<circle cx="537.33" cy="472.31" r="1.6666666666666667" />
<circle cx="537.68" cy="468.87" r="1.6666666666666667" />
<circle cx="538.10" cy="473.69" r="1.6666666666666667" />
<circle cx="538.42" cy="466.91" r="1.6666666666666667" />
<circle cx="538.85" cy="474.38" r="1.6666666666666667" />
<circle cx="539.17" cy="466.36" r="1.6666666666666667" />
<circle cx="539.56" cy="472.27" r="1.6666666666666667" />
<circle cx="539.90" cy="467.99" r="1.6666666666666667" />
<circle cx="540.32" cy="474.24" r="1.6666666666666667" />
<circle cx="540.68" cy="469.59" r="1.6666666666666667" />
<circle cx="541.09" cy="473.22" r="1.6666666666666667" />
<circle cx="541.43" cy="468.13" r="1.6666666666666667" />
<circle cx="541.86" cy="474.86" r="1.6666666666666667" />
<circle cx="542.23" cy="470.44" r="1.6666666666666667" />
<circle cx="542.68" cy="476.01" r="1.6666666666666667" />
<circle cx="543.01" cy="467.52" r="1.6666666666666667" />
<circle cx="543.44" cy="474.82" r="1.6666666666666667" />
<circle cx="543.79" cy="468.98" r="1.6666666666666667" />
<circle cx="544.20" cy="473.25" r="1.6666666666666667" />
<circle cx="544.54" cy="468.08" r="1.6666666666666667" />
<circle cx="544.98" cy="475.79" r="1.6666666666666667" />
<circle cx="545.33" cy="468.30" r="1.6666666666666667" />
<circle cx="545.75" cy="474.21" r="1.6666666666666667" />
<circle cx="546.09" cy="468.50" r="1.6666666666666667" />
<circle cx="546.54" cy="475.83" r="1.6666666666666667" />
<circle cx="546.90" cy="469.35" r="1.6666666666666667" />
<circle cx="547.35" cy="476.53" r="1.6666666666666667" />
<circle cx="547.73" cy="471.40" r="1.6666666666666667" />
<circle cx="548.17" cy="475.25" r="1.6666666666666667" />
<circle cx="548.54" cy="470.31" r="1.6666666666666667" />
<circle cx="548.96" cy="474.60" r="1.6666666666666667" />
<circle cx="549.36" cy="472.32" r="1.6666666666666667" />
<circle cx="549.77" cy="473.80" r="1.6666666666666667" />
<circle cx="550.15" cy="471.38" r="1.6666666666666667" />
<circle cx="550.60" cy="476.08" r="1.6666666666666667" />
<circle cx="550.95" cy="468.84" r="1.6666666666666667" />
<circle cx="551.39" cy="475.73" r="1.6666666666666667" />
<circle cx="551.79" cy="472.23" r="1.6666666666666667" />
<circle cx="552.22" cy="475.47" r="1.6666666666666667" />
<circle cx="552.62" cy="472.20" r="1.6666666666666667" />
<circle cx="553.05" cy="475.00" r="1.6666666666666667" />
<circle cx="553.45" cy="472.70" r="1.6666666666666667" />
<circle cx="553.89" cy="475.61" r="1.6666666666666667" />
<circle cx="554.27" cy="470.99" r="1.6666666666666667" />
<circle cx="555.02" cy="491.54" r="1.6666666666666667" />
<circle cx="555.39" cy="470.28" r="1.6666666666666667" />
<circle cx="555.88" cy="478.67" r="1.6666666666666667" />
<circle cx="556.27" cy="471.53" r="1.6666666666666667" />
<circle cx="629.13" cy="448.82" r="1.6666666666666667" />
<circle cx="629.32" cy="450.15" r="1.6666666666666667" />
<circle cx="629.50" cy="449.80" r="1.6666666666666667" />
<circle cx="629.68" cy="450.12" r="1.6666666666666667" />
<circle cx="629.88" cy="451.54" r="1.6666666666666667" />
<circle cx="630.06" cy="449.79" r="1.6666666666666667" />
<circle cx="630.25" cy="450.46" r="1.6666666666666667" />
<circle cx="630.43" cy="450.13" r="1.6666666666666667" />
<circle cx="630.62" cy="450.88" r="1.6666666666666667" />
<circle cx="630.82" cy="451.06" r="1.6666666666666667" />
<circle cx="631.00" cy="450.16" r="1.6666666666666667" />
<circle cx="631.19" cy="450.18" r="1.6666666666666667" />
<circle cx="631.37" cy="450.51" r="1.6666666666666667" />
<circle cx="631.56" cy="450.80" r="1.6666666666666667" />
<circle cx="631.75" cy="450.21" r="1.6666666666666667" />
<circle cx="631.93" cy="450.00" r="1.6666666666666667" />
<circle cx="632.13" cy="452.44" r="1.6666666666666667" />
<circle cx="632.32" cy="451.13" r="1.6666666666666667" />
<circle cx="632.51" cy="450.00" r="1.6666666666666667" />
<circle cx="632.70" cy="451.18" r="1.6666666666666667" />
<circle cx="632.90" cy="451.50" r="1.6666666666666667" />
<circle cx="633.08" cy="450.51" r="1.6666666666666667" />
<circle cx="633.28" cy="451.70" r="1.6666666666666667" />
<circle cx="644.49" cy="446.01" r="1.6666666666666667" />
<circle cx="644.66" cy="446.75" r="1.6666666666666667" />
<circle cx="644.84" cy="448.99" r="1.6666666666666667" />
<circle cx="645.01" cy="447.74" r="1.6666666666666667" />
<circle cx="645.18" cy="448.32" r="1.6666666666666667" />
<circle cx="645.36" cy="448.06" r="1.6666666666666667" />
<circle cx="645.52" cy="447.17" r="1.6666666666666667" />
<circle cx="645.69" cy="447.56" r="1.6666666666666667" />
<circle cx="645.86" cy="446.83" r="1.6666666666666667" />
<circle cx="646.03" cy="447.46" r="1.6666666666666667" />
<circle cx="646.19" cy="446.86" r="1.6666666666666667" />
<circle cx="646.36" cy="447.47" r="1.6666666666666667" />
<circle cx="646.53" cy="447.42" r="1.6666666666666667" />
<circle cx="646.71" cy="448.53" r="1.6666666666666667" />
<circle cx="646.88" cy="448.23" r="1.6666666666666667" />
<circle cx="647.05" cy="448.38" r="1.6666666666666667" />
<circle cx="647.23" cy="448.10" r="1.6666666666666667" />
<circle cx="647.39" cy="446.96" r="1.6666666666666667" />
<circle cx="647.56" cy="447.68" r="1.6666666666666667" />
<circle cx="647.74" cy="448.11" r="1.6666666666666667" />
<circle cx="647.91" cy="447.96" r="1.6666666666666667" />
<circle cx="648.08" cy="447.05" r="1.6666666666666667" />
<circle cx="648.25" cy="448.40" r="1.6666666666666667" />
<circle cx="648.42" cy="448.38" r="1.6666666666666667" />
<circle cx="648.59" cy="446.25" r="1.6666666666666667" />
<circle cx="648.75" cy="446.50" r="1.6666666666666667" />
<circle cx="648.92" cy="446.84" r="1.6666666666666667" />
<circle cx="649.08" cy="446.87" r="1.6666666666666667" />
<circle cx="649.25" cy="446.93" r="1.6666666666666667" />
<circle cx="649.41" cy="446.90" r="1.6666666666666667" />
<circle cx="649.58" cy="447.88" r="1.6666666666666667" />
<circle cx="649.74" cy="445.67" r="1.6666666666666667" />
<circle cx="649.91" cy="447.16" r="1.6666666666666667" />
<circle cx="650.08" cy="447.17" r="1.6666666666666667" />
<circle cx="650.24" cy="446.74" r="1.6666666666666667" />
<circle cx="650.41" cy="446.19" r="1.6666666666666667" />
<circle cx="650.57" cy="446.98" r="1.6666666666666667" />
<circle cx="650.74" cy="447.04" r="1.6666666666666667" />
<circle cx="650.91" cy="448.20" r="1.6666666666666667" />
<circle cx="651.08" cy="447.71" r="1.6666666666666667" />
<circle cx="651.25" cy="447.17" r="1.6666666666666667" />
<circle cx="651.42" cy="446.98" r="1.6666666666666667" />
<circle cx="651.58" cy="446.51" r="1.6666666666666667" />
<circle cx="651.75" cy="446.79" r="1.6666666666666667" />
<circle cx="651.91" cy="447.38" r="1.6666666666666667" />
<circle cx="652.08" cy="447.38" r="1.6666666666666667" />
<circle cx="652.26" cy="448.10" r="1.6666666666666667" />
<circle cx="652.42" cy="447.28" r="1.6666666666666667" />
<circle cx="652.59" cy="446.78" r="1.6666666666666667" />
<circle cx="652.75" cy="446.66" r="1.6666666666666667" />
<circle cx="652.92" cy="447.30" r="1.6666666666666667" />
<circle cx="653.08" cy="446.00" r="1.6666666666666667" />
<circle cx="653.25" cy="447.16" r="1.6666666666666667" />
<circle cx="653.41" cy="446.19" r="1.6666666666666667" />
<circle cx="653.57" cy="446.41" r="1.6666666666666667" />
<circle cx="653.74" cy="446.15" r="1.6666666666666667" />
<circle cx="653.90" cy="446.97" r="1.6666666666666667" />
<circle cx="654.07" cy="447.19" r="1.6666666666666667" />
<circle cx="654.24" cy="447.84" r="1.6666666666666667" />
<circle cx="654.41" cy="447.26" r="1.6666666666666667" />
<circle cx="654.57" cy="446.77" r="1.6666666666666667" />
<circle cx="654.75" cy="447.74" r="1.6666666666666667" />
<circle cx="654.92" cy="447.91" r="1.6666666666666667" />
<circle cx="655.09" cy="447.74" r="1.6666666666666667" />
<circle cx="655.25" cy="446.77" r="1.6666666666666667" />
<circle cx="655.42" cy="447.51" r="1.6666666666666667" />
<circle cx="655.59" cy="448.07" r="1.6666666666666667" />
<circle cx="655.77" cy="447.75" r="1.6666666666666667" />
<circle cx="655.93" cy="447.36" r="1.6666666666666667" />
<circle cx="656.11" cy="447.94" r="1.6666666666666667" />
<circle cx="656.28" cy="447.85" r="1.6666666666666667" />
<circle cx="656.45" cy="447.58" r="1.6666666666666667" />
<circle cx="656.61" cy="447.07" r="1.6666666666666667" />
<circle cx="656.78" cy="447.31" r="1.6666666666666667" />
<circle cx="656.96" cy="448.26" r="1.6666666666666667" />
<circle cx="657.13" cy="447.47" r="1.6666666666666667" />
<circle cx="657.29" cy="447.12" r="1.6666666666666667" />
<circle cx="657.46" cy="447.75" r="1.6666666666666667" />
<circle cx="657.64" cy="448.02" r="1.6666666666666667" />
<circle cx="657.80" cy="447.08" r="1.6666666666666667" />
<circle cx="657.97" cy="446.73" r="1.6666666666666667" />
<circle cx="658.13" cy="446.63" r="1.6666666666666667" />
<circle cx="658.30" cy="447.13" r="1.6666666666666667" />
<circle cx="658.46" cy="446.95" r="1.6666666666666667" />
<circle cx="658.63" cy="447.22" r="1.6666666666666667" />
<circle cx="658.79" cy="445.26" r="1.6666666666666667" />
<circle cx="658.95" cy="446.37" r="1.6666666666666667" />
<circle cx="659.11" cy="445.96" r="1.6666666666666667" />
<circle cx="659.28" cy="446.98" r="1.6666666666666667" />
<circle cx="659.44" cy="446.46" r="1.6666666666666667" />
<circle cx="659.61" cy="446.95" r="1.6666666666666667" />
<circle cx="659.78" cy="447.74" r="1.6666666666666667" />
<circle cx="659.95" cy="447.05" r="1.6666666666666667" />
<circle cx="660.11" cy="446.59" r="1.6666666666666667" />
<circle cx="660.28" cy="447.09" r="1.6666666666666667" />
<circle cx="660.44" cy="446.63" r="1.6666666666666667" />
<circle cx="660.61" cy="447.96" r="1.6666666666666667" />
<circle cx="660.78" cy="447.38" r="1.6666666666666667" />
<circle cx="660.95" cy="447.75" r="1.6666666666666667" />
<circle cx="661.63" cy="487.97" r="1.6666666666666667" />
<circle cx="661.80" cy="448.33" r="1.6666666666666667" />
<circle cx="661.97" cy="447.09" r="1.6666666666666667" />
<circle cx="662.13" cy="446.96" r="1.6666666666666667" />
<circle cx="662.30" cy="446.86" r="1.6666666666666667" />
<circle cx="662.47" cy="447.63" r="1.6666666666666667" />
<circle cx="662.64" cy="447.71" r="1.6666666666666667" />
<circle cx="662.81" cy="447.70" r="1.6666666666666667" />
<circle cx="662.98" cy="447.83" r="1.6666666666666667" />
<circle cx="663.15" cy="447.17" r="1.6666666666666667" />
<circle cx="663.32" cy="448.31" r="1.6666666666666667" />
<circle cx="663.49" cy="447.49" r="1.6666666666666667" />
<circle cx="663.66" cy="448.04" r="1.6666666666666667" />
<circle cx="663.83" cy="447.46" r="1.6666666666666667" />
<circle cx="664.00" cy="447.00" r="1.6666666666666667" />
<circle cx="664.17" cy="447.51" r="1.6666666666666667" />
<circle cx="664.34" cy="447.05" r="1.6666666666666667" />
<circle cx="664.50" cy="446.27" r="1.6666666666666667" />
<circle cx="664.67" cy="448.36" r="1.6666666666666667" />
<circle cx="664.84" cy="447.90" r="1.6666666666666667" />
<circle cx="665.02" cy="447.91" r="1.6666666666666667" />
<circle cx="665.19" cy="447.66" r="1.6666666666666667" />
<circle cx="665.36" cy="448.76" r="1.6666666666666667" />
<circle cx="665.54" cy="448.45" r="1.6666666666666667" />
<circle cx="665.71" cy="447.80" r="1.6666666666666667" />
<circle cx="665.87" cy="446.98" r="1.6666666666666667" />
<circle cx="666.03" cy="445.66" r="1.6666666666666667" />
<circle cx="666.19" cy="445.79" r="1.6666666666666667" />
<circle cx="666.35" cy="445.38" r="1.6666666666666667" />
<circle cx="666.51" cy="445.82" r="1.6666666666666667" />
<circle cx="666.67" cy="445.33" r="1.6666666666666667" />
<circle cx="666.82" cy="444.62" r="1.6666666666666667" />
<circle cx="666.98" cy="445.48" r="1.6666666666666667" />
<circle cx="667.13" cy="444.31" r="1.6666666666666667" />
<circle cx="667.28" cy="443.97" r="1.6666666666666667" />
<circle cx="667.44" cy="445.40" r="1.6666666666666667" />
<circle cx="667.60" cy="445.69" r="1.6666666666666667" />
<circle cx="667.76" cy="445.22" r="1.6666666666666667" />
<circle cx="667.91" cy="445.65" r="1.6666666666666667" />
<circle cx="668.07" cy="444.91" r="1.6666666666666667" />
<circle cx="668.23" cy="445.89" r="1.6666666666666667" />
<circle cx="668.39" cy="445.86" r="1.6666666666666667" />
<circle cx="668.55" cy="445.28" r="1.6666666666666667" />
<circle cx="668.70" cy="444.92" r="1.6666666666666667" />
<circle cx="668.87" cy="447.34" r="1.6666666666666667" />
<circle cx="669.04" cy="448.11" r="1.6666666666666667" />
<circle cx="669.21" cy="447.79" r="1.6666666666666667" />
<circle cx="669.38" cy="447.54" r="1.6666666666666667" />
<circle cx="669.55" cy="447.45" r="1.6666666666666667" />
<circle cx="669.73" cy="448.57" r="1.6666666666666667" />
<circle cx="669.90" cy="447.82" r="1.6666666666666667" />
<circle cx="670.07" cy="447.83" r="1.6666666666666667" />
<circle cx="670.24" cy="447.32" r="1.6666666666666667" />
<circle cx="670.41" cy="447.68" r="1.6666666666666667" />
<circle cx="670.58" cy="447.98" r="1.6666666666666667" />
<circle cx="670.75" cy="447.94" r="1.6666666666666667" />
<circle cx="670.93" cy="448.40" r="1.6666666666666667" />
<circle cx="671.11" cy="449.27" r="1.6666666666666667" />
<circle cx="671.29" cy="448.91" r="1.6666666666666667" />
<circle cx="671.46" cy="447.73" r="1.6666666666666667" />
<circle cx="671.63" cy="447.87" r="1.6666666666666667" />
<circle cx="671.80" cy="448.76" r="1.6666666666666667" />
<circle cx="671.98" cy="448.03" r="1.6666666666666667" />
<circle cx="672.14" cy="447.28" r="1.6666666666666667" />
<circle cx="672.32" cy="449.03" r="1.6666666666666667" />
<circle cx="672.50" cy="448.49" r="1.6666666666666667" />
<circle cx="672.68" cy="449.01" r="1.6666666666666667" />
<circle cx="672.85" cy="449.09" r="1.6666666666666667" />
<circle cx="673.03" cy="448.53" r="1.6666666666666667" />
<circle cx="673.21" cy="448.70" r="1.6666666666666667" />
<circle cx="673.38" cy="448.51" r="1.6666666666666667" />
<circle cx="673.56" cy="448.83" r="1.6666666666666667" />
<circle cx="673.74" cy="448.88" r="1.6666666666666667" />
<circle cx="673.92" cy="449.14" r="1.6666666666666667" />
<circle cx="674.10" cy="449.27" r="1.6666666666666667" />
<circle cx="674.27" cy="448.37" r="1.6666666666666667" />
<circle cx="674.45" cy="448.94" r="1.6666666666666667" />
<circle cx="674.62" cy="448.47" r="1.6666666666666667" />
<circle cx="674.80" cy="448.59" r="1.6666666666666667" />
<circle cx="674.98" cy="449.33" r="1.6666666666666667" />
<circle cx="675.15" cy="448.30" r="1.6666666666666667" />
<circle cx="675.33" cy="448.78" r="1.6666666666666667" />
<circle cx="675.51" cy="449.75" r="1.6666666666666667" />
<circle cx="675.68" cy="447.40" r="1.6666666666666667" />
<circle cx="675.85" cy="448.08" r="1.6666666666666667" />
<circle cx="676.03" cy="448.91" r="1.6666666666666667" />
<circle cx="676.20" cy="447.96" r="1.6666666666666667" />
<circle cx="676.38" cy="449.42" r="1.6666666666666667" />
<circle cx="676.56" cy="449.45" r="1.6666666666666667" />
<circle cx="676.75" cy="450.45" r="1.6666666666666667" />
<circle cx="676.94" cy="450.35" r="1.6666666666666667" />
<circle cx="677.11" cy="448.26" r="1.6666666666666667" />
<circle cx="677.29" cy="448.51" r="1.6666666666666667" />
<circle cx="677.47" cy="449.19" r="1.6666666666666667" />
<circle cx="677.65" cy="449.64" r="1.6666666666666667" />
<circle cx="677.82" cy="448.42" r="1.6666666666666667" />
<circle cx="678.00" cy="449.02" r="1.6666666666666667" />
<circle cx="678.19" cy="450.03" r="1.6666666666666667" />
<circle cx="678.36" cy="448.96" r="1.6666666666666667" />
<circle cx="678.55" cy="449.47" r="1.6666666666666667" />
<circle cx="678.73" cy="449.57" r="1.6666666666666667" />
<circle cx="678.91" cy="449.32" r="1.6666666666666667" />
<circle cx="679.08" cy="448.84" r="1.6666666666666667" />
<circle cx="679.26" cy="447.87" r="1.6666666666666667" />
<circle cx="679.43" cy="447.98" r="1.6666666666666667" />
<circle cx="679.61" cy="449.17" r="1.6666666666666667" />
<circle cx="679.79" cy="450.47" r="1.6666666666666667" />
<circle cx="679.97" cy="449.28" r="1.6666666666666667" />
<circle cx="680.15" cy="449.22" r="1.6666666666666667" />
<circle cx="680.34" cy="449.70" r="1.6666666666666667" />
<circle cx="680.52" cy="449.28" r="1.6666666666666667" />
<circle cx="680.69" cy="448.94" r="1.6666666666666667" />
<circle cx="680.87" cy="448.10" r="1.6666666666666667" />
<circle cx="681.04" cy="448.61" r="1.6666666666666667" />
<circle cx="681.23" cy="450.26" r="1.6666666666666667" />
<circle cx="681.41" cy="449.64" r="1.6666666666666667" />
<circle cx="681.59" cy="449.59" r="1.6666666666666667" />
<circle cx="681.78" cy="449.99" r="1.6666666666666667" />
<circle cx="681.96" cy="450.19" r="1.6666666666666667" />
<circle cx="682.15" cy="450.46" r="1.6666666666666667" />
<circle cx="682.33" cy="449.83" r="1.6666666666666667" />
<circle cx="682.52" cy="450.74" r="1.6666666666666667" />
<circle cx="682.70" cy="449.29" r="1.6666666666666667" />
<circle cx="682.88" cy="448.11" r="1.6666666666666667" />
<circle cx="683.05" cy="449.06" r="1.6666666666666667" />
<circle cx="683.23" cy="448.70" r="1.6666666666666667" />
<circle cx="683.42" cy="450.20" r="1.6666666666666667" />
<circle cx="683.60" cy="449.50" r="1.6666666666666667" />
<circle cx="683.78" cy="449.48" r="1.6666666666666667" />
<circle cx="683.97" cy="451.61" r="1.6666666666666667" />
<circle cx="684.16" cy="450.27" r="1.6666666666666667" />
<circle cx="684.34" cy="449.68" r="1.6666666666666667" />
<circle cx="684.53" cy="450.84" r="1.6666666666666667" />
<circle cx="684.72" cy="450.42" r="1.6666666666666667" />
<circle cx="684.91" cy="450.63" r="1.6666666666666667" />
<circle cx="685.09" cy="450.54" r="1.6666666666666667" />
<circle cx="685.84" cy="491.13" r="1.6666666666666667" />
<circle cx="686.03" cy="449.93" r="1.6666666666666667" />
<circle cx="686.21" cy="450.65" r="1.6666666666666667" />
<circle cx="686.40" cy="450.53" r="1.6666666666666667" />
<circle cx="686.59" cy="450.86" r="1.6666666666666667" />
<circle cx="686.79" cy="451.33" r="1.6666666666666667" />
<circle cx="686.97" cy="450.80" r="1.6666666666666667" />
<circle cx="687.16" cy="449.93" r="1.6666666666666667" />
<circle cx="687.34" cy="450.25" r="1.6666666666666667" />
<circle cx="687.54" cy="451.19" r="1.6666666666666667" />
<circle cx="687.73" cy="450.86" r="1.6666666666666667" />
<circle cx="687.91" cy="450.21" r="1.6666666666666667" />
<circle cx="688.11" cy="451.85" r="1.6666666666666667" />
<circle cx="688.31" cy="452.02" r="1.6666666666666667" />
<circle cx="688.50" cy="450.89" r="1.6666666666666667" />
<circle cx="688.68" cy="450.63" r="1.6666666666666667" />
<circle cx="688.88" cy="451.59" r="1.6666666666666667" />
<circle cx="689.06" cy="450.24" r="1.6666666666666667" />
<circle cx="689.26" cy="451.19" r="1.6666666666666667" />
<circle cx="689.44" cy="449.90" r="1.6666666666666667" />
<circle cx="689.63" cy="450.10" r="1.6666666666666667" />
<circle cx="689.82" cy="451.11" r="1.6666666666666667" />
<circle cx="690.00" cy="450.32" r="1.6666666666666667" />
<circle cx="690.19" cy="450.94" r="1.6666666666666667" />
<circle cx="690.39" cy="451.49" r="1.6666666666666667" />
<circle cx="690.58" cy="451.74" r="1.6666666666666667" />
<circle cx="690.77" cy="451.05" r="1.6666666666666667" />
<circle cx="690.97" cy="451.94" r="1.6666666666666667" />
<circle cx="691.17" cy="451.71" r="1.6666666666666667" />
<circle cx="691.37" cy="452.64" r="1.6666666666666667" />
<circle cx="691.56" cy="451.75" r="1.6666666666666667" />
<circle cx="691.76" cy="452.05" r="1.6666666666666667" />
<circle cx="691.96" cy="451.68" r="1.6666666666666667" />
<circle cx="692.15" cy="451.69" r="1.6666666666666667" />
<circle cx="692.35" cy="451.34" r="1.6666666666666667" />
<circle cx="692.54" cy="452.00" r="1.6666666666666667" />
<circle cx="692.74" cy="451.60" r="1.6666666666666667" />
<circle cx="692.93" cy="451.18" r="1.6666666666666667" />
<circle cx="693.12" cy="451.53" r="1.6666666666666667" />
<circle cx="693.32" cy="451.86" r="1.6666666666666667" />
<circle cx="693.51" cy="451.60" r="1.6666666666666667" />
<circle cx="693.71" cy="451.97" r="1.6666666666666667" />
<circle cx="693.91" cy="452.12" r="1.6666666666666667" />
<circle cx="694.11" cy="452.04" r="1.6666666666666667" />
<circle cx="694.30" cy="450.53" r="1.6666666666666667" />
<circle cx="694.48" cy="450.82" r="1.6666666666666667" />
<circle cx="694.68" cy="451.69" r="1.6666666666666667" />
<circle cx="694.88" cy="451.97" r="1.6666666666666667" />
<circle cx="695.07" cy="451.69" r="1.6666666666666667" />
<circle cx="695.27" cy="452.42" r="1.6666666666666667" />
<circle cx="695.47" cy="452.10" r="1.6666666666666667" />
<circle cx="695.67" cy="452.07" r="1.6666666666666667" />
<circle cx="695.86" cy="451.36" r="1.6666666666666667" />
<circle cx="696.05" cy="451.25" r="1.6666666666666667" />
<circle cx="696.25" cy="452.22" r="1.6666666666666667" />
<circle cx="696.46" cy="452.75" r="1.6666666666666667" />
<circle cx="696.65" cy="452.29" r="1.6666666666666667" />
<circle cx="696.85" cy="452.34" r="1.6666666666666667" />
<circle cx="697.05" cy="451.74" r="1.6666666666666667" />
<circle cx="697.24" cy="451.55" r="1.6666666666666667" />
<circle cx="697.44" cy="452.19" r="1.6666666666666667" />
<circle cx="697.64" cy="451.79" r="1.6666666666666667" />
<circle cx="697.84" cy="452.06" r="1.6666666666666667" />
<circle cx="698.04" cy="452.77" r="1.6666666666666667" />
<circle cx="698.24" cy="452.60" r="1.6666666666666667" />
<circle cx="698.43" cy="451.09" r="1.6666666666666667" />
<circle cx="698.63" cy="451.58" r="1.6666666666666667" />
<circle cx="698.82" cy="451.24" r="1.6666666666666667" />
<circle cx="699.02" cy="452.60" r="1.6666666666666667" />
<circle cx="699.22" cy="452.06" r="1.6666666666666667" />
<circle cx="699.42" cy="452.75" r="1.6666666666666667" />
<circle cx="699.63" cy="453.49" r="1.6666666666666667" />
<circle cx="699.82" cy="451.64" r="1.6666666666666667" />
<circle cx="700.02" cy="451.58" r="1.6666666666666667" />
<circle cx="700.22" cy="452.55" r="1.6666666666666667" />
<circle cx="700.42" cy="452.69" r="1.6666666666666667" />
<circle cx="700.62" cy="452.42" r="1.6666666666666667" />
<circle cx="700.83" cy="453.43" r="1.6666666666666667" />
<circle cx="701.03" cy="453.03" r="1.6666666666666667" />
<circle cx="701.23" cy="452.69" r="1.6666666666666667" />
<circle cx="701.43" cy="452.24" r="1.6666666666666667" />
<circle cx="701.63" cy="452.46" r="1.6666666666666667" />
<circle cx="701.84" cy="452.88" r="1.6666666666666667" />
<circle cx="702.04" cy="452.71" r="1.6666666666666667" />
<circle cx="702.25" cy="453.30" r="1.6666666666666667" />
<circle cx="702.45" cy="453.48" r="1.6666666666666667" />
<circle cx="702.65" cy="452.35" r="1.6666666666666667" />
<circle cx="702.85" cy="452.56" r="1.6666666666666667" />
<circle cx="703.05" cy="452.40" r="1.6666666666666667" />
<circle cx="703.25" cy="452.12" r="1.6666666666666667" />
<circle cx="703.45" cy="452.12" r="1.6666666666666667" />
<circle cx="703.66" cy="453.08" r="1.6666666666666667" />
<circle cx="703.86" cy="453.74" r="1.6666666666666667" />
<circle cx="704.07" cy="452.55" r="1.6666666666666667" />
<circle cx="704.27" cy="453.27" r="1.6666666666666667" />
<circle cx="704.48" cy="453.30" r="1.6666666666666667" />
<circle cx="704.70" cy="454.85" r="1.6666666666666667" />
<circle cx="704.91" cy="454.28" r="1.6666666666666667" />
<circle cx="705.13" cy="455.01" r="1.6666666666666667" />
<circle cx="705.34" cy="454.76" r="1.6666666666666667" />
<circle cx="705.55" cy="453.91" r="1.6666666666666667" />
<circle cx="705.77" cy="454.46" r="1.6666666666666667" />
<circle cx="705.98" cy="454.19" r="1.6666666666666667" />
<circle cx="706.19" cy="454.19" r="1.6666666666666667" />
<circle cx="706.40" cy="453.59" r="1.6666666666666667" />
<circle cx="706.62" cy="454.81" r="1.6666666666666667" />
<circle cx="706.83" cy="453.92" r="1.6666666666666667" />
<circle cx="707.04" cy="453.34" r="1.6666666666666667" />
<circle cx="707.24" cy="453.11" r="1.6666666666666667" />
<circle cx="707.45" cy="453.14" r="1.6666666666666667" />
<circle cx="707.66" cy="454.71" r="1.6666666666666667" />
<circle cx="707.88" cy="454.77" r="1.6666666666666667" />
<circle cx="708.52" cy="486.37" r="1.6666666666666667" />
<circle cx="708.73" cy="454.00" r="1.6666666666666667" />
<circle cx="708.94" cy="453.72" r="1.6666666666666667" />
<circle cx="709.15" cy="454.10" r="1.6666666666666667" />
<circle cx="709.36" cy="453.83" r="1.6666666666666667" />
<circle cx="709.58" cy="455.16" r="1.6666666666666667" />
<circle cx="709.78" cy="452.89" r="1.6666666666666667" />
<circle cx="709.99" cy="453.71" r="1.6666666666666667" />
<circle cx="710.21" cy="455.00" r="1.6666666666666667" />
<circle cx="710.42" cy="454.00" r="1.6666666666666667" />
<circle cx="710.64" cy="454.52" r="1.6666666666666667" />
<circle cx="710.85" cy="454.41" r="1.6666666666666667" />
<circle cx="711.08" cy="455.89" r="1.6666666666666667" />
<circle cx="711.28" cy="453.35" r="1.6666666666666667" />
<circle cx="711.50" cy="454.31" r="1.6666666666666667" />
<circle cx="711.72" cy="455.10" r="1.6666666666666667" />
<circle cx="711.93" cy="454.08" r="1.6666666666666667" />
<circle cx="712.14" cy="454.87" r="1.6666666666666667" />
<circle cx="712.36" cy="454.27" r="1.6666666666666667" />
<circle cx="712.57" cy="454.36" r="1.6666666666666667" />
<circle cx="712.78" cy="454.18" r="1.6666666666666667" />
<circle cx="712.99" cy="453.56" r="1.6666666666666667" />
<circle cx="713.21" cy="454.87" r="1.6666666666666667" />
<circle cx="713.42" cy="454.01" r="1.6666666666666667" />
<circle cx="713.64" cy="455.54" r="1.6666666666666667" />
<circle cx="713.87" cy="455.64" r="1.6666666666666667" />
<circle cx="714.09" cy="455.63" r="1.6666666666666667" />
<circle cx="714.31" cy="455.39" r="1.6666666666666667" />
<circle cx="714.53" cy="455.49" r="1.6666666666666667" />
<circle cx="714.76" cy="455.93" r="1.6666666666666667" />
<circle cx="714.98" cy="455.57" r="1.6666666666666667" />
<circle cx="715.20" cy="454.94" r="1.6666666666666667" />
<circle cx="715.43" cy="455.78" r="1.6666666666666667" />
<circle cx="715.65" cy="455.44" r="1.6666666666666667" />
<circle cx="715.87" cy="455.57" r="1.6666666666666667" />
<circle cx="716.10" cy="455.78" r="1.6666666666666667" />
<circle cx="716.32" cy="455.59" r="1.6666666666666667" />
<circle cx="716.54" cy="455.99" r="1.6666666666666667" />
<circle cx="716.77" cy="455.96" r="1.6666666666666667" />
<circle cx="716.99" cy="455.07" r="1.6666666666666667" />
<circle cx="717.21" cy="455.28" r="1.6666666666666667" />
<circle cx="717.44" cy="456.69" r="1.6666666666666667" />
<circle cx="717.67" cy="455.70" r="1.6666666666666667" />
<circle cx="717.90" cy="456.71" r="1.6666666666666667" />
<circle cx="718.12" cy="455.93" r="1.6666666666666667" />
<circle cx="718.34" cy="455.44" r="1.6666666666666667" />
<circle cx="718.56" cy="454.74" r="1.6666666666666667" />
<circle cx="718.79" cy="455.94" r="1.6666666666666667" />
<circle cx="719.01" cy="455.83" r="1.6666666666666667" />
<circle cx="719.23" cy="455.64" r="1.6666666666666667" />
<circle cx="719.46" cy="456.47" r="1.6666666666666667" />
<circle cx="719.69" cy="456.17" r="1.6666666666666667" />
<circle cx="719.91" cy="455.37" r="1.6666666666666667" />
<circle cx="720.14" cy="455.89" r="1.6666666666666667" />
<circle cx="720.37" cy="456.20" r="1.6666666666666667" />
<circle cx="720.59" cy="456.08" r="1.6666666666666667" />
<circle cx="720.82" cy="456.71" r="1.6666666666666667" />
<circle cx="721.05" cy="456.05" r="1.6666666666666667" />
<circle cx="721.28" cy="456.01" r="1.6666666666666667" />
<circle cx="721.51" cy="457.31" r="1.6666666666666667" />
<circle cx="721.75" cy="457.77" r="1.6666666666666667" />
<circle cx="721.99" cy="456.91" r="1.6666666666666667" />
<circle cx="722.22" cy="457.36" r="1.6666666666666667" />
<circle cx="722.46" cy="457.40" r="1.6666666666666667" />
<circle cx="722.70" cy="457.03" r="1.6666666666666667" />
<circle cx="722.94" cy="457.76" r="1.6666666666666667" />
<circle cx="723.18" cy="457.79" r="1.6666666666666667" />
<circle cx="723.41" cy="457.03" r="1.6666666666666667" />
<circle cx="723.65" cy="457.69" r="1.6666666666666667" />
<circle cx="723.89" cy="457.64" r="1.6666666666666667" />
<circle cx="724.13" cy="457.68" r="1.6666666666666667" />
<circle cx="724.36" cy="457.22" r="1.6666666666666667" />
<circle cx="724.61" cy="458.30" r="1.6666666666666667" />
<circle cx="724.85" cy="457.77" r="1.6666666666666667" />
<circle cx="725.09" cy="458.13" r="1.6666666666666667" />
<circle cx="725.34" cy="458.87" r="1.6666666666666667" />
<circle cx="725.58" cy="457.50" r="1.6666666666666667" />
<circle cx="725.82" cy="457.96" r="1.6666666666666667" />
<circle cx="726.07" cy="458.67" r="1.6666666666666667" />
<circle cx="726.31" cy="457.77" r="1.6666666666666667" />
<circle cx="726.55" cy="458.34" r="1.6666666666666667" />
<circle cx="726.80" cy="458.33" r="1.6666666666666667" />
<circle cx="727.04" cy="458.39" r="1.6666666666666667" />
<circle cx="727.30" cy="459.45" r="1.6666666666666667" />
<circle cx="727.54" cy="458.12" r="1.6666666666666667" />
<circle cx="727.78" cy="457.97" r="1.6666666666666667" />
<circle cx="728.03" cy="458.84" r="1.6666666666666667" />
<circle cx="728.28" cy="458.38" r="1.6666666666666667" />
<circle cx="728.52" cy="457.85" r="1.6666666666666667" />
<circle cx="728.77" cy="458.49" r="1.6666666666666667" />
<circle cx="729.01" cy="458.67" r="1.6666666666666667" />
<circle cx="729.25" cy="457.34" r="1.6666666666666667" />
<circle cx="729.50" cy="459.01" r="1.6666666666666667" />
<circle cx="729.74" cy="458.28" r="1.6666666666666667" />
<circle cx="730.00" cy="459.16" r="1.6666666666666667" />
<circle cx="730.25" cy="458.87" r="1.6666666666666667" />
<circle cx="730.50" cy="459.35" r="1.6666666666666667" />
<circle cx="731.26" cy="491.62" r="1.6666666666666667" />
<circle cx="731.53" cy="460.74" r="1.6666666666666667" />
<circle cx="731.79" cy="460.53" r="1.6666666666666667" />
<circle cx="732.04" cy="459.42" r="1.6666666666666667" />
<circle cx="732.31" cy="460.62" r="1.6666666666666667" />
<circle cx="732.57" cy="460.50" r="1.6666666666666667" />
<circle cx="732.84" cy="460.57" r="1.6666666666666667" />
<circle cx="733.10" cy="460.49" r="1.6666666666666667" />
<circle cx="733.37" cy="461.21" r="1.6666666666666667" />
<circle cx="733.64" cy="461.62" r="1.6666666666666667" />
<circle cx="733.91" cy="461.00" r="1.6666666666666667" />
<circle cx="734.18" cy="461.08" r="1.6666666666666667" />
<circle cx="734.45" cy="461.15" r="1.6666666666666667" />
<circle cx="734.72" cy="461.63" r="1.6666666666666667" />
<circle cx="734.99" cy="461.19" r="1.6666666666666667" />
<circle cx="735.27" cy="461.82" r="1.6666666666666667" />
<circle cx="735.54" cy="461.02" r="1.6666666666666667" />
<circle cx="735.81" cy="461.89" r="1.6666666666666667" />
<circle cx="736.09" cy="461.68" r="1.6666666666666667" />
<circle cx="736.36" cy="461.04" r="1.6666666666666667" />
<circle cx="736.63" cy="461.72" r="1.6666666666666667" />
<circle cx="736.90" cy="461.00" r="1.6666666666666667" />
<circle cx="737.18" cy="462.33" r="1.6666666666666667" />
<circle cx="737.47" cy="462.92" r="1.6666666666666667" />
<circle cx="737.74" cy="462.04" r="1.6666666666666667" />
<circle cx="738.03" cy="462.50" r="1.6666666666666667" />
<circle cx="738.30" cy="462.06" r="1.6666666666666667" />
<circle cx="738.58" cy="461.83" r="1.6666666666666667" />
<circle cx="738.86" cy="462.02" r="1.6666666666666667" />
<circle cx="739.14" cy="462.08" r="1.6666666666666667" />
<circle cx="739.41" cy="461.49" r="1.6666666666666667" />
<circle cx="739.69" cy="462.08" r="1.6666666666666667" />
<circle cx="739.98" cy="463.18" r="1.6666666666666667" />
<circle cx="740.27" cy="464.05" r="1.6666666666666667" />
<circle cx="740.56" cy="462.80" r="1.6666666666666667" />
<circle cx="740.85" cy="463.96" r="1.6666666666666667" />
<circle cx="741.14" cy="463.13" r="1.6666666666666667" />
<circle cx="741.43" cy="463.40" r="1.6666666666666667" />
<circle cx="741.73" cy="464.28" r="1.6666666666666667" />
<circle cx="742.04" cy="464.83" r="1.6666666666666667" />
<circle cx="742.34" cy="464.14" r="1.6666666666666667" />
<circle cx="742.64" cy="464.63" r="1.6666666666666667" />
<circle cx="742.96" cy="466.46" r="1.6666666666666667" />
<circle cx="743.28" cy="465.90" r="1.6666666666666667" />
<circle cx="743.59" cy="465.42" r="1.6666666666666667" />
<circle cx="743.90" cy="465.14" r="1.6666666666666667" />
<circle cx="744.22" cy="465.77" r="1.6666666666666667" />
<circle cx="744.55" cy="467.48" r="1.6666666666666667" />
<circle cx="744.86" cy="465.56" r="1.6666666666666667" />
<circle cx="745.18" cy="465.84" r="1.6666666666666667" />
<circle cx="745.49" cy="465.67" r="1.6666666666666667" />
<circle cx="745.86" cy="470.52" r="1.6666666666666667" />
<circle cx="746.18" cy="466.05" r="1.6666666666666667" />
<circle cx="746.50" cy="465.56" r="1.6666666666666667" />
<circle cx="746.81" cy="465.66" r="1.6666666666666667" />
<circle cx="747.21" cy="472.86" r="1.6666666666666667" />
<circle cx="747.55" cy="467.42" r="1.6666666666666667" />
<circle cx="747.88" cy="467.40" r="1.6666666666666667" />
<circle cx="748.21" cy="467.03" r="1.6666666666666667" />
<circle cx="748.61" cy="473.24" r="1.6666666666666667" />
<circle cx="748.95" cy="467.89" r="1.6666666666666667" />
<circle cx="749.30" cy="468.55" r="1.6666666666666667" />
<circle cx="749.66" cy="470.02" r="1.6666666666666667" />
<circle cx="750.03" cy="470.03" r="1.6666666666666667" />
<circle cx="750.37" cy="468.27" r="1.6666666666666667" />
</g>
<g stroke="black">
<line x1="828.41" x2="828.41" y1="510.00" y2="520.00" />
<line x1="785.75" x2="785.75" y1="510.00" y2="520.00" />
<line x1="741.68" x2="741.68" y1="510.00" y2="520.00" />
<line x1="700.44" x2="700.44" y1="510.00" y2="520.00" />
<line x1="656.36" x2="656.36" y1="510.00" y2="520.00" />
<line x1="612.28" x2="612.28" y1="510.00" y2="520.00" />
<line x1="569.63" x2="569.63" y1="510.00" y2="520.00" />
<line x1="525.55" x2="525.55" y1="510.00" y2="520.00" />
<line x1="482.89" x2="482.89" y1="510.00" y2="520.00" />
<line x1="438.81" x2="438.81" y1="510.00" y2="520.00" />
<line x1="394.73" x2="394.73" y1="510.00" y2="520.00" />
<line x1="352.08" x2="352.08" y1="510.00" y2="520.00" />
<line x1="308.00" x2="308.00" y1="510.00" y2="520.00" />
<line x1="265.34" x2="265.34" y1="510.00" y2="520.00" />
<line x1="221.26" x2="221.26" y1="510.00" y2="520.00" />
<line x1="181.45" x2="181.45" y1="510.00" y2="520.00" />
<g fill="black" font-family="Arial, sans-serif" font-size="18.0" stroke="none" text-anchor="start" transform="translate(9.0 0.0)">
<text x="828.41" y="530.57">May</text>
<text x="785.75" y="530.57">Apr</text>
<text x="741.68" y="530.57">Mar</text>
<text x="700.44" y="530.57">Feb</text>
<text x="656.36" y="530.57">Jan</text>
<text x="612.28" y="530.57">Dec</text>
<text x="569.63" y="530.57">Nov</text>
<text x="525.55" y="530.57">Oct</text>
<text x="482.89" y="530.57">Sep</text>
<text x="438.81" y="530.57">Aug</text>
<text x="394.73" y="530.57">Jul</text>
<text x="352.08" y="530.57">Jun</text>
<text x="308.00" y="530.57">May</text>
<text x="265.34" y="530.57">Apr</text>
<text x="221.26" y="530.57">Mar</text>
<text x="181.45" y="530.57">Feb</text>
</g>
<line x1="150.00" x2="850.00" y1="510.00" y2="510.00" />
</g>
<g stroke="black">
<line x1="150.00" x2="140.00" y1="510.00" y2="510.00" />
<line x1="150.00" x2="140.00" y1="216.29" y2="216.29" />
<g fill="black" font-family="Arial, sans-serif" font-size="18.0" stroke="none" text-anchor="end">
<text x="141.00" y="501.00">0</text>
<text x="141.00" y="207.29">10</text>
</g>
<line x1="150.00" x2="150.00" y1="510.00" y2="90.00" />
</g>
</g>
</svg>