<?xml version="1.0"?>
<svg version="1.1" viewBox="0 0 1000 600" xmlns:xlink="http://www.w3.org/1999/xlink" xmlns="http://www.w3.org/2000/svg">
<g>
<g stroke-dasharray="3.6 7.2" stroke-width="0.72" stroke="#caa">
<line x1="283.31" x2="283.31" y1="510.00" y2="90.00" />
<line x1="481.82" x2="481.82" y1="510.00" y2="90.00" />
<line x1="680.34" x2="680.34" y1="510.00" y2="90.00" />
<line x1="150.00" x2="850.00" y1="217.36" y2="217.36" />
</g>
<g>
<text dominant-baseline="hanging" dx="-36.0" dy="18.0" fill="#0004" font-family="Arial, sans-serif" font-size="36" stroke="none" text-anchor="end" x="850.00" y="125.00">ThMuCh0ConjoinedBottom</text>
</g>
<g>
<text dominant-baseline="text-bottom" dy="-12.0" fill="black" font-family="Arial, sans-serif" font-size="18.0" font-style="italic" stroke="none" text-anchor="middle" x="500.00" y="90.00">Days since start</text>
</g>
<g>
<text dominant-baseline="central" dx="12.0" dy="12.0" fill="black" font-family="Arial, sans-serif" font-size="18.0" font-style="italic" stroke="none" text-anchor="middle" text-orientation="sideways" writing-mode="vertical-lr" x="850.00" y="300.00">Drips per day</text>
</g>
<polyline fill="none" points="150.00,125.31 150.13,125.12 150.28,157.14 150.42,150.64 150.56,137.86 150.69,127.74 150.83,141.45 150.96,137.11 151.10,146.02 151.25,154.84 151.38,132.69 151.52,145.85 151.66,125.00 151.80,149.35 151.94,159.21 152.09,160.18 152.23,148.48 152.37,144.19 152.50,135.84 177.65,235.63 177.82,227.52 178.00,229.30 178.18,228.42 178.35,223.69 178.54,238.53 178.72,229.68 178.89,219.95 179.06,224.22 179.23,213.95 179.41,220.81 179.58,217.69 179.75,211.42 179.92,219.30 201.67,277.47 601.09,411.82 601.45,385.53 601.88,408.41 602.16,341.97 602.59,406.34 602.89,351.32 603.29,400.22 603.55,323.66 603.94,394.90 604.26,364.14 604.67,401.04 604.99,365.04 605.39,400.03 605.71,365.85 606.13,403.60 606.49,384.55 606.95,416.40 607.34,393.21 607.84,425.96 608.24,399.55 608.74,425.02 609.15,403.19 609.65,424.97 610.05,397.76 610.95,474.11 611.41,417.37 611.85,410.12 612.37,430.30 612.77,398.81 613.29,429.55 613.70,401.00 614.22,428.94 614.64,406.31 615.18,433.60 615.60,406.34 616.11,427.26 616.52,401.15 617.00,420.03 617.42,405.81 617.92,425.30 618.31,396.96 618.82,427.83 619.21,394.35 619.68,419.86 620.09,401.92 620.60,427.32 621.04,408.92 621.53,423.52 621.94,402.53 622.46,429.55 622.90,412.53 623.44,433.58 623.85,399.75 624.36,429.41 624.79,406.30 625.28,423.64 625.69,402.31 626.23,432.81 626.64,403.30 627.15,427.19 627.56,404.19 628.10,432.97 628.53,407.92 629.08,435.34 629.54,416.43 630.07,430.94 630.51,411.98 631.02,428.60 631.50,420.08 632.00,425.71 632.46,416.34 633.00,433.81 633.42,405.67 633.96,432.63 634.43,419.71 634.96,431.69 635.43,419.59 635.95,430.04 636.44,421.55 636.97,432.20 637.42,414.78 638.34,475.00 638.78,411.86 639.37,442.33 639.83,416.95 727.73,279.91 727.95,291.12 728.17,288.22 728.39,290.89 728.63,302.40 728.85,288.15 729.07,293.73 729.30,290.95 729.53,297.15 729.76,298.60 729.98,291.23 730.20,291.38 730.43,294.07 730.66,296.43 730.88,291.66 731.11,289.93 731.35,309.36 731.58,299.11 731.80,289.91 732.03,299.51 732.27,302.10 732.49,294.09 732.73,303.63 746.26,254.33 746.46,261.31 746.67,281.34 746.88,270.34 747.09,275.51 747.30,273.19 747.50,265.20 747.70,268.67 747.90,261.99 748.11,267.85 748.31,262.26 748.51,267.92 748.71,267.43 748.93,277.33 749.14,274.72 749.35,276.02 749.55,273.56 749.75,263.25 749.96,269.83 750.17,273.61 750.38,272.31 750.58,264.03 750.79,276.22 751.00,276.04 751.19,256.57 751.39,258.95 751.59,262.10 751.79,262.37 751.99,262.96 752.19,262.66 752.40,271.63 752.59,251.02 752.79,265.07 752.99,265.20 753.19,261.14 753.39,255.98 753.59,263.44 753.79,264.00 754.00,274.43 754.21,270.06 754.41,265.15 754.61,263.44 754.81,259.08 755.00,261.69 755.21,267.09 755.41,267.12 755.62,273.53 755.82,266.12 756.02,261.55 756.22,260.41 756.42,266.33 756.62,254.24 756.82,265.09 757.01,255.98 757.21,258.14 757.41,255.61 757.61,263.31 757.81,265.31 758.02,271.23 758.22,265.97 758.42,261.47 758.62,270.31 758.83,271.88 759.04,270.34 759.24,261.47 759.44,268.24 759.65,273.26 759.85,270.44 760.06,266.91 760.26,272.11 760.47,271.28 760.68,268.88 760.88,264.24 761.08,266.46 761.29,274.94 761.49,267.92 761.70,264.72 761.90,270.42 762.11,272.81 762.31,264.30 762.51,261.06 762.71,260.13 762.91,264.80 763.11,263.15 763.31,265.65 763.50,247.07 763.70,257.75 763.89,253.84 764.09,263.44 764.29,258.61 764.49,263.09 764.70,270.34 764.90,264.08 765.10,259.77 765.30,264.38 765.49,260.19 765.70,272.31 765.91,267.07 766.11,270.47 766.92,467.33 767.13,275.61 767.33,264.40 767.53,263.20 767.73,262.31 767.94,269.34 768.14,270.06 768.35,269.93 768.56,271.13 768.76,265.12 768.97,275.41 769.17,268.05 769.38,273.04 769.58,267.77 769.79,263.55 769.99,268.29 770.19,264.08 770.39,256.74 770.60,275.83 770.80,271.81 771.01,271.86 771.22,269.60 771.43,279.32 771.64,276.63 771.85,270.90 772.05,263.42 772.24,250.93 772.43,252.25 772.62,248.24 772.82,252.54 773.00,247.79 773.19,240.75 773.38,249.22 773.56,237.63 773.74,234.12 773.94,248.42 774.13,251.23 774.32,246.64 774.51,250.88 774.69,243.65 774.89,253.12 775.08,252.86 775.27,247.28 775.46,243.71 775.66,266.70 775.87,273.63 776.08,270.75 776.28,268.55 776.48,267.72 776.70,277.69 776.90,271.05 777.11,271.13 777.31,266.57 777.52,269.75 777.72,272.49 777.93,272.09 778.14,276.22 778.36,283.73 778.57,280.66 778.78,270.26 778.99,271.48 779.20,279.32 779.41,272.96 779.61,266.18 779.83,281.69 780.04,276.97 780.25,281.53 780.47,282.16 780.68,277.38 780.89,278.79 781.10,277.14 781.32,279.98 781.53,280.36 781.75,282.62 781.96,283.75 782.17,275.92 782.39,280.88 782.60,276.85 782.81,277.86 783.03,284.26 783.24,275.36 783.45,279.48 783.67,287.82 783.88,267.27 784.08,273.34 784.30,280.66 784.51,272.29 784.72,284.99 784.94,285.26 785.17,293.61 785.39,292.80 785.60,274.99 785.81,277.19 786.03,283.02 786.25,286.88 786.46,276.34 786.68,281.63 786.90,290.13 787.11,281.06 787.33,285.46 787.55,286.30 787.77,284.17 787.98,280.08 788.19,271.48 788.40,272.49 788.61,282.86 788.84,293.82 789.06,283.80 789.27,283.34 789.49,287.37 789.71,283.85 789.92,280.95 790.13,273.58 790.34,278.05 790.57,292.07 790.79,286.90 791.01,286.50 791.23,289.84 791.45,291.51 791.68,293.73 791.90,288.48 792.13,295.97 792.35,283.94 792.55,273.68 792.77,281.97 792.98,278.87 793.21,291.56 793.43,285.73 793.64,285.48 793.88,302.97 794.10,292.16 794.32,287.19 794.55,296.78 794.78,293.35 795.01,295.10 795.23,294.37 796.13,474.17 796.36,289.29 796.58,295.22 796.81,294.28 797.04,296.97 797.27,300.70 797.50,296.49 797.72,289.29 797.95,291.94 798.18,299.61 798.41,296.95 798.63,291.60 798.87,304.79 799.11,306.13 799.33,297.19 799.56,295.12 799.80,302.79 800.02,291.88 800.25,299.59 800.47,289.10 800.70,290.71 800.93,298.93 801.15,292.58 801.38,297.56 801.62,302.02 801.85,303.98 802.08,298.46 802.32,305.56 802.56,303.71 802.80,310.88 803.04,304.06 803.27,306.38 803.51,303.49 803.74,303.59 803.98,300.81 804.22,306.02 804.45,302.89 804.68,299.55 804.92,302.30 805.15,304.89 805.39,302.85 805.63,305.79 805.86,306.89 806.10,306.32 806.33,294.24 806.56,296.60 806.79,303.57 807.03,305.73 807.27,303.59 807.51,309.23 807.75,306.76 807.99,306.51 808.22,300.93 808.45,300.10 808.69,307.66 808.93,311.75 809.18,308.26 809.42,308.61 809.65,304.00 809.89,302.44 810.13,307.49 810.36,304.39 810.60,306.43 810.85,311.90 811.09,310.63 811.32,298.83 811.55,302.69 811.79,300.01 812.03,310.59 812.27,306.45 812.51,311.75 812.76,317.33 813.00,303.16 813.23,302.73 813.47,310.24 813.72,311.30 813.96,309.26 814.21,316.83 814.46,313.87 814.70,311.32 814.94,307.83 815.18,309.58 815.43,312.73 815.67,311.48 815.92,315.89 816.17,317.23 816.41,308.67 816.65,310.28 816.89,309.12 817.13,306.95 817.37,306.91 817.62,314.28 817.87,319.16 818.12,310.22 818.36,315.68 818.61,315.88 818.87,327.14 819.13,323.09 819.40,328.23 819.66,326.46 819.91,320.35 820.17,324.33 820.43,322.42 820.68,322.37 820.93,318.02 821.20,326.86 821.45,320.45 821.70,316.19 821.95,314.45 822.19,314.67 822.46,326.13 822.72,326.57 823.48,463.57 823.74,321.05 823.99,318.95 824.25,321.75 824.50,319.80 824.77,329.30 825.01,312.83 825.26,318.90 825.53,328.19 825.78,321.02 826.04,324.78 826.30,323.97 826.57,334.32 826.82,316.28 827.08,323.24 827.34,328.85 827.60,321.62 827.86,327.23 828.12,323.01 828.38,323.66 828.63,322.34 828.88,317.83 829.15,327.30 829.40,321.12 829.67,331.97 829.94,332.65 830.21,332.58 830.48,330.90 830.74,331.58 831.02,334.63 831.28,332.18 831.55,327.77 831.82,333.58 832.09,331.28 832.35,332.12 832.63,333.56 832.89,332.28 833.17,334.99 833.44,334.83 833.70,328.67 833.97,330.11 834.25,339.72 834.52,333.02 834.80,339.83 835.07,334.61 835.34,331.23 835.60,326.37 835.87,334.65 836.14,333.95 836.41,332.65 836.69,338.25 836.96,336.23 837.23,330.73 837.50,334.36 837.78,336.44 838.05,335.61 838.33,339.83 838.60,335.41 838.88,335.13 839.16,343.75 839.45,346.74 839.73,341.19 840.02,344.11 840.31,344.37 840.59,341.97 840.88,346.69 841.17,346.87 841.45,341.98 841.74,346.24 842.03,345.92 842.32,346.15 842.60,343.19 842.90,350.09 843.19,346.76 843.48,349.03 843.78,353.63 844.07,345.03 844.36,347.98 844.66,352.42 844.95,346.74 845.24,350.35 845.54,350.28 845.83,350.68 846.14,357.20 846.43,348.94 846.72,348.02 847.03,353.45 847.32,350.61 847.61,347.23 847.91,351.29 848.21,352.41 848.49,343.99 848.79,354.50 849.09,350.00 849.39,355.40 849.69,353.65 850.00,356.58" stroke-dasharray="3.6 3.6" stroke-width="3.6" stroke="#aaa" />
<g>
<circle cx="150.00" cy="125.31" r="1.6666666666666667" />
<circle cx="150.13" cy="125.12" r="1.6666666666666667" />
<circle cx="150.28" cy="157.14" r="1.6666666666666667" />
<circle cx="150.42" cy="150.64" r="1.6666666666666667" />
<circle cx="150.56" cy="137.86" r="1.6666666666666667" />
<circle cx="150.69" cy="127.74" r="1.6666666666666667" />
<circle cx="150.83" cy="141.45" r="1.6666666666666667" />
<circle cx="150.96" cy="137.11" r="1.6666666666666667" />
<circle cx="151.10" cy="146.02" r="1.6666666666666667" />
<circle cx="151.25" cy="154.84" r="1.6666666666666667" />
<circle cx="151.38" cy="132.69" r="1.6666666666666667" />
<circle cx="151.52" cy="145.85" r="1.6666666666666667" />
<circle cx="151.66" cy="125.00" r="1.6666666666666667" />
<circle cx="151.80" cy="149.35" r="1.6666666666666667" />
<circle cx="151.94" cy="159.21" r="1.6666666666666667" />
<circle cx="152.09" cy="160.18" r="1.6666666666666667" />
<circle cx="152.23" cy="148.48" r="1.6666666666666667" />
<circle cx="152.37" cy="144.19" r="1.6666666666666667" />
<circle cx="152.50" cy="135.84" r="1.6666666666666667" />
<circle cx="177.65" cy="235.63" r="1.6666666666666667" />
<circle cx="177.82" cy="227.52" r="1.6666666666666667" />
<circle cx="178.00" cy="229.30" r="1.6666666666666667" />
<circle cx="178.18" cy="228.42" r="1.6666666666666667" />
<circle cx="178.35" cy="223.69" r="1.6666666666666667" />
<circle cx="178.54" cy="238.53" r="1.6666666666666667" />
<circle cx="178.72" cy="229.68" r="1.6666666666666667" />
<circle cx="178.89" cy="219.95" r="1.6666666666666667" />
<circle cx="179.06" cy="224.22" r="1.6666666666666667" />
<circle cx="179.23" cy="213.95" r="1.6666666666666667" />
<circle cx="179.41" cy="220.81" r="1.6666666666666667" />
<circle cx="179.58" cy="217.69" r="1.6666666666666667" />
<circle cx="179.75" cy="211.42" r="1.6666666666666667" />
<circle cx="179.92" cy="219.30" r="1.6666666666666667" />
<circle cx="201.67" cy="277.47" r="1.6666666666666667" />
<circle cx="601.09" cy="411.82" r="1.6666666666666667" />
<circle cx="601.45" cy="385.53" r="1.6666666666666667" />
<circle cx="601.88" cy="408.41" r="1.6666666666666667" />
<circle cx="602.16" cy="341.97" r="1.6666666666666667" />
<circle cx="602.59" cy="406.34" r="1.6666666666666667" />
<circle cx="602.89" cy="351.32" r="1.6666666666666667" />
<circle cx="603.29" cy="400.22" r="1.6666666666666667" />
<circle cx="603.55" cy="323.66" r="1.6666666666666667" />
<circle cx="603.94" cy="394.90" r="1.6666666666666667" />
<circle cx="604.26" cy="364.14" r="1.6666666666666667" />
<circle cx="604.67" cy="401.04" r="1.6666666666666667" />
<circle cx="604.99" cy="365.04" r="1.6666666666666667" />
<circle cx="605.39" cy="400.03" r="1.6666666666666667" />
<circle cx="605.71" cy="365.85" r="1.6666666666666667" />
<circle cx="606.13" cy="403.60" r="1.6666666666666667" />
<circle cx="606.49" cy="384.55" r="1.6666666666666667" />
<circle cx="606.95" cy="416.40" r="1.6666666666666667" />
<circle cx="607.34" cy="393.21" r="1.6666666666666667" />
<circle cx="607.84" cy="425.96" r="1.6666666666666667" />
<circle cx="608.24" cy="399.55" r="1.6666666666666667" />
<circle cx="608.74" cy="425.02" r="1.6666666666666667" />
<circle cx="609.15" cy="403.19" r="1.6666666666666667" />
<circle cx="609.65" cy="424.97" r="1.6666666666666667" />
<circle cx="610.05" cy="397.76" r="1.6666666666666667" />
<circle cx="610.95" cy="474.11" r="1.6666666666666667" />
<circle cx="611.41" cy="417.37" r="1.6666666666666667" />
<circle cx="611.85" cy="410.12" r="1.6666666666666667" />
<circle cx="612.37" cy="430.30" r="1.6666666666666667" />
<circle cx="612.77" cy="398.81" r="1.6666666666666667" />
<circle cx="613.29" cy="429.55" r="1.6666666666666667" />
<circle cx="613.70" cy="401.00" r="1.6666666666666667" />
<circle cx="614.22" cy="428.94" r="1.6666666666666667" />
<circle cx="614.64" cy="406.31" r="1.6666666666666667" />
<circle cx="615.18" cy="433.60" r="1.6666666666666667" />
<circle cx="615.60" cy="406.34" r="1.6666666666666667" />
<circle cx="616.11" cy="427.26" r="1.6666666666666667" />
<circle cx="616.52" cy="401.15" r="1.6666666666666667" />
<circle cx="617.00" cy="420.03" r="1.6666666666666667" />
<circle cx="617.42" cy="405.81" r="1.6666666666666667" />
<circle cx="617.92" cy="425.30" r="1.6666666666666667" />
<circle cx="618.31" cy="396.96" r="1.6666666666666667" />
<circle cx="618.82" cy="427.83" r="1.6666666666666667" />
<circle cx="619.21" cy="394.35" r="1.6666666666666667" />
<circle cx="619.68" cy="419.86" r="1.6666666666666667" />
<circle cx="620.09" cy="401.92" r="1.6666666666666667" />
<circle cx="620.60" cy="427.32" r="1.6666666666666667" />
<circle cx="621.04" cy="408.92" r="1.6666666666666667" />
<circle cx="621.53" cy="423.52" r="1.6666666666666667" />
<circle cx="621.94" cy="402.53" r="1.6666666666666667" />
<circle cx="622.46" cy="429.55" r="1.6666666666666667" />
<circle cx="622.90" cy="412.53" r="1.6666666666666667" />
<circle cx="623.44" cy="433.58" r="1.6666666666666667" />
<circle cx="623.85" cy="399.75" r="1.6666666666666667" />
<circle cx="624.36" cy="429.41" r="1.6666666666666667" />
<circle cx="624.79" cy="406.30" r="1.6666666666666667" />
<circle cx="625.28" cy="423.64" r="1.6666666666666667" />
<circle cx="625.69" cy="402.31" r="1.6666666666666667" />
<circle cx="626.23" cy="432.81" r="1.6666666666666667" />
<circle cx="626.64" cy="403.30" r="1.6666666666666667" />
<circle cx="627.15" cy="427.19" r="1.6666666666666667" />
<circle cx="627.56" cy="404.19" r="1.6666666666666667" />
<circle cx="628.10" cy="432.97" r="1.6666666666666667" />
<circle cx="628.53" cy="407.92" r="1.6666666666666667" />
<circle cx="629.08" cy="435.34" r="1.6666666666666667" />
<circle cx="629.54" cy="416.43" r="1.6666666666666667" />
<circle cx="630.07" cy="430.94" r="1.6666666666666667" />
<circle cx="630.51" cy="411.98" r="1.6666666666666667" />
<circle cx="631.02" cy="428.60" r="1.6666666666666667" />
<circle cx="631.50" cy="420.08" r="1.6666666666666667" />
<circle cx="632.00" cy="425.71" r="1.6666666666666667" />
<circle cx="632.46" cy="416.34" r="1.6666666666666667" />
<circle cx="633.00" cy="433.81" r="1.6666666666666667" />
<circle cx="633.42" cy="405.67" r="1.6666666666666667" />
<circle cx="633.96" cy="432.63" r="1.6666666666666667" />
<circle cx="634.43" cy="419.71" r="1.6666666666666667" />
<circle cx="634.96" cy="431.69" r="1.6666666666666667" />
<circle cx="635.43" cy="419.59" r="1.6666666666666667" />
<circle cx="635.95" cy="430.04" r="1.6666666666666667" />
<circle cx="636.44" cy="421.55" r="1.6666666666666667" />
<circle cx="636.97" cy="432.20" r="1.6666666666666667" />
<circle cx="637.42" cy="414.78" r="1.6666666666666667" />
<circle cx="638.34" cy="475.00" r="1.6666666666666667" />
<circle cx="638.78" cy="411.86" r="1.6666666666666667" />
<circle cx="639.37" cy="442.33" r="1.6666666666666667" />
<circle cx="639.83" cy="416.95" r="1.6666666666666667" />
<circle cx="727.73" cy="279.91" r="1.6666666666666667" />
<circle cx="727.95" cy="291.12" r="1.6666666666666667" />
<circle cx="728.17" cy="288.22" r="1.6666666666666667" />
<circle cx="728.39" cy="290.89" r="1.6666666666666667" />
<circle cx="728.63" cy="302.40" r="1.6666666666666667" />
<circle cx="728.85" cy="288.15" r="1.6666666666666667" />
<circle cx="729.07" cy="293.73" r="1.6666666666666667" />
<circle cx="729.30" cy="290.95" r="1.6666666666666667" />
<circle cx="729.53" cy="297.15" r="1.6666666666666667" />
<circle cx="729.76" cy="298.60" r="1.6666666666666667" />
<circle cx="729.98" cy="291.23" r="1.6666666666666667" />
<circle cx="730.20" cy="291.38" r="1.6666666666666667" />
<circle cx="730.43" cy="294.07" r="1.6666666666666667" />
<circle cx="730.66" cy="296.43" r="1.6666666666666667" />
<circle cx="730.88" cy="291.66" r="1.6666666666666667" />
<circle cx="731.11" cy="289.93" r="1.6666666666666667" />
<circle cx="731.35" cy="309.36" r="1.6666666666666667" />
<circle cx="731.58" cy="299.11" r="1.6666666666666667" />
<circle cx="731.80" cy="289.91" r="1.6666666666666667" />
<circle cx="732.03" cy="299.51" r="1.6666666666666667" />
<circle cx="732.27" cy="302.10" r="1.6666666666666667" />
<circle cx="732.49" cy="294.09" r="1.6666666666666667" />
<circle cx="732.73" cy="303.63" r="1.6666666666666667" />
<circle cx="746.26" cy="254.33" r="1.6666666666666667" />
<circle cx="746.46" cy="261.31" r="1.6666666666666667" />
<circle cx="746.67" cy="281.34" r="1.6666666666666667" />
<circle cx="746.88" cy="270.34" r="1.6666666666666667" />
<circle cx="747.09" cy="275.51" r="1.6666666666666667" />
<circle cx="747.30" cy="273.19" r="1.6666666666666667" />
<circle cx="747.50" cy="265.20" r="1.6666666666666667" />
<circle cx="747.70" cy="268.67" r="1.6666666666666667" />
<circle cx="747.90" cy="261.99" r="1.6666666666666667" />
<circle cx="748.11" cy="267.85" r="1.6666666666666667" />
<circle cx="748.31" cy="262.26" r="1.6666666666666667" />
<circle cx="748.51" cy="267.92" r="1.6666666666666667" />
<circle cx="748.71" cy="267.43" r="1.6666666666666667" />
<circle cx="748.93" cy="277.33" r="1.6666666666666667" />
<circle cx="749.14" cy="274.72" r="1.6666666666666667" />
<circle cx="749.35" cy="276.02" r="1.6666666666666667" />
<circle cx="749.55" cy="273.56" r="1.6666666666666667" />
<circle cx="749.75" cy="263.25" r="1.6666666666666667" />
<circle cx="749.96" cy="269.83" r="1.6666666666666667" />
<circle cx="750.17" cy="273.61" r="1.6666666666666667" />
<circle cx="750.38" cy="272.31" r="1.6666666666666667" />
<circle cx="750.58" cy="264.03" r="1.6666666666666667" />
<circle cx="750.79" cy="276.22" r="1.6666666666666667" />
<circle cx="751.00" cy="276.04" r="1.6666666666666667" />
<circle cx="751.19" cy="256.57" r="1.6666666666666667" />
<circle cx="751.39" cy="258.95" r="1.6666666666666667" />
<circle cx="751.59" cy="262.10" r="1.6666666666666667" />
<circle cx="751.79" cy="262.37" r="1.6666666666666667" />
<circle cx="751.99" cy="262.96" r="1.6666666666666667" />
<circle cx="752.19" cy="262.66" r="1.6666666666666667" />
<circle cx="752.40" cy="271.63" r="1.6666666666666667" />
<circle cx="752.59" cy="251.02" r="1.6666666666666667" />
<circle cx="752.79" cy="265.07" r="1.6666666666666667" />
<circle cx="752.99" cy="265.20" r="1.6666666666666667" />
<circle cx="753.19" cy="261.14" r="1.6666666666666667" />
<circle cx="753.39" cy="255.98" r="1.6666666666666667" />
<circle cx="753.59" cy="263.44" r="1.6666666666666667" />
<circle cx="753.79" cy="264.00" r="1.6666666666666667" />
<circle cx="754.00" cy="274.43" r="1.6666666666666667" />
<circle cx="754.21" cy="270.06" r="1.6666666666666667" />
<circle cx="754.41" cy="265.15" r="1.6666666666666667" />
<circle cx="754.61" cy="263.44" r="1.6666666666666667" />
<circle cx="754.81" cy="259.08" r="1.6666666666666667" />
<circle cx="755.00" cy="261.69" r="1.6666666666666667" />
<circle cx="755.21" cy="267.09" r="1.6666666666666667" />
<circle cx="755.41" cy="267.12" r="1.6666666666666667" />
<circle cx="755.62" cy="273.53" r="1.6666666666666667" />
<circle cx="755.82" cy="266.12" r="1.6666666666666667" />
<circle cx="756.02" cy="261.55" r="1.6666666666666667" />
<circle cx="756.22" cy="260.41" r="1.6666666666666667" />
<circle cx="756.42" cy="266.33" r="1.6666666666666667" />
<circle cx="756.62" cy="254.24" r="1.6666666666666667" />
<circle cx="756.82" cy="265.09" r="1.6666666666666667" />
<circle cx="757.01" cy="255.98" r="1.6666666666666667" />
<circle cx="757.21" cy="258.14" r="1.6666666666666667" />
<circle cx="757.41" cy="255.61" r="1.6666666666666667" />
<circle cx="757.61" cy="263.31" r="1.6666666666666667" />
<circle cx="757.81" cy="265.31" r="1.6666666666666667" />
<circle cx="758.02" cy="271.23" r="1.6666666666666667" />
<circle cx="758.22" cy="265.97" r="1.6666666666666667" />
<circle cx="758.42" cy="261.47" r="1.6666666666666667" />
<circle cx="758.62" cy="270.31" r="1.6666666666666667" />
<circle cx="758.83" cy="271.88" r="1.6666666666666667" />
<circle cx="759.04" cy="270.34" r="1.6666666666666667" />
<circle cx="759.24" cy="261.47" r="1.6666666666666667" />
<circle cx="759.44" cy="268.24" r="1.6666666666666667" />
<circle cx="759.65" cy="273.26" r="1.6666666666666667" />
<circle cx="759.85" cy="270.44" r="1.6666666666666667" />
<circle cx="760.06" cy="266.91" r="1.6666666666666667" />
<circle cx="760.26" cy="272.11" r="1.6666666666666667" />
<circle cx="760.47" cy="271.28" r="1.6666666666666667" />
<circle cx="760.68" cy="268.88" r="1.6666666666666667" />
<circle cx="760.88" cy="264.24" r="1.6666666666666667" />
<circle cx="761.08" cy="266.46" r="1.6666666666666667" />
<circle cx="761.29" cy="274.94" r="1.6666666666666667" />
<circle cx="761.49" cy="267.92" r="1.6666666666666667" />
<circle cx="761.70" cy="264.72" r="1.6666666666666667" />
<circle cx="761.90" cy="270.42" r="1.6666666666666667" />
<circle cx="762.11" cy="272.81" r="1.6666666666666667" />
<circle cx="762.31" cy="264.30" r="1.6666666666666667" />
<circle cx="762.51" cy="261.06" r="1.6666666666666667" />
<circle cx="762.71" cy="260.13" r="1.6666666666666667" />
<circle cx="762.91" cy="264.80" r="1.6666666666666667" />
<circle cx="763.11" cy="263.15" r="1.6666666666666667" />
<circle cx="763.31" cy="265.65" r="1.6666666666666667" />
<circle cx="763.50" cy="247.07" r="1.6666666666666667" />
<circle cx="763.70" cy="257.75" r="1.6666666666666667" />
<circle cx="763.89" cy="253.84" r="1.6666666666666667" />
<circle cx="764.09" cy="263.44" r="1.6666666666666667" />
<circle cx="764.29" cy="258.61" r="1.6666666666666667" />
<circle cx="764.49" cy="263.09" r="1.6666666666666667" />
<circle cx="764.70" cy="270.34" r="1.6666666666666667" />
<circle cx="764.90" cy="264.08" r="1.6666666666666667" />
<circle cx="765.10" cy="259.77" r="1.6666666666666667" />
<circle cx="765.30" cy="264.38" r="1.6666666666666667" />
<circle cx="765.49" cy="260.19" r="1.6666666666666667" />
<circle cx="765.70" cy="272.31" r="1.6666666666666667" />
<circle cx="765.91" cy="267.07" r="1.6666666666666667" />
<circle cx="766.11" cy="270.47" r="1.6666666666666667" />
<circle cx="766.92" cy="467.33" r="1.6666666666666667" />
<circle cx="767.13" cy="275.61" r="1.6666666666666667" />
<circle cx="767.33" cy="264.40" r="1.6666666666666667" />
<circle cx="767.53" cy="263.20" r="1.6666666666666667" />
<circle cx="767.73" cy="262.31" r="1.6666666666666667" />
<circle cx="767.94" cy="269.34" r="1.6666666666666667" />
<circle cx="768.14" cy="270.06" r="1.6666666666666667" />
<circle cx="768.35" cy="269.93" r="1.6666666666666667" />
<circle cx="768.56" cy="271.13" r="1.6666666666666667" />
<circle cx="768.76" cy="265.12" r="1.6666666666666667" />
<circle cx="768.97" cy="275.41" r="1.6666666666666667" />
<circle cx="769.17" cy="268.05" r="1.6666666666666667" />
<circle cx="769.38" cy="273.04" r="1.6666666666666667" />
<circle cx="769.58" cy="267.77" r="1.6666666666666667" />
<circle cx="769.79" cy="263.55" r="1.6666666666666667" />
<circle cx="769.99" cy="268.29" r="1.6666666666666667" />
<circle cx="770.19" cy="264.08" r="1.6666666666666667" />
<circle cx="770.39" cy="256.74" r="1.6666666666666667" />
<circle cx="770.60" cy="275.83" r="1.6666666666666667" />
<circle cx="770.80" cy="271.81" r="1.6666666666666667" />
<circle cx="771.01" cy="271.86" r="1.6666666666666667" />
<circle cx="771.22" cy="269.60" r="1.6666666666666667" />
<circle cx="771.43" cy="279.32" r="1.6666666666666667" />
<circle cx="771.64" cy="276.63" r="1.6666666666666667" />
<circle cx="771.85" cy="270.90" r="1.6666666666666667" />
<circle cx="772.05" cy="263.42" r="1.6666666666666667" />
<circle cx="772.24" cy="250.93" r="1.6666666666666667" />
<circle cx="772.43" cy="252.25" r="1.6666666666666667" />
<circle cx="772.62" cy="248.24" r="1.6666666666666667" />
<circle cx="772.82" cy="252.54" r="1.6666666666666667" />
<circle cx="773.00" cy="247.79" r="1.6666666666666667" />
<circle cx="773.19" cy="240.75" r="1.6666666666666667" />
<circle cx="773.38" cy="249.22" r="1.6666666666666667" />
<circle cx="773.56" cy="237.63" r="1.6666666666666667" />
<circle cx="773.74" cy="234.12" r="1.6666666666666667" />
<circle cx="773.94" cy="248.42" r="1.6666666666666667" />
<circle cx="774.13" cy="251.23" r="1.6666666666666667" />
<circle cx="774.32" cy="246.64" r="1.6666666666666667" />
<circle cx="774.51" cy="250.88" r="1.6666666666666667" />
<circle cx="774.69" cy="243.65" r="1.6666666666666667" />
<circle cx="774.89" cy="253.12" r="1.6666666666666667" />
<circle cx="775.08" cy="252.86" r="1.6666666666666667" />
<circle cx="775.27" cy="247.28" r="1.6666666666666667" />
<circle cx="775.46" cy="243.71" r="1.6666666666666667" />
<circle cx="775.66" cy="266.70" r="1.6666666666666667" />
<circle cx="775.87" cy="273.63" r="1.6666666666666667" />
<circle cx="776.08" cy="270.75" r="1.6666666666666667" />
<circle cx="776.28" cy="268.55" r="1.6666666666666667" />
<circle cx="776.48" cy="267.72" r="1.6666666666666667" />
<circle cx="776.70" cy="277.69" r="1.6666666666666667" />
<circle cx="776.90" cy="271.05" r="1.6666666666666667" />
<circle cx="777.11" cy="271.13" r="1.6666666666666667" />
<circle cx="777.31" cy="266.57" r="1.6666666666666667" />
<circle cx="777.52" cy="269.75" r="1.6666666666666667" />
<circle cx="777.72" cy="272.49" r="1.6666666666666667" />
<circle cx="777.93" cy="272.09" r="1.6666666666666667" />
<circle cx="778.14" cy="276.22" r="1.6666666666666667" />
<circle cx="778.36" cy="283.73" r="1.6666666666666667" />
<circle cx="778.57" cy="280.66" r="1.6666666666666667" />
<circle cx="778.78" cy="270.26" r="1.6666666666666667" />
<circle cx="778.99" cy="271.48" r="1.6666666666666667" />
<circle cx="779.20" cy="279.32" r="1.6666666666666667" />
<circle cx="779.41" cy="272.96" r="1.6666666666666667" />
<circle cx="779.61" cy="266.18" r="1.6666666666666667" />
<circle cx="779.83" cy="281.69" r="1.6666666666666667" />
<circle cx="780.04" cy="276.97" r="1.6666666666666667" />
<circle cx="780.25" cy="281.53" r="1.6666666666666667" />
<circle cx="780.47" cy="282.16" r="1.6666666666666667" />
<circle cx="780.68" cy="277.38" r="1.6666666666666667" />
<circle cx="780.89" cy="278.79" r="1.6666666666666667" />
<circle cx="781.10" cy="277.14" r="1.6666666666666667" />
<circle cx="781.32" cy="279.98" r="1.6666666666666667" />
<circle cx="781.53" cy="280.36" r="1.6666666666666667" />
<circle cx="781.75" cy="282.62" r="1.6666666666666667" />
<circle cx="781.96" cy="283.75" r="1.6666666666666667" />
<circle cx="782.17" cy="275.92" r="1.6666666666666667" />
<circle cx="782.39" cy="280.88" r="1.6666666666666667" />
<circle cx="782.60" cy="276.85" r="1.6666666666666667" />
<circle cx="782.81" cy="277.86" r="1.6666666666666667" />
<circle cx="783.03" cy="284.26" r="1.6666666666666667" />
<circle cx="783.24" cy="275.36" r="1.6666666666666667" />
<circle cx="783.45" cy="279.48" r="1.6666666666666667" />
<circle cx="783.67" cy="287.82" r="1.6666666666666667" />
<circle cx="783.88" cy="267.27" r="1.6666666666666667" />
<circle cx="784.08" cy="273.34" r="1.6666666666666667" />
<circle cx="784.30" cy="280.66" r="1.6666666666666667" />
<circle cx="784.51" cy="272.29" r="1.6666666666666667" />
<circle cx="784.72" cy="284.99" r="1.6666666666666667" />
<circle cx="784.94" cy="285.26" r="1.6666666666666667" />
<circle cx="785.17" cy="293.61" r="1.6666666666666667" />
<circle cx="785.39" cy="292.80" r="1.6666666666666667" />
<circle cx="785.60" cy="274.99" r="1.6666666666666667" />
<circle cx="785.81" cy="277.19" r="1.6666666666666667" />
<circle cx="786.03" cy="283.02" r="1.6666666666666667" />
<circle cx="786.25" cy="286.88" r="1.6666666666666667" />
<circle cx="786.46" cy="276.34" r="1.6666666666666667" />
<circle cx="786.68" cy="281.63" r="1.6666666666666667" />
<circle cx="786.90" cy="290.13" r="1.6666666666666667" />
<circle cx="787.11" cy="281.06" r="1.6666666666666667" />
<circle cx="787.33" cy="285.46" r="1.6666666666666667" />
<circle cx="787.55" cy="286.30" r="1.6666666666666667" />
<circle cx="787.77" cy="284.17" r="1.6666666666666667" />
<circle cx="787.98" cy="280.08" r="1.6666666666666667" />
<circle cx="788.19" cy="271.48" r="1.6666666666666667" />
<circle cx="788.40" cy="272.49" r="1.6666666666666667" />
<circle cx="788.61" cy="282.86" r="1.6666666666666667" />
<circle cx="788.84" cy="293.82" r="1.6666666666666667" />
<circle cx="789.06" cy="283.80" r="1.6666666666666667" />
<circle cx="789.27" cy="283.34" r="1.6666666666666667" />
<circle cx="789.49" cy="287.37" r="1.6666666666666667" />
<circle cx="789.71" cy="283.85" r="1.6666666666666667" />
<circle cx="789.92" cy="280.95" r="1.6666666666666667" />
<circle cx="790.13" cy="273.58" r="1.6666666666666667" />
<circle cx="790.34" cy="278.05" r="1.6666666666666667" />
<circle cx="790.57" cy="292.07" r="1.6666666666666667" />
<circle cx="790.79" cy="286.90" r="1.6666666666666667" />
<circle cx="791.01" cy="286.50" r="1.6666666666666667" />
<circle cx="791.23" cy="289.84" r="1.6666666666666667" />
<circle cx="791.45" cy="291.51" r="1.6666666666666667" />
<circle cx="791.68" cy="293.73" r="1.6666666666666667" />
<circle cx="791.90" cy="288.48" r="1.6666666666666667" />
<circle cx="792.13" cy="295.97" r="1.6666666666666667" />
<circle cx="792.35" cy="283.94" r="1.6666666666666667" />
<circle cx="792.55" cy="273.68" r="1.6666666666666667" />
<circle cx="792.77" cy="281.97" r="1.6666666666666667" />
<circle cx="792.98" cy="278.87" r="1.6666666666666667" />
<circle cx="793.21" cy="291.56" r="1.6666666666666667" />
<circle cx="793.43" cy="285.73" r="1.6666666666666667" />
<circle cx="793.64" cy="285.48" r="1.6666666666666667" />
<circle cx="793.88" cy="302.97" r="1.6666666666666667" />
<circle cx="794.10" cy="292.16" r="1.6666666666666667" />
<circle cx="794.32" cy="287.19" r="1.6666666666666667" />
<circle cx="794.55" cy="296.78" r="1.6666666666666667" />
<circle cx="794.78" cy="293.35" r="1.6666666666666667" />
<circle cx="795.01" cy="295.10" r="1.6666666666666667" />
<circle cx="795.23" cy="294.37" r="1.6666666666666667" />
<circle cx="796.13" cy="474.17" r="1.6666666666666667" />
<circle cx="796.36" cy="289.29" r="1.6666666666666667" />
<circle cx="796.58" cy="295.22" r="1.6666666666666667" />
<circle cx="796.81" cy="294.28" r="1.6666666666666667" />
<circle cx="797.04" cy="296.97" r="1.6666666666666667" />
<circle cx="797.27" cy="300.70" r="1.6666666666666667" />
<circle cx="797.50" cy="296.49" r="1.6666666666666667" />
<circle cx="797.72" cy="289.29" r="1.6666666666666667" />
<circle cx="797.95" cy="291.94" r="1.6666666666666667" />
<circle cx="798.18" cy="299.61" r="1.6666666666666667" />
<circle cx="798.41" cy="296.95" r="1.6666666666666667" />
<circle cx="798.63" cy="291.60" r="1.6666666666666667" />
<circle cx="798.87" cy="304.79" r="1.6666666666666667" />
<circle cx="799.11" cy="306.13" r="1.6666666666666667" />
<circle cx="799.33" cy="297.19" r="1.6666666666666667" />
<circle cx="799.56" cy="295.12" r="1.6666666666666667" />
<circle cx="799.80" cy="302.79" r="1.6666666666666667" />
<circle cx="800.02" cy="291.88" r="1.6666666666666667" />
<circle cx="800.25" cy="299.59" r="1.6666666666666667" />
<circle cx="800.47" cy="289.10" r="1.6666666666666667" />
<circle cx="800.70" cy="290.71" r="1.6666666666666667" />
<circle cx="800.93" cy="298.93" r="1.6666666666666667" />
<circle cx="801.15" cy="292.58" r="1.6666666666666667" />
<circle cx="801.38" cy="297.56" r="1.6666666666666667" />
<circle cx="801.62" cy="302.02" r="1.6666666666666667" />
<circle cx="801.85" cy="303.98" r="1.6666666666666667" />
<circle cx="802.08" cy="298.46" r="1.6666666666666667" />
<circle cx="802.32" cy="305.56" r="1.6666666666666667" />
<circle cx="802.56" cy="303.71" r="1.6666666666666667" />
<circle cx="802.80" cy="310.88" r="1.6666666666666667" />
<circle cx="803.04" cy="304.06" r="1.6666666666666667" />
<circle cx="803.27" cy="306.38" r="1.6666666666666667" />
<circle cx="803.51" cy="303.49" r="1.6666666666666667" />
<circle cx="803.74" cy="303.59" r="1.6666666666666667" />
<circle cx="803.98" cy="300.81" r="1.6666666666666667" />
<circle cx="804.22" cy="306.02" r="1.6666666666666667" />
<circle cx="804.45" cy="302.89" r="1.6666666666666667" />
<circle cx="804.68" cy="299.55" r="1.6666666666666667" />
<circle cx="804.92" cy="302.30" r="1.6666666666666667" />
<circle cx="805.15" cy="304.89" r="1.6666666666666667" />
<circle cx="805.39" cy="302.85" r="1.6666666666666667" />
<circle cx="805.63" cy="305.79" r="1.6666666666666667" />
<circle cx="805.86" cy="306.89" r="1.6666666666666667" />
<circle cx="806.10" cy="306.32" r="1.6666666666666667" />
<circle cx="806.33" cy="294.24" r="1.6666666666666667" />
<circle cx="806.56" cy="296.60" r="1.6666666666666667" />
<circle cx="806.79" cy="303.57" r="1.6666666666666667" />
<circle cx="807.03" cy="305.73" r="1.6666666666666667" />
<circle cx="807.27" cy="303.59" r="1.6666666666666667" />
<circle cx="807.51" cy="309.23" r="1.6666666666666667" />
<circle cx="807.75" cy="306.76" r="1.6666666666666667" />
<circle cx="807.99" cy="306.51" r="1.6666666666666667" />
<circle cx="808.22" cy="300.93" r="1.6666666666666667" />
<circle cx="808.45" cy="300.10" r="1.6666666666666667" />
<circle cx="808.69" cy="307.66" r="1.6666666666666667" />
<circle cx="808.93" cy="311.75" r="1.6666666666666667" />
<circle cx="809.18" cy="308.26" r="1.6666666666666667" />
<circle cx="809.42" cy="308.61" r="1.6666666666666667" />
<circle cx="809.65" cy="304.00" r="1.6666666666666667" />
<circle cx="809.89" cy="302.44" r="1.6666666666666667" />
<circle cx="810.13" cy="307.49" r="1.6666666666666667" />
<circle cx="810.36" cy="304.39" r="1.6666666666666667" />
<circle cx="810.60" cy="306.43" r="1.6666666666666667" />
<circle cx="810.85" cy="311.90" r="1.6666666666666667" />
<circle cx="811.09" cy="310.63" r="1.6666666666666667" />
<circle cx="811.32" cy="298.83" r="1.6666666666666667" />
<circle cx="811.55" cy="302.69" r="1.6666666666666667" />
<circle cx="811.79" cy="300.01" r="1.6666666666666667" />
<circle cx="812.03" cy="310.59" r="1.6666666666666667" />
<circle cx="812.27" cy="306.45" r="1.6666666666666667" />
<circle cx="812.51" cy="311.75" r="1.6666666666666667" />
<circle cx="812.76" cy="317.33" r="1.6666666666666667" />
<circle cx="813.00" cy="303.16" r="1.6666666666666667" />
<circle cx="813.23" cy="302.73" r="1.6666666666666667" />
<circle cx="813.47" cy="310.24" r="1.6666666666666667" />
<circle cx="813.72" cy="311.30" r="1.6666666666666667" />
<circle cx="813.96" cy="309.26" r="1.6666666666666667" />
<circle cx="814.21" cy="316.83" r="1.6666666666666667" />
<circle cx="814.46" cy="313.87" r="1.6666666666666667" />
<circle cx="814.70" cy="311.32" r="1.6666666666666667" />
<circle cx="814.94" cy="307.83" r="1.6666666666666667" />
<circle cx="815.18" cy="309.58" r="1.6666666666666667" />
<circle cx="815.43" cy="312.73" r="1.6666666666666667" />
<circle cx="815.67" cy="311.48" r="1.6666666666666667" />
<circle cx="815.92" cy="315.89" r="1.6666666666666667" />
<circle cx="816.17" cy="317.23" r="1.6666666666666667" />
<circle cx="816.41" cy="308.67" r="1.6666666666666667" />
<circle cx="816.65" cy="310.28" r="1.6666666666666667" />
<circle cx="816.89" cy="309.12" r="1.6666666666666667" />
<circle cx="817.13" cy="306.95" r="1.6666666666666667" />
<circle cx="817.37" cy="306.91" r="1.6666666666666667" />
<circle cx="817.62" cy="314.28" r="1.6666666666666667" />
<circle cx="817.87" cy="319.16" r="1.6666666666666667" />
<circle cx="818.12" cy="310.22" r="1.6666666666666667" />
<circle cx="818.36" cy="315.68" r="1.6666666666666667" />
<circle cx="818.61" cy="315.88" r="1.6666666666666667" />
<circle cx="818.87" cy="327.14" r="1.6666666666666667" />
<circle cx="819.13" cy="323.09" r="1.6666666666666667" />
<circle cx="819.40" cy="328.23" r="1.6666666666666667" />
<circle cx="819.66" cy="326.46" r="1.6666666666666667" />
<circle cx="819.91" cy="320.35" r="1.6666666666666667" />
<circle cx="820.17" cy="324.33" r="1.6666666666666667" />
<circle cx="820.43" cy="322.42" r="1.6666666666666667" />
<circle cx="820.68" cy="322.37" r="1.6666666666666667" />
<circle cx="820.93" cy="318.02" r="1.6666666666666667" />
<circle cx="821.20" cy="326.86" r="1.6666666666666667" />
<circle cx="821.45" cy="320.45" r="1.6666666666666667" />
<circle cx="821.70" cy="316.19" r="1.6666666666666667" />
<circle cx="821.95" cy="314.45" r="1.6666666666666667" />
<circle cx="822.19" cy="314.67" r="1.6666666666666667" />
<circle cx="822.46" cy="326.13" r="1.6666666666666667" />
<circle cx="822.72" cy="326.57" r="1.6666666666666667" />
<circle cx="823.48" cy="463.57" r="1.6666666666666667" />
<circle cx="823.74" cy="321.05" r="1.6666666666666667" />
<circle cx="823.99" cy="318.95" r="1.6666666666666667" />
<circle cx="824.25" cy="321.75" r="1.6666666666666667" />
<circle cx="824.50" cy="319.80" r="1.6666666666666667" />
<circle cx="824.77" cy="329.30" r="1.6666666666666667" />
<circle cx="825.01" cy="312.83" r="1.6666666666666667" />
<circle cx="825.26" cy="318.90" r="1.6666666666666667" />
<circle cx="825.53" cy="328.19" r="1.6666666666666667" />
<circle cx="825.78" cy="321.02" r="1.6666666666666667" />
<circle cx="826.04" cy="324.78" r="1.6666666666666667" />
<circle cx="826.30" cy="323.97" r="1.6666666666666667" />
<circle cx="826.57" cy="334.32" r="1.6666666666666667" />
<circle cx="826.82" cy="316.28" r="1.6666666666666667" />
<circle cx="827.08" cy="323.24" r="1.6666666666666667" />
<circle cx="827.34" cy="328.85" r="1.6666666666666667" />
<circle cx="827.60" cy="321.62" r="1.6666666666666667" />
<circle cx="827.86" cy="327.23" r="1.6666666666666667" />
<circle cx="828.12" cy="323.01" r="1.6666666666666667" />
<circle cx="828.38" cy="323.66" r="1.6666666666666667" />
<circle cx="828.63" cy="322.34" r="1.6666666666666667" />
<circle cx="828.88" cy="317.83" r="1.6666666666666667" />
<circle cx="829.15" cy="327.30" r="1.6666666666666667" />
<circle cx="829.40" cy="321.12" r="1.6666666666666667" />
<circle cx="829.67" cy="331.97" r="1.6666666666666667" />
<circle cx="829.94" cy="332.65" r="1.6666666666666667" />
<circle cx="830.21" cy="332.58" r="1.6666666666666667" />
<circle cx="830.48" cy="330.90" r="1.6666666666666667" />
<circle cx="830.74" cy="331.58" r="1.6666666666666667" />
<circle cx="831.02" cy="334.63" r="1.6666666666666667" />
<circle cx="831.28" cy="332.18" r="1.6666666666666667" />
<circle cx="831.55" cy="327.77" r="1.6666666666666667" />
<circle cx="831.82" cy="333.58" r="1.6666666666666667" />
<circle cx="832.09" cy="331.28" r="1.6666666666666667" />
<circle cx="832.35" cy="332.12" r="1.6666666666666667" />
<circle cx="832.63" cy="333.56" r="1.6666666666666667" />
<circle cx="832.89" cy="332.28" r="1.6666666666666667" />
<circle cx="833.17" cy="334.99" r="1.6666666666666667" />
<circle cx="833.44" cy="334.83" r="1.6666666666666667" />
<circle cx="833.70" cy="328.67" r="1.6666666666666667" />
<circle cx="833.97" cy="330.11" r="1.6666666666666667" />
<circle cx="834.25" cy="339.72" r="1.6666666666666667" />
<circle cx="834.52" cy="333.02" r="1.6666666666666667" />
<circle cx="834.80" cy="339.83" r="1.6666666666666667" />
<circle cx="835.07" cy="334.61" r="1.6666666666666667" />
<circle cx="835.34" cy="331.23" r="1.6666666666666667" />
<circle cx="835.60" cy="326.37" r="1.6666666666666667" />
<circle cx="835.87" cy="334.65" r="1.6666666666666667" />
<circle cx="836.14" cy="333.95" r="1.6666666666666667" />
<circle cx="836.41" cy="332.65" r="1.6666666666666667" />
<circle cx="836.69" cy="338.25" r="1.6666666666666667" />
<circle cx="836.96" cy="336.23" r="1.6666666666666667" />
<circle cx="837.23" cy="330.73" r="1.6666666666666667" />
<circle cx="837.50" cy="334.36" r="1.6666666666666667" />
<circle cx="837.78" cy="336.44" r="1.6666666666666667" />
<circle cx="838.05" cy="335.61" r="1.6666666666666667" />
<circle cx="838.33" cy="339.83" r="1.6666666666666667" />
<circle cx="838.60" cy="335.41" r="1.6666666666666667" />
<circle cx="838.88" cy="335.13" r="1.6666666666666667" />
<circle cx="839.16" cy="343.75" r="1.6666666666666667" />
<circle cx="839.45" cy="346.74" r="1.6666666666666667" />
<circle cx="839.73" cy="341.19" r="1.6666666666666667" />
<circle cx="840.02" cy="344.11" r="1.6666666666666667" />
<circle cx="840.31" cy="344.37" r="1.6666666666666667" />
<circle cx="840.59" cy="341.97" r="1.6666666666666667" />
<circle cx="840.88" cy="346.69" r="1.6666666666666667" />
<circle cx="841.17" cy="346.87" r="1.6666666666666667" />
<circle cx="841.45" cy="341.98" r="1.6666666666666667" />
<circle cx="841.74" cy="346.24" r="1.6666666666666667" />
<circle cx="842.03" cy="345.92" r="1.6666666666666667" />
<circle cx="842.32" cy="346.15" r="1.6666666666666667" />
<circle cx="842.60" cy="343.19" r="1.6666666666666667" />
<circle cx="842.90" cy="350.09" r="1.6666666666666667" />
<circle cx="843.19" cy="346.76" r="1.6666666666666667" />
<circle cx="843.48" cy="349.03" r="1.6666666666666667" />
<circle cx="843.78" cy="353.63" r="1.6666666666666667" />
<circle cx="844.07" cy="345.03" r="1.6666666666666667" />
<circle cx="844.36" cy="347.98" r="1.6666666666666667" />
<circle cx="844.66" cy="352.42" r="1.6666666666666667" />
<circle cx="844.95" cy="346.74" r="1.6666666666666667" />
<circle cx="845.24" cy="350.35" r="1.6666666666666667" />
<circle cx="845.54" cy="350.28" r="1.6666666666666667" />
<circle cx="845.83" cy="350.68" r="1.6666666666666667" />
<circle cx="846.14" cy="357.20" r="1.6666666666666667" />
<circle cx="846.43" cy="348.94" r="1.6666666666666667" />
<circle cx="846.72" cy="348.02" r="1.6666666666666667" />
<circle cx="847.03" cy="353.45" r="1.6666666666666667" />
<circle cx="847.32" cy="350.61" r="1.6666666666666667" />
<circle cx="847.61" cy="347.23" r="1.6666666666666667" />
<circle cx="847.91" cy="351.29" r="1.6666666666666667" />
<circle cx="848.21" cy="352.41" r="1.6666666666666667" />
<circle cx="848.49" cy="343.99" r="1.6666666666666667" />
<circle cx="848.79" cy="354.50" r="1.6666666666666667" />
<circle cx="849.09" cy="350.00" r="1.6666666666666667" />
<circle cx="849.39" cy="355.40" r="1.6666666666666667" />
<circle cx="849.69" cy="353.65" r="1.6666666666666667" />
<circle cx="850.00" cy="356.58" r="1.6666666666666667" />
</g>
<g stroke="black">
<line x1="283.31" x2="283.31" y1="510.00" y2="520.00" />
<line x1="481.82" x2="481.82" y1="510.00" y2="520.00" />
<line x1="680.34" x2="680.34" y1="510.00" y2="520.00" />
<g fill="black" font-family="Arial, sans-serif" font-size="18.0" stroke="none" text-anchor="start" transform="translate(9.0 0.0)">
<text x="283.31" y="530.57">28Mar'23</text>
<text x="481.82" y="530.57">22Jul'23</text>
<text x="680.34" y="530.57">14Nov'23</text>
</g>
<line x1="150.00" x2="850.00" y1="510.00" y2="510.00" />
</g>
<g stroke="black">
<line x1="150.00" x2="140.00" y1="217.36" y2="217.36" />
<g fill="black" font-family="Arial, sans-serif" font-size="18.0" stroke="none" text-anchor="end">
<text x="141.00" y="208.36">10</text>
</g>
<line x1="150.00" x2="150.00" y1="510.00" y2="90.00" />
</g>
</g>
</svg>