<?xml version="1.0"?>
<svg version="1.1" viewBox="0 0 1000 600" xmlns:xlink="http://www.w3.org/1999/xlink" xmlns="http://www.w3.org/2000/svg">
<g>
<g>
<g>
<text dominant-baseline="hanging" dx="-18.0" dy="18.0" fill="#0088" font-family="Arial, sans-serif" font-size="18.0" font-style="italic" stroke="none" text-anchor="end" text-orientation="sideways" x="950.00" y="30.00">d18O</text>
</g>
<g>
<g>
<text dominant-baseline="central" fill="#8008" font-size="26.666666666666668" stroke="none" text-anchor="middle" tooltip="Vial    
Date: 2023-09-29
Comment: Note:
- Raplacing raing gauge `:RG04` (see pics)
- No water collected?" x="529.72" y="189.91">I</text>
<title>Vial    
Date: 2023-09-29
Comment: Note:
- Raplacing raing gauge `:RG04` (see pics)
- No water collected?</title>
</g>
<g>
<text dominant-baseline="central" fill="#8008" font-size="26.666666666666668" stroke="none" text-anchor="middle" tooltip="Vial    :ASNN
Date: 2023-11-03
Comment: " vial="ASNN" x="593.71" y="189.91">A</text>
<title>Vial    :ASNN
Date: 2023-11-03
Comment: </title>
</g>
<g>
<text dominant-baseline="central" fill="#8008" font-size="26.666666666666668" stroke="none" text-anchor="middle" tooltip="Vial    :AKXF
Date: 2023-11-21
Comment: " vial="AKXF" x="626.62" y="189.91">A</text>
<title>Vial    :AKXF
Date: 2023-11-21
Comment: </title>
</g>
<g>
<text dominant-baseline="central" fill="#8008" font-size="26.666666666666668" stroke="none" text-anchor="middle" tooltip="Vial    :AQLK
Date: 2023-12-12
Comment: " vial="AQLK" x="665.01" y="189.91">A</text>
<title>Vial    :AQLK
Date: 2023-12-12
Comment: </title>
</g>
<g>
<text dominant-baseline="central" fill="#8008" font-size="26.666666666666668" stroke="none" text-anchor="middle" tooltip="Vial    :ABER
Date: 2023-12-23
Comment: " vial="ABER" x="685.12" y="189.91">A</text>
<title>Vial    :ABER
Date: 2023-12-23
Comment: </title>
</g>
<g>
<text dominant-baseline="central" fill="#8008" font-size="26.666666666666668" stroke="none" text-anchor="middle" tooltip="Vial    :ATEJ
Date: 2024-01-04
Comment: " vial="ATEJ" x="707.05" y="189.91">A</text>
<title>Vial    :ATEJ
Date: 2024-01-04
Comment: </title>
</g>
<g>
<text dominant-baseline="central" fill="#8008" font-size="26.666666666666668" stroke="none" text-anchor="middle" tooltip="Vial    :AVNL
Date: 2024-01-21
Comment: " vial="AVNL" x="738.13" y="189.91">A</text>
<title>Vial    :AVNL
Date: 2024-01-21
Comment: </title>
</g>
<g>
<text dominant-baseline="central" fill="#8008" font-size="26.666666666666668" stroke="none" text-anchor="middle" tooltip="Vial    :AFBW
Date: 2024-02-06
Comment: " vial="AFBW" x="767.38" y="189.91">A</text>
<title>Vial    :AFBW
Date: 2024-02-06
Comment: </title>
</g>
<g>
<text dominant-baseline="central" fill="#8008" font-size="26.666666666666668" stroke="none" text-anchor="middle" tooltip="Vial    :AWKN
Date: 2024-02-22
Comment: " vial="AWKN" x="796.63" y="189.91">A</text>
<title>Vial    :AWKN
Date: 2024-02-22
Comment: </title>
</g>
<g>
<text dominant-baseline="central" fill="#8008" font-size="26.666666666666668" stroke="none" text-anchor="middle" tooltip="Vial    :AXHS
Date: 2024-03-07
Comment: " vial="AXHS" x="822.23" y="189.91">A</text>
<title>Vial    :AXHS
Date: 2024-03-07
Comment: </title>
</g>
<g>
<text dominant-baseline="central" fill="#8008" font-size="26.666666666666668" stroke="none" text-anchor="middle" tooltip="Vial    :AZAJ
Date: 2024-03-29
Comment: " vial="AZAJ" x="862.45" y="189.91">A</text>
<title>Vial    :AZAJ
Date: 2024-03-29
Comment: </title>
</g>
<g>
<text dominant-baseline="central" fill="#8008" font-size="26.666666666666668" stroke="none" text-anchor="middle" tooltip="Vial    :AHPD
Date: 2024-04-16
Comment: " vial="AHPD" x="895.35" y="189.91">A</text>
<title>Vial    :AHPD
Date: 2024-04-16
Comment: </title>
</g>
<g>
<text dominant-baseline="central" fill="#8008" font-size="26.666666666666668" stroke="none" text-anchor="middle" tooltip="Vial    :AZUG
Date: 2024-04-27
Comment: " vial="AZUG" x="915.46" y="189.91">A</text>
<title>Vial    :AZUG
Date: 2024-04-27
Comment: </title>
</g>
</g>
<polyline fill="none" points="569.94,343.38 540.69,348.05" stroke-dasharray="3.6 3.6" stroke-width="3.6" stroke="#0804" />
<polyline fill="none" points="513.27,332.57 484.02,336.58 458.43,316.15 423.69,314.20 399.93,329.95 372.50,321.11 356.05,321.45 330.46,319.61 306.69,247.84 282.92,325.39 266.47,315.80 242.70,305.51 218.94,310.49 202.49,328.78 184.20,321.50 165.92,323.65 140.33,323.47 125.70,326.72 78.17,324.38" stroke-dasharray="3.6 3.6" stroke-width="3.6" stroke="#0804" />
<g>
<g>
<circle cx="78.17" cy="324.38" fill="#0088" r="3.3333333333333335" stroke="#0088" tooltip="Vial    :AWHM
Date: 2023-01-25
Comment: " vial="AWHM" />
<title>Vial    :AWHM
Date: 2023-01-25
Comment: </title>
</g>
<g>
<circle cx="125.70" cy="326.72" fill="#0088" r="3.3333333333333335" stroke="#0088" tooltip="Vial    :AZAX
Date: 2023-02-20
Comment: " vial="AZAX" />
<title>Vial    :AZAX
Date: 2023-02-20
Comment: </title>
</g>
<g>
<circle cx="140.33" cy="323.47" fill="#0088" r="3.3333333333333335" stroke="#0088" tooltip="Vial    :AAVS
Date: 2023-02-28
Comment: " vial="AAVS" />
<title>Vial    :AAVS
Date: 2023-02-28
Comment: </title>
</g>
<g>
<circle cx="165.92" cy="323.65" fill="#0088" r="3.3333333333333335" stroke="#0088" tooltip="Vial    :AWZS
Date: 2023-03-14
Comment: " vial="AWZS" />
<title>Vial    :AWZS
Date: 2023-03-14
Comment: </title>
</g>
<g>
<circle cx="184.20" cy="321.50" fill="#0088" r="3.3333333333333335" stroke="#0088" tooltip="Vial    :AGWT
Date: 2023-03-24
Comment: " vial="AGWT" />
<title>Vial    :AGWT
Date: 2023-03-24
Comment: </title>
</g>
<g>
<circle cx="202.49" cy="328.78" fill="#0088" r="3.3333333333333335" stroke="#0088" tooltip="Vial    :ACLW
Date: 2023-04-03
Comment: " vial="ACLW" />
<title>Vial    :ACLW
Date: 2023-04-03
Comment: </title>
</g>
<g>
<circle cx="218.94" cy="310.49" fill="#0088" r="3.3333333333333335" stroke="#0088" tooltip="Vial    :AAEM
Date: 2023-04-12
Comment: " vial="AAEM" />
<title>Vial    :AAEM
Date: 2023-04-12
Comment: </title>
</g>
<g>
<circle cx="242.70" cy="305.51" fill="#0088" r="3.3333333333333335" stroke="#0088" tooltip="Vial    :AQFK
Date: 2023-04-25
Comment: " vial="AQFK" />
<title>Vial    :AQFK
Date: 2023-04-25
Comment: </title>
</g>
<g>
<circle cx="266.47" cy="315.80" fill="#0088" r="3.3333333333333335" stroke="#0088" tooltip="Vial    :AFQH
Date: 2023-05-08
Comment: " vial="AFQH" />
<title>Vial    :AFQH
Date: 2023-05-08
Comment: </title>
</g>
<g>
<circle cx="282.92" cy="325.39" fill="#0088" r="3.3333333333333335" stroke="#0088" tooltip="Vial    :AYFP
Date: 2023-05-17
Comment: " vial="AYFP" />
<title>Vial    :AYFP
Date: 2023-05-17
Comment: </title>
</g>
<g>
<circle cx="306.69" cy="247.84" fill="#0088" r="3.3333333333333335" stroke="#0088" tooltip="Vial    :AQEX
Date: 2023-05-30
Comment: " vial="AQEX" />
<title>Vial    :AQEX
Date: 2023-05-30
Comment: </title>
</g>
<g>
<circle cx="330.46" cy="319.61" fill="#0088" r="3.3333333333333335" stroke="#0088" tooltip="Vial    :AWRW
Date: 2023-06-12
Comment: " vial="AWRW" />
<title>Vial    :AWRW
Date: 2023-06-12
Comment: </title>
</g>
<g>
<circle cx="356.05" cy="321.45" fill="#0088" r="3.3333333333333335" stroke="#0088" tooltip="Vial    :AJBL
Date: 2023-06-26
Comment: " vial="AJBL" />
<title>Vial    :AJBL
Date: 2023-06-26
Comment: </title>
</g>
<g>
<circle cx="372.50" cy="321.11" fill="#0088" r="3.3333333333333335" stroke="#0088" tooltip="Vial    :APKN
Date: 2023-07-05
Comment: " vial="APKN" />
<title>Vial    :APKN
Date: 2023-07-05
Comment: </title>
</g>
<g>
<circle cx="399.93" cy="329.95" fill="#0088" r="3.3333333333333335" stroke="#0088" tooltip="Vial    :AFBC
Date: 2023-07-20
Comment: " vial="AFBC" />
<title>Vial    :AFBC
Date: 2023-07-20
Comment: </title>
</g>
<g>
<circle cx="423.69" cy="314.20" fill="#0088" r="3.3333333333333335" stroke="#0088" tooltip="Vial    :AYER
Date: 2023-08-02
Comment: " vial="AYER" />
<title>Vial    :AYER
Date: 2023-08-02
Comment: </title>
</g>
<g>
<circle cx="458.43" cy="316.15" fill="#0088" r="3.3333333333333335" stroke="#0088" tooltip="Vial    :ADBM
Date: 2023-08-21
Comment: " vial="ADBM" />
<title>Vial    :ADBM
Date: 2023-08-21
Comment: </title>
</g>
<g>
<circle cx="484.02" cy="336.58" fill="#0088" r="3.3333333333333335" stroke="#0088" tooltip="Vial    :ARFP
Date: 2023-09-04
Comment: " vial="ARFP" />
<title>Vial    :ARFP
Date: 2023-09-04
Comment: </title>
</g>
<g>
<circle cx="513.27" cy="332.57" fill="#0088" r="3.3333333333333335" stroke="#0088" tooltip="Vial    :AHHT
Date: 2023-09-20
Comment: " vial="AHHT" />
<title>Vial    :AHHT
Date: 2023-09-20
Comment: </title>
</g>
<g>
<circle cx="540.69" cy="348.05" fill="#0088" r="3.3333333333333335" stroke="#0088" tooltip="Vial    :AUSZ
Date: 2023-10-05
Comment: Note:
- Transparent Lid/Cover replaced
- Now it&apos;s a narrower green funnel 
- Pics show bottle `:C` is attached
- Gauge confirmed to have no-num" vial="AUSZ" />
<title>Vial    :AUSZ
Date: 2023-10-05
Comment: Note:
- Transparent Lid/Cover replaced
- Now it's a narrower green funnel 
- Pics show bottle `:C` is attached
- Gauge confirmed to have no-num</title>
</g>
<g>
<circle cx="569.94" cy="343.38" fill="#0088" r="3.3333333333333335" stroke="#0088" tooltip="Vial    :AYNS
Date: 2023-10-21
Comment: " vial="AYNS" />
<title>Vial    :AYNS
Date: 2023-10-21
Comment: </title>
</g>
</g>
<g stroke="#0088">
<line x1="922.24" x2="922.24" y1="30.00" y2="30.00" />
<line x1="867.40" x2="867.40" y1="30.00" y2="30.00" />
<line x1="810.73" x2="810.73" y1="30.00" y2="30.00" />
<line x1="757.71" x2="757.71" y1="30.00" y2="30.00" />
<line x1="701.04" x2="701.04" y1="30.00" y2="30.00" />
<line x1="644.36" x2="644.36" y1="30.00" y2="30.00" />
<line x1="589.52" x2="589.52" y1="30.00" y2="30.00" />
<line x1="532.85" x2="532.85" y1="30.00" y2="30.00" />
<line x1="478.00" x2="478.00" y1="30.00" y2="30.00" />
<line x1="421.33" x2="421.33" y1="30.00" y2="30.00" />
<line x1="364.66" x2="364.66" y1="30.00" y2="30.00" />
<line x1="309.81" x2="309.81" y1="30.00" y2="30.00" />
<line x1="253.14" x2="253.14" y1="30.00" y2="30.00" />
<line x1="198.30" x2="198.30" y1="30.00" y2="30.00" />
<line x1="141.62" x2="141.62" y1="30.00" y2="30.00" />
<line x1="90.44" x2="90.44" y1="30.00" y2="30.00" />
<g fill="none" font-family="Arial, sans-serif" font-size="18.0" stroke="none" text-anchor="start" transform="translate(9.0 0.0)">
<text x="922.24" y="23.74">May</text>
<text x="867.40" y="23.74">Apr</text>
<text x="810.73" y="23.74">Mar</text>
<text x="757.71" y="23.74">Feb</text>
<text x="701.04" y="23.74">Jan</text>
<text x="644.36" y="23.74">Dec</text>
<text x="589.52" y="23.74">Nov</text>
<text x="532.85" y="23.74">Oct</text>
<text x="478.00" y="23.74">Sep</text>
<text x="421.33" y="23.74">Aug</text>
<text x="364.66" y="23.74">Jul</text>
<text x="309.81" y="23.74">Jun</text>
<text x="253.14" y="23.74">May</text>
<text x="198.30" y="23.74">Apr</text>
<text x="141.62" y="23.74">Mar</text>
<text x="90.44" y="23.74">Feb</text>
</g>
<line x1="50.00" x2="950.00" y1="30.00" y2="30.00" />
</g>
<g stroke="#0088">
<line x1="950.00" x2="962.00" y1="488.92" y2="488.92" />
<line x1="950.00" x2="962.00" y1="189.91" y2="189.91" />
<g fill="#0088" font-family="Arial, sans-serif" font-size="18.0" stroke="none" text-anchor="beginning">
<text x="959.00" y="479.92">-10</text>
<text x="959.00" y="180.91">0</text>
</g>
<line x1="950.00" x2="950.00" y1="570.00" y2="30.00" />
</g>
</g>
<g>
<g stroke-dasharray="3.6 7.2" stroke-width="0.72" stroke="#caa">
<line x1="922.24" x2="922.24" y1="570.00" y2="30.00" />
<line x1="867.40" x2="867.40" y1="570.00" y2="30.00" />
<line x1="810.73" x2="810.73" y1="570.00" y2="30.00" />
<line x1="757.71" x2="757.71" y1="570.00" y2="30.00" />
<line x1="701.04" x2="701.04" y1="570.00" y2="30.00" />
<line x1="644.36" x2="644.36" y1="570.00" y2="30.00" />
<line x1="589.52" x2="589.52" y1="570.00" y2="30.00" />
<line x1="532.85" x2="532.85" y1="570.00" y2="30.00" />
<line x1="478.00" x2="478.00" y1="570.00" y2="30.00" />
<line x1="421.33" x2="421.33" y1="570.00" y2="30.00" />
<line x1="364.66" x2="364.66" y1="570.00" y2="30.00" />
<line x1="309.81" x2="309.81" y1="570.00" y2="30.00" />
<line x1="253.14" x2="253.14" y1="570.00" y2="30.00" />
<line x1="198.30" x2="198.30" y1="570.00" y2="30.00" />
<line x1="141.62" x2="141.62" y1="570.00" y2="30.00" />
<line x1="90.44" x2="90.44" y1="570.00" y2="30.00" />
<line x1="50.00" x2="950.00" y1="570.00" y2="570.00" />
<line x1="50.00" x2="950.00" y1="192.38" y2="192.38" />
</g>
<g>
<text dominant-baseline="hanging" dx="-36.0" dy="18.0" fill="#0004" font-family="Arial, sans-serif" font-size="36" stroke="none" text-anchor="end" x="950.00" y="79.09">ThMuCH2Sh02PairTall</text>
</g>
<g>
<text dominant-baseline="text-bottom" dy="-12.0" fill="black" font-family="Arial, sans-serif" font-size="18.0" font-style="italic" stroke="none" text-anchor="middle" x="500.00" y="30.00">Years 2023 to 2024</text>
</g>
<g>
<text dominant-baseline="hanging" dx="18.0" dy="18.0" fill="black" font-family="Arial, sans-serif" font-size="18.0" font-style="italic" stroke="none" text-anchor="beginning" text-orientation="sideways" x="50.00" y="30.00">log(Drips per day)</text>
</g>
<polyline fill="none" points="50.62,508.66 50.98,508.68 51.34,508.55 51.70,508.53 52.07,509.63 52.43,508.70 52.78,507.62 53.12,506.14 53.47,508.29 53.83,508.90 54.20,508.87 54.55,508.04 54.91,509.00 55.27,508.47 55.64,509.16 56.00,508.60 56.35,508.16 56.72,509.36 57.08,508.39 57.44,508.80 57.79,508.17 58.16,509.55 58.53,508.88 58.89,508.73 59.27,510.57 59.64,509.93 59.99,507.47 60.37,510.53 60.73,509.41 61.09,508.56 61.46,508.93 61.80,507.42 62.16,508.21 62.51,507.83 62.90,511.29 63.27,509.86 63.64,509.61 64.01,510.14 64.38,509.40 64.76,510.53 65.12,508.93 65.47,507.24 65.83,508.22 66.19,509.11 66.56,509.20 66.91,508.24 67.27,508.76 67.64,509.48 68.00,508.06 68.36,509.02 68.73,509.36 69.09,509.07 69.46,509.49 69.83,509.56 70.20,510.09 70.58,510.08 70.95,510.50 71.35,511.87 71.72,510.05 72.09,509.34 72.48,511.89 72.85,509.90 73.23,510.79 73.60,509.23 73.97,510.22 74.35,510.64 74.72,509.55 75.10,510.17 80.42,511.50 80.80,510.75 81.19,511.55 81.58,511.37 81.96,510.92 82.35,511.77 82.74,511.53 83.14,512.70 83.55,513.63 83.94,511.38 84.33,511.80 84.74,513.52 85.16,514.04 85.55,512.14 85.93,510.73 86.32,511.64 86.70,510.83 87.09,511.52 87.50,513.14 87.88,511.32 88.28,512.17 88.68,512.18 89.07,512.40 89.48,513.06 89.88,512.81 90.28,512.28 90.68,513.08 91.08,512.24 91.48,512.67 685.55,201.54 685.55,193.12 685.55,140.77 685.56,227.72" stroke-dasharray="3.6 3.6" stroke-width="3.6" stroke="none" />
<g>
<circle cx="50.62" cy="508.66" fill="#0002" r="1.6666666666666667" stroke="none" />
<circle cx="50.98" cy="508.68" fill="#0002" r="1.6666666666666667" stroke="none" />
<circle cx="51.34" cy="508.55" fill="#0002" r="1.6666666666666667" stroke="none" />
<circle cx="51.70" cy="508.53" fill="#0002" r="1.6666666666666667" stroke="none" />
<circle cx="52.07" cy="509.63" fill="#0002" r="1.6666666666666667" stroke="none" />
<circle cx="52.43" cy="508.70" fill="#0002" r="1.6666666666666667" stroke="none" />
<circle cx="52.78" cy="507.62" fill="#0002" r="1.6666666666666667" stroke="none" />
<circle cx="53.12" cy="506.14" fill="#0002" r="1.6666666666666667" stroke="none" />
<circle cx="53.47" cy="508.29" fill="#0002" r="1.6666666666666667" stroke="none" />
<circle cx="53.83" cy="508.90" fill="#0002" r="1.6666666666666667" stroke="none" />
<circle cx="54.20" cy="508.87" fill="#0002" r="1.6666666666666667" stroke="none" />
<circle cx="54.55" cy="508.04" fill="#0002" r="1.6666666666666667" stroke="none" />
<circle cx="54.91" cy="509.00" fill="#0002" r="1.6666666666666667" stroke="none" />
<circle cx="55.27" cy="508.47" fill="#0002" r="1.6666666666666667" stroke="none" />
<circle cx="55.64" cy="509.16" fill="#0002" r="1.6666666666666667" stroke="none" />
<circle cx="56.00" cy="508.60" fill="#0002" r="1.6666666666666667" stroke="none" />
<circle cx="56.35" cy="508.16" fill="#0002" r="1.6666666666666667" stroke="none" />
<circle cx="56.72" cy="509.36" fill="#0002" r="1.6666666666666667" stroke="none" />
<circle cx="57.08" cy="508.39" fill="#0002" r="1.6666666666666667" stroke="none" />
<circle cx="57.44" cy="508.80" fill="#0002" r="1.6666666666666667" stroke="none" />
<circle cx="57.79" cy="508.17" fill="#0002" r="1.6666666666666667" stroke="none" />
<circle cx="58.16" cy="509.55" fill="#0002" r="1.6666666666666667" stroke="none" />
<circle cx="58.53" cy="508.88" fill="#0002" r="1.6666666666666667" stroke="none" />
<circle cx="58.89" cy="508.73" fill="#0002" r="1.6666666666666667" stroke="none" />
<circle cx="59.27" cy="510.57" fill="#0002" r="1.6666666666666667" stroke="none" />
<circle cx="59.64" cy="509.93" fill="#0002" r="1.6666666666666667" stroke="none" />
<circle cx="59.99" cy="507.47" fill="#0002" r="1.6666666666666667" stroke="none" />
<circle cx="60.37" cy="510.53" fill="#0002" r="1.6666666666666667" stroke="none" />
<circle cx="60.73" cy="509.41" fill="#0002" r="1.6666666666666667" stroke="none" />
<circle cx="61.09" cy="508.56" fill="#0002" r="1.6666666666666667" stroke="none" />
<circle cx="61.46" cy="508.93" fill="#0002" r="1.6666666666666667" stroke="none" />
<circle cx="61.80" cy="507.42" fill="#0002" r="1.6666666666666667" stroke="none" />
<circle cx="62.16" cy="508.21" fill="#0002" r="1.6666666666666667" stroke="none" />
<circle cx="62.51" cy="507.83" fill="#0002" r="1.6666666666666667" stroke="none" />
<circle cx="62.90" cy="511.29" fill="#0002" r="1.6666666666666667" stroke="none" />
<circle cx="63.27" cy="509.86" fill="#0002" r="1.6666666666666667" stroke="none" />
<circle cx="63.64" cy="509.61" fill="#0002" r="1.6666666666666667" stroke="none" />
<circle cx="64.01" cy="510.14" fill="#0002" r="1.6666666666666667" stroke="none" />
<circle cx="64.38" cy="509.40" fill="#0002" r="1.6666666666666667" stroke="none" />
<circle cx="64.76" cy="510.53" fill="#0002" r="1.6666666666666667" stroke="none" />
<circle cx="65.12" cy="508.93" fill="#0002" r="1.6666666666666667" stroke="none" />
<circle cx="65.47" cy="507.24" fill="#0002" r="1.6666666666666667" stroke="none" />
<circle cx="65.83" cy="508.22" fill="#0002" r="1.6666666666666667" stroke="none" />
<circle cx="66.19" cy="509.11" fill="#0002" r="1.6666666666666667" stroke="none" />
<circle cx="66.56" cy="509.20" fill="#0002" r="1.6666666666666667" stroke="none" />
<circle cx="66.91" cy="508.24" fill="#0002" r="1.6666666666666667" stroke="none" />
<circle cx="67.27" cy="508.76" fill="#0002" r="1.6666666666666667" stroke="none" />
<circle cx="67.64" cy="509.48" fill="#0002" r="1.6666666666666667" stroke="none" />
<circle cx="68.00" cy="508.06" fill="#0002" r="1.6666666666666667" stroke="none" />
<circle cx="68.36" cy="509.02" fill="#0002" r="1.6666666666666667" stroke="none" />
<circle cx="68.73" cy="509.36" fill="#0002" r="1.6666666666666667" stroke="none" />
<circle cx="69.09" cy="509.07" fill="#0002" r="1.6666666666666667" stroke="none" />
<circle cx="69.46" cy="509.49" fill="#0002" r="1.6666666666666667" stroke="none" />
<circle cx="69.83" cy="509.56" fill="#0002" r="1.6666666666666667" stroke="none" />
<circle cx="70.20" cy="510.09" fill="#0002" r="1.6666666666666667" stroke="none" />
<circle cx="70.58" cy="510.08" fill="#0002" r="1.6666666666666667" stroke="none" />
<circle cx="70.95" cy="510.50" fill="#0002" r="1.6666666666666667" stroke="none" />
<circle cx="71.35" cy="511.87" fill="#0002" r="1.6666666666666667" stroke="none" />
<circle cx="71.72" cy="510.05" fill="#0002" r="1.6666666666666667" stroke="none" />
<circle cx="72.09" cy="509.34" fill="#0002" r="1.6666666666666667" stroke="none" />
<circle cx="72.48" cy="511.89" fill="#0002" r="1.6666666666666667" stroke="none" />
<circle cx="72.85" cy="509.90" fill="#0002" r="1.6666666666666667" stroke="none" />
<circle cx="73.23" cy="510.79" fill="#0002" r="1.6666666666666667" stroke="none" />
<circle cx="73.60" cy="509.23" fill="#0002" r="1.6666666666666667" stroke="none" />
<circle cx="73.97" cy="510.22" fill="#0002" r="1.6666666666666667" stroke="none" />
<circle cx="74.35" cy="510.64" fill="#0002" r="1.6666666666666667" stroke="none" />
<circle cx="74.72" cy="509.55" fill="#0002" r="1.6666666666666667" stroke="none" />
<circle cx="75.10" cy="510.17" fill="#0002" r="1.6666666666666667" stroke="none" />
<circle cx="80.42" cy="511.50" fill="#0002" r="1.6666666666666667" stroke="none" />
<circle cx="80.80" cy="510.75" fill="#0002" r="1.6666666666666667" stroke="none" />
<circle cx="81.19" cy="511.55" fill="#0002" r="1.6666666666666667" stroke="none" />
<circle cx="81.58" cy="511.37" fill="#0002" r="1.6666666666666667" stroke="none" />
<circle cx="81.96" cy="510.92" fill="#0002" r="1.6666666666666667" stroke="none" />
<circle cx="82.35" cy="511.77" fill="#0002" r="1.6666666666666667" stroke="none" />
<circle cx="82.74" cy="511.53" fill="#0002" r="1.6666666666666667" stroke="none" />
<circle cx="83.14" cy="512.70" fill="#0002" r="1.6666666666666667" stroke="none" />
<circle cx="83.55" cy="513.63" fill="#0002" r="1.6666666666666667" stroke="none" />
<circle cx="83.94" cy="511.38" fill="#0002" r="1.6666666666666667" stroke="none" />
<circle cx="84.33" cy="511.80" fill="#0002" r="1.6666666666666667" stroke="none" />
<circle cx="84.74" cy="513.52" fill="#0002" r="1.6666666666666667" stroke="none" />
<circle cx="85.16" cy="514.04" fill="#0002" r="1.6666666666666667" stroke="none" />
<circle cx="85.55" cy="512.14" fill="#0002" r="1.6666666666666667" stroke="none" />
<circle cx="85.93" cy="510.73" fill="#0002" r="1.6666666666666667" stroke="none" />
<circle cx="86.32" cy="511.64" fill="#0002" r="1.6666666666666667" stroke="none" />
<circle cx="86.70" cy="510.83" fill="#0002" r="1.6666666666666667" stroke="none" />
<circle cx="87.09" cy="511.52" fill="#0002" r="1.6666666666666667" stroke="none" />
<circle cx="87.50" cy="513.14" fill="#0002" r="1.6666666666666667" stroke="none" />
<circle cx="87.88" cy="511.32" fill="#0002" r="1.6666666666666667" stroke="none" />
<circle cx="88.28" cy="512.17" fill="#0002" r="1.6666666666666667" stroke="none" />
<circle cx="88.68" cy="512.18" fill="#0002" r="1.6666666666666667" stroke="none" />
<circle cx="89.07" cy="512.40" fill="#0002" r="1.6666666666666667" stroke="none" />
<circle cx="89.48" cy="513.06" fill="#0002" r="1.6666666666666667" stroke="none" />
<circle cx="89.88" cy="512.81" fill="#0002" r="1.6666666666666667" stroke="none" />
<circle cx="90.28" cy="512.28" fill="#0002" r="1.6666666666666667" stroke="none" />
<circle cx="90.68" cy="513.08" fill="#0002" r="1.6666666666666667" stroke="none" />
<circle cx="91.08" cy="512.24" fill="#0002" r="1.6666666666666667" stroke="none" />
<circle cx="91.48" cy="512.67" fill="#0002" r="1.6666666666666667" stroke="none" />
<circle cx="685.55" cy="201.54" fill="#0002" r="1.6666666666666667" stroke="none" />
<circle cx="685.55" cy="193.12" fill="#0002" r="1.6666666666666667" stroke="none" />
<circle cx="685.55" cy="140.77" fill="#0002" r="1.6666666666666667" stroke="none" />
<circle cx="685.56" cy="227.72" fill="#0002" r="1.6666666666666667" stroke="none" />
</g>
<g stroke="black">
<line x1="922.24" x2="922.24" y1="570.00" y2="580.00" />
<line x1="867.40" x2="867.40" y1="570.00" y2="580.00" />
<line x1="810.73" x2="810.73" y1="570.00" y2="580.00" />
<line x1="757.71" x2="757.71" y1="570.00" y2="580.00" />
<line x1="701.04" x2="701.04" y1="570.00" y2="580.00" />
<line x1="644.36" x2="644.36" y1="570.00" y2="580.00" />
<line x1="589.52" x2="589.52" y1="570.00" y2="580.00" />
<line x1="532.85" x2="532.85" y1="570.00" y2="580.00" />
<line x1="478.00" x2="478.00" y1="570.00" y2="580.00" />
<line x1="421.33" x2="421.33" y1="570.00" y2="580.00" />
<line x1="364.66" x2="364.66" y1="570.00" y2="580.00" />
<line x1="309.81" x2="309.81" y1="570.00" y2="580.00" />
<line x1="253.14" x2="253.14" y1="570.00" y2="580.00" />
<line x1="198.30" x2="198.30" y1="570.00" y2="580.00" />
<line x1="141.62" x2="141.62" y1="570.00" y2="580.00" />
<line x1="90.44" x2="90.44" y1="570.00" y2="580.00" />
<g fill="black" font-family="Arial, sans-serif" font-size="18.0" stroke="none" text-anchor="start" transform="translate(9.0 0.0)">
<text x="922.24" y="590.57">May</text>
<text x="867.40" y="590.57">Apr</text>
<text x="810.73" y="590.57">Mar</text>
<text x="757.71" y="590.57">Feb</text>
<text x="701.04" y="590.57">Jan</text>
<text x="644.36" y="590.57">Dec</text>
<text x="589.52" y="590.57">Nov</text>
<text x="532.85" y="590.57">Oct</text>
<text x="478.00" y="590.57">Sep</text>
<text x="421.33" y="590.57">Aug</text>
<text x="364.66" y="590.57">Jul</text>
<text x="309.81" y="590.57">Jun</text>
<text x="253.14" y="590.57">May</text>
<text x="198.30" y="590.57">Apr</text>
<text x="141.62" y="590.57">Mar</text>
<text x="90.44" y="590.57">Feb</text>
</g>
<line x1="50.00" x2="950.00" y1="570.00" y2="570.00" />
</g>
<g stroke="black">
<line x1="50.00" x2="38.00" y1="570.00" y2="570.00" />
<line x1="50.00" x2="38.00" y1="192.38" y2="192.38" />
<g fill="black" font-family="Arial, sans-serif" font-size="18.0" stroke="none" text-anchor="end">
<text x="41.00" y="561.00">0</text>
<text x="41.00" y="183.38">10</text>
</g>
<line x1="50.00" x2="50.00" y1="570.00" y2="30.00" />
</g>
</g>
</g>
</svg>