<?xml version="1.0"?>
<svg version="1.1" viewBox="0 0 1000 600" xmlns:xlink="http://www.w3.org/1999/xlink" xmlns="http://www.w3.org/2000/svg">
<g>
<g stroke-dasharray="3.6 7.2" stroke-width="0.72" stroke="#caa">
<line x1="813.75" x2="813.75" y1="510.00" y2="90.00" />
<line x1="760.60" x2="760.60" y1="510.00" y2="90.00" />
<line x1="707.45" x2="707.45" y1="510.00" y2="90.00" />
<line x1="656.01" x2="656.01" y1="510.00" y2="90.00" />
<line x1="602.86" x2="602.86" y1="510.00" y2="90.00" />
<line x1="551.42" x2="551.42" y1="510.00" y2="90.00" />
<line x1="498.27" x2="498.27" y1="510.00" y2="90.00" />
<line x1="445.11" x2="445.11" y1="510.00" y2="90.00" />
<line x1="393.68" x2="393.68" y1="510.00" y2="90.00" />
<line x1="340.52" x2="340.52" y1="510.00" y2="90.00" />
<line x1="289.09" x2="289.09" y1="510.00" y2="90.00" />
<line x1="235.93" x2="235.93" y1="510.00" y2="90.00" />
<line x1="187.92" x2="187.92" y1="510.00" y2="90.00" />
<line x1="150.00" x2="850.00" y1="510.00" y2="510.00" />
<line x1="150.00" x2="850.00" y1="319.09" y2="319.09" />
<line x1="150.00" x2="850.00" y1="128.18" y2="128.18" />
</g>
<g>
<text dominant-baseline="hanging" dx="-36.0" dy="18.0" fill="#0004" font-family="Arial, sans-serif" font-size="36" stroke="none" text-anchor="end" x="850.00" y="128.18">ThMuOutsideDrone</text>
</g>
<g>
<text dominant-baseline="text-bottom" dy="-12.0" fill="black" font-family="Arial, sans-serif" font-size="18.0" font-style="italic" stroke="none" text-anchor="middle" x="500.00" y="90.00">Days since start</text>
</g>
<g>
<text dominant-baseline="central" dx="12.0" dy="12.0" fill="black" font-family="Arial, sans-serif" font-size="18.0" font-style="italic" stroke="none" text-anchor="middle" text-orientation="sideways" writing-mode="vertical-lr" x="850.00" y="300.00">Drips per day</text>
</g>
<polyline fill="none" points="158.32,485.21 166.32,451.03 176.12,490.86 176.28,292.82 177.12,470.93 177.43,405.80 177.68,355.27 209.30,440.06 219.19,138.42 219.29,185.05 238.71,475.74 287.97,433.35 288.37,429.62 298.12,435.63 298.69,453.32 301.57,374.50 301.91,414.53 309.29,479.08 327.20,426.90 327.58,421.75 328.50,474.42 328.74,113.78 329.84,480.40 330.13,398.16 330.29,284.76 330.72,413.16 331.16,436.30 332.18,478.04 332.84,452.77 333.74,473.38 335.37,489.96 336.08,464.21 337.16,479.59 337.97,466.52 338.83,472.30 339.02,256.94 340.40,485.63 340.49,164.27 341.49,470.41 348.39,477.49 356.69,435.24 364.77,152.67 364.86,145.40 365.30,436.20 366.48,482.27 367.07,453.29 367.49,432.07 370.71,481.06 371.04,409.78 371.23,335.20 372.64,484.86 374.27,488.96 378.33,97.02 378.44,203.87 379.40,475.85 383.19,361.40 384.72,488.47 385.29,437.66 385.84,447.50 386.58,465.97 386.69,208.62 387.00,392.23 387.22,351.05 387.39,104.83 387.61,358.49 389.71,318.71 390.26,442.26 390.57,376.33 390.65,101.52 391.24,453.27 391.61,420.80 391.98,364.31 392.10,228.48 392.42,216.14 392.79,405.37 392.89,191.70 393.03,261.74 393.27,378.90 393.54,379.34 393.78,206.51 393.92,176.91 394.07,142.72 394.55,401.28 394.81,336.21 395.05,320.23 395.44,119.87 395.67,368.06 396.23,451.17 396.66,433.36 397.10,434.93 397.78,461.93 398.12,414.05 398.33,353.99 398.50,210.15 399.63,481.07 401.04,486.90 401.21,287.94 402.01,458.99 402.15,262.11 403.32,481.38 403.51,336.21 403.85,412.28 404.07,357.43 404.37,400.84 405.04,461.58 406.31,474.30 605.58,200.01 638.73,443.77 639.85,480.54 640.15,401.25 640.50,386.83 645.95,204.88 648.54,152.98 651.23,454.96 652.16,474.69 653.62,487.60 653.79,196.53 653.91,229.96 655.30,486.44 657.05,490.26 657.51,331.06 658.73,483.08 696.84,246.17 698.23,486.35 698.96,462.23 699.51,441.57 699.60,143.37 699.94,235.37 700.22,107.01 701.21,474.27 701.28,91.46 701.44,303.43 702.86,473.08 709.56,464.76 710.34,467.95 711.23,463.72 711.54,406.82 712.21,460.86 715.64,195.58 715.89,379.13 717.20,485.11 717.53,401.50 719.10,487.74 719.76,457.18 722.62,264.58 723.87,483.81 723.98,195.10 724.61,447.79 729.36,349.75 730.38,477.84 730.91,447.68 732.83,302.31 733.34,445.16 740.41,460.71 797.97,477.38 798.60,457.46 827.99,467.22 828.80,469.69 829.40,453.48" stroke-dasharray="3.6 3.6" stroke-width="3.6" stroke="#aaa" />
<g>
<circle cx="158.32" cy="485.21" r="1.6666666666666667" />
<circle cx="166.32" cy="451.03" r="1.6666666666666667" />
<circle cx="176.12" cy="490.86" r="1.6666666666666667" />
<circle cx="176.28" cy="292.82" r="1.6666666666666667" />
<circle cx="177.12" cy="470.93" r="1.6666666666666667" />
<circle cx="177.43" cy="405.80" r="1.6666666666666667" />
<circle cx="177.68" cy="355.27" r="1.6666666666666667" />
<circle cx="209.30" cy="440.06" r="1.6666666666666667" />
<circle cx="219.19" cy="138.42" r="1.6666666666666667" />
<circle cx="219.29" cy="185.05" r="1.6666666666666667" />
<circle cx="238.71" cy="475.74" r="1.6666666666666667" />
<circle cx="287.97" cy="433.35" r="1.6666666666666667" />
<circle cx="288.37" cy="429.62" r="1.6666666666666667" />
<circle cx="298.12" cy="435.63" r="1.6666666666666667" />
<circle cx="298.69" cy="453.32" r="1.6666666666666667" />
<circle cx="301.57" cy="374.50" r="1.6666666666666667" />
<circle cx="301.91" cy="414.53" r="1.6666666666666667" />
<circle cx="309.29" cy="479.08" r="1.6666666666666667" />
<circle cx="327.20" cy="426.90" r="1.6666666666666667" />
<circle cx="327.58" cy="421.75" r="1.6666666666666667" />
<circle cx="328.50" cy="474.42" r="1.6666666666666667" />
<circle cx="328.74" cy="113.78" r="1.6666666666666667" />
<circle cx="329.84" cy="480.40" r="1.6666666666666667" />
<circle cx="330.13" cy="398.16" r="1.6666666666666667" />
<circle cx="330.29" cy="284.76" r="1.6666666666666667" />
<circle cx="330.72" cy="413.16" r="1.6666666666666667" />
<circle cx="331.16" cy="436.30" r="1.6666666666666667" />
<circle cx="332.18" cy="478.04" r="1.6666666666666667" />
<circle cx="332.84" cy="452.77" r="1.6666666666666667" />
<circle cx="333.74" cy="473.38" r="1.6666666666666667" />
<circle cx="335.37" cy="489.96" r="1.6666666666666667" />
<circle cx="336.08" cy="464.21" r="1.6666666666666667" />
<circle cx="337.16" cy="479.59" r="1.6666666666666667" />
<circle cx="337.97" cy="466.52" r="1.6666666666666667" />
<circle cx="338.83" cy="472.30" r="1.6666666666666667" />
<circle cx="339.02" cy="256.94" r="1.6666666666666667" />
<circle cx="340.40" cy="485.63" r="1.6666666666666667" />
<circle cx="340.49" cy="164.27" r="1.6666666666666667" />
<circle cx="341.49" cy="470.41" r="1.6666666666666667" />
<circle cx="348.39" cy="477.49" r="1.6666666666666667" />
<circle cx="356.69" cy="435.24" r="1.6666666666666667" />
<circle cx="364.77" cy="152.67" r="1.6666666666666667" />
<circle cx="364.86" cy="145.40" r="1.6666666666666667" />
<circle cx="365.30" cy="436.20" r="1.6666666666666667" />
<circle cx="366.48" cy="482.27" r="1.6666666666666667" />
<circle cx="367.07" cy="453.29" r="1.6666666666666667" />
<circle cx="367.49" cy="432.07" r="1.6666666666666667" />
<circle cx="370.71" cy="481.06" r="1.6666666666666667" />
<circle cx="371.04" cy="409.78" r="1.6666666666666667" />
<circle cx="371.23" cy="335.20" r="1.6666666666666667" />
<circle cx="372.64" cy="484.86" r="1.6666666666666667" />
<circle cx="374.27" cy="488.96" r="1.6666666666666667" />
<circle cx="378.33" cy="97.02" r="1.6666666666666667" />
<circle cx="378.44" cy="203.87" r="1.6666666666666667" />
<circle cx="379.40" cy="475.85" r="1.6666666666666667" />
<circle cx="383.19" cy="361.40" r="1.6666666666666667" />
<circle cx="384.72" cy="488.47" r="1.6666666666666667" />
<circle cx="385.29" cy="437.66" r="1.6666666666666667" />
<circle cx="385.84" cy="447.50" r="1.6666666666666667" />
<circle cx="386.58" cy="465.97" r="1.6666666666666667" />
<circle cx="386.69" cy="208.62" r="1.6666666666666667" />
<circle cx="387.00" cy="392.23" r="1.6666666666666667" />
<circle cx="387.22" cy="351.05" r="1.6666666666666667" />
<circle cx="387.39" cy="104.83" r="1.6666666666666667" />
<circle cx="387.61" cy="358.49" r="1.6666666666666667" />
<circle cx="389.71" cy="318.71" r="1.6666666666666667" />
<circle cx="390.26" cy="442.26" r="1.6666666666666667" />
<circle cx="390.57" cy="376.33" r="1.6666666666666667" />
<circle cx="390.65" cy="101.52" r="1.6666666666666667" />
<circle cx="391.24" cy="453.27" r="1.6666666666666667" />
<circle cx="391.61" cy="420.80" r="1.6666666666666667" />
<circle cx="391.98" cy="364.31" r="1.6666666666666667" />
<circle cx="392.10" cy="228.48" r="1.6666666666666667" />
<circle cx="392.42" cy="216.14" r="1.6666666666666667" />
<circle cx="392.79" cy="405.37" r="1.6666666666666667" />
<circle cx="392.89" cy="191.70" r="1.6666666666666667" />
<circle cx="393.03" cy="261.74" r="1.6666666666666667" />
<circle cx="393.27" cy="378.90" r="1.6666666666666667" />
<circle cx="393.54" cy="379.34" r="1.6666666666666667" />
<circle cx="393.78" cy="206.51" r="1.6666666666666667" />
<circle cx="393.92" cy="176.91" r="1.6666666666666667" />
<circle cx="394.07" cy="142.72" r="1.6666666666666667" />
<circle cx="394.55" cy="401.28" r="1.6666666666666667" />
<circle cx="394.81" cy="336.21" r="1.6666666666666667" />
<circle cx="395.05" cy="320.23" r="1.6666666666666667" />
<circle cx="395.44" cy="119.87" r="1.6666666666666667" />
<circle cx="395.67" cy="368.06" r="1.6666666666666667" />
<circle cx="396.23" cy="451.17" r="1.6666666666666667" />
<circle cx="396.66" cy="433.36" r="1.6666666666666667" />
<circle cx="397.10" cy="434.93" r="1.6666666666666667" />
<circle cx="397.78" cy="461.93" r="1.6666666666666667" />
<circle cx="398.12" cy="414.05" r="1.6666666666666667" />
<circle cx="398.33" cy="353.99" r="1.6666666666666667" />
<circle cx="398.50" cy="210.15" r="1.6666666666666667" />
<circle cx="399.63" cy="481.07" r="1.6666666666666667" />
<circle cx="401.04" cy="486.90" r="1.6666666666666667" />
<circle cx="401.21" cy="287.94" r="1.6666666666666667" />
<circle cx="402.01" cy="458.99" r="1.6666666666666667" />
<circle cx="402.15" cy="262.11" r="1.6666666666666667" />
<circle cx="403.32" cy="481.38" r="1.6666666666666667" />
<circle cx="403.51" cy="336.21" r="1.6666666666666667" />
<circle cx="403.85" cy="412.28" r="1.6666666666666667" />
<circle cx="404.07" cy="357.43" r="1.6666666666666667" />
<circle cx="404.37" cy="400.84" r="1.6666666666666667" />
<circle cx="405.04" cy="461.58" r="1.6666666666666667" />
<circle cx="406.31" cy="474.30" r="1.6666666666666667" />
<circle cx="605.58" cy="200.01" r="1.6666666666666667" />
<circle cx="638.73" cy="443.77" r="1.6666666666666667" />
<circle cx="639.85" cy="480.54" r="1.6666666666666667" />
<circle cx="640.15" cy="401.25" r="1.6666666666666667" />
<circle cx="640.50" cy="386.83" r="1.6666666666666667" />
<circle cx="645.95" cy="204.88" r="1.6666666666666667" />
<circle cx="648.54" cy="152.98" r="1.6666666666666667" />
<circle cx="651.23" cy="454.96" r="1.6666666666666667" />
<circle cx="652.16" cy="474.69" r="1.6666666666666667" />
<circle cx="653.62" cy="487.60" r="1.6666666666666667" />
<circle cx="653.79" cy="196.53" r="1.6666666666666667" />
<circle cx="653.91" cy="229.96" r="1.6666666666666667" />
<circle cx="655.30" cy="486.44" r="1.6666666666666667" />
<circle cx="657.05" cy="490.26" r="1.6666666666666667" />
<circle cx="657.51" cy="331.06" r="1.6666666666666667" />
<circle cx="658.73" cy="483.08" r="1.6666666666666667" />
<circle cx="696.84" cy="246.17" r="1.6666666666666667" />
<circle cx="698.23" cy="486.35" r="1.6666666666666667" />
<circle cx="698.96" cy="462.23" r="1.6666666666666667" />
<circle cx="699.51" cy="441.57" r="1.6666666666666667" />
<circle cx="699.60" cy="143.37" r="1.6666666666666667" />
<circle cx="699.94" cy="235.37" r="1.6666666666666667" />
<circle cx="700.22" cy="107.01" r="1.6666666666666667" />
<circle cx="701.21" cy="474.27" r="1.6666666666666667" />
<circle cx="701.28" cy="91.46" r="1.6666666666666667" />
<circle cx="701.44" cy="303.43" r="1.6666666666666667" />
<circle cx="702.86" cy="473.08" r="1.6666666666666667" />
<circle cx="709.56" cy="464.76" r="1.6666666666666667" />
<circle cx="710.34" cy="467.95" r="1.6666666666666667" />
<circle cx="711.23" cy="463.72" r="1.6666666666666667" />
<circle cx="711.54" cy="406.82" r="1.6666666666666667" />
<circle cx="712.21" cy="460.86" r="1.6666666666666667" />
<circle cx="715.64" cy="195.58" r="1.6666666666666667" />
<circle cx="715.89" cy="379.13" r="1.6666666666666667" />
<circle cx="717.20" cy="485.11" r="1.6666666666666667" />
<circle cx="717.53" cy="401.50" r="1.6666666666666667" />
<circle cx="719.10" cy="487.74" r="1.6666666666666667" />
<circle cx="719.76" cy="457.18" r="1.6666666666666667" />
<circle cx="722.62" cy="264.58" r="1.6666666666666667" />
<circle cx="723.87" cy="483.81" r="1.6666666666666667" />
<circle cx="723.98" cy="195.10" r="1.6666666666666667" />
<circle cx="724.61" cy="447.79" r="1.6666666666666667" />
<circle cx="729.36" cy="349.75" r="1.6666666666666667" />
<circle cx="730.38" cy="477.84" r="1.6666666666666667" />
<circle cx="730.91" cy="447.68" r="1.6666666666666667" />
<circle cx="732.83" cy="302.31" r="1.6666666666666667" />
<circle cx="733.34" cy="445.16" r="1.6666666666666667" />
<circle cx="740.41" cy="460.71" r="1.6666666666666667" />
<circle cx="797.97" cy="477.38" r="1.6666666666666667" />
<circle cx="798.60" cy="457.46" r="1.6666666666666667" />
<circle cx="827.99" cy="467.22" r="1.6666666666666667" />
<circle cx="828.80" cy="469.69" r="1.6666666666666667" />
<circle cx="829.40" cy="453.48" r="1.6666666666666667" />
</g>
<g stroke="black">
<line x1="813.75" x2="813.75" y1="510.00" y2="520.00" />
<line x1="760.60" x2="760.60" y1="510.00" y2="520.00" />
<line x1="707.45" x2="707.45" y1="510.00" y2="520.00" />
<line x1="656.01" x2="656.01" y1="510.00" y2="520.00" />
<line x1="602.86" x2="602.86" y1="510.00" y2="520.00" />
<line x1="551.42" x2="551.42" y1="510.00" y2="520.00" />
<line x1="498.27" x2="498.27" y1="510.00" y2="520.00" />
<line x1="445.11" x2="445.11" y1="510.00" y2="520.00" />
<line x1="393.68" x2="393.68" y1="510.00" y2="520.00" />
<line x1="340.52" x2="340.52" y1="510.00" y2="520.00" />
<line x1="289.09" x2="289.09" y1="510.00" y2="520.00" />
<line x1="235.93" x2="235.93" y1="510.00" y2="520.00" />
<line x1="187.92" x2="187.92" y1="510.00" y2="520.00" />
<g fill="black" font-family="Arial, sans-serif" font-size="18.0" stroke="none" text-anchor="start" transform="translate(9.0 0.0)">
<text x="813.75" y="530.57">Feb</text>
<text x="760.60" y="530.57">Jan</text>
<text x="707.45" y="530.57">Dec</text>
<text x="656.01" y="530.57">Nov</text>
<text x="602.86" y="530.57">Oct</text>
<text x="551.42" y="530.57">Sep</text>
<text x="498.27" y="530.57">Aug</text>
<text x="445.11" y="530.57">Jul</text>
<text x="393.68" y="530.57">Jun</text>
<text x="340.52" y="530.57">May</text>
<text x="289.09" y="530.57">Apr</text>
<text x="235.93" y="530.57">Mar</text>
<text x="187.92" y="530.57">Feb</text>
</g>
<line x1="150.00" x2="850.00" y1="510.00" y2="510.00" />
</g>
<g stroke="black">
<line x1="150.00" x2="140.00" y1="510.00" y2="510.00" />
<line x1="150.00" x2="140.00" y1="319.09" y2="319.09" />
<line x1="150.00" x2="140.00" y1="128.18" y2="128.18" />
<g fill="black" font-family="Arial, sans-serif" font-size="18.0" stroke="none" text-anchor="end">
<text x="141.00" y="501.00">0</text>
<text x="141.00" y="310.09">10</text>
<text x="141.00" y="119.18">20</text>
</g>
<line x1="150.00" x2="150.00" y1="510.00" y2="90.00" />
</g>
</g>
</svg>