<?xml version="1.0"?>
<svg version="1.1" viewBox="0 0 1000 600" xmlns:xlink="http://www.w3.org/1999/xlink" xmlns="http://www.w3.org/2000/svg">
<g>
<g>
<g>
<text dominant-baseline="hanging" dx="-18.0" dy="18.0" fill="#0088" font-family="Arial, sans-serif" font-size="18.0" font-style="italic" stroke="none" text-anchor="end" text-orientation="sideways" x="910.00" y="54.00">d18O</text>
</g>
<g>
<g>
<text dominant-baseline="central" fill="#8008" font-size="26.666666666666668" stroke="none" text-anchor="middle" tooltip="Vial    :EMPTY
Date: 2023-06-12
Comment: It&apos;s been raining but sidechamber is dry-ish" vial="EMPTY" x="263.24" y="199.69">D</text>
<title>Vial    :EMPTY
Date: 2023-06-12
Comment: It's been raining but sidechamber is dry-ish</title>
</g>
<g>
<text dominant-baseline="central" fill="#8008" font-size="26.666666666666668" stroke="none" text-anchor="middle" tooltip="Vial    :EMPTY
Date: 2023-06-26
Comment: Still no water at all. Nong sent video" vial="EMPTY" x="277.94" y="199.69">D</text>
<title>Vial    :EMPTY
Date: 2023-06-26
Comment: Still no water at all. Nong sent video</title>
</g>
<g>
<text dominant-baseline="central" fill="#8008" font-size="26.666666666666668" stroke="none" text-anchor="middle" tooltip="Vial    :EMPTY
Date: 2023-07-05
Comment: No water again - See photo" vial="EMPTY" x="287.39" y="199.69">D</text>
<title>Vial    :EMPTY
Date: 2023-07-05
Comment: No water again - See photo</title>
</g>
<g>
<text dominant-baseline="central" fill="#8008" font-size="26.666666666666668" stroke="none" text-anchor="middle" tooltip="Vial    :EMPTY
Date: 2023-07-20
Comment: No water again - See photo" vial="EMPTY" x="303.14" y="199.69">D</text>
<title>Vial    :EMPTY
Date: 2023-07-20
Comment: No water again - See photo</title>
</g>
<g>
<text dominant-baseline="central" fill="#8008" font-size="26.666666666666668" stroke="none" text-anchor="middle" tooltip="Vial    
Date: 2023-09-29
Comment: Note:
- This had: `:RG02` and `X` (see pics)
- Installed `:RG06`, which was outside before, but now had legs added
- No pic showing `:R11` and `:RG86` at the same time" x="377.68" y="199.69">I</text>
<title>Vial    
Date: 2023-09-29
Comment: Note:
- This had: `:RG02` and `X` (see pics)
- Installed `:RG06`, which was outside before, but now had legs added
- No pic showing `:R11` and `:RG86` at the same time</title>
</g>
<g>
<text dominant-baseline="central" fill="#8008" font-size="26.666666666666668" stroke="none" text-anchor="middle" tooltip="Vial    :ABUQ
Date: 2024-07-06
Comment: SD Card messed up" vial="ABUQ" x="672.71" y="199.69">A</text>
<title>Vial    :ABUQ
Date: 2024-07-06
Comment: SD Card messed up</title>
</g>
<g>
<text dominant-baseline="central" fill="#8008" font-size="26.666666666666668" stroke="none" text-anchor="middle" tooltip="Vial    :AECJ
Date: 2024-07-25
Comment: SD Card messed up" vial="AECJ" x="692.66" y="199.69">A</text>
<title>Vial    :AECJ
Date: 2024-07-25
Comment: SD Card messed up</title>
</g>
<g>
<text dominant-baseline="central" fill="#8008" font-size="26.666666666666668" stroke="none" text-anchor="middle" tooltip="Vial    :AUPR
Date: 2024-09-10
Comment: " vial="AUPR" x="742.01" y="199.69">A</text>
<title>Vial    :AUPR
Date: 2024-09-10
Comment: </title>
</g>
<g>
<text dominant-baseline="central" fill="#8008" font-size="26.666666666666668" stroke="none" text-anchor="middle" tooltip="Vial    :ANET
Date: 2024-10-04
Comment: Full of water and can&apos;t be measured" vial="ANET" x="767.21" y="199.69">A</text>
<title>Vial    :ANET
Date: 2024-10-04
Comment: Full of water and can't be measured</title>
</g>
<g>
<text dominant-baseline="central" fill="#8008" font-size="26.666666666666668" stroke="none" text-anchor="middle" tooltip="Vial    :AVMA
Date: 2024-10-22
Comment: Full of water and can&apos;t be measured.. again?" vial="AVMA" x="786.11" y="199.69">A</text>
<title>Vial    :AVMA
Date: 2024-10-22
Comment: Full of water and can't be measured.. again?</title>
</g>
<g>
<text dominant-baseline="central" fill="#8008" font-size="26.666666666666668" stroke="none" text-anchor="middle" tooltip="Vial    :AHRV
Date: 2024-11-11
Comment: " vial="AHRV" x="807.11" y="199.69">A</text>
<title>Vial    :AHRV
Date: 2024-11-11
Comment: </title>
</g>
<g>
<text dominant-baseline="central" fill="#8008" font-size="26.666666666666668" stroke="none" text-anchor="middle" tooltip="Vial    :AMNM
Date: 2024-11-30
Comment: " vial="AMNM" x="827.06" y="199.69">A</text>
<title>Vial    :AMNM
Date: 2024-11-30
Comment: </title>
</g>
<g>
<text dominant-baseline="central" fill="#8008" font-size="26.666666666666668" stroke="none" text-anchor="middle" tooltip="Vial    :AQNJ
Date: 2024-12-15
Comment: " vial="AQNJ" x="842.80" y="199.69">A</text>
<title>Vial    :AQNJ
Date: 2024-12-15
Comment: </title>
</g>
<g>
<text dominant-baseline="central" fill="#8008" font-size="26.666666666666668" stroke="none" text-anchor="middle" tooltip="Vial    :AGAX
Date: 2025-01-15
Comment: " vial="AGAX" x="875.35" y="199.69">A</text>
<title>Vial    :AGAX
Date: 2025-01-15
Comment: </title>
</g>
<g>
<text dominant-baseline="central" fill="#8008" font-size="26.666666666666668" stroke="none" text-anchor="middle" tooltip="Vial    :ARBE
Date: 2025-01-30
Comment: " vial="ARBE" x="891.10" y="199.69">A</text>
<title>Vial    :ARBE
Date: 2025-01-30
Comment: </title>
</g>
<g>
<text dominant-baseline="central" fill="#8008" font-size="26.666666666666668" stroke="none" text-anchor="middle" tooltip="Vial    :ADCJ
Date: 2025-02-17
Comment: " vial="ADCJ" x="910.00" y="199.69">A</text>
<title>Vial    :ADCJ
Date: 2025-02-17
Comment: </title>
</g>
</g>
<polyline fill="none" points="660.12,307.19 652.77,317.52 634.92,303.92 619.17,262.47 599.22,239.45 587.67,241.70 568.77,250.17 545.67,269.00 530.97,277.02 514.17,290.12 497.38,301.41 479.53,307.53 466.93,319.84 455.38,325.08 433.33,330.04 414.43,341.84 400.78,368.33 383.98,278.07" stroke-dasharray="3.6 3.6" stroke-width="3.6" stroke="#0804" />
<polyline fill="none" points="368.23,348.66 351.43,344.15 336.73,307.99 316.79,288.80" stroke-dasharray="3.6 3.6" stroke-width="3.6" stroke="#0804" />
<polyline fill="none" points="249.59,256.23 235.94,285.78 226.49,262.67 212.84,248.90 199.19,262.77 189.74,282.10 179.24,300.24 168.75,305.95 154.05,309.40 145.65,314.48 118.35,323.53 101.55,327.54" stroke-dasharray="3.6 3.6" stroke-width="3.6" stroke="#0804" />
<g>
<g>
<circle cx="101.55" cy="327.54" fill="#0088" r="3.3333333333333335" stroke="#0088" tooltip="Vial    :ASGE
Date: 2023-01-09
Comment: " vial="ASGE" />
<title>Vial    :ASGE
Date: 2023-01-09
Comment: </title>
</g>
<g>
<circle cx="118.35" cy="323.53" fill="#0088" r="3.3333333333333335" stroke="#0088" tooltip="Vial    :AFTC
Date: 2023-01-25
Comment: " vial="AFTC" />
<title>Vial    :AFTC
Date: 2023-01-25
Comment: </title>
</g>
<g>
<circle cx="145.65" cy="314.48" fill="#0088" r="3.3333333333333335" stroke="#0088" tooltip="Vial    :ACET
Date: 2023-02-20
Comment: " vial="ACET" />
<title>Vial    :ACET
Date: 2023-02-20
Comment: </title>
</g>
<g>
<circle cx="154.05" cy="309.40" fill="#0088" r="3.3333333333333335" stroke="#0088" tooltip="Vial    :ADWW
Date: 2023-02-28
Comment: " vial="ADWW" />
<title>Vial    :ADWW
Date: 2023-02-28
Comment: </title>
</g>
<g>
<circle cx="168.75" cy="305.95" fill="#0088" r="3.3333333333333335" stroke="#0088" tooltip="Vial    :AVYG
Date: 2023-03-14
Comment: " vial="AVYG" />
<title>Vial    :AVYG
Date: 2023-03-14
Comment: </title>
</g>
<g>
<circle cx="179.24" cy="300.24" fill="#0088" r="3.3333333333333335" stroke="#0088" tooltip="Vial    :ARBS
Date: 2023-03-24
Comment: " vial="ARBS" />
<title>Vial    :ARBS
Date: 2023-03-24
Comment: </title>
</g>
<g>
<circle cx="189.74" cy="282.10" fill="#0088" r="3.3333333333333335" stroke="#0088" tooltip="Vial    :AGDX
Date: 2023-04-03
Comment: " vial="AGDX" />
<title>Vial    :AGDX
Date: 2023-04-03
Comment: </title>
</g>
<g>
<circle cx="199.19" cy="262.77" fill="#0088" r="3.3333333333333335" stroke="#0088" tooltip="Vial    :ALLH
Date: 2023-04-12
Comment: " vial="ALLH" />
<title>Vial    :ALLH
Date: 2023-04-12
Comment: </title>
</g>
<g>
<circle cx="212.84" cy="248.90" fill="#0088" r="3.3333333333333335" stroke="#0088" tooltip="Vial    :ALRR
Date: 2023-04-25
Comment: " vial="ALRR" />
<title>Vial    :ALRR
Date: 2023-04-25
Comment: </title>
</g>
<g>
<circle cx="226.49" cy="262.67" fill="#0088" r="3.3333333333333335" stroke="#0088" tooltip="Vial    :AENE
Date: 2023-05-08
Comment: " vial="AENE" />
<title>Vial    :AENE
Date: 2023-05-08
Comment: </title>
</g>
<g>
<circle cx="235.94" cy="285.78" fill="#0088" r="3.3333333333333335" stroke="#0088" tooltip="Vial    :AREC
Date: 2023-05-17
Comment: " vial="AREC" />
<title>Vial    :AREC
Date: 2023-05-17
Comment: </title>
</g>
<g>
<circle cx="249.59" cy="256.23" fill="#0088" r="3.3333333333333335" stroke="#0088" tooltip="Vial    :ASHS
Date: 2023-05-30
Comment: " vial="ASHS" />
<title>Vial    :ASHS
Date: 2023-05-30
Comment: </title>
</g>
<g>
<circle cx="316.79" cy="288.80" fill="#0088" r="3.3333333333333335" stroke="#0088" tooltip="Vial    :AGWM
Date: 2023-08-02
Comment: Water is finally back! Pic of stalagtite" vial="AGWM" />
<title>Vial    :AGWM
Date: 2023-08-02
Comment: Water is finally back! Pic of stalagtite</title>
</g>
<g>
<circle cx="336.73" cy="307.99" fill="#0088" r="3.3333333333333335" stroke="#0088" tooltip="Vial    :AALY
Date: 2023-08-21
Comment: Water is finally back! Pic of stalagtite" vial="AALY" />
<title>Vial    :AALY
Date: 2023-08-21
Comment: Water is finally back! Pic of stalagtite</title>
</g>
<g>
<circle cx="351.43" cy="344.15" fill="#0088" r="3.3333333333333335" stroke="#0088" tooltip="Vial    :AZXA
Date: 2023-09-04
Comment: " vial="AZXA" />
<title>Vial    :AZXA
Date: 2023-09-04
Comment: </title>
</g>
<g>
<circle cx="368.23" cy="348.66" fill="#0088" r="3.3333333333333335" stroke="#0088" tooltip="Vial    :ABBP
Date: 2023-09-20
Comment: " vial="ABBP" />
<title>Vial    :ABBP
Date: 2023-09-20
Comment: </title>
</g>
<g>
<circle cx="383.98" cy="278.07" fill="#0088" r="3.3333333333333335" stroke="#0088" tooltip="Vial    :APGR
Date: 2023-10-05
Comment: " vial="APGR" />
<title>Vial    :APGR
Date: 2023-10-05
Comment: </title>
</g>
<g>
<circle cx="400.78" cy="368.33" fill="#0088" r="3.3333333333333335" stroke="#0088" tooltip="Vial    :APUL
Date: 2023-10-21
Comment: " vial="APUL" />
<title>Vial    :APUL
Date: 2023-10-21
Comment: </title>
</g>
<g>
<circle cx="414.43" cy="341.84" fill="#0088" r="3.3333333333333335" stroke="#0088" tooltip="Vial    :AASZ
Date: 2023-11-03
Comment: Nong say : &apos;Less water&apos;" vial="AASZ" />
<title>Vial    :AASZ
Date: 2023-11-03
Comment: Nong say : 'Less water'</title>
</g>
<g>
<circle cx="433.33" cy="330.04" fill="#0088" r="3.3333333333333335" stroke="#0088" tooltip="Vial    :AEVW
Date: 2023-11-21
Comment: Rat bite cable! So probably missing data" vial="AEVW" />
<title>Vial    :AEVW
Date: 2023-11-21
Comment: Rat bite cable! So probably missing data</title>
</g>
<g>
<circle cx="455.38" cy="325.08" fill="#0088" r="3.3333333333333335" stroke="#0088" tooltip="Vial    :AYYB
Date: 2023-12-12
Comment: Gauge replaced b/c of previous rat bite" vial="AYYB" />
<title>Vial    :AYYB
Date: 2023-12-12
Comment: Gauge replaced b/c of previous rat bite</title>
</g>
<g>
<circle cx="466.93" cy="319.84" fill="#0088" r="3.3333333333333335" stroke="#0088" tooltip="Vial    :ADKN
Date: 2023-12-23
Comment: Rat bites the cable again! Nong fixes it" vial="ADKN" />
<title>Vial    :ADKN
Date: 2023-12-23
Comment: Rat bites the cable again! Nong fixes it</title>
</g>
<g>
<circle cx="479.53" cy="307.53" fill="#0088" r="3.3333333333333335" stroke="#0088" tooltip="Vial    :AVXC
Date: 2024-01-04
Comment: " vial="AVXC" />
<title>Vial    :AVXC
Date: 2024-01-04
Comment: </title>
</g>
<g>
<circle cx="497.38" cy="301.41" fill="#0088" r="3.3333333333333335" stroke="#0088" tooltip="Vial    :AGTC
Date: 2024-01-21
Comment: " vial="AGTC" />
<title>Vial    :AGTC
Date: 2024-01-21
Comment: </title>
</g>
<g>
<circle cx="514.17" cy="290.12" fill="#0088" r="3.3333333333333335" stroke="#0088" tooltip="Vial    :AZWT
Date: 2024-02-06
Comment: Very little water" vial="AZWT" />
<title>Vial    :AZWT
Date: 2024-02-06
Comment: Very little water</title>
</g>
<g>
<circle cx="530.97" cy="277.02" fill="#0088" r="3.3333333333333335" stroke="#0088" tooltip="Vial    :ANQB
Date: 2024-02-22
Comment: " vial="ANQB" />
<title>Vial    :ANQB
Date: 2024-02-22
Comment: </title>
</g>
<g>
<circle cx="545.67" cy="269.00" fill="#0088" r="3.3333333333333335" stroke="#0088" tooltip="Vial    :AEPE
Date: 2024-03-07
Comment: " vial="AEPE" />
<title>Vial    :AEPE
Date: 2024-03-07
Comment: </title>
</g>
<g>
<circle cx="568.77" cy="250.17" fill="#0088" r="3.3333333333333335" stroke="#0088" tooltip="Vial    :AUVH
Date: 2024-03-29
Comment: Empty File!!" vial="AUVH" />
<title>Vial    :AUVH
Date: 2024-03-29
Comment: Empty File!!</title>
</g>
<g>
<circle cx="587.67" cy="241.70" fill="#0088" r="3.3333333333333335" stroke="#0088" tooltip="Vial    :AMDM
Date: 2024-04-16
Comment: SD Card file was sent twice! But one of them was empty" vial="AMDM" />
<title>Vial    :AMDM
Date: 2024-04-16
Comment: SD Card file was sent twice! But one of them was empty</title>
</g>
<g>
<circle cx="599.22" cy="239.45" fill="#0088" r="3.3333333333333335" stroke="#0088" tooltip="Vial    :AELB
Date: 2024-04-27
Comment: SD Card file doesn&apos;t read!!" vial="AELB" />
<title>Vial    :AELB
Date: 2024-04-27
Comment: SD Card file doesn't read!!</title>
</g>
<g>
<circle cx="619.17" cy="262.47" fill="#0088" r="3.3333333333333335" stroke="#0088" tooltip="Vial    :AEXQ
Date: 2024-05-16
Comment: Is it `:R12` or `:R13`.. photo seems mislabeled? There is a `:R13` further down at `:ThMuCh2Sh01BrownTop`" vial="AEXQ" />
<title>Vial    :AEXQ
Date: 2024-05-16
Comment: Is it `:R12` or `:R13`.. photo seems mislabeled? There is a `:R13` further down at `:ThMuCh2Sh01BrownTop`</title>
</g>
<g>
<circle cx="634.92" cy="303.92" fill="#0088" r="3.3333333333333335" stroke="#0088" tooltip="Vial    :APKH
Date: 2024-05-31
Comment: " vial="APKH" />
<title>Vial    :APKH
Date: 2024-05-31
Comment: </title>
</g>
<g>
<circle cx="652.77" cy="317.52" fill="#0088" r="3.3333333333333335" stroke="#0088" tooltip="Vial    :AYLR
Date: 2024-06-17
Comment: Very little of water" vial="AYLR" />
<title>Vial    :AYLR
Date: 2024-06-17
Comment: Very little of water</title>
</g>
<g>
<circle cx="660.12" cy="307.19" fill="#0088" r="3.3333333333333335" stroke="#0088" tooltip="Vial    :ALZV
Date: 2024-06-24
Comment: " vial="ALZV" />
<title>Vial    :ALZV
Date: 2024-06-24
Comment: </title>
</g>
</g>
<g stroke="#0088">
<line x1="892.89" x2="892.89" y1="54.00" y2="54.00" />
<line x1="860.35" x2="860.35" y1="54.00" y2="54.00" />
<line x1="827.80" x2="827.80" y1="54.00" y2="54.00" />
<line x1="796.30" x2="796.30" y1="54.00" y2="54.00" />
<line x1="763.75" x2="763.75" y1="54.00" y2="54.00" />
<line x1="732.25" x2="732.25" y1="54.00" y2="54.00" />
<line x1="699.71" x2="699.71" y1="54.00" y2="54.00" />
<line x1="667.16" x2="667.16" y1="54.00" y2="54.00" />
<line x1="635.66" x2="635.66" y1="54.00" y2="54.00" />
<line x1="603.11" x2="603.11" y1="54.00" y2="54.00" />
<line x1="571.61" x2="571.61" y1="54.00" y2="54.00" />
<line x1="539.07" x2="539.07" y1="54.00" y2="54.00" />
<line x1="508.62" x2="508.62" y1="54.00" y2="54.00" />
<line x1="476.07" x2="476.07" y1="54.00" y2="54.00" />
<line x1="443.52" x2="443.52" y1="54.00" y2="54.00" />
<line x1="412.02" x2="412.02" y1="54.00" y2="54.00" />
<line x1="379.48" x2="379.48" y1="54.00" y2="54.00" />
<line x1="347.98" x2="347.98" y1="54.00" y2="54.00" />
<line x1="315.43" x2="315.43" y1="54.00" y2="54.00" />
<line x1="282.88" x2="282.88" y1="54.00" y2="54.00" />
<line x1="251.38" x2="251.38" y1="54.00" y2="54.00" />
<line x1="218.84" x2="218.84" y1="54.00" y2="54.00" />
<line x1="187.34" x2="187.34" y1="54.00" y2="54.00" />
<line x1="154.79" x2="154.79" y1="54.00" y2="54.00" />
<line x1="125.39" x2="125.39" y1="54.00" y2="54.00" />
<line x1="92.84" x2="92.84" y1="54.00" y2="54.00" />
<g fill="none" font-family="Arial, sans-serif" font-size="18.0" stroke="none" text-anchor="start" transform="translate(9.0 0.0)">
<text x="892.89" y="47.74">Feb</text>
<text x="860.35" y="47.74">Jan</text>
<text x="827.80" y="47.74">Dec</text>
<text x="796.30" y="47.74">Nov</text>
<text x="763.75" y="47.74">Oct</text>
<text x="732.25" y="47.74">Sep</text>
<text x="699.71" y="47.74">Aug</text>
<text x="667.16" y="47.74">Jul</text>
<text x="635.66" y="47.74">Jun</text>
<text x="603.11" y="47.74">May</text>
<text x="571.61" y="47.74">Apr</text>
<text x="539.07" y="47.74">Mar</text>
<text x="508.62" y="47.74">Feb</text>
<text x="476.07" y="47.74">Jan</text>
<text x="443.52" y="47.74">Dec</text>
<text x="412.02" y="47.74">Nov</text>
<text x="379.48" y="47.74">Oct</text>
<text x="347.98" y="47.74">Sep</text>
<text x="315.43" y="47.74">Aug</text>
<text x="282.88" y="47.74">Jul</text>
<text x="251.38" y="47.74">Jun</text>
<text x="218.84" y="47.74">May</text>
<text x="187.34" y="47.74">Apr</text>
<text x="154.79" y="47.74">Mar</text>
<text x="125.39" y="47.74">Feb</text>
<text x="92.84" y="47.74">Jan</text>
</g>
<line x1="90.00" x2="910.00" y1="54.00" y2="54.00" />
</g>
<g stroke="#0088">
<line x1="910.00" x2="922.00" y1="472.13" y2="472.13" />
<line x1="910.00" x2="922.00" y1="199.69" y2="199.69" />
<g fill="#0088" font-family="Arial, sans-serif" font-size="18.0" stroke="none" text-anchor="beginning">
<text x="919.00" y="463.13">-10</text>
<text x="919.00" y="190.69">0</text>
</g>
<line x1="910.00" x2="910.00" y1="546.00" y2="54.00" />
</g>
</g>
<g>
<g stroke-dasharray="3.6 7.2" stroke-width="0.72" stroke="#caa">
<line x1="892.89" x2="892.89" y1="546.00" y2="54.00" />
<line x1="860.35" x2="860.35" y1="546.00" y2="54.00" />
<line x1="827.80" x2="827.80" y1="546.00" y2="54.00" />
<line x1="796.30" x2="796.30" y1="546.00" y2="54.00" />
<line x1="763.75" x2="763.75" y1="546.00" y2="54.00" />
<line x1="732.25" x2="732.25" y1="546.00" y2="54.00" />
<line x1="699.71" x2="699.71" y1="546.00" y2="54.00" />
<line x1="667.16" x2="667.16" y1="546.00" y2="54.00" />
<line x1="635.66" x2="635.66" y1="546.00" y2="54.00" />
<line x1="603.11" x2="603.11" y1="546.00" y2="54.00" />
<line x1="571.61" x2="571.61" y1="546.00" y2="54.00" />
<line x1="539.07" x2="539.07" y1="546.00" y2="54.00" />
<line x1="508.62" x2="508.62" y1="546.00" y2="54.00" />
<line x1="476.07" x2="476.07" y1="546.00" y2="54.00" />
<line x1="443.52" x2="443.52" y1="546.00" y2="54.00" />
<line x1="412.02" x2="412.02" y1="546.00" y2="54.00" />
<line x1="379.48" x2="379.48" y1="546.00" y2="54.00" />
<line x1="347.98" x2="347.98" y1="546.00" y2="54.00" />
<line x1="315.43" x2="315.43" y1="546.00" y2="54.00" />
<line x1="282.88" x2="282.88" y1="546.00" y2="54.00" />
<line x1="251.38" x2="251.38" y1="546.00" y2="54.00" />
<line x1="218.84" x2="218.84" y1="546.00" y2="54.00" />
<line x1="187.34" x2="187.34" y1="546.00" y2="54.00" />
<line x1="154.79" x2="154.79" y1="546.00" y2="54.00" />
<line x1="125.39" x2="125.39" y1="546.00" y2="54.00" />
<line x1="92.84" x2="92.84" y1="546.00" y2="54.00" />
<line x1="90.00" x2="910.00" y1="546.00" y2="546.00" />
<line x1="90.00" x2="910.00" y1="201.94" y2="201.94" />
</g>
<g>
<text dominant-baseline="hanging" dx="-36.0" dy="18.0" fill="#0004" font-family="Arial, sans-serif" font-size="36" stroke="none" text-anchor="end" x="910.00" y="98.73">ThMuCh0ConjoinedBottom</text>
</g>
<g>
<text dominant-baseline="text-bottom" dy="-9.0" fill="black" font-family="Arial, sans-serif" font-size="18.0" font-style="italic" stroke="none" text-anchor="middle" x="500.00" y="54.00">Years 2022 to 2025</text>
</g>
<g>
<text dominant-baseline="hanging" dx="18.0" dy="18.0" fill="black" font-family="Arial, sans-serif" font-size="18.0" font-style="italic" stroke="none" text-anchor="beginning" text-orientation="sideways" x="90.00" y="54.00">log(Drips per day)</text>
</g>
<polyline fill="none" points="102.30,458.01 102.38,457.99 102.47,460.80 102.56,460.21 102.64,459.08 102.73,458.21 102.81,459.39 102.89,459.02 102.98,459.80 103.07,460.59 103.15,458.63 103.24,459.78 103.32,457.98 103.40,460.09 103.49,460.98 103.58,461.07 103.67,460.01 103.75,459.63 103.84,458.91 119.23,468.82 119.33,467.90 119.44,468.10 119.55,468.00 119.66,467.47 119.77,469.16 119.88,468.14 119.99,467.06 120.09,467.53 120.20,466.41 120.30,467.15 120.41,466.81 120.51,466.14 120.62,466.99 133.93,474.01 378.44,499.46 378.66,492.78 378.93,498.52 379.10,483.95 379.36,497.96 379.54,485.67 379.79,496.35 379.95,480.83 380.19,495.02 380.38,488.16 380.63,496.56 380.83,488.34 381.07,496.31 381.27,488.51 381.53,497.23 381.75,492.55 382.03,500.77 382.27,494.60 382.57,503.68 382.82,496.18 383.12,503.38 383.38,497.12 383.68,503.36 383.93,495.73 384.48,523.86 384.76,501.06 385.03,498.99 385.35,505.08 385.59,495.99 385.91,504.84 386.16,496.55 386.48,504.63 386.74,497.95 387.07,506.19 387.33,497.96 387.64,504.09 387.89,496.59 388.18,501.85 388.44,497.82 388.74,503.47 388.98,495.53 389.30,504.28 389.53,494.88 389.82,501.80 390.08,496.79 390.39,504.11 390.65,498.66 390.95,502.91 391.20,496.95 391.52,504.83 391.79,499.66 392.12,506.18 392.37,496.23 392.69,504.79 392.95,497.95 393.25,502.95 393.50,496.89 393.83,505.92 394.08,497.15 394.39,504.07 394.65,497.39 394.98,505.98 395.24,498.38 395.57,506.79 395.86,500.78 396.18,505.30 396.45,499.51 396.76,504.53 397.06,501.86 397.36,503.60 397.64,500.75 397.97,506.26 398.23,497.78 398.56,505.86 398.85,501.75 399.17,505.55 399.46,501.72 399.78,505.00 400.08,502.31 400.40,505.72 400.68,500.30 401.24,524.37 401.51,499.47 401.87,509.30 402.16,500.93 455.96,474.34 456.10,475.89 456.23,475.48 456.37,475.85 456.51,477.52 456.65,475.47 456.79,476.26 456.92,475.86 457.06,476.75 457.21,476.96 457.34,475.90 457.48,475.92 457.62,476.31 457.76,476.65 457.90,475.96 458.03,475.72 458.18,478.57 458.32,477.04 458.46,475.72 458.60,477.09 458.74,477.48 458.88,476.31 459.02,477.70 467.31,471.04 467.43,471.91 467.56,474.53 467.69,473.07 467.82,473.75 467.94,473.44 468.07,472.40 468.19,472.85 468.31,472.00 468.44,472.74 468.56,472.03 468.69,472.75 468.81,472.69 468.94,473.99 469.07,473.64 469.20,473.82 469.32,473.49 469.45,472.16 469.57,473.00 469.70,473.50 469.83,473.33 469.95,472.26 470.08,473.84 470.21,473.82 470.33,471.32 470.45,471.61 470.57,472.01 470.69,472.04 470.82,472.12 470.94,472.08 471.07,473.24 471.18,470.64 471.31,472.39 471.43,472.40 471.55,471.89 471.67,471.25 471.79,472.18 471.92,472.25 472.05,473.60 472.17,473.03 472.30,472.40 472.42,472.18 472.54,471.63 472.66,471.96 472.79,472.65 472.91,472.65 473.04,473.49 473.16,472.52 473.28,471.94 473.41,471.80 473.53,472.55 473.65,471.03 473.77,472.39 473.89,471.25 474.01,471.51 474.13,471.20 474.25,472.16 474.38,472.42 474.50,473.18 474.63,472.50 474.75,471.93 474.88,473.06 475.00,473.27 475.13,473.07 475.25,471.93 475.38,472.79 475.50,473.45 475.63,473.08 475.75,472.62 475.88,473.30 476.01,473.19 476.13,472.88 476.26,472.28 476.38,472.57 476.51,473.67 476.63,472.75 476.76,472.34 476.88,473.08 477.01,473.39 477.13,472.29 477.26,471.88 477.38,471.76 477.50,472.35 477.62,472.14 477.75,472.46 477.86,470.16 477.98,471.47 478.10,470.98 478.22,472.18 478.35,471.57 478.47,472.14 478.59,473.07 478.72,472.26 478.84,471.72 478.96,472.30 479.08,471.77 479.21,473.33 479.33,472.64 479.46,473.08 479.96,520.20 480.09,473.76 480.21,472.30 480.33,472.15 480.45,472.04 480.58,472.94 480.70,473.03 480.83,473.01 480.96,473.17 481.08,472.39 481.21,473.73 481.33,472.77 481.46,473.42 481.59,472.73 481.71,472.19 481.83,472.80 481.96,472.26 482.08,471.34 482.21,473.79 482.33,473.26 482.46,473.27 482.59,472.97 482.72,474.26 482.85,473.90 482.97,473.14 483.09,472.18 483.21,470.63 483.33,470.79 483.45,470.30 483.56,470.82 483.68,470.25 483.79,469.41 483.91,470.42 484.02,469.05 484.13,468.65 484.25,470.32 484.37,470.66 484.48,470.11 484.60,470.62 484.71,469.76 484.83,470.89 484.95,470.86 485.07,470.19 485.18,469.76 485.31,472.60 485.43,473.50 485.56,473.12 485.69,472.83 485.81,472.73 485.94,474.04 486.07,473.16 486.19,473.17 486.32,472.58 486.44,472.99 486.57,473.35 486.70,473.30 486.83,473.84 486.96,474.86 487.09,474.44 487.22,473.06 487.34,473.22 487.47,474.26 487.60,473.41 487.72,472.53 487.86,474.58 487.98,473.94 488.12,474.56 488.25,474.64 488.38,474.00 488.51,474.19 488.64,473.96 488.77,474.35 488.90,474.40 489.03,474.71 489.16,474.86 489.29,473.80 489.42,474.47 489.55,473.93 489.68,474.06 489.82,474.93 489.95,473.73 490.08,474.28 490.21,475.42 490.34,472.67 490.46,473.46 490.59,474.44 490.72,473.32 490.85,475.03 490.99,475.07 491.13,476.24 491.26,476.13 491.39,473.68 491.52,473.97 491.65,474.76 491.79,475.29 491.92,473.86 492.05,474.57 492.19,475.75 492.32,474.49 492.45,475.10 492.58,475.21 492.72,474.92 492.85,474.36 492.98,473.22 493.10,473.35 493.23,474.74 493.37,476.27 493.51,474.87 493.64,474.80 493.77,475.36 493.91,474.87 494.04,474.48 494.16,473.49 494.29,474.09 494.43,476.02 494.57,475.30 494.70,475.24 494.84,475.71 494.97,475.94 495.11,476.26 495.25,475.52 495.39,476.58 495.52,474.89 495.65,473.51 495.78,474.62 495.91,474.20 496.05,475.95 496.18,475.13 496.31,475.10 496.46,477.60 496.60,476.03 496.73,475.34 496.87,476.70 497.01,476.20 497.15,476.45 497.29,476.35 497.84,523.90 497.97,475.63 498.11,476.47 498.25,476.34 498.39,476.72 498.53,477.27 498.67,476.66 498.81,475.63 498.95,476.00 499.09,477.11 499.23,476.72 499.37,475.95 499.51,477.88 499.66,478.08 499.80,476.76 499.94,476.46 500.08,477.58 500.22,475.99 500.36,477.11 500.50,475.60 500.63,475.83 500.77,477.01 500.91,476.09 501.05,476.81 501.19,477.46 501.34,477.76 501.48,476.94 501.63,477.99 501.77,477.71 501.92,478.80 502.06,477.77 502.21,478.11 502.35,477.68 502.50,477.70 502.64,477.29 502.79,478.06 502.93,477.59 503.07,477.10 503.21,477.51 503.36,477.89 503.50,477.59 503.65,478.03 503.80,478.19 503.94,478.11 504.08,476.33 504.22,476.67 504.36,477.69 504.51,478.02 504.65,477.70 504.80,478.55 504.95,478.17 505.09,478.14 505.24,477.30 505.38,477.18 505.53,478.31 505.68,478.94 505.82,478.40 505.97,478.45 506.11,477.76 506.26,477.53 506.40,478.28 506.55,477.82 506.70,478.12 506.84,478.96 506.99,478.76 507.13,476.99 507.28,477.56 507.42,477.17 507.57,478.76 507.72,478.13 507.86,478.94 508.02,479.81 508.16,477.63 508.31,477.57 508.45,478.70 508.60,478.87 508.75,478.55 508.90,479.73 509.05,479.26 509.20,478.87 509.35,478.33 509.50,478.60 509.65,479.09 509.80,478.89 509.95,479.58 510.10,479.79 510.25,478.46 510.40,478.71 510.55,478.53 510.69,478.20 510.84,478.20 510.99,479.33 511.15,480.10 511.29,478.70 511.45,479.55 511.60,479.58 511.76,481.40 511.92,480.73 512.08,481.58 512.24,481.29 512.39,480.29 512.55,480.93 512.71,480.62 512.87,480.62 513.02,479.92 513.18,481.35 513.34,480.31 513.49,479.63 513.64,479.36 513.79,479.39 513.95,481.23 514.11,481.30 514.58,518.32 514.74,480.40 514.89,480.07 515.05,480.52 515.20,480.20 515.37,481.76 515.52,479.10 515.67,480.06 515.83,481.57 515.99,480.40 516.15,481.01 516.30,480.88 516.47,482.61 516.62,479.64 516.78,480.76 516.94,481.68 517.10,480.49 517.26,481.41 517.42,480.72 517.58,480.83 517.73,480.61 517.89,479.89 518.05,481.42 518.20,480.41 518.37,482.21 518.53,482.33 518.70,482.31 518.86,482.03 519.03,482.14 519.19,482.66 519.36,482.24 519.52,481.50 519.68,482.49 519.85,482.09 520.01,482.23 520.18,482.48 520.34,482.26 520.51,482.73 520.68,482.70 520.84,481.65 521.00,481.90 521.17,483.55 521.34,482.39 521.51,483.57 521.67,482.66 521.84,482.08 522.00,481.27 522.16,482.67 522.33,482.55 522.50,482.33 522.67,483.29 522.83,482.94 523.00,482.00 523.16,482.62 523.33,482.98 523.50,482.83 523.67,483.57 523.84,482.80 524.00,482.75 524.18,484.27 524.36,484.82 524.53,483.81 524.70,484.34 524.88,484.38 525.05,483.95 525.23,484.81 525.41,484.84 525.58,483.95 525.76,484.72 525.93,484.67 526.11,484.71 526.28,484.17 526.46,485.44 526.64,484.82 526.82,485.24 527.01,486.10 527.18,484.50 527.36,485.04 527.54,485.87 527.72,484.82 527.90,485.48 528.08,485.47 528.26,485.55 528.45,486.79 528.63,485.22 528.81,485.05 528.99,486.07 529.17,485.53 529.35,484.91 529.53,485.66 529.72,485.87 529.89,484.32 530.08,486.27 530.26,485.42 530.44,486.44 530.63,486.11 530.81,486.67 531.37,524.46 531.57,488.30 531.77,488.05 531.95,486.75 532.15,488.15 532.34,488.01 532.54,488.10 532.73,488.01 532.93,488.85 533.13,489.32 533.33,488.60 533.53,488.69 533.73,488.78 533.93,489.34 534.13,488.83 534.34,489.56 534.53,488.62 534.74,489.64 534.94,489.39 535.14,488.64 535.34,489.44 535.54,488.59 535.75,490.15 535.96,490.85 536.16,489.82 536.37,490.36 536.58,489.84 536.78,489.58 536.99,489.80 537.19,489.86 537.39,489.17 537.60,489.86 537.81,491.15 538.03,492.18 538.24,490.71 538.46,492.07 538.67,491.10 538.89,491.41 539.11,492.44 539.33,493.08 539.55,492.27 539.78,492.86 540.02,495.00 540.25,494.34 540.48,493.77 540.71,493.45 540.94,494.19 541.19,496.19 541.42,493.94 541.65,494.27 541.89,494.07 542.16,499.75 542.39,494.52 542.63,493.95 542.86,494.06 543.15,502.49 543.40,496.12 543.65,496.09 543.89,495.66 544.19,502.93 544.44,496.67 544.70,497.45 544.97,499.16 545.23,499.18 545.49,497.11" stroke-dasharray="3.6 3.6" stroke-width="3.6" stroke="none" />
<g>
<circle cx="102.30" cy="458.01" fill="#0002" r="1.6666666666666667" stroke="none" />
<circle cx="102.38" cy="457.99" fill="#0002" r="1.6666666666666667" stroke="none" />
<circle cx="102.47" cy="460.80" fill="#0002" r="1.6666666666666667" stroke="none" />
<circle cx="102.56" cy="460.21" fill="#0002" r="1.6666666666666667" stroke="none" />
<circle cx="102.64" cy="459.08" fill="#0002" r="1.6666666666666667" stroke="none" />
<circle cx="102.73" cy="458.21" fill="#0002" r="1.6666666666666667" stroke="none" />
<circle cx="102.81" cy="459.39" fill="#0002" r="1.6666666666666667" stroke="none" />
<circle cx="102.89" cy="459.02" fill="#0002" r="1.6666666666666667" stroke="none" />
<circle cx="102.98" cy="459.80" fill="#0002" r="1.6666666666666667" stroke="none" />
<circle cx="103.07" cy="460.59" fill="#0002" r="1.6666666666666667" stroke="none" />
<circle cx="103.15" cy="458.63" fill="#0002" r="1.6666666666666667" stroke="none" />
<circle cx="103.24" cy="459.78" fill="#0002" r="1.6666666666666667" stroke="none" />
<circle cx="103.32" cy="457.98" fill="#0002" r="1.6666666666666667" stroke="none" />
<circle cx="103.40" cy="460.09" fill="#0002" r="1.6666666666666667" stroke="none" />
<circle cx="103.49" cy="460.98" fill="#0002" r="1.6666666666666667" stroke="none" />
<circle cx="103.58" cy="461.07" fill="#0002" r="1.6666666666666667" stroke="none" />
<circle cx="103.67" cy="460.01" fill="#0002" r="1.6666666666666667" stroke="none" />
<circle cx="103.75" cy="459.63" fill="#0002" r="1.6666666666666667" stroke="none" />
<circle cx="103.84" cy="458.91" fill="#0002" r="1.6666666666666667" stroke="none" />
<circle cx="119.23" cy="468.82" fill="#0002" r="1.6666666666666667" stroke="none" />
<circle cx="119.33" cy="467.90" fill="#0002" r="1.6666666666666667" stroke="none" />
<circle cx="119.44" cy="468.10" fill="#0002" r="1.6666666666666667" stroke="none" />
<circle cx="119.55" cy="468.00" fill="#0002" r="1.6666666666666667" stroke="none" />
<circle cx="119.66" cy="467.47" fill="#0002" r="1.6666666666666667" stroke="none" />
<circle cx="119.77" cy="469.16" fill="#0002" r="1.6666666666666667" stroke="none" />
<circle cx="119.88" cy="468.14" fill="#0002" r="1.6666666666666667" stroke="none" />
<circle cx="119.99" cy="467.06" fill="#0002" r="1.6666666666666667" stroke="none" />
<circle cx="120.09" cy="467.53" fill="#0002" r="1.6666666666666667" stroke="none" />
<circle cx="120.20" cy="466.41" fill="#0002" r="1.6666666666666667" stroke="none" />
<circle cx="120.30" cy="467.15" fill="#0002" r="1.6666666666666667" stroke="none" />
<circle cx="120.41" cy="466.81" fill="#0002" r="1.6666666666666667" stroke="none" />
<circle cx="120.51" cy="466.14" fill="#0002" r="1.6666666666666667" stroke="none" />
<circle cx="120.62" cy="466.99" fill="#0002" r="1.6666666666666667" stroke="none" />
<circle cx="133.93" cy="474.01" fill="#0002" r="1.6666666666666667" stroke="none" />
<circle cx="378.44" cy="499.46" fill="#0002" r="1.6666666666666667" stroke="none" />
<circle cx="378.66" cy="492.78" fill="#0002" r="1.6666666666666667" stroke="none" />
<circle cx="378.93" cy="498.52" fill="#0002" r="1.6666666666666667" stroke="none" />
<circle cx="379.10" cy="483.95" fill="#0002" r="1.6666666666666667" stroke="none" />
<circle cx="379.36" cy="497.96" fill="#0002" r="1.6666666666666667" stroke="none" />
<circle cx="379.54" cy="485.67" fill="#0002" r="1.6666666666666667" stroke="none" />
<circle cx="379.79" cy="496.35" fill="#0002" r="1.6666666666666667" stroke="none" />
<circle cx="379.95" cy="480.83" fill="#0002" r="1.6666666666666667" stroke="none" />
<circle cx="380.19" cy="495.02" fill="#0002" r="1.6666666666666667" stroke="none" />
<circle cx="380.38" cy="488.16" fill="#0002" r="1.6666666666666667" stroke="none" />
<circle cx="380.63" cy="496.56" fill="#0002" r="1.6666666666666667" stroke="none" />
<circle cx="380.83" cy="488.34" fill="#0002" r="1.6666666666666667" stroke="none" />
<circle cx="381.07" cy="496.31" fill="#0002" r="1.6666666666666667" stroke="none" />
<circle cx="381.27" cy="488.51" fill="#0002" r="1.6666666666666667" stroke="none" />
<circle cx="381.53" cy="497.23" fill="#0002" r="1.6666666666666667" stroke="none" />
<circle cx="381.75" cy="492.55" fill="#0002" r="1.6666666666666667" stroke="none" />
<circle cx="382.03" cy="500.77" fill="#0002" r="1.6666666666666667" stroke="none" />
<circle cx="382.27" cy="494.60" fill="#0002" r="1.6666666666666667" stroke="none" />
<circle cx="382.57" cy="503.68" fill="#0002" r="1.6666666666666667" stroke="none" />
<circle cx="382.82" cy="496.18" fill="#0002" r="1.6666666666666667" stroke="none" />
<circle cx="383.12" cy="503.38" fill="#0002" r="1.6666666666666667" stroke="none" />
<circle cx="383.38" cy="497.12" fill="#0002" r="1.6666666666666667" stroke="none" />
<circle cx="383.68" cy="503.36" fill="#0002" r="1.6666666666666667" stroke="none" />
<circle cx="383.93" cy="495.73" fill="#0002" r="1.6666666666666667" stroke="none" />
<circle cx="384.48" cy="523.86" fill="#0002" r="1.6666666666666667" stroke="none" />
<circle cx="384.76" cy="501.06" fill="#0002" r="1.6666666666666667" stroke="none" />
<circle cx="385.03" cy="498.99" fill="#0002" r="1.6666666666666667" stroke="none" />
<circle cx="385.35" cy="505.08" fill="#0002" r="1.6666666666666667" stroke="none" />
<circle cx="385.59" cy="495.99" fill="#0002" r="1.6666666666666667" stroke="none" />
<circle cx="385.91" cy="504.84" fill="#0002" r="1.6666666666666667" stroke="none" />
<circle cx="386.16" cy="496.55" fill="#0002" r="1.6666666666666667" stroke="none" />
<circle cx="386.48" cy="504.63" fill="#0002" r="1.6666666666666667" stroke="none" />
<circle cx="386.74" cy="497.95" fill="#0002" r="1.6666666666666667" stroke="none" />
<circle cx="387.07" cy="506.19" fill="#0002" r="1.6666666666666667" stroke="none" />
<circle cx="387.33" cy="497.96" fill="#0002" r="1.6666666666666667" stroke="none" />
<circle cx="387.64" cy="504.09" fill="#0002" r="1.6666666666666667" stroke="none" />
<circle cx="387.89" cy="496.59" fill="#0002" r="1.6666666666666667" stroke="none" />
<circle cx="388.18" cy="501.85" fill="#0002" r="1.6666666666666667" stroke="none" />
<circle cx="388.44" cy="497.82" fill="#0002" r="1.6666666666666667" stroke="none" />
<circle cx="388.74" cy="503.47" fill="#0002" r="1.6666666666666667" stroke="none" />
<circle cx="388.98" cy="495.53" fill="#0002" r="1.6666666666666667" stroke="none" />
<circle cx="389.30" cy="504.28" fill="#0002" r="1.6666666666666667" stroke="none" />
<circle cx="389.53" cy="494.88" fill="#0002" r="1.6666666666666667" stroke="none" />
<circle cx="389.82" cy="501.80" fill="#0002" r="1.6666666666666667" stroke="none" />
<circle cx="390.08" cy="496.79" fill="#0002" r="1.6666666666666667" stroke="none" />
<circle cx="390.39" cy="504.11" fill="#0002" r="1.6666666666666667" stroke="none" />
<circle cx="390.65" cy="498.66" fill="#0002" r="1.6666666666666667" stroke="none" />
<circle cx="390.95" cy="502.91" fill="#0002" r="1.6666666666666667" stroke="none" />
<circle cx="391.20" cy="496.95" fill="#0002" r="1.6666666666666667" stroke="none" />
<circle cx="391.52" cy="504.83" fill="#0002" r="1.6666666666666667" stroke="none" />
<circle cx="391.79" cy="499.66" fill="#0002" r="1.6666666666666667" stroke="none" />
<circle cx="392.12" cy="506.18" fill="#0002" r="1.6666666666666667" stroke="none" />
<circle cx="392.37" cy="496.23" fill="#0002" r="1.6666666666666667" stroke="none" />
<circle cx="392.69" cy="504.79" fill="#0002" r="1.6666666666666667" stroke="none" />
<circle cx="392.95" cy="497.95" fill="#0002" r="1.6666666666666667" stroke="none" />
<circle cx="393.25" cy="502.95" fill="#0002" r="1.6666666666666667" stroke="none" />
<circle cx="393.50" cy="496.89" fill="#0002" r="1.6666666666666667" stroke="none" />
<circle cx="393.83" cy="505.92" fill="#0002" r="1.6666666666666667" stroke="none" />
<circle cx="394.08" cy="497.15" fill="#0002" r="1.6666666666666667" stroke="none" />
<circle cx="394.39" cy="504.07" fill="#0002" r="1.6666666666666667" stroke="none" />
<circle cx="394.65" cy="497.39" fill="#0002" r="1.6666666666666667" stroke="none" />
<circle cx="394.98" cy="505.98" fill="#0002" r="1.6666666666666667" stroke="none" />
<circle cx="395.24" cy="498.38" fill="#0002" r="1.6666666666666667" stroke="none" />
<circle cx="395.57" cy="506.79" fill="#0002" r="1.6666666666666667" stroke="none" />
<circle cx="395.86" cy="500.78" fill="#0002" r="1.6666666666666667" stroke="none" />
<circle cx="396.18" cy="505.30" fill="#0002" r="1.6666666666666667" stroke="none" />
<circle cx="396.45" cy="499.51" fill="#0002" r="1.6666666666666667" stroke="none" />
<circle cx="396.76" cy="504.53" fill="#0002" r="1.6666666666666667" stroke="none" />
<circle cx="397.06" cy="501.86" fill="#0002" r="1.6666666666666667" stroke="none" />
<circle cx="397.36" cy="503.60" fill="#0002" r="1.6666666666666667" stroke="none" />
<circle cx="397.64" cy="500.75" fill="#0002" r="1.6666666666666667" stroke="none" />
<circle cx="397.97" cy="506.26" fill="#0002" r="1.6666666666666667" stroke="none" />
<circle cx="398.23" cy="497.78" fill="#0002" r="1.6666666666666667" stroke="none" />
<circle cx="398.56" cy="505.86" fill="#0002" r="1.6666666666666667" stroke="none" />
<circle cx="398.85" cy="501.75" fill="#0002" r="1.6666666666666667" stroke="none" />
<circle cx="399.17" cy="505.55" fill="#0002" r="1.6666666666666667" stroke="none" />
<circle cx="399.46" cy="501.72" fill="#0002" r="1.6666666666666667" stroke="none" />
<circle cx="399.78" cy="505.00" fill="#0002" r="1.6666666666666667" stroke="none" />
<circle cx="400.08" cy="502.31" fill="#0002" r="1.6666666666666667" stroke="none" />
<circle cx="400.40" cy="505.72" fill="#0002" r="1.6666666666666667" stroke="none" />
<circle cx="400.68" cy="500.30" fill="#0002" r="1.6666666666666667" stroke="none" />
<circle cx="401.24" cy="524.37" fill="#0002" r="1.6666666666666667" stroke="none" />
<circle cx="401.51" cy="499.47" fill="#0002" r="1.6666666666666667" stroke="none" />
<circle cx="401.87" cy="509.30" fill="#0002" r="1.6666666666666667" stroke="none" />
<circle cx="402.16" cy="500.93" fill="#0002" r="1.6666666666666667" stroke="none" />
<circle cx="455.96" cy="474.34" fill="#0002" r="1.6666666666666667" stroke="none" />
<circle cx="456.10" cy="475.89" fill="#0002" r="1.6666666666666667" stroke="none" />
<circle cx="456.23" cy="475.48" fill="#0002" r="1.6666666666666667" stroke="none" />
<circle cx="456.37" cy="475.85" fill="#0002" r="1.6666666666666667" stroke="none" />
<circle cx="456.51" cy="477.52" fill="#0002" r="1.6666666666666667" stroke="none" />
<circle cx="456.65" cy="475.47" fill="#0002" r="1.6666666666666667" stroke="none" />
<circle cx="456.79" cy="476.26" fill="#0002" r="1.6666666666666667" stroke="none" />
<circle cx="456.92" cy="475.86" fill="#0002" r="1.6666666666666667" stroke="none" />
<circle cx="457.06" cy="476.75" fill="#0002" r="1.6666666666666667" stroke="none" />
<circle cx="457.21" cy="476.96" fill="#0002" r="1.6666666666666667" stroke="none" />
<circle cx="457.34" cy="475.90" fill="#0002" r="1.6666666666666667" stroke="none" />
<circle cx="457.48" cy="475.92" fill="#0002" r="1.6666666666666667" stroke="none" />
<circle cx="457.62" cy="476.31" fill="#0002" r="1.6666666666666667" stroke="none" />
<circle cx="457.76" cy="476.65" fill="#0002" r="1.6666666666666667" stroke="none" />
<circle cx="457.90" cy="475.96" fill="#0002" r="1.6666666666666667" stroke="none" />
<circle cx="458.03" cy="475.72" fill="#0002" r="1.6666666666666667" stroke="none" />
<circle cx="458.18" cy="478.57" fill="#0002" r="1.6666666666666667" stroke="none" />
<circle cx="458.32" cy="477.04" fill="#0002" r="1.6666666666666667" stroke="none" />
<circle cx="458.46" cy="475.72" fill="#0002" r="1.6666666666666667" stroke="none" />
<circle cx="458.60" cy="477.09" fill="#0002" r="1.6666666666666667" stroke="none" />
<circle cx="458.74" cy="477.48" fill="#0002" r="1.6666666666666667" stroke="none" />
<circle cx="458.88" cy="476.31" fill="#0002" r="1.6666666666666667" stroke="none" />
<circle cx="459.02" cy="477.70" fill="#0002" r="1.6666666666666667" stroke="none" />
<circle cx="467.31" cy="471.04" fill="#0002" r="1.6666666666666667" stroke="none" />
<circle cx="467.43" cy="471.91" fill="#0002" r="1.6666666666666667" stroke="none" />
<circle cx="467.56" cy="474.53" fill="#0002" r="1.6666666666666667" stroke="none" />
<circle cx="467.69" cy="473.07" fill="#0002" r="1.6666666666666667" stroke="none" />
<circle cx="467.82" cy="473.75" fill="#0002" r="1.6666666666666667" stroke="none" />
<circle cx="467.94" cy="473.44" fill="#0002" r="1.6666666666666667" stroke="none" />
<circle cx="468.07" cy="472.40" fill="#0002" r="1.6666666666666667" stroke="none" />
<circle cx="468.19" cy="472.85" fill="#0002" r="1.6666666666666667" stroke="none" />
<circle cx="468.31" cy="472.00" fill="#0002" r="1.6666666666666667" stroke="none" />
<circle cx="468.44" cy="472.74" fill="#0002" r="1.6666666666666667" stroke="none" />
<circle cx="468.56" cy="472.03" fill="#0002" r="1.6666666666666667" stroke="none" />
<circle cx="468.69" cy="472.75" fill="#0002" r="1.6666666666666667" stroke="none" />
<circle cx="468.81" cy="472.69" fill="#0002" r="1.6666666666666667" stroke="none" />
<circle cx="468.94" cy="473.99" fill="#0002" r="1.6666666666666667" stroke="none" />
<circle cx="469.07" cy="473.64" fill="#0002" r="1.6666666666666667" stroke="none" />
<circle cx="469.20" cy="473.82" fill="#0002" r="1.6666666666666667" stroke="none" />
<circle cx="469.32" cy="473.49" fill="#0002" r="1.6666666666666667" stroke="none" />
<circle cx="469.45" cy="472.16" fill="#0002" r="1.6666666666666667" stroke="none" />
<circle cx="469.57" cy="473.00" fill="#0002" r="1.6666666666666667" stroke="none" />
<circle cx="469.70" cy="473.50" fill="#0002" r="1.6666666666666667" stroke="none" />
<circle cx="469.83" cy="473.33" fill="#0002" r="1.6666666666666667" stroke="none" />
<circle cx="469.95" cy="472.26" fill="#0002" r="1.6666666666666667" stroke="none" />
<circle cx="470.08" cy="473.84" fill="#0002" r="1.6666666666666667" stroke="none" />
<circle cx="470.21" cy="473.82" fill="#0002" r="1.6666666666666667" stroke="none" />
<circle cx="470.33" cy="471.32" fill="#0002" r="1.6666666666666667" stroke="none" />
<circle cx="470.45" cy="471.61" fill="#0002" r="1.6666666666666667" stroke="none" />
<circle cx="470.57" cy="472.01" fill="#0002" r="1.6666666666666667" stroke="none" />
<circle cx="470.69" cy="472.04" fill="#0002" r="1.6666666666666667" stroke="none" />
<circle cx="470.82" cy="472.12" fill="#0002" r="1.6666666666666667" stroke="none" />
<circle cx="470.94" cy="472.08" fill="#0002" r="1.6666666666666667" stroke="none" />
<circle cx="471.07" cy="473.24" fill="#0002" r="1.6666666666666667" stroke="none" />
<circle cx="471.18" cy="470.64" fill="#0002" r="1.6666666666666667" stroke="none" />
<circle cx="471.31" cy="472.39" fill="#0002" r="1.6666666666666667" stroke="none" />
<circle cx="471.43" cy="472.40" fill="#0002" r="1.6666666666666667" stroke="none" />
<circle cx="471.55" cy="471.89" fill="#0002" r="1.6666666666666667" stroke="none" />
<circle cx="471.67" cy="471.25" fill="#0002" r="1.6666666666666667" stroke="none" />
<circle cx="471.79" cy="472.18" fill="#0002" r="1.6666666666666667" stroke="none" />
<circle cx="471.92" cy="472.25" fill="#0002" r="1.6666666666666667" stroke="none" />
<circle cx="472.05" cy="473.60" fill="#0002" r="1.6666666666666667" stroke="none" />
<circle cx="472.17" cy="473.03" fill="#0002" r="1.6666666666666667" stroke="none" />
<circle cx="472.30" cy="472.40" fill="#0002" r="1.6666666666666667" stroke="none" />
<circle cx="472.42" cy="472.18" fill="#0002" r="1.6666666666666667" stroke="none" />
<circle cx="472.54" cy="471.63" fill="#0002" r="1.6666666666666667" stroke="none" />
<circle cx="472.66" cy="471.96" fill="#0002" r="1.6666666666666667" stroke="none" />
<circle cx="472.79" cy="472.65" fill="#0002" r="1.6666666666666667" stroke="none" />
<circle cx="472.91" cy="472.65" fill="#0002" r="1.6666666666666667" stroke="none" />
<circle cx="473.04" cy="473.49" fill="#0002" r="1.6666666666666667" stroke="none" />
<circle cx="473.16" cy="472.52" fill="#0002" r="1.6666666666666667" stroke="none" />
<circle cx="473.28" cy="471.94" fill="#0002" r="1.6666666666666667" stroke="none" />
<circle cx="473.41" cy="471.80" fill="#0002" r="1.6666666666666667" stroke="none" />
<circle cx="473.53" cy="472.55" fill="#0002" r="1.6666666666666667" stroke="none" />
<circle cx="473.65" cy="471.03" fill="#0002" r="1.6666666666666667" stroke="none" />
<circle cx="473.77" cy="472.39" fill="#0002" r="1.6666666666666667" stroke="none" />
<circle cx="473.89" cy="471.25" fill="#0002" r="1.6666666666666667" stroke="none" />
<circle cx="474.01" cy="471.51" fill="#0002" r="1.6666666666666667" stroke="none" />
<circle cx="474.13" cy="471.20" fill="#0002" r="1.6666666666666667" stroke="none" />
<circle cx="474.25" cy="472.16" fill="#0002" r="1.6666666666666667" stroke="none" />
<circle cx="474.38" cy="472.42" fill="#0002" r="1.6666666666666667" stroke="none" />
<circle cx="474.50" cy="473.18" fill="#0002" r="1.6666666666666667" stroke="none" />
<circle cx="474.63" cy="472.50" fill="#0002" r="1.6666666666666667" stroke="none" />
<circle cx="474.75" cy="471.93" fill="#0002" r="1.6666666666666667" stroke="none" />
<circle cx="474.88" cy="473.06" fill="#0002" r="1.6666666666666667" stroke="none" />
<circle cx="475.00" cy="473.27" fill="#0002" r="1.6666666666666667" stroke="none" />
<circle cx="475.13" cy="473.07" fill="#0002" r="1.6666666666666667" stroke="none" />
<circle cx="475.25" cy="471.93" fill="#0002" r="1.6666666666666667" stroke="none" />
<circle cx="475.38" cy="472.79" fill="#0002" r="1.6666666666666667" stroke="none" />
<circle cx="475.50" cy="473.45" fill="#0002" r="1.6666666666666667" stroke="none" />
<circle cx="475.63" cy="473.08" fill="#0002" r="1.6666666666666667" stroke="none" />
<circle cx="475.75" cy="472.62" fill="#0002" r="1.6666666666666667" stroke="none" />
<circle cx="475.88" cy="473.30" fill="#0002" r="1.6666666666666667" stroke="none" />
<circle cx="476.01" cy="473.19" fill="#0002" r="1.6666666666666667" stroke="none" />
<circle cx="476.13" cy="472.88" fill="#0002" r="1.6666666666666667" stroke="none" />
<circle cx="476.26" cy="472.28" fill="#0002" r="1.6666666666666667" stroke="none" />
<circle cx="476.38" cy="472.57" fill="#0002" r="1.6666666666666667" stroke="none" />
<circle cx="476.51" cy="473.67" fill="#0002" r="1.6666666666666667" stroke="none" />
<circle cx="476.63" cy="472.75" fill="#0002" r="1.6666666666666667" stroke="none" />
<circle cx="476.76" cy="472.34" fill="#0002" r="1.6666666666666667" stroke="none" />
<circle cx="476.88" cy="473.08" fill="#0002" r="1.6666666666666667" stroke="none" />
<circle cx="477.01" cy="473.39" fill="#0002" r="1.6666666666666667" stroke="none" />
<circle cx="477.13" cy="472.29" fill="#0002" r="1.6666666666666667" stroke="none" />
<circle cx="477.26" cy="471.88" fill="#0002" r="1.6666666666666667" stroke="none" />
<circle cx="477.38" cy="471.76" fill="#0002" r="1.6666666666666667" stroke="none" />
<circle cx="477.50" cy="472.35" fill="#0002" r="1.6666666666666667" stroke="none" />
<circle cx="477.62" cy="472.14" fill="#0002" r="1.6666666666666667" stroke="none" />
<circle cx="477.75" cy="472.46" fill="#0002" r="1.6666666666666667" stroke="none" />
<circle cx="477.86" cy="470.16" fill="#0002" r="1.6666666666666667" stroke="none" />
<circle cx="477.98" cy="471.47" fill="#0002" r="1.6666666666666667" stroke="none" />
<circle cx="478.10" cy="470.98" fill="#0002" r="1.6666666666666667" stroke="none" />
<circle cx="478.22" cy="472.18" fill="#0002" r="1.6666666666666667" stroke="none" />
<circle cx="478.35" cy="471.57" fill="#0002" r="1.6666666666666667" stroke="none" />
<circle cx="478.47" cy="472.14" fill="#0002" r="1.6666666666666667" stroke="none" />
<circle cx="478.59" cy="473.07" fill="#0002" r="1.6666666666666667" stroke="none" />
<circle cx="478.72" cy="472.26" fill="#0002" r="1.6666666666666667" stroke="none" />
<circle cx="478.84" cy="471.72" fill="#0002" r="1.6666666666666667" stroke="none" />
<circle cx="478.96" cy="472.30" fill="#0002" r="1.6666666666666667" stroke="none" />
<circle cx="479.08" cy="471.77" fill="#0002" r="1.6666666666666667" stroke="none" />
<circle cx="479.21" cy="473.33" fill="#0002" r="1.6666666666666667" stroke="none" />
<circle cx="479.33" cy="472.64" fill="#0002" r="1.6666666666666667" stroke="none" />
<circle cx="479.46" cy="473.08" fill="#0002" r="1.6666666666666667" stroke="none" />
<circle cx="479.96" cy="520.20" fill="#0002" r="1.6666666666666667" stroke="none" />
<circle cx="480.09" cy="473.76" fill="#0002" r="1.6666666666666667" stroke="none" />
<circle cx="480.21" cy="472.30" fill="#0002" r="1.6666666666666667" stroke="none" />
<circle cx="480.33" cy="472.15" fill="#0002" r="1.6666666666666667" stroke="none" />
<circle cx="480.45" cy="472.04" fill="#0002" r="1.6666666666666667" stroke="none" />
<circle cx="480.58" cy="472.94" fill="#0002" r="1.6666666666666667" stroke="none" />
<circle cx="480.70" cy="473.03" fill="#0002" r="1.6666666666666667" stroke="none" />
<circle cx="480.83" cy="473.01" fill="#0002" r="1.6666666666666667" stroke="none" />
<circle cx="480.96" cy="473.17" fill="#0002" r="1.6666666666666667" stroke="none" />
<circle cx="481.08" cy="472.39" fill="#0002" r="1.6666666666666667" stroke="none" />
<circle cx="481.21" cy="473.73" fill="#0002" r="1.6666666666666667" stroke="none" />
<circle cx="481.33" cy="472.77" fill="#0002" r="1.6666666666666667" stroke="none" />
<circle cx="481.46" cy="473.42" fill="#0002" r="1.6666666666666667" stroke="none" />
<circle cx="481.59" cy="472.73" fill="#0002" r="1.6666666666666667" stroke="none" />
<circle cx="481.71" cy="472.19" fill="#0002" r="1.6666666666666667" stroke="none" />
<circle cx="481.83" cy="472.80" fill="#0002" r="1.6666666666666667" stroke="none" />
<circle cx="481.96" cy="472.26" fill="#0002" r="1.6666666666666667" stroke="none" />
<circle cx="482.08" cy="471.34" fill="#0002" r="1.6666666666666667" stroke="none" />
<circle cx="482.21" cy="473.79" fill="#0002" r="1.6666666666666667" stroke="none" />
<circle cx="482.33" cy="473.26" fill="#0002" r="1.6666666666666667" stroke="none" />
<circle cx="482.46" cy="473.27" fill="#0002" r="1.6666666666666667" stroke="none" />
<circle cx="482.59" cy="472.97" fill="#0002" r="1.6666666666666667" stroke="none" />
<circle cx="482.72" cy="474.26" fill="#0002" r="1.6666666666666667" stroke="none" />
<circle cx="482.85" cy="473.90" fill="#0002" r="1.6666666666666667" stroke="none" />
<circle cx="482.97" cy="473.14" fill="#0002" r="1.6666666666666667" stroke="none" />
<circle cx="483.09" cy="472.18" fill="#0002" r="1.6666666666666667" stroke="none" />
<circle cx="483.21" cy="470.63" fill="#0002" r="1.6666666666666667" stroke="none" />
<circle cx="483.33" cy="470.79" fill="#0002" r="1.6666666666666667" stroke="none" />
<circle cx="483.45" cy="470.30" fill="#0002" r="1.6666666666666667" stroke="none" />
<circle cx="483.56" cy="470.82" fill="#0002" r="1.6666666666666667" stroke="none" />
<circle cx="483.68" cy="470.25" fill="#0002" r="1.6666666666666667" stroke="none" />
<circle cx="483.79" cy="469.41" fill="#0002" r="1.6666666666666667" stroke="none" />
<circle cx="483.91" cy="470.42" fill="#0002" r="1.6666666666666667" stroke="none" />
<circle cx="484.02" cy="469.05" fill="#0002" r="1.6666666666666667" stroke="none" />
<circle cx="484.13" cy="468.65" fill="#0002" r="1.6666666666666667" stroke="none" />
<circle cx="484.25" cy="470.32" fill="#0002" r="1.6666666666666667" stroke="none" />
<circle cx="484.37" cy="470.66" fill="#0002" r="1.6666666666666667" stroke="none" />
<circle cx="484.48" cy="470.11" fill="#0002" r="1.6666666666666667" stroke="none" />
<circle cx="484.60" cy="470.62" fill="#0002" r="1.6666666666666667" stroke="none" />
<circle cx="484.71" cy="469.76" fill="#0002" r="1.6666666666666667" stroke="none" />
<circle cx="484.83" cy="470.89" fill="#0002" r="1.6666666666666667" stroke="none" />
<circle cx="484.95" cy="470.86" fill="#0002" r="1.6666666666666667" stroke="none" />
<circle cx="485.07" cy="470.19" fill="#0002" r="1.6666666666666667" stroke="none" />
<circle cx="485.18" cy="469.76" fill="#0002" r="1.6666666666666667" stroke="none" />
<circle cx="485.31" cy="472.60" fill="#0002" r="1.6666666666666667" stroke="none" />
<circle cx="485.43" cy="473.50" fill="#0002" r="1.6666666666666667" stroke="none" />
<circle cx="485.56" cy="473.12" fill="#0002" r="1.6666666666666667" stroke="none" />
<circle cx="485.69" cy="472.83" fill="#0002" r="1.6666666666666667" stroke="none" />
<circle cx="485.81" cy="472.73" fill="#0002" r="1.6666666666666667" stroke="none" />
<circle cx="485.94" cy="474.04" fill="#0002" r="1.6666666666666667" stroke="none" />
<circle cx="486.07" cy="473.16" fill="#0002" r="1.6666666666666667" stroke="none" />
<circle cx="486.19" cy="473.17" fill="#0002" r="1.6666666666666667" stroke="none" />
<circle cx="486.32" cy="472.58" fill="#0002" r="1.6666666666666667" stroke="none" />
<circle cx="486.44" cy="472.99" fill="#0002" r="1.6666666666666667" stroke="none" />
<circle cx="486.57" cy="473.35" fill="#0002" r="1.6666666666666667" stroke="none" />
<circle cx="486.70" cy="473.30" fill="#0002" r="1.6666666666666667" stroke="none" />
<circle cx="486.83" cy="473.84" fill="#0002" r="1.6666666666666667" stroke="none" />
<circle cx="486.96" cy="474.86" fill="#0002" r="1.6666666666666667" stroke="none" />
<circle cx="487.09" cy="474.44" fill="#0002" r="1.6666666666666667" stroke="none" />
<circle cx="487.22" cy="473.06" fill="#0002" r="1.6666666666666667" stroke="none" />
<circle cx="487.34" cy="473.22" fill="#0002" r="1.6666666666666667" stroke="none" />
<circle cx="487.47" cy="474.26" fill="#0002" r="1.6666666666666667" stroke="none" />
<circle cx="487.60" cy="473.41" fill="#0002" r="1.6666666666666667" stroke="none" />
<circle cx="487.72" cy="472.53" fill="#0002" r="1.6666666666666667" stroke="none" />
<circle cx="487.86" cy="474.58" fill="#0002" r="1.6666666666666667" stroke="none" />
<circle cx="487.98" cy="473.94" fill="#0002" r="1.6666666666666667" stroke="none" />
<circle cx="488.12" cy="474.56" fill="#0002" r="1.6666666666666667" stroke="none" />
<circle cx="488.25" cy="474.64" fill="#0002" r="1.6666666666666667" stroke="none" />
<circle cx="488.38" cy="474.00" fill="#0002" r="1.6666666666666667" stroke="none" />
<circle cx="488.51" cy="474.19" fill="#0002" r="1.6666666666666667" stroke="none" />
<circle cx="488.64" cy="473.96" fill="#0002" r="1.6666666666666667" stroke="none" />
<circle cx="488.77" cy="474.35" fill="#0002" r="1.6666666666666667" stroke="none" />
<circle cx="488.90" cy="474.40" fill="#0002" r="1.6666666666666667" stroke="none" />
<circle cx="489.03" cy="474.71" fill="#0002" r="1.6666666666666667" stroke="none" />
<circle cx="489.16" cy="474.86" fill="#0002" r="1.6666666666666667" stroke="none" />
<circle cx="489.29" cy="473.80" fill="#0002" r="1.6666666666666667" stroke="none" />
<circle cx="489.42" cy="474.47" fill="#0002" r="1.6666666666666667" stroke="none" />
<circle cx="489.55" cy="473.93" fill="#0002" r="1.6666666666666667" stroke="none" />
<circle cx="489.68" cy="474.06" fill="#0002" r="1.6666666666666667" stroke="none" />
<circle cx="489.82" cy="474.93" fill="#0002" r="1.6666666666666667" stroke="none" />
<circle cx="489.95" cy="473.73" fill="#0002" r="1.6666666666666667" stroke="none" />
<circle cx="490.08" cy="474.28" fill="#0002" r="1.6666666666666667" stroke="none" />
<circle cx="490.21" cy="475.42" fill="#0002" r="1.6666666666666667" stroke="none" />
<circle cx="490.34" cy="472.67" fill="#0002" r="1.6666666666666667" stroke="none" />
<circle cx="490.46" cy="473.46" fill="#0002" r="1.6666666666666667" stroke="none" />
<circle cx="490.59" cy="474.44" fill="#0002" r="1.6666666666666667" stroke="none" />
<circle cx="490.72" cy="473.32" fill="#0002" r="1.6666666666666667" stroke="none" />
<circle cx="490.85" cy="475.03" fill="#0002" r="1.6666666666666667" stroke="none" />
<circle cx="490.99" cy="475.07" fill="#0002" r="1.6666666666666667" stroke="none" />
<circle cx="491.13" cy="476.24" fill="#0002" r="1.6666666666666667" stroke="none" />
<circle cx="491.26" cy="476.13" fill="#0002" r="1.6666666666666667" stroke="none" />
<circle cx="491.39" cy="473.68" fill="#0002" r="1.6666666666666667" stroke="none" />
<circle cx="491.52" cy="473.97" fill="#0002" r="1.6666666666666667" stroke="none" />
<circle cx="491.65" cy="474.76" fill="#0002" r="1.6666666666666667" stroke="none" />
<circle cx="491.79" cy="475.29" fill="#0002" r="1.6666666666666667" stroke="none" />
<circle cx="491.92" cy="473.86" fill="#0002" r="1.6666666666666667" stroke="none" />
<circle cx="492.05" cy="474.57" fill="#0002" r="1.6666666666666667" stroke="none" />
<circle cx="492.19" cy="475.75" fill="#0002" r="1.6666666666666667" stroke="none" />
<circle cx="492.32" cy="474.49" fill="#0002" r="1.6666666666666667" stroke="none" />
<circle cx="492.45" cy="475.10" fill="#0002" r="1.6666666666666667" stroke="none" />
<circle cx="492.58" cy="475.21" fill="#0002" r="1.6666666666666667" stroke="none" />
<circle cx="492.72" cy="474.92" fill="#0002" r="1.6666666666666667" stroke="none" />
<circle cx="492.85" cy="474.36" fill="#0002" r="1.6666666666666667" stroke="none" />
<circle cx="492.98" cy="473.22" fill="#0002" r="1.6666666666666667" stroke="none" />
<circle cx="493.10" cy="473.35" fill="#0002" r="1.6666666666666667" stroke="none" />
<circle cx="493.23" cy="474.74" fill="#0002" r="1.6666666666666667" stroke="none" />
<circle cx="493.37" cy="476.27" fill="#0002" r="1.6666666666666667" stroke="none" />
<circle cx="493.51" cy="474.87" fill="#0002" r="1.6666666666666667" stroke="none" />
<circle cx="493.64" cy="474.80" fill="#0002" r="1.6666666666666667" stroke="none" />
<circle cx="493.77" cy="475.36" fill="#0002" r="1.6666666666666667" stroke="none" />
<circle cx="493.91" cy="474.87" fill="#0002" r="1.6666666666666667" stroke="none" />
<circle cx="494.04" cy="474.48" fill="#0002" r="1.6666666666666667" stroke="none" />
<circle cx="494.16" cy="473.49" fill="#0002" r="1.6666666666666667" stroke="none" />
<circle cx="494.29" cy="474.09" fill="#0002" r="1.6666666666666667" stroke="none" />
<circle cx="494.43" cy="476.02" fill="#0002" r="1.6666666666666667" stroke="none" />
<circle cx="494.57" cy="475.30" fill="#0002" r="1.6666666666666667" stroke="none" />
<circle cx="494.70" cy="475.24" fill="#0002" r="1.6666666666666667" stroke="none" />
<circle cx="494.84" cy="475.71" fill="#0002" r="1.6666666666666667" stroke="none" />
<circle cx="494.97" cy="475.94" fill="#0002" r="1.6666666666666667" stroke="none" />
<circle cx="495.11" cy="476.26" fill="#0002" r="1.6666666666666667" stroke="none" />
<circle cx="495.25" cy="475.52" fill="#0002" r="1.6666666666666667" stroke="none" />
<circle cx="495.39" cy="476.58" fill="#0002" r="1.6666666666666667" stroke="none" />
<circle cx="495.52" cy="474.89" fill="#0002" r="1.6666666666666667" stroke="none" />
<circle cx="495.65" cy="473.51" fill="#0002" r="1.6666666666666667" stroke="none" />
<circle cx="495.78" cy="474.62" fill="#0002" r="1.6666666666666667" stroke="none" />
<circle cx="495.91" cy="474.20" fill="#0002" r="1.6666666666666667" stroke="none" />
<circle cx="496.05" cy="475.95" fill="#0002" r="1.6666666666666667" stroke="none" />
<circle cx="496.18" cy="475.13" fill="#0002" r="1.6666666666666667" stroke="none" />
<circle cx="496.31" cy="475.10" fill="#0002" r="1.6666666666666667" stroke="none" />
<circle cx="496.46" cy="477.60" fill="#0002" r="1.6666666666666667" stroke="none" />
<circle cx="496.60" cy="476.03" fill="#0002" r="1.6666666666666667" stroke="none" />
<circle cx="496.73" cy="475.34" fill="#0002" r="1.6666666666666667" stroke="none" />
<circle cx="496.87" cy="476.70" fill="#0002" r="1.6666666666666667" stroke="none" />
<circle cx="497.01" cy="476.20" fill="#0002" r="1.6666666666666667" stroke="none" />
<circle cx="497.15" cy="476.45" fill="#0002" r="1.6666666666666667" stroke="none" />
<circle cx="497.29" cy="476.35" fill="#0002" r="1.6666666666666667" stroke="none" />
<circle cx="497.84" cy="523.90" fill="#0002" r="1.6666666666666667" stroke="none" />
<circle cx="497.97" cy="475.63" fill="#0002" r="1.6666666666666667" stroke="none" />
<circle cx="498.11" cy="476.47" fill="#0002" r="1.6666666666666667" stroke="none" />
<circle cx="498.25" cy="476.34" fill="#0002" r="1.6666666666666667" stroke="none" />
<circle cx="498.39" cy="476.72" fill="#0002" r="1.6666666666666667" stroke="none" />
<circle cx="498.53" cy="477.27" fill="#0002" r="1.6666666666666667" stroke="none" />
<circle cx="498.67" cy="476.66" fill="#0002" r="1.6666666666666667" stroke="none" />
<circle cx="498.81" cy="475.63" fill="#0002" r="1.6666666666666667" stroke="none" />
<circle cx="498.95" cy="476.00" fill="#0002" r="1.6666666666666667" stroke="none" />
<circle cx="499.09" cy="477.11" fill="#0002" r="1.6666666666666667" stroke="none" />
<circle cx="499.23" cy="476.72" fill="#0002" r="1.6666666666666667" stroke="none" />
<circle cx="499.37" cy="475.95" fill="#0002" r="1.6666666666666667" stroke="none" />
<circle cx="499.51" cy="477.88" fill="#0002" r="1.6666666666666667" stroke="none" />
<circle cx="499.66" cy="478.08" fill="#0002" r="1.6666666666666667" stroke="none" />
<circle cx="499.80" cy="476.76" fill="#0002" r="1.6666666666666667" stroke="none" />
<circle cx="499.94" cy="476.46" fill="#0002" r="1.6666666666666667" stroke="none" />
<circle cx="500.08" cy="477.58" fill="#0002" r="1.6666666666666667" stroke="none" />
<circle cx="500.22" cy="475.99" fill="#0002" r="1.6666666666666667" stroke="none" />
<circle cx="500.36" cy="477.11" fill="#0002" r="1.6666666666666667" stroke="none" />
<circle cx="500.50" cy="475.60" fill="#0002" r="1.6666666666666667" stroke="none" />
<circle cx="500.63" cy="475.83" fill="#0002" r="1.6666666666666667" stroke="none" />
<circle cx="500.77" cy="477.01" fill="#0002" r="1.6666666666666667" stroke="none" />
<circle cx="500.91" cy="476.09" fill="#0002" r="1.6666666666666667" stroke="none" />
<circle cx="501.05" cy="476.81" fill="#0002" r="1.6666666666666667" stroke="none" />
<circle cx="501.19" cy="477.46" fill="#0002" r="1.6666666666666667" stroke="none" />
<circle cx="501.34" cy="477.76" fill="#0002" r="1.6666666666666667" stroke="none" />
<circle cx="501.48" cy="476.94" fill="#0002" r="1.6666666666666667" stroke="none" />
<circle cx="501.63" cy="477.99" fill="#0002" r="1.6666666666666667" stroke="none" />
<circle cx="501.77" cy="477.71" fill="#0002" r="1.6666666666666667" stroke="none" />
<circle cx="501.92" cy="478.80" fill="#0002" r="1.6666666666666667" stroke="none" />
<circle cx="502.06" cy="477.77" fill="#0002" r="1.6666666666666667" stroke="none" />
<circle cx="502.21" cy="478.11" fill="#0002" r="1.6666666666666667" stroke="none" />
<circle cx="502.35" cy="477.68" fill="#0002" r="1.6666666666666667" stroke="none" />
<circle cx="502.50" cy="477.70" fill="#0002" r="1.6666666666666667" stroke="none" />
<circle cx="502.64" cy="477.29" fill="#0002" r="1.6666666666666667" stroke="none" />
<circle cx="502.79" cy="478.06" fill="#0002" r="1.6666666666666667" stroke="none" />
<circle cx="502.93" cy="477.59" fill="#0002" r="1.6666666666666667" stroke="none" />
<circle cx="503.07" cy="477.10" fill="#0002" r="1.6666666666666667" stroke="none" />
<circle cx="503.21" cy="477.51" fill="#0002" r="1.6666666666666667" stroke="none" />
<circle cx="503.36" cy="477.89" fill="#0002" r="1.6666666666666667" stroke="none" />
<circle cx="503.50" cy="477.59" fill="#0002" r="1.6666666666666667" stroke="none" />
<circle cx="503.65" cy="478.03" fill="#0002" r="1.6666666666666667" stroke="none" />
<circle cx="503.80" cy="478.19" fill="#0002" r="1.6666666666666667" stroke="none" />
<circle cx="503.94" cy="478.11" fill="#0002" r="1.6666666666666667" stroke="none" />
<circle cx="504.08" cy="476.33" fill="#0002" r="1.6666666666666667" stroke="none" />
<circle cx="504.22" cy="476.67" fill="#0002" r="1.6666666666666667" stroke="none" />
<circle cx="504.36" cy="477.69" fill="#0002" r="1.6666666666666667" stroke="none" />
<circle cx="504.51" cy="478.02" fill="#0002" r="1.6666666666666667" stroke="none" />
<circle cx="504.65" cy="477.70" fill="#0002" r="1.6666666666666667" stroke="none" />
<circle cx="504.80" cy="478.55" fill="#0002" r="1.6666666666666667" stroke="none" />
<circle cx="504.95" cy="478.17" fill="#0002" r="1.6666666666666667" stroke="none" />
<circle cx="505.09" cy="478.14" fill="#0002" r="1.6666666666666667" stroke="none" />
<circle cx="505.24" cy="477.30" fill="#0002" r="1.6666666666666667" stroke="none" />
<circle cx="505.38" cy="477.18" fill="#0002" r="1.6666666666666667" stroke="none" />
<circle cx="505.53" cy="478.31" fill="#0002" r="1.6666666666666667" stroke="none" />
<circle cx="505.68" cy="478.94" fill="#0002" r="1.6666666666666667" stroke="none" />
<circle cx="505.82" cy="478.40" fill="#0002" r="1.6666666666666667" stroke="none" />
<circle cx="505.97" cy="478.45" fill="#0002" r="1.6666666666666667" stroke="none" />
<circle cx="506.11" cy="477.76" fill="#0002" r="1.6666666666666667" stroke="none" />
<circle cx="506.26" cy="477.53" fill="#0002" r="1.6666666666666667" stroke="none" />
<circle cx="506.40" cy="478.28" fill="#0002" r="1.6666666666666667" stroke="none" />
<circle cx="506.55" cy="477.82" fill="#0002" r="1.6666666666666667" stroke="none" />
<circle cx="506.70" cy="478.12" fill="#0002" r="1.6666666666666667" stroke="none" />
<circle cx="506.84" cy="478.96" fill="#0002" r="1.6666666666666667" stroke="none" />
<circle cx="506.99" cy="478.76" fill="#0002" r="1.6666666666666667" stroke="none" />
<circle cx="507.13" cy="476.99" fill="#0002" r="1.6666666666666667" stroke="none" />
<circle cx="507.28" cy="477.56" fill="#0002" r="1.6666666666666667" stroke="none" />
<circle cx="507.42" cy="477.17" fill="#0002" r="1.6666666666666667" stroke="none" />
<circle cx="507.57" cy="478.76" fill="#0002" r="1.6666666666666667" stroke="none" />
<circle cx="507.72" cy="478.13" fill="#0002" r="1.6666666666666667" stroke="none" />
<circle cx="507.86" cy="478.94" fill="#0002" r="1.6666666666666667" stroke="none" />
<circle cx="508.02" cy="479.81" fill="#0002" r="1.6666666666666667" stroke="none" />
<circle cx="508.16" cy="477.63" fill="#0002" r="1.6666666666666667" stroke="none" />
<circle cx="508.31" cy="477.57" fill="#0002" r="1.6666666666666667" stroke="none" />
<circle cx="508.45" cy="478.70" fill="#0002" r="1.6666666666666667" stroke="none" />
<circle cx="508.60" cy="478.87" fill="#0002" r="1.6666666666666667" stroke="none" />
<circle cx="508.75" cy="478.55" fill="#0002" r="1.6666666666666667" stroke="none" />
<circle cx="508.90" cy="479.73" fill="#0002" r="1.6666666666666667" stroke="none" />
<circle cx="509.05" cy="479.26" fill="#0002" r="1.6666666666666667" stroke="none" />
<circle cx="509.20" cy="478.87" fill="#0002" r="1.6666666666666667" stroke="none" />
<circle cx="509.35" cy="478.33" fill="#0002" r="1.6666666666666667" stroke="none" />
<circle cx="509.50" cy="478.60" fill="#0002" r="1.6666666666666667" stroke="none" />
<circle cx="509.65" cy="479.09" fill="#0002" r="1.6666666666666667" stroke="none" />
<circle cx="509.80" cy="478.89" fill="#0002" r="1.6666666666666667" stroke="none" />
<circle cx="509.95" cy="479.58" fill="#0002" r="1.6666666666666667" stroke="none" />
<circle cx="510.10" cy="479.79" fill="#0002" r="1.6666666666666667" stroke="none" />
<circle cx="510.25" cy="478.46" fill="#0002" r="1.6666666666666667" stroke="none" />
<circle cx="510.40" cy="478.71" fill="#0002" r="1.6666666666666667" stroke="none" />
<circle cx="510.55" cy="478.53" fill="#0002" r="1.6666666666666667" stroke="none" />
<circle cx="510.69" cy="478.20" fill="#0002" r="1.6666666666666667" stroke="none" />
<circle cx="510.84" cy="478.20" fill="#0002" r="1.6666666666666667" stroke="none" />
<circle cx="510.99" cy="479.33" fill="#0002" r="1.6666666666666667" stroke="none" />
<circle cx="511.15" cy="480.10" fill="#0002" r="1.6666666666666667" stroke="none" />
<circle cx="511.29" cy="478.70" fill="#0002" r="1.6666666666666667" stroke="none" />
<circle cx="511.45" cy="479.55" fill="#0002" r="1.6666666666666667" stroke="none" />
<circle cx="511.60" cy="479.58" fill="#0002" r="1.6666666666666667" stroke="none" />
<circle cx="511.76" cy="481.40" fill="#0002" r="1.6666666666666667" stroke="none" />
<circle cx="511.92" cy="480.73" fill="#0002" r="1.6666666666666667" stroke="none" />
<circle cx="512.08" cy="481.58" fill="#0002" r="1.6666666666666667" stroke="none" />
<circle cx="512.24" cy="481.29" fill="#0002" r="1.6666666666666667" stroke="none" />
<circle cx="512.39" cy="480.29" fill="#0002" r="1.6666666666666667" stroke="none" />
<circle cx="512.55" cy="480.93" fill="#0002" r="1.6666666666666667" stroke="none" />
<circle cx="512.71" cy="480.62" fill="#0002" r="1.6666666666666667" stroke="none" />
<circle cx="512.87" cy="480.62" fill="#0002" r="1.6666666666666667" stroke="none" />
<circle cx="513.02" cy="479.92" fill="#0002" r="1.6666666666666667" stroke="none" />
<circle cx="513.18" cy="481.35" fill="#0002" r="1.6666666666666667" stroke="none" />
<circle cx="513.34" cy="480.31" fill="#0002" r="1.6666666666666667" stroke="none" />
<circle cx="513.49" cy="479.63" fill="#0002" r="1.6666666666666667" stroke="none" />
<circle cx="513.64" cy="479.36" fill="#0002" r="1.6666666666666667" stroke="none" />
<circle cx="513.79" cy="479.39" fill="#0002" r="1.6666666666666667" stroke="none" />
<circle cx="513.95" cy="481.23" fill="#0002" r="1.6666666666666667" stroke="none" />
<circle cx="514.11" cy="481.30" fill="#0002" r="1.6666666666666667" stroke="none" />
<circle cx="514.58" cy="518.32" fill="#0002" r="1.6666666666666667" stroke="none" />
<circle cx="514.74" cy="480.40" fill="#0002" r="1.6666666666666667" stroke="none" />
<circle cx="514.89" cy="480.07" fill="#0002" r="1.6666666666666667" stroke="none" />
<circle cx="515.05" cy="480.52" fill="#0002" r="1.6666666666666667" stroke="none" />
<circle cx="515.20" cy="480.20" fill="#0002" r="1.6666666666666667" stroke="none" />
<circle cx="515.37" cy="481.76" fill="#0002" r="1.6666666666666667" stroke="none" />
<circle cx="515.52" cy="479.10" fill="#0002" r="1.6666666666666667" stroke="none" />
<circle cx="515.67" cy="480.06" fill="#0002" r="1.6666666666666667" stroke="none" />
<circle cx="515.83" cy="481.57" fill="#0002" r="1.6666666666666667" stroke="none" />
<circle cx="515.99" cy="480.40" fill="#0002" r="1.6666666666666667" stroke="none" />
<circle cx="516.15" cy="481.01" fill="#0002" r="1.6666666666666667" stroke="none" />
<circle cx="516.30" cy="480.88" fill="#0002" r="1.6666666666666667" stroke="none" />
<circle cx="516.47" cy="482.61" fill="#0002" r="1.6666666666666667" stroke="none" />
<circle cx="516.62" cy="479.64" fill="#0002" r="1.6666666666666667" stroke="none" />
<circle cx="516.78" cy="480.76" fill="#0002" r="1.6666666666666667" stroke="none" />
<circle cx="516.94" cy="481.68" fill="#0002" r="1.6666666666666667" stroke="none" />
<circle cx="517.10" cy="480.49" fill="#0002" r="1.6666666666666667" stroke="none" />
<circle cx="517.26" cy="481.41" fill="#0002" r="1.6666666666666667" stroke="none" />
<circle cx="517.42" cy="480.72" fill="#0002" r="1.6666666666666667" stroke="none" />
<circle cx="517.58" cy="480.83" fill="#0002" r="1.6666666666666667" stroke="none" />
<circle cx="517.73" cy="480.61" fill="#0002" r="1.6666666666666667" stroke="none" />
<circle cx="517.89" cy="479.89" fill="#0002" r="1.6666666666666667" stroke="none" />
<circle cx="518.05" cy="481.42" fill="#0002" r="1.6666666666666667" stroke="none" />
<circle cx="518.20" cy="480.41" fill="#0002" r="1.6666666666666667" stroke="none" />
<circle cx="518.37" cy="482.21" fill="#0002" r="1.6666666666666667" stroke="none" />
<circle cx="518.53" cy="482.33" fill="#0002" r="1.6666666666666667" stroke="none" />
<circle cx="518.70" cy="482.31" fill="#0002" r="1.6666666666666667" stroke="none" />
<circle cx="518.86" cy="482.03" fill="#0002" r="1.6666666666666667" stroke="none" />
<circle cx="519.03" cy="482.14" fill="#0002" r="1.6666666666666667" stroke="none" />
<circle cx="519.19" cy="482.66" fill="#0002" r="1.6666666666666667" stroke="none" />
<circle cx="519.36" cy="482.24" fill="#0002" r="1.6666666666666667" stroke="none" />
<circle cx="519.52" cy="481.50" fill="#0002" r="1.6666666666666667" stroke="none" />
<circle cx="519.68" cy="482.49" fill="#0002" r="1.6666666666666667" stroke="none" />
<circle cx="519.85" cy="482.09" fill="#0002" r="1.6666666666666667" stroke="none" />
<circle cx="520.01" cy="482.23" fill="#0002" r="1.6666666666666667" stroke="none" />
<circle cx="520.18" cy="482.48" fill="#0002" r="1.6666666666666667" stroke="none" />
<circle cx="520.34" cy="482.26" fill="#0002" r="1.6666666666666667" stroke="none" />
<circle cx="520.51" cy="482.73" fill="#0002" r="1.6666666666666667" stroke="none" />
<circle cx="520.68" cy="482.70" fill="#0002" r="1.6666666666666667" stroke="none" />
<circle cx="520.84" cy="481.65" fill="#0002" r="1.6666666666666667" stroke="none" />
<circle cx="521.00" cy="481.90" fill="#0002" r="1.6666666666666667" stroke="none" />
<circle cx="521.17" cy="483.55" fill="#0002" r="1.6666666666666667" stroke="none" />
<circle cx="521.34" cy="482.39" fill="#0002" r="1.6666666666666667" stroke="none" />
<circle cx="521.51" cy="483.57" fill="#0002" r="1.6666666666666667" stroke="none" />
<circle cx="521.67" cy="482.66" fill="#0002" r="1.6666666666666667" stroke="none" />
<circle cx="521.84" cy="482.08" fill="#0002" r="1.6666666666666667" stroke="none" />
<circle cx="522.00" cy="481.27" fill="#0002" r="1.6666666666666667" stroke="none" />
<circle cx="522.16" cy="482.67" fill="#0002" r="1.6666666666666667" stroke="none" />
<circle cx="522.33" cy="482.55" fill="#0002" r="1.6666666666666667" stroke="none" />
<circle cx="522.50" cy="482.33" fill="#0002" r="1.6666666666666667" stroke="none" />
<circle cx="522.67" cy="483.29" fill="#0002" r="1.6666666666666667" stroke="none" />
<circle cx="522.83" cy="482.94" fill="#0002" r="1.6666666666666667" stroke="none" />
<circle cx="523.00" cy="482.00" fill="#0002" r="1.6666666666666667" stroke="none" />
<circle cx="523.16" cy="482.62" fill="#0002" r="1.6666666666666667" stroke="none" />
<circle cx="523.33" cy="482.98" fill="#0002" r="1.6666666666666667" stroke="none" />
<circle cx="523.50" cy="482.83" fill="#0002" r="1.6666666666666667" stroke="none" />
<circle cx="523.67" cy="483.57" fill="#0002" r="1.6666666666666667" stroke="none" />
<circle cx="523.84" cy="482.80" fill="#0002" r="1.6666666666666667" stroke="none" />
<circle cx="524.00" cy="482.75" fill="#0002" r="1.6666666666666667" stroke="none" />
<circle cx="524.18" cy="484.27" fill="#0002" r="1.6666666666666667" stroke="none" />
<circle cx="524.36" cy="484.82" fill="#0002" r="1.6666666666666667" stroke="none" />
<circle cx="524.53" cy="483.81" fill="#0002" r="1.6666666666666667" stroke="none" />
<circle cx="524.70" cy="484.34" fill="#0002" r="1.6666666666666667" stroke="none" />
<circle cx="524.88" cy="484.38" fill="#0002" r="1.6666666666666667" stroke="none" />
<circle cx="525.05" cy="483.95" fill="#0002" r="1.6666666666666667" stroke="none" />
<circle cx="525.23" cy="484.81" fill="#0002" r="1.6666666666666667" stroke="none" />
<circle cx="525.41" cy="484.84" fill="#0002" r="1.6666666666666667" stroke="none" />
<circle cx="525.58" cy="483.95" fill="#0002" r="1.6666666666666667" stroke="none" />
<circle cx="525.76" cy="484.72" fill="#0002" r="1.6666666666666667" stroke="none" />
<circle cx="525.93" cy="484.67" fill="#0002" r="1.6666666666666667" stroke="none" />
<circle cx="526.11" cy="484.71" fill="#0002" r="1.6666666666666667" stroke="none" />
<circle cx="526.28" cy="484.17" fill="#0002" r="1.6666666666666667" stroke="none" />
<circle cx="526.46" cy="485.44" fill="#0002" r="1.6666666666666667" stroke="none" />
<circle cx="526.64" cy="484.82" fill="#0002" r="1.6666666666666667" stroke="none" />
<circle cx="526.82" cy="485.24" fill="#0002" r="1.6666666666666667" stroke="none" />
<circle cx="527.01" cy="486.10" fill="#0002" r="1.6666666666666667" stroke="none" />
<circle cx="527.18" cy="484.50" fill="#0002" r="1.6666666666666667" stroke="none" />
<circle cx="527.36" cy="485.04" fill="#0002" r="1.6666666666666667" stroke="none" />
<circle cx="527.54" cy="485.87" fill="#0002" r="1.6666666666666667" stroke="none" />
<circle cx="527.72" cy="484.82" fill="#0002" r="1.6666666666666667" stroke="none" />
<circle cx="527.90" cy="485.48" fill="#0002" r="1.6666666666666667" stroke="none" />
<circle cx="528.08" cy="485.47" fill="#0002" r="1.6666666666666667" stroke="none" />
<circle cx="528.26" cy="485.55" fill="#0002" r="1.6666666666666667" stroke="none" />
<circle cx="528.45" cy="486.79" fill="#0002" r="1.6666666666666667" stroke="none" />
<circle cx="528.63" cy="485.22" fill="#0002" r="1.6666666666666667" stroke="none" />
<circle cx="528.81" cy="485.05" fill="#0002" r="1.6666666666666667" stroke="none" />
<circle cx="528.99" cy="486.07" fill="#0002" r="1.6666666666666667" stroke="none" />
<circle cx="529.17" cy="485.53" fill="#0002" r="1.6666666666666667" stroke="none" />
<circle cx="529.35" cy="484.91" fill="#0002" r="1.6666666666666667" stroke="none" />
<circle cx="529.53" cy="485.66" fill="#0002" r="1.6666666666666667" stroke="none" />
<circle cx="529.72" cy="485.87" fill="#0002" r="1.6666666666666667" stroke="none" />
<circle cx="529.89" cy="484.32" fill="#0002" r="1.6666666666666667" stroke="none" />
<circle cx="530.08" cy="486.27" fill="#0002" r="1.6666666666666667" stroke="none" />
<circle cx="530.26" cy="485.42" fill="#0002" r="1.6666666666666667" stroke="none" />
<circle cx="530.44" cy="486.44" fill="#0002" r="1.6666666666666667" stroke="none" />
<circle cx="530.63" cy="486.11" fill="#0002" r="1.6666666666666667" stroke="none" />
<circle cx="530.81" cy="486.67" fill="#0002" r="1.6666666666666667" stroke="none" />
<circle cx="531.37" cy="524.46" fill="#0002" r="1.6666666666666667" stroke="none" />
<circle cx="531.57" cy="488.30" fill="#0002" r="1.6666666666666667" stroke="none" />
<circle cx="531.77" cy="488.05" fill="#0002" r="1.6666666666666667" stroke="none" />
<circle cx="531.95" cy="486.75" fill="#0002" r="1.6666666666666667" stroke="none" />
<circle cx="532.15" cy="488.15" fill="#0002" r="1.6666666666666667" stroke="none" />
<circle cx="532.34" cy="488.01" fill="#0002" r="1.6666666666666667" stroke="none" />
<circle cx="532.54" cy="488.10" fill="#0002" r="1.6666666666666667" stroke="none" />
<circle cx="532.73" cy="488.01" fill="#0002" r="1.6666666666666667" stroke="none" />
<circle cx="532.93" cy="488.85" fill="#0002" r="1.6666666666666667" stroke="none" />
<circle cx="533.13" cy="489.32" fill="#0002" r="1.6666666666666667" stroke="none" />
<circle cx="533.33" cy="488.60" fill="#0002" r="1.6666666666666667" stroke="none" />
<circle cx="533.53" cy="488.69" fill="#0002" r="1.6666666666666667" stroke="none" />
<circle cx="533.73" cy="488.78" fill="#0002" r="1.6666666666666667" stroke="none" />
<circle cx="533.93" cy="489.34" fill="#0002" r="1.6666666666666667" stroke="none" />
<circle cx="534.13" cy="488.83" fill="#0002" r="1.6666666666666667" stroke="none" />
<circle cx="534.34" cy="489.56" fill="#0002" r="1.6666666666666667" stroke="none" />
<circle cx="534.53" cy="488.62" fill="#0002" r="1.6666666666666667" stroke="none" />
<circle cx="534.74" cy="489.64" fill="#0002" r="1.6666666666666667" stroke="none" />
<circle cx="534.94" cy="489.39" fill="#0002" r="1.6666666666666667" stroke="none" />
<circle cx="535.14" cy="488.64" fill="#0002" r="1.6666666666666667" stroke="none" />
<circle cx="535.34" cy="489.44" fill="#0002" r="1.6666666666666667" stroke="none" />
<circle cx="535.54" cy="488.59" fill="#0002" r="1.6666666666666667" stroke="none" />
<circle cx="535.75" cy="490.15" fill="#0002" r="1.6666666666666667" stroke="none" />
<circle cx="535.96" cy="490.85" fill="#0002" r="1.6666666666666667" stroke="none" />
<circle cx="536.16" cy="489.82" fill="#0002" r="1.6666666666666667" stroke="none" />
<circle cx="536.37" cy="490.36" fill="#0002" r="1.6666666666666667" stroke="none" />
<circle cx="536.58" cy="489.84" fill="#0002" r="1.6666666666666667" stroke="none" />
<circle cx="536.78" cy="489.58" fill="#0002" r="1.6666666666666667" stroke="none" />
<circle cx="536.99" cy="489.80" fill="#0002" r="1.6666666666666667" stroke="none" />
<circle cx="537.19" cy="489.86" fill="#0002" r="1.6666666666666667" stroke="none" />
<circle cx="537.39" cy="489.17" fill="#0002" r="1.6666666666666667" stroke="none" />
<circle cx="537.60" cy="489.86" fill="#0002" r="1.6666666666666667" stroke="none" />
<circle cx="537.81" cy="491.15" fill="#0002" r="1.6666666666666667" stroke="none" />
<circle cx="538.03" cy="492.18" fill="#0002" r="1.6666666666666667" stroke="none" />
<circle cx="538.24" cy="490.71" fill="#0002" r="1.6666666666666667" stroke="none" />
<circle cx="538.46" cy="492.07" fill="#0002" r="1.6666666666666667" stroke="none" />
<circle cx="538.67" cy="491.10" fill="#0002" r="1.6666666666666667" stroke="none" />
<circle cx="538.89" cy="491.41" fill="#0002" r="1.6666666666666667" stroke="none" />
<circle cx="539.11" cy="492.44" fill="#0002" r="1.6666666666666667" stroke="none" />
<circle cx="539.33" cy="493.08" fill="#0002" r="1.6666666666666667" stroke="none" />
<circle cx="539.55" cy="492.27" fill="#0002" r="1.6666666666666667" stroke="none" />
<circle cx="539.78" cy="492.86" fill="#0002" r="1.6666666666666667" stroke="none" />
<circle cx="540.02" cy="495.00" fill="#0002" r="1.6666666666666667" stroke="none" />
<circle cx="540.25" cy="494.34" fill="#0002" r="1.6666666666666667" stroke="none" />
<circle cx="540.48" cy="493.77" fill="#0002" r="1.6666666666666667" stroke="none" />
<circle cx="540.71" cy="493.45" fill="#0002" r="1.6666666666666667" stroke="none" />
<circle cx="540.94" cy="494.19" fill="#0002" r="1.6666666666666667" stroke="none" />
<circle cx="541.19" cy="496.19" fill="#0002" r="1.6666666666666667" stroke="none" />
<circle cx="541.42" cy="493.94" fill="#0002" r="1.6666666666666667" stroke="none" />
<circle cx="541.65" cy="494.27" fill="#0002" r="1.6666666666666667" stroke="none" />
<circle cx="541.89" cy="494.07" fill="#0002" r="1.6666666666666667" stroke="none" />
<circle cx="542.16" cy="499.75" fill="#0002" r="1.6666666666666667" stroke="none" />
<circle cx="542.39" cy="494.52" fill="#0002" r="1.6666666666666667" stroke="none" />
<circle cx="542.63" cy="493.95" fill="#0002" r="1.6666666666666667" stroke="none" />
<circle cx="542.86" cy="494.06" fill="#0002" r="1.6666666666666667" stroke="none" />
<circle cx="543.15" cy="502.49" fill="#0002" r="1.6666666666666667" stroke="none" />
<circle cx="543.40" cy="496.12" fill="#0002" r="1.6666666666666667" stroke="none" />
<circle cx="543.65" cy="496.09" fill="#0002" r="1.6666666666666667" stroke="none" />
<circle cx="543.89" cy="495.66" fill="#0002" r="1.6666666666666667" stroke="none" />
<circle cx="544.19" cy="502.93" fill="#0002" r="1.6666666666666667" stroke="none" />
<circle cx="544.44" cy="496.67" fill="#0002" r="1.6666666666666667" stroke="none" />
<circle cx="544.70" cy="497.45" fill="#0002" r="1.6666666666666667" stroke="none" />
<circle cx="544.97" cy="499.16" fill="#0002" r="1.6666666666666667" stroke="none" />
<circle cx="545.23" cy="499.18" fill="#0002" r="1.6666666666666667" stroke="none" />
<circle cx="545.49" cy="497.11" fill="#0002" r="1.6666666666666667" stroke="none" />
</g>
<g stroke="black">
<line x1="892.89" x2="892.89" y1="546.00" y2="556.00" />
<line x1="860.35" x2="860.35" y1="546.00" y2="556.00" />
<line x1="827.80" x2="827.80" y1="546.00" y2="556.00" />
<line x1="796.30" x2="796.30" y1="546.00" y2="556.00" />
<line x1="763.75" x2="763.75" y1="546.00" y2="556.00" />
<line x1="732.25" x2="732.25" y1="546.00" y2="556.00" />
<line x1="699.71" x2="699.71" y1="546.00" y2="556.00" />
<line x1="667.16" x2="667.16" y1="546.00" y2="556.00" />
<line x1="635.66" x2="635.66" y1="546.00" y2="556.00" />
<line x1="603.11" x2="603.11" y1="546.00" y2="556.00" />
<line x1="571.61" x2="571.61" y1="546.00" y2="556.00" />
<line x1="539.07" x2="539.07" y1="546.00" y2="556.00" />
<line x1="508.62" x2="508.62" y1="546.00" y2="556.00" />
<line x1="476.07" x2="476.07" y1="546.00" y2="556.00" />
<line x1="443.52" x2="443.52" y1="546.00" y2="556.00" />
<line x1="412.02" x2="412.02" y1="546.00" y2="556.00" />
<line x1="379.48" x2="379.48" y1="546.00" y2="556.00" />
<line x1="347.98" x2="347.98" y1="546.00" y2="556.00" />
<line x1="315.43" x2="315.43" y1="546.00" y2="556.00" />
<line x1="282.88" x2="282.88" y1="546.00" y2="556.00" />
<line x1="251.38" x2="251.38" y1="546.00" y2="556.00" />
<line x1="218.84" x2="218.84" y1="546.00" y2="556.00" />
<line x1="187.34" x2="187.34" y1="546.00" y2="556.00" />
<line x1="154.79" x2="154.79" y1="546.00" y2="556.00" />
<line x1="125.39" x2="125.39" y1="546.00" y2="556.00" />
<line x1="92.84" x2="92.84" y1="546.00" y2="556.00" />
<g fill="black" font-family="Arial, sans-serif" font-size="18.0" stroke="none" text-anchor="start" transform="translate(9.0 0.0)">
<text x="892.89" y="566.57">Feb</text>
<text x="860.35" y="566.57">Jan</text>
<text x="827.80" y="566.57">Dec</text>
<text x="796.30" y="566.57">Nov</text>
<text x="763.75" y="566.57">Oct</text>
<text x="732.25" y="566.57">Sep</text>
<text x="699.71" y="566.57">Aug</text>
<text x="667.16" y="566.57">Jul</text>
<text x="635.66" y="566.57">Jun</text>
<text x="603.11" y="566.57">May</text>
<text x="571.61" y="566.57">Apr</text>
<text x="539.07" y="566.57">Mar</text>
<text x="508.62" y="566.57">Feb</text>
<text x="476.07" y="566.57">Jan</text>
<text x="443.52" y="566.57">Dec</text>
<text x="412.02" y="566.57">Nov</text>
<text x="379.48" y="566.57">Oct</text>
<text x="347.98" y="566.57">Sep</text>
<text x="315.43" y="566.57">Aug</text>
<text x="282.88" y="566.57">Jul</text>
<text x="251.38" y="566.57">Jun</text>
<text x="218.84" y="566.57">May</text>
<text x="187.34" y="566.57">Apr</text>
<text x="154.79" y="566.57">Mar</text>
<text x="125.39" y="566.57">Feb</text>
<text x="92.84" y="566.57">Jan</text>
</g>
<line x1="90.00" x2="910.00" y1="546.00" y2="546.00" />
</g>
<g stroke="black">
<line x1="90.00" x2="78.00" y1="546.00" y2="546.00" />
<line x1="90.00" x2="78.00" y1="201.94" y2="201.94" />
<g fill="black" font-family="Arial, sans-serif" font-size="18.0" stroke="none" text-anchor="end">
<text x="81.00" y="537.00">0</text>
<text x="81.00" y="192.94">10</text>
</g>
<line x1="90.00" x2="90.00" y1="546.00" y2="54.00" />
</g>
</g>
</g>
</svg>