<?xml version="1.0"?>
<svg version="1.1" viewBox="0 0 1000 600" xmlns:xlink="http://www.w3.org/1999/xlink" xmlns="http://www.w3.org/2000/svg">
<g>
<g>
<g>
<text dominant-baseline="hanging" dx="-18.0" dy="18.0" fill="#0088" font-family="Arial, sans-serif" font-size="18.0" font-style="italic" stroke="none" text-anchor="end" text-orientation="sideways" x="910.00" y="54.00">d18O</text>
</g>
<g>
<g>
<text dominant-baseline="central" fill="#8008" font-size="26.666666666666668" stroke="none" text-anchor="middle" tooltip="Vial    
Date: 2023-09-29
Comment: Note:
- Wasn&apos;t monitored before
- New gauge installed (with legs)
- A bit tricky b/c at the edge
- Not enough tubing to connect water collector
- `:R19` connected" x="377.68" y="199.69">I</text>
<title>Vial    
Date: 2023-09-29
Comment: Note:
- Wasn't monitored before
- New gauge installed (with legs)
- A bit tricky b/c at the edge
- Not enough tubing to connect water collector
- `:R19` connected</title>
</g>
<g>
<text dominant-baseline="central" fill="#8008" font-size="26.666666666666668" stroke="none" text-anchor="middle" tooltip="Vial    
Date: 2023-10-21
Comment: Note:
- no bottle attached
- notes say `:R15`, but unclear how it could have been already attached" x="400.78" y="199.69">I</text>
<title>Vial    
Date: 2023-10-21
Comment: Note:
- no bottle attached
- notes say `:R15`, but unclear how it could have been already attached</title>
</g>
<g>
<text dominant-baseline="central" fill="#8008" font-size="26.666666666666668" stroke="none" text-anchor="middle" tooltip="Vial    :START
Date: 2023-11-03
Comment: Nong: `Just installed the bottle`" vial="START" x="414.43" y="199.69">A</text>
<title>Vial    :START
Date: 2023-11-03
Comment: Nong: `Just installed the bottle`</title>
</g>
<g>
<text dominant-baseline="central" fill="#8008" font-size="26.666666666666668" stroke="none" text-anchor="middle" tooltip="Vial    :AYEC
Date: 2023-12-23
Comment: " vial="AYEC" x="466.93" y="199.69">A</text>
<title>Vial    :AYEC
Date: 2023-12-23
Comment: </title>
</g>
<g>
<text dominant-baseline="central" fill="#8008" font-size="26.666666666666668" stroke="none" text-anchor="middle" tooltip="Vial    :ASWD
Date: 2024-02-22
Comment: " vial="ASWD" x="530.97" y="199.69">A</text>
<title>Vial    :ASWD
Date: 2024-02-22
Comment: </title>
</g>
<g>
<text dominant-baseline="central" fill="#8008" font-size="26.666666666666668" stroke="none" text-anchor="middle" tooltip="Vial    :ALSC
Date: 2024-05-31
Comment: " vial="ALSC" x="634.92" y="199.69">A</text>
<title>Vial    :ALSC
Date: 2024-05-31
Comment: </title>
</g>
<g>
<text dominant-baseline="central" fill="#8008" font-size="26.666666666666668" stroke="none" text-anchor="middle" tooltip="Vial    :ALSC
Date: 2024-06-17
Comment: Not in the images.. Not sure why" vial="ALSC" x="652.77" y="199.69">A</text>
<title>Vial    :ALSC
Date: 2024-06-17
Comment: Not in the images.. Not sure why</title>
</g>
<g>
<text dominant-baseline="central" fill="#8008" font-size="26.666666666666668" stroke="none" text-anchor="middle" tooltip="Vial    :NONE
Date: 2024-07-06
Comment: " vial="NONE" x="672.71" y="199.69">A</text>
<title>Vial    :NONE
Date: 2024-07-06
Comment: </title>
</g>
</g>
<polyline fill="none" points="660.12,366.09" stroke-dasharray="3.6 3.6" stroke-width="3.6" stroke="#0804" />
<polyline fill="none" points="619.17,318.71 599.22,298.05 587.67,307.77 568.77,306.47 545.67,299.06" stroke-dasharray="3.6 3.6" stroke-width="3.6" stroke="#0804" />
<polyline fill="none" points="514.17,309.06 497.38,309.06 479.53,193.18" stroke-dasharray="3.6 3.6" stroke-width="3.6" stroke="#0804" />
<polyline fill="none" points="455.38,205.51 433.33,314.90" stroke-dasharray="3.6 3.6" stroke-width="3.6" stroke="#0804" />
<g>
<g>
<circle cx="433.33" cy="314.90" fill="#0088" r="3.3333333333333335" stroke="#0088" tooltip="Vial    :ANKZ
Date: 2023-11-21
Comment: Nong: `Just installed the bottle` - little water" vial="ANKZ" />
<title>Vial    :ANKZ
Date: 2023-11-21
Comment: Nong: `Just installed the bottle` - little water</title>
</g>
<g>
<circle cx="455.38" cy="205.51" fill="#0088" r="3.3333333333333335" stroke="#0088" tooltip="Vial    :AHUQ
Date: 2023-12-12
Comment: " vial="AHUQ" />
<title>Vial    :AHUQ
Date: 2023-12-12
Comment: </title>
</g>
<g>
<circle cx="479.53" cy="193.18" fill="#0088" r="3.3333333333333335" stroke="#0088" tooltip="Vial    :AAXP
Date: 2024-01-04
Comment: " vial="AAXP" />
<title>Vial    :AAXP
Date: 2024-01-04
Comment: </title>
</g>
<g>
<circle cx="497.38" cy="309.06" fill="#0088" r="3.3333333333333335" stroke="#0088" tooltip="Vial    :AEQE
Date: 2024-01-21
Comment: " vial="AEQE" />
<title>Vial    :AEQE
Date: 2024-01-21
Comment: </title>
</g>
<g>
<circle cx="514.17" cy="309.06" fill="#0088" r="3.3333333333333335" stroke="#0088" tooltip="Vial    :AEQE
Date: 2024-02-06
Comment: TODO: Logger not changed! Still `:R15` Ask Nong" vial="AEQE" />
<title>Vial    :AEQE
Date: 2024-02-06
Comment: TODO: Logger not changed! Still `:R15` Ask Nong</title>
</g>
<g>
<circle cx="545.67" cy="299.06" fill="#0088" r="3.3333333333333335" stroke="#0088" tooltip="Vial    :ARDU
Date: 2024-03-07
Comment: " vial="ARDU" />
<title>Vial    :ARDU
Date: 2024-03-07
Comment: </title>
</g>
<g>
<circle cx="568.77" cy="306.47" fill="#0088" r="3.3333333333333335" stroke="#0088" tooltip="Vial    :AZKJ
Date: 2024-03-29
Comment: " vial="AZKJ" />
<title>Vial    :AZKJ
Date: 2024-03-29
Comment: </title>
</g>
<g>
<circle cx="587.67" cy="307.77" fill="#0088" r="3.3333333333333335" stroke="#0088" tooltip="Vial    :AMDX
Date: 2024-04-16
Comment: " vial="AMDX" />
<title>Vial    :AMDX
Date: 2024-04-16
Comment: </title>
</g>
<g>
<circle cx="599.22" cy="298.05" fill="#0088" r="3.3333333333333335" stroke="#0088" tooltip="Vial    :ARMU
Date: 2024-04-27
Comment: SD Card doesn&apos;t read!!
Weird.. last time it was the same logger. Maybe he didn&apos;t change it" vial="ARMU" />
<title>Vial    :ARMU
Date: 2024-04-27
Comment: SD Card doesn't read!!
Weird.. last time it was the same logger. Maybe he didn't change it</title>
</g>
<g>
<circle cx="619.17" cy="318.71" fill="#0088" r="3.3333333333333335" stroke="#0088" tooltip="Vial    :AVSU
Date: 2024-05-16
Comment: " vial="AVSU" />
<title>Vial    :AVSU
Date: 2024-05-16
Comment: </title>
</g>
<g>
<circle cx="660.12" cy="366.09" fill="#0088" r="3.3333333333333335" stroke="#0088" tooltip="Vial    :AATV
Date: 2024-06-24
Comment: " vial="AATV" />
<title>Vial    :AATV
Date: 2024-06-24
Comment: </title>
</g>
</g>
<g stroke="#0088">
<line x1="892.89" x2="892.89" y1="54.00" y2="54.00" />
<line x1="860.35" x2="860.35" y1="54.00" y2="54.00" />
<line x1="827.80" x2="827.80" y1="54.00" y2="54.00" />
<line x1="796.30" x2="796.30" y1="54.00" y2="54.00" />
<line x1="763.75" x2="763.75" y1="54.00" y2="54.00" />
<line x1="732.25" x2="732.25" y1="54.00" y2="54.00" />
<line x1="699.71" x2="699.71" y1="54.00" y2="54.00" />
<line x1="667.16" x2="667.16" y1="54.00" y2="54.00" />
<line x1="635.66" x2="635.66" y1="54.00" y2="54.00" />
<line x1="603.11" x2="603.11" y1="54.00" y2="54.00" />
<line x1="571.61" x2="571.61" y1="54.00" y2="54.00" />
<line x1="539.07" x2="539.07" y1="54.00" y2="54.00" />
<line x1="508.62" x2="508.62" y1="54.00" y2="54.00" />
<line x1="476.07" x2="476.07" y1="54.00" y2="54.00" />
<line x1="443.52" x2="443.52" y1="54.00" y2="54.00" />
<line x1="412.02" x2="412.02" y1="54.00" y2="54.00" />
<line x1="379.48" x2="379.48" y1="54.00" y2="54.00" />
<line x1="347.98" x2="347.98" y1="54.00" y2="54.00" />
<line x1="315.43" x2="315.43" y1="54.00" y2="54.00" />
<line x1="282.88" x2="282.88" y1="54.00" y2="54.00" />
<line x1="251.38" x2="251.38" y1="54.00" y2="54.00" />
<line x1="218.84" x2="218.84" y1="54.00" y2="54.00" />
<line x1="187.34" x2="187.34" y1="54.00" y2="54.00" />
<line x1="154.79" x2="154.79" y1="54.00" y2="54.00" />
<line x1="125.39" x2="125.39" y1="54.00" y2="54.00" />
<line x1="92.84" x2="92.84" y1="54.00" y2="54.00" />
<g fill="none" font-family="Arial, sans-serif" font-size="18.0" stroke="none" text-anchor="start" transform="translate(9.0 0.0)">
<text x="892.89" y="47.74">Feb</text>
<text x="860.35" y="47.74">Jan</text>
<text x="827.80" y="47.74">Dec</text>
<text x="796.30" y="47.74">Nov</text>
<text x="763.75" y="47.74">Oct</text>
<text x="732.25" y="47.74">Sep</text>
<text x="699.71" y="47.74">Aug</text>
<text x="667.16" y="47.74">Jul</text>
<text x="635.66" y="47.74">Jun</text>
<text x="603.11" y="47.74">May</text>
<text x="571.61" y="47.74">Apr</text>
<text x="539.07" y="47.74">Mar</text>
<text x="508.62" y="47.74">Feb</text>
<text x="476.07" y="47.74">Jan</text>
<text x="443.52" y="47.74">Dec</text>
<text x="412.02" y="47.74">Nov</text>
<text x="379.48" y="47.74">Oct</text>
<text x="347.98" y="47.74">Sep</text>
<text x="315.43" y="47.74">Aug</text>
<text x="282.88" y="47.74">Jul</text>
<text x="251.38" y="47.74">Jun</text>
<text x="218.84" y="47.74">May</text>
<text x="187.34" y="47.74">Apr</text>
<text x="154.79" y="47.74">Mar</text>
<text x="125.39" y="47.74">Feb</text>
<text x="92.84" y="47.74">Jan</text>
</g>
<line x1="90.00" x2="910.00" y1="54.00" y2="54.00" />
</g>
<g stroke="#0088">
<line x1="910.00" x2="922.00" y1="472.13" y2="472.13" />
<line x1="910.00" x2="922.00" y1="199.69" y2="199.69" />
<g fill="#0088" font-family="Arial, sans-serif" font-size="18.0" stroke="none" text-anchor="beginning">
<text x="919.00" y="463.13">-10</text>
<text x="919.00" y="190.69">0</text>
</g>
<line x1="910.00" x2="910.00" y1="546.00" y2="54.00" />
</g>
</g>
<g>
<g stroke-dasharray="3.6 7.2" stroke-width="0.72" stroke="#caa">
<line x1="892.89" x2="892.89" y1="546.00" y2="54.00" />
<line x1="860.35" x2="860.35" y1="546.00" y2="54.00" />
<line x1="827.80" x2="827.80" y1="546.00" y2="54.00" />
<line x1="796.30" x2="796.30" y1="546.00" y2="54.00" />
<line x1="763.75" x2="763.75" y1="546.00" y2="54.00" />
<line x1="732.25" x2="732.25" y1="546.00" y2="54.00" />
<line x1="699.71" x2="699.71" y1="546.00" y2="54.00" />
<line x1="667.16" x2="667.16" y1="546.00" y2="54.00" />
<line x1="635.66" x2="635.66" y1="546.00" y2="54.00" />
<line x1="603.11" x2="603.11" y1="546.00" y2="54.00" />
<line x1="571.61" x2="571.61" y1="546.00" y2="54.00" />
<line x1="539.07" x2="539.07" y1="546.00" y2="54.00" />
<line x1="508.62" x2="508.62" y1="546.00" y2="54.00" />
<line x1="476.07" x2="476.07" y1="546.00" y2="54.00" />
<line x1="443.52" x2="443.52" y1="546.00" y2="54.00" />
<line x1="412.02" x2="412.02" y1="546.00" y2="54.00" />
<line x1="379.48" x2="379.48" y1="546.00" y2="54.00" />
<line x1="347.98" x2="347.98" y1="546.00" y2="54.00" />
<line x1="315.43" x2="315.43" y1="546.00" y2="54.00" />
<line x1="282.88" x2="282.88" y1="546.00" y2="54.00" />
<line x1="251.38" x2="251.38" y1="546.00" y2="54.00" />
<line x1="218.84" x2="218.84" y1="546.00" y2="54.00" />
<line x1="187.34" x2="187.34" y1="546.00" y2="54.00" />
<line x1="154.79" x2="154.79" y1="546.00" y2="54.00" />
<line x1="125.39" x2="125.39" y1="546.00" y2="54.00" />
<line x1="92.84" x2="92.84" y1="546.00" y2="54.00" />
<line x1="90.00" x2="910.00" y1="546.00" y2="546.00" />
<line x1="90.00" x2="910.00" y1="201.94" y2="201.94" />
</g>
<g>
<text dominant-baseline="hanging" dx="-36.0" dy="18.0" fill="#0004" font-family="Arial, sans-serif" font-size="36" stroke="none" text-anchor="end" x="910.00" y="98.73">ThMuCh2Sh01BrownTop</text>
</g>
<g>
<text dominant-baseline="text-bottom" dy="-9.0" fill="black" font-family="Arial, sans-serif" font-size="18.0" font-style="italic" stroke="none" text-anchor="middle" x="500.00" y="54.00">Years 2022 to 2025</text>
</g>
<g>
<text dominant-baseline="hanging" dx="18.0" dy="18.0" fill="black" font-family="Arial, sans-serif" font-size="18.0" font-style="italic" stroke="none" text-anchor="beginning" text-orientation="sideways" x="90.00" y="54.00">log(Drips per day)</text>
</g>
<polyline fill="none" points="" stroke-dasharray="3.6 3.6" stroke-width="3.6" stroke="none" />
<g>
</g>
<g stroke="black">
<line x1="892.89" x2="892.89" y1="546.00" y2="556.00" />
<line x1="860.35" x2="860.35" y1="546.00" y2="556.00" />
<line x1="827.80" x2="827.80" y1="546.00" y2="556.00" />
<line x1="796.30" x2="796.30" y1="546.00" y2="556.00" />
<line x1="763.75" x2="763.75" y1="546.00" y2="556.00" />
<line x1="732.25" x2="732.25" y1="546.00" y2="556.00" />
<line x1="699.71" x2="699.71" y1="546.00" y2="556.00" />
<line x1="667.16" x2="667.16" y1="546.00" y2="556.00" />
<line x1="635.66" x2="635.66" y1="546.00" y2="556.00" />
<line x1="603.11" x2="603.11" y1="546.00" y2="556.00" />
<line x1="571.61" x2="571.61" y1="546.00" y2="556.00" />
<line x1="539.07" x2="539.07" y1="546.00" y2="556.00" />
<line x1="508.62" x2="508.62" y1="546.00" y2="556.00" />
<line x1="476.07" x2="476.07" y1="546.00" y2="556.00" />
<line x1="443.52" x2="443.52" y1="546.00" y2="556.00" />
<line x1="412.02" x2="412.02" y1="546.00" y2="556.00" />
<line x1="379.48" x2="379.48" y1="546.00" y2="556.00" />
<line x1="347.98" x2="347.98" y1="546.00" y2="556.00" />
<line x1="315.43" x2="315.43" y1="546.00" y2="556.00" />
<line x1="282.88" x2="282.88" y1="546.00" y2="556.00" />
<line x1="251.38" x2="251.38" y1="546.00" y2="556.00" />
<line x1="218.84" x2="218.84" y1="546.00" y2="556.00" />
<line x1="187.34" x2="187.34" y1="546.00" y2="556.00" />
<line x1="154.79" x2="154.79" y1="546.00" y2="556.00" />
<line x1="125.39" x2="125.39" y1="546.00" y2="556.00" />
<line x1="92.84" x2="92.84" y1="546.00" y2="556.00" />
<g fill="black" font-family="Arial, sans-serif" font-size="18.0" stroke="none" text-anchor="start" transform="translate(9.0 0.0)">
<text x="892.89" y="566.57">Feb</text>
<text x="860.35" y="566.57">Jan</text>
<text x="827.80" y="566.57">Dec</text>
<text x="796.30" y="566.57">Nov</text>
<text x="763.75" y="566.57">Oct</text>
<text x="732.25" y="566.57">Sep</text>
<text x="699.71" y="566.57">Aug</text>
<text x="667.16" y="566.57">Jul</text>
<text x="635.66" y="566.57">Jun</text>
<text x="603.11" y="566.57">May</text>
<text x="571.61" y="566.57">Apr</text>
<text x="539.07" y="566.57">Mar</text>
<text x="508.62" y="566.57">Feb</text>
<text x="476.07" y="566.57">Jan</text>
<text x="443.52" y="566.57">Dec</text>
<text x="412.02" y="566.57">Nov</text>
<text x="379.48" y="566.57">Oct</text>
<text x="347.98" y="566.57">Sep</text>
<text x="315.43" y="566.57">Aug</text>
<text x="282.88" y="566.57">Jul</text>
<text x="251.38" y="566.57">Jun</text>
<text x="218.84" y="566.57">May</text>
<text x="187.34" y="566.57">Apr</text>
<text x="154.79" y="566.57">Mar</text>
<text x="125.39" y="566.57">Feb</text>
<text x="92.84" y="566.57">Jan</text>
</g>
<line x1="90.00" x2="910.00" y1="546.00" y2="546.00" />
</g>
<g stroke="black">
<line x1="90.00" x2="78.00" y1="546.00" y2="546.00" />
<line x1="90.00" x2="78.00" y1="201.94" y2="201.94" />
<g fill="black" font-family="Arial, sans-serif" font-size="18.0" stroke="none" text-anchor="end">
<text x="81.00" y="537.00">0</text>
<text x="81.00" y="192.94">10</text>
</g>
<line x1="90.00" x2="90.00" y1="546.00" y2="54.00" />
</g>
</g>
</g>
</svg>